<svg width="41" height="41" viewBox="0 0 41 41" fill="none" xmlns="http://www.w3.org/2000/svg">
<path fill-rule="evenodd" clip-rule="evenodd" d="M19.8984 25.9441C18.1648 24.8162 16.9501 23.0458 16.5215 21.0224C16.0929 18.9989 16.4855 16.8881 17.613 15.1541L23.281 6.43375C24.4092 4.6995 26.18 3.48442 28.204 3.05583C29.2062 2.84361 30.2404 2.83086 31.2475 3.01832C32.2546 3.20577 33.2149 3.58976 34.0736 4.14835C34.9324 4.70694 35.6726 5.4292 36.2522 6.27388C36.8318 7.11857 37.2393 8.06914 37.4516 9.07133C37.6638 10.0735 37.6765 11.1077 37.4891 12.1148C37.3016 13.1219 36.9176 14.0822 36.359 14.9409L30.691 23.6587C29.5635 25.3929 27.7933 26.6081 25.7698 27.0372C23.7464 27.4662 21.6353 27.074 19.901 25.9467M16.495 26.4485C14.9331 24.7476 13.9814 22.5754 13.7898 20.274C13.5982 17.9727 14.1776 15.673 15.4368 13.7371L21.1048 5.01935C21.8495 3.87434 22.8124 2.88722 23.9386 2.11434C25.0648 1.34147 26.3321 0.797973 27.6683 0.514893C29.0045 0.231814 30.3834 0.214692 31.7262 0.464505C33.0691 0.714318 34.3495 1.22617 35.4945 1.97085C36.6396 2.71552 37.6267 3.67843 38.3996 4.80459C39.1724 5.93076 39.7159 7.19813 39.999 8.53433C40.2821 9.87054 40.2992 11.2494 40.0494 12.5922C39.7996 13.9351 39.2877 15.2155 38.543 16.3605L32.875 25.0783C32.0109 26.4086 30.8538 27.5235 29.4925 28.3378C28.1311 29.1521 26.6015 29.6442 25.0207 29.7765C23.4399 29.9087 21.8499 29.6776 20.3721 29.1008C18.8944 28.5239 17.5682 27.6167 16.495 26.4485Z" fill="#25B8AF"/>
<path fill-rule="evenodd" clip-rule="evenodd" d="M7.03355 36.1876C6.17476 35.629 5.43441 34.9068 4.85477 34.0621C4.27513 33.2175 3.86755 32.2669 3.65533 31.2647C3.4431 30.2624 3.43038 29.2282 3.61789 28.2211C3.8054 27.214 4.18946 26.2537 4.74815 25.395L10.4188 16.6772C10.9772 15.8185 11.6993 15.0781 12.5438 14.4985C13.3883 13.9188 14.3387 13.5112 15.3408 13.2989C16.3429 13.0865 17.377 13.0736 18.384 13.2609C19.391 13.4482 20.3513 13.8321 21.2101 14.3905C22.0688 14.9489 22.8091 15.671 23.3887 16.5155C23.9684 17.36 24.376 18.3105 24.5884 19.3125C24.8007 20.3146 24.8136 21.3487 24.6263 22.3557C24.439 23.3628 24.0552 24.3231 23.4968 25.1818L17.8288 33.8996C16.7012 35.6337 14.931 36.8489 12.9076 37.278C10.8841 37.7071 8.77305 37.3148 7.03875 36.1876M3.63275 36.6894C2.07018 34.9882 1.11808 32.8155 0.926491 30.5136C0.7349 28.2117 1.31471 25.9114 2.57455 23.9754L8.24255 15.2602C8.98705 14.1152 9.94979 13.128 11.0758 12.3551C12.2018 11.5821 13.469 11.0385 14.8051 10.7553C16.1412 10.4721 17.52 10.4549 18.8627 10.7045C20.2055 10.9542 21.4859 11.4659 22.631 12.2104C23.776 12.9549 24.7631 13.9176 25.5361 15.0436C26.309 16.1696 26.8526 17.4369 27.1358 18.7729C27.419 20.109 27.4363 21.4878 27.1866 22.8306C26.9369 24.1733 26.4253 25.4538 25.6808 26.5988L20.0128 35.3166C19.1488 36.647 17.9919 37.7621 16.6307 38.5767C15.2694 39.3912 13.7399 39.8836 12.1591 40.0161C10.5783 40.1486 8.98814 39.9177 7.5103 39.3411C6.03246 38.7645 4.70612 37.8574 3.63275 36.6894Z" fill="#25B8AF"/>
</svg>
