<svg width="60" height="56" viewBox="0 0 60 56" fill="none" xmlns="http://www.w3.org/2000/svg">
<path d="M53.33 18.6224H36.7148V6.77298C36.7122 5.07747 36.0495 3.45217 34.8721 2.25327C33.6946 1.05436 32.0983 0.379634 30.4331 0.376953H6.28181C4.6166 0.379634 3.02035 1.05436 1.84287 2.25327C0.665387 3.45217 0.00271874 5.07747 8.59914e-05 6.77298V22.1498C-0.00652824 23.4228 0.368564 24.6676 1.07525 25.7178C3.3749 30.2791 14.3256 37.1212 14.4351 37.2225C14.5907 37.3207 14.7698 37.3733 14.9528 37.3746C15.1866 37.3722 15.4122 37.2861 15.5899 37.1313C15.748 36.9939 15.8599 36.8096 15.9099 36.6041C15.9599 36.3987 15.9454 36.1825 15.8687 35.9859C14.9938 33.566 14.3277 31.0732 13.8776 28.5357H22.897V40.3952C22.8997 42.0898 23.5626 43.714 24.7404 44.9113C25.9182 46.1086 27.5145 46.7811 29.1788 46.7811H45.7342C45.2842 49.3186 44.618 51.8114 43.7432 54.2313C43.6687 54.4266 43.6555 54.6407 43.7054 54.844C43.7553 55.0473 43.8659 55.2299 44.0219 55.3666C44.1997 55.5213 44.4252 55.6075 44.6591 55.6098C44.8421 55.6086 45.0212 55.556 45.1767 55.4578C45.2862 55.3868 56.237 48.5144 58.5366 43.953C59.2433 42.9029 59.6184 41.6581 59.6118 40.3851V25.0184C59.6091 23.3229 58.9465 21.6976 57.769 20.4987C56.5915 19.2998 54.9953 18.625 53.33 18.6224ZM19.343 26.5084H12.693C12.5492 26.5084 12.4071 26.5401 12.2765 26.6014C12.1459 26.6626 12.0298 26.7519 11.9364 26.8632C11.8419 26.9749 11.7724 27.1062 11.7329 27.248C11.6933 27.3898 11.6846 27.5387 11.7074 27.6842C12.05 29.7843 12.5121 31.8624 13.0912 33.9079C9.64667 31.536 4.22109 27.4612 2.86718 24.8359C2.83668 24.7652 2.80003 24.6973 2.75767 24.6332C2.25616 23.906 1.98836 23.0384 1.99112 22.1498V6.77298C1.99375 5.61514 2.44665 4.50548 3.25074 3.68676C4.05483 2.86804 5.14466 2.4069 6.28181 2.40422H30.4331C31.5703 2.4069 32.6601 2.86804 33.4642 3.68676C34.2683 4.50548 34.7212 5.61514 34.7238 6.77298V18.6224H29.1788C28.241 18.6228 27.3153 18.8369 26.4695 19.2491C25.6237 19.6613 24.8792 20.2611 24.2908 21.0044C22.8697 21.0074 21.4692 20.6596 20.2091 19.9908C22.0674 17.8486 23.1617 15.1309 23.3151 12.277H24.5695C24.8335 12.277 25.0867 12.1702 25.2734 11.9801C25.4601 11.79 25.565 11.5322 25.565 11.2634C25.565 10.9945 25.4601 10.7367 25.2734 10.5466C25.0867 10.3565 24.8335 10.2497 24.5695 10.2497H19.3928V7.04666C19.3928 6.77783 19.2879 6.52001 19.1012 6.32991C18.9145 6.13982 18.6613 6.03303 18.3973 6.03303C18.1333 6.03303 17.88 6.13982 17.6933 6.32991C17.5066 6.52001 17.4018 6.77783 17.4018 7.04666V10.2193H12.2151C11.9511 10.2193 11.6979 10.3261 11.5112 10.5162C11.3245 10.7063 11.2196 10.9641 11.2196 11.233C11.2196 11.5018 11.3245 11.7596 11.5112 11.9497C11.6979 12.1398 11.9511 12.2466 12.2151 12.2466H21.3141C21.1691 14.5942 20.2621 16.8262 18.7358 18.5919L18.5765 18.744C17.469 17.6425 16.6185 16.302 16.0877 14.8212C15.9926 14.5699 15.8034 14.3673 15.5616 14.2579C15.3199 14.1486 15.0453 14.1416 14.7985 14.2384C14.5516 14.3352 14.3526 14.5278 14.2453 14.774C14.1379 15.0202 14.131 15.2997 14.2261 15.551C14.8197 17.1925 15.7418 18.6906 16.9339 19.9502C15.4823 20.697 13.8706 21.0628 12.245 21.0145C11.9809 21.0145 11.7277 21.1213 11.541 21.3114C11.3543 21.5015 11.2495 21.7593 11.2495 22.0282C11.2495 22.297 11.3543 22.5548 11.541 22.7449C11.7277 22.935 11.9809 23.0418 12.245 23.0418C14.4777 23.1129 16.682 22.5175 18.5864 21.3288C19.9866 22.2365 21.5817 22.7859 23.2355 22.9303C23.0127 23.5822 22.8983 24.2673 22.897 24.9576V26.4476L19.343 26.5084ZM57.6207 40.3952C57.6235 41.2838 57.3557 42.1514 56.8542 42.8786C56.8113 42.9371 56.7777 43.0021 56.7546 43.0712C55.4007 45.6965 49.9652 49.7814 46.5207 52.1939C47.0998 50.1483 47.5618 48.0703 47.9045 45.9702C47.9272 45.8246 47.9185 45.6757 47.879 45.5339C47.8394 45.3921 47.77 45.2608 47.6755 45.1491C47.582 45.0379 47.466 44.9485 47.3354 44.8873C47.2048 44.8261 47.0627 44.7944 46.9189 44.7944H29.1788C28.0425 44.7944 26.9527 44.3355 26.1483 43.5184C25.3439 42.7013 24.8907 41.5927 24.8881 40.4357V25.0184C24.8907 23.8605 25.3436 22.7509 26.1477 21.9322C26.9518 21.1134 28.0416 20.6523 29.1788 20.6496H53.33C54.4672 20.6523 55.557 21.1134 56.3611 21.9322C57.1652 22.7509 57.6181 23.8605 57.6207 25.0184V40.3952ZM42.2201 24.8055C42.1821 24.7206 42.1318 24.642 42.0707 24.5724C42.0707 24.5724 42.0707 24.5014 42.001 24.471C41.966 24.4451 41.9294 24.4214 41.8915 24.4001C41.828 24.344 41.7578 24.2963 41.6825 24.2582C41.6295 24.2533 41.5762 24.2533 41.5232 24.2582C41.4536 24.2533 41.3837 24.2533 41.3141 24.2582C41.2263 24.2652 41.1395 24.2822 41.0553 24.3088H40.9458C40.8527 24.3507 40.7656 24.4053 40.687 24.471L40.6173 24.5217L40.5376 24.6433C40.4855 24.7103 40.4389 24.7815 40.3983 24.8562L34.4251 40.0607C34.3766 40.1845 34.3526 40.3168 34.3544 40.45C34.3562 40.5833 34.3837 40.7149 34.4355 40.8373C34.4873 40.9597 34.5623 41.0705 34.6561 41.1633C34.75 41.2562 34.861 41.3293 34.9826 41.3784C35.0995 41.4271 35.2247 41.4513 35.351 41.4494C35.5504 41.4496 35.7452 41.3888 35.9103 41.2749C36.0753 41.1611 36.203 40.9994 36.2768 40.8108L38.009 36.3812H44.6292L46.3714 40.8108C46.4451 40.9994 46.5728 41.1611 46.7379 41.2749C46.903 41.3888 47.0978 41.4496 47.2972 41.4494C47.4233 41.4497 47.5483 41.4256 47.6655 41.3784C47.7872 41.3293 47.8981 41.2562 47.992 41.1633C48.0859 41.0705 48.1609 40.9597 48.2127 40.8373C48.2644 40.7149 48.292 40.5833 48.2938 40.45C48.2956 40.3168 48.2715 40.1845 48.223 40.0607L42.2201 24.8055ZM38.7656 34.3033L41.2843 27.9072L43.793 34.3033H38.7656Z" fill="#0CBCB7"/>
</svg>
