<svg width="52" height="52" viewBox="0 0 52 52" fill="none" xmlns="http://www.w3.org/2000/svg">
<path d="M5.91547 9.19032C3.35531 9.19032 1.32031 7.15532 1.32031 4.59516C1.32031 2.035 3.35531 0 5.91547 0C8.47564 0 10.5106 2.035 10.5106 4.59516C10.5106 7.15532 8.47564 9.19032 5.91547 9.19032ZM5.91547 2.62581C4.79951 2.62581 3.94612 3.47919 3.94612 4.59516C3.94612 5.71113 4.79951 6.56452 5.91547 6.56452C7.03144 6.56452 7.88483 5.71113 7.88483 4.59516C7.88483 3.47919 7.03144 2.62581 5.91547 2.62581Z" fill="#25B8AF"/>
<path d="M17.728 18.3817C15.1678 18.3817 13.1328 16.3467 13.1328 13.7866C13.1328 11.2264 15.1678 9.19141 17.728 9.19141C20.2881 9.19141 22.3231 11.2264 22.3231 13.7866C22.3231 16.3467 20.2881 18.3817 17.728 18.3817ZM17.728 11.8172C16.612 11.8172 15.7586 12.6706 15.7586 13.7866C15.7586 14.9025 16.612 15.7559 17.728 15.7559C18.8439 15.7559 19.6973 14.9025 19.6973 13.7866C19.6973 12.6706 18.8439 11.8172 17.728 11.8172Z" fill="#25B8AF"/>
<path d="M5.91453 18.0543C5.65195 18.0543 5.38937 17.9887 5.12679 17.7918C4.53599 17.3322 4.4047 16.5445 4.86421 15.9537L16.0239 0.855309C16.4834 0.264502 17.2712 0.133211 17.862 0.592728C18.4528 1.05224 18.5841 1.83999 18.1245 2.43079L6.96486 17.5292C6.70228 17.8574 6.30841 18.0543 5.91453 18.0543Z" fill="#25B8AF"/>
<path d="M51.2052 52.5125H1.31486C0.59276 52.5125 0.00195312 51.9217 0.00195312 51.1996C0.00195312 50.4775 0.59276 49.8867 1.31486 49.8867H51.2052C51.9273 49.8867 52.5181 50.4775 52.5181 51.1996C52.5181 51.9217 51.9273 52.5125 51.2052 52.5125Z" fill="#25B8AF"/>
<path d="M1.31486 52.5157C0.59276 52.5157 0.00195312 51.9249 0.00195312 51.2028V47.2641C0.00195312 46.542 0.59276 45.9512 1.31486 45.9512C2.03695 45.9512 2.62776 46.542 2.62776 47.2641V51.2028C2.62776 51.9249 2.03695 52.5157 1.31486 52.5157Z" fill="#25B8AF"/>
<path d="M11.1664 52.5151C10.4443 52.5151 9.85352 51.9243 9.85352 51.2022V42.6684C9.85352 41.9463 10.4443 41.3555 11.1664 41.3555C11.8885 41.3555 12.4793 41.9463 12.4793 42.6684V51.2022C12.4793 51.9243 11.8885 52.5151 11.1664 52.5151Z" fill="#25B8AF"/>
<path d="M21.0141 52.5184C20.292 52.5184 19.7012 51.9276 19.7012 51.2055V44.641C19.7012 43.9189 20.292 43.3281 21.0141 43.3281C21.7362 43.3281 22.327 43.9189 22.327 44.641V51.2055C22.327 51.9276 21.7362 52.5184 21.0141 52.5184Z" fill="#25B8AF"/>
<path d="M31.518 52.5189C30.7959 52.5189 30.2051 51.9281 30.2051 51.206V36.7641C30.2051 36.042 30.7959 35.4512 31.518 35.4512C32.2401 35.4512 32.8309 36.042 32.8309 36.7641V51.206C32.8309 51.9281 32.2401 52.5189 31.518 52.5189Z" fill="#25B8AF"/>
<path d="M41.3637 52.5181C40.6416 52.5181 40.0508 51.9273 40.0508 51.2052V39.3891C40.0508 38.667 40.6416 38.0762 41.3637 38.0762C42.0858 38.0762 42.6766 38.667 42.6766 39.3891V51.2052C42.6766 51.9273 42.0858 52.5181 41.3637 52.5181Z" fill="#25B8AF"/>
<path d="M51.2113 52.5171C50.4892 52.5171 49.8984 51.9263 49.8984 51.2042V23.6332C49.8984 22.9111 50.4892 22.3203 51.2113 22.3203C51.9334 22.3203 52.5242 22.9111 52.5242 23.6332V51.2042C52.5242 51.9263 51.9334 52.5171 51.2113 52.5171Z" fill="#25B8AF"/>
<path d="M1.31844 37.7467C0.661992 37.7467 0.0711851 37.2215 0.00553992 36.565C-0.0601053 35.8429 0.465056 35.1865 1.18715 35.1209C1.44973 35.0552 30.7931 31.576 50.1585 6.36826C50.618 5.77746 51.4057 5.71181 51.9965 6.10568C52.5873 6.5652 52.653 7.35294 52.2591 7.94375C32.1717 34.0705 1.77796 37.7467 1.44973 37.7467C1.38409 37.7467 1.38409 37.7467 1.31844 37.7467Z" fill="#25B8AF"/>
<path d="M51.206 8.53401H43.3285C42.6064 8.53401 42.0156 7.9432 42.0156 7.22111C42.0156 6.49901 42.6064 5.9082 43.3285 5.9082H51.206C51.928 5.9082 52.5189 6.49901 52.5189 7.22111C52.5189 7.9432 51.928 8.53401 51.206 8.53401Z" fill="#25B8AF"/>
<path d="M51.2113 16.4114C50.4892 16.4114 49.8984 15.8206 49.8984 15.0985V7.22111C49.8984 6.49901 50.4892 5.9082 51.2113 5.9082C51.9334 5.9082 52.5242 6.49901 52.5242 7.22111V15.0985C52.5242 15.8206 51.9334 16.4114 51.2113 16.4114Z" fill="#25B8AF"/>
</svg>
