<svg width="41" height="56" viewBox="0 0 41 56" fill="none" xmlns="http://www.w3.org/2000/svg">
<path d="M37.1538 29.0769H29.4417C30.9562 27.6435 31.9038 25.6171 31.9038 23.3722V22.6154C31.9038 22.0206 31.4216 21.5385 30.8269 21.5385H27.2431C24.9983 21.5385 22.9718 22.4862 21.5385 24.0006V16.1538H30.3966C32.0442 16.1538 33.3846 14.8134 33.3846 13.1658V2.98803C33.3846 1.34045 32.0442 0 30.3966 0H10.5266C8.87891 0 7.53846 1.34045 7.53846 2.98803V13.1658C7.53846 14.8134 8.87891 16.1538 10.5266 16.1538H19.3846V24.0005C17.9512 22.4862 15.9248 21.5385 13.6799 21.5385H10.0962C9.50137 21.5385 9.01923 22.0206 9.01923 22.6154V23.3722C9.01923 25.6171 9.96692 27.6435 11.4813 29.0769H3.76923C1.69088 29.0769 0 30.7678 0 32.8462C0 34.9245 1.69088 36.6154 3.76923 36.6154H4.55905L8.50188 51.2751C8.50565 51.289 8.50963 51.3029 8.51394 51.3166C9.38926 54.1179 11.9493 56 14.8843 56H26.0388C28.9738 56 31.5338 54.1179 32.4091 51.3166C32.4134 51.3028 32.4174 51.289 32.4212 51.2751L36.364 36.6154H37.1538C39.2322 36.6154 40.9231 34.9245 40.9231 32.8462C40.9231 30.7678 39.2322 29.0769 37.1538 29.0769ZM9.69231 13.1658V2.98803C9.69231 2.52808 10.0665 2.15385 10.5266 2.15385H30.3966C30.8565 2.15385 31.2308 2.52808 31.2308 2.98803V13.1658C31.2308 13.6258 30.8565 14 30.3966 14H10.5266C10.0665 14 9.69231 13.6258 9.69231 13.1658ZM27.2431 23.6923H29.7412C29.5747 26.6897 27.0835 29.0769 24.0453 29.0769H21.5473C21.7138 26.0795 24.2049 23.6923 27.2431 23.6923ZM11.1819 23.6923H13.6799C16.7182 23.6923 19.2093 26.0795 19.3757 29.0769H16.8776C13.8395 29.0769 11.3484 26.6897 11.1819 23.6923ZM30.3473 50.6937C29.7486 52.5801 28.0199 53.8462 26.0388 53.8462H14.8843C12.9033 53.8462 11.1745 52.5801 10.5758 50.6937L9.39626 46.3077H15.1854C15.6856 48.7625 17.8612 50.6154 20.4616 50.6154C23.0621 50.6154 25.2376 48.7625 25.7379 46.3077H31.527L30.3473 50.6937ZM17.2308 45.2308C17.2308 43.4493 18.6801 42 20.4615 42C22.243 42 23.6923 43.4493 23.6923 45.2308C23.6923 47.0122 22.243 48.4615 20.4615 48.4615C18.6801 48.4615 17.2308 47.0122 17.2308 45.2308ZM32.1061 44.1538H25.7377C25.2374 41.699 23.0619 39.8462 20.4614 39.8462C17.861 39.8462 15.6855 41.699 15.1852 44.1538H8.81677L6.78925 36.6154H34.1334L32.1061 44.1538ZM37.1538 34.4615H35.5385H5.38462H3.76923C2.87851 34.4615 2.15385 33.7369 2.15385 32.8462C2.15385 31.9553 2.87851 31.2308 3.76923 31.2308H16.8778H20.4615H24.0453H37.1538C38.0446 31.2308 38.7692 31.9553 38.7692 32.8462C38.7692 33.7369 38.0446 34.4615 37.1538 34.4615Z" fill="#0CBCB7"/>
<path d="M27.5414 10.7701C27.5414 10.5175 27.7469 10.312 27.9995 10.312C28.5942 10.312 29.0765 9.82976 29.0765 9.23509V6.92056C29.0765 6.32589 28.5942 5.84364 27.9995 5.84364C27.7469 5.84364 27.5414 5.63816 27.5414 5.38552C27.5414 4.79084 27.0592 4.30859 26.4645 4.30859H14.4576C13.8628 4.30859 13.3806 4.79084 13.3806 5.38552C13.3806 5.63816 13.1752 5.84364 12.9226 5.84364C12.3278 5.84364 11.8457 6.32589 11.8457 6.92056V9.23509C11.8457 9.82976 12.3278 10.312 12.9226 10.312C13.1752 10.312 13.3806 10.5175 13.3806 10.7701C13.3806 11.3648 13.8628 11.8471 14.4576 11.8471H26.4645C27.0593 11.8471 27.5414 11.3648 27.5414 10.7701ZM25.62 9.69321H15.3021C15.0404 9.11716 14.5755 8.65236 13.9995 8.39056V7.76509C14.5756 7.50329 15.0404 7.03849 15.3021 6.46244H25.62C25.8818 7.03849 26.3466 7.50329 26.9226 7.76509V8.39056C26.3466 8.65236 25.8818 9.11716 25.62 9.69321Z" fill="#0CBCB7"/>
</svg>
