<svg width="51" height="46" viewBox="0 0 51 46" fill="none" xmlns="http://www.w3.org/2000/svg">
<path d="M3.40302 17C2.76961 16.9994 2.16162 17.2493 1.71153 17.6954C1.26144 18.1415 1.00574 18.7475 1.00014 19.3815C0.997575 19.6012 1.02937 19.82 1.09437 20.0299L7.18402 41.5221C7.46627 42.526 8.06946 43.4097 8.90124 44.0378C9.73303 44.6659 10.7476 45.0039 11.7895 45H39.2106C40.2546 45.0009 41.2706 44.6622 42.1055 44.0349C42.9404 43.4076 43.5491 42.5257 43.8397 41.5221L49.9293 20.0299L50 19.3815C49.9944 18.7475 49.7387 18.1415 49.2886 17.6954C48.8385 17.2493 48.2305 16.9994 47.5971 17H3.40302ZM26.1738 35.8714C25.1948 35.8665 24.2392 35.5715 23.4275 35.0235C22.6159 34.4755 21.9846 33.6992 21.6134 32.7925C21.2421 31.8858 21.1475 30.8893 21.3415 29.9289C21.5354 28.9684 22.0093 28.0869 22.7033 27.3958C23.3973 26.7046 24.2803 26.2347 25.2409 26.0453C26.2014 25.8559 27.1965 25.9556 28.1006 26.3317C29.0046 26.7078 29.777 27.3435 30.3205 28.1586C30.8639 28.9737 31.1539 29.9317 31.1539 30.9116C31.1477 32.2294 30.6202 33.491 29.6869 34.4205C28.7536 35.3501 27.4904 35.8717 26.1738 35.8714Z" stroke="#0CBCB7" stroke-width="2" stroke-linejoin="round"/>
<path d="M14 17L25.5 1L37 17" stroke="#0CBCB7" stroke-width="2" stroke-linejoin="round"/>
</svg>
