<svg width="60" height="60" viewBox="0 0 60 60" fill="none" xmlns="http://www.w3.org/2000/svg">
<path d="M20.1651 34.2949L3.14844 51.3116" stroke="#0CBCB7" stroke-width="2.5"/>
<path d="M25.7042 39.8359L8.6875 56.8526" stroke="#0CBCB7" stroke-width="2.5"/>
<path d="M8.68941 56.8535C7.95463 57.5883 6.95806 58.0011 5.91892 58.0011C4.87979 58.0011 3.88322 57.5883 3.14844 56.8535" stroke="#0CBCB7" stroke-width="2.5" stroke-linecap="round" stroke-linejoin="round"/>
<path d="M3.14757 51.3125C2.41279 52.0473 2 53.0439 2 54.083C2 55.1221 2.41279 56.1187 3.14757 56.8535" stroke="#0CBCB7" stroke-width="2.5" stroke-linecap="round" stroke-linejoin="round"/>
<path d="M58.0008 19.6313C58.0008 21.9466 57.5448 24.2393 56.6587 26.3784C55.7726 28.5176 54.4739 30.4612 52.8367 32.0984C51.1995 33.7357 49.2559 35.0344 47.1167 35.9204C44.9776 36.8065 42.6849 37.2625 40.3695 37.2625C38.0542 37.2625 35.7615 36.8065 33.6223 35.9204C31.4832 35.0344 29.5396 33.7357 27.9024 32.0984C26.2651 30.4612 24.9664 28.5176 24.0804 26.3784C23.1943 24.2393 22.7383 21.9466 22.7383 19.6313C22.7383 14.9552 24.5959 10.4706 27.9024 7.16408C31.2089 3.85757 35.6934 2 40.3695 2C42.6849 2 44.9776 2.45605 47.1167 3.3421C49.2559 4.22815 51.1995 5.52686 52.8367 7.16408C54.4739 8.80129 55.7726 10.7449 56.6587 12.8841C57.5448 15.0232 58.0008 17.3159 58.0008 19.6313Z" stroke="#0CBCB7" stroke-width="2.5" stroke-linecap="round" stroke-linejoin="round"/>
<path d="M20.1641 34.2949L25.705 39.8359" stroke="#0CBCB7" stroke-width="2.5" stroke-linecap="round" stroke-linejoin="round"/>
<path d="M22.9336 37.0668L27.9008 32.0996" stroke="#0CBCB7" stroke-width="2.5" stroke-linecap="round" stroke-linejoin="round"/>
<path d="M15.4336 39.0254L20.9746 44.5664" stroke="#0CBCB7" stroke-width="2.5" stroke-linecap="round" stroke-linejoin="round"/>
<path d="M50.1643 19.6309C50.1643 22.2287 49.1323 24.7201 47.2953 26.5571C45.4584 28.394 42.967 29.426 40.3691 29.426" stroke="#0CBCB7" stroke-width="2.5" stroke-linecap="round" stroke-linejoin="round"/>
</svg>
