<svg width="33" height="43" viewBox="0 0 33 43" fill="none" xmlns="http://www.w3.org/2000/svg">
<path fill-rule="evenodd" clip-rule="evenodd" d="M16.5005 2.99888C13.7668 2.9994 11.0977 3.82978 8.84627 5.38018C6.5948 6.93058 4.86704 9.12795 3.89153 11.6816C2.91602 14.2353 2.73872 17.0249 3.38309 19.6815C4.02747 22.3382 5.46314 24.7366 7.50022 26.5595L7.50622 26.5675C8.62025 27.5656 9.46628 28.3216 10.0703 28.8776C10.6403 29.3976 11.0903 29.8256 11.3283 30.1176L11.3523 30.1476C11.7963 30.6937 12.1804 31.1697 12.4364 31.7397C12.6904 32.3077 12.7864 32.9137 12.8984 33.6077L12.9044 33.6477C12.9624 34.0037 12.9844 34.4398 12.9944 34.9998H20.0066C20.0166 34.4398 20.0386 34.0037 20.0966 33.6477L20.1026 33.6077C20.2146 32.9137 20.3106 32.3077 20.5646 31.7397C20.8206 31.1697 21.2046 30.6937 21.6486 30.1476L21.6726 30.1176C21.9106 29.8256 22.3606 29.3976 22.9307 28.8776C23.5347 28.3216 24.3807 27.5656 25.4947 26.5675L25.5027 26.5595C27.5399 24.7365 28.9757 22.3379 29.62 19.6811C30.2643 17.0243 30.0868 14.2344 29.1111 11.6807C28.1353 9.12693 26.4072 6.92958 24.1554 5.37933C21.9037 3.82909 19.2343 2.999 16.5005 2.99888ZM19.9886 37.9999H13.0124C13.0204 38.2079 13.0304 38.3899 13.0444 38.5539C13.0844 39.0039 13.1544 39.1679 13.2024 39.2499C13.3339 39.4774 13.5229 39.6664 13.7504 39.7979C13.8304 39.8459 13.9964 39.9139 14.4464 39.9559C14.9164 39.9979 15.5384 39.9999 16.5005 39.9999C17.4625 39.9999 18.0845 39.9999 18.5545 39.9559C19.0045 39.9159 19.1685 39.8459 19.2505 39.7979C19.4781 39.6664 19.6671 39.4774 19.7986 39.2499C19.8466 39.1699 19.9166 39.0039 19.9566 38.5539C19.9706 38.3899 19.9806 38.2079 19.9886 37.9999ZM1.00561e-05 16.4993C0.00021105 13.7472 0.688779 11.0388 2.00303 8.62079C3.31727 6.20277 5.21546 4.15187 7.52477 2.65482C9.83407 1.15777 12.4812 0.262103 15.225 0.0493722C17.9689 -0.163359 20.7224 0.313599 23.2349 1.43682C25.7473 2.56005 27.9389 4.29386 29.6102 6.48042C31.2814 8.66698 32.3792 11.2368 32.8036 13.956C33.228 16.6752 32.9655 19.4574 32.04 22.0492C31.1145 24.641 29.5555 26.9602 27.5048 28.7956C26.6516 29.5553 25.8022 30.3193 24.9567 31.0877C24.6582 31.3622 24.3648 31.6423 24.0767 31.9277C24.0521 31.9532 24.0281 31.9792 24.0047 32.0057C23.4847 32.6477 23.3707 32.8137 23.3047 32.9637C23.2367 33.1137 23.1887 33.3077 23.0587 34.1238C23.0067 34.4458 23.0007 34.9978 23.0007 36.4998V36.5638C23.0007 37.4438 23.0007 38.2039 22.9447 38.8239C22.8847 39.4839 22.7526 40.1359 22.3986 40.7499C22.0035 41.4344 21.4351 42.0028 20.7506 42.398C20.1366 42.752 19.4846 42.884 18.8265 42.944C18.2025 43 17.4445 43 16.5665 43H16.4365C15.5564 43 14.7964 43 14.1764 42.944C13.5164 42.884 12.8644 42.752 12.2504 42.398C11.5658 42.0029 10.9974 41.4345 10.6023 40.7499C10.2483 40.1359 10.1163 39.4839 10.0563 38.8259C10.0003 38.2019 10.0003 37.4438 10.0003 36.5658V36.4998C10.0003 34.9998 9.99429 34.4458 9.94229 34.1238C9.81228 33.3077 9.76228 33.1137 9.69628 32.9637C9.63028 32.8137 9.51628 32.6477 8.99626 32.0037L8.97626 31.9837C8.67082 31.6789 8.35942 31.3802 8.04224 31.0877C7.45422 30.5477 6.6222 29.8016 5.49616 28.7956C3.76492 27.2493 2.38024 25.3544 1.43302 23.2352C0.485799 21.116 -0.00255548 18.8205 1.00561e-05 16.4993Z" fill="#25B8AF"/>
<path fill-rule="evenodd" clip-rule="evenodd" d="M18.9448 13.2804C19.2683 13.5117 19.4867 13.8621 19.5519 14.2544C19.6172 14.6467 19.524 15.0488 19.2928 15.3724L16.7007 19.0005H19.7868C20.0624 19.0006 20.3326 19.0766 20.5679 19.2202C20.8031 19.3638 20.9942 19.5694 21.1203 19.8145C21.2463 20.0596 21.3024 20.3346 21.2824 20.6095C21.2624 20.8843 21.1671 21.1484 21.0069 21.3726L16.7207 27.3728C16.6083 27.5381 16.4639 27.6793 16.2962 27.788C16.1284 27.8967 15.9406 27.9708 15.7438 28.0059C15.5469 28.041 15.3451 28.0364 15.1501 27.9923C14.9551 27.9483 14.7708 27.8657 14.6082 27.7495C14.4455 27.6332 14.3077 27.4856 14.203 27.3154C14.0982 27.1451 14.0285 26.9556 13.998 26.7581C13.9674 26.5605 13.9767 26.3588 14.0253 26.1649C14.0738 25.9709 14.1607 25.7886 14.2807 25.6287L16.8707 22.0006H13.7867C13.5111 22.0005 13.2408 21.9245 13.0056 21.7809C12.7704 21.6374 12.5793 21.4318 12.4532 21.1867C12.3272 20.9416 12.2711 20.6666 12.2911 20.3917C12.3111 20.1168 12.4064 19.8528 12.5666 19.6286L16.8507 13.6284C16.9653 13.4679 17.1104 13.3316 17.2776 13.2273C17.4449 13.123 17.6311 13.0526 17.8256 13.0203C18.0201 12.988 18.2191 12.9943 18.4111 13.0389C18.6031 13.0836 18.7845 13.1656 18.9448 13.2804Z" fill="#25B8AF"/>
</svg>
