<svg width="40" height="39" viewBox="0 0 40 39" fill="none" xmlns="http://www.w3.org/2000/svg">
<path d="M10.0225 21.9755L2.66667 31.2932V36.334H39.5V38.5006H1.58333C1.29602 38.5006 1.02047 38.3865 0.817301 38.1833C0.614137 37.9802 0.5 37.7046 0.5 37.4173V0.583984H2.66667V27.7973L8.44083 20.4837C8.21803 20.0484 8.09633 19.5685 8.08481 19.0796C8.07328 18.5907 8.17222 18.1055 8.37426 17.6602C8.5763 17.2149 8.87622 16.8209 9.25169 16.5076C9.62716 16.1943 10.0685 15.9698 10.5428 15.8507C11.0171 15.7317 11.5121 15.7212 11.991 15.8201C12.47 15.919 12.9204 16.1247 13.3088 16.4218C13.6971 16.7189 14.0134 17.0999 14.2341 17.5363C14.4548 17.9727 14.5742 18.4532 14.5833 18.9421L21.7691 21.3363C22.1928 20.7907 22.7795 20.3946 23.444 20.2056C24.1084 20.0166 24.8158 20.0446 25.4632 20.2855L32.3728 11.9947C31.981 11.3357 31.8348 10.5594 31.9601 9.80299C32.0854 9.0466 32.474 8.35886 33.0574 7.86132C33.6407 7.36379 34.3811 7.0885 35.1478 7.08411C35.9145 7.07972 36.658 7.34651 37.247 7.83733C37.836 8.32816 38.2325 9.0114 38.3665 9.7663C38.5004 10.5212 38.3631 11.2991 37.9789 11.9626C37.5948 12.6261 36.9884 13.1324 36.267 13.392C35.5456 13.6517 34.7556 13.6479 34.0368 13.3814L27.1273 21.6732C27.3813 22.1011 27.5338 22.5817 27.5728 23.0778C27.6118 23.5739 27.5363 24.0724 27.3523 24.5348C27.1682 24.9971 26.8804 25.411 26.511 25.7446C26.1417 26.0781 25.7007 26.3224 25.222 26.4586C24.7433 26.5947 24.2398 26.6191 23.7502 26.5299C23.2606 26.4407 22.798 26.2403 22.3981 25.944C21.9982 25.6478 21.6717 25.2636 21.4438 24.8213C21.2158 24.3789 21.0925 23.8901 21.0833 23.3925L13.8976 20.9983C13.4534 21.5703 12.8306 21.9772 12.1283 22.1543C11.4261 22.3314 10.6848 22.2684 10.0225 21.9755Z" fill="#25B8AF"/>
</svg>
