<svg width="56" height="56" viewBox="0 0 56 56" fill="none" xmlns="http://www.w3.org/2000/svg">
<path d="M12.25 24.5C11.7859 24.5 11.3408 24.6844 11.0126 25.0126C10.6844 25.3408 10.5 25.7859 10.5 26.25V47.25C10.5 47.7141 10.6844 48.1593 11.0126 48.4874C11.3408 48.8156 11.7859 49 12.25 49H43.75C44.2141 49 44.6592 48.8156 44.9874 48.4874C45.3156 48.1593 45.5 47.7141 45.5 47.25V26.25C45.5 25.7859 45.3156 25.3408 44.9874 25.0126C44.6592 24.6844 44.2141 24.5 43.75 24.5H12.25ZM12.25 21H43.75C45.1424 21 46.4777 21.5531 47.4623 22.5377C48.4469 23.5223 49 24.8576 49 26.25V47.25C49 48.6424 48.4469 49.9777 47.4623 50.9623C46.4777 51.9469 45.1424 52.5 43.75 52.5H12.25C10.8576 52.5 9.52226 51.9469 8.53769 50.9623C7.55312 49.9777 7 48.6424 7 47.25V26.25C7 24.8576 7.55312 23.5223 8.53769 22.5377C9.52226 21.5531 10.8576 21 12.25 21Z" fill="#0CBCB7"/>
<path d="M28 29.7494C28.4641 29.7494 28.9093 29.9338 29.2374 30.262C29.5656 30.5902 29.75 31.0353 29.75 31.4994V41.9994C29.75 42.4636 29.5656 42.9087 29.2374 43.2369C28.9093 43.565 28.4641 43.7494 28 43.7494C27.5359 43.7494 27.0908 43.565 26.7626 43.2369C26.4344 42.9087 26.25 42.4636 26.25 41.9994V31.4994C26.25 31.0353 26.4344 30.5902 26.7626 30.262C27.0908 29.9338 27.5359 29.7494 28 29.7494ZM37.751 13.6004C36.8425 11.3372 35.1748 9.46063 33.0339 8.29263C30.8931 7.12464 28.4125 6.73802 26.0177 7.1991C23.6229 7.66017 21.4632 8.9402 19.9091 10.8196C18.3549 12.699 17.5032 15.0607 17.5 17.4994V20.9994H36.75L42 23.0994V24.4994H14V17.4994C13.9974 14.244 15.1294 11.0893 17.2013 8.57829C19.2732 6.06723 22.1554 4.35672 25.3521 3.74099C28.5488 3.12527 31.8602 3.64283 34.7165 5.20465C37.5729 6.76647 39.7957 9.2749 41.0025 12.2984L37.751 13.6004Z" fill="#0CBCB7"/>
</svg>
