<svg width="58" height="56" viewBox="0 0 58 56" fill="none" xmlns="http://www.w3.org/2000/svg">
<g clip-path="url(#clip0_396_592)">
<path fill-rule="evenodd" clip-rule="evenodd" d="M55.7907 19.0699V19.0459L55.7946 19.0296C55.8232 18.7781 55.6011 15.7258 55.4672 14.7275C55.2428 13.0643 54.8884 11.6682 54.3729 10.4718C53.8583 9.27529 53.1827 8.2785 52.3174 7.41327C50.5862 5.68203 48.3302 4.71078 45.0024 4.26346C44.4181 4.18452 43.7975 4.12106 43.1048 4.06844L42.9624 4.0576V1.77999C42.9624 0.798673 42.1637 0 41.1824 0C40.2011 0 39.4024 0.798673 39.4024 1.77999V3.90592L39.2446 3.90282C37.5366 3.86954 35.6204 3.87032 33.5888 3.86954H22.9786C20.9471 3.86954 19.0309 3.86954 17.3228 3.90282L17.165 3.90592V1.77999C17.165 0.798673 16.3671 0 15.385 0C14.4029 0 13.605 0.798673 13.605 1.77999V4.0576L13.4626 4.06844C12.7707 4.12106 12.1493 4.18452 11.565 4.26346C8.23716 4.71078 5.98199 5.68203 4.25076 7.41327C2.51952 9.1445 1.5475 11.4004 1.10018 14.7275C0.977125 15.6438 0.887352 16.6769 0.826213 17.8858L0.824665 17.909L0.818474 17.9253C0.818474 17.9253 0.8177 17.9291 0.816926 17.9315C0.752692 18.2998 0.707031 23.0609 0.707031 26.1418V31.5925C0.707031 36.3327 0.707031 40.0776 1.10018 43.0061C1.5475 46.3339 2.51952 48.5898 4.25076 50.3211C5.98122 52.0515 8.23716 53.0228 11.565 53.4709C14.4934 53.864 18.2376 53.864 22.9786 53.864H33.4434C34.4247 53.864 35.2233 53.0661 35.2233 52.084C35.2233 51.1019 34.4247 50.304 33.4434 50.304H23.1241C18.2515 50.304 14.731 50.304 12.0394 49.9426C9.5025 49.6013 7.92605 48.9621 6.76751 47.8035C5.60974 46.645 4.96972 45.0686 4.62842 42.5325C4.26701 39.84 4.26701 36.3195 4.26701 31.447V26.2873C4.26701 24.1893 4.26701 22.2081 4.30029 20.4799L4.30338 20.3282H52.264L52.2671 20.4799C52.2996 22.1462 52.3004 24.9694 52.3004 24.9972C52.3004 25.9793 53.0991 26.7772 54.0804 26.7772C55.0617 26.7772 55.8604 25.9793 55.8604 24.9972C55.8604 24.9585 55.8596 21.1122 55.7907 19.0699ZM4.46358 16.7683L4.47829 16.6003C4.52085 16.0965 4.57038 15.6391 4.62842 15.2019C4.96972 12.6658 5.60897 11.0893 6.76751 9.93079C7.92605 8.77225 9.5025 8.133 12.0394 7.79171C14.731 7.42952 18.2515 7.42952 23.1241 7.42952H33.4434C38.3159 7.42952 41.8372 7.42952 44.5288 7.79171C47.0649 8.133 48.6414 8.77225 49.7999 9.93079C50.9584 11.0893 51.5977 12.6658 51.939 15.2019C51.997 15.6345 52.0473 16.105 52.0891 16.6003L52.1038 16.7683H4.46358Z" fill="#0CBCB7"/>
<path d="M47.0974 27.1367C41.475 27.1367 36.9004 31.7113 36.9004 37.3345V45.8026C36.9004 51.4251 41.475 55.9996 47.0974 55.9996C52.7198 55.9996 57.2944 51.4251 57.2944 45.8026V37.3345C57.2944 31.7113 52.7198 27.1367 47.0974 27.1367ZM54.044 45.8026C54.044 49.6327 50.9283 52.7492 47.0974 52.7492C43.2666 52.7492 40.1508 49.6327 40.1508 45.8026V37.3345C40.1508 33.5037 43.2666 30.3871 47.0974 30.3871C50.9283 30.3871 54.044 33.5037 54.044 37.3345V45.8026Z" fill="#0CBCB7"/>
</g>
<defs>
<clipPath id="clip0_396_592">
<rect width="56.5866" height="56" fill="white" transform="translate(0.707031)"/>
</clipPath>
</defs>
</svg>
