<svg xmlns="http://www.w3.org/2000/svg" xmlns:xlink="http://www.w3.org/1999/xlink" width="122.466" height="140.539" viewBox="0 0 122.466 140.539">
  <defs>
    <clipPath id="clip-path">
      <rect id="Rectangle_3411" data-name="Rectangle 3411" width="122.466" height="140.539" transform="translate(0 0)" fill="none"/>
    </clipPath>
  </defs>
  <g id="Group_97364" data-name="Group 97364" transform="translate(0 0.001)">
    <g id="Group_97364-2" data-name="Group 97364" transform="translate(0 -0.001)" clip-path="url(#clip-path)">
      <path id="Path_63184" data-name="Path 63184" d="M148.928,133.68c0-4.841-3.144-7.2-7.017-5.262L68.238,165.254c-3.872,1.936-7.017,7.438-7.017,12.279V247.7c0,4.841,3.144,7.2,7.017,5.263l73.674-36.837c3.873-1.936,7.017-7.438,7.017-12.279Z" transform="translate(-54.204 -113.099)" fill="#80b7e4" fill-rule="evenodd"/>
      <path id="Path_63185" data-name="Path 63185" d="M164.2,875.817l-16.849,8.424V901.09l16.849-8.424Z" transform="translate(-130.459 -775.438)" fill="#ea3f4c" fill-rule="evenodd"/>
      <path id="Path_63186" data-name="Path 63186" d="M387.192,764.318l-16.849,8.424v16.849l16.849-8.425Z" transform="translate(-327.897 -676.719)" fill="#3e6f97" fill-rule="evenodd"/>
      <path id="Path_63187" data-name="Path 63187" d="M164.2,653.169l-16.849,8.425v16.849l16.849-8.424Z" transform="translate(-130.459 -578.309)" fill="#3e6f97" fill-rule="evenodd"/>
      <path id="Path_63188" data-name="Path 63188" d="M387.192,541.671,370.343,550.1v16.849l16.849-8.425Z" transform="translate(-327.897 -479.59)" fill="#3e6f97" fill-rule="evenodd"/>
      <path id="Path_63189" data-name="Path 63189" d="M609.839,430.348l-16.849,8.425v16.849l16.849-8.424Z" transform="translate(-525.027 -381.026)" fill="#3e6f97" fill-rule="evenodd"/>
      <path id="Path_63190" data-name="Path 63190" d="M390.759,525.352a27.5,27.5,0,0,1-3.1-13.581,49.606,49.606,0,0,1,3.124-16.742,9.833,9.833,0,0,1-1.7.155h-.03a8.276,8.276,0,0,1-3.964-.974l-.026-.014v0l-.029-.016h0l-.007,0-.014-.007-.007,0,0,0-.006,0-.009,0-.011-.006-.006,0,0,0-.005,0-.017-.009-.006,0h0l-.029-.016h0l-.005,0-.018-.01,0,0,0,0-.007,0-.011-.006-.008,0-.006,0,0,0-.007,0-.013-.007-.007,0,0,0,0,0-.022-.013h0l-.029-.017h0l-.007,0-.014-.008-.006,0,0,0-.006,0-.009-.005-.01-.006-.006,0,0,0-.005,0-.015-.009-.006,0h0l-.028-.017h0l-.005,0-.018-.011,0,0,0,0-.007,0-.011-.007-.007,0-.005,0-.005,0-.007,0-.011-.007-.007,0,0,0,0,0-.019-.012,0,0h0l-.028-.018h0l-.007,0-.014-.009-.005,0,0,0-.006,0-.009-.006-.009-.006-.006,0,0,0-.005,0-.013-.009-.007,0h0l-.027-.018h0l-.006,0-.018-.012,0,0,0,0-.007,0-.011-.007-.006,0-.006,0-.006,0-.007,0-.01-.007-.007-.005,0,0,0,0-.015-.01-.007-.005h0l-.026-.018h0l-.008-.006-.012-.009,0,0,0,0-.007-.005-.008-.006-.007,0-.007,0-.005,0,0,0-.011-.007-.009-.006,0,0h0l-.018-.013-.007,0-.009-.007-.014-.01h0l0,0-.009-.007-.009-.006,0,0-.006,0-.007-.005-.006,0-.007-.005-.009-.006,0,0,0,0-.01-.007-.011-.008,0,0-.024-.018,0,0-.012-.009-.009-.007,0,0-.005,0-.009-.007-.006,0,0,0-.008-.006-.007-.005,0,0-.007-.005-.011-.009,0,0h0l-.006,0-.017-.013-.019-.014,0,0h0l0,0-.013-.01-.006,0,0,0-.007-.006-.009-.007,0,0,0,0-.011-.008-.007-.005h0l0,0-.063-.05h0l-.007-.005-.013-.011,0,0,0,0-.01-.008-.009-.008h0l0,0c-3.82-3.105-5.048-9.188-2.733-14.071l-.435-.27a1.671,1.671,0,0,1-.208-.147,2.149,2.149,0,0,1-.181-3.07,2.1,2.1,0,0,1,1.36-.619c.1-.006.122,0,.153,0a1.772,1.772,0,0,1,.354.036,2.076,2.076,0,0,1,.484.155,1.65,1.65,0,0,1,.224.121l.6.371c3.8-4.273,8.607-5.5,13.038-3.953h0l.129.046.023.008.021.008.125.047.021.008.025.01.083.032.025.01.016.006h.006l.011,0,.029.012.042.017.029.012.011,0h0l0,0,.014.006.02.008,0,0h0l.081.034h0l.005,0,.018.008.014.006.005,0,0,0,.01,0,.029.013.04.018.029.013.01,0,0,0,.005,0,.013.006.018.008.006,0h0l.079.035h0l.006,0,.017.008.013.006.006,0,0,0,.009,0,.023.011.005,0h0l.039.018h0l.006,0,.022.01.009,0,.005,0,.006,0,.012.006.017.008.007,0,0,0,.077.037,0,0,.007,0,.016.008.012.006.007,0,.005,0,.009,0,.022.011.006,0h0l.038.019h0l.007,0,.021.011.009,0,.006,0,.007,0,.012.006.016.008.007,0,0,0,.076.039,0,0,.008,0,.015.008.012.006.007,0,.005,0,.008,0,.021.011.007,0h0l.038.02h0l.007,0,.021.011.008,0,.005,0,.007,0,.012.006.015.008.008,0,0,0,.038.02.032.018.005,0,0,0,.008,0,.015.008.012.006.007,0,.006,0,.008,0,.021.011.007,0h0l.038.021h0l.007,0,.021.012.008,0,.005,0,.007,0,.011.007.015.009.008,0,0,0,.038.021a7.311,7.311,0,0,1,3.236,4.042,34.943,34.943,0,0,1,9.862-7.668,20.33,20.33,0,0,1,7.31-2.187c-1.183-.658-1.833-1.136-1.749-1.332v0h0a11.877,11.877,0,0,1,13.64-6.957V496.6c0,4.841-3.144,10.343-7.017,12.279Z" transform="translate(-336.004 -405.851)" fill="#2e5473" fill-rule="evenodd"/>
      <path id="Path_63191" data-name="Path 63191" d="M9.621,226.112h0L2.808,222.7h0C1.1,221.953,0,219.956,0,217.088V146.923c0-4.841,3.144-10.343,7.017-12.279L80.69,97.807A4.849,4.849,0,0,1,85,97.5h0q.066.031.13.065l6.952,3.475a4.818,4.818,0,0,0-4.378.27L14.033,138.152c-3.872,1.936-7.017,7.438-7.017,12.279V220.6c0,2.752,1.016,4.7,2.6,5.516" transform="translate(0 -85.998)" fill="#a1cff0" fill-rule="evenodd"/>
      <path id="Path_63192" data-name="Path 63192" d="M204.211,424.422c2.625-1.312,4.755.362,4.755,3.736s-2.131,7.18-4.755,8.492-4.755-.362-4.755-3.736,2.131-7.18,4.755-8.492" transform="translate(-176.596 -375.382)" fill="#394148" fill-rule="evenodd"/>
      <path id="Path_63193" data-name="Path 63193" d="M169,232.125h0l4.431-2.215c3.09-1.545,5.08-5.377,5.08-10.8,0-9.319-5.885-19.828-13.133-23.452-3.034-1.517-5.828-1.589-8.053-.477h0l-4.431,2.215c2.224-1.112,5.019-1.04,8.053.477,7.248,3.624,13.133,14.133,13.133,23.452,0,5.419-1.99,9.25-5.08,10.8" transform="translate(-135.37 -172.143)" fill="#dde3e9" fill-rule="evenodd"/>
      <path id="Path_63194" data-name="Path 63194" d="M153.4,280.326a11.284,11.284,0,0,0,1.072.613,7.756,7.756,0,0,0,3.335.889,5.335,5.335,0,0,1-5.351,2.128Zm-11.881-8.332a19.231,19.231,0,0,1-.935-5.744c0-5.207,2.549-8.38,6.129-8.325A10.146,10.146,0,0,0,145,264.038a19.231,19.231,0,0,0,.935,5.744Z" transform="translate(-124.467 -228.363)" fill="#a3aeb7" fill-rule="evenodd"/>
      <path id="Path_63195" data-name="Path 63195" d="M110.228,234.359a27.22,27.22,0,0,1-1.661-9.05c0-9.319,5.885-13.943,13.133-10.319s13.133,14.133,13.133,23.452c0,9.217-5.757,13.841-12.9,10.435l1.8-2.608.369-1.42c4.059.658,7.056-2.6,7.056-8.242,0-6.716-4.241-14.289-9.464-16.9s-9.464.72-9.464,7.436a19.231,19.231,0,0,0,.935,5.744Z" transform="translate(-96.124 -189.256)" fill="#ccd1d8" fill-rule="evenodd"/>
      <path id="Path_63196" data-name="Path 63196" d="M200.307,467.822a11.948,11.948,0,0,0,1.866,1.17c2.562,1.281,4.888,1.132,6.593-.145a10.649,10.649,0,0,1-3.489,5.939,11.871,11.871,0,0,1-3.1-1.077,16.682,16.682,0,0,1-2.712-1.717q0-.126,0-.256a10.146,10.146,0,0,1,.851-3.914" transform="translate(-176.596 -414.204)" fill="#ccd1d8" fill-rule="evenodd"/>
      <path id="Path_63197" data-name="Path 63197" d="M209.559,434.995a13.556,13.556,0,0,0,3.607,2.72,8.462,8.462,0,0,0,2.349.8,9.478,9.478,0,0,1-.18,1.271c-1.7,1.277-4.031,1.426-6.593.145a11.965,11.965,0,0,1-1.866-1.17,10.2,10.2,0,0,1,2.682-3.762" transform="translate(-183.167 -385.14)" fill="#a3aeb7" fill-rule="evenodd"/>
      <path id="Path_63198" data-name="Path 63198" d="M593.064,230c2.625-1.312,4.756.362,4.756,3.736s-2.131,7.18-4.756,8.492-4.755-.362-4.755-3.736,2.131-7.18,4.755-8.492" transform="translate(-520.882 -203.24)" fill="#394148" fill-rule="evenodd"/>
      <path id="Path_63199" data-name="Path 63199" d="M557.853,37.7h0l4.431-2.215c3.091-1.545,5.08-5.377,5.08-10.8,0-9.319-5.885-19.828-13.133-23.452C551.2-.282,548.4-.354,546.178.758l-4.431,2.215c2.224-1.112,5.019-1.04,8.053.477,7.248,3.624,13.133,14.133,13.133,23.452,0,5.419-1.99,9.25-5.08,10.8" transform="translate(-479.657 0.001)" fill="#dde3e9" fill-rule="evenodd"/>
      <path id="Path_63200" data-name="Path 63200" d="M542.248,85.9a11.324,11.324,0,0,0,1.072.613,7.756,7.756,0,0,0,3.335.889A5.335,5.335,0,0,1,541.3,89.53Zm-11.881-8.332a19.23,19.23,0,0,1-.935-5.744c0-5.207,2.549-8.38,6.129-8.325a10.144,10.144,0,0,0-1.706,6.114,19.232,19.232,0,0,0,.935,5.744Z" transform="translate(-468.753 -56.22)" fill="#a3aeb7" fill-rule="evenodd"/>
      <path id="Path_63201" data-name="Path 63201" d="M499.081,39.933a27.216,27.216,0,0,1-1.661-9.05c0-9.319,5.885-13.943,13.133-10.319S523.686,34.7,523.686,44.016c0,9.217-5.757,13.841-12.9,10.435l1.8-2.608.369-1.42c4.059.658,7.056-2.6,7.056-8.242,0-6.716-4.241-14.289-9.464-16.9s-9.464.72-9.464,7.436a19.23,19.23,0,0,0,.935,5.744Z" transform="translate(-440.41 -17.113)" fill="#ccd1d8" fill-rule="evenodd"/>
      <path id="Path_63202" data-name="Path 63202" d="M589.16,273.4a11.954,11.954,0,0,0,1.866,1.17c2.562,1.281,4.888,1.132,6.593-.145a10.65,10.65,0,0,1-3.489,5.939,11.88,11.88,0,0,1-3.1-1.077,16.718,16.718,0,0,1-2.712-1.717q0-.126,0-.256a10.149,10.149,0,0,1,.851-3.914" transform="translate(-520.882 -242.062)" fill="#ccd1d8" fill-rule="evenodd"/>
      <path id="Path_63203" data-name="Path 63203" d="M598.412,240.569a13.561,13.561,0,0,0,3.607,2.72,8.464,8.464,0,0,0,2.349.8,9.459,9.459,0,0,1-.18,1.271c-1.7,1.277-4.031,1.426-6.593.145a11.957,11.957,0,0,1-1.866-1.17,10.2,10.2,0,0,1,2.682-3.762" transform="translate(-527.453 -212.997)" fill="#a3aeb7" fill-rule="evenodd"/>
      <path id="Path_63204" data-name="Path 63204" d="M813.289,540.034c.225-.527-4.838-3.083-11.3-5.7s-11.889-4.32-12.114-3.793,4.838,3.083,11.3,5.7,11.889,4.32,12.114,3.793" transform="translate(-699.341 -469.647)" fill="#9da8b4" fill-rule="evenodd"/>
      <path id="Path_63205" data-name="Path 63205" d="M789.932,475.334c2.764-6.067,9.178-8.985,16.329-6.154a12.131,12.131,0,0,1,7.084,15.651Z" transform="translate(-699.397 -414.443)" fill="#dde3e9" fill-rule="evenodd"/>
      <path id="Path_63206" data-name="Path 63206" d="M942.925,482.331a12.115,12.115,0,0,1,5.878,15.107l-3.733-1.514a14.544,14.544,0,0,0-2.144-13.592" transform="translate(-834.855 -427.05)" fill="#ccd1d8" fill-rule="evenodd"/>
      <path id="Path_63207" data-name="Path 63207" d="M801.308,478.138l-1.115-.452a11.348,11.348,0,0,1,13.079-6.639,11.782,11.782,0,0,0-11.964,7.091" transform="translate(-708.482 -416.812)" fill="#fff" fill-rule="evenodd"/>
      <path id="Path_63208" data-name="Path 63208" d="M915.124,442.992l1.043-2.479a2.126,2.126,0,0,1,1.884-1.271h.107a1.672,1.672,0,0,1,.266.027,2.139,2.139,0,0,1,1.608,2.752c-.016.045-.021.056-.039.1l-1.018,2.422a13.648,13.648,0,0,0-1.87-.907,16.375,16.375,0,0,0-1.98-.644" transform="translate(-810.24 -388.9)" fill="#636e78" fill-rule="evenodd"/>
      <path id="Path_63209" data-name="Path 63209" d="M859.348,566.012l3.847,1.56-1.967,4.676a2.075,2.075,0,0,1-3.851-1.548l.025-.061Z" transform="translate(-758.998 -501.141)" fill="#636e78" fill-rule="evenodd"/>
      <path id="Path_63210" data-name="Path 63210" d="M498.594,616.521c-5.8-2.7-9.561-9.739-9.561-19.777,0-16.937,10.7-36.035,23.87-42.622,5.523-2.762,10.61-2.889,14.657-.857h0l18.612,9.306-28.258,63.616-19.322-9.661Z" transform="translate(-432.984 -488.626)" fill="#9abf4c" fill-rule="evenodd"/>
      <path id="Path_63211" data-name="Path 63211" d="M653.825,693.91c-6.827-1.989-11.383-9.408-11.383-20.461,0-16.937,10.7-36.035,23.87-42.622,5.506-2.753,10.579-2.888,14.619-.875l.006,0q.532.266,1.04.58l-2.36,5.313c-3.526-2.318-8.192-2.47-13.3.086-10.982,5.491-19.9,21.411-19.9,35.53,0,9.366,3.923,15.6,9.771,17.135Z" transform="translate(-568.811 -556.539)" fill="#dce6a3" fill-rule="evenodd"/>
      <path id="Path_63212" data-name="Path 63212" d="M706.549,683.043c10.982-5.491,19.9,1.514,19.9,15.632s-8.916,30.039-19.9,35.53-19.9-1.513-19.9-15.632,8.916-30.039,19.9-35.53" transform="translate(-607.953 -603.101)" fill="#4c6227" fill-rule="evenodd"/>
      <path id="Path_63213" data-name="Path 63213" d="M683.817,671.676c10.982-5.491,19.9,1.513,19.9,15.632s-8.916,30.039-19.9,35.53-19.9-1.514-19.9-15.632,8.916-30.039,19.9-35.53" transform="translate(-587.826 -593.037)" fill="#dde3e9" fill-rule="evenodd"/>
      <path id="Path_63214" data-name="Path 63214" d="M822.474,720.361v.342l-1.5.75v-.342l.6-.3v-2.455q0-.111.006-.227l-.5.8a.219.219,0,0,1-.051.059.145.145,0,0,1-.047.025.072.072,0,0,1-.04,0,.056.056,0,0,1-.028-.019l-.11-.139.836-1.345.284-.142v3.267Z" transform="translate(-726.729 -635.151)" fill="#394148"/>
      <path id="Path_63215" data-name="Path 63215" d="M838.092,712.026a.081.081,0,0,1,.09,0,.113.113,0,0,1,.033.094v.271l-1.871.934v-.153a.413.413,0,0,1,.016-.106.511.511,0,0,1,.049-.117l.9-1.607q.112-.2.2-.382a3.655,3.655,0,0,0,.157-.348,2.324,2.324,0,0,0,.1-.325,1.441,1.441,0,0,0,.035-.315.715.715,0,0,0-.039-.258.293.293,0,0,0-.107-.144.249.249,0,0,0-.159-.037.538.538,0,0,0-.2.06.819.819,0,0,0-.2.139,1.055,1.055,0,0,0-.159.192,1.209,1.209,0,0,0-.116.228,1.189,1.189,0,0,0-.067.249.366.366,0,0,1-.064.148.235.235,0,0,1-.113.073l-.182.051a2.19,2.19,0,0,1,.107-.489,1.958,1.958,0,0,1,.2-.418,1.705,1.705,0,0,1,.275-.332,1.422,1.422,0,0,1,.335-.234.869.869,0,0,1,.333-.1.435.435,0,0,1,.268.063.479.479,0,0,1,.178.226,1.013,1.013,0,0,1,.065.39,1.685,1.685,0,0,1-.047.4,2.675,2.675,0,0,1-.127.392q-.08.2-.185.4t-.222.41l-.74,1.339q.078-.067.159-.123a1.221,1.221,0,0,1,.155-.094Z" transform="translate(-740.49 -627.827)" fill="#394148"/>
      <path id="Path_63216" data-name="Path 63216" d="M900.241,704.28v.342l-1.5.751v-.342l.6-.3v-2.455q0-.111.006-.226l-.5.8a.218.218,0,0,1-.051.059.141.141,0,0,1-.047.025.072.072,0,0,1-.04,0,.056.056,0,0,1-.028-.019l-.11-.139.836-1.345.284-.142v3.267Z" transform="translate(-795.583 -620.913)" fill="#394148"/>
      <path id="Path_63217" data-name="Path 63217" d="M952.17,745.761a.081.081,0,0,1,.09,0,.114.114,0,0,1,.033.094v.271l-1.871.934V746.9a.411.411,0,0,1,.016-.106.525.525,0,0,1,.049-.118l.9-1.607q.112-.2.2-.382a3.7,3.7,0,0,0,.157-.348,2.329,2.329,0,0,0,.1-.325,1.436,1.436,0,0,0,.035-.315.72.72,0,0,0-.039-.258.293.293,0,0,0-.107-.144.248.248,0,0,0-.159-.037.539.539,0,0,0-.2.06.811.811,0,0,0-.2.139,1.063,1.063,0,0,0-.16.191,1.221,1.221,0,0,0-.117.228,1.184,1.184,0,0,0-.066.249.37.37,0,0,1-.064.149.235.235,0,0,1-.112.073l-.182.051a2.2,2.2,0,0,1,.107-.489,1.963,1.963,0,0,1,.2-.418,1.7,1.7,0,0,1,.275-.332,1.424,1.424,0,0,1,.335-.234.871.871,0,0,1,.333-.1.436.436,0,0,1,.268.063.479.479,0,0,1,.178.227,1.012,1.012,0,0,1,.065.39,1.692,1.692,0,0,1-.047.4,2.677,2.677,0,0,1-.127.392q-.08.2-.185.4t-.222.41l-.74,1.339q.078-.067.159-.123a1.21,1.21,0,0,1,.155-.094Z" transform="translate(-841.493 -657.695)" fill="#394148"/>
      <path id="Path_63218" data-name="Path 63218" d="M949.682,922.031v-1.485q0-.066,0-.145c0-.053.007-.108.012-.164l-1.022,2.3Zm.73-.365v.256a.171.171,0,0,1-.019.077.125.125,0,0,1-.058.056l-.348.174v.947l-.305.153v-.948l-1.245.622a.066.066,0,0,1-.1-.049l-.035-.211,1.365-3.006.325-.162v2.3Z" transform="translate(-839.612 -814.183)" fill="#394148"/>
      <path id="Path_63219" data-name="Path 63219" d="M897.629,1007.544a2.481,2.481,0,0,1,.4-.262.9.9,0,0,1,.388-.111.431.431,0,0,1,.281.088.545.545,0,0,1,.17.259,1.259,1.259,0,0,1,.058.4,2.008,2.008,0,0,1-.077.556,2.176,2.176,0,0,1-.213.5,1.954,1.954,0,0,1-.32.412,1.572,1.572,0,0,1-.4.286,1.04,1.04,0,0,1-.237.087.842.842,0,0,1-.212.022.7.7,0,0,1-.183-.029.567.567,0,0,1-.149-.069l.108-.245a.206.206,0,0,1,.092-.111.117.117,0,0,1,.088-.005,1.108,1.108,0,0,0,.119.027.631.631,0,0,0,.165,0,.656.656,0,0,0,.226-.074,1,1,0,0,0,.264-.192,1.217,1.217,0,0,0,.2-.273,1.412,1.412,0,0,0,.129-.332,1.512,1.512,0,0,0,.045-.372.927.927,0,0,0-.038-.285.337.337,0,0,0-.116-.174.3.3,0,0,0-.193-.052.692.692,0,0,0-.27.082,1.761,1.761,0,0,0-.22.133,2.245,2.245,0,0,0-.234.19l-.219.027.225-1.8,1.329-.664v.2a.37.37,0,0,1-.046.18.348.348,0,0,1-.158.14l-.881.44Z" transform="translate(-794.318 -890.327)" fill="#394148"/>
      <path id="Path_63220" data-name="Path 63220" d="M970.672,822.7a2.227,2.227,0,0,1,.106-.489,1.926,1.926,0,0,1,.2-.417,1.707,1.707,0,0,1,.276-.333,1.435,1.435,0,0,1,.336-.234.872.872,0,0,1,.329-.1.4.4,0,0,1,.429.263.881.881,0,0,1,.061.349,1.452,1.452,0,0,1-.034.322,1.324,1.324,0,0,1-.1.284,1.356,1.356,0,0,1-.154.248,1.715,1.715,0,0,1-.2.216.427.427,0,0,1,.412.1.7.7,0,0,1,.138.48,1.619,1.619,0,0,1-.073.484,1.877,1.877,0,0,1-.2.438,1.813,1.813,0,0,1-.3.362,1.534,1.534,0,0,1-.363.255,1,1,0,0,1-.382.119.443.443,0,0,1-.268-.063.528.528,0,0,1-.18-.208,1.652,1.652,0,0,1-.12-.314l.151-.156a.239.239,0,0,1,.115-.075.066.066,0,0,1,.081.042q.025.058.064.137a.416.416,0,0,0,.1.136.3.3,0,0,0,.169.069.493.493,0,0,0,.261-.068.913.913,0,0,0,.257-.19,1.2,1.2,0,0,0,.184-.251,1.241,1.241,0,0,0,.111-.274,1,1,0,0,0,.037-.257.948.948,0,0,0-.029-.252.246.246,0,0,0-.11-.154.335.335,0,0,0-.22-.028,1.244,1.244,0,0,0-.359.129v-.324a1.5,1.5,0,0,0,.306-.2,1.129,1.129,0,0,0,.206-.233.9.9,0,0,0,.115-.256,1.044,1.044,0,0,0,.036-.274.7.7,0,0,0-.038-.252.277.277,0,0,0-.1-.139.247.247,0,0,0-.157-.034.551.551,0,0,0-.2.061.823.823,0,0,0-.2.138,1.053,1.053,0,0,0-.161.192,1.215,1.215,0,0,0-.116.228,1.193,1.193,0,0,0-.067.249.4.4,0,0,1-.064.149.228.228,0,0,1-.111.072Z" transform="translate(-859.346 -727.015)" fill="#394148"/>
      <path id="Path_63221" data-name="Path 63221" d="M687.875,964.286a.922.922,0,0,0,.038.286.359.359,0,0,0,.11.173.254.254,0,0,0,.174.054.567.567,0,0,0,.23-.067.9.9,0,0,0,.25-.184,1.184,1.184,0,0,0,.183-.248,1.25,1.25,0,0,0,.114-.283,1.122,1.122,0,0,0,.039-.286.839.839,0,0,0-.042-.284.379.379,0,0,0-.116-.174.28.28,0,0,0-.177-.059.511.511,0,0,0-.226.061.884.884,0,0,0-.235.171,1.163,1.163,0,0,0-.182.24,1.222,1.222,0,0,0-.159.6m.814.7.08-.178q.037-.084.07-.166a1.55,1.55,0,0,1-.243.29,1.227,1.227,0,0,1-.286.2.708.708,0,0,1-.3.082.4.4,0,0,1-.25-.075.524.524,0,0,1-.171-.239,1.122,1.122,0,0,1-.064-.409,1.731,1.731,0,0,1,.069-.477,2.028,2.028,0,0,1,.192-.455,1.9,1.9,0,0,1,.294-.388,1.4,1.4,0,0,1,.374-.275.793.793,0,0,1,.366-.1.45.45,0,0,1,.282.1.6.6,0,0,1,.181.276,1.342,1.342,0,0,1,.064.441,2.089,2.089,0,0,1-.022.307,2.7,2.7,0,0,1-.065.306q-.042.155-.1.318t-.137.339l-.683,1.608a.4.4,0,0,1-.072.113.359.359,0,0,1-.108.083l-.321.16Z" transform="translate(-608.729 -852.453)" fill="#394148"/>
      <path id="Path_63222" data-name="Path 63222" d="M706.519,870.827v.342l-1.5.75v-.342l.6-.3v-2.455c0-.074,0-.149.006-.227l-.5.8a.217.217,0,0,1-.051.059.139.139,0,0,1-.047.025.07.07,0,0,1-.04,0,.055.055,0,0,1-.028-.018l-.11-.139.836-1.345.284-.142V871.1Z" transform="translate(-624.064 -768.372)" fill="#394148"/>
      <path id="Path_63223" data-name="Path 63223" d="M721.845,861.158a4.266,4.266,0,0,1-.079.858,3.082,3.082,0,0,1-.216.68,1.941,1.941,0,0,1-.324.5,1.385,1.385,0,0,1-.4.31.734.734,0,0,1-.4.089.48.48,0,0,1-.322-.176,1.133,1.133,0,0,1-.215-.464,3.226,3.226,0,0,1-.078-.779,4.334,4.334,0,0,1,.078-.858,3.08,3.08,0,0,1,.215-.682,1.951,1.951,0,0,1,.322-.5,1.374,1.374,0,0,1,.4-.31.743.743,0,0,1,.4-.089.476.476,0,0,1,.324.176,1.152,1.152,0,0,1,.216.466,3.193,3.193,0,0,1,.079.78m-.362.181a3.321,3.321,0,0,0-.054-.665,1.018,1.018,0,0,0-.145-.379.308.308,0,0,0-.21-.14.434.434,0,0,0-.249.05.844.844,0,0,0-.249.2,1.235,1.235,0,0,0-.209.35,2.487,2.487,0,0,0-.144.523,4.216,4.216,0,0,0-.054.719,3.3,3.3,0,0,0,.054.664,1.033,1.033,0,0,0,.144.378.3.3,0,0,0,.209.141.433.433,0,0,0,.249-.05.841.841,0,0,0,.249-.2,1.253,1.253,0,0,0,.21-.35,2.462,2.462,0,0,0,.145-.522,4.2,4.2,0,0,0,.054-.718" transform="translate(-637.311 -761.198)" fill="#394148"/>
      <path id="Path_63224" data-name="Path 63224" d="M755.856,781.543v.342l-1.5.751v-.342l.6-.3v-2.455q0-.111.006-.227l-.5.8a.216.216,0,0,1-.051.059.144.144,0,0,1-.047.025.07.07,0,0,1-.04,0,.056.056,0,0,1-.028-.018l-.11-.139.836-1.345.284-.142v3.267Z" transform="translate(-667.746 -689.321)" fill="#394148"/>
      <path id="Path_63225" data-name="Path 63225" d="M772.595,773.186v.342l-1.5.751v-.342l.6-.3v-2.455q0-.111.006-.227l-.5.8a.22.22,0,0,1-.051.059.145.145,0,0,1-.047.025.072.072,0,0,1-.04,0,.055.055,0,0,1-.028-.018l-.11-.139.836-1.345.284-.142v3.267Z" transform="translate(-682.566 -681.922)" fill="#394148"/>
      <path id="Path_63226" data-name="Path 63226" d="M829.134,1071.964a.969.969,0,0,0,.255-.185,1.211,1.211,0,0,0,.2-.259,1.319,1.319,0,0,0,.125-.306,1.252,1.252,0,0,0,.044-.328.884.884,0,0,0-.043-.3.376.376,0,0,0-.122-.18.3.3,0,0,0-.189-.058.566.566,0,0,0-.241.067.925.925,0,0,0-.254.189,1.244,1.244,0,0,0-.193.262,1.34,1.34,0,0,0-.121.3,1.186,1.186,0,0,0-.042.306.992.992,0,0,0,.039.3.4.4,0,0,0,.115.189.281.281,0,0,0,.184.068.54.54,0,0,0,.248-.067m-.2-1.818-.072.152c-.023.049-.045.1-.066.145a1.556,1.556,0,0,1,.219-.245,1.165,1.165,0,0,1,.26-.178.763.763,0,0,1,.321-.089.423.423,0,0,1,.263.077.542.542,0,0,1,.179.247,1.152,1.152,0,0,1,.066.423,1.824,1.824,0,0,1-.07.5,2.1,2.1,0,0,1-.2.47,1.914,1.914,0,0,1-.3.4,1.479,1.479,0,0,1-.391.285.864.864,0,0,1-.384.1.448.448,0,0,1-.293-.1.632.632,0,0,1-.186-.294,1.5,1.5,0,0,1-.066-.476,2.174,2.174,0,0,1,.081-.544,4.548,4.548,0,0,1,.259-.7l.713-1.585a.487.487,0,0,1,.075-.114.357.357,0,0,1,.111-.087l.309-.154Z" transform="translate(-733.291 -945.932)" fill="#394148"/>
      <path id="Path_63227" data-name="Path 63227" d="M763.035,1072.607v.2a.653.653,0,0,1-.015.148q-.015.063-.028.107l-1.163,3.589a.625.625,0,0,1-.07.147.3.3,0,0,1-.119.106l-.251.125,1.178-3.559q.026-.075.053-.142t.059-.13l-1.464.731a.05.05,0,0,1-.059,0,.078.078,0,0,1-.025-.064v-.3Z" transform="translate(-673.896 -949.674)" fill="#394148"/>
      <path id="Path_63228" data-name="Path 63228" d="M711.172,1042.18a1.009,1.009,0,0,0,.246-.172,1.073,1.073,0,0,0,.184-.23,1.11,1.11,0,0,0,.156-.566.739.739,0,0,0-.048-.294.3.3,0,0,0-.129-.15.309.309,0,0,0-.187-.029.7.7,0,0,0-.221.072,1.062,1.062,0,0,0-.221.149,1.036,1.036,0,0,0-.187.215,1.085,1.085,0,0,0-.129.279,1.158,1.158,0,0,0-.048.342.715.715,0,0,0,.04.255.322.322,0,0,0,.115.156.291.291,0,0,0,.184.046.63.63,0,0,0,.246-.074m0-2.978a.838.838,0,0,0-.22.158.943.943,0,0,0-.159.21,1.028,1.028,0,0,0-.128.494.871.871,0,0,0,.027.225.345.345,0,0,0,.088.161.239.239,0,0,0,.158.064.481.481,0,0,0,.234-.063.831.831,0,0,0,.234-.171.948.948,0,0,0,.158-.222,1.01,1.01,0,0,0,.088-.249,1.211,1.211,0,0,0,.027-.252.679.679,0,0,0-.032-.22.311.311,0,0,0-.1-.146.247.247,0,0,0-.159-.052.5.5,0,0,0-.22.062m.4,1.217a.435.435,0,0,1,.4.118.733.733,0,0,1,.141.5,1.549,1.549,0,0,1-.069.461,1.73,1.73,0,0,1-.492.774,1.686,1.686,0,0,1-.384.263,1.087,1.087,0,0,1-.384.12.507.507,0,0,1-.3-.055.462.462,0,0,1-.194-.226.977.977,0,0,1-.068-.392,1.469,1.469,0,0,1,.141-.643,1.6,1.6,0,0,1,.4-.52.376.376,0,0,1-.334-.149.747.747,0,0,1-.113-.445,1.4,1.4,0,0,1,.061-.4,1.673,1.673,0,0,1,.439-.722,1.393,1.393,0,0,1,.347-.246.853.853,0,0,1,.346-.1.453.453,0,0,1,.268.067.465.465,0,0,1,.172.216.871.871,0,0,1,.061.342,1.413,1.413,0,0,1-.113.557,1.467,1.467,0,0,1-.334.482" transform="translate(-628.827 -919.702)" fill="#394148"/>
      <path id="Path_63229" data-name="Path 63229" d="M821.916,888.514c.88-.747,1.79-.533,2.029.477a3.565,3.565,0,0,1-1.161,3.185c-.88.747-1.79.533-2.029-.477a3.564,3.564,0,0,1,1.161-3.185" transform="translate(-726.636 -786.286)" fill="#9da8b4" fill-rule="evenodd"/>
      <path id="Path_63230" data-name="Path 63230" d="M803.874,771.827l-2.8-7.508,1.1,8.952,2.8,7.508Z" transform="translate(-709.26 -676.719)" fill="#9da8b4" fill-rule="evenodd"/>
      <path id="Path_63231" data-name="Path 63231" d="M832.352,901.317c.354-.177.642.049.642.5a1.372,1.372,0,0,1-.642,1.145c-.354.177-.642-.049-.642-.5a1.372,1.372,0,0,1,.642-1.145" transform="translate(-736.387 -797.962)" fill="#9da8b4" fill-rule="evenodd"/>
      <path id="Path_63232" data-name="Path 63232" d="M746.018,908.2c0-.1-.065-.148-.144-.108l-11.509,5.746a.3.3,0,0,0-.144.252c0,.1.065.148.144.108l11.509-5.746a.3.3,0,0,0,.144-.253" transform="translate(-650.071 -804.003)" fill="#9da8b4" fill-rule="evenodd"/>
      <path id="Path_63233" data-name="Path 63233" d="M826.529,894.038c.671-.335,1.216.092,1.216.954a2.6,2.6,0,0,1-1.216,2.169c-.671.335-1.216-.092-1.216-.954a2.6,2.6,0,0,1,1.216-2.168" transform="translate(-730.723 -791.47)" fill="#9da8b4" fill-rule="evenodd"/>
      <path id="Path_63234" data-name="Path 63234" d="M843.955,909.806l4.863-.131-3.982-2.27-4.863.131Z" transform="translate(-743.703 -803.406)" fill="#9da8b4" fill-rule="evenodd"/>
      <path id="Path_63235" data-name="Path 63235" d="M834.086,894.591c.88-.747,1.79-.533,2.029.477a3.565,3.565,0,0,1-1.161,3.185c-.881.747-1.79.533-2.03-.477a3.564,3.564,0,0,1,1.161-3.185" transform="translate(-737.411 -791.666)" fill="#ea3f4c" fill-rule="evenodd"/>
      <path id="Path_63236" data-name="Path 63236" d="M816.045,777.9l-2.8-7.508,1.1,8.952,2.8,7.508Z" transform="translate(-720.036 -682.098)" fill="#ea3f4c" fill-rule="evenodd"/>
      <path id="Path_63237" data-name="Path 63237" d="M839.164,900.347c.671-.335,1.216.092,1.216.954a2.6,2.6,0,0,1-1.216,2.168c-.671.335-1.216-.092-1.216-.954a2.6,2.6,0,0,1,1.216-2.168" transform="translate(-741.91 -797.056)" fill="#962831" fill-rule="evenodd"/>
      <path id="Path_63238" data-name="Path 63238" d="M842.5,902.01c.671-.335,1.216.092,1.216.954a2.6,2.6,0,0,1-1.216,2.168c-.671.335-1.216-.092-1.216-.954a2.6,2.6,0,0,1,1.216-2.168" transform="translate(-744.859 -798.528)" fill="#ea3f4c" fill-rule="evenodd"/>
      <path id="Path_63239" data-name="Path 63239" d="M859.921,917.778l4.863-.13-3.982-2.27-4.863.131Z" transform="translate(-757.839 -810.465)" fill="#ea3f4c" fill-rule="evenodd"/>
      <path id="Path_63240" data-name="Path 63240" d="M847.75,909c.354-.177.642.049.642.5a1.371,1.371,0,0,1-.642,1.145c-.354.177-.642-.049-.642-.5A1.372,1.372,0,0,1,847.75,909" transform="translate(-750.02 -804.768)" fill="#962831" fill-rule="evenodd"/>
      <path id="Path_63241" data-name="Path 63241" d="M850.408,910.332c.354-.177.642.049.642.5a1.371,1.371,0,0,1-.642,1.145c-.354.177-.642-.049-.642-.5a1.372,1.372,0,0,1,.642-1.145" transform="translate(-752.373 -805.944)" fill="#394148" fill-rule="evenodd"/>
      <path id="Path_63242" data-name="Path 63242" d="M764.075,917.216c0-.1-.065-.148-.144-.108l-11.508,5.746a.3.3,0,0,0-.144.252c0,.1.065.148.144.108l11.508-5.746a.3.3,0,0,0,.144-.253" transform="translate(-666.058 -811.984)" fill="#394148" fill-rule="evenodd"/>
      <path id="Path_63243" data-name="Path 63243" d="M675.866,635.6c13.174-6.587,23.87,1.816,23.87,18.752s-10.7,36.035-23.87,42.622S652,695.162,652,678.225s10.7-36.035,23.87-42.622m0,5.106c10.982-5.491,19.9,1.514,19.9,15.632s-8.916,30.039-19.9,35.53-19.9-1.513-19.9-15.632,8.916-30.039,19.9-35.53" transform="translate(-577.27 -560.768)" fill="#668134" fill-rule="evenodd"/>
      <path id="Path_63244" data-name="Path 63244" d="M538.572,1084.487a2.235,2.235,0,0,1,1.927,3.178l-4.979,10.67a2.235,2.235,0,1,1-4.051-1.89l4.979-10.67c.038-.078.047-.1.09-.173a2.265,2.265,0,0,1,1.741-1.108,1.678,1.678,0,0,1,.292-.006" transform="translate(-470.377 -960.19)" fill="#ccd1d8" fill-rule="evenodd"/>
      <path id="Path_63245" data-name="Path 63245" d="M542.079,1094.944a.485.485,0,0,1,.418.689l-4.979,10.67a.484.484,0,0,1-.878-.41l4.979-10.67c.008-.017.01-.021.02-.037a.491.491,0,0,1,.377-.24.375.375,0,0,1,.063,0" transform="translate(-475.096 -969.451)" fill="#dde3e9" fill-rule="evenodd"/>
      <path id="Path_63246" data-name="Path 63246" d="M544.811,1084.948a2.226,2.226,0,0,1,1.582,3.128l-4.979,10.67a2.217,2.217,0,0,1-3.492.723,2.13,2.13,0,0,0,.832.023,2.309,2.309,0,0,0,1.638-1.256l4.979-10.67a2.305,2.305,0,0,0,.04-1.8,2.18,2.18,0,0,0-.6-.818" transform="translate(-476.271 -960.601)" fill="#9da8b4" fill-rule="evenodd"/>
      <path id="Path_63247" data-name="Path 63247" d="M558.683,672.314a2.17,2.17,0,0,1,.905.233c.062.032.077.042.136.078l7.5,4.649a2.075,2.075,0,1,1-2.187,3.528l-7.5-4.649a2.075,2.075,0,0,1,.988-3.837c.052,0,.1,0,.157,0" transform="translate(-492.768 -595.259)" fill="#636e78" fill-rule="evenodd"/>
      <path id="Path_63248" data-name="Path 63248" d="M469.2,602.445c-5.46-2.908-7.123-11.12-3.193-16.73,4.545-6.488,11.056-7.852,16.557-4.693,4.758,2.733,4.988,10.393,1.1,16.177-3.684,5.475-9.983,7.688-14.459,5.244Z" transform="translate(-410.691 -512.987)" fill="#dde3e9" fill-rule="evenodd"/>
      <path id="Path_63249" data-name="Path 63249" d="M509.144,583.407a12.588,12.588,0,0,1,2.718,1.17c4.758,2.733,4.988,10.393,1.1,16.177-3.684,5.475-9.983,7.688-14.459,5.244v0a9.008,9.008,0,0,1-1.557-1.053c4.184.915,9.2-1.383,12.333-6.035,3.609-5.364,3.674-12.34-.129-15.505" transform="translate(-439.985 -516.542)" fill="#ccd1d8" fill-rule="evenodd"/>
      <path id="Path_63250" data-name="Path 63250" d="M480.224,591.462a15.1,15.1,0,0,0-6.454,5.476,12.413,12.413,0,0,0-1.234,11.719,10.758,10.758,0,0,1,.2-11.856,12.216,12.216,0,0,1,7.487-5.34" transform="translate(-416.889 -523.674)" fill="#fff" fill-rule="evenodd"/>
      <path id="Path_63251" data-name="Path 63251" d="M464.054,613.512a1.766,1.766,0,0,1,.354.036,2.074,2.074,0,0,1,.484.155,1.668,1.668,0,0,1,.224.121l2.284,1.416a1.685,1.685,0,0,1,.208.147,2.148,2.148,0,0,1,.108,3.141,2.122,2.122,0,0,1-2.414.291c-.04-.022-.049-.028-.088-.052l-2.284-1.416a1.676,1.676,0,0,1-.208-.147,2.149,2.149,0,0,1-.181-3.07,2.1,2.1,0,0,1,1.36-.619c.1-.006.122,0,.153,0" transform="translate(-409.033 -543.196)" fill="#636e78" fill-rule="evenodd"/>
    </g>
  </g>
</svg>
