<svg xmlns="http://www.w3.org/2000/svg" width="137.173" height="173.29" viewBox="0 0 137.173 173.29">
  <g id="Group_97355" data-name="Group 97355" transform="translate(0 0)">
    <path id="Path_63113" data-name="Path 63113" d="M157.758,467.022l-9.934-5.773-.014-5.075,9.933,5.773Z" transform="translate(-95.391 -294.4)" fill="#1a1a1a"/>
    <path id="Path_63114" data-name="Path 63114" d="M157.743,445.154l-9.934-5.773,15.983-9.228,9.934,5.773Z" transform="translate(-95.391 -277.606)" fill="#1a1a1a"/>
    <path id="Path_63115" data-name="Path 63115" d="M191.8,446.431l.015,5.075-15.983,9.228-.015-5.075Z" transform="translate(-113.468 -288.111)" fill="#424242"/>
    <path id="Path_63116" data-name="Path 63116" d="M140.39,468.909l-9.934-5.773-.014-5.073,9.933,5.773Z" transform="translate(-84.183 -295.619)" fill="#757575"/>
    <path id="Path_63117" data-name="Path 63117" d="M140.375,434.1l-9.934-5.773,28.3-16.338,9.934,5.773Z" transform="translate(-84.183 -265.886)" fill="#999"/>
    <path id="Path_63118" data-name="Path 63118" d="M186.751,428.27l.015,5.073-28.3,16.339-.015-5.073Z" transform="translate(-102.26 -276.391)" fill="#bdbdbd"/>
    <g id="Group_97345" data-name="Group 97345">
      <g id="Group_97360" data-name="Group 97360">
        <path id="Path_63119" data-name="Path 63119" d="M211.119,397.387l9.933,5.773a1.128,1.128,0,0,0-1.138.111l-9.933-5.773a1.128,1.128,0,0,1,1.138-.111" transform="translate(-135.515 -256.391)" fill="#4d4d4d"/>
        <path id="Path_63120" data-name="Path 63120" d="M136.615,462.2l-9.934-5.773a1.121,1.121,0,0,1-.467-1.026l9.934,5.773a1.12,1.12,0,0,0,.467,1.026" transform="translate(-81.455 -293.901)" fill="#424242"/>
        <path id="Path_63121" data-name="Path 63121" d="M136.141,458.631l-9.933-5.773,0-1.4,9.934,5.773Z" transform="translate(-81.448 -291.357)" fill="#424242"/>
        <path id="Path_63122" data-name="Path 63122" d="M140.635,419.9l-9.933-5.773L158.817,397.9l9.934,5.773Z" transform="translate(-84.35 -256.79)" fill="#4d4d4d"/>
        <path id="Path_63123" data-name="Path 63123" d="M136.138,452.206l-9.934-5.773a3.516,3.516,0,0,1,1.595-2.762l9.934,5.773a3.515,3.515,0,0,0-1.595,2.762" transform="translate(-81.448 -286.33)" fill="#424242"/>
        <path id="Path_63124" data-name="Path 63124" d="M183.925,413.778c.883-.51,1.6-.1,1.6.915l0,1.4a3.515,3.515,0,0,1-1.594,2.762l-28.115,16.232c-.884.51-1.6.1-1.606-.915l0-1.4a3.514,3.514,0,0,1,1.6-2.762Z" transform="translate(-99.524 -266.896)" fill="#616161"/>
      </g>
    </g>
    <path id="Path_63125" data-name="Path 63125" d="M140.39,440.392l-9.934-5.773-.014-5.075,9.933,5.773Z" transform="translate(-84.183 -277.213)" fill="#757575"/>
    <path id="Path_63126" data-name="Path 63126" d="M140.375,405.584l-9.934-5.773,28.3-16.338,9.934,5.773Z" transform="translate(-84.183 -247.48)" fill="#999"/>
    <path id="Path_63127" data-name="Path 63127" d="M186.751,399.751l.015,5.075-28.3,16.338-.015-5.075Z" transform="translate(-102.26 -257.986)" fill="#bdbdbd"/>
    <g id="Group_97347" data-name="Group 97347">
      <g id="Group_97361" data-name="Group 97361">
        <path id="Path_63128" data-name="Path 63128" d="M211.119,368.808l9.934,5.773a1.129,1.129,0,0,0-1.139.111l-9.934-5.773a1.13,1.13,0,0,1,1.139-.111" transform="translate(-135.514 -237.947)" fill="#4d4d4d"/>
        <path id="Path_63129" data-name="Path 63129" d="M136.615,433.615l-9.934-5.773a1.121,1.121,0,0,1-.467-1.026l9.934,5.773a1.12,1.12,0,0,0,.467,1.026" transform="translate(-81.455 -275.453)" fill="#424242"/>
        <path id="Path_63130" data-name="Path 63130" d="M136.141,430.045l-9.933-5.773,0-1.4,9.934,5.773Z" transform="translate(-81.448 -272.909)" fill="#424242"/>
        <path id="Path_63131" data-name="Path 63131" d="M140.635,391.325l-9.933-5.773,28.115-16.232,9.934,5.773Z" transform="translate(-84.35 -238.346)" fill="#4d4d4d"/>
        <path id="Path_63132" data-name="Path 63132" d="M136.138,423.625l-9.934-5.773a3.515,3.515,0,0,1,1.595-2.76l9.934,5.773a3.514,3.514,0,0,0-1.595,2.76" transform="translate(-81.448 -267.886)" fill="#424242"/>
        <path id="Path_63133" data-name="Path 63133" d="M183.925,385.2c.883-.51,1.6-.1,1.6.912l0,1.4a3.514,3.514,0,0,1-1.594,2.762L155.824,406.5c-.884.51-1.6.1-1.606-.915l0-1.4a3.514,3.514,0,0,1,1.6-2.76Z" transform="translate(-99.524 -248.452)" fill="#616161"/>
      </g>
    </g>
    <path id="Path_63134" data-name="Path 63134" d="M140.39,411.714l-9.934-5.773-.014-5.075,9.933,5.772Z" transform="translate(-84.183 -258.705)" fill="#757575"/>
    <path id="Path_63135" data-name="Path 63135" d="M140.375,376.906l-9.934-5.773,28.3-16.338,9.934,5.773Z" transform="translate(-84.183 -228.972)" fill="#999"/>
    <path id="Path_63136" data-name="Path 63136" d="M186.751,371.073l.015,5.075-28.3,16.338-.015-5.075Z" transform="translate(-102.26 -239.478)" fill="#bdbdbd"/>
    <g id="Group_97349" data-name="Group 97349">
      <g id="Group_97357" data-name="Group 97357">
        <path id="Path_63137" data-name="Path 63137" d="M211.119,340.058l9.933,5.773a1.128,1.128,0,0,0-1.138.111l-9.933-5.773a1.129,1.129,0,0,1,1.138-.111" transform="translate(-135.515 -219.392)" fill="#4d4d4d"/>
        <path id="Path_63138" data-name="Path 63138" d="M136.616,404.87l-9.933-5.773a1.12,1.12,0,0,1-.467-1.026l9.933,5.773a1.12,1.12,0,0,0,.467,1.026" transform="translate(-81.456 -256.901)" fill="#424242"/>
        <path id="Path_63139" data-name="Path 63139" d="M136.141,401.3l-9.933-5.773,0-1.4,9.934,5.773Z" transform="translate(-81.448 -254.358)" fill="#424242"/>
        <path id="Path_63140" data-name="Path 63140" d="M140.635,362.574,130.7,356.8l28.115-16.232,9.934,5.773Z" transform="translate(-84.35 -219.791)" fill="#424242"/>
        <path id="Path_63141" data-name="Path 63141" d="M136.138,394.876,126.2,389.1a3.516,3.516,0,0,1,1.595-2.762l9.934,5.773a3.515,3.515,0,0,0-1.595,2.762" transform="translate(-81.448 -249.331)" fill="#424242"/>
        <path id="Path_63142" data-name="Path 63142" d="M183.925,356.447c.883-.51,1.6-.1,1.6.915l0,1.4a3.514,3.514,0,0,1-1.594,2.762l-28.115,16.233c-.884.51-1.6.1-1.606-.915l0-1.4a3.514,3.514,0,0,1,1.6-2.762Z" transform="translate(-99.524 -229.897)" fill="#616161"/>
        <path id="Path_63143" data-name="Path 63143" d="M134.4,376.085l-9.933-5.773c-1.436-.834-2.326-2.608-2.333-5.129l9.933,5.773c.007,2.521.9,4.295,2.333,5.129" transform="translate(-78.822 -235.677)" fill="#fdd835"/>
        <path id="Path_63144" data-name="Path 63144" d="M132.045,362.876l-9.934-5.773-.012-4.44,9.934,5.773Z" transform="translate(-78.798 -227.597)" fill="#fdd835"/>
        <path id="Path_63145" data-name="Path 63145" d="M194.259,124.611l9.933,5.773c-5.248-3.05-12.515-2.62-20.536,2.011l-9.934-5.773c8.021-4.631,15.288-5.061,20.536-2.011" transform="translate(-112.115 -79.163)" fill="#fff59d"/>
        <path id="Path_63146" data-name="Path 63146" d="M113,217.206l-9.934-5.773c-.013-4.717-1.436-8.48-4.021-10.666-4.006-3.384-6.417-9.238-6.439-17.11-.052-18.316,12.828-40.628,28.768-49.831L131.3,139.6c-15.94,9.2-28.82,31.514-28.768,49.831.022,7.873,2.433,13.727,6.439,17.11,2.586,2.186,4.008,5.949,4.022,10.666" transform="translate(-59.762 -86.367)" fill="#fdd835"/>
        <path id="Path_63147" data-name="Path 63147" d="M149.381,142.9c15.94-9.2,28.9-1.813,28.956,16.5.025,8.618-2.815,18.12-7.488,26.724a35.906,35.906,0,0,0-4.674,16.668l.005,1.89c.015,5.075-3.555,11.258-7.972,13.808l-19.1,11.026c-4.418,2.551-8.012.5-8.026-4.572l-.013-4.44c-.013-4.717-1.436-8.48-4.021-10.666-4.006-3.384-6.417-9.238-6.439-17.11-.052-18.316,12.828-40.628,28.768-49.831" transform="translate(-77.839 -89.668)" fill="#ffeb3b"/>
        <path id="Path_63148" data-name="Path 63148" d="M63.1,285.814l4.73,2.749a1.343,1.343,0,0,0-1.354.132l-4.73-2.749a1.343,1.343,0,0,1,1.354-.132" transform="translate(-39.846 -184.371)" fill="#fff59d"/>
        <path id="Path_63149" data-name="Path 63149" d="M5.31,340.81.58,338.062a1.335,1.335,0,0,1-.556-1.222l4.73,2.749a1.333,1.333,0,0,0,.556,1.221" transform="translate(-0.015 -217.385)" fill="#fdd835"/>
        <path id="Path_63150" data-name="Path 63150" d="M4.739,334.047.008,331.3,0,328.253,4.73,331Z" transform="translate(0 -211.844)" fill="#fdd835"/>
        <path id="Path_63151" data-name="Path 63151" d="M10.082,300.716l-4.73-2.749,20-11.546,4.73,2.749Z" transform="translate(-3.454 -184.846)" fill="#fff59d"/>
        <path id="Path_63152" data-name="Path 63152" d="M4.73,325.016,0,322.267a4.185,4.185,0,0,1,1.9-3.29l4.73,2.749a4.184,4.184,0,0,0-1.9,3.29" transform="translate(0 -205.857)" fill="#fff59d"/>
        <path id="Path_63153" data-name="Path 63153" d="M35.235,293.7c1.051-.607,1.907-.119,1.91,1.091l.009,3.045a4.187,4.187,0,0,1-1.9,3.287l-20,11.546c-1.052.608-1.907.119-1.91-1.089l-.009-3.045a4.183,4.183,0,0,1,1.9-3.29Z" transform="translate(-8.609 -189.374)" fill="#ffeb3b"/>
      </g>
    </g>
    <path id="Path_63154" data-name="Path 63154" d="M68.537,146l-4.73-2.749,14.185,8.084,4.73,2.749Z" transform="translate(-41.179 -92.446)" fill="#fff59d"/>
    <g id="Group_97351" data-name="Group 97351">
      <g id="Group_97359" data-name="Group 97359">
        <path id="Path_63155" data-name="Path 63155" d="M64.733,145.9,60,143.155a1.358,1.358,0,0,1,1.349-.137l4.73,2.749a1.358,1.358,0,0,0-1.349.137" transform="translate(-38.724 -92.219)" fill="#fff59d"/>
        <path id="Path_63156" data-name="Path 63156" d="M54.675,162.6l-4.73-2.749c-.746-.425-.75-1.81-.009-3.094l4.73,2.749c-.742,1.284-.737,2.669.009,3.094" transform="translate(-31.87 -101.163)" fill="#fdd835"/>
        <path id="Path_63157" data-name="Path 63157" d="M55.674,153.616l-4.73-2.749,1.868-3.235,4.73,2.749Z" transform="translate(-32.877 -95.277)" fill="#fdd835"/>
        <path id="Path_63158" data-name="Path 63158" d="M60.939,147.8l-4.73-2.749a3.876,3.876,0,0,1,1.345-1.419l4.73,2.749a3.871,3.871,0,0,0-1.345,1.419" transform="translate(-36.275 -92.695)" fill="#fdd835"/>
        <path id="Path_63159" data-name="Path 63159" d="M66.488,150.907a1.358,1.358,0,0,1,1.349-.137l14.185,8.084c.746.425.75,1.812.009,3.1l-1.868,3.234a3.871,3.871,0,0,1-1.344,1.419,1.356,1.356,0,0,1-1.348.136l-14.187-8.085c-.746-.426-.75-1.81-.009-3.095l1.867-3.234a3.874,3.874,0,0,1,1.345-1.419" transform="translate(-40.479 -97.221)" fill="#ffeb3b"/>
        <path id="Path_63160" data-name="Path 63160" d="M180.434,95.028l-4.73-2.749a1.334,1.334,0,0,1-.555-1.222l4.73,2.749a1.334,1.334,0,0,0,.555,1.222" transform="translate(-113.035 -58.765)" fill="#fdd835"/>
        <path id="Path_63161" data-name="Path 63161" d="M189.146,12.068l4.73,2.749a1.343,1.343,0,0,0-1.355.133l-4.73-2.749a1.343,1.343,0,0,1,1.355-.133" transform="translate(-121.194 -7.705)" fill="#fff59d"/>
        <path id="Path_63162" data-name="Path 63162" d="M179.761,51.989l-4.73-2.749-.065-22.979,4.73,2.749Z" transform="translate(-112.917 -16.948)" fill="#fdd835"/>
        <path id="Path_63163" data-name="Path 63163" d="M185.048,16.955l-4.73-2.749,2.65-1.53,4.73,2.749Z" transform="translate(-116.371 -8.18)" fill="#fff59d"/>
        <path id="Path_63164" data-name="Path 63164" d="M179.7,23.027l-4.73-2.749a4.184,4.184,0,0,1,1.9-3.288l4.73,2.749a4.185,4.185,0,0,0-1.9,3.288" transform="translate(-112.916 -10.965)" fill="#fdd835"/>
        <path id="Path_63165" data-name="Path 63165" d="M192.852,19.952c1.053-.607,1.907-.118,1.91,1.089l.065,22.979a4.181,4.181,0,0,1-1.9,3.288l-2.65,1.53c-1.052.608-1.907.121-1.91-1.089L188.3,24.77a4.185,4.185,0,0,1,1.9-3.288Z" transform="translate(-121.525 -12.708)" fill="#ffeb3b"/>
      </g>
    </g>
    <path id="Path_63166" data-name="Path 63166" d="M316.521,3.1,311.79.352l1.88,1.071,4.73,2.749Z" transform="translate(-201.219 -0.227)" fill="#fff59d"/>
    <g id="Group_97353" data-name="Group 97353">
      <g id="Group_97358" data-name="Group 97358">
        <path id="Path_63167" data-name="Path 63167" d="M312.717,3.01,307.987.262a1.357,1.357,0,0,1,1.349-.137l4.73,2.749a1.356,1.356,0,0,0-1.349.137" transform="translate(-198.764 0)" fill="#fff59d"/>
        <path id="Path_63168" data-name="Path 63168" d="M268.184,79.416l-4.73-2.749c-.746-.425-.75-1.812-.009-3.1l4.73,2.749c-.741,1.284-.737,2.671.009,3.1" transform="translate(-169.661 -47.48)" fill="#fdd835"/>
        <path id="Path_63169" data-name="Path 63169" d="M269.183,31.9l-4.73-2.749L278.548,4.735l4.73,2.749Z" transform="translate(-170.669 -3.056)" fill="#fdd835"/>
        <path id="Path_63170" data-name="Path 63170" d="M308.927,4.9,304.2,2.155A3.865,3.865,0,0,1,305.541.737l4.73,2.749A3.866,3.866,0,0,0,308.927,4.9" transform="translate(-196.318 -0.476)" fill="#fdd835"/>
        <path id="Path_63171" data-name="Path 63171" d="M292.223,8.013a1.356,1.356,0,0,1,1.349-.137l1.88,1.071c.746.425.75,1.81.009,3.094L281.367,36.454a3.871,3.871,0,0,1-1.345,1.419,1.357,1.357,0,0,1-1.349.137l-1.88-1.071c-.746-.426-.75-1.812-.009-3.1L290.879,9.431a3.866,3.866,0,0,1,1.344-1.418" transform="translate(-178.27 -5.003)" fill="#ffeb3b"/>
        <path id="Path_63172" data-name="Path 63172" d="M369.407,114.132l4.73,2.749a1.342,1.342,0,0,0-1.355.133l-4.73-2.749a1.343,1.343,0,0,1,1.354-.133" transform="translate(-237.529 -73.574)" fill="#fff59d"/>
        <path id="Path_63173" data-name="Path 63173" d="M311.626,169.126l-4.73-2.749a1.333,1.333,0,0,1-.556-1.222l4.73,2.749a1.333,1.333,0,0,0,.556,1.221" transform="translate(-197.701 -106.586)" fill="#fdd835"/>
        <path id="Path_63174" data-name="Path 63174" d="M311.054,162.364l-4.73-2.749-.009-3.045,4.73,2.749Z" transform="translate(-197.685 -101.045)" fill="#fdd835"/>
        <path id="Path_63175" data-name="Path 63175" d="M316.4,129.034l-4.73-2.749,20-11.545,4.73,2.749Z" transform="translate(-201.139 -74.049)" fill="#fff59d"/>
        <path id="Path_63176" data-name="Path 63176" d="M311.045,153.333l-4.73-2.749a4.185,4.185,0,0,1,1.9-3.29l4.73,2.749a4.184,4.184,0,0,0-1.9,3.29" transform="translate(-197.685 -95.059)" fill="#fdd835"/>
        <path id="Path_63177" data-name="Path 63177" d="M341.547,122.017c1.053-.607,1.907-.119,1.91,1.091l.009,3.045a4.184,4.184,0,0,1-1.9,3.287l-20,11.545c-1.053.608-1.907.119-1.91-1.089l-.009-3.045a4.185,4.185,0,0,1,1.9-3.29Z" transform="translate(-206.293 -78.577)" fill="#ffeb3b"/>
      </g>
    </g>
  </g>
</svg>
