<svg width="66" height="81" fill="none" xmlns="http://www.w3.org/2000/svg"><path fill-rule="evenodd" clip-rule="evenodd" d="M65.74 29.45C64.356 12.809 50.456 0 33.757 0h-1.672C15.398 0 1.486 12.809.116 29.45a34.634 34.634 0 0 0 7.7 24.758L26.371 76.9c3.391 4.146 9.72 4.146 13.111 0L58.04 54.21a34.58 34.58 0 0 0 7.7-24.76zm-44.535 4.54a2.902 2.902 0 0 1 0-4.11 2.902 2.902 0 0 1 4.11 0l5.69 5.69 11.497-11.497a2.902 2.902 0 0 1 4.111 0 2.902 2.902 0 0 1 0 4.111L33.061 41.736a2.902 2.902 0 0 1-4.11 0l-7.746-7.746z" fill="url(#a)"/><defs><linearGradient id="a" x1="32.929" y1="0" x2="32.929" y2="80.009" gradientUnits="userSpaceOnUse"><stop stop-color="#8EF8AA"/><stop offset="1" stop-color="#00EFD1"/></linearGradient></defs></svg>