<svg width="88" height="80" fill="none" xmlns="http://www.w3.org/2000/svg"><path d="M85.011 74.394h-.93v-8.408a6.543 6.543 0 0 0-6.536-6.536h-.93V38.901h.93a6.543 6.543 0 0 0 6.536-6.536v-12.41c0-2.522-1.772-5.135-4.115-6.076L46.334.426c-1.401-.56-3.442-.56-4.843 0L7.848 13.879c-2.344.941-4.115 3.554-4.115 6.076v12.41a6.543 6.543 0 0 0 6.536 6.536h.93v20.55h-.93a6.543 6.543 0 0 0-6.536 6.535v8.408h-.93a2.804 2.804 0 0 0 0 5.606H85.01a2.804 2.804 0 0 0 0-5.606zM43.913 12.735c4.64 0 8.408 3.778 8.408 8.408 0 4.63-3.767 8.408-8.408 8.408a8.411 8.411 0 0 1-8.408-8.408 8.411 8.411 0 0 1 8.408-8.408zM71.009 38.89v20.55H61.67V38.89h9.339zm-14.944 0v20.55h-9.338V38.89h9.338zm-14.944 0v20.55h-9.339V38.89h9.34zm-24.294 0h9.339v20.55h-9.339V38.89z" fill="url(#a)"/><path d="M43.912 23.946a2.803 2.803 0 1 0 0-5.605 2.803 2.803 0 0 0 0 5.605z" fill="url(#b)"/><defs><linearGradient id="a" x1="43.907" y1=".005" x2="43.907" y2="80" gradientUnits="userSpaceOnUse"><stop stop-color="#8EF8AA"/><stop offset="1" stop-color="#00EFD1"/></linearGradient><linearGradient id="b" x1="43.912" y1="18.341" x2="43.912" y2="23.946" gradientUnits="userSpaceOnUse"><stop stop-color="#8EF8AA"/><stop offset="1" stop-color="#00EFD1"/></linearGradient></defs></svg>