<svg width="37" height="48" fill="none" xmlns="http://www.w3.org/2000/svg"><path d="M27.91 27.367c-4.89.071-8.407 2.302-10.452 6.62-2.073 4.39-1.143 8.465 1.916 12.21-.243 0-.428.03-.614.03H3.718C1.344 46.227 0 44.897 0 42.508V9.165c0-1.859.93-3.16 2.545-3.56.343-.086.7-.1 1.058-.1h20.704c2.231 0 3.59 1.386 3.59 3.617v18.245h.014zm-16.557-1.93c4.518.028 8.293-3.69 8.322-8.194.028-4.718-3.518-8.35-8.193-8.378-4.776-.043-8.394 3.531-8.408 8.336-.014 4.49 3.732 8.221 8.279 8.25v-.015zm-.558 3.703h6.52c.63 0 1.016-.33 1.03-.844 0-.515-.386-.872-1-.872H4.188c-.214 0-.529.057-.629.2-.171.258-.314.6-.271.887.071.472.471.614.929.614h6.577v.015zm-1.944 5.834h4.761c.6 0 .972-.33.987-.83 0-.5-.358-.872-.944-.872H4.147c-.258 0-.615.186-.758.386-.143.2-.172.63-.043.83.157.228.529.443.815.457 1.573.043 3.131.014 4.704.014l-.014.015zm-.33 4.132H4.29c-.672 0-1.073.314-1.073.843 0 .53.4.873 1.073.873h8.45c.658 0 1.058-.358 1.044-.887-.015-.515-.386-.815-1.044-.83H8.508h.014z" fill="#fff"/><path d="M28.425 29.211c5.048.5 8.68 4.504 8.494 9.795C36.747 44.039 32.686 48 27.524 48c-5.19 0-8.993-4.104-9.337-8.565H27.167c.972 0 1.244-.272 1.244-1.23V29.211h.014zM7.563 3.789C7.52 1.186 9.136-.272 11.595.042 17.372.786 23.163 1.501 28.94 2.23c1.243.157 2.473.3 3.703.5 1.673.286 2.788 1.645 2.66 3.346-.13 1.616-.372 3.232-.573 4.833l-1.458 11.425c-.257 2.03-.515 4.075-.786 6.148-.944-.315-1.86-.615-2.86-.958V8.965c0-2.574-1.644-4.619-4.104-5.09-.457-.086-.93-.086-1.387-.086H7.563z" fill="#fff"/><path d="M26.666 29.183v7.02c-1.616-1.63-3.303-3.303-4.99-5.004 1.358-1.13 3.045-1.845 4.99-2.016zM25.307 37.69h-7.135c.186-1.93.886-3.617 2.087-5.062 1.702 1.702 3.375 3.39 5.048 5.062zM11.47 10.523c-3.532-.071-6.592 2.846-6.663 6.377-.086 3.718 2.702 6.678 6.348 6.764 3.846.085 6.735-2.646 6.82-6.435.086-3.632-2.83-6.634-6.491-6.706h-.014zm2.716 5.72h-1.572c-.258 1.015-1.159 1.716-2.231 1.73h-.3l2.359 2.359c.043.043.114.114.157.186a.581.581 0 0 1-.071.715.556.556 0 0 1-.415.186.544.544 0 0 1-.314-.086c-.072-.043-.13-.1-.186-.143h-.015c0-.014-1.115-1.144-1.115-1.144l-2.159-2.159c-.114-.114-.357-.358-.2-.73.157-.371.515-.357.672-.357H10.426c.386 0 .743-.214.93-.543H8.71a.67.67 0 0 1-.472-.186c-.114-.114-.157-.257-.157-.429 0-.329.272-.557.63-.572H11.354c-.014-.028-.043-.057-.057-.086a1.093 1.093 0 0 0-.915-.457H8.796c-.1 0-.2 0-.315-.043a.549.549 0 0 1-.4-.6.565.565 0 0 1 .486-.53h5.662a.573.573 0 0 1 .544.544.561.561 0 0 1-.458.6c-.114.029-.214.029-.3.029h-1.587c.1.171.171.357.228.543h1.53c.33 0 .587.243.601.558.014.329-.229.586-.572.615h-.029z" fill="#fff"/></svg>