<svg width="75" height="87" fill="none" xmlns="http://www.w3.org/2000/svg"><g clip-path="url(#a)"><path d="M35.107 87c-1.492-.215-2.984-.358-4.476-.645C20.333 84.373 12.2 79.047 6.33 70.426 1.324 63.095-.697 54.927.217 46.14c.963-9.505 5.077-17.53 12.2-23.977 5.197-4.68 11.236-7.642 18.142-8.932.12 0 .217-.048.337-.071.192-.048.385-.096.65-.168v-5.54h-6.16c-.385 0-.818-.024-1.18-.167-.673-.239-.962-.788-.962-1.457 0-1.385-.048-2.77 0-4.155C23.268.549 23.87 0 25.05 0H48.58c1.66 0 2.166.478 2.166 2.102v3.39c0 1.41-.554 1.959-1.973 1.959h-5.318v5.493c1.78.454 3.585.836 5.318 1.361 6.833 2.125 12.584 5.923 17.252 11.32 4.355 5.039 7.122 10.866 8.373 17.41 3.73 19.32-8.975 38.616-28.248 42.938-1.829.406-3.706.597-5.558.884-.217.024-.433.095-.65.143h-4.836zM70.3 49.817c-.12-16.455-15.753-32.493-32.74-32.541-16.482-.048-32.74 15.513-32.812 32.445-.072 16.502 15.776 32.565 32.764 32.589 16.675 0 32.62-15.752 32.788-32.493z" fill="#797979" fill-opacity=".3"/><path d="M4.596 25.577c-2.911-3.08-2.743-7.88.337-10.818 3.056-2.89 7.94-2.747 10.972.43L4.572 25.577h.024zM65.635 46.365v6.305h-8.582v-6.305h8.582z" fill="#797979" fill-opacity=".3"/><path d="M52.228 25.906c-3.786 6.022-10.813 17.242-15.765 24.397v-28.85c2.282-.154 9.93.592 15.765 4.453z" fill="#FFCE02"/><path d="M17.924 46.365v6.305H9.342v-6.305h8.582zM36.412 78.174v-8.467h5.108v8.467h-5.108zM13.853 65.05c-.44-.773-.856-1.468-1.296-2.24a761.31 761.31 0 0 0 5.678-3.268c.415.72.83 1.415 1.297 2.239a761.31 761.31 0 0 0-5.679 3.268zM12.557 36.2c.44-.772.855-1.467 1.296-2.24 1.919 1.107 3.76 2.163 5.679 3.27-.441.745-.83 1.44-1.297 2.238-1.919-1.107-3.785-2.162-5.678-3.268zM25.936 68.086c.752.437 1.452.849 2.256 1.287-1.116 1.904-2.179 3.731-3.294 5.635-.777-.437-1.477-.849-2.255-1.286 1.114-1.905 2.178-3.732 3.293-5.61v-.026zM22.643 25.314c.777-.463 1.478-.85 2.255-1.313 1.115 1.879 2.178 3.706 3.32 5.61-.753.438-1.453.85-2.256 1.313-1.115-1.878-2.178-3.706-3.32-5.636v.026zM50.751 68.06c1.09 1.853 2.127 3.603 3.216 5.456-.726.489-1.4.952-2.152 1.467a1073.287 1073.287 0 0 0-3.293-5.585c.751-.437 1.452-.849 2.23-1.312v-.026zM58.425 59.542c1.582.9 3.06 1.75 4.615 2.65a97.064 97.064 0 0 0-1.14 2.317c-1.582-.901-3.112-1.776-4.746-2.703.415-.746.83-1.44 1.297-2.238l-.026-.026zM61.02 34.553c.441.772.856 1.467 1.297 2.239a763.338 763.338 0 0 0-5.679 3.268c-.415-.72-.83-1.415-1.296-2.239a763.338 763.338 0 0 0 5.678-3.268z" fill="#797979" fill-opacity=".3"/></g><defs><clipPath id="a"><path fill="#fff" d="M0 0h75v87H0z"/></clipPath></defs></svg>