<svg width="50" height="48" fill="none" xmlns="http://www.w3.org/2000/svg"><path d="M49.652 46.661c-1.173-.148-2.33-.297-3.618-.462V21.563c0-2.347-1.29-4.065-3.42-4.544-.414-.1-.876-.066-1.306-.066h-7.27c-.165 0-.314-.033-.48-.066v-3.669h1.322c2.43 0 4.842-.05 7.27.05 3.983.165 7.486 3.635 7.519 7.617.066 8.543.033 17.069.033 25.611a.513.513 0 0 1-.033.165h-.017z" fill="#fff"/><path d="M34.45 36.186c0-2.264.016-4.511 0-6.775 0-.76.264-1.04 1.007-1.04 1.438.016 2.859.016 4.296 0 .727 0 1.041.247 1.041 1.007-.016 4.594-.016 9.187 0 13.797 0 .678-.264.959-.925.959-1.487 0-2.974-.017-4.461 0-.727 0-.959-.33-.942-1.008.016-2.314 0-4.627 0-6.94h-.017zM24.52 38.185c0-1.57.017-3.14 0-4.709-.016-.793.298-1.074 1.074-1.057 1.421.033 2.859.033 4.296 0 .71 0 .975.297.975.991v9.65c0 .66-.248.958-.925.941-1.52-.016-3.024-.016-4.544 0-.644 0-.892-.28-.876-.892v-4.957.033zM5.634 31.064c1.107.479 2.18.941 3.238 1.437.182.083.33.413.33.628.017 4.461.017 8.906 0 13.367 0 .215-.115.496-.28.612-1.256.396-1.917.562-3.305.892V31.064h.017zM20.916 40.333v2.81c0 .627-.28.892-.909.892h-4.626c-.562 0-.826-.248-.826-.794v-5.948c0-.496.248-.76.76-.76h4.792c.561 0 .793.297.793.826v2.974h.016zM15.003 0C6.758 0 .017 6.725 0 14.937c0 8.278 6.708 15.036 14.987 15.07 8.31.032 15.036-6.643 15.052-14.954A14.978 14.978 0 0 0 15.003 0zM7.898 15.83c-.05.065-.116.148-.165.214-.182.215-.43.281-.645.182a.548.548 0 0 1-.347-.611c.083-.447.15-.893.265-1.306.644-2.247 1.933-4.048 3.883-5.353a9.001 9.001 0 0 1 4.412-1.52c.165 0 .214-.067.198-.232v-.743c0-.53.215-.942.743-1.124h.33c.364.116.645.347.91.611.974.975 1.933 1.95 2.908 2.908.43.43.644.942.578 1.554-.05.396-.198.727-.48 1.008a318.886 318.886 0 0 1-3.353 3.337c-.281.281-.645.397-1.025.248-.43-.165-.595-.512-.628-.942-.016-.33 0-.677 0-1.008 0-.099 0-.148-.132-.165-1.966-.297-3.784.083-5.47 1.124a7.423 7.423 0 0 0-1.998 1.8l.016.017zm15.499-1.703c-.116.562-.198 1.14-.38 1.686a9.085 9.085 0 0 1-2.479 3.965c-1.14 1.074-2.462 1.85-3.982 2.248-.562.148-1.156.214-1.735.313-.066 0-.115 0-.198.034v.793c-.016.23-.05.479-.132.71-.1.297-.347.446-.611.545h-.33c-.365-.099-.645-.33-.893-.595l-2.925-2.924c-.314-.314-.529-.661-.578-1.09-.066-.579.082-1.075.48-1.488a627.483 627.483 0 0 1 3.32-3.304c.265-.265.595-.38.975-.281.397.115.661.479.694.991.017.33 0 .661 0 .991 0 .116.033.15.149.166 1.652.264 3.222.016 4.725-.71a7.97 7.97 0 0 0 2.727-2.182c.066-.099.148-.182.231-.28a.54.54 0 0 1 .645-.133c.214.1.363.33.313.578l-.016-.033z" fill="#fff"/></svg>