<svg width="109" height="108" fill="none" xmlns="http://www.w3.org/2000/svg"><path d="M107.866 50.826c-.507-2.507-1.578-4.733-3.297-6.621-1.747-1.945-2.338-4.114-1.859-6.707 1.38-7.777-2.621-14.568-10.06-17.217-2.339-.845-3.889-2.395-4.706-4.762-2.48-7.185-9.609-11.356-17.104-9.975-2.677.48-4.875-.14-6.932-1.888-5.72-4.875-13.835-4.875-19.556 0-2.056 1.747-4.254 2.367-6.931 1.86-7.496-1.38-14.625 2.818-17.104 9.975-.818 2.367-2.367 3.917-4.706 4.762-7.524 2.677-11.497 9.58-10.032 17.414.423 2.339-.056 4.424-1.634 6.171-2.113 2.339-3.381 5.044-3.776 8.2 0 .17-.113.338-.169.48v2.958c.14.62.282 1.212.394 1.831.508 2.452 1.578 4.65 3.27 6.51 1.774 1.944 2.31 4.142 1.859 6.706-1.38 7.777 2.62 14.54 10.06 17.217 2.338.845 3.888 2.395 4.705 4.762 2.452 7.13 9.58 11.328 16.992 9.975 2.705-.479 4.987.056 7.016 1.888 2.114 1.888 4.65 2.987 7.467 3.438.198.028.395.112.592.197h3.382c.676-.169 1.352-.31 2.028-.479a15.226 15.226 0 0 0 6.284-3.325c1.86-1.663 4.001-2.198 6.453-1.719 7.693 1.437 14.737-2.649 17.358-10.06.817-2.31 2.367-3.832 4.677-4.649 6.876-2.451 10.736-8.313 10.313-15.554-.056-.733-.225-1.466-.338-2.198-.31-1.973 0-3.86 1.296-5.354 2.311-2.62 3.805-5.551 4.227-9.017 0-.056.057-.113.113-.197v-2.96c-.141-.563-.254-1.154-.395-1.718l.113.056zm-57.37 13.582c-.085 4.283-2.03 7.552-6.172 9.215-3.832 1.521-8.284.563-11.017-2.311-1.945-2.057-2.706-4.565-2.706-7.326V53.87c0-3.579-.112-7.158 0-10.764.141-3.917 2.142-6.82 5.664-8.482 3.523-1.663 7.017-1.296 10.173 1.014 2.592 1.916 3.973 4.565 4.001 7.778.056 6.988.113 13.976 0 20.964l.056.028zm5.579-27.445c.084-1.832 1.437-3.044 3.268-2.987 1.747.028 2.987 1.296 3.043 3.1v3.465c-.084 1.72-1.437 3.072-3.1 3.1-1.633.028-3.099-1.296-3.211-3.015a40.356 40.356 0 0 1 0-3.691v.028zm6.283 34.772c-.479 1.211-1.24 2.141-2.62 2.338-2.536.395-4.34-2-3.382-4.452 1.353-3.438 2.734-6.847 4.114-10.257 3.1-7.72 6.171-15.441 9.271-23.134.62-1.55 1.634-2.282 3.072-2.282 1.775 0 3.127 1.38 3.127 3.466-.056.225-.14.732-.338 1.211-4.424 11.046-8.848 22.064-13.272 33.11h.028zm13.61-2.508c0 .732.057 1.465 0 2.198-.14 1.465-1.352 2.536-2.817 2.648-1.663.113-3.1-.788-3.27-2.31a20.391 20.391 0 0 1 0-4.903c.17-1.522 1.748-2.564 3.213-2.452 1.606.141 2.818 1.325 2.93 2.93.057.62 0 1.269 0 1.889h-.056z" fill="url(#a)"/><path d="M42.324 40.485c-2.48-1.296-5.27.31-5.325 3.156-.085 3.438 0 6.875 0 10.313 0 3.466-.029 6.96 0 10.426 0 2.254 1.493 3.691 3.606 3.663 2.057 0 3.579-1.437 3.579-3.607.028-6.903.028-13.835 0-20.739 0-1.38-.564-2.536-1.86-3.184v-.028z" fill="url(#b)"/><defs><linearGradient id="a" x1="54.074" y1="0" x2="54.074" y2="108" gradientUnits="userSpaceOnUse"><stop stop-color="#8EF8AA"/><stop offset="1" stop-color="#00EFD1"/></linearGradient><linearGradient id="b" x1="40.583" y1="40.03" x2="40.583" y2="68.044" gradientUnits="userSpaceOnUse"><stop stop-color="#8EF8AA"/><stop offset="1" stop-color="#00EFD1"/></linearGradient></defs></svg>