<svg width="76" height="109" fill="none" xmlns="http://www.w3.org/2000/svg"><path d="M61.058 84.328H49.74v-3.546c-.049-1.797-1.069-2.623-2.866-2.283a50.182 50.182 0 0 1-18.264 0c-1.846-.34-2.817.486-2.866 2.38v3.449H14.33c-1.311 0-2.137.485-2.428 1.457-.34 1.117.145 1.894.971 2.574 7.723 6.558 15.398 13.164 23.121 19.721 1.312 1.118 2.186 1.118 3.45 0 7.722-6.557 15.397-13.163 23.12-19.72 1.069-.924 1.36-1.7.972-2.672-.437-1.117-1.36-1.409-2.477-1.409v.049z" fill="url(#a)"/><path d="M38.131.003C17.196-.24.195 16.566.001 37.647c-.098 20.79 16.903 37.694 37.401 37.84 20.79.145 37.79-16.516 38.082-37.5C75.727 17.392 58.872.245 38.131.003zm17.584 33.37H47.02c-.777 0-1.117.146-1.36 1.02-1.214 5.052-5.683 8.5-10.93 8.598h-5.44c.39.388.632.68.875.922L44.98 58.73c.291.291.583.534.777.874.437.728.389 1.457-.194 2.04-.632.631-1.36.729-2.138.243-.29-.194-.534-.437-.777-.68L24.385 42.942c-.68-.68-1.215-1.312-.778-2.332.438-1.02 1.312-1.068 2.235-1.068h9.132c3.594-.049 6.8-2.72 7.432-6.17H25.454c-1.215 0-1.992-.728-1.944-1.748 0-.971.777-1.603 1.943-1.651h17.195c-.583-1.117-.971-2.186-1.554-3.012-1.554-2.137-3.74-3.206-6.412-3.206h-8.84c-.437 0-.875 0-1.263-.145-.826-.243-1.215-.875-1.166-1.7.049-.826.534-1.36 1.36-1.506.34-.049.729 0 1.069 0h29.97c.971.097 1.506.68 1.554 1.603.049.874-.437 1.505-1.263 1.7-.485.097-1.068.097-1.603.097H42.891c1.506 1.797 2.526 3.643 2.915 5.78 0 .195.583.389.923.389h8.937c1.02 0 1.749.68 1.749 1.603 0 .971-.68 1.7-1.749 1.797h.049z" fill="url(#b)"/><defs><linearGradient id="a" x1="37.745" y1="78.424" x2="37.745" y2="108.918" gradientUnits="userSpaceOnUse"><stop stop-color="#8EF8AA"/><stop offset="1" stop-color="#00EFD1"/></linearGradient><linearGradient id="b" x1="37.743" y1="0" x2="37.743" y2="75.487" gradientUnits="userSpaceOnUse"><stop stop-color="#8EF8AA"/><stop offset="1" stop-color="#00EFD1"/></linearGradient></defs></svg>