<svg width="105" height="80" fill="none" xmlns="http://www.w3.org/2000/svg"><path d="M101.097 2.94A10.032 10.032 0 0 0 94.079 0H9.958A9.914 9.914 0 0 0 2.94 2.94C1.069 4.824.014 7.3 0 9.958v60.084a9.934 9.934 0 0 0 2.925 7.019A9.973 9.973 0 0 0 9.944 80h84.12a9.89 9.89 0 0 0 7.019-2.94 10.03 10.03 0 0 0 2.939-7.018V9.958a9.887 9.887 0 0 0-2.939-7.018h.014zm-78.34 21.308a11.455 11.455 0 0 1 3.136-5.865 11.511 11.511 0 0 1 5.865-3.137c.746-.155 1.49-.225 2.236-.225 1.491 0 2.982.295 4.374.872a11.525 11.525 0 0 1 5.148 4.22 11.378 11.378 0 0 1 1.927 6.357c0 2.264-1.195 5.935-3.361 8.101a11.373 11.373 0 0 1-8.102 3.361c-3.066 0-4.472-.675-6.357-1.926a11.45 11.45 0 0 1-4.22-5.148 11.356 11.356 0 0 1-.646-6.625v.014zm32.04 36.554a3.97 3.97 0 0 1-2.772 1.167 3.978 3.978 0 0 1-2.77-1.167 3.968 3.968 0 0 1-1.168-2.771c0-4.248-1.083-8.073-14.079-8.073-12.995 0-14.078 3.825-14.078 8.073s-.422 2.053-1.154 2.785a3.904 3.904 0 0 1-2.784 1.153 3.904 3.904 0 0 1-2.785-1.153 3.963 3.963 0 0 1-1.154-2.785c0-6.793 2.968-11.49 8.833-13.938 4.824-2.026 10.45-2.026 13.15-2.026 2.701 0 8.313 0 13.151 2.026 5.851 2.447 8.833 7.145 8.833 13.938a4.038 4.038 0 0 1-1.168 2.785l-.056-.014zm24.05-11.998a3.904 3.904 0 0 1-2.785 1.154H64.037a3.904 3.904 0 0 1-2.785-1.154 3.903 3.903 0 0 1-1.154-2.784c0-1.055.408-2.04 1.154-2.785a3.904 3.904 0 0 1 2.785-1.153h12.025c1.055 0 2.04.407 2.785 1.153A3.904 3.904 0 0 1 80 46.02c0 1.054-.408 2.04-1.153 2.784zm6.005-18.03a3.904 3.904 0 0 1-2.785 1.153h-18.03a3.904 3.904 0 0 1-2.785-1.153 3.904 3.904 0 0 1-1.154-2.785c0-1.055.408-2.04 1.154-2.785a3.904 3.904 0 0 1 2.785-1.153h18.03c1.041 0 2.054.422 2.785 1.153a3.904 3.904 0 0 1 1.154 2.785c0 1.055-.408 2.04-1.154 2.785z" fill="url(#a)"/><path d="M31.462 29.001a3.419 3.419 0 0 0 1.829.97c.225.043.464.071.703.071.464 0 .928-.098 1.364-.267a3.569 3.569 0 0 0 1.604-1.308c.393-.59.604-1.28.604-1.983 0-.704-.365-1.857-1.04-2.518a3.544 3.544 0 0 0-2.518-1.04c-.942 0-1.392.21-1.983.604a3.48 3.48 0 0 0-1.308 1.604 3.57 3.57 0 0 0-.197 2.067c.14.69.478 1.322.97 1.828l-.028-.028z" fill="url(#b)"/><defs><linearGradient id="a" x1="52.011" y1="0" x2="52.011" y2="80" gradientUnits="userSpaceOnUse"><stop stop-color="#8EF8AA"/><stop offset="1" stop-color="#00EFD1"/></linearGradient><linearGradient id="b" x1="34.008" y1="22.925" x2="34.008" y2="30.042" gradientUnits="userSpaceOnUse"><stop stop-color="#8EF8AA"/><stop offset="1" stop-color="#00EFD1"/></linearGradient></defs></svg>