<svg width="109" height="81" fill="none" xmlns="http://www.w3.org/2000/svg"><path d="M108.156 26.113c-.232-.482-.465-.947-.764-1.329-.764-1.013-1.877-1.561-3.306-1.66a8.684 8.684 0 0 0-.93 0h-22.11c-24.617 0-50.083 0-75.132-.034H5.88c-3.172 0-4.95 1.063-5.88 3.538v49.85c.465 1.114.897 2.16 1.86 2.625 1.163.548 2.177.847 3.04.847 8.588.05 17.326.05 25.781.034h38.787c11.014 0 22.16 0 33.19.05h.05c3.089 0 4.8-1.064 5.697-3.572v-49.8c-.099-.183-.182-.366-.282-.549h.033zM35.299 74.435H13.122c-1.361 0-2.242-.814-2.408-2.226-.249-1.927-.98-2.674-2.89-2.907-1.512-.182-2.26-1.08-2.26-2.707V36.66c0-1.893.715-2.69 2.642-2.907 1.346-.15 2.326-1.13 2.492-2.491.232-1.944.996-2.625 2.923-2.625h21.213c1.661 0 2.724.764 2.907 2.093.083.664-.1 1.312-.515 1.794-.465.532-1.146.847-1.944.847a158.25 158.25 0 0 1-3.97 0h-5.016c-3.439 0-7.01 0-10.499-.016-.598 0-.747.133-.913.548-.731 1.877-2.143 3.272-4.07 4.036-.399.15-.465.283-.465.748.016 8.322.016 16.993 0 25.764 0 .448.083.548.415.664 1.944.764 3.389 2.177 4.136 4.103.15.383.25.482.83.482h.018c4.917-.016 9.933 0 14.767 0h4.12c.282 0 .58 0 .897.033 1.345.166 2.292 1.196 2.242 2.459-.05 1.329-1.063 2.259-2.442 2.259l-.033-.017zm-9.552-22.873a5.716 5.716 0 0 1-1.71 4.086 5.831 5.831 0 0 1-4.12 1.678h-.05c-3.173-.017-5.747-2.625-5.747-5.798 0-1.544.614-3.006 1.744-4.12a5.763 5.763 0 0 1 4.053-1.677H20c3.173.05 5.747 2.658 5.73 5.814l.017.017zm28.456 22.89h-.067c-12.641-.033-22.89-10.349-22.857-22.99.017-6.096 2.425-11.827 6.794-16.163a22.814 22.814 0 0 1 16.163-6.661h.083c12.658.05 22.907 10.366 22.857 23.023-.05 12.592-10.349 22.808-22.973 22.808v-.017zm48.687-18.704v10.598c0 2.01-.598 2.69-2.624 2.99-1.445.216-2.359 1.163-2.509 2.624-.182 1.745-.996 2.492-2.707 2.492H73.422c-.864 0-1.578-.266-2.06-.748a2.165 2.165 0 0 1-.631-1.61c0-1.413 1.096-2.376 2.69-2.376 6.496 0 12.841-.017 19.187 0h.033c.665 0 .847-.117 1.047-.632.714-1.81 2.076-3.156 3.937-3.87.431-.166.548-.299.548-.913-.017-8.422-.017-17.027 0-25.565 0-.499-.083-.648-.532-.814-1.894-.764-3.289-2.176-4.036-4.07-.15-.382-.266-.498-.83-.498-4.951.016-9.968 0-14.835 0H73.771c-.283 0-.582 0-.897-.034-1.213-.182-1.994-.98-2.093-2.143-.1-1.212.581-2.159 1.827-2.491.365-.1.73-.1 1.046-.1h21.08c2.077 0 2.79.631 3.073 2.691.183 1.33 1.18 2.293 2.542 2.442 1.827.2 2.575 1.03 2.575 2.857v19.136l-.034.034zm-20.182-4.17a5.82 5.82 0 0 1 1.71-4.136 5.705 5.705 0 0 1 4.087-1.711h.017c1.544 0 3.006.631 4.103 1.744a5.788 5.788 0 0 1 1.677 4.136c-.033 3.157-2.64 5.698-5.814 5.698a5.724 5.724 0 0 1-4.07-1.694 5.8 5.8 0 0 1-1.71-4.053v.016z" fill="url(#a)"/><path d="M102.574 18.372H37.807c4.103-.582 8.222-1.163 12.325-1.744 6.944-.98 13.87-1.977 20.814-2.957 7.492-1.063 15.1-2.16 22.459-3.206l3.405-.482c1.262-.183 2.492.116 3.455.847a4.432 4.432 0 0 1 1.728 2.974c.099.68.182 1.378.265 2.06.1.78.2 1.594.316 2.408v.133-.033z" fill="url(#b)"/><path d="M92.575 5.631c-.166.133-.98.25-1.71.35-8.323 1.195-16.629 2.374-24.95 3.554l-19.951 2.84c-1.993.283-3.987.582-5.98.864l-.715.1c10.665-2.99 21.33-5.964 31.977-8.954L85.964.282A6.824 6.824 0 0 1 87.874 0c.582 0 1.512.183 2.126.532 1.064.614 1.828 1.76 2.243 3.388.2.748.382 1.512.332 1.711z" fill="url(#c)"/><path d="M54.303 33.389h-.067c-4.834 0-9.402 1.893-12.84 5.315-3.455 3.422-5.35 7.974-5.35 12.808 0 4.85 1.878 9.418 5.316 12.857A18.07 18.07 0 0 0 54.22 69.7c4.85 0 9.435-1.894 12.857-5.316 3.438-3.438 5.332-7.99 5.332-12.84 0-9.984-8.14-18.123-18.123-18.156h.017z" fill="url(#d)"/><path d="M89.569 51.528c0 .266-.1.532-.283.73-.2.2-.448.316-.73.316-.582 0-1.047-.431-1.064-.996 0-.548.465-1.047 1.013-1.063h.017c.25 0 .498.116.698.299.2.199.332.465.332.73l.017-.016z" fill="url(#e)"/><defs><linearGradient id="a" x1="54.203" y1="23.09" x2="54.203" y2="80.033" gradientUnits="userSpaceOnUse"><stop stop-color="#8EF8AA"/><stop offset="1" stop-color="#00EFD1"/></linearGradient><linearGradient id="b" x1="70.19" y1="9.931" x2="70.19" y2="18.405" gradientUnits="userSpaceOnUse"><stop stop-color="#8EF8AA"/><stop offset="1" stop-color="#00EFD1"/></linearGradient><linearGradient id="c" x1="65.927" y1="0" x2="65.927" y2="13.339" gradientUnits="userSpaceOnUse"><stop stop-color="#8EF8AA"/><stop offset="1" stop-color="#00EFD1"/></linearGradient><linearGradient id="d" x1="54.228" y1="33.389" x2="54.228" y2="69.701" gradientUnits="userSpaceOnUse"><stop stop-color="#8EF8AA"/><stop offset="1" stop-color="#00EFD1"/></linearGradient><linearGradient id="e" x1="88.53" y1="50.515" x2="88.53" y2="52.574" gradientUnits="userSpaceOnUse"><stop stop-color="#8EF8AA"/><stop offset="1" stop-color="#00EFD1"/></linearGradient></defs></svg>