<svg width="44" height="48" fill="none" xmlns="http://www.w3.org/2000/svg"><path d="M.02 12.545c0-1.038-.045-2.06 0-3.098.06-1.068.662-1.76 1.655-2.136 4.467-1.685 8.95-3.354 13.417-5.039C16.957 1.58 18.807.873 20.657.166c.632-.24 1.233-.21 1.865.03C28.69 2.513 34.856 4.844 41.053 7.13c1.43.527 2.076 1.43 2.121 2.933.12 4.904-.406 9.732-1.684 14.47-1.64 6.137-4.423 11.657-8.875 16.26-2.888 2.993-6.272 5.28-10.063 6.995-.737.33-1.474.255-2.226-.09C10.58 43.14 4.743 35.392 1.81 25.224.652 21.104.08 16.862.02 12.545zm20.817 11.597-1.534-1.58c-.496-.51-.992-1.022-1.519-1.503-.993-.948-2.452-.933-3.384 0-.948.947-.963 2.406 0 3.384a362.846 362.846 0 0 0 4.813 4.813c.978.963 2.422.978 3.384 0 3.46-3.595 6.904-7.204 10.349-10.814a2.196 2.196 0 0 0 .617-1.866c-.12-.992-.662-1.714-1.625-2.03-.962-.316-1.82-.09-2.527.632-1.745 1.805-3.474 3.625-5.22 5.445-1.097 1.143-2.195 2.3-3.369 3.52h.015z" fill="#fff"/></svg>