<svg width="48" height="48" fill="none" xmlns="http://www.w3.org/2000/svg"><path d="M0 46.96V23.619c.376-.814 1.014-1.04 1.891-1.04 14.79.013 29.579.013 44.38.013 1.228 0 1.729.514 1.729 1.74V46.21c0 1.29-.488 1.778-1.778 1.778-14.777 0-29.554 0-44.331.013-.877 0-1.515-.238-1.891-1.04zm39.384-11.683h.075c0-1.015.025-2.029 0-3.043-.075-2.242-1.978-4.033-4.245-4.02-2.229.012-4.12 1.828-4.17 4.045a156.85 156.85 0 0 0 0 5.948c.038 2.117 1.753 3.882 3.87 4.057 2.141.163 4.157-1.314 4.445-3.443.15-1.165.025-2.367.025-3.544zm-16.793 1.365c.576 0 1.09.012 1.603 0 2.117-.075 3.882-1.803 4.02-3.907.138-2.142-1.327-4.12-3.431-4.408-1.152-.163-2.33-.088-3.507-.1-.914 0-1.49.588-1.49 1.502v11.008c0 .613.213 1.102.776 1.39.94.488 2.03-.176 2.042-1.278.012-1.377 0-2.742 0-4.182l-.013-.025zm-8.403 2.817v-8.44h1.253c.901 0 1.54-.601 1.527-1.415 0-.802-.638-1.39-1.515-1.39h-5.385c-.901 0-1.54.588-1.527 1.415 0 .814.638 1.39 1.552 1.402h1.228v8.44H9.993c-.839.013-1.452.615-1.465 1.39 0 .79.614 1.404 1.44 1.416h5.573a1.4 1.4 0 0 0 1.415-1.39c0-.789-.601-1.403-1.44-1.415h-1.34l.012-.013zM44.055 0c.814.376 1.052 1.014 1.04 1.891-.026 5.735-.013 11.458-.013 17.194v.576h-8.44v-.526c0-5.748 0-11.496-.013-17.244 0-.877.238-1.515 1.04-1.891h6.386zM33.837 19.66H25.42c0-.15-.024-.3-.024-.45V7.263c0-1.102.538-1.64 1.628-1.64h5.196c1.04 0 1.603.55 1.603 1.578V19.66h.013zM14.163 19.648c0-2.392-.013-4.746 0-7.1 0-.714.614-1.29 1.352-1.303 1.904-.012 3.807-.012 5.71 0 .727 0 1.34.577 1.353 1.303.025 2.354 0 4.708 0 7.1H14.15h.013zM11.334 19.66H2.93c0-.563-.05-1.114.013-1.665.087-.638.65-1.114 1.314-1.127 1.904-.012 3.807-.012 5.71 0 .752 0 1.328.589 1.366 1.34.025.464 0 .94 0 1.453z" fill="#fff"/><path d="M36.654 35.252v2.717c0 .864-.602 1.49-1.403 1.503-.801 0-1.402-.626-1.415-1.49v-5.473c0-.864.614-1.49 1.415-1.477.776 0 1.378.626 1.39 1.465v2.755h.013zM22.617 31.031c.501 0 .952-.012 1.403 0 .789.026 1.39.652 1.377 1.416 0 .738-.6 1.352-1.365 1.39-.463.025-.926 0-1.415 0V31.03z" fill="#fff"/></svg>