<svg width="52" height="48" fill="none" xmlns="http://www.w3.org/2000/svg"><path d="M34.683.028c.427.344.482.744.248 1.226-.552 1.24-1.061 2.494-1.626 3.72-.07.166-.248.317-.428.386-1.336.537-2.686.537-4.023 0a.913.913 0 0 1-.455-.427c-.537-1.199-1.047-2.425-1.584-3.638-.22-.496-.22-.923.193-1.295h.317c1.309.95 2.287.95 3.307 0h.413c1.144.95 2.136.95 3.307 0h.317l.014.028zM30.865 31.912c-5.319-.11-10.004-3.307-11.616-8.074-1.24-3.666-.496-7.083 1.53-10.28 1.584-2.493 3.761-4.34 6.283-5.856.813-.496 1.474-.633 2.384-.358 1.24.386 2.521.207 3.761-.22.29-.097.483-.124.73.124.207.206.51.344.772.496 2.949 1.68 5.333 3.927 6.931 6.958 3.817 7.275-.358 14.771-7.413 16.631-1.089.29-2.232.372-3.348.552l-.014.027zm-3.748-7.62c.317-.206.592-.344.8-.55a3354 3354 0 0 0 7.013-6.987c.082-.082.179-.165.234-.262a.876.876 0 0 0-.096-1.13.86.86 0 0 0-1.13-.082c-.11.082-.207.179-.303.275-2.315 2.302-4.63 4.616-6.931 6.931-.11.11-.276.22-.29.345-.055.29-.124.633-.014.868.11.234.428.372.717.606v-.014zm6.752.923c1.405 0 2.535-1.116 2.535-2.494 0-1.377-1.144-2.521-2.535-2.521a2.511 2.511 0 0 0-2.508 2.48 2.523 2.523 0 0 0 2.508 2.535zm-3.514-8.529a2.494 2.494 0 0 0-2.521-2.508c-1.392 0-2.508 1.144-2.494 2.55a2.53 2.53 0 0 0 2.494 2.494 2.523 2.523 0 0 0 2.521-2.522v-.014zM10.389 43.941v-9.218c0-.358.096-.496.468-.565 1.53-.317 3.045-.716 4.589-.978 2.053-.358 4.064-.055 6.062.537 4.286 1.282 8.57 2.522 12.856 3.79.414.123.827.275 1.171.51.868.578.8 1.666-.096 2.204-.565.344-1.185.344-1.805.207-4.437-.951-8.874-1.916-13.31-2.866-.138-.028-.276-.056-.4-.083-.607-.11-1.061.151-1.158.647-.096.524.18.924.8 1.061.978.22 1.942.428 2.92.634 3.666.786 7.331 1.599 10.996 2.356 1.681.359 3.307-.303 3.996-1.653.29-.579.372-1.254.565-1.984 1.902-.469 3.94-.965 5.98-1.447 1.695-.4 3.376-.813 5.07-1.171.428-.083.896-.055 1.324.027.813.166 1.13.772.84 1.557-.29.786-.91 1.227-1.64 1.544-2.41 1.033-4.822 2.08-7.247 3.127-3.57 1.544-7.138 3.06-10.693 4.63-3.072 1.35-6.2 1.557-9.41.606-3.942-1.17-7.882-2.3-11.892-3.458l.014-.014zM0 39.077c0-2.48.014-4.947 0-7.427 0-.454.11-.633.606-.62 2.48.028 4.96.014 7.44 0 .442 0 .593.124.593.579-.013 4.988 0 9.962 0 14.95 0 .441-.11.606-.578.606a676.088 676.088 0 0 0-7.482 0c-.427 0-.565-.137-.565-.565.014-2.507 0-5.015 0-7.523H0z" fill="#fff"/><path d="M34.656 22.694c0 .413-.33.744-.744.758a.772.772 0 0 1-.771-.73c0-.414.33-.745.744-.758.413 0 .758.33.771.73zM27.86 17.43c-.4 0-.745-.33-.758-.744 0-.413.317-.758.73-.771.413 0 .744.33.758.744a.762.762 0 0 1-.73.771z" fill="#fff"/></svg>