<svg width="48" height="48" fill="none" xmlns="http://www.w3.org/2000/svg"><path d="M29.774 42.952c-3.113.639-6.198.666-9.379.136v.625a3.425 3.425 0 0 1-3.33 3.317c-.693.013-1.4.054-2.08-.028-1.753-.217-2.962-1.644-3.003-3.48-.027-.978-.041-1.97 0-2.949.027-.584-.163-.938-.653-1.277-3.207-2.297-5.545-5.247-6.66-9.094-.53-1.808-.72-3.656-.49-5.532.055-.462-.026-.734-.489-.951-.435-.204-.815-.53-1.277-.843a57.93 57.93 0 0 1-.884.992c-.408.435-.883.49-1.25.163-.367-.34-.394-.856.054-1.25.843-.72 1.006-1.4.517-2.487-.666-1.482-.53-3.086.176-4.581.34-.734.857-1.319 1.659-1.536 1.318-.354 2.718.788 2.813 2.283.068.925-.163 1.795-.584 2.597-.435.842-.938 1.644-1.441 2.528.299.23.639.503 1.033.802 1.74-5.71 5.6-9.352 10.738-11.69.843 1.156 1.645 2.257 2.433 3.344-.748.285-1.59.598-2.433.938-.53.217-.72.652-.53 1.087.19.462.625.585 1.196.394 1.155-.394 2.283-.856 3.466-1.141 4.526-1.088 8.97-.83 13.334.802.095.04.19.081.285.108.517.177.966 0 1.129-.448.163-.421-.041-.884-.544-1.047-1.128-.38-2.256-.707-3.384-1.06-.096-.027-.19-.054-.204-.054.734-1.196 1.454-2.379 2.242-3.67.857.353 1.849.775 2.828 1.182.136.055.299.109.407.204.87.72 1.74.585 2.705.177 1.291-.544 2.637-.965 3.956-1.441.407-.15.801-.217 1.114.15.326.367.204.747.027 1.141-.611 1.319-1.21 2.65-1.848 3.956-.163.34-.109.53.136.788 1.386 1.482 2.623 3.072 3.208 5.056.04.136.244.272.394.327.462.163.951.258 1.413.435.884.326 1.387.992 1.4 1.916.041 1.509.027 3.018 0 4.526-.013.979-.706 1.78-1.658 1.998-.639.15-1.305.245-1.944.408-.15.041-.367.204-.394.34-.91 3.344-2.8 5.98-5.586 8.02-.136.108-.231.366-.245.557-.027 1.142 0 2.27 0 3.411-.014 2.189-1.454 3.63-3.643 3.643-.543 0-1.087.027-1.63-.027-1.795-.19-3.005-1.468-3.14-3.29 0-.122-.028-.23-.041-.434l.081-.041zM39.1 24.235a1.64 1.64 0 0 0 1.63-1.604c0-.883-.706-1.63-1.59-1.644a1.633 1.633 0 0 0-1.658 1.63 1.63 1.63 0 0 0 1.617 1.618zm-36.66-4.254c.069.013.15.04.218.054.395-.883.816-1.767 1.156-2.677.122-.327.081-.748-.014-1.088-.054-.204-.34-.448-.557-.49-.177-.026-.476.178-.585.368-.734 1.237-.693 2.528-.217 3.82v.013z" fill="#fff"/><path d="M30.492 4.907C29.486 1.957 26.767 0 23.655 0c-3.18 0-5.994 2.052-6.932 5.07-.938 3.045.217 6.361 2.854 8.142.218.15.544.258.788.204 2.325-.408 4.65-.476 6.987-.272.231.027.53-.082.72-.231a7.187 7.187 0 0 0 2.406-8.02l.014.014zm-3.956 1.25h-1.495c-.244.965-1.1 1.631-2.12 1.645h-.285l2.242 2.243c.041.04.109.108.15.176a.553.553 0 0 1-.068.68.53.53 0 0 1-.394.177.517.517 0 0 1-.3-.082c-.067-.04-.122-.095-.176-.136h-.014c0-.013-1.06-1.087-1.06-1.087L20.964 7.72c-.11-.108-.34-.34-.19-.693.149-.353.489-.34.638-.34H22.962c.367 0 .707-.203.883-.516H21.331a.638.638 0 0 1-.449-.177.543.543 0 0 1-.15-.408c0-.312.259-.53.599-.543H23.846c-.014-.027-.042-.055-.055-.082a1.04 1.04 0 0 0-.87-.435h-1.509c-.095 0-.19 0-.299-.04a.522.522 0 0 1-.38-.571.537.537 0 0 1 .462-.503H26.577c.3.027.49.23.517.516a.534.534 0 0 1-.435.571 1.117 1.117 0 0 1-.286.027H24.865c.095.163.163.34.217.517h1.454c.313 0 .558.23.571.53.014.312-.217.557-.543.584h-.027z" fill="#fff"/></svg>