<svg width="109" height="109" fill="none" xmlns="http://www.w3.org/2000/svg"><path d="M60.386 49.096v.097c0 1.204 0 2.457.048 3.662 0 .82.193 1.639.482 2.41.338.82.82 1.59 1.542 2.12.772.579 1.639.82 2.603.868 1.108 0 2.12-.241 3.036-.916.53-.385.916-.916 1.253-1.494 0-.096.096-.193.096-.24v-6.507h-9.108.048z" fill="url(#a)"/><path d="M69.494 42.976h-9.06v3.036h9.06v-3.036z" fill="url(#b)"/><path d="M54.121 16.904c-21.205 0-38.265 17.3-38.217 38.554 0 21.012 17.302 38.217 38.362 38.168 21.205 0 38.41-17.204 38.41-38.313 0-21.3-17.254-38.458-38.507-38.458l-.048.049zm-6.168 48.385v6.073H31.278v-1.543c0-1.494.24-2.843.675-4.096.482-1.253 1.012-2.361 1.686-3.374.675-1.012 1.542-2.168 2.65-3.518 1.11-1.397 2.025-2.602 2.7-3.566.674-.964 1.205-2.072 1.687-3.373.481-1.253.674-2.603.674-4.097 0-1.494-.144-1.542-.385-2.024-.241-.482-.723-.723-1.35-.723-1.06 0-1.59.964-1.59 2.892v3.952H31.23l-.097-1.976c0-2.458.241-4.434.771-6.024.482-1.59 1.35-2.747 2.603-3.615 1.253-.82 2.988-1.253 5.156-1.253 2.17 0 4.772.771 6.266 2.265 1.493 1.494 2.216 3.663 2.216 6.41 0 2.747-.24 3.373-.723 4.82a17.03 17.03 0 0 1-1.783 3.758 48.393 48.393 0 0 1-2.843 3.76 35.944 35.944 0 0 0-2.12 2.746c-.579.82-1.06 1.639-1.495 2.458h8.772v.048zm31.036-25.156c0 .096-.097.24-.145.337-.482.82-.964 1.59-1.446 2.41-.048.096-.144.096-.192.096h-3.904v3.084h5.687c-.049.097-.097.145-.097.193-.53.916-1.06 1.831-1.638 2.747-.048.096-.145.096-.193.096h-3.759v22.217h-3.759V59.747h-.096c-1.398 1.012-2.988 1.35-4.675 1.35-1.012 0-2.024-.097-2.988-.434-1.687-.627-2.94-1.783-3.807-3.326-.82-1.445-1.301-3.036-1.301-4.723 0-1.108 0-2.216-.049-3.373v-.145h-4.53c0-.048.048-.096.097-.144.53-.916 1.108-1.831 1.638-2.747.048-.096.096-.096.193-.096H56.627v-3.037H52.05l.145-.289c.481-.82 1.012-1.687 1.493-2.506.097-.144.193-.193.338-.193H78.989c.144 0 .144.049.096.193l-.096-.144z" fill="url(#c)"/><path d="M104.338 45.144c-1.687-1.927-2.41-4.096-1.88-6.602.145-.627.193-1.253.241-1.88.386-7.228-3.47-13.011-10.265-15.421-2.361-.82-3.855-2.41-4.674-4.771-2.506-7.23-9.639-11.374-17.157-9.976-2.554.482-4.723-.048-6.65-1.783-1.543-1.35-3.278-2.41-5.254-2.988-.963-.29-1.975-.482-2.94-.771h-3.373c-1.35.385-2.795.578-4 1.156-1.542.723-2.988 1.687-4.337 2.747-1.88 1.494-3.904 2.12-6.265 1.639C30.073 5 22.94 9.096 20.338 16.518c-.82 2.313-2.361 3.855-4.675 4.675C8.82 23.65 4.964 29.433 5.35 36.614c0 .723.193 1.446.29 2.169.337 2.072 0 4.048-1.398 5.639C2.025 46.928.579 49.77.193 53.144c0 .097-.096.193-.144.29v2.94c.048.144.144.337.193.481C.627 59.988 1.88 62.687 4 65.048c1.542 1.735 2.072 3.76 1.638 6.072-1.494 7.904 2.458 14.844 10.024 17.542 2.362.82 3.856 2.41 4.675 4.772 2.458 7.132 9.542 11.325 16.964 9.975 2.699-.481 4.916.097 7.036 1.88 5.735 4.867 13.783 4.867 19.518 0 2.072-1.735 4.241-2.361 6.94-1.88 7.47 1.35 14.554-2.795 17.012-9.927.82-2.41 2.361-3.952 4.77-4.82 7.471-2.65 11.471-9.638 9.977-17.445-.434-2.314.096-4.386 1.638-6.169a18.042 18.042 0 0 0 1.832-2.458c3.277-5.542 2.65-12.626-1.591-17.494l-.096.048zm-50.12 51.808c-22.989 0-41.59-18.7-41.59-41.783 0-22.94 18.746-41.543 41.83-41.543 22.796 0 41.494 18.747 41.494 41.543 0 23.084-18.65 41.783-41.734 41.734v.049z" fill="url(#d)"/><defs><linearGradient id="a" x1="64.892" y1="49.096" x2="64.892" y2="58.253" gradientUnits="userSpaceOnUse"><stop stop-color="#9CFFAC"/><stop offset="1" stop-color="#00B59C"/></linearGradient><linearGradient id="b" x1="64.964" y1="42.976" x2="64.964" y2="46.012" gradientUnits="userSpaceOnUse"><stop stop-color="#9CFFAC"/><stop offset="1" stop-color="#00B59C"/></linearGradient><linearGradient id="c" x1="54.29" y1="16.855" x2="54.29" y2="93.627" gradientUnits="userSpaceOnUse"><stop stop-color="#9CFFAC"/><stop offset="1" stop-color="#00B59C"/></linearGradient><linearGradient id="d" x1="54.079" y1=".952" x2="54.079" y2="108.94" gradientUnits="userSpaceOnUse"><stop stop-color="#9CFFAC"/><stop offset="1" stop-color="#00B59C"/></linearGradient></defs></svg>