<svg width="110" height="108" fill="none" xmlns="http://www.w3.org/2000/svg"><path d="M14.614 15.126h51.148c2.746 0 4.266-1.52 4.266-4.218V8.31c0-3.138-1.422-4.56-4.61-4.56H13.241v-.687c.049-1.226-.246-2.305-1.422-2.844-1.227-.54-2.158 0-3.09.784-2.305 1.962-4.61 3.825-6.915 5.787C1.128 7.377.588 8.064 0 8.7v1.52c.294.393.54.834.932 1.129 2.795 2.354 5.59 4.658 8.385 7.012.736.638 1.619.736 2.502.344.882-.393 1.323-1.128 1.422-2.11v-1.421h1.422l-.05-.05z" fill="url(#a)"/><path d="M77.433 78.533 59.338 65.881c-1.619-1.128-2.305-1.03-3.531.49a1387.982 1387.982 0 0 0-8.043 9.612c-2.06 2.501-4.707 3.727-7.944 3.286-5.737-.785-7.993-6.032-4.757-10.2 2.844-3.678 5.395-7.552 8.043-11.377 1.961-2.845 4.511-5.051 7.65-6.572.735-.343 1.471-.735 2.5-1.275-3.432-.931-6.57-.784-9.464.54-3.433 1.569-6.816 3.334-10.15 5.05-1.864.933-3.777 1.423-5.886 1.374-3.236-.05-6.424 0-9.66 0h-1.128c-.05.343-.098.54-.147.785-.54 5.05-1.128 10.102-1.668 15.104-.392 3.53-.784 7.012-1.128 10.543 0 .294.147.834.344.932 1.226.588 2.55 1.079 3.923 1.667 1.471-2.795 3.58-4.56 6.816-4.364 3.286.196 5.247 2.108 6.277 5.198 1.864-.343 3.678-.196 5.296.784 1.619.981 2.6 2.502 3.14 4.218 4.364-.687 7.06 1.128 8.483 5.05h.49c4.61-.98 9.416 3.483 7.7 8.975-.099.294.098.785.294 1.03.294.343.686.637 1.079.834 1.03.588 2.06.588 3.04-.049.98-.638 1.52-1.619 1.226-2.747-.196-.784-.736-1.52-1.226-2.157-.638-.834-.736-1.766-.147-2.55.588-.736 1.52-.932 2.403-.442.196.098.343.245.54.343 1.765.932 3.726.05 4.217-1.863.294-1.275-.197-2.207-1.08-3.09-.882-.833-.931-1.863-.245-2.697.687-.784 1.717-.882 2.698-.196.343.245.686.54 1.03.785 1.422 1.03 3.089.932 4.119-.343 1.079-1.325.883-3.04-.49-4.218-.491-.441-1.03-.784-1.52-1.226-.835-.735-.933-1.765-.295-2.599.588-.785 1.57-.98 2.5-.49.295.147.59.392.933.54 1.128.49 2.207.342 3.09-.442.882-.785 1.127-1.766.833-2.942-.294-1.178-1.03-2.011-2.01-2.698l-.05.05z" fill="url(#b)"/><path d="M93.078 57.496c-.05-.54-.295-.736-.834-.736h-4.512c-2.06.098-3.923-.392-5.786-1.373-2.992-1.57-6.032-3.04-9.073-4.56-4.462-2.207-8.925-2.207-13.387 0a328.564 328.564 0 0 1-7.21 3.58c-2.5 1.225-4.51 2.99-6.13 5.246l-8.238 11.77c-1.128 1.618-.784 2.844 1.03 3.678 2.01.882 4.12.392 5.689-1.472 2.844-3.383 5.688-6.816 8.532-10.2 2.011-2.354 5.1-2.893 7.602-1.177a1710.349 1710.349 0 0 1 19.321 13.535c2.256 1.618 3.335 3.923 3.139 6.768v.637h12.603c-.245-2.207-.49-4.266-.687-6.326-.735-6.522-1.471-12.995-2.158-19.518l.099.148z" fill="url(#c)"/><path d="M108.917 26.503c-2.746-2.354-5.591-4.708-8.386-7.013-.736-.637-1.618-.735-2.5-.294-.933.392-1.325 1.177-1.423 2.109v1.422H44.087c-2.795 0-4.316 1.52-4.316 4.315v2.354c-.196 2.844 1.472 4.757 4.66 4.757 16.918-.098 33.836 0 50.755 0h1.422v1.128c0 1.079.392 1.961 1.422 2.452 1.03.49 1.962.196 2.795-.49 2.697-2.257 5.395-4.463 8.092-6.719 1.373-1.128 1.422-2.746.098-3.874l-.098-.147z" fill="url(#d)"/><path d="M11.573 53.033H1.912V83.29h8.043c0-.147.098-.245.098-.343 1.079-9.367 2.108-18.733 3.138-28.1.098-1.078-.49-1.765-1.618-1.765v-.049z" fill="url(#e)"/><path d="M98.52 53.033c-1.57 0-2.06.637-1.913 2.207.637 5.492 1.226 10.985 1.814 16.526.442 3.825.883 7.65 1.275 11.524h8.092V53.033H98.47h.05z" fill="url(#f)"/><path d="M26.383 85.84c-.882-.686-2.304-.833-3.236-.147-1.373.981-2.01 2.403-2.354 3.776 0 1.52.785 2.698 1.913 3.139 1.176.441 2.353.294 3.138-.687.687-.882 1.324-1.912 1.667-2.942.442-1.226-.098-2.305-1.128-3.139z" fill="url(#g)"/><path d="M51.001 100.503c-1.127-.442-2.451-.196-3.187.735-.638.834-1.226 1.766-1.57 2.747-.44 1.226 0 2.304 1.03 3.138.932.785 2.305.932 3.286.245 1.422-.98 2.06-2.452 2.403-3.825 0-1.52-.785-2.648-1.962-3.089v.049z" fill="url(#h)"/><path d="M33.935 90.401c-1.275-.392-2.55 0-3.335 1.226-.392.589-.784 1.226-1.078 1.864-.883 2.06.54 4.266 2.697 4.413.54-.196 1.128-.245 1.57-.588 1.274-.981 2.059-2.305 2.206-3.875.147-1.373-.785-2.599-2.06-2.991v-.049z" fill="url(#i)"/><path d="M43.302 95.942c-.981-.784-2.403-.931-3.384-.196-1.324.98-1.962 2.403-2.256 3.629 0 1.667.834 2.844 2.06 3.286 1.226.392 2.55 0 3.285-1.128a14.05 14.05 0 0 0 1.177-2.06c.54-1.275.148-2.697-.882-3.58v.05z" fill="url(#j)"/><defs><linearGradient id="a" x1="35.014" y1="0" x2="35.014" y2="18.938" gradientUnits="userSpaceOnUse"><stop stop-color="#8EF8AA"/><stop offset="1" stop-color="#00EFD1"/></linearGradient><linearGradient id="b" x1="46.818" y1="49.249" x2="46.818" y2="108" gradientUnits="userSpaceOnUse"><stop stop-color="#8EF8AA"/><stop offset="1" stop-color="#00EFD1"/></linearGradient><linearGradient id="c" x1="66.542" y1="49.171" x2="66.542" y2="83.192" gradientUnits="userSpaceOnUse"><stop stop-color="#8EF8AA"/><stop offset="1" stop-color="#00EFD1"/></linearGradient><linearGradient id="d" x1="74.867" y1="18.925" x2="74.867" y2="37.976" gradientUnits="userSpaceOnUse"><stop stop-color="#8EF8AA"/><stop offset="1" stop-color="#00EFD1"/></linearGradient><linearGradient id="e" x1="7.557" y1="53.033" x2="7.557" y2="83.29" gradientUnits="userSpaceOnUse"><stop stop-color="#8EF8AA"/><stop offset="1" stop-color="#00EFD1"/></linearGradient><linearGradient id="f" x1="102.185" y1="53.033" x2="102.185" y2="83.29" gradientUnits="userSpaceOnUse"><stop stop-color="#8EF8AA"/><stop offset="1" stop-color="#00EFD1"/></linearGradient><linearGradient id="g" x1="24.23" y1="85.246" x2="24.23" y2="92.844" gradientUnits="userSpaceOnUse"><stop stop-color="#8EF8AA"/><stop offset="1" stop-color="#00EFD1"/></linearGradient><linearGradient id="h" x1="49.519" y1="100.29" x2="49.519" y2="107.807" gradientUnits="userSpaceOnUse"><stop stop-color="#8EF8AA"/><stop offset="1" stop-color="#00EFD1"/></linearGradient><linearGradient id="i" x1="32.633" y1="90.255" x2="32.633" y2="97.904" gradientUnits="userSpaceOnUse"><stop stop-color="#8EF8AA"/><stop offset="1" stop-color="#00EFD1"/></linearGradient><linearGradient id="j" x1="41.044" y1="95.267" x2="41.044" y2="102.809" gradientUnits="userSpaceOnUse"><stop stop-color="#8EF8AA"/><stop offset="1" stop-color="#00EFD1"/></linearGradient></defs></svg>