<svg width="49" height="41" fill="none" xmlns="http://www.w3.org/2000/svg"><path d="M38.807 3.763a224.19 224.19 0 0 0-1.822-1.808c-.31-.296-.486-.62-.297-1.038.162-.391.513-.486.918-.499l9.286-.405c.864-.04 1.148.23 1.107 1.08-.135 3.128-.283 6.257-.418 9.372-.014.405-.149.728-.554.877-.378.135-.688-.014-.958-.283-.837-.85-1.687-1.686-2.551-2.55-2.106 1.579-4.171 3.13-6.25 4.68-6.155 4.613-12.31 9.225-18.465 13.85-.094.068-.189.15-.283.216-.567.405-.945.365-1.39-.188-2.133-2.63-4.253-5.26-6.385-7.89-.756-.93-1.499-1.86-2.254-2.791a8.92 8.92 0 0 0-.365-.432 4334.455 4334.455 0 0 1-5.143 4.531c-.202.176-.378.405-.62.513-.257.121-.608.243-.824.135-.23-.108-.391-.445-.513-.729-.08-.175-.013-.39-.013-.593 0-1.82.013-3.641 0-5.448 0-.54.175-.917.58-1.268 1.957-1.7 3.888-3.425 5.831-5.138.73-.648 1.067-.62 1.66.121 2.862 3.507 5.724 7.013 8.585 10.533.122.162.257.31.419.512a16193.75 16193.75 0 0 0 20.72-15.347v-.013z" fill="#fff"/><path d="M39.793 27.431V16.129c0-.93.23-1.16 1.16-1.16h5.049c.796 0 1.066.27 1.066 1.066v22.913c0 .796-.27 1.066-1.066 1.066h-5.156c-.797 0-1.067-.27-1.067-1.066V27.444l.014-.013zM9.072 31.976v6.972c0 .796-.27 1.052-1.066 1.065H2.85c-.797 0-1.053-.27-1.053-1.065v-14.04c0-.795.27-1.051 1.066-1.051H8.02c.797 0 1.053.27 1.067 1.065v7.067l-.014-.013zM34.947 31.922v7.012c0 .796-.27 1.053-1.066 1.066h-5.156c-.797 0-1.053-.27-1.053-1.066V24.895c0-.795.27-1.052 1.066-1.052h5.156c.797 0 1.053.27 1.067 1.066v7.013h-.014zM22.002 35.212v3.79c0 .728-.284 1.011-1.012 1.011h-5.251c-.729 0-1.012-.283-1.012-1.011v-7.674c0-.728.283-1.011 1.012-1.011h5.25c.73 0 1.013.283 1.013 1.011v3.884z" fill="#fff"/></svg>