<svg width="99" height="80" fill="none" xmlns="http://www.w3.org/2000/svg"><path d="M94.324 22.93h.961c3.43.027 3.568.302 3.554 3.773-.027 14.71-.041 29.407.069 44.117.04 5.667-3.307 9.194-8.947 9.18-19.856-.041-57.55-.027-77.393-.027-1.331 0-2.662.027-3.98-.055-3.828-.234-6.806-2.964-7.327-6.752a29.462 29.462 0 0 1-.26-3.965C.986 55.136 1 41.057 1 26.99c0-3.91.15-4.075 4.13-4.089h89.193v.028zM20.143 70.285c.11.26.247 1.235.727 1.482.494.247 1.44-.055 2.03-.398 3.527-2.113 6.272-5.022 8.33-8.576 4.007-6.916 8.014-13.846 12.02-20.776 1.29-2.25 2.663-4.46 3.802-6.779.933-1.92.068-4.267-1.702-5.433-1.715-1.126-4.089-.947-5.544.576-.837.864-1.523 1.907-2.127 2.95-4.775 8.37-9.468 16.796-14.298 25.14-2.058 3.54-2.882 7.368-3.225 11.828l-.013-.014zm20.089-1.647c.357.563.59.974.864 1.345.933 1.276 2.114 2.017 3.76 1.935 2.127-.11 3.211-1.4 3.842-3.239.494-1.413.947-2.84 1.578-4.734.66.851 1.057 1.29 1.373 1.784.754 1.208 1.358 2.525 2.209 3.664 2.058 2.73 6.683 3.032 9.084.672.864-.85 1.056-1.825.37-2.868-.672-1.043-1.564-.892-2.51-.398-.371.192-.77.343-1.167.508-1.208.522-2.182.26-2.868-.864a55.251 55.251 0 0 1-1.674-3.06c-1.07-2.114-2.717-3.198-5.132-2.937-2.278.247-3.39 1.77-4.035 3.76-.37 1.125-.727 2.264-1.152 3.609-.37-.453-.59-.672-.741-.933-1.73-2.8-4.625-3.211-6.902-.906-.824.823-1.524 1.77-2.265 2.676-.768.933-.713 1.866.138 2.69.947.905 1.934.754 2.813-.097.782-.768 1.495-1.619 2.387-2.607h.028z" fill="url(#a)"/><path d="M5.364 19.019c-4.144 0-4.336-.137-4.35-4.24 0-2.539-.027-5.105.22-7.63C1.618 3.376 4.431.66 8.164.18 9.056.068 9.96 0 10.867 0c19.952 0 39.918 0 59.87.041 1.77 0 21.489.179 23.135.755 3.225 1.153 4.954 3.993 4.954 7.424 0 2.593.055 5.2.082 7.794.028 2.456-.48 3.019-2.95 3.019-12.309 0-78.669-.028-90.607-.028l.013.014zM78.737 7.575v-.028H68.075c-1.235 0-2.059.357-2.086 1.77-.014 1.373.59 2.086 1.99 2.086 7.108 0 14.216.014 21.31-.041 1.564 0 2.305-.837 2.182-2.127-.137-1.345-1.03-1.688-2.25-1.674-3.5.027-6.999 0-10.498 0l.014.014zm-57.99-.028c-1.235 0-2.058.357-2.086 1.77-.014 1.373.59 2.086 1.99 2.086 7.108 0-4.995.014 2.1-.041 1.564 0 2.305-.837 2.181-2.127-.137-1.345-1.029-1.688-2.25-1.674-3.5.027 1.605 0-1.949-.028l.014.014zm-10.154 0c-1.235 0-2.059.357-2.086 1.77-.014 1.373.59 2.086 1.99 2.086 7.108 0-4.995.014 2.1-.041 1.563 0 2.304-.837 2.18-2.127-.136-1.345-1.028-1.688-2.25-1.674-3.499.027 1.606 0-1.948-.028l.014.014z" fill="url(#b)"/><defs><linearGradient id="a" x1="49.951" y1="22.902" x2="49.951" y2="80" gradientUnits="userSpaceOnUse"><stop stop-color="#8EF8AA"/><stop offset="1" stop-color="#00EFD1"/></linearGradient><linearGradient id="b" x1="49.962" y1="0" x2="49.962" y2="19.033" gradientUnits="userSpaceOnUse"><stop stop-color="#8EF8AA"/><stop offset="1" stop-color="#00EFD1"/></linearGradient></defs></svg>