<svg width="10" height="10" viewBox="0 0 20 11" fill="none" xmlns="http://www.w3.org/2000/svg">
<path d="M0.440231 0.420639C0.722196 0.151304 1.10457 0 1.50327 0C1.90197 0 2.28434 0.151304 2.56631 0.420639L10.0091 7.53218L17.4518 0.420639C17.7354 0.158937 18.1152 0.0141279 18.5095 0.0174012C18.9037 0.0206745 19.2808 0.171768 19.5596 0.438139C19.8384 0.70451 19.9965 1.06485 19.9999 1.44154C20.0034 1.81823 19.8518 2.18114 19.5779 2.4521L11.0721 10.5794C10.7902 10.8487 10.4078 11 10.0091 11C9.61038 11 9.228 10.8487 8.94604 10.5794L0.440231 2.4521C0.158351 2.18268 0 1.81732 0 1.43637C0 1.05541 0.158351 0.690055 0.440231 0.420639Z" fill="white"/>
</svg>
