<svg width="21" height="17" viewBox="0 0 21 17" fill="none" xmlns="http://www.w3.org/2000/svg">
<path d="M18.3668 4.19696L10.2541 9.26739L2.14145 4.19696V2.16879L10.2541 7.23922L18.3668 2.16879M18.3668 0.140625H2.14145C1.01582 0.140625 0.113281 1.04316 0.113281 2.16879V14.3378C0.113281 14.8757 0.326963 15.3916 0.707318 15.7719C1.08767 16.1523 1.60355 16.366 2.14145 16.366H18.3668C18.9047 16.366 19.4206 16.1523 19.8009 15.7719C20.1813 15.3916 20.395 14.8757 20.395 14.3378V2.16879C20.395 1.63089 20.1813 1.11502 19.8009 0.734662C19.4206 0.354306 18.9047 0.140625 18.3668 0.140625Z" fill="url(#paint0_linear_10371_3707)"/>
<defs>
<linearGradient id="paint0_linear_10371_3707" x1="10.2541" y1="-0.222645" x2="10.2541" y2="16.4226" gradientUnits="userSpaceOnUse">
<stop stop-color="#00EFD1"/>
<stop offset="1" stop-color="#00ACEA"/>
</linearGradient>
</defs>
</svg>
