<svg width="16" height="20" viewBox="0 0 16 20" fill="none" xmlns="http://www.w3.org/2000/svg">
<path d="M7.83903 0C5.49828 0 3.59375 1.90435 3.59375 4.24528C3.59375 6.58602 5.49828 8.49037 7.83903 8.49037C10.1798 8.49037 12.0843 6.58602 12.0843 4.24528C12.0843 1.90435 10.1798 0 7.83903 0Z" fill="url(#paint0_linear_4857_2133)"/>
<path d="M0 16.9768C2.1192 18.7659 4.85511 19.8459 7.83912 19.8459C10.8231 19.8459 13.559 18.7657 15.6782 16.9768C15.4831 15.2038 14.6862 13.5416 13.4162 12.2716C11.9262 10.7815 9.94551 9.96094 7.83912 9.96094C3.82727 9.96094 0.435465 13.0215 0 16.9768Z" fill="url(#paint1_linear_4857_2133)"/>
<defs>
<linearGradient id="paint0_linear_4857_2133" x1="7.83901" y1="-0.190091" x2="7.83901" y2="8.51998" gradientUnits="userSpaceOnUse">
<stop stop-color="#00EFD1"/>
<stop offset="1" stop-color="#00ACEA"/>
</linearGradient>
<linearGradient id="paint1_linear_4857_2133" x1="7.83908" y1="9.73962" x2="7.83908" y2="19.8804" gradientUnits="userSpaceOnUse">
<stop stop-color="#00EFD1"/>
<stop offset="1" stop-color="#00ACEA"/>
</linearGradient>
</defs>
</svg>
