<svg width="15" height="21" viewBox="0 0 15 21" fill="none" xmlns="http://www.w3.org/2000/svg">
<path d="M7.25484 9.75099C6.58246 9.75099 5.93762 9.48389 5.46218 9.00844C4.98673 8.533 4.71963 7.88816 4.71963 7.21578C4.71963 6.5434 4.98673 5.89856 5.46218 5.42311C5.93762 4.94767 6.58246 4.68057 7.25484 4.68057C7.92722 4.68057 8.57206 4.94767 9.04751 5.42311C9.52295 5.89856 9.79005 6.5434 9.79005 7.21578C9.79005 7.54871 9.72448 7.87838 9.59707 8.18596C9.46966 8.49355 9.28292 8.77303 9.04751 9.00844C8.81209 9.24386 8.53261 9.4306 8.22503 9.55801C7.91744 9.68542 7.58777 9.75099 7.25484 9.75099ZM7.25484 0.117188C5.37218 0.117188 3.56662 0.865073 2.23538 2.19632C0.904135 3.52756 0.15625 5.33312 0.15625 7.21578C0.15625 12.5397 7.25484 20.3989 7.25484 20.3989C7.25484 20.3989 14.3534 12.5397 14.3534 7.21578C14.3534 5.33312 13.6055 3.52756 12.2743 2.19632C10.9431 0.865073 9.1375 0.117188 7.25484 0.117188Z" fill="url(#paint0_linear_10371_3714)"/>
<defs>
<linearGradient id="paint0_linear_10371_3714" x1="7.25481" y1="-0.3369" x2="7.25481" y2="20.4696" gradientUnits="userSpaceOnUse">
<stop stop-color="#00EFD1"/>
<stop offset="1" stop-color="#00ACEA"/>
</linearGradient>
</defs>
</svg>
