<svg width="19" height="19" viewBox="0 0 19 19" fill="none" xmlns="http://www.w3.org/2000/svg">
<path d="M17.3141 18.3785C17.4831 18.3785 17.6606 18.3745 17.8465 18.3664C18.0324 18.3576 18.2099 18.3447 18.3789 18.3278V12.3954L13.3085 11.3813L10.3676 14.3222C9.08313 13.5447 7.90409 12.6236 6.83051 11.5588C5.75761 10.494 4.86623 9.35317 4.15637 8.13627L7.04651 5.22077L6.10848 0.125H0.17609C0.142286 0.294014 0.125385 0.471479 0.125385 0.657394V1.18979C0.125385 3.37007 0.611469 5.49525 1.58364 7.56534C2.55513 9.6361 3.83964 11.4743 5.43716 13.0799C7.03401 14.6856 8.86747 15.9701 10.9376 16.9335C13.0083 17.8968 15.1338 18.3785 17.3141 18.3785Z" fill="url(#paint0_linear_10371_3700)"/>
<defs>
<linearGradient id="paint0_linear_10371_3700" x1="9.25219" y1="-0.283679" x2="9.25219" y2="18.4422" gradientUnits="userSpaceOnUse">
<stop stop-color="#00EFD1"/>
<stop offset="1" stop-color="#00ACEA"/>
</linearGradient>
</defs>
</svg>
