<svg width="50" height="50" viewBox="0 0 50 50" fill="none" xmlns="http://www.w3.org/2000/svg">
<g clip-path="url(#clip0_795_7939)">
<path d="M25.2555 4.12892e-05L25.2516 4.12892e-05C19.988 4.12892e-05 15.0312 2.12439 11.2988 5.97557C3.66439 13.7838 3.56545 26.4503 11.0716 34.2309L23.9429 49.6034C24.152 49.8542 24.4609 49.9992 24.787 50H24.7874C25.1131 49.9996 25.4219 49.8551 25.631 49.6055L38.6959 34.0421C46.3101 26.2227 46.3892 13.5553 38.8654 5.78671C35.3093 2.08008 30.3921 -0.0107138 25.2555 4.12892e-05ZM37.0912 32.5316C37.0719 32.5518 37.0529 32.5725 37.0353 32.5936L24.7883 47.1818L12.7357 32.7876C12.7189 32.7669 12.7008 32.7476 12.6823 32.7282C9.44805 29.3894 7.68422 24.923 7.71648 20.1521C7.74875 15.3725 9.58013 10.8838 12.8772 7.51183C16.1949 4.0887 20.589 2.20268 25.2516 2.20268H25.255C29.795 2.19365 34.1405 4.04223 37.2831 7.31867C40.5169 10.6579 42.2808 15.1247 42.2485 19.8957C42.2162 24.6752 40.3849 29.1631 37.0912 32.5316Z" fill="url(#paint0_linear_795_7939)"/>
<path d="M24.9816 9.05078C19.5791 9.05078 15.1992 13.4307 15.1992 18.8332C15.1992 24.2361 19.5791 28.6156 24.9816 28.6156C30.3846 28.6156 34.764 24.2361 34.764 18.8332C34.758 13.4333 30.382 9.05723 24.9816 9.05078ZM24.9816 26.4129C20.7957 26.4129 17.4019 23.0195 17.4019 18.8332C17.4019 14.6469 20.7957 11.2534 24.9816 11.2534C29.1679 11.2534 32.5614 14.6473 32.5614 18.8332C32.5567 23.0173 29.1662 26.4082 24.9816 26.4129Z" fill="url(#paint1_linear_795_7939)"/>
</g>
<defs>
<linearGradient id="paint0_linear_795_7939" x1="24.9822" y1="-1.11945" x2="24.9822" y2="50.1744" gradientUnits="userSpaceOnUse">
<stop stop-color="#00EFD1"/>
<stop offset="1" stop-color="#00ACEA"/>
</linearGradient>
<linearGradient id="paint1_linear_795_7939" x1="24.9816" y1="8.61274" x2="24.9816" y2="28.6838" gradientUnits="userSpaceOnUse">
<stop stop-color="#00EFD1"/>
<stop offset="1" stop-color="#00ACEA"/>
</linearGradient>
<clipPath id="clip0_795_7939">
<rect width="50" height="50" fill="white"/>
</clipPath>
</defs>
</svg>
