<svg width="11" height="12" viewBox="0 0 16 12" fill="none" xmlns="http://www.w3.org/2000/svg">
<path d="M13.6122 0.0344467H2.38776C1.94463 0.0338049 1.51038 0.158669 1.13526 0.394588C0.760154 0.630507 0.459523 0.967832 0.268171 1.36752C0.0441716 1.84175 -0.0421037 2.36937 0.0191762 2.89025C0.0804561 3.41113 0.286827 3.90432 0.614771 4.31361L6.22701 11.1123C6.44726 11.3664 6.71956 11.5702 7.02546 11.7099C7.33136 11.8496 7.66372 11.9219 8 11.9219C8.33628 11.9219 8.66864 11.8496 8.97454 11.7099C9.28044 11.5702 9.55274 11.3664 9.77299 11.1123L15.3852 4.31361C15.7132 3.90432 15.9195 3.41113 15.9808 2.89025C16.0421 2.36937 15.9558 1.84175 15.7318 1.36752C15.5405 0.967832 15.2398 0.630507 14.8647 0.394588C14.4896 0.158669 14.0554 0.0338049 13.6122 0.0344467Z" fill="#F5F5F5"/>
</svg>
