<svg width="25" height="34" viewBox="0 0 25 34" fill="none" xmlns="http://www.w3.org/2000/svg">
<path d="M25 8.15737C25 8.51795 24.8537 8.86376 24.5932 9.11872C24.3327 9.37369 23.9795 9.51693 23.6111 9.51693H18.0295C18.0451 9.74126 18.0556 9.96729 18.0556 10.1967C18.0523 12.9001 16.9538 15.4918 15.001 17.4034C13.0482 19.315 10.4006 20.3903 7.63889 20.3934H4.9809L17.6007 31.6234C17.7382 31.7428 17.8501 31.8877 17.9299 32.0498C18.0098 32.2118 18.056 32.3877 18.0659 32.5674C18.0757 32.7471 18.0491 32.9268 17.9875 33.0963C17.9258 33.2658 17.8305 33.4217 17.7068 33.5548C17.5832 33.688 17.4339 33.7958 17.2674 33.872C17.1009 33.9482 16.9206 33.9913 16.737 33.9988C16.5533 34.0063 16.37 33.9781 16.1976 33.9157C16.0252 33.8534 15.8672 33.7581 15.7326 33.6356L0.454862 20.0399C0.247421 19.8554 0.101889 19.6137 0.0373999 19.3466C-0.0270892 19.0796 -0.00751782 18.7997 0.0935409 18.5437C0.1946 18.2878 0.372416 18.0677 0.603612 17.9126C0.834809 17.7574 1.10856 17.6743 1.38889 17.6743H7.63889C9.66414 17.6721 11.6058 16.8835 13.0379 15.4817C14.4699 14.0798 15.2755 12.1792 15.2778 10.1967C15.2778 9.96729 15.2656 9.74126 15.2448 9.51693H1.38889C1.02053 9.51693 0.667264 9.37369 0.406796 9.11872C0.146329 8.86376 0 8.51795 0 8.15737C0 7.79679 0.146329 7.45098 0.406796 7.19601C0.667264 6.94105 1.02053 6.79781 1.38889 6.79781H14.4392C13.7995 5.57073 12.826 4.5405 11.626 3.82077C10.426 3.10104 9.04622 2.71981 7.63889 2.71912H1.38889C1.02053 2.71912 0.667264 2.57588 0.406796 2.32092C0.146329 2.06595 0 1.72014 0 1.35956C0 0.998983 0.146329 0.653174 0.406796 0.398207C0.667264 0.143239 1.02053 0 1.38889 0H23.6111C23.9795 0 24.3327 0.143239 24.5932 0.398207C24.8537 0.653174 25 0.998983 25 1.35956C25 1.72014 24.8537 2.06595 24.5932 2.32092C24.3327 2.57588 23.9795 2.71912 23.6111 2.71912H14.7118C15.9507 3.84133 16.8931 5.24088 17.4583 6.79781H23.6111C23.9795 6.79781 24.3327 6.94105 24.5932 7.19601C24.8537 7.45098 25 7.79679 25 8.15737Z" fill="url(#paint0_linear_146_32)"/>
<defs>
<linearGradient id="paint0_linear_146_32" x1="12.4999" y1="-0.761227" x2="12.4999" y2="34.1186" gradientUnits="userSpaceOnUse">
<stop stop-color="#00EFD1"/>
<stop offset="1" stop-color="#00ACEA"/>
</linearGradient>
</defs>
</svg>
