<svg width="34" height="34" viewBox="0 0 34 34" fill="none" xmlns="http://www.w3.org/2000/svg">
<path fill-rule="evenodd" clip-rule="evenodd" d="M6.86327 2.3721C6.05972 2.3721 5.23906 2.69776 4.406 3.51781L4.39702 3.52665L4.38786 3.5353C3.6687 4.21373 3.1708 4.95539 2.85904 5.74774L2.85659 5.754C2.5368 6.55346 2.3721 7.4308 2.3721 8.3656C2.3721 9.82471 2.7084 11.3912 3.41701 13.0748C4.13547 14.7657 5.13137 16.4907 6.38503 18.234C7.65951 19.9841 9.08912 21.6603 10.675 23.2619C12.2772 24.8484 13.9544 26.2789 15.7226 27.5704C17.4602 28.8355 19.2009 29.8325 20.9282 30.5684C22.6278 31.2926 24.1932 31.628 25.6187 31.628C26.5751 31.628 27.4474 31.4512 28.2462 31.1183L28.2526 31.1156C28.8169 30.8844 29.3408 30.5583 29.8375 30.1226C30.0249 29.9582 30.2095 29.7773 30.3913 29.5786L30.8895 28.9489C31.0456 28.7176 31.1806 28.4777 31.2987 28.2275C31.494 27.8141 31.5805 27.4017 31.5805 27.0103C31.5805 26.7555 31.5298 26.5163 31.4207 26.2383C31.3465 26.0773 31.2189 25.9131 30.9687 25.7398L30.9572 25.7319L25.7328 22.0227C25.3859 21.7874 25.0993 21.6301 24.8533 21.5295C24.6284 21.4374 24.4644 21.4121 24.3377 21.4121C24.1856 21.4121 24.0328 21.4488 23.8317 21.5712L23.7982 21.5916L23.7635 21.6097C23.5453 21.7237 23.2624 21.9351 22.9149 22.2824L22.9094 22.2879L21.7098 23.4718C21.326 23.854 20.8247 24.0847 20.2261 24.0847C19.9919 24.0847 19.7142 24.0583 19.4144 23.9459L19.3887 23.9364L19.3636 23.9256C19.2918 23.8948 19.2255 23.8643 19.1824 23.8443C19.1311 23.8209 19.1137 23.8133 19.1057 23.8102L19.047 23.7866L18.9912 23.757C18.3499 23.4177 17.5973 22.8849 16.7399 22.1594L16.7385 22.1581C15.8695 21.4204 15.0244 20.6233 14.1608 19.7759L14.1529 19.768L14.145 19.7601C13.3015 18.9002 12.5255 18.0431 11.8018 17.2069L11.7932 17.1969C11.0764 16.3498 10.5274 15.5991 10.1867 14.9744L10.1361 14.8818L10.1029 14.7821C10.1029 14.7821 10.0988 14.7709 10.0783 14.7224C10.0766 14.7182 10.0747 14.714 10.0727 14.7092C10.053 14.6627 10.0219 14.5894 9.99088 14.5066L9.96716 14.4434L9.95078 14.3779C9.89968 14.1736 9.86793 13.9653 9.86793 13.7265C9.86793 13.1901 10.0507 12.6781 10.4587 12.265L11.6621 11.0141L11.6702 11.006C11.996 10.6802 12.2226 10.3848 12.3619 10.1383L12.3714 10.1216L12.3813 10.1052C12.5012 9.9083 12.5405 9.73988 12.5405 9.59909C12.5405 9.49749 12.5111 9.32586 12.415 9.10165L12.4072 9.08357C12.307 8.83857 12.1518 8.55614 11.9101 8.22048L11.9052 8.21377L8.22853 3.03145C8.07426 2.80863 7.88215 2.65604 7.64719 2.54759L7.6309 2.54007C7.40585 2.43205 7.13999 2.3721 6.86327 2.3721ZM2.75097 1.81843C3.9401 0.651505 5.33025 0 6.86327 0C7.46923 0 8.08587 0.128694 8.64932 0.397564C9.2315 0.667809 9.76212 1.08157 10.1747 1.67505L13.8377 6.83797C14.1619 7.28876 14.4156 7.72982 14.5992 8.17639C14.7856 8.61404 14.9126 9.10323 14.9126 9.59909C14.9126 10.2109 14.7344 10.7956 14.4176 11.3219C14.1485 11.7938 13.7807 12.249 13.3559 12.6749L12.2667 13.8071C12.2777 13.8332 12.2925 13.8684 12.3086 13.9092C12.5452 14.3242 12.9643 14.9082 13.5999 15.6596C14.2958 16.4638 15.034 17.2785 15.8304 18.0907C16.6716 18.9161 17.4683 19.666 18.2728 20.3491C19.0334 20.9926 19.6261 21.4028 20.0569 21.637C20.0917 21.652 20.1238 21.6666 20.1499 21.6785L21.2406 20.6021C21.6731 20.1701 22.1367 19.7893 22.6317 19.5249C23.1488 19.217 23.7126 19.04 24.3377 19.04C24.812 19.04 25.2806 19.1413 25.7515 19.3339C26.1989 19.517 26.6369 19.7689 27.0762 20.0676L27.0862 20.0744L32.3252 23.7939C32.886 24.1835 33.3255 24.6769 33.5992 25.2991L33.6073 25.3176L33.6148 25.3364C33.8163 25.8401 33.9526 26.3858 33.9526 27.0103C33.9526 27.7575 33.7861 28.5153 33.4437 29.2405C33.2693 29.6098 33.065 29.9708 32.8245 30.3217C32.6309 30.604 32.4152 30.8781 32.1747 31.1434C31.9275 31.4159 31.6699 31.6707 31.4018 31.9058C30.7196 32.5044 29.9743 32.9733 29.1555 33.3092C28.0575 33.7662 26.8751 34.0001 25.6187 34.0001C23.8181 34.0001 21.9361 33.5764 19.9984 32.7508C18.0888 31.9371 16.1927 30.8469 14.3253 29.4872L14.3237 29.4861C12.4562 28.1222 10.6875 26.6127 9.0017 24.9432L8.99356 24.9352C7.3242 23.2496 5.81444 21.4805 4.46536 19.6274L4.46135 19.622C3.12285 17.7612 2.03226 15.882 1.23302 14.0004L1.23155 13.997C0.422534 12.0756 0 10.1953 0 8.3656C0 7.15083 0.214438 5.97345 0.652896 4.87612C1.09887 3.74401 1.79936 2.71849 2.75097 1.81843Z" fill="url(#paint0_linear_42_1006)"/>
<defs>
<linearGradient id="paint0_linear_42_1006" x1="16.9762" y1="-0.761229" x2="16.9762" y2="34.1187" gradientUnits="userSpaceOnUse">
<stop stop-color="#00EFD1"/>
<stop offset="1" stop-color="#00ACEA"/>
</linearGradient>
</defs>
</svg>
