<svg width="36" height="36" viewBox="0 0 36 36" fill="none" xmlns="http://www.w3.org/2000/svg">
<path d="M30.75 20.125V33.1406C30.75 33.6338 30.5581 34.1067 30.2165 34.4554C29.8749 34.8041 29.4116 35 28.9286 35H7.07143C6.58836 35 6.12507 34.8041 5.78348 34.4554C5.4419 34.1067 5.25 33.6338 5.25 33.1406V20.125" stroke="url(#paint0_linear_146_78)" stroke-width="2" stroke-linecap="round" stroke-linejoin="round"/>
<path d="M18 1.00131H29.803C30.2269 0.985436 30.6437 1.11452 30.9863 1.36777C31.3289 1.62102 31.5773 1.98369 31.6915 2.39734L34.6753 13.011C34.9136 13.9279 35.0217 14.8744 34.9964 15.8222C34.9964 16.9634 34.5487 18.0578 33.7519 18.8647C32.955 19.6717 31.8742 20.125 30.7473 20.125C29.6204 20.125 28.5396 19.6717 27.7427 18.8647C26.9459 18.0578 26.4982 16.9634 26.4982 15.8222C26.4982 16.9634 26.0505 18.0578 25.2537 18.8647C24.4568 19.6717 23.376 20.125 22.2491 20.125C21.1222 20.125 20.0414 19.6717 19.2445 18.8647C18.4477 18.0578 18 16.9634 18 15.8222" stroke="url(#paint1_linear_146_78)" stroke-width="2" stroke-linecap="round" stroke-linejoin="round"/>
<path d="M18 1.00131H6.19445C5.77049 0.985436 5.3536 1.11452 5.01095 1.36777C4.66829 1.62102 4.41981 1.98369 4.30556 2.39734L1.39667 13.011C1.13281 13.9241 0.999232 14.8708 1 15.8222C1 16.9634 1.44777 18.0578 2.2448 18.8647C3.04183 19.6717 4.12283 20.125 5.25 20.125C6.37717 20.125 7.45818 19.6717 8.25521 18.8647C9.05223 18.0578 9.5 16.9634 9.5 15.8222C9.5 16.9634 9.94777 18.0578 10.7448 18.8647C11.5418 19.6717 12.6228 20.125 13.75 20.125C14.8772 20.125 15.9582 19.6717 16.7552 18.8647C17.5522 18.0578 18 16.9634 18 15.8222" stroke="url(#paint2_linear_146_78)" stroke-width="2" stroke-linecap="round" stroke-linejoin="round"/>
<defs>
<linearGradient id="paint0_linear_146_78" x1="17.9999" y1="19.792" x2="17.9999" y2="35.0519" gradientUnits="userSpaceOnUse">
<stop stop-color="#00EFD1"/>
<stop offset="1" stop-color="#00ACEA"/>
</linearGradient>
<linearGradient id="paint1_linear_146_78" x1="26.5" y1="0.57181" x2="26.5" y2="20.1917" gradientUnits="userSpaceOnUse">
<stop stop-color="#00EFD1"/>
<stop offset="1" stop-color="#00ACEA"/>
</linearGradient>
<linearGradient id="paint2_linear_146_78" x1="9.49996" y1="0.57181" x2="9.49996" y2="20.1917" gradientUnits="userSpaceOnUse">
<stop stop-color="#00EFD1"/>
<stop offset="1" stop-color="#00ACEA"/>
</linearGradient>
</defs>
</svg>
