<svg width="30" height="36" viewBox="0 0 30 36" fill="none" xmlns="http://www.w3.org/2000/svg">
<path d="M7.8 14.6H21.4M7.8 28.2H21.4M7.8 21.4H14.6M1 33.98V2.02C1 1.74948 1.10746 1.49004 1.29875 1.29875C1.49004 1.10746 1.74948 1 2.02 1H21.8284C22.0988 1.00024 22.3581 1.10786 22.5492 1.2992L27.9008 6.6508C27.9959 6.74583 28.0714 6.85874 28.1227 6.98302C28.1741 7.10731 28.2003 7.24052 28.2 7.375V33.98C28.2 34.1139 28.1736 34.2466 28.1224 34.3703C28.0711 34.4941 27.996 34.6065 27.9013 34.7013C27.8065 34.796 27.6941 34.8711 27.5703 34.9224C27.4466 34.9736 27.3139 35 27.18 35H2.02C1.88605 35 1.75342 34.9736 1.62966 34.9224C1.50591 34.8711 1.39347 34.796 1.29875 34.7013C1.20404 34.6065 1.1289 34.4941 1.07764 34.3703C1.02638 34.2466 1 34.1139 1 33.98Z" stroke="url(#paint0_linear_146_39)" stroke-width="2" stroke-linecap="round" stroke-linejoin="round"/>
<defs>
<linearGradient id="paint0_linear_146_39" x1="14.5999" y1="0.238773" x2="14.5999" y2="35.1186" gradientUnits="userSpaceOnUse">
<stop stop-color="#00EFD1"/>
<stop offset="1" stop-color="#00ACEA"/>
</linearGradient>
</defs>
</svg>
