<svg width="32" height="34" viewBox="0 0 32 34" fill="none" xmlns="http://www.w3.org/2000/svg">
<path fill-rule="evenodd" clip-rule="evenodd" d="M5.50171 2.4756C7.81957 1.34122 11.6222 0 15.7838 0C19.8585 0 23.561 1.2855 25.8666 2.40476L25.9969 2.46804C26.6921 2.81185 27.2531 3.13676 27.6479 3.40028L24.1589 8.50071C32.2024 16.7237 38.4155 34 15.7838 34C-6.84793 34 -0.802037 17.0373 7.31142 8.50071L3.84502 3.40028C4.11232 3.22555 4.4514 3.02247 4.85566 2.80712C5.0559 2.69945 5.27125 2.58799 5.50171 2.4756ZM21.9166 8.4327L24.7095 4.34953C22.1121 4.53654 19.0216 5.14671 16.0464 6.00811C13.9212 6.62205 11.5599 6.52854 9.37331 6.12523C8.82231 6.02308 8.27508 5.90148 7.73267 5.76065L9.54616 8.43081C13.4329 9.81454 18.0289 9.81454 21.9166 8.4327ZM8.45523 10.0403C13.0031 11.7971 18.4691 11.7971 23.0169 10.0384C24.9153 12.0395 26.5033 14.3137 27.7282 16.7851C29.0052 19.3901 29.7004 21.9942 29.5871 24.2384C29.4775 26.4041 28.6255 28.2545 26.6798 29.6297C24.6519 31.0625 21.2412 32.111 15.7828 32.111C10.3188 32.111 6.89205 31.0805 4.84527 29.6637C2.88538 28.3055 2.02492 26.4806 1.90308 24.3441C1.77557 22.1245 2.45562 19.5337 3.7279 16.9107C4.94161 14.4096 6.63514 12.0021 8.45523 10.0403ZM7.36903 3.69875C8.12465 3.92355 8.91427 4.11906 9.71523 4.26736C11.746 4.64139 13.7823 4.69617 15.5203 4.19274C17.5455 3.60274 19.6054 3.13872 21.688 2.80334C19.9501 2.28008 17.9175 1.88905 15.7828 1.88905C12.529 1.88905 9.49421 2.79673 7.36903 3.69875Z" fill="url(#paint0_linear_1_7)"/>
<path d="M20 18.9986C20 19.1821 19.9252 19.3581 19.792 19.4879C19.6588 19.6177 19.4782 19.6906 19.2898 19.6906H17.6327C17.6316 20.6691 17.2321 21.6072 16.522 22.2991C15.8119 22.9909 14.8491 23.3801 13.8449 23.3812H13.549L17.3959 26.7904C17.4662 26.8511 17.5234 26.9249 17.5643 27.0074C17.6051 27.0898 17.6287 27.1794 17.6338 27.2708C17.6388 27.3623 17.6252 27.4538 17.5937 27.5401C17.5622 27.6263 17.5134 27.7056 17.4502 27.7734C17.387 27.8412 17.3106 27.896 17.2255 27.9348C17.1403 27.9736 17.0482 27.9956 16.9543 27.9994C16.8604 28.0032 16.7666 27.9888 16.6785 27.9571C16.5903 27.9254 16.5095 27.8769 16.4407 27.8145L11.2325 23.2013C11.1262 23.1071 11.0517 22.9837 11.0188 22.8474C10.986 22.7111 10.9963 22.5683 11.0485 22.4378C11.1007 22.3074 11.1923 22.1954 11.3112 22.1168C11.43 22.0381 11.5706 21.9964 11.7143 21.9972H13.8449C14.4728 21.9972 15.0749 21.7542 15.5189 21.3216C15.9628 20.889 16.2122 20.3023 16.2122 19.6906H11.7143C11.5259 19.6906 11.3453 19.6177 11.2121 19.4879C11.0789 19.3581 11.0041 19.1821 11.0041 18.9986C11.0041 18.8151 11.0789 18.6391 11.2121 18.5093C11.3453 18.3795 11.5259 18.3066 11.7143 18.3066H15.7388C15.5183 18.0201 15.2323 17.7876 14.9036 17.6275C14.5749 17.4673 14.2124 17.384 13.8449 17.384H11.7143C11.5259 17.384 11.3453 17.3111 11.2121 17.1813C11.0789 17.0515 11.0041 16.8755 11.0041 16.692C11.0041 16.5085 11.0789 16.3325 11.2121 16.2027C11.3453 16.0729 11.5259 16 11.7143 16H19.2898C19.4782 16 19.6588 16.0729 19.792 16.2027C19.9252 16.3325 20 16.5085 20 16.692C20 16.8755 19.9252 17.0515 19.792 17.1813C19.6588 17.3111 19.4782 17.384 19.2898 17.384H16.7988C17.0292 17.6636 17.2166 17.9744 17.3551 18.3066H19.2898C19.4782 18.3066 19.6588 18.3795 19.792 18.5093C19.9252 18.6391 20 18.8151 20 18.9986Z" fill="url(#paint1_linear_1_7)"/>
<defs>
<linearGradient id="paint0_linear_1_7" x1="15.7444" y1="-0.761227" x2="15.7444" y2="34.1186" gradientUnits="userSpaceOnUse">
<stop stop-color="#00EFD1"/>
<stop offset="1" stop-color="#00ACEA"/>
</linearGradient>
<linearGradient id="paint1_linear_1_7" x1="15.5" y1="15.7313" x2="15.5" y2="28.0419" gradientUnits="userSpaceOnUse">
<stop stop-color="#00EFD1"/>
<stop offset="1" stop-color="#00ACEA"/>
</linearGradient>
</defs>
</svg>
