<svg width="82" height="80" viewBox="0 0 82 80" fill="none" xmlns="http://www.w3.org/2000/svg">
<path d="M34.2391 62.7717C32.4882 62.7717 31.0688 63.0317 31.0688 64.7826C31.0688 66.5336 32.4882 66.7935 34.2391 66.7935H46.9203C48.6712 66.7935 50.0906 66.5336 50.0906 64.7826C50.0906 63.0317 48.6712 62.7717 46.9203 62.7717H42.5906V40.5797C42.5906 38.8288 41.1712 37.4094 40.5797 37.4094H34.2391C33.6232 37.4094 32.2283 38.2609 32.2283 39.4203C32.2283 40.5797 33.6232 41.4312 34.2391 41.4312H38.5688V62.7717H34.2391ZM77.9891 5.18116H67.9529V2.01087C67.9529 0.259919 66.5336 0 65.942 0C65.3505 0 63.9312 0.259919 63.9312 2.01087V5.18116H42.5906V2.01087C42.5906 0.259919 41.1712 0 40.5797 0C39.9882 0 38.5688 0.259919 38.5688 2.01087V5.18116H17.2283V2.01087C17.2283 0.259919 15.8089 0 15.2174 0C14.6259 0 13.2065 0.259919 13.2065 2.01087V5.18116H3.17029C1.41934 5.18116 0 6.6005 0 8.35145V76.8297C0 78.5807 1.41934 80 3.17029 80H77.9891C79.7401 80 81.1594 78.5807 81.1594 76.8297V8.35145C81.1594 6.6005 79.7401 5.18116 77.9891 5.18116ZM75.9783 74.8188H5.18116V30.5435H75.9783V74.8188ZM75.9783 24.2029H5.18116V11.5217H13.2065V14.692C13.2065 15.2836 13.4664 16.7029 15.2174 16.7029C16.9683 16.7029 17.2283 15.2836 17.2283 14.692V11.5217H38.5688V14.692C38.5688 15.2836 38.8288 16.7029 40.5797 16.7029C42.3307 16.7029 42.5906 15.2836 42.5906 14.692V11.5217H63.9312V14.692C63.9312 15.2836 64.1911 16.7029 65.942 16.7029C67.693 16.7029 67.9529 15.2836 67.9529 14.692V11.5217H75.9783V24.2029Z" fill="#221F20"/>
</svg>
