<svg xmlns="http://www.w3.org/2000/svg" width="20" height="13.905" viewBox="0 0 20 13.905">
  <g id="backspace-svgrepo-com" transform="translate(-1.521 -4.95)">
    <path id="Path_115788" data-name="Path 115788" d="M10.467,8.467a.74.74,0,0,1,1.046,0L13.948,10.9l2.435-2.435a.74.74,0,0,1,1.046,1.046l-2.435,2.435,2.435,2.435a.74.74,0,1,1-1.046,1.046l-2.435-2.435-2.435,2.435a.74.74,0,1,1-1.046-1.046L12.9,11.948,10.467,9.513A.74.74,0,0,1,10.467,8.467Z" transform="translate(-0.121 -0.046)" fill="#999"/>
    <path id="Path_115789" data-name="Path 115789" d="M8.311,4.95A3.7,3.7,0,0,0,5.4,6.364L1.89,10.836a1.726,1.726,0,0,0,0,2.132L5.4,17.44a3.7,3.7,0,0,0,2.908,1.414h10.5a2.712,2.712,0,0,0,2.712-2.712V7.662A2.712,2.712,0,0,0,18.81,4.95ZM6.565,7.278a2.219,2.219,0,0,1,1.745-.848h10.5a1.233,1.233,0,0,1,1.233,1.233v8.481a1.233,1.233,0,0,1-1.233,1.233H8.311a2.219,2.219,0,0,1-1.745-.848L3.053,12.055a.247.247,0,0,1,0-.3Z" fill="#999" fill-rule="evenodd"/>
  </g>
</svg>
