<svg width="70" height="71" viewBox="0 0 70 71" fill="none" xmlns="http://www.w3.org/2000/svg">
<g clip-path="url(#clip0_825_9679)">
<path d="M18.5877 9.93799C18.4604 9.75219 18.2894 9.60055 18.0897 9.49642C17.89 9.39229 17.6677 9.33888 17.4425 9.34087C17.2173 9.34287 16.996 9.40022 16.7982 9.50788C16.6003 9.61553 16.432 9.77018 16.308 9.95821L5.63846 26.1394C5.50193 26.3464 5.42401 26.5866 5.41298 26.8344C5.40195 27.0821 5.45821 27.3283 5.57579 27.5466C5.69338 27.765 5.8679 27.9474 6.08082 28.0746C6.29375 28.2018 6.53713 28.2689 6.78515 28.2689H28.5414C28.7915 28.2689 29.0368 28.2006 29.2509 28.0714C29.4651 27.9422 29.6398 27.757 29.7564 27.5358C29.873 27.3146 29.927 27.0657 29.9126 26.816C29.8981 26.5664 29.8158 26.3254 29.6745 26.1191L18.5877 9.93799ZM29.2277 27.2572C29.1629 27.383 29.0644 27.4883 28.9432 27.5614C28.822 27.6345 28.6829 27.6726 28.5414 27.6713H6.78515C6.64507 27.6712 6.50761 27.6333 6.38736 27.5615C6.26711 27.4896 6.16856 27.3866 6.10216 27.2632C6.03576 27.1399 6.00399 27.0009 6.01024 26.8609C6.01648 26.721 6.06049 26.5854 6.13761 26.4684L16.8071 10.2873C16.8771 10.1811 16.9722 10.0938 17.0839 10.033C17.1956 9.97216 17.3206 9.93977 17.4478 9.93864C17.575 9.93751 17.7005 9.96767 17.8133 10.0265C17.9261 10.0853 18.0228 10.1709 18.0947 10.2759L29.1813 26.457C29.2624 26.573 29.3097 26.7092 29.3179 26.8505C29.3261 26.9918 29.2948 27.1325 29.2277 27.2571V27.2572Z" fill="#FFCE02" stroke="#FFCE02" stroke-width="2"/>
<path d="M60.9743 14.9876L54.6223 14.0661C54.4935 14.0475 54.3713 13.9979 54.266 13.9216C54.1607 13.8452 54.0755 13.7444 54.0178 13.6278L51.1772 7.88016C51.0613 7.6461 50.8824 7.44908 50.6605 7.31133C50.4386 7.17358 50.1827 7.10059 49.9215 7.10059C49.6603 7.10059 49.4044 7.17358 49.1825 7.31133C48.9606 7.44908 48.7816 7.6461 48.6658 7.88016L45.8251 13.6276C45.7674 13.7442 45.6822 13.845 45.5769 13.9214C45.4716 13.9977 45.3494 14.0473 45.2206 14.0659L38.8687 14.9876C38.6103 15.0249 38.3675 15.1337 38.1677 15.3019C37.9679 15.4701 37.8193 15.6908 37.7385 15.9391C37.6577 16.1874 37.6481 16.4534 37.7107 16.7069C37.7733 16.9604 37.9056 17.1913 38.0927 17.3735L42.6891 21.8474C42.7823 21.938 42.8519 22.0498 42.8921 22.1733C42.9323 22.2968 42.9418 22.4283 42.9199 22.5563L41.8346 28.8733C41.7907 29.1308 41.8196 29.3954 41.9182 29.6372C42.0167 29.8791 42.181 30.0885 42.3923 30.2419C42.6037 30.3953 42.8537 30.4866 43.1142 30.5053C43.3747 30.5241 43.6352 30.4696 43.8664 30.348L49.5479 27.3655C49.6632 27.305 49.7914 27.2734 49.9215 27.2734C50.0516 27.2734 50.1798 27.305 50.2951 27.3655L55.9765 30.348C56.2077 30.4696 56.4682 30.5241 56.7287 30.5053C56.9892 30.4866 57.2392 30.3953 57.4506 30.2419C57.6619 30.0885 57.8262 29.8791 57.9247 29.6372C58.0233 29.3954 58.0522 29.1308 58.0083 28.8733L56.9233 22.5563C56.9014 22.4283 56.9109 22.2968 56.9511 22.1733C56.9913 22.0498 57.0609 21.938 57.1541 21.8474L61.7504 17.3737C61.9375 17.1915 62.0698 16.9606 62.1324 16.7071C62.195 16.4536 62.1854 16.1876 62.1046 15.9393C62.0238 15.691 61.8752 15.4703 61.6754 15.3021C61.4756 15.1339 61.2328 15.0251 60.9744 14.9878L60.9743 14.9876ZM61.3334 16.9454L56.737 21.4191C56.5744 21.5773 56.4527 21.7727 56.3825 21.9885C56.3123 22.2042 56.2957 22.4338 56.3341 22.6574L57.4192 28.9745C57.4442 29.122 57.4275 29.2736 57.371 29.4122C57.3144 29.5507 57.2202 29.6707 57.099 29.7585C56.9779 29.8463 56.8346 29.8985 56.6853 29.9092C56.536 29.9198 56.3868 29.8885 56.2543 29.8188L50.573 26.8363C50.372 26.7308 50.1485 26.6757 49.9215 26.6757C49.6945 26.6757 49.4709 26.7308 49.27 26.8363L43.5886 29.8188C43.4561 29.8885 43.3069 29.9198 43.1576 29.9092C43.0083 29.8985 42.865 29.8463 42.7439 29.7585C42.6227 29.6707 42.5285 29.5507 42.4719 29.4122C42.4154 29.2736 42.3987 29.122 42.4237 28.9745L43.5088 22.6574C43.5472 22.4338 43.5306 22.2042 43.4604 21.9885C43.3902 21.7727 43.2685 21.5773 43.1059 21.4191L38.5095 16.9454C38.4023 16.841 38.3265 16.7088 38.2907 16.5635C38.2549 16.4183 38.2604 16.266 38.3067 16.1238C38.353 15.9815 38.4383 15.8551 38.5528 15.7589C38.6672 15.6626 38.8064 15.6004 38.9545 15.5791L45.3065 14.6577C45.5311 14.6251 45.7444 14.5385 45.9281 14.4052C46.1118 14.272 46.2603 14.096 46.3609 13.8926L49.2016 8.14515C49.2681 8.01102 49.3707 7.89812 49.4979 7.81919C49.6251 7.74026 49.7718 7.69844 49.9215 7.69844C50.0712 7.69844 50.2179 7.74026 50.3451 7.81919C50.4723 7.89812 50.5749 8.01102 50.6414 8.14515L53.4821 13.8925C53.5827 14.096 53.7312 14.2719 53.9149 14.4052C54.0986 14.5385 54.3119 14.6251 54.5365 14.6576L60.8885 15.5791C61.0366 15.6003 61.1758 15.6626 61.2902 15.7588C61.4047 15.8551 61.49 15.9815 61.5363 16.1237C61.5826 16.2659 61.5881 16.4183 61.5523 16.5635C61.5165 16.7087 61.4407 16.841 61.3335 16.9453L61.3334 16.9454Z" fill="#FFCE02" stroke="#FFCE02" stroke-width="2"/>
<path d="M28.5374 43.5658C28.5369 43.1535 28.3729 42.7581 28.0813 42.4665C27.7897 42.175 27.3944 42.0109 26.982 42.0104L8.34425 42.0104C7.93174 42.0104 7.53614 42.1743 7.24445 42.466C6.95276 42.7577 6.7889 43.1533 6.78889 43.5658L6.78889 62.2035C6.78936 62.6159 6.95339 63.0113 7.24498 63.3029C7.53657 63.5945 7.93192 63.7585 8.3443 63.7589L26.982 63.759C27.3945 63.7589 27.7902 63.5951 28.0818 63.3034C28.3735 63.0117 28.5374 62.6161 28.5374 62.2036L28.5374 43.5658ZM26.9822 63.041L8.34442 63.041C8.12235 63.0408 7.90944 62.9525 7.75241 62.7954C7.59539 62.6384 7.50708 62.4255 7.50687 62.2034L7.50686 43.5657C7.50686 43.4557 7.52851 43.3468 7.5706 43.2451C7.61269 43.1435 7.67439 43.0512 7.75216 42.9734C7.82994 42.8956 7.92227 42.8339 8.02389 42.7919C8.12551 42.7498 8.23443 42.7281 8.34442 42.7281L26.9822 42.7281C27.2042 42.7283 27.4171 42.8167 27.5742 42.9737C27.7312 43.1307 27.8195 43.3436 27.8197 43.5657L27.8197 62.2034C27.8197 62.3134 27.7981 62.4223 27.756 62.5239C27.7139 62.6256 27.6522 62.7179 27.5744 62.7957C27.4966 62.8735 27.4043 62.9351 27.3027 62.9772C27.2011 63.0193 27.0922 63.041 26.9822 63.041Z" fill="#FFCE02" stroke="#FFCE02" stroke-width="2"/>
<path d="M61.1781 49.0542L50.6608 41.4214C50.446 41.2649 50.1871 41.1807 49.9213 41.1807C49.6556 41.1807 49.3967 41.2649 49.1819 41.4214L38.6646 49.0542C38.4489 49.2101 38.2883 49.4305 38.206 49.6837C38.1237 49.9368 38.124 50.2095 38.2069 50.4625L42.2237 62.8112C42.3055 63.0642 42.4655 63.2847 42.6806 63.441C42.8957 63.5972 43.1549 63.6811 43.4208 63.6807H56.4218C56.6877 63.6811 56.9469 63.5972 57.1621 63.441C57.3772 63.2847 57.5372 63.0642 57.619 62.8112L61.6358 50.4625C61.7186 50.2095 61.7189 49.9368 61.6366 49.6837C61.5544 49.4305 61.3938 49.2101 61.1781 49.0542ZM61.0895 50.2848L57.0727 62.6335C57.0282 62.7711 56.9412 62.891 56.8242 62.976C56.7072 63.0609 56.5662 63.1065 56.4216 63.1063H43.4208C43.2762 63.1066 43.1353 63.0609 43.0183 62.976C42.9013 62.891 42.8143 62.7711 42.7698 62.6335L38.753 50.2847C38.708 50.1472 38.7078 49.9989 38.7526 49.8613C38.7973 49.7237 38.8847 49.6039 39.002 49.5191L49.5192 41.8863C49.636 41.8013 49.7767 41.7554 49.9212 41.7554C50.0657 41.7554 50.2064 41.8013 50.3232 41.8863L60.8407 49.5191C60.958 49.6039 61.0454 49.7237 61.0901 49.8613C61.1348 49.999 61.1345 50.1472 61.0895 50.2848Z" fill="#FFCE02" stroke="#FFCE02" stroke-width="2"/>
</g>
<defs>
<clipPath id="clip0_825_9679">
<rect width="70" height="70" fill="white" transform="translate(0 0.0390625)"/>
</clipPath>
</defs>
</svg>
