<svg width="23" height="22" viewBox="0 0 23 22" fill="none" xmlns="http://www.w3.org/2000/svg">
<g clip-path="url(#clip0_8974_4303)">
<path d="M14.6777 11C14.6777 11.9117 14.3156 12.786 13.6709 13.4307C13.0263 14.0753 12.1519 14.4375 11.2402 14.4375C10.3286 14.4375 9.45421 14.0753 8.80955 13.4307C8.1649 12.786 7.80273 11.9117 7.80273 11C7.80273 10.0883 8.1649 9.21398 8.80955 8.56932C9.45421 7.92466 10.3286 7.5625 11.2402 7.5625C12.1519 7.5625 13.0263 7.92466 13.6709 8.56932C14.3156 9.21398 14.6777 10.0883 14.6777 11Z" fill="#707070"/>
<path d="M0.240234 11C0.240234 11 4.36523 3.4375 11.2402 3.4375C18.1152 3.4375 22.2402 11 22.2402 11C22.2402 11 18.1152 18.5625 11.2402 18.5625C4.36523 18.5625 0.240234 11 0.240234 11ZM11.2402 15.8125C12.5166 15.8125 13.7407 15.3055 14.6432 14.403C15.5457 13.5004 16.0527 12.2764 16.0527 11C16.0527 9.72365 15.5457 8.49957 14.6432 7.59705C13.7407 6.69453 12.5166 6.1875 11.2402 6.1875C9.96388 6.1875 8.7398 6.69453 7.83728 7.59705C6.93476 8.49957 6.42773 9.72365 6.42773 11C6.42773 12.2764 6.93476 13.5004 7.83728 14.403C8.7398 15.3055 9.96388 15.8125 11.2402 15.8125Z" fill="#707070"/>
</g>
<defs>
<clipPath id="clip0_8974_4303">
<rect width="22" height="22" fill="white" transform="translate(0.240234)"/>
</clipPath>
</defs>
</svg>
