<svg width="193" height="49" viewBox="0 0 193 49" fill="none" xmlns="http://www.w3.org/2000/svg">
<g clip-path="url(#clip0_758_1481)">
<path d="M39.9925 40.7334C40.4567 41.2 40.4567 41.6666 39.9925 42.1332C35.8882 46.2591 30.257 48.8623 23.8318 48.8623C10.5906 48.8623 0 38.2775 0 24.893C0 11.5085 10.5906 0.862305 23.8441 0.862305C30.2692 0.862305 35.9004 3.45325 40.0047 7.59139C40.4689 8.05801 40.4689 8.52462 40.0047 8.99124L35.6317 13.7188C35.2286 14.1854 34.7034 14.1854 34.2392 13.7802C31.4541 11.312 28.0094 9.7894 23.7708 9.7894C15.6965 9.7894 9.33241 16.2483 9.33241 24.9053C9.33241 33.5622 15.6843 39.9475 23.7708 39.9475C28.0094 39.9475 31.4541 38.4126 34.2392 35.9567C34.7034 35.5515 35.2286 35.5515 35.6317 36.0181L40.0047 40.7457L39.9925 40.7334Z" fill="#F5F5F5"/>
<path d="M74.6231 28.4173V46.9837C74.6231 47.5363 74.1833 47.9784 73.6336 47.9784H66.8786C66.3289 47.9784 65.8892 47.5363 65.8892 46.9837V30.0137C65.8892 24.623 62.9698 22.7566 59.7938 22.7566C54.8955 22.7566 52.6479 27.6192 52.6479 29.1418V46.9837C52.6479 47.5363 52.2082 47.9784 51.6585 47.9784H44.9035C44.3538 47.9784 43.9141 47.5363 43.9141 46.9837V2.74121C43.9141 2.18864 44.3538 1.74658 44.9035 1.74658H51.6585C52.2082 1.74658 52.6479 2.18864 52.6479 2.74121V20.6936C54.7611 17.2308 58.2058 14.6399 62.9087 14.6399C69.5293 14.6399 74.6353 19.699 74.6353 28.4173H74.6231Z" fill="#F5F5F5"/>
<path d="M78.9336 31.7448C78.9336 22.1546 86.4215 14.6396 95.7539 14.6396C105.086 14.6396 112.574 22.1669 112.574 31.7448C112.574 41.3227 105.086 48.8499 95.7539 48.8499C86.4215 48.8499 78.9336 41.3227 78.9336 31.7448ZM104.158 31.7448C104.158 26.4892 100.383 22.7563 95.7539 22.7563C91.1243 22.7563 87.3499 26.4892 87.3499 31.7448C87.3499 37.0004 91.0633 40.7333 95.7539 40.7333C100.445 40.7333 104.158 37.0004 104.158 31.7448Z" fill="#F5F5F5"/>
<path d="M116.459 5.72493C116.459 3.06031 118.572 0.862305 121.296 0.862305C124.02 0.862305 126.06 3.06031 126.06 5.72493C126.06 8.38955 123.947 10.5876 121.296 10.5876C118.646 10.5876 116.459 8.38955 116.459 5.72493ZM117.913 15.3765H124.668C125.266 15.3765 125.657 15.7817 125.657 16.3711V46.9958C125.657 47.5975 125.254 47.9905 124.668 47.9905H117.913C117.314 47.9905 116.923 47.5853 116.923 46.9958V16.3711C116.923 15.7694 117.326 15.3765 117.913 15.3765Z" fill="#F5F5F5"/>
<path d="M153.704 37.8107C154.229 37.3441 154.693 37.3441 155.157 37.8107L159.201 41.6664C159.604 42.0717 159.665 42.5997 159.262 43.0663C156.22 46.5905 151.713 48.8621 146.546 48.8621C137.213 48.8621 129.994 41.3349 129.994 31.757C129.994 22.1791 137.213 14.6519 146.546 14.6519C151.578 14.6519 156.012 16.9113 159.066 20.4477C159.469 20.9143 159.396 21.4423 159.005 21.8476L154.962 25.777C154.498 26.2436 154.034 26.1822 153.508 25.7156C151.652 24.0456 149.734 22.7808 146.753 22.7808C141.855 22.7808 138.41 26.6365 138.41 31.7693C138.41 36.902 141.855 40.7578 146.753 40.7578C149.868 40.7578 151.847 39.493 153.704 37.823V37.8107Z" fill="#F5F5F5"/>
<path d="M190.678 34.9501H169.888C170.743 39.2725 174.065 41.7406 179.159 41.7406C181.736 41.7406 183.789 41.0775 186.048 39.4812C186.647 39.076 187.038 39.076 187.502 39.5426L190.421 42.4037C190.886 42.8703 190.886 43.3369 190.36 43.8649C187.245 46.9962 183.007 48.8626 178.304 48.8626C168.178 48.8626 161.215 41.3354 161.215 31.7575C161.215 22.1796 168.165 14.6523 177.571 14.6523C186.977 14.6523 192.999 22.1796 192.999 31.033C192.999 33.6239 192.669 34.9624 190.678 34.9624V34.9501ZM169.753 29.2279H185.254C184.656 24.6355 181.541 22.1059 177.644 22.1059C173.748 22.1059 170.498 24.6355 169.765 29.2279H169.753Z" fill="#F5F5F5"/>
</g>
<defs>
<clipPath id="clip0_758_1481">
<rect width="193" height="48" fill="white" transform="translate(0 0.862305)"/>
</clipPath>
</defs>
</svg>
