<svg width="193" height="48" viewBox="0 0 193 48" fill="none" xmlns="http://www.w3.org/2000/svg">
<g clip-path="url(#clip0_795_514)">
<path d="M39.9925 39.8711C40.4567 40.3377 40.4567 40.8043 39.9925 41.2709C35.8882 45.3968 30.257 48 23.8318 48C10.5906 48 0 37.4152 0 24.0307C0 10.6462 10.5906 0 23.8441 0C30.2692 0 35.9004 2.59094 40.0047 6.72909C40.4689 7.1957 40.4689 7.66232 40.0047 8.12893L35.6317 12.8565C35.2286 13.3231 34.7034 13.3231 34.2392 12.9179C31.4541 10.4497 28.0094 8.92709 23.7708 8.92709C15.6965 8.92709 9.33241 15.386 9.33241 24.043C9.33241 32.6999 15.6843 39.0852 23.7708 39.0852C28.0094 39.0852 31.4541 37.5503 34.2392 35.0944C34.7034 34.6892 35.2286 34.6892 35.6317 35.1558L40.0047 39.8833L39.9925 39.8711Z" fill="#221F20"/>
<path d="M74.6226 27.5555V46.1219C74.6226 46.6745 74.1828 47.1165 73.6331 47.1165H66.8781C66.3284 47.1165 65.8887 46.6745 65.8887 46.1219V29.1518C65.8887 23.7612 62.9693 21.8947 59.7933 21.8947C54.895 21.8947 52.6474 26.7574 52.6474 28.28V46.1219C52.6474 46.6745 52.2077 47.1165 51.658 47.1165H44.903C44.3533 47.1165 43.9136 46.6745 43.9136 46.1219V1.87939C43.9136 1.32682 44.3533 0.884766 44.903 0.884766H51.658C52.2077 0.884766 52.6474 1.32682 52.6474 1.87939V19.8318C54.7607 16.369 58.2053 13.7781 62.9082 13.7781C69.5288 13.7781 74.6348 18.8372 74.6348 27.5555H74.6226Z" fill="#221F20"/>
<path d="M78.9346 30.8825C78.9346 21.2923 86.4225 13.7773 95.7549 13.7773C105.087 13.7773 112.575 21.3046 112.575 30.8825C112.575 40.4604 105.087 47.9876 95.7549 47.9876C86.4225 47.9876 78.9346 40.4604 78.9346 30.8825ZM104.159 30.8825C104.159 25.6269 100.384 21.894 95.7549 21.894C91.1253 21.894 87.3508 25.6269 87.3508 30.8825C87.3508 36.138 91.0642 39.871 95.7549 39.871C100.446 39.871 104.159 36.138 104.159 30.8825Z" fill="#221F20"/>
<path d="M116.459 4.86262C116.459 2.198 118.573 0 121.297 0C124.021 0 126.061 2.198 126.061 4.86262C126.061 7.52725 123.947 9.72525 121.297 9.72525C118.646 9.72525 116.459 7.52725 116.459 4.86262ZM117.913 14.5142H124.668C125.267 14.5142 125.658 14.9194 125.658 15.5088V46.1335C125.658 46.7352 125.254 47.1282 124.668 47.1282H117.913C117.315 47.1282 116.924 46.7229 116.924 46.1335V15.5088C116.924 14.9071 117.327 14.5142 117.913 14.5142Z" fill="#221F20"/>
<path d="M153.704 36.9479C154.229 36.4813 154.693 36.4813 155.157 36.9479L159.201 40.8036C159.604 41.2089 159.665 41.7369 159.262 42.2035C156.22 45.7277 151.713 47.9993 146.546 47.9993C137.213 47.9993 129.994 40.4721 129.994 30.8942C129.994 21.3163 137.213 13.7891 146.546 13.7891C151.578 13.7891 156.012 16.0485 159.066 19.5849C159.469 20.0515 159.396 20.5795 159.005 20.9848L154.962 24.9142C154.498 25.3808 154.034 25.3194 153.508 24.8528C151.652 23.1828 149.734 21.918 146.753 21.918C141.855 21.918 138.41 25.7737 138.41 30.9065C138.41 36.0393 141.855 39.895 146.753 39.895C149.868 39.895 151.847 38.6302 153.704 36.9602V36.9479Z" fill="#221F20"/>
<path d="M190.679 34.0868H169.889C170.744 38.4092 174.066 40.8773 179.16 40.8773C181.737 40.8773 183.789 40.2142 186.049 38.6179C186.648 38.2127 187.039 38.2127 187.503 38.6793L190.422 41.5404C190.887 42.007 190.887 42.4736 190.361 43.0016C187.246 46.1329 183.008 47.9993 178.305 47.9993C168.178 47.9993 161.216 40.4721 161.216 30.8942C161.216 21.3163 168.166 13.7891 177.572 13.7891C186.978 13.7891 193 21.3163 193 30.1697C193 32.7607 192.67 34.0991 190.679 34.0991V34.0868ZM169.754 28.3647H185.255C184.657 23.7722 181.542 21.2426 177.645 21.2426C173.749 21.2426 170.499 23.7722 169.766 28.3647H169.754Z" fill="#221F20"/>
</g>
<defs>
<clipPath id="clip0_795_514">
<rect width="193" height="48" fill="white"/>
</clipPath>
</defs>
</svg>
