<svg width="1027" height="1053" viewBox="0 0 1027 1053" fill="none" xmlns="http://www.w3.org/2000/svg">
<path d="M-750.051 272.038C-729.965 140.995 -691.288 47.1918 -474.753 115.35C-307.392 168.074 -71.9452 231.032 112.023 251.51C242.008 265.962 449.863 232.164 581.089 251.614C869.881 294.481 939.256 553.933 846.506 708.562C768.112 839.108 564.193 918.344 350.47 931.081C72.2238 947.637 -255.918 835.537 -477.654 695.825C-656.05 583.34 -773.022 422.013 -750.051 272.038Z" fill="#E0EFE4"/>
<path d="M0 467.14C93.9413 464.137 253.428 508.217 367.634 717.897C447.782 865.045 655.12 444.114 767.937 487.159C858.19 521.594 943 734.5 1001.5 821" stroke="#B2DBBF" stroke-width="8"/>
<circle cx="1008" cy="833" r="15" stroke="#B2DBBF" stroke-width="8"/>
</svg>
