<svg version="1.2" xmlns="http://www.w3.org/2000/svg" viewBox="0 0 300 842" width="300" height="842">
	<title>clipath-img1-svg</title>
	<style>
		.s0 { fill: #f3faff } 
		.s1 { mix-blend-mode: multiply } 
	</style>
	<path id="Layer" fill-rule="evenodd" class="s0" d="m-76.1 514.6c-48.6-21.2-89.8-56.4-118.4-101-28.7-44.7-43.4-96.8-42.4-149.8 1.1-53.1 17.8-104.6 48.1-148.1 30.3-43.6 72.8-77.1 122.2-96.5 49.4-19.3 103.4-23.6 155.2-12.3 51.8 11.4 99 37.8 135.8 76 36.8 38.2 61.4 86.5 70.7 138.7 9.4 52.2 3 106-18.2 154.6-28.5 65.1-81.7 116.3-147.9 142.2-66.2 26-140 24.6-205.1-3.8zm196.1-448.9c-40.2-17.5-84.7-22.8-127.8-15-43.2 7.7-83.1 28-114.7 58.5-31.6 30.4-53.5 69.5-62.8 112.3-9.4 42.8-5.9 87.5 10.1 128.3 16 40.8 43.8 76 79.7 101 36 25.1 78.6 38.9 122.5 39.7 43.8 0.9 86.9-11.3 123.8-35 36.9-23.6 66-57.7 83.5-97.9 23.6-53.9 24.7-114.9 3.3-169.6-21.5-54.8-63.7-98.8-117.6-122.4z"/>
	<g id="Layer" style="opacity: .2">
		<path id="Layer" class="s1" d="m-209.3 329.9l370.2 161.7-161.7 370.2-370.2-161.7z"/>
	</g>
	<path id="Layer" fill-rule="evenodd" class="s0" d="m-149.2 733.9c-28.7-12.5-53-33.2-69.8-59.6-16.9-26.3-25.6-57.1-25-88.3 0.6-31.3 10.5-61.7 28.3-87.4 17.9-25.6 43-45.4 72.1-56.9 29.1-11.4 61-13.9 91.5-7.2 30.6 6.7 58.5 22.3 80.2 44.8 21.7 22.6 36.2 51 41.7 81.8 5.5 30.8 1.8 62.5-10.8 91.2-16.8 38.4-48.2 68.6-87.2 83.9-39 15.3-82.6 14.5-121-2.3zm115.7-264.7c-23.7-10.4-50-13.5-75.4-8.9-25.5 4.5-49 16.5-67.7 34.5-18.6 17.9-31.5 41-37.1 66.2-5.5 25.3-3.4 51.7 6 75.7 9.5 24.1 25.8 44.9 47.1 59.6 21.2 14.8 46.3 23 72.2 23.5 25.8 0.5 51.3-6.7 73-20.7 21.8-14 39-34.1 49.3-57.8 13.9-31.8 14.5-67.7 1.9-100-12.7-32.3-37.6-58.2-69.3-72.1z"/>
</svg>