<svg width="70" height="70" viewBox="0 0 70 70" fill="none" xmlns="http://www.w3.org/2000/svg">
<path d="M25.2595 24.5033H34.1576C34.7916 24.5033 35.3057 23.9892 35.3057 23.3552C35.3057 22.7211 34.7916 22.207 34.1576 22.207H25.2595C24.6254 22.207 24.1113 22.7211 24.1113 23.3552C24.1113 23.9892 24.6254 24.5033 25.2595 24.5033Z" fill="white"/>
<path d="M48.3791 30.2383C39.2051 30.2383 31.7686 37.6749 31.7686 46.8488C31.768 56.0227 39.2046 63.4593 48.3785 63.4599C57.5524 63.4599 64.989 56.0233 64.9896 46.8494C64.9795 37.6799 57.5491 30.2489 48.3791 30.2383ZM48.3791 61.163C40.4733 61.163 34.0643 54.7546 34.0648 46.8488C34.0648 38.943 40.4738 32.5346 48.3796 32.5346C56.2849 32.5346 62.6939 38.9441 62.6933 46.8494C62.6838 54.7513 56.2804 61.1541 48.3791 61.163Z" fill="white"/>
<path d="M54.3968 47.0367H48.6527V39.113C48.6527 38.4789 48.1386 37.9648 47.5046 37.9648C46.8705 37.9648 46.3564 38.4789 46.3564 39.113V48.1395C46.3598 48.7853 46.8733 49.3123 47.5192 49.333H54.3963C55.0303 49.333 55.5444 48.8189 55.5444 48.1849C55.5444 47.5508 55.0303 47.0367 54.3963 47.0367H54.3968Z" fill="white"/>
<path d="M59.4164 28.267V15.3532C59.4164 12.1986 56.9794 9.57997 53.9414 9.57997H42.0507V7.19791C42.0507 4.04276 39.5336 1.54297 36.4956 1.54297H22.9752C19.9372 1.54297 17.5092 4.04276 17.5092 7.19791V9.57997H5.5288C2.49082 9.57997 0 12.1986 0 15.3532V46.2746C0 49.4292 2.49082 52.0613 5.5288 52.0613H27.3603C29.6751 61.3899 38.2201 68.5221 48.379 68.5221C60.3106 68.5221 69.9997 58.7988 69.9997 46.8672C69.9997 38.9793 65.7312 32.0484 59.4164 28.267ZM19.8055 7.19791C19.8055 5.30919 21.2031 3.83926 22.9752 3.83926H36.4956C38.2677 3.83926 39.7545 5.30919 39.7545 7.19791V9.57997H19.8055V7.19791ZM2.29629 15.3532C2.29629 13.4645 3.75725 11.8763 5.5288 11.8763H53.9414C55.7135 11.8763 57.1201 13.4645 57.1201 15.3532V27.0751C54.3692 25.8267 51.3822 25.1842 48.3616 25.1898C41.3051 25.1769 34.6898 28.6208 30.6534 34.4086H5.5288C3.75725 34.4086 2.29629 32.919 2.29629 31.0303V15.3532ZM5.5288 49.765C3.75725 49.765 2.29629 48.1633 2.29629 46.2746V35.6733C3.15739 36.3511 4.33076 36.7049 5.5288 36.7049H29.2474C27.5969 39.8353 26.7364 43.3218 26.7409 46.8604C26.7431 47.8314 26.8059 48.8019 26.9287 49.765H5.5288ZM48.379 66.1927C37.7138 66.1927 29.0371 57.5161 29.0371 46.8509C29.0371 36.1857 37.7138 27.5091 48.379 27.5091C59.0442 27.5091 67.7208 36.1857 67.7208 46.8509C67.7208 57.5161 59.0442 66.1927 48.379 66.1927Z" fill="white"/>
</svg>
