<svg xmlns="http://www.w3.org/2000/svg" width="152.086" height="108.163" viewBox="0 0 152.086 108.163"><defs><style>.a{fill:none;stroke:#fff;stroke-linecap:round;stroke-dasharray:2 4;}.b{fill:#fff;}</style></defs><g transform="translate(-366.737 -203.321)"><path class="a" d="M-1341.3,9512.517a147.163,147.163,0,0,1,8.7-53.139c10.154-27.619,44.9-33.187,67.016-24.775s25.182,41.835,5.28,43.053-18.249-50.742,60.579-43.053" transform="translate(1718 -9227)"/><path class="b" d="M12.327,16.453h3.965l3.945,0c1.3,0,2.59,0,3.886,0a.412.412,0,0,0,.421-.2.429.429,0,0,0-.076-.478q-1.683-2.342-3.36-4.687Q19.042,8.2,16.978,5.32,15.16,2.783,13.338.249c-.231-.321-.455-.328-.731-.041-.879.915-1.762,1.826-2.635,2.747a.375.375,0,0,1-.458.113Q6.912,2.2,4.3,1.355c-.37-.12-.573.033-.576.426Q3.7,4.9,3.682,8.025a10.719,10.719,0,0,0,0,1.108,1.5,1.5,0,0,1-.295.92q-1.651,2.879-3.3,5.758c-.2.351-.042.642.365.646.766.008,1.533,0,2.3,0l3.965,0h5.61Zm10.53-1.573S12.632,9.376,7.511,6.607L12.927.985C16.252,5.625,22.856,14.88,22.856,14.88Zm-21.794.805c.024-.055.038-.1.059-.134q1.511-2.639,3.021-5.278c.07-.123.133-.151.265-.106.563.189,1.128.37,1.694.55Q8.129,11.363,10.16,12l5.456,1.732L21.467,15.6l1.05.348S7.931,15.686,1.062,15.686Zm22.62.128S9.7,11.053,4.44,9.378q.049-3,.1-5.981a.666.666,0,0,1,.182.225C5.311,4.675,5.9,5.731,6.5,6.782a.817.817,0,0,0,.294.3q1.743.961,3.5,1.9c1.179.636,2.361,1.266,3.54,1.9q2.423,1.307,4.843,2.62C19.185,13.787,23.682,15.814,23.682,15.814ZM6.969,6.059l-2-3.578L9.224,3.718Z" transform="matrix(0.259, 0.966, -0.966, 0.259, 382.636, 283.475)"/></g></svg>