<svg width="54" height="54" viewBox="0 0 54 54" fill="none" xmlns="http://www.w3.org/2000/svg">
<path d="M50.7274 10.125H28.0547V4.31367C28.0551 3.83015 27.9602 3.35129 27.7754 2.90449C27.5905 2.4577 27.3194 2.05174 26.9775 1.70985C26.6356 1.36796 26.2296 1.09685 25.7828 0.912038C25.336 0.727227 24.8571 0.632343 24.3736 0.632814H4.3134C3.82992 0.632397 3.3511 0.727322 2.90435 0.912157C2.45759 1.09699 2.05167 1.36811 1.70981 1.71C1.36795 2.05188 1.09686 2.45783 0.912054 2.9046C0.727251 3.35137 0.632361 3.83019 0.632814 4.31367V49.6863C0.63368 50.6622 1.02172 51.5979 1.71177 52.288C2.40182 52.9781 3.33749 53.3662 4.3134 53.3672H24.3736C25.3496 53.3664 26.2853 52.9783 26.9755 52.2882C27.6657 51.5981 28.0538 50.6623 28.0547 49.6863V31.2188H50.7278C51.4278 31.2187 52.0991 30.9407 52.5941 30.4457C53.0891 29.9507 53.3672 29.2794 53.3672 28.5794V12.7648C53.3672 12.4181 53.2989 12.0748 53.1663 11.7546C53.0336 11.4343 52.8392 11.1433 52.594 10.8982C52.3489 10.653 52.0579 10.4586 51.7376 10.3259C51.4174 10.1933 51.0741 10.125 50.7274 10.125ZM11.707 2.86875H16.9805C17.3301 2.86875 17.6655 3.00765 17.9127 3.25489C18.1599 3.50213 18.2988 3.83746 18.2988 4.18711C18.2988 4.53676 18.1599 4.87209 17.9127 5.11933C17.6655 5.36657 17.3301 5.50547 16.9805 5.50547H11.707C11.3574 5.50547 11.0221 5.36657 10.7748 5.11933C10.5276 4.87209 10.3887 4.53676 10.3887 4.18711C10.3887 3.83746 10.5276 3.50213 10.7748 3.25489C11.0221 3.00765 11.3574 2.86875 11.707 2.86875ZM16.98 51.1225H11.7065C11.3569 51.1225 11.0215 50.9836 10.7743 50.7363C10.5271 50.4891 10.3882 50.1538 10.3882 49.8041C10.3882 49.4545 10.5271 49.1191 10.7743 48.8719C11.0215 48.6246 11.3569 48.4858 11.7065 48.4858H16.98C17.3296 48.4858 17.6649 48.6246 17.9122 48.8719C18.1594 49.1191 18.2983 49.4545 18.2983 49.8041C18.2983 50.1538 18.1594 50.4891 17.9122 50.7363C17.6649 50.9836 17.3296 51.1225 16.98 51.1225ZM25.7342 46.248H2.95282V7.75196H25.7342V10.125H11.6853C10.9918 10.125 10.3267 10.4005 9.83624 10.8909C9.34583 11.3813 9.07031 12.0465 9.07031 12.74V28.6013C9.07031 28.945 9.13801 29.2854 9.26955 29.6029C9.40109 29.9205 9.59389 30.2091 9.83695 30.4521C10.08 30.6952 10.3686 30.888 10.6861 31.0195C11.0037 31.1511 11.3441 31.2188 11.6878 31.2188H16.4531V35.4549C16.4531 35.7127 16.5296 35.9647 16.6728 36.1791C16.816 36.3934 17.0196 36.5605 17.2577 36.6591C17.4959 36.7578 17.758 36.7836 18.0108 36.7333C18.2636 36.683 18.4959 36.5588 18.6781 36.3765L23.8359 31.2188H25.7342V46.248ZM22.876 21.6316C23.1785 21.8073 23.3993 22.0955 23.4902 22.4334C23.5811 22.7713 23.5347 23.1314 23.3611 23.4352C23.2754 23.5863 23.1605 23.7188 23.0231 23.8252C22.8857 23.9315 22.7285 24.0095 22.5607 24.0546C22.393 24.0998 22.2179 24.1111 22.0457 24.0881C21.8735 24.065 21.7076 24.008 21.5576 23.9203L19.8809 22.95V24.8906C19.8809 25.2403 19.742 25.5756 19.4947 25.8228C19.2475 26.0701 18.9122 26.209 18.5625 26.209C18.2129 26.209 17.8775 26.0701 17.6303 25.8228C17.383 25.5756 17.2441 25.2403 17.2441 24.8906V22.95L15.5668 23.9203C15.4168 24.008 15.2509 24.065 15.0787 24.0881C14.9065 24.1111 14.7315 24.0998 14.5637 24.0546C14.3959 24.0095 14.2388 23.9315 14.1014 23.8252C13.964 23.7188 13.8491 23.5863 13.7633 23.4352C13.59 23.1313 13.5437 22.7713 13.6346 22.4335C13.7254 22.0957 13.9461 21.8075 14.2485 21.6316L15.9258 20.6719L14.2485 19.7016C13.945 19.5267 13.7234 19.2385 13.6324 18.9003C13.5414 18.5621 13.5885 18.2016 13.7634 17.8981C13.9382 17.5946 14.2264 17.373 14.5646 17.282C14.9028 17.191 15.2634 17.2381 15.5668 17.413L17.2441 18.3832V16.4531C17.2441 16.1035 17.383 15.7681 17.6303 15.5209C17.8775 15.2737 18.2129 15.1348 18.5625 15.1348C18.9122 15.1348 19.2475 15.2737 19.4947 15.5209C19.742 15.7681 19.8809 16.1035 19.8809 16.4531V18.3832L21.5576 17.413C21.8611 17.2381 22.2216 17.191 22.5599 17.282C22.8981 17.373 23.1863 17.5946 23.3611 17.8981C23.536 18.2016 23.5831 18.5621 23.4921 18.9003C23.4011 19.2385 23.1795 19.5267 22.876 19.7016L21.1992 20.6719L22.876 21.6316ZM35.5322 21.6316C35.8348 21.8073 36.0556 22.0955 36.1465 22.4334C36.2374 22.7713 36.191 23.1314 36.0174 23.4352C35.9316 23.5863 35.8167 23.7188 35.6793 23.8252C35.5419 23.9315 35.3848 24.0095 35.217 24.0546C35.0492 24.0998 34.8742 24.1111 34.702 24.0881C34.5298 24.065 34.3638 24.008 34.2139 23.9203L32.5371 22.95V24.8906C32.5371 25.2403 32.3982 25.5756 32.151 25.8228C31.9037 26.0701 31.5684 26.209 31.2188 26.209C30.8691 26.209 30.5338 26.0701 30.2865 25.8228C30.0393 25.5756 29.9004 25.2403 29.9004 24.8906V22.95L28.2231 23.9203C28.0731 24.008 27.9072 24.065 27.735 24.0881C27.5628 24.1111 27.3877 24.0998 27.2199 24.0546C27.0522 24.0095 26.895 23.9315 26.7576 23.8252C26.6202 23.7188 26.5053 23.5863 26.4196 23.4352C26.2462 23.1313 26.2 22.7713 26.2908 22.4335C26.3817 22.0957 26.6023 21.8075 26.9047 21.6316L28.582 20.6719L26.9047 19.7016C26.6012 19.5267 26.3796 19.2385 26.2887 18.9003C26.1977 18.5621 26.2448 18.2016 26.4196 17.8981C26.5944 17.5946 26.8827 17.373 27.2209 17.282C27.5591 17.191 27.9196 17.2381 28.2231 17.413L29.9004 18.3832V16.4531C29.9004 16.1035 30.0393 15.7681 30.2865 15.5209C30.5338 15.2737 30.8691 15.1348 31.2188 15.1348C31.5684 15.1348 31.9037 15.2737 32.151 15.5209C32.3982 15.7681 32.5371 16.1035 32.5371 16.4531V18.3832L34.2139 17.413C34.5174 17.2381 34.8779 17.191 35.2161 17.282C35.5543 17.373 35.8425 17.5946 36.0174 17.8981C36.1922 18.2016 36.2393 18.5621 36.1483 18.9003C36.0574 19.2385 35.8357 19.5267 35.5323 19.7016L33.8555 20.6719L35.5322 21.6316ZM48.1885 21.6316C48.491 21.8073 48.7118 22.0955 48.8027 22.4334C48.8936 22.7713 48.8472 23.1314 48.6736 23.4352C48.5879 23.5863 48.4729 23.7188 48.3356 23.8252C48.1982 23.9315 48.041 24.0095 47.8732 24.0546C47.7055 24.0998 47.5304 24.1111 47.3582 24.0881C47.186 24.065 47.0201 24.008 46.8701 23.9203L45.1934 22.95V24.8906C45.1934 25.2403 45.0545 25.5756 44.8072 25.8228C44.56 26.0701 44.2247 26.209 43.875 26.209C43.5253 26.209 43.19 26.0701 42.9428 25.8228C42.6955 25.5756 42.5566 25.2403 42.5566 24.8906V22.95L40.8793 23.9203C40.7293 24.008 40.5634 24.065 40.3912 24.0881C40.219 24.1111 40.044 24.0998 39.8762 24.0546C39.7084 24.0095 39.5513 23.9315 39.4139 23.8252C39.2765 23.7188 39.1616 23.5863 39.0758 23.4352C38.9025 23.1313 38.8562 22.7713 38.9471 22.4335C39.0379 22.0957 39.2586 21.8075 39.561 21.6316L41.2383 20.6719L39.561 19.7016C39.2575 19.5267 39.0359 19.2385 38.9449 18.9003C38.8539 18.5621 38.901 18.2016 39.0759 17.8981C39.2507 17.5946 39.5389 17.373 39.8771 17.282C40.2153 17.191 40.5759 17.2381 40.8793 17.413L42.5566 18.3832V16.4531C42.5566 16.1035 42.6955 15.7681 42.9428 15.5209C43.19 15.2737 43.5253 15.1348 43.875 15.1348C44.2247 15.1348 44.56 15.2737 44.8072 15.5209C45.0545 15.7681 45.1934 16.1035 45.1934 16.4531V18.3832L46.8701 17.413C47.0204 17.3264 47.1863 17.2703 47.3582 17.2478C47.5302 17.2254 47.7049 17.237 47.8724 17.282C48.0398 17.3271 48.1968 17.4047 48.3343 17.5104C48.4717 17.6161 48.5871 17.7478 48.6736 17.8981C48.7602 18.0484 48.8163 18.2142 48.8388 18.3862C48.8612 18.5581 48.8496 18.7328 48.8046 18.9003C48.7595 19.0678 48.6819 19.2247 48.5762 19.3622C48.4705 19.4997 48.3388 19.615 48.1885 19.7016L46.5117 20.6719L48.1885 21.6316Z" fill="white"/>
</svg>
