<svg width="280" height="33" viewBox="0 0 280 33" fill="none" xmlns="http://www.w3.org/2000/svg">
<rect width="130" height="33" rx="16.5" fill="#0066B3"/>
<path fill-rule="evenodd" clip-rule="evenodd" d="M101.021 21.2794H102.551V11.3587H101.021V21.2794ZM114.8 14.9323L113.046 19.2335H112.994L111.174 14.9323H109.526L112.255 20.9437L110.699 24.2879H112.295L116.501 14.9323H114.8ZM106.125 20.1525C105.623 20.1525 104.924 19.9105 104.924 19.3105C104.924 18.5447 105.795 18.2511 106.546 18.2511C107.219 18.2511 107.535 18.3915 107.944 18.5828C107.825 19.5018 107.008 20.1525 106.125 20.1525ZM106.309 14.7156C105.202 14.7156 104.055 15.1878 103.58 16.2345L104.938 16.7829C105.228 16.2345 105.768 16.0552 106.335 16.0552C107.127 16.0552 107.931 16.5147 107.944 17.3321V17.4337C107.667 17.2805 107.074 17.0512 106.349 17.0512C104.885 17.0512 103.395 17.8297 103.395 19.2843C103.395 20.612 104.595 21.4675 105.939 21.4675C106.968 21.4675 107.535 21.0207 107.891 20.4969H107.944V21.2628H109.42V17.4599C109.42 15.6981 108.063 14.7156 106.309 14.7156ZM96.855 16.1401H94.6792V12.7396H96.855C97.9986 12.7396 98.6479 13.6562 98.6479 14.4394C98.6479 15.2084 97.9986 16.1401 96.855 16.1401ZM96.8156 11.3587H93.1502V21.2794H94.6792V17.521H96.8156C98.511 17.521 100.178 16.3322 100.178 14.4394C100.178 12.5467 98.511 11.3587 96.8156 11.3587ZM76.8276 20.1541C75.7708 20.1541 74.8862 19.2978 74.8862 18.1217C74.8862 16.9329 75.7708 16.0631 76.8276 16.0631C77.8712 16.0631 78.6894 16.9329 78.6894 18.1217C78.6894 19.2978 77.8712 20.1541 76.8276 20.1541ZM78.5836 15.4878H78.5311C78.1876 15.0918 77.5277 14.7339 76.6956 14.7339C74.9518 14.7339 73.354 16.2163 73.354 18.1217C73.354 20.0136 74.9518 21.4842 76.6956 21.4842C77.5277 21.4842 78.1876 21.1263 78.5311 20.7168H78.5836V21.2025C78.5836 22.4944 77.8712 23.1848 76.7218 23.1848C75.7839 23.1848 75.2027 22.5325 74.9649 21.9826L73.6311 22.5198C74.0139 23.415 75.0313 24.5141 76.7218 24.5141C78.518 24.5141 80.0372 23.4912 80.0372 20.9985V14.9378H78.5836V15.4878ZM81.0939 21.2794H82.6262V11.3579H81.0939V21.2794ZM84.8839 18.0066C84.8446 16.7028 85.9276 16.0377 86.7064 16.0377C87.3147 16.0377 87.8296 16.3314 88.0009 16.7536L84.8839 18.0066ZM89.6389 16.8813C89.3487 16.1274 88.4633 14.7339 86.6539 14.7339C84.8577 14.7339 83.3656 16.1012 83.3656 18.109C83.3656 20.0009 84.8446 21.4842 86.8253 21.4842C88.4239 21.4842 89.3487 20.5382 89.7315 19.9883L88.5428 19.2208C88.1468 19.7835 87.6049 20.1541 86.8253 20.1541C86.0465 20.1541 85.4914 19.8089 85.1348 19.132L89.7971 17.2654L89.6389 16.8813ZM52.4944 15.7695V17.2011H56.0336C55.9279 18.0066 55.6508 18.5947 55.2285 19.0042C54.7129 19.5026 53.907 20.0517 52.4944 20.0517C50.3154 20.0517 48.6109 18.3519 48.6109 16.2425C48.6109 14.1323 50.3154 12.4324 52.4944 12.4324C53.6701 12.4324 54.5284 12.88 55.1621 13.4554L56.2058 12.4451C55.3204 11.6269 54.1456 11 52.4944 11C49.5095 11 47 13.353 47 16.2425C47 19.132 49.5095 21.4842 52.4944 21.4842C54.1054 21.4842 55.3204 20.9731 56.2714 20.0136C57.2486 19.0677 57.5527 17.7384 57.5527 16.6639C57.5527 16.3314 57.5265 16.025 57.4732 15.7695H52.4944ZM61.5772 20.1541C60.5205 20.1541 59.6089 19.3105 59.6089 18.109C59.6089 16.894 60.5205 16.0631 61.5772 16.0631C62.6332 16.0631 63.5448 16.894 63.5448 18.109C63.5448 19.3105 62.6332 20.1541 61.5772 20.1541ZM61.5772 14.7339C59.6482 14.7339 58.0766 16.1528 58.0766 18.109C58.0766 20.0517 59.6482 21.4842 61.5772 21.4842C63.5055 21.4842 65.0771 20.0517 65.0771 18.109C65.0771 16.1528 63.5055 14.7339 61.5772 14.7339ZM69.2122 20.1541C68.1555 20.1541 67.2438 19.3105 67.2438 18.109C67.2438 16.894 68.1555 16.0631 69.2122 16.0631C70.269 16.0631 71.1798 16.894 71.1798 18.109C71.1798 19.3105 70.269 20.1541 69.2122 20.1541ZM69.2122 14.7339C67.284 14.7339 65.7124 16.1528 65.7124 18.109C65.7124 20.0517 67.284 21.4842 69.2122 21.4842C71.1405 21.4842 72.7121 20.0517 72.7121 18.109C72.7121 16.1528 71.1405 14.7339 69.2122 14.7339Z" fill="white"/>
<path d="M20.125 7.67782C20.125 7.22111 20.2472 6.88045 20.4413 6.65945L30.4932 16.5532V16.6848L20.4413 26.5785C20.2472 26.3575 20.125 26.0169 20.125 25.5602V7.67782Z" fill="white" stroke="#0066B3" stroke-width="0.25"/>
<path d="M37.9175 17.6481L37.9175 17.6482L33.9725 19.8417L30.7441 16.6803V16.5545L33.9741 13.3938L37.9175 15.5858C37.9175 15.5858 37.9175 15.5858 37.9175 15.5858C38.4593 15.8874 38.6991 16.2664 38.6991 16.6173C38.6991 16.9682 38.4594 17.347 37.9175 17.6481Z" fill="white" stroke="#0066B3" stroke-width="0.25"/>
<path d="M20.6606 26.9054L30.5761 16.7967L33.7945 20.0779L22.1033 26.8507C22.1033 26.8508 22.1033 26.8508 22.1033 26.8508C21.4958 27.2023 20.9876 27.176 20.6606 26.9054Z" fill="white" stroke="#0066B3" stroke-width="0.25"/>
<path d="M22.1033 6.38563C22.1033 6.38564 22.1033 6.38565 22.1033 6.38565L33.7945 13.1585L30.5761 16.4397L20.6606 6.33104C20.9876 6.06043 21.4958 6.03406 22.1033 6.38563Z" fill="white" stroke="#0066B3" stroke-width="0.25"/>
<rect x="150" width="130" height="33" rx="16.5" fill="#F5F5F5"/>
<path fill-rule="evenodd" clip-rule="evenodd" d="M187.094 16.5191C187.111 15.1315 187.838 13.8499 189.02 13.1232C188.271 12.0533 187.062 11.3993 185.758 11.3584C184.385 11.2143 183.055 12.1803 182.355 12.1803C181.642 12.1803 180.566 11.3727 179.406 11.3966C177.881 11.4459 176.493 12.2929 175.751 13.6277C174.17 16.3663 175.349 20.3912 176.863 22.6049C177.621 23.6889 178.506 24.8997 179.664 24.8568C180.798 24.8097 181.221 24.1334 182.59 24.1334C183.945 24.1334 184.343 24.8568 185.525 24.8295C186.741 24.8097 187.507 23.7407 188.238 22.6464C188.783 21.874 189.202 21.0204 189.479 20.1171C188.035 19.5056 187.095 18.0889 187.094 16.5191Z" fill="#221F20"/>
<path fill-rule="evenodd" clip-rule="evenodd" d="M184.745 10.0197C185.372 9.17693 185.681 8.09368 185.606 7C184.648 7.11265 183.764 7.62527 183.129 8.43572C182.502 9.23533 182.184 10.2814 182.246 11.3436C183.216 11.3548 184.137 10.8669 184.745 10.0197Z" fill="#221F20"/>
<path d="M210.926 13.793C212.817 13.793 214.064 15.2523 214.064 17.5063C214.064 19.7665 212.824 21.2187 210.954 21.2187C209.987 21.2681 209.077 20.7738 208.61 19.9462H208.574V23.5488H207.045V13.8691H208.525V15.0789H208.553C209.041 14.2564 209.953 13.7624 210.926 13.793ZM219.128 13.793C221.019 13.793 222.265 15.2523 222.265 17.5063C222.265 19.7665 221.026 21.2187 219.156 21.2187C218.189 21.2681 217.278 20.7738 216.811 19.9462H216.776V23.5488H215.246V13.8691H216.727V15.0789H216.755C217.243 14.2564 218.154 13.7624 219.128 13.793ZM230.109 11C232.268 11 233.749 12.1823 233.799 13.9036H232.255C232.162 12.908 231.319 12.3071 230.087 12.3071C228.855 12.3071 228.012 12.9151 228.012 13.8C228.012 14.5054 228.55 14.9204 229.867 15.2381L230.994 15.508C233.091 15.992 233.962 16.8143 233.962 18.2735C233.962 20.1399 232.439 21.3089 230.016 21.3089C227.75 21.3089 226.219 20.1674 226.12 18.3629L227.686 18.363C227.799 19.3523 228.784 20.0019 230.129 20.0019C231.419 20.0019 232.346 19.3523 232.346 18.4602C232.346 17.6859 231.787 17.2222 230.462 16.9045L229.138 16.593C227.261 16.1505 226.39 15.2938 226.39 13.9036C226.39 12.1823 227.926 11 230.109 11ZM243.035 13.7797C245.195 13.7797 246.57 15.2177 246.57 17.5063C246.57 19.8011 245.202 21.2329 243.035 21.2329C240.868 21.2329 239.501 19.8011 239.501 17.5063C239.501 15.2178 240.881 13.7797 243.035 13.7797ZM255.421 13.7797C257.482 13.7797 258.779 15.162 258.779 17.3674V17.8789H253.516V17.9691C253.467 18.5106 253.658 19.0467 254.042 19.4408C254.425 19.835 254.964 20.0494 255.52 20.0294C256.263 20.0972 256.962 19.6812 257.241 19.0063L258.694 19.0063C258.488 20.3267 257.17 21.2329 255.485 21.2329C253.317 21.2329 251.972 19.8152 251.972 17.5408C251.972 15.2593 253.324 13.7797 255.421 13.7797ZM237.263 12.1478V13.8691H238.68V15.0514H237.263V19.0612C237.263 19.6842 237.547 19.9744 238.17 19.9744C238.338 19.9716 238.506 19.9601 238.673 19.9399V21.1151C238.393 21.1662 238.108 21.1894 237.823 21.1842C236.314 21.1842 235.726 20.6311 235.726 19.2205V15.0514H234.643V13.8691H235.726V12.1478H237.263ZM202.404 11.1663L206.095 21.1426H204.416L203.482 18.4462H199.586L198.65 21.1426H197L200.69 11.1663H202.404ZM251.117 13.793C251.294 13.7924 251.469 13.8111 251.641 13.8487V15.2452C251.419 15.1788 251.187 15.1484 250.954 15.155C250.505 15.1372 250.069 15.3121 249.763 15.6338C249.456 15.9556 249.309 16.3919 249.36 16.8284V21.1426H247.831V13.8691H249.29V15.1071H249.325C249.528 14.3102 250.277 13.7617 251.117 13.793ZM243.035 15.0099C241.795 15.0099 241.059 15.9435 241.059 17.5063C241.059 19.0824 241.795 20.0019 243.035 20.0019C244.274 20.0019 245.011 19.0824 245.011 17.5063C245.011 15.9364 244.274 15.0099 243.035 15.0099ZM210.523 15.0656C209.354 15.0656 208.568 16.0541 208.568 17.5063C208.568 18.9718 209.354 19.9533 210.523 19.9533C211.712 19.9533 212.492 18.9922 212.492 17.5063C212.492 16.0337 211.712 15.0656 210.523 15.0656ZM218.724 15.0656C217.555 15.0656 216.769 16.0541 216.769 17.5063C216.769 18.9718 217.555 19.9533 218.724 19.9533C219.914 19.9533 220.693 18.9922 220.693 17.5063C220.693 16.0337 219.914 15.0656 218.724 15.0656ZM201.555 12.8257H201.512L199.989 17.2019H203.077L201.555 12.8257ZM255.421 14.9894C254.918 14.9865 254.434 15.1799 254.078 15.5265C253.721 15.8732 253.522 16.3444 253.523 16.8355H257.248C257.276 16.3489 257.095 15.8731 256.748 15.5227C256.401 15.1722 255.92 14.979 255.421 14.9894Z" fill="#221F20"/>
</svg>
