<svg width="512" height="512" viewBox="0 0 512 512" fill="none" xmlns="http://www.w3.org/2000/svg">
<path d="M175 259H209V436H306V336V236H175V259ZM231 259H282V335.75V412.5H231V344.25V259ZM256 0C112.449 0 0 112.449 0 256C0 306.69 10.812 350.987 32.159 387.829L0.026 511.974L124.171 479.841C161.013 501.187 205.31 512 256 512C399.551 512 512 399.552 512 256C512 112.448 399.551 0 256 0ZM256 484.852C173.723 484.852 129.527 447.392 124.171 445L42.5 469L61.5 383.852C59.1 378.478 31 338.3 31 256C31 134.879 134.878 23.8516 256 28.8516C377.122 28.8516 481.5 134.878 481.5 256C481.5 377.121 377.122 484.852 256 484.852ZM256 87C222.916 87 196 113.916 196 147C196 180.084 222.916 206 256 206C289.084 206 316 180.084 316 147C316 113.916 289.084 87 256 87ZM256 184.5C231 184.5 216 164.5 216 147C216 115.5 245.389 106.921 256 108C285.5 111 294 134 294 147C294 173.5 267.5 184.5 256 184.5Z" fill="url(#paint0_linear_6277_1738)"/>
<defs>
<linearGradient id="paint0_linear_6277_1738" x1="255.999" y1="-11.4632" x2="255.999" y2="513.786" gradientUnits="userSpaceOnUse">
<stop stop-color="#00EFD1"/>
<stop offset="1" stop-color="#00ACEA"/>
</linearGradient>
</defs>
</svg>
