<?xml version="1.0" encoding="UTF-8"?><svg id="Layer_1" xmlns="http://www.w3.org/2000/svg" viewBox="0 0 329.98 125.44"><defs><style>.cls-1{fill:#221f20;}.cls-2{fill:#0066b3;}</style></defs><g><path class="cls-1" d="M73.59,67.54c.75,.75,.75,1.5,0,2.25-6.64,6.64-15.75,10.82-26.14,10.82-21.42,0-38.56-17.03-38.56-38.56S26.02,3.38,47.45,3.38c10.39,0,19.5,4.18,26.14,10.82,.75,.75,.75,1.5,0,2.25l-7.07,7.61c-.64,.75-1.5,.75-2.25,.11-4.5-3.96-10.07-6.43-16.93-6.43-13.07,0-23.35,10.39-23.35,24.32s10.28,24.21,23.35,24.21c6.86,0,12.43-2.46,16.93-6.43,.75-.64,1.61-.64,2.25,.11l7.07,7.61Z"/><path class="cls-1" d="M129.61,47.73v29.89c0,.89-.72,1.61-1.61,1.61h-10.93c-.89,0-1.61-.72-1.61-1.61v-27.32c0-8.68-4.71-11.68-9.86-11.68-7.93,0-11.57,7.82-11.57,10.28v28.71c0,.89-.72,1.61-1.61,1.61h-10.93c-.89,0-1.61-.72-1.61-1.61V6.4c0-.89,.72-1.61,1.61-1.61h10.93c.89,0,1.61,.72,1.61,1.61v28.9c3.43-5.57,9-9.75,16.6-9.75,10.71,0,18.96,8.14,18.96,22.17Z"/><path class="cls-1" d="M136.58,53.08c0-15.43,12.11-27.53,27.21-27.53s27.21,12.1,27.21,27.53-12.1,27.53-27.21,27.53-27.21-12.11-27.21-27.53Zm40.81,0c0-8.46-6.11-14.46-13.6-14.46s-13.6,6-13.6,14.46,6,14.46,13.6,14.46,13.6-6,13.6-14.46Z"/><path class="cls-1" d="M197.27,11.2c0-4.28,3.43-7.82,7.82-7.82s7.71,3.53,7.71,7.82-3.43,7.82-7.71,7.82-7.82-3.54-7.82-7.82Zm2.36,15.53h10.93c.96,0,1.61,.64,1.61,1.61v49.28c0,.96-.64,1.61-1.61,1.61h-10.93c-.96,0-1.61-.64-1.61-1.61V28.34c0-.96,.64-1.61,1.61-1.61Z"/><path class="cls-1" d="M257.53,62.83c.86-.75,1.61-.75,2.36,0l6.53,6.21c.64,.64,.75,1.5,.11,2.25-4.93,5.68-12.21,9.32-20.57,9.32-15.1,0-26.78-12.11-26.78-27.53s11.68-27.53,26.78-27.53c8.14,0,15.32,3.64,20.25,9.32,.64,.75,.54,1.61-.11,2.25l-6.53,6.32c-.75,.75-1.5,.64-2.36-.11-3-2.68-6.11-4.71-10.93-4.71-7.93,0-13.5,6.21-13.5,14.46s5.57,14.46,13.5,14.46c5.03,0,8.25-2.04,11.25-4.71Z"/><path class="cls-1" d="M317.35,58.22h-33.64c1.39,6.96,6.75,10.93,15,10.93,4.18,0,7.5-1.07,11.14-3.64,.96-.64,1.61-.64,2.36,.11l4.71,4.61c.75,.75,.75,1.5-.11,2.36-5.03,5.03-11.89,8.03-19.5,8.03-16.39,0-27.64-12.11-27.64-27.53s11.25-27.53,26.46-27.53,24.96,12.1,24.96,26.35c0,4.18-.54,6.32-3.75,6.32Zm-33.85-9.21h25.07c-.96-7.39-6-11.46-12.32-11.46s-11.57,4.07-12.75,11.46Z"/></g><g><path class="cls-2" d="M93.64,95.44v1.66c0,.27-.18,.45-.45,.45h-4.73v18.09c0,.27-.18,.45-.45,.45h-1.9c-.27,0-.45-.18-.45-.45v-18.09h-4.73c-.27,0-.45-.18-.45-.45v-1.66c0-.27,.18-.45,.45-.45h12.27c.27,0,.45,.18,.45,.45Z"/><path class="cls-2" d="M108.81,106.95v8.68c0,.27-.18,.45-.45,.45h-1.81c-.27,0-.45-.18-.45-.45v-8.38c0-2.56-1.3-3.83-3.23-3.83-2.74,0-4.19,2.71-4.19,3.35v8.86c0,.27-.18,.45-.45,.45h-1.81c-.27,0-.45-.18-.45-.45v-21.11c0-.27,.18-.45,.45-.45h1.81c.27,0,.45,.18,.45,.45v9.26c1.06-1.57,2.68-2.8,4.92-2.8,3.08,0,5.22,2.02,5.22,5.97Z"/><path class="cls-2" d="M125.54,108.22c0,1.06-.12,1.57-.91,1.57h-10.67c.39,2.59,2.26,4.4,5.19,4.4,1.66,0,2.8-.57,3.8-1.36,.21-.18,.39-.24,.63-.03l.78,.72c.21,.24,.24,.45,0,.69-1.39,1.45-3.32,2.26-5.52,2.26-4.43,0-7.54-3.41-7.54-7.75s3.01-7.75,7.3-7.75,6.94,3.41,6.94,7.24Zm-11.58-.39h9.2c-.15-2.59-2.02-4.49-4.55-4.49s-4.34,1.84-4.64,4.49Z"/><path class="cls-2" d="M137.12,112.44c.75,.63,1.75,1.24,3.35,1.24,2.44,0,3.95-1.66,3.95-5.37v-12.87c0-.27,.18-.45,.45-.45h1.9c.27,0,.45,.18,.45,.45v12.97c0,5.58-2.62,7.96-6.69,7.96-2.32,0-4.07-.84-5.07-1.99-.18-.21-.18-.42-.03-.63l1.03-1.3c.18-.21,.42-.21,.66,0Z"/><path class="cls-2" d="M150.03,108.73c0-4.37,3.29-7.75,7.51-7.75s7.54,3.38,7.54,7.75-3.29,7.75-7.54,7.75-7.51-3.38-7.51-7.75Zm12.42,0c0-3.08-2.14-5.28-4.92-5.28s-4.92,2.2-4.92,5.28,2.17,5.28,4.92,5.28,4.92-2.2,4.92-5.28Z"/><path class="cls-2" d="M179.76,101.83l-7.78,19.63c-.09,.24-.3,.36-.54,.36h-1.81c-.33,0-.51-.18-.36-.51l2.08-5.16-5.67-14.32c-.12-.33,.03-.51,.36-.51h1.84c.24,0,.45,.12,.54,.36l4.28,11.31,4.28-11.31c.09-.24,.3-.36,.54-.36h1.87c.33,0,.48,.18,.36,.51Z"/><path class="cls-2" d="M187.6,108.73c0-4.37,3.29-7.75,7.51-7.75s7.54,3.38,7.54,7.75-3.29,7.75-7.54,7.75-7.51-3.38-7.51-7.75Zm12.42,0c0-3.08-2.14-5.28-4.92-5.28s-4.92,2.2-4.92,5.28,2.17,5.28,4.92,5.28,4.92-2.2,4.92-5.28Z"/><path class="cls-2" d="M214.71,96.1l-1,.96c-.18,.18-.24,.15-.39,.06-.75-.45-1.36-.81-2.23-.81-1.57,0-1.96,.75-1.96,2.05v2.95h2.96c.27,0,.45,.18,.45,.45v1.36c0,.27-.18,.45-.45,.45h-2.96v12.06c0,.27-.18,.45-.45,.45h-1.81c-.27,0-.45-.18-.45-.45v-12.06h-1.75c-.27,0-.45-.18-.45-.45v-1.36c0-.27,.18-.45,.45-.45h1.75v-3.17c0-2.8,1.51-4.25,4.46-4.25,1.75,0,3.08,.87,3.86,1.81,.12,.15,.09,.27-.03,.39Z"/><path class="cls-2" d="M235.33,113.98v1.66c0,.27-.18,.45-.45,.45h-10.58c-.27,0-.45-.18-.45-.45v-20.2c0-.27,.18-.45,.45-.45h10.55c.27,0,.45,.18,.45,.45v1.66c0,.27-.18,.45-.45,.45h-8.2v6.15h7.72c.27,0,.45,.18,.45,.45v1.66c0,.27-.18,.45-.45,.45h-7.72v7.27h8.23c.27,0,.45,.18,.45,.45Z"/><path class="cls-2" d="M252.76,101.77v13.87c0,.27-.18,.45-.45,.45h-1.66c-.27,0-.42-.18-.45-.45l-.12-1.66c-1.15,1.48-2.83,2.47-5,2.47-4.19,0-7.21-3.41-7.21-7.72s3.02-7.72,7.21-7.72c2.17,0,3.89,1.02,5.04,2.5l.09-1.75c.03-.27,.18-.45,.45-.45h1.66c.27,0,.45,.18,.45,.45Zm-2.59,6.93c0-2.86-2.05-5.25-4.82-5.25s-4.88,2.26-4.88,5.25,2.08,5.28,4.88,5.28,4.82-2.41,4.82-5.28Z"/><path class="cls-2" d="M264.01,102.04l-.57,1.36c-.12,.27-.3,.3-.6,.24-.27-.06-.57-.18-1.18-.18-1.84,0-3.23,1.39-3.23,3.29v8.89c0,.27-.18,.45-.45,.45h-1.81c-.27,0-.45-.18-.45-.45v-13.87c0-.27,.18-.45,.45-.45h1.66c.27,0,.42,.18,.45,.45l.12,1.36c.81-1.27,2.02-2.14,3.68-2.14,.75,0,1.42,.21,1.84,.54,.18,.12,.21,.27,.09,.51Z"/><path class="cls-2" d="M278.51,106.95v8.68c0,.27-.18,.45-.45,.45h-1.81c-.27,0-.45-.18-.45-.45v-8.38c0-2.56-1.3-3.83-3.23-3.83-2.74,0-4.19,2.71-4.19,3.35v8.86c0,.27-.18,.45-.45,.45h-1.81c-.27,0-.45-.18-.45-.45v-13.87c0-.27,.18-.45,.45-.45h1.69c.27,0,.42,.18,.45,.45l.12,2.02c1.06-1.57,2.68-2.8,4.92-2.8,3.08,0,5.22,2.02,5.22,5.97Z"/><path class="cls-2" d="M281.17,96.34c0-.93,.72-1.66,1.66-1.66s1.63,.72,1.63,1.66-.72,1.63-1.63,1.63-1.66-.72-1.66-1.63Zm.75,4.97h1.81c.27,0,.45,.18,.45,.45v13.87c0,.27-.18,.45-.45,.45h-1.81c-.27,0-.45-.18-.45-.45v-13.87c0-.27,.18-.45,.45-.45Z"/><path class="cls-2" d="M299.98,106.95v8.68c0,.27-.18,.45-.45,.45h-1.81c-.27,0-.45-.18-.45-.45v-8.38c0-2.56-1.3-3.83-3.23-3.83-2.74,0-4.19,2.71-4.19,3.35v8.86c0,.27-.18,.45-.45,.45h-1.81c-.27,0-.45-.18-.45-.45v-13.87c0-.27,.18-.45,.45-.45h1.69c.27,0,.42,.18,.45,.45l.12,2.02c1.05-1.57,2.68-2.8,4.91-2.8,3.08,0,5.22,2.02,5.22,5.97Z"/><path class="cls-2" d="M317.38,101.77v14.05c0,4.61-4.16,6.24-7.57,6.24-2.35,0-4.4-.6-5.82-1.54-.24-.15-.27-.39-.15-.63l.57-1.06c.15-.24,.36-.3,.6-.18,1.27,.66,2.65,1.09,4.61,1.09,2.38,0,5.16-1.03,5.16-3.95v-2.2c-1.15,1.51-2.83,2.56-5.1,2.56-4.19,0-7.21-3.41-7.21-7.57s3.01-7.57,7.21-7.57c2.17,0,3.89,1,5.04,2.47l.09-1.72c.03-.27,.18-.45,.45-.45h1.66c.27,0,.45,.18,.45,.45Zm-2.59,6.78c0-2.71-2.05-5.1-4.82-5.1s-4.88,2.26-4.88,5.1,2.08,5.13,4.88,5.13,4.82-2.41,4.82-5.13Z"/></g></svg>