<svg xmlns="http://www.w3.org/2000/svg" xmlns:xlink="http://www.w3.org/1999/xlink" width="80" height="82" viewBox="0 0 80 82">
  <defs>
    <linearGradient id="linear-gradient" x1="0.5" y1="-0.201" x2="0.5" y2="1" gradientUnits="objectBoundingBox">
      <stop offset="0" stop-color="#ffca05"/>
      <stop offset="1" stop-color="#ffca05" stop-opacity="0"/>
    </linearGradient>
  </defs>
  <g id="Group_20099" data-name="Group 20099" transform="translate(-640 -236)">
    <circle id="Ellipse_573" data-name="Ellipse 573" cx="40" cy="40" r="40" transform="translate(640 236)" opacity="0.3" fill="url(#linear-gradient)"/>
    <g id="Group_20094" data-name="Group 20094" transform="translate(979.243 -1496.773)">
      <path id="Path_26576" data-name="Path 26576" d="M-306.073,1815.671v43.71h25.809v-17.044h-.085a7.686,7.686,0,0,1-1.083-.01,1.777,1.777,0,0,0-1.619.67c-1.621,1.678-3.3,3.3-4.934,4.965a1.6,1.6,0,0,1-1.842.557,1.593,1.593,0,0,1-.946-1.736c.023-1.46.007-2.921.007-4.447-1.723,0-3.383,0-5.043,0a3.014,3.014,0,0,1-3.356-3.323q0-8.667,0-17.333a3.008,3.008,0,0,1,3.333-3.343q7.4,0,14.8,0h.767v0h0v-2.663Z" transform="translate(-17.475 -52.762)" fill="none"/>
      <path id="Path_26577" data-name="Path 26577" d="M-241.423,1776.763c.91.016,1.821,0,2.731,0s1.822.023,2.731-.011a2.674,2.674,0,0,0,1.081-.253,1.4,1.4,0,0,0,.655-1.6,1.469,1.469,0,0,0-1.519-1.146c-1.887-.016-3.775-.01-5.663,0a1.561,1.561,0,0,0-1.762,1.5C-243.174,1776.132-242.485,1776.743-241.423,1776.763Z" transform="translate(-71.976 -16.438)" fill="none"/>
      <path id="Path_26578" data-name="Path 26578" d="M-113.436,2015.268h0Z" transform="translate(-184.304 -225.695)" fill="none"/>
      <path id="Path_26579" data-name="Path 26579" d="M-235.839,2162.189q-2.831-.029-5.663,0a1.543,1.543,0,0,0-1.675,1.518,1.557,1.557,0,0,0,1.7,1.5c.932.013,1.865,0,2.8,0s1.865.009,2.8,0a1.557,1.557,0,0,0,1.708-1.487A1.538,1.538,0,0,0-235.839,2162.189Z" transform="translate(-71.969 -352.976)" fill="none"/>
      <path id="Path_26580" data-name="Path 26580" d="M-97.825,1885.631l-1.587-.932a16.225,16.225,0,0,0,1.745-1.048,2.507,2.507,0,0,0,.809-1.063,1.272,1.272,0,0,0-.522-1.469,1.469,1.469,0,0,0-1.69-.1c-.609.331-1.2.689-1.834,1.053-.031-.149-.039-.17-.039-.192-.005-.6,0-1.2-.015-1.8a1.485,1.485,0,0,0-1.5-1.659c-.9.005-1.464.642-1.476,1.681-.008.628,0,1.256,0,1.9a1.175,1.175,0,0,1-.231-.045c-.5-.283-1-.575-1.5-.855a1.528,1.528,0,0,0-2.215.422,1.541,1.541,0,0,0,.727,2.182c.539.322,1.081.639,1.7,1-.64.369-1.179.673-1.712.987a1.525,1.525,0,0,0-.729,2.132,1.5,1.5,0,0,0,2.191.484c.557-.307,1.108-.628,1.779-1.009,0,.79-.01,1.433,0,2.076a1.473,1.473,0,0,0,1.485,1.605,1.473,1.473,0,0,0,1.487-1.6c.013-.654,0-1.309,0-2.087.632.363,1.143.661,1.657.953.986.56,1.851.4,2.311-.414S-96.851,1886.2-97.825,1885.631Z" transform="translate(-188.998 -107.133)" fill="none"/>
      <path id="Path_26581" data-name="Path 26581" d="M9.965,1885.631l-1.587-.932a16.2,16.2,0,0,0,1.745-1.048,2.506,2.506,0,0,0,.809-1.063,1.272,1.272,0,0,0-.522-1.469,1.469,1.469,0,0,0-1.69-.1c-.609.331-1.2.689-1.887,1.083,0-.778.007-1.4,0-2.021a1.483,1.483,0,0,0-1.5-1.659c-.9.005-1.464.642-1.476,1.681-.008.628,0,1.256,0,1.991-.663-.378-1.2-.689-1.736-.99a1.528,1.528,0,0,0-2.215.422,1.541,1.541,0,0,0,.727,2.182c.539.322,1.081.639,1.63.963-.069.088-.079.111-.1.121-.517.3-1.036.6-1.551.9a1.526,1.526,0,0,0-.729,2.132,1.5,1.5,0,0,0,2.191.484c.557-.307,1.107-.628,1.779-1.009,0,.79-.01,1.433,0,2.076a1.49,1.49,0,1,0,2.972,0c.013-.654,0-1.309,0-2.087.631.363,1.143.661,1.657.953.985.56,1.851.4,2.311-.414S10.939,1886.2,9.965,1885.631Z" transform="translate(-282.388 -107.133)" fill="none"/>
      <path id="Path_26582" data-name="Path 26582" d="M-205.614,1885.631l-1.587-.932a16.224,16.224,0,0,0,1.745-1.048,2.507,2.507,0,0,0,.809-1.063,1.272,1.272,0,0,0-.522-1.469,1.468,1.468,0,0,0-1.689-.1c-.609.331-1.2.689-1.887,1.083,0-.778.007-1.4,0-2.021a1.483,1.483,0,0,0-1.5-1.659c-.9.005-1.464.642-1.476,1.681-.008.628,0,1.256,0,1.991-.663-.378-1.2-.689-1.736-.99a1.528,1.528,0,0,0-2.215.422,1.541,1.541,0,0,0,.727,2.182c.539.322,1.081.639,1.7,1-.641.369-1.179.673-1.712.987a1.525,1.525,0,0,0-.729,2.132,1.5,1.5,0,0,0,2.191.484c.557-.307,1.107-.628,1.779-1.009,0,.79-.01,1.433,0,2.076a1.473,1.473,0,0,0,1.485,1.605,1.473,1.473,0,0,0,1.487-1.6c.013-.654,0-1.309,0-2.087.632.364,1.143.661,1.657.953.985.56,1.851.4,2.311-.414S-204.64,1886.2-205.614,1885.631Z" transform="translate(-95.609 -107.133)" fill="none"/>
      <path id="Path_26583" data-name="Path 26583" d="M-297.74,1806.618h-25.809v-43.71h25.806v2.663h2.7c0-2.11,0-4.149,0-6.187,0-2.9-1.7-4.61-4.583-4.61q-11,0-22,0c-2.927,0-4.618,1.7-4.618,4.642q0,25.364,0,50.729c0,2.925,1.706,4.628,4.636,4.628h21.931c2.932,0,4.632-1.7,4.632-4.633q0-9.866,0-19.731v-.834h-2.7Zm-15.643-49.3c1.888-.006,3.775-.011,5.663,0a1.469,1.469,0,0,1,1.519,1.146,1.4,1.4,0,0,1-.655,1.6,2.672,2.672,0,0,1-1.081.253c-.909.035-1.821.012-2.731.012s-1.821.013-2.731,0c-1.062-.019-1.751-.63-1.746-1.516A1.561,1.561,0,0,1-313.383,1757.313Zm5.532,54.913c-.932.012-1.865,0-2.8,0s-1.866.01-2.8,0a1.556,1.556,0,0,1-1.7-1.5,1.543,1.543,0,0,1,1.675-1.518q2.831-.027,5.663,0a1.538,1.538,0,0,1,1.666,1.526A1.557,1.557,0,0,1-307.85,1812.226Z" transform="translate(0 0)" fill="#231f20"/>
      <path id="Path_26584" data-name="Path 26584" d="M-207.421,1835.616h-28.832q-7.4,0-14.8,0a3.008,3.008,0,0,0-3.333,3.343q0,8.666,0,17.333a3.014,3.014,0,0,0,3.356,3.323c1.66,0,3.32,0,5.043,0,0,1.526.016,2.987-.007,4.447a1.593,1.593,0,0,0,.946,1.736,1.6,1.6,0,0,0,1.842-.557c1.639-1.661,3.314-3.287,4.934-4.965a1.777,1.777,0,0,1,1.619-.67,7.667,7.667,0,0,0,1.083.01H-207.4a3.054,3.054,0,0,0,3.412-3.411q0-8.566,0-17.132C-203.987,1836.789-205.152,1835.616-207.421,1835.616Zm-30.71,15.129c-.46.818-1.325.974-2.311.414-.514-.292-1.025-.589-1.657-.953,0,.778.01,1.433,0,2.087a1.473,1.473,0,0,1-1.487,1.6,1.474,1.474,0,0,1-1.485-1.605c-.012-.643,0-1.286,0-2.076-.672.382-1.222.7-1.779,1.009a1.5,1.5,0,0,1-2.191-.484,1.525,1.525,0,0,1,.729-2.132c.533-.315,1.072-.619,1.712-.987-.614-.363-1.156-.68-1.7-1a1.541,1.541,0,0,1-.727-2.182,1.528,1.528,0,0,1,2.215-.422c.54.3,1.073.611,1.736.99,0-.735-.006-1.363,0-1.991.013-1.038.577-1.675,1.476-1.681a1.483,1.483,0,0,1,1.5,1.659c.009.621,0,1.242,0,2.021.685-.395,1.278-.753,1.887-1.083a1.468,1.468,0,0,1,1.689.1A1.272,1.272,0,0,1-238,1845.5a2.506,2.506,0,0,1-.809,1.063,16.225,16.225,0,0,1-1.745,1.048l1.587.932C-237.992,1849.111-237.678,1849.94-238.13,1850.745Zm14.4,0c-.46.818-1.325.974-2.311.414-.514-.292-1.025-.589-1.657-.953,0,.778.01,1.433,0,2.087a1.473,1.473,0,0,1-1.487,1.6,1.473,1.473,0,0,1-1.485-1.605c-.012-.643,0-1.286,0-2.076-.672.382-1.222.7-1.779,1.009a1.5,1.5,0,0,1-2.191-.484,1.525,1.525,0,0,1,.729-2.132c.533-.315,1.072-.619,1.712-.987-.614-.363-1.156-.68-1.7-1a1.541,1.541,0,0,1-.727-2.182,1.528,1.528,0,0,1,2.215-.422c.5.28,1,.571,1.5.855a1.165,1.165,0,0,0,.231.045c0-.645-.006-1.273,0-1.9.013-1.038.577-1.675,1.476-1.681a1.485,1.485,0,0,1,1.5,1.659c.01.6.01,1.2.015,1.8,0,.022.008.043.039.192.632-.364,1.225-.722,1.834-1.053a1.469,1.469,0,0,1,1.69.1,1.272,1.272,0,0,1,.522,1.469,2.506,2.506,0,0,1-.809,1.063,16.222,16.222,0,0,1-1.745,1.048l1.587.932C-223.592,1849.111-223.278,1849.94-223.731,1850.745Zm14.4,0c-.46.818-1.325.974-2.311.414-.514-.292-1.026-.59-1.657-.953,0,.778.01,1.432,0,2.087a1.473,1.473,0,0,1-1.487,1.6,1.474,1.474,0,0,1-1.485-1.605c-.012-.643,0-1.286,0-2.076-.672.382-1.222.7-1.779,1.009a1.5,1.5,0,0,1-2.191-.484,1.526,1.526,0,0,1,.729-2.132c.515-.305,1.034-.6,1.551-.9.017-.01.027-.033.1-.121-.549-.324-1.091-.641-1.63-.963a1.541,1.541,0,0,1-.727-2.182,1.528,1.528,0,0,1,2.215-.422c.54.3,1.073.611,1.736.99,0-.735-.006-1.363,0-1.991.013-1.038.577-1.675,1.476-1.681a1.483,1.483,0,0,1,1.5,1.659c.009.621,0,1.242,0,2.021.685-.395,1.278-.753,1.887-1.083a1.469,1.469,0,0,1,1.69.1,1.272,1.272,0,0,1,.522,1.469,2.5,2.5,0,0,1-.809,1.063,16.2,16.2,0,0,1-1.745,1.048l1.587.932C-209.192,1849.111-208.878,1849.94-209.331,1850.745Z" transform="translate(-62.257 -70.042)" fill="#0068b3"/>
    </g>
  </g>
</svg>
