<svg xmlns="http://www.w3.org/2000/svg" width="152" height="23" viewBox="0 0 152 23">
  <g id="Group_19936" data-name="Group 19936" transform="translate(-631.5 -3841)">
    <path id="Polygon_5" data-name="Polygon 5" d="M11.089,2.008a1,1,0,0,1,1.821,0l2.4,5.282a1,1,0,0,0,.8.58l5.738.665a1,1,0,0,1,.564,1.727l-4.265,3.946a1,1,0,0,0-.3.931l1.146,5.711a1,1,0,0,1-1.475,1.066l-5.016-2.852a1,1,0,0,0-.989,0L6.49,21.916A1,1,0,0,1,5.015,20.85l1.146-5.711a1,1,0,0,0-.3-.931L1.6,10.262A1,1,0,0,1,2.16,8.535L7.9,7.87a1,1,0,0,0,.8-.58Z" transform="translate(631.5 3841)" fill="#ffca05"/>
    <path id="Polygon_6" data-name="Polygon 6" d="M11.089,2.008a1,1,0,0,1,1.821,0l2.4,5.282a1,1,0,0,0,.8.58l5.738.665a1,1,0,0,1,.564,1.727l-4.265,3.946a1,1,0,0,0-.3.931l1.146,5.711a1,1,0,0,1-1.475,1.066l-5.016-2.852a1,1,0,0,0-.989,0L6.49,21.916A1,1,0,0,1,5.015,20.85l1.146-5.711a1,1,0,0,0-.3-.931L1.6,10.262A1,1,0,0,1,2.16,8.535L7.9,7.87a1,1,0,0,0,.8-.58Z" transform="translate(663.5 3841)" fill="#ffca05"/>
    <path id="Polygon_7" data-name="Polygon 7" d="M11.089,2.008a1,1,0,0,1,1.821,0l2.4,5.282a1,1,0,0,0,.8.58l5.738.665a1,1,0,0,1,.564,1.727l-4.265,3.946a1,1,0,0,0-.3.931l1.146,5.711a1,1,0,0,1-1.475,1.066l-5.016-2.852a1,1,0,0,0-.989,0L6.49,21.916A1,1,0,0,1,5.015,20.85l1.146-5.711a1,1,0,0,0-.3-.931L1.6,10.262A1,1,0,0,1,2.16,8.535L7.9,7.87a1,1,0,0,0,.8-.58Z" transform="translate(695.5 3841)" fill="#ffca05"/>
    <path id="Polygon_8" data-name="Polygon 8" d="M11.089,2.008a1,1,0,0,1,1.821,0l2.4,5.282a1,1,0,0,0,.8.58l5.738.665a1,1,0,0,1,.564,1.727l-4.265,3.946a1,1,0,0,0-.3.931l1.146,5.711a1,1,0,0,1-1.475,1.066l-5.016-2.852a1,1,0,0,0-.989,0L6.49,21.916A1,1,0,0,1,5.015,20.85l1.146-5.711a1,1,0,0,0-.3-.931L1.6,10.262A1,1,0,0,1,2.16,8.535L7.9,7.87a1,1,0,0,0,.8-.58Z" transform="translate(727.5 3841)" fill="#ffca05"/>
    <path id="Polygon_9" data-name="Polygon 9" d="M11.089,2.008a1,1,0,0,1,1.821,0l2.4,5.282a1,1,0,0,0,.8.58l5.738.665a1,1,0,0,1,.564,1.727l-4.265,3.946a1,1,0,0,0-.3.931l1.146,5.711a1,1,0,0,1-1.475,1.066l-5.016-2.852a1,1,0,0,0-.989,0L6.49,21.916A1,1,0,0,1,5.015,20.85l1.146-5.711a1,1,0,0,0-.3-.931L1.6,10.262A1,1,0,0,1,2.16,8.535L7.9,7.87a1,1,0,0,0,.8-.58Z" transform="translate(759.5 3841)" fill="#ffca05"/>
  </g>
</svg>
