<svg width="512" height="512" viewBox="0 0 512 512" fill="none" xmlns="http://www.w3.org/2000/svg">
<path d="M256 512C-85.3739 501.239 -85.2927 10.7099 256 0C597.374 10.7611 597.293 501.29 256 512ZM256 36.5714C-36.6054 45.7947 -36.5353 466.249 256 475.429C548.605 466.205 548.535 45.7509 256 36.5714ZM398.198 180.321L219.368 357.535C217.656 359.234 215.622 360.581 213.384 361.501C211.146 362.42 208.747 362.893 206.324 362.893C203.901 362.893 201.502 362.42 199.263 361.501C197.025 360.581 194.992 359.234 193.279 357.535L113.802 278.768C96.626 262.248 123.211 235.884 139.891 252.912L206.324 318.749L372.109 154.465C388.787 137.437 415.374 163.802 398.198 180.321Z" fill="url(#paint0_linear_6358_2084)"/>
<defs>
<linearGradient id="paint0_linear_6358_2084" x1="-0.00138289" y1="256" x2="512.001" y2="256" gradientUnits="userSpaceOnUse">
<stop stop-color="#0FDCDD"/>
<stop offset="1" stop-color="#46A1E8"/>
</linearGradient>
</defs>
</svg>
