<svg width="50" height="50" viewBox="0 0 50 50" fill="none" xmlns="http://www.w3.org/2000/svg">
<g clip-path="url(#clip0_813_495)">
<path d="M38.1543 25.9473V23.3984C38.1543 22.4902 37.4219 21.7578 36.5137 21.7578H33.8281C33.8965 21.5723 33.9453 21.3672 33.9453 21.1621V17.959C33.9453 17.7441 33.9062 17.5488 33.8281 17.3633H36.5137C37.4219 17.3633 38.1543 16.6309 38.1543 15.7227V12.5195C38.1543 12.3047 38.1152 12.1094 38.0371 11.9238H40.1855C41.0938 11.9238 41.8262 11.1914 41.8262 10.2832V7.08008C41.8262 6.17188 41.0938 5.43945 40.1855 5.43945H34.3652C34.4336 5.25391 34.4824 5.04883 34.4824 4.84375V1.64062C34.4824 0.732422 33.75 0 32.8418 0H7.69531C6.79688 0 6.05469 0.732422 6.05469 1.64062V4.84375C6.05469 5.75195 6.78711 6.48438 7.69531 6.48438H13.5156C13.4473 6.66992 13.3984 6.875 13.3984 7.08008V10.2832C13.3984 10.498 13.4375 10.6934 13.5156 10.8789H11.3672C10.459 10.8789 9.72656 11.6113 9.72656 12.5195V15.7227C9.72656 15.9375 9.76562 16.1328 9.84375 16.3184H7.16797C6.25977 16.3184 5.52734 17.0508 5.52734 17.959V21.1621C5.52734 22.0703 6.25977 22.8027 7.16797 22.8027H9.85352C9.78516 22.9883 9.73633 23.1934 9.73633 23.3984V26.6016C9.73633 26.8164 9.77539 27.0117 9.85352 27.1973H6.47461C5.56641 27.1973 4.83398 27.9297 4.83398 28.8379V32.041C4.83398 32.2559 4.87305 32.4512 4.95117 32.6367H2.08008C1.17187 32.6367 0.439453 33.3691 0.439453 34.2773V37.4805C0.439453 38.3887 1.17187 39.1211 2.08008 39.1211H4.95117C4.88281 39.3066 4.83398 39.5117 4.83398 39.7168V42.9199C4.83398 43.8281 5.56641 44.5605 6.47461 44.5605H9.22852C9.16016 44.7461 9.11133 44.9512 9.11133 45.1562V48.3594C9.11133 49.2676 9.84375 50 10.752 50H35.8984C36.0547 50 36.1914 49.9707 36.3379 49.9316C36.7578 49.9707 37.1777 50 37.5977 50C44.2383 50 49.6289 44.5996 49.6289 37.9688C49.6289 31.5137 44.5313 26.2402 38.1543 25.9473ZM36.5137 22.8027C36.8457 22.8027 37.1094 23.0664 37.1094 23.3984V25.9375C35.3613 26.0059 33.7012 26.4551 32.2168 27.1973H11.3672C11.0352 27.1973 10.7715 26.9336 10.7715 26.6016V23.3984C10.7715 23.0664 11.0352 22.8027 11.3672 22.8027H36.5137ZM40.1953 6.48438C40.5273 6.48438 40.791 6.74805 40.791 7.08008V10.2832C40.791 10.6152 40.5273 10.8789 40.1953 10.8789H15.0488C14.7168 10.8789 14.4531 10.6152 14.4531 10.2832V7.08008C14.4531 6.74805 14.7168 6.48438 15.0488 6.48438H40.1953ZM7.69531 5.43945C7.36328 5.43945 7.09961 5.17578 7.09961 4.84375V1.64062C7.09961 1.30859 7.36328 1.04492 7.69531 1.04492H32.8418C33.1738 1.04492 33.4375 1.30859 33.4375 1.64062V4.84375C33.4375 5.17578 33.1738 5.43945 32.8418 5.43945H7.69531ZM10.7715 12.5195C10.7715 12.1875 11.0352 11.9238 11.3672 11.9238H36.5137C36.8457 11.9238 37.1094 12.1875 37.1094 12.5195V15.7227C37.1094 16.0547 36.8457 16.3184 36.5137 16.3184H11.3672C11.0352 16.3184 10.7715 16.0547 10.7715 15.7227V12.5195ZM7.16797 21.7578C6.83594 21.7578 6.57227 21.4941 6.57227 21.1621V17.959C6.57227 17.627 6.83594 17.3633 7.16797 17.3633H32.3145C32.6465 17.3633 32.9102 17.627 32.9102 17.959V21.1621C32.9102 21.4941 32.6465 21.7578 32.3145 21.7578H7.16797ZM5.87891 28.8379C5.87891 28.5059 6.14258 28.2422 6.47461 28.2422H30.5176C28.9551 29.3848 27.6758 30.8887 26.8066 32.6367H6.47461C6.14258 32.6367 5.87891 32.373 5.87891 32.041V28.8379ZM2.08008 38.0762C1.74805 38.0762 1.48438 37.8125 1.48438 37.4805V34.2773C1.48438 33.9453 1.74805 33.6816 2.08008 33.6816H26.3477C25.8398 35.0098 25.5566 36.4551 25.5566 37.9688V38.0859H2.08008V38.0762ZM6.47461 43.5156C6.14258 43.5156 5.87891 43.252 5.87891 42.9199V39.7168C5.87891 39.3848 6.14258 39.1211 6.47461 39.1211H25.6152C25.7617 40.6934 26.2207 42.1777 26.9238 43.5156H6.47461ZM10.752 48.9551C10.4199 48.9551 10.1562 48.6914 10.1562 48.3594V45.1562C10.1562 44.8242 10.4199 44.5605 10.752 44.5605H27.5391C28.7988 46.4746 30.5957 48.0176 32.7148 48.9551H10.752ZM37.5977 48.9551C31.5332 48.9551 26.6016 44.0234 26.6016 37.959C26.6016 31.8945 31.5332 26.9629 37.5977 26.9629C43.6621 26.9629 48.5938 31.8945 48.5938 37.959C48.5938 44.0234 43.6621 48.9551 37.5977 48.9551ZM37.5977 29.0234C32.666 29.0234 28.6621 33.0371 28.6621 37.959C28.6621 42.8809 32.6758 46.8945 37.5977 46.8945C42.5195 46.8945 46.5332 42.8809 46.5332 37.959C46.5332 33.0371 42.5195 29.0234 37.5977 29.0234ZM37.5977 45.8594C33.2422 45.8594 29.6973 42.3145 29.6973 37.959C29.6973 33.6035 33.2422 30.0586 37.5977 30.0586C41.9531 30.0586 45.498 33.6035 45.498 37.959C45.498 42.3145 41.9531 45.8594 37.5977 45.8594ZM38.1543 25.9473V23.3984C38.1543 22.4902 37.4219 21.7578 36.5137 21.7578H33.8281C33.8965 21.5723 33.9453 21.3672 33.9453 21.1621V17.959C33.9453 17.7441 33.9062 17.5488 33.8281 17.3633H36.5137C37.4219 17.3633 38.1543 16.6309 38.1543 15.7227V12.5195C38.1543 12.3047 38.1152 12.1094 38.0371 11.9238H40.1855C41.0938 11.9238 41.8262 11.1914 41.8262 10.2832V7.08008C41.8262 6.17188 41.0938 5.43945 40.1855 5.43945H34.3652C34.4336 5.25391 34.4824 5.04883 34.4824 4.84375V1.64062C34.4824 0.732422 33.75 0 32.8418 0H7.69531C6.79688 0 6.05469 0.732422 6.05469 1.64062V4.84375C6.05469 5.75195 6.78711 6.48438 7.69531 6.48438H13.5156C13.4473 6.66992 13.3984 6.875 13.3984 7.08008V10.2832C13.3984 10.498 13.4375 10.6934 13.5156 10.8789H11.3672C10.459 10.8789 9.72656 11.6113 9.72656 12.5195V15.7227C9.72656 15.9375 9.76562 16.1328 9.84375 16.3184H7.16797C6.25977 16.3184 5.52734 17.0508 5.52734 17.959V21.1621C5.52734 22.0703 6.25977 22.8027 7.16797 22.8027H9.85352C9.78516 22.9883 9.73633 23.1934 9.73633 23.3984V26.6016C9.73633 26.8164 9.77539 27.0117 9.85352 27.1973H6.47461C5.56641 27.1973 4.83398 27.9297 4.83398 28.8379V32.041C4.83398 32.2559 4.87305 32.4512 4.95117 32.6367H2.08008C1.17187 32.6367 0.439453 33.3691 0.439453 34.2773V37.4805C0.439453 38.3887 1.17187 39.1211 2.08008 39.1211H4.95117C4.88281 39.3066 4.83398 39.5117 4.83398 39.7168V42.9199C4.83398 43.8281 5.56641 44.5605 6.47461 44.5605H9.22852C9.16016 44.7461 9.11133 44.9512 9.11133 45.1562V48.3594C9.11133 49.2676 9.84375 50 10.752 50H35.8984C36.0547 50 36.1914 49.9707 36.3379 49.9316C36.7578 49.9707 37.1777 50 37.5977 50C44.2383 50 49.6289 44.5996 49.6289 37.9688C49.6289 31.5137 44.5313 26.2402 38.1543 25.9473ZM36.5137 22.8027C36.8457 22.8027 37.1094 23.0664 37.1094 23.3984V25.9375C35.3613 26.0059 33.7012 26.4551 32.2168 27.1973H11.3672C11.0352 27.1973 10.7715 26.9336 10.7715 26.6016V23.3984C10.7715 23.0664 11.0352 22.8027 11.3672 22.8027H36.5137ZM40.1953 6.48438C40.5273 6.48438 40.791 6.74805 40.791 7.08008V10.2832C40.791 10.6152 40.5273 10.8789 40.1953 10.8789H15.0488C14.7168 10.8789 14.4531 10.6152 14.4531 10.2832V7.08008C14.4531 6.74805 14.7168 6.48438 15.0488 6.48438H40.1953ZM7.69531 5.43945C7.36328 5.43945 7.09961 5.17578 7.09961 4.84375V1.64062C7.09961 1.30859 7.36328 1.04492 7.69531 1.04492H32.8418C33.1738 1.04492 33.4375 1.30859 33.4375 1.64062V4.84375C33.4375 5.17578 33.1738 5.43945 32.8418 5.43945H7.69531ZM10.7715 12.5195C10.7715 12.1875 11.0352 11.9238 11.3672 11.9238H36.5137C36.8457 11.9238 37.1094 12.1875 37.1094 12.5195V15.7227C37.1094 16.0547 36.8457 16.3184 36.5137 16.3184H11.3672C11.0352 16.3184 10.7715 16.0547 10.7715 15.7227V12.5195ZM7.16797 21.7578C6.83594 21.7578 6.57227 21.4941 6.57227 21.1621V17.959C6.57227 17.627 6.83594 17.3633 7.16797 17.3633H32.3145C32.6465 17.3633 32.9102 17.627 32.9102 17.959V21.1621C32.9102 21.4941 32.6465 21.7578 32.3145 21.7578H7.16797ZM5.87891 28.8379C5.87891 28.5059 6.14258 28.2422 6.47461 28.2422H30.5176C28.9551 29.3848 27.6758 30.8887 26.8066 32.6367H6.47461C6.14258 32.6367 5.87891 32.373 5.87891 32.041V28.8379ZM2.08008 38.0762C1.74805 38.0762 1.48438 37.8125 1.48438 37.4805V34.2773C1.48438 33.9453 1.74805 33.6816 2.08008 33.6816H26.3477C25.8398 35.0098 25.5566 36.4551 25.5566 37.9688V38.0859H2.08008V38.0762ZM6.47461 43.5156C6.14258 43.5156 5.87891 43.252 5.87891 42.9199V39.7168C5.87891 39.3848 6.14258 39.1211 6.47461 39.1211H25.6152C25.7617 40.6934 26.2207 42.1777 26.9238 43.5156H6.47461ZM10.752 48.9551C10.4199 48.9551 10.1562 48.6914 10.1562 48.3594V45.1562C10.1562 44.8242 10.4199 44.5605 10.752 44.5605H27.5391C28.7988 46.4746 30.5957 48.0176 32.7148 48.9551H10.752ZM37.5977 48.9551C31.5332 48.9551 26.6016 44.0234 26.6016 37.959C26.6016 31.8945 31.5332 26.9629 37.5977 26.9629C43.6621 26.9629 48.5938 31.8945 48.5938 37.959C48.5938 44.0234 43.6621 48.9551 37.5977 48.9551ZM37.5977 29.0234C32.666 29.0234 28.6621 33.0371 28.6621 37.959C28.6621 42.8809 32.6758 46.8945 37.5977 46.8945C42.5195 46.8945 46.5332 42.8809 46.5332 37.959C46.5332 33.0371 42.5195 29.0234 37.5977 29.0234ZM37.5977 45.8594C33.2422 45.8594 29.6973 42.3145 29.6973 37.959C29.6973 33.6035 33.2422 30.0586 37.5977 30.0586C41.9531 30.0586 45.498 33.6035 45.498 37.959C45.498 42.3145 41.9531 45.8594 37.5977 45.8594Z" fill="url(#paint0_linear_813_495)"/>
<path d="M39.9202 35.241C40.0583 35.241 40.1907 35.1861 40.2883 35.0885C40.386 34.9909 40.4408 34.8585 40.4408 34.7204C40.4408 34.5823 40.386 34.4499 40.2883 34.3523C40.1907 34.2547 40.0583 34.1998 39.9202 34.1998H35.3521C35.2141 34.1998 35.0816 34.2547 34.984 34.3523C34.8864 34.4499 34.8315 34.5823 34.8315 34.7204C34.8315 34.8585 34.8864 34.9909 34.984 35.0885C35.0816 35.1861 35.2141 35.241 35.3521 35.241H36.6593C36.9479 35.2432 37.2294 35.3309 37.4681 35.493C37.7069 35.6552 37.8922 35.8845 38.0006 36.152H35.3521C35.2141 36.152 35.0816 36.2069 34.984 36.3045C34.8864 36.4021 34.8315 36.5345 34.8315 36.6726C34.8315 36.8107 34.8864 36.9431 34.984 37.0407C35.0816 37.1383 35.2141 37.1932 35.3521 37.1932H38.0006C37.7914 37.7788 37.2692 38.1042 36.659 38.1042H35.3521C35.247 38.1071 35.145 38.141 35.059 38.2016C34.973 38.2621 34.9068 38.3467 34.8687 38.4448C34.8305 38.5428 34.8221 38.6499 34.8445 38.7527C34.8669 38.8554 34.9191 38.9493 34.9946 39.0226L38.2616 42.1131C38.3109 42.1613 38.3693 42.1993 38.4333 42.2248C38.4974 42.2503 38.5659 42.2628 38.6349 42.2615C38.7038 42.2602 38.7718 42.2453 38.8349 42.2175C38.898 42.1897 38.9549 42.1496 39.0024 42.0995C39.0498 42.0495 39.0869 41.9905 39.1113 41.926C39.1357 41.8616 39.1471 41.7929 39.1447 41.7239C39.1423 41.655 39.1262 41.5873 39.0973 41.5246C39.0685 41.462 39.0275 41.4057 38.9767 41.3591L36.6609 39.1619C37.2281 39.1567 37.7767 38.9591 38.217 38.6014C38.6572 38.2438 38.963 37.7473 39.0844 37.1932H39.9202C40.0583 37.1932 40.1907 37.1383 40.2883 37.0407C40.386 36.9431 40.4408 36.8107 40.4408 36.6726C40.4408 36.5345 40.386 36.4021 40.2883 36.3045C40.1907 36.2069 40.0583 36.152 39.9202 36.152H39.0844C39.013 35.8235 38.8744 35.5133 38.6773 35.241H39.9202Z" fill="url(#paint1_linear_813_495)"/>
</g>
<defs>
<linearGradient id="paint0_linear_813_495" x1="25.0341" y1="-1.11945" x2="25.0341" y2="50.1744" gradientUnits="userSpaceOnUse">
<stop stop-color="#00EFD1"/>
<stop offset="1" stop-color="#00ACEA"/>
</linearGradient>
<linearGradient id="paint1_linear_813_495" x1="37.6362" y1="34.0193" x2="37.6362" y2="42.2897" gradientUnits="userSpaceOnUse">
<stop stop-color="#00EFD1"/>
<stop offset="1" stop-color="#00ACEA"/>
</linearGradient>
<clipPath id="clip0_813_495">
<rect width="50" height="50" fill="white"/>
</clipPath>
</defs>
</svg>
