<svg width="50" height="50" viewBox="0 0 50 50" fill="none" xmlns="http://www.w3.org/2000/svg">
<g clip-path="url(#clip0_813_485)">
<path d="M6.91628 20.3488H4.50465V15.2046C4.50465 15.0196 4.43115 14.8421 4.30031 14.7113C4.16947 14.5805 3.99201 14.507 3.80698 14.507C3.62194 14.507 3.44449 14.5805 3.31365 14.7113C3.18281 14.8421 3.1093 15.0196 3.1093 15.2046V20.3488H0.697674C0.51264 20.3488 0.335183 20.4223 0.204344 20.5532C0.0735048 20.684 0 20.8615 0 21.0465L0 40.5349C0 40.7199 0.0735048 40.8974 0.204344 41.0282C0.335183 41.159 0.51264 41.2325 0.697674 41.2325H3.1093V47.6744C3.1093 47.8594 3.18281 48.0369 3.31365 48.1677C3.44449 48.2986 3.62194 48.3721 3.80698 48.3721C3.99201 48.3721 4.16947 48.2986 4.30031 48.1677C4.43115 48.0369 4.50465 47.8594 4.50465 47.6744V41.2325H6.91628C7.10131 41.2325 7.27877 41.159 7.40961 41.0282C7.54045 40.8974 7.61395 40.7199 7.61395 40.5349V21.0465C7.61395 20.8615 7.54045 20.684 7.40961 20.5532C7.27877 20.4223 7.10131 20.3488 6.91628 20.3488V20.3488ZM6.21861 39.8372H1.39535V21.7442H6.21861V39.8372Z" fill="url(#paint0_linear_813_485)"/>
<path d="M17.5116 8.87441H15.1V0.790692C15.1 0.605657 15.0265 0.428201 14.8956 0.297362C14.7648 0.166522 14.5873 0.0930176 14.4023 0.0930176C14.2173 0.0930176 14.0398 0.166522 13.909 0.297362C13.7781 0.428201 13.7046 0.605657 13.7046 0.790692V8.87441H11.2953C11.1103 8.87441 10.9328 8.94792 10.802 9.07876C10.6712 9.2096 10.5977 9.38705 10.5977 9.57209V16.9302C10.5977 17.1153 10.6712 17.2927 10.802 17.4236C10.9328 17.5544 11.1103 17.6279 11.2953 17.6279H13.7046V41.7837C13.7046 41.9688 13.7781 42.1462 13.909 42.2771C14.0398 42.4079 14.2173 42.4814 14.4023 42.4814C14.5873 42.4814 14.7648 42.4079 14.8956 42.2771C15.0265 42.1462 15.1 41.9688 15.1 41.7837V17.6279H17.5116C17.6966 17.6279 17.8741 17.5544 18.0049 17.4236C18.1358 17.2927 18.2093 17.1153 18.2093 16.9302V9.57209C18.2093 9.38705 18.1358 9.2096 18.0049 9.07876C17.8741 8.94792 17.6966 8.87441 17.5116 8.87441V8.87441ZM16.8139 16.2326H11.993V10.2698H16.8139V16.2326Z" fill="url(#paint1_linear_813_485)"/>
<path d="M28.1091 15.5209H25.6975V4.76738C25.6975 4.58234 25.624 4.40489 25.4932 4.27405C25.3623 4.14321 25.1849 4.0697 24.9998 4.0697C24.8148 4.0697 24.6374 4.14321 24.5065 4.27405C24.3757 4.40489 24.3022 4.58234 24.3022 4.76738V15.5209H21.8905C21.7055 15.5209 21.5281 15.5944 21.3972 15.7252C21.2664 15.8561 21.1929 16.0335 21.1929 16.2185V36.9999C21.1929 37.185 21.2664 37.3624 21.3972 37.4933C21.5281 37.6241 21.7055 37.6976 21.8905 37.6976H24.3022V44.8511C24.3022 45.0361 24.3757 45.2136 24.5065 45.3444C24.6374 45.4753 24.8148 45.5488 24.9998 45.5488C25.1849 45.5488 25.3623 45.4753 25.4932 45.3444C25.624 45.2136 25.6975 45.0361 25.6975 44.8511V37.6976H28.1091C28.2942 37.6976 28.4716 37.6241 28.6025 37.4933C28.7333 37.3624 28.8068 37.185 28.8068 36.9999V16.2185C28.8068 16.0335 28.7333 15.8561 28.6025 15.7252C28.4716 15.5944 28.2942 15.5209 28.1091 15.5209V15.5209ZM27.4115 36.3023H22.5882V16.9162H27.4115V36.3023Z" fill="url(#paint2_linear_813_485)"/>
<path d="M38.7045 29.5116H36.2952V18.9023C36.2952 18.7172 36.2217 18.5398 36.0908 18.4089C35.96 18.2781 35.7825 18.2046 35.5975 18.2046C35.4125 18.2046 35.235 18.2781 35.1042 18.4089C34.9733 18.5398 34.8998 18.7172 34.8998 18.9023V29.5116H32.4882C32.3032 29.5116 32.1257 29.5851 31.9949 29.7159C31.864 29.8467 31.7905 30.0242 31.7905 30.2092V45.8139C31.7905 45.9989 31.864 46.1764 31.9949 46.3072C32.1257 46.4381 32.3032 46.5116 32.4882 46.5116H34.8998V49.2092C34.8998 49.3943 34.9733 49.5717 35.1042 49.7026C35.235 49.8334 35.4125 49.9069 35.5975 49.9069C35.7825 49.9069 35.96 49.8334 36.0908 49.7026C36.2217 49.5717 36.2952 49.3943 36.2952 49.2092V46.5116H38.7045C38.8895 46.5116 39.067 46.4381 39.1978 46.3072C39.3287 46.1764 39.4022 45.9989 39.4022 45.8139V30.2092C39.4022 30.0242 39.3287 29.8467 39.1978 29.7159C39.067 29.5851 38.8895 29.5116 38.7045 29.5116V29.5116ZM38.0068 45.1069H33.1859V30.9069H38.0068V45.1069Z" fill="url(#paint3_linear_813_485)"/>
<path d="M49.3025 19.8768H46.8909V5.18144C46.8909 4.9964 46.8174 4.81895 46.6865 4.68811C46.5557 4.55727 46.3782 4.48376 46.1932 4.48376C46.0082 4.48376 45.8307 4.55727 45.6999 4.68811C45.569 4.81895 45.4955 4.9964 45.4955 5.18144V19.8768H43.0839C42.8989 19.8768 42.7214 19.9503 42.5906 20.0811C42.4597 20.212 42.3862 20.3894 42.3862 20.5745V35.1745C42.3862 35.3595 42.4597 35.537 42.5906 35.6678C42.7214 35.7986 42.8989 35.8721 43.0839 35.8721H45.4955V44.8512C45.4955 45.0362 45.569 45.2137 45.6999 45.3445C45.8307 45.4754 46.0082 45.5489 46.1932 45.5489C46.3782 45.5489 46.5557 45.4754 46.6865 45.3445C46.8174 45.2137 46.8909 45.0362 46.8909 44.8512V35.8721H49.3025C49.4876 35.8721 49.665 35.7986 49.7958 35.6678C49.9267 35.537 50.0002 35.3595 50.0002 35.1745V20.5745C50.0002 20.3894 49.9267 20.212 49.7958 20.0811C49.665 19.9503 49.4876 19.8768 49.3025 19.8768V19.8768ZM48.6048 34.4768H43.7816V21.2721H48.6048V34.4768Z" fill="url(#paint4_linear_813_485)"/>
</g>
<defs>
<linearGradient id="paint0_linear_813_485" x1="3.80696" y1="13.7488" x2="3.80696" y2="48.4902" gradientUnits="userSpaceOnUse">
<stop stop-color="#00EFD1"/>
<stop offset="1" stop-color="#00ACEA"/>
</linearGradient>
<linearGradient id="paint1_linear_813_485" x1="14.4035" y1="-0.856017" x2="14.4035" y2="42.6292" gradientUnits="userSpaceOnUse">
<stop stop-color="#00EFD1"/>
<stop offset="1" stop-color="#00ACEA"/>
</linearGradient>
<linearGradient id="paint2_linear_813_485" x1="24.9998" y1="3.14103" x2="24.9998" y2="45.6934" gradientUnits="userSpaceOnUse">
<stop stop-color="#00EFD1"/>
<stop offset="1" stop-color="#00ACEA"/>
</linearGradient>
<linearGradient id="paint3_linear_813_485" x1="35.5963" y1="17.4948" x2="35.5963" y2="50.0175" gradientUnits="userSpaceOnUse">
<stop stop-color="#00EFD1"/>
<stop offset="1" stop-color="#00ACEA"/>
</linearGradient>
<linearGradient id="paint4_linear_813_485" x1="46.1932" y1="3.56436" x2="46.1932" y2="45.6921" gradientUnits="userSpaceOnUse">
<stop stop-color="#00EFD1"/>
<stop offset="1" stop-color="#00ACEA"/>
</linearGradient>
<clipPath id="clip0_813_485">
<rect width="50" height="50" fill="white"/>
</clipPath>
</defs>
</svg>
