<svg width="50" height="50" viewBox="0 0 50 50" fill="none" xmlns="http://www.w3.org/2000/svg">
<path d="M46.0938 17.1875C46.301 17.1875 46.4997 17.1052 46.6462 16.9587C46.7927 16.8122 46.875 16.6135 46.875 16.4063V14.0625H48.4375C48.6447 14.0625 48.8434 13.9802 48.9899 13.8337C49.1364 13.6872 49.2188 13.4885 49.2188 13.2813V8.59375C49.2187 8.42579 49.1645 8.26232 49.0643 8.12758C48.964 7.99283 48.823 7.89399 48.6621 7.8457L25.2246 0.814452C25.0781 0.770508 24.9219 0.770508 24.7754 0.814452L1.33789 7.8457C1.17702 7.89399 1.036 7.99283 0.935737 8.12758C0.83547 8.26232 0.781297 8.42579 0.78125 8.59375V13.2813C0.78125 13.4885 0.86356 13.6872 1.01007 13.8337C1.15659 13.9802 1.3553 14.0625 1.5625 14.0625H3.125V16.4063C3.125 16.6135 3.20731 16.8122 3.35382 16.9587C3.50034 17.1052 3.69905 17.1875 3.90625 17.1875H4.6875V40.625H3.125C2.9178 40.625 2.71909 40.7073 2.57257 40.8538C2.42606 41.0003 2.34375 41.1991 2.34375 41.4063V42.9688H1.5625C1.3553 42.9688 1.15659 43.0511 1.01007 43.1976C0.86356 43.3441 0.78125 43.5428 0.78125 43.75V48.4375C0.78125 48.6447 0.86356 48.8434 1.01007 48.9899C1.15659 49.1364 1.3553 49.2188 1.5625 49.2188H48.4375C48.6447 49.2188 48.8434 49.1364 48.9899 48.9899C49.1364 48.8434 49.2188 48.6447 49.2188 48.4375V43.75C49.2188 43.5428 49.1364 43.3441 48.9899 43.1976C48.8434 43.0511 48.6447 42.9688 48.4375 42.9688H46.875V41.4063C46.875 41.1991 46.7927 41.0003 46.6462 40.8538C46.4997 40.7073 46.301 40.625 46.0938 40.625H44.5312V17.1875H46.0938ZM2.34375 12.5V9.1748L25 2.37793L47.6562 9.1748V12.5H2.34375ZM3.90625 42.1875H11.7188V42.9688H3.90625V42.1875ZM6.25 40.625V17.1875H9.375V40.625H6.25ZM28.9062 42.1875V42.9688H21.0938V42.1875H28.9062ZM23.4375 40.625V17.1875H26.5625V40.625H23.4375ZM29.6875 40.625H28.125V17.1875H38.2812V40.625H36.7188C36.5115 40.625 36.3128 40.7073 36.1663 40.8538C36.0198 41.0003 35.9375 41.1991 35.9375 41.4063V42.9688H30.4688V41.4063C30.4688 41.1991 30.3864 41.0003 30.2399 40.8538C30.0934 40.7073 29.8947 40.625 29.6875 40.625ZM21.875 40.625H20.3125C20.1053 40.625 19.9066 40.7073 19.7601 40.8538C19.6136 41.0003 19.5312 41.1991 19.5312 41.4063V42.9688H13.2812V41.4063C13.2812 41.1991 13.1989 41.0003 13.0524 40.8538C12.9059 40.7073 12.7072 40.625 12.5 40.625H10.9375V17.1875H21.875V40.625ZM47.6562 44.5313V47.6563H2.34375V44.5313H47.6562ZM45.3125 42.1875V42.9688H37.5V42.1875H45.3125ZM39.8438 40.625V17.1875H42.9688V40.625H39.8438ZM4.6875 15.625V14.0625H45.3125V15.625H4.6875Z" fill="url(#paint0_linear_808_33088)"/>
<defs>
<linearGradient id="paint0_linear_808_33088" x1="24.9999" y1="-0.30297" x2="24.9999" y2="49.3877" gradientUnits="userSpaceOnUse">
<stop stop-color="#00EFD1"/>
<stop offset="1" stop-color="#00ACEA"/>
</linearGradient>
</defs>
</svg>
