<svg width="50" height="50" viewBox="0 0 50 50" fill="none" xmlns="http://www.w3.org/2000/svg">
<path d="M25 2.75391C22.0262 2.75205 19.0813 3.3364 16.3335 4.47354C13.5857 5.61069 11.0891 7.27832 8.98627 9.38108C6.88348 11.4838 5.21582 13.9805 4.07864 16.7282C2.94146 19.476 2.35707 22.421 2.35889 25.3947C2.35885 25.5846 2.42796 25.768 2.55329 25.9106C2.67862 26.0532 2.8516 26.1453 3.0399 26.1697C3.2282 26.194 3.41892 26.149 3.57642 26.043C3.73392 25.9369 3.84742 25.7772 3.89571 25.5936C4.04942 25.0096 4.59424 23.3439 5.27266 22.6069C6.21905 21.724 7.3709 21.2575 8.60528 21.2575C9.84685 21.2514 11.0411 21.7332 11.9309 22.5992C12.8195 23.5474 13.2891 24.7027 13.2891 25.9412C13.2891 26.1484 13.3714 26.3471 13.5179 26.4936C13.6644 26.6402 13.8631 26.7225 14.0703 26.7225C14.2775 26.7225 14.4762 26.6402 14.6227 26.4936C14.7693 26.3471 14.8516 26.1484 14.8516 25.9412C14.8516 24.7064 15.3183 23.5543 16.2018 22.6077C17.1483 21.7243 18.3005 21.2575 19.5353 21.2575C20.7768 21.2514 21.9711 21.7332 22.8607 22.5992C23.7494 23.5474 24.2189 24.7027 24.2189 25.9412V42.2147C24.2189 43.1341 23.8537 44.0159 23.2035 44.666C22.5534 45.3162 21.6716 45.6815 20.7522 45.6815C19.8327 45.6815 18.9509 45.3162 18.3008 44.666C17.6506 44.0159 17.2854 43.1341 17.2854 42.2147V40.1805C17.2854 39.9733 17.203 39.7746 17.0565 39.628C16.91 39.4815 16.7113 39.3992 16.5041 39.3992C16.2969 39.3992 16.0982 39.4815 15.9517 39.628C15.8052 39.7746 15.7229 39.9733 15.7229 40.1805V42.2147C15.7229 43.5485 16.2527 44.8277 17.1959 45.7709C18.1391 46.7141 19.4183 47.244 20.7522 47.244C22.086 47.244 23.3652 46.7141 24.3084 45.7709C25.2516 44.8277 25.7814 43.5485 25.7814 42.2147V25.9412C25.7814 24.7065 26.2482 23.5542 27.1317 22.6076C28.0782 21.7243 29.2305 21.2575 30.4651 21.2575C31.7067 21.2514 32.901 21.7333 33.7907 22.5992C34.6794 23.5474 35.1488 24.7027 35.1488 25.9412C35.1488 26.1484 35.2311 26.3471 35.3777 26.4936C35.5242 26.6402 35.7229 26.7225 35.9301 26.7225C36.1373 26.7225 36.336 26.6402 36.4825 26.4936C36.629 26.3471 36.7113 26.1484 36.7113 25.9412C36.7113 24.7065 37.1781 23.5543 38.0616 22.6077C39.0081 21.7243 40.1603 21.2575 41.3951 21.2575C42.6365 21.2514 43.8306 21.7331 44.7202 22.5988C45.3991 23.3284 45.9494 25.0066 46.1045 25.5936C46.1528 25.7772 46.2663 25.9369 46.4238 26.043C46.5813 26.149 46.772 26.194 46.9603 26.1697C47.1486 26.1453 47.3216 26.0532 47.4469 25.9106C47.5722 25.768 47.6413 25.5846 47.6413 25.3947C47.6431 22.4209 47.0587 19.476 45.9215 16.7282C44.7844 13.9804 43.1167 11.4838 41.0139 9.38102C38.911 7.27825 36.4144 5.61062 33.6666 4.47349C30.9188 3.33635 27.9738 2.75202 25 2.75391V2.75391ZM41.3949 19.6953C39.7472 19.6953 38.2183 20.3147 36.9732 21.4864C36.9617 21.4972 36.9506 21.5084 36.9397 21.5198C36.5467 21.935 36.2074 22.398 35.9299 22.8978C35.6524 22.3979 35.3131 21.935 34.92 21.5198C34.9146 21.5141 34.9092 21.5085 34.9036 21.5029C33.7196 20.3397 32.1247 19.6902 30.4649 19.6953C28.8173 19.6953 27.2883 20.3147 26.0434 21.4864C26.0318 21.4972 26.0207 21.5084 26.0099 21.5198C25.7453 21.8005 25.5045 22.1027 25.2899 22.4232C25.1039 22.3482 24.8961 22.3482 24.7101 22.4232C24.4955 22.1027 24.2547 21.8005 23.9901 21.5198C23.9848 21.5142 23.9792 21.5085 23.9736 21.5029C22.7897 20.3397 21.1948 19.6902 19.5351 19.6953C17.8874 19.6953 16.3584 20.3147 15.1134 21.4864C15.102 21.4972 15.0907 21.5084 15.08 21.5198C14.6869 21.935 14.3476 22.3979 14.0701 22.8978C13.7926 22.398 13.4533 21.935 13.0603 21.5198C13.0548 21.5142 13.0493 21.5085 13.0438 21.5029C11.8798 20.3659 10.3238 19.7191 8.69686 19.696C7.0699 19.6729 5.49614 20.2752 4.30039 21.3787C5.03117 17.6233 6.76968 14.1374 9.32974 11.2943C11.8898 8.45122 15.175 6.35802 18.8335 5.23889C22.492 4.11976 26.386 4.01685 30.0985 4.94117C33.811 5.86549 37.2022 7.78224 39.9089 10.4861C42.8886 13.4507 44.906 17.2441 45.6983 21.372C44.5268 20.2902 42.9896 19.6912 41.3949 19.695V19.6953Z" fill="url(#paint0_linear_809_1760)"/>
<defs>
<linearGradient id="paint0_linear_809_1760" x1="25" y1="1.75782" x2="25" y2="47.3991" gradientUnits="userSpaceOnUse">
<stop stop-color="#00EFD1"/>
<stop offset="1" stop-color="#00ACEA"/>
</linearGradient>
</defs>
</svg>
