<svg width="50" height="51" viewBox="0 0 50 51" fill="none" xmlns="http://www.w3.org/2000/svg">
<g clip-path="url(#clip0_809_1762)">
<path d="M40.5703 30.8094L34.8895 35.0576C33.7363 33.6198 31.8927 32.9233 30.0767 33.2393L24.3206 34.2462C23.394 34.4072 22.4433 34.3574 21.5383 34.1009L20.8944 33.9178C17.5692 32.963 13.9866 33.7268 11.3399 35.9547L11.0783 34.4584C11.011 34.0728 10.6438 33.8149 10.2587 33.8823L3.94634 34.9865C3.56073 35.0539 3.30288 35.421 3.37069 35.8066L5.79322 49.6574C5.82551 49.8428 5.93021 50.0075 6.08381 50.1158C6.23787 50.2238 6.42837 50.2662 6.61334 50.2335L12.9252 49.1292C13.3104 49.0619 13.5682 48.6947 13.5009 48.3096L13.3708 47.5674L14.8722 46.3483C15.4617 45.8575 16.2191 45.6149 16.9843 45.6725L27.2768 46.4248C27.2925 46.4262 27.3087 46.4267 27.3239 46.4267C29.6025 46.4345 31.8244 45.7145 33.6653 44.3713C33.692 44.3515 33.7179 44.3298 33.7418 44.3063L46.0017 32.302C46.2696 32.04 46.2867 31.6143 46.0413 31.331C44.6492 29.7249 42.241 29.4952 40.5703 30.8094ZM7.06722 48.715L4.88823 36.2601L9.80479 35.4003L11.9833 47.8552L7.06722 48.715ZM32.788 43.2578C31.2077 44.3999 29.3064 45.0134 27.3562 45.0097L17.0876 44.2592C15.9603 44.1739 14.8436 44.53 13.9737 45.2523L13.0917 45.9687L11.63 37.6125C13.9377 35.267 17.3441 34.3721 20.5065 35.2803L21.1504 35.4635C22.2606 35.778 23.4276 35.8389 24.5651 35.6415L30.3207 34.6346C32.0296 34.3385 33.71 35.2877 34.3387 36.904L25.6431 38.4248C25.2579 38.4921 25.0001 38.8593 25.0674 39.2449C25.1347 39.6305 25.5019 39.8883 25.8875 39.8205L35.3489 38.1655C35.7345 38.0982 35.9923 37.731 35.9245 37.3454C35.8609 36.9815 35.7571 36.6254 35.6155 36.2841L41.426 31.9385C41.4306 31.9348 41.4356 31.9311 41.4407 31.927C42.319 31.2319 43.5464 31.1867 44.473 31.8154L32.788 43.2578Z" fill="url(#paint0_linear_809_1762)"/>
<path d="M28.9959 7.42985C29.3312 7.42985 29.6031 7.15786 29.6031 6.82261V0.851384C29.6031 0.516135 29.3312 0.244141 28.9959 0.244141C28.6607 0.244141 28.3887 0.516135 28.3887 0.851384V6.82261C28.3887 7.15786 28.6607 7.42985 28.9959 7.42985Z" fill="url(#paint1_linear_809_1762)"/>
<path d="M32.9432 7.42989C33.2784 7.42989 33.5504 7.15789 33.5504 6.82265V2.77436C33.5504 2.43911 33.2784 2.16711 32.9432 2.16711C32.6079 2.16711 32.3359 2.43911 32.3359 2.77436V6.82265C32.3359 7.15789 32.6079 7.42989 32.9432 7.42989Z" fill="url(#paint2_linear_809_1762)"/>
<path d="M25.1502 7.42989C25.4855 7.42989 25.7575 7.15789 25.7575 6.82265V2.77436C25.7575 2.43911 25.4855 2.16711 25.1502 2.16711C24.815 2.16711 24.543 2.43911 24.543 2.77436V6.82265C24.543 7.15789 24.815 7.42989 25.1502 7.42989Z" fill="url(#paint3_linear_809_1762)"/>
<path d="M35.7772 8.44188C36.1124 8.44188 36.3844 8.16988 36.3844 7.83463V4.69721C36.3844 4.36196 36.1124 4.08997 35.7772 4.08997C35.4419 4.08997 35.1699 4.36196 35.1699 4.69721V7.83463C35.1699 8.16988 35.4419 8.44188 35.7772 8.44188Z" fill="url(#paint4_linear_809_1762)"/>
<path d="M22.2152 8.44188C22.5504 8.44188 22.8224 8.16988 22.8224 7.83463V4.69721C22.8224 4.36196 22.5504 4.08997 22.2152 4.08997C21.8799 4.08997 21.6079 4.36196 21.6079 4.69721V7.83463C21.6079 8.16988 21.8799 8.44188 22.2152 8.44188Z" fill="url(#paint5_linear_809_1762)"/>
<path d="M28.9963 9.87048C26.8687 9.87048 24.7888 10.5014 23.0197 11.6835C21.2507 12.8655 19.8719 14.5456 19.0576 16.5113C18.2434 18.477 18.0304 20.6399 18.4455 22.7267C18.8606 24.8135 19.8851 26.7303 21.3896 28.2347C22.894 29.7392 24.8109 30.7637 26.8976 31.1788C28.9844 31.5939 31.1473 31.3809 33.113 30.5667C35.0787 29.7525 36.7588 28.3736 37.9408 26.6046C39.1229 24.8355 39.7538 22.7556 39.7538 20.628C39.7506 17.7759 38.6162 15.0416 36.5995 13.0248C34.5827 11.0081 31.8484 9.87369 28.9963 9.87048V9.87048ZM28.9963 29.823C27.1777 29.823 25.3999 29.2838 23.8878 28.2734C22.3757 27.263 21.1972 25.827 20.5012 24.1468C19.8053 22.4666 19.6232 20.6178 19.978 18.8341C20.3327 17.0505 21.2085 15.4121 22.4944 14.1261C23.7804 12.8402 25.4188 11.9645 27.2024 11.6097C28.9861 11.2549 30.8349 11.437 32.5151 12.1329C34.1952 12.8289 35.6313 14.0074 36.6417 15.5195C37.652 17.0316 38.1913 18.8094 38.1913 20.628C38.1885 23.0658 37.2189 25.403 35.4951 27.1268C33.7713 28.8506 31.4341 29.8203 28.9963 29.823V29.823Z" fill="url(#paint6_linear_809_1762)"/>
<path d="M32.4238 16.1359C32.631 16.1359 32.8297 16.0536 32.9763 15.907C33.1228 15.7605 33.2051 15.5618 33.2051 15.3546C33.2051 15.1474 33.1228 14.9487 32.9763 14.8022C32.8297 14.6557 32.631 14.5734 32.4238 14.5734H25.5684C25.3612 14.5734 25.1624 14.6557 25.0159 14.8022C24.8694 14.9487 24.7871 15.1474 24.7871 15.3546C24.7871 15.5618 24.8694 15.7605 25.0159 15.907C25.1624 16.0536 25.3612 16.1359 25.5684 16.1359H27.5301C27.9632 16.1391 28.3856 16.2707 28.7439 16.5141C29.1022 16.7575 29.3803 17.1016 29.543 17.5031H25.5684C25.3612 17.5031 25.1624 17.5854 25.0159 17.7319C24.8694 17.8784 24.7871 18.0771 24.7871 18.2843C24.7871 18.4915 24.8694 18.6902 25.0159 18.8367C25.1624 18.9832 25.3612 19.0656 25.5684 19.0656H29.543C29.2291 19.9445 28.4453 20.4327 27.5297 20.4327H25.5684C25.4106 20.4371 25.2576 20.488 25.1285 20.5789C24.9994 20.6698 24.9001 20.7967 24.8428 20.9438C24.7855 21.0909 24.7729 21.2517 24.8066 21.4059C24.8402 21.5601 24.9185 21.701 25.0318 21.811L29.9348 26.449C30.0087 26.5214 30.0962 26.5784 30.1924 26.6167C30.2886 26.6549 30.3914 26.6736 30.4948 26.6717C30.5983 26.6699 30.7004 26.6474 30.7951 26.6057C30.8898 26.5639 30.9752 26.5038 31.0464 26.4287C31.1176 26.3536 31.1732 26.2651 31.2098 26.1683C31.2465 26.0715 31.2635 25.9684 31.2599 25.865C31.2563 25.7616 31.2322 25.6599 31.1889 25.5659C31.1456 25.4719 31.0841 25.3875 31.0078 25.3175L27.5324 22.0201C28.3836 22.0123 29.207 21.7157 29.8677 21.179C30.5284 20.6422 30.9874 19.8971 31.1694 19.0656H32.4238C32.631 19.0656 32.8297 18.9832 32.9763 18.8367C33.1228 18.6902 33.2051 18.4915 33.2051 18.2843C33.2051 18.0771 33.1228 17.8784 32.9763 17.7319C32.8297 17.5854 32.631 17.5031 32.4238 17.5031H31.1694C31.0623 17.0101 30.8543 16.5446 30.5586 16.1359H32.4238Z" fill="url(#paint7_linear_809_1762)"/>
</g>
<defs>
<linearGradient id="paint0_linear_809_1762" x1="24.7871" y1="29.5028" x2="24.7871" y2="50.315" gradientUnits="userSpaceOnUse">
<stop stop-color="#00EFD1"/>
<stop offset="1" stop-color="#00ACEA"/>
</linearGradient>
<linearGradient id="paint1_linear_809_1762" x1="28.9959" y1="0.0832595" x2="28.9959" y2="7.45491" gradientUnits="userSpaceOnUse">
<stop stop-color="#00EFD1"/>
<stop offset="1" stop-color="#00ACEA"/>
</linearGradient>
<linearGradient id="paint2_linear_809_1762" x1="32.9432" y1="2.04929" x2="32.9432" y2="7.44824" gradientUnits="userSpaceOnUse">
<stop stop-color="#00EFD1"/>
<stop offset="1" stop-color="#00ACEA"/>
</linearGradient>
<linearGradient id="paint3_linear_809_1762" x1="25.1502" y1="2.04929" x2="25.1502" y2="7.44824" gradientUnits="userSpaceOnUse">
<stop stop-color="#00EFD1"/>
<stop offset="1" stop-color="#00ACEA"/>
</linearGradient>
<linearGradient id="paint4_linear_809_1762" x1="35.7772" y1="3.99253" x2="35.7772" y2="8.45706" gradientUnits="userSpaceOnUse">
<stop stop-color="#00EFD1"/>
<stop offset="1" stop-color="#00ACEA"/>
</linearGradient>
<linearGradient id="paint5_linear_809_1762" x1="22.2151" y1="3.99253" x2="22.2151" y2="8.45706" gradientUnits="userSpaceOnUse">
<stop stop-color="#00EFD1"/>
<stop offset="1" stop-color="#00ACEA"/>
</linearGradient>
<linearGradient id="paint6_linear_809_1762" x1="28.9962" y1="9.38878" x2="28.9962" y2="31.4606" gradientUnits="userSpaceOnUse">
<stop stop-color="#00EFD1"/>
<stop offset="1" stop-color="#00ACEA"/>
</linearGradient>
<linearGradient id="paint7_linear_809_1762" x1="28.9961" y1="14.3025" x2="28.9961" y2="26.7141" gradientUnits="userSpaceOnUse">
<stop stop-color="#00EFD1"/>
<stop offset="1" stop-color="#00ACEA"/>
</linearGradient>
<clipPath id="clip0_809_1762">
<rect width="50" height="50" fill="white" transform="translate(0 0.244141)"/>
</clipPath>
</defs>
</svg>
