<svg width="50" height="50" viewBox="0 0 50 50" fill="none" xmlns="http://www.w3.org/2000/svg">
<path d="M44.9688 33.2969C44.951 31.5953 44.3305 29.9551 43.2175 28.6679C42.1046 27.3806 40.5712 26.5297 38.89 26.2664L34.7553 25.643L31.3969 23.426C32.5838 22.4875 33.5508 21.3004 34.2298 19.9481C34.3361 20.0045 34.4542 20.0349 34.5745 20.037H34.5764L36.071 20.0331C36.8977 20.024 37.6877 19.6905 38.2708 19.1044C38.8539 18.5183 39.1834 17.7265 39.1882 16.8998L39.1828 14.8719C39.1604 14.0496 38.8226 13.2673 38.2395 12.6871C37.6563 12.1069 36.8725 11.773 36.05 11.7547L34.7197 11.758C34.5647 11.3286 34.3813 10.91 34.1708 10.5048C35.1947 9.83991 36.0358 8.92916 36.6173 7.8557C37.1989 6.78223 37.5023 5.58023 37.5 4.35937V3.90625C37.4994 3.28486 37.2522 2.68911 36.8128 2.24972C36.3734 1.81033 35.7777 1.56318 35.1563 1.5625H22.2032C20.252 1.56457 18.3813 2.34059 17.0016 3.72029C15.6219 5.1 14.8459 6.97068 14.8438 8.92187V9.375C14.8444 9.98039 15.0805 10.5618 15.502 10.9963C15.3789 11.2673 15.2662 11.5415 15.1677 11.8202H13.875C13.045 11.8223 12.2497 12.1537 11.6638 12.7416C11.0779 13.3295 10.7493 14.1259 10.75 14.9559L10.7578 16.9891C10.7654 17.8166 11.0992 18.6077 11.6867 19.1905C12.2742 19.7733 13.0679 20.1007 13.8954 20.1016L15.3876 20.0932C15.5043 20.0909 15.6188 20.062 15.7226 20.0087C16.405 21.3486 17.3687 22.5254 18.5479 23.4585L15.0203 25.8106C15.0125 25.8161 15.0073 25.825 14.9993 25.8308L10.9221 26.5598C9.24903 26.8578 7.73552 27.7388 6.65002 29.0464C5.56453 30.354 4.97721 32.0037 4.99222 33.7031L5.08597 43.0547C5.08827 43.5821 5.26953 44.0931 5.60009 44.504C5.93065 44.915 6.39093 45.2015 6.90558 45.3168C12.1184 46.5451 17.4056 47.4327 22.7337 47.9741C24.2788 48.1567 25.8406 48.1459 27.3831 47.9421C32.9651 47.4355 40.9695 45.5144 43.285 44.9384C43.7998 44.8157 44.2573 44.5211 44.5819 44.1031C44.9065 43.6852 45.0788 43.169 45.0703 42.6399L44.9688 33.2969ZM36.0543 13.3171C36.4686 13.3162 36.8663 13.4799 37.16 13.7722C37.4536 14.0645 37.6192 14.4614 37.6202 14.8758L37.6255 16.9045C37.6261 17.1096 37.5863 17.3129 37.5083 17.5027C37.4303 17.6925 37.3157 17.8651 37.171 18.0105C37.0262 18.156 36.8543 18.2715 36.6649 18.3505C36.4755 18.4295 36.2724 18.4703 36.0672 18.4708L35.3539 18.4723L35.3405 13.3187L36.0543 13.3171ZM13.8907 18.5391C13.4766 18.5383 13.0795 18.3743 12.7855 18.0826C12.4916 17.791 12.3244 17.3952 12.3203 16.9812L12.3125 14.9531C12.3119 14.5378 12.4761 14.1392 12.769 13.8448C13.0619 13.5504 13.4597 13.3842 13.875 13.3828H14.5892L14.5999 18.5357L13.8907 18.5391ZM16.4063 8.92187C16.408 7.38496 17.0192 5.91148 18.106 4.82472C19.1928 3.73795 20.6662 3.12667 22.2032 3.125H35.1563C35.3634 3.12521 35.562 3.20758 35.7085 3.35405C35.855 3.50052 35.9373 3.69911 35.9375 3.90625V4.35937C35.9377 5.12069 35.788 5.87459 35.4967 6.578C35.2055 7.2814 34.7785 7.92053 34.2401 8.45886C33.7018 8.9972 33.0627 9.42418 32.3593 9.71543C31.6559 10.0067 30.902 10.1565 30.1407 10.1562H17.1875C16.9804 10.156 16.7818 10.0737 16.6353 9.9272C16.4889 9.78073 16.4065 9.58214 16.4063 9.375V8.92187ZM16.1563 16C16.0501 14.5359 16.297 13.0676 16.8763 11.7187H30.1407C31.0454 11.7155 31.9421 11.549 32.7877 11.2274C33.5418 12.6988 33.8685 14.352 33.7307 15.9995C30.1314 18.018 27.7678 17.5562 27.7118 17.5445C27.7028 17.5424 27.6942 17.5455 27.6852 17.5437C27.3843 17.1121 26.9766 16.7659 26.5018 16.5391C26.027 16.3123 25.5014 16.2127 24.9766 16.25H24.9717C23.3134 16.2607 22.063 17.151 22.063 18.3203C22.063 19.4723 23.3428 20.375 24.9816 20.375C25.4995 20.411 26.0181 20.3145 26.4884 20.0948C26.9588 19.875 27.3655 19.5391 27.6702 19.1187C29.6363 19.2553 31.6021 18.8491 33.353 17.9445C30.5207 26.8887 16.8396 25.4495 16.1563 16V16ZM26.3282 18.3047C26.3282 18.3162 26.3004 18.3428 26.2871 18.3623C26.0177 18.7547 25.2714 18.8255 24.8522 18.807C24.5875 18.7954 23.6926 18.6987 23.6257 18.3203C23.625 17.6258 26.1907 17.6287 26.3282 18.3047V18.3047ZM27.7686 25.2807L24.9952 29.2287L22.1944 25.3016L22.3246 25.3329C24.1073 25.8328 25.9956 25.8147 27.7685 25.2808L27.7686 25.2807ZM22.0516 46.3504C17.0724 45.78 12.1298 44.9258 7.24793 43.7919C7.07744 43.753 6.92525 43.6573 6.81633 43.5205C6.7074 43.3837 6.64822 43.2139 6.64847 43.0391L6.55472 33.6875C6.54395 32.3572 7.0045 31.066 7.85476 30.0428C8.70501 29.0195 9.89006 28.3304 11.1999 28.0974L15.0253 27.4137L17.9614 33.8746C18.1124 34.1935 18.3327 34.4745 18.6063 34.6972C18.88 34.9199 19.1999 35.0785 19.5428 35.1616C19.8856 35.2446 20.2427 35.2499 20.5879 35.1771C20.9331 35.1043 21.2576 34.9552 21.5377 34.7408L22.3445 36.9836C22.3972 37.1278 22.4915 37.2532 22.6155 37.3439L22.0516 46.3504ZM20.6177 33.4854C20.5264 33.5675 20.4171 33.6269 20.2986 33.6588C20.18 33.6907 20.0557 33.6943 19.9355 33.6692C19.8154 33.6441 19.7028 33.591 19.607 33.5143C19.5112 33.4376 19.4348 33.3393 19.384 33.2276L16.4592 26.7934L19.7969 24.6315L23.9682 30.4795L20.6177 33.4854ZM23.6099 46.4641L24.1715 37.5H25.8289L26.3902 46.4453C25.7515 46.4856 23.8972 46.4785 23.61 46.4641H23.6099ZM26.3882 35.9375H23.629L22.7993 33.6319L25.0057 31.6566L26.2032 32.7313L27.1968 33.6243L26.3882 35.9375ZM26.0332 30.4773L30.1788 24.5732L33.5602 26.7441L30.616 33.2266C30.5652 33.3384 30.4888 33.4367 30.3929 33.5134C30.297 33.5901 30.1843 33.6432 30.0641 33.6682C29.9438 33.6933 29.8194 33.6896 29.7008 33.6575C29.5822 33.6255 29.4729 33.5659 29.3817 33.4837L26.0332 30.4773ZM42.9131 43.4212C37.9848 44.675 32.988 45.6418 27.9478 46.3168L27.3853 37.3604C27.5217 37.267 27.6249 37.1326 27.6797 36.9766L28.462 34.7397C28.7425 34.9533 29.0671 35.1017 29.4122 35.1741C29.7573 35.2464 30.1142 35.2408 30.4569 35.1578C30.7995 35.0748 31.1194 34.9164 31.3931 34.6941C31.6668 34.4718 31.8875 34.1913 32.0391 33.873L35.0391 27.2662L38.6485 27.8107C39.9641 28.0171 41.164 28.6832 42.0351 29.6905C42.9061 30.6979 43.392 31.9814 43.4063 33.313L43.5078 42.6568C43.5108 42.8329 43.4535 43.0048 43.3453 43.1439C43.2371 43.2829 43.0846 43.3808 42.9131 43.4212Z" fill="url(#paint0_linear_813_492)"/>
<defs>
<linearGradient id="paint0_linear_813_492" x1="25.0312" y1="0.520493" x2="25.0312" y2="48.2658" gradientUnits="userSpaceOnUse">
<stop stop-color="#00EFD1"/>
<stop offset="1" stop-color="#00ACEA"/>
</linearGradient>
</defs>
</svg>
