<svg width="50" height="50" viewBox="0 0 50 50" fill="none" xmlns="http://www.w3.org/2000/svg">
<path d="M41.2803 1.3255e-08H8.72019C7.57506 -6.31245e-05 6.44114 0.225432 5.38316 0.663611C4.32518 1.10179 3.36386 1.74407 2.55411 2.55377C1.74436 3.36348 1.10203 4.32476 0.663794 5.38271C0.225558 6.44067 1.15145e-08 7.57458 1.3255e-08 8.71971V41.2798C-6.31245e-05 42.4249 0.225432 43.5589 0.663611 44.6168C1.10179 45.6748 1.74407 46.6361 2.55377 47.4459C3.36348 48.2556 4.32476 48.898 5.38271 49.3362C6.44067 49.7744 7.57458 50 8.71971 50H41.2798C42.4249 50.0001 43.5589 49.7746 44.6168 49.3364C45.6748 48.8982 46.6361 48.2559 47.4459 47.4462C48.2556 46.6365 48.898 45.6752 49.3362 44.6173C49.7744 43.5593 50 42.4254 50 41.2803V8.72019C50.0001 7.57506 49.7746 6.44114 49.3364 5.38316C48.8982 4.32518 48.2559 3.36386 47.4462 2.55411C46.6365 1.74436 45.6752 1.10203 44.6173 0.663794C43.5593 0.225558 42.4254 1.15145e-08 41.2803 1.3255e-08V1.3255e-08ZM47.5962 41.2803C47.5962 42.1097 47.4328 42.931 47.1154 43.6973C46.798 44.4636 46.3328 45.1598 45.7463 45.7463C45.1598 46.3328 44.4636 46.798 43.6973 47.1154C42.931 47.4328 42.1097 47.5962 41.2803 47.5962H8.72019C7.89074 47.5962 7.06939 47.4329 6.30305 47.1156C5.53671 46.7982 4.84039 46.333 4.25385 45.7465C3.66732 45.16 3.20205 44.4637 2.88463 43.6974C2.5672 42.9311 2.40383 42.1097 2.40385 41.2803V8.72019C2.40377 7.89074 2.56707 7.06939 2.88444 6.30305C3.20181 5.53671 3.66702 4.84039 4.25351 4.25385C4.84001 3.66732 5.53629 3.20205 6.30261 2.88463C7.06892 2.5672 7.89025 2.40383 8.71971 2.40385H41.2798C42.1093 2.40377 42.9306 2.56707 43.6969 2.88444C44.4633 3.20181 45.1596 3.66702 45.7461 4.25351C46.3327 4.84001 46.7979 5.53629 47.1154 6.30261C47.4328 7.06892 47.5962 7.89025 47.5962 8.71971V41.2803Z" fill="url(#paint0_linear_825_10529)"/>
<path d="M18.7351 33.774H14.3029V30.012C14.3029 29.6932 14.1762 29.3875 13.9508 29.1621C13.7254 28.9367 13.4197 28.8101 13.1009 28.8101C12.7822 28.8101 12.4765 28.9367 12.2511 29.1621C12.0257 29.3875 11.899 29.6932 11.899 30.012V33.774H7.45851C7.13975 33.774 6.83403 33.9006 6.60863 34.126C6.38322 34.3514 6.25659 34.6572 6.25659 34.9759C6.25659 35.2947 6.38322 35.6004 6.60863 35.8258C6.83403 36.0512 7.13975 36.1778 7.45851 36.1778H11.899V40.6621C11.899 40.9809 12.0257 41.2866 12.2511 41.512C12.4765 41.7374 12.7822 41.864 13.1009 41.864C13.4197 41.864 13.7254 41.7374 13.9508 41.512C14.1762 41.2866 14.3029 40.9809 14.3029 40.6621V36.1778H18.7351C19.0538 36.1778 19.3596 36.0512 19.585 35.8258C19.8104 35.6004 19.937 35.2947 19.937 34.9759C19.937 34.6572 19.8104 34.3514 19.585 34.126C19.3596 33.9006 19.0538 33.774 18.7351 33.774V33.774Z" fill="url(#paint1_linear_825_10529)"/>
<path d="M18.7351 13.101H7.45851C7.13975 13.101 6.83403 13.2276 6.60863 13.453C6.38322 13.6784 6.25659 13.9841 6.25659 14.3029C6.25659 14.6216 6.38322 14.9274 6.60863 15.1528C6.83403 15.3782 7.13975 15.5048 7.45851 15.5048H18.7351C19.0538 15.5048 19.3596 15.3782 19.585 15.1528C19.8104 14.9274 19.937 14.6216 19.937 14.3029C19.937 13.9841 19.8104 13.6784 19.585 13.453C19.3596 13.2276 19.0538 13.101 18.7351 13.101V13.101Z" fill="url(#paint2_linear_825_10529)"/>
<path d="M41.2885 37.6201H30.012C29.6932 37.6201 29.3875 37.7467 29.1621 37.9722C28.9367 38.1976 28.8101 38.5033 28.8101 38.822C28.8101 39.1408 28.9367 39.4465 29.1621 39.6719C29.3875 39.8973 29.6932 40.024 30.012 40.024H41.2887C41.6074 40.024 41.9131 39.8973 42.1386 39.6719C42.364 39.4465 42.4906 39.1408 42.4906 38.822C42.4906 38.5033 42.364 38.1976 42.1386 37.9722C41.9131 37.7467 41.6074 37.6201 41.2887 37.6201H41.2885Z" fill="url(#paint3_linear_825_10529)"/>
<path d="M41.2885 31.9712H30.012C29.6932 31.9712 29.3875 32.0978 29.1621 32.3232C28.9367 32.5486 28.8101 32.8543 28.8101 33.1731C28.8101 33.4919 28.9367 33.7976 29.1621 34.023C29.3875 34.2484 29.6932 34.375 30.012 34.375H41.2887C41.6074 34.375 41.9131 34.2484 42.1386 34.023C42.364 33.7976 42.4906 33.4919 42.4906 33.1731C42.4906 32.8543 42.364 32.5486 42.1386 32.3232C41.9131 32.0978 41.6074 31.9712 41.2887 31.9712H41.2885Z" fill="url(#paint4_linear_825_10529)"/>
<path d="M30.9787 19.0213C31.0903 19.1329 31.2228 19.2215 31.3686 19.2819C31.5145 19.3423 31.6708 19.3734 31.8286 19.3734C31.9865 19.3734 32.1428 19.3423 32.2886 19.2819C32.4344 19.2215 32.5669 19.1329 32.6786 19.0213L35.9014 15.799L39.1225 19.0212C39.234 19.1336 39.3665 19.2229 39.5125 19.2839C39.6586 19.345 39.8152 19.3766 39.9735 19.377C40.1318 19.3773 40.2886 19.3464 40.4349 19.286C40.5812 19.2256 40.7141 19.1369 40.826 19.025C40.938 18.9131 41.0267 18.7802 41.0871 18.6339C41.1475 18.4876 41.1785 18.3308 41.1781 18.1725C41.1778 18.0142 41.1462 17.8576 41.0852 17.7115C41.0241 17.5655 40.9348 17.433 40.8224 17.3215L37.6002 14.0993L40.8228 10.8774C41.0483 10.6519 41.1749 10.3461 41.1749 10.0273C41.1749 9.70843 41.0483 9.40264 40.8228 9.17717C40.5973 8.9517 40.2915 8.82504 39.9727 8.82504C39.6538 8.82504 39.348 8.9517 39.1225 9.17717L35.9003 12.3994L32.6781 9.17717C32.5666 9.06479 32.4341 8.97554 32.288 8.91453C32.142 8.85352 31.9853 8.82196 31.827 8.82166C31.6687 8.82136 31.512 8.85232 31.3657 8.91277C31.2194 8.97323 31.0865 9.06198 30.9746 9.17393C30.8627 9.28588 30.774 9.41883 30.7137 9.56515C30.6533 9.71147 30.6224 9.86826 30.6228 10.0265C30.6232 10.1848 30.6548 10.3415 30.7159 10.4875C30.777 10.6335 30.8664 10.766 30.9788 10.8774L34.2009 14.0995L30.9787 17.3218C30.7534 17.5472 30.6268 17.8528 30.6268 18.1715C30.6268 18.4902 30.7534 18.7959 30.9787 19.0213V19.0213Z" fill="url(#paint5_linear_825_10529)"/>
<defs>
<linearGradient id="paint0_linear_825_10529" x1="24.9999" y1="-1.11945" x2="24.9999" y2="50.1744" gradientUnits="userSpaceOnUse">
<stop stop-color="#00EFD1"/>
<stop offset="1" stop-color="#00ACEA"/>
</linearGradient>
<linearGradient id="paint1_linear_825_10529" x1="13.0968" y1="28.5178" x2="13.0968" y2="41.9096" gradientUnits="userSpaceOnUse">
<stop stop-color="#00EFD1"/>
<stop offset="1" stop-color="#00ACEA"/>
</linearGradient>
<linearGradient id="paint2_linear_825_10529" x1="13.0968" y1="13.0471" x2="13.0968" y2="15.5132" gradientUnits="userSpaceOnUse">
<stop stop-color="#00EFD1"/>
<stop offset="1" stop-color="#00ACEA"/>
</linearGradient>
<linearGradient id="paint3_linear_825_10529" x1="35.6503" y1="37.5663" x2="35.6503" y2="40.0323" gradientUnits="userSpaceOnUse">
<stop stop-color="#00EFD1"/>
<stop offset="1" stop-color="#00ACEA"/>
</linearGradient>
<linearGradient id="paint4_linear_825_10529" x1="35.6503" y1="31.9174" x2="35.6503" y2="34.3834" gradientUnits="userSpaceOnUse">
<stop stop-color="#00EFD1"/>
<stop offset="1" stop-color="#00ACEA"/>
</linearGradient>
<linearGradient id="paint5_linear_825_10529" x1="35.9004" y1="8.58533" x2="35.9004" y2="19.4138" gradientUnits="userSpaceOnUse">
<stop stop-color="#00EFD1"/>
<stop offset="1" stop-color="#00ACEA"/>
</linearGradient>
</defs>
</svg>
