<svg width="50" height="50" viewBox="0 0 50 50" fill="none" xmlns="http://www.w3.org/2000/svg">
<g clip-path="url(#clip0_808_33085)">
<path d="M48.9029 20.3047L44.5886 19.8894C44.1112 18.087 43.384 16.3601 42.4274 14.7597L45.1693 11.4527C45.5675 10.9724 45.5372 10.2685 45.0982 9.82524L40.2349 4.90598C39.793 4.45895 39.0829 4.4234 38.5984 4.82397L35.2782 7.57016C33.6744 6.61732 31.9479 5.8887 30.147 5.40469L29.7313 1.09649C29.6706 0.474528 29.1477 0 28.5229 0H21.5401C20.9148 0 20.3919 0.475002 20.3322 1.09696L19.9164 5.40421C18.1113 5.88111 16.3814 6.60831 14.7777 7.564L11.4645 4.82445C10.9824 4.42577 10.2761 4.45895 9.83333 4.90077L4.90838 9.81955C4.46467 10.2623 4.43148 10.9706 4.83158 11.4527L7.57967 14.7672C6.62683 16.3677 5.89821 18.0908 5.41325 19.8894L1.09889 20.3047C0.475978 20.3644 0.000976562 20.8873 0.000976562 21.5126V28.4868C0.000976562 29.1116 0.475978 29.635 1.09794 29.6947L5.4123 30.11C5.88967 31.9124 6.61687 33.6393 7.57351 35.2397L4.83158 38.5467C4.43148 39.0288 4.46467 39.7371 4.90838 40.1798L9.8338 45.0991C10.2766 45.5409 10.9829 45.5741 11.465 45.1754L14.7853 42.4292C16.389 43.3821 18.1155 44.1107 19.9164 44.5947L20.3322 48.9029C20.3924 49.5253 20.9153 49.9999 21.5406 49.9999H28.5234C29.1486 49.9999 29.6715 49.5253 29.7313 48.9029L30.147 44.5961C31.9522 44.1192 33.682 43.392 35.2857 42.4359L38.5989 45.1759C39.081 45.5746 39.7874 45.5414 40.2301 45.0991L45.1555 40.1803C45.5988 39.7371 45.632 39.0293 45.2319 38.5467L42.4838 35.2326C43.4371 33.6317 44.1662 31.9076 44.6512 30.1091L48.9044 29.6943C49.5263 29.6336 50.0004 29.1112 50.0004 28.4864V21.5126C50.0004 20.8873 49.5254 20.3644 48.9029 20.3047V20.3047ZM47.5732 27.3856L43.5561 27.7772C43.0313 27.8284 42.5999 28.2128 42.488 28.7281C42.0164 30.8467 41.1645 32.8624 39.9737 34.6775C39.6864 35.1226 39.7205 35.7029 40.059 36.111L42.6573 39.2445L39.2958 42.6018L36.1556 40.0049C35.7427 39.6636 35.1549 39.6328 34.7093 39.93C32.9003 41.1251 30.8851 41.9732 28.7661 42.4316C28.2498 42.543 27.8649 42.9753 27.8142 43.5011L27.4212 47.5722H22.6423L22.2493 43.5011C22.1985 42.9753 21.8136 42.543 21.2974 42.4316C19.176 41.9604 17.1575 41.1095 15.3385 39.9201C14.8943 39.6337 14.3155 39.6679 13.9078 40.0049L10.7677 42.6023L7.40617 39.2445L10.0045 36.111C10.3472 35.6977 10.3775 35.1089 10.0798 34.6623C8.88332 32.8571 8.03429 30.8448 7.57541 28.7281C7.46353 28.2119 7.03119 27.8274 6.50547 27.7767L2.42813 27.3842V22.6147L6.50547 22.2222C7.03119 22.172 7.46353 21.787 7.57541 21.2713C8.04757 19.1527 8.89944 17.137 10.0898 15.3219C10.3771 14.8768 10.3429 14.2965 10.0045 13.8884L7.40664 10.7549L10.7682 7.39713L13.9078 9.99448C14.3207 10.3358 14.9085 10.3661 15.3542 10.0694C17.1631 8.87429 19.1783 8.02573 21.2974 7.56779C21.8136 7.45639 22.1985 7.02405 22.2493 6.49833L22.6423 2.42716H27.4212L27.8142 6.49833C27.8649 7.02405 28.2498 7.45639 28.7661 7.56779C30.8875 8.039 32.906 8.88993 34.7245 10.0793C35.1691 10.3657 35.7479 10.3315 36.1556 9.99448L39.2901 7.40188L42.5999 10.7496L39.9969 13.8888C39.6542 14.3017 39.6238 14.891 39.9215 15.3371C41.1176 17.1423 41.9671 19.1551 42.4259 21.2713C42.5373 21.7875 42.9702 22.172 43.4954 22.2227L47.5732 22.6152V27.3856Z" fill="url(#paint0_linear_808_33085)"/>
<path d="M25.0007 13.5361C18.6692 13.5361 13.5366 18.6682 13.5366 24.9997C13.5366 31.3312 18.6692 36.4633 25.0007 36.4633C31.3316 36.4633 36.4642 31.3312 36.4642 24.9997C36.4571 18.6716 31.3288 13.5432 25.0007 13.5361V13.5361ZM25.0007 34.0361C20.0098 34.0361 15.9638 29.9905 15.9638 24.9997C15.9638 20.0089 20.0098 15.9633 25.0007 15.9633C29.991 15.9633 34.0371 20.0089 34.0371 24.9997C34.0314 29.9882 29.9891 34.0304 25.0007 34.0361V34.0361Z" fill="url(#paint1_linear_808_33085)"/>
</g>
<defs>
<linearGradient id="paint0_linear_808_33085" x1="25.0006" y1="-1.11945" x2="25.0006" y2="50.1743" gradientUnits="userSpaceOnUse">
<stop stop-color="#00EFD1"/>
<stop offset="1" stop-color="#00ACEA"/>
</linearGradient>
<linearGradient id="paint1_linear_808_33085" x1="25.0004" y1="13.0228" x2="25.0004" y2="36.5432" gradientUnits="userSpaceOnUse">
<stop stop-color="#00EFD1"/>
<stop offset="1" stop-color="#00ACEA"/>
</linearGradient>
<clipPath id="clip0_808_33085">
<rect width="50" height="50" fill="white"/>
</clipPath>
</defs>
</svg>
