<svg width="67" height="70" viewBox="0 0 67 70" fill="none" xmlns="http://www.w3.org/2000/svg">
<path d="M25.0019 13.2221C25.7318 13.2221 26.3241 12.6297 26.3241 11.8999V1.32221C26.3241 0.592349 25.7318 0 25.0019 0C24.2707 0 23.6797 0.592349 23.6797 1.32221V11.8999C23.6797 12.6297 24.2707 13.2221 25.0019 13.2221Z" fill="url(#paint0_linear_578_5263)"/>
<path d="M2.08783 58.1757H25.007C25.7369 58.1757 26.3292 57.5833 26.3292 56.8535C26.3292 56.1236 25.7369 55.5312 25.007 55.5312H2.08783C1.35665 55.5312 0.765625 56.1236 0.765625 56.8535C0.765625 57.5833 1.35665 58.1757 2.08783 58.1757Z" fill="url(#paint1_linear_578_5263)"/>
<path d="M7.80457 47.5975H24.1379C25.1039 47.5975 25.8878 47.0052 25.8878 46.2753C25.8878 45.5455 25.1039 44.9531 24.1379 44.9531H7.80457C6.83688 44.9531 6.05469 45.5455 6.05469 46.2753C6.05469 47.0052 6.83688 47.5975 7.80457 47.5975Z" fill="url(#paint2_linear_578_5263)"/>
<path d="M25.6495 16.5419C26.3794 16.5419 26.9665 15.9496 26.9665 15.2197C26.9665 14.4899 26.3715 13.8975 25.6416 13.8975C23.1003 13.8975 21.035 11.8309 21.035 9.29096C21.035 8.5611 20.4427 7.96875 19.7128 7.96875C18.9817 7.96875 18.3906 8.5611 18.3906 9.29096C18.3906 13.288 21.6433 16.5419 25.6495 16.5419Z" fill="url(#paint3_linear_578_5263)"/>
<path d="M19.7128 5.29285H25.0017C25.7315 5.29285 26.3239 4.70051 26.3239 3.97065C26.3239 3.24079 25.7315 2.64844 25.0017 2.64844H19.7128C18.9817 2.64844 18.3906 3.24079 18.3906 3.97065C18.3906 4.70051 18.9817 5.29285 19.7128 5.29285Z" fill="url(#paint4_linear_578_5263)"/>
<path d="M65.5566 66.1089C66.2878 66.1089 66.8788 65.5166 66.8788 64.7867V56.8535C66.8788 56.1236 66.2878 55.5312 65.5566 55.5312C64.8254 55.5312 64.2344 56.1236 64.2344 56.8535V64.7867C64.2344 65.5166 64.8254 66.1089 65.5566 66.1089Z" fill="url(#paint5_linear_578_5263)"/>
<path d="M25.0019 58.1745C25.7318 58.1745 26.3241 57.5822 26.3241 56.8523V30.4081C26.3241 29.6783 25.7318 29.0859 25.0019 29.0859C24.2707 29.0859 23.6797 29.6783 23.6797 30.4081V56.8523C23.6797 57.5822 24.2707 58.1745 25.0019 58.1745Z" fill="url(#paint6_linear_578_5263)"/>
<path d="M7.3769 58.1752C8.10808 58.1752 8.6991 57.5829 8.6991 56.853V46.2753C8.6991 45.5455 8.10808 44.9531 7.3769 44.9531C6.64571 44.9531 6.05469 45.5455 6.05469 46.2753V56.853C6.05469 57.5829 6.64571 58.1752 7.3769 58.1752Z" fill="url(#paint7_linear_578_5263)"/>
<path d="M60.2675 58.175C60.9987 58.175 61.5897 57.5826 61.5897 56.8528V40.9863C61.5897 40.2564 60.9987 39.6641 60.2675 39.6641C59.5363 39.6641 58.9453 40.2564 58.9453 40.9863V56.8528C58.9453 57.5826 59.5363 58.175 60.2675 58.175Z" fill="url(#paint8_linear_578_5263)"/>
<path d="M2.08783 66.1089C2.81901 66.1089 3.41004 65.5166 3.41004 64.7867V56.8535C3.41004 56.1236 2.81901 55.5312 2.08783 55.5312C1.35665 55.5312 0.765625 56.1236 0.765625 56.8535V64.7867C0.765625 65.5166 1.35665 66.1089 2.08783 66.1089Z" fill="url(#paint9_linear_578_5263)"/>
<path d="M42.6425 17.1049C43.3724 17.1049 43.9647 16.5125 43.9647 15.7827V5.20502C43.9647 4.47516 43.3724 3.88281 42.6425 3.88281C41.9127 3.88281 41.3203 4.47516 41.3203 5.20502V15.7827C41.3203 16.5125 41.9127 17.1049 42.6425 17.1049Z" fill="url(#paint10_linear_578_5263)"/>
<path d="M2.08783 69.996H65.5538C66.285 69.996 66.876 69.4036 66.876 68.6738C66.876 67.9439 66.285 67.3516 65.5538 67.3516H2.08783C1.35665 67.3516 0.765625 67.9439 0.765625 68.6738C0.765625 69.4036 1.35665 69.996 2.08783 69.996Z" fill="url(#paint11_linear_578_5263)"/>
<path d="M23.0781 60.7363C23.0781 61.4661 23.7611 62.0585 24.606 62.0585H65.3484C66.1933 62.0585 66.8763 61.4661 66.8763 60.7363C66.8763 60.0064 66.1933 59.4141 65.3484 59.4141H24.606C23.7611 59.4141 23.0781 60.0064 23.0781 60.7363Z" fill="url(#paint12_linear_578_5263)"/>
<path d="M43.9531 34.291C43.9531 33.5611 43.3608 32.9688 42.6309 32.9688H25.0019C24.2707 32.9688 23.6797 33.5611 23.6797 34.291C23.6797 35.0208 24.2707 35.6132 25.0019 35.6132H42.6309C43.3608 35.6132 43.9531 35.0208 43.9531 34.291Z" fill="url(#paint13_linear_578_5263)"/>
<path d="M42.0859 44.8691C42.0859 45.5989 42.8569 46.1913 43.8068 46.1913H59.8676C60.8193 46.1913 61.5885 45.5989 61.5885 44.8691C61.5885 44.1392 60.8193 43.5469 59.8676 43.5469H43.8068C42.8569 43.5469 42.0859 44.1392 42.0859 44.8691Z" fill="url(#paint14_linear_578_5263)"/>
<path d="M42.6425 9.17567H47.9314C48.6612 9.17567 49.2536 8.58332 49.2536 7.85346C49.2536 7.1236 48.6612 6.53125 47.9314 6.53125H42.6425C41.9127 6.53125 41.3203 7.1236 41.3203 7.85346C41.3203 8.58332 41.9127 9.17567 42.6425 9.17567Z" fill="url(#paint15_linear_578_5263)"/>
<path d="M33.8144 30.3248C34.5456 30.3248 35.1366 29.7324 35.1366 29.0026V24.5956C35.1366 23.8658 34.5456 23.2734 33.8144 23.2734C33.0832 23.2734 32.4922 23.8658 32.4922 24.5956V29.0026C32.4922 29.7324 33.0832 30.3248 33.8144 30.3248Z" fill="url(#paint16_linear_578_5263)"/>
<path d="M41.9836 20.4286H41.9942C45.9886 20.4286 49.2399 17.1813 49.2465 13.1776C49.2465 12.4478 48.6555 11.8594 47.9256 11.8594H47.9243C47.1945 11.8594 46.6034 12.4544 46.6021 13.1829C46.5981 15.7215 44.5328 17.7842 41.9942 17.7842C41.9916 17.7842 41.9876 17.7855 41.9863 17.7842C41.2564 17.7842 40.6654 18.3752 40.6641 19.1051C40.6627 19.8349 41.2538 20.4273 41.9836 20.4286Z" fill="url(#paint17_linear_578_5263)"/>
<path d="M42.6425 32.9688C41.9127 32.9688 41.3203 33.5611 41.3203 34.291V60.7351C41.3203 61.465 41.9127 62.0573 42.6425 62.0573C43.3724 62.0573 43.9647 61.465 43.9647 60.7351V34.291C43.9647 33.5611 43.3724 32.9688 42.6425 32.9688Z" fill="url(#paint18_linear_578_5263)"/>
<path d="M25.0019 6.52723H42.6309C43.3608 6.52723 43.9531 5.93488 43.9531 5.20502C43.9531 4.47516 43.3608 3.88281 42.6309 3.88281H25.0019C24.2707 3.88281 23.6797 4.47516 23.6797 5.20502C23.6797 5.93488 24.2707 6.52723 25.0019 6.52723Z" fill="url(#paint19_linear_578_5263)"/>
<path d="M39.103 27.6875H28.5253C27.7942 27.6875 27.2031 28.2798 27.2031 29.0097C27.2031 29.7396 27.7942 30.3319 28.5253 30.3319H39.103C39.8342 30.3319 40.4252 29.7396 40.4252 29.0097C40.4252 28.2798 39.8342 27.6875 39.103 27.6875Z" fill="url(#paint20_linear_578_5263)"/>
<path d="M33.8157 25.9205C39.406 25.9205 43.9531 21.3734 43.9531 15.7831C43.9531 15.0533 43.3608 14.4609 42.6309 14.4609C41.901 14.4609 41.3087 15.0533 41.3087 15.7831C41.3087 19.915 37.9476 23.2761 33.8157 23.2761C29.6838 23.2761 26.3241 19.915 26.3241 15.7831C26.3241 15.0533 25.7318 14.4609 25.0019 14.4609C24.2707 14.4609 23.6797 15.0533 23.6797 15.7831C23.6797 21.3734 28.2254 25.9205 33.8157 25.9205Z" fill="url(#paint21_linear_578_5263)"/>
<path d="M47.9316 14.4976C48.6614 14.4976 49.2538 13.9052 49.2538 13.1753V7.85346C49.2538 7.1236 48.6614 6.53125 47.9316 6.53125C47.2017 6.53125 46.6094 7.1236 46.6094 7.85346V13.1753C46.6094 13.9065 47.2017 14.4976 47.9316 14.4976Z" fill="url(#paint22_linear_578_5263)"/>
<path d="M19.7128 10.6147C20.4427 10.6147 21.035 10.0224 21.035 9.29253V3.97065C21.035 3.24079 20.4427 2.64844 19.7128 2.64844C18.9817 2.64844 18.3906 3.24079 18.3906 3.97065V9.29253C18.3906 10.0237 18.9817 10.6147 19.7128 10.6147Z" fill="url(#paint23_linear_578_5263)"/>
<defs>
<linearGradient id="paint0_linear_578_5263" x1="25.0019" y1="-0.29603" x2="25.0019" y2="13.2682" gradientUnits="userSpaceOnUse">
<stop stop-color="#00EFD1"/>
<stop offset="1" stop-color="#00ACEA"/>
</linearGradient>
<linearGradient id="paint1_linear_578_5263" x1="13.5474" y1="55.472" x2="13.5474" y2="58.1849" gradientUnits="userSpaceOnUse">
<stop stop-color="#00EFD1"/>
<stop offset="1" stop-color="#00ACEA"/>
</linearGradient>
<linearGradient id="paint2_linear_578_5263" x1="15.9712" y1="44.8939" x2="15.9712" y2="47.6068" gradientUnits="userSpaceOnUse">
<stop stop-color="#00EFD1"/>
<stop offset="1" stop-color="#00ACEA"/>
</linearGradient>
<linearGradient id="paint3_linear_578_5263" x1="22.6785" y1="7.7768" x2="22.6785" y2="16.5719" gradientUnits="userSpaceOnUse">
<stop stop-color="#00EFD1"/>
<stop offset="1" stop-color="#00ACEA"/>
</linearGradient>
<linearGradient id="paint4_linear_578_5263" x1="22.3572" y1="2.58923" x2="22.3572" y2="5.30208" gradientUnits="userSpaceOnUse">
<stop stop-color="#00EFD1"/>
<stop offset="1" stop-color="#00ACEA"/>
</linearGradient>
<linearGradient id="paint5_linear_578_5263" x1="65.5566" y1="55.2944" x2="65.5566" y2="66.1458" gradientUnits="userSpaceOnUse">
<stop stop-color="#00EFD1"/>
<stop offset="1" stop-color="#00ACEA"/>
</linearGradient>
<linearGradient id="paint6_linear_578_5263" x1="25.0019" y1="28.4347" x2="25.0019" y2="58.276" gradientUnits="userSpaceOnUse">
<stop stop-color="#00EFD1"/>
<stop offset="1" stop-color="#00ACEA"/>
</linearGradient>
<linearGradient id="paint7_linear_578_5263" x1="7.37689" y1="44.6571" x2="7.37689" y2="58.2213" gradientUnits="userSpaceOnUse">
<stop stop-color="#00EFD1"/>
<stop offset="1" stop-color="#00ACEA"/>
</linearGradient>
<linearGradient id="paint8_linear_578_5263" x1="60.2675" y1="39.2496" x2="60.2675" y2="58.2395" gradientUnits="userSpaceOnUse">
<stop stop-color="#00EFD1"/>
<stop offset="1" stop-color="#00ACEA"/>
</linearGradient>
<linearGradient id="paint9_linear_578_5263" x1="2.08783" y1="55.2944" x2="2.08783" y2="66.1458" gradientUnits="userSpaceOnUse">
<stop stop-color="#00EFD1"/>
<stop offset="1" stop-color="#00ACEA"/>
</linearGradient>
<linearGradient id="paint10_linear_578_5263" x1="42.6425" y1="3.58678" x2="42.6425" y2="17.151" gradientUnits="userSpaceOnUse">
<stop stop-color="#00EFD1"/>
<stop offset="1" stop-color="#00ACEA"/>
</linearGradient>
<linearGradient id="paint11_linear_578_5263" x1="33.8207" y1="67.2924" x2="33.8207" y2="70.0052" gradientUnits="userSpaceOnUse">
<stop stop-color="#00EFD1"/>
<stop offset="1" stop-color="#00ACEA"/>
</linearGradient>
<linearGradient id="paint12_linear_578_5263" x1="44.9771" y1="59.3549" x2="44.9771" y2="62.0677" gradientUnits="userSpaceOnUse">
<stop stop-color="#00EFD1"/>
<stop offset="1" stop-color="#00ACEA"/>
</linearGradient>
<linearGradient id="paint13_linear_578_5263" x1="33.8164" y1="32.9095" x2="33.8164" y2="35.6224" gradientUnits="userSpaceOnUse">
<stop stop-color="#00EFD1"/>
<stop offset="1" stop-color="#00ACEA"/>
</linearGradient>
<linearGradient id="paint14_linear_578_5263" x1="51.8372" y1="43.4877" x2="51.8372" y2="46.2005" gradientUnits="userSpaceOnUse">
<stop stop-color="#00EFD1"/>
<stop offset="1" stop-color="#00ACEA"/>
</linearGradient>
<linearGradient id="paint15_linear_578_5263" x1="45.2869" y1="6.47204" x2="45.2869" y2="9.18489" gradientUnits="userSpaceOnUse">
<stop stop-color="#00EFD1"/>
<stop offset="1" stop-color="#00ACEA"/>
</linearGradient>
<linearGradient id="paint16_linear_578_5263" x1="33.8144" y1="23.1156" x2="33.8144" y2="30.3494" gradientUnits="userSpaceOnUse">
<stop stop-color="#00EFD1"/>
<stop offset="1" stop-color="#00ACEA"/>
</linearGradient>
<linearGradient id="paint17_linear_578_5263" x1="44.9553" y1="11.6675" x2="44.9553" y2="20.4585" gradientUnits="userSpaceOnUse">
<stop stop-color="#00EFD1"/>
<stop offset="1" stop-color="#00ACEA"/>
</linearGradient>
<linearGradient id="paint18_linear_578_5263" x1="42.6425" y1="32.3175" x2="42.6425" y2="62.1588" gradientUnits="userSpaceOnUse">
<stop stop-color="#00EFD1"/>
<stop offset="1" stop-color="#00ACEA"/>
</linearGradient>
<linearGradient id="paint19_linear_578_5263" x1="33.8164" y1="3.82361" x2="33.8164" y2="6.53645" gradientUnits="userSpaceOnUse">
<stop stop-color="#00EFD1"/>
<stop offset="1" stop-color="#00ACEA"/>
</linearGradient>
<linearGradient id="paint20_linear_578_5263" x1="33.8141" y1="27.6283" x2="33.8141" y2="30.3411" gradientUnits="userSpaceOnUse">
<stop stop-color="#00EFD1"/>
<stop offset="1" stop-color="#00ACEA"/>
</linearGradient>
<linearGradient id="paint21_linear_578_5263" x1="33.8164" y1="14.2044" x2="33.8164" y2="25.9605" gradientUnits="userSpaceOnUse">
<stop stop-color="#00EFD1"/>
<stop offset="1" stop-color="#00ACEA"/>
</linearGradient>
<linearGradient id="paint22_linear_578_5263" x1="47.9316" y1="6.35289" x2="47.9316" y2="14.5253" gradientUnits="userSpaceOnUse">
<stop stop-color="#00EFD1"/>
<stop offset="1" stop-color="#00ACEA"/>
</linearGradient>
<linearGradient id="paint23_linear_578_5263" x1="19.7128" y1="2.47008" x2="19.7128" y2="10.6425" gradientUnits="userSpaceOnUse">
<stop stop-color="#00EFD1"/>
<stop offset="1" stop-color="#00ACEA"/>
</linearGradient>
</defs>
</svg>
