<svg width="71" height="71" viewBox="0 0 71 71" fill="none" xmlns="http://www.w3.org/2000/svg">
<path d="M23.3595 3.98681C23.2258 3.79159 23.0461 3.63227 22.8362 3.52286C22.6264 3.41346 22.3929 3.35733 22.1562 3.35943C21.9196 3.36153 21.6871 3.42179 21.4793 3.5349C21.2714 3.64801 21.0945 3.8105 20.9643 4.00806L9.75396 21.0093C9.61051 21.2269 9.52865 21.4792 9.51705 21.7395C9.50546 21.9998 9.56458 22.2584 9.68812 22.4879C9.81166 22.7173 9.99502 22.909 10.2187 23.0426C10.4425 23.1763 10.6982 23.2468 10.9588 23.2468H33.8177C34.0804 23.2468 34.3382 23.175 34.5632 23.0393C34.7882 22.9036 34.9718 22.709 35.0943 22.4765C35.2168 22.2441 35.2735 21.9826 35.2584 21.7203C35.2432 21.458 35.1567 21.2048 35.0082 20.988L23.3595 3.98681ZM34.5388 22.1838C34.4707 22.316 34.3672 22.4266 34.2399 22.5034C34.1125 22.5803 33.9664 22.6202 33.8177 22.6188H10.9588C10.8116 22.6188 10.6672 22.579 10.5408 22.5035C10.4145 22.428 10.3109 22.3197 10.2412 22.1901C10.1714 22.0605 10.138 21.9145 10.1446 21.7674C10.1511 21.6204 10.1974 21.4779 10.2784 21.355L21.4886 4.35384C21.5622 4.24226 21.6621 4.15049 21.7795 4.0866C21.8969 4.02272 22.0282 3.98868 22.1618 3.98749C22.2955 3.9863 22.4274 4.018 22.5459 4.07978C22.6644 4.14157 22.7659 4.23155 22.8415 4.3418L34.49 21.343C34.5752 21.4649 34.6249 21.608 34.6335 21.7565C34.6421 21.9049 34.6093 22.0528 34.5388 22.1837V22.1838Z" fill="url(#paint0_linear_578_5251)" stroke="url(#paint1_linear_578_5251)" stroke-width="2"/>
<path d="M67.8995 9.28675L61.2256 8.31857C61.0903 8.29903 60.9619 8.24691 60.8512 8.16668C60.7406 8.08645 60.6511 7.98052 60.5905 7.85803L57.6059 1.81909C57.4842 1.57317 57.2962 1.36616 57.063 1.22143C56.8299 1.07669 56.561 1 56.2866 1C56.0122 1 55.7432 1.07669 55.5101 1.22143C55.277 1.36616 55.089 1.57317 54.9672 1.81909L51.9825 7.85782C51.9219 7.98031 51.8325 8.08623 51.7218 8.16646C51.6112 8.24669 51.4827 8.29882 51.3474 8.31836L44.6736 9.28675C44.4021 9.3259 44.1469 9.44029 43.9371 9.61698C43.7272 9.79367 43.571 10.0256 43.4861 10.2865C43.4013 10.5474 43.3911 10.8268 43.4569 11.0932C43.5227 11.3595 43.6617 11.6021 43.8583 11.7936L48.6877 16.4943C48.7855 16.5894 48.8587 16.7069 48.9009 16.8367C48.9432 16.9664 48.9532 17.1045 48.9301 17.239L47.7898 23.8762C47.7437 24.1467 47.7741 24.4247 47.8776 24.6788C47.9812 24.9329 48.1538 25.153 48.3758 25.3142C48.5979 25.4754 48.8606 25.5712 49.1343 25.5909C49.408 25.6106 49.6817 25.5534 49.9246 25.4257L55.8941 22.292C56.0151 22.2285 56.1498 22.1953 56.2866 22.1953C56.4233 22.1953 56.558 22.2285 56.6791 22.292L62.6485 25.4257C62.8913 25.5534 63.1651 25.6106 63.4388 25.5909C63.7124 25.5712 63.9752 25.4754 64.1972 25.3142C64.4193 25.153 64.5919 24.9329 64.6954 24.6788C64.799 24.4247 64.8294 24.1467 64.7832 23.8762L63.6433 17.239C63.6202 17.1045 63.6302 16.9664 63.6724 16.8367C63.7147 16.7069 63.7879 16.5894 63.8857 16.4943L68.715 11.7938C68.9115 11.6024 69.0506 11.3597 69.1163 11.0934C69.1821 10.827 69.172 10.5476 69.0871 10.2867C69.0023 10.0258 68.8461 9.79388 68.6362 9.61719C68.4263 9.4405 68.1711 9.3259 67.8995 9.28675ZM68.2768 11.3437L63.4475 16.0442C63.2766 16.2104 63.1488 16.4157 63.075 16.6424C63.0013 16.8691 62.9839 17.1104 63.0242 17.3453L64.1643 23.9825C64.1906 24.1375 64.173 24.2968 64.1136 24.4424C64.0542 24.5879 63.9552 24.714 63.8279 24.8063C63.7006 24.8985 63.55 24.9534 63.3932 24.9646C63.2363 24.9758 63.0795 24.9429 62.9404 24.8696L56.9711 21.736C56.76 21.6251 56.5251 21.5672 56.2866 21.5672C56.0481 21.5672 55.8132 21.6251 55.602 21.736L49.6327 24.8696C49.4935 24.9429 49.3367 24.9758 49.1799 24.9646C49.023 24.9534 48.8725 24.8985 48.7452 24.8063C48.6179 24.714 48.5189 24.5879 48.4595 24.4424C48.4 24.2968 48.3825 24.1375 48.4088 23.9825L49.5488 17.3453C49.5892 17.1104 49.5718 16.8691 49.498 16.6424C49.4243 16.4157 49.2964 16.2104 49.1255 16.0442L44.2962 11.3437C44.1836 11.2341 44.104 11.0951 44.0663 10.9426C44.0286 10.79 44.0345 10.6299 44.0831 10.4805C44.1318 10.3311 44.2214 10.1982 44.3416 10.0971C44.4619 9.99597 44.6081 9.93055 44.7637 9.90827L51.4377 8.94009C51.6737 8.90592 51.8978 8.8149 52.0908 8.67486C52.2838 8.53483 52.4398 8.34998 52.5455 8.13623L55.5302 2.09751C55.6 1.95657 55.7078 1.83795 55.8415 1.75502C55.9751 1.67209 56.1293 1.62815 56.2866 1.62815C56.4439 1.62815 56.598 1.67209 56.7317 1.75502C56.8653 1.83795 56.9731 1.95657 57.043 2.09751L60.0276 8.13618C60.1333 8.34993 60.2894 8.53477 60.4824 8.67481C60.6754 8.81484 60.8995 8.90587 61.1355 8.94004L67.8094 9.90822C67.965 9.9305 68.1112 9.99592 68.2315 10.0971C68.3518 10.1982 68.4413 10.331 68.49 10.4804C68.5387 10.6299 68.5445 10.7899 68.5069 10.9425C68.4692 11.0951 68.3894 11.2341 68.2768 11.3437Z" fill="url(#paint2_linear_578_5251)" stroke="url(#paint3_linear_578_5251)" stroke-width="2"/>
<path d="M33.8088 39.3205C33.8083 38.8872 33.6359 38.4719 33.3296 38.1655C33.0232 37.8591 32.6078 37.6868 32.1745 37.6863L12.5922 37.6863C12.1588 37.6863 11.7431 37.8584 11.4366 38.1649C11.1302 38.4714 10.958 38.887 10.958 39.3205L10.958 58.9028C10.9585 59.3361 11.1308 59.7515 11.4372 60.0578C11.7436 60.3642 12.159 60.5365 12.5922 60.537L32.1746 60.537C32.608 60.537 33.0237 60.3649 33.3301 60.0584C33.6366 59.7519 33.8088 59.3363 33.8088 58.9029L33.8088 39.3205ZM32.1747 59.7827L12.5924 59.7827C12.359 59.7825 12.1353 59.6897 11.9704 59.5247C11.8054 59.3597 11.7126 59.136 11.7124 58.9027L11.7124 39.3203C11.7124 39.2048 11.7351 39.0903 11.7793 38.9836C11.8236 38.8768 11.8884 38.7798 11.9701 38.698C12.0518 38.6163 12.1488 38.5515 12.2556 38.5073C12.3624 38.4631 12.4768 38.4403 12.5924 38.4403L32.1747 38.4403C32.408 38.4406 32.6317 38.5333 32.7967 38.6983C32.9617 38.8633 33.0545 39.087 33.0547 39.3203L33.0547 58.9027C33.0547 59.0182 33.032 59.1327 32.9878 59.2394C32.9435 59.3462 32.8787 59.4432 32.797 59.5249C32.7153 59.6067 32.6183 59.6715 32.5115 59.7157C32.4047 59.7599 32.2903 59.7827 32.1747 59.7827Z" fill="url(#paint4_linear_578_5251)" stroke="url(#paint5_linear_578_5251)" stroke-width="2"/>
<path d="M68.1072 45.0851L57.0568 37.0654C56.8311 36.9011 56.5591 36.8125 56.2799 36.8125C56.0007 36.8125 55.7287 36.9011 55.503 37.0654L44.4527 45.0851C44.226 45.2489 44.0573 45.4805 43.9709 45.7465C43.8844 46.0124 43.8847 46.299 43.9717 46.5647L48.1921 59.5393C48.2781 59.8051 48.4462 60.0368 48.6722 60.201C48.8983 60.3652 49.1706 60.4534 49.45 60.4529H63.1099C63.3893 60.4534 63.6616 60.3652 63.8876 60.201C64.1137 60.0368 64.2818 59.8052 64.3677 59.5394L68.5881 46.5647C68.6751 46.299 68.6754 46.0124 68.589 45.7465C68.5026 45.4805 68.3338 45.2489 68.1072 45.0851ZM68.0141 46.378L63.7937 59.3526C63.747 59.4972 63.6556 59.6232 63.5326 59.7124C63.4097 59.8017 63.2616 59.8496 63.1097 59.8493H49.45C49.298 59.8496 49.1499 59.8017 49.027 59.7124C48.9041 59.6232 48.8126 59.4972 48.7659 59.3526L44.5456 46.378C44.4983 46.2335 44.4981 46.0777 44.5451 45.9331C44.5921 45.7885 44.6839 45.6626 44.8071 45.5736L55.8574 37.5539C55.9801 37.4645 56.128 37.4164 56.2798 37.4164C56.4316 37.4164 56.5794 37.4645 56.7021 37.5539L67.7527 45.5736C67.876 45.6626 67.9677 45.7885 68.0148 45.9331C68.0618 46.0777 68.0614 46.2335 68.0141 46.378Z" fill="url(#paint6_linear_578_5251)" stroke="url(#paint7_linear_578_5251)" stroke-width="2"/>
<defs>
<linearGradient id="paint0_linear_578_5251" x1="22.3881" y1="2.91411" x2="22.3881" y2="23.3162" gradientUnits="userSpaceOnUse">
<stop stop-color="#00EFD1"/>
<stop offset="1" stop-color="#00ACEA"/>
</linearGradient>
<linearGradient id="paint1_linear_578_5251" x1="22.3881" y1="2.91411" x2="22.3881" y2="23.3162" gradientUnits="userSpaceOnUse">
<stop stop-color="#00EFD1"/>
<stop offset="1" stop-color="#00ACEA"/>
</linearGradient>
<linearGradient id="paint2_linear_578_5251" x1="56.2866" y1="0.449348" x2="56.2866" y2="25.6805" gradientUnits="userSpaceOnUse">
<stop stop-color="#00EFD1"/>
<stop offset="1" stop-color="#00ACEA"/>
</linearGradient>
<linearGradient id="paint3_linear_578_5251" x1="56.2866" y1="0.449348" x2="56.2866" y2="25.6805" gradientUnits="userSpaceOnUse">
<stop stop-color="#00EFD1"/>
<stop offset="1" stop-color="#00ACEA"/>
</linearGradient>
<linearGradient id="paint4_linear_578_5251" x1="33.8197" y1="37.6753" x2="11.3608" y2="60.1341" gradientUnits="userSpaceOnUse">
<stop stop-color="#00EFD1"/>
<stop offset="1" stop-color="#00ACEA"/>
</linearGradient>
<linearGradient id="paint5_linear_578_5251" x1="33.8197" y1="37.6753" x2="11.3608" y2="60.1341" gradientUnits="userSpaceOnUse">
<stop stop-color="#00EFD1"/>
<stop offset="1" stop-color="#00ACEA"/>
</linearGradient>
<linearGradient id="paint6_linear_578_5251" x1="56.2799" y1="36.2832" x2="56.2799" y2="60.5353" gradientUnits="userSpaceOnUse">
<stop stop-color="#00EFD1"/>
<stop offset="1" stop-color="#00ACEA"/>
</linearGradient>
<linearGradient id="paint7_linear_578_5251" x1="56.2799" y1="36.2832" x2="56.2799" y2="60.5353" gradientUnits="userSpaceOnUse">
<stop stop-color="#00EFD1"/>
<stop offset="1" stop-color="#00ACEA"/>
</linearGradient>
</defs>
</svg>
