<svg width="39" height="70" viewBox="0 0 39 70" fill="none" xmlns="http://www.w3.org/2000/svg">
<path d="M33.1091 0H6.01235C4.51568 0.00168092 3.08078 0.596977 2.02247 1.65529C0.964164 2.71359 0.368868 4.14849 0.367188 5.64516V64.3548C0.368868 65.8515 0.964164 67.2864 2.02247 68.3447C3.08078 69.403 4.51568 69.9983 6.01235 70H33.1091C34.6058 69.9983 36.0407 69.403 37.099 68.3447C38.1573 67.2864 38.7526 65.8515 38.7543 64.3548V5.64516C38.7526 4.14849 38.1573 2.71359 37.099 1.65529C36.0407 0.596977 34.6058 0.00168092 33.1091 0ZM27.2159 2.25806L26.5384 5.64516H12.5832L11.9058 2.25806H27.2159ZM36.4962 64.3548C36.4952 65.2528 36.138 66.1138 35.503 66.7488C34.8681 67.3838 34.0071 67.7409 33.1091 67.7419H6.01235C5.11434 67.7409 4.25341 67.3838 3.61842 66.7488C2.98344 66.1138 2.62626 65.2528 2.62525 64.3548V5.64516C2.62626 4.74716 2.98344 3.88622 3.61842 3.25124C4.25341 2.61625 5.11434 2.25907 6.01235 2.25806H9.60281L10.5504 6.99563C10.6015 7.25157 10.7398 7.48187 10.9417 7.64734C11.1435 7.81281 11.3965 7.90324 11.6575 7.90323H27.464C27.725 7.90324 27.9779 7.81281 28.1798 7.64734C28.3816 7.48187 28.5199 7.25157 28.5711 6.99563L29.5187 2.25806H33.1091C34.0071 2.25907 34.8681 2.61625 35.503 3.25124C36.138 3.88622 36.4952 4.74716 36.4962 5.64516V64.3548Z" fill="url(#paint0_linear_578_5353)"/>
<path d="M12.7939 63.2266H6.01966C5.72022 63.2266 5.43304 63.3455 5.22131 63.5572C5.00958 63.769 4.89062 64.0562 4.89062 64.3556C4.89062 64.655 5.00958 64.9422 5.22131 65.1539C5.43304 65.3657 5.72022 65.4846 6.01966 65.4846H12.7939C13.0933 65.4846 13.3805 65.3657 13.5922 65.1539C13.8039 64.9422 13.9229 64.655 13.9229 64.3556C13.9229 64.0562 13.8039 63.769 13.5922 63.5572C13.3805 63.3455 13.0933 63.2266 12.7939 63.2266Z" fill="url(#paint1_linear_578_5353)"/>
<defs>
<linearGradient id="paint0_linear_578_5353" x1="19.5607" y1="-1.56723" x2="19.5607" y2="70.2442" gradientUnits="userSpaceOnUse">
<stop stop-color="#00EFD1"/>
<stop offset="1" stop-color="#00ACEA"/>
</linearGradient>
<linearGradient id="paint1_linear_578_5353" x1="9.40673" y1="63.176" x2="9.40673" y2="65.4925" gradientUnits="userSpaceOnUse">
<stop stop-color="#00EFD1"/>
<stop offset="1" stop-color="#00ACEA"/>
</linearGradient>
</defs>
</svg>
