<svg width="71" height="70" viewBox="0 0 71 70" fill="none" xmlns="http://www.w3.org/2000/svg">
<path d="M70.0196 11.7385L59.0821 0.80101C58.2999 0.019115 57.124 -0.215084 56.1022 0.208197C55.0803 0.631478 54.4141 1.62843 54.4141 2.73449V5.46886H41.2891C33.7504 5.46886 27.6172 11.6021 27.6172 19.1407V48.1251H17.2266V45.3908C17.2266 44.2848 16.5604 43.2877 15.5387 42.8645C14.5171 42.4413 13.3409 42.6751 12.5587 43.4571L1.62125 54.3946C0.553335 55.4626 0.553335 57.1938 1.62125 58.2616L12.5587 69.1991C13.3423 69.9826 14.5189 70.2142 15.5387 69.7918C16.5604 69.3686 17.2266 68.3715 17.2266 67.2655V64.5311H30.3516C37.8903 64.5311 44.0235 58.3979 44.0235 50.8592V21.8748H54.4141V24.6092C54.4141 25.7151 55.0803 26.7122 56.1022 27.1355C57.1237 27.5587 58.2999 27.3249 59.0821 26.5428L70.0196 15.6053C71.0874 14.5377 71.0874 12.8063 70.0196 11.7385ZM38.5549 50.8595C38.5549 55.3827 34.8749 59.0626 30.3517 59.0626H14.4924C13.3199 59.0626 12.3196 59.8006 11.9311 60.8375L7.42181 56.3283L11.9311 51.819C12.3196 52.8559 13.3199 53.5939 14.4924 53.5939H30.3517C33.4268 53.5939 36.2684 52.5731 38.5549 50.8531V50.8595ZM38.5549 39.922C38.5549 43.4867 36.2687 46.5259 33.0861 47.6548V30.0782C33.0861 26.5136 35.3723 23.4742 38.5549 22.3454V39.922ZM59.7099 18.1813C59.3212 17.1444 58.3211 16.4064 57.1486 16.4064H41.2892C38.2142 16.4064 35.3726 17.4271 33.0861 19.1472V19.1407C33.0861 14.6175 36.766 10.9376 41.2892 10.9376H57.1486C58.3211 10.9376 59.3214 10.1996 59.7099 9.16273L64.219 13.672L59.7099 18.1813Z" fill="url(#paint0_linear_578_5298)"/>
<defs>
<linearGradient id="paint0_linear_578_5298" x1="35.8202" y1="-1.56723" x2="35.8202" y2="70.2442" gradientUnits="userSpaceOnUse">
<stop stop-color="#00EFD1"/>
<stop offset="1" stop-color="#00ACEA"/>
</linearGradient>
</defs>
</svg>
