<svg width="71" height="73" viewBox="0 0 71 73" fill="none" xmlns="http://www.w3.org/2000/svg">
<path d="M45.6134 72.2418C45.4269 72.2418 45.6423 72.2436 45.4536 72.2418C39.6473 72.1905 34.5057 71.037 28.5667 67.6803C23.9033 65.0446 19.3156 61.1415 14.7343 56.5627C4.29478 46.1294 0.5 35.5713 0.5 26.0345C0.5 19.0692 1.23372 9.21012 7.83426 2.9338C7.83426 2.9338 12.1234 0.0266611 15.6741 4.13894e-05C17.3686 -0.0127328 21.035 1.00264 23.8382 5.50072L26.1699 9.53456C27.3898 12.0745 28.251 13.2004 28.3702 15.0353C28.5408 17.66 27.3816 18.6807 25.539 20.536L18.4689 27.6783C19.4602 30.4185 23.7466 39.7583 28.5667 44.586C33.3382 49.3443 41.0838 51.8519 43.8089 52.8068L50.3729 46.3762C51.473 45.2152 53.8139 43.4251 53.8139 43.4251C55.7397 43.509 57.4438 43.2256 60.0704 44.586L66.1416 48.0629C67.6903 49.7457 70.5 50.3903 70.5 56.5627C70.5 57.9408 69.442 61.4833 67.3538 63.4415C65.2656 65.3996 62.4744 67.6803 60.0704 68.9422C56.7981 69.8318 55.5813 72.2418 45.6134 72.2418ZM15.7482 4.14707C15.744 4.14707 15.7401 4.14707 15.7359 4.14707L15.6741 4.14737C13.6803 4.16237 11.6416 5.10979 9.93524 6.81521C4.31774 12.4295 3.73339 20.4729 3.78254 26.0345C3.86082 34.885 8.05897 44.9694 17.3686 54.2736C26.775 63.6748 35.8897 68.8639 44.7462 68.9422C50.2912 68.9913 59.0243 67.1399 64.684 61.4833C66.3905 59.7779 67.3385 57.7405 67.3535 55.7466L67.3538 55.6755C67.3582 53.5086 66.156 51.4793 64.2162 50.3903L60.0704 48.0629C55.9828 45.9545 54.8086 46.5844 53.8139 47.5699L44.7462 56.9767L43.0935 56.5627C42.6931 56.4624 33.2009 54.0189 25.5429 46.3801L25.539 46.3762C17.9138 38.7406 15.274 29.1403 15.1653 28.7353L14.7343 27.1285L23.8382 17.698C24.6984 16.8364 25.3672 15.6382 23.3411 11.3862L21.035 7.2829C19.9471 5.3479 17.9222 4.14707 15.7482 4.14707ZM61.0692 10.428C54.3986 3.76136 46.4429 1.00264 37.9227 1.00264V4.14722C54.1509 4.14722 67.3537 17.3423 67.3537 33.5612H70.5C70.5 25.0457 67.7397 17.0946 61.0692 10.428ZM37.9227 24.9901V27.6783C41.1683 27.6783 43.8089 30.3173 43.8089 33.5611H46.9552C46.9552 27.9863 43.044 24.9901 37.9227 24.9901ZM37.9227 12.7681V15.9127C47.6596 15.9127 55.5813 23.8297 55.5813 33.5611H58.7276C58.7276 22.4115 49.0788 12.7681 37.9227 12.7681Z" fill="url(#paint0_linear_578_5334)"/>
<defs>
<linearGradient id="paint0_linear_578_5334" x1="35.4998" y1="-1.61744" x2="35.4998" y2="72.4946" gradientUnits="userSpaceOnUse">
<stop stop-color="#00EFD1"/>
<stop offset="1" stop-color="#00ACEA"/>
</linearGradient>
</defs>
</svg>
