<svg width="71" height="72" viewBox="0 0 71 72" fill="none" xmlns="http://www.w3.org/2000/svg">
<path d="M64.299 32.7819C60.7803 32.0964 56.118 31.7188 51.171 31.7188C44.3487 31.7188 36.5011 32.5074 33.3646 34.255C30.0644 32.5889 26.3354 31.7149 22.5425 31.7188C10.3882 31.7188 0.5 40.5313 0.5 51.3635C0.5 62.1957 10.3882 71.0082 22.5425 71.0082C26.3351 71.0121 30.0639 70.1383 33.3639 68.4724C36.5005 70.2198 44.3493 71.0082 51.171 71.0082C56.1181 71.0082 60.7803 70.6305 64.299 69.9451C68.4716 69.132 70.5 67.9987 70.5 66.4805V36.2465C70.5 34.7281 68.4716 33.5948 64.299 32.7819ZM68.3125 56.3665C68.2329 56.4769 67.5016 57.3096 63.291 58.0635C59.9878 58.6549 55.6835 58.9806 51.171 58.9806C48.453 58.9863 45.7367 58.8597 43.0342 58.6014C44.0614 56.2982 44.5876 53.8419 44.5848 51.3635C44.5848 51.1124 44.5777 50.8628 44.5672 50.614C46.6713 50.7713 48.8854 50.8521 51.1707 50.8521C56.1179 50.8521 60.78 50.4744 64.2987 49.789C65.9839 49.4607 67.3217 49.0786 68.3122 48.6429L68.3125 56.3665ZM68.3125 46.2885C68.2331 46.3987 67.5019 47.2314 63.291 47.9854C59.9878 48.5769 55.6837 48.9026 51.171 48.9026C48.809 48.9026 46.5268 48.8153 44.3725 48.6433C43.8939 45.5808 42.6062 42.6633 40.6155 40.1309C43.6952 40.5492 47.3352 40.774 51.171 40.774C56.1181 40.774 60.7803 40.3963 64.299 39.7109C65.9842 39.3826 67.322 39.0006 68.3125 38.5648V46.2885ZM51.171 33.6683C55.6835 33.6683 59.9878 33.994 63.291 34.5854C67.1917 35.2839 68.1061 36.0497 68.2828 36.2465C68.1062 36.4431 67.1922 37.2091 63.291 37.9074C59.9878 38.4988 55.6837 38.8245 51.171 38.8245C46.4072 38.8245 41.8042 38.4516 38.4716 37.7987C37.5565 36.946 36.5578 36.1679 35.4873 35.4737C38.1223 34.5134 43.7783 33.6683 51.171 33.6683ZM2.6875 51.3635C2.6875 41.6064 11.5943 33.6683 22.5425 33.6683C33.4906 33.6683 42.3973 41.6064 42.3973 51.3635C42.3973 61.1206 33.4902 69.0587 22.5425 69.0587C11.5947 69.0587 2.6875 61.1206 2.6875 51.3635ZM63.291 68.1418C59.9878 68.7331 55.6837 69.0589 51.171 69.0589C43.7787 69.0589 38.1223 68.214 35.4869 67.2538C38.2367 65.47 40.4898 63.1469 42.0722 60.4639C45.0918 60.7826 48.1303 60.9384 51.171 60.9304C56.118 60.9304 60.7803 60.5527 64.299 59.8673C65.9842 59.5389 67.322 59.1568 68.3125 58.7212V66.4445C68.2322 66.5557 67.4993 67.388 63.291 68.1418ZM26.4092 43.0093C27.1057 43.7375 27.5764 44.6154 27.7743 45.5559H30.4205C30.7106 45.5559 30.9888 45.6586 31.1939 45.8414C31.399 46.0242 31.5142 46.2722 31.5142 46.5307C31.5142 46.7892 31.399 47.0372 31.1939 47.22C30.9888 47.4028 30.7106 47.5055 30.4205 47.5055H27.777C27.5192 48.766 26.7739 49.9061 25.6706 50.7275C24.5673 51.549 23.1758 51.9998 21.7382 52.0016H17.3052L26.2843 60.0039C26.4895 60.1867 26.6047 60.4347 26.6047 60.6932C26.6047 60.9518 26.4894 61.1997 26.2843 61.3825C26.0791 61.5653 25.8009 61.668 25.5108 61.668C25.2207 61.668 24.9425 61.5653 24.7374 61.3825L13.8912 51.7155C13.7382 51.5792 13.634 51.4055 13.5918 51.2164C13.5496 51.0273 13.5713 50.8313 13.6541 50.6532C13.7369 50.4751 13.8771 50.3228 14.0569 50.2157C14.2368 50.1086 14.4483 50.0514 14.6646 50.0514H21.7382C22.5949 50.0504 23.4281 49.8015 24.1125 49.3423C24.797 48.8831 25.2957 48.2383 25.5338 47.5049H14.6641C14.374 47.5049 14.0958 47.4022 13.8907 47.2193C13.6855 47.0365 13.5703 46.7886 13.5703 46.5301C13.5703 46.2716 13.6855 46.0236 13.8907 45.8408C14.0958 45.658 14.374 45.5553 14.6641 45.5553H25.5296C25.2937 44.8445 24.8144 44.2172 24.1588 43.761C23.5032 43.3049 22.7041 43.0428 21.8731 43.0113C21.8641 43.0113 21.8553 43.0097 21.8458 43.0092H14.6641C14.374 43.0092 14.0958 42.9065 13.8907 42.7237C13.6855 42.5409 13.5703 42.293 13.5703 42.0344C13.5703 41.7759 13.6855 41.528 13.8907 41.3452C14.0958 41.1624 14.374 41.0597 14.6641 41.0597H30.4205C30.7106 41.0597 30.9888 41.1624 31.1939 41.3452C31.399 41.528 31.5142 41.7759 31.5142 42.0344C31.5142 42.293 31.399 42.5409 31.1939 42.7237C30.9888 42.9065 30.7106 43.0092 30.4205 43.0092L26.4092 43.0093Z" fill="url(#paint0_linear_578_5343)" stroke="url(#paint1_linear_578_5343)" stroke-width="0.3"/>
<path fill-rule="evenodd" clip-rule="evenodd" d="M51.6897 27.4318C51.9653 27.4318 52.2296 27.3324 52.4245 27.1554C52.6194 26.9783 52.7289 26.7382 52.7289 26.4879L52.7289 4.22428L59.2673 10.1654C59.4624 10.3426 59.7271 10.4422 60.003 10.4422C60.279 10.4422 60.5436 10.3426 60.7387 10.1654C60.9339 9.98815 61.0435 9.74775 61.0435 9.49709C61.0435 9.24643 60.9339 9.00603 60.7387 8.82878L52.4254 1.27732C52.3289 1.18941 52.2142 1.11967 52.088 1.07208C51.9617 1.02449 51.8264 1 51.6897 1C51.553 1 51.4177 1.02449 51.2914 1.07208C51.1652 1.11967 51.0505 1.18941 50.954 1.27732L42.6407 8.82878C42.5441 8.91655 42.4674 9.02074 42.4151 9.1354C42.3629 9.25007 42.3359 9.37297 42.3359 9.49709C42.3359 9.74775 42.4456 9.98815 42.6407 10.1654C42.8358 10.3426 43.1005 10.4422 43.3764 10.4422C43.6524 10.4422 43.917 10.3426 44.1121 10.1654L50.6505 4.22428L50.6505 26.4879C50.6505 26.7382 50.76 26.9783 50.9549 27.1554C51.1498 27.3324 51.4141 27.4318 51.6897 27.4318Z" fill="url(#paint2_linear_578_5343)" stroke="url(#paint3_linear_578_5343)" stroke-width="0.3"/>
<defs>
<linearGradient id="paint0_linear_578_5343" x1="35.4998" y1="30.8391" x2="35.4998" y2="71.1453" gradientUnits="userSpaceOnUse">
<stop stop-color="#00EFD1"/>
<stop offset="1" stop-color="#00ACEA"/>
</linearGradient>
<linearGradient id="paint1_linear_578_5343" x1="35.4998" y1="30.8391" x2="35.4998" y2="71.1453" gradientUnits="userSpaceOnUse">
<stop stop-color="#00EFD1"/>
<stop offset="1" stop-color="#00ACEA"/>
</linearGradient>
<linearGradient id="paint2_linear_578_5343" x1="51.6897" y1="0.408217" x2="51.6897" y2="27.524" gradientUnits="userSpaceOnUse">
<stop stop-color="#00EFD1"/>
<stop offset="1" stop-color="#00ACEA"/>
</linearGradient>
<linearGradient id="paint3_linear_578_5343" x1="51.6897" y1="0.408217" x2="51.6897" y2="27.524" gradientUnits="userSpaceOnUse">
<stop stop-color="#00EFD1"/>
<stop offset="1" stop-color="#00ACEA"/>
</linearGradient>
</defs>
</svg>
