<svg width="71" height="70" viewBox="0 0 71 70" fill="none" xmlns="http://www.w3.org/2000/svg">
<path fill-rule="evenodd" clip-rule="evenodd" d="M60.5827 50.7769H57.5126L62.3853 54.6999C66.4826 49.1915 68.9092 42.3729 68.9092 35C68.9092 16.7615 54.0588 1.92657 35.8203 1.92657C25.8929 1.92657 16.9771 6.32241 10.9067 13.2689L18.3067 19.2231H60.5827C61.9899 19.2231 63.1373 20.3705 63.1373 21.7776V40.113C63.1567 40.2215 63.1567 40.3262 63.1373 40.427V48.2224C63.1373 49.6295 61.9899 50.7769 60.5827 50.7769ZM51.9539 24.5531H41.5341C41.0031 24.5531 40.5805 24.1306 40.5805 23.5995C40.5805 23.0646 41.0031 22.642 41.5341 22.642H51.9539C52.4888 22.642 52.9114 23.0646 52.9114 23.5995C52.9114 24.1306 52.4888 24.5531 51.9539 24.5531ZM30.1181 47.3618H19.7022C19.1673 47.3618 18.7448 46.9354 18.7448 46.4044C18.7448 45.8694 19.1673 45.4469 19.7022 45.4469H30.1181C30.6531 45.4469 31.0756 45.8694 31.0756 46.4044C31.0756 46.9354 30.6376 47.3618 30.1181 47.3618ZM54.458 50.7769H11.0618C9.65075 50.7769 8.50333 49.6295 8.50333 48.2224V21.7776C8.50333 20.3705 9.65075 19.2231 11.0618 19.2231H15.2638L9.69726 14.7419C5.34407 20.3433 2.74688 27.3712 2.74688 35C2.74688 53.2385 17.5819 68.0889 35.8203 68.0889C45.9997 68.0889 55.1209 63.4605 61.1952 56.2039L54.458 50.7769ZM52.0973 48.8775L43.7088 42.1287C41.7628 44.2801 38.9486 45.6368 35.8203 45.6368C29.9553 45.6368 25.1835 40.865 25.1835 35C25.1835 32.6935 25.92 30.5576 27.1721 28.8133L18.1905 21.5799C16.8841 25.4951 14.0233 28.4683 10.4299 29.6118V39.5276C14.4187 40.803 17.5198 44.3538 18.5742 48.8775H52.0973ZM20.683 21.138L28.4241 27.3635C30.3391 25.5067 32.9479 24.3632 35.8203 24.3632C41.6853 24.3632 46.4571 29.135 46.4571 35C46.4571 37.0545 45.8718 38.9694 44.8639 40.5975L53.4734 47.5285C54.7836 43.6637 57.6483 40.6789 61.2379 39.5393V29.6079C57.501 28.4256 54.5511 25.2625 53.3145 21.138H20.683ZM55.0783 48.8194L55.1519 48.8775H60.5944C60.9355 48.8775 61.2379 48.5907 61.2379 48.234V41.5821C58.3112 42.7412 56.0202 45.4198 55.0783 48.8194ZM35.8203 70C16.4655 70 0.820312 54.32 0.820312 35C0.820312 15.6645 16.4848 0 35.8203 0C45.1741 0 53.9657 3.63606 60.5672 10.2531C67.1842 16.8585 70.8203 25.6501 70.8203 35C70.8203 44.3537 67.1842 53.1454 60.5672 59.7469C53.9657 66.3639 45.1741 70 35.8203 70ZM55.3302 21.138C56.3924 24.1655 58.5438 26.5029 61.2379 27.5651V21.7776C61.2379 21.4365 60.951 21.138 60.5944 21.138H55.3302ZM16.5973 48.8775C15.6708 45.4508 13.3798 42.7412 10.4299 41.5705V48.234C10.4299 48.579 10.7168 48.8775 11.0734 48.8775H16.5973ZM10.4299 27.5651C13.1162 26.4991 15.2599 24.1616 16.3182 21.138H11.0734V21.1496C10.7323 21.1496 10.4299 21.4365 10.4299 21.7931V27.5651Z" fill="url(#paint0_linear_578_5237)"/>
<circle cx="35.8435" cy="35.0857" r="9.11697" fill="white"/>
<path d="M39.23 31.5828H38.4776C38.3752 31.0748 38.1485 30.616 37.8467 30.2172H39.23C39.607 30.2172 39.9129 29.9113 39.9129 29.5344C39.9129 29.1575 39.607 28.8516 39.23 28.8516H35.1332H32.4019C32.025 28.8516 31.7191 29.1575 31.7191 29.5344C31.7191 29.9113 32.025 30.2172 32.4019 30.2172H35.1332C36.0222 30.2172 36.7733 30.7894 37.056 31.5828H32.4019C32.025 31.5828 31.7191 31.8887 31.7191 32.2656C31.7191 32.6425 32.025 32.9484 32.4019 32.9484H37.056C36.7733 33.7419 36.0222 34.3141 35.1332 34.3141H32.4019C32.3131 34.3141 32.2244 34.3318 32.1411 34.366C31.9745 34.4356 31.8406 34.5681 31.771 34.7361C31.7013 34.9027 31.7013 35.0911 31.771 35.2577C31.8051 35.3424 31.8557 35.4175 31.9198 35.4803L37.381 40.9415C37.5148 41.0753 37.6896 41.1422 37.8644 41.1422C38.0392 41.1422 38.214 41.0753 38.3478 40.9428C38.6141 40.6765 38.6141 40.2436 38.3478 39.9773L34.0502 35.6797H35.1332C36.7828 35.6797 38.1608 34.5053 38.4776 32.9484H39.23C39.607 32.9484 39.9129 32.6425 39.9129 32.2656C39.9129 31.8887 39.607 31.5828 39.23 31.5828Z" fill="url(#paint1_linear_578_5237)"/>
<line x1="26.6513" y1="27.1748" x2="46.9293" y2="43.5395" stroke="url(#paint2_linear_578_5237)" stroke-width="1.9"/>
<defs>
<linearGradient id="paint0_linear_578_5237" x1="35.8202" y1="-1.56723" x2="35.8202" y2="70.2442" gradientUnits="userSpaceOnUse">
<stop stop-color="#00EFD1"/>
<stop offset="1" stop-color="#00ACEA"/>
</linearGradient>
<linearGradient id="paint1_linear_578_5237" x1="35.8158" y1="28.5764" x2="35.8158" y2="41.1851" gradientUnits="userSpaceOnUse">
<stop stop-color="#00EFD1"/>
<stop offset="1" stop-color="#00ACEA"/>
</linearGradient>
<linearGradient id="paint2_linear_578_5237" x1="26.2578" y1="27.0171" x2="47.891" y2="44.2791" gradientUnits="userSpaceOnUse">
<stop stop-color="#00D4DA"/>
<stop offset="1" stop-color="#00C3E1"/>
</linearGradient>
</defs>
</svg>
