<svg width="33" height="28" viewBox="0 0 33 28" fill="none" xmlns="http://www.w3.org/2000/svg">
<path d="M31.35 0H1.65C1.21254 0.000480413 0.793135 0.174473 0.483804 0.483804C0.174473 0.793135 0.000480413 1.21254 0 1.65V25.85C0.000480413 26.2875 0.174473 26.7069 0.483804 27.0162C0.793135 27.3255 1.21254 27.4995 1.65 27.5H31.35C31.7875 27.4995 32.2069 27.3255 32.5162 27.0162C32.8255 26.7069 32.9995 26.2875 33 25.85V1.65C32.9995 1.21254 32.8255 0.793135 32.5162 0.483804C32.2069 0.174473 31.7875 0.000480413 31.35 0V0ZM1.65 1.1H31.35C31.4958 1.10013 31.6356 1.15812 31.7388 1.26124C31.8419 1.36435 31.8999 1.50417 31.9 1.65V4.4H1.1V1.65C1.10013 1.50417 1.15812 1.36435 1.26124 1.26124C1.36435 1.15812 1.50417 1.10013 1.65 1.1V1.1ZM31.35 26.4H1.65C1.50417 26.3999 1.36435 26.3419 1.26124 26.2388C1.15812 26.1356 1.10013 25.9958 1.1 25.85V5.5H31.9V25.85C31.8999 25.9958 31.8419 26.1356 31.7388 26.2388C31.6356 26.3419 31.4958 26.3999 31.35 26.4V26.4ZM30.25 2.75C30.25 2.96756 30.1855 3.18023 30.0646 3.36113C29.9437 3.54202 29.772 3.68301 29.571 3.76627C29.37 3.84952 29.1488 3.87131 28.9354 3.82886C28.722 3.78642 28.526 3.68166 28.3722 3.52782C28.2183 3.37398 28.1136 3.17798 28.0711 2.9646C28.0287 2.75122 28.0505 2.53005 28.1337 2.32905C28.217 2.12805 28.358 1.95625 28.5389 1.83538C28.7198 1.71451 28.9324 1.65 29.15 1.65C29.4417 1.65 29.7215 1.76589 29.9278 1.97218C30.1341 2.17847 30.25 2.45826 30.25 2.75ZM27.5 2.75C27.5 2.96756 27.4355 3.18023 27.3146 3.36113C27.1937 3.54202 27.022 3.68301 26.821 3.76627C26.62 3.84952 26.3988 3.87131 26.1854 3.82886C25.972 3.78642 25.776 3.68166 25.6222 3.52782C25.4683 3.37398 25.3636 3.17798 25.3211 2.9646C25.2787 2.75122 25.3005 2.53005 25.3837 2.32905C25.467 2.12805 25.608 1.95625 25.7889 1.83538C25.9698 1.71451 26.1824 1.65 26.4 1.65C26.6917 1.65 26.9715 1.76589 27.1778 1.97218C27.3841 2.17847 27.5 2.45826 27.5 2.75ZM21.45 3.3H3.85C3.70413 3.3 3.56424 3.24205 3.46109 3.13891C3.35795 3.03576 3.3 2.89587 3.3 2.75C3.3 2.60413 3.35795 2.46424 3.46109 2.36109C3.56424 2.25795 3.70413 2.2 3.85 2.2H21.45C21.5959 2.2 21.7358 2.25795 21.8389 2.36109C21.9421 2.46424 22 2.60413 22 2.75C22 2.89587 21.9421 3.03576 21.8389 3.13891C21.7358 3.24205 21.5959 3.3 21.45 3.3ZM16.5 23.65C14.9771 23.65 13.4884 23.1984 12.2221 22.3523C10.9559 21.5062 9.96892 20.3037 9.38613 18.8967C8.80333 17.4897 8.65085 15.9415 8.94795 14.4478C9.24506 12.9542 9.97841 11.5821 11.0553 10.5053C12.1321 9.42841 13.5042 8.69506 14.9978 8.39795C16.4915 8.10085 18.0397 8.25333 19.4467 8.83613C20.8537 9.41892 22.0562 10.4059 22.9023 11.6721C23.7484 12.9384 24.2 14.4271 24.2 15.95C24.1977 17.9915 23.3857 19.9486 21.9422 21.3922C20.4986 22.8357 18.5415 23.6477 16.5 23.65V23.65ZM16.5 9.35C15.1946 9.35 13.9186 9.73708 12.8332 10.4623C11.7479 11.1875 10.9019 12.2183 10.4024 13.4243C9.90286 14.6303 9.77216 15.9573 10.0268 17.2376C10.2815 18.5179 10.9101 19.6939 11.8331 20.6169C12.7561 21.5399 13.9321 22.1685 15.2124 22.4232C16.4927 22.6778 17.8197 22.5471 19.0257 22.0476C20.2317 21.5481 21.2625 20.7021 21.9877 19.6168C22.7129 18.5314 23.1 17.2554 23.1 15.95C23.098 14.2002 22.4021 12.5226 21.1648 11.2853C19.9274 10.0479 18.2498 9.35195 16.5 9.35V9.35ZM19.6112 18.2838C19.7114 18.3875 19.7668 18.5264 19.7656 18.6706C19.7643 18.8148 19.7065 18.9528 19.6045 19.0548C19.5025 19.1567 19.3646 19.2146 19.2204 19.2158C19.0761 19.2171 18.9372 19.1616 18.8335 19.0615L16.5 16.7278L14.1665 19.0615C14.0628 19.1616 13.9239 19.2171 13.7796 19.2158C13.6354 19.2146 13.4975 19.1567 13.3955 19.0548C13.2935 18.9528 13.2357 18.8148 13.2344 18.6706C13.2332 18.5264 13.2886 18.3875 13.3888 18.2838L15.7223 15.95L13.3888 13.6162C13.3363 13.5655 13.2944 13.5048 13.2656 13.4377C13.2367 13.3706 13.2216 13.2984 13.2209 13.2254C13.2203 13.1524 13.2342 13.08 13.2619 13.0124C13.2895 12.9448 13.3304 12.8834 13.382 12.8317C13.4336 12.7801 13.495 12.7392 13.5626 12.7116C13.6302 12.6839 13.7027 12.67 13.7757 12.6707C13.8487 12.6713 13.9209 12.6865 13.988 12.7153C14.0551 12.7441 14.1158 12.786 14.1665 12.8385L16.5 15.1722L18.8335 12.8385C18.8842 12.786 18.9449 12.7441 19.012 12.7153C19.0791 12.6865 19.1513 12.6713 19.2243 12.6707C19.2973 12.67 19.3698 12.6839 19.4374 12.7116C19.505 12.7392 19.5664 12.7801 19.618 12.8317C19.6696 12.8834 19.7105 12.9448 19.7381 13.0124C19.7658 13.08 19.7797 13.1524 19.7791 13.2254C19.7784 13.2984 19.7633 13.3706 19.7344 13.4377C19.7056 13.5048 19.6637 13.5655 19.6112 13.6162L17.2777 15.95L19.6112 18.2838Z" fill="url(#paint0_linear_578_4911)"/>
<defs>
<linearGradient id="paint0_linear_578_4911" x1="16.4999" y1="-0.615699" x2="16.4999" y2="27.5959" gradientUnits="userSpaceOnUse">
<stop stop-color="#00EFD1"/>
<stop offset="1" stop-color="#00ACEA"/>
</linearGradient>
</defs>
</svg>
