<svg width="50" height="50" viewBox="0 0 50 50" fill="none" xmlns="http://www.w3.org/2000/svg">
<path d="M36.0814 10.0851H11.3706C11.1521 10.0851 10.9426 9.99835 10.7881 9.84388C10.6337 9.68941 10.5469 9.4799 10.5469 9.26144C10.5469 9.04298 10.6337 8.83347 10.7881 8.679C10.9426 8.52453 11.1521 8.43774 11.3706 8.43774H36.0814C36.2999 8.43774 36.5094 8.52453 36.6639 8.679C36.8183 8.83347 36.9051 9.04298 36.9051 9.26144C36.9051 9.4799 36.8183 9.68941 36.6639 9.84388C36.5094 9.99835 36.2999 10.0851 36.0814 10.0851Z" fill="url(#paint0_linear_2905_2327)"/>
<path d="M36.0814 15.0265H11.3706C11.1521 15.0265 10.9426 14.9398 10.7881 14.7853C10.6337 14.6308 10.5469 14.4213 10.5469 14.2028C10.5469 13.9844 10.6337 13.7749 10.7881 13.6204C10.9426 13.4659 11.1521 13.3792 11.3706 13.3792H36.0814C36.2999 13.3792 36.5094 13.4659 36.6639 13.6204C36.8183 13.7749 36.9051 13.9844 36.9051 14.2028C36.9051 14.4213 36.8183 14.6308 36.6639 14.7853C36.5094 14.9398 36.2999 15.0265 36.0814 15.0265Z" fill="url(#paint1_linear_2905_2327)"/>
<path d="M36.0814 19.9719H11.3706C11.1521 19.9719 10.9426 19.8851 10.7881 19.7306C10.6337 19.5761 10.5469 19.3666 10.5469 19.1482C10.5469 18.9297 10.6337 18.7202 10.7881 18.5657C10.9426 18.4112 11.1521 18.3245 11.3706 18.3245H36.0814C36.2999 18.3245 36.5094 18.4112 36.6639 18.5657C36.8183 18.7202 36.9051 18.9297 36.9051 19.1482C36.9051 19.3666 36.8183 19.5761 36.6639 19.7306C36.5094 19.8851 36.2999 19.9719 36.0814 19.9719Z" fill="url(#paint2_linear_2905_2327)"/>
<path d="M23.7263 40.5643C24.7038 40.5643 25.6593 40.2744 26.4721 39.7314C27.2848 39.1883 27.9183 38.4165 28.2923 37.5134C28.6664 36.6103 28.7642 35.6166 28.5736 34.6579C28.3829 33.6992 27.9122 32.8186 27.221 32.1275C26.5298 31.4363 25.6492 30.9656 24.6905 30.7749C23.7318 30.5842 22.7381 30.6821 21.8351 31.0561C20.932 31.4302 20.1601 32.0636 19.6171 32.8764C19.074 33.6891 18.7842 34.6446 18.7842 35.6221C18.7855 36.9324 19.3066 38.1887 20.2332 39.1153C21.1597 40.0419 22.416 40.563 23.7263 40.5643ZM23.7263 32.3273C24.378 32.3273 25.015 32.5206 25.5568 32.8826C26.0987 33.2446 26.521 33.7592 26.7703 34.3612C27.0197 34.9633 27.0849 35.6258 26.9578 36.2649C26.8307 36.904 26.5169 37.4911 26.0561 37.9519C25.5953 38.4126 25.0083 38.7264 24.3691 38.8536C23.73 38.9807 23.0675 38.9155 22.4655 38.6661C21.8634 38.4167 21.3489 37.9944 20.9868 37.4526C20.6248 36.9108 20.4316 36.2737 20.4316 35.6221C20.4316 34.7483 20.7787 33.9102 21.3966 33.2923C22.0145 32.6745 22.8525 32.3273 23.7263 32.3273Z" fill="url(#paint3_linear_2905_2327)"/>
<path d="M47.6139 38.0931H41.8481V1.02682C41.8481 0.808363 41.7613 0.598853 41.6068 0.44438C41.4523 0.289907 41.2428 0.203125 41.0244 0.203125H6.42916C6.21071 0.203125 6.0012 0.289907 5.84672 0.44438C5.69225 0.598853 5.60547 0.808363 5.60547 1.02682V42.2116C5.60547 43.3039 6.03938 44.3514 6.81174 45.1238C7.58411 45.8961 8.63166 46.3301 9.72394 46.3301H19.6083V48.8011C19.6075 48.9419 19.6428 49.0805 19.7109 49.2038C19.7789 49.327 19.8774 49.4307 19.9969 49.5051C20.1165 49.5794 20.2531 49.6219 20.3937 49.6285C20.5343 49.635 20.6743 49.6054 20.8002 49.5425L23.7268 48.0746L26.6534 49.5425C26.7793 49.6054 26.9192 49.635 27.0598 49.6285C27.2005 49.6219 27.3371 49.5794 27.4566 49.5051C27.5761 49.4307 27.6746 49.327 27.7427 49.2038C27.8107 49.0805 27.846 48.9419 27.8452 48.8011V46.3301H44.3191C45.4114 46.3301 46.459 45.8961 47.2313 45.1238C48.0037 44.3514 48.4376 43.3039 48.4376 42.2116V38.9168C48.4376 38.6983 48.3508 38.4888 48.1964 38.3344C48.0419 38.1799 47.8324 38.0931 47.6139 38.0931ZM18.3975 37.8287C18.1004 37.269 17.667 36.7933 17.1372 36.4457C16.8695 36.234 16.3135 35.795 16.3135 35.622C16.3135 35.449 16.8695 35.0117 17.1372 34.7983C17.6672 34.4503 18.1007 33.974 18.3975 33.4137C18.5915 32.7908 18.6257 32.1291 18.4971 31.4895C18.4266 31.1238 18.4213 30.7484 18.4815 30.3808C18.8503 30.3145 19.2283 30.3179 19.5959 30.3907C20.2355 30.5197 20.8973 30.4855 21.5201 30.2911C22.0796 29.9945 22.5552 29.5616 22.9031 29.0325C23.1148 28.7648 23.5538 28.2088 23.7268 28.2088C23.8997 28.2088 24.3371 28.7648 24.5505 29.0325C24.8985 29.5624 25.3748 29.9959 25.9351 30.2927C26.5579 30.4871 27.2197 30.5213 27.8592 30.3924C28.225 30.3223 28.6003 30.317 28.9679 30.3767C29.0338 30.7456 29.0304 31.1235 28.9581 31.4912C28.8295 32.1308 28.8638 32.7924 29.0577 33.4153C29.3543 33.9748 29.7872 34.4505 30.3163 34.7983C30.584 35.01 31.14 35.449 31.14 35.622C31.14 35.795 30.584 36.2324 30.3163 36.4457C29.7864 36.7938 29.3529 37.2701 29.0561 37.8303C28.8621 38.4532 28.8278 39.1149 28.9564 39.7545C29.0269 40.1203 29.0322 40.4956 28.9721 40.8632C28.6031 40.9286 28.2253 40.9253 27.8576 40.8533C27.218 40.7252 26.5564 40.7594 25.9334 40.953C25.3739 41.2495 24.8983 41.6824 24.5505 42.2116C24.3388 42.4793 23.8997 43.0353 23.7268 43.0353C23.5538 43.0353 23.1164 42.4793 22.9031 42.2116C22.555 41.6816 22.0787 41.2481 21.5184 40.9513C21.2067 40.8303 20.8741 40.7724 20.5399 40.7808C20.2236 40.7872 19.908 40.8109 19.5943 40.8517C19.2285 40.9217 18.8532 40.927 18.4856 40.8673C18.4197 40.4984 18.4231 40.1205 18.4955 39.7528C18.6246 39.1134 18.5909 38.4517 18.3975 37.8287ZM26.1978 47.4684L24.095 46.4165C23.9806 46.3594 23.8546 46.3297 23.7268 46.3297C23.599 46.3297 23.4729 46.3594 23.3586 46.4165L21.2557 47.4684V42.7997C21.3784 42.9389 21.5028 43.0979 21.6132 43.2338C22.123 43.8796 22.7581 44.6827 23.7268 44.6827C24.6954 44.6827 25.3305 43.8796 25.8404 43.2338C25.9483 43.0979 26.0751 42.9389 26.1978 42.7997V47.4684ZM27.8452 44.6827V42.5073C28.2378 42.6082 28.6483 42.6175 29.0451 42.5345C29.4419 42.4516 29.8142 42.2785 30.1335 42.0287C30.7924 41.3698 30.6878 40.4126 30.5939 39.5692C30.5237 39.2031 30.5181 38.8276 30.5774 38.4596C30.7902 38.1787 31.0473 37.9341 31.3385 37.7356C31.9843 37.2258 32.7874 36.5907 32.7874 35.622C32.7874 34.6534 31.9843 34.0183 31.3385 33.5084C31.0473 33.3099 30.7902 33.0654 30.5774 32.7844C30.5181 32.4161 30.5237 32.0404 30.5939 31.674C30.6878 30.8314 30.7949 29.8759 30.1335 29.2153C29.472 28.5547 28.5166 28.661 27.6739 28.7549C27.3079 28.8251 26.9324 28.8306 26.5644 28.7713C26.2834 28.5586 26.0389 28.3015 25.8404 28.0103C25.3305 27.3645 24.6954 26.5614 23.7268 26.5614C22.7581 26.5614 22.123 27.3645 21.6132 28.0103C21.4147 28.3015 21.1701 28.5586 20.8891 28.7713C20.5209 28.8307 20.1451 28.8251 19.7788 28.7549C18.9353 28.661 17.9807 28.5539 17.3201 29.2153C16.6595 29.8767 16.7657 30.8314 16.8596 31.6749C16.9298 32.0409 16.9354 32.4164 16.8761 32.7844C16.6633 33.0654 16.4063 33.3099 16.115 33.5084C15.4692 34.0183 14.6661 34.6534 14.6661 35.622C14.6661 36.5907 15.4692 37.2258 16.115 37.7356C16.4063 37.9341 16.6633 38.1787 16.8761 38.4596C16.9354 38.8279 16.9298 39.2037 16.8596 39.57C16.7657 40.4126 16.6586 41.3681 17.3201 42.0287C17.6394 42.2783 18.0118 42.4513 18.4085 42.5343C18.8052 42.6172 19.2157 42.608 19.6083 42.5073V44.6827H9.72394C9.06917 44.6807 8.44178 44.4197 7.97878 43.9567C7.51579 43.4937 7.25481 42.8664 7.25286 42.2116V1.85052H40.2007V42.2116C40.203 43.1036 40.495 43.9708 41.0326 44.6827H27.8452ZM46.7902 42.2116C46.7883 42.8664 46.5273 43.4937 46.0643 43.9567C45.6013 44.4197 44.9739 44.6807 44.3191 44.6827C43.665 44.6786 43.0389 44.4169 42.5764 43.9544C42.1138 43.4918 41.8522 42.8657 41.8481 42.2116V39.7405H46.7902V42.2116Z" fill="url(#paint4_linear_2905_2327)"/>
<defs>
<linearGradient id="paint0_linear_2905_2327" x1="23.7259" y1="8.40086" x2="23.7259" y2="10.0909" gradientUnits="userSpaceOnUse">
<stop stop-color="#00EFD1"/>
<stop offset="1" stop-color="#00ACEA"/>
</linearGradient>
<linearGradient id="paint1_linear_2905_2327" x1="23.7259" y1="13.3423" x2="23.7259" y2="15.0323" gradientUnits="userSpaceOnUse">
<stop stop-color="#00EFD1"/>
<stop offset="1" stop-color="#00ACEA"/>
</linearGradient>
<linearGradient id="paint2_linear_2905_2327" x1="23.7259" y1="18.2876" x2="23.7259" y2="19.9776" gradientUnits="userSpaceOnUse">
<stop stop-color="#00EFD1"/>
<stop offset="1" stop-color="#00ACEA"/>
</linearGradient>
<linearGradient id="paint3_linear_2905_2327" x1="23.7263" y1="30.4586" x2="23.7263" y2="40.5987" gradientUnits="userSpaceOnUse">
<stop stop-color="#00EFD1"/>
<stop offset="1" stop-color="#00ACEA"/>
</linearGradient>
<linearGradient id="paint4_linear_2905_2327" x1="27.0214" y1="-0.90348" x2="27.0214" y2="49.8017" gradientUnits="userSpaceOnUse">
<stop stop-color="#00EFD1"/>
<stop offset="1" stop-color="#00ACEA"/>
</linearGradient>
</defs>
</svg>
