<svg width="155" height="29" viewBox="0 0 155 29" fill="none" xmlns="http://www.w3.org/2000/svg">
<g filter="url(#filter0_d_2905_2252)">
<path d="M11.138 2.40278C13.0447 2.40278 14.7173 2.77545 16.156 3.52078C17.612 4.26611 18.73 5.33211 19.51 6.71878C20.3073 8.08811 20.706 9.68278 20.706 11.5028C20.706 13.3228 20.3073 14.9174 19.51 16.2868C18.73 17.6388 17.612 18.6874 16.156 19.4328C14.7173 20.1781 13.0447 20.5508 11.138 20.5508H4.794V2.40278H11.138ZM11.008 17.4568C12.9147 17.4568 14.388 16.9368 15.428 15.8968C16.468 14.8568 16.988 13.3921 16.988 11.5028C16.988 9.61345 16.468 8.14011 15.428 7.08278C14.388 6.00811 12.9147 5.47078 11.008 5.47078H8.434V17.4568H11.008ZM36.8207 13.0368C36.8207 13.5568 36.7861 14.0248 36.7167 14.4408H26.1867C26.2734 15.4808 26.6374 16.2954 27.2787 16.8848C27.9201 17.4741 28.7087 17.7688 29.6447 17.7688C30.9967 17.7688 31.9587 17.1881 32.5307 16.0268H36.4567C36.0407 17.4134 35.2434 18.5574 34.0647 19.4588C32.8861 20.3428 31.4387 20.7848 29.7227 20.7848C28.3361 20.7848 27.0881 20.4814 25.9787 19.8748C24.8867 19.2508 24.0287 18.3754 23.4047 17.2488C22.7981 16.1221 22.4947 14.8221 22.4947 13.3488C22.4947 11.8581 22.7981 10.5494 23.4047 9.42278C24.0114 8.29611 24.8607 7.42945 25.9527 6.82278C27.0447 6.21611 28.3014 5.91278 29.7227 5.91278C31.0921 5.91278 32.3141 6.20745 33.3887 6.79678C34.4807 7.38611 35.3214 8.22678 35.9107 9.31878C36.5174 10.3934 36.8207 11.6328 36.8207 13.0368ZM33.0507 11.9968C33.0334 11.0608 32.6954 10.3154 32.0367 9.76078C31.3781 9.18878 30.5721 8.90278 29.6187 8.90278C28.7174 8.90278 27.9547 9.18011 27.3307 9.73478C26.7241 10.2721 26.3514 11.0261 26.2127 11.9968H33.0507ZM43.1176 8.38278C43.5856 7.62011 44.1923 7.02211 44.9376 6.58878C45.7003 6.15545 46.5669 5.93878 47.5376 5.93878V9.76078H46.5756C45.4316 9.76078 44.5649 10.0294 43.9756 10.5668C43.4036 11.1041 43.1176 12.0401 43.1176 13.3748V20.5508H39.4776V6.14678H43.1176V8.38278ZM51.8353 4.43078C51.194 4.43078 50.6566 4.23145 50.2233 3.83278C49.8073 3.41678 49.5993 2.90545 49.5993 2.29878C49.5993 1.69211 49.8073 1.18945 50.2233 0.79078C50.6566 0.37478 51.194 0.16678 51.8353 0.16678C52.4766 0.16678 53.0053 0.37478 53.4213 0.79078C53.8546 1.18945 54.0713 1.69211 54.0713 2.29878C54.0713 2.90545 53.8546 3.41678 53.4213 3.83278C53.0053 4.23145 52.4766 4.43078 51.8353 4.43078ZM53.6293 6.14678V20.5508H49.9893V6.14678H53.6293ZM63.2316 17.1968L66.8716 6.14678H70.7456L65.4156 20.5508H60.9956L55.6916 6.14678H59.5916L63.2316 17.1968ZM71.8541 13.2968C71.8541 11.8408 72.1401 10.5494 72.7121 9.42278C73.3014 8.29611 74.0901 7.42945 75.0781 6.82278C76.0834 6.21611 77.2014 5.91278 78.4321 5.91278C79.5068 5.91278 80.4428 6.12945 81.2401 6.56278C82.0548 6.99611 82.7048 7.54211 83.1901 8.20078V6.14678H86.8561V20.5508H83.1901V18.4448C82.7221 19.1208 82.0721 19.6841 81.2401 20.1348C80.4254 20.5681 79.4808 20.7848 78.4061 20.7848C77.1928 20.7848 76.0834 20.4728 75.0781 19.8488C74.0901 19.2248 73.3014 18.3494 72.7121 17.2228C72.1401 16.0788 71.8541 14.7701 71.8541 13.2968ZM83.1901 13.3488C83.1901 12.4648 83.0168 11.7108 82.6701 11.0868C82.3234 10.4454 81.8554 9.96011 81.2661 9.63078C80.6768 9.28411 80.0441 9.11078 79.3681 9.11078C78.6921 9.11078 78.0681 9.27545 77.4961 9.60478C76.9241 9.93411 76.4561 10.4194 76.0921 11.0608C75.7454 11.6848 75.5721 12.4301 75.5721 13.2968C75.5721 14.1634 75.7454 14.9261 76.0921 15.5848C76.4561 16.2261 76.9241 16.7201 77.4961 17.0668C78.0854 17.4134 78.7094 17.5868 79.3681 17.5868C80.0441 17.5868 80.6768 17.4221 81.2661 17.0928C81.8554 16.7461 82.3234 16.2608 82.6701 15.6368C83.0168 14.9954 83.1901 14.2328 83.1901 13.3488ZM94.6492 9.13678V16.1048C94.6492 16.5901 94.7619 16.9454 94.9872 17.1708C95.2299 17.3788 95.6285 17.4828 96.1832 17.4828H97.8732V20.5508H95.5852C92.5172 20.5508 90.9832 19.0601 90.9832 16.0788V9.13678H89.2672V6.14678H90.9832V2.58478H94.6492V6.14678H97.8732V9.13678H94.6492ZM102.337 4.43078C101.696 4.43078 101.159 4.23145 100.725 3.83278C100.309 3.41678 100.101 2.90545 100.101 2.29878C100.101 1.69211 100.309 1.18945 100.725 0.79078C101.159 0.37478 101.696 0.16678 102.337 0.16678C102.979 0.16678 103.507 0.37478 103.923 0.79078C104.357 1.18945 104.573 1.69211 104.573 2.29878C104.573 2.90545 104.357 3.41678 103.923 3.83278C103.507 4.23145 102.979 4.43078 102.337 4.43078ZM104.131 6.14678V20.5508H100.491V6.14678H104.131ZM113.734 17.1968L117.374 6.14678H121.248L115.918 20.5508H111.498L106.194 6.14678H110.094L113.734 17.1968ZM136.682 13.0368C136.682 13.5568 136.647 14.0248 136.578 14.4408H126.048C126.135 15.4808 126.499 16.2954 127.14 16.8848C127.781 17.4741 128.57 17.7688 129.506 17.7688C130.858 17.7688 131.82 17.1881 132.392 16.0268H136.318C135.902 17.4134 135.105 18.5574 133.926 19.4588C132.747 20.3428 131.3 20.7848 129.584 20.7848C128.197 20.7848 126.949 20.4814 125.84 19.8748C124.748 19.2508 123.89 18.3754 123.266 17.2488C122.659 16.1221 122.356 14.8221 122.356 13.3488C122.356 11.8581 122.659 10.5494 123.266 9.42278C123.873 8.29611 124.722 7.42945 125.814 6.82278C126.906 6.21611 128.163 5.91278 129.584 5.91278C130.953 5.91278 132.175 6.20745 133.25 6.79678C134.342 7.38611 135.183 8.22678 135.772 9.31878C136.379 10.3934 136.682 11.6328 136.682 13.0368ZM132.912 11.9968C132.895 11.0608 132.557 10.3154 131.898 9.76078C131.239 9.18878 130.433 8.90278 129.48 8.90278C128.579 8.90278 127.816 9.18011 127.192 9.73478C126.585 10.2721 126.213 11.0261 126.074 11.9968H132.912ZM144.851 20.7848C143.672 20.7848 142.615 20.5768 141.679 20.1608C140.743 19.7274 139.998 19.1468 139.443 18.4188C138.906 17.6908 138.611 16.8848 138.559 16.0008H142.225C142.294 16.5554 142.563 17.0148 143.031 17.3788C143.516 17.7428 144.114 17.9248 144.825 17.9248C145.518 17.9248 146.056 17.7861 146.437 17.5088C146.836 17.2314 147.035 16.8761 147.035 16.4428C147.035 15.9748 146.792 15.6281 146.307 15.4028C145.839 15.1601 145.085 14.9001 144.045 14.6228C142.97 14.3628 142.086 14.0941 141.393 13.8168C140.717 13.5394 140.128 13.1148 139.625 12.5428C139.14 11.9708 138.897 11.1994 138.897 10.2288C138.897 9.43145 139.122 8.70345 139.573 8.04478C140.041 7.38611 140.7 6.86611 141.549 6.48478C142.416 6.10345 143.43 5.91278 144.591 5.91278C146.307 5.91278 147.676 6.34611 148.699 7.21278C149.722 8.06211 150.285 9.21478 150.389 10.6708H146.905C146.853 10.0988 146.61 9.64811 146.177 9.31878C145.761 8.97211 145.198 8.79878 144.487 8.79878C143.828 8.79878 143.317 8.92011 142.953 9.16278C142.606 9.40545 142.433 9.74345 142.433 10.1768C142.433 10.6621 142.676 11.0348 143.161 11.2948C143.646 11.5374 144.4 11.7888 145.423 12.0488C146.463 12.3088 147.321 12.5774 147.997 12.8548C148.673 13.1321 149.254 13.5654 149.739 14.1548C150.242 14.7268 150.502 15.4894 150.519 16.4428C150.519 17.2748 150.285 18.0201 149.817 18.6788C149.366 19.3374 148.708 19.8574 147.841 20.2388C146.992 20.6028 145.995 20.7848 144.851 20.7848Z" fill="#221F20"/>
</g>
<defs>
<filter id="filter0_d_2905_2252" x="0.793945" y="0.166748" width="153.725" height="28.6179" filterUnits="userSpaceOnUse" color-interpolation-filters="sRGB">
<feFlood flood-opacity="0" result="BackgroundImageFix"/>
<feColorMatrix in="SourceAlpha" type="matrix" values="0 0 0 0 0 0 0 0 0 0 0 0 0 0 0 0 0 0 127 0" result="hardAlpha"/>
<feOffset dy="4"/>
<feGaussianBlur stdDeviation="2"/>
<feComposite in2="hardAlpha" operator="out"/>
<feColorMatrix type="matrix" values="0 0 0 0 0 0 0 0 0 0 0 0 0 0 0 0 0 0 0.25 0"/>
<feBlend mode="normal" in2="BackgroundImageFix" result="effect1_dropShadow_2905_2252"/>
<feBlend mode="normal" in="SourceGraphic" in2="effect1_dropShadow_2905_2252" result="shape"/>
</filter>
</defs>
</svg>
