<svg width="50" height="50" viewBox="0 0 50 50" fill="none" xmlns="http://www.w3.org/2000/svg">
<path d="M43.7946 12.337L43.7946 12.337L25.4081 0.598478L43.7946 12.337ZM43.7946 12.337L43.7998 12.3403M43.7946 12.337L43.7998 12.3403M43.7998 12.3403C43.9785 12.4513 44.0862 12.6479 44.0836 12.8586H44.0835V12.8649V23.0454C44.0745 31.271 40.0858 38.9842 33.3788 43.7465L25.4252 49.3874C25.2019 49.539 24.9089 49.539 24.6856 49.3874L16.7319 43.7465C16.7318 43.7464 16.7318 43.7464 16.7317 43.7463C10.0245 38.9841 6.03639 31.2711 6.02722 23.0457V12.8662C6.02853 12.6522 6.13993 12.4534 6.32192 12.3403L6.32194 12.3404L6.32708 12.3371L24.7251 0.598478M43.7998 12.3403L24.7251 0.598478M24.7251 0.598478C24.9331 0.46596 25.1996 0.465869 25.4077 0.598206L24.7251 0.598478ZM42.8349 23.0575V23.057V13.4967V13.2232L42.6043 13.0761L25.3347 2.05997L25.0664 1.88882L24.7981 2.05997L7.5285 13.0761L7.29791 13.2232V13.4967L7.29791 23.057L7.29791 23.0575C7.30601 30.8763 11.0986 38.2071 17.4749 42.7317L17.4749 42.7317L24.7777 47.9124L25.0664 48.1172L25.3551 47.9124L32.6583 42.7317L32.6584 42.7317C39.0347 38.2071 42.8268 30.8763 42.8349 23.0575Z" fill="url(#paint0_linear_2905_2324)" stroke="url(#paint1_linear_2905_2324)" stroke-width="0.997799"/>
<path d="M18.7034 23.9799L18.7045 23.981L22.6326 27.9995L22.9754 28.3502L23.3319 28.0134L31.4702 20.3266L31.4704 20.3264C31.7221 20.0885 32.1187 20.0999 32.3562 20.3514L32.3564 20.3516C32.5941 20.6031 32.5831 20.9996 32.3315 21.2377C32.3314 21.2378 32.3313 21.2379 32.3312 21.238L23.3828 29.6787C23.1273 29.9133 22.7323 29.9049 22.4867 29.6594L17.805 24.8534C17.8049 24.8534 17.8048 24.8533 17.8048 24.8533C17.5638 24.605 17.5697 24.2085 17.8176 23.9677L17.8178 23.9675C18.066 23.7261 18.4625 23.7319 18.7034 23.9799Z" fill="url(#paint2_linear_2905_2324)" stroke="url(#paint3_linear_2905_2324)" stroke-width="0.997799"/>
<defs>
<linearGradient id="paint0_linear_2905_2324" x1="25.0553" y1="-1.11933" x2="25.0553" y2="50.1744" gradientUnits="userSpaceOnUse">
<stop stop-color="#00EFD1"/>
<stop offset="1" stop-color="#00ACEA"/>
</linearGradient>
<linearGradient id="paint1_linear_2905_2324" x1="25.0553" y1="-1.11933" x2="25.0553" y2="50.1744" gradientUnits="userSpaceOnUse">
<stop stop-color="#00EFD1"/>
<stop offset="1" stop-color="#00ACEA"/>
</linearGradient>
<linearGradient id="paint2_linear_2905_2324" x1="25.0777" y1="19.4169" x2="25.0777" y2="30.3854" gradientUnits="userSpaceOnUse">
<stop stop-color="#00EFD1"/>
<stop offset="1" stop-color="#00ACEA"/>
</linearGradient>
<linearGradient id="paint3_linear_2905_2324" x1="25.0777" y1="19.4169" x2="25.0777" y2="30.3854" gradientUnits="userSpaceOnUse">
<stop stop-color="#00EFD1"/>
<stop offset="1" stop-color="#00ACEA"/>
</linearGradient>
</defs>
</svg>
