<svg width="50" height="50" viewBox="0 0 50 50" fill="none" xmlns="http://www.w3.org/2000/svg">
<path d="M40.5698 30.5633L34.889 34.8115C33.7358 33.3737 31.8922 32.6772 30.0762 32.9932L24.3201 34.0001C23.3935 34.1611 22.4428 34.1113 21.5378 33.8548L20.8939 33.6717C17.5687 32.7169 13.9861 33.4807 11.3394 35.7086L11.0778 34.2123C11.0105 33.8267 10.6433 33.5688 10.2582 33.6362L3.94585 34.7404C3.56024 34.8078 3.30239 35.1749 3.3702 35.5606L5.79273 49.4113C5.82502 49.5967 5.92973 49.7614 6.08333 49.8698C6.23739 49.9777 6.42789 50.0201 6.61285 49.9874L12.9247 48.8831C13.3099 48.8158 13.5677 48.4486 13.5004 48.0635L13.3703 47.3213L14.8717 46.1022C15.4612 45.6114 16.2186 45.3688 16.9838 45.4264L27.2763 46.1788C27.292 46.1801 27.3082 46.1806 27.3234 46.1806C29.602 46.1884 31.8239 45.4684 33.6648 44.1252C33.6915 44.1054 33.7174 44.0837 33.7414 44.0602L46.0012 32.0559C46.2692 31.7939 46.2862 31.3682 46.0408 31.0849C44.6488 29.4788 42.2405 29.2491 40.5698 30.5633ZM7.06673 48.4689L4.88774 36.014L9.8043 35.1542L11.9828 47.6091L7.06673 48.4689ZM32.7875 43.0117C31.2072 44.1538 29.3059 44.7673 27.3557 44.7636L17.0871 44.0131C15.9598 43.9278 14.8431 44.2839 13.9732 45.0062L13.0912 45.7226L11.6295 37.3664C13.9372 35.0209 17.3436 34.126 20.506 35.0343L21.1499 35.2174C22.2602 35.532 23.4271 35.5928 24.5646 35.3954L30.3202 34.3885C32.0292 34.0924 33.7095 35.0416 34.3382 36.6579L25.6426 38.1787C25.2574 38.246 24.9996 38.6132 25.0669 38.9988C25.1343 39.3844 25.5014 39.6422 25.887 39.5744L35.3484 37.9194C35.734 37.8521 35.9918 37.4849 35.924 37.0993C35.8604 36.7354 35.7566 36.3793 35.615 36.038L41.4255 31.6924C41.4301 31.6887 41.4352 31.685 41.4402 31.6809C42.3185 30.9858 43.5459 30.9406 44.4726 31.5693L32.7875 43.0117Z" fill="url(#paint0_linear_2905_2420)"/>
<path d="M28.9959 7.18571C29.3312 7.18571 29.6031 6.91372 29.6031 6.57847V0.607243C29.6031 0.271994 29.3312 0 28.9959 0C28.6607 0 28.3887 0.271994 28.3887 0.607243V6.57847C28.3887 6.91372 28.6607 7.18571 28.9959 7.18571Z" fill="url(#paint1_linear_2905_2420)"/>
<path d="M32.9432 7.18465C33.2784 7.18465 33.5504 6.91266 33.5504 6.57741V2.52912C33.5504 2.19387 33.2784 1.92188 32.9432 1.92188C32.6079 1.92188 32.3359 2.19387 32.3359 2.52912V6.57741C32.3359 6.91266 32.6079 7.18465 32.9432 7.18465Z" fill="url(#paint2_linear_2905_2420)"/>
<path d="M25.1502 7.18465C25.4855 7.18465 25.7575 6.91266 25.7575 6.57741V2.52912C25.7575 2.19387 25.4855 1.92188 25.1502 1.92188C24.815 1.92188 24.543 2.19387 24.543 2.52912V6.57741C24.543 6.91266 24.815 7.18465 25.1502 7.18465Z" fill="url(#paint3_linear_2905_2420)"/>
<path d="M35.7772 8.19957C36.1124 8.19957 36.3844 7.92757 36.3844 7.59232V4.4549C36.3844 4.11965 36.1124 3.84766 35.7772 3.84766C35.4419 3.84766 35.1699 4.11965 35.1699 4.4549V7.59232C35.1699 7.92757 35.4419 8.19957 35.7772 8.19957Z" fill="url(#paint4_linear_2905_2420)"/>
<path d="M22.2147 8.19957C22.5499 8.19957 22.8219 7.92757 22.8219 7.59232V4.4549C22.8219 4.11965 22.5499 3.84766 22.2147 3.84766C21.8794 3.84766 21.6074 4.11965 21.6074 4.4549V7.59232C21.6074 7.92757 21.8794 8.19957 22.2147 8.19957Z" fill="url(#paint5_linear_2905_2420)"/>
<path d="M28.9958 9.625C26.8682 9.625 24.7883 10.2559 23.0192 11.438C21.2502 12.62 19.8714 14.3001 19.0572 16.2658C18.2429 18.2315 18.0299 20.3945 18.445 22.4812C18.8601 24.568 19.8846 26.4848 21.3891 27.9892C22.8936 29.4937 24.8104 30.5183 26.8971 30.9333C28.9839 31.3484 31.1468 31.1354 33.1125 30.3212C35.0782 29.507 36.7583 28.1281 37.9404 26.3591C39.1224 24.59 39.7533 22.5102 39.7533 20.3825C39.7501 17.5304 38.6157 14.7961 36.599 12.7793C34.5822 10.7626 31.8479 9.62821 28.9958 9.625ZM28.9958 29.5775C27.1772 29.5775 25.3994 29.0383 23.8873 28.0279C22.3752 27.0175 21.1967 25.5815 20.5007 23.9013C19.8048 22.2211 19.6227 20.3723 19.9775 18.5887C20.3323 16.805 21.208 15.1666 22.4939 13.8807C23.7799 12.5947 25.4183 11.719 27.2019 11.3642C28.9856 11.0094 30.8344 11.1915 32.5146 11.8874C34.1948 12.5834 35.6308 13.7619 36.6412 15.274C37.6515 16.7862 38.1908 18.5639 38.1908 20.3825C38.1881 22.8203 37.2184 25.1575 35.4946 26.8813C33.7708 28.6051 31.4336 29.5748 28.9958 29.5775Z" fill="url(#paint6_linear_2905_2420)"/>
<path d="M32.4238 15.8906C32.631 15.8906 32.8297 15.8083 32.9763 15.6618C33.1228 15.5153 33.2051 15.3166 33.2051 15.1094C33.2051 14.9022 33.1228 14.7035 32.9763 14.5569C32.8297 14.4104 32.631 14.3281 32.4238 14.3281H25.5684C25.3612 14.3281 25.1624 14.4104 25.0159 14.5569C24.8694 14.7035 24.7871 14.9022 24.7871 15.1094C24.7871 15.3166 24.8694 15.5153 25.0159 15.6618C25.1624 15.8083 25.3612 15.8906 25.5684 15.8906H27.5301C27.9632 15.8939 28.3856 16.0255 28.7439 16.2689C29.1022 16.5122 29.3803 16.8564 29.543 17.2578H25.5684C25.3612 17.2578 25.1624 17.3401 25.0159 17.4866C24.8694 17.6331 24.7871 17.8319 24.7871 18.0391C24.7871 18.2463 24.8694 18.445 25.0159 18.5915C25.1624 18.738 25.3612 18.8203 25.5684 18.8203H29.543C29.2291 19.6992 28.4453 20.1875 27.5297 20.1875H25.5684C25.4106 20.1919 25.2576 20.2427 25.1285 20.3336C24.9994 20.4245 24.9001 20.5515 24.8428 20.6986C24.7855 20.8457 24.7729 21.0064 24.8066 21.1607C24.8402 21.3149 24.9185 21.4558 25.0318 21.5657L29.9348 26.2037C30.0087 26.2762 30.0962 26.3332 30.1924 26.3714C30.2886 26.4097 30.3914 26.4284 30.4948 26.4265C30.5983 26.4246 30.7004 26.4022 30.7951 26.3604C30.8898 26.3187 30.9752 26.2585 31.0464 26.1834C31.1176 26.1084 31.1732 26.0198 31.2098 25.9231C31.2465 25.8263 31.2635 25.7232 31.2599 25.6198C31.2563 25.5163 31.2322 25.4147 31.1889 25.3207C31.1456 25.2267 31.0841 25.1422 31.0078 25.0723L27.5324 21.7749C28.3836 21.7671 29.207 21.4705 29.8677 20.9337C30.5284 20.397 30.9874 19.6519 31.1694 18.8203H32.4238C32.631 18.8203 32.8297 18.738 32.9763 18.5915C33.1228 18.445 33.2051 18.2463 33.2051 18.0391C33.2051 17.8319 33.1228 17.6331 32.9763 17.4866C32.8297 17.3401 32.631 17.2578 32.4238 17.2578H31.1694C31.0623 16.7648 30.8543 16.2993 30.5586 15.8906H32.4238Z" fill="url(#paint7_linear_2905_2420)"/>
<defs>
<linearGradient id="paint0_linear_2905_2420" x1="24.7866" y1="29.2567" x2="24.7866" y2="50.0689" gradientUnits="userSpaceOnUse">
<stop stop-color="#00EFD1"/>
<stop offset="1" stop-color="#00ACEA"/>
</linearGradient>
<linearGradient id="paint1_linear_2905_2420" x1="28.9959" y1="-0.160881" x2="28.9959" y2="7.21077" gradientUnits="userSpaceOnUse">
<stop stop-color="#00EFD1"/>
<stop offset="1" stop-color="#00ACEA"/>
</linearGradient>
<linearGradient id="paint2_linear_2905_2420" x1="32.9432" y1="1.80405" x2="32.9432" y2="7.20301" gradientUnits="userSpaceOnUse">
<stop stop-color="#00EFD1"/>
<stop offset="1" stop-color="#00ACEA"/>
</linearGradient>
<linearGradient id="paint3_linear_2905_2420" x1="25.1502" y1="1.80405" x2="25.1502" y2="7.20301" gradientUnits="userSpaceOnUse">
<stop stop-color="#00EFD1"/>
<stop offset="1" stop-color="#00ACEA"/>
</linearGradient>
<linearGradient id="paint4_linear_2905_2420" x1="35.7772" y1="3.75022" x2="35.7772" y2="8.21475" gradientUnits="userSpaceOnUse">
<stop stop-color="#00EFD1"/>
<stop offset="1" stop-color="#00ACEA"/>
</linearGradient>
<linearGradient id="paint5_linear_2905_2420" x1="22.2147" y1="3.75022" x2="22.2147" y2="8.21475" gradientUnits="userSpaceOnUse">
<stop stop-color="#00EFD1"/>
<stop offset="1" stop-color="#00ACEA"/>
</linearGradient>
<linearGradient id="paint6_linear_2905_2420" x1="28.9958" y1="9.1433" x2="28.9958" y2="31.2151" gradientUnits="userSpaceOnUse">
<stop stop-color="#00EFD1"/>
<stop offset="1" stop-color="#00ACEA"/>
</linearGradient>
<linearGradient id="paint7_linear_2905_2420" x1="28.9961" y1="14.0573" x2="28.9961" y2="26.4688" gradientUnits="userSpaceOnUse">
<stop stop-color="#00EFD1"/>
<stop offset="1" stop-color="#00ACEA"/>
</linearGradient>
</defs>
</svg>
