<svg width="185" height="28" viewBox="0 0 185 28" fill="none" xmlns="http://www.w3.org/2000/svg">
<g filter="url(#filter0_d_2905_2262)">
<path d="M24.58 1.40278V19.5508H20.94V7.74678L16.078 19.5508H13.322L8.434 7.74678V19.5508H4.794V1.40278H8.928L14.7 14.8968L20.472 1.40278H24.58ZM41.7768 5.14678V19.5508H38.1108V17.7308C37.6428 18.3548 37.0274 18.8488 36.2648 19.2128C35.5194 19.5594 34.7048 19.7328 33.8208 19.7328C32.6941 19.7328 31.6974 19.4988 30.8308 19.0308C29.9641 18.5454 29.2794 17.8434 28.7768 16.9248C28.2914 15.9888 28.0488 14.8794 28.0488 13.5968V5.14678H31.6888V13.0768C31.6888 14.2208 31.9748 15.1048 32.5468 15.7288C33.1188 16.3354 33.8988 16.6388 34.8868 16.6388C35.8921 16.6388 36.6808 16.3354 37.2528 15.7288C37.8248 15.1048 38.1108 14.2208 38.1108 13.0768V5.14678H41.7768ZM49.6062 8.13678V15.1048C49.6062 15.5901 49.7189 15.9454 49.9442 16.1708C50.1869 16.3788 50.5856 16.4828 51.1402 16.4828H52.8302V19.5508H50.5422C47.4742 19.5508 45.9402 18.0601 45.9402 15.0788V8.13678H44.2242V5.14678H45.9402V1.58478H49.6062V5.14678H52.8302V8.13678H49.6062ZM69.0463 5.14678V19.5508H65.3803V17.7308C64.9123 18.3548 64.297 18.8488 63.5343 19.2128C62.789 19.5594 61.9743 19.7328 61.0903 19.7328C59.9636 19.7328 58.967 19.4988 58.1003 19.0308C57.2336 18.5454 56.549 17.8434 56.0463 16.9248C55.561 15.9888 55.3183 14.8794 55.3183 13.5968V5.14678H58.9583V13.0768C58.9583 14.2208 59.2443 15.1048 59.8163 15.7288C60.3883 16.3354 61.1683 16.6388 62.1563 16.6388C63.1616 16.6388 63.9503 16.3354 64.5223 15.7288C65.0943 15.1048 65.3803 14.2208 65.3803 13.0768V5.14678H69.0463ZM71.7017 12.2968C71.7017 10.8408 71.9877 9.54945 72.5597 8.42278C73.1491 7.29611 73.9378 6.42945 74.9258 5.82278C75.9311 5.21611 77.0491 4.91278 78.2798 4.91278C79.3544 4.91278 80.2904 5.12945 81.0878 5.56278C81.9024 5.99611 82.5524 6.54211 83.0378 7.20078V5.14678H86.7038V19.5508H83.0378V17.4448C82.5698 18.1208 81.9198 18.6841 81.0878 19.1348C80.2731 19.5681 79.3284 19.7848 78.2538 19.7848C77.0404 19.7848 75.9311 19.4728 74.9258 18.8488C73.9378 18.2248 73.1491 17.3494 72.5597 16.2228C71.9877 15.0788 71.7017 13.7701 71.7017 12.2968ZM83.0378 12.3488C83.0378 11.4648 82.8644 10.7108 82.5178 10.0868C82.1711 9.44545 81.7031 8.96011 81.1138 8.63078C80.5244 8.28411 79.8918 8.11078 79.2158 8.11078C78.5398 8.11078 77.9158 8.27545 77.3438 8.60478C76.7718 8.93411 76.3038 9.41945 75.9398 10.0608C75.5931 10.6848 75.4198 11.4301 75.4198 12.2968C75.4198 13.1634 75.5931 13.9261 75.9398 14.5848C76.3038 15.2261 76.7718 15.7201 77.3438 16.0668C77.9331 16.4134 78.5571 16.5868 79.2158 16.5868C79.8918 16.5868 80.5244 16.4221 81.1138 16.0928C81.7031 15.7461 82.1711 15.2608 82.5178 14.6368C82.8644 13.9954 83.0378 13.2328 83.0378 12.3488ZM93.8988 0.310781V19.5508H90.2588V0.310781H93.8988ZM114.896 1.40278V4.34078H107.33V8.99478H113.128V11.8808H107.33V19.5508H103.69V1.40278H114.896ZM131.076 5.14678V19.5508H127.41V17.7308C126.942 18.3548 126.326 18.8488 125.564 19.2128C124.818 19.5594 124.004 19.7328 123.12 19.7328C121.993 19.7328 120.996 19.4988 120.13 19.0308C119.263 18.5454 118.578 17.8434 118.076 16.9248C117.59 15.9888 117.348 14.8794 117.348 13.5968V5.14678H120.988V13.0768C120.988 14.2208 121.274 15.1048 121.846 15.7288C122.418 16.3354 123.198 16.6388 124.186 16.6388C125.191 16.6388 125.98 16.3354 126.552 15.7288C127.124 15.1048 127.41 14.2208 127.41 13.0768V5.14678H131.076ZM142.649 4.93878C144.365 4.93878 145.752 5.48478 146.809 6.57678C147.866 7.65145 148.395 9.15945 148.395 11.1008V19.5508H144.755V11.5948C144.755 10.4508 144.469 9.57545 143.897 8.96878C143.325 8.34478 142.545 8.03278 141.557 8.03278C140.552 8.03278 139.754 8.34478 139.165 8.96878C138.593 9.57545 138.307 10.4508 138.307 11.5948V19.5508H134.667V5.14678H138.307V6.94078C138.792 6.31678 139.408 5.83145 140.153 5.48478C140.916 5.12078 141.748 4.93878 142.649 4.93878ZM150.92 12.2968C150.92 10.8408 151.206 9.54945 151.778 8.42278C152.368 7.29611 153.165 6.42945 154.171 5.82278C155.176 5.21611 156.294 4.91278 157.525 4.91278C158.461 4.91278 159.353 5.12078 160.203 5.53678C161.052 5.93545 161.728 6.47278 162.231 7.14878V0.310781H165.923V19.5508H162.231V17.4188C161.78 18.1294 161.147 18.7014 160.333 19.1348C159.518 19.5681 158.573 19.7848 157.499 19.7848C156.285 19.7848 155.176 19.4728 154.171 18.8488C153.165 18.2248 152.368 17.3494 151.778 16.2228C151.206 15.0788 150.92 13.7701 150.92 12.2968ZM162.257 12.3488C162.257 11.4648 162.083 10.7108 161.737 10.0868C161.39 9.44545 160.922 8.96011 160.333 8.63078C159.743 8.28411 159.111 8.11078 158.435 8.11078C157.759 8.11078 157.135 8.27545 156.562 8.60478C155.991 8.93411 155.523 9.41945 155.159 10.0608C154.812 10.6848 154.639 11.4301 154.639 12.2968C154.639 13.1634 154.812 13.9261 155.159 14.5848C155.523 15.2261 155.991 15.7201 156.562 16.0668C157.152 16.4134 157.776 16.5868 158.435 16.5868C159.111 16.5868 159.743 16.4221 160.333 16.0928C160.922 15.7461 161.39 15.2608 161.737 14.6368C162.083 13.9954 162.257 13.2328 162.257 12.3488ZM174.99 19.7848C173.811 19.7848 172.754 19.5768 171.818 19.1608C170.882 18.7274 170.136 18.1468 169.582 17.4188C169.044 16.6908 168.75 15.8848 168.698 15.0008H172.364C172.433 15.5554 172.702 16.0148 173.17 16.3788C173.655 16.7428 174.253 16.9248 174.964 16.9248C175.657 16.9248 176.194 16.7861 176.576 16.5088C176.974 16.2314 177.174 15.8761 177.174 15.4428C177.174 14.9748 176.931 14.6281 176.446 14.4028C175.978 14.1601 175.224 13.9001 174.184 13.6228C173.109 13.3628 172.225 13.0941 171.532 12.8168C170.856 12.5394 170.266 12.1148 169.764 11.5428C169.278 10.9708 169.036 10.1994 169.036 9.22878C169.036 8.43145 169.261 7.70345 169.712 7.04478C170.18 6.38611 170.838 5.86611 171.688 5.48478C172.554 5.10345 173.568 4.91278 174.73 4.91278C176.446 4.91278 177.815 5.34611 178.838 6.21278C179.86 7.06211 180.424 8.21478 180.528 9.67078H177.044C176.992 9.09878 176.749 8.64811 176.316 8.31878C175.9 7.97211 175.336 7.79878 174.626 7.79878C173.967 7.79878 173.456 7.92011 173.092 8.16278C172.745 8.40545 172.572 8.74345 172.572 9.17678C172.572 9.66211 172.814 10.0348 173.3 10.2948C173.785 10.5374 174.539 10.7888 175.562 11.0488C176.602 11.3088 177.46 11.5774 178.136 11.8548C178.812 12.1321 179.392 12.5654 179.878 13.1548C180.38 13.7268 180.64 14.4894 180.658 15.4428C180.658 16.2748 180.424 17.0201 179.956 17.6788C179.505 18.3374 178.846 18.8574 177.98 19.2388C177.13 19.6028 176.134 19.7848 174.99 19.7848Z" fill="#221F20"/>
</g>
<defs>
<filter id="filter0_d_2905_2262" x="0.793945" y="0.310791" width="183.863" height="27.4739" filterUnits="userSpaceOnUse" color-interpolation-filters="sRGB">
<feFlood flood-opacity="0" result="BackgroundImageFix"/>
<feColorMatrix in="SourceAlpha" type="matrix" values="0 0 0 0 0 0 0 0 0 0 0 0 0 0 0 0 0 0 127 0" result="hardAlpha"/>
<feOffset dy="4"/>
<feGaussianBlur stdDeviation="2"/>
<feComposite in2="hardAlpha" operator="out"/>
<feColorMatrix type="matrix" values="0 0 0 0 0 0 0 0 0 0 0 0 0 0 0 0 0 0 0.25 0"/>
<feBlend mode="normal" in2="BackgroundImageFix" result="effect1_dropShadow_2905_2262"/>
<feBlend mode="normal" in="SourceGraphic" in2="effect1_dropShadow_2905_2262" result="shape"/>
</filter>
</defs>
</svg>
