<svg width="50" height="51" viewBox="0 0 50 51" fill="none" xmlns="http://www.w3.org/2000/svg">
<path d="M24.9998 29.2227C12.3978 29.2227 5.45898 35.192 5.45898 46.0084C5.45898 46.8757 6.12225 47.539 6.9896 47.539H43.01C43.8774 47.539 44.5406 46.8757 44.5406 46.0084C44.5406 35.192 37.6018 29.2227 24.9998 29.2227ZM8.57123 44.4778C9.18347 36.3655 14.6937 32.2839 24.9998 32.2839C35.3059 32.2839 40.8161 36.3655 41.4284 44.4778H8.57123Z" fill="url(#paint0_linear_2905_2317)"/>
<path d="M24.9997 26.9791C30.612 26.9791 35.1528 22.0301 35.1528 15.9587C35.1528 10.0403 30.765 5.60156 24.9997 5.60156C19.2344 5.60156 14.8467 10.0403 14.8467 15.9587C14.8467 22.0301 19.3875 26.9791 24.9997 26.9791ZM24.9997 8.66279C29.0303 8.66279 32.0916 11.775 32.0916 15.9587C32.0916 20.3465 28.9283 23.9179 24.9997 23.9179C21.0712 23.9179 17.9079 20.3465 17.9079 15.9587C17.9079 11.724 20.8671 8.66279 24.9997 8.66279Z" fill="url(#paint1_linear_2905_2317)"/>
<defs>
<linearGradient id="paint0_linear_2905_2317" x1="24.9997" y1="28.8126" x2="24.9997" y2="47.6029" gradientUnits="userSpaceOnUse">
<stop stop-color="#00EFD1"/>
<stop offset="1" stop-color="#00ACEA"/>
</linearGradient>
<linearGradient id="paint1_linear_2905_2317" x1="24.9997" y1="5.12294" x2="24.9997" y2="27.0537" gradientUnits="userSpaceOnUse">
<stop stop-color="#00EFD1"/>
<stop offset="1" stop-color="#00ACEA"/>
</linearGradient>
</defs>
</svg>
