<svg width="49" height="20" viewBox="0 0 49 20" fill="none" xmlns="http://www.w3.org/2000/svg">
<path d="M16.316 19H12.676L4.434 6.546V19H0.794V0.825998H4.434L12.676 13.306V0.825998H16.316V19ZM33.1471 6.468C33.1471 7.43867 32.9131 8.34867 32.4451 9.198C31.9945 10.0473 31.2751 10.732 30.2871 11.252C29.3165 11.772 28.0858 12.032 26.5951 12.032H23.5531V19H19.9131V0.852H26.5951C27.9991 0.852 29.1951 1.09467 30.1831 1.58C31.1711 2.06533 31.9078 2.73267 32.3931 3.582C32.8958 4.43133 33.1471 5.39333 33.1471 6.468ZM26.4391 9.094C27.4445 9.094 28.1898 8.86867 28.6751 8.418C29.1605 7.95 29.4031 7.3 29.4031 6.468C29.4031 4.7 28.4151 3.816 26.4391 3.816H23.5531V9.094H26.4391ZM41.9975 19.182C40.7322 19.182 39.5882 18.9653 38.5655 18.532C37.5602 18.0987 36.7628 17.4747 36.1735 16.66C35.5842 15.8453 35.2808 14.8833 35.2635 13.774H39.1635C39.2155 14.5193 39.4755 15.1087 39.9435 15.542C40.4288 15.9753 41.0875 16.192 41.9195 16.192C42.7688 16.192 43.4362 15.9927 43.9215 15.594C44.4068 15.178 44.6495 14.6407 44.6495 13.982C44.6495 13.4447 44.4848 13.0027 44.1555 12.656C43.8262 12.3093 43.4102 12.0407 42.9075 11.85C42.4222 11.642 41.7462 11.4167 40.8795 11.174C39.7008 10.8273 38.7388 10.4893 37.9935 10.16C37.2655 9.81333 36.6328 9.302 36.0955 8.626C35.5755 7.93267 35.3155 7.014 35.3155 5.87C35.3155 4.79533 35.5842 3.85933 36.1215 3.062C36.6588 2.26467 37.4128 1.658 38.3835 1.242C39.3542 0.808666 40.4635 0.592 41.7115 0.592C43.5835 0.592 45.1002 1.05133 46.2615 1.97C47.4402 2.87133 48.0902 4.13667 48.2115 5.766H44.2075C44.1728 5.142 43.9042 4.63067 43.4015 4.232C42.9162 3.816 42.2662 3.608 41.4515 3.608C40.7408 3.608 40.1688 3.79 39.7355 4.154C39.3195 4.518 39.1115 5.04667 39.1115 5.74C39.1115 6.22533 39.2675 6.63267 39.5795 6.962C39.9088 7.274 40.3075 7.534 40.7755 7.742C41.2608 7.93267 41.9368 8.158 42.8035 8.418C43.9822 8.76467 44.9442 9.11133 45.6895 9.458C46.4348 9.80467 47.0762 10.3247 47.6135 11.018C48.1508 11.7113 48.4195 12.6213 48.4195 13.748C48.4195 14.7187 48.1682 15.62 47.6655 16.452C47.1628 17.284 46.4262 17.9513 45.4555 18.454C44.4848 18.9393 43.3322 19.182 41.9975 19.182Z" fill="#221F20"/>
</svg>
