<svg width="50" height="51" viewBox="0 0 50 51" fill="none" xmlns="http://www.w3.org/2000/svg">
<g clip-path="url(#clip0_2905_2335)">
<path d="M45.19 3.01172C43.4847 3.01082 41.907 3.9129 41.0425 5.3828C40.1785 6.85269 40.1574 8.67026 40.9879 10.1599L35.7934 14.5127C34.8497 13.2818 33.3691 12.5824 31.8186 12.6343C30.2682 12.6866 28.8386 13.4845 27.9799 14.7763L22.1128 10.9953C22.1249 10.8552 22.1325 10.7138 22.1325 10.5702C22.1347 8.55035 20.8743 6.74396 18.9779 6.04861C17.0812 5.35371 14.9522 5.91751 13.6483 7.46034C12.3444 9.00317 12.1435 11.1962 13.1449 12.9506L7.13329 18.8271C4.91256 17.6167 2.13429 18.3268 0.766416 20.4545C-0.601014 22.5817 -0.0935973 25.4043 1.92936 26.922C3.95276 28.4398 6.80441 28.1378 8.46447 26.2294C10.1245 24.3214 10.0292 21.455 8.24612 19.6616L13.9964 14.0406C15.1423 15.1414 16.7581 15.605 18.313 15.2779C19.8684 14.9512 21.1611 13.8769 21.7669 12.4079L27.3839 16.0278C26.7632 18.0391 27.5221 20.2205 29.2569 21.4121C30.9922 22.6036 33.3006 22.5294 34.9548 21.2282C36.6095 19.9269 37.2261 17.7013 36.4771 15.7343L41.8229 11.2539C43.3724 12.7748 45.7489 13.0683 47.6224 11.9712C49.4954 10.8735 50.4011 8.65684 49.8324 6.56185C49.2636 4.4664 47.3611 3.01217 45.19 3.01261V3.01172ZM4.83873 26.4889C2.94106 26.4889 1.4027 24.9506 1.4027 23.0533C1.4027 21.1557 2.94106 19.6173 4.83873 19.6173C6.73639 19.6173 8.27431 21.1557 8.27431 23.0533C8.27207 24.9497 6.7355 26.4867 4.83873 26.4889ZM17.3223 14.0057C15.4247 14.0057 13.8863 12.4674 13.8863 10.5697C13.8863 8.6725 15.4247 7.13414 17.3219 7.13414C19.2196 7.13414 20.7579 8.67205 20.7579 10.5697C20.7557 12.4665 19.2187 14.0035 17.3223 14.0057ZM31.981 20.8773C30.0838 20.8773 28.5455 19.3394 28.5455 17.4418C28.5455 15.5446 30.0838 14.0062 31.981 14.0062C33.8787 14.0062 35.4171 15.5446 35.4171 17.4418C35.4148 19.3385 33.8778 20.8751 31.981 20.8773ZM45.19 11.2579C43.2923 11.2579 41.7544 9.71955 41.7544 7.82189C41.7544 5.92467 43.2923 4.38631 45.19 4.38631C47.0877 4.38631 48.6256 5.92467 48.6256 7.82189C48.6233 9.71866 47.0868 11.2557 45.19 11.2579Z" fill="url(#paint0_linear_2905_2335)"/>
<path d="M22.9522 24.0701C22.9522 23.6902 22.6448 23.3828 22.2649 23.3828H15.1629C14.7834 23.3828 14.4756 23.6902 14.4756 24.0701V47.4381C14.4756 47.8176 14.7834 48.1254 15.1629 48.1254H22.2649C22.6448 48.1254 22.9522 47.8176 22.9522 47.4381V24.0701ZM21.5776 46.7508H15.8502V24.7574H21.5776V46.7508Z" fill="url(#paint1_linear_2905_2335)"/>
<path d="M9.77937 34.7225C9.77937 34.3426 9.47196 34.0352 9.09207 34.0352H1.99003C1.61058 34.0352 1.30273 34.3426 1.30273 34.7225V47.4374C1.30273 47.8169 1.61058 48.1247 1.99003 48.1247H9.09207C9.47196 48.1247 9.77937 47.8169 9.77937 47.4374V34.7225ZM8.29023 46.7501H2.67732V35.4097H8.29023V46.7501Z" fill="url(#paint2_linear_2905_2335)"/>
<path d="M36.1251 30.7146C36.1251 30.3347 35.8177 30.0273 35.4378 30.0273H28.3357C27.9563 30.0273 27.6484 30.3347 27.6484 30.7146V47.4388C27.6484 47.8183 27.9563 48.1261 28.3357 48.1261H35.4378C35.8177 48.1261 36.1251 47.8183 36.1251 47.4388V30.7146ZM34.7505 46.7515H29.023V31.4019H34.7505V46.7515Z" fill="url(#paint3_linear_2905_2335)"/>
<path d="M49.4122 24.0701C49.4122 23.6902 49.1048 23.3828 48.7249 23.3828H41.6228C41.2434 23.3828 40.9355 23.6902 40.9355 24.0701V47.4381C40.9355 47.8176 41.2434 48.1254 41.6228 48.1254H48.7249C49.1048 48.1254 49.4122 47.8176 49.4122 47.4381V24.0701ZM47.9231 46.7508H42.3101V24.7574H47.9231V46.7508Z" fill="url(#paint4_linear_2905_2335)"/>
</g>
<defs>
<linearGradient id="paint0_linear_2905_2335" x1="25.0003" y1="2.45477" x2="25.0003" y2="27.9743" gradientUnits="userSpaceOnUse">
<stop stop-color="#00EFD1"/>
<stop offset="1" stop-color="#00ACEA"/>
</linearGradient>
<linearGradient id="paint1_linear_2905_2335" x1="18.7139" y1="22.8288" x2="18.7139" y2="48.2117" gradientUnits="userSpaceOnUse">
<stop stop-color="#00EFD1"/>
<stop offset="1" stop-color="#00ACEA"/>
</linearGradient>
<linearGradient id="paint2_linear_2905_2335" x1="5.54103" y1="33.7197" x2="5.54103" y2="48.1739" gradientUnits="userSpaceOnUse">
<stop stop-color="#00EFD1"/>
<stop offset="1" stop-color="#00ACEA"/>
</linearGradient>
<linearGradient id="paint3_linear_2905_2335" x1="31.8867" y1="29.6221" x2="31.8867" y2="48.1892" gradientUnits="userSpaceOnUse">
<stop stop-color="#00EFD1"/>
<stop offset="1" stop-color="#00ACEA"/>
</linearGradient>
<linearGradient id="paint4_linear_2905_2335" x1="45.1739" y1="22.8288" x2="45.1739" y2="48.2117" gradientUnits="userSpaceOnUse">
<stop stop-color="#00EFD1"/>
<stop offset="1" stop-color="#00ACEA"/>
</linearGradient>
<clipPath id="clip0_2905_2335">
<rect width="50" height="50" fill="white" transform="translate(0 0.550781)"/>
</clipPath>
</defs>
</svg>
