<svg width="42" height="42" viewBox="0 0 42 42" fill="none" xmlns="http://www.w3.org/2000/svg">
<path d="M14.2129 4.02344V9.11435" stroke="white" stroke-width="2" stroke-miterlimit="10" stroke-linecap="round" stroke-linejoin="round"/>
<path d="M27.7891 4.02344V9.11435" stroke="white" stroke-width="2" stroke-miterlimit="10" stroke-linecap="round" stroke-linejoin="round"/>
<path d="M6.57617 16.0547H35.4247" stroke="white" stroke-width="2" stroke-miterlimit="10" stroke-linecap="round" stroke-linejoin="round"/>
<path d="M37.9703 32.8738C37.9703 34.1465 37.6139 35.3514 36.986 36.3696C35.8151 38.3381 33.66 39.6617 31.1824 39.6617C29.4685 39.6617 27.9073 39.0338 26.7194 37.9647C26.1933 37.5235 25.7351 36.9805 25.3788 36.3696C24.7509 35.3514 24.3945 34.1465 24.3945 32.8738C24.3945 29.1235 27.4321 26.0859 31.1824 26.0859C33.2188 26.0859 35.0345 26.9853 36.2733 28.3938C37.3254 29.5986 37.9703 31.1599 37.9703 32.8738Z" stroke="white" stroke-width="2" stroke-miterlimit="10" stroke-linecap="round" stroke-linejoin="round"/>
<path d="M28.5352 32.874L30.2152 34.554L33.8297 31.2109" stroke="white" stroke-width="2" stroke-linecap="round" stroke-linejoin="round"/>
<path d="M36.272 15.0552V28.3933C35.0332 26.9848 33.2175 26.0855 31.1811 26.0855C27.4308 26.0855 24.3932 29.123 24.3932 32.8733C24.3932 34.1461 24.7496 35.3509 25.3775 36.3691C25.7338 36.98 26.192 37.523 26.7181 37.9642H14.2114C8.27202 37.9642 5.72656 34.5703 5.72656 29.4794V15.0552C5.72656 9.96425 8.27202 6.57031 14.2114 6.57031H27.7872C33.7266 6.57031 36.272 9.96425 36.272 15.0552Z" stroke="white" stroke-width="2" stroke-miterlimit="10" stroke-linecap="round" stroke-linejoin="round"/>
<path d="M20.9915 23.8875H21.0067" stroke="white" stroke-width="2.5" stroke-linecap="round" stroke-linejoin="round"/>
<path d="M14.7122 23.8875H14.7275" stroke="white" stroke-width="2.5" stroke-linecap="round" stroke-linejoin="round"/>
<path d="M14.7122 28.9813H14.7275" stroke="white" stroke-width="2.5" stroke-linecap="round" stroke-linejoin="round"/>
</svg>
