<svg xmlns="http://www.w3.org/2000/svg" width="27.406" height="19.116" viewBox="0 0 27.406 19.116">
  <g id="Group_98361" data-name="Group 98361" transform="translate(-4898.75 -4998.138)">
    <path id="caret-up-solid" d="M.391,5.711,5.674.391A1.467,1.467,0,0,1,6.651,0a1.325,1.325,0,0,1,.941.39l5.283,5.32a1.33,1.33,0,0,1,.289,1.45,1.294,1.294,0,0,1-1.229.821H1.331a1.329,1.329,0,0,1-.94-2.269Z" transform="translate(4916.777 4998.138) rotate(45)" fill="#093"/>
    <path id="chart-line-solid_4_" data-name="chart-line-solid (4)" d="M16.527,43.961a1.654,1.654,0,0,1-2.342,0l-2.974-2.969L6.579,45.619a1.656,1.656,0,0,1-2.342-2.342l5.8-5.8a1.654,1.654,0,0,1,2.342,0l2.974,2.969,5.461-5.456a1.656,1.656,0,1,1,2.342,2.342Z" transform="translate(4895 4971.149)" fill="#093"/>
  </g>
</svg>
