<svg width="14" height="18" viewBox="0 0 14 18" fill="none" xmlns="http://www.w3.org/2000/svg">
<g clip-path="url(#clip0_232_108)">
<path d="M10.2033 1.92401C10.2033 1.71755 10.204 1.53374 10.2033 1.34958C10.1998 0.53776 9.67849 0.00110144 8.89043 0.000382058C7.62697 -0.000697014 6.36351 -0.000697014 5.09969 0.000382058C4.32242 0.00110144 3.8025 0.538119 3.79693 1.34203C3.79589 1.47979 3.78858 1.61827 3.79867 1.75567C3.80876 1.89379 3.7552 1.9276 3.62861 1.92653C2.87533 1.92113 2.1217 1.91897 1.36842 1.9276C1.18584 1.92976 0.994914 1.95062 0.822765 2.00997C0.328579 2.17975 0.0131474 2.64591 0.00271416 3.18472C-0.00180626 3.41241 -0.00111103 3.64045 0.00236607 3.86814C0.00827885 4.25372 0.245461 4.50731 0.620361 4.52565C0.7939 4.53428 0.968831 4.53752 1.14167 4.52565C1.29435 4.51522 1.35347 4.56018 1.35903 4.72995C1.39033 5.68853 1.43207 6.64675 1.47241 7.60496C1.54787 9.39586 1.62578 11.1864 1.70159 12.9769C1.75132 14.1506 1.79236 15.325 1.85113 16.4983C1.8953 17.3788 2.5213 17.995 3.37126 17.9968C5.78829 18.0011 8.20497 18.0007 10.622 17.9946C11.4859 17.9925 12.108 17.3828 12.1494 16.4875C12.244 14.4517 12.3257 12.4151 12.4113 10.3789C12.4902 8.49232 12.5688 6.60574 12.6426 4.7188C12.6481 4.57385 12.6878 4.51522 12.8338 4.52529C13.0011 4.5368 13.1698 4.53069 13.3378 4.52709C13.7527 4.5181 13.9944 4.26595 13.9978 3.83936C13.9996 3.64153 13.9992 3.4437 13.9978 3.24587C13.993 2.48333 13.463 1.9294 12.7257 1.92509C11.9606 1.92041 11.1955 1.92401 10.4304 1.92401C10.3626 1.92401 10.2947 1.92401 10.2033 1.92401ZM13.3691 3.89259C13.2839 3.89259 13.2091 3.89259 13.1343 3.89259C10.926 3.89259 5.55736 3.89259 3.34935 3.89259C3.2857 3.89259 3.22136 3.88936 3.15807 3.89547C3.00505 3.91094 2.88924 4.03683 2.88055 4.19078C2.87185 4.34724 2.96958 4.48357 3.12434 4.5145C3.19737 4.52925 3.27423 4.52745 3.34935 4.52745C5.12891 4.52817 10.0683 4.52817 11.8476 4.52745C11.9568 4.52745 12.05 4.5145 12.0399 4.68931C12.0065 5.26949 11.9881 5.85075 11.9634 6.43165C11.8754 8.49771 11.787 10.5641 11.6994 12.6302C11.6465 13.8819 11.5979 15.134 11.5415 16.3854C11.5127 17.0278 11.1722 17.3591 10.5545 17.3594C8.18376 17.3601 5.81333 17.3605 3.44255 17.3594C2.83221 17.3591 2.48652 17.0274 2.45939 16.4008C2.35749 14.0654 2.25977 11.7295 2.16135 9.3937C2.09666 7.85459 2.03441 6.31511 1.96833 4.77599C1.95755 4.52817 1.95164 4.52817 2.18952 4.52817C2.63571 4.52781 3.08226 4.53105 3.52845 4.52673C3.78754 4.52421 3.94578 4.32782 3.86753 4.11237C3.80945 3.95302 3.68982 3.89116 3.52636 3.89152C2.62806 3.89439 1.72941 3.89259 0.831112 3.89259C0.763991 3.89259 0.696872 3.89259 0.630795 3.89259C0.630795 3.59837 0.612362 3.3286 0.636706 3.06315C0.655834 2.85453 0.7939 2.69806 0.984829 2.62648C1.10655 2.58116 1.24427 2.5657 1.37503 2.56534C5.00336 2.5621 8.63169 2.56282 12.2604 2.56282C12.4343 2.56282 12.6085 2.55706 12.782 2.56462C13.0714 2.57721 13.3353 2.78511 13.3635 3.06207C13.3903 3.32752 13.3691 3.59765 13.3691 3.89259ZM9.57764 1.90818C7.85128 1.90818 6.13676 1.90818 4.41249 1.90818C4.41249 1.71755 4.4118 1.54417 4.41249 1.3708C4.41423 0.883782 4.64689 0.639193 5.1143 0.638473C5.83802 0.636675 6.56209 0.637754 7.2858 0.638114C7.84155 0.638114 8.39764 0.635236 8.95338 0.640272C9.27751 0.643149 9.53799 0.848173 9.57172 1.15571C9.5992 1.40138 9.57764 1.65352 9.57764 1.90818Z" fill="#1B1464"/>
<path d="M6.69216 10.9404C6.69216 12.1331 6.69216 13.3255 6.69216 14.5182C6.69216 14.566 6.69008 14.6142 6.69356 14.6621C6.70747 14.8549 6.83197 14.9811 7.00412 14.9793C7.17557 14.9775 7.29834 14.8498 7.30738 14.6542C7.31329 14.5225 7.30912 14.3905 7.30912 14.2589C7.30912 11.9514 7.30946 9.64439 7.30807 7.33697C7.30807 7.26036 7.3032 7.17943 7.27921 7.10821C7.23469 6.97512 7.13106 6.91038 6.99682 6.91218C6.86292 6.91397 6.76068 6.98016 6.71964 7.1154C6.69773 7.1877 6.69321 7.26791 6.69286 7.34488C6.69147 8.54301 6.69216 9.74186 6.69216 10.9404Z" fill="#1B1464"/>
<path d="M9.34659 10.9605C9.29616 12.1273 9.24608 13.2945 9.196 14.4614C9.19357 14.5211 9.19114 14.5811 9.19218 14.6412C9.196 14.8394 9.30834 14.9703 9.48014 14.9786C9.65541 14.9869 9.78757 14.8736 9.80113 14.675C9.82443 14.3344 9.83347 13.993 9.84773 13.6517C9.93468 11.545 10.0216 9.43792 10.1086 7.33121C10.1197 7.06612 10.0161 6.91577 9.81609 6.91073C9.6335 6.90606 9.51352 7.03878 9.50344 7.26179C9.4704 7.99772 9.43771 8.73401 9.40641 9.46993C9.38554 9.96702 9.36676 10.4638 9.34659 10.9605Z" fill="#1B1464"/>
<path d="M4.6559 10.9429C4.60373 9.72821 4.55226 8.51353 4.4987 7.29885C4.49557 7.22836 4.4914 7.15138 4.46253 7.09023C4.39332 6.9442 4.27021 6.88557 4.1158 6.92118C3.96417 6.95607 3.88349 7.08484 3.89044 7.27871C3.90957 7.81753 3.93044 8.35599 3.95339 8.8948C4.01599 10.3728 4.08033 11.8507 4.14327 13.3287C4.16101 13.7478 4.17596 14.1664 4.19266 14.5855C4.1944 14.6272 4.19648 14.6696 4.20414 14.7106C4.23752 14.8887 4.37176 14.9948 4.53939 14.9786C4.69485 14.9635 4.81135 14.8369 4.80753 14.6596C4.79848 14.2524 4.78075 13.8456 4.76336 13.4384C4.72788 12.6068 4.69032 11.7748 4.65381 10.9432C4.6545 10.9429 4.6552 10.9429 4.6559 10.9429Z" fill="#1B1464"/>
</g>
<defs>
<clipPath id="clip0_232_108">
<rect width="14" height="18" fill="white" transform="matrix(-1 0 0 1 14 0)"/>
</clipPath>
</defs>
</svg>
