<svg width="7" height="18" viewBox="0 0 7 18" fill="none" xmlns="http://www.w3.org/2000/svg">
<g clip-path="url(#clip0_232_102)">
<path d="M3.63938 18C3.42591 18 3.20622 17.9798 2.98031 17.9319C1.7513 17.6769 1.02073 16.5828 1.07358 15.0759C1.10363 14.2253 1.29326 13.429 1.47668 12.6579C1.54715 12.3639 1.61865 12.0597 1.67979 11.7619C1.85181 10.9201 2.01451 10.0595 2.17098 9.22653L2.22176 8.96025C2.23109 8.91103 2.22591 8.82521 2.22073 8.74192C2.19067 8.25479 2.1285 8.17907 1.74197 8.15761C1.55544 8.14752 1.35751 8.16392 1.15026 8.20683C1.03005 8.23207 0.903627 8.27877 0.756477 8.3343C0.682902 8.36206 0.603109 8.39235 0.518135 8.42137L0 8.60058L0.180311 7.72348C0.226943 7.49506 0.270466 7.27926 0.32228 7.06219C0.367876 6.86784 0.51399 6.73786 0.62487 6.68738C0.74715 6.63059 0.86943 6.57253 0.99171 6.51448C1.67461 6.18888 2.37927 5.85193 3.16891 5.85193C3.17927 5.85193 3.19067 5.85193 3.20104 5.85193C3.65596 5.85698 4.0601 5.92513 4.40311 6.05511C5.30052 6.39459 5.83109 7.32848 5.8228 8.55388C5.81658 9.41457 5.63523 10.2159 5.45907 10.9921C5.41554 11.1839 5.37202 11.3757 5.33161 11.5688C5.13057 12.5191 4.92953 13.5325 4.67876 14.8538C4.66114 14.9459 4.67461 15.086 4.68808 15.2198L4.69534 15.2943C4.71088 15.4621 4.76062 15.5782 4.96166 15.6388C5.39275 15.7688 5.81347 15.6451 6.20311 15.4924C6.23938 15.4785 6.27668 15.4646 6.32021 15.4507L6.7399 15.3031L6.78238 15.794C6.78549 15.8268 6.79171 15.8811 6.77927 15.9505C6.60829 16.921 6.53471 17.0295 5.78653 17.398L5.75855 17.4119C5.14715 17.7123 4.4342 18 3.63938 18ZM1.6342 7.39789C1.68083 7.39789 1.72642 7.39915 1.77202 7.40167C2.46943 7.44079 2.7886 7.82444 2.84145 8.68261C2.84974 8.8126 2.85907 8.96908 2.82902 9.13062L2.77927 9.3969C2.62176 10.2336 2.45907 11.0981 2.28497 11.9462C2.22073 12.2579 2.14715 12.5696 2.07565 12.8699C1.8943 13.6309 1.72332 14.349 1.69637 15.1087C1.65699 16.237 2.16373 16.9942 3.08601 17.186C3.99689 17.3753 4.83109 17.051 5.52642 16.709L5.5544 16.6951C5.80518 16.5714 5.97202 16.4894 6.0228 16.4149C6.03627 16.396 6.0487 16.3682 6.0601 16.3316C5.68186 16.4477 5.25907 16.5083 4.81243 16.3745C4.38549 16.2458 4.12435 15.8925 4.07772 15.3788L4.0715 15.3094C4.05285 15.1201 4.03212 14.9043 4.07358 14.6847C4.32435 13.3558 4.52746 12.3374 4.72953 11.3795C4.77098 11.1826 4.81554 10.987 4.8601 10.7902C5.03316 10.0279 5.19585 9.30856 5.20104 8.54757C5.20725 7.66165 4.8487 7.01676 4.21865 6.77824C3.93368 6.66971 3.5886 6.61292 3.19482 6.60913C3.18653 6.60913 3.1772 6.60913 3.16891 6.60913C2.49741 6.60913 1.87565 6.9057 1.21865 7.21994C1.11088 7.27169 1.00415 7.32217 0.896373 7.37265C0.88601 7.41682 0.876684 7.46225 0.866321 7.50768C0.926425 7.48875 0.985492 7.47361 1.04767 7.46099C1.2487 7.41934 1.4456 7.39789 1.6342 7.39789Z" fill="#1B1464"/>
<path d="M4.92941 4.77922C4.92733 4.77922 4.92422 4.77922 4.92215 4.77922C3.78122 4.77543 2.85169 3.70651 2.84961 2.39781C2.84858 1.77691 3.04961 1.19007 3.41645 0.744584C3.81127 0.263759 4.3491 0 4.93044 0C4.93355 0 4.93562 0 4.93873 0C5.48692 0.00252401 6.00402 0.249877 6.39262 0.69789C6.7864 1.15221 7.00298 1.75545 7.00091 2.39781C6.99469 3.71282 6.06723 4.77922 4.92941 4.77922ZM3.47138 2.39655C3.47241 3.29005 4.12422 4.01823 4.92422 4.02202C4.9263 4.02202 4.92733 4.02202 4.92941 4.02202C5.7263 4.02202 6.375 3.29384 6.37811 2.39655C6.37915 1.96494 6.232 1.55858 5.96464 1.24939C5.69003 0.933885 5.32526 0.758466 4.93562 0.757204C4.93355 0.757204 4.93148 0.757204 4.92941 0.757204C4.51386 0.757204 4.13251 0.942719 3.85479 1.28094C3.60713 1.58256 3.47034 1.97883 3.47138 2.39655Z" fill="#1B1464"/>
</g>
<defs>
<clipPath id="clip0_232_102">
<rect width="7" height="18" fill="white"/>
</clipPath>
</defs>
</svg>
