<svg width="23" height="33" viewBox="0 0 23 33" fill="none" xmlns="http://www.w3.org/2000/svg">
<path d="M9.11816 10.9287L8.67383 13H1.98145L4.08008 3.13574H6.58887L4.93457 10.9287H9.11816ZM15.25 5.00195C13.6982 5.00195 12.4609 6.7041 12.4609 8.80273C12.4609 10.2178 13.2197 11.1338 14.3887 11.1338C15.9473 11.1338 17.1846 9.43848 17.1846 7.33301C17.1846 5.9043 16.4189 5.00195 15.25 5.00195ZM14.3203 13.1709C11.5859 13.1709 9.91797 11.3867 9.91797 8.94629C9.91797 5.41895 12.2832 2.96484 15.3047 2.96484C18.0938 2.96484 19.7275 4.75586 19.7275 7.18945C19.7275 10.7236 17.335 13.1709 14.3203 13.1709Z" fill="#333333"/>
<path d="M10.6597 23.6885L10.4478 24.8506C9.94873 27.6396 8.16455 29.1709 5.50537 29.1709C2.88721 29.1709 1.17822 27.4688 1.17822 24.9121C1.17822 21.6309 3.3042 18.9648 6.64014 18.9648C9.11475 18.9648 10.7964 20.4961 10.8101 22.2734C10.8101 22.335 10.8032 22.417 10.7964 22.4648H8.3833C8.32178 21.5967 7.62451 20.9814 6.57861 20.9814C4.7876 20.9814 3.72803 22.752 3.72803 24.8096C3.72803 26.2383 4.4458 27.1543 5.76514 27.1543C6.82471 27.1543 7.66553 26.4639 7.89111 25.5L7.91162 25.4111H6.04541L6.41455 23.6885H10.6597ZM16.9009 21.002C15.3491 21.002 14.1118 22.7041 14.1118 24.8027C14.1118 26.2178 14.8706 27.1338 16.0396 27.1338C17.5981 27.1338 18.8354 25.4385 18.8354 23.333C18.8354 21.9043 18.0698 21.002 16.9009 21.002ZM15.9712 29.1709C13.2368 29.1709 11.5688 27.3867 11.5688 24.9463C11.5688 21.4189 13.9341 18.9648 16.9556 18.9648C19.7446 18.9648 21.3784 20.7559 21.3784 23.1895C21.3784 26.7236 18.9858 29.1709 15.9712 29.1709Z" fill="#333333"/>
</svg>
