<svg id="price_alert" data-name="price alert" xmlns="http://www.w3.org/2000/svg" width="19" height="19" viewBox="0 0 19 19">
  <path id="Path_59583" data-name="Path 59583" d="M0,0H19V19H0Z" fill="none"/>
  <path id="Path_59584" data-name="Path 59584" d="M8.75,4.583a1.583,1.583,0,1,1,3.167,0,5.542,5.542,0,0,1,3.167,4.75v2.375a3.167,3.167,0,0,0,1.583,2.375H4a3.167,3.167,0,0,0,1.583-2.375V9.333A5.542,5.542,0,0,1,8.75,4.583" transform="translate(-0.833 -0.625)" fill="none" stroke="#2d77f4" stroke-linecap="round" stroke-linejoin="round" stroke-width="1.5"/>
  <path id="Path_59585" data-name="Path 59585" d="M9,17v.792a2.375,2.375,0,0,0,4.75,0V17" transform="translate(-1.875 -3.542)" fill="none" stroke="#2d77f4" stroke-linecap="round" stroke-linejoin="round" stroke-width="1.5"/>
  <path id="Path_59586" data-name="Path 59586" d="M20.418,5.951A8.748,8.748,0,0,0,18.206,3" transform="translate(-3.793 -0.625)" fill="none" stroke="#2d77f4" stroke-linecap="round" stroke-linejoin="round" stroke-width="1.5"/>
  <path id="Path_59587" data-name="Path 59587" d="M3,5.951A8.748,8.748,0,0,1,5.21,3" transform="translate(-0.625 -0.625)" fill="none" stroke="#2d77f4" stroke-linecap="round" stroke-linejoin="round" stroke-width="1.5"/>
</svg>
