<svg xmlns="http://www.w3.org/2000/svg" width="27.406" height="19.116" viewBox="0 0 27.406 19.116">
  <g id="Group_98362" data-name="Group 98362" transform="translate(0 0)">
    <path id="caret-up-solid" d="M.391,2.269,5.674,7.59a1.467,1.467,0,0,0,.977.391,1.325,1.325,0,0,0,.941-.39l5.283-5.32a1.33,1.33,0,0,0,.289-1.45A1.294,1.294,0,0,0,11.934,0H1.331a1.329,1.329,0,0,0-.94,2.269Z" transform="translate(12.384 13.473) rotate(-45)" fill="#ff1a1a"/>
    <path id="chart-line-solid_4_" data-name="chart-line-solid (4)" d="M16.527,36.644a1.654,1.654,0,0,0-2.342,0l-2.974,2.969L6.579,34.986a1.656,1.656,0,0,0-2.342,2.342l5.8,5.8a1.654,1.654,0,0,0,2.342,0l2.974-2.969,5.461,5.456a1.656,1.656,0,1,0,2.342-2.342Z" transform="translate(-3.75 -34.5)" fill="#ff1a1a"/>
  </g>
</svg>
