<svg xmlns="http://www.w3.org/2000/svg" width="16" height="13" viewBox="0 0 16 13">
  <path id="Twitter" d="M16,1.539a6.585,6.585,0,0,1-1.885.517A3.292,3.292,0,0,0,15.558.241a6.56,6.56,0,0,1-2.085.8A3.284,3.284,0,0,0,7.794,3.282a3.319,3.319,0,0,0,.086.748A9.318,9.318,0,0,1,1.114.6,3.285,3.285,0,0,0,2.13,4.982a3.255,3.255,0,0,1-1.486-.41v.042A3.283,3.283,0,0,0,3.277,7.831a3.277,3.277,0,0,1-.865.115,3.229,3.229,0,0,1-.617-.059,3.288,3.288,0,0,0,3.067,2.28,6.6,6.6,0,0,1-4.078,1.4A6.616,6.616,0,0,1,0,11.525,9.289,9.289,0,0,0,5.032,13a9.275,9.275,0,0,0,9.339-9.337c0-.143,0-.283-.009-.424A6.672,6.672,0,0,0,16,1.54Z" fill="#2aa3ef"/>
</svg>
