<svg xmlns="http://www.w3.org/2000/svg" width="13.945" height="14" viewBox="0 0 13.945 14">
  <path id="Path_13" data-name="Path 13" d="M642.17,254.252c.021-.081.034-.134.049-.187.3-1.086.6-2.171.891-3.258a.411.411,0,0,0-.031-.274,6.855,6.855,0,0,1,.722-7.722,6.933,6.933,0,0,1,10.609-.174,6.938,6.938,0,0,1-8.3,10.78.7.7,0,0,0-.545-.054c-1.067.289-2.138.564-3.207.844C642.3,254.221,642.251,254.232,642.17,254.252Zm3.451-8.617c.049.238.083.479.149.712a4.168,4.168,0,0,0,.691,1.245,6.986,6.986,0,0,0,3.783,2.816,2.092,2.092,0,0,0,1.9-.252,1.306,1.306,0,0,0,.542-1.173.3.3,0,0,0-.128-.225c-.467-.237-.94-.463-1.417-.681-.188-.086-.274-.048-.4.114q-.247.311-.5.618a.285.285,0,0,1-.359.1,4.734,4.734,0,0,1-2.4-2.063.254.254,0,0,1,.032-.338c.122-.134.238-.274.349-.418a.539.539,0,0,0,.071-.608c-.153-.323-.279-.659-.417-.99-.212-.508-.213-.519-.765-.5a.753.753,0,0,0-.437.158A1.984,1.984,0,0,0,645.621,245.635Z" transform="translate(-642.17 -240.252)" fill="#31d06a"/>
</svg>
