<svg width="203" height="116" viewBox="0 0 203 116" fill="none" xmlns="http://www.w3.org/2000/svg">
<g style="mix-blend-mode:multiply" opacity="0.7">
<path d="M162.243 60.7842H160.809C156.413 60.7934 152.084 61.8581 148.186 63.889C144.288 65.9198 140.935 68.8573 138.408 72.4542L130.298 68.5972L131.238 66.7676C133.019 63.6528 135.427 60.9417 138.309 58.8061L173.27 34.8725C175.817 33.0821 178.026 30.8556 179.798 28.2958C180.885 26.4167 179.352 24.8837 176.336 24.8342H158.238C156.929 24.7475 155.619 24.9815 154.421 25.5157C153.223 26.05 152.174 26.8684 151.364 27.9001C150.574 29.0032 149.555 29.9232 148.378 30.5973C147.2 31.2714 145.891 31.6839 144.54 31.8067L107.997 34.7737H106.563H106.217L105.079 34.5263C102.952 33.701 100.9 32.6917 98.9475 31.51C72.0963 17.763 60.1295 27.0596 53.6022 31.2628C53.1816 31.504 52.7023 31.6237 52.2176 31.6088L58.0032 20.9277H58.5966C59.0129 21.1341 59.4675 21.252 59.9317 21.2739C60.2428 21.3255 60.5602 21.3255 60.8713 21.2739L71.1073 17.6146C71.4505 17.4991 71.7667 17.3149 72.0365 17.0733C72.3063 16.8318 72.5242 16.5378 72.6768 16.2094C72.8295 15.881 72.9137 15.525 72.9244 15.163C72.9351 14.801 72.8721 14.4406 72.7391 14.1038C72.6231 13.7665 72.4406 13.4558 72.2025 13.1902C71.9644 12.9245 71.6755 12.7094 71.3528 12.5573C71.0302 12.4051 70.6804 12.3191 70.3239 12.3045C69.9675 12.2898 69.6118 12.3467 69.2777 12.4718L59.0417 16.1311C58.5547 16.2941 58.1264 16.5966 57.8099 17.001C57.4934 17.4054 57.3027 17.894 57.2615 18.4059C57.2342 18.2921 57.2342 18.1734 57.2615 18.0597L56.2724 18.4059C55.905 18.5532 55.5935 18.8127 55.3824 19.1476L49.4484 30.2242C49.0383 29.6971 48.7392 29.0923 48.5692 28.4464C48.3993 27.8005 48.3619 27.1269 48.4594 26.4662L53.4043 7.18069C53.701 5.9939 53.1571 5.69728 52.267 6.48848C44.67 13.2229 38.3832 21.3036 33.7234 30.3232C33.7234 30.9166 33.2289 31.5099 33.0311 32.1033C32.8333 32.6967 33.0311 32.5978 32.7839 32.8451C32.5366 33.0923 32.7838 33.7846 32.3882 34.2296V34.8725C32.3882 35.5154 32.141 36.2076 32.0421 36.8505C31.9927 37.2941 31.9927 37.742 32.0421 38.1857C32.0421 38.1857 32.0421 38.4823 32.0421 38.5812C32.0421 38.6801 32.0421 39.2735 32.3388 39.6691V39.9165C32.722 40.9148 33.2556 41.8487 33.9212 42.6856V42.6856C37.1244 46.2774 40.8402 49.3766 44.9485 51.8832L46.6793 53.1194L44.8001 51.7348L43.8112 51.0426L39.9541 60.0918C37.5056 59.4149 34.9781 59.0658 32.4377 59.0534C25.9794 59.0654 19.7337 61.3627 14.807 65.5386C9.88028 69.7144 6.59055 75.4994 5.52054 81.8685C4.45054 88.2376 5.66936 94.7798 8.96103 100.336C12.2527 105.893 17.4048 110.105 23.5047 112.227C29.6046 114.349 36.2586 114.243 42.288 111.928C48.3174 109.614 53.333 105.24 56.4465 99.5818C59.56 93.9235 60.5703 87.3458 59.2984 81.0139C58.0266 74.682 54.5547 69.0045 49.4978 64.9873L52.9099 58.9051C60.7765 67.9334 64.7889 79.6866 64.0855 91.6407C64.0161 92.3304 64.0926 93.027 64.3099 93.6852C64.5271 94.3435 64.8804 94.9486 65.3467 95.4616C65.813 95.9745 66.3819 96.3837 67.0165 96.6625C67.6511 96.9413 68.3373 97.0837 69.0304 97.0802H105.326H109.975C111.616 96.9866 113.208 96.4854 114.606 95.622C116.005 94.7586 117.166 93.5603 117.986 92.1352L121.991 84.52L121.299 85.855L133.414 87.5858C133.185 94.7488 135.776 101.716 140.632 106.987C145.487 112.258 152.217 115.413 159.375 115.772H160.759C168.025 115.956 175.066 113.245 180.333 108.238C185.601 103.23 188.663 96.3349 188.847 89.0692C189.03 81.8036 186.32 74.7626 181.313 69.4952C176.305 64.2278 169.41 61.1655 162.144 60.9819L162.243 60.7842ZM57.1626 18.1585C57.1184 18.4867 57.1184 18.8194 57.1626 19.1476C57.1184 18.8194 57.1184 18.4867 57.1626 18.1585V18.1585ZM54.245 85.954C54.245 90.2867 52.9602 94.5219 50.5531 98.1243C48.1461 101.727 44.7248 104.535 40.7219 106.193C36.7191 107.851 32.3146 108.285 28.0652 107.439C23.8158 106.594 19.9125 104.508 16.8488 101.444C13.7852 98.3804 11.6988 94.477 10.8536 90.2276C10.0083 85.9782 10.4421 81.5736 12.1001 77.5708C13.7582 73.568 16.5659 70.1468 20.1684 67.7397C23.7708 65.3326 28.0062 64.0477 32.3388 64.0477C34.1375 64.0607 35.929 64.2763 37.6794 64.6906L32.7344 76.4101H32.3882C30.5007 76.4101 28.6555 76.97 27.086 78.0187C25.5165 79.0674 24.2933 80.5579 23.571 82.3018C22.8486 84.0457 22.6596 85.9646 23.0279 87.8159C23.3961 89.6673 24.3051 91.3678 25.6398 92.7025C26.9745 94.0372 28.6751 94.9462 30.5264 95.3144C32.3777 95.6827 34.2966 95.4937 36.0405 94.7713C37.7844 94.049 39.2749 92.8257 40.3236 91.2562C41.3723 89.6867 41.9321 87.8416 41.9321 85.954C41.9177 84.0759 41.3688 82.2406 40.3496 80.6629L46.6793 69.3884C49.0597 71.4412 50.9683 73.9843 52.2742 76.8436C53.5801 79.7028 54.2524 82.8107 54.245 85.954V85.954ZM51.278 31.2628C51.6057 31.3138 51.9393 31.3138 52.267 31.2628C51.9415 31.337 51.6035 31.337 51.278 31.2628V31.2628ZM51.278 31.2628C50.9399 31.1601 50.6336 30.9728 50.388 30.7188C50.639 30.9549 50.9449 31.1249 51.278 31.2133V31.2628ZM48.6572 54.2568L47.1737 53.0206L48.6572 54.2568ZM50.6847 56.0864L49.1022 54.6523L50.6847 56.0864ZM51.0803 56.4326L52.8605 58.3611L51.0803 56.4326ZM161.007 110.135H159.919C154.304 109.844 149.014 107.409 145.141 103.333C141.268 99.2577 139.106 93.8513 139.101 88.2287L151.611 89.9594C151.974 91.9954 152.988 93.8585 154.501 95.2684C156.014 96.6783 157.943 97.5587 160 97.7769C162.056 97.9952 164.128 97.5397 165.903 96.4788C167.678 95.418 169.061 93.8092 169.843 91.8947C170.625 89.9802 170.763 87.8636 170.238 85.8633C169.713 83.8631 168.553 82.0875 166.931 80.8038C165.31 79.5202 163.315 78.7979 161.248 78.7458C159.181 78.6936 157.152 79.3143 155.468 80.5145L143.6 74.9267C145.64 72.2578 148.266 70.0937 151.276 68.6017C154.286 67.1097 157.598 66.33 160.957 66.3225H162.095C167.905 66.4668 173.419 68.913 177.425 73.1232C181.432 77.3334 183.601 82.9627 183.457 88.7726C183.313 94.5824 180.866 100.097 176.656 104.103C172.446 108.11 166.817 110.279 161.007 110.135V110.135Z" fill="#808080"/>
</g>
<path d="M128.567 81.849C128.381 85.4411 128.905 89.0347 130.109 92.424C131.314 95.8133 133.175 98.9318 135.587 101.601C137.998 104.269 140.913 106.436 144.163 107.977C147.413 109.518 150.935 110.402 154.528 110.579H155.913C163.178 110.763 170.219 108.053 175.487 103.045C180.754 98.0372 183.816 91.142 184 83.8764C184.184 76.6108 181.473 69.5698 176.466 64.3024C171.458 59.035 164.563 55.9727 157.297 55.7891H155.863C148.837 55.794 142.082 58.5035 136.999 63.3556C131.917 68.2077 128.897 74.8301 128.567 81.849V81.849ZM134.006 82.0963C134.285 76.4856 136.709 71.1964 140.777 67.3219C144.845 63.4474 150.246 61.2836 155.863 61.2779V60.8329V61.2779H157.001C162.81 61.4222 168.325 63.8685 172.331 68.0787C176.337 72.2889 178.507 77.9182 178.363 83.7281C178.219 89.5379 175.772 95.0526 171.562 99.0588C167.352 103.065 161.723 105.235 155.913 105.09H154.825C149.017 104.796 143.563 102.21 139.66 97.8986C135.757 93.5878 133.724 87.9046 134.006 82.0963Z" fill="black"/>
<path d="M27.3951 59.106C31.7277 59.106 35.9631 60.3909 39.5655 62.798C43.168 65.2051 45.9757 68.6262 47.6338 72.6291C49.2918 76.6319 49.7256 81.0365 48.8803 85.2859C48.0351 89.5353 45.9488 93.4387 42.8851 96.5023C39.8215 99.5659 35.9182 101.652 31.6688 102.498C27.4194 103.343 23.0148 102.909 19.012 101.251C15.0091 99.5929 11.5878 96.7851 9.18076 93.1826C6.77367 89.5802 5.48894 85.3449 5.48894 81.0123C5.48894 75.2024 7.7969 69.6304 11.9051 65.5222C16.0133 61.414 21.5852 59.106 27.3951 59.106ZM27.3951 53.6172C21.9768 53.6172 16.6803 55.2239 12.1752 58.2341C7.67013 61.2443 4.15882 65.5228 2.08535 70.5286C0.0118845 75.5344 -0.530649 81.0426 0.526396 86.3567C1.58344 91.6709 4.19255 96.5522 8.02382 100.383C11.8551 104.215 16.7365 106.824 22.0506 107.881C27.3647 108.938 32.8729 108.396 37.8787 106.322C42.8845 104.249 47.163 100.737 50.1732 96.2322C53.1834 91.7271 54.7902 86.4305 54.7902 81.0123C54.7902 73.7467 51.9039 66.7786 46.7663 61.641C41.6288 56.5034 34.6607 53.6172 27.3951 53.6172V53.6172Z" fill="black"/>
<path d="M36.9362 81.0047C36.9362 79.1172 36.3764 77.2719 35.3278 75.7024C34.2791 74.133 32.7886 72.9097 31.0447 72.1873C29.3008 71.465 27.3818 71.2761 25.5305 71.6444C23.6792 72.0126 21.9787 72.9216 20.6439 74.2563C19.3092 75.591 18.4003 77.2915 18.032 79.1428C17.6638 80.9941 17.8528 82.913 18.5751 84.6569C19.2975 86.4008 20.5207 87.8914 22.0902 88.9401C23.6596 89.9888 25.5048 90.5485 27.3924 90.5485C28.6475 90.555 29.8915 90.3126 31.0524 89.8353C32.2132 89.358 33.268 88.6552 34.1555 87.7677C35.043 86.8802 35.7457 85.8256 36.223 84.6647C36.7003 83.5039 36.9428 82.2599 36.9362 81.0047V81.0047Z" fill="#767A82"/>
<path d="M165.457 83.2313C165.457 81.3437 164.897 79.4986 163.848 77.9291C162.8 76.3596 161.309 75.1363 159.565 74.414C157.821 73.6917 155.902 73.5026 154.051 73.8709C152.2 74.2391 150.499 75.1481 149.164 76.4828C147.83 77.8175 146.921 79.518 146.553 81.3694C146.184 83.2207 146.373 85.1396 147.096 86.8835C147.818 88.6274 149.041 90.1179 150.611 91.1666C152.18 92.2153 154.025 92.775 155.913 92.775C157.168 92.7816 158.412 92.5393 159.573 92.062C160.734 91.5847 161.788 90.8819 162.676 89.9944C163.563 89.1068 164.266 88.0521 164.744 86.8912C165.221 85.7304 165.463 84.4864 165.457 83.2313V83.2313Z" fill="#767A82"/>
<path d="M45.2937 25.7264C45.7255 26.1629 46.2902 26.4436 46.8989 26.5241C47.5076 26.6047 48.1258 26.4807 48.6563 26.1716C55.1836 21.9684 67.1504 12.6718 94.0016 26.4188C96.6482 28.3563 99.7812 29.5205 103.051 29.7813L139.594 26.8143C140.945 26.6916 142.254 26.2792 143.432 25.6051C144.61 24.931 145.628 24.011 146.418 22.9079C147.228 21.8762 148.277 21.0577 149.475 20.5234C150.673 19.9891 151.983 19.7552 153.292 19.8419H171.39C174.407 19.8419 175.94 21.4244 174.852 23.3034C173.081 25.8633 170.871 28.0899 168.324 29.8803L133.364 53.8139C130.481 55.9495 128.073 58.6605 126.292 61.7752L113.139 86.8957C112.319 88.3207 111.158 89.5191 109.759 90.3825C108.361 91.2458 106.769 91.7471 105.128 91.8407H64.1835C63.4903 91.8442 62.8042 91.7018 62.1695 91.423C61.5349 91.1441 60.966 90.7349 60.4997 90.222C60.0334 89.7091 59.6802 89.1039 59.4629 88.4457C59.2456 87.7874 59.1692 87.0909 59.2385 86.4012C59.7607 78.6482 58.2574 70.8927 54.8763 63.8964C51.4951 56.9 46.3524 50.9034 39.9532 46.4953C35.0082 43.0833 26.2556 37.4955 26.849 31.6604C28.0852 19.9409 42.3762 5.89717 47.2222 1.3478C48.1123 0.55661 48.6563 0.85338 48.3596 2.04017L43.4147 21.3255C43.3172 21.9862 43.3545 22.6598 43.5245 23.3057C43.6945 23.9516 43.9935 24.5565 44.4036 25.0837L45.2937 25.7264Z" fill="#0086EB"/>
<path d="M24.1277 79.8725L38.9626 45.2578L39.9517 45.9502C42.9416 47.995 45.6657 50.4034 48.0614 53.1203L31.1991 83.0867C30.6833 83.8705 29.8994 84.4394 28.9943 84.6868C28.0892 84.9343 27.125 84.8433 26.2822 84.431C25.4394 84.0187 24.7758 83.3133 24.4156 82.4469C24.0554 81.5805 24.0234 80.6125 24.3256 79.7242L24.1277 79.8725Z" fill="#54575D"/>
<path d="M54.9368 15.9794C55.2479 16.0311 55.5652 16.0311 55.8763 15.9794L66.1124 12.3202C66.4556 12.2047 66.7717 12.0205 67.0415 11.7789C67.3114 11.5373 67.5292 11.2434 67.6818 10.915C67.8345 10.5866 67.9188 10.2306 67.9295 9.86857C67.9402 9.50657 67.8772 9.14622 67.7442 8.80935C67.6282 8.47204 67.4457 8.16136 67.2076 7.89575C66.9695 7.63013 66.6806 7.41495 66.3579 7.26284C66.0353 7.11073 65.6854 7.02472 65.329 7.01007C64.9725 6.99541 64.6168 7.05232 64.2828 7.17742L54.0467 10.8368C53.438 11.0465 52.9235 11.4654 52.5946 12.0189C52.2657 12.5723 52.1438 13.2245 52.2506 13.8593C52.3574 14.4942 52.686 15.0706 53.1778 15.486C53.6697 15.9014 54.293 16.1288 54.9368 16.1278V15.9794Z" fill="#54575D"/>
<path d="M50.4356 13.7051C50.6467 13.3703 50.9582 13.1107 51.3256 12.9634L52.3147 12.6172C52.1413 13.1304 52.1413 13.6864 52.3147 14.1996C52.5457 14.8235 53.0053 15.3362 53.6004 15.6337H53.007L47.2213 26.3148C46.855 26.3257 46.4903 26.2611 46.15 26.125C45.8097 25.9889 45.5011 25.7842 45.2434 25.5236L44.4521 24.5841L50.4356 13.7051Z" fill="#898F9D"/>
<path d="M103.248 39.4772L99.9844 29.5873C100.96 29.9608 102.011 30.0965 103.05 29.9829L139.593 27.0159C140.945 26.8932 142.254 26.4807 143.431 25.8066C144.609 25.1324 145.627 24.2125 146.418 23.1094L143.797 32.9993C143.593 33.6184 143.23 34.173 142.744 34.6071C142.258 35.0411 141.666 35.3393 141.027 35.4718L106.116 41.3069C105.5 41.383 104.876 41.2419 104.353 40.9079C103.83 40.574 103.439 40.068 103.248 39.4772V39.4772Z" fill="#0C385E"/>
<path d="M26.5518 31.2618C26.8502 29.0105 27.4662 26.8128 28.3814 24.7344C29.5438 26.6647 30.1909 28.8612 30.2606 31.1134C30.2071 33.2103 29.6472 35.2631 28.6287 37.0968C27.2146 35.4896 26.4712 33.401 26.5518 31.2618V31.2618Z" fill="#FFCE02"/>
<path d="M32.2368 40.3125C35.6983 40.6586 39.5059 41.0542 43.5113 41.6971C47.5168 42.3399 51.6705 43.1311 55.9727 44.1696C60.2748 45.208 64.7747 46.4442 69.2252 47.9771C71.4999 48.7189 73.6757 49.6584 75.9503 50.4496C78.225 51.2408 80.4008 52.3287 82.626 53.4166C84.8512 54.5045 87.027 55.4936 89.1534 56.7298L92.3181 58.5594L95.4334 60.5374C99.5237 63.1235 103.424 65.9989 107.104 69.1416C108.884 70.6745 110.565 72.3558 112.048 74.0865C113.532 75.8173 115.213 77.3996 116.697 79.0315L117.043 79.3777L112.939 87.1908C112.119 88.6158 110.958 89.8141 109.559 90.6775C108.161 91.5409 106.569 92.0421 104.928 92.1357H100.725L100.428 91.4929C99.4389 90.0588 98.5488 88.4764 97.5104 86.9929C96.4719 85.5095 95.3346 83.9271 94.0983 82.3942C91.5625 79.2485 88.8202 76.2749 85.8897 73.4931L83.5655 71.3668L81.0931 69.3394C79.5107 67.9054 77.7305 66.6691 76.1481 65.334C74.5657 63.9988 72.5878 62.911 70.7581 61.6748C68.9285 60.4385 67.0494 59.3507 65.1703 58.3122C61.3627 56.1859 57.5056 54.2573 53.6485 52.5761C49.7915 50.8948 46.0333 49.3618 42.374 48.0761H41.8796L40.1488 46.7904C37.1147 44.8384 34.2229 42.6737 31.4951 40.3125H32.2368Z" fill="#F7F7EE"/>
<path d="M125.451 63.6484L157.494 78.8295C158.336 79.2181 159.01 79.897 159.393 80.7421C159.775 81.5872 159.84 82.5419 159.576 83.431C159.311 84.3201 158.735 85.0841 157.953 85.5831C157.172 86.0821 156.236 86.2826 155.318 86.1479L116.55 80.6591L125.451 63.6484Z" fill="#54575D"/>
<path d="M163.155 53.9083C167.51 52.7219 172.137 51.6562 174.906 51.6562C177.675 51.6562 182.303 52.7219 186.657 53.9083C191.112 55.1147 195.603 56.5424 198.244 57.407C199.348 57.7723 200.327 58.4424 201.068 59.3401C201.809 60.2378 202.283 61.3269 202.434 62.4821C204.826 80.4863 199.276 93.8296 192.541 102.657C189.685 106.433 186.28 109.758 182.439 112.521C181.111 113.478 179.704 114.319 178.233 115.035C177.11 115.566 175.902 116 174.906 116C173.911 116 172.707 115.566 171.579 115.035C170.108 114.319 168.701 113.478 167.373 112.521C163.532 109.758 160.127 106.433 157.271 102.657C150.537 93.8296 144.986 80.4863 147.378 62.4821C147.53 61.3269 148.003 60.2378 148.744 59.3401C149.485 58.4424 150.464 57.7723 151.568 57.407C155.402 56.1475 159.265 54.9809 163.155 53.9083Z" fill="#FFCE02"/>
<path d="M158.574 62.9863C158.913 62.157 160.087 62.157 160.426 62.9863L161.706 66.1214C161.807 66.3702 162.005 66.5676 162.254 66.6692L165.389 67.9492C166.218 68.2878 166.218 69.4622 165.389 69.8008L162.254 71.0808C162.005 71.1824 161.807 71.3798 161.706 71.6286L160.426 74.7637C160.087 75.593 158.913 75.593 158.574 74.7637L157.294 71.6286C157.193 71.3798 156.995 71.1824 156.746 71.0808L153.611 69.8008C152.782 69.4622 152.782 68.2878 153.611 67.9492L156.746 66.6692C156.995 66.5676 157.193 66.3702 157.294 66.1214L158.574 62.9863Z" fill="white"/>
</svg>
