<svg width="165" height="102" viewBox="0 0 165 102" fill="none" xmlns="http://www.w3.org/2000/svg">
<g style="mix-blend-mode:multiply" opacity="0.7">
<path d="M124.065 33.4731H124.674H125.232H125.74C126.602 33.4731 136.647 33.1178 138.068 31.0876C139.488 29.0574 139.894 26.0121 138.93 24.9462C134.718 24.021 130.387 23.7641 126.095 24.1849C123.913 24.4894 123.761 29.2604 123.761 29.2604L121.022 29.8695C119.398 26.6719 117.521 22.2562 115.593 18.0942L115.086 17.0791L114.528 15.861C114.173 15.1504 113.818 14.4398 113.412 13.7293L113.158 13.2217C112.867 12.6629 112.545 12.1207 112.194 11.5975L111.89 11.0392C111.521 10.4551 111.114 9.89561 110.672 9.3643C110.334 8.94232 109.942 8.56686 109.505 8.24768L109.049 7.94316C108.696 7.67704 108.323 7.43939 107.933 7.23255L107.324 6.97879L105.903 6.31899H105.193C104.666 6.09474 104.123 5.90817 103.57 5.76068H102.961L100.982 5.25309H100.424L98.192 4.74555H97.634L95.2495 4.33949H94.4885L92.1549 3.98421H91.4953L89.0602 3.67969H88.3499H85.9655H85.0016H82.9723H81.8054H80.0805H78.863H77.3917H70.9487C62.3749 3.67969 36.1463 4.84707 31.1745 11.1407C27.3382 17.6712 23.9483 24.4541 21.028 31.4429L18.7451 29.6157C18.7451 29.6157 18.7451 24.9462 16.3607 24.5401C12.0688 24.1194 7.73748 24.3763 3.52537 25.3015C2.56146 26.2658 2.96731 29.4127 4.38781 31.4429C5.80832 33.4731 15.8533 34.0314 16.7158 33.8284C17.5782 33.6254 18.4914 33.2701 19.6075 33.067C19.2792 33.5924 18.8261 34.0283 18.2885 34.3359C15.9763 35.0798 13.851 36.3124 12.0566 37.9499C10.2622 39.5875 8.8407 41.5919 7.88836 43.8272C7.88836 44.487 7.48251 45.0453 7.38104 45.5021C7.32001 46.1096 7.32001 46.7218 7.38104 47.3293C6.60529 57.4008 7.09959 67.5299 8.85229 77.4779C8.85229 77.4779 8.85229 77.8332 8.85229 78.0362V92.6031C8.85225 93.2073 8.972 93.8054 9.20463 94.363C9.43725 94.9205 9.77812 95.4263 10.2075 95.8512C10.6369 96.276 11.1462 96.6115 11.706 96.838C12.2659 97.0646 12.8651 97.1777 13.4689 97.171H23.8183C24.4222 97.1777 25.0214 97.0646 25.5812 96.838C26.141 96.6115 26.6504 96.276 27.0797 95.8512C27.5091 95.4263 27.85 94.9205 28.0826 94.363C28.3152 93.8054 28.435 93.2073 28.435 92.6031V85.4466C40.8137 86.6647 60.5993 88.4411 68.6657 88.4411H79.6239H81.6532H82.465H83.8855H84.6972H86.4728H87.2338H89.3139H90.3285H91.749H92.9158H94.2856H96.4671H97.634H99.0545H100.221H101.49H102.656H104.939H106.157H107.273H108.643H109.556L114.122 87.9843V95.1409C114.122 95.745 114.242 96.3432 114.474 96.9007C114.707 97.4583 115.048 97.9641 115.477 98.389C115.907 98.8138 116.416 99.1492 116.976 99.3758C117.536 99.6023 118.135 99.7155 118.739 99.7088H129.646C130.25 99.7155 130.849 99.6023 131.409 99.3758C131.969 99.1492 132.478 98.8138 132.908 98.389C133.337 97.9641 133.678 97.4583 133.91 96.9007C134.143 96.3432 134.263 95.745 134.263 95.1409V80.6248V80.0157C135.965 70.062 136.459 59.9392 135.734 49.8671C135.674 49.2517 135.573 48.6412 135.43 48.0399C135.303 47.4696 135.133 46.9098 134.922 46.365C134.006 44.1503 132.626 42.1576 130.876 40.5205C129.126 38.8834 127.046 37.64 124.776 36.8737C124.238 36.566 123.785 36.1301 123.457 35.6048L124.065 33.4731Z" fill="#808080"/>
</g>
<path d="M22.5251 59.4531H11.6684C9.11868 59.4531 7.05176 61.521 7.05176 64.0718V92.9009C7.05176 95.4517 9.11868 97.5196 11.6684 97.5196H22.5251C25.0748 97.5196 27.1418 95.4517 27.1418 92.9009V64.0718C27.1418 61.521 25.0748 59.4531 22.5251 59.4531Z" fill="#0F3E5F"/>
<path d="M125.473 60H114.617C112.067 60 110 62.0679 110 64.6187V93.4478C110 95.9986 112.067 98.0665 114.617 98.0665H125.473C128.023 98.0665 130.09 95.9986 130.09 93.4478V64.6187C130.09 62.0679 128.023 60 125.473 60Z" fill="#0F3E5F"/>
<path d="M131.256 45.2988C131.197 44.6835 131.095 44.0729 130.952 43.4716C130.825 42.9014 130.656 42.3415 130.445 41.7966V41.7966C129.528 39.582 128.149 37.5892 126.398 35.9522C124.648 34.3151 122.568 33.0717 120.298 32.3054C117.051 30.9857 111.674 13.6782 106.803 7.58754C101.933 1.49689 75.603 0.177249 67.08 0.126493C58.557 0.0757381 32.2776 1.29387 27.3058 7.58754C22.3341 13.8812 17.1594 30.9857 13.811 32.3054C11.4989 33.0493 9.37357 34.2818 7.57918 35.9194C5.78479 37.557 4.36322 39.5613 3.41088 41.7966V41.7966C3.41088 42.4565 3.00503 43.0148 2.90356 43.4716C2.84253 44.0791 2.84253 44.6912 2.90356 45.2988C2.1278 55.3703 2.62211 65.4995 4.3748 75.4475C5.18652 80.523 8.88998 82.3502 13.9632 82.3502C13.9632 82.3502 52.6721 86.4106 64.6956 86.4106H69.7689C81.8939 86.4106 120.501 82.3502 120.501 82.3502C125.574 82.3502 129.278 80.4722 130.14 75.4475C131.724 65.4794 132.098 55.3567 131.256 45.2988V45.2988Z" fill="#0086EB"/>
<path d="M20.1782 30.2284L16.6269 29.4671C16.6269 29.4671 16.6269 24.7976 14.2425 24.3915C9.95062 23.9708 5.61932 24.2277 1.40721 25.1529C0.443292 26.1172 0.849142 29.264 2.26965 31.2943C3.69016 33.3245 13.7352 33.8828 14.5976 33.6798C16.1053 33.1192 17.7084 32.8606 19.3157 32.9184C20.6348 33.426 20.5841 31.3958 20.1782 30.2284Z" fill="#0086EB"/>
<path d="M32.3281 57.0739C33.6441 62.023 35.8628 66.6862 38.8725 70.8286C30.1466 69.4582 14.8254 67.5803 12.3395 65.347C10.1839 61.7395 9.0282 57.6223 8.99121 53.4195C9.09268 52.0999 13.963 55.1959 32.3281 57.0739Z" fill="#0086EB"/>
<path d="M16.476 48.4169L8.81543 46.2344V51.6144C8.81543 51.6144 12.5189 52.5788 16.8312 53.5432L16.476 48.4169Z" fill="#F87969"/>
<path d="M25.6451 55.4275C29.3993 56.0365 31.8851 56.2903 31.8851 56.2903L30.6168 52.5852L25.1885 51.0625L25.6451 55.4275Z" fill="#F87969"/>
<path d="M17.6299 48.875L18.0358 53.9506L19.4563 54.3058L24.5295 55.2702L24.1236 50.8037L17.6299 48.875Z" fill="#F87969"/>
<path d="M115.985 28.1425L119.587 27.3811C119.587 27.3811 119.587 22.7116 121.921 22.3056C126.212 21.8848 130.544 22.1418 134.756 23.0669C135.72 24.0313 135.365 27.1781 133.893 29.2083C132.422 31.2385 122.428 31.7968 121.565 31.5938C120.059 31.0294 118.455 30.7706 116.847 30.8325C115.528 31.34 115.63 29.3098 115.985 28.1425Z" fill="#0086EB"/>
<path d="M119.587 36.1094C103.606 36.9722 77.4282 37.8351 66.7744 37.8351C56.1206 37.8351 29.5876 37.429 13.9621 36.1094C13.4103 37.1844 13.1205 38.3747 13.1163 39.5831C13.112 40.7915 13.3934 41.9838 13.9376 43.0627C14.4817 44.1415 15.2731 45.0764 16.2472 45.7909C17.2213 46.5054 18.3505 46.9794 19.5426 47.174C34.9322 51.6335 50.7448 54.4743 66.7237 55.6502C82.6866 54.4789 98.4829 51.638 113.854 47.174C115.054 46.9898 116.194 46.5246 117.18 45.8165C118.166 45.1083 118.972 44.1772 119.53 43.0989C120.089 42.0205 120.385 40.8254 120.395 39.6109C120.405 38.3963 120.128 37.1966 119.587 36.1094V36.1094Z" fill="#C9C9C9"/>
<path d="M91.98 49.0545C82.3409 49.0545 73.1076 49.7143 68.4909 49.7143C63.8743 49.7143 54.5903 49.2575 45.0019 49.0545C25.0641 48.547 45.0019 73.4679 45.0019 73.4679C60.5558 76.0392 76.4261 76.0392 91.98 73.4679C91.98 73.4679 111.867 48.547 91.98 49.0545Z" fill="#FCFCFC"/>
<path d="M101.222 57.0739C99.8831 62.0237 97.6477 66.6858 94.627 70.8286C103.353 69.4582 118.725 67.5803 121.16 65.347C123.339 61.7495 124.496 57.6259 124.508 53.4195C124.407 52.0999 119.587 55.1959 101.222 57.0739Z" fill="#0086EB"/>
<path d="M105.738 13.9863C104.216 10.0781 101.527 5.8147 92.1416 4.59657C83.7287 3.45619 75.2615 2.76158 66.7754 2.51562C58.2893 2.76337 49.8222 3.45797 41.4092 4.59657C32.0237 5.8147 29.3349 10.0781 27.8129 13.9863C26.291 17.8945 20.1523 30.8371 20.1523 30.8371C30.6032 33.3241 59.8251 33.6794 66.8262 33.7809C82.4147 33.8183 97.9891 32.8349 113.449 30.8371C113.449 30.8371 107.311 17.8945 105.738 13.9863Z" fill="#E0FDFF"/>
<path d="M116.848 47.9403L124.509 45.7578V51.1379C124.509 51.1379 120.805 52.1022 116.544 53.0666L116.848 47.9403Z" fill="#F87969"/>
<path d="M107.476 55.4275C103.722 56.0365 101.236 56.2903 101.236 56.2903L102.505 52.5852L107.933 51.0625L107.476 55.4275Z" fill="#F87969"/>
<path d="M115.681 48.2422L115.275 53.3178L113.854 53.673L108.781 54.6374L109.136 50.1709L115.681 48.2422Z" fill="#F87969"/>
<g style="mix-blend-mode:multiply" opacity="0.2">
<path d="M133.865 28.9813C135.337 26.9511 135.692 23.9058 134.728 22.8399C130.516 21.9147 126.184 21.6578 121.892 22.0786C119.711 22.3831 119.559 27.1541 119.559 27.1541L116.819 27.7632C113.899 20.7744 110.509 13.9915 106.673 7.46104C101.6 1.21813 75.6245 0.0507554 67 0V86.2841H69.4859C77.5524 86.2841 97.2873 84.5077 109.666 83.2896V90.3953C109.666 90.9994 109.786 91.5976 110.018 92.1552C110.251 92.7127 110.592 93.2185 111.021 93.6434C111.45 94.0682 111.96 94.4037 112.52 94.6302C113.08 94.8568 113.679 94.9699 114.283 94.9632H125.19C125.794 94.9699 126.393 94.8568 126.953 94.6302C127.513 94.4037 128.022 94.0682 128.451 93.6434C128.881 93.2185 129.222 92.7127 129.454 92.1552C129.687 91.5976 129.807 90.9994 129.807 90.3953V75.6763V75.1179C131.509 65.1643 132.002 55.0414 131.278 44.9692C131.218 44.3539 131.117 43.7434 130.974 43.1421C130.847 42.5718 130.677 42.0119 130.466 41.4671C129.55 39.2525 128.17 37.2597 126.42 35.6227C124.67 33.9856 122.59 32.7422 120.32 31.9759C119.782 31.6682 119.329 31.2323 119.001 30.707C120.117 30.707 121.334 31.3668 121.892 31.4683C122.451 31.5698 132.445 31.0115 133.865 28.9813Z" fill="#0086EB"/>
</g>
<path d="M125.997 41.2044C130.26 40.0432 134.789 39 137.5 39C140.211 39 144.74 40.0432 149.003 41.2044C153.364 42.3854 157.76 43.7828 160.345 44.6292C161.425 44.9868 162.384 45.6427 163.109 46.5215C163.835 47.4002 164.298 48.4662 164.446 49.597C166.787 67.2207 161.354 80.282 154.762 88.9226C151.967 92.6189 148.634 95.8739 144.874 98.5788C143.574 99.5148 142.197 100.338 140.757 101.039C139.657 101.559 138.474 101.984 137.5 101.984C136.526 101.984 135.347 101.559 134.243 101.039C132.803 100.338 131.426 99.5148 130.126 98.5788C126.367 95.8738 123.033 92.6188 120.238 88.9226C113.646 80.282 108.213 67.2207 110.554 49.597C110.702 48.4662 111.165 47.4002 111.891 46.5215C112.616 45.6427 113.575 44.9868 114.655 44.6292C118.408 43.3963 122.19 42.2544 125.997 41.2044Z" fill="#FFCE02"/>
<path d="M122.389 52.1895C122.728 51.3601 123.902 51.3601 124.241 52.1895L125.471 55.2021C125.572 55.4509 125.77 55.6484 126.019 55.7499L129.031 56.9799C129.861 57.3185 129.861 58.493 129.031 58.8316L126.019 60.0616C125.77 60.1631 125.572 60.3606 125.471 60.6094L124.241 63.622C123.902 64.4514 122.728 64.4514 122.389 63.622L121.159 60.6094C121.058 60.3606 120.86 60.1631 120.611 60.0616L117.599 58.8316C116.769 58.4929 116.769 57.3185 117.599 56.9799L120.611 55.7499C120.86 55.6484 121.058 55.4509 121.159 55.2021L122.389 52.1895Z" fill="white"/>
</svg>
