<svg width="36" height="50" viewBox="0 0 36 50" fill="none" xmlns="http://www.w3.org/2000/svg">
<path d="M28.0482 22.8341L15.8343 35.0482C15.6685 35.2141 15.4717 35.3456 15.255 35.4354C15.0384 35.5252 14.8062 35.5714 14.5717 35.5714C14.3372 35.5714 14.105 35.5252 13.8884 35.4354C13.6717 35.3456 13.4749 35.2141 13.3091 35.0482L7.66607 29.405C7.33437 29.0695 7.14893 28.6164 7.15026 28.1446C7.15159 27.6728 7.33959 27.2207 7.67319 26.8871C8.00678 26.5535 8.45885 26.3655 8.93063 26.3641C9.40242 26.3628 9.85556 26.5482 10.1911 26.8799L14.5717 31.2605L25.5232 20.309C25.6886 20.1415 25.8855 20.0084 26.1026 19.9173C26.3197 19.8262 26.5526 19.7789 26.7881 19.7781C27.0235 19.7774 27.2567 19.8232 27.4744 19.913C27.692 20.0027 27.8898 20.1346 28.0562 20.3011C28.2227 20.4676 28.3546 20.6653 28.4443 20.883C28.5341 21.1006 28.5799 21.3339 28.5792 21.5693C28.5784 21.8047 28.5311 22.0377 28.44 22.2547C28.3489 22.4718 28.2157 22.6687 28.0482 22.8341ZM35.7143 12.194V44.6429C35.7127 46.0632 35.1478 47.4249 34.1435 48.4292C33.1392 49.4335 31.7775 49.9985 30.3571 50H5.35714C3.93681 49.9985 2.57511 49.4335 1.57078 48.4292C0.56646 47.4249 0.00155035 46.0632 0 44.6429V5.35716C0.00155035 3.93684 0.56646 2.57513 1.57078 1.5708C2.57511 0.566481 3.93681 0.00157157 5.35714 2.122e-05H23.5203C24.2242 -0.00196665 24.9215 0.135731 25.5719 0.405139C26.2222 0.674547 26.8126 1.07031 27.3089 1.5695L34.1448 8.40537C34.644 8.90166 35.0398 9.49207 35.3092 10.1424C35.5786 10.7927 35.7163 11.49 35.7143 12.194ZM25 4.31084V8.92859C25.0006 9.402 25.1889 9.85585 25.5237 10.1906C25.8584 10.5254 26.3123 10.7137 26.7857 10.7143H31.4035L25 4.31084ZM32.1428 44.6429V14.2857H26.7857C25.3654 14.2842 24.0037 13.7193 22.9993 12.7149C21.995 11.7106 21.4301 10.3489 21.4286 8.92859V3.57145H5.35714C4.88373 3.57206 4.42988 3.7604 4.09513 4.09515C3.76038 4.4299 3.57204 4.88375 3.57143 5.35716V44.6429C3.57204 45.1163 3.76038 45.5701 4.09513 45.9049C4.42988 46.2396 4.88373 46.428 5.35714 46.4286H30.3571C30.8305 46.428 31.2844 46.2396 31.6191 45.9049C31.9539 45.5701 32.1422 45.1163 32.1428 44.6429Z" fill="url(#paint0_linear_6258_1838)"/>
<defs>
<linearGradient id="paint0_linear_6258_1838" x1="0" y1="25" x2="35.7143" y2="25" gradientUnits="userSpaceOnUse">
<stop stop-color="#0FDCDD"/>
<stop offset="1" stop-color="#46A1E8"/>
</linearGradient>
</defs>
</svg>
