<svg width="108" height="152" viewBox="0 0 108 152" fill="none" xmlns="http://www.w3.org/2000/svg">
<g style="mix-blend-mode:multiply" opacity="0.7">
<g style="mix-blend-mode:multiply">
<path d="M6.70727 26.3709C6.83592 26.472 6.9741 26.5605 7.11986 26.6349H7.2354L7.74701 26.8165C11.2458 27.6251 14.7115 24.539 17.8307 22.8886C21.2756 20.8562 25.0525 19.4483 28.9872 18.7297C33.4101 17.7725 42.8832 18.4161 42.8832 18.4161V18.5151C41.5832 20.1667 39.8097 21.3816 37.8001 21.9974C36.3371 22.539 34.8216 22.9262 33.2781 23.1527C27.5679 24.0273 20.3888 23.0536 19.9597 25.1826C19.5306 27.3116 21.1974 28.4833 25.5214 29.226H25.6699L26.3301 29.3415L26.7757 29.424H27.2543L28.294 29.6056C37.7939 30.7453 47.4163 30.3216 56.7793 28.3513L57.753 28.1367H57.885L58.6772 27.9552C65.2786 26.4204 67.4571 24.6545 71.682 23.3012V29.457H83.5811V32.0646H103.914V1.64844H83.4326V4.256H71.5335V9.88374H69.8831C63.2684 9.44632 56.6906 8.56414 50.1943 7.24316C42.9729 6.03269 35.5546 7.00379 28.8881 10.0323C23.0189 12.2782 17.4702 15.2856 12.3845 18.9772C6.60826 23.1857 5.70055 25.4467 6.75678 26.4369L6.70727 26.3709Z" fill="#808080"/>
</g>
<g style="mix-blend-mode:multiply">
<path d="M98.9465 129.882C98.9975 129.808 99.0525 129.736 99.1115 129.668L99.3095 129.354L99.4911 129.041C99.5415 128.962 99.5856 128.879 99.6231 128.793L99.7221 128.562V128.414C99.7947 128.184 99.8228 127.944 99.8047 127.704C99.6892 127.093 99.1775 126.714 98.4019 126.532C94.9031 125.723 91.4373 128.81 88.3346 130.46C84.8839 132.493 81.1016 133.901 77.1617 134.619C75.7515 134.887 74.3221 135.041 72.8873 135.081V135.081C68.6954 135.263 63.9423 134.965 63.3482 134.932C63.3482 134.932 65.1306 131.318 73.0853 130.08C78.7956 129.206 85.9581 130.179 86.3872 128.05C86.9319 125.294 84.4398 124.552 78.1354 123.512C68.6355 122.372 59.0131 122.796 49.6501 124.766C41.5304 126.417 39.3354 128.381 34.6979 129.849V123.693H22.7988V121.086H2.21875V151.766H22.6998V149.142H34.5989V143.514C44.7321 143.844 49.5841 145.165 56.0536 146.221C63.275 147.429 70.6927 146.458 77.3597 143.432C83.2304 141.189 88.7795 138.181 93.8634 134.487L94.9856 133.645L95.2662 133.431L96.0584 132.787L96.2399 132.638L97.0486 131.929L97.2466 131.747C97.4446 131.582 97.6097 131.417 97.7747 131.252L97.9728 131.054L98.5009 130.493L98.6494 130.311L98.9465 129.882Z" fill="#808080"/>
</g>
<g style="mix-blend-mode:multiply">
<path d="M107.512 100.719H103.667C103.457 100.718 103.254 100.79 103.091 100.923C102.929 101.055 102.817 101.239 102.775 101.445L102.61 102.204L102.049 100.554C101.99 100.372 101.876 100.214 101.722 100.101C101.568 99.9887 101.382 99.9275 101.191 99.9264C101.002 99.9241 100.817 99.9798 100.66 100.086C100.504 100.192 100.384 100.344 100.316 100.521L99.3757 103.095L98.4185 98.4576C98.3744 98.2564 98.2644 98.0757 98.106 97.9442C97.9475 97.8126 97.7496 97.7377 97.5438 97.7315C97.3404 97.7238 97.1403 97.7847 96.9757 97.9044C96.811 98.0242 96.6914 98.1957 96.6361 98.3916L92.3616 113.047L88.0212 92.0872C87.9764 91.8938 87.8705 91.72 87.7192 91.5914C87.5679 91.4629 87.3792 91.3865 87.1811 91.3735C86.983 91.3606 86.7861 91.4118 86.6193 91.5195C86.4525 91.6272 86.3249 91.7858 86.2553 91.9717L81.7663 104.663L80.4295 101.362C80.3633 101.193 80.2477 101.047 80.0976 100.944C79.9475 100.841 79.7699 100.785 79.5878 100.785H68.6789C68.4694 100.784 68.2662 100.856 68.1037 100.989C67.9413 101.121 67.8297 101.306 67.7878 101.511L67.6392 102.27L67.0781 100.62C67.0124 100.443 66.8942 100.29 66.7393 100.182C66.5845 100.075 66.4003 100.017 66.2116 100.017C66.023 100.017 65.8388 100.075 65.684 100.182C65.5291 100.29 65.4108 100.443 65.3452 100.62L64.4045 103.194L63.4308 98.5566C63.3771 98.3614 63.2609 98.1892 63.0999 98.0665C62.9389 97.9437 62.742 97.8772 62.5396 97.8772C62.3371 97.8772 62.1403 97.9437 61.9792 98.0665C61.8182 98.1892 61.702 98.3614 61.6484 98.5566L57.3904 113.212L54.0897 97.5994L55.0304 98.2761C61.1533 93.6716 89.82 79.3134 89.82 56.6374C89.82 28.4328 55.0304 37.4602 55.0304 46.5537C55.0304 37.4602 20.2408 28.3997 20.2408 56.6374C20.2408 75.4516 39.9461 88.5224 50.1784 95.0579L46.7126 104.828L45.3923 101.527C45.3214 101.358 45.2023 101.213 45.0497 101.11C44.8972 101.007 44.718 100.952 44.5342 100.95H33.6418C33.4302 100.949 33.2246 101.02 33.0594 101.152C32.8942 101.284 32.7794 101.469 32.734 101.676L32.5855 102.435L32.0244 100.785C31.9654 100.603 31.8508 100.445 31.6967 100.332C31.5426 100.22 31.357 100.159 31.1662 100.157C30.9771 100.155 30.7919 100.211 30.6355 100.317C30.4791 100.423 30.359 100.575 30.2915 100.752L29.3508 103.326L28.3771 98.6887C28.3392 98.4875 28.2332 98.3055 28.0769 98.1732C27.9206 98.041 27.7236 97.9666 27.5189 97.9625C27.3148 97.9518 27.1133 98.0116 26.9481 98.1317C26.7828 98.2519 26.6639 98.4253 26.6112 98.6227L22.3368 113.278L17.9963 92.3183C17.9515 92.1249 17.8456 91.951 17.6943 91.8225C17.543 91.694 17.3544 91.6175 17.1563 91.6046C16.9582 91.5916 16.7611 91.6428 16.5944 91.7505C16.4276 91.8583 16.3 92.0168 16.2304 92.2027L11.7414 104.894L10.4046 101.593C10.3337 101.424 10.2146 101.279 10.0621 101.176C9.90957 101.073 9.73029 101.018 9.54645 101.016H2.63143C2.50083 100.998 2.36799 101.009 2.2418 101.047C2.11562 101.085 1.99902 101.149 1.89982 101.236C1.80063 101.323 1.7211 101.43 1.66663 101.55C1.61216 101.67 1.58398 101.8 1.58398 101.932C1.58398 102.063 1.61216 102.194 1.66663 102.314C1.7211 102.434 1.80063 102.541 1.89982 102.627C1.99902 102.714 2.11562 102.779 2.2418 102.817C2.36799 102.855 2.50083 102.865 2.63143 102.848H8.93582L10.9493 107.799C11.0123 107.974 11.1295 108.124 11.2838 108.228C11.4381 108.332 11.6216 108.384 11.8074 108.376C11.9962 108.376 12.1803 108.318 12.3342 108.208C12.488 108.099 12.6038 107.944 12.6656 107.766L16.8575 95.8831L21.297 117.338C21.3403 117.536 21.4479 117.715 21.603 117.846C21.7582 117.978 21.9522 118.054 22.1552 118.064C22.353 118.064 22.5455 118 22.7034 117.881C22.8613 117.762 22.976 117.594 23.0299 117.404L27.3044 102.732L28.1955 106.924C28.2345 107.12 28.3371 107.297 28.4872 107.429C28.6373 107.561 28.8267 107.639 29.0259 107.652C29.2252 107.666 29.4232 107.613 29.5894 107.502C29.7555 107.391 29.8805 107.229 29.9449 107.04L31.0837 103.937L31.8759 106.396C31.9398 106.589 32.0644 106.755 32.231 106.871C32.3975 106.987 32.5972 107.046 32.8 107.04C33.0036 107.023 33.1967 106.943 33.3511 106.809C33.5055 106.675 33.6131 106.496 33.6582 106.297L34.3514 102.996H43.874L45.8874 107.947C45.9645 108.1 46.0824 108.228 46.2281 108.318C46.3738 108.408 46.5415 108.455 46.7126 108.455C46.8837 108.455 47.0514 108.408 47.1971 108.318C47.3428 108.228 47.4607 108.1 47.5378 107.947L51.6637 96.3121L51.8122 96.4112L56.1692 117.437C56.2125 117.635 56.32 117.814 56.4752 117.945C56.6303 118.077 56.8244 118.153 57.0274 118.163C57.2245 118.161 57.4157 118.095 57.5731 117.977C57.7305 117.858 57.8457 117.692 57.902 117.503L62.1765 102.831L63.0512 107.023C63.0929 107.216 63.1955 107.391 63.3441 107.522C63.4926 107.653 63.6792 107.732 63.8764 107.749C64.078 107.762 64.2783 107.709 64.4477 107.599C64.6171 107.489 64.7466 107.328 64.8171 107.139L65.9394 104.036L66.748 106.495C66.812 106.688 66.9366 106.854 67.1031 106.97C67.2697 107.086 67.4693 107.145 67.6722 107.139C67.8746 107.124 68.0666 107.044 68.2187 106.91C68.3708 106.775 68.4746 106.595 68.5139 106.396L69.2236 103.095H78.7461L80.7596 108.046C80.8366 108.199 80.9546 108.327 81.1002 108.417C81.2459 108.507 81.4137 108.554 81.5848 108.554C81.7558 108.554 81.9236 108.507 82.0693 108.417C82.215 108.327 82.3329 108.199 82.4099 108.046L86.6019 96.1636L91.0414 117.618C91.0847 117.817 91.1922 117.996 91.3473 118.127C91.5025 118.258 91.6965 118.335 91.8995 118.344C92.0995 118.346 92.2945 118.282 92.4551 118.163C92.6158 118.044 92.7336 117.876 92.7907 117.684L97.0486 103.013L97.9398 107.205C97.9789 107.4 98.0814 107.578 98.2315 107.71C98.3816 107.841 98.571 107.92 98.7703 107.933C98.9695 107.946 99.1676 107.893 99.3337 107.782C99.4999 107.672 99.6248 107.509 99.6892 107.32L100.828 104.217L101.62 106.676C101.684 106.87 101.809 107.036 101.977 107.151C102.145 107.266 102.346 107.322 102.549 107.31C102.752 107.299 102.946 107.221 103.1 107.089C103.255 106.956 103.361 106.776 103.403 106.577L104.096 103.277H107.198C107.42 103.247 107.624 103.138 107.771 102.969C107.918 102.801 107.999 102.585 107.999 102.361C107.999 102.137 107.918 101.921 107.771 101.752C107.624 101.584 107.42 101.475 107.198 101.445L107.512 100.719Z" fill="#808080"/>
</g>
</g>
<path d="M95.1013 20.4297C95.1013 20.4297 88.4999 18.7793 75.5281 20.6607C66.0715 22.0305 65.7249 24.8196 54.948 26.9816C45.5851 28.9519 35.9627 29.3756 26.4628 28.2359C20.0759 27.1961 17.5838 26.4535 18.1285 23.6974C18.5576 21.5684 25.7366 22.5421 31.4468 21.6674C39.4016 20.4297 41.184 16.8154 41.184 16.8154C41.184 16.8154 31.7109 16.1717 27.288 17.1289C23.3533 17.8475 19.5764 19.2554 16.1315 21.2878C13.0123 22.9382 9.53006 26.0244 6.0478 25.2157C3.7868 24.6711 3.50624 22.4596 10.6358 17.261C15.7215 13.5693 21.2702 10.5619 27.1394 8.31599C33.8059 5.28751 41.2242 4.31641 48.4456 5.52688C55.7567 6.64913 61.0543 8.316 74.4553 8.29949C82.3275 8.29949 94.8703 4.27261 97.3623 4.28911C99.8544 4.30562 99.5078 20.3636 95.1013 20.4297Z" fill="#FFBE82"/>
<path d="M6.04776 25.1972C9.54653 26.0059 13.0123 22.9197 16.1315 21.2694C19.5764 19.237 23.3532 17.829 27.2879 17.1105C31.7109 16.1532 41.184 16.7969 41.184 16.7969C41.184 16.7969 40.0947 18.9424 35.9523 20.4937C41.8936 20.6752 45.5574 15.2786 43.8245 14.7339C42.0917 14.1893 31.2158 13.2651 24.9939 15.3116C19.533 17.0792 14.4822 19.9244 10.1406 23.6789C7.83012 25.6593 6.09725 25.3293 5.04102 24.7021C5.33191 24.9457 5.67727 25.1155 6.04776 25.1972V25.1972Z" fill="#FF922B"/>
<path d="M75.4141 20.6816C76.2141 16.432 75.4522 12.0364 73.2686 8.30391C71.4202 8.30391 69.7368 8.3039 68.1855 8.17188C65.842 11.2085 63.0694 16.6382 60.4948 18.4206C56.732 20.9787 52.0779 22.3485 45.9551 25.0221C39.8323 27.6957 23.9063 27.118 20.523 25.9298C19.7024 25.659 18.9072 25.3166 18.1465 24.9065C18.5426 26.7219 21.1336 27.3821 26.3983 28.2073C35.8982 29.347 45.5206 28.9233 54.8836 26.953C65.6769 24.8405 66.1225 22.0514 75.4141 20.6816Z" fill="#FF922B"/>
<path d="M97.6109 2.60938H69.8848V28.058H97.6109V2.60938Z" fill="#FDFDFD"/>
<path d="M79.3909 21.9846V2.60938H94.8713V21.9846V28.058H79.3909H69.8848V21.9846H79.3909Z" fill="#E9E9E9"/>
<path d="M102.265 0H81.7842V30.6802H102.265V0Z" fill="#0086EB"/>
<path d="M102.265 23.7188H81.7842V30.6833H102.265V23.7188Z" fill="#0F3E5F"/>
<path d="M72.7227 8.31574C72.7227 8.76292 72.8553 9.20006 73.1038 9.57188C73.3522 9.9437 73.7053 10.2335 74.1185 10.4046C74.5316 10.5758 74.9862 10.6205 75.4248 10.5333C75.8634 10.4461 76.2663 10.2307 76.5825 9.91451C76.8987 9.59831 77.114 9.19544 77.2013 8.75685C77.2885 8.31826 77.2437 7.86363 77.0726 7.45049C76.9015 7.03735 76.6117 6.68424 76.2399 6.4358C75.868 6.18736 75.4309 6.05475 74.9837 6.05475C74.6862 6.05255 74.3912 6.10953 74.1159 6.22238C73.8406 6.33522 73.5904 6.50168 73.38 6.71208C73.1696 6.92247 73.0032 7.1726 72.8903 7.44791C72.7775 7.72322 72.7205 8.01821 72.7227 8.31574V8.31574Z" fill="#FFCE02"/>
<path d="M7.74875 129.602C7.74875 129.602 14.3502 131.252 27.322 129.371C36.7786 128.018 37.1087 125.212 47.902 123.05C57.265 121.08 66.8874 120.656 76.3873 121.796C82.7577 122.836 85.2498 123.578 84.6391 126.334C84.21 128.463 77.0475 127.49 71.3372 128.364C63.3825 129.602 61.6001 133.216 61.6001 133.216C61.6001 133.216 71.0732 133.86 75.4796 132.903C79.4196 132.184 83.2019 130.777 86.6526 128.744C89.7553 127.094 93.254 124.007 96.7198 124.816C98.9973 125.361 99.2613 127.572 92.1483 132.771C87.0644 136.465 81.5153 139.473 75.6446 141.716C68.9776 144.742 61.5599 145.713 54.3384 144.505C47.0108 143.383 41.7132 141.716 28.3123 141.732C20.4565 141.732 7.91378 145.759 5.42173 145.743C2.92969 145.726 3.4083 129.668 7.74875 129.602Z" fill="#FFBE82"/>
<path d="M98.137 125.773C97.4808 126.629 96.7151 127.395 95.8595 128.051C91.9646 131.203 76.2532 142.574 64.7337 141.683C53.2141 140.792 41.4801 141.419 38.3279 136.204C36.5806 133.347 34.4913 130.715 32.106 128.364C30.5135 128.81 28.8923 129.147 27.254 129.371H27.1054C26.0822 132.853 24.5639 138.25 26.3132 141.765C26.9899 141.765 27.65 141.765 28.2606 141.765C41.6616 141.765 46.9592 143.416 54.2868 144.538C61.5083 145.746 68.926 144.775 75.593 141.749C81.4637 139.506 87.0128 136.499 92.0967 132.804C97.2128 129.173 98.5661 126.945 98.137 125.773Z" fill="#FF922B"/>
<path d="M71.2705 133.363C66.798 133.561 61.6653 133.215 61.6653 133.215C61.6653 133.215 63.4478 129.6 71.4025 128.363C77.1128 127.488 84.2753 128.462 84.7044 126.333C84.7044 126.25 84.7044 126.168 84.7044 126.102C82.8895 126.737 80.955 126.957 79.0437 126.745C72.9538 126.25 55.7406 128.247 55.394 132.092C55.1464 135.08 63.5963 135.063 71.2705 133.363Z" fill="#FF922B"/>
<path d="M32.9653 121.992H5.23926V147.441H32.9653V121.992Z" fill="#FDFDFD"/>
<path d="M23.4599 141.351V121.992H7.97949V141.351V147.441H23.4599H32.9495V141.351H23.4599Z" fill="#E9E9E9"/>
<path d="M21.0503 119.391H0.569336V150.071H21.0503V119.391Z" fill="#0086EB"/>
<path d="M21.0503 143.086H0.569336V150.05H21.0503V143.086Z" fill="#0F3E5F"/>
<path d="M30.1264 127.69C30.1297 128.138 29.9999 128.576 29.7534 128.95C29.507 129.324 29.155 129.617 28.7422 129.79C28.3293 129.964 27.8742 130.011 27.4345 129.926C26.9948 129.84 26.5904 129.626 26.2726 129.311C25.9547 128.995 25.7378 128.593 25.6492 128.153C25.5606 127.714 25.6043 127.259 25.775 126.845C25.9456 126.431 26.2354 126.077 26.6076 125.828C26.9797 125.578 27.4176 125.445 27.8654 125.445C28.4622 125.445 29.0348 125.681 29.4584 126.102C29.8819 126.522 30.1221 127.093 30.1264 127.69V127.69Z" fill="#FFCE02"/>
<path d="M53.4469 44.6787C53.4469 35.5852 18.6572 26.5247 18.6572 54.7624C18.6572 77.4384 47.3406 91.7966 53.4469 96.4011V44.6787Z" fill="#FB7A6A"/>
<path d="M53.4463 44.6787C53.4463 35.5852 88.2359 26.5247 88.2359 54.7624C88.2359 77.4384 59.5691 91.7966 53.4463 96.4011V44.6787Z" fill="#B51D00"/>
<path d="M21.875 57.4203C21.875 57.4203 20.2246 46.8415 28.4764 41.2963C30.8473 39.7174 33.6322 38.875 36.4807 38.875C39.3292 38.875 42.1141 39.7174 44.4849 41.2963C44.4849 41.2963 27.0076 36.2957 21.875 57.4203Z" fill="#FACEB4"/>
<path d="M54.5693 93.6074C54.5693 93.6074 72.2942 82.7315 78.8627 73.803C85.4311 64.8746 86.2728 58.9498 86.1738 57.3984C85.6126 61.0292 78.4831 77.3843 54.5693 93.6074Z" fill="#A01600"/>
</svg>
