<svg width="49" height="50" viewBox="0 0 49 50" fill="none" xmlns="http://www.w3.org/2000/svg">
<path d="M1.81877 24.0891C2.77969 17.7513 6.42768 12.1052 11.827 8.59795C15.5986 6.14853 19.8989 4.92172 24.3331 4.97627L22.6909 3.33443C21.9283 2.57149 21.9283 1.33476 22.6909 0.572205C23.4538 -0.190735 24.6906 -0.190735 25.4531 0.572205L31.0077 6.12641C32.0354 6.83823 32.1098 8.30689 31.2679 9.14917L25.4531 14.9635C24.6906 15.7265 23.4538 15.7265 22.6909 14.9635C21.9283 14.201 21.9283 12.9643 22.6909 12.2013L25.9177 8.97446C21.6735 8.56705 17.522 9.55697 13.9548 11.874C9.49051 14.7739 6.47461 19.4393 5.68115 24.6746C5.51979 25.7389 4.52568 26.4752 3.45718 26.3126C2.39059 26.1509 1.6574 25.1557 1.81877 24.0891ZM30.8307 44.8231C25.9002 46.7533 20.3525 46.4745 15.6089 44.0579C11.819 42.1272 8.88626 39.027 7.117 35.1483L11.5215 36.3281C12.5632 36.6074 13.634 35.9886 13.9133 34.9468C14.1925 33.905 13.5741 32.8339 12.5323 32.5546L4.58747 30.4264C3.44078 30.1193 2.22618 30.9174 2.10792 32.1346L0.0670555 39.7503C-0.21218 40.7925 0.406182 41.8637 1.44798 42.1429C2.49626 42.4236 3.56246 41.7969 3.83979 40.762L4.4429 38.5121C6.6127 42.3825 9.82658 45.496 13.8358 47.5384C19.4572 50.4025 26.1688 50.8431 32.2547 48.4604C33.2588 48.0671 33.7543 46.9342 33.3614 45.9297C32.9681 44.9253 31.8351 44.4302 30.8307 44.8231ZM48.0773 39.7503C47.7985 38.7085 46.7269 38.0898 45.6855 38.369L43.436 38.9717C45.7008 35.1586 46.7891 30.8205 46.5534 26.3287C46.2158 19.899 43.1503 13.9172 38.1427 9.91631C37.2997 9.24302 36.0709 9.38035 35.3977 10.2234C34.7244 11.0661 34.8617 12.2952 35.7044 12.9681C39.841 16.2731 42.3736 21.2174 42.6524 26.5335C42.8756 30.78 41.658 34.869 39.1845 38.3404L38.0039 33.9356C37.7246 32.8938 36.6538 32.2754 35.6117 32.5546C34.5699 32.8339 33.9515 33.905 34.2307 34.9468L36.3597 42.8898C36.6741 44.0632 37.9737 44.7052 39.0987 44.1776L46.696 42.1421C47.7382 41.8633 48.3566 40.7925 48.0773 39.7503Z" fill="url(#paint0_linear_6258_1832)"/>
<defs>
<linearGradient id="paint0_linear_6258_1832" x1="24.0721" y1="-1.11945" x2="24.0721" y2="50.1744" gradientUnits="userSpaceOnUse">
<stop stop-color="#00EFD1"/>
<stop offset="1" stop-color="#00ACEA"/>
</linearGradient>
</defs>
</svg>
