<svg width="100" height="130" viewBox="0 0 100 130" fill="none" xmlns="http://www.w3.org/2000/svg">
<g style="mix-blend-mode:multiply" opacity="0.7">
<path d="M90.3329 4.02344H13.1582C8.11375 4.02344 4.02441 8.11465 4.02441 13.1614V119.959C4.02441 125.005 8.11375 129.097 13.1582 129.097H90.3329C95.3774 129.097 99.4667 125.005 99.4667 119.959V13.1614C99.4667 8.11465 95.3774 4.02344 90.3329 4.02344Z" fill="#808080"/>
</g>
<path d="M86.3085 0H9.1338C4.08933 0 0 4.09122 0 9.13796V115.935C0 120.982 4.08933 125.073 9.1338 125.073H86.3085C91.3529 125.073 95.4423 120.982 95.4423 115.935V9.13796C95.4423 4.09122 91.3529 0 86.3085 0Z" fill="#CAE4F8"/>
<path d="M10.1396 14.4141V28.1008H23.8605V14.4141H10.1396ZM21.2048 25.4843H12.7953V17.0306H21.2048V25.4843Z" fill="#175B82"/>
<path d="M10.1396 37.7188V51.4458H23.8605V37.7188H10.1396ZM21.2048 48.789H12.7953V40.3756H21.2048V48.789Z" fill="#175B82"/>
<path d="M10.1396 61.0625V74.7896H23.8605V61.0625H10.1396ZM21.2048 72.1327H12.7953V63.6791H21.2048V72.1327Z" fill="#175B82"/>
<path d="M10.1396 84.4141V98.1008H23.8605V84.4141H10.1396ZM21.2048 95.4843H12.7953V87.0306H21.2048V95.4843Z" fill="#175B82"/>
<path d="M79.1873 14.6953H32.9951V16.7886H79.1873V14.6953Z" fill="#175B82"/>
<path d="M79.1873 19.4453H32.9951V21.5385H79.1873V19.4453Z" fill="#175B82"/>
<path d="M75.244 24.1953H32.9951V26.2886H75.244V24.1953Z" fill="#175B82"/>
<path d="M79.1873 37.7188H32.9951V39.812H79.1873V37.7188Z" fill="#175B82"/>
<path d="M79.1873 42.5078H32.9951V44.6011H79.1873V42.5078Z" fill="#175B82"/>
<path d="M57.6202 47.2578H32.9951V49.3511H57.6202V47.2578Z" fill="#175B82"/>
<path d="M79.1873 61.0625H32.9951V63.1558H79.1873V61.0625Z" fill="#175B82"/>
<path d="M79.1873 65.8203H32.9951V67.9136H79.1873V65.8203Z" fill="#175B82"/>
<path d="M68.0014 70.6094H32.9951V72.7027H68.0014V70.6094Z" fill="#175B82"/>
<path d="M79.1873 84.5H32.9951V86.5933H79.1873V84.5Z" fill="#175B82"/>
<path d="M79.1873 89.2422H32.9951V91.3355H79.1873V89.2422Z" fill="#175B82"/>
<path d="M43.6982 94.0312H32.9951V96.1245H43.6982V94.0312Z" fill="#175B82"/>
<path d="M12.876 18.5607L15.5719 24.921L19.5956 24.1159C19.5956 24.1159 26.2347 8.69815 30.3389 7.61126C34.4431 6.52437 23.2571 6.72564 23.2571 6.72564L17.9459 20.815L15.5316 17.9971L12.876 18.5607Z" fill="#BF8276"/>
<path d="M12.876 41.9447L15.5719 48.305L19.5956 47.4596C19.5956 47.4596 26.2347 32.0419 30.3389 30.955C34.4431 29.8681 23.2571 30.0694 23.2571 30.0694L17.9459 44.2393L15.5316 41.4213L12.876 41.9447Z" fill="#BF8276"/>
<path d="M13.1982 65.2961L15.9344 71.6564L19.9581 70.8512C19.9581 70.8512 26.5972 55.4335 30.7416 54.3064C34.886 53.1792 23.6197 53.461 23.6197 53.461L18.1474 67.6309L15.7734 64.8129L13.1982 65.2961Z" fill="#BF8276"/>
<path d="M12.876 88.3197L15.5719 94.68L19.5956 93.8347C19.5956 93.8347 26.2347 78.4169 30.3389 77.33C34.4431 76.2431 23.2571 76.4444 23.2571 76.4444L17.9459 90.6142L15.5316 87.7964L12.876 88.3197Z" fill="#BF8276"/>
<path d="M78.3322 103.896L70.415 105.906L70.9297 107.935L78.8469 105.925L78.3322 103.896Z" fill="#175B82"/>
<path d="M78.6971 109.508L72.3408 111.125L72.8566 113.154L79.2129 111.536L78.6971 109.508Z" fill="#175B82"/>
<path d="M79.7689 106.463L69.7852 109L70.3002 111.029L80.2839 108.492L79.7689 106.463Z" fill="#175B82"/>
<path d="M75.1229 95.3672C72.5763 95.3672 70.0869 96.1227 67.9695 97.5381C65.8521 98.9536 64.2017 100.965 63.2272 103.319C62.2526 105.673 61.9977 108.263 62.4945 110.762C62.9913 113.261 64.2176 115.556 66.0183 117.358C67.819 119.159 70.1133 120.386 72.611 120.883C75.1086 121.38 77.6976 121.125 80.0503 120.15C82.4031 119.175 84.414 117.524 85.8288 115.406C87.2436 113.287 87.9988 110.797 87.9988 108.249C87.9882 104.836 86.6282 101.565 84.2158 99.1519C81.8034 96.7384 78.5346 95.3778 75.1229 95.3672V95.3672ZM75.1229 119.118C72.9742 119.118 70.8738 118.48 69.0872 117.286C67.3006 116.092 65.9082 114.394 65.0859 112.408C64.2636 110.422 64.0485 108.237 64.4677 106.128C64.8869 104.02 65.9216 102.083 67.4409 100.563C68.9603 99.0433 70.8961 98.0082 73.0035 97.5888C75.1109 97.1694 77.2953 97.3846 79.2804 98.2073C81.2656 99.0299 82.9623 100.423 84.156 102.21C85.3498 103.998 85.987 106.099 85.987 108.249C85.9764 111.128 84.8283 113.887 82.7932 115.923C80.7581 117.959 78.001 119.107 75.1229 119.118V119.118Z" fill="#175B82"/>
<path d="M75.1218 99.2267C73.3278 99.2187 71.5719 99.7442 70.077 100.736C68.582 101.729 67.4154 103.143 66.7252 104.799C66.035 106.456 65.8523 108.28 66.2003 110.041C66.5484 111.802 67.4114 113.419 68.68 114.689C69.9485 115.958 71.5654 116.821 73.3253 117.169C75.0852 117.518 76.9089 117.335 78.5648 116.644C80.2207 115.954 81.6342 114.787 82.6259 113.291C83.6177 111.795 84.1429 110.039 84.1349 108.244C84.1243 105.856 83.1714 103.568 81.4834 101.879C79.7954 100.191 77.509 99.2372 75.1218 99.2267V99.2267ZM75.1218 115.329C73.7275 115.337 72.3621 114.93 71.1989 114.161C70.0356 113.392 69.1268 112.294 68.5877 111.008C68.0486 109.721 67.9034 108.304 68.1705 106.935C68.4377 105.565 69.1051 104.306 70.0883 103.317C71.0714 102.328 72.326 101.653 73.693 101.378C75.06 101.103 76.4778 101.24 77.7669 101.772C79.0559 102.304 80.158 103.207 80.9335 104.366C81.709 105.525 82.123 106.889 82.1231 108.284C82.1125 110.139 81.3715 111.914 80.0608 113.225C78.7501 114.537 76.9754 115.278 75.1218 115.289V115.329Z" fill="#175B82"/>
</svg>
