<svg id="Group_21939" data-name="Group 21939" xmlns="http://www.w3.org/2000/svg" xmlns:xlink="http://www.w3.org/1999/xlink" width="39.029" height="54" viewBox="0 0 39.029 54">
  <defs>
    <linearGradient id="linear-gradient" x1="0.5" x2="0.5" y2="1" gradientUnits="objectBoundingBox">
      <stop offset="0" stop-color="#00efd1"/>
      <stop offset="1" stop-color="#00acea"/>
    </linearGradient>
    <clipPath id="clip-path">
      <rect id="Rectangle_1662" data-name="Rectangle 1662" width="39.029" height="54" fill="url(#linear-gradient)"/>
    </clipPath>
  </defs>
  <g id="Group_21938" data-name="Group 21938" clip-path="url(#clip-path)">
    <path id="Path_14014" data-name="Path 14014" d="M38.839,47.135q-.076-.143-.148-.289-3.374-6.855-6.747-13.711c-.046-.093-.088-.186-.131-.283,1.462-.74,1.852-1.456,1.852-3.211,0-.075,0-.15,0-.225,0-.168,0-.341,0-.515a.718.718,0,0,1,.521-.789c.466-.176.879-.349,1.263-.528a2.824,2.824,0,0,0,1.491-3.663c-.183-.486-.382-.956-.536-1.311a.608.608,0,0,1,.145-.751c.135-.137.272-.273.409-.409.169-.168.337-.335.5-.506a2.825,2.825,0,0,0,0-4.168c-.187-.194-.38-.386-.567-.571q-.174-.172-.347-.346a.606.606,0,0,1-.15-.749l.039-.092c.178-.413.361-.839.52-1.272a2.838,2.838,0,0,0-1.5-3.617c-.439-.2-.889-.38-1.311-.545a.676.676,0,0,1-.475-.718q0-.172,0-.344c0-.35,0-.711-.009-1.07a2.815,2.815,0,0,0-2.77-2.76,13.14,13.14,0,0,0-1.324,0,.737.737,0,0,1-.843-.579c-.154-.42-.323-.829-.5-1.216A2.8,2.8,0,0,0,24.6,1.424c-.425.157-.833.324-1.213.494a.737.737,0,0,1-.973-.179c-.276-.3-.566-.581-.847-.85a2.829,2.829,0,0,0-4.124,0c-.3.292-.61.6-.92.915a.653.653,0,0,1-.8.152c-.148-.06-.295-.122-.442-.184-.3-.126-.605-.256-.918-.369a2.812,2.812,0,0,0-3.569,1.482c-.127.273-.24.553-.35.824-.077.19-.157.387-.239.576a.582.582,0,0,1-.595.4H9.6l-.3,0c-.4,0-.818-.009-1.231.011A2.8,2.8,0,0,0,5.353,7.453c-.013.37-.01.743-.008,1.1q0,.155,0,.311a.679.679,0,0,1-.471.723c-.346.136-.8.319-1.254.52A2.813,2.813,0,0,0,2.075,13.8c.171.449.359.894.538,1.308a.609.609,0,0,1-.145.752c-.124.127-.251.252-.377.377-.2.2-.413.41-.614.623a2.812,2.812,0,0,0,0,4c.2.214.414.423.619.626.125.124.25.248.374.373a.613.613,0,0,1,.149.753l-.094.222c-.158.37-.321.753-.464,1.14a2.83,2.83,0,0,0,1.5,3.615c.389.179.79.34,1.177.5l.128.052a.682.682,0,0,1,.477.722c0,.088,0,.177,0,.265,0,.154.006.3,0,.441A2.975,2.975,0,0,0,7.2,32.857c-.043.1-.086.19-.13.28l-.5,1.01C4.5,38.359,2.353,42.715.24,47a1.259,1.259,0,0,0,.047,1.52,1.285,1.285,0,0,0,1.507.222c.756-.262,1.527-.524,2.273-.776l.478-.162,2.614-.885.991-.335c.025.07.048.135.07.2l.5,1.472c.523,1.53,1.064,3.112,1.589,4.67a1.3,1.3,0,0,0,1.082,1.071,1.3,1.3,0,0,0,1.273-.955c.016-.037.035-.073.053-.109l.038-.075L14.1,50.123,19.484,39.2l.021-.043.023.046.862,1.75c1.955,3.969,3.977,8.072,5.96,12.111a1.33,1.33,0,0,0,1.156.94c.037,0,.074,0,.114-.005a1.309,1.309,0,0,0,1.08-1.073c.59-1.755,1.2-3.536,1.789-5.259l.32-.936c.017-.049.036-.1.057-.15l.417.14c.507.17,1,.335,1.493.5q.627.213,1.254.43c1.1.379,2.237.771,3.369,1.122a1.614,1.614,0,0,0,1.254-.223,1.023,1.023,0,0,0,.186-1.413M6.656,39.085l.659-1.34c.706-1.436,1.435-2.921,2.165-4.375a1.2,1.2,0,0,1,.2-.274,1.011,1.011,0,0,1,.491.315,3.429,3.429,0,0,1,.352.767c.047.129.1.262.151.394a2.844,2.844,0,0,0,3.962,1.643c.223-.089.415-.17.584-.241.539-.227.784-.325.946-.283.19.049.468.328.928.79l.268.268c.162.161.333.3.514.45l.051.042L11.683,49.93l-.29-.85c-.408-1.194-.8-2.345-1.192-3.5-.26-.764-.431-1.268-.841-1.47a.9.9,0,0,0-.406-.088A4.333,4.333,0,0,0,7.7,44.34L4.238,45.521l-.9.308Zm9.435-5.658a3.3,3.3,0,0,0-1.313.3c-.31.135-.625.26-.974.4-.6.237-.8.151-1.054-.46-.058-.136-.114-.274-.169-.411-.1-.241-.2-.491-.312-.734a2.754,2.754,0,0,0-2.583-1.729c-.221-.005-.444,0-.659,0s-.458,0-.685-.005c-.553-.016-.725-.187-.736-.734,0-.19,0-.386,0-.575,0-.216,0-.439,0-.661a2.855,2.855,0,0,0-1.854-2.75c-.182-.077-.366-.151-.55-.225-.146-.059-.292-.117-.437-.178-.66-.275-.752-.487-.489-1.134.055-.135.111-.269.168-.4.1-.242.207-.492.3-.746a2.791,2.791,0,0,0-.584-3c-.19-.209-.391-.409-.585-.6-.1-.1-.193-.191-.288-.288-.522-.531-.524-.716-.015-1.232.144-.146.289-.291.434-.435L4.02,17.5a2.83,2.83,0,0,0,.657-3.3c-.061-.149-.123-.3-.185-.445-.082-.2-.164-.39-.243-.587-.233-.584-.135-.813.457-1.064.2-.083.394-.164.592-.245l.441-.181A2.849,2.849,0,0,0,7.6,8.933c.007-.231.006-.464,0-.688,0-.181,0-.368,0-.549.011-.57.183-.737.77-.744.172,0,.344,0,.516,0,.255,0,.518,0,.78-.006a2.772,2.772,0,0,0,2.556-1.676c.085-.182.157-.369.225-.549a4.528,4.528,0,0,1,.337-.748,2.107,2.107,0,0,1,.447-.457l.09-.076.308.12c.3.118.565.221.824.327,1.75.718,2.645.536,3.988-.808.49-.49.855-.836,1.069-.835s.6.376,1.066.864a3.1,3.1,0,0,0,3.008,1.113,5.954,5.954,0,0,0,1.053-.379c.1-.044.206-.089.309-.131.921-.378,1.026-.336,1.4.56.025.059.049.119.073.179l.053.13c.785,1.906,1.477,2.372,3.53,2.372a2.472,2.472,0,0,1,1.246.155,2.453,2.453,0,0,1,.155,1.241c0,2.043.467,2.736,2.378,3.53.538.224.99.425,1.071.623a2.441,2.441,0,0,1-.326,1.218l-.051.122c-.063.151-.125.3-.185.454a2.784,2.784,0,0,0,.639,3.146c.15.157.306.31.456.459s.28.276.415.416c.412.427.415.659.013,1.079-.132.138-.273.276-.408.41-.166.164-.338.333-.5.509a2.767,2.767,0,0,0-.61,3.1c.07.179.145.357.219.535.1.247.21.5.3.754a.586.586,0,0,1-.362.854c-.233.107-.479.205-.717.3-.154.062-.309.124-.462.189a2.855,2.855,0,0,0-1.864,2.744c-.006.226,0,.452,0,.672,0,.186,0,.378,0,.564-.011.572-.184.741-.772.754-.2,0-.4,0-.591,0-.248,0-.5,0-.759.008a2.74,2.74,0,0,0-2.5,1.663c-.124.262-.234.531-.34.791-.062.153-.124.305-.19.456-.24.557-.453.643-1.034.415-.157-.062-.314-.126-.47-.189-.255-.1-.519-.212-.785-.309a2.761,2.761,0,0,0-2.945.59c-.2.183-.395.378-.58.566-.126.128-.256.26-.386.384-.41.392-.684.4-1.087.011-.187-.179-.374-.368-.555-.551l-.232-.235a2.906,2.906,0,0,0-2.089-.954m5.289,3.556c.364-.345.707-.671,1.046-1.015a.711.711,0,0,1,.928-.181c.374.174.778.339,1.27.519a2.8,2.8,0,0,0,3.607-1.5c.11-.237.209-.479.3-.713.065-.161.131-.321.2-.48l.013-.03a1.536,1.536,0,0,1,.175-.334.413.413,0,0,1,.322-.2c.093.01.189.1.264.253q2.431,4.939,4.861,9.879l.871,1.771.424.864-.442-.15-2.3-.78-.529-.18c-.556-.189-1.132-.385-1.7-.571a1.154,1.154,0,0,0-1.673.834c-.459,1.331-.908,2.648-1.384,4.042l-.312.914L21.088,37.261l.292-.278" transform="translate(0 0)" fill="url(#linear-gradient)"/>
    <path id="Path_14015" data-name="Path 14015" d="M85.347,91.22a12.335,12.335,0,1,0-.084-24.669h-.026a12.335,12.335,0,0,0,.1,24.669ZM75.1,78.864A10.147,10.147,0,0,1,85.34,68.692h.093A10.2,10.2,0,1,1,75.1,78.864" transform="translate(-65.799 -60.019)" fill="url(#linear-gradient)"/>
    <path id="Path_14016" data-name="Path 14016" d="M135.834,133.329c.74.508,1.5,1.013,2.232,1.5q.635.423,1.268.848a1.428,1.428,0,0,0,.773.3.888.888,0,0,0,.546-.2,1.051,1.051,0,0,0,.264-1.3q-.231-.685-.457-1.372c-.23-.7-.469-1.417-.714-2.123-.046-.134-.042-.155.059-.252.446-.434.892-.881,1.324-1.314q.49-.491.982-.979a1.047,1.047,0,0,0,.321-1.2,1.017,1.017,0,0,0-1.053-.565c-.432,0-.865,0-1.3,0-.684,0-1.391,0-2.088.008-.18,0-.183-.006-.229-.151-.234-.749-.487-1.5-.732-2.234q-.178-.53-.353-1.06l-.021-.063c-.114-.35-.3-.935-1.008-.935h-.013c-.69.007-.879.583-.992.928l-.016.048q-.172.519-.346,1.038c-.252.751-.512,1.527-.754,2.3a.308.308,0,0,1-.056.123.3.3,0,0,1-.131.011c-.412-.018-.828-.014-1.23-.01-.166,0-.331,0-.5,0h-.5c-.383,0-.779,0-1.167,0a1.027,1.027,0,0,0-1.092.594,1.062,1.062,0,0,0,.349,1.186c.351.345.706.7,1.049,1.044.41.411.834.835,1.257,1.248.087.085.092.094.05.216-.251.723-.494,1.46-.73,2.174q-.225.682-.453,1.362a.992.992,0,0,0,1.568,1.186q.652-.438,1.307-.871c.734-.488,1.494-.992,2.233-1.5.15-.1.182-.1.343.008m-2.345-2.049a1.36,1.36,0,0,0-.4-1.664,11.236,11.236,0,0,1-1-1.013h.155l.517,0c.39,0,.793,0,1.187.005a1.126,1.126,0,0,0,1.209-.869c.15-.491.316-.985.492-1.5q.231.687.461,1.375c.279.836.5.994,1.4.994h1.737c-.4.4-.8.81-1.21,1.206a1.1,1.1,0,0,0-.288,1.234c.183.535.361,1.073.547,1.638l-.006,0c-.647-.426-1.258-.828-1.857-1.249a1.212,1.212,0,0,0-1.547-.006c-.6.424-1.211.827-1.86,1.254l-.021.014c.158-.489.311-.955.485-1.409" transform="translate(-116.148 -110.25)" fill="url(#linear-gradient)"/>
  </g>
</svg>
