<svg width="21" height="25" viewBox="0 0 21 25" fill="none" xmlns="http://www.w3.org/2000/svg">
<path d="M19.9426 18.947C18.5336 17.7188 15.7029 15.4008 15.4864 15.2761C14.5793 14.7637 13.2952 17.2254 12.9385 17.8517C12.0595 19.1503 11.0403 18.3668 10.6836 18.0062V17.9872C9.11665 16.4283 7.08853 13.6494 5.98784 12.0824C4.88715 10.5154 5.73305 9.66954 5.97 9.47705L6.02096 9.43638C6.23135 9.28179 6.43377 9.11526 6.62736 8.93754C7.40031 8.19377 7.98179 7.25214 8.31661 6.20203C8.38812 5.99535 8.41042 5.77304 8.38153 5.55496C8.35263 5.33687 8.27343 5.12979 8.151 4.95221L5.43495 1.03466C5.33714 0.893613 5.21401 0.77461 5.07269 0.684532C4.93137 0.594455 4.77466 0.535093 4.61164 0.50988C4.44862 0.484667 4.28252 0.494104 4.12295 0.537645C3.96338 0.581187 3.8135 0.657968 3.682 0.763546C2.59405 1.6311 1.0271 3.15474 0.481855 5.05252C0.350575 5.5273 0.254312 6.01225 0.193944 6.50296C0.0843691 7.68661 0.181989 8.88162 0.481855 10.0274C0.818973 11.4134 1.3225 12.7474 1.98001 13.9965C2.84025 15.6613 3.90532 17.1967 5.14704 18.562C5.14704 18.562 6.50761 20.1886 7.58791 21.2351C8.52299 22.1325 10.0721 23.6209 12.3983 24.3665C13.3181 24.6593 14.3526 24.9765 15.6265 24.6728C16.5314 24.4281 17.3683 23.9568 18.0674 23.2983C18.938 22.5601 19.6723 21.6565 20.2331 20.6333C20.3812 20.3614 20.4333 20.0422 20.3801 19.7331C20.3268 19.424 20.1717 19.1453 19.9426 18.947Z" fill="#F5F5F5"/>
</svg>
