<svg id="Group_21941" data-name="Group 21941" xmlns="http://www.w3.org/2000/svg" xmlns:xlink="http://www.w3.org/1999/xlink" width="46.882" height="54" viewBox="0 0 46.882 54">
  <defs>
    <linearGradient id="linear-gradient" x1="0.5" x2="0.5" y2="1" gradientUnits="objectBoundingBox">
      <stop offset="0" stop-color="#00efd1"/>
      <stop offset="1" stop-color="#00acea"/>
    </linearGradient>
    <clipPath id="clip-path">
      <rect id="Rectangle_1663" data-name="Rectangle 1663" width="46.882" height="54" fill="url(#linear-gradient)"/>
    </clipPath>
  </defs>
  <g id="Group_21940" data-name="Group 21940" clip-path="url(#clip-path)">
    <path id="Path_14017" data-name="Path 14017" d="M43.189,18.584c3.379-3.107,4.447-6.813,3.174-11.014C45.08,3.329,42.119.811,37.563.087a1.458,1.458,0,0,1-.284-.08A.084.084,0,0,1,37.259,0H35.234c-.167.034-.334.066-.5.1-.381.073-.776.149-1.15.246A10.148,10.148,0,0,0,29.839,2.19a1.133,1.133,0,0,1-1.167.187,20.38,20.38,0,0,0-19.2,2.83A20.089,20.089,0,0,0,1.069,19.3a20.543,20.543,0,0,0,3.2,14.213,2.51,2.51,0,0,1,.13.221.611.611,0,0,1,.06.206c0,.01,0,.021.006.034l.08.416-.414.086-.281.054c-.2.039-.387.074-.569.123A4.378,4.378,0,0,0,.016,38.826C0,42.32,0,45.959.014,49.641a4.36,4.36,0,0,0,3.431,4.253c.106.026.206.056.3.086l.064.02H39.621l.253-.07c.22-.06.429-.117.63-.189a4.365,4.365,0,0,0,2.91-4.049c.023-3.714.024-7.371,0-10.869a4.324,4.324,0,0,0-3.6-4.244c-.13-.024-.257-.053-.361-.077l-.634-.139.246-.493c.208-.419.427-.839.639-1.246.456-.879.929-1.787,1.313-2.7a19.67,19.67,0,0,0,1.46-9.533,1.946,1.946,0,0,1,.713-1.8M3.323,20.021A18.484,18.484,0,0,1,7.777,9.9a18.276,18.276,0,0,1,19.18-5.57l.44.144L25.7,8.551l-.37-.113c-4.957-1.513-8.864-.277-11.614,3.674-2.427,3.487-2.41,7.231.051,11.13l.234.37-.374.226c-.457.276-.921.544-1.37.8a31.654,31.654,0,0,0-2.944,1.841A31.906,31.906,0,0,0,6.672,28.73c-.37.34-.754.69-1.136,1.026l-.421.37-.247-.5a17.58,17.58,0,0,1-1.544-9.6m25.6-.866a7.481,7.481,0,0,1-2.61,4.183,7.244,7.244,0,0,1-4.541,1.64,6.987,6.987,0,0,1-.769-.043,7.454,7.454,0,0,1-6.669-7.411,7.4,7.4,0,0,1,10.674-6.571,1.287,1.287,0,0,1,.774,1.089,10.249,10.249,0,0,0,2.781,5.829,1.305,1.305,0,0,1,.359,1.286m7.837,13.2.2.264-.207.26c-.1.124-.2.25-.291.374-.253.327-.514.666-.807.976a1.2,1.2,0,0,1-.9.269Q26.332,34.5,17.9,34.5H13.677c-1.587,0-3.229-.006-4.841.013H8.8a1.518,1.518,0,0,1-1.4-.7,7.187,7.187,0,0,0-.466-.614c-.084-.1-.171-.211-.26-.323l-.2-.26.2-.263a18.735,18.735,0,0,1,9.047-6.6,1.155,1.155,0,0,1,.886.114,9.59,9.59,0,0,0,10.229.006,1.149,1.149,0,0,1,.884-.12,18.725,18.725,0,0,1,9.046,6.6m4.309,6.811q0,5.087,0,10.174a2.076,2.076,0,0,1-2.3,2.306H4.733A2.092,2.092,0,0,1,2.36,49.256q0-5.034,0-10.067a2.08,2.08,0,0,1,2.321-2.331h34.1a2.074,2.074,0,0,1,2.293,2.306m-2.53-9.383-.276.617-.44-.511a21.475,21.475,0,0,0-7.988-5.869l-.421-.177,1.91-3.824.377.174a10.745,10.745,0,0,0,7.931.479l.53-.166.026.554a18.749,18.749,0,0,1-1.649,8.723m3.516-13.323a8.2,8.2,0,0,1-5.813,2.4h-.036a8.139,8.139,0,0,1-5.8-2.454,8.248,8.248,0,0,1,5.86-14.046h.014a8.255,8.255,0,0,1,8.213,8.286,8.184,8.184,0,0,1-2.437,5.814" transform="translate(-0.001)" fill="url(#linear-gradient)"/>
    <path id="Path_14018" data-name="Path 14018" d="M48.18,299.4a1.6,1.6,0,1,1-1.554-1.64,1.623,1.623,0,0,1,1.554,1.64" transform="translate(-38.551 -255.218)" fill="url(#linear-gradient)"/>
    <path id="Path_14019" data-name="Path 14019" d="M46.626,297.756a1.606,1.606,0,1,0,1.554,1.64,1.621,1.621,0,0,0-1.554-1.64m-.049,2.783h-.014a1.171,1.171,0,0,1-.794-2.02,1.161,1.161,0,0,1,.809-.336h.034a1.177,1.177,0,0,1-.034,2.354" transform="translate(-38.551 -255.218)" fill="url(#linear-gradient)"/>
    <path id="Path_14020" data-name="Path 14020" d="M96.088,299.371a1.6,1.6,0,1,1-1.583-1.611,1.624,1.624,0,0,1,1.583,1.611" transform="translate(-79.614 -255.222)" fill="url(#linear-gradient)"/>
    <path id="Path_14021" data-name="Path 14021" d="M94.505,297.759a1.606,1.606,0,1,0,1.583,1.611,1.622,1.622,0,0,0-1.583-1.611m.789,2.449a1.156,1.156,0,0,1-.841.334,1.177,1.177,0,0,1,.033-2.354H94.5a1.17,1.17,0,0,1,.794,2.02" transform="translate(-79.614 -255.222)" fill="url(#linear-gradient)"/>
    <path id="Path_14022" data-name="Path 14022" d="M143.992,299.384a1.6,1.6,0,1,1-1.57-1.626,1.625,1.625,0,0,1,1.57,1.626" transform="translate(-120.674 -255.221)" fill="url(#linear-gradient)"/>
    <path id="Path_14023" data-name="Path 14023" d="M142.422,297.758a1.606,1.606,0,1,0,1.57,1.626,1.622,1.622,0,0,0-1.57-1.626m-.033,2.783h0a1.2,1.2,0,0,1-1.17-1.173,1.2,1.2,0,0,1,1.174-1.183h.024a1.177,1.177,0,0,1-.024,2.354" transform="translate(-120.674 -255.221)" fill="url(#linear-gradient)"/>
    <path id="Path_14024" data-name="Path 14024" d="M191.9,299.344a1.6,1.6,0,1,1-1.61-1.584,1.623,1.623,0,0,1,1.61,1.584" transform="translate(-161.739 -255.223)" fill="url(#linear-gradient)"/>
    <path id="Path_14025" data-name="Path 14025" d="M190.292,297.76a1.606,1.606,0,1,0,1.61,1.584,1.622,1.622,0,0,0-1.61-1.584m.83,2.434a1.151,1.151,0,0,1-.837.349,1.177,1.177,0,0,1,.009-2.354h.006a1.193,1.193,0,0,1,1.174,1.161,1.173,1.173,0,0,1-.351.844" transform="translate(-161.739 -255.223)" fill="url(#linear-gradient)"/>
    <path id="Path_14026" data-name="Path 14026" d="M239.8,299.452a1.6,1.6,0,1,1-1.5-1.694,1.625,1.625,0,0,1,1.5,1.694" transform="translate(-202.798 -255.218)" fill="url(#linear-gradient)"/>
    <path id="Path_14027" data-name="Path 14027" d="M238.306,297.758a1.606,1.606,0,1,0,1.5,1.694,1.623,1.623,0,0,0-1.5-1.694m1.069,1.669a1.175,1.175,0,1,1-1.95-.94,1.165,1.165,0,0,1,.776-.3l.076,0a1.2,1.2,0,0,1,1.1,1.241" transform="translate(-202.798 -255.218)" fill="url(#linear-gradient)"/>
    <path id="Path_14028" data-name="Path 14028" d="M240.763,56.706c-1.029,1.057-2.247,2.3-3.5,3.507a1.124,1.124,0,0,1-.783.339,1.233,1.233,0,0,1-.84-.366c-.61-.576-1.187-1.154-1.714-1.72a1.172,1.172,0,0,1,.817-2,1.226,1.226,0,0,1,.826.334,2.177,2.177,0,0,1,.287.361c.061.089.129.184.2.283l.3.394.347-.353c.281-.284.546-.557.8-.82.531-.549,1.033-1.067,1.544-1.553a1.2,1.2,0,0,1,1.176-.319,1.164,1.164,0,0,1,.8.874,1.038,1.038,0,0,1-.267,1.034" transform="translate(-200.211 -46.93)" fill="url(#linear-gradient)"/>
  </g>
</svg>
