<svg width="20" height="17" viewBox="0 0 20 17" fill="none" xmlns="http://www.w3.org/2000/svg">
<path d="M0.667446 4.57056L0.667447 13.1054C0.667447 13.8995 0.982871 14.661 1.54433 15.2224C2.10578 15.7839 2.86728 16.0993 3.6613 16.0993L16.8343 16.0993C17.6283 16.0993 18.3898 15.7839 18.9512 15.2224C19.5127 14.661 19.8281 13.8995 19.8281 13.1054L19.8281 4.57056L10.552 10.029C10.4598 10.0833 10.3548 10.112 10.2478 10.112C10.1408 10.112 10.0358 10.0833 9.94361 10.029L0.667446 4.57056ZM3.6613 0.531251C2.92464 0.531136 2.21379 0.802623 1.66475 1.29377C1.11571 1.78493 0.767031 2.46126 0.685408 3.19339L10.2478 8.81824L19.8102 3.19339C19.7285 2.46126 19.3799 1.78492 18.8308 1.29377C18.2818 0.802621 17.5709 0.531134 16.8343 0.53125L3.6613 0.531251Z" fill="#F5F5F5"/>
</svg>
