<svg id="Group_21935" data-name="Group 21935" xmlns="http://www.w3.org/2000/svg" xmlns:xlink="http://www.w3.org/1999/xlink" width="46.235" height="54" viewBox="0 0 46.235 54">
  <defs>
    <linearGradient id="linear-gradient" x1="0.5" x2="0.5" y2="1" gradientUnits="objectBoundingBox">
      <stop offset="0" stop-color="#00efd1"/>
      <stop offset="1" stop-color="#00acea"/>
    </linearGradient>
    <clipPath id="clip-path">
      <rect id="Rectangle_1660" data-name="Rectangle 1660" width="46.235" height="54" fill="url(#linear-gradient)"/>
    </clipPath>
  </defs>
  <g id="Group_21934" data-name="Group 21934" clip-path="url(#clip-path)">
    <path id="Path_14003" data-name="Path 14003" d="M46.232,18.4a1.061,1.061,0,0,0-1.127-1.111,12.67,12.67,0,0,0-1.767.155,7.524,7.524,0,0,0-4,1.935V18.7q0-7.8,0-15.6A2.83,2.83,0,0,0,36.26,0Q23.6,0,10.93,0A2.832,2.832,0,0,0,7.854,3.092c0,.817,0,1.635,0,2.544-.206-.171-.323-.275-.447-.371a4.344,4.344,0,0,0-4.9-.557A4.33,4.33,0,0,0,0,8.956a4.5,4.5,0,0,0,1.454,3.151c1.493,1.48,2.974,2.971,4.487,4.485-.117.064-.189.112-.268.145a4.535,4.535,0,0,0-1.487,7.6c.645.651,1.3,1.3,1.943,1.947.169.17.336.343.536.549A4.5,4.5,0,0,0,2.91,30.106a4.449,4.449,0,0,0,1.378,4.7c.5.481,1.012.957,1.568,1.482a2.639,2.639,0,0,1-.258.1,4.559,4.559,0,0,0-2.241,7.853c.972.96,1.933,1.932,2.9,2.9.52.522,1.237.965,1.5,1.6a6.289,6.289,0,0,1,.1,2.234A2.822,2.822,0,0,0,10.892,54q10.078,0,20.156,0c1.026,0,1.385-.366,1.386-1.4,0-3.257.011-6.515,0-9.772a5.958,5.958,0,0,1,2.537-5.094c1.242-.919,2.466-1.864,3.712-2.777a1.493,1.493,0,0,0,.663-1.326q-.029-3.131,0-6.262c.009-1.15-.007-2.307.115-3.447a4.79,4.79,0,0,1,4.624-4.358v.693q0,16.116,0,32.231c0,.992.355,1.5,1.057,1.513.72.014,1.1-.511,1.1-1.527q0-16.817,0-33.635c0-.144,0-.288,0-.432M10.045,2.729c.01-.2.336-.406.555-.55.115-.075.315-.02.476-.02H36.128c.9,0,1.049.15,1.05,1.071s0,1.829,0,2.791H10.019c0-1.112-.028-2.2.026-3.292m-7.108,7.8a2.363,2.363,0,0,1-.118-3.418,2.459,2.459,0,0,1,3.474.029,3.939,3.939,0,0,1,1.594,3.749A41.567,41.567,0,0,0,7.854,15.3l-.177.134a4.565,4.565,0,0,0-.408-.557c-1.44-1.455-2.893-2.9-4.332-4.353M5.614,22.71a2.334,2.334,0,0,1-.531-2.678,2.3,2.3,0,0,1,2.139-1.412,2.369,2.369,0,0,1,1.685.676c1.613,1.613,3.236,3.216,4.831,4.846a2.371,2.371,0,1,1-3.366,3.335q-2.4-2.363-4.759-4.766m9.4-.317a1.959,1.959,0,0,1-.649-2.2,9.3,9.3,0,1,1,1.876,8.195c-.056-.069-.107-.143-.18-.242a4.5,4.5,0,0,0-1.047-5.754M5.576,33.035a2.254,2.254,0,0,1-.508-2.587,2.27,2.27,0,0,1,2.137-1.46,2.355,2.355,0,0,1,1.7.678c1.613,1.613,3.236,3.216,4.831,4.846a2.369,2.369,0,1,1-3.331,3.367q-2.443-2.4-4.834-4.843M4.7,42.529a2.37,2.37,0,0,1,1.654-4.037,2.39,2.39,0,0,1,1.7.688c1.612,1.614,3.237,3.215,4.83,4.847a2.368,2.368,0,1,1-3.351,3.345Q7.1,44.973,4.7,42.529m25.531,9.31H11.253c-1.168,0-1.254-.087-1.241-1.256,0-.142.014-.284.022-.429a4.631,4.631,0,0,0,5.79-4.763H30.234ZM36.74,33.711c-1.049.757-2.071,1.551-3.106,2.327a7.992,7.992,0,0,0-3.356,6.67c0,.108,0,.216-.007.324a.879.879,0,0,1-.04.146c-.158.008-.331.024-.5.024q-7.114,0-14.228.007a.959.959,0,0,1-.773-.348c-.657-.682-1.377-1.3-2.013-1.894a15.07,15.07,0,0,0,2.348-1.3,4.467,4.467,0,0,0,.311-6.57c-.855-.893-1.756-1.744-2.661-2.639l1.862-.676a11.347,11.347,0,0,0,8.24,4.11,11.067,11.067,0,0,0,6.841-1.875A11.446,11.446,0,1,0,12.28,19.6c-.742-.719-1.442-1.386-2.123-2.071a.67.67,0,0,1-.141-.435c-.008-2.933-.006-5.866-.006-8.845H37.178V8.8q0,12.013.01,24.026a.961.961,0,0,1-.448.887" transform="translate(0 0.001)" fill="url(#linear-gradient)"/>
    <path id="Path_14004" data-name="Path 14004" d="M133.32,109.556a18.8,18.8,0,0,0,2.259.059,1.565,1.565,0,1,1,.012,3.127c-.808.014-1.617-.007-2.425.007a.687.687,0,0,1-.8-.728,1.07,1.07,0,0,0-1.142-1.09,1.134,1.134,0,0,0-1,1.252A2.773,2.773,0,0,0,132.9,114.9c.28.01.56,0,.834,0,.079,1.263.391,1.73,1.109,1.726s1.018-.465,1.1-1.7c.159-.037.3-.07.438-.1a3.712,3.712,0,0,0,2.982-3.716,3.651,3.651,0,0,0-3.073-3.574,18.139,18.139,0,0,0-2.364-.082,1.51,1.51,0,1,1,0-3.019c.736-.014,1.473,0,2.21,0,.824,0,.835.01,1.014.832a1.07,1.07,0,0,0,1.16.9,1.057,1.057,0,0,0,.965-1.1,2.682,2.682,0,0,0-2-2.677,10.456,10.456,0,0,0-1.316-.165c-.141-1.254-.408-1.659-1.1-1.673s-.99.407-1.144,1.7c-.149.028-.3.055-.46.085a3.667,3.667,0,0,0-3.05,3.648,3.626,3.626,0,0,0,3.12,3.58" transform="translate(-111.455 -86.07)" fill="url(#linear-gradient)"/>
    <path id="Path_14005" data-name="Path 14005" d="M138.932,332.2c.862.008,1.724,0,2.587,0,.9,0,1.8.008,2.695,0a1.08,1.08,0,1,0,0-2.153q-2.64-.016-5.281,0a1.083,1.083,0,1,0,0,2.155" transform="translate(-117.907 -282.525)" fill="url(#linear-gradient)"/>
  </g>
</svg>
