<svg id="Group_21947" data-name="Group 21947" xmlns="http://www.w3.org/2000/svg" xmlns:xlink="http://www.w3.org/1999/xlink" width="53.894" height="54" viewBox="0 0 53.894 54">
  <defs>
    <linearGradient id="linear-gradient" x1="0.5" x2="0.5" y2="1" gradientUnits="objectBoundingBox">
      <stop offset="0" stop-color="#00efd1"/>
      <stop offset="1" stop-color="#00acea"/>
    </linearGradient>
    <clipPath id="clip-path">
      <rect id="Rectangle_1667" data-name="Rectangle 1667" width="53.894" height="54" fill="url(#linear-gradient)"/>
    </clipPath>
  </defs>
  <g id="Group_21946" data-name="Group 21946" clip-path="url(#clip-path)">
    <path id="Path_14038" data-name="Path 14038" d="M52.667,26.357c-.328-.006-.66,0-.981,0-.444,0-.9,0-1.349-.014a.386.386,0,0,1-.154-.081C49.323,23,48.5,19.811,47.62,16.432l-.312-1.2h1.62c.531,0,1.081,0,1.622,0a3.327,3.327,0,1,0-.021-6.655c-2.1-.012-4.245-.01-6.314-.007l-2.587,0-.89,0c-.713,0-1.451-.006-2.179.01-.19,0-.213,0-.28-.2A11.714,11.714,0,0,0,28.332.088a1,1,0,0,1-.151-.042l-.1-.033L28.033,0H25.765l-.038.009c-.29.072-.59.137-.88.2a14.139,14.139,0,0,0-1.954.524,11.644,11.644,0,0,0-7.264,7.586c-.08.241-.116.256-.34.255-2.931-.011-5.911-.01-8.792-.009H4c-2.286,0-3.141.576-3.981,2.682L0,11.3v1.167l.025.059c.046.108.087.219.131.336a4.316,4.316,0,0,0,.363.8,3.191,3.191,0,0,0,2.775,1.56c.842.011,1.67.009,2.546.006l.747,0-1.3,5.014c-.5,1.93-1.021,3.926-1.521,5.892-.061.24-.084.239-.264.229-.342-.018-.686-.014-1.018-.01-.315,0-.642.008-.956-.008a1.526,1.526,0,0,0-1.474.691L0,27.114V29.12l.008.034c.03.132.059.265.087.4.062.287.126.584.2.876a8.773,8.773,0,0,0,14.448,4.248A8.839,8.839,0,0,0,17.5,29.4a13.554,13.554,0,0,0,.092-1.7,1.171,1.171,0,0,0-1.315-1.343c-.59-.005-1.174,0-1.792,0H13.9l-2.886-11.1h4.513a12.055,12.055,0,0,0,8.058,8.081V40.357H21.364q-2.368,0-4.737,0a2.551,2.551,0,0,0-2.8,2.792c0,.7,0,1.4,0,2.129v.715h-.883c-.187,0-.374,0-.561,0-.414,0-.843,0-1.267,0a2.574,2.574,0,0,0-2.672,2.722c0,.487,0,.973,0,1.46,0,.768,0,1.562-.009,2.34a1.471,1.471,0,0,0,.783,1.443L9.286,54H44.61l.071-.039a1.473,1.473,0,0,0,.782-1.443c-.014-.77-.011-1.556-.009-2.315,0-.5,0-.99,0-1.485A2.568,2.568,0,0,0,42.781,46c-.68-.012-1.35-.009-2.059-.006l-.652,0c0-.215-.005-.427-.009-.634-.011-.684-.022-1.33.021-1.977a2.815,2.815,0,0,0-.713-2.208,3.032,3.032,0,0,0-2.317-.834c-1.631.05-3.3.039-4.917.028-.595,0-1.207-.008-1.818-.009V23.316a11.971,11.971,0,0,0,8.033-8.07h4.527l-.233.908c-.244.953-.487,1.9-.732,2.842q-.276,1.064-.555,2.127c-.426,1.629-.867,3.313-1.283,4.975-.065.261-.1.275-.346.264-.742-.033-1.485-.019-2.2,0A1.142,1.142,0,0,0,36.3,27.563a8.863,8.863,0,0,0,7.181,9.284,8.8,8.8,0,0,0,10.31-7.414,15.584,15.584,0,0,0,.1-1.856,1.134,1.134,0,0,0-1.221-1.221m-5.06-13.475-1.155,0H38.806V10.934h2.23c3.076,0,6.257,0,9.386,0,.669,0,1.072.328,1.106.9a.939.939,0,0,1-.229.715,1.167,1.167,0,0,1-.865.325c-.941.013-1.9.011-2.826.008M42.432,26.335,45.1,16.075l2.664,10.26Zm9.051,2.388a6.088,6.088,0,0,1-1.651,3.835,6.433,6.433,0,0,1-9.283.192A6.146,6.146,0,0,1,38.7,28.723ZM37.737,45.355v.594H16.169q0-.258,0-.515c0-.862-.007-1.677.022-2.506a1.191,1.191,0,0,1,.3-.22,1.077,1.077,0,0,1,.144.007c.052,0,.111.01.171.01H37.086a1.92,1.92,0,0,1,.594.055,2,2,0,0,1,.056.614c0,.647,0,1.294,0,1.963M43.089,51.6H10.811q0-.336,0-.668c0-.817,0-1.588.005-2.374,0-.133,0-.2.371-.2,1.559.008,3.1.008,4.267.009l18,0,9,0a2.539,2.539,0,0,1,.6.037,2.326,2.326,0,0,1,.045.623V51.6ZM26.947,21.453h-.021a9.568,9.568,0,0,1-9.511-9.584A9.574,9.574,0,0,1,26.942,2.36h.011a9.552,9.552,0,0,1,9.527,9.55,9.56,9.56,0,0,1-9.533,9.542m.916,18.863h-1.85V23.793h1.85ZM2.38,28.716H15.214a6.158,6.158,0,0,1-2.442,4.533,6.1,6.1,0,0,1-6.977.628A6.216,6.216,0,0,1,2.38,28.716m12.7-17.776v1.933a.637.637,0,0,1-.071,0h-.737c-3.519,0-7.159.005-10.738,0a1.282,1.282,0,0,1-.927-.312.905.905,0,0,1-.247-.668.933.933,0,0,1,.855-.951,3.427,3.427,0,0,1,.354-.012H3.6q5.663,0,11.326,0c.051,0,.1,0,.157.006M6.14,26.317,8.8,16.076,11.46,26.317Z" fill="url(#linear-gradient)"/>
    <path id="Path_14039" data-name="Path 14039" d="M210.9,81.713c.43.445.875.886,1.306,1.312l.345.342a1.552,1.552,0,0,0,2.57,0q1.946-1.939,3.885-3.885a3.3,3.3,0,0,0,.4-.469,1.444,1.444,0,0,0-.179-1.861,1.422,1.422,0,0,0-1.813-.133,4.344,4.344,0,0,0-.572.506l-.011.011c-.809.805-1.615,1.613-2.443,2.441l-.568.568-.11-.115c-.258-.269-.5-.524-.761-.772a1.459,1.459,0,1,0-2.05,2.058" transform="translate(-188.179 -68.656)" fill="url(#linear-gradient)"/>
  </g>
</svg>
