<svg id="Group_21937" data-name="Group 21937" xmlns="http://www.w3.org/2000/svg" xmlns:xlink="http://www.w3.org/1999/xlink" width="44.838" height="54" viewBox="0 0 44.838 54">
  <defs>
    <linearGradient id="linear-gradient" x1="0.5" x2="0.5" y2="1" gradientUnits="objectBoundingBox">
      <stop offset="0" stop-color="#00efd1"/>
      <stop offset="1" stop-color="#00acea"/>
    </linearGradient>
    <clipPath id="clip-path">
      <rect id="Rectangle_1661" data-name="Rectangle 1661" width="44.838" height="54" fill="url(#linear-gradient)"/>
    </clipPath>
  </defs>
  <g id="Group_21936" data-name="Group 21936" clip-path="url(#clip-path)">
    <path id="Path_14006" data-name="Path 14006" d="M44.837,3.738A3.469,3.469,0,0,0,41.1,0Q32.458,0,23.817,0H20.6a2.9,2.9,0,0,0-.438.02,1.343,1.343,0,0,0-1.208,1.335,1.335,1.335,0,0,0,1.186,1.355,3.176,3.176,0,0,0,.52.025H40.923c1.013,0,1.178.167,1.178,1.193V50.084c0,1.014-.167,1.18-1.191,1.18H3.918c-1.015,0-1.181-.167-1.181-1.19V45.29c0-8.4,0-18.618,0-26.115,0-.111,0-.225-.009-.339,0-.014,0-.028,0-.042a1.276,1.276,0,0,0-.108-.533,1.3,1.3,0,0,0-1.569-.82,1.246,1.246,0,0,0-.928.8,1.3,1.3,0,0,0-.114.5c0,.012,0,.023,0,.035C0,18.847,0,18.918,0,18.994c0,9.168,0,22.251,0,31.419a3.364,3.364,0,0,0,1.53,2.978,4.615,4.615,0,0,0,.89.426c.132.052.256.1.378.154L2.862,54H41.971l.059-.024c2.1-.86,2.807-1.8,2.807-3.718q0-23.26,0-46.519" transform="translate(0 0)" fill="url(#linear-gradient)"/>
    <path id="Path_14007" data-name="Path 14007" d="M83.237,48.4a6.757,6.757,0,0,0,.513-5.586,5.213,5.213,0,0,0-3.485-3.428,5.352,5.352,0,0,0-4.943.872c-1.886,1.5-2.563,3.851-1.906,6.606a7.144,7.144,0,0,0,.775,1.766c.081.146.158.287.231.425-.189.116-.384.232-.587.352a15.23,15.23,0,0,0-2.055,1.377A16.294,16.294,0,0,0,70.021,52.6c-.154.177-.311.357-.471.535a11.4,11.4,0,0,1-2.169-4.867,1.605,1.605,0,0,0-.655-1.1,1.322,1.322,0,0,0-1.047-.165,1.4,1.4,0,0,0-.985,1.777,14.212,14.212,0,0,0,13.92,11.578,14.387,14.387,0,0,0,2.725-.262A14.2,14.2,0,0,0,92.524,43.326,14.229,14.229,0,0,0,78.645,32.01H78.58a13.818,13.818,0,0,0-2.121.182,1.319,1.319,0,0,0-1.129,1.486,1.352,1.352,0,0,0,1.417,1.18h0c.109,0,.213-.009.314-.018a2.454,2.454,0,0,1,.3-.015c.376.014.758.014,1.127.014a12.514,12.514,0,0,1,2.443.156A11.359,11.359,0,0,1,88.6,40.559a11.508,11.508,0,0,1,.781,9.567,10.617,10.617,0,0,1-1.711,3.065,10.829,10.829,0,0,0-4.915-4.112l0,0a6.445,6.445,0,0,0,.482-.676M81.33,45.093a2.747,2.747,0,0,1-1.294,2.754,2.653,2.653,0,0,1-2.59.122,2.707,2.707,0,0,1-1.482-2.191,9.054,9.054,0,0,1-.012-1.305,2.7,2.7,0,0,1,2.674-2.624h.027a2.722,2.722,0,0,1,2.675,2.645c.006.119,0,.242,0,.373,0,.067,0,.135,0,.205Zm4.327,10.061a11.374,11.374,0,0,1-14.051.031,8.022,8.022,0,0,1,14.051-.031" transform="translate(-56.219 -27.834)" fill="url(#linear-gradient)"/>
    <path id="Path_14008" data-name="Path 14008" d="M8.858,17.751h.033a8.9,8.9,0,0,0,8.862-8.857A8.9,8.9,0,0,0,8.935.014H8.867a8.778,8.778,0,0,0-6.2,2.56A8.868,8.868,0,0,0,8.858,17.751m.025-15h.006a6.132,6.132,0,0,1-.006,12.264H8.877A6.132,6.132,0,0,1,8.883,2.75" transform="translate(-0.011 -0.012)" fill="url(#linear-gradient)"/>
    <path id="Path_14009" data-name="Path 14009" d="M137.95,273.12c-.082-.007-.159-.006-.233-.006H123.338a2.2,2.2,0,0,0-.243.008,1.36,1.36,0,0,0-.026,2.717,3.217,3.217,0,0,0,.394.012h12.152l.66,0c.218,0,.439,0,.661,0,.323,0,.65,0,.974-.014a1.336,1.336,0,0,0,1.374-1.378,1.358,1.358,0,0,0-1.333-1.344" transform="translate(-105.895 -237.48)" fill="url(#linear-gradient)"/>
    <path id="Path_14010" data-name="Path 14010" d="M137.609,317.825H123.456a2.836,2.836,0,0,0-.485.025,1.352,1.352,0,0,0-.024,2.681,2.947,2.947,0,0,0,.508.029h12.934l.445,0,.444,0c.211,0,.424,0,.637-.013a1.361,1.361,0,0,0,.032-2.722c-.117-.01-.229-.008-.338-.007" transform="translate(-105.894 -276.357)" fill="url(#linear-gradient)"/>
    <path id="Path_14011" data-name="Path 14011" d="M89.105,273.176a1.3,1.3,0,0,0-.95.38,1.358,1.358,0,0,0,.9,2.341h.026a1.332,1.332,0,0,0,.925-.383,1.354,1.354,0,0,0-.9-2.339" transform="translate(-76.288 -237.533)" fill="url(#linear-gradient)"/>
    <path id="Path_14012" data-name="Path 14012" d="M89.063,317.887a1.359,1.359,0,0,0-.911,2.338,1.325,1.325,0,0,0,.927.384H89.1a1.354,1.354,0,0,0,.912-2.335,1.332,1.332,0,0,0-.929-.387h-.02" transform="translate(-76.288 -276.411)" fill="url(#linear-gradient)"/>
    <path id="Path_14013" data-name="Path 14013" d="M34.714,48.472c.4.417.821.832,1.226,1.232l.324.321a1.457,1.457,0,0,0,2.412,0Q40.5,48.2,42.323,46.375a3.117,3.117,0,0,0,.377-.44,1.356,1.356,0,0,0-.168-1.747,1.335,1.335,0,0,0-1.7-.125,4.065,4.065,0,0,0-.537.475l-.01.01c-.759.756-1.517,1.514-2.294,2.292l-.533.534-.1-.108c-.242-.253-.471-.492-.714-.725a1.37,1.37,0,1,0-1.924,1.932" transform="translate(-29.75 -38.097)" fill="url(#linear-gradient)"/>
  </g>
</svg>
