<?xml version="1.0" encoding="UTF-8"?><svg id="a" xmlns="http://www.w3.org/2000/svg" viewBox="0 0 20.46 20.43"><defs><style>.b{fill:#231f20;}</style></defs><path class="b" d="M14.42,.07c.86,.01,1.71,.17,2.51,.48,.68,.26,1.29,.66,1.81,1.18,.51,.51,.92,1.13,1.18,1.81,.3,.79,.46,1.63,.48,2.48,.05,1.09,.06,1.44,.06,4.21s0,3.13-.06,4.21c-.02,.85-.18,1.69-.48,2.48-.26,.68-.66,1.29-1.18,1.81-.51,.51-1.13,.92-1.81,1.18-.79,.3-1.63,.46-2.48,.48-1.09,.05-1.44,.06-4.21,.06s-3.12,0-4.21-.06c-.85-.02-1.69-.18-2.48-.48-.68-.26-1.29-.66-1.81-1.18-.51-.51-.92-1.13-1.18-1.81-.31-.79-.48-1.63-.51-2.48-.05-1.09-.06-1.44-.06-4.21s0-3.13,.06-4.21c.02-.85,.18-1.69,.48-2.48,.26-.68,.66-1.29,1.18-1.81,.51-.51,1.13-.92,1.81-1.18,.79-.3,1.63-.46,2.48-.48,1.09-.05,1.44-.06,4.21-.06,2.77,0,3.12,0,4.21,.07ZM5.01,10.22c0,2.9,2.35,5.25,5.24,5.25s5.24-2.35,5.24-5.25c0-1.39-.55-2.73-1.54-3.71-.98-.98-2.32-1.54-3.71-1.54s-2.73,.55-3.71,1.54c-.98,.98-1.54,2.32-1.54,3.71ZM14.47,4.77c0,.16,.03,.32,.09,.47,.06,.15,.15,.28,.27,.4s.25,.2,.4,.27c.15,.06,.31,.09,.47,.09,.16,0,.32-.03,.47-.09,.15-.06,.28-.15,.4-.27,.11-.11,.2-.25,.27-.4,.06-.15,.09-.31,.09-.47s-.03-.32-.09-.47c-.06-.15-.15-.28-.27-.4-.11-.11-.25-.2-.4-.26-.15-.06-.31-.09-.47-.09-.68,0-1.22,.55-1.22,1.22Z"/><path class="b" d="M6.83,10.21c0-1.88,1.53-3.41,3.41-3.41s3.41,1.53,3.41,3.41-1.53,3.41-3.41,3.41-3.41-1.53-3.41-3.41Z"/></svg>