<svg width="19" height="27" viewBox="0 0 19 27" fill="none" xmlns="http://www.w3.org/2000/svg">
<path d="M10.5416 26.3316C15.536 16.5413 18.6733 14.8669 18.7253 9.46079C18.6014 4.69666 14.7149 0.765625 9.80278 0.765625C4.88692 0.765625 1.12258 4.90315 0.872142 9.55013V9.69626C0.721149 13.8588 3.03305 15.3184 9.05586 26.3316C9.38876 26.8837 10.2168 26.8837 10.5416 26.3316ZM6.55527 8.86813C6.55527 7.07387 8.01669 5.62063 9.80278 5.62063C11.597 5.62063 13.0503 7.07387 13.0503 8.86813C13.0503 10.6624 11.597 12.1156 9.80278 12.1156C8.01669 12.1156 6.55527 10.6624 6.55527 8.86813Z" fill="#F5F5F5"/>
</svg>
