<svg xmlns="http://www.w3.org/2000/svg" xmlns:xlink="http://www.w3.org/1999/xlink" width="78" height="75" viewBox="0 0 78 75">
  <defs>
    <clipPath id="clip-path">
      <rect width="78" height="75" fill="none"/>
    </clipPath>
  </defs>
  <g id="Repeat_Grid_2" data-name="Repeat Grid 2" clip-path="url(#clip-path)">
    <g transform="translate(-57 -722)">
      <circle id="Ellipse_343" data-name="Ellipse 343" cx="2" cy="2" r="2" transform="translate(60 725)" fill="#231f20"/>
    </g>
    <g transform="translate(-37 -722)">
      <circle id="Ellipse_343-2" data-name="Ellipse 343" cx="2" cy="2" r="2" transform="translate(60 725)" fill="#231f20"/>
    </g>
    <g transform="translate(-17 -722)">
      <circle id="Ellipse_343-3" data-name="Ellipse 343" cx="2" cy="2" r="2" transform="translate(60 725)" fill="#231f20"/>
    </g>
    <g transform="translate(3 -722)">
      <circle id="Ellipse_343-4" data-name="Ellipse 343" cx="2" cy="2" r="2" transform="translate(60 725)" fill="#231f20"/>
    </g>
    <g transform="translate(-57 -702)">
      <circle id="Ellipse_343-5" data-name="Ellipse 343" cx="2" cy="2" r="2" transform="translate(60 725)" fill="#231f20"/>
    </g>
    <g transform="translate(-37 -702)">
      <circle id="Ellipse_343-6" data-name="Ellipse 343" cx="2" cy="2" r="2" transform="translate(60 725)" fill="#231f20"/>
    </g>
    <g transform="translate(-17 -702)">
      <circle id="Ellipse_343-7" data-name="Ellipse 343" cx="2" cy="2" r="2" transform="translate(60 725)" fill="#231f20"/>
    </g>
    <g transform="translate(3 -702)">
      <circle id="Ellipse_343-8" data-name="Ellipse 343" cx="2" cy="2" r="2" transform="translate(60 725)" fill="#231f20"/>
    </g>
    <g transform="translate(-57 -682)">
      <circle id="Ellipse_343-9" data-name="Ellipse 343" cx="2" cy="2" r="2" transform="translate(60 725)" fill="#231f20"/>
    </g>
    <g transform="translate(-37 -682)">
      <circle id="Ellipse_343-10" data-name="Ellipse 343" cx="2" cy="2" r="2" transform="translate(60 725)" fill="#231f20"/>
    </g>
    <g transform="translate(-17 -682)">
      <circle id="Ellipse_343-11" data-name="Ellipse 343" cx="2" cy="2" r="2" transform="translate(60 725)" fill="#231f20"/>
    </g>
    <g transform="translate(3 -682)">
      <circle id="Ellipse_343-12" data-name="Ellipse 343" cx="2" cy="2" r="2" transform="translate(60 725)" fill="#231f20"/>
    </g>
    <g transform="translate(-57 -662)">
      <circle id="Ellipse_343-13" data-name="Ellipse 343" cx="2" cy="2" r="2" transform="translate(60 725)" fill="#231f20"/>
    </g>
    <g transform="translate(-37 -662)">
      <circle id="Ellipse_343-14" data-name="Ellipse 343" cx="2" cy="2" r="2" transform="translate(60 725)" fill="#231f20"/>
    </g>
    <g transform="translate(-17 -662)">
      <circle id="Ellipse_343-15" data-name="Ellipse 343" cx="2" cy="2" r="2" transform="translate(60 725)" fill="#231f20"/>
    </g>
    <g transform="translate(3 -662)">
      <circle id="Ellipse_343-16" data-name="Ellipse 343" cx="2" cy="2" r="2" transform="translate(60 725)" fill="#231f20"/>
    </g>
  </g>
</svg>
