<?xml version="1.0" encoding="UTF-8"?><svg id="a" xmlns="http://www.w3.org/2000/svg" viewBox="0 0 19.32 15.61"><defs><style>.b{fill:#231f20;}</style></defs><path class="b" d="M1.33,6.72C6.52,4.52,9.98,3.06,11.71,2.36,16.65,.36,17.67,.01,18.34,0c.15,0,.48,.03,.69,.2,.18,.14,.23,.33,.25,.47,.02,.14,.05,.44,.03,.68-.27,2.74-1.43,9.4-2.02,12.47-.25,1.3-.74,1.74-1.22,1.78-1.03,.09-1.82-.67-2.82-1.31-1.57-1-2.45-1.62-3.97-2.6-1.76-1.13-.62-1.75,.38-2.76,.26-.27,4.82-4.3,4.9-4.67,.01-.05,.02-.22-.08-.31-.1-.09-.26-.06-.37-.03-.16,.03-2.66,1.65-7.51,4.84-.71,.48-1.35,.71-1.93,.69-.64-.01-1.86-.35-2.77-.64C.81,8.46-.07,8.28,0,7.68c.04-.31,.48-.63,1.32-.96Z"/></svg>