<svg id="Group_26755" data-name="Group 26755" xmlns="http://www.w3.org/2000/svg" width="55.203" height="60" viewBox="0 0 55.203 60">
  <path id="Path_19952" data-name="Path 19952" d="M3782.863,254.148a1.749,1.749,0,0,1-.957-1.824c.043-1.7.012-3.395.012-5.186h-12.43c-1.391,0-1.8-.416-1.8-1.828v-5.039a4.727,4.727,0,0,1,.016-.526.862.862,0,0,1,1.723.019c.031.838.02,1.679.02,2.519v3.063h12.469c0-.5.016-.981-.008-1.462a.584.584,0,0,0-.238-.365,9.735,9.735,0,0,1-2.754-3.224.794.794,0,0,0-.594-.3c-1.211-.028-2.422-.008-3.633-.016a1.354,1.354,0,0,1-1.516-1.468c-.02-1.523-.016-3.047,0-4.57a1.351,1.351,0,0,1,1.5-1.482c1.172-.008,2.344-.021,3.516.008a.751.751,0,0,0,.793-.492,9.078,9.078,0,0,1,10.684-4.521,2.562,2.562,0,0,1,.391.131.85.85,0,0,1,.512,1.056.871.871,0,0,1-1.059.6,15.506,15.506,0,0,0-2.355-.388,7.338,7.338,0,1,0,7.164,8.321,7.22,7.22,0,0,0-1.512-5.553c-.109-.139-.234-.265-.332-.41a.862.862,0,0,1,.137-1.207.8.8,0,0,1,1.2.108c.492.626.895,1.322,1.371,1.959a.947.947,0,0,0,.613.371c1.211.035,2.422.011,3.633.02a1.343,1.343,0,0,1,1.484,1.49c.008,1.523.012,3.047,0,4.57a1.344,1.344,0,0,1-1.461,1.458c-1.191.01-2.383.017-3.574-.005a.755.755,0,0,0-.812.47,7.782,7.782,0,0,1-2.336,2.815,1.2,1.2,0,0,0-.562,1.224,7.752,7.752,0,0,1,0,.856h12.48v-.769q0-22.411-.008-44.822a5.636,5.636,0,0,1,1.156-3.786c-.211-.022-.352-.049-.492-.049q-16.254,0-32.516,0a3.218,3.218,0,0,0-3.336,3.206c-.012.253,0,.508,0,.762v35.154a5.477,5.477,0,0,1-.023.76.861.861,0,0,1-1.715-.022,3.936,3.936,0,0,1-.02-.526V199.561a5.019,5.019,0,0,1,5.4-5.413q18.164,0,36.328,0a4.99,4.99,0,0,1,5.145,4.124,6.445,6.445,0,0,1,.07,1.166q.012,3.4.008,6.8v.715c.395,0,.738-.012,1.082,0a.918.918,0,0,1,.992.864c.012.516-.387.87-1.016.887-.328.009-.656,0-1,0a1.346,1.346,0,0,0-.059.273c0,2.519-.02,5.039,0,7.558a3.237,3.237,0,0,0,5.758,2.016,3.056,3.056,0,0,0,.707-1.943c.012-2.519.008-5.039,0-7.558a2.162,2.162,0,0,0-.062-.346c-.355,0-.7.011-1.047,0a.861.861,0,0,1-.937-.834.872.872,0,0,1,.926-.913c.449-.022.9-.014,1.348,0a1.37,1.37,0,0,1,1.531,1.518c.02,1.777.008,3.554.008,5.332,0,.879.02,1.758,0,2.636a4.988,4.988,0,0,1-5.2,5.089c-3.5.012-6.992,0-10.488,0h-.789v23.8c0,1.381-.43,1.809-1.824,1.809h-12.371c-.016.232-.039.436-.039.641,0,1.543-.031,3.087.012,4.628a1.671,1.671,0,0,1-1,1.741h-.7c-1.016-.573-2.023-1.156-3.047-1.709a.786.786,0,0,0-.625-.069c-1.055.569-2.086,1.18-3.125,1.778Zm31.191-34.411a5.551,5.551,0,0,1-1.18-3.693c.027-1.639.008-3.278.008-4.918,0-3.981.008-7.963-.008-11.944a3.236,3.236,0,1,0-6.469.1q-.006,9.953,0,19.907c0,.172.016.344.023.55Zm-23.68,24.922a9.371,9.371,0,0,1-6.66,0v7.414c.754-.423,1.477-.766,2.129-1.214a1.959,1.959,0,0,1,2.434.015c.652.435,1.367.779,2.1,1.192Zm-15.422-6.484h3.086v-3.912h-3.086Zm21.1.013h3.07v-3.947h-3.07Z" transform="translate(-3767.687 -194.148)" fill="#474747"/>
  <path id="Path_19953" data-name="Path 19953" d="M3804.453,252.136V256.8h24.164v-4.661h-13.75c-.2,0-.395.009-.586-.009a.811.811,0,0,1-.809-.84.824.824,0,0,1,.7-.878,2.6,2.6,0,0,1,.586-.03q6.943,0,13.887,0c1.3,0,1.754.465,1.758,1.768q0,2.432,0,4.863a1.375,1.375,0,0,1-1.578,1.576q-12.275.005-24.551,0c-1.109,0-1.605-.5-1.613-1.615q-.012-2.49,0-4.98a1.418,1.418,0,0,1,1.625-1.611c1.875-.005,3.75,0,5.625,0,.078,0,.156,0,.234,0a.883.883,0,0,1,.949.895.852.852,0,0,1-.969.857c-1.66.009-3.32,0-4.98,0Z" transform="translate(-3797.179 -241.574)" fill="#474747"/>
  <path id="Path_19954" data-name="Path 19954" d="M3816.582,324q-6.352,0-12.7-.008a1.521,1.521,0,0,1-.824-.2.834.834,0,0,1,.242-1.457,2.248,2.248,0,0,1,.746-.088q12.557-.007,25.117,0a2.457,2.457,0,0,1,.637.054.862.862,0,0,1-.16,1.695c-.172.015-.352.007-.527.007Z" transform="translate(-3797.236 -302.193)" fill="#474747"/>
  <path id="Path_19955" data-name="Path 19955" d="M3816.645,354.688h-12.469a5.316,5.316,0,0,1-.586-.01.814.814,0,0,1-.781-.806.8.8,0,0,1,.621-.877,2.624,2.624,0,0,1,.7-.061q12.527,0,25.059,0c.1,0,.2,0,.289,0,.668.021,1.07.377,1.051.919-.02.519-.406.835-1.059.836Q3823.055,354.691,3816.645,354.688Z" transform="translate(-3797.308 -328.072)" fill="#474747"/>
  <g id="Group_26754" data-name="Group 26754" transform="translate(16.514 37.946)">
    <path id="Path_19956" data-name="Path 19956" d="M3878.5,437.2h-1.887a2.009,2.009,0,0,1,.754,1.374h1.133a.335.335,0,0,1,.336.337h0a.335.335,0,0,1-.336.336h-1.117c-.133,1.374-1.227,2.25-2.949,2.3.91.946,1.891,2.105,2.875,3.3a.337.337,0,0,1-.262.551h-.422a.344.344,0,0,1-.262-.122c-.984-1.189-1.922-2.3-3.105-3.565a.335.335,0,0,1-.09-.23v-.365a.335.335,0,0,1,.336-.337h.406c1.449,0,2.23-.606,2.328-1.535H3873.5a.335.335,0,0,1-.336-.336h0a.335.335,0,0,1,.336-.337h2.691c-.187-.781-.9-1.172-2.07-1.172h-.621a.335.335,0,0,1-.336-.337v-.2a.335.335,0,0,1,.336-.336h5a.335.335,0,0,1,.336.336h0A.335.335,0,0,1,3878.5,437.2Z" transform="translate(-3873.168 -436.531)" fill="#474747"/>
  </g>
</svg>
