<svg id="Group_26756" data-name="Group 26756" xmlns="http://www.w3.org/2000/svg" width="60" height="59.885" viewBox="0 0 60 59.885">
  <path id="Path_19957" data-name="Path 19957" d="M4363.005,270.281a18.2,18.2,0,0,1-3.084-11.848h-1.306q-10.482,0-20.966,0a5.849,5.849,0,0,1-1.03-.062,1.091,1.091,0,0,1-.875-1.163,1.205,1.205,0,0,1,.852-1.054,7.2,7.2,0,0,1,1.032-.065q10.425,0,20.849,0h1.337v-4.212H4337.9c-.312,0-.625.006-.937,0-.781-.024-1.284-.392-1.27-1.208.015-.752.5-1.1,1.224-1.132.312-.012.625,0,.937,0h21.785a6.208,6.208,0,0,1,2.122-1.547c2.615-.885,5.266-1.664,7.92-2.489v-15.4c-2.095,0-4.15,0-6.2,0-2.836,0-4.057-1.223-4.06-4.057,0-2.026,0-4.053,0-6.251h-1.293q-12.65,0-25.3,0c-1.72,0-1.977.252-1.978,1.946q0,8.55,0,17.1c0,.273,0,.547,0,.82-.017.78-.374,1.3-1.191,1.285s-1.151-.551-1.152-1.324q0-3.865,0-7.73c0-3.514-.007-7.028,0-10.541.007-2.506,1.409-3.9,3.933-3.9,9.174-.006,18.35-.019,27.524.033a3.07,3.07,0,0,1,1.919.816c3.139,3.043,6.2,6.172,9.311,9.24a2.764,2.764,0,0,1,.9,2.162c-.038,4.529-.018,9.058-.018,13.587v1.5c2.224-1.235,4.091-.021,6.021.546,3.028.891,6.023,1.89,9.048,2.793a1.657,1.657,0,0,1,1.353,1.861c-.044,3.513.006,7.028-.023,10.541A17.27,17.27,0,0,1,4375,277.229a4.1,4.1,0,0,1-1.711-.015,15.761,15.761,0,0,1-7.325-3.715,2.982,2.982,0,0,0-2.195-.79q-15.519.035-31.038.014c-2.924,0-4.236-1.3-4.238-4.185,0-5.9-.019-11.791.033-17.686a2.064,2.064,0,0,1,.739-1.517c.778-.5,1.564.206,1.569,1.339.017,3.475.006,6.949.006,10.424,0,2.577.013,5.154-.005,7.73-.008,1.084.487,1.555,1.564,1.554q15.051-.017,30.1-.012A4.072,4.072,0,0,0,4363.005,270.281Zm-.743-20.012c0,3.793-.155,7.505.034,11.2a14.826,14.826,0,0,0,10.913,13.315,3.7,3.7,0,0,0,1.924,0c5.47-1.655,9.092-5.231,10.473-10.78a30.641,30.641,0,0,0,.5-6.383c.078-2.444.018-4.892.018-7.345-3.6-1.129-7.1-2.2-10.583-3.335a4.106,4.106,0,0,0-2.708,0C4369.323,248.089,4365.791,249.166,4362.263,250.27Zm5.316-22.532-5.816-5.8c0,1.437,0,3.025,0,4.612,0,.83.452,1.191,1.254,1.189C4364.573,227.734,4366.13,227.737,4367.579,227.737Z" transform="translate(-4328.489 -217.427)" fill="#474747"/>
  <path id="Path_19958" data-name="Path 19958" d="M4391.707,279.092c-1.211,0-2.22-.012-3.229,0a1.261,1.261,0,0,1-1.453-1.418q-.012-2.574,0-5.147a1.257,1.257,0,0,1,1.458-1.411c1.008.018,2.017,0,3.221,0,0-1.026-.01-1.981,0-2.935.019-1.432.319-1.741,1.7-1.749q2.281-.013,4.562,0c1.382.008,1.682.321,1.707,1.75.015.857.018,1.715.031,2.572a1.939,1.939,0,0,0,.115.362c.993,0,2.035.014,3.076,0a1.259,1.259,0,0,1,1.457,1.413q.016,2.573,0,5.147a1.262,1.262,0,0,1-1.456,1.416c-1.008-.016-2.017,0-3.222,0,0,1.025.011,1.98,0,2.934-.02,1.426-.328,1.742-1.708,1.75-1.559.009-3.12-.022-4.678.011-1.081.023-1.6-.455-1.586-1.531C4391.713,281.248,4391.707,280.24,4391.707,279.092Zm-2.265-2.346c1.068,0,2.037-.01,3.005,0,1.241.017,1.578.349,1.6,1.613.021,1,0,1.992,0,3h3.273c0-1.078.007-2.086,0-3.094-.01-1.075.5-1.566,1.586-1.528,1,.035,2,.007,3.038.007V273.47c-1.023,0-1.989.008-2.954,0-1.318-.014-1.643-.335-1.667-1.671-.018-.964,0-1.929,0-2.919h-3.273c0,1.1,0,2.117,0,3.128a1.3,1.3,0,0,1-1.528,1.469c-1.005-.025-2.011-.006-3.083-.006Z" transform="translate(-4373.31 -254.954)" fill="#474747"/>
  <path id="Path_19959" data-name="Path 19959" d="M4367.325,412.817c-2.185,0-4.371-.009-6.555,0-.842.005-1.53-.215-1.521-1.188s.714-1.169,1.546-1.167q6.615.013,13.228,0c.84,0,1.53.218,1.521,1.191s-.712,1.17-1.546,1.165C4371.774,412.808,4369.55,412.817,4367.325,412.817Z" transform="translate(-4352.044 -365.251)" fill="#474747"/>
  <path id="Path_19960" data-name="Path 19960" d="M4500.277,386.937c1.852-1.875,3.479-3.511,5.092-5.16.788-.805,1.679-1.233,2.594-.332.941.926.438,1.792-.354,2.576-1.9,1.883-3.775,3.8-5.684,5.673-1.2,1.176-1.83,1.157-3.053-.036-1.015-.989-2.007-2-3.008-3-.724-.726-.988-1.557-.208-2.35a1.556,1.556,0,0,1,2.474.171C4498.844,385.237,4499.506,386.049,4500.277,386.937Z" transform="translate(-4456.138 -342.642)" fill="#474747"/>
  <circle id="Ellipse_74" data-name="Ellipse 74" cx="1.243" cy="1.243" r="1.243" transform="translate(0.067 26.406)" fill="#474747"/>
</svg>
