<svg id="Group_26758" data-name="Group 26758" xmlns="http://www.w3.org/2000/svg" width="60" height="59.986" viewBox="0 0 60 59.986">
  <path id="Path_19961" data-name="Path 19961" d="M4774.076,244.026c.074-.174.154-.347.223-.524a3.309,3.309,0,0,1,3.057-2.164c2.029-.019,4.059-.015,6.089,0a3.389,3.389,0,0,1,2.357,1.022.715.715,0,0,0,.579.139c.484-.131.95-.333,1.429-.51-.258-1.066-.572-2.09-.748-3.137a20.032,20.032,0,0,1,5.348-17.9c2.541-2.7,5.221-5.268,7.855-7.877a.773.773,0,0,0,.229-.953c-.754-2.089-1.482-4.187-2.2-6.288a2.083,2.083,0,0,1,1.084-2.745,2.03,2.03,0,0,1,2.195.305c.851.669,1.308.669,2.1-.061a6.564,6.564,0,0,1,2.736-1.359h1.523a6.589,6.589,0,0,1,3.119,1.619,1.157,1.157,0,0,0,1.644-.094,2.14,2.14,0,0,1,2.059-.529,2.075,2.075,0,0,1,1.4,2.782q-1.073,3.185-2.207,6.349a.777.777,0,0,0,.212.959q3.069,3.018,6.086,6.087a1.522,1.522,0,0,1,.517.927,1.723,1.723,0,0,1-.539,1.071.991.991,0,0,1-1.253-.02,3.339,3.339,0,0,1-.472-.436c-2.1-2.1-4.189-4.2-6.306-6.281a1.436,1.436,0,0,0-.9-.39c-2.713-.03-5.426-.026-8.139,0a1.277,1.277,0,0,0-.817.306c-2.761,2.732-5.583,5.409-8.228,8.251-4.827,5.186-6.161,11.257-4.206,18.058a3.736,3.736,0,0,0,.139.384c.013.031.056.049.039.035,1.26-.314,2.47-.693,3.709-.908a13.82,13.82,0,0,1,8.183,1.029c2.984,1.345,5.93,2.779,8.864,4.231a4.3,4.3,0,0,1,2.5,4.281c0,.117-.013.234-.021.351s-.02.229-.045.527c.7-.517,1.32-.912,1.866-1.392q4.527-3.984,9.018-8.01a1.55,1.55,0,0,0,.411-.676,18,18,0,0,0,.016-10.715c-.056-.187-.116-.372-.167-.56a1.151,1.151,0,0,1,.753-1.492,1.1,1.1,0,0,1,1.443.745,32.5,32.5,0,0,1,.865,3.573,19.859,19.859,0,0,1,.237,3.146c.009,1.028-.107,2.058-.164,3a13.38,13.38,0,0,1,2.458-.252,4.134,4.134,0,0,1,3.763,2.891,4.206,4.206,0,0,1-1.041,4.692c-2.419,2.411-4.885,4.776-7.342,7.148-1.754,1.695-3.454,3.456-5.306,5.037a17.28,17.28,0,0,1-11.393,4.235c-10.4.053-20.807.023-31.21.018a3.349,3.349,0,0,1-3.261-2.385c-.036-.105-.092-.2-.138-.305Zm12.609,15.565c.093,0,.208.014.323.014,7.183,0,14.367.022,21.55-.013a15.1,15.1,0,0,0,9.454-3.251,53.427,53.427,0,0,0,3.963-3.64c2.98-2.87,5.937-5.766,8.91-8.645a2.189,2.189,0,0,0,.771-2.147,2.145,2.145,0,0,0-3.67-1.014q-5.693,5.053-11.386,10.106a11.047,11.047,0,0,1-3.7,2.194,9.336,9.336,0,0,1-6.572.164c-1.987-.741-4.04-1.307-6.063-1.951-1.244-.4-2.492-.779-3.73-1.192a1.125,1.125,0,0,1-.815-1.264,1.112,1.112,0,0,1,1.044-1.01,2.436,2.436,0,0,1,.794.155c3.512,1.108,7.019,2.229,10.532,3.332a2.153,2.153,0,0,0,1.617-3.99c-2.826-1.364-5.646-2.74-8.5-4.051a11.223,11.223,0,0,0-7.253-.886c-1.738.39-3.416,1.057-5.115,1.618-.713.236-1.412.517-2.155.792Zm-10.266-7.954q0,3.366,0,6.733c0,.851.368,1.231,1.2,1.234q2.78.01,5.562,0c.832,0,1.2-.382,1.2-1.23q.005-6.733,0-13.465c0-.874-.368-1.232-1.256-1.233q-2.722-.005-5.445,0c-.912,0-1.261.358-1.262,1.287Q4776.416,248.3,4776.419,251.636Zm24.417-45.854c-.016.077-.04.119-.029.149.626,1.8,1.247,3.609,1.9,5.4a.667.667,0,0,0,.516.308c2.654.02,5.308.005,7.962.023a.554.554,0,0,0,.609-.468c.357-1.072.735-2.137,1.1-3.2.251-.727.5-1.455.777-2.253a3.8,3.8,0,0,1-4.552-.688,2.809,2.809,0,0,0-3.885.035A3.721,3.721,0,0,1,4800.835,205.783Z" transform="translate(-4774.076 -201.972)" fill="#474747"/>
  <path id="Path_19962" data-name="Path 19962" d="M5080.144,337.1a1.155,1.155,0,0,1,1.192-1.114,1.168,1.168,0,1,1-.1,2.332A1.158,1.158,0,0,1,5080.144,337.1Z" transform="translate(-5032.246 -315.012)" fill="#474747"/>
  <g id="Group_26757" data-name="Group 26757" transform="translate(28.08 21.211)">
    <path id="Path_19963" data-name="Path 19963" d="M4963.071,338.716h-3.381a3.619,3.619,0,0,1,1.352,2.463h2.029a.6.6,0,0,1,.6.6h0a.6.6,0,0,1-.6.6h-2c-.242,2.463-2.2,4.033-5.289,4.129,1.634,1.7,3.395,3.775,5.157,5.919a.6.6,0,0,1-.467.987h-.76a.605.605,0,0,1-.465-.219c-1.771-2.132-3.452-4.128-5.571-6.392a.6.6,0,0,1-.164-.413v-.655a.6.6,0,0,1,.6-.6h.724c2.608,0,4.009-1.087,4.178-2.753h-4.9a.6.6,0,0,1-.6-.6h0a.6.6,0,0,1,.6-.6h4.83c-.338-1.4-1.618-2.1-3.719-2.1h-1.11a.6.6,0,0,1-.6-.6v-.362a.6.6,0,0,1,.6-.6h8.959a.6.6,0,0,1,.6.6h0A.6.6,0,0,1,4963.071,338.716Z" transform="translate(-4953.508 -337.509)" fill="#474747"/>
  </g>
</svg>
