<svg id="Group_26751" data-name="Group 26751" xmlns="http://www.w3.org/2000/svg" width="54.658" height="60" viewBox="0 0 54.658 60">
  <path id="Path_19940" data-name="Path 19940" d="M2908.292,340.36a48.049,48.049,0,0,1,4.7-1.4,11.731,11.731,0,0,1,9.592,2.415,7.742,7.742,0,0,0,5.286,1.716c1.454-.078,2.915-.018,4.373-.015,3.275.008,4.916,1.73,4.759,5.16.448-.129.857-.223,1.249-.363,3.008-1.074,6.009-2.164,9.018-3.234,2.467-.877,4.681-.068,5.657,2.045.949,2.056.16,4.284-2.031,5.578a58.656,58.656,0,0,1-20.262,7.46,26.358,26.358,0,0,1-12.892-1.436c-2.777-.931-5.7-1.433-8.56-2.111a3.551,3.551,0,0,0-.812-.008c-.52,2.3-.769,2.5-3.116,2.5-1.458,0-2.916.012-4.373,0-1.572-.017-2.2-.628-2.2-2.219q-.022-8.322,0-16.643c0-1.514.64-2.132,2.146-2.159,1.417-.025,2.834-.007,4.252-.007C2907.746,337.632,2907.981,337.834,2908.292,340.36Zm-.087,13.658a81.548,81.548,0,0,1,9.092,2.346,26.86,26.86,0,0,0,17.469.8,64.092,64.092,0,0,0,15.3-6.331,2.67,2.67,0,0,0,1.565-2.647,2.531,2.531,0,0,0-3.614-2.047c-4.344,1.533-8.673,3.106-13.01,4.658a5.572,5.572,0,0,1-1.607.5q-3.7.1-7.4.024c-.315-.006-.62-.475-.931-.729a4.216,4.216,0,0,1,.852-.845,2.177,2.177,0,0,1,.956-.05c1.983-.005,3.968.031,5.949-.024a2.465,2.465,0,1,0-.08-4.92c-1.5-.022-3-.07-4.492.009a9.97,9.97,0,0,1-6.767-2.138,10.947,10.947,0,0,0-12.647-.429,1.351,1.351,0,0,0-.6.914C2908.19,346.834,2908.205,350.555,2908.205,354.018Zm-1.725-14.759c-1.686,0-3.3.053-4.9-.019-.993-.045-1.319.251-1.309,1.28.05,5.1.021,10.194.026,15.291,0,.354.042.707.068,1.11h6.117Z" transform="translate(-2898.661 -300.007)" fill="#474747"/>
  <path id="Path_19941" data-name="Path 19941" d="M2989.2,195.12c-.942-2.608-.37-3.866,2.274-4.945-.587-1.908-1.213-3.819-1.742-5.756a4.651,4.651,0,0,1,.115-1.533,8.642,8.642,0,0,1,1.47.472,7.2,7.2,0,0,1,1.132.9c.783-.52,1.53-1.394,2.3-1.419.718-.023,1.465.861,2.352,1.447,1.346-1.921,2.876-1.885,4.288.086a10.214,10.214,0,0,1,1.359-1.08,6.743,6.743,0,0,1,1.377-.417,3.919,3.919,0,0,1,.173,1.4c-.445,1.679-.995,3.329-1.5,4.992-.092.3-.16.611-.237.906,2.626,1.166,3.145,2.3,2.256,4.913.721.482,1.475.943,2.183,1.467a16.72,16.72,0,0,1,1.449,25.527,5.848,5.848,0,0,1-4.174,1.648q-7.288-.022-14.575,0a5.911,5.911,0,0,1-4.258-1.743,16.708,16.708,0,0,1,2.652-26.2C2988.441,195.578,2988.788,195.373,2989.2,195.12Zm7.816,26.948c2.388,0,4.775-.012,7.162.005a4.358,4.358,0,0,0,3.181-1.237,15.028,15.028,0,0,0-3.1-24.064,4.283,4.283,0,0,0-1.934-.44q-5.34-.063-10.681,0a4.062,4.062,0,0,0-1.821.408,15.014,15.014,0,0,0-3.511,23.785,4.78,4.78,0,0,0,3.664,1.559C2992.323,222.037,2994.671,222.069,2997.018,222.068Zm-4.887-35.465c.285.919.578,2.008.98,3.056a1.145,1.145,0,0,0,.832.61q3.029.08,6.058,0a1.157,1.157,0,0,0,.874-.567c.411-1.079.708-2.2,1.033-3.259a9.771,9.771,0,0,1-1.159-.542c-.337-.216-.587-.6-.942-.747a1.392,1.392,0,0,0-1.1-.047c-1.8,1.21-1.782,1.232-3.551-.129-.125-.1-.267-.17-.38-.242Zm4.8,8.094h4.846c.94,0,1.756-.255,1.781-1.354s-.753-1.424-1.709-1.425q-4.846-.009-9.691,0c-.95,0-1.727.306-1.714,1.416s.831,1.358,1.763,1.362C2993.782,194.7,2995.357,194.7,2996.932,194.7Z" transform="translate(-2960.461 -182.836)" fill="#474747"/>
  <path id="Path_19942" data-name="Path 19942" d="M3024.6,254.258c-.646,1.283.093,2.267,1.116,3.286.934.931.836,1.978-.225,2.989a2.7,2.7,0,0,0-.95,2.861c.351,1.545-.3,2.405-1.907,2.616a2.8,2.8,0,0,0-2.44,1.8c-.666,1.437-1.693,1.748-3.1.981a2.644,2.644,0,0,0-2.912-.048c-1.5.862-2.5.509-3.246-1.069a2.529,2.529,0,0,0-2.16-1.617c-1.875-.264-2.458-1.086-2.079-2.939a2.236,2.236,0,0,0-.759-2.341c-1.427-1.352-1.428-2.346-.02-3.707a2.239,2.239,0,0,0,.786-2.335c-.4-1.886.241-2.777,2.155-3.007a2.27,2.27,0,0,0,2-1.448c.845-1.756,1.788-2.057,3.525-1.112a2.317,2.317,0,0,0,2.474-.011c1.73-.932,2.664-.628,3.5,1.153a2.245,2.245,0,0,0,2.018,1.421C3024.038,251.921,3024.647,252.651,3024.6,254.258Zm-1.522-.136c-.31-.243-.623-.7-.975-.729a3.292,3.292,0,0,1-3.141-2.242c-.288-.807-.786-.933-1.486-.467a3.117,3.117,0,0,1-3.737,0c-.7-.47-1.194-.336-1.485.473a3.073,3.073,0,0,1-3.024,2.188c-.808.026-1.1.426-.9,1.172a3.276,3.276,0,0,1-1.288,3.742c-.524.409-.575.867-.022,1.29a3.374,3.374,0,0,1,1.29,3.862c-.2.747.189,1.062.871,1.088a3.165,3.165,0,0,1,3.1,2.264c.277.768.766.856,1.407.423a3.176,3.176,0,0,1,3.843.012c.669.451,1.128.28,1.4-.454a3.148,3.148,0,0,1,3.116-2.243c.726-.019,1.042-.409.841-1.108a3.351,3.351,0,0,1,1.306-3.852c.475-.373.533-.791.037-1.2A3.305,3.305,0,0,1,3023.074,254.122Z" transform="translate(-2979.053 -232.648)" fill="#474747"/>
  <path id="Path_19943" data-name="Path 19943" d="M3040.915,269.84c-.211.378-.35.668-.525.933q-2.721,4.144-5.452,8.281c-.343.52-.719,1.12-1.429.673-.732-.461-.309-1.037.033-1.557,1.865-2.826,3.71-5.665,5.616-8.463a1.809,1.809,0,0,1,1.173-.517C3040.493,269.17,3040.718,269.61,3040.915,269.84Z" transform="translate(-3000.433 -248.205)" fill="#474747"/>
  <path id="Path_19944" data-name="Path 19944" d="M3027.507,270.28a2.506,2.506,0,1,0,2.464,2.486A2.512,2.512,0,0,0,3027.507,270.28Zm-.01,3.363a.857.857,0,1,1,.855-.858A.858.858,0,0,1,3027.5,273.643Z" transform="translate(-2994.312 -249.029)" fill="#474747"/>
  <path id="Path_19945" data-name="Path 19945" d="M3055.047,291.006a2.493,2.493,0,1,0,2.418,2.542A2.524,2.524,0,0,0,3055.047,291.006Zm-.083,3.349a.857.857,0,1,1,.855-.858A.858.858,0,0,1,3054.964,294.355Z" transform="translate(-3015.084 -264.717)" fill="#474747"/>
</svg>
