<svg id="Group_26753" data-name="Group 26753" xmlns="http://www.w3.org/2000/svg" width="59.805" height="60" viewBox="0 0 59.805 60">
  <path id="Path_19948" data-name="Path 19948" d="M3234.806,146.009c1.473.43,2.942.873,4.419,1.286q6.619,1.85,13.242,3.681c.97.27,1.206.587,1.206,1.578,0,3.672.077,7.346-.015,11.015q-.369,14.719-12.7,22.839a.76.76,0,0,0-.367.846,36.409,36.409,0,0,1,.139,4.9,3.633,3.633,0,0,1-2.567,3.2.688.688,0,0,0-.536.8c.032,1.093.014,2.187.01,3.281,0,.92-.432,1.432-1.178,1.423-.729-.009-1.16-.541-1.164-1.454,0-1.191-.01-2.383,0-3.574a.6.6,0,0,0-.375-.626,4,4,0,0,1-2.263-3.689c-.009-.507-.01-1.016-.06-1.52a3.8,3.8,0,0,0-1.31-2.541c-.674-.593-1.385-1.144-2.1-1.688a1.039,1.039,0,0,0-.59-.178q-4.248-.016-8.5,0a1.256,1.256,0,0,0-1.351.971,1.242,1.242,0,0,0,.737,1.438,2.313,2.313,0,0,0,.743.112c.721.027,1.446,0,2.165.057a4.117,4.117,0,0,1,2.57,1.269,1.515,1.515,0,0,0,.794.343c.614.094,1.259.038,1.853.191a3.96,3.96,0,0,1,2.985,3.641c.077,1.872.038,3.749.043,5.624q.007,2.578,0,5.156a3.841,3.841,0,0,1-.045.7,1.147,1.147,0,0,1-2.25-.007,4.264,4.264,0,0,1-.045-.758c0-3.379,0-6.758-.005-10.137a1.827,1.827,0,0,0-2.217-2.009c-.056.351-.1.715-.174,1.07a4.042,4.042,0,0,1-4.018,3.27c-.682.009-1.365,0-2.108,0-.022.271-.043.516-.063.761a4.644,4.644,0,0,1-9.272-.24,1.459,1.459,0,0,0-.992-1.563c-1.206-.547-2.355-1.217-3.606-1.876-.374.628-1,.585-1.638.584-2.988-.009-5.977,0-8.965-.006-1.04,0-1.651-.9-1.187-1.72a1.23,1.23,0,0,1,1.177-.623c.973.007,1.946,0,2.963,0,.011-.237.028-.426.028-.615,0-3.457-.008-6.914.012-10.371,0-.456-.131-.645-.573-.753-.927-.228-1.84-.514-2.754-.789a1.176,1.176,0,1,1,.644-2.243c.358.094.719.186,1.066.312a15.224,15.224,0,0,0,5.973.867,27.834,27.834,0,0,1,2.943.2,1.149,1.149,0,0,0,.49-.145q1.952-.866,3.9-1.743a7.3,7.3,0,0,1,3.121-.666c1.677.016,3.354,0,5.121,0-.116-.248-.2-.436-.291-.621a27.343,27.343,0,0,1-2.717-12.465,1.229,1.229,0,0,1,.859-1.312,1.1,1.1,0,0,1,1.3.533,2.572,2.572,0,0,1,.172,1.019,24.682,24.682,0,0,0,1.609,9.111c.439,1.123,1.013,2.193,1.5,3.3a.708.708,0,0,0,.775.447c2.168-.018,4.336.008,6.5-.014a7.23,7.23,0,0,1,4.716,1.618q1.88,1.494,3.781,2.962a11.494,11.494,0,0,1,3.29,3.963c.168-.094.321-.166.46-.26a24.454,24.454,0,0,0,10.975-17.554,26.772,26.772,0,0,0,.216-3.445c.029-3.125.01-6.25.01-9.375v-.689c-1.438-.4-2.858-.807-4.279-1.2-4-1.112-8-2.229-12.009-3.318a2.354,2.354,0,0,0-1.183-.007q-8.378,2.291-16.744,4.627c-.131.036-.263.074-.4.106a1.168,1.168,0,1,1-.631-2.247c1.424-.408,2.855-.794,4.283-1.191q6.621-1.839,13.242-3.681c.167-.046.326-.122.489-.184Zm-14.31,32.224c-2.48,0-4.96-.031-7.439.02a6.1,6.1,0,0,0-2.1.428c-1.537.615-3.03,1.341-4.548,2a.6.6,0,0,0-.438.643c.015,3.085,0,6.17.025,9.255a.845.845,0,0,0,.361.619c1.5.826,3,1.667,4.558,2.39a5.927,5.927,0,0,0,2.3.556c2.849.064,5.7.029,8.552.024a1.86,1.86,0,1,0-.009-3.717c-.586-.008-1.172.009-1.757-.005a3.609,3.609,0,0,1-3.619-3.662,3.567,3.567,0,0,1,3.659-3.548c3.026-.016,6.053-.019,9.079.014a2.231,2.231,0,0,1,1.172.4c.767.535,1.479,1.149,2.209,1.736a6.251,6.251,0,0,1,2.355,3.861,18.13,18.13,0,0,1,.148,2.273,1.762,1.762,0,0,0,1.736,1.769,1.728,1.728,0,0,0,1.71-1.784c.013-.8.018-1.6-.006-2.4a8.416,8.416,0,0,0-3.136-6.481c-1.425-1.185-2.9-2.306-4.37-3.442a4.565,4.565,0,0,0-2.887-.959C3225.533,178.238,3223.015,178.233,3220.5,178.233ZM3203.6,191.814V180.606h-3v11.208Zm13.758,4.738H3212.8a2.309,2.309,0,1,0,4.564,0Z" transform="translate(-3193.899 -146.009)" fill="#474747"/>
  <path id="Path_19949" data-name="Path 19949" d="M3384.236,176.387c.125-1.547.382-1.978,1.162-2,.8-.021,1.057.386,1.273,2.019.406.07.826.135,1.243.215a12.545,12.545,0,0,1,9.964,13.492,1.173,1.173,0,0,1-.885,1.113,1.211,1.211,0,0,1-1.378-.633,5.366,5.366,0,0,0-7.755-1.361c-.171.128-.327.277-.491.416a2.079,2.079,0,0,0-.772,1.783c.056,1.99.01,3.983.024,5.975a1.091,1.091,0,0,0,1.619,1.078,1.582,1.582,0,0,0,.6-.92c.184-.806.631-1.291,1.295-1.23a1.23,1.23,0,0,1,1.064,1.479,3.5,3.5,0,0,1-3.467,3.171,3.438,3.438,0,0,1-3.443-3.24c-.048-2.225,0-4.452-.035-6.678a1.649,1.649,0,0,0-.334-.943,5.374,5.374,0,0,0-8.507.238c-.092.126-.174.259-.267.385a1.167,1.167,0,0,1-2.139-.579,12.513,12.513,0,0,1,10.811-13.685C3383.953,176.465,3384.083,176.423,3384.236,176.387Zm-8.7,10.614a7.9,7.9,0,0,1,9.9,1.2q4.525-4.153,9.958-1.177a10.159,10.159,0,0,0-10.947-8.272C3379.975,179.2,3375.349,183.482,3375.538,187Z" transform="translate(-3344.907 -169.945)" fill="#474747"/>
  <path id="Path_19950" data-name="Path 19950" d="M3460.671,515.526a1.152,1.152,0,0,1-1.124,1.178,1.224,1.224,0,0,1-1.2-1.185,1.181,1.181,0,0,1,1.177-1.138A1.134,1.134,0,0,1,3460.671,515.526Z" transform="translate(-3416.941 -456.707)" fill="#474747"/>
  <path id="Path_19951" data-name="Path 19951" d="M3330.837,213.048a1.152,1.152,0,0,1,.136-2.3,1.152,1.152,0,1,1-.136,2.3Z" transform="translate(-3308.485 -200.611)" fill="#474747"/>
</svg>
