<svg id="Group_26760" data-name="Group 26760" xmlns="http://www.w3.org/2000/svg" width="50.115" height="60" viewBox="0 0 50.115 60">
  <path id="Path_19964" data-name="Path 19964" d="M5313.571,238.35c-1.862,1.031-3.643,2.071-5.48,3a2.046,2.046,0,0,1-1.6.062c-9.415-4.742-16.723-11.549-20.775-21.481a32.424,32.424,0,0,1-2.4-11.991c-.047-4.337.013-8.674-.031-13.011a1.4,1.4,0,0,1,1.378-1.626,40.8,40.8,0,0,0,21.6-10.977c.716-.69,1.24-.713,1.959.009a37.968,37.968,0,0,0,21.648,11c.706.109,1.31.253,1.295,1.166-.095,5.778.009,11.568-.351,17.33-.164,2.636-1.2,5.226-1.917,7.815a1.568,1.568,0,0,0,.141,1.6c1.091,1.441,1.014,3.157.963,4.839a1.357,1.357,0,0,0,.911,1.508,4.091,4.091,0,0,1,2.449,3.835c.048,1.991.063,3.986,0,5.977a4.342,4.342,0,0,1-4.531,4.381c-3.438.022-6.877-.037-10.315.02A4.659,4.659,0,0,1,5313.571,238.35Zm-24.477-40.072c0,1.245-.029,2.375.006,3.5.1,3.392-.136,6.844.418,10.162,1.761,10.551,8.231,17.761,17.17,23.038a1.449,1.449,0,0,0,1.242-.075c1.494-.92,2.934-1.928,4.394-2.9a6.116,6.116,0,0,0,.985-.766l.065-1.037a1.012,1.012,0,0,1,.1-.378,4.508,4.508,0,0,1,1.943-1.85c1.524-.632,1.547-1.717,1.448-2.992a4.88,4.88,0,0,1,0-.585,5.936,5.936,0,0,1,5.469-5.855,1.475,1.475,0,0,0,1.041-.774,25.238,25.238,0,0,0,1.551-5.618c.339-4.35.358-8.727.437-13.094.005-.306-.522-.808-.886-.907a42.71,42.71,0,0,1-11.1-4.611c-2.155-1.31-4.213-2.778-6.351-4.2A47.526,47.526,0,0,1,5289.095,198.278Zm40.36-3.181a42.776,42.776,0,0,1-11.976-3.854,40.81,40.81,0,0,1-10.2-7.318,2.943,2.943,0,0,0-.371.234,42.725,42.725,0,0,1-21.016,10.7c-.743.147-.8.538-.8,1.144.015,4.1-.151,8.213.061,12.3a35.037,35.037,0,0,0,1.292,8.179c3.209,10.713,10.531,17.93,20.2,23.025a1.565,1.565,0,0,0,1.26-.038c1.448-.766,2.866-1.593,4.259-2.456a7.564,7.564,0,0,0,1.177-.83s-.009-2.534-.023-2.582c-1.573,1-3.175,1.966-4.721,3.014a2.048,2.048,0,0,1-2.659.022c-2.479-1.827-5.155-3.424-7.449-5.455-6.02-5.33-10-11.931-10.868-20.021-.451-4.216-.2-8.5-.327-12.759a1.638,1.638,0,0,1,1.5-1.926,44.471,44.471,0,0,0,15.87-7.531c.811-.6,1.657-1.643,2.463-1.62.869.024,1.731,1.031,2.559,1.659a42.453,42.453,0,0,0,16.07,7.616c.688.163,1.421.252,1.4,1.241-.084,4.411.018,8.835-.3,13.229a54.47,54.47,0,0,1-1.591,7.561l1.842.638C5330.5,211.433,5329.087,203.223,5329.455,195.1Zm-6.119,44.9c1.756,0,3.512.018,5.268,0,2.011-.026,2.952-.966,2.968-2.942q.022-2.634,0-5.268a2.588,2.588,0,0,0-2.878-2.91q-5.268-.028-10.537,0a2.562,2.562,0,0,0-2.84,2.822c-.025,1.795-.022,3.59,0,5.385.022,1.975.973,2.9,2.987,2.915C5319.98,240.013,5321.658,240,5323.336,240Zm4.859-12.984c.1-2.331.471-4.754-1.983-6.07a5.534,5.534,0,0,0-5.8.155c-2.237,1.439-1.781,3.738-1.708,5.914Z" transform="translate(-5283.278 -181.798)" fill="#474747"/>
  <path id="Path_19965" data-name="Path 19965" d="M5345.916,282.012a12.225,12.225,0,1,1,12.307-12.12A12.16,12.16,0,0,1,5345.916,282.012Zm10.53-12.177a10.564,10.564,0,1,0-10.539,10.465A10.552,10.552,0,0,0,5356.446,269.835Z" transform="translate(-5321.928 -239.799)" fill="#474747"/>
  <path id="Path_19966" data-name="Path 19966" d="M5447.87,398.172h-.007c-.952-.014-.863-.823-.854-1.484a2.763,2.763,0,0,0-.743-2.307,1.771,1.771,0,0,1,.292-2.6,2.021,2.021,0,0,1,1.311-.488h.007a2.019,2.019,0,0,1,1.311.488,1.771,1.771,0,0,1,.293,2.6,2.763,2.763,0,0,0-.743,2.307c.009.661.1,1.47-.854,1.484h-.015Z" transform="translate(-5407.708 -342.176)" fill="#474747"/>
  <g id="Group_26759" data-name="Group 26759" transform="translate(18.959 22.914)">
    <path id="Path_19967" data-name="Path 19967" d="M5373.074,280.654h-3.161a3.386,3.386,0,0,1,1.265,2.3h1.9a.564.564,0,0,1,.564.564h0a.564.564,0,0,1-.564.564H5371.2c-.226,2.3-2.054,3.77-4.943,3.86,1.527,1.586,3.173,3.529,4.82,5.533a.564.564,0,0,1-.436.923h-.71a.567.567,0,0,1-.435-.2c-1.655-1.993-3.227-3.858-5.207-5.975a.563.563,0,0,1-.153-.386v-.612a.564.564,0,0,1,.564-.564h.677c2.438,0,3.747-1.016,3.905-2.574H5364.7a.564.564,0,0,1-.564-.564h0a.564.564,0,0,1,.564-.564h4.515c-.316-1.309-1.512-1.964-3.477-1.964H5364.7a.564.564,0,0,1-.564-.564v-.339a.564.564,0,0,1,.564-.564h8.375a.564.564,0,0,1,.564.564h0A.564.564,0,0,1,5373.074,280.654Z" transform="translate(-5364.135 -279.525)" fill="#474747"/>
  </g>
</svg>
