<svg id="Group_26752" data-name="Group 26752" xmlns="http://www.w3.org/2000/svg" width="60" height="54.228" viewBox="0 0 60 54.228">
  <path id="Path_19946" data-name="Path 19946" d="M2417.423,265.093h1.31v-.749q0-14.692,0-29.384c0-1.809.808-2.62,2.608-2.621q4.066,0,8.132,0a2.251,2.251,0,0,1,2.5,2.493q0,14.692,0,29.384v.864h1.286v-.705q0-11.539,0-23.078c0-1.83.823-2.651,2.655-2.652q4.066,0,8.132,0a2.215,2.215,0,0,1,2.451,2.462q0,11.6,0,23.2v.779h1.31v-.867q0-17.025,0-34.05a8.693,8.693,0,0,1,.025-.881,2.144,2.144,0,0,1,2.144-1.99q4.445-.029,8.889,0a2.111,2.111,0,0,1,2.152,2.043c.059,1.132.038,2.269.015,3.4a.917.917,0,0,1-.941.973.929.929,0,0,1-.926-.99c-.026-.966-.026-1.934-.006-2.9.01-.491-.177-.656-.669-.653-2.669.018-5.338.025-8.006,0-.608-.007-.8.18-.8.786.021,3.846.011,7.693.011,11.539v23.6h9.455v-.817q0-13.525,0-27.051a5.026,5.026,0,0,1,.035-.817.921.921,0,0,1,1.823.014,5.389,5.389,0,0,1,.033.817q0,13.494,0,26.988v.864c.266.016.491.012.712.046a.938.938,0,0,1,.012,1.867,3.526,3.526,0,0,1-.566.013h-57.179c-.147,0-.295.007-.441,0a.943.943,0,1,1,.007-1.885c.167-.01.336,0,.5,0h11.4c.014-.265.036-.487.036-.709q0-6.463,0-12.926c0-.867,0-.867-.88-.867-2.585,0-5.17.019-7.754-.014-.631-.008-.837.173-.833.815.026,3.72.013,7.44.011,11.161a4.728,4.728,0,0,1-.026.692.925.925,0,0,1-1.837.017,4.18,4.18,0,0,1-.028-.629q0-5.643,0-11.286c0-1.84.815-2.648,2.652-2.648h8.006a2.266,2.266,0,0,1,2.58,2.594q.007,6.495,0,12.989Zm12.634.006c.01-.165.023-.267.023-.37q0-14.911.009-29.822c0-.527-.185-.689-.7-.685-2.647.019-5.3.009-7.943.009-.819,0-.82,0-.82.85q0,14.659,0,29.318v.7Zm14.521.012c.012-.159.027-.261.027-.362q0-11.79.01-23.58c0-.51-.189-.644-.669-.641-2.647.017-5.295.008-7.942.008-.851,0-.853,0-.854.83q0,11.538,0,23.076v.669Z" transform="translate(-2402.611 -212.795)" fill="#333"/>
  <path id="Path_19947" data-name="Path 19947" d="M2436.918,164.108a3.481,3.481,0,0,1-.158,4.219,3.433,3.433,0,0,1-4.431.811,3.47,3.47,0,0,1-1.489-4.26,3.424,3.424,0,0,1,3.976-2.107.828.828,0,0,0,.959-.295q4.706-5.3,9.45-10.573a.77.77,0,0,0,.18-.931,3.443,3.443,0,1,1,6.6-1.848,1.247,1.247,0,0,0,.818,1.029c2.355,1.1,4.7,2.239,7.041,3.363.206.1.415.191.61.28,1.893-1.589,3.066-1.631,5.256-.18l8.824-7.18a12.056,12.056,0,0,1-.285-1.836,3.386,3.386,0,0,1,2.457-3.227,3.463,3.463,0,0,1,3.733,5.424,3.357,3.357,0,0,1-3.883,1.144,1,1,0,0,0-1.163.223q-4.166,3.416-8.357,6.8a1.034,1.034,0,0,0-.451.942,3.428,3.428,0,0,1-3.338,3.6,3.473,3.473,0,0,1-3.566-3.465c0-.313-.015-.535-.359-.7-2.523-1.19-5.035-2.405-7.551-3.61a1.179,1.179,0,0,0-.214-.061,9.773,9.773,0,0,1-.788.757,3.419,3.419,0,0,1-3.385.553.756.756,0,0,0-.641.051q-4.915,5.454-9.792,10.943A.435.435,0,0,0,2436.918,164.108Zm11.722-15.937a1.573,1.573,0,0,0-.069,3.146,1.573,1.573,0,1,0,.069-3.146Zm14.54,9.452a1.574,1.574,0,1,0-.071-3.146,1.574,1.574,0,0,0,.071,3.146Zm16.088-12.938a1.564,1.564,0,1,0-1.537,1.587A1.564,1.564,0,0,0,2479.268,144.684ZM2435.641,166.1a1.563,1.563,0,1,0-1.511,1.611A1.565,1.565,0,0,0,2435.641,166.1Z" transform="translate(-2425.888 -141.235)" fill="#333"/>
</svg>
