<svg xmlns="http://www.w3.org/2000/svg" xmlns:xlink="http://www.w3.org/1999/xlink" width="146" height="144" viewBox="0 0 146 144">
  <defs>
    <clipPath id="clip-path">
      <rect id="Rectangle_4077" data-name="Rectangle 4077" width="130.909" height="130.909" fill="none"/>
    </clipPath>
  </defs>
  <g id="Group_28056" data-name="Group 28056" transform="translate(1)">
    <g id="Group_26983" data-name="Group 26983" transform="translate(-473.821 -2112.597)">
      <rect id="Rectangle_4093" data-name="Rectangle 4093" width="144" height="144" rx="27.121" transform="translate(474.321 2112.597)" fill="#fff"/>
      <g id="Group_26982" data-name="Group 26982" transform="translate(480.867 2119.157)">
        <g id="Group_26964" data-name="Group 26964">
          <g id="Group_26963" data-name="Group 26963" clip-path="url(#clip-path)">
            <g id="Group_26962" data-name="Group 26962" transform="translate(0 8.182)">
              <path id="Path_20108" data-name="Path 20108" d="M269.088,1141.523v-97.617a8.163,8.163,0,0,0-6.136-7.893v-4.38H258.86v4.38a8.163,8.163,0,0,0-6.136,7.893v13.408a8,8,0,0,0-2.045-.845v-4.34h-4.091v4.34a8.159,8.159,0,0,0-6.136,7.891v16.364H215.906V1064.36a8.16,8.16,0,0,0-6.137-7.891v-4.34h-4.091v4.34a8,8,0,0,0-2.045.845v-13.408a8.163,8.163,0,0,0-6.137-7.893v-4.38h-4.091v4.38a8.163,8.163,0,0,0-6.137,7.893v97.617H162.724v4.656H293.633v-4.656Zm-69.546,0h-8.182V1109.36h8.182Zm0-36.253h-8.182v-4.091h8.182Zm0-8.182h-8.182V1093h8.182Zm0-8.182h-8.182v-8.182h8.182Zm0-12.273h-8.182v-4.091h8.182Zm0-8.182h-8.182V1048h8.182Zm-8.182-24.545a4.091,4.091,0,1,1,8.182,0Zm50.261,40.909h3.506v4.091h-3.506Zm0,8.182h3.506v12.273h-3.506Zm-7.6-8.182h3.506v4.091h-3.506Zm0,8.182h3.506v12.273h-3.506Zm-7.6-8.182h3.506v4.091h-3.506Zm0,8.182h3.506v12.273h-3.506Zm-7.6-8.182h3.506v4.091h-3.506Zm0,8.182h3.506v12.273h-3.506Zm-4.091-8.182v4.091h-3.506v-4.091Zm0,8.182v12.273H211.23V1093Zm-7.012-32.727a4.091,4.091,0,0,1,4.091,4.091h-8.182A4.091,4.091,0,0,1,207.724,1060.269Zm-4.091,8.182h8.182v12.273h-8.182Zm0,16.364h3.506v4.091h-3.506Zm0,8.182h3.506v12.273h-3.506Zm36.818,48.526H215.906v-11.708c0-5.523,5.005-10.454,12.273-12.177,7.267,1.722,12.273,6.646,12.273,12.177Zm12.273,0h-8.182v-11.708c0-7.881-6.955-14.482-16.364-16.364-9.409,1.882-16.364,8.482-16.364,16.364v11.708h-8.182V1109.36h49.091Zm0-36.253h-3.506V1093h3.506Zm0-16.364h-3.506v-4.091h3.506Zm0-8.182h-8.182v-12.273h8.182Zm-8.182-16.364a4.091,4.091,0,0,1,8.182,0ZM265,1141.523h-8.182V1109.36H265Zm0-36.253h-8.182v-4.091H265Zm0-8.182h-8.182V1093H265Zm0-8.182h-8.182v-8.182H265Zm0-12.273h-8.182v-4.091H265Zm0-8.182h-8.182V1048H265Zm-8.182-24.545a4.091,4.091,0,1,1,8.182,0Z" transform="translate(-162.724 -1031.633)" fill="#333"/>
              <path id="Path_20109" data-name="Path 20109" d="M313.933,1306.931a2.045,2.045,0,1,0-2.045-2.046A2.045,2.045,0,0,0,313.933,1306.931Z" transform="translate(-266.888 -1221.022)" fill="#333"/>
              <path id="Path_20110" data-name="Path 20110" d="M435.976,1306.931a2.045,2.045,0,1,0-2.045-2.046A2.045,2.045,0,0,0,435.976,1306.931Z" transform="translate(-352.113 -1221.022)" fill="#333"/>
            </g>
          </g>
        </g>
      </g>
    </g>
    <line id="Line_91" data-name="Line 91" x2="144" transform="translate(0 138.5)" fill="none" stroke="#000" stroke-linecap="round" stroke-width="2"/>
  </g>
</svg>
