<svg xmlns="http://www.w3.org/2000/svg" width="146" height="144" viewBox="0 0 146 144">
  <g id="Group_28057" data-name="Group 28057" transform="translate(1)">
    <g id="Group_26985" data-name="Group 26985" transform="translate(-706 -2164.597)">
      <rect id="Rectangle_4094" data-name="Rectangle 4094" width="144" height="144" rx="27.121" transform="translate(706.5 2164.597)" fill="#fff"/>
      <g id="Group_26984" data-name="Group 26984" transform="translate(713.046 2171.143)">
        <rect id="Rectangle_4085" data-name="Rectangle 4085" width="130.909" height="130.909" fill="none"/>
        <g id="Group_26968" data-name="Group 26968" transform="translate(0 10.227)">
          <path id="Path_20116" data-name="Path 20116" d="M2071.326,1146.775v-14.318h0v-4.091h4.092v-4.091h-4.092v-20.454h4.092v-4.091h-4.092v-20.454h0a6.078,6.078,0,0,0-8.182-5.761v-.376h-4.091V1089.5h-4.091V1077.23a2.045,2.045,0,1,0-4.091,0V1089.5h-4.091v-16.364h16.364a4.091,4.091,0,0,0-4.091-4.091h-4.091v-4.091a2.045,2.045,0,1,0-4.091,0v4.091h-4.091v-8.182h0a8.163,8.163,0,0,0-6.136-7.893v-4.38a2.045,2.045,0,1,0-4.091,0v4.38a8.148,8.148,0,0,0-5,3.8h-5.226v-4.091h0a8.162,8.162,0,0,0-6.136-7.892v-4.38a2.045,2.045,0,1,0-4.091,0v4.38a8.162,8.162,0,0,0-6.137,7.892h0v4.091h-5.226a8.148,8.148,0,0,0-5-3.8v-4.38a2.046,2.046,0,0,0-4.091,0v4.38a8.163,8.163,0,0,0-6.136,7.893h0v8.182h-4.091v-4.091a2.045,2.045,0,1,0-4.091,0v4.091h-4.091a4.091,4.091,0,0,0-4.091,4.091h16.364V1089.5h-4.091V1077.23a2.045,2.045,0,1,0-4.091,0V1089.5h-4.091v-10.227h0v-6.136h-4.091v.376a6.077,6.077,0,0,0-8.181,5.761h0v20.454h-4.09v4.091h4.09v20.454h-4.09v4.091h4.09v12.272h0v2.046h0v4.091H1952.69v4.091H2083.6v-4.091Zm-8.182-42.955h0a2.045,2.045,0,0,1,4.09,0v18.787a5.752,5.752,0,0,0-4.091,0Zm0,24.545h0a2.045,2.045,0,0,1,4.09,0v10.229h-4.091Zm0-49.091h0a2.045,2.045,0,1,1,4.091,0h0v18.785a5.752,5.752,0,0,0-4.091,0v-4.467h0V1089.5h0Zm-12.272,14.318h8.181v45h-4.091v-12.272a2.045,2.045,0,0,0-4.091,0v12.272h-4.091v-20.454h0v-24.545h4.091Zm-65.455,32.727a2.045,2.045,0,0,0-4.091,0v12.272h-4.091v-10.227h0v-10.227h12.273v12.272h0v8.182h-4.091Zm-12.273-3.715a5.752,5.752,0,0,0-4.091,0v-18.785h0a2.045,2.045,0,0,1,4.09,0Zm-4.091,9.851v-4.091h0a2.045,2.045,0,0,1,4.09,0v10.229h-4.09v-6.136Zm32.728,6.136h-2.046v-6.136a2.046,2.046,0,0,0-4.091,0v6.136H1993.6v-8.182a4.091,4.091,0,0,1,8.182,0v0h0Zm0-15.229a7.942,7.942,0,0,0-8.182,0v-5.226h0v-12.273a4.091,4.091,0,0,1,8.182,0Zm4.091,7.047v-12.273h0v-36.818h0v-8.182h4.091v57.272h0v8.182h-4.091Zm16.363,8.182h-2.045v-6.136a2.045,2.045,0,0,0-4.091,0v6.136h-2.045v-8.182a4.091,4.091,0,0,1,8.182,0v0h0Zm-8.182-20.454v-12.273a4.091,4.091,0,0,1,8.182,0v17.5a7.942,7.942,0,0,0-8.182,0v-5.226Zm8.182-19.32a7.941,7.941,0,0,0-8.182,0v-5.226h0v-12.273a4.091,4.091,0,0,1,8.182,0Zm4.091,31.593v-12.273h0v-24.545h0v-20.455h4.091v57.272h0v8.182h-4.091Zm16.364,8.182h-2.045v-6.136a2.045,2.045,0,0,0-4.091,0v6.136h-2.046v-8.182a4.091,4.091,0,0,1,8.182,0v0h0Zm-8.182-20.454v-12.273a4.091,4.091,0,0,1,8.182,0v17.5a7.941,7.941,0,0,0-8.182,0v-5.226Zm8.182-19.32a7.94,7.94,0,0,0-8.182,0v-5.226h0v-12.273a4.091,4.091,0,0,1,8.182,0Zm-4.091-42.044a4.091,4.091,0,0,1,4.091,4.091h0v13.407a7.941,7.941,0,0,0-8.182,0v-1.135h0v-4.091h0v-8.182h0A4.091,4.091,0,0,1,2038.6,1056.775Zm-8.182,4.091v8.182h-4.091v-8.182Zm-16.363-8.182a4.091,4.091,0,1,1,8.182,0v8.182h0v13.407a7.941,7.941,0,0,0-8.182,0v-1.135h0v-4.091h0v-16.364Zm-4.091,8.182v8.182h-4.091v-8.182h4.091Zm-16.364,8.182v-8.182h0a4.091,4.091,0,0,1,8.182,0h0v13.407a7.941,7.941,0,0,0-8.182,0v-1.135h0v-4.091Zm0,12.273h0a4.091,4.091,0,0,1,8.182,0v17.5a7.941,7.941,0,0,0-8.182,0v-5.226h0V1089.5h0Zm-12.272,12.273h8.182v20.454h-4.091v-12.272a2.045,2.045,0,1,0-4.091,0v12.272h-4.091v-10.227h0v-10.227Zm-12.273-14.318a2.045,2.045,0,0,1,4.09,0v18.787a5.752,5.752,0,0,0-4.091,0v-18.785Zm0,63.409h98.182v4.091h-98.182Z" transform="translate(-1952.69 -1038.366)" fill="#333"/>
          <path id="Path_20117" data-name="Path 20117" d="M2164.92,1180.75a2.045,2.045,0,0,0-2.045,2.045v6.136a2.045,2.045,0,1,0,4.091,0V1182.8A2.045,2.045,0,0,0,2164.92,1180.75Z" transform="translate(-2099.466 -1137.795)" fill="#333"/>
          <path id="Path_20118" data-name="Path 20118" d="M2232.722,1180.75a2.045,2.045,0,0,0-2.045,2.045v6.136a2.045,2.045,0,1,0,4.091,0V1182.8A2.045,2.045,0,0,0,2232.722,1180.75Z" transform="translate(-2146.813 -1137.795)" fill="#333"/>
          <path id="Path_20119" data-name="Path 20119" d="M2097.118,1190.977a2.046,2.046,0,0,0,2.046-2.045V1182.8a2.046,2.046,0,0,0-4.091,0v6.136A2.046,2.046,0,0,0,2097.118,1190.977Z" transform="translate(-2052.119 -1137.795)" fill="#333"/>
          <path id="Path_20120" data-name="Path 20120" d="M2164.92,1109.615a2.045,2.045,0,0,0,2.045-2.045v-6.137a2.045,2.045,0,1,0-4.091,0v6.137A2.045,2.045,0,0,0,2164.92,1109.615Z" transform="translate(-2099.466 -1080.979)" fill="#333"/>
          <path id="Path_20121" data-name="Path 20121" d="M2232.722,1123.175a2.045,2.045,0,0,0,2.045-2.045v-6.136a2.045,2.045,0,1,0-4.091,0v6.136A2.045,2.045,0,0,0,2232.722,1123.175Z" transform="translate(-2146.813 -1090.448)" fill="#333"/>
          <path id="Path_20122" data-name="Path 20122" d="M2097.118,1123.175a2.046,2.046,0,0,0,2.046-2.045v-6.136a2.046,2.046,0,0,0-4.091,0v6.136A2.046,2.046,0,0,0,2097.118,1123.175Z" transform="translate(-2052.119 -1090.448)" fill="#333"/>
          <path id="Path_20123" data-name="Path 20123" d="M2164.92,1272.339a2.045,2.045,0,0,0,2.045-2.045v-6.136a2.045,2.045,0,1,0-4.091,0v6.136A2.045,2.045,0,0,0,2164.92,1272.339Z" transform="translate(-2099.466 -1194.612)" fill="#333"/>
          <path id="Path_20124" data-name="Path 20124" d="M2232.722,1272.339a2.045,2.045,0,0,0,2.045-2.045v-6.136a2.045,2.045,0,1,0-4.091,0v6.136A2.045,2.045,0,0,0,2232.722,1272.339Z" transform="translate(-2146.813 -1194.612)" fill="#333"/>
          <path id="Path_20125" data-name="Path 20125" d="M2097.118,1262.112a2.045,2.045,0,0,0-2.045,2.045v6.136a2.046,2.046,0,0,0,4.091,0v-6.136A2.046,2.046,0,0,0,2097.118,1262.112Z" transform="translate(-2052.119 -1194.612)" fill="#333"/>
          <path id="Path_20126" data-name="Path 20126" d="M2282.229,1243.817a2.046,2.046,0,0,0-4.091,0v16.364h4.091Z" transform="translate(-2179.956 -1180.408)" fill="#333"/>
        </g>
      </g>
    </g>
    <line id="Line_92" data-name="Line 92" x2="144" transform="translate(0 138.5)" fill="none" stroke="#000" stroke-linecap="round" stroke-width="2"/>
  </g>
</svg>
