<svg xmlns="http://www.w3.org/2000/svg" width="20" height="19.997" viewBox="0 0 20 19.997">
  <g id="Group_26925" data-name="Group 26925" transform="translate(-441.581 -40.764)">
    <path id="Path_19938" data-name="Path 19938" d="M451.921,60.761a10.191,10.191,0,0,1-10.278-8.8,10.062,10.062,0,0,1,8.034-11.011,12.981,12.981,0,0,1,1.784-.18.763.763,0,0,1,.877.734c.009.443-.32.739-.853.763A8.305,8.305,0,0,0,443.99,47,8.484,8.484,0,1,0,460,51.908c.046-.321.061-.648.077-.973.031-.6.3-.94.768-.931s.761.372.736.956a9.857,9.857,0,0,1-4.9,8.39A9.3,9.3,0,0,1,451.921,60.761Z" transform="translate(0)" fill="#fff"/>
    <path id="Path_19939" data-name="Path 19939" d="M507.052,82.158c.1-.147,5.922-6.022,8.75-8.842a3.126,3.126,0,0,1,.313-.293.731.731,0,0,1,.992.069.754.754,0,0,1,.065.966,2.433,2.433,0,0,1-.264.286l-9.2,9.178c-.577.575-.924.571-1.466-.017q-1.733-1.879-3.462-3.763a1.322,1.322,0,0,1-.316-.481.688.688,0,0,1,.335-.837.7.7,0,0,1,.926.13c.469.487.921.991,1.379,1.488Z" transform="translate(-56.092 -29.59)" fill="#fff"/>
  </g>
</svg>
