<svg xmlns="http://www.w3.org/2000/svg" width="146.092" height="73.285" viewBox="0 0 146.092 73.285">
  <path id="Polygon_15" data-name="Polygon 15" d="M80.731,3.344a2.039,2.039,0,0,1,3.58.872l1.38,6.687a2.039,2.039,0,0,0,3.086,1.311l9.579-6.06a2.039,2.039,0,0,1,3.007,2.417l-1.441,3.981a2.039,2.039,0,0,0,2.6,2.616l9.92-3.512a2.039,2.039,0,0,1,2.126,3.36l-1.506,1.514a2.039,2.039,0,0,0,1.787,3.447l7.481-1.274a2.039,2.039,0,0,1,1.313,3.8l-.46.249a2.039,2.039,0,0,0,1.01,3.831l3.976-.078a2.039,2.039,0,0,1,.623,3.992h0a2.039,2.039,0,0,0,.325,3.975l1.152.147a2.039,2.039,0,0,1,0,4.044l-1.152.147a2.039,2.039,0,0,0-.325,3.975h0a2.039,2.039,0,0,1-.623,3.992l-3.976-.078a2.039,2.039,0,0,0-1.01,3.831l.46.249a2.039,2.039,0,0,1-1.313,3.8l-7.481-1.274a2.039,2.039,0,0,0-1.787,3.447l1.506,1.514a2.039,2.039,0,0,1-2.126,3.36l-9.92-3.512a2.039,2.039,0,0,0-2.6,2.616l1.441,3.981a2.039,2.039,0,0,1-3.007,2.417l-9.579-6.06a2.039,2.039,0,0,0-3.086,1.311l-1.38,6.687a2.039,2.039,0,0,1-3.58.872l-6.1-7.527a2.039,2.039,0,0,0-3.167,0l-6.1,7.527a2.039,2.039,0,0,1-3.58-.872L60.4,62.382a2.039,2.039,0,0,0-3.086-1.311l-9.579,6.06a2.039,2.039,0,0,1-3.007-2.417l1.441-3.981a2.039,2.039,0,0,0-2.6-2.616l-9.92,3.512a2.039,2.039,0,0,1-2.126-3.36l1.506-1.514a2.039,2.039,0,0,0-1.787-3.447l-7.481,1.274a2.039,2.039,0,0,1-1.313-3.8l.46-.249A2.039,2.039,0,0,0,21.9,46.7l-3.976.078a2.039,2.039,0,0,1-.623-3.992h0a2.039,2.039,0,0,0-.325-3.975l-1.152-.147a2.039,2.039,0,0,1,0-4.044l1.152-.147A2.039,2.039,0,0,0,17.3,30.5h0a2.039,2.039,0,0,1,.623-3.992l3.976.078a2.039,2.039,0,0,0,1.01-3.831l-.46-.249a2.039,2.039,0,0,1,1.313-3.8l7.481,1.274a2.039,2.039,0,0,0,1.787-3.447l-1.506-1.514a2.039,2.039,0,0,1,2.126-3.36l9.92,3.512a2.039,2.039,0,0,0,2.6-2.616L44.729,8.57a2.039,2.039,0,0,1,3.007-2.417l9.579,6.06A2.039,2.039,0,0,0,60.4,10.9l1.38-6.687a2.039,2.039,0,0,1,3.58-.872l6.1,7.527a2.039,2.039,0,0,0,3.167,0Z" fill="#fff"/>
</svg>
