<svg width="26" height="29" viewBox="0 0 26 29" fill="none" xmlns="http://www.w3.org/2000/svg">
<path d="M10.9803 1.65549L11.3387 1.2785L11.7012 1.65154L23.9679 14.274L24.3066 14.6225L23.9679 14.971L11.7012 27.5935L11.3387 27.9666L10.9803 27.5895L9.44262 25.9721L9.11149 25.6238L9.44643 25.2791L19.8028 14.6225L9.44643 3.96583L9.11148 3.62117L9.44263 3.27285L10.9803 1.65549ZM3.32639 1.65549L3.6848 1.2785L4.04733 1.65154L16.314 14.274L16.6527 14.6225L16.314 14.971L4.04733 27.5935L3.68479 27.9666L3.32637 27.5895L1.7887 25.9721L1.45757 25.6238L1.79252 25.2791L12.1489 14.6225L1.79252 3.96583L1.45757 3.62117L1.78872 3.27285L3.32639 1.65549Z" fill="#E9E9E9" stroke="#E1E1E1"/>
</svg>
