<svg width="25" height="29" viewBox="0 0 25 29" fill="none" xmlns="http://www.w3.org/2000/svg">
<path d="M14.6525 1.65549L14.2941 1.2785L13.9316 1.65154L1.66487 14.274L1.32623 14.6225L1.66487 14.971L13.9316 27.5935L14.2941 27.9666L14.6525 27.5895L16.1902 25.9721L16.5213 25.6238L16.1864 25.2791L5.83005 14.6225L16.1864 3.96583L16.5213 3.62117L16.1902 3.27285L14.6525 1.65549ZM22.3064 1.65549L21.948 1.2785L21.5855 1.65154L9.31878 14.274L8.98014 14.6225L9.31878 14.971L21.5855 27.5935L21.948 27.9666L22.3064 27.5895L23.8441 25.9721L24.1752 25.6238L23.8403 25.2791L13.4839 14.6225L23.8403 3.96583L24.1752 3.62117L23.8441 3.27285L22.3064 1.65549Z" fill="#E9E9E9" stroke="#E1E1E1"/>
</svg>
