<svg width="67" height="70" viewBox="0 0 67 70" fill="none" xmlns="http://www.w3.org/2000/svg">
<path d="M24.6816 13.2221C25.4114 13.2221 26.0038 12.6297 26.0038 11.8999V1.32221C26.0038 0.592349 25.4114 0 24.6816 0C23.9504 0 23.3594 0.592349 23.3594 1.32221V11.8999C23.3594 12.6297 23.9504 13.2221 24.6816 13.2221Z" fill="url(#paint0_linear_976_2843)"/>
<path d="M1.76752 58.1757H24.6867C25.4165 58.1757 26.0089 57.5833 26.0089 56.8535C26.0089 56.1236 25.4165 55.5312 24.6867 55.5312H1.76752C1.03634 55.5312 0.445312 56.1236 0.445312 56.8535C0.445312 57.5833 1.03634 58.1757 1.76752 58.1757Z" fill="url(#paint1_linear_976_2843)"/>
<path d="M7.48425 47.5975H23.8176C24.7836 47.5975 25.5675 47.0052 25.5675 46.2753C25.5675 45.5455 24.7836 44.9531 23.8176 44.9531H7.48425C6.51657 44.9531 5.73438 45.5455 5.73438 46.2753C5.73438 47.0052 6.51657 47.5975 7.48425 47.5975Z" fill="url(#paint2_linear_976_2843)"/>
<path d="M25.3292 16.5419C26.0591 16.5419 26.6462 15.9496 26.6462 15.2197C26.6462 14.4899 26.0512 13.8975 25.3213 13.8975C22.78 13.8975 20.7147 11.8309 20.7147 9.29096C20.7147 8.5611 20.1224 7.96875 19.3925 7.96875C18.6613 7.96875 18.0703 8.5611 18.0703 9.29096C18.0703 13.288 21.3229 16.5419 25.3292 16.5419Z" fill="url(#paint3_linear_976_2843)"/>
<path d="M19.3925 5.29285H24.6814C25.4112 5.29285 26.0036 4.70051 26.0036 3.97065C26.0036 3.24079 25.4112 2.64844 24.6814 2.64844H19.3925C18.6613 2.64844 18.0703 3.24079 18.0703 3.97065C18.0703 4.70051 18.6613 5.29285 19.3925 5.29285Z" fill="url(#paint4_linear_976_2843)"/>
<path d="M65.2363 66.1089C65.9675 66.1089 66.5585 65.5166 66.5585 64.7867V56.8535C66.5585 56.1236 65.9675 55.5312 65.2363 55.5312C64.5051 55.5312 63.9141 56.1236 63.9141 56.8535V64.7867C63.9141 65.5166 64.5051 66.1089 65.2363 66.1089Z" fill="url(#paint5_linear_976_2843)"/>
<path d="M24.6816 58.1745C25.4114 58.1745 26.0038 57.5822 26.0038 56.8523V30.4081C26.0038 29.6783 25.4114 29.0859 24.6816 29.0859C23.9504 29.0859 23.3594 29.6783 23.3594 30.4081V56.8523C23.3594 57.5822 23.9504 58.1745 24.6816 58.1745Z" fill="url(#paint6_linear_976_2843)"/>
<path d="M7.05658 58.1752C7.78776 58.1752 8.37879 57.5829 8.37879 56.853V46.2753C8.37879 45.5455 7.78776 44.9531 7.05658 44.9531C6.3254 44.9531 5.73438 45.5455 5.73438 46.2753V56.853C5.73438 57.5829 6.3254 58.1752 7.05658 58.1752Z" fill="url(#paint7_linear_976_2843)"/>
<path d="M59.9472 58.175C60.6784 58.175 61.2694 57.5826 61.2694 56.8528V40.9863C61.2694 40.2564 60.6784 39.6641 59.9472 39.6641C59.216 39.6641 58.625 40.2564 58.625 40.9863V56.8528C58.625 57.5826 59.216 58.175 59.9472 58.175Z" fill="url(#paint8_linear_976_2843)"/>
<path d="M1.76752 66.1089C2.4987 66.1089 3.08973 65.5166 3.08973 64.7867V56.8535C3.08973 56.1236 2.4987 55.5312 1.76752 55.5312C1.03634 55.5312 0.445312 56.1236 0.445312 56.8535V64.7867C0.445312 65.5166 1.03634 66.1089 1.76752 66.1089Z" fill="url(#paint9_linear_976_2843)"/>
<path d="M42.3222 17.1049C43.0521 17.1049 43.6444 16.5125 43.6444 15.7827V5.20502C43.6444 4.47516 43.0521 3.88281 42.3222 3.88281C41.5923 3.88281 41 4.47516 41 5.20502V15.7827C41 16.5125 41.5923 17.1049 42.3222 17.1049Z" fill="url(#paint10_linear_976_2843)"/>
<path d="M1.76752 69.996H65.2335C65.9647 69.996 66.5557 69.4036 66.5557 68.6738C66.5557 67.9439 65.9647 67.3516 65.2335 67.3516H1.76752C1.03634 67.3516 0.445312 67.9439 0.445312 68.6738C0.445312 69.4036 1.03634 69.996 1.76752 69.996Z" fill="url(#paint11_linear_976_2843)"/>
<path d="M22.7578 60.7363C22.7578 61.4661 23.4408 62.0585 24.2857 62.0585H65.0281C65.873 62.0585 66.556 61.4661 66.556 60.7363C66.556 60.0064 65.873 59.4141 65.0281 59.4141H24.2857C23.4408 59.4141 22.7578 60.0064 22.7578 60.7363Z" fill="url(#paint12_linear_976_2843)"/>
<path d="M43.6328 34.291C43.6328 33.5611 43.0404 32.9688 42.3106 32.9688H24.6816C23.9504 32.9688 23.3594 33.5611 23.3594 34.291C23.3594 35.0208 23.9504 35.6132 24.6816 35.6132H42.3106C43.0404 35.6132 43.6328 35.0208 43.6328 34.291Z" fill="url(#paint13_linear_976_2843)"/>
<path d="M41.7656 44.8691C41.7656 45.5989 42.5366 46.1913 43.4865 46.1913H59.5473C60.499 46.1913 61.2682 45.5989 61.2682 44.8691C61.2682 44.1392 60.499 43.5469 59.5473 43.5469H43.4865C42.5366 43.5469 41.7656 44.1392 41.7656 44.8691Z" fill="url(#paint14_linear_976_2843)"/>
<path d="M42.3222 9.17567H47.611C48.3409 9.17567 48.9332 8.58332 48.9332 7.85346C48.9332 7.1236 48.3409 6.53125 47.611 6.53125H42.3222C41.5923 6.53125 41 7.1236 41 7.85346C41 8.58332 41.5923 9.17567 42.3222 9.17567Z" fill="url(#paint15_linear_976_2843)"/>
<path d="M33.4941 30.3248C34.2253 30.3248 34.8163 29.7324 34.8163 29.0026V24.5956C34.8163 23.8658 34.2253 23.2734 33.4941 23.2734C32.7629 23.2734 32.1719 23.8658 32.1719 24.5956V29.0026C32.1719 29.7324 32.7629 30.3248 33.4941 30.3248Z" fill="url(#paint16_linear_976_2843)"/>
<path d="M41.6633 20.4286H41.6739C45.6683 20.4286 48.9196 17.1813 48.9262 13.1776C48.9262 12.4478 48.3352 11.8594 47.6053 11.8594H47.604C46.8741 11.8594 46.2831 12.4544 46.2818 13.1829C46.2778 15.7215 44.2125 17.7842 41.6739 17.7842C41.6712 17.7842 41.6673 17.7855 41.666 17.7842C40.9361 17.7842 40.3451 18.3752 40.3438 19.1051C40.3424 19.8349 40.9335 20.4273 41.6633 20.4286Z" fill="url(#paint17_linear_976_2843)"/>
<path d="M42.3222 32.9688C41.5923 32.9688 41 33.5611 41 34.291V60.7351C41 61.465 41.5923 62.0573 42.3222 62.0573C43.0521 62.0573 43.6444 61.465 43.6444 60.7351V34.291C43.6444 33.5611 43.0521 32.9688 42.3222 32.9688Z" fill="url(#paint18_linear_976_2843)"/>
<path d="M24.6816 6.52723H42.3106C43.0404 6.52723 43.6328 5.93488 43.6328 5.20502C43.6328 4.47516 43.0404 3.88281 42.3106 3.88281H24.6816C23.9504 3.88281 23.3594 4.47516 23.3594 5.20502C23.3594 5.93488 23.9504 6.52723 24.6816 6.52723Z" fill="url(#paint19_linear_976_2843)"/>
<path d="M38.7827 27.6875H28.205C27.4738 27.6875 26.8828 28.2798 26.8828 29.0097C26.8828 29.7396 27.4738 30.3319 28.205 30.3319H38.7827C39.5139 30.3319 40.1049 29.7396 40.1049 29.0097C40.1049 28.2798 39.5139 27.6875 38.7827 27.6875Z" fill="url(#paint20_linear_976_2843)"/>
<path d="M33.4954 25.9205C39.0857 25.9205 43.6328 21.3734 43.6328 15.7831C43.6328 15.0533 43.0404 14.4609 42.3106 14.4609C41.5807 14.4609 40.9884 15.0533 40.9884 15.7831C40.9884 19.915 37.6273 23.2761 33.4954 23.2761C29.3635 23.2761 26.0038 19.915 26.0038 15.7831C26.0038 15.0533 25.4114 14.4609 24.6816 14.4609C23.9504 14.4609 23.3594 15.0533 23.3594 15.7831C23.3594 21.3734 27.9051 25.9205 33.4954 25.9205Z" fill="url(#paint21_linear_976_2843)"/>
<path d="M47.6113 14.4976C48.3411 14.4976 48.9335 13.9052 48.9335 13.1753V7.85346C48.9335 7.1236 48.3411 6.53125 47.6113 6.53125C46.8814 6.53125 46.2891 7.1236 46.2891 7.85346V13.1753C46.2891 13.9065 46.8814 14.4976 47.6113 14.4976Z" fill="url(#paint22_linear_976_2843)"/>
<path d="M19.3925 10.6147C20.1224 10.6147 20.7147 10.0224 20.7147 9.29253V3.97065C20.7147 3.24079 20.1224 2.64844 19.3925 2.64844C18.6613 2.64844 18.0703 3.24079 18.0703 3.97065V9.29253C18.0703 10.0237 18.6613 10.6147 19.3925 10.6147Z" fill="url(#paint23_linear_976_2843)"/>
<defs>
<linearGradient id="paint0_linear_976_2843" x1="24.6816" y1="-0.29603" x2="24.6816" y2="13.2682" gradientUnits="userSpaceOnUse">
<stop stop-color="#00EFD1"/>
<stop offset="1" stop-color="#00ACEA"/>
</linearGradient>
<linearGradient id="paint1_linear_976_2843" x1="13.227" y1="55.472" x2="13.227" y2="58.1849" gradientUnits="userSpaceOnUse">
<stop stop-color="#00EFD1"/>
<stop offset="1" stop-color="#00ACEA"/>
</linearGradient>
<linearGradient id="paint2_linear_976_2843" x1="15.6509" y1="44.8939" x2="15.6509" y2="47.6068" gradientUnits="userSpaceOnUse">
<stop stop-color="#00EFD1"/>
<stop offset="1" stop-color="#00ACEA"/>
</linearGradient>
<linearGradient id="paint3_linear_976_2843" x1="22.3582" y1="7.7768" x2="22.3582" y2="16.5719" gradientUnits="userSpaceOnUse">
<stop stop-color="#00EFD1"/>
<stop offset="1" stop-color="#00ACEA"/>
</linearGradient>
<linearGradient id="paint4_linear_976_2843" x1="22.0369" y1="2.58923" x2="22.0369" y2="5.30208" gradientUnits="userSpaceOnUse">
<stop stop-color="#00EFD1"/>
<stop offset="1" stop-color="#00ACEA"/>
</linearGradient>
<linearGradient id="paint5_linear_976_2843" x1="65.2363" y1="55.2944" x2="65.2363" y2="66.1458" gradientUnits="userSpaceOnUse">
<stop stop-color="#00EFD1"/>
<stop offset="1" stop-color="#00ACEA"/>
</linearGradient>
<linearGradient id="paint6_linear_976_2843" x1="24.6816" y1="28.4347" x2="24.6816" y2="58.276" gradientUnits="userSpaceOnUse">
<stop stop-color="#00EFD1"/>
<stop offset="1" stop-color="#00ACEA"/>
</linearGradient>
<linearGradient id="paint7_linear_976_2843" x1="7.05658" y1="44.6571" x2="7.05658" y2="58.2213" gradientUnits="userSpaceOnUse">
<stop stop-color="#00EFD1"/>
<stop offset="1" stop-color="#00ACEA"/>
</linearGradient>
<linearGradient id="paint8_linear_976_2843" x1="59.9472" y1="39.2496" x2="59.9472" y2="58.2395" gradientUnits="userSpaceOnUse">
<stop stop-color="#00EFD1"/>
<stop offset="1" stop-color="#00ACEA"/>
</linearGradient>
<linearGradient id="paint9_linear_976_2843" x1="1.76752" y1="55.2944" x2="1.76752" y2="66.1458" gradientUnits="userSpaceOnUse">
<stop stop-color="#00EFD1"/>
<stop offset="1" stop-color="#00ACEA"/>
</linearGradient>
<linearGradient id="paint10_linear_976_2843" x1="42.3222" y1="3.58678" x2="42.3222" y2="17.151" gradientUnits="userSpaceOnUse">
<stop stop-color="#00EFD1"/>
<stop offset="1" stop-color="#00ACEA"/>
</linearGradient>
<linearGradient id="paint11_linear_976_2843" x1="33.5004" y1="67.2924" x2="33.5004" y2="70.0052" gradientUnits="userSpaceOnUse">
<stop stop-color="#00EFD1"/>
<stop offset="1" stop-color="#00ACEA"/>
</linearGradient>
<linearGradient id="paint12_linear_976_2843" x1="44.6568" y1="59.3549" x2="44.6568" y2="62.0677" gradientUnits="userSpaceOnUse">
<stop stop-color="#00EFD1"/>
<stop offset="1" stop-color="#00ACEA"/>
</linearGradient>
<linearGradient id="paint13_linear_976_2843" x1="33.496" y1="32.9095" x2="33.496" y2="35.6224" gradientUnits="userSpaceOnUse">
<stop stop-color="#00EFD1"/>
<stop offset="1" stop-color="#00ACEA"/>
</linearGradient>
<linearGradient id="paint14_linear_976_2843" x1="51.5169" y1="43.4877" x2="51.5169" y2="46.2005" gradientUnits="userSpaceOnUse">
<stop stop-color="#00EFD1"/>
<stop offset="1" stop-color="#00ACEA"/>
</linearGradient>
<linearGradient id="paint15_linear_976_2843" x1="44.9666" y1="6.47204" x2="44.9666" y2="9.18489" gradientUnits="userSpaceOnUse">
<stop stop-color="#00EFD1"/>
<stop offset="1" stop-color="#00ACEA"/>
</linearGradient>
<linearGradient id="paint16_linear_976_2843" x1="33.4941" y1="23.1156" x2="33.4941" y2="30.3494" gradientUnits="userSpaceOnUse">
<stop stop-color="#00EFD1"/>
<stop offset="1" stop-color="#00ACEA"/>
</linearGradient>
<linearGradient id="paint17_linear_976_2843" x1="44.635" y1="11.6675" x2="44.635" y2="20.4585" gradientUnits="userSpaceOnUse">
<stop stop-color="#00EFD1"/>
<stop offset="1" stop-color="#00ACEA"/>
</linearGradient>
<linearGradient id="paint18_linear_976_2843" x1="42.3222" y1="32.3175" x2="42.3222" y2="62.1588" gradientUnits="userSpaceOnUse">
<stop stop-color="#00EFD1"/>
<stop offset="1" stop-color="#00ACEA"/>
</linearGradient>
<linearGradient id="paint19_linear_976_2843" x1="33.496" y1="3.82361" x2="33.496" y2="6.53645" gradientUnits="userSpaceOnUse">
<stop stop-color="#00EFD1"/>
<stop offset="1" stop-color="#00ACEA"/>
</linearGradient>
<linearGradient id="paint20_linear_976_2843" x1="33.4938" y1="27.6283" x2="33.4938" y2="30.3411" gradientUnits="userSpaceOnUse">
<stop stop-color="#00EFD1"/>
<stop offset="1" stop-color="#00ACEA"/>
</linearGradient>
<linearGradient id="paint21_linear_976_2843" x1="33.496" y1="14.2044" x2="33.496" y2="25.9605" gradientUnits="userSpaceOnUse">
<stop stop-color="#00EFD1"/>
<stop offset="1" stop-color="#00ACEA"/>
</linearGradient>
<linearGradient id="paint22_linear_976_2843" x1="47.6113" y1="6.35289" x2="47.6113" y2="14.5253" gradientUnits="userSpaceOnUse">
<stop stop-color="#00EFD1"/>
<stop offset="1" stop-color="#00ACEA"/>
</linearGradient>
<linearGradient id="paint23_linear_976_2843" x1="19.3925" y1="2.47008" x2="19.3925" y2="10.6425" gradientUnits="userSpaceOnUse">
<stop stop-color="#00EFD1"/>
<stop offset="1" stop-color="#00ACEA"/>
</linearGradient>
</defs>
</svg>
