<svg width="69" height="72" viewBox="0 0 69 72" fill="none" xmlns="http://www.w3.org/2000/svg">
<path d="M22.5474 3.98681C22.4155 3.79159 22.2383 3.63227 22.0314 3.52286C21.8246 3.41346 21.5943 3.35733 21.361 3.35943C21.1277 3.36153 20.8985 3.42179 20.6936 3.5349C20.4886 3.64801 20.3143 3.8105 20.1858 4.00806L9.13341 21.0093C8.99199 21.2269 8.91127 21.4792 8.89985 21.7395C8.88842 21.9998 8.9467 22.2584 9.0685 22.4879C9.1903 22.7173 9.37108 22.909 9.59165 23.0426C9.81222 23.1763 10.0643 23.2468 10.3213 23.2468H32.8582C33.1173 23.2468 33.3714 23.175 33.5932 23.0393C33.815 22.9036 33.9961 22.709 34.1168 22.4765C34.2376 22.2441 34.2936 21.9826 34.2786 21.7203C34.2636 21.458 34.1783 21.2048 34.0319 20.988L22.5474 3.98681ZM33.5691 22.1838C33.502 22.316 33.4 22.4266 33.2744 22.5034C33.1489 22.5803 33.0048 22.6202 32.8582 22.6188H10.3213C10.1761 22.6188 10.0338 22.579 9.90919 22.5035C9.78463 22.428 9.68253 22.3197 9.61375 22.1901C9.54497 22.0605 9.51207 21.9145 9.51853 21.7674C9.525 21.6204 9.57059 21.4779 9.65048 21.355L20.7028 4.35384C20.7753 4.24226 20.8738 4.15049 20.9896 4.0866C21.1053 4.02272 21.2348 3.98868 21.3665 3.98749C21.4983 3.9863 21.6283 4.018 21.7452 4.07978C21.862 4.14157 21.9621 4.23155 22.0366 4.3418L33.5211 21.343C33.6051 21.4649 33.6541 21.608 33.6625 21.7565C33.671 21.9049 33.6387 22.0528 33.5691 22.1837V22.1838Z" fill="url(#paint0_linear_976_2824)" stroke="url(#paint1_linear_976_2824)" stroke-width="2"/>
<path d="M66.4609 9.28675L59.881 8.31857C59.7476 8.29903 59.621 8.24691 59.5119 8.16668C59.4028 8.08645 59.3146 7.98052 59.2549 7.85803L56.3123 1.81909C56.1923 1.57317 56.0069 1.36616 55.7771 1.22143C55.5472 1.07669 55.2821 1 55.0115 1C54.741 1 54.4758 1.07669 54.246 1.22143C54.0162 1.36616 53.8308 1.57317 53.7108 1.81909L50.7681 7.85782C50.7083 7.98031 50.6201 8.08623 50.5111 8.16646C50.402 8.24669 50.2753 8.29882 50.142 8.31836L43.5622 9.28675C43.2944 9.3259 43.0429 9.44029 42.8359 9.61698C42.629 9.79367 42.475 10.0256 42.3913 10.2865C42.3077 10.5474 42.2977 10.8268 42.3626 11.0932C42.4274 11.3595 42.5645 11.6021 42.7583 11.7936L47.5196 16.4943C47.6161 16.5894 47.6883 16.7069 47.7299 16.8367C47.7715 16.9664 47.7814 17.1045 47.7586 17.239L46.6344 23.8762C46.5889 24.1467 46.6189 24.4247 46.721 24.6788C46.8231 24.9329 46.9932 25.153 47.2122 25.3142C47.4311 25.4754 47.6901 25.5712 47.96 25.5909C48.2298 25.6106 48.4997 25.5534 48.7391 25.4257L54.6245 22.292C54.7439 22.2285 54.8767 22.1953 55.0115 22.1953C55.1463 22.1953 55.2791 22.2285 55.3985 22.292L61.2838 25.4257C61.5233 25.5534 61.7931 25.6106 62.063 25.5909C62.3328 25.5712 62.5918 25.4754 62.8108 25.3142C63.0297 25.153 63.1998 24.9329 63.3019 24.6788C63.404 24.4247 63.434 24.1467 63.3885 23.8762L62.2646 17.239C62.2418 17.1045 62.2517 16.9664 62.2933 16.8367C62.335 16.7069 62.4072 16.5894 62.5036 16.4943L67.2649 11.7938C67.4587 11.6024 67.5957 11.3597 67.6606 11.0934C67.7254 10.827 67.7155 10.5476 67.6318 10.2867C67.5481 10.0258 67.3941 9.79388 67.1872 9.61719C66.9803 9.4405 66.7286 9.3259 66.4609 9.28675ZM66.8329 11.3437L62.0716 16.0442C61.9031 16.2104 61.7771 16.4157 61.7044 16.6424C61.6317 16.8691 61.6145 17.1104 61.6543 17.3453L62.7783 23.9825C62.8042 24.1375 62.7869 24.2968 62.7283 24.4424C62.6697 24.5879 62.5721 24.714 62.4466 24.8063C62.3211 24.8985 62.1727 24.9534 62.018 24.9646C61.8634 24.9758 61.7088 24.9429 61.5716 24.8696L55.6864 21.736C55.4782 21.6251 55.2466 21.5672 55.0115 21.5672C54.7764 21.5672 54.5448 21.6251 54.3366 21.736L48.4513 24.8696C48.3142 24.9429 48.1595 24.9758 48.0049 24.9646C47.8503 24.9534 47.7018 24.8985 47.5763 24.8063C47.4508 24.714 47.3532 24.5879 47.2946 24.4424C47.236 24.2968 47.2187 24.1375 47.2447 23.9825L48.3687 17.3453C48.4085 17.1104 48.3913 16.8691 48.3186 16.6424C48.2459 16.4157 48.1198 16.2104 47.9514 16.0442L43.19 11.3437C43.079 11.2341 43.0005 11.0951 42.9634 10.9426C42.9262 10.79 42.932 10.6299 42.98 10.4805C43.028 10.3311 43.1162 10.1982 43.2348 10.0971C43.3534 9.99597 43.4976 9.93055 43.651 9.90827L50.2309 8.94009C50.4636 8.90592 50.6846 8.8149 50.8748 8.67486C51.0651 8.53483 51.219 8.34998 51.3232 8.13623L54.2658 2.09751C54.3346 1.95657 54.4409 1.83795 54.5727 1.75502C54.7045 1.67209 54.8565 1.62815 55.0115 1.62815C55.1666 1.62815 55.3186 1.67209 55.4503 1.75502C55.5821 1.83795 55.6884 1.95657 55.7573 2.09751L58.6999 8.13618C58.8041 8.34993 58.9579 8.53477 59.1482 8.67481C59.3385 8.81484 59.5595 8.90587 59.7921 8.94003L66.3721 9.90822C66.5255 9.9305 66.6696 9.99592 66.7882 10.0971C66.9068 10.1982 66.9951 10.331 67.0431 10.4804C67.0911 10.6299 67.0968 10.7899 67.0597 10.9425C67.0226 11.0951 66.9439 11.2341 66.8329 11.3437Z" fill="url(#paint2_linear_976_2824)" stroke="url(#paint3_linear_976_2824)" stroke-width="2"/>
<path d="M32.851 39.3205C32.8505 38.8872 32.6805 38.4719 32.3785 38.1655C32.0764 37.8591 31.6669 37.6868 31.2398 37.6863L11.9332 37.6863C11.5059 37.6863 11.0961 37.8584 10.7939 38.1649C10.4918 38.4714 10.322 38.887 10.322 39.3205L10.322 58.9028C10.3225 59.3361 10.4924 59.7515 10.7945 60.0578C11.0965 60.3642 11.5061 60.5365 11.9333 60.537L31.2398 60.537C31.6671 60.537 32.0769 60.3649 32.3791 60.0584C32.6812 59.7519 32.851 59.3363 32.851 58.9029L32.851 39.3205ZM31.2399 59.7827L11.9334 59.7827C11.7034 59.7825 11.4828 59.6897 11.3201 59.5247C11.1575 59.3597 11.066 59.136 11.0658 58.9027L11.0658 39.3203C11.0658 39.2048 11.0882 39.0903 11.1318 38.9835C11.1754 38.8768 11.2393 38.7798 11.3199 38.698C11.4004 38.6163 11.4961 38.5515 11.6014 38.5073C11.7066 38.4631 11.8194 38.4403 11.9334 38.4403L31.2399 38.4403C31.47 38.4406 31.6905 38.5333 31.8532 38.6983C32.0158 38.8633 32.1073 39.087 32.1075 39.3203L32.1075 58.9027C32.1075 59.0182 32.0851 59.1327 32.0415 59.2394C31.9979 59.3462 31.934 59.4432 31.8534 59.5249C31.7729 59.6067 31.6772 59.6715 31.572 59.7157C31.4667 59.7599 31.3539 59.7827 31.2399 59.7827Z" fill="url(#paint4_linear_976_2824)" stroke="url(#paint5_linear_976_2824)" stroke-width="2"/>
<path d="M66.6648 45.0851L55.77 37.0654C55.5475 36.9011 55.2794 36.8125 55.0041 36.8125C54.7288 36.8125 54.4606 36.9011 54.2381 37.0654L43.3434 45.0851C43.12 45.2489 42.9536 45.4805 42.8684 45.7465C42.7832 46.0124 42.7835 46.299 42.8693 46.5647L47.0302 59.5393C47.1149 59.8051 47.2807 60.0368 47.5035 60.201C47.7264 60.3652 47.9949 60.4534 48.2703 60.4529H61.7379C62.0133 60.4534 62.2818 60.3652 62.5046 60.201C62.7275 60.0368 62.8932 59.8052 62.978 59.5394L67.1389 46.5647C67.2247 46.299 67.225 46.0124 67.1398 45.7465C67.0546 45.4805 66.8882 45.2489 66.6648 45.0851ZM66.573 46.378L62.4121 59.3526C62.366 59.4972 62.2759 59.6232 62.1547 59.7124C62.0335 59.8017 61.8874 59.8496 61.7377 59.8493H48.2703C48.1205 59.8496 47.9745 59.8017 47.8533 59.7124C47.7321 59.6232 47.642 59.4972 47.5959 59.3526L43.435 46.378C43.3884 46.2335 43.3882 46.0777 43.4346 45.9331C43.4809 45.7885 43.5714 45.6626 43.6929 45.5736L54.5875 37.5539C54.7085 37.4645 54.8543 37.4164 55.0039 37.4164C55.1536 37.4164 55.2994 37.4645 55.4203 37.5539L66.3153 45.5736C66.4368 45.6626 66.5273 45.7885 66.5736 45.9331C66.62 46.0777 66.6197 46.2335 66.573 46.378Z" fill="url(#paint6_linear_976_2824)" stroke="url(#paint7_linear_976_2824)" stroke-width="2"/>
<defs>
<linearGradient id="paint0_linear_976_2824" x1="21.5896" y1="2.91411" x2="21.5896" y2="23.3162" gradientUnits="userSpaceOnUse">
<stop stop-color="#00EFD1"/>
<stop offset="1" stop-color="#00ACEA"/>
</linearGradient>
<linearGradient id="paint1_linear_976_2824" x1="21.5896" y1="2.91411" x2="21.5896" y2="23.3162" gradientUnits="userSpaceOnUse">
<stop stop-color="#00EFD1"/>
<stop offset="1" stop-color="#00ACEA"/>
</linearGradient>
<linearGradient id="paint2_linear_976_2824" x1="55.0115" y1="0.449348" x2="55.0115" y2="25.6805" gradientUnits="userSpaceOnUse">
<stop stop-color="#00EFD1"/>
<stop offset="1" stop-color="#00ACEA"/>
</linearGradient>
<linearGradient id="paint3_linear_976_2824" x1="55.0115" y1="0.449348" x2="55.0115" y2="25.6805" gradientUnits="userSpaceOnUse">
<stop stop-color="#00EFD1"/>
<stop offset="1" stop-color="#00ACEA"/>
</linearGradient>
<linearGradient id="paint4_linear_976_2824" x1="32.8617" y1="37.6753" x2="10.4051" y2="59.8156" gradientUnits="userSpaceOnUse">
<stop stop-color="#00EFD1"/>
<stop offset="1" stop-color="#00ACEA"/>
</linearGradient>
<linearGradient id="paint5_linear_976_2824" x1="32.8617" y1="37.6753" x2="10.4051" y2="59.8156" gradientUnits="userSpaceOnUse">
<stop stop-color="#00EFD1"/>
<stop offset="1" stop-color="#00ACEA"/>
</linearGradient>
<linearGradient id="paint6_linear_976_2824" x1="55.004" y1="36.2832" x2="55.004" y2="60.5353" gradientUnits="userSpaceOnUse">
<stop stop-color="#00EFD1"/>
<stop offset="1" stop-color="#00ACEA"/>
</linearGradient>
<linearGradient id="paint7_linear_976_2824" x1="55.004" y1="36.2832" x2="55.004" y2="60.5353" gradientUnits="userSpaceOnUse">
<stop stop-color="#00EFD1"/>
<stop offset="1" stop-color="#00ACEA"/>
</linearGradient>
</defs>
</svg>
