<svg width="71" height="41" viewBox="0 0 71 41" fill="none" xmlns="http://www.w3.org/2000/svg">
<path d="M48.6182 9.83337L42.3599 3.57564C40.3951 1.59949 37.7217 0.492068 34.9355 0.500043H20.2678C19.3626 0.501182 18.47 0.712526 17.6593 1.11585L15.0446 2.42379C14.5205 2.68754 13.9383 2.81344 13.3521 2.79008L12.1667 2.7485V0.500043H0.5V26.1667H12.1667V22.6667H14.1502L14.856 23.1333C16.8311 24.4446 19.1308 25.1852 21.5 25.2718V40.1667H70.5V9.83337H48.6182ZM9.83333 23.8334H2.83333V2.83338H9.83333V23.8334ZM16.1475 21.1919L14.8498 20.3334H12.1667V5.08297L13.2667 5.12228C14.2437 5.15703 15.2132 4.94682 16.0876 4.51103L18.7001 3.20309C19.1866 2.95984 19.7238 2.83338 20.2678 2.83338H34.9355C37.1025 2.82711 39.1823 3.68844 40.7101 5.22481L45.3187 9.83337H35.6914L32.8596 7.00216L31.2104 8.65133L39.4517 16.8932C40.3672 17.8046 40.37 19.2858 39.4586 20.2018C38.5465 21.1172 37.0654 21.1201 36.15 20.2086L29.2668 13.3254L28.4499 14.0255C26.1946 15.9407 22.8979 15.9897 20.5863 14.1417L19.9101 13.5937L18.4398 15.4064L19.1234 15.9607C19.8383 16.532 20.6409 16.9843 21.5 17.2999V22.9373C19.5905 22.8524 17.7397 22.2491 16.1475 21.1919ZM32.7434 20.0998L34.5037 21.8606C36.3311 23.6608 39.2649 23.6636 41.0952 21.8663C39.3828 24.5181 40.0584 28.0472 42.6293 29.8786C45.2002 31.7101 48.7566 31.1957 50.7031 28.7114C52.6497 26.2265 52.2982 22.6502 49.9045 20.5926C47.5113 18.535 43.9224 18.7235 41.7583 21.0204C42.5553 19.7688 42.6977 18.2091 42.1405 16.8334H57.7635C58.2654 19.7688 60.5645 22.068 63.5 22.5699V27.4302C60.5645 27.9321 58.2654 30.2312 57.7635 33.1667H34.2365C33.7346 30.2312 31.4355 27.9321 28.5 27.4302V22.5699C30.1674 22.289 31.6753 21.4112 32.7434 20.0998ZM42.5 25C42.5 23.0672 44.0671 21.5 46 21.5C47.9329 21.5 49.5 23.0672 49.5 25C49.5 26.9329 47.9329 28.5 46 28.5C44.0671 28.5 42.5 26.9329 42.5 25ZM68.1667 37.8334H23.8333V17.7887C25.683 17.9277 27.527 17.456 29.0833 16.4471L31.0737 18.4375C30.1982 19.627 28.8105 20.3305 27.3333 20.3334H26.1667V29.6667H27.3333C29.9105 29.6667 32 31.7562 32 34.3334V35.5H60V34.3334C60 31.7562 62.0895 29.6667 64.6667 29.6667H65.8333V20.3334H64.6667C62.0895 20.3334 60 18.2439 60 15.6667V14.5H40.3581L38.0247 12.1667H68.1667V37.8334Z" fill="url(#paint0_linear_578_4637)"/>
<defs>
<linearGradient id="paint0_linear_578_4637" x1="37.5277" y1="74.7782" x2="34.9085" y2="1.44275" gradientUnits="userSpaceOnUse">
<stop stop-color="#006DF0"/>
<stop offset="1" stop-color="#00E7F0"/>
</linearGradient>
</defs>
</svg>
