<svg width="71" height="70" viewBox="0 0 71 70" fill="none" xmlns="http://www.w3.org/2000/svg">
<path d="M14.7848 23.3703C14.7848 22.7657 15.2745 22.2766 15.8785 22.2766H27.4928C28.0967 22.2766 28.5865 22.7659 28.5865 23.3703C28.5865 23.9747 28.0967 24.464 27.4928 24.464H15.8785C15.2745 24.464 14.7848 23.9749 14.7848 23.3703ZM31.8711 24.5857C30.7184 23.299 30.8261 21.3299 32.1066 20.1818C33.0952 19.2974 36.1232 18.0103 37.4984 19.5474C38.7504 20.9474 37.5114 23.7132 36.2664 24.8282C34.995 25.9684 33.0228 25.8719 31.8711 24.5857ZM33.5003 23.1267C33.831 23.494 34.4151 23.551 34.8067 23.1983C35.351 22.7124 35.8887 21.4766 35.8454 21.0236C35.4469 20.9297 34.1477 21.2898 33.5655 21.8119C33.1852 22.1521 33.1553 22.7409 33.5003 23.1267ZM5.8736 19.5475C7.24712 18.0106 10.2754 19.2965 11.2649 20.182C12.5491 21.3334 12.6501 23.3031 11.4999 24.5859C10.3459 25.8759 8.37296 25.9647 7.10455 24.8284C5.86675 23.7196 4.62057 20.9441 5.8736 19.5475ZM7.52588 21.0236C7.48216 21.4764 8.02048 22.7112 8.56413 23.1983C8.95668 23.5508 9.54085 23.494 9.87048 23.1267C10.2166 22.741 10.1859 22.1518 9.80589 21.8119C9.25844 21.3217 7.96488 20.92 7.52588 21.0236ZM70.5 53.6172V58.1129C70.5 60.5569 68.8419 62.6002 66.5982 63.2341V67.1652C66.5982 68.7279 65.3261 70 63.7634 70H58.3811C56.8184 70 55.5463 68.7279 55.5463 67.1652V63.4567H35.2152V67.1652C35.2152 68.7279 33.9432 70 32.38 70H26.9977C25.4345 70 24.1625 68.7279 24.1625 67.1652V63.234C21.9192 62.6 20.2611 60.5569 20.2611 58.1129V53.6172C20.2611 47.9875 23.783 45.07 24.6077 43.7168C22.8334 43.4222 21.4728 41.8878 21.4728 40.0317V39.5403C21.4728 38.9357 21.9626 38.4466 22.5665 38.4466C23.1705 38.4466 23.6602 38.9359 23.6602 39.5403V40.0317C23.6602 40.8916 24.3599 41.5912 25.2202 41.5912H25.9378L28.0341 33.262C28.2527 32.3929 28.6128 31.5922 29.0701 30.8652H13.3638V33.7854C13.3638 35.1911 12.2198 36.3351 10.8137 36.3351H6.3126C4.90648 36.3351 3.76252 35.1911 3.76252 33.7854V30.6306C1.87885 30.0367 0.5 28.2944 0.5 26.2168V22.455C0.5 17.755 3.44202 15.2213 4.00273 14.2915C2.57575 13.9226 1.51373 12.635 1.51373 11.0945V10.6843C1.51373 10.0797 2.00346 9.59059 2.60743 9.59059C3.2114 9.59059 3.70113 10.0799 3.70113 10.6843V11.0945C3.70113 11.7151 4.20578 12.2203 4.82636 12.2203H5.28699L7.00584 5.38975C7.80433 2.21634 10.6476 0 13.9204 0H29.4514C32.7241 0 35.5674 2.21634 36.3659 5.38975L38.0852 12.2203H38.5454C39.166 12.2203 39.6712 11.7151 39.6712 11.0945V10.6843C39.6712 10.0797 40.1605 9.59059 40.7649 9.59059C41.3693 9.59059 41.8586 10.0799 41.8586 10.6843V11.0945C41.8586 12.635 40.7961 13.9226 39.3692 14.2915C39.9334 15.2273 42.8723 17.765 42.8723 22.455V26.2168C42.8723 26.4741 42.8448 26.7277 42.8035 26.9784H54.6665C58.4818 26.9784 61.7961 29.5622 62.7276 33.2622L64.8234 41.5914H65.5409C66.4008 41.5914 67.1004 40.8917 67.1004 40.0319V39.5405C67.1004 38.9359 67.5897 38.4468 68.1941 38.4468C68.7987 38.4468 69.2878 38.936 69.2878 39.5405V40.0319C69.2878 41.8879 67.9271 43.4223 66.1531 43.7169C66.956 45.0344 70.5 47.9964 70.5 53.6172ZM54.6662 29.1658H36.0943C33.2836 29.1658 30.8413 31.0702 30.1556 33.7961L28.1942 41.588H62.5663L60.606 33.7961C59.9204 31.0704 57.4775 29.1658 54.6662 29.1658ZM7.54325 12.217H35.8286L34.2443 5.92365C33.6911 3.7233 31.7198 2.1874 29.4511 2.1874H13.9202C11.6515 2.1874 9.68038 3.7233 9.12698 5.92365L7.54325 12.217ZM5.1272 28.6757C7.6875 28.6758 30.9381 28.6778 31.0663 28.6778C32.4749 27.6068 34.2221 26.9784 36.0943 26.9784H40.5539C40.6333 26.7359 40.6846 26.484 40.6846 26.2168V22.455C40.6846 18.3592 37.9968 16.4253 36.6934 14.4077H6.67803C5.35676 16.4527 2.6874 18.3755 2.6874 22.455V26.2168C2.6874 27.5661 3.78003 28.6639 5.1272 28.6757ZM11.1762 30.8652H5.94992V33.7854C5.94992 33.9851 6.11275 34.1475 6.3126 34.1475H10.8137C11.0134 34.1475 11.1764 33.9851 11.1764 33.7854V30.8652H11.1762ZM33.0278 63.4567H26.35V67.1652C26.35 67.522 26.6405 67.8124 26.9979 67.8124H32.3801C32.7375 67.8124 33.028 67.522 33.028 67.1652V63.4567H33.0278ZM64.4106 63.4567H57.7339V67.1652C57.7339 67.522 58.0244 67.8124 58.3811 67.8124H63.7634C64.1201 67.8124 64.4106 67.522 64.4106 67.1652V63.4567ZM68.3124 53.6172C68.3124 48.6061 65.0202 46.235 63.4336 43.7788H27.3269C25.7119 46.279 22.4486 48.6061 22.4486 53.6172V58.1129C22.4486 59.853 23.8644 61.2693 25.6044 61.2693H65.1563C66.8963 61.2693 68.3126 59.853 68.3126 58.1129V53.6172H68.3124ZM52.3249 53.6161H38.4362C37.8316 53.6161 37.3425 54.1054 37.3425 54.7098C37.3425 55.3143 37.8317 55.8035 38.4362 55.8035H52.3249C52.9295 55.8035 53.4186 55.3143 53.4186 54.7098C53.4186 54.1054 52.9295 53.6161 52.3249 53.6161ZM64.1287 50.2814C65.5386 51.8575 64.0673 55.046 62.6729 56.2949C61.2371 57.5815 59.016 57.4665 57.72 56.0226C56.4243 54.5743 56.543 52.3473 57.9838 51.058C59.3798 49.8074 62.7192 48.7091 64.1287 50.2814ZM62.4966 51.7405C62.1437 51.5125 60.3152 51.9063 59.443 52.688C58.9004 53.1729 58.8586 54.0146 59.349 54.5625C59.8338 55.104 60.6713 55.1511 61.2139 54.665C62.0598 53.9077 62.6931 52.1476 62.4966 51.7405ZM32.7773 51.058C34.2176 52.3473 34.3368 54.5743 33.0415 56.0215C31.7472 57.4657 29.5269 57.5825 28.0876 56.2949C26.9528 55.2782 25.0883 52.0065 26.6318 50.2814H26.6323C28.0469 48.7023 31.3801 49.8063 32.7773 51.058ZM31.3177 52.688C30.4819 51.9393 28.6319 51.5014 28.2644 51.7405C28.0679 52.1486 28.7013 53.9077 29.5472 54.665C30.0893 55.152 30.9277 55.1051 31.4121 54.5625C31.9024 54.0146 31.8603 53.1729 31.3177 52.688Z" fill="url(#paint0_linear_578_4724)"/>
<defs>
<linearGradient id="paint0_linear_578_4724" x1="35.4998" y1="-1.56723" x2="35.4998" y2="70.2442" gradientUnits="userSpaceOnUse">
<stop stop-color="#00EFD1"/>
<stop offset="1" stop-color="#00ACEA"/>
</linearGradient>
</defs>
</svg>
