<svg width="71" height="59" viewBox="0 0 71 59" fill="none" xmlns="http://www.w3.org/2000/svg">
<path d="M67 0H4C3.07206 0.00101906 2.18241 0.370095 1.52625 1.02625C0.870095 1.68241 0.501019 2.57206 0.5 3.5V54.8333C0.501019 55.7613 0.870095 56.6509 1.52625 57.3071C2.18241 57.9632 3.07206 58.3323 4 58.3333H67C67.9279 58.3323 68.8176 57.9632 69.4737 57.3071C70.1299 56.6509 70.499 55.7613 70.5 54.8333V3.5C70.499 2.57206 70.1299 1.68241 69.4737 1.02625C68.8176 0.370095 67.9279 0.00101906 67 0ZM4 2.33333H67C67.3093 2.33361 67.6059 2.45662 67.8246 2.67535C68.0434 2.89408 68.1664 3.19067 68.1667 3.5V9.33333H2.83333V3.5C2.83361 3.19067 2.95662 2.89408 3.17535 2.67535C3.39408 2.45662 3.69067 2.33361 4 2.33333ZM67 56H4C3.69067 55.9997 3.39408 55.8767 3.17535 55.658C2.95662 55.4393 2.83361 55.1427 2.83333 54.8333V11.6667H68.1667V54.8333C68.1664 55.1427 68.0434 55.4393 67.8246 55.658C67.6059 55.8767 67.3093 55.9997 67 56ZM64.6667 5.83333C64.6667 6.29482 64.5298 6.74595 64.2734 7.12966C64.017 7.51338 63.6526 7.81245 63.2263 7.98905C62.7999 8.16566 62.3307 8.21187 61.8781 8.12183C61.4255 8.0318 61.0097 7.80957 60.6834 7.48325C60.3571 7.15693 60.1349 6.74117 60.0448 6.28854C59.9548 5.83592 60.001 5.36677 60.1776 4.94041C60.3542 4.51405 60.6533 4.14963 61.037 3.89324C61.4207 3.63685 61.8718 3.5 62.3333 3.5C62.9522 3.5 63.5457 3.74583 63.9832 4.18342C64.4208 4.621 64.6667 5.2145 64.6667 5.83333ZM58.8333 5.83333C58.8333 6.29482 58.6965 6.74595 58.4401 7.12966C58.1837 7.51338 57.8193 7.81245 57.3929 7.98905C56.9666 8.16566 56.4974 8.21187 56.0448 8.12183C55.5922 8.0318 55.1764 7.80957 54.8501 7.48325C54.5238 7.15693 54.3015 6.74117 54.2115 6.28854C54.1215 5.83592 54.1677 5.36677 54.3443 4.94041C54.5209 4.51405 54.82 4.14963 55.2037 3.89324C55.5874 3.63685 56.0385 3.5 56.5 3.5C57.1188 3.5 57.7123 3.74583 58.1499 4.18342C58.5875 4.621 58.8333 5.2145 58.8333 5.83333ZM46 7H8.66667C8.35725 7 8.0605 6.87708 7.84171 6.65829C7.62292 6.4395 7.5 6.14275 7.5 5.83333C7.5 5.52391 7.62292 5.22717 7.84171 5.00838C8.0605 4.78958 8.35725 4.66667 8.66667 4.66667H46C46.3094 4.66667 46.6062 4.78958 46.825 5.00838C47.0438 5.22717 47.1667 5.52391 47.1667 5.83333C47.1667 6.14275 47.0438 6.4395 46.825 6.65829C46.6062 6.87708 46.3094 7 46 7ZM35.5 50.1667C32.2696 50.1667 29.1117 49.2087 26.4257 47.414C23.7397 45.6193 21.6462 43.0684 20.41 40.0838C19.1737 37.0993 18.8503 33.8152 19.4805 30.6469C20.1107 27.4785 21.6663 24.5682 23.9506 22.2839C26.2348 19.9997 29.1452 18.4441 32.3135 17.8138C35.4819 17.1836 38.766 17.5071 41.7505 18.7433C44.735 19.9795 47.2859 22.073 49.0807 24.759C50.8754 27.445 51.8333 30.6029 51.8333 33.8333C51.8285 38.1637 50.1061 42.3153 47.044 45.3774C43.982 48.4394 39.8304 50.1618 35.5 50.1667ZM35.5 19.8333C32.7311 19.8333 30.0243 20.6544 27.722 22.1928C25.4197 23.7311 23.6253 25.9176 22.5657 28.4758C21.5061 31.0339 21.2288 33.8489 21.769 36.5646C22.3092 39.2803 23.6426 41.7749 25.6005 43.7328C27.5584 45.6908 30.053 47.0241 32.7687 47.5643C35.4845 48.1045 38.2994 47.8273 40.8576 46.7677C43.4157 45.708 45.6022 43.9136 47.1406 41.6113C48.6789 39.309 49.5 36.6023 49.5 33.8333C49.4959 30.1216 48.0195 26.563 45.3949 23.9384C42.7703 21.3138 39.2118 19.8375 35.5 19.8333ZM42.0995 38.7837C42.312 39.0038 42.4296 39.2985 42.4269 39.6044C42.4243 39.9103 42.3016 40.2029 42.0853 40.4192C41.869 40.6355 41.5763 40.7582 41.2705 40.7609C40.9646 40.7635 40.6698 40.6459 40.4498 40.4334L35.5 35.4831L30.5502 40.4334C30.3301 40.6459 30.0354 40.7635 29.7295 40.7609C29.4237 40.7582 29.131 40.6355 28.9147 40.4192C28.6984 40.2029 28.5757 39.9103 28.5731 39.6044C28.5704 39.2985 28.688 39.0038 28.9005 38.7837L33.8503 33.8333L28.9005 28.8829C28.7891 28.7753 28.7002 28.6466 28.6391 28.5042C28.5779 28.3619 28.5457 28.2088 28.5444 28.0539C28.543 27.899 28.5726 27.7454 28.6312 27.602C28.6899 27.4586 28.7765 27.3283 28.8861 27.2188C28.9956 27.1093 29.1259 27.0226 29.2692 26.964C29.4126 26.9053 29.5662 26.8758 29.7212 26.8771C29.8761 26.8785 30.0292 26.9107 30.1715 26.9718C30.3138 27.033 30.4426 27.1218 30.5502 27.2333L35.5 32.1836L40.4498 27.2333C40.5574 27.1218 40.6862 27.033 40.8285 26.9718C40.9708 26.9107 41.1239 26.8785 41.2789 26.8771C41.4338 26.8758 41.5874 26.9053 41.7308 26.964C41.8741 27.0226 42.0044 27.1093 42.1139 27.2188C42.2235 27.3283 42.3101 27.4586 42.3688 27.602C42.4274 27.7454 42.457 27.899 42.4556 28.0539C42.4543 28.2088 42.4221 28.3619 42.3609 28.5042C42.2998 28.6466 42.2109 28.7753 42.0995 28.8829L37.1497 33.8333L42.0995 38.7837Z" fill="url(#paint0_linear_976_2813)"/>
<defs>
<linearGradient id="paint0_linear_976_2813" x1="35.4998" y1="-1.30603" x2="35.4998" y2="58.5368" gradientUnits="userSpaceOnUse">
<stop stop-color="#00EFD1"/>
<stop offset="1" stop-color="#00ACEA"/>
</linearGradient>
</defs>
</svg>
