<svg width="71" height="70" viewBox="0 0 71 70" fill="none" xmlns="http://www.w3.org/2000/svg">
<path d="M3.6514 52.5121C3.6514 51.8886 4.15692 51.383 4.78043 51.383H10.1878C10.8113 51.383 11.3168 51.8886 11.3168 52.5121C11.3168 53.1356 10.8113 53.6411 10.1878 53.6411H4.78043C4.15692 53.6411 3.6514 53.1356 3.6514 52.5121ZM15.4609 55.5751H4.78043C4.15692 55.5751 3.6514 56.0806 3.6514 56.7041C3.6514 57.3277 4.15692 57.8332 4.78043 57.8332H15.4609C16.0844 57.8332 16.5899 57.3277 16.5899 56.7041C16.5899 56.0806 16.0844 55.5751 15.4609 55.5751ZM15.4609 59.7671H4.78043C4.15692 59.7671 3.6514 60.2726 3.6514 60.8961C3.6514 61.5196 4.15692 62.0251 4.78043 62.0251H15.4609C16.0844 62.0251 16.5899 61.5196 16.5899 60.8961C16.5899 60.2726 16.0844 59.7671 15.4609 59.7671ZM15.4609 63.959H4.78043C4.15692 63.959 3.6514 64.4645 3.6514 65.088C3.6514 65.7115 4.15692 66.2171 4.78043 66.2171H15.4609C16.0844 66.2171 16.5899 65.7115 16.5899 65.088C16.5899 64.4645 16.0844 63.959 15.4609 63.959ZM30.1597 53.6411H35.567C36.1905 53.6411 36.6961 53.1356 36.6961 52.5121C36.6961 51.8886 36.1905 51.383 35.567 51.383H30.1597C29.5362 51.383 29.0307 51.8886 29.0307 52.5121C29.0307 53.1356 29.5362 53.6411 30.1597 53.6411ZM40.84 55.5751H30.1597C29.5362 55.5751 29.0307 56.0806 29.0307 56.7041C29.0307 57.3277 29.5362 57.8332 30.1597 57.8332H40.84C41.4635 57.8332 41.969 57.3277 41.969 56.7041C41.969 56.0806 41.4635 55.5751 40.84 55.5751ZM40.84 59.7671H30.1597C29.5362 59.7671 29.0307 60.2726 29.0307 60.8961C29.0307 61.5196 29.5362 62.0251 30.1597 62.0251H40.84C41.4635 62.0251 41.969 61.5196 41.969 60.8961C41.969 60.2726 41.4635 59.7671 40.84 59.7671ZM40.84 63.959H30.1597C29.5362 63.959 29.0307 64.4645 29.0307 65.088C29.0307 65.7115 29.5362 66.2171 30.1597 66.2171H40.84C41.4635 66.2171 41.969 65.7115 41.969 65.088C41.969 64.4645 41.4635 63.959 40.84 63.959ZM70.4997 54.4256V68.0097C70.4997 69.1071 69.6069 70 68.5095 70H53.2487C52.1513 70 51.2584 69.1072 51.2584 68.0097V49.5904C51.2584 48.4932 52.1512 47.6002 53.2487 47.6002H58.6575V38.1604H35.579L35.545 47.6002H38.2952C38.8342 47.6002 39.3208 47.8018 39.7021 48.1828L44.5377 53.0183C44.9189 53.3992 45.1206 53.886 45.1206 54.4256V68.0097C45.1206 69.1071 44.2278 70 43.1304 70H27.8695C26.7722 70 25.8793 69.1072 25.8793 68.0097V49.5904C25.8793 48.4932 26.7721 47.6002 27.8695 47.6002H33.287L33.321 38.1604H10.1573V47.6002H12.9159C13.4549 47.6002 13.9416 47.8018 14.323 48.1828L19.1586 53.0183C19.5398 53.3996 19.7415 53.8862 19.7415 54.4256V68.0097C19.7415 69.1071 18.8487 70 17.7513 70H2.49019C1.39278 69.9999 0.5 69.1071 0.5 68.0097V49.5904C0.5 48.4932 1.39278 47.6002 2.49019 47.6002H7.89922V37.0314C7.89922 36.4079 8.40475 35.9024 9.02825 35.9024H33.3292L33.3615 26.9214H26.1564C24.9525 26.9214 23.9728 25.942 23.9728 24.7378V2.18368C23.9728 0.979714 24.9523 0 26.1564 0H38.9226C39.5144 0 40.0486 0.221289 40.4669 0.639876L46.3874 6.56022C46.8057 6.97866 47.0268 7.51255 47.0268 8.10416V24.7378C47.0268 25.9418 46.0474 26.9214 44.8433 26.9214H35.6194L35.5871 35.9024H59.7864C60.4099 35.9024 60.9154 36.4079 60.9154 37.0314V47.6002H63.6742C64.2131 47.6002 64.6999 47.8018 65.0812 48.1828L69.9169 53.0183C70.298 53.3996 70.4997 53.8864 70.4997 54.4256V54.4256ZM40.4885 6.53862H43.1722L40.4885 3.85506V6.53862ZM26.2308 24.6635H44.7688V8.79668H39.8866C38.9732 8.79668 38.2303 8.05364 38.2303 7.14039V2.2582H26.2308V24.6635ZM17.4833 67.7418V55.1979H13.7033C12.8432 55.1979 12.1435 54.4983 12.1435 53.6383V49.8583H2.75806V67.7418H17.4833ZM14.4016 52.94H15.8865L14.4016 51.455V52.94ZM42.8624 67.7418V55.1979H39.0824C38.2224 55.1979 37.5228 54.4983 37.5228 53.6383V49.8583H28.1373V67.7418H42.8624ZM39.7809 52.94H41.2657L39.7809 51.4552V52.94ZM65.1601 52.94H66.6449L65.1601 51.4552V52.94ZM68.2417 67.7418V55.1979H64.4617C63.6016 55.1979 62.9021 54.4983 62.9021 53.6383V49.8583H53.5165V67.7418H68.2417ZM55.5388 53.6411H60.9462C61.5697 53.6411 62.0752 53.1356 62.0752 52.5121C62.0752 51.8886 61.5697 51.383 60.9462 51.383H55.5388C54.9153 51.383 54.4098 51.8886 54.4098 52.5121C54.4098 53.1356 54.9153 53.6411 55.5388 53.6411ZM66.2193 55.5751H55.5388C54.9153 55.5751 54.4098 56.0806 54.4098 56.7041C54.4098 57.3277 54.9153 57.8332 55.5388 57.8332H66.2193C66.8428 57.8332 67.3483 57.3277 67.3483 56.7041C67.3483 56.0806 66.8428 55.5751 66.2193 55.5751ZM66.2193 59.7671H55.5388C54.9153 59.7671 54.4098 60.2726 54.4098 60.8961C54.4098 61.5196 54.9153 62.0251 55.5388 62.0251H66.2193C66.8428 62.0251 67.3483 61.5196 67.3483 60.8961C67.3483 60.2726 66.8428 59.7671 66.2193 59.7671ZM66.2193 63.959H55.5388C54.9153 63.959 54.4098 64.4645 54.4098 65.088C54.4098 65.7115 54.9153 66.2171 55.5388 66.2171H66.2193C66.8428 66.2171 67.3483 65.7115 67.3483 65.088C67.3483 64.4645 66.8428 63.959 66.2193 63.959ZM28.9608 6.89031H35.5821C36.2056 6.89031 36.7112 6.38479 36.7112 5.76129C36.7112 5.13778 36.2056 4.63226 35.5821 4.63226H28.9608C28.3373 4.63226 27.8318 5.13778 27.8318 5.76129C27.8318 6.38479 28.3373 6.89031 28.9608 6.89031V6.89031ZM42.039 9.76524H28.9608C28.3373 9.76524 27.8318 10.2708 27.8318 10.8943C27.8318 11.5178 28.3373 12.0233 28.9608 12.0233H42.039C42.6626 12.0233 43.1681 11.5178 43.1681 10.8943C43.1681 10.2708 42.6626 9.76524 42.039 9.76524ZM42.039 14.8984H28.9608C28.3373 14.8984 27.8318 15.4039 27.8318 16.0274C27.8318 16.6509 28.3373 17.1564 28.9608 17.1564H42.039C42.6626 17.1564 43.1681 16.6509 43.1681 16.0274C43.1681 15.4039 42.6626 14.8984 42.039 14.8984ZM42.039 20.0314H28.9608C28.3373 20.0314 27.8318 20.5369 27.8318 21.1604C27.8318 21.7839 28.3373 22.2894 28.9608 22.2894H42.039C42.6626 22.2894 43.1681 21.7839 43.1681 21.1604C43.1681 20.5369 42.6626 20.0314 42.039 20.0314Z" fill="url(#paint0_linear_578_4765)"/>
<defs>
<linearGradient id="paint0_linear_578_4765" x1="35.4997" y1="-1.56723" x2="35.4997" y2="70.2442" gradientUnits="userSpaceOnUse">
<stop stop-color="#00EFD1"/>
<stop offset="1" stop-color="#00ACEA"/>
</linearGradient>
</defs>
</svg>
