<svg width="331" height="255" viewBox="0 0 331 255" fill="none" xmlns="http://www.w3.org/2000/svg">
<path d="M330.906 0.203125H149.797V222.696H330.906V0.203125Z" fill="#F3F3F3"/>
<path d="M227.874 27.7188H179.477V36.2343H227.874V27.7188Z" fill="#FF725E"/>
<path d="M274.113 92.4062H179.477V100.922H274.113V92.4062Z" fill="#FF725E"/>
<path d="M243.003 175.859H179.477V184.375H243.003V175.859Z" fill="#FF725E"/>
<path d="M234.536 72.7188H178.828V81.2343H234.536V72.7188Z" fill="#E0E0E0"/>
<path d="M259.55 52.6411C259.55 52.7381 241.63 52.8143 219.517 52.8143C197.404 52.8143 179.477 52.7381 179.477 52.6411C179.477 52.5441 197.404 52.4609 219.517 52.4609C241.63 52.4609 259.55 52.5372 259.55 52.6411Z" fill="#263238"/>
<path d="M290.826 116.649C290.826 116.746 265.908 116.829 235.152 116.829C204.395 116.829 179.477 116.746 179.477 116.649C179.477 116.552 204.395 116.469 235.152 116.469C265.908 116.469 290.826 116.552 290.826 116.649Z" fill="#263238"/>
<path d="M290.826 126.454C290.826 126.551 265.908 126.634 235.152 126.634C204.395 126.634 179.477 126.551 179.477 126.454C179.477 126.357 204.395 126.273 235.152 126.273C265.908 126.273 290.826 126.357 290.826 126.454Z" fill="#263238"/>
<path d="M290.084 160.415C290.084 160.518 265.165 160.595 234.409 160.595C203.653 160.595 178.734 160.518 178.734 160.415C178.734 160.311 203.653 160.234 234.409 160.234C265.165 160.234 290.084 160.318 290.084 160.415Z" fill="#263238"/>
<path d="M227.867 190.477C227.867 190.581 216.939 190.657 203.46 190.657C189.982 190.657 179.047 190.581 179.047 190.477C179.047 190.373 189.975 190.297 203.46 190.297C216.946 190.297 227.867 190.38 227.867 190.477Z" fill="#263238"/>
<path d="M307.311 182.5H18.9688V224.853H307.311V182.5Z" fill="#FF725E"/>
<g opacity="0.5">
<path d="M307.303 182.5H18.9609V224.853H307.303V182.5Z" fill="black"/>
</g>
<path d="M59.5846 252.335C74.9057 251.303 86.4901 238.033 85.4591 222.696C84.428 207.359 71.1719 195.763 55.8508 196.795C40.5296 197.827 28.9452 211.097 29.9763 226.434C31.0073 241.771 44.2634 253.367 59.5846 252.335Z" fill="#263238"/>
<path d="M29.917 224.094C29.917 224.12 29.917 224.146 29.917 224.167C29.8641 227.822 30.5309 231.451 31.8793 234.848C33.2277 238.246 35.2314 241.343 37.7758 243.965C40.3203 246.587 43.3557 248.682 46.7088 250.13C50.0619 251.577 53.6671 252.35 57.3183 252.403C60.9696 252.456 64.5956 251.788 67.9892 250.438C71.3828 249.088 74.4776 247.083 77.0968 244.536C79.7161 241.989 81.8085 238.95 83.2547 235.593C84.7008 232.237 85.4724 228.628 85.5253 224.973C85.5253 224.947 85.5253 224.921 85.5253 224.9L29.917 224.094Z" fill="#263238"/>
<path d="M38.1975 224.29C38.1403 228.155 39.2294 231.95 41.327 235.195C43.4246 238.44 46.4365 240.989 49.9818 242.52C53.527 244.052 57.4463 244.496 61.2439 243.798C65.0415 243.099 68.5467 241.289 71.3164 238.595C74.086 235.902 75.9955 232.447 76.8034 228.668C77.6113 224.888 77.2812 220.954 75.855 217.362C74.4288 213.77 71.9705 210.682 68.791 208.489C65.6116 206.296 61.8538 205.096 57.993 205.041C52.8184 204.967 47.8264 206.954 44.1144 210.563C40.4024 214.173 38.2741 219.11 38.1975 224.29Z" fill="#FAFAFA"/>
<path d="M57.9908 205.033C52.8159 204.958 47.8231 206.944 44.1108 210.554C40.3984 214.164 38.2706 219.102 38.1953 224.282L77.2303 224.849C77.3038 219.668 75.3182 214.669 71.7101 210.953C68.1021 207.237 63.1671 205.107 57.9908 205.033Z" fill="#E0E0E0"/>
<path d="M45.8216 224.392C45.7869 226.746 46.4505 229.058 47.7284 231.034C49.0063 233.011 50.8412 234.564 53.0009 235.497C55.1606 236.429 57.5481 236.7 59.8614 236.274C62.1748 235.848 64.31 234.745 65.997 233.105C67.6841 231.464 68.8471 229.359 69.339 227.057C69.8309 224.754 69.6296 222.357 68.7606 220.169C67.8916 217.981 66.3938 216.101 64.4568 214.765C62.5198 213.429 60.2306 212.699 57.8787 212.665C56.3179 212.643 54.7678 212.928 53.3171 213.505C51.8663 214.082 50.5434 214.939 49.4237 216.028C48.3041 217.117 47.4097 218.416 46.7917 219.851C46.1736 221.286 45.844 222.829 45.8216 224.392Z" fill="#263238"/>
<path d="M271.939 252.328C287.269 251.437 298.975 238.275 298.086 222.93C297.197 207.584 284.048 195.865 268.718 196.755C253.388 197.646 241.682 210.807 242.571 226.153C243.46 241.499 256.609 253.218 271.939 252.328Z" fill="#263238"/>
<path d="M242.526 224.094C242.526 224.12 242.526 224.146 242.526 224.167C242.473 227.822 243.14 231.451 244.489 234.848C245.837 238.246 247.841 241.343 250.385 243.965C252.93 246.587 255.965 248.682 259.318 250.13C262.671 251.577 266.276 252.35 269.928 252.403C273.579 252.456 277.205 251.788 280.599 250.438C283.992 249.088 287.087 247.083 289.706 244.536C292.325 241.989 294.418 238.95 295.864 235.593C297.31 232.237 298.082 228.628 298.135 224.973C298.135 224.947 298.135 224.921 298.135 224.9L242.526 224.094Z" fill="#263238"/>
<path d="M250.807 224.29C250.75 228.155 251.839 231.95 253.936 235.195C256.034 238.44 259.046 240.989 262.591 242.52C266.136 244.052 270.056 244.496 273.853 243.798C277.651 243.099 281.156 241.289 283.926 238.595C286.695 235.902 288.605 232.447 289.413 228.668C290.221 224.888 289.891 220.954 288.464 217.362C287.038 213.77 284.58 210.682 281.4 208.489C278.221 206.296 274.463 205.096 270.602 205.041C265.428 204.967 260.436 206.954 256.724 210.563C253.012 214.173 250.883 219.11 250.807 224.29Z" fill="#FAFAFA"/>
<path d="M270.6 205.033C265.425 204.958 260.433 206.944 256.72 210.554C253.008 214.164 250.88 219.102 250.805 224.282L289.84 224.849C289.913 219.668 287.928 214.669 284.32 210.953C280.711 207.237 275.777 205.107 270.6 205.033Z" fill="#E0E0E0"/>
<path d="M258.423 224.392C258.388 226.746 259.052 229.058 260.33 231.034C261.608 233.011 263.443 234.564 265.602 235.497C267.762 236.429 270.15 236.7 272.463 236.274C274.776 235.848 276.912 234.745 278.599 233.105C280.286 231.464 281.449 229.359 281.941 227.057C282.432 224.754 282.231 222.357 281.362 220.169C280.493 217.981 278.995 216.101 277.058 214.765C275.121 213.429 272.832 212.699 270.48 212.665C268.919 212.643 267.369 212.928 265.919 213.505C264.468 214.082 263.145 214.939 262.025 216.028C260.906 217.117 260.011 218.416 259.393 219.851C258.775 221.286 258.446 222.829 258.423 224.392Z" fill="#263238"/>
<path d="M94.1578 158.672C94.1578 158.672 53.2156 161.695 38.0298 165.103C27.3343 167.501 6.7125 171.647 6.96195 184.632L8.59902 193.945C8.59902 193.945 0.954177 197.441 0.954177 206.368C0.954177 215.295 -0.911557 229.134 16.9455 229.69C19.887 229.779 25.4738 229.69 25.4738 229.69C25.4738 229.69 22.0489 191.619 56.9834 190.506C92.526 189.372 90.1665 229.342 90.1665 229.342H238.505C238.505 229.342 232.415 190.402 270.675 190.324C308.936 190.246 303.115 229.597 303.115 229.597C303.115 229.597 317.189 230.814 323.737 218.973C330.285 207.133 328.586 198.684 328.586 198.684L328.367 191.198C328.326 189.969 327.82 188.802 326.952 187.933C326.083 187.064 324.917 186.557 323.69 186.516C323.69 186.516 326.247 167.673 322.323 164.411C318.4 161.149 296.899 141.468 296.899 141.468L297.939 140.828C298.324 140.584 298.633 140.236 298.828 139.824C299.024 139.412 299.099 138.953 299.045 138.5C298.99 138.047 298.809 137.618 298.521 137.264C298.233 136.91 297.851 136.645 297.419 136.5C289.255 133.69 273.113 128.129 269.319 126.803C268.751 126.6 268.158 126.474 267.557 126.428C265.291 126.256 258.878 125.85 247.107 125.726C232.768 125.57 175.84 125.726 175.84 125.726C175.84 125.726 156.247 127.338 145.333 132.145C133.889 137.202 94.1578 158.672 94.1578 158.672Z" fill="#FF725E"/>
<g opacity="0.4">
<path d="M11.3434 205.324C9.85709 205.022 7.58079 204.996 6.44784 206C5.60592 206.75 5.38244 207.962 5.25771 209.08C5.01902 210.612 5.05421 212.175 5.36165 213.695C5.51843 214.454 5.83017 215.173 6.27732 215.805C6.72446 216.438 7.29738 216.972 7.96017 217.373C9.3218 218.112 11.1823 217.992 12.2373 216.853C13.204 215.812 13.3131 214.251 13.2767 212.862C13.2404 210.854 13.4015 209.153 13.0325 207.181C12.9511 206.763 12.7731 206.369 12.5128 206.032C12.3833 205.83 12.209 205.66 12.0035 205.537C11.798 205.413 11.5668 205.339 11.3279 205.319" fill="black"/>
</g>
<path d="M8.61363 193.941C12.9584 193.941 17.1731 193.702 21.5127 193.421C21.9854 193.442 22.4511 193.301 22.8327 193.021C23.0073 192.803 23.1371 192.553 23.2147 192.285C23.2923 192.018 23.3162 191.737 23.2849 191.46C23.2849 189.129 23.1913 186.476 21.4243 184.957C20.3433 184.031 18.8622 183.739 17.4434 183.609C13.9201 183.228 10.3562 183.583 6.97656 184.65L8.61363 193.941Z" fill="#FAFAFA"/>
<path d="M98.8746 228.152C98.8746 228.152 98.8746 228.027 98.8434 227.778C98.8122 227.528 98.8018 227.159 98.7706 226.685C98.7187 225.718 98.6407 224.308 98.542 222.487C98.4432 220.666 98.3185 218.434 98.0586 215.854C97.7903 212.932 97.2774 210.038 96.5255 207.202C95.5768 203.777 94.1695 200.496 92.3419 197.448C90.2717 193.928 87.5207 190.858 84.2501 188.416C77.2393 183.422 67.7651 180.613 57.8544 180.478C47.9436 180.342 38.4642 183.479 31.6249 188.739C28.3466 191.167 25.4749 194.101 23.1174 197.432C21.0589 200.324 19.3853 203.472 18.1386 206.796C17.1102 209.544 16.4039 212.402 16.0338 215.313C15.744 217.508 15.6587 219.725 15.7792 221.935C15.8644 223.332 16.038 224.722 16.2989 226.097C16.382 226.56 16.4496 226.919 16.4912 227.169C16.5327 227.419 16.5483 227.538 16.5483 227.538C16.5483 227.538 16.5171 227.419 16.4652 227.179L16.2417 226.139C15.9588 224.766 15.7713 223.376 15.6804 221.977C15.5391 219.759 15.6087 217.533 15.8883 215.328C16.2465 212.403 16.9441 209.529 17.9671 206.765C19.2095 203.414 20.8832 200.24 22.9459 197.323C25.3087 193.965 28.1932 191.007 31.4898 188.562C38.3603 183.276 47.8605 180.108 57.8492 180.238C67.8379 180.368 77.3277 183.204 84.3956 188.245C87.6859 190.711 90.4511 193.809 92.529 197.359C94.3549 200.431 95.7537 203.737 96.6866 207.187C97.4343 210.034 97.9368 212.941 98.1886 215.875C98.4328 218.476 98.542 220.692 98.6251 222.513C98.7083 224.334 98.7654 225.749 98.807 226.716C98.807 227.19 98.8382 227.554 98.8486 227.809C98.859 228.064 98.8746 228.152 98.8746 228.152Z" fill="white"/>
<path d="M100.428 228.795V228.483L100.397 227.562C100.371 226.74 100.335 225.538 100.283 223.967C100.194 220.809 100.064 216.195 99.8981 210.321C99.7318 204.448 99.5395 197.315 99.316 189.147C99.2589 187.103 99.2069 184.985 99.1445 182.826C99.1081 181.723 99.1567 180.619 99.2901 179.523L99.5239 177.848L99.8669 176.167C100.405 173.872 101.18 171.638 102.18 169.503C103.209 167.265 104.481 165.147 105.973 163.187L131.662 146.987L138.6 142.617C140.939 141.062 143.394 139.689 145.944 138.512C148.551 137.283 151.227 136.205 153.958 135.282C155.319 134.803 156.717 134.413 158.115 133.997C159.513 133.581 160.937 133.237 162.382 132.956C167.83 131.79 173.368 131.093 178.935 130.875C184.276 130.619 189.628 130.636 194.967 130.927H195.118L195.082 131.078L188.18 161.986C186.905 164.081 185.86 166.309 185.062 168.629C184.277 170.83 183.924 173.162 184.023 175.496C184.199 177.78 184.262 180.017 184.319 182.187C184.376 184.356 184.402 186.458 184.444 188.502C184.563 196.67 184.594 203.792 184.615 209.66C184.636 215.529 184.615 220.143 184.615 223.296C184.615 224.857 184.615 226.069 184.615 226.891C184.615 227.291 184.615 227.598 184.615 227.812C184.615 228.025 184.615 228.124 184.615 228.124C184.615 228.124 184.615 228.014 184.615 227.812C184.615 227.609 184.615 227.291 184.615 226.891C184.615 226.069 184.615 224.867 184.615 223.296C184.615 220.143 184.568 215.529 184.532 209.666C184.495 203.802 184.444 196.66 184.303 188.502C184.262 186.463 184.217 184.359 184.168 182.192C184.106 180.022 184.043 177.796 183.861 175.512C183.756 173.148 184.109 170.786 184.901 168.556C185.693 166.217 186.739 163.972 188.019 161.861V161.897C190.134 152.382 192.447 141.998 194.895 130.985L195.014 131.141C189.686 130.853 184.347 130.839 179.018 131.099C173.464 131.314 167.94 132.01 162.507 133.18C161.067 133.466 159.664 133.867 158.256 134.22C156.847 134.574 155.47 135.027 154.098 135.5C151.367 136.425 148.691 137.505 146.084 138.736C143.547 139.905 141.104 141.269 138.777 142.815L131.834 147.185L106.145 163.349V163.323C104.655 165.269 103.386 167.375 102.362 169.602C101.363 171.721 100.59 173.939 100.054 176.219C98.8847 180.678 99.4719 185.063 99.4823 189.147L100.002 210.321C100.142 216.189 100.251 220.809 100.324 223.962C100.361 225.522 100.381 226.74 100.402 227.562C100.402 227.961 100.402 228.268 100.402 228.483C100.428 228.691 100.428 228.795 100.428 228.795Z" fill="#263238"/>
<path d="M194.781 131.783H195.026L195.738 131.757L198.497 131.689L208.73 131.492L243.228 130.898H243.296L243.337 130.95L248.17 136.876C253.066 142.895 257.733 148.618 261.974 153.82L263.533 155.745C264.038 156.39 264.471 157.088 264.827 157.826C265.471 159.195 265.821 160.684 265.854 162.196C265.887 163.709 265.603 165.212 265.019 166.608L263.46 170.249L258.689 181.299L257.38 184.296L257.031 185.076C256.953 185.248 256.907 185.336 256.907 185.336C256.907 185.336 256.938 185.243 257.005 185.066C257.073 184.889 257.192 184.613 257.328 184.275C257.624 183.578 258.045 182.558 258.59 181.258L263.268 170.177C264.162 167.825 265.736 165.349 265.627 162.331C265.604 160.798 265.25 159.287 264.588 157.904C264.239 157.186 263.814 156.507 263.32 155.88L261.761 153.955L247.942 137.027L243.114 131.101L243.218 131.153L208.715 131.674L198.482 131.793H195.722H195.015L194.781 131.783Z" fill="#263238"/>
<path d="M177.348 177.717C177.348 177.717 177.494 177.717 177.759 177.655C178.148 177.585 178.52 177.437 178.85 177.218C179.374 176.876 179.766 176.366 179.962 175.771C180.081 175.402 180.131 175.014 180.108 174.627C180.095 174.195 179.985 173.772 179.785 173.389C179.553 172.953 179.208 172.587 178.787 172.33C178.366 172.073 177.883 171.934 177.39 171.927H173.887H165.857C165.179 171.928 164.526 172.184 164.028 172.645C163.542 173.088 163.232 173.692 163.155 174.346C163.076 174.978 163.192 175.618 163.488 176.182C163.789 176.712 164.257 177.127 164.818 177.363C165.374 177.554 165.963 177.627 166.549 177.577H168.248H171.304L175.727 177.618L176.927 177.644C177.068 177.641 177.209 177.652 177.348 177.675C177.208 177.692 177.068 177.7 176.927 177.701H175.727L171.304 177.743H168.248H166.549C166.252 177.743 165.967 177.743 165.649 177.743C165.331 177.724 165.019 177.651 164.724 177.53C164.108 177.276 163.594 176.824 163.264 176.245C162.934 175.636 162.805 174.939 162.895 174.252C162.977 173.522 163.324 172.848 163.87 172.358C164.416 171.868 165.124 171.596 165.857 171.594H173.887H177.395C177.925 171.605 178.443 171.759 178.893 172.04C179.343 172.321 179.709 172.719 179.952 173.191C180.16 173.601 180.272 174.053 180.279 174.512C180.296 174.918 180.238 175.324 180.108 175.709C179.888 176.327 179.465 176.852 178.907 177.197C178.563 177.416 178.174 177.553 177.769 177.597C177.634 177.654 177.493 177.694 177.348 177.717Z" fill="#263238"/>
<path d="M254.262 177.717C254.262 177.717 254.408 177.717 254.673 177.655C255.062 177.585 255.434 177.437 255.764 177.218C256.288 176.876 256.68 176.366 256.876 175.771C256.995 175.402 257.045 175.014 257.022 174.627C257.009 174.195 256.899 173.772 256.699 173.389C256.467 172.953 256.122 172.587 255.701 172.33C255.28 172.073 254.797 171.934 254.304 171.927H250.801H242.771C242.093 171.928 241.44 172.184 240.942 172.645C240.456 173.088 240.146 173.692 240.069 174.346C239.99 174.978 240.106 175.618 240.402 176.182C240.703 176.712 241.171 177.127 241.732 177.363C242.288 177.554 242.877 177.627 243.463 177.577H245.162H248.218L252.641 177.618L253.841 177.644C253.982 177.641 254.123 177.652 254.262 177.675C254.122 177.692 253.982 177.7 253.841 177.701H252.641L248.218 177.743H245.162H243.463C243.166 177.743 242.881 177.743 242.564 177.743C242.246 177.724 241.933 177.651 241.638 177.53C241.022 177.276 240.508 176.824 240.178 176.245C239.848 175.636 239.719 174.939 239.809 174.252C239.891 173.522 240.238 172.848 240.784 172.358C241.33 171.868 242.038 171.596 242.771 171.594H250.801H254.309C254.839 171.605 255.357 171.759 255.807 172.04C256.257 172.321 256.623 172.719 256.866 173.191C257.074 173.601 257.186 174.053 257.193 174.512C257.21 174.918 257.152 175.324 257.022 175.709C256.802 176.327 256.379 176.852 255.821 177.197C255.477 177.416 255.088 177.553 254.683 177.597C254.548 177.654 254.407 177.694 254.262 177.717Z" fill="#263238"/>
<path d="M321.66 165.156H306.276C305.242 165.156 304.228 165.438 303.342 165.973C302.456 166.507 301.733 167.274 301.251 168.189C300.854 168.947 300.634 169.784 300.605 170.639C300.576 171.494 300.74 172.344 301.085 173.126L307.113 186.845L322.517 186.694C322.517 186.694 325.797 169.303 321.66 165.156Z" fill="#FAFAFA"/>
<path d="M108.016 163.213L187.39 161.746L239.048 160.799L256.084 150.951C256.408 150.763 256.688 150.507 256.906 150.202C257.124 149.896 257.274 149.548 257.348 149.18C257.421 148.812 257.415 148.433 257.331 148.068C257.247 147.702 257.086 147.359 256.859 147.06L246.252 133.112C245.707 132.394 245.004 131.811 244.199 131.407C243.394 131.003 242.506 130.789 241.605 130.782L183.825 130.313C183.825 130.313 162.07 129.044 144.925 138.637C126.896 148.766 108.016 163.213 108.016 163.213Z" fill="#263238"/>
<path d="M144.398 131.75C144.398 131.75 148.379 133.566 145.791 135.246C143.202 136.926 102.988 162.298 102.988 162.298L93.7422 158.111C110.118 148.991 126.655 140.121 144.398 131.75Z" fill="#455A64"/>
<path d="M104.277 162.945L104.028 163.008L103.295 163.169L100.473 163.752C98.0199 164.241 94.4651 164.927 90.0788 165.687C81.2438 167.206 69.0204 168.975 55.4198 170.151C52.0157 170.447 48.6636 170.671 45.483 170.9C42.3024 171.129 39.1738 171.311 36.2323 171.576C30.3441 172.096 25.0743 172.95 20.7919 174.224C17.3881 175.172 14.1124 176.531 11.0371 178.272C9.93011 178.854 9.14016 179.427 8.58407 179.77L7.95004 180.17L7.72656 180.3C7.79325 180.247 7.86263 180.196 7.93444 180.15L8.55289 179.723C9.10378 179.364 9.88334 178.776 10.9851 178.162C14.0418 176.374 17.3102 174.976 20.714 174C25.0067 172.695 30.2921 171.815 36.1855 171.29C39.1323 171.009 42.2297 170.811 45.4415 170.598C48.6532 170.385 51.9741 170.135 55.373 169.838C68.9684 168.663 81.2075 166.925 90.0268 165.453C94.4391 164.719 97.9939 164.064 100.452 163.606L103.284 163.086L104.022 162.951L104.277 162.945Z" fill="#263238"/>
<path d="M327.818 198.526C327.818 198.604 322.528 198.661 316.006 198.661C309.483 198.661 304.188 198.604 304.188 198.526C304.188 198.448 309.478 198.391 316.006 198.391C322.533 198.391 327.818 198.453 327.818 198.526Z" fill="#263238"/>
<path d="M231.025 212.049C231.025 212.127 201.163 212.185 164.332 212.185C127.5 212.185 97.6328 212.127 97.6328 212.049C97.6328 211.971 127.49 211.914 164.332 211.914C201.173 211.914 231.025 211.976 231.025 212.049Z" fill="#263238"/>
<path d="M21.959 198.979C21.959 199.057 17.7338 199.114 12.5264 199.114C7.31894 199.114 3.09375 199.057 3.09375 198.979C3.09375 198.901 7.31894 198.844 12.5264 198.844C17.7338 198.844 21.959 198.906 21.959 198.979Z" fill="#263238"/>
<path d="M296.499 140.922C296.499 140.922 292.955 144.891 294.348 147.805C295.741 150.718 310.142 160.925 310.142 160.925L320.593 162.886L296.499 140.922Z" fill="#455A64"/>
<path d="M197.13 133.812L194.781 159.221L236.836 158.019L253.783 148.156L242.812 133.812H197.13Z" fill="#455A64"/>
<path d="M117.977 160.526C117.977 160.526 143.348 142.182 153.358 138.535C163.019 135.019 168.055 134.134 177.129 133.853C185.803 133.603 191.088 133.853 191.088 133.853L184.384 159.683L117.977 160.526Z" fill="#455A64"/>
<path d="M114.266 160.584C114.266 159.794 114.476 159.019 114.874 158.337C115.272 157.655 115.844 157.091 116.532 156.703L122.363 153.425C124.024 152.489 125.898 151.999 127.804 152C128.978 152.002 130.144 152.188 131.26 152.551C132.475 152.972 133.533 153.754 134.292 154.792C135.052 155.831 135.477 157.076 135.511 158.363C135.544 159.227 135.402 160.088 135.094 160.896C134.787 161.704 134.319 162.442 133.72 163.065C133.121 163.687 132.402 164.183 131.607 164.521C130.812 164.859 129.957 165.033 129.093 165.032H118.699C117.522 165.029 116.394 164.559 115.563 163.726C114.732 162.892 114.266 161.762 114.266 160.584Z" fill="#FF725E"/>
<path d="M114.264 160.592C114.264 160.592 114.264 160.789 114.331 161.154C114.41 161.689 114.586 162.206 114.851 162.678C115.271 163.421 115.89 164.032 116.639 164.442C117.105 164.686 117.612 164.845 118.135 164.91C118.732 164.954 119.33 164.966 119.928 164.946L128.82 164.915C129.663 164.937 130.503 164.8 131.294 164.509C132.129 164.196 132.889 163.71 133.523 163.083C134.158 162.455 134.652 161.7 134.974 160.867C135.301 159.989 135.434 159.05 135.363 158.115C135.294 157.194 135.023 156.299 134.569 155.495C134.116 154.69 133.491 153.995 132.739 153.459C132.013 152.957 131.195 152.603 130.333 152.419C127.963 151.858 125.474 152.097 123.254 153.1C122.584 153.402 121.971 153.782 121.363 154.11L119.627 155.077L116.639 156.732C115.887 157.137 115.266 157.749 114.851 158.495C114.589 158.968 114.413 159.485 114.331 160.019C114.279 160.384 114.284 160.581 114.269 160.581C114.249 160.391 114.249 160.199 114.269 160.009C114.327 159.463 114.489 158.933 114.747 158.448C115.155 157.671 115.782 157.031 116.55 156.607L119.518 154.916L121.243 153.933C121.846 153.6 122.459 153.215 123.145 152.892C125.407 151.85 127.951 151.594 130.374 152.164C131.268 152.342 132.118 152.695 132.874 153.204C133.66 153.762 134.313 154.486 134.788 155.325C135.262 156.164 135.545 157.097 135.618 158.058C135.694 159.034 135.556 160.014 135.213 160.93C134.877 161.8 134.361 162.588 133.698 163.243C133.035 163.898 132.24 164.404 131.367 164.728C130.546 165.024 129.677 165.163 128.805 165.139L119.913 165.113C119.308 165.126 118.702 165.107 118.099 165.055C117.552 164.979 117.023 164.803 116.54 164.535C115.774 164.106 115.146 163.467 114.731 162.694C114.477 162.208 114.317 161.678 114.258 161.133C114.246 160.953 114.247 160.772 114.264 160.592Z" fill="#263238"/>
<path d="M309.738 228.387C309.738 228.387 309.738 228.267 309.738 228.028C309.738 227.789 309.78 227.43 309.811 226.988C309.842 226.545 309.894 225.947 309.926 225.271C309.957 224.595 309.978 223.804 310.004 222.925C310.029 222.045 310.004 221.057 310.004 219.985C310.004 218.914 309.926 217.743 309.78 216.494C309.544 213.665 309.041 210.864 308.278 208.129C307.829 206.534 307.275 204.969 306.62 203.447C305.925 201.802 305.087 200.221 304.115 198.723C301.949 195.42 299.194 192.546 295.987 190.243C292.457 187.678 288.517 185.732 284.335 184.489C280.001 183.163 275.282 182.679 270.48 182.642C265.796 182.6 261.133 183.279 256.656 184.656C254.536 185.326 252.477 186.177 250.503 187.2C248.62 188.201 246.832 189.371 245.16 190.696C242.052 193.132 239.284 195.974 236.928 199.144C235.892 200.6 234.978 202.138 234.194 203.743C233.48 205.231 232.848 206.758 232.303 208.316C230.642 213.012 229.631 217.913 229.299 222.883C229.216 224.647 229.226 226.004 229.273 226.951C229.299 227.409 229.32 227.758 229.33 227.992C229.34 228.226 229.33 228.351 229.33 228.351C229.33 228.351 229.33 228.231 229.288 227.992C229.247 227.752 229.236 227.393 229.2 226.951C229.131 225.594 229.131 224.235 229.2 222.878C229.487 217.88 230.472 212.947 232.126 208.223C232.672 206.658 233.3 205.122 234.007 203.624C234.797 202.006 235.715 200.455 236.751 198.983C239.115 195.792 241.892 192.93 245.009 190.472C246.691 189.137 248.49 187.957 250.383 186.945C252.371 185.914 254.444 185.056 256.578 184.38C261.081 182.987 265.772 182.3 270.485 182.346C275.308 182.382 280.048 182.866 284.419 184.208C288.628 185.463 292.593 187.426 296.143 190.014C297.787 191.226 299.324 192.576 300.737 194.051C302.079 195.435 303.276 196.954 304.308 198.583C305.282 200.094 306.122 201.689 306.818 203.348C307.471 204.87 308.021 206.434 308.465 208.03C309.224 210.779 309.716 213.594 309.936 216.437C310.076 217.686 310.076 218.856 310.133 219.933C310.191 221.01 310.133 222.014 310.133 222.878C310.133 223.741 310.055 224.548 310.024 225.229C309.993 225.911 309.926 226.478 309.884 226.946C309.842 227.414 309.811 227.752 309.79 227.986C309.77 228.221 309.738 228.387 309.738 228.387Z" fill="white"/>
<path d="M183.266 163.211H183.147H182.793L181.437 163.242L176.453 163.331C172.243 163.409 166.433 163.565 160.009 163.742C153.586 163.918 147.77 164.038 143.561 164.069C141.456 164.069 139.751 164.069 138.572 164.069H137.215H136.867C136.826 164.077 136.783 164.077 136.742 164.069C136.783 164.063 136.826 164.063 136.867 164.069H137.215L138.572 164.038L143.555 163.95C147.765 163.872 153.581 163.716 160.004 163.544C166.428 163.372 172.243 163.242 176.453 163.211C178.532 163.211 180.262 163.211 181.437 163.211H182.793H183.147H183.266Z" fill="white"/>
<path d="M176.379 171.034C174.865 171.171 173.345 171.217 171.826 171.17C170.307 171.217 168.787 171.171 167.273 171.034C168.787 170.9 170.307 170.855 171.826 170.899C173.345 170.855 174.865 170.9 176.379 171.034Z" fill="white"/>
<path d="M178.054 143.197C178.08 143.264 172.431 145.621 165.431 148.456C158.43 151.292 152.734 153.539 152.703 153.466C152.672 153.393 158.326 151.042 165.327 148.207C172.327 145.371 178.023 143.129 178.054 143.197Z" fill="white"/>
<path d="M166.591 144.979C166.622 145.051 161.238 147.424 154.57 150.28C147.902 153.136 142.477 155.399 142.445 155.331C142.414 155.264 147.798 152.891 154.466 150.03C161.134 147.169 166.56 144.9 166.591 144.979Z" fill="white"/>
<path d="M239.234 142.213C239.265 142.28 233.611 144.637 226.61 147.472C219.61 150.308 213.914 152.55 213.883 152.482C213.852 152.415 219.506 150.058 226.512 147.223C233.517 144.387 239.193 142.14 239.234 142.213Z" fill="white"/>
<path d="M227.755 143.985C227.786 144.058 222.402 146.43 215.739 149.286C209.077 152.142 203.641 154.406 203.61 154.338C203.578 154.27 208.962 151.898 215.63 149.037C222.298 146.175 227.755 143.938 227.755 143.985Z" fill="white"/>
<path d="M240.339 163.189C240.339 163.262 229.098 163.392 215.232 163.475C201.366 163.558 190.125 163.563 190.125 163.475C190.125 163.387 201.361 163.272 215.232 163.194C229.103 163.116 240.339 163.132 240.339 163.189Z" fill="white"/>
<path d="M252.795 170.604C252.795 170.676 249.645 170.765 245.753 170.801C241.86 170.838 238.711 170.801 238.711 170.734C238.711 170.666 241.86 170.567 245.753 170.531C249.645 170.494 252.795 170.526 252.795 170.604Z" fill="white"/>
<path d="M37.5511 166.758C37.4519 166.791 37.3489 166.812 37.2445 166.82L36.3662 166.935C35.9816 166.976 35.5139 167.034 34.9734 167.127C34.4329 167.221 33.8145 167.288 33.1388 167.424C31.7824 167.663 30.1765 168.017 28.4199 168.464C26.5171 168.99 24.642 169.611 22.8019 170.327C20.8478 171.102 19.0341 171.95 17.4126 172.787C15.7911 173.625 14.3879 174.468 13.255 175.222C12.6677 175.581 12.1584 175.945 11.6959 176.263C11.2333 176.58 10.8539 176.84 10.5421 177.069L9.81974 177.589C9.73699 177.653 9.64822 177.709 9.55469 177.756C9.62356 177.679 9.70019 177.609 9.78336 177.548L10.4798 176.991C10.7812 176.752 11.1554 176.471 11.6075 176.143C12.0597 175.815 12.5534 175.451 13.1666 175.102C14.31 174.327 15.7236 173.479 17.3243 172.611C20.8286 170.735 24.5403 169.277 28.3836 168.267C30.1505 167.809 31.7668 167.471 33.1336 167.257C33.8145 167.132 34.4329 167.07 34.9786 166.997C35.5243 166.924 36.018 166.877 36.3766 166.851L37.2653 166.784C37.3598 166.768 37.4554 166.76 37.5511 166.758Z" fill="white"/>
<path d="M130.357 154.474C130.357 154.474 130.206 154.272 129.837 153.991C129.339 153.609 128.746 153.369 128.122 153.299C127.187 153.221 126.245 153.321 125.347 153.595C122.182 154.393 119.243 155.908 116.756 158.023C115.519 159.063 114.865 159.828 114.828 159.791C114.954 159.593 115.1 159.408 115.265 159.24C115.694 158.762 116.149 158.307 116.626 157.877C118.214 156.461 120.018 155.309 121.969 154.464C123.04 153.995 124.152 153.624 125.29 153.356C126.217 153.086 127.188 153.001 128.148 153.106C128.8 153.196 129.411 153.476 129.905 153.913C130.036 154.03 130.153 154.163 130.253 154.308C130.336 154.412 130.367 154.469 130.357 154.474Z" fill="white"/>
<path d="M297.68 140.733C296.955 140.909 296.211 140.986 295.466 140.962C294.591 140.936 293.721 140.828 292.867 140.64C291.74 140.374 290.633 140.027 289.557 139.599C288.356 139.147 287.078 138.559 285.695 137.981L283.539 137.112C282.795 136.816 282.011 136.561 281.221 136.27C277.752 135.094 274.215 134.13 270.629 133.382C264.11 132.024 257.491 131.203 250.839 130.927C249.56 130.859 248.407 130.859 247.388 130.833H244.789L243.147 130.87H242.57C242.618 130.86 242.668 130.86 242.716 130.87L243.142 130.838L244.789 130.75L247.388 130.703C248.427 130.703 249.56 130.703 250.839 130.766C257.51 130.984 264.149 131.784 270.681 133.159C274.274 133.898 277.817 134.864 281.288 136.051C282.078 136.343 282.847 136.603 283.611 136.904L285.768 137.794C287.15 138.392 288.424 138.975 289.614 139.438C290.676 139.867 291.769 140.214 292.883 140.478C293.725 140.68 294.585 140.802 295.45 140.843C295.997 140.861 296.544 140.842 297.087 140.785L297.508 140.733H297.68Z" fill="#263238"/>
</svg>
