<svg width="20" height="19" viewBox="0 0 20 19" fill="none" xmlns="http://www.w3.org/2000/svg">
<path d="M19.7412 17.9667L14.844 13.1395C16.1264 11.7438 16.9144 9.89795 16.9144 7.86681C16.9138 3.52181 13.341 0 8.93344 0C4.52588 0 0.953125 3.52181 0.953125 7.86681C0.953125 12.2118 4.52588 15.7336 8.93344 15.7336C10.8378 15.7336 12.5845 15.0738 13.9564 13.9769L18.8727 18.8231C19.1122 19.0595 19.5011 19.0595 19.7407 18.8231C19.9808 18.5867 19.9808 18.2031 19.7412 17.9667ZM8.93344 14.5233C5.20417 14.5233 2.18101 11.5431 2.18101 7.86681C2.18101 4.19054 5.20417 1.21035 8.93344 1.21035C12.6627 1.21035 15.6859 4.19054 15.6859 7.86681C15.6859 11.5431 12.6627 14.5233 8.93344 14.5233Z" fill="#707070"/>
</svg>
