<svg width="77" height="104" viewBox="0 0 77 104" fill="none" xmlns="http://www.w3.org/2000/svg">
<path d="M30.3317 43.3315C42.2974 43.3315 51.9975 33.6314 51.9975 21.6657C51.9975 9.70008 42.2974 0 30.3317 0C18.3661 0 8.66602 9.70008 8.66602 21.6657C8.66602 33.6314 18.3661 43.3315 30.3317 43.3315Z" fill="url(#paint0_linear_7071_3416)"/>
<path d="M24.518 87.4006C20.772 79.9053 23.0014 69.7192 29.6095 64.2117C32.669 61.6886 36.5157 60.3172 40.4813 60.3357C44.5498 60.4342 48.521 61.5993 51.9978 63.7145C54.6664 62.1342 57.6048 61.0621 60.6641 60.5524V56.3276C60.6603 52.881 59.2896 49.5768 56.8525 47.1397C54.4154 44.7026 51.1111 43.3319 47.6646 43.3281H12.9994C9.55292 43.3319 6.24862 44.7026 3.81156 47.1397C1.3745 49.5768 0.00372768 52.881 0 56.3276V90.9927C0 92.142 0.456527 93.2441 1.26915 94.0567C2.08177 94.8694 3.18392 95.3259 4.33315 95.3259H30.8737C28.308 93.0761 26.1568 90.3937 24.518 87.4006Z" fill="url(#paint1_linear_7071_3416)"/>
<path d="M71.6141 67.5418C69.1594 65.4911 62.4592 61.6736 51.9979 68.8309C41.5345 61.6725 34.8354 65.4933 32.3818 67.5418C27.3434 71.746 25.5571 79.7829 28.3942 85.4658C32.944 94.5654 50.2864 103.391 51.0219 103.763C51.3243 103.915 51.6582 103.994 51.9969 103.994C52.3355 103.994 52.6694 103.915 52.9718 103.763C53.7074 103.391 71.0497 94.5643 75.5995 85.4658C78.441 79.7861 76.6525 71.746 71.6141 67.5418ZM64.9974 82.3297C64.1404 82.3297 63.3026 82.0756 62.59 81.5994C61.8774 81.1233 61.322 80.4466 60.9941 79.6548C60.6661 78.863 60.5803 77.9917 60.7475 77.1512C60.9147 76.3106 61.3274 75.5386 61.9334 74.9326C62.5394 74.3266 63.3115 73.9139 64.152 73.7467C64.9926 73.5795 65.8638 73.6653 66.6556 73.9932C67.4474 74.3212 68.1241 74.8766 68.6003 75.5892C69.0764 76.3018 69.3305 77.1395 69.3305 77.9966C69.3305 79.1458 68.874 80.2479 68.0614 81.0606C67.2488 81.8732 66.1466 82.3297 64.9974 82.3297Z" fill="url(#paint2_linear_7071_3416)"/>
<path d="M71.2935 67.9255L71.2938 67.9257C76.1626 71.9885 77.8851 79.7797 75.1523 85.2421L75.1523 85.2422C74.0531 87.4403 72.1647 89.6503 69.9078 91.7443C67.6553 93.8343 65.06 95.7865 62.5746 97.473C57.6057 100.845 53.1092 103.133 52.7468 103.316C52.5142 103.433 52.2574 103.494 51.9969 103.494C51.7364 103.494 51.4795 103.433 51.2469 103.316C50.8845 103.133 46.388 100.845 41.4192 97.4734C38.9337 95.7869 36.3384 93.8348 34.0859 91.7448C31.8291 89.6508 29.9408 87.4407 28.8416 85.2425C26.1127 79.7765 27.8334 71.9883 32.7021 67.9257L32.7022 67.9256C33.8768 66.9449 36.0731 65.5355 39.2341 65.2314C42.3874 64.9281 46.5631 65.7186 51.7156 69.2435L51.998 69.4367L52.2803 69.2435C57.4317 65.7191 61.6072 64.9281 64.7607 65.231C67.9217 65.5348 70.1185 66.9439 71.2935 67.9255ZM62.3122 82.0152C63.107 82.5462 64.0415 82.8297 64.9974 82.8297C66.2792 82.8297 67.5085 82.3205 68.4149 81.4141C69.3213 80.5077 69.8305 79.2784 69.8305 77.9966C69.8305 77.0407 69.5471 76.1062 69.016 75.3114C68.4849 74.5166 67.7301 73.8971 66.8469 73.5313C65.9638 73.1655 64.992 73.0698 64.0545 73.2563C63.1169 73.4428 62.2558 73.9031 61.5798 74.579C60.9039 75.2549 60.4436 76.1161 60.2571 77.0537C60.0706 77.9912 60.1663 78.963 60.5321 79.8461C60.8979 80.7293 61.5174 81.4841 62.3122 82.0152Z" stroke="black" stroke-opacity="0.15"/>
<defs>
<linearGradient id="paint0_linear_7071_3416" x1="30.3317" y1="43.3315" x2="30.3317" y2="0" gradientUnits="userSpaceOnUse">
<stop stop-color="#00B59C"/>
<stop offset="1" stop-color="#9CFFAC"/>
</linearGradient>
<linearGradient id="paint1_linear_7071_3416" x1="30.332" y1="95.3259" x2="30.332" y2="43.3281" gradientUnits="userSpaceOnUse">
<stop stop-color="#00B59C"/>
<stop offset="1" stop-color="#9CFFAC"/>
</linearGradient>
<linearGradient id="paint2_linear_7071_3416" x1="51.9981" y1="103.994" x2="51.9981" y2="64.6719" gradientUnits="userSpaceOnUse">
<stop stop-color="#00B59C"/>
<stop offset="1" stop-color="#9CFFAC"/>
</linearGradient>
</defs>
</svg>
