<svg width="67" height="67" viewBox="0 0 67 67" fill="none" xmlns="http://www.w3.org/2000/svg">
<path d="M19.8452 28.8046L19.8428 28.8472C19.6777 31.7386 21.2973 34.4472 23.9699 35.7458L23.9973 35.7592C24.9396 36.2099 25.7119 36.953 26.1992 37.8769L26.2101 37.897C27.5568 40.4613 30.3422 42.0157 33.3115 41.8598L33.3566 41.8573C34.4334 41.797 35.5024 42.0748 36.4136 42.6522C38.9279 44.2248 42.1195 44.2248 44.6338 42.6522C45.545 42.0748 46.6139 41.797 47.6908 41.8573L47.7359 41.8598C50.7003 42.0169 53.4893 40.4613 54.839 37.8928L54.8457 37.8788C55.3348 36.9524 56.109 36.208 57.0543 35.7567L57.0762 35.7458C59.7489 34.4466 61.369 31.7386 61.2034 28.8466L61.2009 28.8064C61.1461 27.788 61.4287 26.78 62.0062 25.9389C63.6684 23.5147 63.6684 20.3182 62.0068 17.8934C61.43 17.0529 61.1461 16.0455 61.2009 15.0271L61.2034 14.9844C61.369 12.0925 59.7489 9.3845 57.0738 8.08471L57.0494 8.07253C56.109 7.62302 55.3385 6.88359 54.8506 5.96204L54.8366 5.93463C53.4893 3.37038 50.7003 1.8166 47.7359 1.97192L47.6902 1.97435C46.6139 2.03465 45.545 1.75691 44.6344 1.1795H44.6332C42.1189 -0.393165 38.9273 -0.393165 36.413 1.1795C35.5018 1.7563 34.4328 2.03404 33.3559 1.97374L33.3109 1.97131C30.3458 1.81416 27.5574 3.36977 26.2108 5.93341L26.2004 5.9523C25.7125 6.87811 24.9396 7.6218 23.9961 8.07313L23.9705 8.08532C21.2979 9.38389 19.6777 12.0925 19.8434 14.9844L19.8458 15.0246C19.9006 16.043 19.618 17.0511 19.0406 17.8916C17.3784 20.3164 17.3784 23.5135 19.0406 25.9376C19.6174 26.7782 19.9006 27.7862 19.8452 28.8046ZM21.0938 19.3083C21.9849 18.011 22.4216 16.4554 22.3364 14.8839L22.3339 14.8413C22.2462 12.9251 23.3219 11.1454 25.0584 10.331L25.0797 10.3207C26.5043 9.63849 27.6707 8.51533 28.4065 7.11809L28.4187 7.09494C29.3134 5.39072 31.1876 4.35771 33.1781 4.46369L33.222 4.46552C34.8147 4.55505 36.3953 4.14453 37.7426 3.29059C39.4438 2.22651 41.6024 2.22651 43.3035 3.29059C44.6508 4.14331 46.2314 4.55444 47.8236 4.46613L47.8674 4.46369C49.8677 4.35893 51.7327 5.39072 52.625 7.09007L52.6415 7.12113C53.3772 8.51655 54.5424 9.63788 55.9652 10.3194L55.9859 10.3298C57.7499 11.1874 58.8206 12.958 58.7128 14.8419L58.7104 14.8864C58.6251 16.4578 59.0624 18.0128 59.9535 19.3102C61.0304 20.881 61.0298 22.9519 59.9523 24.5221C59.0618 25.8201 58.6251 27.3757 58.7104 28.9471L58.7128 28.9892C58.8206 30.8731 57.7499 32.6443 55.9853 33.5025L55.9671 33.511C54.5412 34.1944 53.3736 35.3188 52.6372 36.7185L52.6281 36.7367C51.7327 38.441 49.8616 39.4746 47.868 39.368L47.8248 39.3656C46.232 39.2766 44.6508 39.6878 43.3029 40.5411C41.6024 41.6046 39.4438 41.6046 37.7432 40.5411C36.5177 39.7645 35.0961 39.3528 33.6453 39.354C33.5046 39.354 33.3633 39.3576 33.222 39.3656L33.1781 39.3674C31.2138 39.4922 29.3555 38.4641 28.4169 36.7337L28.4041 36.7099C27.6695 35.3151 26.5049 34.1944 25.0827 33.5128L25.0596 33.5013C23.2951 32.6437 22.2243 30.8725 22.3327 28.9892L22.3351 28.9447C22.4198 27.3733 21.9825 25.8176 21.092 24.5209C20.0157 22.9501 20.0163 20.8792 21.0938 19.3096V19.3083Z" fill="url(#paint0_linear_7071_3348)"/>
<path d="M32.4739 34.8133C33.058 35.1782 33.8273 34.9997 34.1922 34.4156L48.9692 10.7428C49.2104 10.3646 49.2305 9.88586 49.021 9.48934C48.8114 9.09222 48.4046 8.83884 47.9563 8.82483C47.508 8.81082 47.0865 9.03862 46.8526 9.42173L32.0762 33.0945C31.7113 33.6792 31.8892 34.4485 32.4739 34.8133Z" fill="url(#paint1_linear_7071_3348)"/>
<path d="M33.7986 21.9796C36.8361 21.9796 39.3078 19.1614 39.3078 15.6975C39.3078 12.2336 36.8361 9.41602 33.7986 9.41602C30.7611 9.41602 28.29 12.2336 28.29 15.6975C28.29 19.1614 30.7611 21.9796 33.7986 21.9796ZM33.7986 11.9108C35.4608 11.9108 36.813 13.6096 36.813 15.6975C36.813 17.7855 35.4608 19.4848 33.7986 19.4848C32.137 19.4848 30.7849 17.7849 30.7849 15.6975C30.7849 13.6102 32.137 11.9108 33.7986 11.9108Z" fill="url(#paint2_linear_7071_3348)"/>
<path d="M41.7393 28.137C41.7393 31.6008 44.2103 34.4185 47.2478 34.4185C50.2853 34.4185 52.757 31.6002 52.757 28.137C52.757 24.6743 50.286 21.8555 47.2484 21.8555C44.2103 21.8555 41.7393 24.6725 41.7393 28.137ZM50.2622 28.137C50.2622 30.2249 48.91 31.9237 47.2478 31.9237C45.5862 31.9237 44.2341 30.2249 44.2341 28.137C44.2341 26.049 45.5862 24.3503 47.2478 24.3503C48.91 24.3503 50.2622 26.0478 50.2622 28.137Z" fill="url(#paint3_linear_7071_3348)"/>
<path d="M66.838 48.85C65.1861 45.9185 61.5231 44.802 58.5172 46.3138L48.7457 50.9306C47.3965 48.4218 44.8085 46.8248 41.9604 46.7444L32.9399 46.4959C31.5116 46.4551 30.1101 46.0927 28.8401 45.4373L27.9222 44.9616C23.2225 42.5118 17.6207 42.5179 12.9259 44.9774L12.9832 42.898C13.002 42.2091 12.4593 41.6354 11.7705 41.6165L1.8789 41.3442C1.19002 41.3253 0.616873 41.868 0.597992 42.5569L0.000478134 64.2641C-0.0184036 64.953 0.524292 65.5268 1.21317 65.5457L11.1047 65.8179H11.1394C11.8149 65.8173 12.3674 65.2795 12.3862 64.6046L12.4143 63.5661L14.984 62.1902C15.9926 61.6475 17.1724 61.5184 18.2743 61.8302L33.619 66.1371C33.6458 66.145 33.6726 66.1511 33.7 66.1572C34.8092 66.3892 35.9396 66.5056 37.0731 66.505C39.4729 66.5062 41.8447 65.9891 44.0258 64.9877C44.0794 64.9634 44.1312 64.9354 44.1805 64.9037L66.4293 50.5116C66.9841 50.1534 67.1632 49.4244 66.838 48.85ZM2.5288 63.0856L3.05748 43.8732L10.4554 44.0766L9.92615 63.2896L2.5288 63.0856ZM42.9015 62.7585C40.1916 63.9815 37.1651 64.319 34.2524 63.7233L18.9485 59.4286C17.2267 58.9413 15.3823 59.1436 13.8066 59.9908L12.4934 60.6937L12.8455 47.9193C17.0062 45.1516 22.343 44.8672 26.7747 47.1762L27.6926 47.6519C29.2969 48.4803 31.0669 48.9377 32.8716 48.9895L41.8922 49.238C44.426 49.3105 46.5779 51.1146 47.092 53.5972L33.6555 53.2275C32.9667 53.2086 32.3935 53.7513 32.3746 54.4402C32.3558 55.1291 32.8984 55.7028 33.5873 55.7217L48.4155 56.1298H48.4509C49.1257 56.1292 49.6782 55.5914 49.697 54.9165C49.7123 54.3744 49.6715 53.8317 49.5764 53.2982L59.5971 48.5625L59.6264 48.5485C61.048 47.8286 62.7674 48.0691 63.9363 49.1515L42.9015 62.7585Z" fill="url(#paint4_linear_7071_3348)"/>
<defs>
<linearGradient id="paint0_linear_7071_3348" x1="40.5233" y1="-0.981349" x2="40.5233" y2="43.9846" gradientUnits="userSpaceOnUse">
<stop stop-color="#00EFD1"/>
<stop offset="1" stop-color="#00ACEA"/>
</linearGradient>
<linearGradient id="paint1_linear_7071_3348" x1="40.5259" y1="8.23811" x2="40.5259" y2="35.094" gradientUnits="userSpaceOnUse">
<stop stop-color="#00EFD1"/>
<stop offset="1" stop-color="#00ACEA"/>
</linearGradient>
<linearGradient id="paint2_linear_7071_3348" x1="33.7989" y1="9.13473" x2="33.7989" y2="22.0235" gradientUnits="userSpaceOnUse">
<stop stop-color="#00EFD1"/>
<stop offset="1" stop-color="#00ACEA"/>
</linearGradient>
<linearGradient id="paint3_linear_7071_3348" x1="47.2481" y1="21.5742" x2="47.2481" y2="34.4623" gradientUnits="userSpaceOnUse">
<stop stop-color="#00EFD1"/>
<stop offset="1" stop-color="#00ACEA"/>
</linearGradient>
<linearGradient id="paint4_linear_7071_3348" x1="33.4998" y1="40.7804" x2="33.4998" y2="66.5927" gradientUnits="userSpaceOnUse">
<stop stop-color="#00EFD1"/>
<stop offset="1" stop-color="#00ACEA"/>
</linearGradient>
</defs>
</svg>
