<svg width="202" height="157" viewBox="0 0 202 157" fill="none" xmlns="http://www.w3.org/2000/svg">
<path d="M63 130C53.9689 130 46.0796 127.575 39.3322 122.726C32.5848 117.877 27.3426 110.603 23.6055 100.905C19.8685 91.1032 18 79.1349 18 65C18 50.8651 19.8685 38.9484 23.6055 29.25C27.3426 19.4484 32.5848 12.123 39.3322 7.27381C46.0796 2.4246 53.9689 0 63 0C72.0311 0 79.9204 2.4246 86.6678 7.27381C93.4152 12.123 98.6574 19.4484 102.394 29.25C106.131 38.9484 108 50.8651 108 65C108 79.1349 106.131 91.1032 102.394 100.905C98.6574 110.603 93.4152 117.877 86.6678 122.726C79.9204 127.575 72.0311 130 63 130ZM63 126.44C70.7855 126.44 76.91 122.675 81.3737 115.143C85.8374 107.611 88.0692 95.8492 88.0692 79.8571V49.9881C88.0692 34.0992 85.8374 22.3889 81.3737 14.8571C76.91 7.3254 70.7855 3.55952 63 3.55952C55.2145 3.55952 49.09 7.3254 44.6263 14.8571C40.1626 22.3889 37.9308 34.0992 37.9308 49.9881V79.8571C37.9308 95.746 40.1626 107.508 44.6263 115.143C49.09 122.675 55.2145 126.44 63 126.44Z" fill="#004393"/>
<rect width="139" height="70" transform="translate(63 87)" fill="white"/>
<path d="M81.946 112.606H76.942L76.114 115H73.468L77.986 102.418H80.92L85.438 115H82.774L81.946 112.606ZM81.262 110.59L79.444 105.334L77.626 110.59H81.262ZM96.9008 105.028V115H94.3628V113.74C94.0388 114.172 93.6128 114.514 93.0848 114.766C92.5688 115.006 92.0048 115.126 91.3928 115.126C90.6128 115.126 89.9228 114.964 89.3228 114.64C88.7228 114.304 88.2488 113.818 87.9008 113.182C87.5648 112.534 87.3968 111.766 87.3968 110.878V105.028H89.9168V110.518C89.9168 111.31 90.1148 111.922 90.5108 112.354C90.9068 112.774 91.4468 112.984 92.1308 112.984C92.8268 112.984 93.3728 112.774 93.7688 112.354C94.1648 111.922 94.3628 111.31 94.3628 110.518V105.028H96.9008ZM102.681 107.098V111.922C102.681 112.258 102.759 112.504 102.915 112.66C103.083 112.804 103.359 112.876 103.743 112.876H104.913V115H103.329C101.205 115 100.143 113.968 100.143 111.904V107.098H98.9552V105.028H100.143V102.562H102.681V105.028H104.913V107.098H102.681ZM111.514 115.162C110.554 115.162 109.69 114.952 108.922 114.532C108.154 114.1 107.548 113.494 107.104 112.714C106.672 111.934 106.456 111.034 106.456 110.014C106.456 108.994 106.678 108.094 107.122 107.314C107.578 106.534 108.196 105.934 108.976 105.514C109.756 105.082 110.626 104.866 111.586 104.866C112.546 104.866 113.416 105.082 114.196 105.514C114.976 105.934 115.588 106.534 116.032 107.314C116.488 108.094 116.716 108.994 116.716 110.014C116.716 111.034 116.482 111.934 116.014 112.714C115.558 113.494 114.934 114.1 114.142 114.532C113.362 114.952 112.486 115.162 111.514 115.162ZM111.514 112.966C111.97 112.966 112.396 112.858 112.792 112.642C113.2 112.414 113.524 112.078 113.764 111.634C114.004 111.19 114.124 110.65 114.124 110.014C114.124 109.066 113.872 108.34 113.368 107.836C112.876 107.32 112.27 107.062 111.55 107.062C110.83 107.062 110.224 107.32 109.732 107.836C109.252 108.34 109.012 109.066 109.012 110.014C109.012 110.962 109.246 111.694 109.714 112.21C110.194 112.714 110.794 112.966 111.514 112.966ZM127.911 115.126C127.035 115.126 126.243 114.976 125.535 114.676C124.839 114.376 124.287 113.944 123.879 113.38C123.471 112.816 123.261 112.15 123.249 111.382H125.949C125.985 111.898 126.165 112.306 126.489 112.606C126.825 112.906 127.281 113.056 127.857 113.056C128.445 113.056 128.907 112.918 129.243 112.642C129.579 112.354 129.747 111.982 129.747 111.526C129.747 111.154 129.633 110.848 129.405 110.608C129.177 110.368 128.889 110.182 128.541 110.05C128.205 109.906 127.737 109.75 127.137 109.582C126.321 109.342 125.655 109.108 125.139 108.88C124.635 108.64 124.197 108.286 123.825 107.818C123.465 107.338 123.285 106.702 123.285 105.91C123.285 105.166 123.471 104.518 123.843 103.966C124.215 103.414 124.737 102.994 125.409 102.706C126.081 102.406 126.849 102.256 127.713 102.256C129.009 102.256 130.059 102.574 130.863 103.21C131.679 103.834 132.129 104.71 132.213 105.838H129.441C129.417 105.406 129.231 105.052 128.883 104.776C128.547 104.488 128.097 104.344 127.533 104.344C127.041 104.344 126.645 104.47 126.345 104.722C126.057 104.974 125.913 105.34 125.913 105.82C125.913 106.156 126.021 106.438 126.237 106.666C126.465 106.882 126.741 107.062 127.065 107.206C127.401 107.338 127.869 107.494 128.469 107.674C129.285 107.914 129.951 108.154 130.467 108.394C130.983 108.634 131.427 108.994 131.799 109.474C132.171 109.954 132.357 110.584 132.357 111.364C132.357 112.036 132.183 112.66 131.835 113.236C131.487 113.812 130.977 114.274 130.305 114.622C129.633 114.958 128.835 115.126 127.911 115.126ZM134.254 109.996C134.254 109 134.458 108.118 134.866 107.35C135.286 106.57 135.85 105.964 136.558 105.532C137.266 105.1 138.046 104.884 138.898 104.884C139.606 104.884 140.23 105.022 140.77 105.298C141.322 105.562 141.766 105.904 142.102 106.324V105.028H144.64V119.752H142.102V113.632C141.766 114.064 141.316 114.424 140.752 114.712C140.188 115 139.552 115.144 138.844 115.144C138.004 115.144 137.23 114.928 136.522 114.496C135.826 114.052 135.274 113.44 134.866 112.66C134.458 111.88 134.254 110.992 134.254 109.996ZM142.102 110.014C142.102 109.402 141.976 108.874 141.724 108.43C141.472 107.986 141.142 107.65 140.734 107.422C140.338 107.194 139.912 107.08 139.456 107.08C139.012 107.08 138.586 107.194 138.178 107.422C137.782 107.65 137.458 107.986 137.206 108.43C136.954 108.862 136.828 109.384 136.828 109.996C136.828 110.608 136.954 111.142 137.206 111.598C137.458 112.042 137.782 112.378 138.178 112.606C138.586 112.834 139.012 112.948 139.456 112.948C139.912 112.948 140.338 112.834 140.734 112.606C141.142 112.378 141.472 112.042 141.724 111.598C141.976 111.154 142.102 110.626 142.102 110.014ZM156.875 105.028V115H154.337V113.74C154.013 114.172 153.587 114.514 153.059 114.766C152.543 115.006 151.979 115.126 151.367 115.126C150.587 115.126 149.897 114.964 149.297 114.64C148.697 114.304 148.223 113.818 147.875 113.182C147.539 112.534 147.371 111.766 147.371 110.878V105.028H149.891V110.518C149.891 111.31 150.089 111.922 150.485 112.354C150.881 112.774 151.421 112.984 152.105 112.984C152.801 112.984 153.347 112.774 153.743 112.354C154.139 111.922 154.337 111.31 154.337 110.518V105.028H156.875ZM159.074 109.978C159.074 108.97 159.272 108.076 159.668 107.296C160.076 106.516 160.622 105.916 161.306 105.496C162.002 105.076 162.776 104.866 163.628 104.866C164.372 104.866 165.02 105.016 165.572 105.316C166.136 105.616 166.586 105.994 166.922 106.45V105.028H169.46V115H166.922V113.542C166.598 114.01 166.148 114.4 165.572 114.712C165.008 115.012 164.354 115.162 163.61 115.162C162.77 115.162 162.002 114.946 161.306 114.514C160.622 114.082 160.076 113.476 159.668 112.696C159.272 111.904 159.074 110.998 159.074 109.978ZM166.922 110.014C166.922 109.402 166.802 108.88 166.562 108.448C166.322 108.004 165.998 107.668 165.59 107.44C165.182 107.2 164.744 107.08 164.276 107.08C163.808 107.08 163.376 107.194 162.98 107.422C162.584 107.65 162.26 107.986 162.008 108.43C161.768 108.862 161.648 109.378 161.648 109.978C161.648 110.578 161.768 111.106 162.008 111.562C162.26 112.006 162.584 112.348 162.98 112.588C163.388 112.828 163.82 112.948 164.276 112.948C164.744 112.948 165.182 112.834 165.59 112.606C165.998 112.366 166.322 112.03 166.562 111.598C166.802 111.154 166.922 110.626 166.922 110.014ZM174.801 106.576C175.125 106.048 175.545 105.634 176.061 105.334C176.589 105.034 177.189 104.884 177.861 104.884V107.53H177.195C176.403 107.53 175.803 107.716 175.395 108.088C174.999 108.46 174.801 109.108 174.801 110.032V115H172.281V105.028H174.801V106.576ZM189.188 109.798C189.188 110.158 189.164 110.482 189.116 110.77H181.826C181.886 111.49 182.138 112.054 182.582 112.462C183.026 112.87 183.572 113.074 184.22 113.074C185.156 113.074 185.822 112.672 186.218 111.868H188.936C188.648 112.828 188.096 113.62 187.28 114.244C186.464 114.856 185.462 115.162 184.274 115.162C183.314 115.162 182.45 114.952 181.682 114.532C180.926 114.1 180.332 113.494 179.9 112.714C179.48 111.934 179.27 111.034 179.27 110.014C179.27 108.982 179.48 108.076 179.9 107.296C180.32 106.516 180.908 105.916 181.664 105.496C182.42 105.076 183.29 104.866 184.274 104.866C185.222 104.866 186.068 105.07 186.812 105.478C187.568 105.886 188.15 106.468 188.558 107.224C188.978 107.968 189.188 108.826 189.188 109.798ZM186.578 109.078C186.566 108.43 186.332 107.914 185.876 107.53C185.42 107.134 184.862 106.936 184.202 106.936C183.578 106.936 183.05 107.128 182.618 107.512C182.198 107.884 181.94 108.406 181.844 109.078H186.578ZM80.074 142.126C78.898 142.126 77.818 141.85 76.834 141.298C75.85 140.746 75.07 139.984 74.494 139.012C73.918 138.028 73.63 136.918 73.63 135.682C73.63 134.458 73.918 133.36 74.494 132.388C75.07 131.404 75.85 130.636 76.834 130.084C77.818 129.532 78.898 129.256 80.074 129.256C81.262 129.256 82.342 129.532 83.314 130.084C84.298 130.636 85.072 131.404 85.636 132.388C86.212 133.36 86.5 134.458 86.5 135.682C86.5 136.918 86.212 138.028 85.636 139.012C85.072 139.984 84.298 140.746 83.314 141.298C82.33 141.85 81.25 142.126 80.074 142.126ZM80.074 139.876C80.83 139.876 81.496 139.708 82.072 139.372C82.648 139.024 83.098 138.532 83.422 137.896C83.746 137.26 83.908 136.522 83.908 135.682C83.908 134.842 83.746 134.11 83.422 133.486C83.098 132.85 82.648 132.364 82.072 132.028C81.496 131.692 80.83 131.524 80.074 131.524C79.318 131.524 78.646 131.692 78.058 132.028C77.482 132.364 77.032 132.85 76.708 133.486C76.384 134.11 76.222 134.842 76.222 135.682C76.222 136.522 76.384 137.26 76.708 137.896C77.032 138.532 77.482 139.024 78.058 139.372C78.646 139.708 79.318 139.876 80.074 139.876ZM93.3068 134.098H91.5608V142H89.0048V134.098H87.8708V132.028H89.0048V131.524C89.0048 130.3 89.3528 129.4 90.0488 128.824C90.7448 128.248 91.7948 127.978 93.1988 128.014V130.138C92.5868 130.126 92.1608 130.228 91.9208 130.444C91.6808 130.66 91.5608 131.05 91.5608 131.614V132.028H93.3068V134.098ZM99.8719 134.098H98.1259V142H95.5699V134.098H94.4359V132.028H95.5699V131.524C95.5699 130.3 95.9179 129.4 96.6139 128.824C97.3099 128.248 98.3599 127.978 99.7639 128.014V130.138C99.1519 130.126 98.7259 130.228 98.4859 130.444C98.2459 130.66 98.1259 131.05 98.1259 131.614V132.028H99.8719V134.098ZM105.902 135.7C105.902 134.464 106.178 133.36 106.73 132.388C107.294 131.404 108.056 130.642 109.016 130.102C109.988 129.55 111.074 129.274 112.274 129.274C113.678 129.274 114.908 129.634 115.964 130.354C117.02 131.074 117.758 132.07 118.178 133.342H115.28C114.992 132.742 114.584 132.292 114.056 131.992C113.54 131.692 112.94 131.542 112.256 131.542C111.524 131.542 110.87 131.716 110.294 132.064C109.73 132.4 109.286 132.88 108.962 133.504C108.65 134.128 108.494 134.86 108.494 135.7C108.494 136.528 108.65 137.26 108.962 137.896C109.286 138.52 109.73 139.006 110.294 139.354C110.87 139.69 111.524 139.858 112.256 139.858C112.94 139.858 113.54 139.708 114.056 139.408C114.584 139.096 114.992 138.64 115.28 138.04H118.178C117.758 139.324 117.02 140.326 115.964 141.046C114.92 141.754 113.69 142.108 112.274 142.108C111.074 142.108 109.988 141.838 109.016 141.298C108.056 140.746 107.294 139.984 106.73 139.012C106.178 138.04 105.902 136.936 105.902 135.7ZM126.306 131.884C127.062 131.884 127.734 132.052 128.322 132.388C128.91 132.712 129.366 133.198 129.69 133.846C130.026 134.482 130.194 135.25 130.194 136.15V142H127.674V136.492C127.674 135.7 127.476 135.094 127.08 134.674C126.684 134.242 126.144 134.026 125.46 134.026C124.764 134.026 124.212 134.242 123.804 134.674C123.408 135.094 123.21 135.7 123.21 136.492V142H120.69V128.68H123.21V133.27C123.534 132.838 123.966 132.502 124.506 132.262C125.046 132.01 125.646 131.884 126.306 131.884ZM132.303 136.978C132.303 135.97 132.501 135.076 132.897 134.296C133.305 133.516 133.851 132.916 134.535 132.496C135.231 132.076 136.005 131.866 136.857 131.866C137.601 131.866 138.249 132.016 138.801 132.316C139.365 132.616 139.815 132.994 140.151 133.45V132.028H142.689V142H140.151V140.542C139.827 141.01 139.377 141.4 138.801 141.712C138.237 142.012 137.583 142.162 136.839 142.162C135.999 142.162 135.231 141.946 134.535 141.514C133.851 141.082 133.305 140.476 132.897 139.696C132.501 138.904 132.303 137.998 132.303 136.978ZM140.151 137.014C140.151 136.402 140.031 135.88 139.791 135.448C139.551 135.004 139.227 134.668 138.819 134.44C138.411 134.2 137.973 134.08 137.505 134.08C137.037 134.08 136.605 134.194 136.209 134.422C135.813 134.65 135.489 134.986 135.237 135.43C134.997 135.862 134.877 136.378 134.877 136.978C134.877 137.578 134.997 138.106 135.237 138.562C135.489 139.006 135.813 139.348 136.209 139.588C136.617 139.828 137.049 139.948 137.505 139.948C137.973 139.948 138.411 139.834 138.819 139.606C139.227 139.366 139.551 139.03 139.791 138.598C140.031 138.154 140.151 137.626 140.151 137.014ZM148.03 133.576C148.354 133.048 148.774 132.634 149.29 132.334C149.818 132.034 150.418 131.884 151.09 131.884V134.53H150.424C149.632 134.53 149.032 134.716 148.624 135.088C148.228 135.46 148.03 136.108 148.03 137.032V142H145.51V132.028H148.03V133.576ZM157.053 131.866C157.797 131.866 158.451 132.016 159.015 132.316C159.579 132.604 160.023 132.982 160.347 133.45V132.028H162.885V142.072C162.885 142.996 162.699 143.818 162.327 144.538C161.955 145.27 161.397 145.846 160.653 146.266C159.909 146.698 159.009 146.914 157.953 146.914C156.537 146.914 155.373 146.584 154.461 145.924C153.561 145.264 153.051 144.364 152.931 143.224H155.433C155.565 143.68 155.847 144.04 156.279 144.304C156.723 144.58 157.257 144.718 157.881 144.718C158.613 144.718 159.207 144.496 159.663 144.052C160.119 143.62 160.347 142.96 160.347 142.072V140.524C160.023 140.992 159.573 141.382 158.997 141.694C158.433 142.006 157.785 142.162 157.053 142.162C156.213 142.162 155.445 141.946 154.749 141.514C154.053 141.082 153.501 140.476 153.093 139.696C152.697 138.904 152.499 137.998 152.499 136.978C152.499 135.97 152.697 135.076 153.093 134.296C153.501 133.516 154.047 132.916 154.731 132.496C155.427 132.076 156.201 131.866 157.053 131.866ZM160.347 137.014C160.347 136.402 160.227 135.88 159.987 135.448C159.747 135.004 159.423 134.668 159.015 134.44C158.607 134.2 158.169 134.08 157.701 134.08C157.233 134.08 156.801 134.194 156.405 134.422C156.009 134.65 155.685 134.986 155.433 135.43C155.193 135.862 155.073 136.378 155.073 136.978C155.073 137.578 155.193 138.106 155.433 138.562C155.685 139.006 156.009 139.348 156.405 139.588C156.813 139.828 157.245 139.948 157.701 139.948C158.169 139.948 158.607 139.834 159.015 139.606C159.423 139.366 159.747 139.03 159.987 138.598C160.227 138.154 160.347 137.626 160.347 137.014ZM174.977 136.798C174.977 137.158 174.953 137.482 174.905 137.77H167.615C167.675 138.49 167.927 139.054 168.371 139.462C168.815 139.87 169.361 140.074 170.009 140.074C170.945 140.074 171.611 139.672 172.007 138.868H174.725C174.437 139.828 173.885 140.62 173.069 141.244C172.253 141.856 171.251 142.162 170.063 142.162C169.103 142.162 168.239 141.952 167.471 141.532C166.715 141.1 166.121 140.494 165.689 139.714C165.269 138.934 165.059 138.034 165.059 137.014C165.059 135.982 165.269 135.076 165.689 134.296C166.109 133.516 166.697 132.916 167.453 132.496C168.209 132.076 169.079 131.866 170.063 131.866C171.011 131.866 171.857 132.07 172.601 132.478C173.357 132.886 173.939 133.468 174.347 134.224C174.767 134.968 174.977 135.826 174.977 136.798ZM172.367 136.078C172.355 135.43 172.121 134.914 171.665 134.53C171.209 134.134 170.651 133.936 169.991 133.936C169.367 133.936 168.839 134.128 168.407 134.512C167.987 134.884 167.729 135.406 167.633 136.078H172.367ZM180.992 142.162C180.176 142.162 179.444 142.018 178.796 141.73C178.148 141.43 177.632 141.028 177.248 140.524C176.876 140.02 176.672 139.462 176.636 138.85H179.174C179.222 139.234 179.408 139.552 179.732 139.804C180.068 140.056 180.482 140.182 180.974 140.182C181.454 140.182 181.826 140.086 182.09 139.894C182.366 139.702 182.504 139.456 182.504 139.156C182.504 138.832 182.336 138.592 182 138.436C181.676 138.268 181.154 138.088 180.434 137.896C179.69 137.716 179.078 137.53 178.598 137.338C178.13 137.146 177.722 136.852 177.374 136.456C177.038 136.06 176.87 135.526 176.87 134.854C176.87 134.302 177.026 133.798 177.338 133.342C177.662 132.886 178.118 132.526 178.706 132.262C179.306 131.998 180.008 131.866 180.812 131.866C182 131.866 182.948 132.166 183.656 132.766C184.364 133.354 184.754 134.152 184.826 135.16H182.414C182.378 134.764 182.21 134.452 181.91 134.224C181.622 133.984 181.232 133.864 180.74 133.864C180.284 133.864 179.93 133.948 179.678 134.116C179.438 134.284 179.318 134.518 179.318 134.818C179.318 135.154 179.486 135.412 179.822 135.592C180.158 135.76 180.68 135.934 181.388 136.114C182.108 136.294 182.702 136.48 183.17 136.672C183.638 136.864 184.04 137.164 184.376 137.572C184.724 137.968 184.904 138.496 184.916 139.156C184.916 139.732 184.754 140.248 184.43 140.704C184.118 141.16 183.662 141.52 183.062 141.784C182.474 142.036 181.784 142.162 180.992 142.162Z" fill="#221F20"/>
<path d="M14.1618 5.84703H18V8.63456H13.9632C13.7206 10.153 13.2574 11.3654 12.5735 12.272C11.9118 13.1558 10.9632 13.8017 9.72794 14.2096C8.49265 14.5949 6.89338 14.7875 4.93015 14.7875V16.9292C4.93015 18.1756 5.18382 19.1615 5.69118 19.8867C6.22059 20.6119 7.10294 20.9745 8.33824 20.9745C10.5882 20.9745 11.7132 19.6714 11.7132 17.0652H15.1875C15.1654 19.3541 14.5588 21.0878 13.3676 22.2663C12.1985 23.4221 10.5 24 8.27206 24C6.04412 24 4.33456 23.3654 3.14338 22.0963C1.97426 20.8272 1.38971 19.0482 1.38971 16.7592V12.102C3.83824 12.102 5.63603 12.034 6.78309 11.898C7.93015 11.7394 8.77941 11.4221 9.33088 10.9462C9.90441 10.4703 10.2794 9.69972 10.4559 8.63456H0V5.84703H10.6213V2.82153H0V0H18V2.82153H14.1618V5.84703Z" fill="#0D4992"/>
</svg>
