<svg width="56" height="56" viewBox="0 0 56 56" fill="none" xmlns="http://www.w3.org/2000/svg">
<path d="M41.1632 29.4581C40.4461 35.4299 36.5347 37.8161 34.8455 39.5483C33.1537 41.2855 33.4567 41.6315 33.5703 44.1793C33.5893 44.4945 33.5435 44.8103 33.4358 45.1071C33.328 45.404 33.1607 45.6756 32.944 45.9053C32.7273 46.135 32.4658 46.3179 32.1758 46.4428C31.8857 46.5676 31.5731 46.6317 31.2573 46.6311H24.5457C24.2299 46.6313 23.9174 46.567 23.6274 46.442C23.3373 46.3171 23.0759 46.1342 22.8591 45.9047C22.6423 45.6751 22.4746 45.4036 22.3665 45.1069C22.2584 44.8102 22.212 44.4945 22.2302 44.1793C22.2302 41.6795 22.4625 41.0987 20.9576 39.5483C19.0385 37.6292 14.5237 34.9198 14.5237 27.4684C14.5122 25.6175 14.8842 23.7843 15.6163 22.0843C16.3485 20.3844 17.4248 18.8545 18.7775 17.5912C20.1303 16.3279 21.7301 15.3585 23.476 14.7441C25.222 14.1297 27.0763 13.8837 28.9221 14.0216C30.7679 14.1595 32.5651 14.6782 34.2004 15.5451C35.8358 16.412 37.2738 17.6083 38.4238 19.0586C39.5739 20.5089 40.411 22.1816 40.8825 23.9715C41.354 25.7614 41.4495 27.6295 41.1632 29.4581Z" stroke="url(#paint0_linear_2696_920)" stroke-width="3" stroke-linecap="round" stroke-linejoin="round"/>
<path d="M24.0154 46.492V50.3099C24.0154 51.3528 24.5961 52.2088 25.3107 52.2088H30.4947C31.2143 52.2088 31.7926 51.3502 31.7926 50.3099V46.492M25.9344 19.8778C24.4435 19.8785 23.0138 20.4712 21.9598 21.5257C20.9057 22.5802 20.3136 24.0102 20.3136 25.5011M46.4178 27.9782H51.0488M41.7565 12.7975L45.0416 9.51238M44.2816 40.846L47.5667 44.1286M27.904 3.92188V7.66655M10.8345 9.50985L14.0969 12.7975M8.30944 44.1286L11.5718 40.846M9.39017 27.9782H4.76172" stroke="url(#paint1_linear_2696_920)" stroke-width="3" stroke-linecap="round" stroke-linejoin="round"/>
<defs>
<linearGradient id="paint0_linear_2696_920" x1="27.924" y1="13.9844" x2="27.924" y2="46.6311" gradientUnits="userSpaceOnUse">
<stop stop-color="#8EF8AA"/>
<stop offset="1" stop-color="#00EFD1"/>
</linearGradient>
<linearGradient id="paint1_linear_2696_920" x1="27.9052" y1="3.92187" x2="27.9052" y2="52.2088" gradientUnits="userSpaceOnUse">
<stop stop-color="#8EF8AA"/>
<stop offset="1" stop-color="#00EFD1"/>
</linearGradient>
</defs>
</svg>
