<svg width="73" height="72" viewBox="0 0 73 72" fill="none" xmlns="http://www.w3.org/2000/svg">
<path d="M57.2706 17.0801C56.7616 16.5482 56.2351 16.0001 56.0367 15.5181C55.8531 15.0767 55.8423 14.345 55.8315 13.6362C55.8112 12.3186 55.7896 10.8255 54.7515 9.78738C53.7133 8.74923 52.2202 8.72763 50.9026 8.70738C50.1939 8.69658 49.4622 8.68578 49.0207 8.50218C48.5401 8.30373 47.9907 7.77723 47.4588 7.26828C46.5273 6.37323 45.4689 5.35938 44.0595 5.35938C42.6501 5.35938 41.593 6.37323 40.6602 7.26828C40.1283 7.77723 39.5802 8.30373 39.0982 8.50218C38.6595 8.68578 37.9251 8.69658 37.2163 8.70738C35.8987 8.72763 34.4056 8.74923 33.3675 9.78738C32.3293 10.8255 32.3145 12.3186 32.2875 13.6362C32.2767 14.345 32.2659 15.0767 32.0823 15.5181C31.8838 15.9987 31.3573 16.5482 30.8484 17.0801C29.9533 18.0116 28.9395 19.07 28.9395 20.4794C28.9395 21.8888 29.9533 22.9458 30.8484 23.8787C31.3573 24.4106 31.8838 24.9587 32.0823 25.4406C32.2659 25.8821 32.2767 26.6138 32.2875 27.3225C32.3077 28.6401 32.3293 30.1332 33.3675 31.1714C34.4056 32.2095 35.8987 32.2311 37.2163 32.2514C37.9251 32.2622 38.6568 32.273 39.0982 32.4566C39.5788 32.655 40.1283 33.1815 40.6602 33.6905C41.5917 34.5855 42.6501 35.5994 44.0595 35.5994C45.4689 35.5994 46.5259 34.5855 47.4588 33.6905C47.9907 33.1815 48.5388 32.655 49.0207 32.4566C49.4622 32.273 50.1939 32.2622 50.9026 32.2514C52.2202 32.2311 53.7133 32.2095 54.7515 31.1714C55.7896 30.1332 55.8112 28.6401 55.8315 27.3225C55.8423 26.6138 55.8531 25.8821 56.0367 25.4406C56.2351 24.96 56.7616 24.4106 57.2706 23.8787C58.1656 22.9472 59.1795 21.8888 59.1795 20.4794C59.1795 19.07 58.1656 18.0129 57.2706 17.0801ZM55.7113 22.3842C55.0647 23.0592 54.3951 23.7572 54.04 24.6144C53.6998 25.4379 53.685 26.3789 53.6715 27.2901C53.658 28.2351 53.6431 29.2247 53.2233 29.6432C52.8034 30.0617 51.8206 30.0779 50.8702 30.0914C49.959 30.1049 49.018 30.1197 48.1945 30.4599C47.3373 30.815 46.6393 31.4846 45.9643 32.1312C45.2893 32.7779 44.5995 33.4394 44.0595 33.4394C43.5195 33.4394 42.8242 32.7752 42.1546 32.1312C41.485 31.4873 40.7817 30.815 39.9244 30.4599C39.1009 30.1197 38.16 30.1049 37.2487 30.0914C36.3037 30.0779 35.3142 30.063 34.8957 29.6432C34.4772 29.2233 34.461 28.2405 34.4475 27.2901C34.434 26.3789 34.4191 25.4379 34.0789 24.6144C33.7239 23.7572 33.0543 23.0592 32.4076 22.3842C31.761 21.7092 31.0995 21.0194 31.0995 20.4794C31.0995 19.9394 31.7637 19.2441 32.4076 18.5745C33.0516 17.9049 33.7239 17.2016 34.0789 16.3443C34.4191 15.5208 34.434 14.5799 34.4475 13.6686C34.461 12.7236 34.4758 11.7341 34.8957 11.3156C35.3155 10.8971 36.2983 10.8809 37.2487 10.8674C38.16 10.8539 39.1009 10.839 39.9244 10.4988C40.7817 10.1438 41.4796 9.47418 42.1546 8.82753C42.8296 8.18088 43.5195 7.51938 44.0595 7.51938C44.5995 7.51938 45.2947 8.18358 45.9643 8.82753C46.6339 9.47148 47.3373 10.1438 48.1945 10.4988C49.018 10.839 49.959 10.8539 50.8702 10.8674C51.8152 10.8809 52.8048 10.8957 53.2233 11.3156C53.6418 11.7354 53.658 12.7182 53.6715 13.6686C53.685 14.5799 53.6998 15.5208 54.04 16.3443C54.3951 17.2016 55.0647 17.8995 55.7113 18.5745C56.358 19.2495 57.0195 19.9394 57.0195 20.4794C57.0195 21.0194 56.3553 21.7146 55.7113 22.3842ZM50.2236 16.4753C50.324 16.5756 50.4036 16.6947 50.458 16.8258C50.5123 16.9569 50.5403 17.0974 50.5403 17.2394C50.5403 17.3813 50.5123 17.5218 50.458 17.653C50.4036 17.7841 50.324 17.9032 50.2236 18.0035L42.6636 25.5635C42.5633 25.6639 42.4441 25.7436 42.313 25.7979C42.1819 25.8523 42.0414 25.8802 41.8995 25.8802C41.7575 25.8802 41.617 25.8523 41.4859 25.7979C41.3548 25.7436 41.2357 25.6639 41.1354 25.5635L37.8954 22.3235C37.6927 22.1208 37.5789 21.846 37.5789 21.5594C37.5789 21.2728 37.6927 20.9979 37.8954 20.7953C38.098 20.5926 38.3729 20.4788 38.6595 20.4788C38.946 20.4788 39.2209 20.5926 39.4236 20.7953L41.8995 23.2725L48.6954 16.4753C48.7957 16.3749 48.9148 16.2952 49.0459 16.2409C49.177 16.1865 49.3175 16.1585 49.4595 16.1585C49.6014 16.1585 49.7419 16.1865 49.873 16.2409C50.0041 16.2952 50.1233 16.3749 50.2236 16.4753Z" fill="#25B8AF"/>
<path d="M15.502 61.1652H22.2817C25.3143 61.1652 28.3795 61.4811 31.3309 62.0892C36.5517 63.1647 42.0483 63.2949 47.3226 62.4414C49.9233 62.0202 52.4799 61.3767 54.7944 60.2595C56.8836 59.2512 59.4426 57.8298 61.1616 56.2377C62.8782 54.6481 64.6659 52.0462 65.9346 50.0122C67.0227 48.2683 66.4965 46.1287 64.7754 44.8291C62.8638 43.3858 60.027 43.3861 58.1157 44.83L52.6941 48.9253C50.5929 50.5126 48.2979 51.9736 45.5637 52.4098C45.2349 52.4623 44.8905 52.51 44.5311 52.5517M44.5311 52.5517C44.4228 52.5643 44.3133 52.5763 44.2023 52.5877M44.5311 52.5517C44.9685 52.4581 45.4026 52.1881 45.8103 51.8326C47.7399 50.1484 47.8617 47.3101 46.1874 45.4294C45.7992 44.9932 45.3444 44.6293 44.8392 44.3278C36.447 39.3223 23.3902 43.1347 15.502 48.7288M44.5311 52.5517C44.4216 52.5751 44.3118 52.5877 44.2023 52.5877M44.2023 52.5877C42.6321 52.7488 40.7955 52.7905 38.7573 52.5979" stroke="#25B8AF" stroke-width="2.5" stroke-linecap="round"/>
<path d="M15.502 46.5C15.502 44.0147 13.4872 42 11.002 42C8.51667 42 6.50195 44.0147 6.50195 46.5V61.5C6.50195 63.9853 8.51667 66 11.002 66C13.4872 66 15.502 63.9853 15.502 61.5V46.5Z" stroke="#25B8AF" stroke-width="2.5"/>
</svg>
