<svg width="56" height="56" viewBox="0 0 56 56" fill="none" xmlns="http://www.w3.org/2000/svg">
<path d="M39.7249 42.0121C39.078 41.3652 38.5087 40.7959 37.9265 40.2137C33.1137 44.1338 27.6151 45.7511 21.4309 44.716C16.1782 43.8233 11.9346 41.1711 8.71313 36.9275C2.45127 28.6733 3.57686 17.0034 11.2748 9.9265C18.8951 2.92719 30.5908 2.90132 38.3923 9.90062C46.1678 16.887 47.5651 29.2037 40.2553 37.872C40.8375 38.4542 41.4068 39.0234 42.0536 39.6574C42.3124 39.3728 42.6358 38.9846 42.9981 38.6482C43.6709 38.0014 44.5506 37.9755 45.2104 38.6224C46.8535 40.2396 48.5225 41.8439 50.088 43.5387C52.5461 46.1909 51.1618 50.4216 47.6169 51.2108C46.1032 51.5472 44.7318 51.172 43.6191 50.1369C41.8984 48.5327 40.2553 46.8378 38.5993 45.1559C37.9912 44.5478 38.03 43.6422 38.6251 43.0212C38.9745 42.646 39.3755 42.3226 39.7249 42.0121ZM24.8594 41.9215C34.2781 41.9215 41.8855 34.327 41.9372 24.8825C41.989 15.4638 34.3298 7.77884 24.8853 7.7659C15.4537 7.75296 7.79455 15.3992 7.78162 24.8308C7.78162 34.2624 15.4149 41.9215 24.8594 41.9215ZM44.1754 42.0509C43.4768 42.7495 42.7523 43.474 42.0278 44.1985C43.1922 45.3629 44.3824 46.5791 45.5986 47.7693C46.2455 48.4033 47.0605 48.3645 47.7074 47.7435C48.3414 47.1354 48.4319 46.2815 47.8497 45.6734C46.6336 44.4185 45.3657 43.2023 44.1754 42.0379V42.0509Z" fill="url(#paint0_linear_2696_914)"/>
<path d="M32.4807 22.471C31.8467 23.1179 31.2257 23.7648 30.5788 24.3987C29.091 25.8995 27.5902 27.3873 26.0894 28.8752C25.2744 29.6903 24.4075 29.6903 23.5924 28.8752C22.9844 28.2671 22.3892 27.659 21.7682 27.0251C21.613 27.1674 21.4965 27.2838 21.3672 27.4003C19.8017 28.9658 18.2362 30.5312 16.6708 32.0837C16.0886 32.6659 15.5064 32.7953 14.8724 32.4978C13.8115 32.0061 13.5916 30.777 14.4325 29.9361C15.8557 28.5 17.2788 27.0768 18.7149 25.6537C19.3359 25.0327 19.944 24.4117 20.565 23.8036C21.3025 23.092 22.1952 23.092 22.9197 23.8036C23.5407 24.4117 24.1488 25.0327 24.7698 25.6408C24.7698 25.6408 24.7957 25.6537 24.7568 25.6408C26.594 23.8036 28.4053 21.9923 30.2166 20.181C30.1777 20.181 30.0613 20.1552 29.9449 20.1552C29.2721 20.1552 28.5864 20.1552 27.9136 20.1552C27.0339 20.1293 26.387 19.5083 26.3611 18.6932C26.3223 17.8393 26.9433 17.0889 27.8231 17.076C29.9707 17.0372 32.1184 17.0372 34.2661 17.076C35.1588 17.0889 35.7151 17.8005 35.728 18.7967C35.728 20.5692 35.728 22.3416 35.728 24.127C35.728 24.347 35.728 24.5799 35.728 24.7998C35.6892 25.7572 35.0294 26.43 34.1626 26.43C33.2957 26.43 32.6489 25.7313 32.623 24.7739C32.61 24.0235 32.623 23.2732 32.623 22.5098C32.5842 22.4969 32.5324 22.484 32.4936 22.4581L32.4807 22.471Z" fill="url(#paint1_linear_2696_914)"/>
<defs>
<linearGradient id="paint0_linear_2696_914" x1="27.9986" y1="4.66406" x2="27.9986" y2="51.3307" gradientUnits="userSpaceOnUse">
<stop stop-color="#8EF8AA"/>
<stop offset="1" stop-color="#00EFD1"/>
</linearGradient>
<linearGradient id="paint1_linear_2696_914" x1="24.823" y1="17.0469" x2="24.823" y2="32.6522" gradientUnits="userSpaceOnUse">
<stop stop-color="#8EF8AA"/>
<stop offset="1" stop-color="#00EFD1"/>
</linearGradient>
</defs>
</svg>
