<svg width="202" height="157" viewBox="0 0 202 157" fill="none" xmlns="http://www.w3.org/2000/svg">
<path d="M63 130C53.9689 130 46.0796 127.575 39.3322 122.726C32.5848 117.877 27.3426 110.603 23.6055 100.905C19.8685 91.1032 18 79.1349 18 65C18 50.8651 19.8685 38.9484 23.6055 29.25C27.3426 19.4484 32.5848 12.123 39.3322 7.27381C46.0796 2.4246 53.9689 0 63 0C72.0311 0 79.9204 2.4246 86.6678 7.27381C93.4152 12.123 98.6574 19.4484 102.394 29.25C106.131 38.9484 108 50.8651 108 65C108 79.1349 106.131 91.1032 102.394 100.905C98.6574 110.603 93.4152 117.877 86.6678 122.726C79.9204 127.575 72.0311 130 63 130ZM63 126.44C70.7855 126.44 76.91 122.675 81.3737 115.143C85.8374 107.611 88.0692 95.8492 88.0692 79.8571V49.9881C88.0692 34.0992 85.8374 22.3889 81.3737 14.8571C76.91 7.3254 70.7855 3.55952 63 3.55952C55.2145 3.55952 49.09 7.3254 44.6263 14.8571C40.1626 22.3889 37.9308 34.0992 37.9308 49.9881V79.8571C37.9308 95.746 40.1626 107.508 44.6263 115.143C49.09 122.675 55.2145 126.44 63 126.44Z" fill="#004393"/>
<rect width="139" height="70" transform="translate(63 87)" fill="white"/>
<path d="M81.946 112.606H76.942L76.114 115H73.468L77.986 102.418H80.92L85.438 115H82.774L81.946 112.606ZM81.262 110.59L79.444 105.334L77.626 110.59H81.262ZM86.8388 110.014C86.8388 108.982 87.0488 108.082 87.4688 107.314C87.8888 106.534 88.4708 105.934 89.2148 105.514C89.9588 105.082 90.8108 104.866 91.7708 104.866C93.0068 104.866 94.0268 105.178 94.8308 105.802C95.6468 106.414 96.1928 107.278 96.4688 108.394H93.7508C93.6068 107.962 93.3608 107.626 93.0128 107.386C92.6768 107.134 92.2568 107.008 91.7528 107.008C91.0328 107.008 90.4628 107.272 90.0428 107.8C89.6228 108.316 89.4128 109.054 89.4128 110.014C89.4128 110.962 89.6228 111.7 90.0428 112.228C90.4628 112.744 91.0328 113.002 91.7528 113.002C92.7728 113.002 93.4388 112.546 93.7508 111.634H96.4688C96.1928 112.714 95.6468 113.572 94.8308 114.208C94.0148 114.844 92.9948 115.162 91.7708 115.162C90.8108 115.162 89.9588 114.952 89.2148 114.532C88.4708 114.1 87.8888 113.5 87.4688 112.732C87.0488 111.952 86.8388 111.046 86.8388 110.014ZM98.0269 110.014C98.0269 108.982 98.2369 108.082 98.6569 107.314C99.0769 106.534 99.6589 105.934 100.403 105.514C101.147 105.082 101.999 104.866 102.959 104.866C104.195 104.866 105.215 105.178 106.019 105.802C106.835 106.414 107.381 107.278 107.657 108.394H104.939C104.795 107.962 104.549 107.626 104.201 107.386C103.865 107.134 103.445 107.008 102.941 107.008C102.221 107.008 101.651 107.272 101.231 107.8C100.811 108.316 100.601 109.054 100.601 110.014C100.601 110.962 100.811 111.7 101.231 112.228C101.651 112.744 102.221 113.002 102.941 113.002C103.961 113.002 104.627 112.546 104.939 111.634H107.657C107.381 112.714 106.835 113.572 106.019 114.208C105.203 114.844 104.183 115.162 102.959 115.162C101.999 115.162 101.147 114.952 100.403 114.532C99.6589 114.1 99.0769 113.5 98.6569 112.732C98.2369 111.952 98.0269 111.046 98.0269 110.014ZM114.291 115.162C113.331 115.162 112.467 114.952 111.699 114.532C110.931 114.1 110.325 113.494 109.881 112.714C109.449 111.934 109.233 111.034 109.233 110.014C109.233 108.994 109.455 108.094 109.899 107.314C110.355 106.534 110.973 105.934 111.753 105.514C112.533 105.082 113.403 104.866 114.363 104.866C115.323 104.866 116.193 105.082 116.973 105.514C117.753 105.934 118.365 106.534 118.809 107.314C119.265 108.094 119.493 108.994 119.493 110.014C119.493 111.034 119.259 111.934 118.791 112.714C118.335 113.494 117.711 114.1 116.919 114.532C116.139 114.952 115.263 115.162 114.291 115.162ZM114.291 112.966C114.747 112.966 115.173 112.858 115.569 112.642C115.977 112.414 116.301 112.078 116.541 111.634C116.781 111.19 116.901 110.65 116.901 110.014C116.901 109.066 116.649 108.34 116.145 107.836C115.653 107.32 115.047 107.062 114.327 107.062C113.607 107.062 113.001 107.32 112.509 107.836C112.029 108.34 111.789 109.066 111.789 110.014C111.789 110.962 112.023 111.694 112.491 112.21C112.971 112.714 113.571 112.966 114.291 112.966ZM131.116 105.028V115H128.578V113.74C128.254 114.172 127.828 114.514 127.3 114.766C126.784 115.006 126.22 115.126 125.608 115.126C124.828 115.126 124.138 114.964 123.538 114.64C122.938 114.304 122.464 113.818 122.116 113.182C121.78 112.534 121.612 111.766 121.612 110.878V105.028H124.132V110.518C124.132 111.31 124.33 111.922 124.726 112.354C125.122 112.774 125.662 112.984 126.346 112.984C127.042 112.984 127.588 112.774 127.984 112.354C128.38 111.922 128.578 111.31 128.578 110.518V105.028H131.116ZM139.488 104.884C140.676 104.884 141.636 105.262 142.368 106.018C143.1 106.762 143.466 107.806 143.466 109.15V115H140.946V109.492C140.946 108.7 140.748 108.094 140.352 107.674C139.956 107.242 139.416 107.026 138.732 107.026C138.036 107.026 137.484 107.242 137.076 107.674C136.68 108.094 136.482 108.7 136.482 109.492V115H133.962V105.028H136.482V106.27C136.818 105.838 137.244 105.502 137.76 105.262C138.288 105.01 138.864 104.884 139.488 104.884ZM149.156 107.098V111.922C149.156 112.258 149.234 112.504 149.39 112.66C149.558 112.804 149.834 112.876 150.218 112.876H151.388V115H149.804C147.68 115 146.618 113.968 146.618 111.904V107.098H145.43V105.028H146.618V102.562H149.156V105.028H151.388V107.098H149.156ZM80.074 142.126C78.898 142.126 77.818 141.85 76.834 141.298C75.85 140.746 75.07 139.984 74.494 139.012C73.918 138.028 73.63 136.918 73.63 135.682C73.63 134.458 73.918 133.36 74.494 132.388C75.07 131.404 75.85 130.636 76.834 130.084C77.818 129.532 78.898 129.256 80.074 129.256C81.262 129.256 82.342 129.532 83.314 130.084C84.298 130.636 85.072 131.404 85.636 132.388C86.212 133.36 86.5 134.458 86.5 135.682C86.5 136.918 86.212 138.028 85.636 139.012C85.072 139.984 84.298 140.746 83.314 141.298C82.33 141.85 81.25 142.126 80.074 142.126ZM80.074 139.876C80.83 139.876 81.496 139.708 82.072 139.372C82.648 139.024 83.098 138.532 83.422 137.896C83.746 137.26 83.908 136.522 83.908 135.682C83.908 134.842 83.746 134.11 83.422 133.486C83.098 132.85 82.648 132.364 82.072 132.028C81.496 131.692 80.83 131.524 80.074 131.524C79.318 131.524 78.646 131.692 78.058 132.028C77.482 132.364 77.032 132.85 76.708 133.486C76.384 134.11 76.222 134.842 76.222 135.682C76.222 136.522 76.384 137.26 76.708 137.896C77.032 138.532 77.482 139.024 78.058 139.372C78.646 139.708 79.318 139.876 80.074 139.876ZM91.2548 133.468C91.5788 133.012 92.0228 132.634 92.5868 132.334C93.1628 132.022 93.8168 131.866 94.5488 131.866C95.4008 131.866 96.1688 132.076 96.8528 132.496C97.5488 132.916 98.0948 133.516 98.4908 134.296C98.8988 135.064 99.1028 135.958 99.1028 136.978C99.1028 137.998 98.8988 138.904 98.4908 139.696C98.0948 140.476 97.5488 141.082 96.8528 141.514C96.1688 141.946 95.4008 142.162 94.5488 142.162C93.8168 142.162 93.1688 142.012 92.6048 141.712C92.0528 141.412 91.6028 141.034 91.2548 140.578V146.752H88.7348V132.028H91.2548V133.468ZM96.5288 136.978C96.5288 136.378 96.4028 135.862 96.1508 135.43C95.9108 134.986 95.5868 134.65 95.1788 134.422C94.7828 134.194 94.3508 134.08 93.8828 134.08C93.4268 134.08 92.9948 134.2 92.5868 134.44C92.1908 134.668 91.8668 135.004 91.6148 135.448C91.3748 135.892 91.2548 136.414 91.2548 137.014C91.2548 137.614 91.3748 138.136 91.6148 138.58C91.8668 139.024 92.1908 139.366 92.5868 139.606C92.9948 139.834 93.4268 139.948 93.8828 139.948C94.3508 139.948 94.7828 139.828 95.1788 139.588C95.5868 139.348 95.9108 139.006 96.1508 138.562C96.4028 138.118 96.5288 137.59 96.5288 136.978ZM110.564 136.798C110.564 137.158 110.54 137.482 110.492 137.77H103.202C103.262 138.49 103.514 139.054 103.958 139.462C104.402 139.87 104.948 140.074 105.596 140.074C106.532 140.074 107.198 139.672 107.594 138.868H110.312C110.024 139.828 109.472 140.62 108.656 141.244C107.84 141.856 106.838 142.162 105.65 142.162C104.69 142.162 103.826 141.952 103.058 141.532C102.302 141.1 101.708 140.494 101.276 139.714C100.856 138.934 100.646 138.034 100.646 137.014C100.646 135.982 100.856 135.076 101.276 134.296C101.696 133.516 102.284 132.916 103.04 132.496C103.796 132.076 104.666 131.866 105.65 131.866C106.598 131.866 107.444 132.07 108.188 132.478C108.944 132.886 109.526 133.468 109.934 134.224C110.354 134.968 110.564 135.826 110.564 136.798ZM107.954 136.078C107.942 135.43 107.708 134.914 107.252 134.53C106.796 134.134 106.238 133.936 105.578 133.936C104.954 133.936 104.426 134.128 103.994 134.512C103.574 134.884 103.316 135.406 103.22 136.078H107.954ZM118.289 131.884C119.477 131.884 120.437 132.262 121.169 133.018C121.901 133.762 122.267 134.806 122.267 136.15V142H119.747V136.492C119.747 135.7 119.549 135.094 119.153 134.674C118.757 134.242 118.217 134.026 117.533 134.026C116.837 134.026 116.285 134.242 115.877 134.674C115.481 135.094 115.283 135.7 115.283 136.492V142H112.763V132.028H115.283V133.27C115.619 132.838 116.045 132.502 116.561 132.262C117.089 132.01 117.665 131.884 118.289 131.884ZM126.302 130.84C125.858 130.84 125.486 130.702 125.186 130.426C124.898 130.138 124.754 129.784 124.754 129.364C124.754 128.944 124.898 128.596 125.186 128.32C125.486 128.032 125.858 127.888 126.302 127.888C126.746 127.888 127.112 128.032 127.4 128.32C127.7 128.596 127.85 128.944 127.85 129.364C127.85 129.784 127.7 130.138 127.4 130.426C127.112 130.702 126.746 130.84 126.302 130.84ZM127.544 132.028V142H125.024V132.028H127.544ZM135.92 131.884C137.108 131.884 138.068 132.262 138.8 133.018C139.532 133.762 139.898 134.806 139.898 136.15V142H137.378V136.492C137.378 135.7 137.18 135.094 136.784 134.674C136.388 134.242 135.848 134.026 135.164 134.026C134.468 134.026 133.916 134.242 133.508 134.674C133.112 135.094 132.914 135.7 132.914 136.492V142H130.394V132.028H132.914V133.27C133.25 132.838 133.676 132.502 134.192 132.262C134.72 132.01 135.296 131.884 135.92 131.884ZM146.56 131.866C147.304 131.866 147.958 132.016 148.522 132.316C149.086 132.604 149.53 132.982 149.854 133.45V132.028H152.392V142.072C152.392 142.996 152.206 143.818 151.834 144.538C151.462 145.27 150.904 145.846 150.16 146.266C149.416 146.698 148.516 146.914 147.46 146.914C146.044 146.914 144.88 146.584 143.968 145.924C143.068 145.264 142.558 144.364 142.438 143.224H144.94C145.072 143.68 145.354 144.04 145.786 144.304C146.23 144.58 146.764 144.718 147.388 144.718C148.12 144.718 148.714 144.496 149.17 144.052C149.626 143.62 149.854 142.96 149.854 142.072V140.524C149.53 140.992 149.08 141.382 148.504 141.694C147.94 142.006 147.292 142.162 146.56 142.162C145.72 142.162 144.952 141.946 144.256 141.514C143.56 141.082 143.008 140.476 142.6 139.696C142.204 138.904 142.006 137.998 142.006 136.978C142.006 135.97 142.204 135.076 142.6 134.296C143.008 133.516 143.554 132.916 144.238 132.496C144.934 132.076 145.708 131.866 146.56 131.866ZM149.854 137.014C149.854 136.402 149.734 135.88 149.494 135.448C149.254 135.004 148.93 134.668 148.522 134.44C148.114 134.2 147.676 134.08 147.208 134.08C146.74 134.08 146.308 134.194 145.912 134.422C145.516 134.65 145.192 134.986 144.94 135.43C144.7 135.862 144.58 136.378 144.58 136.978C144.58 137.578 144.7 138.106 144.94 138.562C145.192 139.006 145.516 139.348 145.912 139.588C146.32 139.828 146.752 139.948 147.208 139.948C147.676 139.948 148.114 139.834 148.522 139.606C148.93 139.366 149.254 139.03 149.494 138.598C149.734 138.154 149.854 137.626 149.854 137.014ZM167.62 129.436V131.47H162.382V134.692H166.396V136.69H162.382V142H159.862V129.436H167.62ZM179.037 136.798C179.037 137.158 179.013 137.482 178.965 137.77H171.675C171.735 138.49 171.987 139.054 172.431 139.462C172.875 139.87 173.421 140.074 174.069 140.074C175.005 140.074 175.671 139.672 176.067 138.868H178.785C178.497 139.828 177.945 140.62 177.129 141.244C176.313 141.856 175.311 142.162 174.123 142.162C173.163 142.162 172.299 141.952 171.531 141.532C170.775 141.1 170.181 140.494 169.749 139.714C169.329 138.934 169.119 138.034 169.119 137.014C169.119 135.982 169.329 135.076 169.749 134.296C170.169 133.516 170.757 132.916 171.513 132.496C172.269 132.076 173.139 131.866 174.123 131.866C175.071 131.866 175.917 132.07 176.661 132.478C177.417 132.886 177.999 133.468 178.407 134.224C178.827 134.968 179.037 135.826 179.037 136.798ZM176.427 136.078C176.415 135.43 176.181 134.914 175.725 134.53C175.269 134.134 174.711 133.936 174.051 133.936C173.427 133.936 172.899 134.128 172.467 134.512C172.047 134.884 171.789 135.406 171.693 136.078H176.427ZM190.507 136.798C190.507 137.158 190.483 137.482 190.435 137.77H183.145C183.205 138.49 183.457 139.054 183.901 139.462C184.345 139.87 184.891 140.074 185.539 140.074C186.475 140.074 187.141 139.672 187.537 138.868H190.255C189.967 139.828 189.415 140.62 188.599 141.244C187.783 141.856 186.781 142.162 185.593 142.162C184.633 142.162 183.769 141.952 183.001 141.532C182.245 141.1 181.651 140.494 181.219 139.714C180.799 138.934 180.589 138.034 180.589 137.014C180.589 135.982 180.799 135.076 181.219 134.296C181.639 133.516 182.227 132.916 182.983 132.496C183.739 132.076 184.609 131.866 185.593 131.866C186.541 131.866 187.387 132.07 188.131 132.478C188.887 132.886 189.469 133.468 189.877 134.224C190.297 134.968 190.507 135.826 190.507 136.798ZM187.897 136.078C187.885 135.43 187.651 134.914 187.195 134.53C186.739 134.134 186.181 133.936 185.521 133.936C184.897 133.936 184.369 134.128 183.937 134.512C183.517 134.884 183.259 135.406 183.163 136.078H187.897Z" fill="#221F20"/>
<path d="M14.1618 5.84703H18V8.63456H13.9632C13.7206 10.153 13.2574 11.3654 12.5735 12.272C11.9118 13.1558 10.9632 13.8017 9.72794 14.2096C8.49265 14.5949 6.89338 14.7875 4.93015 14.7875V16.9292C4.93015 18.1756 5.18382 19.1615 5.69118 19.8867C6.22059 20.6119 7.10294 20.9745 8.33824 20.9745C10.5882 20.9745 11.7132 19.6714 11.7132 17.0652H15.1875C15.1654 19.3541 14.5588 21.0878 13.3676 22.2663C12.1985 23.4221 10.5 24 8.27206 24C6.04412 24 4.33456 23.3654 3.14338 22.0963C1.97426 20.8272 1.38971 19.0482 1.38971 16.7592V12.102C3.83824 12.102 5.63603 12.034 6.78309 11.898C7.93015 11.7394 8.77941 11.4221 9.33088 10.9462C9.90441 10.4703 10.2794 9.69972 10.4559 8.63456H0V5.84703H10.6213V2.82153H0V0H18V2.82153H14.1618V5.84703Z" fill="#0D4992"/>
</svg>
