<svg width="166" height="157" viewBox="0 0 166 157" fill="none" xmlns="http://www.w3.org/2000/svg">
<path d="M63 130C53.9689 130 46.0796 127.575 39.3322 122.726C32.5848 117.877 27.3426 110.603 23.6055 100.905C19.8685 91.1032 18 79.1349 18 65C18 50.8651 19.8685 38.9484 23.6055 29.25C27.3426 19.4484 32.5848 12.123 39.3322 7.27381C46.0796 2.4246 53.9689 0 63 0C72.0311 0 79.9204 2.4246 86.6678 7.27381C93.4152 12.123 98.6574 19.4484 102.394 29.25C106.131 38.9484 108 50.8651 108 65C108 79.1349 106.131 91.1032 102.394 100.905C98.6574 110.603 93.4152 117.877 86.6678 122.726C79.9204 127.575 72.0311 130 63 130ZM63 126.44C70.7855 126.44 76.91 122.675 81.3737 115.143C85.8374 107.611 88.0692 95.8492 88.0692 79.8571V49.9881C88.0692 34.0992 85.8374 22.3889 81.3737 14.8571C76.91 7.3254 70.7855 3.55952 63 3.55952C55.2145 3.55952 49.09 7.3254 44.6263 14.8571C40.1626 22.3889 37.9308 34.0992 37.9308 49.9881V79.8571C37.9308 95.746 40.1626 107.508 44.6263 115.143C49.09 122.675 55.2145 126.44 63 126.44Z" fill="#004393"/>
<rect width="103" height="70" transform="translate(63 87)" fill="white"/>
<path d="M81.946 112.606H76.942L76.114 115H73.468L77.986 102.418H80.92L85.438 115H82.774L81.946 112.606ZM81.262 110.59L79.444 105.334L77.626 110.59H81.262ZM101.185 102.436V115H98.6648V106.828L95.2988 115H93.3908L90.0068 106.828V115H87.4868V102.436H90.3488L94.3448 111.778L98.3408 102.436H101.185ZM103.424 108.7C103.424 107.464 103.7 106.36 104.252 105.388C104.816 104.404 105.578 103.642 106.538 103.102C107.51 102.55 108.596 102.274 109.796 102.274C111.2 102.274 112.43 102.634 113.486 103.354C114.542 104.074 115.28 105.07 115.7 106.342H112.802C112.514 105.742 112.106 105.292 111.578 104.992C111.062 104.692 110.462 104.542 109.778 104.542C109.046 104.542 108.392 104.716 107.816 105.064C107.252 105.4 106.808 105.88 106.484 106.504C106.172 107.128 106.016 107.86 106.016 108.7C106.016 109.528 106.172 110.26 106.484 110.896C106.808 111.52 107.252 112.006 107.816 112.354C108.392 112.69 109.046 112.858 109.778 112.858C110.462 112.858 111.062 112.708 111.578 112.408C112.106 112.096 112.514 111.64 112.802 111.04H115.7C115.28 112.324 114.542 113.326 113.486 114.046C112.442 114.754 111.212 115.108 109.796 115.108C108.596 115.108 107.51 114.838 106.538 114.298C105.578 113.746 104.816 112.984 104.252 112.012C103.7 111.04 103.424 109.936 103.424 108.7ZM130.62 102.436V104.47H125.382V107.692H129.396V109.69H125.382V115H122.862V102.436H130.62ZM137.195 115.162C136.235 115.162 135.371 114.952 134.603 114.532C133.835 114.1 133.229 113.494 132.785 112.714C132.353 111.934 132.137 111.034 132.137 110.014C132.137 108.994 132.359 108.094 132.803 107.314C133.259 106.534 133.877 105.934 134.657 105.514C135.437 105.082 136.307 104.866 137.267 104.866C138.227 104.866 139.097 105.082 139.877 105.514C140.657 105.934 141.269 106.534 141.713 107.314C142.169 108.094 142.397 108.994 142.397 110.014C142.397 111.034 142.163 111.934 141.695 112.714C141.239 113.494 140.615 114.1 139.823 114.532C139.043 114.952 138.167 115.162 137.195 115.162ZM137.195 112.966C137.651 112.966 138.077 112.858 138.473 112.642C138.881 112.414 139.205 112.078 139.445 111.634C139.685 111.19 139.805 110.65 139.805 110.014C139.805 109.066 139.553 108.34 139.049 107.836C138.557 107.32 137.951 107.062 137.231 107.062C136.511 107.062 135.905 107.32 135.413 107.836C134.933 108.34 134.693 109.066 134.693 110.014C134.693 110.962 134.927 111.694 135.395 112.21C135.875 112.714 136.475 112.966 137.195 112.966ZM147.125 106.576C147.449 106.048 147.869 105.634 148.385 105.334C148.913 105.034 149.513 104.884 150.185 104.884V107.53H149.519C148.727 107.53 148.127 107.716 147.719 108.088C147.323 108.46 147.125 109.108 147.125 110.032V115H144.605V105.028H147.125V106.576ZM73.648 131.2V128.878H77.986V142H75.394V131.2H73.648ZM84.9395 142.162C84.1235 142.162 83.3915 142.018 82.7435 141.73C82.0955 141.43 81.5795 141.028 81.1955 140.524C80.8235 140.02 80.6195 139.462 80.5835 138.85H83.1215C83.1695 139.234 83.3555 139.552 83.6795 139.804C84.0155 140.056 84.4295 140.182 84.9215 140.182C85.4015 140.182 85.7735 140.086 86.0375 139.894C86.3135 139.702 86.4515 139.456 86.4515 139.156C86.4515 138.832 86.2835 138.592 85.9475 138.436C85.6235 138.268 85.1015 138.088 84.3815 137.896C83.6375 137.716 83.0255 137.53 82.5455 137.338C82.0775 137.146 81.6695 136.852 81.3215 136.456C80.9855 136.06 80.8175 135.526 80.8175 134.854C80.8175 134.302 80.9735 133.798 81.2855 133.342C81.6095 132.886 82.0655 132.526 82.6535 132.262C83.2535 131.998 83.9555 131.866 84.7595 131.866C85.9475 131.866 86.8955 132.166 87.6035 132.766C88.3115 133.354 88.7015 134.152 88.7735 135.16H86.3615C86.3255 134.764 86.1575 134.452 85.8575 134.224C85.5695 133.984 85.1795 133.864 84.6875 133.864C84.2315 133.864 83.8775 133.948 83.6255 134.116C83.3855 134.284 83.2655 134.518 83.2655 134.818C83.2655 135.154 83.4335 135.412 83.7695 135.592C84.1055 135.76 84.6275 135.934 85.3355 136.114C86.0555 136.294 86.6495 136.48 87.1175 136.672C87.5855 136.864 87.9875 137.164 88.3235 137.572C88.6715 137.968 88.8515 138.496 88.8635 139.156C88.8635 139.732 88.7015 140.248 88.3775 140.704C88.0655 141.16 87.6095 141.52 87.0095 141.784C86.4215 142.036 85.7315 142.162 84.9395 142.162ZM94.2261 134.098V138.922C94.2261 139.258 94.3041 139.504 94.4601 139.66C94.6281 139.804 94.9041 139.876 95.2881 139.876H96.4581V142H94.8741C92.7501 142 91.6881 140.968 91.6881 138.904V134.098H90.5001V132.028H91.6881V129.562H94.2261V132.028H96.4581V134.098H94.2261ZM113.27 129.436L109.022 137.626V142H106.502V137.626L102.236 129.436H105.08L107.78 135.178L110.462 129.436H113.27ZM124.353 136.798C124.353 137.158 124.329 137.482 124.281 137.77H116.991C117.051 138.49 117.303 139.054 117.747 139.462C118.191 139.87 118.737 140.074 119.385 140.074C120.321 140.074 120.987 139.672 121.383 138.868H124.101C123.813 139.828 123.261 140.62 122.445 141.244C121.629 141.856 120.627 142.162 119.439 142.162C118.479 142.162 117.615 141.952 116.847 141.532C116.091 141.1 115.497 140.494 115.065 139.714C114.645 138.934 114.435 138.034 114.435 137.014C114.435 135.982 114.645 135.076 115.065 134.296C115.485 133.516 116.073 132.916 116.829 132.496C117.585 132.076 118.455 131.866 119.439 131.866C120.387 131.866 121.233 132.07 121.977 132.478C122.733 132.886 123.315 133.468 123.723 134.224C124.143 134.968 124.353 135.826 124.353 136.798ZM121.743 136.078C121.731 135.43 121.497 134.914 121.041 134.53C120.585 134.134 120.027 133.936 119.367 133.936C118.743 133.936 118.215 134.128 117.783 134.512C117.363 134.884 117.105 135.406 117.009 136.078H121.743ZM125.904 136.978C125.904 135.97 126.102 135.076 126.498 134.296C126.906 133.516 127.452 132.916 128.136 132.496C128.832 132.076 129.606 131.866 130.458 131.866C131.202 131.866 131.85 132.016 132.402 132.316C132.966 132.616 133.416 132.994 133.752 133.45V132.028H136.29V142H133.752V140.542C133.428 141.01 132.978 141.4 132.402 141.712C131.838 142.012 131.184 142.162 130.44 142.162C129.6 142.162 128.832 141.946 128.136 141.514C127.452 141.082 126.906 140.476 126.498 139.696C126.102 138.904 125.904 137.998 125.904 136.978ZM133.752 137.014C133.752 136.402 133.632 135.88 133.392 135.448C133.152 135.004 132.828 134.668 132.42 134.44C132.012 134.2 131.574 134.08 131.106 134.08C130.638 134.08 130.206 134.194 129.81 134.422C129.414 134.65 129.09 134.986 128.838 135.43C128.598 135.862 128.478 136.378 128.478 136.978C128.478 137.578 128.598 138.106 128.838 138.562C129.09 139.006 129.414 139.348 129.81 139.588C130.218 139.828 130.65 139.948 131.106 139.948C131.574 139.948 132.012 139.834 132.42 139.606C132.828 139.366 133.152 139.03 133.392 138.598C133.632 138.154 133.752 137.626 133.752 137.014ZM141.632 133.576C141.956 133.048 142.376 132.634 142.892 132.334C143.42 132.034 144.02 131.884 144.692 131.884V134.53H144.026C143.234 134.53 142.634 134.716 142.226 135.088C141.83 135.46 141.632 136.108 141.632 137.032V142H139.112V132.028H141.632V133.576Z" fill="#221F20"/>
<path d="M14.1618 5.84703H18V8.63456H13.9632C13.7206 10.153 13.2574 11.3654 12.5735 12.272C11.9118 13.1558 10.9632 13.8017 9.72794 14.2096C8.49265 14.5949 6.89338 14.7875 4.93015 14.7875V16.9292C4.93015 18.1756 5.18382 19.1615 5.69118 19.8867C6.22059 20.6119 7.10294 20.9745 8.33824 20.9745C10.5882 20.9745 11.7132 19.6714 11.7132 17.0652H15.1875C15.1654 19.3541 14.5588 21.0878 13.3676 22.2663C12.1985 23.4221 10.5 24 8.27206 24C6.04412 24 4.33456 23.3654 3.14338 22.0963C1.97426 20.8272 1.38971 19.0482 1.38971 16.7592V12.102C3.83824 12.102 5.63603 12.034 6.78309 11.898C7.93015 11.7394 8.77941 11.4221 9.33088 10.9462C9.90441 10.4703 10.2794 9.69972 10.4559 8.63456H0V5.84703H10.6213V2.82153H0V0H18V2.82153H14.1618V5.84703Z" fill="#0D4992"/>
</svg>
