<svg width="72" height="72" viewBox="0 0 72 72" fill="none" xmlns="http://www.w3.org/2000/svg">
<g clip-path="url(#clip0_2191_1628)">
<path d="M61.0554 35.1165C57.71 31.6836 53.2494 29.3347 48.603 28.4313C46.5586 27.8893 44.5142 27.5279 42.4698 27.3473C47.6737 21.3849 46.7444 12.3509 40.6112 7.29191C34.4779 2.2329 25.1851 3.13629 19.9812 9.09869C14.7772 15.0611 15.7065 24.095 21.8397 29.154C22.9549 30.0574 24.07 30.7802 25.1851 31.1415V35.1165L22.2114 32.4063C19.6094 29.8768 15.3347 29.8768 12.5469 32.4063C9.94492 34.9358 9.75906 38.9107 12.361 41.4402L20.9104 51.1969C21.2821 53.7264 22.2114 56.0752 23.5124 58.2433C24.4417 59.8695 25.7427 61.4956 27.0437 62.7603V66.1932C27.0437 67.2773 27.7871 68 28.9023 68H54.1787C55.108 68 56.0373 67.0966 56.0373 66.1932V61.4956C59.5685 57.34 61.4271 52.1003 61.4271 46.8606V36.3812C61.6129 35.6585 61.4271 35.2971 61.0554 35.1165ZM20.167 18.1326C20.167 12.1702 25.1851 7.47258 31.3184 7.65326C37.4516 7.65326 42.2839 12.5316 42.098 18.494C42.098 21.7462 40.6112 24.6371 38.0092 26.6245V17.5906C37.8233 14.3384 35.0355 11.8089 31.6901 11.8089C28.3447 11.6282 25.371 14.3384 25.371 17.5906V26.9859C22.2114 25.1791 20.3529 21.7462 20.167 18.1326ZM57.8958 46.6799C58.0817 51.3776 56.409 55.8945 53.2494 59.5081C52.8777 59.8695 52.506 60.2308 52.506 60.7729V64.5671H30.9467V62.0376C30.9467 61.4956 30.575 60.9535 30.2032 60.5922C28.9023 59.5081 27.7871 58.2433 26.8578 56.6172C25.7427 54.8104 24.9993 52.6423 24.6276 50.4742C24.6276 50.1128 24.4417 49.7514 24.2558 49.3901L15.3347 39.0914C14.7772 38.5494 14.4055 37.8266 14.4055 36.9232C14.4055 36.2005 14.7772 35.2971 15.3347 34.7551C16.6357 33.671 18.4943 33.671 19.7953 34.7551L25.1851 39.9948V45.4151L28.7164 43.6084V17.5906C28.9023 16.3258 30.0174 15.2418 31.5042 15.4225C32.8052 15.4225 34.1062 16.3258 34.1062 17.5906V38.3687L37.8233 39.0914V30.7802C38.0092 30.5995 38.1951 30.5995 38.3809 30.4188C39.6819 30.4188 40.9829 30.5995 42.2839 30.7802V39.9948L45.2576 40.5368V31.1415L47.4879 31.6836C48.4172 31.8642 49.3464 32.2256 50.2757 32.5869V41.6209L53.2494 42.1629V33.8517C54.9221 34.5744 56.409 35.6585 57.71 36.9232L57.8958 46.6799Z" fill="#25B8AF"/>
</g>
<defs>
<clipPath id="clip0_2191_1628">
<rect width="72" height="72" fill="white"/>
</clipPath>
</defs>
</svg>
