<svg width="73" height="72" viewBox="0 0 73 72" fill="none" xmlns="http://www.w3.org/2000/svg">
<path d="M59.185 38.0118C57.2791 36.135 55.4022 34.2226 53.4964 32.3522C53.4851 32.3409 53.4674 32.3297 53.4561 32.3168C53.3066 32.1979 53.2099 32.0249 53.187 31.8352C53.1641 31.6455 53.2168 31.4545 53.3337 31.3034C54.3271 29.6787 54.7436 27.7665 54.5161 25.8758C54.3442 24.3831 53.8038 22.9566 52.9433 21.7247C52.0829 20.4929 50.9296 19.4944 49.5872 18.8193C48.2449 18.1441 46.7558 17.8134 45.2538 17.8571C43.7519 17.9007 42.2843 18.3172 40.9834 19.0692C40.9732 19.0806 40.9612 19.0903 40.9479 19.0981C40.8187 19.1897 40.6585 19.2265 40.5022 19.2006C40.3459 19.1746 40.2062 19.088 40.1134 18.9596C38.7408 17.558 37.3505 16.1789 35.9666 14.795C35.3222 14.1506 34.6923 13.5062 34.0333 12.8827C33.814 12.6666 33.541 12.5132 33.2424 12.4381C33.0085 12.3885 32.7671 12.3854 32.532 12.429C32.297 12.4727 32.0728 12.5622 31.8723 12.6925C31.6719 12.8229 31.499 12.9914 31.3637 13.1885C31.2283 13.3856 31.1331 13.6074 31.0835 13.8413C31.0416 14.0137 31.0095 14.1893 30.9805 14.3649C30.5858 16.5318 28.9811 25.4183 28.9473 25.5971C28.4962 27.967 28.0725 30.3352 27.6504 32.705C27.5871 33.0757 27.4036 33.4154 27.1284 33.6717L17.3155 43.499C16.5133 44.2283 15.9875 45.2122 15.827 46.2845C15.7262 46.8906 15.7679 47.5119 15.9488 48.0991C16.1297 48.6863 16.4449 49.2234 16.8693 49.6677C18.7816 51.638 20.7214 53.5954 22.7029 55.5013C23.2021 55.9934 23.8241 56.3427 24.5042 56.5127C25.1842 56.6827 25.8973 56.6673 26.5694 56.4679C26.7419 56.4073 26.9289 56.4021 27.1045 56.4529C27.2801 56.5038 27.4355 56.6081 27.549 56.7515C28.986 58.2175 30.4391 59.6514 31.968 61.1835H31.9793C29.483 61.5665 26.9338 61.4143 24.5008 60.7372C21.0382 59.9116 17.913 58.0418 15.5486 55.3808C13.1842 52.7199 11.6948 49.3964 11.2822 45.8608C10.8418 43.1242 11.036 40.323 11.8496 37.6733C12.6633 35.0236 14.0748 32.5962 15.9752 30.5784C18.3392 27.9695 21.4846 26.1964 24.9406 25.5246C25.2903 25.4512 25.6101 25.2751 25.8589 25.0187C26.1078 24.7624 26.2744 24.4376 26.3374 24.0859C26.3893 23.7952 26.3683 23.4961 26.2764 23.2154C26.1844 22.9347 26.0245 22.6812 25.8107 22.4774C25.5969 22.2736 25.3358 22.126 25.0511 22.0477C24.7663 21.9694 24.4665 21.9628 24.1786 22.0286C22.8701 22.3437 21.5948 22.7834 20.3702 23.3416C17.4979 24.6088 14.9358 26.486 12.862 28.843C10.7883 31.2 9.25251 33.9802 8.36136 36.9904C7.97294 38.3494 7.69022 39.7363 7.51562 41.1388V45.3163C7.54462 45.45 7.58005 45.5773 7.59616 45.7045C8.12773 50.8 10.5156 55.5217 14.3045 58.9699C17.2069 61.8156 20.8703 63.7612 24.8533 64.5721C28.8363 65.3831 32.9688 65.0247 36.7528 63.5404C40.8772 62.0254 44.4427 59.2908 46.9752 55.7002C49.5076 52.1095 50.8871 47.833 50.93 43.4394C50.93 42.795 51.162 42.6162 51.7356 42.5179C53.867 42.1651 55.9935 41.7526 58.125 41.3902C58.5238 41.3792 58.9099 41.2478 59.2326 41.0132C59.5552 40.7785 59.7992 40.4516 59.9325 40.0756C60.0318 39.6964 60.0136 39.2959 59.8801 38.9273C59.7466 38.5587 59.5041 38.2395 59.185 38.0118ZM43.6658 21.6646C44.2509 21.4483 44.8725 21.3482 45.4959 21.3697V21.381C46.3786 21.3796 47.2488 21.5896 48.0335 21.9937C48.8183 22.3977 49.4948 22.9839 50.0064 23.7031C50.518 24.4224 50.8499 25.2538 50.9742 26.1276C51.0984 27.0015 51.0115 27.8924 50.7206 28.7257C50.5176 29.2928 50.4595 29.3057 50.031 28.8756C47.8529 26.6974 45.6786 24.5231 43.508 22.3525C43.0875 21.9191 43.0923 21.8788 43.6658 21.6646ZM26.2521 52.7255C26.1638 52.8368 26.052 52.9273 25.9247 52.9905C25.7975 53.0537 25.6578 53.0881 25.5158 53.0912H25.4804C25.2166 53.0678 24.9727 52.941 24.8021 52.7384C23.0643 51.0124 21.3341 49.2805 19.6113 47.5427C19.5239 47.4845 19.4488 47.4095 19.3906 47.322C19.2679 47.1406 19.2222 46.9179 19.2635 46.7028C19.3049 46.4878 19.4301 46.2979 19.6113 46.175C22.6992 43.0989 25.7714 40.0208 28.8281 36.9405C29.1004 36.6682 29.2744 36.7036 29.5176 36.9517C31.4809 38.9333 33.4524 40.9031 35.4318 42.861C35.7041 43.1268 35.6815 43.3009 35.4318 43.5506L26.2521 52.7255ZM39.3015 58.3448C38.3551 58.9633 37.3612 59.5057 36.3291 59.9671C36.1979 60.0417 36.0443 60.0665 35.8963 60.0369C35.7483 60.0073 35.6159 59.9253 35.5235 59.806C33.7449 58.0156 31.9647 56.2316 30.1829 54.4541C29.9977 54.2737 29.8238 54.1061 30.0912 53.8516C30.908 53.0461 31.7135 52.2244 32.5303 51.4189C32.5676 51.3673 32.6176 51.3263 32.6755 51.2997C32.7334 51.2732 32.7971 51.2621 32.8606 51.2675C32.9597 51.3304 33.0529 51.4021 33.1392 51.4817C35.2191 53.5503 37.2877 55.635 39.3724 57.6972C39.6624 57.9855 39.6173 58.137 39.3047 58.3448H39.3015ZM47.3567 44.3368C47.1016 48.4191 45.4745 52.2955 42.7394 55.337C42.4446 55.6592 42.2642 55.627 41.9742 55.337C39.8831 53.2222 37.7801 51.1192 35.6653 49.0281C35.3528 48.7204 35.3705 48.5448 35.6653 48.258C36.719 47.2334 37.75 46.1895 38.7875 45.1471C38.9782 44.9382 39.2335 44.7992 39.5125 44.7524C41.9403 44.3239 44.3666 43.8712 46.7831 43.4378C47.3792 43.3363 47.3792 43.3412 47.3615 44.3384L47.3567 44.3368ZM53.9781 38.537C49.1299 39.4177 44.2812 40.3081 39.432 41.2081C39.2438 41.2535 39.0466 41.245 38.8631 41.1834C38.6796 41.1219 38.5172 41.0098 38.3945 40.8602C36.1068 38.5435 33.803 36.2397 31.483 33.9488C31.3419 33.8289 31.2371 33.6721 31.1802 33.4959C31.1233 33.3198 31.1166 33.1312 31.1609 32.9515C32.0706 27.9755 32.9782 22.9974 33.8836 18.0171L34.1075 17.9479C34.6327 18.4553 35.1498 18.9419 35.6509 19.4429C38.9471 22.7563 42.2411 26.0659 45.533 29.3718C48.4006 32.2223 51.2683 35.0781 54.136 37.9393C54.2697 38.073 54.5066 38.1487 54.4582 38.3678C54.4099 38.5869 54.1569 38.5112 53.9829 38.5451L53.9781 38.537Z" fill="url(#paint0_linear_2477_1212)"/>
<path d="M46.1622 7.00162C46.5559 7.20799 46.8768 7.52998 47.0819 7.9243C47.287 8.31863 47.3663 8.76634 47.3092 9.20712C47.2818 10.1737 47.3092 11.1259 47.3092 12.086C47.3357 12.3357 47.3091 12.5882 47.2313 12.8269C47.1534 13.0656 47.0261 13.2851 46.8575 13.4712C46.6889 13.6572 46.4829 13.8056 46.2531 13.9066C46.0232 14.0076 45.7746 14.0589 45.5235 14.0572C45.2725 14.0555 45.0247 14.0008 44.7962 13.8967C44.5677 13.7926 44.3638 13.6414 44.1978 13.4531C44.0318 13.2647 43.9074 13.0434 43.8329 12.8037C43.7583 12.564 43.7351 12.3112 43.7649 12.0619C43.7649 11.0953 43.7891 10.1061 43.7649 9.12659C43.706 8.69533 43.7863 8.2565 43.994 7.87401C44.2018 7.49152 44.5263 7.18533 44.9201 7L46.1622 7.00162Z" fill="url(#paint1_linear_2477_1212)"/>
<path d="M61.8944 28.6191C61.2935 28.6191 60.6861 28.6352 60.0916 28.6191C59.644 28.6331 59.2088 28.4707 58.8797 28.167C58.5506 27.8632 58.3542 27.4424 58.3324 26.9951C58.2718 26.5635 58.385 26.1256 58.6473 25.7776C58.9095 25.4295 59.2992 25.1999 59.7308 25.1392C59.7807 25.1392 59.829 25.1279 59.8789 25.1247C61.2078 25.0001 62.5455 25.0001 63.8744 25.1247C64.0892 25.1356 64.2997 25.1888 64.4939 25.2811C64.6881 25.3734 64.8622 25.5031 65.0063 25.6627C65.1504 25.8223 65.2615 26.0088 65.3335 26.2114C65.4055 26.4141 65.4368 26.6289 65.4258 26.8437C65.4258 26.8952 65.4258 26.9468 65.4113 27.0048C65.3859 27.4519 65.186 27.8713 64.8546 28.1725C64.5231 28.4738 64.0868 28.633 63.6392 28.6158C63.0576 28.6351 62.4744 28.6158 61.8896 28.6158L61.8944 28.6191Z" fill="url(#paint2_linear_2477_1212)"/>
<path d="M58.3667 12.2764C58.6984 12.2655 59.0256 12.3551 59.3056 12.5333C59.5856 12.7116 59.8053 12.9702 59.9358 13.2753C60.0947 13.5699 60.1569 13.9071 60.1135 14.239C60.0701 14.571 59.9234 14.8808 59.6941 15.1247C58.7962 16.0914 57.8656 17.0226 56.9022 17.9183C56.5664 18.1859 56.1434 18.3194 55.7148 18.2931C55.2862 18.2668 54.8826 18.0825 54.582 17.7759C54.2814 17.4693 54.1052 17.0622 54.0874 16.6332C54.0696 16.2042 54.2115 15.7839 54.4857 15.4534C55.3717 14.5045 56.3045 13.6007 57.2373 12.6953C57.388 12.5502 57.5672 12.438 57.7636 12.3659C57.96 12.2938 58.1692 12.2633 58.378 12.2764H58.3667Z" fill="url(#paint3_linear_2477_1212)"/>
<defs>
<linearGradient id="paint0_linear_2477_1212" x1="115.414" y1="9.2952" x2="112.199" y2="85.6133" gradientUnits="userSpaceOnUse">
<stop stop-color="#00EFD1"/>
<stop offset="1" stop-color="#00ACEA"/>
</linearGradient>
<linearGradient id="paint1_linear_2477_1212" x1="51.1089" y1="6.58362" x2="50.2649" y2="16.7719" gradientUnits="userSpaceOnUse">
<stop stop-color="#00EFD1"/>
<stop offset="1" stop-color="#00ACEA"/>
</linearGradient>
<linearGradient id="paint2_linear_2477_1212" x1="72.9377" y1="24.8191" x2="72.8267" y2="30.0423" gradientUnits="userSpaceOnUse">
<stop stop-color="#00EFD1"/>
<stop offset="1" stop-color="#00ACEA"/>
</linearGradient>
<linearGradient id="paint3_linear_2477_1212" x1="66.5063" y1="11.9181" x2="66.14" y2="20.6574" gradientUnits="userSpaceOnUse">
<stop stop-color="#00EFD1"/>
<stop offset="1" stop-color="#00ACEA"/>
</linearGradient>
</defs>
</svg>
