<svg width="168" height="143" viewBox="0 0 168 143" fill="none" xmlns="http://www.w3.org/2000/svg">
<path d="M11.4601 126.803C7.84082 119.74 9.17753 110.791 14.7532 104.868C18.0464 101.386 22.6767 98.7822 24.5024 94.5188C26.1978 90.5159 24.9588 85.9599 22.9047 82.087C20.8505 78.2141 18.0142 74.6993 16.2858 70.6964C12.5362 61.9745 14.6572 51.8534 19.7748 43.7171C24.8924 35.5808 32.7177 29.17 40.8387 23.377C50.386 16.5601 60.4118 10.4368 70.8387 5.05455C81.1098 -0.249598 93.3695 -1.22659 104.815 1.40966C118.183 4.46895 129.106 13.0929 135.921 23.8C139.316 29.1242 141.734 35.0089 143.062 41.1788C143.649 43.9126 144.725 47.7525 144.268 50.4863C143.747 53.4805 140.812 55.4983 139.736 58.3946C137.422 64.5452 143.062 70.5 147.268 75.7409C152.454 82.1845 155.974 89.8649 156.496 97.8057C157.018 105.779 154.377 114.013 148.54 119.968C142.671 125.989 134.193 129.308 125.813 131.912C109.708 136.926 93.0779 140.07 76.2515 141.285C61.0895 142.391 44.167 143.107 29.623 138.746C21.9267 136.467 15.1445 133.962 11.4601 126.803Z" fill="#F3FAFF"/>
<path d="M143.025 63.895C143.254 67.6049 145.438 71.0223 148.438 73.2025C151.438 75.3828 155.22 76.3593 158.938 76.4244C162.199 76.4894 165.883 75.5783 167.383 72.6819C168.916 69.6552 167.318 66.0428 165.59 63.1465C163.568 59.7291 161.22 56.3122 157.797 54.327C150.525 50.1616 142.536 55.7592 143.025 63.895Z" fill="#F3FAFF"/>
<path d="M18.437 82.6403C19.9696 86.1876 20.5889 90.2543 19.3499 93.933C18.1109 97.5779 14.7852 100.67 10.9049 100.832C7.05718 100.995 3.50304 98.2939 1.74246 94.8437C0.0144643 91.4263 -0.213964 87.3909 0.14475 83.5835C0.438322 80.3291 1.15575 76.9443 3.40532 74.6006C10.0246 67.704 16.1219 77.2377 18.437 82.6403Z" fill="#F3FAFF"/>
<path d="M139.763 136.562H98.3535C98.0688 136.56 97.7965 136.446 97.5953 136.245C97.394 136.044 97.2798 135.773 97.2773 135.488V56.1131C97.2798 55.829 97.394 55.5573 97.5953 55.3564C97.7965 55.1555 98.0688 55.0415 98.3535 55.0391H139.764C140.048 55.0415 140.321 55.1555 140.522 55.3564C140.723 55.5573 140.837 55.829 140.84 56.1131V135.488C140.832 135.771 140.716 136.039 140.516 136.239C140.316 136.439 140.046 136.555 139.763 136.562Z" fill="#666666"/>
<path d="M92.8142 97.1201H49.8066C49.522 97.1176 49.2497 97.0036 49.0484 96.8027C48.8471 96.6018 48.7329 96.3301 48.7305 96.046V56.6678C48.7329 56.3837 48.8471 56.112 49.0484 55.9111C49.2497 55.7102 49.522 55.5962 49.8066 55.5938H92.8142C93.0988 55.5962 93.3711 55.7102 93.5724 55.9111C93.7737 56.112 93.8879 56.3837 93.8903 56.6678V96.0464C93.8877 96.3304 93.7735 96.6021 93.5723 96.8029C93.371 97.0037 93.0987 97.1176 92.8142 97.1201Z" fill="#767676"/>
<path d="M92.8142 142.718H49.8066C49.522 142.715 49.2497 142.601 49.0484 142.4C48.8471 142.199 48.7329 141.928 48.7305 141.643V101.191C48.7329 100.907 48.8471 100.635 49.0484 100.434C49.2497 100.234 49.522 100.12 49.8066 100.117H92.8142C93.0988 100.12 93.3711 100.234 93.5724 100.434C93.7737 100.635 93.8879 100.907 93.8903 101.191V141.643C93.8879 141.928 93.7737 142.199 93.5724 142.4C93.3711 142.601 93.0988 142.715 92.8142 142.718Z" fill="#767676"/>
<path d="M137.97 136.562H96.5605C96.2759 136.56 96.0036 136.446 95.8023 136.245C95.601 136.044 95.4868 135.773 95.4844 135.488V56.1131C95.4868 55.829 95.601 55.5573 95.8023 55.3564C96.0036 55.1555 96.2759 55.0415 96.5605 55.0391H137.971C138.255 55.0415 138.528 55.1555 138.729 55.3564C138.93 55.5573 139.044 55.829 139.047 56.1131V135.488C139.044 135.773 138.93 136.044 138.729 136.245C138.527 136.446 138.255 136.56 137.97 136.562Z" fill="#919191"/>
<path d="M91.0499 97.1201H48.0097C47.7251 97.1176 47.4528 97.0036 47.2515 96.8027C47.0502 96.6018 46.9361 96.3301 46.9336 96.046V56.6678C46.9361 56.3837 47.0502 56.112 47.2515 55.9111C47.4528 55.7102 47.7251 55.5962 48.0097 55.5938H91.0173C91.302 55.5962 91.5742 55.7102 91.7755 55.9111C91.9768 56.112 92.091 56.3837 92.0935 56.6678V96.0464C92.0958 96.1854 92.0707 96.3234 92.0195 96.4527C91.9683 96.5819 91.892 96.6998 91.7951 96.7995C91.6981 96.8993 91.5824 96.979 91.4545 97.034C91.3266 97.089 91.1891 97.1182 91.0499 97.1201Z" fill="#C6C6C6"/>
<path d="M140.025 53.2841H97.0175C96.7329 53.2817 96.4606 53.1677 96.2593 52.9668C96.058 52.7659 95.9439 52.4941 95.9414 52.21V12.8319C95.9439 12.5478 96.058 12.276 96.2593 12.0751C96.4606 11.8742 96.7329 11.7603 97.0175 11.7578H140.025C140.31 11.7603 140.582 11.8742 140.783 12.0751C140.985 12.276 141.099 12.5478 141.101 12.8319V52.2105C141.099 52.4945 140.984 52.7662 140.783 52.967C140.582 53.1678 140.31 53.2817 140.025 53.2841Z" fill="#767676"/>
<path d="M138.264 53.2812H96.5279C96.2517 53.2794 95.9873 53.1691 95.792 52.9741C95.5967 52.7792 95.4862 52.5153 95.4844 52.2396V12.8306C95.4862 12.555 95.5967 12.2911 95.792 12.0961C95.9873 11.9012 96.2517 11.7909 96.5279 11.7891H138.231C138.508 11.7909 138.772 11.9012 138.967 12.0961C139.163 12.2911 139.273 12.555 139.275 12.8306V52.2417C139.28 52.3771 139.258 52.512 139.209 52.6385C139.161 52.7649 139.087 52.8802 138.992 52.9773C138.898 53.0745 138.784 53.1515 138.659 53.2038C138.534 53.256 138.4 53.2823 138.264 53.2812Z" fill="#C6C6C6"/>
<path d="M91.0499 142.718H48.0097C47.7251 142.715 47.4528 142.601 47.2515 142.4C47.0502 142.199 46.9361 141.928 46.9336 141.643V101.191C46.9361 100.907 47.0502 100.635 47.2515 100.434C47.4528 100.234 47.7251 100.12 48.0097 100.117H91.0173C91.302 100.12 91.5742 100.234 91.7755 100.434C91.9768 100.635 92.091 100.907 92.0935 101.191V141.643C92.0959 141.782 92.0708 141.921 92.0196 142.05C91.9684 142.179 91.8922 142.297 91.7952 142.397C91.6983 142.497 91.5825 142.576 91.4546 142.631C91.3267 142.686 91.1892 142.716 91.0499 142.718Z" fill="#C6C6C6"/>
<path d="M115.049 85.206C115.049 91.4872 111.724 94.6115 107.876 94.6115C104.159 94.6115 100.931 91.6172 100.898 85.6286C100.898 79.673 104.159 76.3211 108.104 76.3211C112.278 76.2891 115.049 79.5109 115.049 85.206ZM104.094 85.4665C103.996 89.2735 105.431 92.1707 107.942 92.1707C110.615 92.1707 111.789 89.3394 111.789 85.3694C111.789 81.757 110.746 78.6965 107.942 78.6965C105.431 78.7298 104.094 81.6916 104.094 85.4665ZM107.583 107.141L125.156 76.2891H127.731L110.156 107.141H107.583ZM134.483 97.5403C134.483 103.821 131.157 106.946 127.342 106.946C123.625 106.946 120.397 103.951 120.365 97.9963C120.365 91.9756 123.625 88.6238 127.571 88.6238C131.777 88.6233 134.483 91.8452 134.483 97.5403ZM123.56 97.8333C123.527 101.64 124.995 104.537 127.473 104.537C130.147 104.537 131.321 101.706 131.321 97.7362C131.321 94.1238 130.277 91.0632 127.473 91.0632C124.929 91.0641 123.56 94.0584 123.56 97.8333Z" fill="white"/>
<path d="M69.9529 66.0078V75.3478H78.9529V77.7236H69.9529V87.129H67.4102V77.7236H58.4102V75.3478H67.4102V66.0078H69.9529Z" fill="#202020"/>
<path d="M126.916 27.1508L120.23 33.6595L126.523 40.0707L124.828 41.7303L118.535 35.3192L111.785 41.8933L109.992 40.0707L116.743 33.4982L110.45 27.0853L112.145 25.4257L118.438 31.8368L125.122 25.3281L126.916 27.1508Z" fill="#202020"/>
<path d="M57.9531 118.178V115.672H79.5711V118.178H57.9531ZM57.9531 126.379V123.873H79.5711V126.379H57.9531Z" fill="#202020"/>
<path d="M61.7353 17.3933C61.7353 22.3398 59.9092 25.0736 56.6812 25.0736C53.8445 25.0736 51.9206 22.4049 51.8555 17.6209C51.8555 12.7393 53.9748 10.0706 56.9096 10.0706C59.9743 10.0385 61.7353 12.7723 61.7353 17.3933ZM53.8119 17.6213C53.8119 21.3962 54.9858 23.5444 56.7789 23.5444C58.8005 23.5444 59.7459 21.2012 59.7459 17.4913C59.7459 13.9114 58.833 11.5682 56.7789 11.5682C55.0835 11.5682 53.8119 13.6834 53.8119 17.6213Z" fill="#C5C5C5"/>
<path d="M155.44 69.2109V66.282H150.418V65.3059L155.244 58.4062H156.841V65.1104H158.374V66.2495H156.841V69.1784H155.439L155.44 69.2109ZM155.44 65.1429V61.5288C155.44 60.9758 155.472 60.3897 155.505 59.8367H155.44C155.164 60.3839 154.859 60.9162 154.527 61.4313L151.885 65.11V65.1425L155.44 65.1429Z" fill="#777777"/>
<path d="M6.56641 87.5951V86.684L7.70769 85.5774C10.4793 82.9412 11.7183 81.542 11.7508 79.9148C11.7508 78.8082 11.2293 77.7996 9.59898 77.7996C8.74626 77.8321 7.93006 78.1535 7.28469 78.7107L6.82826 77.6691C7.6913 76.9589 8.77359 76.568 9.89212 76.5625C12.2398 76.5625 13.2178 78.1572 13.2178 79.7193C13.2178 81.7045 11.783 83.3317 9.50083 85.5124L8.62055 86.3251V86.3576H13.4788V87.5618H6.56641V87.5951Z" fill="#777777"/>
<path d="M79.9254 45.041C76.8476 45.0803 73.8802 43.8979 71.6758 41.7537L73.2409 40.0616C74.163 40.9544 75.2331 41.6811 76.4038 42.2093C77.5287 42.6792 78.7386 42.9122 79.9579 42.8937C81.0443 42.919 82.1197 42.6729 83.0865 42.1776C83.969 41.714 84.6949 41.0009 85.1732 40.1274C85.6763 39.21 85.9346 38.1789 85.9232 37.1332C85.952 36.4032 85.8212 35.6758 85.54 35.0014C85.2587 34.327 84.8338 33.7218 84.2946 33.2278C83.0982 32.2084 81.5622 31.674 79.9901 31.7302C79.0778 31.724 78.1684 31.8334 77.2836 32.0557C76.3397 32.314 75.4233 32.6634 74.5472 33.099L72.8171 32.5429L73.3712 20.4375H87.1639V22.619H75.5235L75.1322 30.9829C76.7954 30.1296 78.6421 29.694 80.5121 29.7138C81.9569 29.6729 83.3897 29.9857 84.6855 30.6249C85.8337 31.2039 86.7945 32.0951 87.4571 33.1957C88.1224 34.3529 88.4604 35.6687 88.4351 37.0027C88.4679 38.4736 88.0966 39.9254 87.3615 41.2007C86.6542 42.4004 85.6271 43.3806 84.3945 44.032C83.011 44.7311 81.4757 45.0778 79.9254 45.041Z" fill="#C7C7C7"/>
<path d="M39.521 54.2419C38.163 54.2592 36.8321 53.8618 35.7068 53.1028C34.5736 52.307 33.6824 51.2146 33.131 49.9459C32.4801 48.4818 32.1575 46.8935 32.1856 45.292C32.1533 43.4383 32.5087 41.5983 33.2292 39.8895C33.8433 38.4401 34.8619 37.1975 36.1636 36.3096C37.4692 35.4534 39.0036 35.011 40.5655 35.0404C41.3488 35.0345 42.1286 35.1442 42.8798 35.366C43.609 35.5733 44.3018 35.8916 44.9339 36.3096L43.9885 37.8067C43.4405 37.4972 42.8613 37.2463 42.2605 37.0582C41.6658 36.8919 41.0518 36.8044 40.4343 36.7977C39.2457 36.7669 38.079 37.1209 37.1086 37.8067C36.1198 38.5252 35.3701 39.5237 34.9568 40.6727C34.4067 42.0945 34.1305 43.6071 34.1425 45.1311C34.8083 44.2666 35.6536 43.5561 36.6205 43.0484C37.5454 42.5613 38.5747 42.3045 39.6205 42.2998C40.7413 42.2852 41.849 42.542 42.8485 43.0484C43.768 43.5073 44.5373 44.2186 45.0659 45.0986C45.6042 46.0046 45.8857 47.0396 45.8802 48.0929C45.9014 49.1995 45.6198 50.2909 45.0659 51.2497C44.5312 52.1696 43.7527 52.9245 42.8159 53.4313C41.8061 53.9806 40.671 54.2599 39.521 54.2419ZM39.3256 43.8603C38.3467 43.8699 37.3847 44.1156 36.5215 44.5764C35.6097 45.0828 34.8109 45.7693 34.1738 46.5941C34.281 47.6825 34.5906 48.7414 35.0866 49.7167C35.4958 50.5627 36.1269 51.2824 36.9128 51.7994C37.6676 52.2945 38.5527 52.555 39.4559 52.548C40.2554 52.5591 41.0434 52.357 41.7385 51.9624C42.3983 51.586 42.9402 51.0339 43.3036 50.3677C43.699 49.674 43.9015 48.8875 43.8903 48.0895C43.9058 47.3115 43.7026 46.5448 43.3036 45.8763C42.907 45.2416 42.3578 44.7158 41.7059 44.3466C40.9593 44.0076 40.1456 43.8413 39.3256 43.8603Z" fill="#777777"/>
</svg>
