<svg width="64" height="64" viewBox="0 0 64 64" fill="none" xmlns="http://www.w3.org/2000/svg">
<path d="M6.08 64C4.34823 64 2.90259 63.4202 1.74306 62.2607C0.58102 61.0987 0 59.6518 0 57.92V1.88235C0 0.842758 0.842758 0 1.88235 0C2.92195 0 3.76471 0.842759 3.76471 1.88235V57.92C3.76471 58.4973 4.00565 59.0281 4.48753 59.5125C4.97192 59.9944 5.50274 60.2353 6.08 60.2353H62.1176C63.1572 60.2353 64 61.0781 64 62.1176C64 63.1572 63.1572 64 62.1176 64H6.08ZM16.6259 50.8235C15.5213 50.8235 14.6259 49.9281 14.6259 48.8235V25.3111C14.6259 24.2065 15.5213 23.3111 16.6259 23.3111H20.1553C21.2599 23.3111 22.1553 24.2065 22.1553 25.3111V48.8235C22.1553 49.9281 21.2599 50.8235 20.1553 50.8235H16.6259ZM33.5671 50.8235C32.4625 50.8235 31.5671 49.9281 31.5671 48.8235V6.48753C31.5671 5.38296 32.4625 4.48753 33.5671 4.48753H37.0965C38.201 4.48753 39.0965 5.38296 39.0965 6.48753V48.8235C39.0965 49.9281 38.201 50.8235 37.0965 50.8235H33.5671ZM50.5082 50.8235C49.4037 50.8235 48.5082 49.9281 48.5082 48.8235V40.3699C48.5082 39.2653 49.4037 38.3699 50.5082 38.3699H54.0377C55.1422 38.3699 56.0376 39.2653 56.0376 40.3699V48.8235C56.0376 49.9281 55.1422 50.8235 54.0376 50.8235H50.5082Z" fill="#25B8AF"/>
</svg>
