<svg width="73" height="72" viewBox="0 0 73 72" fill="none" xmlns="http://www.w3.org/2000/svg">
<path d="M22.1467 39.4956C20.5688 39.4956 19.2896 38.2164 19.2896 36.6384C19.2896 35.0604 20.5688 33.7812 22.1467 33.7812C23.7247 33.7812 25.0039 35.0604 25.0039 36.6384C25.0039 38.2164 23.7247 39.4956 22.1467 39.4956Z" fill="url(#paint0_linear_2477_1188)"/>
<path d="M27.8583 28.0703H45.0012C45.8583 28.0703 46.4297 28.6418 46.4297 29.4988C46.4297 30.3559 45.8582 30.9274 45.0012 30.9274H27.8584C27.0013 30.9274 26.4299 30.3559 26.4299 29.4988C26.4299 28.6418 27.0012 28.0703 27.8583 28.0703Z" fill="url(#paint1_linear_2477_1188)"/>
<path d="M9.28253 35.2111C10.1397 35.2111 10.854 34.7825 11.2825 33.9253C12.4254 31.6397 13.8539 29.4967 15.8539 27.4967L13.711 19.9253C13.5681 19.4967 13.711 19.0682 13.9967 18.6396C14.2823 18.3539 14.7109 18.0681 15.1395 18.0681C18.9966 17.9252 22.1394 19.2109 24.568 21.9252C25.7109 21.4966 26.9966 21.068 28.2823 20.6395C27.2824 19.068 26.7109 17.2109 26.7109 15.2109C26.7109 9.63952 31.1395 5.21094 36.7109 5.21094C42.2824 5.21094 46.7109 9.63952 46.7109 15.2109C46.7109 20.7824 42.2824 25.2109 36.7109 25.2109C34.2824 25.2109 32.1396 24.3538 30.4253 22.9253C28.5682 23.3538 26.2825 24.211 24.8538 24.9253C24.2823 25.2109 23.5681 25.0682 23.1395 24.4967C21.5681 22.4967 19.711 21.3538 17.2824 21.0682L19.1395 27.6395C19.2824 28.211 19.1395 28.7824 18.7109 29.068C16.7109 30.9251 15.1395 32.9251 14.1396 35.2108C13.2824 37.0679 11.5682 38.068 9.5682 38.068C8.71104 38.068 8.13968 38.6395 8.13968 39.4965V45.2107C8.13968 46.0679 8.71116 46.6392 9.5682 46.6392H11.9968C12.4254 46.6392 12.711 46.7821 12.9967 47.0678C13.711 47.925 14.2825 48.4963 14.9967 49.0678C15.711 49.7821 16.5681 50.4963 17.711 51.925C19.8539 54.3535 20.9967 57.4964 20.9967 60.9249V62.3534C20.9967 63.2106 21.5682 63.7819 22.4252 63.7819H25.2824C26.1396 63.7819 26.7109 63.2105 26.7109 62.3534V59.6392C26.7109 58.782 27.2824 58.2106 28.1394 58.2106C28.9966 58.2106 29.568 58.7821 29.568 59.6392V62.3534C29.568 64.782 27.7109 66.6391 25.2823 66.6391H22.4254C19.9968 66.6391 18.1397 64.782 18.1397 62.3534V60.9249C18.1397 58.2106 17.2825 55.6392 15.5683 53.7821C14.4255 52.4963 13.7112 51.7821 12.997 51.0678C12.4255 50.6392 11.997 50.0679 11.4256 49.4964H9.28265C6.85406 49.4964 4.99697 47.6393 4.99697 45.2107V39.4965C4.99685 37.0682 6.85407 35.2111 9.28253 35.2111ZM36.4253 22.354C40.4253 22.354 43.5681 19.2112 43.5681 15.2112C43.5681 11.2112 40.4253 8.06834 36.4253 8.06834C32.4253 8.06834 29.2824 11.2112 29.2824 15.2112C29.2825 19.2112 32.4254 22.354 36.4253 22.354Z" fill="url(#paint2_linear_2477_1188)"/>
<path d="M33.1431 59.3649C37.4288 59.7935 42.0001 59.3649 46.0001 57.9364C46.4287 57.7935 46.8573 57.7935 47.2859 58.0793C47.5715 58.365 47.8573 58.7935 47.8573 59.2221V62.365C47.8573 63.2221 48.4288 63.7935 49.2859 63.7935H52.143C53.0002 63.7935 53.5715 63.222 53.5715 62.365V59.0792C53.5715 56.0793 54.5715 53.0792 56.5715 50.6506C57.0001 50.2221 57.4286 49.6507 57.8572 49.2221C59.0001 47.9364 59.7143 46.9364 60.2858 45.7936C60.5715 44.7937 60.7144 43.7936 60.7144 42.3651C60.7144 34.7937 55.5715 27.9366 47.2859 24.508C46.5716 24.2223 46.143 23.3651 46.5716 22.6509C46.8573 21.9366 47.7144 21.508 48.4287 21.9366C57.143 25.508 62.7143 32.6508 63.5714 40.6508C64.4286 40.2222 65.1428 39.2222 65.1428 38.0794C65.1428 37.2222 65.7143 36.6509 66.5714 36.6509C67.4284 36.6509 68 37.2222 68 38.0794C68 40.7937 66.1429 42.9366 63.7143 43.6508C63.5714 44.7937 63.4286 45.9365 63.0001 46.7937C62.4286 48.3651 61.4286 49.5079 60.1429 51.0793C59.7143 51.5079 59.2857 52.0793 58.8572 52.6508C57.4286 54.5079 56.5715 56.9364 56.5715 59.2221V62.5079C56.5715 64.9365 54.7144 66.7936 52.2858 66.7936H49.4286C47.0001 66.7936 45.143 64.9365 45.143 62.5079V61.365C41.2859 62.5079 37.0002 62.7935 32.8573 62.365C32.143 62.2221 31.5715 61.5078 31.5715 60.7935C31.5717 59.7935 32.2859 59.2221 33.1431 59.3649Z" fill="url(#paint3_linear_2477_1188)"/>
<path d="M38.5104 11.0015C38.7805 11.0015 38.9986 11.267 39 11.596C38.9975 11.7514 38.9454 11.8996 38.8549 12.0093C38.7643 12.1189 38.6423 12.1814 38.5147 12.1836H36.8729C37.098 12.5639 37.243 13.0057 37.295 13.4703H38.4978C38.7665 13.4703 38.9859 13.7358 38.9859 14.0648C38.9859 14.3937 38.7679 14.661 38.4978 14.661H37.2063C36.9151 15.8808 35.9993 16.7237 34.9555 16.7289H34.7008L37.4638 19.9618C37.6551 20.1931 37.6607 20.5665 37.4778 20.8081C37.3824 20.9229 37.2558 20.9912 37.1219 21C36.9969 20.9982 36.8765 20.9417 36.7829 20.8407L33.1407 16.5661C33.0506 16.4582 33 16.3125 33 16.1601V16.1326V16.1121C33.0017 16.0462 33.0131 15.9812 33.0338 15.9202L33.0492 15.8859C33.0689 15.8294 33.0957 15.778 33.1294 15.7317C33.2223 15.6187 33.3489 15.5553 33.4797 15.5604H34.9583C35.2064 15.5602 35.4499 15.4785 35.6631 15.3238C35.8763 15.1691 36.0513 14.9472 36.1695 14.6815H33.491C33.2223 14.6815 33.0028 14.416 33.0028 14.087C33.0028 13.7581 33.2209 13.4908 33.491 13.4908H36.3046C36.2387 13.1415 36.0819 12.8275 35.8575 12.5957C35.6332 12.3638 35.3533 12.2265 35.0596 12.2042H33.4896C33.3604 12.2028 33.2369 12.1398 33.1456 12.0285C33.0543 11.9173 33.0025 11.7669 33.0014 11.6097V11.5925C33.0028 11.2653 33.2209 11.0015 33.4896 11.0015H34.9639C34.9864 10.9995 35.0089 10.9995 35.0314 11.0015H35.068H38.5104Z" fill="url(#paint4_linear_2477_1188)"/>
<path d="M38.5104 11.0015C38.7805 11.0015 38.9986 11.267 39 11.596C38.9975 11.7514 38.9454 11.8996 38.8549 12.0093C38.7643 12.1189 38.6423 12.1814 38.5147 12.1836H36.8729C37.098 12.5639 37.243 13.0057 37.295 13.4703H38.4978C38.7665 13.4703 38.9859 13.7358 38.9859 14.0648C38.9859 14.3937 38.7679 14.661 38.4978 14.661H37.2063C36.9151 15.8808 35.9993 16.7237 34.9555 16.7289H34.7008L37.4638 19.9618C37.6551 20.1931 37.6607 20.5665 37.4778 20.8081C37.3824 20.9229 37.2558 20.9912 37.1219 21C36.9969 20.9982 36.8765 20.9417 36.7829 20.8407L33.1407 16.5661C33.0506 16.4582 33 16.3125 33 16.1601V16.1326V16.1121C33.0017 16.0462 33.0131 15.9812 33.0338 15.9202L33.0492 15.8859C33.0689 15.8294 33.0957 15.778 33.1294 15.7317C33.2223 15.6187 33.3489 15.5553 33.4797 15.5604H34.9583C35.2064 15.5602 35.4499 15.4785 35.6631 15.3238C35.8763 15.1691 36.0513 14.9472 36.1695 14.6815H33.491C33.2223 14.6815 33.0028 14.416 33.0028 14.087C33.0028 13.7581 33.2209 13.4908 33.491 13.4908H36.3046C36.2387 13.1415 36.0819 12.8275 35.8575 12.5957C35.6332 12.3638 35.3533 12.2265 35.0596 12.2042H33.4896C33.3604 12.2028 33.2369 12.1398 33.1456 12.0285C33.0543 11.9173 33.0025 11.7669 33.0014 11.6097V11.5925C33.0028 11.2653 33.2209 11.0015 33.4896 11.0015H34.9639C34.9864 10.9995 35.0089 10.9995 35.0314 11.0015H35.068H38.5104Z" stroke="url(#paint5_linear_2477_1188)"/>
<defs>
<linearGradient id="paint0_linear_2477_1188" x1="13.2553" y1="33.4441" x2="13.6038" y2="41.7356" gradientUnits="userSpaceOnUse">
<stop stop-color="#00EFD1"/>
<stop offset="1" stop-color="#00ACEA"/>
</linearGradient>
<linearGradient id="paint1_linear_2477_1188" x1="5.31018" y1="27.9017" x2="5.33512" y2="32.0545" gradientUnits="userSpaceOnUse">
<stop stop-color="#00EFD1"/>
<stop offset="1" stop-color="#00ACEA"/>
</linearGradient>
<linearGradient id="paint2_linear_2477_1188" x1="-39.053" y1="1.58668" x2="-33.5463" y2="90.5356" gradientUnits="userSpaceOnUse">
<stop stop-color="#00EFD1"/>
<stop offset="1" stop-color="#00ACEA"/>
</linearGradient>
<linearGradient id="paint3_linear_2477_1188" x1="-6.89694" y1="19.109" x2="-3.50499" y2="84.3837" gradientUnits="userSpaceOnUse">
<stop stop-color="#00EFD1"/>
<stop offset="1" stop-color="#00ACEA"/>
</linearGradient>
<linearGradient id="paint4_linear_2477_1188" x1="45.336" y1="10.41" x2="44.3225" y2="24.8746" gradientUnits="userSpaceOnUse">
<stop stop-color="#00EFD1"/>
<stop offset="1" stop-color="#00ACEA"/>
</linearGradient>
<linearGradient id="paint5_linear_2477_1188" x1="45.336" y1="10.41" x2="44.3225" y2="24.8746" gradientUnits="userSpaceOnUse">
<stop stop-color="#00EFD1"/>
<stop offset="1" stop-color="#00ACEA"/>
</linearGradient>
</defs>
</svg>
