<svg width="202" height="157" viewBox="0 0 202 157" fill="none" xmlns="http://www.w3.org/2000/svg">
<path d="M63 130C53.9689 130 46.0796 127.575 39.3322 122.726C32.5848 117.877 27.3426 110.603 23.6055 100.905C19.8685 91.1032 18 79.1349 18 65C18 50.8651 19.8685 38.9484 23.6055 29.25C27.3426 19.4484 32.5848 12.123 39.3322 7.27381C46.0796 2.4246 53.9689 0 63 0C72.0311 0 79.9204 2.4246 86.6678 7.27381C93.4152 12.123 98.6574 19.4484 102.394 29.25C106.131 38.9484 108 50.8651 108 65C108 79.1349 106.131 91.1032 102.394 100.905C98.6574 110.603 93.4152 117.877 86.6678 122.726C79.9204 127.575 72.0311 130 63 130ZM63 126.44C70.7855 126.44 76.91 122.675 81.3737 115.143C85.8374 107.611 88.0692 95.8492 88.0692 79.8571V49.9881C88.0692 34.0992 85.8374 22.3889 81.3737 14.8571C76.91 7.3254 70.7855 3.55952 63 3.55952C55.2145 3.55952 49.09 7.3254 44.6263 14.8571C40.1626 22.3889 37.9308 34.0992 37.9308 49.9881V79.8571C37.9308 95.746 40.1626 107.508 44.6263 115.143C49.09 122.675 55.2145 126.44 63 126.44Z" fill="#004393"/>
<rect width="139" height="70" transform="translate(63 87)" fill="white"/>
<path d="M73.63 108.7C73.63 107.464 73.906 106.36 74.458 105.388C75.022 104.404 75.784 103.642 76.744 103.102C77.716 102.55 78.802 102.274 80.002 102.274C81.406 102.274 82.636 102.634 83.692 103.354C84.748 104.074 85.486 105.07 85.906 106.342H83.008C82.72 105.742 82.312 105.292 81.784 104.992C81.268 104.692 80.668 104.542 79.984 104.542C79.252 104.542 78.598 104.716 78.022 105.064C77.458 105.4 77.014 105.88 76.69 106.504C76.378 107.128 76.222 107.86 76.222 108.7C76.222 109.528 76.378 110.26 76.69 110.896C77.014 111.52 77.458 112.006 78.022 112.354C78.598 112.69 79.252 112.858 79.984 112.858C80.668 112.858 81.268 112.708 81.784 112.408C82.312 112.096 82.72 111.64 83.008 111.04H85.906C85.486 112.324 84.748 113.326 83.692 114.046C82.648 114.754 81.418 115.108 80.002 115.108C78.802 115.108 77.716 114.838 76.744 114.298C75.784 113.746 75.022 112.984 74.458 112.012C73.906 111.04 73.63 109.936 73.63 108.7ZM87.7704 109.978C87.7704 108.97 87.9684 108.076 88.3644 107.296C88.7724 106.516 89.3184 105.916 90.0024 105.496C90.6984 105.076 91.4724 104.866 92.3244 104.866C93.0684 104.866 93.7164 105.016 94.2684 105.316C94.8324 105.616 95.2824 105.994 95.6184 106.45V105.028H98.1564V115H95.6184V113.542C95.2944 114.01 94.8444 114.4 94.2684 114.712C93.7044 115.012 93.0504 115.162 92.3064 115.162C91.4664 115.162 90.6984 114.946 90.0024 114.514C89.3184 114.082 88.7724 113.476 88.3644 112.696C87.9684 111.904 87.7704 110.998 87.7704 109.978ZM95.6184 110.014C95.6184 109.402 95.4984 108.88 95.2584 108.448C95.0184 108.004 94.6944 107.668 94.2864 107.44C93.8784 107.2 93.4404 107.08 92.9724 107.08C92.5044 107.08 92.0724 107.194 91.6764 107.422C91.2804 107.65 90.9564 107.986 90.7044 108.43C90.4644 108.862 90.3444 109.378 90.3444 109.978C90.3444 110.578 90.4644 111.106 90.7044 111.562C90.9564 112.006 91.2804 112.348 91.6764 112.588C92.0844 112.828 92.5164 112.948 92.9724 112.948C93.4404 112.948 93.8784 112.834 94.2864 112.606C94.6944 112.366 95.0184 112.03 95.2584 111.598C95.4984 111.154 95.6184 110.626 95.6184 110.014ZM103.498 101.68V115H100.978V101.68H103.498ZM108.867 101.68V115H106.347V101.68H108.867ZM126.032 115L124.664 113.65C123.5 114.694 122.078 115.216 120.398 115.216C119.474 115.216 118.658 115.06 117.95 114.748C117.254 114.424 116.714 113.974 116.33 113.398C115.946 112.81 115.754 112.132 115.754 111.364C115.754 110.536 115.988 109.792 116.456 109.132C116.924 108.472 117.614 107.938 118.526 107.53C118.202 107.134 117.968 106.756 117.824 106.396C117.68 106.024 117.608 105.628 117.608 105.208C117.608 104.632 117.758 104.116 118.058 103.66C118.358 103.192 118.784 102.826 119.336 102.562C119.9 102.298 120.554 102.166 121.298 102.166C122.054 102.166 122.702 102.31 123.242 102.598C123.782 102.886 124.184 103.27 124.448 103.75C124.712 104.23 124.826 104.764 124.79 105.352H122.342C122.354 104.956 122.258 104.656 122.054 104.452C121.85 104.236 121.574 104.128 121.226 104.128C120.89 104.128 120.608 104.23 120.38 104.434C120.164 104.626 120.056 104.878 120.056 105.19C120.056 105.49 120.146 105.79 120.326 106.09C120.506 106.378 120.8 106.738 121.208 107.17L124.376 110.302C124.4 110.278 124.418 110.254 124.43 110.23C124.442 110.206 124.454 110.182 124.466 110.158L125.492 108.448H128.12L126.86 110.662C126.62 111.13 126.362 111.574 126.086 111.994L129.128 115H126.032ZM120.47 113.128C121.454 113.128 122.324 112.78 123.08 112.084L119.984 109.024C118.82 109.54 118.238 110.272 118.238 111.22C118.238 111.76 118.442 112.216 118.85 112.588C119.258 112.948 119.798 113.128 120.47 113.128ZM82.792 129.436V131.47H79.444V142H76.924V131.47H73.576V129.436H82.792ZM87.5107 133.576C87.8347 133.048 88.2547 132.634 88.7707 132.334C89.2987 132.034 89.8987 131.884 90.5707 131.884V134.53H89.9047C89.1127 134.53 88.5127 134.716 88.1047 135.088C87.7087 135.46 87.5107 136.108 87.5107 137.032V142H84.9907V132.028H87.5107V133.576ZM91.98 136.978C91.98 135.97 92.178 135.076 92.574 134.296C92.982 133.516 93.528 132.916 94.212 132.496C94.908 132.076 95.682 131.866 96.534 131.866C97.278 131.866 97.926 132.016 98.478 132.316C99.042 132.616 99.492 132.994 99.828 133.45V132.028H102.366V142H99.828V140.542C99.504 141.01 99.054 141.4 98.478 141.712C97.914 142.012 97.26 142.162 96.516 142.162C95.676 142.162 94.908 141.946 94.212 141.514C93.528 141.082 92.982 140.476 92.574 139.696C92.178 138.904 91.98 137.998 91.98 136.978ZM99.828 137.014C99.828 136.402 99.708 135.88 99.468 135.448C99.228 135.004 98.904 134.668 98.496 134.44C98.088 134.2 97.65 134.08 97.182 134.08C96.714 134.08 96.282 134.194 95.886 134.422C95.49 134.65 95.166 134.986 94.914 135.43C94.674 135.862 94.554 136.378 94.554 136.978C94.554 137.578 94.674 138.106 94.914 138.562C95.166 139.006 95.49 139.348 95.886 139.588C96.294 139.828 96.726 139.948 97.182 139.948C97.65 139.948 98.088 139.834 98.496 139.606C98.904 139.366 99.228 139.03 99.468 138.598C99.708 138.154 99.828 137.626 99.828 137.014ZM104.539 136.978C104.539 135.97 104.737 135.076 105.133 134.296C105.541 133.516 106.093 132.916 106.789 132.496C107.485 132.076 108.259 131.866 109.111 131.866C109.759 131.866 110.377 132.01 110.965 132.298C111.553 132.574 112.021 132.946 112.369 133.414V128.68H114.925V142H112.369V140.524C112.057 141.016 111.619 141.412 111.055 141.712C110.491 142.012 109.837 142.162 109.093 142.162C108.253 142.162 107.485 141.946 106.789 141.514C106.093 141.082 105.541 140.476 105.133 139.696C104.737 138.904 104.539 137.998 104.539 136.978ZM112.387 137.014C112.387 136.402 112.267 135.88 112.027 135.448C111.787 135.004 111.463 134.668 111.055 134.44C110.647 134.2 110.209 134.08 109.741 134.08C109.273 134.08 108.841 134.194 108.445 134.422C108.049 134.65 107.725 134.986 107.473 135.43C107.233 135.862 107.113 136.378 107.113 136.978C107.113 137.578 107.233 138.106 107.473 138.562C107.725 139.006 108.049 139.348 108.445 139.588C108.853 139.828 109.285 139.948 109.741 139.948C110.209 139.948 110.647 139.834 111.055 139.606C111.463 139.366 111.787 139.03 112.027 138.598C112.267 138.154 112.387 137.626 112.387 137.014ZM127.016 136.798C127.016 137.158 126.992 137.482 126.944 137.77H119.654C119.714 138.49 119.966 139.054 120.41 139.462C120.854 139.87 121.4 140.074 122.048 140.074C122.984 140.074 123.65 139.672 124.046 138.868H126.764C126.476 139.828 125.924 140.62 125.108 141.244C124.292 141.856 123.29 142.162 122.102 142.162C121.142 142.162 120.278 141.952 119.51 141.532C118.754 141.1 118.16 140.494 117.728 139.714C117.308 138.934 117.098 138.034 117.098 137.014C117.098 135.982 117.308 135.076 117.728 134.296C118.148 133.516 118.736 132.916 119.492 132.496C120.248 132.076 121.118 131.866 122.102 131.866C123.05 131.866 123.896 132.07 124.64 132.478C125.396 132.886 125.978 133.468 126.386 134.224C126.806 134.968 127.016 135.826 127.016 136.798ZM124.406 136.078C124.394 135.43 124.16 134.914 123.704 134.53C123.248 134.134 122.69 133.936 122.03 133.936C121.406 133.936 120.878 134.128 120.446 134.512C120.026 134.884 119.768 135.406 119.672 136.078H124.406Z" fill="#221F20"/>
<path d="M14.1618 5.84703H18V8.63456H13.9632C13.7206 10.153 13.2574 11.3654 12.5735 12.272C11.9118 13.1558 10.9632 13.8017 9.72794 14.2096C8.49265 14.5949 6.89338 14.7875 4.93015 14.7875V16.9292C4.93015 18.1756 5.18382 19.1615 5.69118 19.8867C6.22059 20.6119 7.10294 20.9745 8.33824 20.9745C10.5882 20.9745 11.7132 19.6714 11.7132 17.0652H15.1875C15.1654 19.3541 14.5588 21.0878 13.3676 22.2663C12.1985 23.4221 10.5 24 8.27206 24C6.04412 24 4.33456 23.3654 3.14338 22.0963C1.97426 20.8272 1.38971 19.0482 1.38971 16.7592V12.102C3.83824 12.102 5.63603 12.034 6.78309 11.898C7.93015 11.7394 8.77941 11.4221 9.33088 10.9462C9.90441 10.4703 10.2794 9.69972 10.4559 8.63456H0V5.84703H10.6213V2.82153H0V0H18V2.82153H14.1618V5.84703Z" fill="#0D4992"/>
</svg>
