<svg width="73" height="72" viewBox="0 0 73 72" fill="none" xmlns="http://www.w3.org/2000/svg">
<g clip-path="url(#clip0_2877_525)">
<path d="M59.5 23.6C59.5 23.2686 59.2314 23 58.9 23H55.6C55.2686 23 55 22.7314 55 22.4V14.6C55 14.2686 54.7314 14 54.4 14H51.1C50.7686 14 50.5 14.2686 50.5 14.6V22.4C50.5 22.7314 50.2314 23 49.9 23H46.6C46.2686 23 46 23.2686 46 23.6V49.4C46 49.7314 46.2686 50 46.6 50H49.9C50.2314 50 50.5 50.2686 50.5 50.6V58.4C50.5 58.7314 50.7686 59 51.1 59H54.4C54.7314 59 55 58.7314 55 58.4V50.6C55 50.2686 55.2686 50 55.6 50H58.9C59.2314 50 59.5 49.7314 59.5 49.4V23.6ZM55 44.9C55 45.2314 54.7314 45.5 54.4 45.5H51.1C50.7686 45.5 50.5 45.2314 50.5 44.9V28.1C50.5 27.7686 50.7686 27.5 51.1 27.5H54.4C54.7314 27.5 55 27.7686 55 28.1V44.9Z" fill="url(#paint0_linear_2877_525)"/>
<path d="M32.5 19.1C32.5 18.7686 32.2314 18.5 31.9 18.5H28.6C28.2686 18.5 28 18.2314 28 17.9V10.1C28 9.76863 27.7314 9.5 27.4 9.5H24.1C23.7686 9.5 23.5 9.76863 23.5 10.1V17.9C23.5 18.2314 23.2314 18.5 22.9 18.5H19.6C19.2686 18.5 19 18.7686 19 19.1V40.4C19 40.7314 19.2686 41 19.6 41H22.9C23.2314 41 23.5 41.2686 23.5 41.6V49.4C23.5 49.7314 23.7686 50 24.1 50H27.4C27.7314 50 28 49.7314 28 49.4V41.6C28 41.2686 28.2686 41 28.6 41H31.9C32.2314 41 32.5 40.7314 32.5 40.4V19.1ZM28 35.9C28 36.2314 27.7314 36.5 27.4 36.5H24.1C23.7686 36.5 23.5 36.2314 23.5 35.9V23.6C23.5 23.2686 23.7686 23 24.1 23H27.4C27.7314 23 28 23.2686 28 23.6V35.9Z" fill="url(#paint1_linear_2877_525)"/>
<path d="M68.5 67C68.5 67.5523 68.0523 68 67.5 68H10C8.80653 68 7.66193 67.5259 6.81802 66.682C5.97411 65.8381 5.5 64.6935 5.5 63.5V6C5.5 5.44772 5.94772 5 6.5 5H9C9.55228 5 10 5.44772 10 6V62.5C10 63.0523 10.4477 63.5 11 63.5H67.5C68.0523 63.5 68.5 63.9477 68.5 64.5V67Z" fill="url(#paint2_linear_2877_525)"/>
</g>
<defs>
<linearGradient id="paint0_linear_2877_525" x1="73.756" y1="11.345" x2="64.7664" y2="75.4957" gradientUnits="userSpaceOnUse">
<stop stop-color="#00EFD1"/>
<stop offset="1" stop-color="#00ACEA"/>
</linearGradient>
<linearGradient id="paint1_linear_2877_525" x1="46.756" y1="7.1105" x2="39.4476" y2="65.0581" gradientUnits="userSpaceOnUse">
<stop stop-color="#00EFD1"/>
<stop offset="1" stop-color="#00ACEA"/>
</linearGradient>
<linearGradient id="paint2_linear_2877_525" x1="135.028" y1="1.283" x2="131.185" y2="92.696" gradientUnits="userSpaceOnUse">
<stop stop-color="#00EFD1"/>
<stop offset="1" stop-color="#00ACEA"/>
</linearGradient>
<clipPath id="clip0_2877_525">
<rect width="72" height="72" fill="white" transform="translate(0.5)"/>
</clipPath>
</defs>
</svg>
