<svg width="73" height="72" viewBox="0 0 73 72" fill="none" xmlns="http://www.w3.org/2000/svg">
<path d="M38.953 5.65931L38.9539 5.66048C41.2305 8.41145 46.0851 14.5455 50.3783 21.7688C54.6353 28.9314 58.5 37.4234 58.5 44.8274C58.5 51.6293 56.4216 57.3257 52.5447 61.3296C48.6627 65.3388 43.123 67.5 36.4999 67.5C29.8769 67.5 24.3373 65.3388 20.4553 61.3296C16.5784 57.3257 14.5 51.6293 14.5 44.8274C14.5 37.4234 18.3647 28.9314 22.6219 21.7688C26.9153 14.5454 31.7702 8.41139 34.0477 5.6603L34.0481 5.65977C34.3461 5.30014 34.7189 5.00827 35.1423 4.80694L35.1426 4.80679C35.5665 4.60536 36.0299 4.5 36.5007 4.5C36.9712 4.5 37.4347 4.60525 37.8587 4.80679L38.953 5.65931ZM38.953 5.65931C38.6553 5.30039 38.283 5.00846 37.859 4.80694L38.953 5.65931Z" stroke="url(#paint0_linear_2477_1183)" stroke-width="3"/>
<path d="M38.1712 57.9018C38.0691 57.6763 38.0115 57.4325 38.0015 57.1841C37.9916 56.9358 38.0297 56.688 38.1136 56.4547C38.1973 56.2215 38.3254 56.0074 38.4902 55.8247C38.655 55.6421 38.8533 55.4943 39.074 55.39C42.8849 53.5869 45.9632 49.9226 47.3864 45.3203C47.5346 44.8421 47.8625 44.4435 48.298 44.2125C48.7335 43.9815 49.241 43.9368 49.7087 44.0884C50.1764 44.2397 50.5661 44.575 50.7921 45.0203C51.018 45.4657 51.0618 45.9845 50.9136 46.4627C49.2092 51.9755 45.4723 56.5326 40.6279 58.8248C40.4074 58.9294 40.1689 58.9883 39.926 58.9985C39.6831 59.0085 39.4407 58.9697 39.2126 58.8839C38.9844 58.7981 38.775 58.6673 38.5964 58.4989C38.4176 58.3304 38.2732 58.1274 38.1712 57.9018Z" fill="#00EFD1"/>
<defs>
<linearGradient id="paint0_linear_2477_1183" x1="100.296" y1="2.46" x2="94.9507" y2="89.345" gradientUnits="userSpaceOnUse">
<stop stop-color="#00EFD1"/>
<stop offset="1" stop-color="#00ACEA"/>
</linearGradient>
</defs>
</svg>
