<svg width="73" height="72" viewBox="0 0 73 72" fill="none" xmlns="http://www.w3.org/2000/svg">
<path d="M9 31.3846C9 30.5774 9.64801 29.9231 10.4474 29.9231H62.5526C63.352 29.9231 64 30.5774 64 31.3846C64 32.1918 63.352 32.8462 62.5526 32.8462H10.4474C9.64801 32.8462 9 32.1918 9 31.3846Z" fill="url(#paint0_linear_2477_1204)"/>
<path fill-rule="evenodd" clip-rule="evenodd" d="M56.7632 29.9231H53.8684V51.8462C53.8684 52.6533 53.2204 53.3077 52.4211 53.3077H46.6316C45.8322 53.3077 45.1842 52.6533 45.1842 51.8462V29.9231H42.2895V51.8462C42.2895 54.2677 44.2335 56.2308 46.6316 56.2308H52.4211C54.8191 56.2308 56.7632 54.2677 56.7632 51.8462V29.9231Z" fill="url(#paint1_linear_2477_1204)"/>
<path fill-rule="evenodd" clip-rule="evenodd" d="M43.7368 12.3846V31.3846H40.8421V12.3846C40.8421 11.5774 40.1941 10.9231 39.3947 10.9231H33.6053C32.8059 10.9231 32.1579 11.5774 32.1579 12.3846V31.3846H29.2632V12.3846C29.2632 9.96306 31.2072 8 33.6053 8H39.3947C41.7928 8 43.7368 9.96306 43.7368 12.3846Z" fill="url(#paint2_linear_2477_1204)"/>
<path fill-rule="evenodd" clip-rule="evenodd" d="M30.7105 29.9231H27.8158V60.6154C27.8158 61.4226 27.1678 62.0769 26.3684 62.0769H20.5789C19.7796 62.0769 19.1316 61.4226 19.1316 60.6154V29.9231H16.2368V60.6154C16.2368 63.0369 18.1809 65 20.5789 65H26.3684C28.7665 65 30.7105 63.0369 30.7105 60.6154V29.9231Z" fill="url(#paint3_linear_2477_1204)"/>
<defs>
<linearGradient id="paint0_linear_2477_1204" x1="122.08" y1="4.637" x2="118.477" y2="87.3332" gradientUnits="userSpaceOnUse">
<stop stop-color="#00EFD1"/>
<stop offset="1" stop-color="#00ACEA"/>
</linearGradient>
<linearGradient id="paint1_linear_2477_1204" x1="122.08" y1="4.637" x2="118.477" y2="87.3332" gradientUnits="userSpaceOnUse">
<stop stop-color="#00EFD1"/>
<stop offset="1" stop-color="#00ACEA"/>
</linearGradient>
<linearGradient id="paint2_linear_2477_1204" x1="122.08" y1="4.637" x2="118.477" y2="87.3332" gradientUnits="userSpaceOnUse">
<stop stop-color="#00EFD1"/>
<stop offset="1" stop-color="#00ACEA"/>
</linearGradient>
<linearGradient id="paint3_linear_2477_1204" x1="122.08" y1="4.637" x2="118.477" y2="87.3332" gradientUnits="userSpaceOnUse">
<stop stop-color="#00EFD1"/>
<stop offset="1" stop-color="#00ACEA"/>
</linearGradient>
</defs>
</svg>
