<svg xmlns="http://www.w3.org/2000/svg" width="155.725" height="94.868" viewBox="0 0 155.725 94.868">
  <g id="Group_19935" data-name="Group 19935" transform="translate(3079.92 -222.871)">
    <path id="Path_26383" data-name="Path 26383" d="M-3079.92,314.978a116.9,116.9,0,0,1,12.816-35.569,75.955,75.955,0,0,1,11.4-15.522,48.764,48.764,0,0,1,7.487-6.331,39.045,39.045,0,0,1,4.23-2.57,41.612,41.612,0,0,1,4.569-1.965,35.128,35.128,0,0,1,9.708-1.974,36.67,36.67,0,0,1,4.925.074l2.441.22,2.37.415c6.28,1.12,12.553,3.147,17.821,6.966a20.815,20.815,0,0,1,6.291,7.386,16.894,16.894,0,0,1,1.466,9.643,15.514,15.514,0,0,1-1.495,4.735,14.81,14.81,0,0,1-2.9,4.114,13.523,13.523,0,0,1-4.308,2.833,11.863,11.863,0,0,1-5.209.739c-3.6-.212-6.764-2.1-9.3-4.292a30.432,30.432,0,0,1-6.229-7.776,28.719,28.719,0,0,1-3.525-9.477,25.106,25.106,0,0,1,.388-10.269c1.648-6.744,5.781-12.488,10.7-16.926a50.7,50.7,0,0,1,17.04-9.895,57.848,57.848,0,0,1,19.316-3.212,48.525,48.525,0,0,1,4.894.318c1.614.215,3.247.273,4.833.647a67.01,67.01,0,0,1,9.392,2.44,73.492,73.492,0,0,1,17.1,8.646,69.482,69.482,0,0,1,7.537,5.807,58.879,58.879,0,0,1,6.684,6.716l-.388.36a85.9,85.9,0,0,0-15.233-10.6,75.805,75.805,0,0,0-16.932-6.943,64.737,64.737,0,0,0-17.845-2.26,55.657,55.657,0,0,0-17.463,3.4,49.2,49.2,0,0,0-15.3,8.725c-4.437,3.77-8.033,8.577-9.522,14.019a22.508,22.508,0,0,0,2,16.494,16.062,16.062,0,0,0,1.071,1.919c.406.61.742,1.284,1.2,1.849l1.295,1.776,1.446,1.611A12.8,12.8,0,0,0-3008,285.29a9.114,9.114,0,0,0,4.031-.3,11.066,11.066,0,0,0,3.625-2.064,13.035,13.035,0,0,0,4.168-7.476,14.4,14.4,0,0,0-1.145-8.649,18.089,18.089,0,0,0-5.848-6.695,31.186,31.186,0,0,0-8.213-3.826,50.652,50.652,0,0,0-9-1.609l-2.281-.212-2.248-.016a32.768,32.768,0,0,0-4.445.284,33.643,33.643,0,0,0-8.477,2.4c-5.461,2.2-10.226,5.9-14.542,10.054a69.437,69.437,0,0,0-5.957,6.834,86.506,86.506,0,0,0-5.253,7.5c-1.646,2.588-3.167,5.266-4.647,7.974q-2.159,4.1-4.138,8.309a186.529,186.529,0,0,0-7.035,17.3Z" transform="translate(0 2.637)" fill="#707070"/>
    <path id="Path_26384" data-name="Path 26384" d="M-2981.145,222.871c-.258,5.592-.764,11.077-1.124,16.552-.178,2.736-.339,5.463-.453,8.178-.042,2.715-.146,5.418.019,8.09l.138,2.226-2.133-.436c-3.345-.684-6.806-1.251-10.239-1.75-3.447-.515-6.9-.9-10.451-1.108a41.814,41.814,0,0,1,10.614-1.261,74.461,74.461,0,0,1,10.692.794l-2,1.791a62.227,62.227,0,0,1-.115-8.5,83.006,83.006,0,0,1,.884-8.364c.443-2.763.986-5.5,1.674-8.208A66.012,66.012,0,0,1-2981.145,222.871Z" transform="translate(56.95)" fill="#707070"/>
  </g>
</svg>
