<svg xmlns="http://www.w3.org/2000/svg" xmlns:xlink="http://www.w3.org/1999/xlink" width="97.5" height="97.5" viewBox="0 0 97.5 97.5">
  <defs>
    <linearGradient id="linear-gradient" x1="2.056" y1="-0.059" x2="1.995" y2="1.392" gradientUnits="objectBoundingBox">
      <stop offset="0" stop-color="#00efd1"/>
      <stop offset="1" stop-color="#00acea"/>
    </linearGradient>
  </defs>
  <g id="Group_20170" data-name="Group 20170" transform="translate(-985.25 -3629.25)">
    <rect id="Rectangle_2442" data-name="Rectangle 2442" width="96" height="96" transform="translate(1082 3726) rotate(180)" opacity="0"/>
    <g id="Group_20072" data-name="Group 20072" transform="translate(986 3630)">
      <path id="Path_26546" data-name="Path 26546" d="M749.631,341.683c-10.283,0-18.037,8.151-18.037,18.959,0,11.565,8.428,21.709,18.037,21.709s18.042-10.144,18.042-21.709C767.673,349.834,759.917,341.683,749.631,341.683Zm11.817,18.959c0,8.1-5.632,15.483-11.817,15.483s-11.813-7.379-11.813-15.483c0-7.379,4.969-12.737,11.813-12.737S761.448,353.263,761.448,360.642Z" transform="translate(-701.64 -328.86)" stroke="#fff" stroke-width="1.5" fill="url(#linear-gradient)"/>
      <path id="Path_26547" data-name="Path 26547" d="M764.96,335.422a48,48,0,0,0,.008,96h.008a48,48,0,0,0-.017-96Zm-27.274,79.6a41.585,41.585,0,0,1-3.965-3.936v-.836c0-4.418,2.476-8.233,7.561-11.662a54.122,54.122,0,0,1,9.249-4.819l11.606,25.146a3.114,3.114,0,0,0,5.653,0l11.6-25.146a54.008,54.008,0,0,1,9.243,4.811c5.161,3.482,7.566,7.191,7.566,11.67v.827A41.659,41.659,0,0,1,737.686,415.018ZM777.8,386.677a3.144,3.144,0,0,0-2.847,1.806l-6.885,14.945v-6.46a3.112,3.112,0,0,0-6.224,0v6.455l-6.9-14.941a3.136,3.136,0,0,0-3.912-1.632,64.851,64.851,0,0,0-13.183,6.507,21.808,21.808,0,0,0-9.175,10.65,41.782,41.782,0,0,1,71.739-42.823,42.139,42.139,0,0,1,.815,42.847,21.8,21.8,0,0,0-9.147-10.644,64.624,64.624,0,0,0-13.212-6.519A3.069,3.069,0,0,0,777.8,386.677Z" transform="translate(-716.969 -335.422)" stroke="#fff" stroke-width="1.5" fill="url(#linear-gradient)"/>
    </g>
  </g>
</svg>
