<svg xmlns="http://www.w3.org/2000/svg" xmlns:xlink="http://www.w3.org/1999/xlink" width="97.5" height="96" viewBox="0 0 97.5 96">
  <defs>
    <linearGradient id="linear-gradient" x1="2.056" y1="-0.059" x2="1.995" y2="1.392" gradientUnits="objectBoundingBox">
      <stop offset="0" stop-color="#00efd1"/>
      <stop offset="1" stop-color="#00acea"/>
    </linearGradient>
  </defs>
  <g id="Group_20171" data-name="Group 20171" transform="translate(-697.25 -3630)">
    <rect id="Rectangle_2441" data-name="Rectangle 2441" width="96" height="96" transform="translate(794 3726) rotate(180)" opacity="0"/>
    <g id="Expert_Research_Advisory" data-name="Expert Research Advisory" transform="translate(698 3637)">
      <path id="Union_4" data-name="Union 4" d="M50.3,81.6c-.577-.552-1.141-1.124-1.69-1.677-.229-.232-.462-.464-.689-.7l-2.051-2.045c-3.3-3.3-6.719-6.718-10.072-10.083-6.746.006-13.321.006-18.864.006H8.283a8.324,8.324,0,0,1-5.411-1.861A8.275,8.275,0,0,1,.119,60.387c-.007-.006-.007-.018-.012-.024L0,60.126V24.038l.035-.143c.025-.1.047-.19.067-.286.052-.22.107-.446.167-.677a8.024,8.024,0,0,1,7.852-5.963H44.127v5.827H8.2a2.2,2.2,0,0,0-2.324,1.76,3.5,3.5,0,0,0-.047.66V58.866a2.2,2.2,0,0,0,2.448,2.425H20.41c6.267,0,11.4,0,16.142-.006h0a3.8,3.8,0,0,1,2.824,1.165c4.78,4.8,9.655,9.668,14.37,14.37l.47.476a2.944,2.944,0,0,1,.94,2.931,2.906,2.906,0,0,1-2.806,2.217A2.939,2.939,0,0,1,50.3,81.6ZM52.36,67.118a2.885,2.885,0,0,1-2.806-3.668,2.876,2.876,0,0,1,2.908-2.135h5.809c.316,0,.694-.006,1.059-.029a2.175,2.175,0,0,0,2.046-2.218q0-3.38-.007-6.748V47.682H67.1l.07,1.142c0,.053.007.1.007.149,0,.119.017.25.017.392v2.6c0,2.289,0,4.661,0,7a8,8,0,0,1-6.833,8.073,4.207,4.207,0,0,1-.748.071c-.557,0-1.119,0-1.675.006-1.1.006-2.237.006-3.356.006C53.772,67.123,53.043,67.123,52.36,67.118ZM56.9,46.38a2.37,2.37,0,0,1-1.223-2.669,2.774,2.774,0,0,1,.564-1.106c2.265-2.664,4.574-5.375,6.8-7.991q2.069-2.435,4.131-4.857a2.65,2.65,0,0,1,2.113-.892h18.78c1.25,0,1.432-.654,1.5-.9a2.558,2.558,0,0,0,.06-.595c0-7.206,0-13.877,0-20.393,0-1.028-.442-1.462-1.482-1.462h-33.7c-1.059,0-1.489.434-1.489,1.5V27.367c0,1.022.452,1.486,1.472,1.5.355,0,.741.006,1.211.006.316,0,.631,0,.952-.006H57.61a2.784,2.784,0,0,1,2.878,2.289,2.946,2.946,0,0,1-.607,2.48,2.848,2.848,0,0,1-2.235,1.147h-.119c-.415,0-.838,0-1.25.006H55.012c-.833,0-1.509-.006-2.135-.03a6.015,6.015,0,0,1-4.1-1.8,6.131,6.131,0,0,1-1.747-4.132c-.012-.523-.012-1.051,0-1.557V21.32c0-4.934,0-10.036,0-15.047a6.267,6.267,0,0,1,1.315-3.942A6.022,6.022,0,0,1,51.838.155a8,8,0,0,1,1.6-.149H76.75C78.472.007,80.2,0,81.933,0c2.58,0,5.168.007,7.753.007a6.392,6.392,0,0,1,3.908,1.266,5.986,5.986,0,0,1,2.2,3.413,7.5,7.5,0,0,1,.179,1.747c.007,2.4,0,4.84,0,7.2,0,4.81-.017,9.78.03,14.667a6.558,6.558,0,0,1-1.842,4.673,6.313,6.313,0,0,1-4.6,1.843H89.5c-2.337-.018-4.84-.024-8.126-.024h-11.3a.539.539,0,0,0-.05.048c-3.12,3.389-6.3,6.819-9.381,10.137l-.731.785a2.562,2.562,0,0,1-1.9.909A2.368,2.368,0,0,1,56.9,46.38ZM30.2,42.052a3.4,3.4,0,1,1,3.413,3.412h-.022A3.407,3.407,0,0,1,30.2,42.052Zm15.327-.006a3.413,3.413,0,1,1,3.413,3.419A3.421,3.421,0,0,1,45.529,42.046ZM18.26,45.464a3.41,3.41,0,1,1,.01,0ZM76.017,17.308a3.3,3.3,0,1,1,3.3,3.281A3.291,3.291,0,0,1,76.017,17.308Zm-10.249.006a3.3,3.3,0,1,1,6.6-.03,3.3,3.3,0,0,1-6.6.03Zm-10.43-.006a3.3,3.3,0,1,1,3.309,3.27h-.025A3.26,3.26,0,0,1,55.338,17.308Z" transform="translate(0)" stroke="#fff" stroke-width="1.5" fill="url(#linear-gradient)"/>
    </g>
  </g>
</svg>
