<svg xmlns="http://www.w3.org/2000/svg" width="23.922" height="27.085" viewBox="0 0 23.922 27.085">
  <g id="Group_19940" data-name="Group 19940" transform="translate(-320.76 -300.724)">
    <path id="Union_2" data-name="Union 2" d="M0,24.827V1.256A1.236,1.236,0,0,1,.316.423l12.8,13.057L.811,26A1.248,1.248,0,0,1,0,24.827ZM13.7,14.083l3.132,3.2-4.745,2.74L2.341,25.648Zm.593-.6,3.851-3.922,4.148,2.4a1.254,1.254,0,0,1,0,2.173l-4.7,2.716ZM1.094.01a1.247,1.247,0,0,1,.788.159L12.089,6.063l5.3,3.061L13.7,12.877Z" transform="translate(321.26 301.225)" fill="#fff" stroke="rgba(0,0,0,0)" stroke-width="1"/>
  </g>
</svg>
