<svg xmlns="http://www.w3.org/2000/svg" width="27.327" height="26.107" viewBox="0 0 27.327 26.107">
  <g id="Group_19948" data-name="Group 19948" transform="translate(-467.685 -520.597)">
    <g id="Group_19947" data-name="Group 19947" transform="translate(467.685 520.597)">
      <path id="Path_26396" data-name="Path 26396" d="M713.234-434.083l3.3,6.678a1.2,1.2,0,0,0,.9.654l7.369,1.071a1.2,1.2,0,0,1,.663,2.04l-5.333,5.2a1.2,1.2,0,0,0-.344,1.059l1.259,7.339a1.2,1.2,0,0,1-1.735,1.261l-6.591-3.465a1.2,1.2,0,0,0-1.113,0l-6.591,3.465a1.2,1.2,0,0,1-1.735-1.261l1.259-7.339a1.2,1.2,0,0,0-.344-1.059l-5.332-5.2a1.2,1.2,0,0,1,.663-2.04l7.369-1.071a1.2,1.2,0,0,0,.9-.654l3.3-6.678A1.2,1.2,0,0,1,713.234-434.083Z" transform="translate(-698.497 434.75)" fill="#ffce02"/>
    </g>
  </g>
</svg>
