<svg xmlns="http://www.w3.org/2000/svg" xmlns:xlink="http://www.w3.org/1999/xlink" width="96" height="98" viewBox="0 0 96 98">
  <defs>
    <linearGradient id="linear-gradient" x1="2.056" y1="-0.059" x2="1.995" y2="1.392" gradientUnits="objectBoundingBox">
      <stop offset="0" stop-color="#00efd1"/>
      <stop offset="1" stop-color="#00acea"/>
    </linearGradient>
  </defs>
  <g id="Group_20172" data-name="Group 20172" transform="translate(-410 -3628.5)">
    <rect id="Rectangle_2440" data-name="Rectangle 2440" width="96" height="96" transform="translate(506 3726) rotate(180)" opacity="0"/>
    <g id="Group_20073" data-name="Group 20073" transform="translate(420 3630)">
      <g id="Group_6387" data-name="Group 6387" transform="translate(0 0)">
        <g id="Path_12646" data-name="Path 12646" transform="translate(40.252 60.247)">
          <path id="Path_26548" data-name="Path 26548" d="M439.088,353.814a17.873,17.873,0,0,0-30.508,12.648,17.191,17.191,0,0,0,.287,3.191,17.877,17.877,0,1,0,30.221-15.839Zm-5.693,6.393a1.4,1.4,0,0,1,0,2.8h-3.547a7.794,7.794,0,0,1-.459,1.217,7.514,7.514,0,0,1-6.29,4.235c-.149.011-.31.023-.459.023l2.376,2.41,3.237,3.283c.482.493.976,1,1.469,1.492a1.4,1.4,0,1,1-1.974,1.986l-1.561-1.584-3.26-3.294-3.145-3.2c-.333-.321-.654-.654-.976-.987l-.241-.241-.046-.046a1.407,1.407,0,0,1-.413-1v-.207a1.406,1.406,0,0,1,1.4-1.4h1.974c.574,0,1.159.023,1.733-.034a6.6,6.6,0,0,0,1.24-.333,4.766,4.766,0,0,0,2.422-2.318h-7.369a1.4,1.4,0,1,1,0-2.8h7.828v-2.548h-7.851a1.4,1.4,0,0,1-1.389-1.412,1.414,1.414,0,0,1,1.412-1.389h13.911a1.4,1.4,0,0,1-.023,2.8h-3.248v2.548Z" transform="translate(-408.58 -348.58)" stroke="rgba(0,0,0,0)" stroke-width="1" fill="url(#linear-gradient)"/>
        </g>
        <g id="Path_12647" data-name="Path 12647" transform="translate(0 0)">
          <path id="Path_26549" data-name="Path 26549" d="M431.5,325.06v25.228a23.793,23.793,0,0,0-8.218,1.5V325.737a20.221,20.221,0,0,0-20.155-20.166h-.631a20.231,20.231,0,0,0-20.166,20.166V360.5a20.221,20.221,0,0,0,20.166,20.155h.631a19.688,19.688,0,0,0,5.291-.712,24.075,24.075,0,0,0,3.524,7.851,28.694,28.694,0,0,1-9.435,1.618,29.082,29.082,0,0,1-28.993-28.993V325.094a28.993,28.993,0,0,1,57.986-.034Z" transform="translate(-373.51 -296.09)" stroke="#fff" stroke-width="3" fill="url(#linear-gradient)"/>
        </g>
      </g>
    </g>
  </g>
</svg>
