<svg width="34" height="31" viewBox="0 0 34 31" fill="none" xmlns="http://www.w3.org/2000/svg">
<path d="M33.9997 3.93282C33.8267 4.57056 33.6129 5.1864 33.1621 5.69104C32.4285 6.51159 31.5285 6.93619 30.4289 6.87385C30.2459 6.86374 30.1553 6.90502 30.0721 7.07351C28.0809 11.1207 26.0846 15.1653 24.0817 19.2066C23.9902 19.392 24.0277 19.4998 24.14 19.6472C25.2329 21.0735 25.1921 22.766 24.0401 24.135C22.597 25.8494 19.7033 25.5503 18.6171 23.5857C18.0332 22.531 17.9791 21.4686 18.4574 20.3642C18.4998 20.2656 18.4715 20.0752 18.4016 19.9943C16.9028 18.2698 15.3948 16.5529 13.8802 14.8427C13.8144 14.7677 13.6589 14.7365 13.5508 14.745C13.07 14.7829 12.5918 14.8621 12.111 14.8865C11.9238 14.8958 11.8174 14.9295 11.7209 15.1013C9.8461 18.44 7.96715 21.7753 6.07905 25.1064C5.97341 25.2926 6.01833 25.4012 6.1223 25.5487C7.59119 27.6304 6.49326 30.4442 4.02293 30.9387C2.4143 31.2605 0.757423 30.29 0.194319 28.6978C-0.359636 27.13 0.306607 25.3633 1.73724 24.5664C2.37853 24.2091 3.0456 24.0466 3.77756 24.1443C3.88069 24.1578 4.05453 24.0685 4.10693 23.9758C6.00668 20.6262 7.89395 17.269 9.79204 13.9185C9.89019 13.745 9.84777 13.6439 9.75045 13.5057C8.78145 12.1316 8.84216 10.552 9.91015 9.23274C11.1719 7.67503 13.6855 7.64723 14.9756 9.1805C15.928 10.3128 16.1218 11.5621 15.5362 12.9362C15.4938 13.0356 15.5237 13.2243 15.5944 13.3052C17.0924 15.0305 18.5988 16.7483 20.1151 18.4585C20.1858 18.5385 20.3604 18.5655 20.4802 18.5529C20.8628 18.5133 21.2429 18.3953 21.6222 18.4012C21.8992 18.4054 22.0048 18.306 22.1138 18.0836C23.1901 15.8882 24.2747 13.6969 25.3568 11.5049C26.2418 9.71294 27.1218 7.9185 28.016 6.13164C28.1258 5.9126 28.1216 5.77191 27.9627 5.57393C27.012 4.39028 26.958 2.67334 27.813 1.48042C28.7479 0.176293 30.3391 -0.340135 31.7839 0.23021C32.9492 0.690193 33.6653 1.56382 33.9381 2.80393C33.9523 2.86711 33.9797 2.92777 34.0005 2.99011V3.93198L33.9997 3.93282ZM29.4749 3.44335C29.4724 4.08278 29.9864 4.6051 30.6111 4.59752C31.2174 4.59078 31.7306 4.06846 31.734 3.45515C31.7373 2.83594 31.2366 2.31951 30.6227 2.31024C29.9814 2.30013 29.4782 2.79803 29.4757 3.44335H29.4749ZM4.52115 27.5453C4.51699 26.921 4.01627 26.4113 3.40326 26.4063C2.78693 26.4021 2.25626 26.9412 2.26291 27.5647C2.26957 28.1864 2.77362 28.691 3.39079 28.6936C4.02958 28.6961 4.52614 28.1923 4.52198 27.5444L4.52115 27.5453ZM12.4595 12.6228C13.0908 12.6245 13.6082 12.103 13.5999 11.472C13.5915 10.8578 13.0767 10.3389 12.4712 10.3338C11.8482 10.3288 11.3366 10.8545 11.3408 11.4947C11.3449 12.1249 11.8373 12.6211 12.4603 12.6228H12.4595ZM21.5315 20.6767C20.916 20.6767 20.4078 21.1805 20.397 21.7997C20.3854 22.424 20.9111 22.9632 21.5324 22.9632C22.1595 22.9632 22.6636 22.4417 22.6569 21.7989C22.6494 21.1687 22.1554 20.675 21.5324 20.6759L21.5315 20.6767Z" fill="#0CBCB7"/>
</svg>
