<svg width="57" height="56" viewBox="0 0 57 56" fill="none" xmlns="http://www.w3.org/2000/svg">
<g clip-path="url(#clip0_396_605)">
<path d="M42.3422 15.4925C42.2471 15.6605 42.2385 15.9381 42.3045 16.124C42.5101 16.7058 42.7877 17.261 43.0079 17.8384C43.3729 18.7938 42.9411 19.7714 42.0201 20.1278C41.799 20.2135 41.578 20.2546 41.3629 20.2546C40.674 20.2546 40.0554 19.8313 39.7401 19.1048C39.3794 18.272 39.0033 17.4452 38.6092 16.6269C38.2879 15.9595 38.329 15.3383 38.7128 14.7111C39.4891 13.4405 40.2499 12.1605 40.9996 10.9147C40.1728 10.0896 39.3769 9.29364 38.5458 8.4634C37.3531 9.18225 36.1133 9.90281 34.9027 10.6688C34.5026 10.9215 34.1196 11.0381 33.7323 11.0381C33.345 11.0381 32.9603 10.9241 32.5448 10.7151C31.5269 10.2035 30.4619 9.7623 29.3772 9.41359C28.4399 9.11285 27.9087 8.5825 27.7039 7.61946C27.4126 6.25202 27.0476 4.89914 26.71 3.52056H23.2606C22.929 4.85973 22.5563 6.20404 22.2744 7.56634C22.0653 8.57564 21.5179 9.11885 20.5368 9.43158C19.4179 9.78886 18.3374 10.2841 17.2742 10.7896C16.9143 10.9601 16.5733 11.0509 16.2374 11.0509C15.8776 11.0509 15.5237 10.9455 15.1587 10.7211C13.9215 9.95508 12.6698 9.21481 11.4754 8.4951C10.6503 9.32448 9.84748 10.1307 9.00439 10.9789C9.68983 12.1168 10.4138 13.3565 11.1781 14.5706C11.6664 15.3452 11.6476 16.0572 11.2389 16.878C10.7223 17.9147 10.2767 18.9968 9.91602 20.0969C9.61786 21.0077 9.10806 21.5458 8.1673 21.7514C6.78444 22.0539 5.41443 22.4163 4.02385 22.7564V26.2024C5.39129 26.5392 6.75617 26.9067 8.1356 27.2032C9.0995 27.4097 9.617 27.9512 9.92287 28.8842C10.2956 30.0186 10.7899 31.117 11.298 32.2C11.6382 32.9248 11.6682 33.5777 11.2458 34.2657C10.4746 35.5209 9.72324 36.789 8.99411 38.0013C9.82006 38.8307 10.6246 39.6378 11.4608 40.4766C12.6406 39.7655 13.895 39.0295 15.1287 38.2592C15.5092 38.0219 15.881 37.9028 16.258 37.9028C16.5939 37.9028 16.9332 37.9971 17.2887 38.1847C18.0101 38.5651 18.7624 38.8907 19.5138 39.212C20.5428 39.6515 21.0115 40.5923 20.6414 41.5356C20.368 42.2322 19.7589 42.6246 19.0357 42.6246C18.7804 42.6246 18.5114 42.5758 18.2372 42.4747C17.9142 42.3547 17.5595 42.269 17.2844 42.0754C16.9846 41.8638 16.7052 41.7729 16.4328 41.7729C16.0618 41.7729 15.7037 41.9426 15.3284 42.2091C14.6472 42.6914 13.9104 43.0976 13.1855 43.5157C12.5789 43.8652 11.9509 44.0383 11.3374 44.0383C10.4541 44.0383 9.59901 43.6802 8.87587 42.9759C8.06706 42.1885 7.26853 41.3891 6.48028 40.5803C5.29448 39.3645 5.09741 37.7443 5.95763 36.2681C6.48885 35.3564 7.03634 34.4542 7.59668 33.5597C7.76718 33.2881 7.80317 33.0748 7.65152 32.7672C7.36192 32.182 7.11431 31.572 6.90011 30.9559C6.78016 30.6115 6.62508 30.4204 6.24466 30.345C5.46069 30.19 4.69729 29.9269 3.91076 29.7898C2.1449 29.4805 0.957389 28.5535 0.505859 26.7765V22.1858C0.954819 20.4088 2.14233 19.4852 3.90561 19.1725C4.72642 19.0268 5.53609 18.8049 6.33719 18.5701C6.53597 18.5119 6.74674 18.302 6.83842 18.1075C7.14087 17.4683 7.41161 16.812 7.64809 16.1454C7.71834 15.9458 7.71063 15.6493 7.60953 15.4694C7.08346 14.5355 6.50598 13.6307 5.96535 12.7045C5.09142 11.2103 5.29533 9.58837 6.50598 8.35373C7.24539 7.60061 7.99595 6.85863 8.74393 6.11408C9.54074 5.32069 10.4078 4.92228 11.3212 4.92228C11.9775 4.92228 12.6569 5.12791 13.3518 5.54088C14.242 6.07124 15.121 6.6213 16.0207 7.13366C16.1115 7.18592 16.2374 7.21163 16.3608 7.21163C16.4474 7.21163 16.533 7.19878 16.6033 7.17307C17.2836 6.92118 17.957 6.64614 18.6125 6.33513C18.8061 6.24345 19.0177 6.03097 19.0726 5.83219C19.3587 4.79976 19.5292 3.73048 19.8762 2.72117C20.0999 2.07344 20.458 1.40343 20.9412 0.934761C21.397 0.492656 22.0962 0.301591 22.6882 0H27.2781C27.3612 0.0334149 27.4409 0.0771114 27.5274 0.100245C28.8991 0.468666 29.7559 1.35202 30.1123 2.71603C30.3797 3.73647 30.6007 4.76891 30.8852 5.78335C30.946 5.99841 31.1594 6.23317 31.3641 6.3317C32.0007 6.63929 32.6596 6.90747 33.327 7.14308C33.4101 7.17307 33.5112 7.18764 33.6132 7.18764C33.7537 7.18764 33.8968 7.15936 34.0013 7.10024C34.9198 6.58274 35.8126 6.01812 36.7199 5.48005C37.3488 5.10734 37.9983 4.92313 38.6314 4.92313C39.5242 4.92313 40.3853 5.28898 41.1187 6.0104C41.8975 6.77638 42.6704 7.5492 43.4355 8.32889C44.6735 9.58923 44.8809 11.2069 43.9915 12.7277C43.4501 13.6539 42.8726 14.5595 42.3422 15.4925Z" fill="#0CBCB7"/>
<path d="M54.9663 47.066C52.9109 44.9506 50.8066 42.8823 48.7109 40.8063C48.4444 40.5424 48.4102 40.3376 48.513 39.9658C48.842 38.7791 49.2267 37.5848 49.3526 36.369C50.2077 28.112 43.7621 20.993 35.4777 20.9355C34.7015 21.0212 33.9201 21.0752 33.149 21.196C25.4704 22.3981 20.1831 30.033 21.7476 37.6473C23.1502 44.4768 28.9824 48.9535 35.4306 48.9535C37.0919 48.9535 38.7952 48.6562 40.4728 48.0248C40.6014 47.9768 40.7085 47.9528 40.8053 47.9528C40.9921 47.9528 41.1377 48.0419 41.3108 48.2158C43.3474 50.2739 45.4002 52.3156 47.4463 54.3642C48.5335 55.4532 49.7819 55.9998 51.151 55.9998C51.6703 55.9998 52.2066 55.921 52.7584 55.7633C56.5548 54.6803 57.7526 49.9346 54.9663 47.066ZM35.4606 45.4612H35.4563C29.6712 45.4587 24.9803 40.7515 24.9863 34.9553C24.9932 29.1668 29.6875 24.4844 35.482 24.4844H35.4906C41.2816 24.4895 45.9674 29.1916 45.9597 34.9904C45.9529 40.7797 41.2577 45.4612 35.4606 45.4612ZM52.4791 52.0072C52.1449 52.3344 51.6994 52.5041 51.253 52.5041C50.8066 52.5041 50.3919 52.3456 50.0612 52.0191C48.0683 50.0502 46.0994 48.0582 44.223 46.1775C45.0404 45.3576 45.8526 44.5428 46.6666 43.7262C48.5541 45.606 50.5633 47.5844 52.5416 49.5927C53.2039 50.2653 53.1379 51.362 52.4791 52.0072Z" fill="#0CBCB7"/>
<path d="M31.9023 19.5412C31.6127 19.7297 31.2854 19.8256 30.9546 19.8256C30.5425 19.8256 30.127 19.6765 29.7774 19.3724C28.8409 18.5584 27.8016 17.9638 26.5841 17.6802C26.0461 17.5551 25.5054 17.4943 24.9717 17.4943C22.5855 17.4943 20.3356 18.7101 19.0427 20.8101C17.4542 23.3916 17.6804 26.632 19.6116 28.9548C19.7161 29.0807 19.8275 29.2015 19.9277 29.3309C20.5155 30.0926 20.4358 31.1327 19.7452 31.747C19.4128 32.0426 19.0024 32.1917 18.592 32.1917C18.1225 32.1917 17.6521 31.9981 17.2931 31.6091C15.4313 29.5965 14.5316 27.1992 14.4785 24.0933C14.697 20.1161 16.6299 16.8089 20.6209 14.9787C22.1442 14.2796 23.6402 13.9395 25.0968 13.9395C27.4281 13.9395 29.6609 14.8117 31.7575 16.4833C32.1105 16.7643 32.4283 17.1704 32.5963 17.5868C32.8859 18.3057 32.5406 19.1256 31.9023 19.5412Z" fill="#0CBCB7"/>
</g>
<defs>
<clipPath id="clip0_396_605">
<rect width="55.9872" height="56" fill="white" transform="translate(0.505859)"/>
</clipPath>
</defs>
</svg>
