<svg width="47" height="58" viewBox="0 0 47 58" fill="none" xmlns="http://www.w3.org/2000/svg">
<path d="M10.413 52.6627L10.4124 52.6608L5.85802 37.4854H4.67576C2.53735 37.4854 0.75 35.9208 0.75 33.9412C0.75 31.9617 2.53735 30.3971 4.67576 30.3971H14.3678C12.3349 28.9904 11.0115 26.7777 11.0115 24.2815V23.5098C11.0115 23.0434 11.4243 22.7108 11.8741 22.7108H15.9515C18.7435 22.7108 21.2348 23.9172 22.8046 25.79V16.6226H12.3639C10.7154 16.6226 9.32678 15.4153 9.32678 13.875V3.4976C9.32678 1.9573 10.7154 0.75 12.3639 0.75H34.9705C36.619 0.75 38.0076 1.9573 38.0076 3.4976V13.875C38.0076 15.4153 36.619 16.6226 34.9705 16.6226H24.5298V25.79C26.0996 23.9172 28.5909 22.7108 31.3829 22.7108H35.4603C35.9101 22.7108 36.3229 23.0434 36.3229 23.5098V24.2815C36.3229 26.7777 34.9995 28.9904 32.9666 30.3971H42.6587C44.7971 30.3971 46.5844 31.9617 46.5844 33.9412C46.5844 35.9208 44.7971 37.4854 42.6587 37.4854H41.4764L36.9222 52.66L10.413 52.6627ZM10.413 52.6627C10.4151 52.6698 10.4185 52.6806 10.4226 52.6923C11.3779 55.4318 14.1603 57.25 17.3217 57.25H30.0126C33.174 57.25 35.9564 55.4318 36.9117 52.6923L36.9117 52.6923M10.413 52.6627L36.9117 52.6923M36.9117 52.6923C36.9128 52.6892 36.9139 52.686 36.915 52.6826M36.9117 52.6923L36.915 52.6826M36.915 52.6826C36.9173 52.6759 36.9196 52.6686 36.9219 52.6608L36.915 52.6826ZM11.052 13.875V3.4976C11.052 2.88905 11.6142 2.34804 12.3639 2.34804H34.9707C35.7202 2.34804 36.2824 2.88904 36.2824 3.4976V13.875C36.2824 14.4835 35.7202 15.0245 34.9705 15.0245H12.3639C11.6142 15.0245 11.052 14.4835 11.052 13.875ZM31.3829 24.3089H34.5976C34.5811 27.6435 31.5393 30.3971 27.7446 30.3971H24.5299C24.5464 27.0625 27.5882 24.3089 31.3829 24.3089ZM22.8045 30.3971H19.5898C15.7951 30.3971 12.7534 27.6435 12.7368 24.3089H15.9515C19.7462 24.3089 22.788 27.0625 22.8045 30.3971ZM36.7198 47.3677L35.2649 52.2154C34.5446 54.2584 32.446 55.6521 30.0127 55.6521H17.3217C14.8884 55.6521 12.7898 54.2583 12.0695 52.2153L10.6148 47.3677H17.9728C18.4033 49.8709 20.8109 51.7599 23.6672 51.7599C26.5235 51.7599 28.9311 49.8709 29.3617 47.3677H36.7198ZM19.6288 46.5687C19.6288 44.6127 21.4142 42.9756 23.6672 42.9756C25.9202 42.9756 27.7056 44.6127 27.7056 46.5687C27.7056 48.5247 25.9202 50.1619 23.6672 50.1619C21.4142 50.1619 19.6288 48.5247 19.6288 46.5687ZM10.1894 45.7697C10.1713 45.7697 10.1534 45.7702 10.1356 45.7713L7.64881 37.4854H39.6855L37.1988 45.7713C37.181 45.7702 37.1631 45.7697 37.145 45.7697H29.3617C28.9312 43.2665 26.5236 41.3775 23.6672 41.3775C20.8108 41.3775 18.4033 43.2665 17.9728 45.7697H10.1894ZM42.6587 35.8873H40.8208H6.51365H4.67576C3.43615 35.8873 2.47525 34.989 2.47525 33.9412C2.47525 32.8935 3.43615 31.9952 4.67576 31.9952H19.5898H23.6672H27.7446H42.6587C43.8983 31.9952 44.8592 32.8935 44.8592 33.9412C44.8592 34.989 43.8983 35.8873 42.6587 35.8873Z" fill="#0CBCB7" stroke="#0CBCB7" stroke-width="0.5"/>
<path d="M31.359 11.4299C31.359 11.0326 31.7292 10.6637 32.2428 10.6637C32.6926 10.6637 33.1054 10.3312 33.1054 9.8647V7.50479C33.1054 7.03834 32.6926 6.70577 32.2428 6.70577C31.7291 6.70577 31.359 6.33687 31.359 5.93965C31.359 5.4732 30.9462 5.14062 30.4964 5.14062H16.8355C16.3857 5.14062 15.9729 5.4732 15.9729 5.93965C15.9729 6.33685 15.6027 6.70577 15.0892 6.70577C14.6393 6.70577 14.2266 7.03834 14.2266 7.50479V9.8647C14.2266 10.3312 14.6393 10.6637 15.0892 10.6637C15.6027 10.6637 15.9729 11.0326 15.9729 11.4299C15.9729 11.8963 16.3857 12.2289 16.8355 12.2289H30.4963C30.9462 12.2289 31.359 11.8963 31.359 11.4299ZM29.7869 10.6308H17.545C17.2773 9.95601 16.6845 9.43163 15.9518 9.19838V8.17114C16.6845 7.93797 17.2773 7.41357 17.545 6.73867H29.7869C30.0546 7.41349 30.6474 7.93787 31.3801 8.17112V9.19836C30.6474 9.43153 30.0546 9.95593 29.7869 10.6308Z" fill="#0CBCB7" stroke="#0CBCB7" stroke-width="0.5"/>
</svg>
