<svg width="80" height="80" viewBox="0 0 80 80" fill="none" xmlns="http://www.w3.org/2000/svg">
<path d="M24.3828 46.2109C24.625 46.4531 25.0234 46.4531 25.2656 46.2109L33.2188 38.2578L39.9453 44.9922C40.1875 45.2344 40.5859 45.2344 40.8281 44.9922L58.5078 27.2969C58.75 27.0547 58.75 26.6563 58.5078 26.4141L55.6328 23.5391C55.3906 23.2969 54.9922 23.2969 54.75 23.5391L40.3906 37.9141L33.6641 31.1797C33.4219 30.9375 33.0234 30.9375 32.7813 31.1797L21.5078 42.4531C21.2656 42.6953 21.2656 43.0938 21.5078 43.3359L24.3828 46.2109Z" fill="#0CBCB7"/>
<path d="M70.625 12.5H42.8125V7.5C42.8125 7.15625 42.5312 6.875 42.1875 6.875H37.8125C37.4688 6.875 37.1875 7.15625 37.1875 7.5V12.5H9.375C7.99219 12.5 6.875 13.6172 6.875 15V55.625C6.875 57.0078 7.99219 58.125 9.375 58.125H37.2188V60.625L24.3438 69.0703C24.0547 69.2578 23.9766 69.6406 24.1641 69.9297L26.5312 73.6172V73.625C26.7188 73.9141 27.1094 73.9922 27.3984 73.8047L40 65.5391L52.6016 73.8047C52.8906 73.9922 53.2812 73.9141 53.4688 73.625V73.6172L55.8359 69.9297C56.0234 69.6406 55.9375 69.2578 55.6562 69.0703L42.8125 60.6484V58.125H70.625C72.0078 58.125 73.125 57.0078 73.125 55.625V15C73.125 13.6172 72.0078 12.5 70.625 12.5ZM67.5 52.5H12.5V18.125H67.5V52.5Z" fill="#0CBCB7"/>
</svg>
