<svg width="73" height="73" viewBox="0 0 73 73" fill="none" xmlns="http://www.w3.org/2000/svg">
<path d="M23.413 60.6627L23.4124 60.6608L18.858 45.4854H17.6758C15.5374 45.4854 13.75 43.9208 13.75 41.9412C13.75 39.9617 15.5374 38.3971 17.6758 38.3971H27.3678C25.3349 36.9904 24.0115 34.7777 24.0115 32.2815V31.5098C24.0115 31.0434 24.4243 30.7108 24.8741 30.7108H28.9515C31.7435 30.7108 34.2348 31.9172 35.8046 33.79V24.6226H25.3639C23.7154 24.6226 22.3268 23.4153 22.3268 21.875V11.4976C22.3268 9.9573 23.7154 8.75 25.3639 8.75H47.9705C49.619 8.75 51.0076 9.9573 51.0076 11.4976V21.875C51.0076 23.4153 49.619 24.6226 47.9705 24.6226H37.5298V33.79C39.0996 31.9172 41.5909 30.7108 44.3829 30.7108H48.4603C48.9101 30.7108 49.3229 31.0434 49.3229 31.5098V32.2815C49.3229 34.7777 47.9995 36.9904 45.9666 38.3971H55.6587C57.7971 38.3971 59.5844 39.9617 59.5844 41.9412C59.5844 43.9208 57.7971 45.4854 55.6587 45.4854H54.4764L49.9222 60.66L23.413 60.6627ZM23.413 60.6627C23.4151 60.6698 23.4185 60.6806 23.4226 60.6923C24.3779 63.4318 27.1603 65.25 30.3217 65.25H43.0126C46.174 65.25 48.9564 63.4318 49.9117 60.6923L49.9117 60.6923M23.413 60.6627L49.9117 60.6923M49.9117 60.6923C49.9128 60.6892 49.9139 60.686 49.915 60.6826M49.9117 60.6923L49.915 60.6826M49.915 60.6826C49.9173 60.6759 49.9196 60.6686 49.9219 60.6608L49.915 60.6826ZM24.052 21.875V11.4976C24.052 10.8891 24.6142 10.348 25.3639 10.348H47.9707C48.7202 10.348 49.2824 10.889 49.2824 11.4976V21.875C49.2824 22.4835 48.7202 23.0245 47.9705 23.0245H25.3639C24.6142 23.0245 24.052 22.4835 24.052 21.875ZM44.3829 32.3089H47.5976C47.5811 35.6435 44.5393 38.3971 40.7446 38.3971H37.5299C37.5464 35.0625 40.5882 32.3089 44.3829 32.3089ZM35.8045 38.3971H32.5898C28.7951 38.3971 25.7534 35.6435 25.7368 32.3089H28.9515C32.7462 32.3089 35.788 35.0625 35.8045 38.3971ZM49.7198 55.3677L48.2649 60.2154C47.5446 62.2584 45.446 63.6521 43.0127 63.6521H30.3217C27.8884 63.6521 25.7898 62.2583 25.0695 60.2153L23.6148 55.3677H30.9728C31.4033 57.8709 33.8109 59.7599 36.6672 59.7599C39.5235 59.7599 41.9311 57.8709 42.3617 55.3677H49.7198ZM32.6288 54.5687C32.6288 52.6127 34.4142 50.9756 36.6672 50.9756C38.9202 50.9756 40.7056 52.6127 40.7056 54.5687C40.7056 56.5247 38.9202 58.1619 36.6672 58.1619C34.4142 58.1619 32.6288 56.5247 32.6288 54.5687ZM23.1894 53.7697C23.1713 53.7697 23.1534 53.7702 23.1356 53.7713L20.6488 45.4854H52.6855L50.1988 53.7713C50.181 53.7702 50.1631 53.7697 50.145 53.7697H42.3617C41.9312 51.2665 39.5236 49.3775 36.6672 49.3775C33.8108 49.3775 31.4033 51.2665 30.9728 53.7697H23.1894ZM55.6587 43.8873H53.8208H19.5136H17.6758C16.4361 43.8873 15.4753 42.989 15.4753 41.9412C15.4753 40.8935 16.4361 39.9952 17.6758 39.9952H32.5898H36.6672H40.7446H55.6587C56.8983 39.9952 57.8592 40.8935 57.8592 41.9412C57.8592 42.989 56.8983 43.8873 55.6587 43.8873Z" fill="#0CBCB7" stroke="#0CBCB7" stroke-width="0.5"/>
<path d="M44.359 19.4299C44.359 19.0326 44.7292 18.6637 45.2428 18.6637C45.6926 18.6637 46.1054 18.3312 46.1054 17.8647V15.5048C46.1054 15.0383 45.6926 14.7058 45.2428 14.7058C44.7291 14.7058 44.359 14.3369 44.359 13.9396C44.359 13.4732 43.9462 13.1406 43.4964 13.1406H29.8355C29.3857 13.1406 28.9729 13.4732 28.9729 13.9396C28.9729 14.3369 28.6027 14.7058 28.0892 14.7058C27.6393 14.7058 27.2266 15.0383 27.2266 15.5048V17.8647C27.2266 18.3312 27.6393 18.6637 28.0892 18.6637C28.6027 18.6637 28.9729 19.0326 28.9729 19.4299C28.9729 19.8963 29.3857 20.2289 29.8355 20.2289H43.4963C43.9462 20.2289 44.359 19.8963 44.359 19.4299ZM42.7869 18.6308H30.545C30.2773 17.956 29.6845 17.4316 28.9518 17.1984V16.1711C29.6845 15.938 30.2773 15.4136 30.545 14.7387H42.7869C43.0546 15.4135 43.6474 15.9379 44.3801 16.1711V17.1984C43.6474 17.4315 43.0546 17.9559 42.7869 18.6308Z" fill="#0CBCB7" stroke="#0CBCB7" stroke-width="0.5"/>
</svg>
