<svg width="80" height="80" viewBox="0 0 80 80" fill="none" xmlns="http://www.w3.org/2000/svg">
<path d="M62.5001 10.5723C62.5001 9.19154 61.3807 8.07218 60 8.07216C58.6193 8.07214 57.5 9.19144 57.5 10.5722L57.5001 17.5003L50.5719 17.5003C49.1914 17.5005 48.0721 18.6198 48.0719 20.0003C48.072 21.381 49.1913 22.5003 50.572 22.5003L57.5002 22.5004L57.5001 29.4283C57.5001 30.809 58.6194 31.9284 60.0002 31.9284C61.3809 31.9284 62.5002 30.8091 62.5002 29.4284L62.5 22.5003L69.4282 22.5004C70.8089 22.5004 71.9282 21.3811 71.9282 20.0004C71.9282 18.6196 70.8088 17.5003 69.4281 17.5003L62.5002 17.5004L62.5001 10.5723Z" fill="#0CBCB7"/>
<path fill-rule="evenodd" clip-rule="evenodd" d="M35.6414 16.5023C31.7419 9.51519 22.2914 9.08946 16.6912 14.6897C13.6957 17.6852 11.034 21.6683 10.8566 26.349C10.5936 33.2854 12.3849 44.8027 23.7909 56.2087C35.1967 67.6147 46.7144 69.406 53.6507 69.143C58.3314 68.9657 62.3144 66.304 65.31 63.3084C70.91 57.7084 70.4844 48.2577 63.4973 44.3584L59.621 42.195C55.0584 39.6487 49.3013 40.7337 45.528 44.4614C45.46 44.511 45.0767 44.7744 44.4067 44.807C43.5517 44.8484 41.576 44.5444 38.5157 41.484C35.4544 38.4224 35.151 36.4464 35.1927 35.592C35.2254 34.9227 35.4887 34.5397 35.5384 34.4717C39.266 30.6984 40.351 24.9414 37.8047 20.3787L35.6414 16.5023ZM20.2267 18.2252C23.9128 14.5391 29.2785 15.3611 31.2752 18.9389L33.4387 22.8154C34.7844 25.2267 34.3254 28.6139 31.9475 30.9916C31.7154 31.2238 30.3279 32.7092 30.1987 35.3477C30.0665 38.0487 31.2795 41.3187 34.9804 45.0194C38.6797 48.719 41.9487 49.9324 44.6497 49.801C47.2877 49.6727 48.7737 48.286 49.0074 48.0527C51.385 45.675 54.773 45.2154 57.1843 46.561L61.0607 48.7244C64.6384 50.721 65.4604 56.0867 61.7744 59.773C59.19 62.3574 56.3374 64.0377 53.4614 64.1467C47.6767 64.366 37.591 62.9377 27.3264 52.6734C17.0618 42.4087 15.6337 32.3228 15.853 26.5384C15.962 23.6624 17.6422 20.8097 20.2267 18.2252Z" fill="#0CBCB7"/>
</svg>
