<svg width="73" height="73" viewBox="0 0 73 73" fill="none" xmlns="http://www.w3.org/2000/svg">
<path d="M14.403 30C13.7696 29.9994 13.1616 30.2493 12.7115 30.6954C12.2614 31.1415 12.0057 31.7475 12.0001 32.3815C11.9976 32.6012 12.0294 32.82 12.0944 33.0299L18.184 54.5221C18.4663 55.526 19.0695 56.4097 19.9012 57.0378C20.733 57.6659 21.7476 58.0039 22.7895 58H50.2106C51.2546 58.0009 52.2706 57.6622 53.1055 57.0349C53.9404 56.4076 54.5491 55.5257 54.8397 54.5221L60.9293 33.0299L61 32.3815C60.9944 31.7475 60.7387 31.1415 60.2886 30.6954C59.8385 30.2493 59.2305 29.9994 58.5971 30H14.403ZM37.1738 48.8714C36.1948 48.8665 35.2392 48.5715 34.4275 48.0235C33.6159 47.4755 32.9846 46.6992 32.6134 45.7925C32.2421 44.8858 32.1475 43.8893 32.3415 42.9289C32.5354 41.9684 33.0093 41.0869 33.7033 40.3958C34.3973 39.7046 35.2803 39.2347 36.2409 39.0453C37.2014 38.8559 38.1965 38.9556 39.1006 39.3317C40.0046 39.7078 40.777 40.3435 41.3205 41.1586C41.8639 41.9737 42.1539 42.9317 42.1539 43.9116C42.1477 45.2294 41.6202 46.491 40.6869 47.4205C39.7536 48.3501 38.4904 48.8717 37.1738 48.8714Z" stroke="#0CBCB7" stroke-width="2" stroke-linejoin="round"/>
<path d="M25 30L36.5 14L48 30" stroke="#0CBCB7" stroke-width="2" stroke-linejoin="round"/>
</svg>
