<svg width="80" height="80" viewBox="0 0 80 80" fill="none" xmlns="http://www.w3.org/2000/svg">
<g clip-path="url(#clip0_136_864)">
<path d="M21.7683 44.4443C19.7645 44.4443 18.1402 42.8199 18.1402 40.8161C18.1402 38.8124 19.7645 37.188 21.7683 37.188C23.7721 37.188 25.3965 38.8124 25.3965 40.8161C25.3965 42.8199 23.7721 44.4443 21.7683 44.4443Z" fill="#0CBCB7"/>
<path d="M29.0246 29.9321H50.7934C51.8819 29.9321 52.6074 30.6578 52.6074 31.7461C52.6074 32.8344 51.8817 33.5601 50.7934 33.5601H29.0248C27.9363 33.5601 27.2108 32.8344 27.2108 31.7461C27.2108 30.6578 27.9362 29.9321 29.0246 29.9321Z" fill="#0CBCB7"/>
<path d="M5.44235 39.0023C6.53081 39.0023 7.43782 38.4581 7.98205 37.3696C9.43328 34.4672 11.2473 31.746 13.787 29.2063L11.0658 19.5918C10.8843 19.0475 11.0658 18.5033 11.4286 17.9591C11.7914 17.5963 12.3356 17.2334 12.8798 17.2334C17.7777 17.0519 21.7687 18.6846 24.8526 22.1313C26.3038 21.5871 27.9365 21.0428 29.5692 20.4986C28.2994 18.5031 27.5738 16.1449 27.5738 13.6052C27.5738 6.53036 33.1974 0.906738 40.2722 0.906738C47.3471 0.906738 52.9707 6.53036 52.9707 13.6052C52.9707 20.6801 47.3471 26.3037 40.2722 26.3037C37.1883 26.3037 34.4673 25.2152 32.2904 23.4012C29.9321 23.9455 27.0297 25.0339 25.2155 25.9409C24.4898 26.3037 23.5828 26.1224 23.0386 25.3967C21.0431 22.857 18.6849 21.4058 15.601 21.043L17.9592 29.3876C18.1407 30.1133 17.9592 30.8388 17.415 31.2016C14.8753 33.5598 12.8798 36.0995 11.61 39.002C10.5216 41.3602 8.34481 42.6302 5.80511 42.6302C4.71665 42.6302 3.99111 43.3559 3.99111 44.4442V51.7003C3.99111 52.7888 4.7168 53.5143 5.80511 53.5143H8.88905C9.43328 53.5143 9.79604 53.6958 10.1588 54.0586C11.0658 55.147 11.7915 55.8726 12.6985 56.5983C13.6055 57.5053 14.694 58.4123 16.1452 60.2264C18.8664 63.3103 20.3176 67.3013 20.3176 71.655V73.469C20.3176 74.5574 21.0433 75.283 22.1316 75.283H25.7598C26.8482 75.283 27.5738 74.5573 27.5738 73.469V70.0223C27.5738 68.9338 28.2994 68.2083 29.3878 68.2083C30.4762 68.2083 31.2018 68.934 31.2018 70.0223V73.469C31.2018 76.5529 28.8435 78.9111 25.7596 78.9111H22.1317C19.0478 78.9111 16.6896 76.5529 16.6896 73.469V71.655C16.6896 68.2083 15.6011 64.9429 13.4244 62.5846C11.9731 60.952 11.0661 60.0449 10.1591 59.1379C9.43343 58.5937 8.88935 57.8682 8.16366 57.1425H5.4425C2.35857 57.1425 0.000343323 54.7843 0.000343323 51.7003V44.4442C0.00018692 41.3605 2.35858 39.0023 5.44235 39.0023ZM39.9095 22.6758C44.9888 22.6758 48.9798 18.6849 48.9798 13.6055C48.9798 8.52614 44.9888 4.53521 39.9095 4.53521C34.8301 4.53521 30.8391 8.52614 30.8391 13.6055C30.8393 18.6849 34.8302 22.6758 39.9095 22.6758Z" fill="#0CBCB7"/>
<path d="M35.737 69.6599C41.1792 70.2041 46.9841 69.6599 52.0635 67.8459C52.6077 67.6644 53.152 67.6644 53.6962 68.0273C54.059 68.3901 54.4219 68.9343 54.4219 69.4786V73.4695C54.4219 74.558 55.1476 75.2835 56.2359 75.2835H59.8641C60.9525 75.2835 61.6781 74.5578 61.6781 73.4695V69.2971C61.6781 65.4877 62.9478 61.678 65.4875 58.5941C66.0318 58.0499 66.576 57.3243 67.1202 56.7801C68.5715 55.1474 69.4785 53.8776 70.2041 52.4264C70.5669 51.1566 70.7484 49.8867 70.7484 48.0727C70.7484 38.4582 64.2178 29.7508 53.6962 25.3969C52.7892 25.0342 52.245 23.9457 52.7892 23.0387C53.152 22.1317 54.2404 21.5875 55.1474 22.1317C66.2132 26.6668 73.2879 35.737 74.3764 45.8958C75.4648 45.3516 76.3718 44.0818 76.3718 42.6306C76.3718 41.5421 77.0975 40.8166 78.1858 40.8166C79.2742 40.8166 80 41.5421 80 42.6306C80 46.0772 77.6418 48.7984 74.5578 49.7054C74.3764 51.1566 74.1951 52.6079 73.6508 53.6963C72.9251 55.6918 71.6554 57.143 70.0227 59.1385C69.4785 59.6827 68.9342 60.4083 68.39 61.134C66.576 63.4922 65.4875 66.5761 65.4875 69.4786V73.651C65.4875 76.7349 63.1293 79.0931 60.0454 79.0931H56.4172C53.3333 79.0931 50.975 76.7349 50.975 73.651V72.1997C46.0771 73.651 40.635 74.0137 35.3741 73.4695C34.4671 73.288 33.7414 72.381 33.7414 71.474C33.7416 70.2041 34.6486 69.4786 35.737 69.6599Z" fill="#0CBCB7"/>
<path d="M43.2656 8.00189C43.6708 8.00189 43.9979 8.34711 44 8.77474C43.9962 8.97686 43.9181 9.16951 43.7823 9.31204C43.6465 9.45457 43.4635 9.53583 43.272 9.53868H40.8094C41.147 10.0331 41.3644 10.6075 41.4424 11.2113H43.2467C43.6497 11.2113 43.9789 11.5565 43.9789 11.9842C43.9789 12.4118 43.6518 12.7593 43.2467 12.7593H41.3095C40.8727 14.345 39.4989 15.4408 37.9332 15.4475H37.5512L41.6957 19.6503C41.9826 19.951 41.9911 20.4365 41.7168 20.7506C41.5737 20.8998 41.3837 20.9885 41.1829 21C40.9953 20.9977 40.8148 20.9242 40.6743 20.7929L35.211 15.2359C35.076 15.0956 35 14.9063 35 14.7081V14.6724V14.6457C35.0025 14.56 35.0197 14.4755 35.0506 14.3963L35.0739 14.3517C35.1034 14.2782 35.1435 14.2114 35.1941 14.1513C35.3334 14.0043 35.5233 13.9219 35.7196 13.9285H37.9374C38.3096 13.9283 38.6749 13.822 38.9947 13.6209C39.3145 13.4199 39.5769 13.1314 39.7543 12.786H35.7365C35.3334 12.786 35.0042 12.4408 35.0042 12.0131C35.0042 11.5855 35.3313 11.2381 35.7365 11.2381H39.9569C39.8581 10.784 39.6228 10.3758 39.2863 10.0744C38.9497 9.77294 38.5299 9.59441 38.0893 9.5654H35.7344C35.5407 9.56366 35.3554 9.48168 35.2184 9.33711C35.0814 9.19255 35.0038 8.99699 35.0021 8.79256V8.77028C35.0042 8.34488 35.3313 8.00189 35.7344 8.00189H37.9458C37.9796 7.99937 38.0134 7.99937 38.0471 8.00189H38.102H43.2656Z" fill="#0CBCB7"/>
<path d="M43.2656 8.00189C43.6708 8.00189 43.9979 8.34711 44 8.77474C43.9962 8.97686 43.9181 9.16951 43.7823 9.31204C43.6465 9.45457 43.4635 9.53583 43.272 9.53868H40.8094C41.147 10.0331 41.3644 10.6075 41.4424 11.2113H43.2467C43.6497 11.2113 43.9789 11.5565 43.9789 11.9842C43.9789 12.4118 43.6518 12.7593 43.2467 12.7593H41.3095C40.8727 14.345 39.4989 15.4408 37.9332 15.4475H37.5512L41.6957 19.6503C41.9826 19.951 41.9911 20.4365 41.7168 20.7506C41.5737 20.8998 41.3837 20.9885 41.1829 21C40.9953 20.9977 40.8148 20.9242 40.6743 20.7929L35.211 15.2359C35.076 15.0956 35 14.9063 35 14.7081V14.6724V14.6457C35.0025 14.56 35.0197 14.4755 35.0506 14.3963L35.0739 14.3517C35.1034 14.2782 35.1435 14.2114 35.1941 14.1513C35.3334 14.0043 35.5233 13.9219 35.7196 13.9285H37.9374C38.3096 13.9283 38.6749 13.822 38.9947 13.6209C39.3145 13.4199 39.5769 13.1314 39.7543 12.786H35.7365C35.3334 12.786 35.0042 12.4408 35.0042 12.0131C35.0042 11.5855 35.3313 11.2381 35.7365 11.2381H39.9569C39.8581 10.784 39.6228 10.3758 39.2863 10.0744C38.9497 9.77294 38.5299 9.59441 38.0893 9.5654H35.7344C35.5407 9.56366 35.3554 9.48168 35.2184 9.33711C35.0814 9.19255 35.0038 8.99699 35.0021 8.79256V8.77028C35.0042 8.34488 35.3313 8.00189 35.7344 8.00189H37.9458C37.9796 7.99937 38.0134 7.99937 38.0471 8.00189H38.102H43.2656Z" stroke="#0CBCB7"/>
</g>
<defs>
<clipPath id="clip0_136_864">
<rect width="80" height="80" fill="white" transform="matrix(-1 0 0 1 80 0)"/>
</clipPath>
</defs>
</svg>
