<svg width="80" height="80" viewBox="0 0 80 80" fill="none" xmlns="http://www.w3.org/2000/svg">
<g clip-path="url(#clip0_136_850)">
<path d="M67.5558 39.1109C63.5558 34.8887 58.2225 31.9998 52.6669 30.8887C50.2225 30.222 47.778 29.7775 45.3336 29.5553C51.5558 22.222 50.4447 11.1109 43.1114 4.88865C35.778 -1.33357 24.6669 -0.222457 18.4447 7.11088C12.2225 14.4442 13.3336 25.5553 20.6669 31.7775C22.0003 32.8887 23.3336 33.7775 24.6669 34.222V39.1109L21.1114 35.7775C18.0003 32.6664 12.8892 32.6664 9.55582 35.7775C6.44471 38.8887 6.22248 43.7775 9.33359 46.8887L19.5558 58.8887C20.0003 61.9998 21.1114 64.8886 22.6669 67.5553C23.778 69.5553 25.3336 71.5553 26.8891 73.1109V77.3331C26.8891 78.6664 27.778 79.5553 29.1114 79.5553H59.3336C60.4447 79.5553 61.5558 78.4442 61.5558 77.3331V71.5553C65.778 66.4442 68.0003 59.9998 68.0003 53.5553V40.6664C68.2225 39.7775 68.0003 39.3331 67.5558 39.1109ZM18.6669 18.222C18.6669 10.8887 24.6669 5.11088 32.0003 5.3331C39.3336 5.3331 45.1114 11.3331 44.8891 18.6664C44.8891 22.6664 43.1114 26.222 40.0003 28.6664V17.5553C39.778 13.5553 36.4447 10.4442 32.4447 10.4442C28.4447 10.222 24.8891 13.5553 24.8891 17.5553V29.1109C21.1114 26.8887 18.8891 22.6664 18.6669 18.222ZM63.778 53.3331C64.0003 59.1109 62.0003 64.6664 58.2225 69.1109C57.778 69.5553 57.3336 69.9998 57.3336 70.6664V75.3331H31.5558V72.222C31.5558 71.5553 31.1114 70.8887 30.6669 70.4442C29.1114 69.1109 27.778 67.5553 26.6669 65.5553C25.3336 63.3331 24.4447 60.6664 24.0003 57.9998C24.0003 57.5553 23.778 57.1109 23.5558 56.6664L12.8892 43.9998C12.2225 43.3331 11.778 42.4442 11.778 41.3331C11.778 40.4442 12.2225 39.3331 12.8892 38.6664C14.4447 37.3331 16.6669 37.3331 18.2225 38.6664L24.6669 45.1109V51.7775L28.8891 49.5553V17.5553C29.1114 15.9998 30.4447 14.6664 32.2225 14.8887C33.778 14.8887 35.3336 15.9998 35.3336 17.5553V43.1109L39.778 43.9998V33.7775C40.0003 33.5553 40.2225 33.5553 40.4447 33.3331C42.0003 33.3331 43.5558 33.5553 45.1114 33.7775V45.1109L48.6669 45.7775V34.222L51.3336 34.8887C52.4447 35.1109 53.5558 35.5553 54.6669 35.9998V47.1109L58.2225 47.7775V37.5553C60.2225 38.4442 62.0003 39.7775 63.5558 41.3331L63.778 53.3331Z" fill="#0CBCB7"/>
</g>
<defs>
<clipPath id="clip0_136_850">
<rect width="80" height="80" fill="white"/>
</clipPath>
</defs>
</svg>
