<svg width="52" height="44" viewBox="0 0 52 44" fill="none" xmlns="http://www.w3.org/2000/svg">
<path d="M28.5271 33.8077C28.5271 31.042 29.2462 28.7226 30.6845 26.84C31.7038 25.5451 33.0857 24.6934 34.8335 24.288C36.5531 23.8857 38.179 23.8574 39.6485 24.2C40.1487 21.2143 39.3358 18.0526 37.2722 14.7023C35.2087 11.3551 32.5354 8.83457 29.2744 7.15L34.2175 0C36.7188 1.24457 39.095 2.82229 41.2837 4.73C43.5036 6.63771 45.4733 8.83143 47.2242 11.3111C48.9751 13.7909 50.2883 16.5911 51.1325 19.7654C51.9767 22.9397 52.2111 26.1769 51.8078 29.5083C51.2825 33.9083 49.8693 37.4283 47.5681 40.0369C45.2701 42.68 42.403 44 38.9762 44C35.9591 44 33.4547 43.0886 31.4724 41.2406C29.5089 39.4303 28.5334 36.9506 28.5334 33.7983L28.5271 33.8077ZM0 33.8077C0 31.042 0.71912 28.7226 2.15736 26.84C3.17663 25.52 4.56484 24.6651 6.30636 24.2723C8.05726 23.8826 9.6612 23.8637 11.1213 24.2031C11.6216 21.2489 10.8399 18.0746 8.77012 14.7117C6.70656 11.3803 4.03957 8.866 0.778526 7.16886L5.70918 0C8.21046 1.24457 10.571 2.82229 12.7753 4.73C15.0154 6.66598 17.0049 8.87698 18.6971 11.3111C20.4355 13.794 21.7299 16.5911 22.5741 19.7654C23.4282 22.9378 23.6587 26.2472 23.2525 29.5083C22.7335 33.9083 21.3266 37.4283 19.0316 40.0369C16.7398 42.658 13.8821 43.9717 10.4554 43.9717C7.43193 43.9717 4.92752 43.0603 2.94526 41.2154C0.984879 39.4051 0 36.9254 0 33.7731V33.8077Z" fill="#0CBCB7" fill-opacity="0.3"/>
</svg>
