<svg width="80" height="80" viewBox="0 0 80 80" fill="none" xmlns="http://www.w3.org/2000/svg">
<path fill-rule="evenodd" clip-rule="evenodd" d="M32.5 15.0342C27.0068 15.0342 22.5 19.541 22.5 25.0342C22.5 27.619 23.498 29.9864 25.127 31.7676L14.9805 45.3516C14.1865 45.1466 13.355 45.0342 12.5 45.0342C7.00677 45.0342 2.5 49.541 2.5 55.0342C2.5 60.5274 7.00677 65.0342 12.5 65.0342C17.9932 65.0342 22.5 60.5274 22.5 55.0342C22.5 52.2011 21.2993 49.633 19.3848 47.8076L29.3213 34.5068C30.3214 34.8456 31.3904 35.0342 32.5 35.0342C33.2698 35.0342 34.0198 34.9427 34.7412 34.7754L41.9775 46.7139C39.2865 48.5123 37.5 51.5782 37.5 55.0342C37.5 60.5274 42.0068 65.0342 47.5 65.0342C52.9932 65.0342 57.5 60.5274 57.5 55.0342C57.5 52.2011 56.2993 49.633 54.3848 47.8076L64.3213 34.5068C65.3214 34.8456 66.3904 35.0342 67.5 35.0342C72.9932 35.0342 77.5 30.5274 77.5 25.0342C77.5 19.541 72.9932 15.0342 67.5 15.0342C62.0068 15.0342 57.5 19.541 57.5 25.0342C57.5 27.619 58.498 29.9864 60.127 31.7676L49.9805 45.3516C49.1865 45.1466 48.355 45.0342 47.5 45.0342C47.27 45.0342 47.0427 45.0466 46.8164 45.0634L39.1797 32.456C41.215 30.6212 42.5 27.9685 42.5 25.0342C42.5 19.541 37.9932 15.0342 32.5 15.0342ZM32.5 20.0342C35.291 20.0342 37.5 22.2432 37.5 25.0342C37.5 27.8252 35.291 30.0342 32.5 30.0342C29.709 30.0342 27.5 27.8252 27.5 25.0342C27.5 22.2432 29.709 20.0342 32.5 20.0342ZM67.5 20.0342C70.291 20.0342 72.5 22.2432 72.5 25.0342C72.5 27.8252 70.291 30.0342 67.5 30.0342C64.709 30.0342 62.5 27.8252 62.5 25.0342C62.5 22.2432 64.709 20.0342 67.5 20.0342ZM12.5 50.0342C15.291 50.0342 17.5 52.2432 17.5 55.0342C17.5 57.8252 15.291 60.0342 12.5 60.0342C9.70897 60.0342 7.5 57.8252 7.5 55.0342C7.5 52.2432 9.70897 50.0342 12.5 50.0342ZM47.5 50.0342C50.291 50.0342 52.5 52.2432 52.5 55.0342C52.5 57.8252 50.291 60.0342 47.5 60.0342C44.709 60.0342 42.5 57.8252 42.5 55.0342C42.5 52.2432 44.709 50.0342 47.5 50.0342Z" fill="#0CBCB7"/>
</svg>
