<svg width="10" height="10" viewBox="0 0 10 10" fill="none" xmlns="http://www.w3.org/2000/svg">
<g id="Layer_1" clip-path="url(#clip0_382_455)">
<path id="Vector" d="M9.54545 10H2.88182C1.96364 10 1.5 10 1.08182 9.78182C0.709091 9.59091 0.409091 9.29091 0.218182 8.91818C0 8.5 0 8.03636 0 7.11818V0.454545C0 0.2 0.2 0 0.454545 0C0.709091 0 0.909091 0.2 0.909091 0.454545V7.11818C0.909091 7.87273 0.909091 8.28182 1.02727 8.50909C1.12727 8.70909 1.29091 8.87273 1.49091 8.97273C1.71818 9.09091 2.12727 9.09091 2.88182 9.09091H9.54545C9.8 9.09091 10 9.29091 10 9.54545C10 9.8 9.8 10 9.54545 10ZM1.97273 6.97273C1.85455 6.97273 1.73636 6.92727 1.65455 6.83636C1.47273 6.65455 1.47273 6.37273 1.65455 6.19091L3.67273 4.17273C3.84545 4 4.14545 4 4.31818 4.17273L6.01818 5.87273L7.95455 3.93636H7.03636C6.78182 3.93636 6.58182 3.73636 6.58182 3.48182C6.58182 3.22727 6.78182 3.02727 7.03636 3.02727H9.05455C9.05455 3.02727 9.06364 3.02727 9.07273 3.02727C9.12727 3.02727 9.18182 3.03636 9.22727 3.06364C9.27273 3.08182 9.32727 3.10909 9.36364 3.15455C9.37273 3.15455 9.38182 3.17273 9.39091 3.18182C9.42727 3.21818 9.45455 3.26364 9.47273 3.30909C9.5 3.36364 9.50909 3.42727 9.50909 3.49091V5.50909C9.50909 5.76364 9.30909 5.96364 9.05455 5.96364C8.8 5.96364 8.6 5.76364 8.6 5.50909V4.58182L6.34545 6.83636C6.17273 7.00909 5.87273 7.00909 5.7 6.83636L4 5.13636L2.3 6.83636C2.20909 6.92727 2.09091 6.97273 1.98182 6.97273H1.97273Z" fill="#221F20"/>
</g>
<defs>
<clipPath id="clip0_382_455">
<rect width="10" height="10" fill="white"/>
</clipPath>
</defs>
</svg>
