<svg width="10" height="10" viewBox="0 0 10 10" fill="none" xmlns="http://www.w3.org/2000/svg">
<g id="Layer_1" clip-path="url(#clip0_382_459)">
<path id="Vector" d="M5 10C2.24545 10 0 7.75455 0 5C0 2.24545 2.24545 0 5 0C7.75455 0 10 2.24545 10 5C10 7.75455 7.75455 10 5 10ZM5 0.909091C2.74545 0.909091 0.909091 2.74545 0.909091 5C0.909091 7.25455 2.74545 9.09091 5 9.09091C7.25455 9.09091 9.09091 7.25455 9.09091 5C9.09091 2.74545 7.25455 0.909091 5 0.909091ZM5 7.47273C4.74545 7.47273 4.54545 7.27273 4.54545 7.01818V5C4.54545 4.74545 4.74545 4.54545 5 4.54545C5.25455 4.54545 5.45455 4.74545 5.45455 5V7.01818C5.45455 7.27273 5.25455 7.47273 5 7.47273ZM5 3.68182C4.74545 3.68182 4.54545 3.48182 4.54545 3.22727V2.97273C4.54545 2.71818 4.74545 2.51818 5 2.51818C5.25455 2.51818 5.45455 2.71818 5.45455 2.97273V3.22727C5.45455 3.48182 5.25455 3.68182 5 3.68182Z" fill="#221F20"/>
</g>
<defs>
<clipPath id="clip0_382_459">
<rect width="10" height="10" fill="white"/>
</clipPath>
</defs>
</svg>
