<svg width="40" height="29" viewBox="0 0 40 29" fill="none" xmlns="http://www.w3.org/2000/svg">
<g id="Layer_1" clip-path="url(#clip0_126_4195)">
<path id="Vector" d="M39.2654 20.8549C38.7915 20.8153 38.3115 20.8435 37.8115 20.8435V20.3216C37.8115 14.8277 37.8115 9.33377 37.8115 3.83881C37.8115 1.50097 36.3191 0.00120434 33.9854 0.00120434C24.6633 0.000160665 15.3412 0.000160665 6.02006 0.00224802C5.74766 0.00224802 5.47004 0.00224802 5.20286 0.0492135C3.39521 0.366492 2.19185 1.81199 2.19081 3.67913C2.18663 9.2388 2.18872 14.7974 2.18872 20.3571V20.8435C1.67106 20.8435 1.20453 20.8424 0.738008 20.8435C0.112845 20.8455 0.00117185 20.9541 0.00117185 21.5625C0.00117185 22.4998 -0.000915501 23.437 0.00117185 24.3742C0.00639024 26.6233 1.58026 28.2181 3.83043 28.2191C14.6106 28.2243 25.3907 28.2212 36.1709 28.2212C36.2492 28.2212 36.3274 28.2191 36.4047 28.216C37.967 28.1701 39.3238 27.1629 39.8112 25.6809C39.8843 25.4596 39.9375 25.2332 40.0001 25.0088V21.1023C39.7559 21.0157 39.5159 20.8748 39.2664 20.8539L39.2654 20.8549ZM24.5934 25.7842C21.5479 25.7863 18.5025 25.7842 15.457 25.7842C13.403 25.7842 12.1078 24.2803 12.3959 22.2002H13.1098C13.1359 22.5801 13.1306 22.9465 13.1922 23.3003C13.3592 24.2646 14.1743 24.991 15.1533 24.9962C18.3814 25.0129 21.6084 25.014 24.8365 24.9962C25.9574 24.99 26.7642 24.13 26.8592 22.9214C26.8769 22.6908 26.8613 22.458 26.8613 22.1992H27.6127C27.9185 24.2239 26.5983 25.7842 24.5944 25.7853L24.5934 25.7842ZM36.0936 20.7965H3.90766C3.90766 20.6138 3.90766 20.4719 3.90766 20.331C3.90766 14.836 3.90766 9.34212 3.90766 3.84716C3.90766 2.44863 4.6278 1.7191 6.0138 1.7191C15.3359 1.7191 24.6581 1.7191 33.9812 1.7191C35.3693 1.7191 36.0936 2.44967 36.0947 3.8409C36.0947 9.33586 36.0947 14.8298 36.0947 20.3247V20.7965H36.0936Z" fill="#221F20"/>
<path id="Vector_2" d="M26.0554 5.53671C25.9729 5.45426 25.8915 5.36659 25.7955 5.30188C25.4845 5.09001 25.1557 5.08688 24.8437 5.28831C24.5316 5.49078 24.374 5.8018 24.4721 6.16187C24.5295 6.37374 24.6808 6.58038 24.8395 6.74007C26.2693 8.18139 27.7106 9.61227 29.2261 11.1225C29.0653 11.2456 28.9411 11.3208 28.8399 11.421C27.4748 12.7809 26.1149 14.146 24.7508 15.507C24.4992 15.7574 24.3823 16.0465 24.4825 16.391C24.5817 16.7322 24.8238 16.942 25.1703 17.0109C25.5294 17.0829 25.7913 16.8971 26.0314 16.6561C27.6313 15.053 29.2354 13.452 30.8365 11.8489C31.3917 11.2926 31.3906 10.872 30.8333 10.3147C29.2417 8.72097 27.648 7.12831 26.0554 5.53671Z" fill="#221F20"/>
<path id="Vector_3" d="M11.1497 11.4053C11.0495 11.3051 10.9545 11.2008 10.8428 11.0839C10.9535 10.968 11.0484 10.8647 11.1476 10.7655C12.5096 9.4025 13.8747 8.04258 15.2326 6.67641C15.6396 6.26729 15.6532 5.75797 15.291 5.39686C14.9393 5.04723 14.432 5.05558 14.0417 5.44383C12.3718 7.10641 10.7051 8.77212 9.04459 10.4441C8.64486 10.8469 8.65529 11.3041 9.03937 11.7257C9.07485 11.7643 9.11242 11.7998 9.15 11.8364C10.751 13.4384 12.3541 15.0394 13.953 16.6435C14.193 16.8836 14.4498 17.0735 14.8099 17.012C15.1595 16.9525 15.4048 16.7489 15.5123 16.4097C15.6271 16.0476 15.4976 15.7522 15.2367 15.4934C13.8716 14.1335 12.5106 12.7694 11.1486 11.4064L11.1497 11.4053Z" fill="#221F20"/>
<path id="Vector_4" d="M21.9214 4.92197C21.505 4.91884 21.2566 5.11088 21.0802 5.59515C20.2505 7.87663 19.4229 10.1591 18.5963 12.4417C18.1673 13.6252 17.7353 14.8087 17.3115 15.9944C17.0903 16.6153 17.3721 17.1414 17.9628 17.2395C18.3917 17.3115 18.7361 17.0787 18.9209 16.5694C19.7516 14.2879 20.5772 12.0054 21.4048 9.72289C21.839 8.52684 22.2794 7.33287 22.7021 6.13368C22.9276 5.49495 22.5497 4.92719 21.9204 4.92197H21.9214Z" fill="#221F20"/>
</g>
<defs>
<clipPath id="clip0_126_4195">
<rect width="40" height="28.2221" fill="white"/>
</clipPath>
</defs>
</svg>
