<svg width="41" height="42" viewBox="0 0 41 42" fill="none" xmlns="http://www.w3.org/2000/svg">
<g id="Layer_1" clip-path="url(#clip0_129_4205)">
<path id="Vector" d="M23.4241 0H35.5753C36.2998 0.274553 36.5384 0.817121 36.5362 1.56887C36.5209 6.29292 36.5286 11.0181 36.5286 15.7421V16.1321C29.8042 12.1664 23.3479 12.0967 17.1781 17.2358C11.5388 22.9186 10.4581 29.3542 13.9619 36.5928H13.5631C9.56794 36.5928 5.57277 36.5787 1.57868 36.6048C0.707087 36.6092 -0.00217398 36.2061 5.00731e-06 35.0098C0.0228844 23.873 0.0185264 12.7362 0.002184 1.59938C0.0010945 0.846537 0.227709 0.313774 0.91518 0H13.148C13.1371 0.135097 13.1164 0.269105 13.1164 0.404202C13.1142 2.78475 13.1142 5.1642 13.1164 7.54475C13.1164 8.56342 13.5631 9.00903 14.5807 9.00903C17.0375 9.01012 19.4943 9.01012 21.9511 9.00903C22.9687 9.00903 23.4219 8.55689 23.4219 7.54911C23.423 5.03346 23.423 2.51673 23.4241 0.00108949V0Z" fill="#221F20"/>
<path id="Vector_2" d="M20.977 0V6.52171H15.5862C15.5775 6.42366 15.5633 6.33214 15.5633 6.24062C15.5622 4.25448 15.5622 2.26724 15.5633 0.28109C15.5633 0.187393 15.584 0.0936965 15.5938 0C17.3882 0 19.1826 0 20.9759 0L20.977 0Z" fill="#221F20"/>
<path id="Vector_3" d="M20.0663 29.3815C20.1349 29.3237 20.2068 29.2692 20.2722 29.2082C20.8976 28.6243 21.5229 28.0392 22.1625 27.44C23.2182 28.5643 24.2706 29.6854 25.3318 30.8152C27.8311 28.5012 30.3239 26.1936 32.8253 23.8763C33.0432 24.1116 33.2535 24.3382 33.4638 24.5659C33.8658 25.0017 34.2678 25.4375 34.6709 25.8722C34.7025 25.9071 34.7396 25.9365 34.7734 25.9692V25.9975C34.379 26.3581 33.9813 26.7166 33.5891 27.0794C30.812 29.6473 28.0359 32.2163 25.2599 34.7854C25.2392 34.805 25.2163 34.8224 25.1847 34.8496C25.1281 34.7897 25.0714 34.7331 25.0169 34.6742C23.3903 32.9419 21.7648 31.2085 20.1382 29.4763C20.1153 29.4523 20.0892 29.4316 20.0652 29.4098C20.0652 29.4 20.0652 29.3902 20.0652 29.3815H20.0663Z" fill="#221F20"/>
<path id="Vector_4" d="M27.4749 15.5253C20.1753 15.5253 14.2375 21.463 14.2375 28.7627C14.2375 36.0623 20.1753 42 27.4749 42C34.7745 42 40.7123 36.0623 40.7123 28.7627C40.7123 21.463 34.7745 15.5253 27.4749 15.5253ZM27.4749 39.93C21.3171 39.93 16.3076 34.9205 16.3076 28.7627C16.3076 22.6048 21.3171 17.5953 27.4749 17.5953C33.6327 17.5953 38.6422 22.6048 38.6422 28.7627C38.6422 34.9205 33.6327 39.93 27.4749 39.93Z" fill="#221F20"/>
</g>
<defs>
<clipPath id="clip0_129_4205">
<rect width="40.7122" height="42" fill="white"/>
</clipPath>
</defs>
</svg>
