<svg id="Group_21951" data-name="Group 21951" xmlns="http://www.w3.org/2000/svg" xmlns:xlink="http://www.w3.org/1999/xlink" width="54.114" height="54" viewBox="0 0 54.114 54">
  <defs>
    <linearGradient id="linear-gradient" x1="0.5" x2="0.5" y2="1" gradientUnits="objectBoundingBox">
      <stop offset="0" stop-color="#00efd1"/>
      <stop offset="1" stop-color="#00acea"/>
    </linearGradient>
    <clipPath id="clip-path">
      <rect id="Rectangle_1669" data-name="Rectangle 1669" width="54.114" height="54" fill="url(#linear-gradient)"/>
    </clipPath>
  </defs>
  <g id="Group_21950" data-name="Group 21950" clip-path="url(#clip-path)">
    <path id="Path_14046" data-name="Path 14046" d="M190.224,14.243c-.024-.049-.053-.1-.081-.146a.734.734,0,0,1-.069-.13,14.966,14.966,0,0,0-1.651-5.574A14.992,14.992,0,0,0,177.664.331,25.291,25.291,0,0,0,173.2.013c-.259,0-.519-.006-.777-.011a15.1,15.1,0,0,0-9.932,3.316,15.12,15.12,0,0,0-5.836,10.709A14.93,14.93,0,0,0,159.1,23.9a14.854,14.854,0,0,0,8.764,6.428,23.163,23.163,0,0,0,10.31.2.379.379,0,0,1,.429.126c.687.7,1.392,1.4,2.074,2.082q.658.655,1.313,1.313a1.681,1.681,0,0,0,1.161.586,1.38,1.38,0,0,0,.545-.118,1.454,1.454,0,0,0,.833-1.5c0-.65,0-1.3,0-1.949,0-1.036,0-2.106-.014-3.161a.985.985,0,0,1,.382-.86,15.213,15.213,0,0,0,5.168-9.943.735.735,0,0,1,.07-.123c.031-.048.061-.1.087-.145l.037-.071V14.31Zm-8.453,13.691A14.227,14.227,0,0,1,181.8,29.8l0,.2-.2-.2c-.549-.546-1.069-1.062-1.571-1.589a1.718,1.718,0,0,0-1.278-.59,2.13,2.13,0,0,0-.6.092,20.363,20.363,0,0,1-6.554.456l-.163-.006a11.881,11.881,0,0,1-7.23-2.695,12.226,12.226,0,0,1-4.712-11.91,12.122,12.122,0,0,1,7.432-9.707,12.78,12.78,0,0,1,3.645-.989,21.749,21.749,0,0,1,6.187.067,12.31,12.31,0,0,1,7.924,4.693,12.347,12.347,0,0,1,2.628,9.371,11.857,11.857,0,0,1-4.164,7.924,3.227,3.227,0,0,0-1.374,3.021" transform="translate(-136.143 0)" fill="url(#linear-gradient)"/>
    <path id="Path_14047" data-name="Path 14047" d="M37.75,155.5a2.534,2.534,0,0,0-.058-.593,1.341,1.341,0,0,0-2.622.024,3.2,3.2,0,0,0-.053.691q0,1.776,0,3.553,0,1.48,0,2.96a4.9,4.9,0,0,1-5.185,5.161H25.18q-3.016,0-6.032,0a1.427,1.427,0,0,0-1.638,1.618c0,.319,0,.638,0,.965l-.213-.2c-.607-.581-1.181-1.129-1.719-1.714a1.839,1.839,0,0,0-1.437-.671h-.013c-1.663.009-3.353.007-4.989.006H7.927a4.925,4.925,0,0,1-5.19-5.208q0-7.685,0-15.371A4.922,4.922,0,0,1,8,141.475H11.15q3.4,0,6.8,0a1.641,1.641,0,0,0,1.189-.448,1.278,1.278,0,0,0,.363-.941,1.389,1.389,0,0,0-1.482-1.341q-1.4,0-2.807-.011c-2.6-.014-5.289-.028-7.934.039a7.022,7.022,0,0,0-6.109,3.606,9.853,9.853,0,0,0-.842,2.1c-.1.312-.2.634-.312.939l-.02.054V163.3l.02.054c.112.3.213.627.311.938a9.8,9.8,0,0,0,.84,2.094A7.164,7.164,0,0,0,7.311,170c1.234.05,2.486.043,3.7.037.785,0,1.6-.008,2.395,0a.9.9,0,0,1,.534.223c.7.671,1.391,1.367,2.064,2.04q.645.646,1.294,1.289c.234.231.483.445.725.653.11.094.219.188.327.284l.093.082h.831l.072-.039a1.686,1.686,0,0,0,.909-1.725c-.024-.4-.018-.806-.012-1.2,0-.183.005-.365.005-.548v-1.07H22.49c2.53,0,4.919,0,7.362-.009a8.693,8.693,0,0,0,1.877-.181,7.583,7.583,0,0,0,6.019-7.463c.014-1.71.01-3.448.006-5.128q0-.876,0-1.753" transform="translate(0 -120.615)" fill="url(#linear-gradient)"/>
    <path id="Path_14048" data-name="Path 14048" d="M66.677,247.465a3.072,3.072,0,0,0-.474-.022H52.657q-3.9,0-7.805,0a1.927,1.927,0,0,0-1.19.346,1.244,1.244,0,0,0-.483,1.022c0,.838.642,1.362,1.672,1.368H66.3a2.58,2.58,0,0,0,.377-.022,1.354,1.354,0,0,0,0-2.693" transform="translate(-37.543 -215.147)" fill="url(#linear-gradient)"/>
    <path id="Path_14049" data-name="Path 14049" d="M62.093,292.159q-3.417-.007-6.833,0H51.194q-3.17,0-6.34,0c-1.031,0-1.673.524-1.674,1.366s.638,1.365,1.669,1.37h5.794q5.7,0,11.394,0a2.839,2.839,0,0,0,.868-.111,1.337,1.337,0,0,0,.009-2.5,2.578,2.578,0,0,0-.821-.114" transform="translate(-37.544 -254.023)" fill="url(#linear-gradient)"/>
    <path id="Path_14050" data-name="Path 14050" d="M59.891,202.739a3.12,3.12,0,0,0-.462-.02H45.676c-.314,0-.628,0-.942,0a1.38,1.38,0,1,0,.021,2.735H59.462a2.808,2.808,0,0,0,.456-.024,1.354,1.354,0,0,0-.027-2.693" transform="translate(-37.544 -176.259)" fill="url(#linear-gradient)"/>
    <path id="Path_14051" data-name="Path 14051" d="M212.073,292.625a1.367,1.367,0,0,0-.42.946A1.4,1.4,0,0,0,213,294.944h.014a1.4,1.4,0,0,0,1.359-1.346,1.4,1.4,0,0,0-1.346-1.374,1.365,1.365,0,0,0-.954.4" transform="translate(-184.028 -254.084)" fill="url(#linear-gradient)"/>
    <path id="Path_14052" data-name="Path 14052" d="M254.579,56.205a4.8,4.8,0,0,0-3.151,3.943c-.089,1.138.289,1.768,1.123,1.872.9.113,1.435-.428,1.6-1.6a1.986,1.986,0,0,1,1.923-1.724,2.013,2.013,0,0,1,2.008,1.639,1.986,1.986,0,0,1-1.262,2.218c-.088.033-.177.062-.266.091-.074.024-.148.048-.221.074a2.223,2.223,0,0,0-1.573,2.134c-.009.281-.006.563,0,.836,0,.015,0,.03,0,.045l0,.326q0,.178,0,.355c0,.265,0,.53,0,.8a1.678,1.678,0,0,0,.458,1.2,1.256,1.256,0,0,0,.893.352h.027a1.409,1.409,0,0,0,1.354-1.523c.013-.52.023-1.206,0-1.9,0-.126-.005-.134.16-.194a4.725,4.725,0,0,0-3.06-8.941" transform="translate(-218.601 -48.658)" fill="url(#linear-gradient)"/>
    <path id="Path_14053" data-name="Path 14053" d="M278.385,164.772a1.361,1.361,0,0,0-.954.394,1.347,1.347,0,0,0,.944,2.309h0a1.375,1.375,0,0,0,1.365-1.343,1.4,1.4,0,0,0-1.359-1.36" transform="translate(-240.869 -143.266)" fill="url(#linear-gradient)"/>
  </g>
</svg>
