<svg id="Group_21942" data-name="Group 21942" xmlns="http://www.w3.org/2000/svg" xmlns:xlink="http://www.w3.org/1999/xlink" width="49.624" height="54" viewBox="0 0 49.624 54">
  <defs>
    <linearGradient id="linear-gradient" x1="0.5" x2="0.5" y2="1" gradientUnits="objectBoundingBox">
      <stop offset="0" stop-color="#00efd1"/>
      <stop offset="1" stop-color="#00acea"/>
    </linearGradient>
    <clipPath id="clip-path">
      <rect id="Rectangle_1666" data-name="Rectangle 1666" width="49.624" height="54" fill="url(#linear-gradient)"/>
    </clipPath>
  </defs>
  <g id="Group_21945" data-name="Group 21945" clip-path="url(#clip-path)">
    <path id="Path_14035" data-name="Path 14035" d="M34.863,46.176h0a1.626,1.626,0,0,0-1.216.364,1.991,1.991,0,0,0-.669,1.375,2.654,2.654,0,0,1-2.886,2.653c-8.407.006-16.177.006-23.754,0a2.664,2.664,0,0,1-2.881-2.858c0-13.909,0-27.845,0-41.422A2.669,2.669,0,0,1,6.34,3.434c.793,0,1.621.012,2.336.025l.588.01c.52.008.586.071.638.61a3.922,3.922,0,0,0,4.145,3.756q3.259,0,6.518,0h1.676a3.946,3.946,0,0,0,4.3-3.866c.044-.417.155-.487.492-.5l.185,0c1-.025,2.027-.051,3.033-.032a2.675,2.675,0,0,1,2.726,2.6A1.765,1.765,0,0,0,34.8,7.83a1.639,1.639,0,0,0,1.17-.555,2.02,2.02,0,0,0,.438-1.5A6.055,6.055,0,0,0,30.2.006C21.067,0,13.452,0,6.234.015A6.66,6.66,0,0,0,4.227.326,6.077,6.077,0,0,0,0,6.439Q0,15.821,0,25.2v12.79q0,4.832,0,9.663a6.157,6.157,0,0,0,2.524,5.166A7.362,7.362,0,0,0,5.29,53.982L5.362,54H31.127l.119-.053c.031-.014.062-.029.093-.045l0,0a6.087,6.087,0,0,0,5.068-5.684,1.76,1.76,0,0,0-1.548-2.04M13.3,3.451h9.849c-.023.191-.047.377-.076.561-.019.117-.062.392-.683.394q-2.146.006-4.293,0H15.685c-.55,0-1.118,0-1.68,0-.5-.007-.614-.116-.666-.613-.012-.113-.026-.226-.042-.342" transform="translate(0 0)" fill="url(#linear-gradient)"/>
    <path id="Path_14036" data-name="Path 14036" d="M143.924,79.952h-.1a16.018,16.018,0,0,0-15.963,15.917,16.047,16.047,0,0,0,15.957,16.077h.1a16.033,16.033,0,0,0,15.97-15.971,16.038,16.038,0,0,0-15.961-16.023m12.506,16a12.569,12.569,0,0,1-12.558,12.564h-.033a12.57,12.57,0,0,1,.037-25.139h.025a12.578,12.578,0,0,1,12.53,12.575" transform="translate(-110.262 -68.948)" fill="url(#linear-gradient)"/>
    <path id="Path_14037" data-name="Path 14037" d="M207.645,121.773h0a18.033,18.033,0,0,0-1.9-.073c-.336,0-.684,0-1.024-.014a1.564,1.564,0,0,1-.016-3.127c.171-.008.346-.005.54,0h.069c.081,0,.162,0,.24,0h1.369c1.056,0,2.147,0,3.222-.011a1.909,1.909,0,0,0,1.366-.547,1.666,1.666,0,0,0,.468-1.2,1.755,1.755,0,0,0-1.852-1.7c-.234-.006-.467-.005-.692,0h-.156c-.069,0-.137,0-.2,0h-1.5v-.485c0-.1,0-.206,0-.309v-.015c0-.255.006-.52-.008-.789a1.793,1.793,0,0,0-.83-1.445,1.66,1.66,0,0,0-1.561-.1,1.7,1.7,0,0,0-1.031,1.638c0,.486,0,.971,0,1.462v.1l-.039.005a5.018,5.018,0,0,0-4.368,4.963,4.935,4.935,0,0,0,4.384,4.95,17.833,17.833,0,0,0,1.859.068c.349,0,.71,0,1.063.015a1.523,1.523,0,0,1,1.463,1.334,1.545,1.545,0,0,1-1.148,1.739,4.137,4.137,0,0,1-.9.051c-.1,0-.2,0-.307,0-.636,0-1.273,0-1.914,0-.876,0-1.782,0-2.674.01a1.9,1.9,0,0,0-1.361.541,1.674,1.674,0,0,0-.466,1.207,1.725,1.725,0,0,0,1.8,1.7c.452.013.911.01,1.316.007l.556,0h.732v.065c0,.465,0,.945,0,1.414a1.711,1.711,0,0,0,1.682,1.809h.029a1.658,1.658,0,0,0,1.164-.462,1.916,1.916,0,0,0,.548-1.369c.006-.465,0-.921,0-1.406v-.109l.079-.01a5.053,5.053,0,0,0,4.321-4.958,4.979,4.979,0,0,0-4.338-4.941" transform="translate(-172.257 -96.419)" fill="url(#linear-gradient)"/>
  </g>
</svg>
