<svg width="81" height="81" viewBox="0 0 81 81" fill="none" xmlns="http://www.w3.org/2000/svg">
<mask id="path-1-inside-1_7586_3655" fill="white">
<path fill-rule="evenodd" clip-rule="evenodd" d="M40.5135 0C18.1067 0 0 18.0851 0 40.4919C0 62.8987 18.1067 81 40.5135 81C62.9203 81 81 62.8987 81 40.4919C81 18.0851 62.9203 0 40.5135 0ZM40.5135 3.59616C60.9914 3.59616 77.4092 20.014 77.4092 40.4919C77.4092 60.9698 60.9914 77.4092 40.5135 77.4092C20.0356 77.4092 3.59616 60.9698 3.59616 40.4919C3.59616 20.014 20.0356 3.59616 40.5135 3.59616ZM38.9692 19.3685L33.3752 30.6592L20.9074 32.4464C19.4304 32.6577 18.8392 34.4728 19.9085 35.5134L28.9151 44.3148L26.7552 56.734C26.5003 58.2012 28.0379 59.3241 29.3578 58.6347L40.5243 52.7869L51.6692 58.6725C52.9831 59.3618 54.5191 58.2519 54.2772 56.788L52.1713 44.3634L61.2049 35.5836C62.2651 34.5463 61.6834 32.7438 60.2168 32.522L47.7544 30.6808L42.1982 19.3685C41.24 17.8495 39.6137 18.2536 38.9692 19.3685ZM40.5729 24.2228L44.9412 33.116C45.2024 33.6454 45.707 34.0128 46.2911 34.0987L56.0915 35.5458L48.9855 42.4412C48.5627 42.8553 48.3708 43.451 48.4726 44.0341L50.1249 53.7966L41.372 49.1691C40.849 48.8917 40.2229 48.8897 39.6982 49.1637L30.9237 53.7588L32.6138 44.0071C32.7188 43.4232 32.5289 42.8251 32.1063 42.4088L25.0219 35.4864L34.8223 34.0771C35.4061 33.9951 35.9126 33.6319 36.1776 33.1052L40.5729 24.2228Z"/>
</mask>
<path fill-rule="evenodd" clip-rule="evenodd" d="M40.5135 0C18.1067 0 0 18.0851 0 40.4919C0 62.8987 18.1067 81 40.5135 81C62.9203 81 81 62.8987 81 40.4919C81 18.0851 62.9203 0 40.5135 0ZM40.5135 3.59616C60.9914 3.59616 77.4092 20.014 77.4092 40.4919C77.4092 60.9698 60.9914 77.4092 40.5135 77.4092C20.0356 77.4092 3.59616 60.9698 3.59616 40.4919C3.59616 20.014 20.0356 3.59616 40.5135 3.59616ZM38.9692 19.3685L33.3752 30.6592L20.9074 32.4464C19.4304 32.6577 18.8392 34.4728 19.9085 35.5134L28.9151 44.3148L26.7552 56.734C26.5003 58.2012 28.0379 59.3241 29.3578 58.6347L40.5243 52.7869L51.6692 58.6725C52.9831 59.3618 54.5191 58.2519 54.2772 56.788L52.1713 44.3634L61.2049 35.5836C62.2651 34.5463 61.6834 32.7438 60.2168 32.522L47.7544 30.6808L42.1982 19.3685C41.24 17.8495 39.6137 18.2536 38.9692 19.3685ZM40.5729 24.2228L44.9412 33.116C45.2024 33.6454 45.707 34.0128 46.2911 34.0987L56.0915 35.5458L48.9855 42.4412C48.5627 42.8553 48.3708 43.451 48.4726 44.0341L50.1249 53.7966L41.372 49.1691C40.849 48.8917 40.2229 48.8897 39.6982 49.1637L30.9237 53.7588L32.6138 44.0071C32.7188 43.4232 32.5289 42.8251 32.1063 42.4088L25.0219 35.4864L34.8223 34.0771C35.4061 33.9951 35.9126 33.6319 36.1776 33.1052L40.5729 24.2228Z" fill="#221F20"/>
<path d="M3.59616 40.4919H-56.8763H3.59616ZM38.9692 19.3685L-13.3857 -10.895L-14.3562 -9.21611L-15.2171 -7.47846L38.9692 19.3685ZM33.3752 30.6592L41.9563 90.5197L73.4409 86.0063L87.5615 57.5061L33.3752 30.6592ZM20.9074 32.4464L29.4709 92.3095L29.4797 92.3082L29.4885 92.3069L20.9074 32.4464ZM19.9085 35.5134L62.1734 -7.73688L62.1291 -7.78019L62.0847 -7.82341L19.9085 35.5134ZM28.9151 44.3148L88.4932 54.6763L93.9476 23.3134L71.18 1.06453L28.9151 44.3148ZM26.7552 56.734L-32.8229 46.3726L-32.8245 46.3813L26.7552 56.734ZM29.3578 58.6347L57.3527 112.237L57.3827 112.221L57.4126 112.206L29.3578 58.6347ZM40.5243 52.7869L68.7638 -0.686897L40.6422 -15.5379L12.4695 -0.784056L40.5243 52.7869ZM51.6692 58.6725L23.4296 112.146L23.5029 112.185L23.5762 112.223L51.6692 58.6725ZM54.2772 56.788L113.941 46.9292L113.92 46.8058L113.899 46.6826L54.2772 56.788ZM52.1713 44.3634L10.0243 0.998176L-12.7603 23.1427L-7.45079 54.4689L52.1713 44.3634ZM61.2049 35.5836L103.352 78.9489L103.424 78.8791L103.495 78.8091L61.2049 35.5836ZM60.2168 32.522L69.2579 -27.2707L69.1567 -27.286L69.0555 -27.301L60.2168 32.522ZM47.7544 30.6808L-6.52414 57.3407L7.48354 85.8598L38.9157 90.5038L47.7544 30.6808ZM42.1982 19.3685L96.4767 -7.29147L95.0596 -10.1767L93.3446 -12.8954L42.1982 19.3685ZM40.5729 24.2228L94.8508 -2.43836L40.7726 -112.533L-13.627 -2.59682L40.5729 24.2228ZM44.9412 33.116L-9.33682 59.7771L-9.31256 59.8265L-9.28821 59.8759L44.9412 33.116ZM46.2911 34.0987L55.1245 -25.7251L55.1111 -25.727L55.0977 -25.729L46.2911 34.0987ZM56.0915 35.5458L98.204 78.9445L186.135 -6.3804L64.9249 -24.278L56.0915 35.5458ZM48.9855 42.4412L6.87298 -0.957548L6.77309 -0.860623L6.67365 -0.763239L48.9855 42.4412ZM48.4726 44.0341L108.097 33.9428L108.071 33.7916L108.045 33.6406L48.4726 44.0341ZM50.1249 53.7966L21.8608 107.257L130.199 164.535L109.749 43.7053L50.1249 53.7966ZM41.372 49.1691L13.0375 102.593L13.0727 102.611L13.108 102.63L41.372 49.1691ZM39.6982 49.1637L11.7088 -4.44144L11.6761 -4.42437L11.6435 -4.40725L39.6982 49.1637ZM30.9237 53.7588L-28.6605 43.4322L-49.5883 164.185L58.9784 107.33L30.9237 53.7588ZM32.6138 44.0071L-26.9043 33.306L-26.9379 33.4931L-26.9704 33.6805L32.6138 44.0071ZM32.1063 42.4088L74.5454 -0.670623L74.4576 -0.75717L74.3694 -0.843358L32.1063 42.4088ZM25.0219 35.4864L16.4144 -24.3703L-104.908 -6.92385L-17.2412 78.7386L25.0219 35.4864ZM34.8223 34.0771L26.4091 -25.8072L26.3119 -25.7936L26.2148 -25.7796L34.8223 34.0771ZM36.1776 33.1052L90.1978 60.2848L90.2882 60.1051L90.3774 59.9248L36.1776 33.1052ZM40.5135 -60.4724C-15.2493 -60.4724 -60.4724 -15.3549 -60.4724 40.4919H60.4724C60.4724 51.5251 51.4627 60.4724 40.5135 60.4724V-60.4724ZM-60.4724 40.4919C-60.4724 96.3072 -15.2808 141.472 40.5135 141.472V20.5276C51.4942 20.5276 60.4724 29.4902 60.4724 40.4919H-60.4724ZM40.5135 141.472C96.3603 141.472 141.472 96.2547 141.472 40.4919H20.5276C20.5276 29.5427 29.4803 20.5276 40.5135 20.5276V141.472ZM141.472 40.4919C141.472 -15.3024 96.3288 -60.4724 40.5135 -60.4724V60.4724C29.5118 60.4724 20.5276 51.4726 20.5276 40.4919H141.472ZM40.5135 64.0686C27.5934 64.0686 16.9368 53.412 16.9368 40.4919H137.882C137.882 -13.384 94.3894 -56.8763 40.5135 -56.8763V64.0686ZM16.9368 40.4919C16.9368 27.618 27.5472 16.9368 40.5135 16.9368V137.882C94.4355 137.882 137.882 94.3216 137.882 40.4919H16.9368ZM40.5135 16.9368C53.4336 16.9368 64.0686 27.5718 64.0686 40.4919H-56.8763C-56.8763 94.3678 -13.3624 137.882 40.5135 137.882V16.9368ZM64.0686 40.4919C64.0686 53.4582 53.3874 64.0686 40.5135 64.0686V-56.8763C-13.3162 -56.8763 -56.8763 -13.4301 -56.8763 40.4919H64.0686ZM-15.2171 -7.47846L-20.8111 3.81219L87.5615 57.5061L93.1555 46.2155L-15.2171 -7.47846ZM24.794 -29.2013L12.3263 -27.4141L29.4885 92.3069L41.9563 90.5197L24.794 -29.2013ZM12.3439 -27.4166C-38.8327 -20.0957 -59.3163 42.794 -22.2678 78.8503L62.0847 -7.82341C96.9947 26.1516 77.6935 85.4111 29.4709 92.3095L12.3439 -27.4166ZM-22.3565 78.7637L-13.3499 87.5652L71.18 1.06453L62.1734 -7.73688L-22.3565 78.7637ZM-30.6631 33.9534L-32.8229 46.3726L86.3334 67.0954L88.4932 54.6763L-30.6631 33.9534ZM-32.8245 46.3813C-41.6576 97.2157 11.6187 136.122 57.3527 112.237L1.36297 5.03242C44.4571 -17.4743 94.6581 19.1866 86.3349 67.0867L-32.8245 46.3813ZM57.4126 112.206L68.5791 106.358L12.4695 -0.784056L1.30307 5.06375L57.4126 112.206ZM12.2848 106.261L23.4296 112.146L79.9087 5.19871L68.7638 -0.686897L12.2848 106.261ZM23.5762 112.223C69.1023 136.107 122.322 97.6518 113.941 46.9292L-5.38621 66.6468C-13.2838 18.8521 36.8638 -17.383 79.7621 5.12156L23.5762 112.223ZM113.899 46.6826L111.793 34.258L-7.45079 54.4689L-5.34493 66.8935L113.899 46.6826ZM94.3183 87.7287L103.352 78.9489L19.0579 -7.78164L10.0243 0.998176L94.3183 87.7287ZM103.495 78.8091C140.23 42.8686 120.072 -19.5872 69.2579 -27.2707L51.1757 92.3148C3.29459 85.0748 -15.7002 26.2241 18.9146 -7.64183L103.495 78.8091ZM69.0555 -27.301L56.5931 -29.1423L38.9157 90.5038L51.3781 92.3451L69.0555 -27.301ZM102.033 4.02078L96.4767 -7.29147L-12.0804 46.0285L-6.52414 57.3407L102.033 4.02078ZM93.3446 -12.8954C82.2107 -30.5455 60.9994 -44.0097 35.4503 -41.8833C13.3099 -40.0405 -4.08545 -26.9841 -13.3857 -10.895L91.3241 49.6321C82.6683 64.6062 66.4084 76.9032 45.4818 78.6449C21.1465 80.6703 1.22749 67.7635 -8.94825 51.6324L93.3446 -12.8954ZM-13.7051 50.8839L-9.33682 59.7771L99.2191 6.45484L94.8508 -2.43836L-13.7051 50.8839ZM-9.28821 59.8759C-0.236297 78.2197 17.2475 90.9476 37.4845 93.9265L55.0977 -25.729C74.1665 -22.9221 90.6411 -10.9289 99.1705 6.35611L-9.28821 59.8759ZM37.4576 93.9225L47.258 95.3696L64.9249 -24.278L55.1245 -25.7251L37.4576 93.9225ZM13.9789 -7.85289L6.87298 -0.957548L91.0981 85.8399L98.204 78.9445L13.9789 -7.85289ZM6.67365 -0.763239C-7.97811 13.5858 -14.6242 34.2277 -11.1 54.4275L108.045 33.6406C111.366 52.6744 105.103 72.1247 91.2974 85.6456L6.67365 -0.763239ZM-11.1519 54.1254L-9.49965 63.8879L109.749 43.7053L108.097 33.9428L-11.1519 54.1254ZM78.3889 0.335767L69.636 -4.29172L13.108 102.63L21.8608 107.257L78.3889 0.335767ZM69.7066 -4.25436C51.5845 -13.8659 29.8918 -13.9355 11.7088 -4.44144L67.6875 102.769C50.5541 111.715 30.1135 111.649 13.0375 102.593L69.7066 -4.25436ZM11.6435 -4.40725L2.86904 0.18784L58.9784 107.33L67.7529 102.735L11.6435 -4.40725ZM90.5079 64.0854L92.198 54.3337L-26.9704 33.6805L-28.6605 43.4322L90.5079 64.0854ZM92.1319 54.7082C95.7693 34.4774 89.1886 13.7549 74.5454 -0.670623L-10.3329 85.4882C-24.1308 71.8953 -30.3317 52.3689 -26.9043 33.306L92.1319 54.7082ZM74.3694 -0.843358L67.285 -7.76569L-17.2412 78.7386L-10.1568 85.6609L74.3694 -0.843358ZM33.6294 95.3432L43.4298 93.9338L26.2148 -25.7796L16.4144 -24.3703L33.6294 95.3432ZM43.2354 93.9615C63.4689 91.1189 81.017 78.5318 90.1978 60.2848L-17.8426 5.92554C-9.19185 -11.2681 7.34331 -23.1287 26.4091 -25.8072L43.2354 93.9615ZM90.3774 59.9248L94.7727 51.0424L-13.627 -2.59682L-18.0223 6.28558L90.3774 59.9248Z" fill="url(#paint0_linear_7586_3655)" mask="url(#path-1-inside-1_7586_3655)"/>
<circle cx="40.5" cy="40.5" r="30" stroke="url(#paint1_linear_7586_3655)" stroke-width="3"/>
<defs>
<linearGradient id="paint0_linear_7586_3655" x1="40.4998" y1="-1.81351" x2="40.4998" y2="81.2825" gradientUnits="userSpaceOnUse">
<stop stop-color="#00EFD1"/>
<stop offset="1" stop-color="#00ACEA"/>
</linearGradient>
<linearGradient id="paint1_linear_7586_3655" x1="40.4999" y1="7.58949" x2="40.4999" y2="72.2197" gradientUnits="userSpaceOnUse">
<stop stop-color="#00EFD1"/>
<stop offset="1" stop-color="#00ACEA"/>
</linearGradient>
</defs>
</svg>
