<svg width="192" height="124" viewBox="0 0 192 124" fill="none" xmlns="http://www.w3.org/2000/svg">
<path d="M14.3689 7.07422C13.21 7.07422 12.1814 7.30208 11.2829 7.75781C10.3975 8.20052 9.64881 8.84505 9.03683 9.69141C8.43788 10.5378 7.98215 11.5599 7.66965 12.7578C7.35715 13.9557 7.2009 15.3034 7.2009 16.8008C7.2009 18.819 7.44829 20.5443 7.94308 21.9766C8.4509 23.3958 9.23215 24.4831 10.2868 25.2383C11.3415 25.9805 12.7022 26.3516 14.3689 26.3516C15.5277 26.3516 16.6866 26.2214 17.8454 25.9609C19.0173 25.7005 20.2868 25.3294 21.654 24.8477V29.9258C20.391 30.4466 19.1475 30.8177 17.9236 31.0391C16.6996 31.2734 15.3259 31.3906 13.8025 31.3906C10.8598 31.3906 8.43788 30.7852 6.53683 29.5742C4.64881 28.3503 3.24907 26.6445 2.33762 24.457C1.42616 22.2565 0.970428 19.6914 0.970428 16.7617C0.970428 14.6003 1.2634 12.6211 1.84933 10.8242C2.43527 9.02734 3.29465 7.47135 4.42746 6.15625C5.56027 4.84115 6.96001 3.82552 8.62668 3.10938C10.2933 2.39323 12.2074 2.03516 14.3689 2.03516C15.7881 2.03516 17.2074 2.21745 18.6267 2.58203C20.059 2.93359 21.4262 3.42188 22.7282 4.04688L20.7751 8.96875C19.7074 8.46094 18.6332 8.01823 17.5525 7.64062C16.4717 7.26302 15.4105 7.07422 14.3689 7.07422ZM33.2361 0.609375V6.80078C33.2361 7.88151 33.197 8.91016 33.1189 9.88672C33.0538 10.8633 33.0017 11.5534 32.9626 11.957H33.2751C33.7439 11.2018 34.2973 10.5898 34.9353 10.1211C35.5863 9.65234 36.3025 9.30729 37.0837 9.08594C37.865 8.86458 38.7048 8.75391 39.6032 8.75391C41.1788 8.75391 42.5525 9.03385 43.7243 9.59375C44.8962 10.1406 45.8077 11.0065 46.4587 12.1914C47.1098 13.3633 47.4353 14.8867 47.4353 16.7617V31H41.4782V18.2461C41.4782 16.6836 41.1918 15.5052 40.6189 14.7109C40.0459 13.9167 39.1605 13.5195 37.9626 13.5195C36.7647 13.5195 35.8207 13.7995 35.1306 14.3594C34.4405 14.9062 33.9522 15.7201 33.6657 16.8008C33.3793 17.8685 33.2361 19.1771 33.2361 20.7266V31H27.279V0.609375H33.2361ZM73.4118 20.043C73.4118 21.8659 73.1644 23.4805 72.6696 24.8867C72.1879 26.293 71.4782 27.4844 70.5407 28.4609C69.6163 29.4245 68.4965 30.1536 67.1814 30.6484C65.8793 31.1432 64.4079 31.3906 62.7673 31.3906C61.2308 31.3906 59.8181 31.1432 58.529 30.6484C57.253 30.1536 56.1397 29.4245 55.1892 28.4609C54.2517 27.4844 53.5225 26.293 53.0017 24.8867C52.4939 23.4805 52.24 21.8659 52.24 20.043C52.24 17.6211 52.6696 15.5703 53.529 13.8906C54.3884 12.2109 55.6124 10.9349 57.2009 10.0625C58.7894 9.1901 60.684 8.75391 62.8845 8.75391C64.9288 8.75391 66.7387 9.1901 68.3142 10.0625C69.9027 10.9349 71.1462 12.2109 72.0446 13.8906C72.9561 15.5703 73.4118 17.6211 73.4118 20.043ZM58.3142 20.043C58.3142 21.4753 58.4704 22.6797 58.7829 23.6562C59.0954 24.6328 59.5837 25.3685 60.2478 25.8633C60.9118 26.3581 61.7777 26.6055 62.8454 26.6055C63.9001 26.6055 64.753 26.3581 65.404 25.8633C66.0681 25.3685 66.5499 24.6328 66.8493 23.6562C67.1618 22.6797 67.3181 21.4753 67.3181 20.043C67.3181 18.5977 67.1618 17.3997 66.8493 16.4492C66.5499 15.4857 66.0681 14.763 65.404 14.2812C64.74 13.7995 63.8741 13.5586 62.8064 13.5586C61.2308 13.5586 60.085 14.099 59.3689 15.1797C58.6657 16.2604 58.3142 17.8815 58.3142 20.043ZM87.5329 26.6445C88.184 26.6445 88.8155 26.5794 89.4275 26.4492C90.0525 26.319 90.6709 26.1562 91.2829 25.9609V30.3945C90.6449 30.681 89.8506 30.9154 88.9001 31.0977C87.9626 31.293 86.934 31.3906 85.8142 31.3906C84.5121 31.3906 83.3402 31.1823 82.2986 30.7656C81.2699 30.3359 80.4561 29.6003 79.8571 28.5586C79.2712 27.5039 78.9782 26.0391 78.9782 24.1641V13.6367H76.1267V11.1172L79.4079 9.125L81.1267 4.51562H84.9353V9.16406H91.0486V13.6367H84.9353V24.1641C84.9353 24.9974 85.1696 25.6224 85.6384 26.0391C86.1202 26.4427 86.7517 26.6445 87.5329 26.6445ZM101.674 0.609375V6.80078C101.674 7.88151 101.634 8.91016 101.556 9.88672C101.491 10.8633 101.439 11.5534 101.4 11.957H101.713C102.181 11.2018 102.735 10.5898 103.373 10.1211C104.024 9.65234 104.74 9.30729 105.521 9.08594C106.302 8.86458 107.142 8.75391 108.041 8.75391C109.616 8.75391 110.99 9.03385 112.162 9.59375C113.334 10.1406 114.245 11.0065 114.896 12.1914C115.547 13.3633 115.873 14.8867 115.873 16.7617V31H109.916V18.2461C109.916 16.6836 109.629 15.5052 109.056 14.7109C108.483 13.9167 107.598 13.5195 106.4 13.5195C105.202 13.5195 104.258 13.7995 103.568 14.3594C102.878 14.9062 102.39 15.7201 102.103 16.8008C101.817 17.8685 101.674 19.1771 101.674 20.7266V31H95.7165V0.609375H101.674ZM147.65 8.75391C150.124 8.75391 151.993 9.39193 153.256 10.668C154.532 11.931 155.17 13.9622 155.17 16.7617V31H149.193V18.2461C149.193 16.6836 148.926 15.5052 148.392 14.7109C147.858 13.9167 147.032 13.5195 145.912 13.5195C144.336 13.5195 143.217 14.0859 142.552 15.2188C141.888 16.3385 141.556 17.9466 141.556 20.043V31H135.599V18.2461C135.599 17.2044 135.482 16.332 135.248 15.6289C135.013 14.9258 134.655 14.3984 134.174 14.0469C133.692 13.6953 133.073 13.5195 132.318 13.5195C131.211 13.5195 130.339 13.7995 129.701 14.3594C129.076 14.9062 128.627 15.7201 128.353 16.8008C128.093 17.8685 127.963 19.1771 127.963 20.7266V31H122.006V9.16406H126.556L127.357 11.957H127.689C128.132 11.2018 128.685 10.5898 129.349 10.1211C130.026 9.65234 130.769 9.30729 131.576 9.08594C132.383 8.86458 133.204 8.75391 134.037 8.75391C135.638 8.75391 136.993 9.01432 138.099 9.53516C139.219 10.056 140.079 10.8633 140.677 11.957H141.205C141.856 10.8372 142.774 10.0234 143.959 9.51562C145.157 9.00781 146.387 8.75391 147.65 8.75391ZM170.248 8.71484C173.177 8.71484 175.424 9.35286 176.986 10.6289C178.549 11.9049 179.33 13.8451 179.33 16.4492V31H175.17L174.017 28.0312H173.861C173.236 28.8125 172.598 29.4505 171.947 29.9453C171.296 30.4401 170.547 30.8047 169.701 31.0391C168.855 31.2734 167.826 31.3906 166.615 31.3906C165.326 31.3906 164.167 31.1432 163.138 30.6484C162.123 30.1536 161.322 29.3984 160.736 28.3828C160.15 27.3542 159.857 26.0521 159.857 24.4766C159.857 22.1589 160.671 20.4531 162.299 19.3594C163.926 18.2526 166.368 17.6406 169.623 17.5234L173.412 17.4062V16.4492C173.412 15.3034 173.112 14.4635 172.513 13.9297C171.914 13.3958 171.081 13.1289 170.013 13.1289C168.959 13.1289 167.924 13.2786 166.908 13.5781C165.892 13.8776 164.877 14.2552 163.861 14.7109L161.888 10.6875C163.047 10.0755 164.343 9.59375 165.775 9.24219C167.22 8.89062 168.711 8.71484 170.248 8.71484ZM173.412 20.8828L171.107 20.9609C169.18 21.013 167.839 21.3581 167.084 21.9961C166.342 22.6341 165.97 23.474 165.97 24.5156C165.97 25.4271 166.237 26.0781 166.771 26.4688C167.305 26.8464 168.002 27.0352 168.861 27.0352C170.137 27.0352 171.211 26.6576 172.084 25.9023C172.969 25.1471 173.412 24.0729 173.412 22.6797V20.8828ZM191.439 31H185.482V0.609375H191.439V31ZM32.7478 48.4453C36.4327 48.4453 39.1215 49.2396 40.8142 50.8281C42.5069 52.4036 43.3532 54.5781 43.3532 57.3516C43.3532 58.6016 43.1644 59.7995 42.7868 60.9453C42.4092 62.0781 41.7907 63.0872 40.9314 63.9727C40.085 64.8581 38.9522 65.5612 37.5329 66.082C36.1137 66.5898 34.3624 66.8438 32.279 66.8438H29.6814V77H23.6267V48.4453H32.7478ZM32.4353 53.4062H29.6814V61.8828H31.6736C32.8064 61.8828 33.7894 61.7331 34.6228 61.4336C35.4561 61.1341 36.1006 60.6654 36.5564 60.0273C37.0121 59.3893 37.24 58.569 37.24 57.5664C37.24 56.1602 36.8493 55.1185 36.0681 54.4414C35.2868 53.7513 34.0759 53.4062 32.4353 53.4062ZM57.2204 54.7148C60.1501 54.7148 62.3962 55.3529 63.9587 56.6289C65.5212 57.9049 66.3025 59.8451 66.3025 62.4492V77H62.1423L60.99 74.0312H60.8337C60.2087 74.8125 59.5707 75.4505 58.9196 75.9453C58.2686 76.4401 57.5199 76.8047 56.6736 77.0391C55.8272 77.2734 54.7986 77.3906 53.5876 77.3906C52.2986 77.3906 51.1397 77.1432 50.1111 76.6484C49.0954 76.1536 48.2946 75.3984 47.7087 74.3828C47.1228 73.3542 46.8298 72.0521 46.8298 70.4766C46.8298 68.1589 47.6436 66.4531 49.2712 65.3594C50.8988 64.2526 53.3402 63.6406 56.5954 63.5234L60.3845 63.4062V62.4492C60.3845 61.3034 60.085 60.4635 59.4861 59.9297C58.8871 59.3958 58.0538 59.1289 56.9861 59.1289C55.9314 59.1289 54.8962 59.2786 53.8806 59.5781C52.865 59.8776 51.8493 60.2552 50.8337 60.7109L48.8611 56.6875C50.0199 56.0755 51.3155 55.5938 52.7478 55.2422C54.1931 54.8906 55.684 54.7148 57.2204 54.7148ZM60.3845 66.8828L58.0798 66.9609C56.1527 67.013 54.8116 67.3581 54.0564 67.9961C53.3142 68.6341 52.9431 69.474 52.9431 70.5156C52.9431 71.4271 53.21 72.0781 53.7439 72.4688C54.2777 72.8464 54.9743 73.0352 55.8337 73.0352C57.1098 73.0352 58.184 72.6576 59.0564 71.9023C59.9418 71.1471 60.3845 70.0729 60.3845 68.6797V66.8828ZM81.654 72.6445C82.3051 72.6445 82.9366 72.5794 83.5486 72.4492C84.1736 72.319 84.792 72.1562 85.404 71.9609V76.3945C84.766 76.681 83.9717 76.9154 83.0212 77.0977C82.0837 77.293 81.0551 77.3906 79.9353 77.3906C78.6332 77.3906 77.4613 77.1823 76.4196 76.7656C75.391 76.3359 74.5772 75.6003 73.9782 74.5586C73.3923 73.5039 73.0993 72.0391 73.0993 70.1641V59.6367H70.2478V57.1172L73.529 55.125L75.2478 50.5156H79.0564V55.1641H85.1696V59.6367H79.0564V70.1641C79.0564 70.9974 79.2907 71.6224 79.7595 72.0391C80.2413 72.4427 80.8728 72.6445 81.654 72.6445ZM109.681 66.043C109.681 67.8659 109.434 69.4805 108.939 70.8867C108.457 72.293 107.748 73.4844 106.81 74.4609C105.886 75.4245 104.766 76.1536 103.451 76.6484C102.149 77.1432 100.677 77.3906 99.0368 77.3906C97.5004 77.3906 96.0876 77.1432 94.7986 76.6484C93.5225 76.1536 92.4092 75.4245 91.4587 74.4609C90.5212 73.4844 89.792 72.293 89.2712 70.8867C88.7634 69.4805 88.5095 67.8659 88.5095 66.043C88.5095 63.6211 88.9392 61.5703 89.7986 59.8906C90.6579 58.2109 91.8819 56.9349 93.4704 56.0625C95.059 55.1901 96.9535 54.7539 99.154 54.7539C101.198 54.7539 103.008 55.1901 104.584 56.0625C106.172 56.9349 107.416 58.2109 108.314 59.8906C109.226 61.5703 109.681 63.6211 109.681 66.043ZM94.5837 66.043C94.5837 67.4753 94.74 68.6797 95.0525 69.6562C95.365 70.6328 95.8532 71.3685 96.5173 71.8633C97.1814 72.3581 98.0473 72.6055 99.115 72.6055C100.17 72.6055 101.023 72.3581 101.674 71.8633C102.338 71.3685 102.819 70.6328 103.119 69.6562C103.431 68.6797 103.588 67.4753 103.588 66.043C103.588 64.5977 103.431 63.3997 103.119 62.4492C102.819 61.4857 102.338 60.763 101.674 60.2812C101.009 59.7995 100.144 59.5586 99.0759 59.5586C97.5004 59.5586 96.3545 60.099 95.6384 61.1797C94.9353 62.2604 94.5837 63.8815 94.5837 66.043ZM121.517 77.3906C119.082 77.3906 117.097 76.4401 115.56 74.5391C114.037 72.625 113.275 69.819 113.275 66.1211C113.275 62.3841 114.05 59.5586 115.599 57.6445C117.149 55.7174 119.174 54.7539 121.674 54.7539C122.715 54.7539 123.633 54.8971 124.427 55.1836C125.222 55.4701 125.905 55.8542 126.478 56.3359C127.064 56.8177 127.559 57.3581 127.963 57.957H128.158C128.08 57.5404 127.982 56.9284 127.865 56.1211C127.761 55.3008 127.709 54.4609 127.709 53.6016V46.6094H133.685V77H129.115L127.963 74.168H127.709C127.331 74.7669 126.856 75.3138 126.283 75.8086C125.723 76.2904 125.052 76.6745 124.271 76.9609C123.49 77.2474 122.572 77.3906 121.517 77.3906ZM123.607 72.6445C125.235 72.6445 126.381 72.1628 127.045 71.1992C127.722 70.2227 128.08 68.7578 128.119 66.8047V66.1602C128.119 64.0378 127.793 62.4167 127.142 61.2969C126.491 60.1641 125.28 59.5977 123.509 59.5977C122.194 59.5977 121.166 60.1641 120.424 61.2969C119.681 62.4297 119.31 64.0638 119.31 66.1992C119.31 68.3346 119.681 69.9427 120.424 71.0234C121.179 72.1042 122.24 72.6445 123.607 72.6445ZM145.873 55.1641V77H139.916V55.1641H145.873ZM142.904 46.6094C143.789 46.6094 144.551 46.8177 145.189 47.2344C145.827 47.638 146.146 48.3997 146.146 49.5195C146.146 50.6263 145.827 51.3945 145.189 51.8242C144.551 52.2409 143.789 52.4492 142.904 52.4492C142.006 52.4492 141.237 52.2409 140.599 51.8242C139.974 51.3945 139.662 50.6263 139.662 49.5195C139.662 48.3997 139.974 47.638 140.599 47.2344C141.237 46.8177 142.006 46.6094 142.904 46.6094ZM161.088 54.7148C164.017 54.7148 166.263 55.3529 167.826 56.6289C169.388 57.9049 170.17 59.8451 170.17 62.4492V77H166.009L164.857 74.0312H164.701C164.076 74.8125 163.438 75.4505 162.787 75.9453C162.136 76.4401 161.387 76.8047 160.541 77.0391C159.694 77.2734 158.666 77.3906 157.455 77.3906C156.166 77.3906 155.007 77.1432 153.978 76.6484C152.963 76.1536 152.162 75.3984 151.576 74.3828C150.99 73.3542 150.697 72.0521 150.697 70.4766C150.697 68.1589 151.511 66.4531 153.138 65.3594C154.766 64.2526 157.207 63.6406 160.463 63.5234L164.252 63.4062V62.4492C164.252 61.3034 163.952 60.4635 163.353 59.9297C162.754 59.3958 161.921 59.1289 160.853 59.1289C159.799 59.1289 158.763 59.2786 157.748 59.5781C156.732 59.8776 155.717 60.2552 154.701 60.7109L152.728 56.6875C153.887 56.0755 155.183 55.5938 156.615 55.2422C158.06 54.8906 159.551 54.7148 161.088 54.7148ZM164.252 66.8828L161.947 66.9609C160.02 67.013 158.679 67.3581 157.924 67.9961C157.181 68.6341 156.81 69.474 156.81 70.5156C156.81 71.4271 157.077 72.0781 157.611 72.4688C158.145 72.8464 158.842 73.0352 159.701 73.0352C160.977 73.0352 162.051 72.6576 162.924 71.9023C163.809 71.1471 164.252 70.0729 164.252 68.6797V66.8828ZM58.7829 123H52.7282V99.4844H44.9743V94.4453H66.5368V99.4844H58.7829V123ZM82.6501 100.754C82.9496 100.754 83.2946 100.773 83.6853 100.812C84.0889 100.839 84.4144 100.878 84.6618 100.93L84.2126 106.516C84.0173 106.451 83.7374 106.405 83.3728 106.379C83.0212 106.34 82.7152 106.32 82.4548 106.32C81.6866 106.32 80.9379 106.418 80.2087 106.613C79.4926 106.809 78.848 107.128 78.2751 107.57C77.7022 108 77.2465 108.573 76.9079 109.289C76.5824 109.992 76.4196 110.858 76.4196 111.887V123H70.4626V101.164H74.9743L75.8532 104.836H76.1462C76.5759 104.094 77.1098 103.417 77.7478 102.805C78.3988 102.18 79.1345 101.685 79.9548 101.32C80.7881 100.943 81.6866 100.754 82.6501 100.754ZM108.666 101.164V123H104.095L103.295 120.207H102.982C102.513 120.949 101.927 121.555 101.224 122.023C100.521 122.492 99.7465 122.837 98.9001 123.059C98.0538 123.28 97.1749 123.391 96.2634 123.391C94.7009 123.391 93.3402 123.117 92.1814 122.57C91.0225 122.01 90.1176 121.145 89.4665 119.973C88.8285 118.801 88.5095 117.277 88.5095 115.402V101.164H94.4665V113.918C94.4665 115.48 94.7465 116.659 95.3064 117.453C95.8663 118.247 96.7582 118.645 97.9821 118.645C99.1931 118.645 100.144 118.371 100.834 117.824C101.524 117.264 102.006 116.451 102.279 115.383C102.565 114.302 102.709 112.987 102.709 111.438V101.164H108.666ZM130.15 116.516C130.15 118 129.799 119.257 129.095 120.285C128.405 121.301 127.37 122.076 125.99 122.609C124.61 123.13 122.891 123.391 120.834 123.391C119.31 123.391 118.002 123.293 116.908 123.098C115.827 122.902 114.733 122.577 113.627 122.121V117.199C114.812 117.733 116.081 118.176 117.435 118.527C118.802 118.866 120 119.035 121.029 119.035C122.188 119.035 123.015 118.866 123.509 118.527C124.017 118.176 124.271 117.72 124.271 117.16C124.271 116.796 124.167 116.47 123.959 116.184C123.763 115.884 123.334 115.552 122.67 115.188C122.006 114.81 120.964 114.322 119.545 113.723C118.177 113.15 117.051 112.57 116.166 111.984C115.293 111.398 114.642 110.708 114.213 109.914C113.796 109.107 113.588 108.085 113.588 106.848C113.588 104.829 114.369 103.312 115.931 102.297C117.507 101.268 119.61 100.754 122.24 100.754C123.594 100.754 124.883 100.891 126.107 101.164C127.344 101.438 128.614 101.874 129.916 102.473L128.119 106.77C127.038 106.301 126.016 105.917 125.052 105.617C124.102 105.318 123.132 105.168 122.142 105.168C121.27 105.168 120.612 105.285 120.17 105.52C119.727 105.754 119.506 106.112 119.506 106.594C119.506 106.945 119.616 107.258 119.838 107.531C120.072 107.805 120.515 108.111 121.166 108.449C121.83 108.775 122.8 109.198 124.076 109.719C125.313 110.227 126.387 110.76 127.299 111.32C128.21 111.867 128.913 112.551 129.408 113.371C129.903 114.178 130.15 115.227 130.15 116.516ZM143.998 118.645C144.649 118.645 145.28 118.579 145.892 118.449C146.517 118.319 147.136 118.156 147.748 117.961V122.395C147.11 122.681 146.315 122.915 145.365 123.098C144.427 123.293 143.399 123.391 142.279 123.391C140.977 123.391 139.805 123.182 138.763 122.766C137.735 122.336 136.921 121.6 136.322 120.559C135.736 119.504 135.443 118.039 135.443 116.164V105.637H132.592V103.117L135.873 101.125L137.592 96.5156H141.4V101.164H147.513V105.637H141.4V116.164C141.4 116.997 141.634 117.622 142.103 118.039C142.585 118.443 143.217 118.645 143.998 118.645Z" fill="#B4B4B4"/>
</svg>
