<svg width="191" height="124" viewBox="0 0 191 124" fill="none" xmlns="http://www.w3.org/2000/svg">
<path d="M13.5532 7.21484C12.3944 7.21484 11.3657 7.44271 10.4673 7.89844C9.58187 8.34115 8.83317 8.98568 8.22119 9.83203C7.62223 10.6784 7.1665 11.7005 6.854 12.8984C6.5415 14.0964 6.38525 15.444 6.38525 16.9414C6.38525 18.9596 6.63265 20.6849 7.12744 22.1172C7.63525 23.5365 8.4165 24.6237 9.47119 25.3789C10.5259 26.1211 11.8866 26.4922 13.5532 26.4922C14.7121 26.4922 15.8709 26.362 17.0298 26.1016C18.2017 25.8411 19.4712 25.4701 20.8384 24.9883V30.0664C19.5754 30.5872 18.3319 30.9583 17.1079 31.1797C15.884 31.4141 14.5103 31.5312 12.9868 31.5312C10.0441 31.5312 7.62223 30.9258 5.72119 29.7148C3.83317 28.4909 2.43343 26.7852 1.52197 24.5977C0.610514 22.3971 0.154785 19.832 0.154785 16.9023C0.154785 14.7409 0.447754 12.7617 1.03369 10.9648C1.61963 9.16797 2.479 7.61198 3.61182 6.29688C4.74463 4.98177 6.14437 3.96615 7.81104 3.25C9.4777 2.53385 11.3918 2.17578 13.5532 2.17578C14.9725 2.17578 16.3918 2.35807 17.811 2.72266C19.2433 3.07422 20.6105 3.5625 21.9126 4.1875L19.9595 9.10938C18.8918 8.60156 17.8175 8.15885 16.7368 7.78125C15.6561 7.40365 14.5949 7.21484 13.5532 7.21484ZM32.4204 0.75V6.94141C32.4204 8.02214 32.3813 9.05078 32.3032 10.0273C32.2381 11.0039 32.186 11.694 32.147 12.0977H32.4595C32.9282 11.3424 33.4816 10.7305 34.1196 10.2617C34.7707 9.79297 35.4868 9.44792 36.2681 9.22656C37.0493 9.00521 37.8892 8.89453 38.7876 8.89453C40.3631 8.89453 41.7368 9.17448 42.9087 9.73438C44.0806 10.2812 44.992 11.1471 45.6431 12.332C46.2941 13.5039 46.6196 15.0273 46.6196 16.9023V31.1406H40.6626V18.3867C40.6626 16.8242 40.3761 15.6458 39.8032 14.8516C39.2303 14.0573 38.3449 13.6602 37.147 13.6602C35.9491 13.6602 35.005 13.9401 34.3149 14.5C33.6248 15.0469 33.1366 15.8607 32.8501 16.9414C32.5636 18.0091 32.4204 19.3177 32.4204 20.8672V31.1406H26.4634V0.75H32.4204ZM72.5962 20.1836C72.5962 22.0065 72.3488 23.6211 71.854 25.0273C71.3722 26.4336 70.6626 27.625 69.7251 28.6016C68.8006 29.5651 67.6808 30.2943 66.3657 30.7891C65.0636 31.2839 63.5923 31.5312 61.9517 31.5312C60.4152 31.5312 59.0024 31.2839 57.7134 30.7891C56.4373 30.2943 55.3241 29.5651 54.3735 28.6016C53.436 27.625 52.7069 26.4336 52.186 25.0273C51.6782 23.6211 51.4243 22.0065 51.4243 20.1836C51.4243 17.7617 51.854 15.7109 52.7134 14.0312C53.5728 12.3516 54.7967 11.0755 56.3853 10.2031C57.9738 9.33073 59.8683 8.89453 62.0688 8.89453C64.1131 8.89453 65.923 9.33073 67.4985 10.2031C69.0871 11.0755 70.3306 12.3516 71.229 14.0312C72.1405 15.7109 72.5962 17.7617 72.5962 20.1836ZM57.4985 20.1836C57.4985 21.6159 57.6548 22.8203 57.9673 23.7969C58.2798 24.7734 58.7681 25.5091 59.4321 26.0039C60.0962 26.4987 60.9621 26.7461 62.0298 26.7461C63.0845 26.7461 63.9373 26.4987 64.5884 26.0039C65.2524 25.5091 65.7342 24.7734 66.0337 23.7969C66.3462 22.8203 66.5024 21.6159 66.5024 20.1836C66.5024 18.7383 66.3462 17.5404 66.0337 16.5898C65.7342 15.6263 65.2524 14.9036 64.5884 14.4219C63.9243 13.9401 63.0584 13.6992 61.9907 13.6992C60.4152 13.6992 59.2694 14.2396 58.5532 15.3203C57.8501 16.401 57.4985 18.0221 57.4985 20.1836ZM86.7173 26.7852C87.3683 26.7852 87.9998 26.7201 88.6118 26.5898C89.2368 26.4596 89.8553 26.2969 90.4673 26.1016V30.5352C89.8293 30.8216 89.035 31.056 88.0845 31.2383C87.147 31.4336 86.1183 31.5312 84.9985 31.5312C83.6965 31.5312 82.5246 31.3229 81.4829 30.9062C80.4543 30.4766 79.6405 29.7409 79.0415 28.6992C78.4556 27.6445 78.1626 26.1797 78.1626 24.3047V13.7773H75.311V11.2578L78.5923 9.26562L80.311 4.65625H84.1196V9.30469H90.2329V13.7773H84.1196V24.3047C84.1196 25.138 84.354 25.763 84.8228 26.1797C85.3045 26.5833 85.936 26.7852 86.7173 26.7852ZM100.858 0.75V6.94141C100.858 8.02214 100.819 9.05078 100.741 10.0273C100.676 11.0039 100.624 11.694 100.584 12.0977H100.897C101.366 11.3424 101.919 10.7305 102.557 10.2617C103.208 9.79297 103.924 9.44792 104.706 9.22656C105.487 9.00521 106.327 8.89453 107.225 8.89453C108.801 8.89453 110.174 9.17448 111.346 9.73438C112.518 10.2812 113.43 11.1471 114.081 12.332C114.732 13.5039 115.057 15.0273 115.057 16.9023V31.1406H109.1V18.3867C109.1 16.8242 108.814 15.6458 108.241 14.8516C107.668 14.0573 106.782 13.6602 105.584 13.6602C104.387 13.6602 103.443 13.9401 102.752 14.5C102.062 15.0469 101.574 15.8607 101.288 16.9414C101.001 18.0091 100.858 19.3177 100.858 20.8672V31.1406H94.9009V0.75H100.858ZM146.834 8.89453C149.308 8.89453 151.177 9.53255 152.44 10.8086C153.716 12.0716 154.354 14.1029 154.354 16.9023V31.1406H148.377V18.3867C148.377 16.8242 148.111 15.6458 147.577 14.8516C147.043 14.0573 146.216 13.6602 145.096 13.6602C143.521 13.6602 142.401 14.2266 141.737 15.3594C141.073 16.4792 140.741 18.0872 140.741 20.1836V31.1406H134.784V18.3867C134.784 17.3451 134.667 16.4727 134.432 15.7695C134.198 15.0664 133.84 14.5391 133.358 14.1875C132.876 13.8359 132.258 13.6602 131.502 13.6602C130.396 13.6602 129.523 13.9401 128.885 14.5C128.26 15.0469 127.811 15.8607 127.538 16.9414C127.277 18.0091 127.147 19.3177 127.147 20.8672V31.1406H121.19V9.30469H125.741L126.542 12.0977H126.874C127.316 11.3424 127.87 10.7305 128.534 10.2617C129.211 9.79297 129.953 9.44792 130.76 9.22656C131.568 9.00521 132.388 8.89453 133.221 8.89453C134.823 8.89453 136.177 9.15495 137.284 9.67578C138.403 10.1966 139.263 11.0039 139.862 12.0977H140.389C141.04 10.9779 141.958 10.1641 143.143 9.65625C144.341 9.14844 145.571 8.89453 146.834 8.89453ZM169.432 8.85547C172.362 8.85547 174.608 9.49349 176.17 10.7695C177.733 12.0456 178.514 13.9857 178.514 16.5898V31.1406H174.354L173.202 28.1719H173.045C172.42 28.9531 171.782 29.5911 171.131 30.0859C170.48 30.5807 169.732 30.9453 168.885 31.1797C168.039 31.4141 167.01 31.5312 165.799 31.5312C164.51 31.5312 163.351 31.2839 162.323 30.7891C161.307 30.2943 160.506 29.5391 159.92 28.5234C159.334 27.4948 159.042 26.1927 159.042 24.6172C159.042 22.2995 159.855 20.5938 161.483 19.5C163.111 18.3932 165.552 17.7812 168.807 17.6641L172.596 17.5469V16.5898C172.596 15.444 172.297 14.6042 171.698 14.0703C171.099 13.5365 170.265 13.2695 169.198 13.2695C168.143 13.2695 167.108 13.4193 166.092 13.7188C165.077 14.0182 164.061 14.3958 163.045 14.8516L161.073 10.8281C162.232 10.2161 163.527 9.73438 164.959 9.38281C166.405 9.03125 167.896 8.85547 169.432 8.85547ZM172.596 21.0234L170.292 21.1016C168.364 21.1536 167.023 21.4987 166.268 22.1367C165.526 22.7747 165.155 23.6146 165.155 24.6562C165.155 25.5677 165.422 26.2188 165.956 26.6094C166.489 26.987 167.186 27.1758 168.045 27.1758C169.321 27.1758 170.396 26.7982 171.268 26.043C172.153 25.2878 172.596 24.2135 172.596 22.8203V21.0234ZM190.624 31.1406H184.667V0.75H190.624V31.1406ZM31.9321 48.5859C35.617 48.5859 38.3058 49.3802 39.9985 50.9688C41.6912 52.5443 42.5376 54.7188 42.5376 57.4922C42.5376 58.7422 42.3488 59.9401 41.9712 61.0859C41.5936 62.2188 40.9751 63.2279 40.1157 64.1133C39.2694 64.9987 38.1366 65.7018 36.7173 66.2227C35.298 66.7305 33.5467 66.9844 31.4634 66.9844H28.8657V77.1406H22.811V48.5859H31.9321ZM31.6196 53.5469H28.8657V62.0234H30.8579C31.9907 62.0234 32.9738 61.8737 33.8071 61.5742C34.6405 61.2747 35.285 60.806 35.7407 60.168C36.1965 59.5299 36.4243 58.7096 36.4243 57.707C36.4243 56.3008 36.0337 55.2591 35.2524 54.582C34.4712 53.8919 33.2603 53.5469 31.6196 53.5469ZM56.4048 54.8555C59.3345 54.8555 61.5806 55.4935 63.1431 56.7695C64.7056 58.0456 65.4868 59.9857 65.4868 62.5898V77.1406H61.3267L60.1743 74.1719H60.0181C59.3931 74.9531 58.755 75.5911 58.104 76.0859C57.453 76.5807 56.7043 76.9453 55.8579 77.1797C55.0116 77.4141 53.9829 77.5312 52.772 77.5312C51.4829 77.5312 50.3241 77.2839 49.2954 76.7891C48.2798 76.2943 47.479 75.5391 46.8931 74.5234C46.3071 73.4948 46.0142 72.1927 46.0142 70.6172C46.0142 68.2995 46.828 66.5938 48.4556 65.5C50.0832 64.3932 52.5246 63.7812 55.7798 63.6641L59.5688 63.5469V62.5898C59.5688 61.444 59.2694 60.6042 58.6704 60.0703C58.0715 59.5365 57.2381 59.2695 56.1704 59.2695C55.1157 59.2695 54.0806 59.4193 53.0649 59.7188C52.0493 60.0182 51.0337 60.3958 50.0181 60.8516L48.0454 56.8281C49.2043 56.2161 50.4998 55.7344 51.9321 55.3828C53.3774 55.0312 54.8683 54.8555 56.4048 54.8555ZM59.5688 67.0234L57.2642 67.1016C55.3371 67.1536 53.9959 67.4987 53.2407 68.1367C52.4985 68.7747 52.1274 69.6146 52.1274 70.6562C52.1274 71.5677 52.3944 72.2188 52.9282 72.6094C53.4621 72.987 54.1587 73.1758 55.0181 73.1758C56.2941 73.1758 57.3683 72.7982 58.2407 72.043C59.1261 71.2878 59.5688 70.2135 59.5688 68.8203V67.0234ZM80.8384 72.7852C81.4894 72.7852 82.1209 72.7201 82.7329 72.5898C83.3579 72.4596 83.9764 72.2969 84.5884 72.1016V76.5352C83.9504 76.8216 83.1561 77.056 82.2056 77.2383C81.2681 77.4336 80.2394 77.5312 79.1196 77.5312C77.8175 77.5312 76.6457 77.3229 75.604 76.9062C74.5754 76.4766 73.7616 75.7409 73.1626 74.6992C72.5767 73.6445 72.2837 72.1797 72.2837 70.3047V59.7773H69.4321V57.2578L72.7134 55.2656L74.4321 50.6562H78.2407V55.3047H84.354V59.7773H78.2407V70.3047C78.2407 71.138 78.4751 71.763 78.9438 72.1797C79.4256 72.5833 80.0571 72.7852 80.8384 72.7852ZM108.866 66.1836C108.866 68.0065 108.618 69.6211 108.124 71.0273C107.642 72.4336 106.932 73.625 105.995 74.6016C105.07 75.5651 103.95 76.2943 102.635 76.7891C101.333 77.2839 99.8618 77.5312 98.2212 77.5312C96.6847 77.5312 95.272 77.2839 93.9829 76.7891C92.7069 76.2943 91.5936 75.5651 90.6431 74.6016C89.7056 73.625 88.9764 72.4336 88.4556 71.0273C87.9478 69.6211 87.6938 68.0065 87.6938 66.1836C87.6938 63.7617 88.1235 61.7109 88.9829 60.0312C89.8423 58.3516 91.0662 57.0755 92.6548 56.2031C94.2433 55.3307 96.1379 54.8945 98.3384 54.8945C100.383 54.8945 102.193 55.3307 103.768 56.2031C105.357 57.0755 106.6 58.3516 107.499 60.0312C108.41 61.7109 108.866 63.7617 108.866 66.1836ZM93.7681 66.1836C93.7681 67.6159 93.9243 68.8203 94.2368 69.7969C94.5493 70.7734 95.0376 71.5091 95.7017 72.0039C96.3657 72.4987 97.2316 72.7461 98.2993 72.7461C99.354 72.7461 100.207 72.4987 100.858 72.0039C101.522 71.5091 102.004 70.7734 102.303 69.7969C102.616 68.8203 102.772 67.6159 102.772 66.1836C102.772 64.7383 102.616 63.5404 102.303 62.5898C102.004 61.6263 101.522 60.9036 100.858 60.4219C100.194 59.9401 99.328 59.6992 98.2603 59.6992C96.6847 59.6992 95.5389 60.2396 94.8228 61.3203C94.1196 62.401 93.7681 64.0221 93.7681 66.1836ZM120.702 77.5312C118.267 77.5312 116.281 76.5807 114.745 74.6797C113.221 72.7656 112.459 69.9596 112.459 66.2617C112.459 62.5247 113.234 59.6992 114.784 57.7852C116.333 55.8581 118.358 54.8945 120.858 54.8945C121.9 54.8945 122.818 55.0378 123.612 55.3242C124.406 55.6107 125.09 55.9948 125.663 56.4766C126.249 56.9583 126.743 57.4987 127.147 58.0977H127.342C127.264 57.681 127.167 57.069 127.049 56.2617C126.945 55.4414 126.893 54.6016 126.893 53.7422V46.75H132.87V77.1406H128.299L127.147 74.3086H126.893C126.515 74.9076 126.04 75.4544 125.467 75.9492C124.907 76.431 124.237 76.8151 123.456 77.1016C122.674 77.388 121.756 77.5312 120.702 77.5312ZM122.792 72.7852C124.419 72.7852 125.565 72.3034 126.229 71.3398C126.906 70.3633 127.264 68.8984 127.303 66.9453V66.3008C127.303 64.1784 126.978 62.5573 126.327 61.4375C125.676 60.3047 124.465 59.7383 122.694 59.7383C121.379 59.7383 120.35 60.3047 119.608 61.4375C118.866 62.5703 118.495 64.2044 118.495 66.3398C118.495 68.4753 118.866 70.0833 119.608 71.1641C120.363 72.2448 121.424 72.7852 122.792 72.7852ZM145.057 55.3047V77.1406H139.1V55.3047H145.057ZM142.088 46.75C142.974 46.75 143.736 46.9583 144.374 47.375C145.012 47.7786 145.331 48.5404 145.331 49.6602C145.331 50.7669 145.012 51.5352 144.374 51.9648C143.736 52.3815 142.974 52.5898 142.088 52.5898C141.19 52.5898 140.422 52.3815 139.784 51.9648C139.159 51.5352 138.846 50.7669 138.846 49.6602C138.846 48.5404 139.159 47.7786 139.784 47.375C140.422 46.9583 141.19 46.75 142.088 46.75ZM160.272 54.8555C163.202 54.8555 165.448 55.4935 167.01 56.7695C168.573 58.0456 169.354 59.9857 169.354 62.5898V77.1406H165.194L164.042 74.1719H163.885C163.26 74.9531 162.622 75.5911 161.971 76.0859C161.32 76.5807 160.571 76.9453 159.725 77.1797C158.879 77.4141 157.85 77.5312 156.639 77.5312C155.35 77.5312 154.191 77.2839 153.163 76.7891C152.147 76.2943 151.346 75.5391 150.76 74.5234C150.174 73.4948 149.881 72.1927 149.881 70.6172C149.881 68.2995 150.695 66.5938 152.323 65.5C153.95 64.3932 156.392 63.7812 159.647 63.6641L163.436 63.5469V62.5898C163.436 61.444 163.137 60.6042 162.538 60.0703C161.939 59.5365 161.105 59.2695 160.038 59.2695C158.983 59.2695 157.948 59.4193 156.932 59.7188C155.917 60.0182 154.901 60.3958 153.885 60.8516L151.913 56.8281C153.071 56.2161 154.367 55.7344 155.799 55.3828C157.245 55.0312 158.736 54.8555 160.272 54.8555ZM163.436 67.0234L161.131 67.1016C159.204 67.1536 157.863 67.4987 157.108 68.1367C156.366 68.7747 155.995 69.6146 155.995 70.6562C155.995 71.5677 156.262 72.2188 156.795 72.6094C157.329 72.987 158.026 73.1758 158.885 73.1758C160.161 73.1758 161.236 72.7982 162.108 72.043C162.993 71.2878 163.436 70.2135 163.436 68.8203V67.0234ZM57.9673 123.141H51.9126V99.625H44.1587V94.5859H65.7212V99.625H57.9673V123.141ZM81.8345 100.895C82.134 100.895 82.479 100.914 82.8696 100.953C83.2733 100.979 83.5988 101.018 83.8462 101.07L83.397 106.656C83.2017 106.591 82.9217 106.546 82.5571 106.52C82.2056 106.48 81.8996 106.461 81.6392 106.461C80.8709 106.461 80.1222 106.559 79.3931 106.754C78.6769 106.949 78.0324 107.268 77.4595 107.711C76.8866 108.141 76.4308 108.714 76.0923 109.43C75.7668 110.133 75.604 110.999 75.604 112.027V123.141H69.647V101.305H74.1587L75.0376 104.977H75.3306C75.7603 104.234 76.2941 103.557 76.9321 102.945C77.5832 102.32 78.3188 101.826 79.1392 101.461C79.9725 101.083 80.8709 100.895 81.8345 100.895ZM107.85 101.305V123.141H103.28L102.479 120.348H102.167C101.698 121.09 101.112 121.695 100.409 122.164C99.7056 122.633 98.9308 122.978 98.0845 123.199C97.2381 123.421 96.3592 123.531 95.4478 123.531C93.8853 123.531 92.5246 123.258 91.3657 122.711C90.2069 122.151 89.3019 121.285 88.6509 120.113C88.0129 118.941 87.6938 117.418 87.6938 115.543V101.305H93.6509V114.059C93.6509 115.621 93.9308 116.799 94.4907 117.594C95.0506 118.388 95.9425 118.785 97.1665 118.785C98.3774 118.785 99.328 118.512 100.018 117.965C100.708 117.405 101.19 116.591 101.463 115.523C101.75 114.443 101.893 113.128 101.893 111.578V101.305H107.85ZM129.334 116.656C129.334 118.141 128.983 119.397 128.28 120.426C127.59 121.441 126.555 122.216 125.174 122.75C123.794 123.271 122.075 123.531 120.018 123.531C118.495 123.531 117.186 123.434 116.092 123.238C115.012 123.043 113.918 122.717 112.811 122.262V117.34C113.996 117.874 115.265 118.316 116.62 118.668C117.987 119.007 119.185 119.176 120.213 119.176C121.372 119.176 122.199 119.007 122.694 118.668C123.202 118.316 123.456 117.861 123.456 117.301C123.456 116.936 123.351 116.611 123.143 116.324C122.948 116.025 122.518 115.693 121.854 115.328C121.19 114.951 120.148 114.462 118.729 113.863C117.362 113.29 116.236 112.711 115.35 112.125C114.478 111.539 113.827 110.849 113.397 110.055C112.98 109.247 112.772 108.225 112.772 106.988C112.772 104.97 113.553 103.453 115.116 102.438C116.691 101.409 118.794 100.895 121.424 100.895C122.778 100.895 124.068 101.031 125.292 101.305C126.528 101.578 127.798 102.014 129.1 102.613L127.303 106.91C126.222 106.441 125.2 106.057 124.237 105.758C123.286 105.458 122.316 105.309 121.327 105.309C120.454 105.309 119.797 105.426 119.354 105.66C118.911 105.895 118.69 106.253 118.69 106.734C118.69 107.086 118.801 107.398 119.022 107.672C119.256 107.945 119.699 108.251 120.35 108.59C121.014 108.915 121.984 109.339 123.26 109.859C124.497 110.367 125.571 110.901 126.483 111.461C127.394 112.008 128.097 112.691 128.592 113.512C129.087 114.319 129.334 115.367 129.334 116.656ZM143.182 118.785C143.833 118.785 144.465 118.72 145.077 118.59C145.702 118.46 146.32 118.297 146.932 118.102V122.535C146.294 122.822 145.5 123.056 144.549 123.238C143.612 123.434 142.583 123.531 141.463 123.531C140.161 123.531 138.989 123.323 137.948 122.906C136.919 122.477 136.105 121.741 135.506 120.699C134.92 119.645 134.627 118.18 134.627 116.305V105.777H131.776V103.258L135.057 101.266L136.776 96.6562H140.584V101.305H146.698V105.777H140.584V116.305C140.584 117.138 140.819 117.763 141.288 118.18C141.769 118.583 142.401 118.785 143.182 118.785Z" fill="#221F20"/>
</svg>
