<svg width="80" height="80" viewBox="0 0 80 80" fill="none" xmlns="http://www.w3.org/2000/svg">
<path d="M26.9402 30.7729H15.6342C14.9216 30.7729 14.3439 31.3507 14.3439 32.0632V49.0228C14.3439 49.7353 14.9216 50.3131 15.6342 50.3131H26.9402C27.6527 50.3131 28.2305 49.7353 28.2305 49.0228V32.0632C28.2305 31.3507 27.6529 30.7729 26.9402 30.7729ZM25.6498 36.426H22.5774V33.3536H25.6498V36.426ZM22.5774 39.0066H25.6498V42.0789H22.5774V39.0066ZM19.9968 42.079H16.9245V39.0068H19.9968V42.079ZM19.9968 33.3536V36.426H16.9245V33.3536H19.9968ZM16.9245 44.6597H19.9968V47.7326H16.9245V44.6597ZM22.5774 47.7324V44.6597H25.6498V47.7326H22.5774V47.7324ZM34.3469 33.7821H45.6531C46.3657 33.7821 46.9434 33.2044 46.9434 32.4918V15.5323C46.9434 14.8197 46.3657 14.2419 45.6531 14.2419H34.3469C33.6344 14.2419 33.0566 14.8197 33.0566 15.5323V32.4918C33.0566 33.2045 33.6342 33.7821 34.3469 33.7821ZM35.6373 28.1286H38.7097V31.2015H35.6373V28.1286ZM38.7097 25.5479H35.6373V22.4756H38.7097V25.5479ZM41.2903 22.4756H44.3627V25.5479H41.2903V22.4756ZM41.2903 31.2015V28.1286H44.3627V31.2015H41.2903ZM44.3626 19.895H41.2903V16.8226H44.3627V19.895H44.3626ZM38.7097 16.8226V19.895H35.6373V16.8226H38.7097ZM68.07 56.7936C68.7823 56.7931 69.3595 56.2155 69.3595 55.5032V25.5827C69.3595 24.8702 68.7818 24.2924 68.0692 24.2924H65.6561V22.4174C65.6561 21.7048 65.0784 21.1271 64.3658 21.1271H53.0598C52.3473 21.1271 51.7695 21.7048 51.7695 22.4174V24.2924H50.6468V9.48C50.6468 8.76742 50.069 8.18968 49.3565 8.18968H46.9434V5.40113C46.9434 4.68855 46.3657 4.11081 45.6531 4.11081H41.2903V1.29032C41.2903 0.577742 40.7126 0 40 0C39.2874 0 38.7097 0.577742 38.7097 1.29032V4.11081H34.3469C33.6344 4.11081 33.0566 4.68855 33.0566 5.40113V8.18968H30.6437C29.9311 8.18968 29.3534 8.76742 29.3534 9.48V24.2926H28.2306V22.4174C28.2306 21.7048 27.6529 21.1271 26.9403 21.1271H15.6343C14.9218 21.1271 14.344 21.7048 14.344 22.4174V24.2926H11.9308C11.2182 24.2926 10.6405 24.8703 10.6405 25.5829V55.5032C10.6405 56.2158 11.2182 56.7936 11.9308 56.7936M54.3502 23.7077H63.0755V24.2924H54.3502V23.7077ZM35.6373 6.69145H44.3627V8.18968H35.6373V6.69145ZM16.9245 23.7077H25.6498V24.2926H16.9245V23.7077ZM13.2211 26.8732H29.3532V54.2129H13.2211V26.8732ZM43.5139 54.2129H36.486V42.6128C36.486 42.135 36.9984 41.7315 37.605 41.7315H42.3948C43.0014 41.7315 43.5139 42.135 43.5139 42.6128V54.2129ZM31.9339 10.7703H48.066V54.2129H46.0945V42.6128C46.0945 40.7039 44.4348 39.1508 42.3948 39.1508H37.605C35.565 39.1508 33.9053 40.7039 33.9053 42.6128V54.2129H31.9339M66.7789 54.2137C57.0769 54.2197 52.5658 54.2197 50.6466 54.2176V26.8731H66.7789V54.2137ZM53.0598 50.3131H64.3658C65.0784 50.3131 65.6561 49.7353 65.6561 49.0228V32.0632C65.6561 31.3507 65.0784 30.7729 64.3658 30.7729H53.0598C52.3473 30.7729 51.7695 31.3507 51.7695 32.0632V49.0228C51.7695 49.7355 52.3471 50.3131 53.0598 50.3131ZM54.3502 44.6597H57.4226V47.7326H54.3502V44.6597ZM57.4226 42.079H54.3502V39.0068H57.4226V42.079ZM60.0032 39.0066H63.0755V42.0789H60.0032V39.0066ZM60.0032 47.7324V44.6597H63.0755V47.7326H60.0032V47.7324ZM63.0755 36.426H60.0032V33.3536H63.0755V36.426ZM57.4226 33.3536V36.426H54.3502V33.3536H57.4226ZM63.71 19.3552C64.1061 19.7515 64.6336 19.9695 65.1948 19.9695C65.7561 19.9695 66.2834 19.7513 66.6795 19.3552L75.4831 10.5516L76.4058 11.4742C76.8784 11.9469 77.5618 12.0973 78.1887 11.8669C78.816 11.6366 79.2394 11.0798 79.2939 10.4137L79.9944 1.83306C80.0349 1.33597 79.8558 0.84871 79.5036 0.496774C79.151 0.144194 78.664 -0.0348387 78.1671 0.00580649L69.5863 0.706452C68.9202 0.760807 68.3632 1.18435 68.1332 1.81129C67.9029 2.43839 68.0531 3.12145 68.5257 3.59436L69.4484 4.5171L60.6447 13.3206C59.8263 14.1392 59.8263 15.4711 60.6448 16.2902L63.71 19.3552ZM72.1855 5.42936C72.4274 5.18742 72.5634 4.85919 72.5634 4.51694C72.5634 4.17468 72.4274 3.84645 72.1855 3.60452L71.7036 3.12258L77.3373 2.66258L76.8773 8.29629L76.3953 7.81436C75.8915 7.31049 75.0745 7.31049 74.5707 7.81436L65.1948 17.1902L62.8095 14.805L72.1855 5.42936ZM0.00579782 1.83306L0.706443 10.4139C0.760798 11.0798 1.18435 11.6368 1.81128 11.8669C2.43854 12.0974 3.12177 11.9471 3.59451 11.4744L4.51725 10.5518L13.3208 19.3553C13.7169 19.7515 14.2442 19.9697 14.8055 19.9697C15.3668 19.9697 15.8942 19.7515 16.2903 19.3553L19.3556 16.2902C20.1742 15.4715 20.1742 14.1394 19.3555 13.3206L10.5516 4.51694L11.4743 3.59419C11.9469 3.12161 12.0973 2.43839 11.8671 1.81161C11.6369 1.18419 11.0802 0.760645 10.4137 0.706129L1.83306 0.00564514C1.3366 -0.0346774 0.849185 0.144032 0.497088 0.49629C0.144346 0.84871 -0.0348474 1.33597 0.00579782 1.83306ZM8.29644 3.12258L7.81451 3.60452C7.31064 4.10839 7.31064 4.92532 7.81451 5.42919L17.1903 14.805L14.8052 17.1902L5.42935 7.81436C5.17741 7.56242 4.84725 7.43645 4.51693 7.43645C4.18677 7.43645 3.85644 7.56242 3.60451 7.81436L3.12257 8.29629L2.66257 2.66258L8.29644 3.12258ZM79.9942 78.1669L79.2936 69.5861C79.2392 68.9202 78.8157 68.3632 78.1887 68.1331C77.5615 67.9027 76.8782 68.0529 76.4055 68.5257L75.4827 69.4482L66.6792 60.6447C66.2831 60.2486 65.7558 60.0303 65.1945 60.0303C64.6332 60.0303 64.1058 60.2486 63.7097 60.6447L60.6442 63.71C59.826 64.5287 59.826 65.8607 60.6444 66.6794L69.4479 75.4829L68.5248 76.406C68.0526 76.8786 67.9024 77.5618 68.1326 78.1882C68.3627 78.8157 68.9195 79.2392 69.586 79.2937L78.1666 79.9942C78.2129 79.9979 78.2592 79.9998 78.3052 79.9998C78.7531 79.9998 79.1832 79.8229 79.5026 79.5037C79.8557 79.1513 80.0348 78.664 79.9942 78.1669ZM71.7036 76.8774L72.1855 76.3955C72.4274 76.1536 72.5634 75.8253 72.5634 75.4831C72.5634 75.1408 72.4274 74.8126 72.1855 74.5707L62.8095 65.1948L65.1948 62.8097L74.5707 72.1855C75.0745 72.6895 75.8915 72.6895 76.3953 72.1855L76.8773 71.7036L77.3373 77.3373L71.7036 76.8774ZM16.29 60.6448C15.8939 60.2486 15.3664 60.0305 14.8052 60.0305C14.2439 60.0305 13.7166 60.2487 13.3205 60.6448L4.51693 69.4484L3.59419 68.5258C3.12161 68.0531 2.43822 67.9027 1.81128 68.1331C1.18402 68.3634 0.760637 68.9202 0.706121 69.5863L0.00563646 78.1669C-0.0348474 78.664 0.144185 79.1513 0.496443 79.5032C0.816121 79.8229 1.24628 79.9998 1.69435 79.9998C1.74048 79.9998 1.7866 79.9981 1.8329 79.9942L10.4137 79.2936C11.0798 79.2392 11.6368 78.8157 11.8668 78.1887C12.0973 77.5615 11.9469 76.8782 11.4742 76.4057L10.5514 75.4829L19.355 66.6794C20.1737 65.8608 20.1737 64.5287 19.355 63.7099L16.29 60.6448ZM7.81451 74.5707C7.31064 75.0745 7.31064 75.8915 7.81451 76.3953L8.29644 76.8773L2.66273 77.3373L3.12273 71.7036L3.60467 72.1855C4.10854 72.6894 4.92548 72.6894 5.42935 72.1855L14.8052 62.8097L17.1903 65.1948L7.81451 74.5707Z" fill="url(#paint0_linear_9534_3435)"/>
<defs>
<linearGradient id="paint0_linear_9534_3435" x1="39.9998" y1="-1.79112" x2="39.9998" y2="80.2789" gradientUnits="userSpaceOnUse">
<stop stop-color="#00EFD1"/>
<stop offset="1" stop-color="#00ACEA"/>
</linearGradient>
</defs>
</svg>
