<svg width="80" height="72" viewBox="0 0 80 72" fill="none" xmlns="http://www.w3.org/2000/svg">
<path d="M79.1455 35.428L42.0325 0.703875C41.094 -0.234625 39.5583 -0.234625 38.5346 0.703875L0.824296 35.428C-0.199447 36.3665 -0.284854 37.9875 0.653645 39.0114C1.1656 39.5233 1.84804 39.8645 2.53064 39.8645C3.12784 39.8645 3.81045 39.6086 4.23699 39.1819L9.61193 34.2335V68.4457C9.61193 69.8961 10.7211 71.0051 12.1714 71.0051H31.2825C32.7329 71.0051 33.8419 69.896 33.8419 68.4457V52.3207H46.7249V68.4457C46.7249 69.8961 47.834 71.0051 49.2843 71.0051H68.4808C69.9313 71.0051 71.0403 69.896 71.0403 68.4457V34.8308L75.7328 39.182C76.7565 40.1205 78.3776 40.1205 79.3161 39.0968C80.2546 37.9876 80.2546 36.3665 79.1455 35.428ZM65.9212 65.8862H51.8439V49.7612C51.8439 48.3108 50.7348 47.2018 49.2845 47.2018H31.2825C29.832 47.2018 28.7231 48.311 28.7231 49.7612V65.8862H14.731V29.5411L40.3262 6.07898L65.9214 30.0531V65.8862H65.9212Z" fill="url(#paint0_linear_9534_3452)"/>
<defs>
<linearGradient id="paint0_linear_9534_3452" x1="39.9998" y1="-1.58974" x2="39.9998" y2="71.2528" gradientUnits="userSpaceOnUse">
<stop stop-color="#00EFD1"/>
<stop offset="1" stop-color="#00ACEA"/>
</linearGradient>
</defs>
</svg>
