<svg width="80" height="80" viewBox="0 0 80 80" fill="none" xmlns="http://www.w3.org/2000/svg">
<path d="M45.5491 61.2025L40.8941 65H31.8291C32.2566 64.2638 32.5003 63.41 32.5003 62.5C32.5003 59.7425 30.2578 57.5 27.5003 57.5H11.7991C10.1291 57.5 8.55781 58.1513 7.37906 59.3313L0.366562 66.3438C-0.122187 66.8325 -0.122187 67.6225 0.366562 68.1112C0.855312 68.6 1.64531 68.6 2.13406 68.1112L9.14656 61.0988C9.85531 60.39 10.7978 60 11.7991 60H27.5003C28.8791 60 30.0003 61.1212 30.0003 62.5C30.0003 63.8787 28.8791 65 27.5003 65H20.0003C19.3091 65 18.7503 65.56 18.7503 66.25C18.7503 66.94 19.3091 67.5 20.0003 67.5H41.3391C41.6266 67.5 41.9066 67.4 42.1291 67.2188L47.1753 63.1025C47.2078 63.0762 47.2403 63.0475 47.2691 63.0175C48.4603 61.8288 50.3666 61.7025 51.5141 62.7375C52.1266 63.29 52.4778 64.0463 52.4978 64.8675C52.5203 65.6888 52.2116 66.4612 51.6678 67.0062L45.4203 72.76C44.7253 73.3975 43.8241 73.75 42.8803 73.75H16.7116C16.4053 73.75 16.1103 73.8625 15.8803 74.0662L11.6691 77.8162C11.1541 78.2762 11.1078 79.0663 11.5666 79.5813C11.8141 79.8588 12.1566 80 12.5003 80C12.7966 80 13.0941 79.8963 13.3316 79.6838L17.1878 76.25H42.8803C44.4528 76.25 45.9553 75.6638 47.1153 74.5988L53.4003 68.8088C54.4553 67.7538 55.0391 66.2925 54.9991 64.8012C54.9591 63.2887 54.3153 61.895 53.1878 60.8787C51.0428 58.95 47.7003 59.0963 45.5491 61.2025Z" fill="url(#paint0_linear_9534_3440)"/>
<path d="M33.75 17.5C34.4412 17.5 35 16.94 35 16.25C35 15.56 34.4412 15 33.75 15H28.75C28.0588 15 27.5 15.56 27.5 16.25C27.5 16.94 28.0588 17.5 28.75 17.5H33.75Z" fill="url(#paint1_linear_9534_3440)"/>
<path d="M31.25 37.5011C34.6962 37.5011 37.5 34.6973 37.5 31.2511C37.5 30.5611 36.9412 30.0011 36.25 30.0011C35.5588 30.0011 35 30.5611 35 31.2511C35 33.3186 33.3175 35.0011 31.25 35.0011C29.1825 35.0011 27.5 33.3186 27.5 31.2511C27.5 29.1173 29.7687 26.6673 31.2462 25.3698C31.9475 25.9873 33.0075 27.0123 33.8287 28.2086C34.2212 28.7786 35.0013 28.9223 35.5675 28.5311C36.1363 28.1398 36.28 27.3611 35.89 26.7923C34.3125 24.4973 32.0938 22.8211 32 22.7498C31.5563 22.4161 30.945 22.4173 30.5012 22.7498C29.9362 23.1736 25 26.9986 25 31.2511C25 34.6973 27.8038 37.5011 31.25 37.5011Z" fill="url(#paint2_linear_9534_3440)"/>
<path d="M44.548 32.8678C41.7143 35.6991 40.1543 39.4666 40.1543 43.4753C40.1543 47.4841 41.7143 51.2516 44.548 54.0828C44.7918 54.3266 45.1118 54.4491 45.4318 54.4491C45.7518 54.4491 46.0718 54.3266 46.3155 54.0828C46.8043 53.5941 46.8043 52.8028 46.3155 52.3141C43.9543 49.9553 42.6543 46.8153 42.6543 43.4741C42.6543 40.1328 43.9543 36.9928 46.3155 34.6341C46.8043 34.1453 46.8043 33.3541 46.3155 32.8653C45.8268 32.3766 45.0355 32.3791 44.548 32.8678Z" fill="url(#paint3_linear_9534_3440)"/>
<path d="M48.083 36.4019C46.1943 38.2894 45.1543 40.8006 45.1543 43.4744C45.1543 46.1481 46.1943 48.6594 48.083 50.5469C48.3268 50.7906 48.6468 50.9119 48.9668 50.9119C49.2868 50.9119 49.6068 50.7894 49.8505 50.5456C50.3393 50.0569 50.3393 49.2656 49.8505 48.7769C48.4343 47.3619 47.6543 45.4781 47.6543 43.4731C47.6543 41.4681 48.4343 39.5844 49.8505 38.1694C50.3393 37.6806 50.3393 36.8894 49.8505 36.4006C49.3618 35.9119 48.5705 35.9144 48.083 36.4019Z" fill="url(#paint4_linear_9534_3440)"/>
<path d="M53.3843 39.9369C52.8955 39.4481 52.1055 39.4481 51.6168 39.9369C50.673 40.8794 50.1543 42.1356 50.1543 43.4719C50.1543 44.8081 50.673 46.0644 51.6168 47.0069C51.8605 47.2519 52.1805 47.3731 52.5005 47.3731C52.8205 47.3731 53.1405 47.2506 53.3843 47.0069C53.873 46.5181 53.873 45.7269 53.3843 45.2394C52.913 44.7681 52.6543 44.1406 52.6543 43.4719C52.6543 42.8031 52.913 42.1756 53.3843 41.7044C53.873 41.2169 53.873 40.4256 53.3843 39.9369Z" fill="url(#paint5_linear_9534_3440)"/>
<path d="M78.75 25C79.4412 25 80 24.44 80 23.75V3.75C80 1.6825 78.3175 0 76.25 0H28.75C26.6825 0 25 1.6825 25 3.75V11.25C25 11.94 25.5588 12.5 26.25 12.5H35.9262L57.5 24.485V78.75C57.5 79.44 58.0588 80 58.75 80H78.75C79.4412 80 80 79.44 80 78.75V28.75C80 28.06 79.4412 27.5 78.75 27.5C78.0588 27.5 77.5 28.06 77.5 28.75V77.5H60V11.25C60 10.56 59.4412 10 58.75 10C58.0588 10 57.5 10.56 57.5 11.25V21.6263L36.8563 10.1575C36.6713 10.0538 36.4625 10 36.25 10H27.5V3.75C27.5 3.06125 28.06 2.5 28.75 2.5H76.25C76.94 2.5 77.5 3.06125 77.5 3.75V23.75C77.5 24.44 78.0588 25 78.75 25Z" fill="url(#paint6_linear_9534_3440)"/>
<defs>
<linearGradient id="paint0_linear_9534_3440" x1="27.5004" y1="56.9962" x2="27.5004" y2="80.0785" gradientUnits="userSpaceOnUse">
<stop stop-color="#00EFD1"/>
<stop offset="1" stop-color="#00ACEA"/>
</linearGradient>
<linearGradient id="paint1_linear_9534_3440" x1="31.25" y1="14.944" x2="31.25" y2="17.5087" gradientUnits="userSpaceOnUse">
<stop stop-color="#00EFD1"/>
<stop offset="1" stop-color="#00ACEA"/>
</linearGradient>
<linearGradient id="paint2_linear_9534_3440" x1="31.25" y1="22.1641" x2="31.25" y2="37.5534" gradientUnits="userSpaceOnUse">
<stop stop-color="#00EFD1"/>
<stop offset="1" stop-color="#00ACEA"/>
</linearGradient>
<linearGradient id="paint3_linear_9534_3440" x1="43.4182" y1="32.0086" x2="43.4182" y2="54.5256" gradientUnits="userSpaceOnUse">
<stop stop-color="#00EFD1"/>
<stop offset="1" stop-color="#00ACEA"/>
</linearGradient>
<linearGradient id="paint4_linear_9534_3440" x1="47.6857" y1="35.7021" x2="47.6857" y2="50.9638" gradientUnits="userSpaceOnUse">
<stop stop-color="#00EFD1"/>
<stop offset="1" stop-color="#00ACEA"/>
</linearGradient>
<linearGradient id="paint5_linear_9534_3440" x1="51.9526" y1="39.3956" x2="51.9526" y2="47.4003" gradientUnits="userSpaceOnUse">
<stop stop-color="#00EFD1"/>
<stop offset="1" stop-color="#00ACEA"/>
</linearGradient>
<linearGradient id="paint6_linear_9534_3440" x1="52.4999" y1="-1.79112" x2="52.4999" y2="80.279" gradientUnits="userSpaceOnUse">
<stop stop-color="#00EFD1"/>
<stop offset="1" stop-color="#00ACEA"/>
</linearGradient>
</defs>
</svg>
