<svg width="80" height="80" viewBox="0 0 80 80" fill="none" xmlns="http://www.w3.org/2000/svg">
<path d="M72.7781 43.7167C73.1286 43.7165 73.4648 43.5772 73.7127 43.3293C73.9605 43.0814 74.0999 42.7453 74.1001 42.3947V33.7753H78.678C79.0285 33.7751 79.3647 33.6357 79.6126 33.3878C79.8605 33.14 79.9998 32.8038 80 32.4533V1.322C80 0.971385 79.8607 0.635129 79.6128 0.387205C79.3649 0.139282 79.0286 2.16104e-07 78.678 2.16104e-07H19.8754C19.5247 2.16104e-07 19.1885 0.139282 18.9406 0.387205C18.6926 0.635129 18.5534 0.971385 18.5534 1.322C18.5534 1.67262 18.6926 2.00887 18.9406 2.2568C19.1885 2.50472 19.5247 2.644 19.8754 2.644H77.356V31.1313C59.4002 31.1313 54.6689 31.1313 2.644 31.1313V2.644H5.17469C5.52531 2.644 5.86157 2.50472 6.10949 2.2568C6.35741 2.00887 6.4967 1.67262 6.4967 1.322C6.4967 0.971385 6.35741 0.635129 6.10949 0.387205C5.86157 0.139282 5.52531 2.16104e-07 5.17469 2.16104e-07H1.322C1.14837 -9.90894e-05 0.976414 0.0340278 0.815977 0.100429C0.655539 0.166831 0.509763 0.264205 0.386984 0.386984C0.264205 0.509763 0.166831 0.655539 0.100429 0.815977C0.0340278 0.976414 -9.90894e-05 1.14837 2.16104e-07 1.322V32.4533C2.16104e-07 32.8039 0.139282 33.1401 0.387205 33.3881C0.635129 33.636 0.971385 33.7753 1.322 33.7753H5.89991V66.3909L0.135977 78.0941C0.0367437 78.2956 -0.0094897 78.5191 0.00164064 78.7435C0.012771 78.9679 0.0808984 79.1857 0.199591 79.3765C0.318284 79.5672 0.483627 79.7245 0.680013 79.8336C0.876398 79.9427 1.09735 80 1.322 80H78.678C78.9026 80 79.1236 79.9427 79.32 79.8336C79.5164 79.7245 79.6817 79.5672 79.8004 79.3765C79.9191 79.1857 79.9872 78.9679 79.9984 78.7435C80.0095 78.5191 79.9633 78.2956 79.864 78.0941L74.1001 66.3909V47.6978C74.1001 47.3472 73.9608 47.011 73.7129 46.763C73.465 46.5151 73.1287 46.3758 72.7781 46.3758C72.4275 46.3758 72.0912 46.5151 71.8433 46.763C71.5954 47.011 71.4561 47.3472 71.4561 47.6978V61.0229L68.797 55.6238V33.7753H71.4561V42.3947C71.4563 42.7453 71.5956 43.0814 71.8435 43.3293C72.0914 43.5772 72.4275 43.7165 72.7781 43.7167ZM21.9641 33.7753L13.847 50.2557V33.7753H21.9641ZM8.54391 33.7753H11.203V55.6238L8.54391 61.0229V33.7753ZM41.322 77.356V66.8178C41.322 66.4671 41.1827 66.1309 40.9348 65.883C40.6869 65.635 40.3506 65.4958 40 65.4958C39.6494 65.4958 39.3131 65.635 39.0652 65.883C38.8173 66.1309 38.678 66.4671 38.678 66.8178V77.356H3.44627L24.9111 33.7753H38.678V42.3924C38.678 42.7431 38.8173 43.0793 39.0652 43.3272C39.3131 43.5752 39.6494 43.7145 40 43.7145C40.3506 43.7145 40.6869 43.5752 40.9348 43.3272C41.1827 43.0793 41.322 42.7431 41.322 42.3924V33.7753H55.089L76.5537 77.356H41.322ZM66.153 50.2557L58.0359 33.7753H66.153V50.2557ZM9.15581 1.322C9.15581 0.971385 9.29509 0.635129 9.54301 0.387205C9.79094 0.139282 10.1272 2.16104e-07 10.4778 2.16104e-07H14.5722C14.7458 2.1093e-07 14.9178 0.0341943 15.0781 0.100631C15.2385 0.167068 15.3843 0.264446 15.507 0.387205C15.6298 0.509965 15.7272 0.655701 15.7936 0.816094C15.86 0.976487 15.8942 1.14839 15.8942 1.322C15.8942 1.49561 15.86 1.66752 15.7936 1.82791C15.7272 1.9883 15.6298 2.13404 15.507 2.2568C15.3843 2.37956 15.2385 2.47694 15.0781 2.54337C14.9178 2.60981 14.7458 2.644 14.5722 2.644H10.4778C10.1273 2.6438 9.79111 2.50446 9.54323 2.25658C9.29535 2.0087 9.15601 1.67256 9.15581 1.322ZM5.90142 7.65401V26.1197C5.90162 26.4703 6.04096 26.8064 6.28884 27.0543C6.53672 27.3022 6.87286 27.4415 7.22342 27.4417H72.7766C73.1271 27.4415 73.4633 27.3022 73.7112 27.0543C73.959 26.8064 74.0984 26.4703 74.0986 26.1197V7.65401C74.0986 7.3034 73.9593 6.96714 73.7114 6.71922C73.4635 6.47129 73.1272 6.33201 72.7766 6.33201H7.22342C6.8728 6.33201 6.53655 6.47129 6.28862 6.71922C6.0407 6.96714 5.90142 7.3034 5.90142 7.65401ZM8.54542 8.97602H71.4546V24.7977H8.54542V8.97602ZM41.322 14.0638C41.3218 14.4144 41.1825 14.7505 40.9346 14.9984C40.6867 15.2463 40.3506 15.3856 40 15.3858H15.3224C14.9718 15.3858 14.6355 15.2466 14.3876 14.9986C14.1397 14.7507 14.0004 14.4145 14.0004 14.0638C14.0004 13.7132 14.1397 13.377 14.3876 13.129C14.6355 12.8811 14.9718 12.7418 15.3224 12.7418H40C40.3506 12.7418 40.6869 12.8811 40.9348 13.129C41.1827 13.377 41.322 13.7132 41.322 14.0638ZM28.9828 19.7296C28.9828 20.0802 28.8435 20.4164 28.5956 20.6644C28.3477 20.9123 28.0114 21.0516 27.6608 21.0516H15.3224C14.9718 21.0516 14.6355 20.9123 14.3876 20.6644C14.1397 20.4164 14.0004 20.0802 14.0004 19.7296C14.0004 19.3789 14.1397 19.0427 14.3876 18.7948C14.6355 18.5468 14.9718 18.4076 15.3224 18.4076H27.6608C27.8344 18.4075 28.0064 18.4416 28.1668 18.508C28.3273 18.5744 28.4731 18.6718 28.5958 18.7945C28.7186 18.9173 28.816 19.0631 28.8824 19.2235C28.9488 19.384 28.9829 19.5559 28.9828 19.7296ZM41.322 48.8763V59.8927C41.322 60.2433 41.1827 60.5796 40.9348 60.8275C40.6869 61.0754 40.3506 61.2147 40 61.2147C39.6494 61.2147 39.3131 61.0754 39.0652 60.8275C38.8173 60.5796 38.678 60.2433 38.678 59.8927V48.8763C38.678 48.5257 38.8173 48.1894 39.0652 47.9415C39.3131 47.6936 39.6494 47.5543 40 47.5543C40.3506 47.5543 40.6869 47.6936 40.9348 47.9415C41.1827 48.1894 41.322 48.5257 41.322 48.8763ZM66.8397 15.7416C67.0804 15.991 67.2136 16.325 67.2105 16.6716C67.2074 17.0182 67.0683 17.3498 66.8232 17.5948C66.578 17.8399 66.2464 17.9789 65.8998 17.9818C65.5532 17.9848 65.2193 17.8514 64.97 17.6106L62.4771 15.1177V21.6808C62.4771 22.0314 62.3378 22.3677 62.0899 22.6156C61.8419 22.8636 61.5057 23.0028 61.1551 23.0028C60.8044 23.0028 60.4682 22.8636 60.2203 22.6156C59.9723 22.3677 59.833 22.0314 59.833 21.6808V15.1146L57.3401 17.6076C57.0909 17.8484 56.7569 17.9817 56.4103 17.9788C56.0637 17.9759 55.7321 17.8369 55.4869 17.5918C55.2418 17.3468 55.1027 17.0152 55.0996 16.6686C55.0965 16.322 55.2297 15.988 55.4704 15.7386L60.2168 10.9915C60.4661 10.7459 60.8021 10.6082 61.152 10.6082C61.502 10.6082 61.8379 10.7459 62.0873 10.9915L66.8397 15.7416Z" fill="url(#paint0_linear_9534_3437)"/>
<defs>
<linearGradient id="paint0_linear_9534_3437" x1="39.9998" y1="-1.79112" x2="39.9998" y2="80.279" gradientUnits="userSpaceOnUse">
<stop stop-color="#00EFD1"/>
<stop offset="1" stop-color="#00ACEA"/>
</linearGradient>
</defs>
</svg>
