<svg xmlns="http://www.w3.org/2000/svg" xmlns:xlink="http://www.w3.org/1999/xlink" width="60" height="60" viewBox="0 0 60 60">
  <defs>
    <clipPath id="clip-path">
      <rect id="Rectangle_5226" data-name="Rectangle 5226" width="60" height="60" transform="translate(-7164 -3015)" fill="#fff" stroke="#707070" stroke-width="1"/>
    </clipPath>
  </defs>
  <g id="Mask_Group_270" data-name="Mask Group 270" transform="translate(7164 3015)" clip-path="url(#clip-path)">
    <g id="Group_102533" data-name="Group 102533" transform="translate(-7157 -2998)">
      <g id="Group_102534" data-name="Group 102534" transform="translate(0 0)">
        <path id="Path_117061" data-name="Path 117061" d="M11.042,26.029q-4.371,0-8.742,0A2.131,2.131,0,0,1,.221,22.94C1.854,19.2,3.539,15.491,5.2,11.768,6.5,8.875,7.776,5.974,9.1,3.1a3.515,3.515,0,0,1,1.041-1.333,1.947,1.947,0,0,1,2.985.836c.82,1.723,1.559,3.484,2.323,5.233q3.147,7.208,6.283,14.422a3.043,3.043,0,0,1,.471,2.066,2.239,2.239,0,0,1-2.368,1.707q-4.4.007-8.8,0M5.46,21.623H16.838L11.222,8.73,5.46,21.623" transform="translate(0 -0.756)" fill="#f36246"/>
        <path id="Path_117062" data-name="Path 117062" d="M58.4,13.018A13.114,13.114,0,0,1,69.813.121,13.309,13.309,0,0,1,80.3,3.131a5.409,5.409,0,0,1,1.032,1.08,2.126,2.126,0,0,1-.373,2.819,2.092,2.092,0,0,1-2.883.006,9.433,9.433,0,0,0-5.242-2.594,8.919,8.919,0,0,0-9.612,5.853,8.542,8.542,0,0,0,4.093,10.269,9.088,9.088,0,0,0,10.533-1.336A2.193,2.193,0,0,1,80.5,18.8a2.16,2.16,0,0,1,.564,3.375A11.38,11.38,0,0,1,76.842,25,13.358,13.358,0,0,1,59.08,17.227a12.556,12.556,0,0,1-.681-4.208" transform="translate(-35.373 0)"/>
      </g>
    </g>
  </g>
</svg>
