<svg xmlns="http://www.w3.org/2000/svg" xmlns:xlink="http://www.w3.org/1999/xlink" width="60" height="60" viewBox="0 0 60 60">
  <defs>
    <clipPath id="clip-path">
      <rect id="Rectangle_5230" data-name="Rectangle 5230" width="60" height="60" transform="translate(-7164 -3015)" fill="#fff" stroke="#707070" stroke-width="1"/>
    </clipPath>
  </defs>
  <g id="Mask_Group_272" data-name="Mask Group 272" transform="translate(7164 3015)" clip-path="url(#clip-path)">
    <g id="Group_102528" data-name="Group 102528" transform="translate(-7158 -3008.598)">
      <g id="Group_102530" data-name="Group 102530">
        <path id="Path_117055" data-name="Path 117055" d="M62.68,62.749A10.377,10.377,0,0,1,56.431,67.3a8.194,8.194,0,0,1-2.6.352,10.609,10.609,0,0,1-7.948-3.136,11.21,11.21,0,0,1-2.834-4.883,12.008,12.008,0,0,1-.344-5.015,11.008,11.008,0,0,1,4.2-7.475,9.917,9.917,0,0,1,4.164-1.961,11.436,11.436,0,0,1,3.9-.192,10.473,10.473,0,0,1,7.021,3.86A11.177,11.177,0,0,1,64.432,54.5a11.745,11.745,0,0,1-1.752,8.249" transform="translate(-30.589 -32.253)" fill="#f9990f"/>
        <path id="Path_117056" data-name="Path 117056" d="M40.833.177a.025.025,0,0,0-.014,0A8.753,8.753,0,0,0,39.069,0H8.934a8.753,8.753,0,0,0-1.75.175C7.055.2,6.928.228,6.8.259A8.919,8.919,0,0,0,4.237,1.344a1.157,1.157,0,0,0-.11.068A9.028,9.028,0,0,0,.634,5.638c-.008.02-.014.039-.023.062A8.608,8.608,0,0,0,.127,7.441C.1,7.618.07,7.8.051,7.976A8.959,8.959,0,0,0,0,8.931V39.069a8.881,8.881,0,0,0,.051.955c.02.175.042.347.073.518v0a8.693,8.693,0,0,0,.417,1.581s0,.006,0,.006a9.01,9.01,0,0,0,5.533,5.4c.161.054.324.1.487.149s.3.079.448.11A8.826,8.826,0,0,0,8.934,48H39.069a8.826,8.826,0,0,0,1.921-.211,8.332,8.332,0,0,0,.918-.254.04.04,0,0,1,.017-.006c.276-.1.547-.2.809-.321.006,0,.011,0,.017-.008a9.038,9.038,0,0,0,4.035-3.646A8.865,8.865,0,0,0,48,39.069V8.931A8.962,8.962,0,0,0,40.833.177M39.128,38.4c-.155.008-.307.008-.459.008H30.183c-2.784,0-5.564.006-8.348,0a11.41,11.41,0,0,1-2.282-.332,12.875,12.875,0,0,1-4.2-1.665,13.911,13.911,0,0,1-6.3-8.207,14.231,14.231,0,0,1-.592-4.13,14.652,14.652,0,0,1,2.71-8.621A13.943,13.943,0,0,1,17.251,10.7,15.291,15.291,0,0,1,22.8,9.585a14.774,14.774,0,0,1,3.141.307A13.943,13.943,0,0,1,37.057,20.449a14.851,14.851,0,0,1,.448,3.832,15.373,15.373,0,0,1-.366,2.674,13,13,0,0,1-1.848,4.533,10.9,10.9,0,0,1-3.685,3.564c-.192.113-1.378.625-1.378.625l.848-.017c2.617-.087,5.235-.011,7.852-.042.3,0,.425.107.428.409,0,.693-.039,1.386.028,2.076a.243.243,0,0,1-.256.3" fill="#f99810"/>
        <path id="Path_117057" data-name="Path 117057" d="M60.944,60.452c0-.3-.132-.411-.428-.409-2.617.031-5.235-.045-7.852.042l-.848.017s1.186-.513,1.378-.625a10.9,10.9,0,0,0,3.685-3.564,13,13,0,0,0,1.848-4.533,15.373,15.373,0,0,0,.366-2.674,14.851,14.851,0,0,0-.448-3.832A13.943,13.943,0,0,0,47.528,34.318a14.774,14.774,0,0,0-3.141-.307,15.291,15.291,0,0,0-5.547,1.113,13.943,13.943,0,0,0-6.071,4.756,14.652,14.652,0,0,0-2.71,8.621,14.231,14.231,0,0,0,.592,4.13,13.911,13.911,0,0,0,6.3,8.207,12.875,12.875,0,0,0,4.2,1.665,11.41,11.41,0,0,0,2.282.332c2.784.008,5.564,0,8.348,0h8.486c.152,0,.3,0,.459-.008a.243.243,0,0,0,.256-.3c-.068-.69-.025-1.383-.028-2.076m-13.515-.978a8.2,8.2,0,0,1-2.6.352,10.609,10.609,0,0,1-7.948-3.136,11.21,11.21,0,0,1-2.834-4.883,12.008,12.008,0,0,1-.344-5.015,11.008,11.008,0,0,1,4.2-7.475,9.918,9.918,0,0,1,4.164-1.961,11.437,11.437,0,0,1,3.9-.192,10.473,10.473,0,0,1,7.021,3.86,11.177,11.177,0,0,1,2.443,5.646,11.745,11.745,0,0,1-1.752,8.249,10.377,10.377,0,0,1-6.249,4.553" transform="translate(-21.588 -24.426)" fill="#fff"/>
      </g>
    </g>
  </g>
</svg>
