<svg xmlns="http://www.w3.org/2000/svg" xmlns:xlink="http://www.w3.org/1999/xlink" width="60" height="60" viewBox="0 0 60 60">
  <defs>
    <clipPath id="clip-path">
      <rect id="Rectangle_5232" data-name="Rectangle 5232" width="60" height="60" transform="translate(-7164 -3015)" fill="#fff" stroke="#707070" stroke-width="1"/>
    </clipPath>
    <clipPath id="clip-path-2">
      <rect id="Rectangle_5321" data-name="Rectangle 5321" width="47.685" height="42.548" transform="translate(0 0.001)" fill="none"/>
    </clipPath>
  </defs>
  <g id="Mask_Group_273" data-name="Mask Group 273" transform="translate(7164 3015)" clip-path="url(#clip-path)">
    <g id="Group_102531" data-name="Group 102531" transform="translate(-7157.842 -3005.774)">
      <g id="Group_102531-2" data-name="Group 102531" clip-path="url(#clip-path-2)">
        <path id="Path_117058" data-name="Path 117058" d="M21.524.017q9.57,0,19.139,0c.141,0,.336-.08.41.079.066.14-.1.244-.185.35a13.616,13.616,0,0,1-4.245,3.7A15.143,15.143,0,0,1,31.77,5.941a15.044,15.044,0,0,1-2.324.214q-8.685-.011-17.37-.005c-.14,0-.28.005-.42.006a1.417,1.417,0,0,0-1.315.838,1.2,1.2,0,0,0,.219,1.362c.535.723,1.083,1.437,1.628,2.153q2.273,2.981,4.548,5.961c1.061,1.391,2.126,2.779,3.182,4.174a2.785,2.785,0,0,1-.05,3.567c-2.644,3.351-5.425,6.59-8.139,9.883q-2.661,3.228-5.335,6.445c-.523.631-1.06,1.251-1.586,1.879-.12.143-.233.192-.364.028A6.909,6.909,0,0,1,2.77,38.983a8.635,8.635,0,0,1,.651-4.4,20.93,20.93,0,0,1,3.412-5.441,37.89,37.89,0,0,1,3.077-3.32c.915-.865,1.866-1.692,2.781-2.557a1.89,1.89,0,0,0,.224-2.761Q9.8,16.3,6.677,12.1,3.6,7.956.532,3.811A2.24,2.24,0,0,1,.271,1.3,2.307,2.307,0,0,1,2.475.014Q12,.023,21.524.017" fill="#2d2e8d"/>
        <path id="Path_117059" data-name="Path 117059" d="M26.256,42.522q-9.583,0-19.168,0c-.133,0-.323.074-.387-.062s.115-.236.2-.339a14.67,14.67,0,0,1,9.672-5.531,15.373,15.373,0,0,1,2.21-.146q8.61.01,17.219.008a1.429,1.429,0,0,0,1.241-.532,1.36,1.36,0,0,0-.056-1.77c-.6-.813-1.218-1.61-1.831-2.413q-3.33-4.362-6.661-8.723c-.351-.461-.708-.919-1.036-1.4a2.677,2.677,0,0,1,.222-3.275c1.209-1.424,2.386-2.876,3.579-4.314q2.44-2.941,4.885-5.88,2.066-2.493,4.126-4.991c.8-.97,1.607-1.938,2.406-2.911.152-.186.264-.189.426-.007A6.256,6.256,0,0,1,44.989,4.3a10.335,10.335,0,0,1-1.513,5.357,27.075,27.075,0,0,1-3.9,5.229A46.914,46.914,0,0,1,35.1,19.13a1.989,1.989,0,0,0-.8,2.06,2.3,2.3,0,0,0,.459.868q1.932,2.6,3.867,5.2Q42.9,33,47.157,38.743a2.323,2.323,0,0,1-.466,3.389,2.167,2.167,0,0,1-1.3.392q-9.569,0-19.138,0" fill="#999"/>
        <path id="Path_117060" data-name="Path 117060" d="M24.691,33.577H16.653a6.114,6.114,0,0,1-.927-.047c-.077-.011-.174.019-.215-.07s.047-.142.1-.2c1.821-2.045,3.56-4.16,5.338-6.241,1.233-1.443,2.456-2.9,3.685-4.342.259-.3.28-.293.523.019q2.273,2.922,4.554,5.838c1.2,1.534,2.414,3.061,3.616,4.6.086.109.268.217.186.372-.07.134-.257.065-.391.065q-4.214,0-8.428,0Z" fill="#df6052"/>
      </g>
    </g>
  </g>
</svg>
