<svg xmlns="http://www.w3.org/2000/svg" xmlns:xlink="http://www.w3.org/1999/xlink" width="60" height="60" viewBox="0 0 60 60">
  <defs>
    <clipPath id="clip-path">
      <rect id="Rectangle_5224" data-name="Rectangle 5224" width="60" height="60" transform="translate(-7164 -3015)" fill="#fff" stroke="#707070" stroke-width="1"/>
    </clipPath>
    <clipPath id="clip-path-2">
      <rect id="Rectangle_5223" data-name="Rectangle 5223" width="54" height="36.797" fill="none"/>
    </clipPath>
  </defs>
  <g id="Mask_Group_269" data-name="Mask Group 269" transform="translate(7164 3015)" clip-path="url(#clip-path)">
    <g id="Group_102343" data-name="Group 102343" transform="translate(-7161 -3005.443)">
      <g id="Group_102342" data-name="Group 102342" transform="translate(0 0)">
        <g id="Group_102341" data-name="Group 102341" transform="translate(0 0)" clip-path="url(#clip-path-2)">
          <path id="Path_116845" data-name="Path 116845" d="M33.437,23.066c.7.054.463.5.343.9a17.913,17.913,0,0,1-8.024,10.419,17.135,17.135,0,0,1-23.18-5.542,2.774,2.774,0,0,1-.206-.393c.446-.395.652.179.961.25a12.452,12.452,0,0,0,3.051,1.6,14.915,14.915,0,0,0,2.264.7,14.7,14.7,0,0,0,3.428.251,11.5,11.5,0,0,0,3.48-.467c3.756-1.058,6.6-3.138,7.819-7.207a10.025,10.025,0,0,0,.256-1.4,2.3,2.3,0,0,0,0-1.274,8.131,8.131,0,0,0-1.286-4.411A9.726,9.726,0,0,0,20,13.974a5.6,5.6,0,0,0-.857-.43c-.429-.161-.12-.466-.069-.663C21.3,4.866,29.117-.656,37.123.1A17.076,17.076,0,0,1,50.6,8.542a.279.279,0,0,1-.223.089,30.911,30.911,0,0,0-2.692-1.542,8.5,8.5,0,0,0-2.057-.9A19.629,19.629,0,0,0,43.4,5.709a12.176,12.176,0,0,0-2.3-.126,12.244,12.244,0,0,0-2.434.18,12.164,12.164,0,0,0-3.069.824,8.856,8.856,0,0,0-2.709,1.579,9.416,9.416,0,0,0-3.7,7.226,8.414,8.414,0,0,0,1.543,5.361,6.621,6.621,0,0,0,2.709,2.313" transform="translate(0.535 0.006)" fill="#0e4d80"/>
          <path id="Path_116846" data-name="Path 116846" d="M27.661,27.02a23.388,23.388,0,0,0,2.949-6.6c.069-.27.24-.341.479-.413a5.251,5.251,0,0,0,3.978-4.088.335.335,0,0,1,.395-.072,11.391,11.391,0,0,1,4.817,3.946.654.654,0,0,1,.051.251,7.173,7.173,0,0,1-1.372,2.563,15,15,0,0,1-1.628,1.866A11.7,11.7,0,0,1,30.9,27.468a23.059,23.059,0,0,1-2.487,0c-.273,0-.685.071-.754-.449" transform="translate(6.244 3.57)" fill="#0e4d81"/>
          <path id="Path_116847" data-name="Path 116847" d="M1.012,22.6a14.528,14.528,0,0,1-.994-6.1c.788-2.546,2.04-4.859,3-7.315.12-.322.257-.9.841-.52A6.168,6.168,0,0,1,4.082,10.6c.12,1.255.7,2.384.84,3.621-1.063,2.242-1.954,4.555-2.932,6.832A3.451,3.451,0,0,1,1.012,22.6" transform="translate(0 1.928)" fill="#0062a0"/>
          <path id="Path_116848" data-name="Path 116848" d="M43.546,9.333a11.169,11.169,0,0,1,1.028,3.784,2.88,2.88,0,0,1-.12,1.9c-.874,2.6-1.7,5.218-2.554,7.836-.12.376-.206.914-.805.807a3.712,3.712,0,0,1-.326-1.542C40.7,21.006,40.2,20,40.116,18.908c.738-2.851,1.612-5.648,2.539-8.428.153-.466.2-1.112.891-1.147" transform="translate(9.056 2.106)" fill="#0065a5"/>
          <path id="Path_116849" data-name="Path 116849" d="M43.843,9.864A2.327,2.327,0,0,0,43.09,11.3c-.7,2.4-1.629,4.717-2.144,7.173a6.732,6.732,0,0,1-.359.9c-.257.054-.36-.143-.446-.322a21.577,21.577,0,0,1-1.251-2.439,12.175,12.175,0,0,1,.822-2.905c.652-1.829,1.063-3.712,1.629-5.54.137-.466.257-1,.805-1.183a1.059,1.059,0,0,0,.24-.018,9.17,9.17,0,0,1,1.457,2.905" transform="translate(8.779 1.57)" fill="#0063a3"/>
          <path id="Path_116850" data-name="Path 116850" d="M27.786,24.954c.686.43,1.44.125,2.16.2a10.229,10.229,0,0,0,1.286,0c1.989,1.022,4.012,1.972,6.053,2.868.463.2.994.341,1.183.916a16.135,16.135,0,0,1-2.778,1.237c-.343.179-.6-.054-.874-.179-2.247-1.095-4.544-2.045-6.789-3.156-.412-.2-.96-.322-.925-1a3.61,3.61,0,0,1,.685-.879" transform="translate(6.118 5.633)" fill="#005d99"/>
          <path id="Path_116851" data-name="Path 116851" d="M3.342,25.442c-.309-.072-.5-.43-.857-.376a3.241,3.241,0,0,1-.738-1.22,74.337,74.337,0,0,0,3.258-7.853,3,3,0,0,1,.479-.933c.635-.179.721.5,1.064.771.308.413.788.7.908,1.274a1.306,1.306,0,0,1-.12.682C6.359,20.1,5.4,22.394,4.473,24.725c-.206.5-.446,1.022-1.131.717" transform="translate(0.394 3.393)" fill="#005f9b"/>
          <path id="Path_116852" data-name="Path 116852" d="M5.8,15.41c-1.028,2.654-1.9,5.38-3.121,7.961a1.555,1.555,0,0,1-.7.86A8.163,8.163,0,0,1,.829,21.524q1.723-3.791,3.257-7.692a.948.948,0,0,1,.515-.556c.6.162.582.843.96,1.22.12.287.463.52.24.914" transform="translate(0.187 2.996)" fill="#00609d"/>
          <path id="Path_116853" data-name="Path 116853" d="M41.128,22.989c.343-.179.412-.538.532-.879q1.311-4.061,2.657-8.123a3.816,3.816,0,0,0,.239-1.578,13.006,13.006,0,0,1,.309,4.232,18.566,18.566,0,0,1-4.1,10.775c-.086.108-.206.2-.309.305a.639.639,0,0,1-.153-.663,27.367,27.367,0,0,0,.617-3.694.808.808,0,0,1,.206-.376" transform="translate(9.092 2.801)" fill="#0066a8"/>
          <path id="Path_116854" data-name="Path 116854" d="M37.732,29.117c-1.9-1.166-4.012-1.829-5.967-2.887-.462-.251-1.063-.287-1.286-.9a18.1,18.1,0,0,0,3.6-1.075,2.747,2.747,0,0,1,1.44.447c1.389.664,2.778,1.346,4.166,1.991a1.2,1.2,0,0,1,.7.61,9.456,9.456,0,0,1-2.657,1.81" transform="translate(6.88 5.474)" fill="#005c97"/>
          <path id="Path_116855" data-name="Path 116855" d="M38.871,20.425a12.581,12.581,0,0,0-5.109-3.944,10.077,10.077,0,0,0-.206-2.869c.48-.412.96-.089,1.457-.017a6.833,6.833,0,0,1,2.743,1.451A6.839,6.839,0,0,1,39.9,17.86a1.418,1.418,0,0,1,.017.27,10.125,10.125,0,0,1-.206,1.039c-.239.466-.189,1.112-.84,1.255" transform="translate(7.575 3.026)" fill="#18477a"/>
          <path id="Path_116856" data-name="Path 116856" d="M34.886,30.263a11.177,11.177,0,0,1-4.132.556c-1.492-.718-3-1.453-4.491-2.171-.36-.179-.875-.287-.652-.914.429-.484.874-.968,1.3-1.451a.935.935,0,0,1,.891.143c2.007,1.021,4.1,1.81,6.1,2.833.411.215.891.412.977,1" transform="translate(5.769 5.918)" fill="#005f9b"/>
          <path id="Path_116857" data-name="Path 116857" d="M39.719,27.634c-2.108-1.022-4.2-2.026-6.309-3.048.857-.592,1.714-1.2,2.572-1.793a.473.473,0,0,1,.565-.036,34.338,34.338,0,0,1,4.218,2.08c.189.305.069.663.137.987a3.605,3.605,0,0,1-.668,1.451c-.172.126-.343.251-.515.359" transform="translate(7.542 5.12)" fill="#005a94"/>
          <path id="Path_116858" data-name="Path 116858" d="M3.729,9.435c-.84.646-.908,1.721-1.32,2.6-.822,1.758-1.44,3.587-2.383,5.29A17.776,17.776,0,0,1,4.6,4.952a.59.59,0,0,1,.086.663,17.058,17.058,0,0,0-.72,3.46.731.731,0,0,1-.24.359" transform="translate(0.006 1.117)" fill="#0163a2"/>
          <path id="Path_116859" data-name="Path 116859" d="M39.55,29.516A3.473,3.473,0,0,1,40.1,28.1a7.648,7.648,0,0,1,.359-1.542,5.473,5.473,0,0,0,.463-2.1,6.562,6.562,0,0,0,.137-1.631,7.534,7.534,0,0,0-.292-2.223,11.958,11.958,0,0,0-1.457-3.873,12.1,12.1,0,0,0-2.366-2.8c-.206-.2-.5-.322-.5-.682a.886.886,0,0,1,.532-.5.553.553,0,0,1,.24.018,6.136,6.136,0,0,1,2.366,2.583q.772,1.344,1.543,2.689a20.16,20.16,0,0,1,.857,4.84,13.373,13.373,0,0,1-.582,4.035,1.635,1.635,0,0,0-.086.7,7.052,7.052,0,0,1-1.766,1.9" transform="translate(8.227 2.876)" fill="#0e4d81"/>
          <path id="Path_116860" data-name="Path 116860" d="M10.976,15.122c-.069.305-.12.592-.189.9-.685.359-.96-.089-1.217-.628-.685-2.205-1.354-4.41-2.074-6.6a.723.723,0,0,1-.034-.268,1.847,1.847,0,0,1,.994-1,.352.352,0,0,1,.24.125,40.568,40.568,0,0,1,1.7,4.859,7.132,7.132,0,0,1,.635,2.3.36.36,0,0,1-.051.322" transform="translate(1.684 1.697)" fill="#e26b25"/>
          <path id="Path_116861" data-name="Path 116861" d="M28.368,20.826a4.151,4.151,0,0,1-2.779-2.134c-1.25-2.223-.838-4.285.5-6.293a7,7,0,0,1,2.519-2.009,5.05,5.05,0,0,1,3-.3.52.52,0,0,1,.239.2c.12.431-.034.592-.444.61a7,7,0,0,0-1.51.054,5.2,5.2,0,0,0-3.959,3.98,5.3,5.3,0,0,0,2.057,5.594c.119.072.239.2.378.305" transform="translate(5.607 2.254)" fill="#025288"/>
          <path id="Path_116862" data-name="Path 116862" d="M25.937,27.456c.017.5.412.574.737.735,1.3.628,2.606,1.272,3.927,1.9.2.108.411.2.5.449A14.778,14.778,0,0,1,24,29.106c.7-.61,1.32-1.13,1.938-1.65" transform="translate(5.418 6.197)" fill="#01609e"/>
          <path id="Path_116863" data-name="Path 116863" d="M3.043,9.552a16.822,16.822,0,0,1,.856-4.5c.173-.179.326-.376.5-.555a.736.736,0,0,1,.479-.072c.136.574-.275,1-.412,1.525a4.584,4.584,0,0,0-.309,1.434A12.786,12.786,0,0,0,4,10.072c0,.556.016,1.095,0,1.65a8.585,8.585,0,0,0,.5,2.17c.156.86.737,1.56.908,2.421-.069.305-.223.395-.5.268-.412-.322-.429-.914-.789-1.291A15.256,15.256,0,0,1,3.043,9.552" transform="translate(0.687 0.994)" fill="#dbb637"/>
          <path id="Path_116864" data-name="Path 116864" d="M8.949,8.572a2.991,2.991,0,0,1-.857.9A23.466,23.466,0,0,1,6.6,6.886,11.541,11.541,0,0,1,5.023,3.927a.8.8,0,0,1,.154-.376l.514-.376a.59.59,0,0,1,.686.395C7.08,5.093,8.161,6.4,8.812,7.962a1.1,1.1,0,0,1,.137.609" transform="translate(1.134 0.712)" fill="#e87d23"/>
          <path id="Path_116865" data-name="Path 116865" d="M14.113,11.98l-1.183.376c-.515-1.918-1.217-3.765-1.783-5.665a1.912,1.912,0,0,1-.1-.879.65.65,0,0,1,.1-.251.893.893,0,0,1,.618-.268.494.494,0,0,1,.257.089,3.215,3.215,0,0,1,.617,1.453c.412,1.362.807,2.725,1.337,4.034a1.768,1.768,0,0,1,.137,1.112" transform="translate(2.489 1.194)" fill="#e28628"/>
          <path id="Path_116866" data-name="Path 116866" d="M28.359,17.281a1.73,1.73,0,0,1-.7-1.38c.153-.449.565-.575.925-.718a26.615,26.615,0,0,0,2.76-1.4c.257-.143.514-.25.788-.036a1.571,1.571,0,0,1,.463,1.076c-.549.663-1.406.771-2.075,1.2-.7.449-1.423.843-2.16,1.255" transform="translate(6.243 3.076)" fill="#3a61a6"/>
          <path id="Path_116867" data-name="Path 116867" d="M10.774,15.254c-.668-2.564-1.663-5-2.4-7.549-.1-.2.017-.341.12-.484.206-.161.376-.43.668-.161.858,2.134,1.526,4.339,2.2,6.544a.631.631,0,0,1-.051.43c-.172.43-.343.825-.532,1.22" transform="translate(1.882 1.567)" fill="#e27126"/>
          <path id="Path_116868" data-name="Path 116868" d="M13.965,12.023c-.891-2.134-1.44-4.411-2.228-6.581a.713.713,0,0,1,.376-.3,1.262,1.262,0,0,1,.24-.037.555.555,0,0,1,.343.143c.685,1.776,1.372,3.569,1.937,5.4-.239.447.069,1.2-.668,1.38" transform="translate(2.65 1.151)" fill="#e28b28"/>
          <path id="Path_116869" data-name="Path 116869" d="M34.628,30.387A4.458,4.458,0,0,0,32.9,29.294c-2.091-.951-4.166-1.92-6.257-2.888.086-.34.36-.5.583-.7a1.351,1.351,0,0,0,.754.682c2.606,1.22,5.229,2.438,7.834,3.639a2.13,2.13,0,0,1-1.182.359" transform="translate(6.013 5.803)" fill="#015e9a"/>
          <path id="Path_116870" data-name="Path 116870" d="M11.206,14.119c-.72-2.367-1.629-4.661-2.246-7.047a.224.224,0,0,1,0-.251A.534.534,0,0,1,9.577,6.7a2.721,2.721,0,0,1,.807,1.613c.462,1.633,1.028,3.246,1.508,4.877-.222.305-.462.628-.685.933" transform="translate(2.014 1.499)" fill="#e27626"/>
          <path id="Path_116871" data-name="Path 116871" d="M16.779,11.365a5.078,5.078,0,0,1,2.349,2.349c1.011,1.812.669,4.5-.7,5.613-.292,0-.429-.179-.532-.449a5.565,5.565,0,0,0,.24-5.63,18.049,18.049,0,0,0-1.372-1.685c-.051-.054-.069-.089-.051-.143.034-.018.051-.054.069-.054" transform="translate(3.771 2.565)" fill="#7d5d69"/>
          <path id="Path_116872" data-name="Path 116872" d="M35.634,14.382c-.532.054-1.011-.287-1.543-.179a5.511,5.511,0,0,0-2.915-3.1c.223-.484.618-.305.961-.251a7.257,7.257,0,0,1,1.063.305c.514.251,1.149.268,1.543.807.189.43.6.735.771,1.184.154.376.446.788.12,1.237" transform="translate(7.038 2.431)" fill="#183963"/>
          <path id="Path_116873" data-name="Path 116873" d="M12.871,12.441c-.223.162-.463.341-.685.5-.343-.2-.395-.575-.5-.9-.515-1.453-1.011-2.922-1.457-4.393a3.184,3.184,0,0,0-.446-.95.608.608,0,0,1-.069-.251.655.655,0,0,1,.326-.358c.137-.072.275-.162.412-.234a.5.5,0,0,1,.36-.054.489.489,0,0,1,.153.216c.549,1.847,1.236,3.658,1.818,5.5.1.287.309.592.086.914" transform="translate(2.193 1.307)" fill="#e27e27"/>
          <path id="Path_116874" data-name="Path 116874" d="M12.139.3A3.284,3.284,0,0,1,13.7.123c.412-.054.84-.27,1.184.179a2.328,2.328,0,0,0,.753,1.434c.43.467.892.933.635,1.685-.5.287-.96.018-1.439-.054-.6-.2-.755-.824-1.081-1.255A7.287,7.287,0,0,0,12.139.3" transform="translate(2.74 0.005)" fill="#f3c928"/>
          <path id="Path_116875" data-name="Path 116875" d="M32.169,13.9c-.446-.072-.72.305-1.063.466-1.149.556-2.28,1.13-3.412,1.7a1.95,1.95,0,0,1,0-1.13l.051-.322a15.951,15.951,0,0,1,2.709-1.578c.172-.089.36-.179.549-.036.378.268.943.34,1.166.9" transform="translate(6.233 2.918)" fill="#3d66aa"/>
          <path id="Path_116876" data-name="Path 116876" d="M9.88,6.415c.223.125.429.216.532.52.6,1.972,1.251,3.927,1.868,5.881-.154.143-.326.287-.479.43-.395-.143-.395-.555-.5-.86-.532-1.6-1.046-3.209-1.543-4.823a4.043,4.043,0,0,0-.395-.771.245.245,0,0,1-.051-.143c0-.054.017-.071.034-.071.154-.18.326-.287.532-.162" transform="translate(2.103 1.435)" fill="#e27926"/>
          <path id="Path_116877" data-name="Path 116877" d="M12.3.256c.635-.018.925.484,1.234.95.154.233.206.556.515.682A3.658,3.658,0,0,0,14.49,3a1.02,1.02,0,0,1,.172.987c-.343.358-.617.054-.891-.126-.463-.287-.772-.771-1.217-1.075A7.9,7.9,0,0,1,11.439.435,1.269,1.269,0,0,1,12.3.256" transform="translate(2.582 0.057)" fill="#f3c426"/>
          <path id="Path_116878" data-name="Path 116878" d="M18.838,3.359l-.686.717c-.393.126-.582-.179-.72-.466-.515-1.022-1.217-1.918-1.818-2.869-.086-.2-.2-.395-.086-.628a5.57,5.57,0,0,1,1.715.216,2.339,2.339,0,0,1,.994,1.488,12.937,12.937,0,0,0,.6,1.542" transform="translate(3.494 0.021)" fill="#f4d330"/>
          <path id="Path_116879" data-name="Path 116879" d="M9.164,8.353c-.051.125-.12.233-.172.359H8.821c-.754-1.6-1.868-2.994-2.572-4.627a1.6,1.6,0,0,0-.685-.753A2.909,2.909,0,0,1,6.558,2.6c.395-.089.515.216.6.484.514,1.7,1.37,3.264,2.005,4.913a.517.517,0,0,1,0,.359" transform="translate(1.256 0.582)" fill="#e98123"/>
          <path id="Path_116880" data-name="Path 116880" d="M14.489,10.692c-.463-.322-.5-.9-.685-1.38-.48-1.327-.927-2.654-1.372-4,.119-.52.479-.358.805-.3a.523.523,0,0,1,.257.215,18.75,18.75,0,0,1,1.354,4.411,2.575,2.575,0,0,1-.36,1.058" transform="translate(2.806 1.115)" fill="#e29029"/>
          <path id="Path_116881" data-name="Path 116881" d="M12.678,12.494c-.6-1.812-1.217-3.6-1.819-5.415a2.639,2.639,0,0,1-.239-1.2c.188-.251.393-.395.685-.179a16.332,16.332,0,0,0,1.028,3.568c.257.842.515,1.7.789,2.546.069.2-.034.341-.086.5-.12.054-.24.125-.359.179" transform="translate(2.395 1.262)" fill="#e28227"/>
          <path id="Path_116882" data-name="Path 116882" d="M8.985,8.408A34.784,34.784,0,0,1,6.911,3.6c-.12-.341-.1-.789-.532-.951a.962.962,0,0,1,.532-.376,3.611,3.611,0,0,1,1.32,2.205A14.223,14.223,0,0,0,9.414,7.226c.12.2.257.412.069.645v.179c-.154.126-.326.234-.5.359" transform="translate(1.44 0.513)" fill="#ea8823"/>
          <path id="Path_116883" data-name="Path 116883" d="M11.8,6.676c-.223.054-.463.125-.685.179a5.488,5.488,0,0,1-.858-1.4A10.473,10.473,0,0,0,8.716,2.534a1.194,1.194,0,0,1-.342-1.058.4.4,0,0,1,.359-.18c.549-.2.772.234.978.61.188.341.29.717.634.933a11.727,11.727,0,0,1,1.475,3.675.469.469,0,0,0-.017.162" transform="translate(1.886 0.281)" fill="#eda324"/>
          <path id="Path_116884" data-name="Path 116884" d="M28.23,17.058c.5-.879,1.492-1.022,2.228-1.542a11.1,11.1,0,0,1,2.024-.933,2.235,2.235,0,0,1-.137,1.453,7.06,7.06,0,0,0-2.606,1.184c-.223.125-.395.341-.652.395a1.522,1.522,0,0,1-.857-.556" transform="translate(6.373 3.291)" fill="#395ea3"/>
          <path id="Path_116885" data-name="Path 116885" d="M13.8,6.117c-.292.036-.618-.125-.857.179H12.6a7.235,7.235,0,0,0-1.354-2.958A5.4,5.4,0,0,1,10.2.756a.945.945,0,0,1,.685-.2,8.218,8.218,0,0,1,.841,1.866,2.831,2.831,0,0,0,.84,1.183A5.9,5.9,0,0,1,14.192,5.92a.29.29,0,0,1-.395.2" transform="translate(2.302 0.125)" fill="#f0b925"/>
          <path id="Path_116886" data-name="Path 116886" d="M18.517,3.325a.713.713,0,0,1-.446-.5A9.511,9.511,0,0,0,16.922.3a6.784,6.784,0,0,1,1.886.484c.376.412,1.011.663.857,1.416-.395.378-.771.754-1.149,1.13" transform="translate(3.82 0.066)" fill="#f4d632"/>
          <path id="Path_116887" data-name="Path 116887" d="M13.117,5.151c.12-.054.223-.125.343-.179a.414.414,0,0,1,.24-.143.6.6,0,0,1,.514.125A14.02,14.02,0,0,1,15.208,8.4a4.291,4.291,0,0,1-.531,1.272c-.669-1.47-.977-3.047-1.56-4.518" transform="translate(2.961 1.086)" fill="#e2952a"/>
          <path id="Path_116888" data-name="Path 116888" d="M15.788,3.274a3.37,3.37,0,0,0-1.114-1.793A1.15,1.15,0,0,1,14.245.405c.824.072,1.166.771,1.543,1.363a9.176,9.176,0,0,0,1.3,1.758c.24.43.635.788.6,1.345-.223.305-.326.717-.669.95a3.734,3.734,0,0,1-1.234-2.546" transform="translate(3.213 0.091)" fill="#f2cb2d"/>
          <path id="Path_116889" data-name="Path 116889" d="M9.4,7.919C8.283,6.18,7.974,4.045,6.808,2.325c.1-.054.189-.125.292-.179a.471.471,0,0,1,.7.268C8.4,4.082,9.311,5.587,9.98,7.22a.313.313,0,0,1-.069.322v.179c-.172.072-.343.143-.515.2" transform="translate(1.537 0.47)" fill="#ea8d23"/>
          <path id="Path_116890" data-name="Path 116890" d="M16.2,13.284a.731.731,0,0,1,.429.395,2.43,2.43,0,0,1-.841,1.112c-.943.842-1.851,1.756-2.726,2.671a.954.954,0,0,1-.5-.574c-.017-.054-.051-.125-.017-.161a19.064,19.064,0,0,1,3.257-3.461c.1-.125.275-.054.395.018" transform="translate(2.83 2.979)" fill="#e4a02c"/>
          <path id="Path_116891" data-name="Path 116891" d="M15.792,2.781c.257.933.908,1.631,1.217,2.546L16.8,5.65a.771.771,0,0,1-.565-.054,2.187,2.187,0,0,1-.669-.27A9.7,9.7,0,0,0,14.4,3.265a.586.586,0,0,1-.137-.663c.5.054,1.011.125,1.526.179" transform="translate(3.208 0.587)" fill="#f2c82b"/>
          <path id="Path_116892" data-name="Path 116892" d="M17.186,3.719a3.137,3.137,0,0,1-1.166-1.4A4.839,4.839,0,0,0,14.443.492c-.189-.646-.7-.216-1.046-.359a6.005,6.005,0,0,1,2.589.018c.051.179.12.359.172.538a11.747,11.747,0,0,1,1.028,2.384c.069.2.189.43,0,.646" transform="translate(3.024 -0.001)" fill="#f3ce2e"/>
          <path id="Path_116893" data-name="Path 116893" d="M16.9,14.593a3.43,3.43,0,0,1-.017,1.255,17.768,17.768,0,0,1-1.68,1.775A1.68,1.68,0,0,1,13.8,17.7c.172-.86,2.3-2.994,3.1-3.1" transform="translate(3.114 3.294)" fill="#e29029"/>
          <path id="Path_116894" data-name="Path 116894" d="M11.428,2.556A6.676,6.676,0,0,1,10.743.583a1.206,1.206,0,0,1,.822-.2c.582.305.514.987.805,1.47.137.234.12.592.429.7.154.359.5.646.36,1.093a2.01,2.01,0,0,1-1.732-1.093" transform="translate(2.425 0.087)" fill="#f2bf24"/>
          <path id="Path_116895" data-name="Path 116895" d="M28.953,17.406c.754-1.022,1.955-1.255,2.949-1.847.223-.125.275.108.309.287-.635,1.506-1.972,2.152-3.258,1.56" transform="translate(6.536 3.504)" fill="#3a5da1"/>
          <path id="Path_116896" data-name="Path 116896" d="M10.614,16.53c.685,1.274,1.32,2.564,2.795,3.066.069.216-.034.324-.206.413-.378.018-.7-.233-1.08-.216a2.423,2.423,0,0,1-1.372-.734,6.115,6.115,0,0,0-.891-1.812.568.568,0,0,1-.034-.807.626.626,0,0,1,.788.089" transform="translate(2.184 3.688)" fill="#942"/>
          <path id="Path_116897" data-name="Path 116897" d="M12.585,6.22a.344.344,0,0,1-.343.179H12.07a8.544,8.544,0,0,1-1.1-2.08,8.451,8.451,0,0,0-.891-1.488c-.223-.609-.772-1.112-.6-1.864.12-.036.24-.089.36-.126.618,0,.652.575.84.968.24.467.309,1.022.755,1.363.395.754.72,1.542,1.063,2.313.1.233.309.467.086.735" transform="translate(2.133 0.189)" fill="#efaf24"/>
          <path id="Path_116898" data-name="Path 116898" d="M14.347,12.879A1.841,1.841,0,0,1,15.581,13a5.543,5.543,0,0,1-1.337,1.579,24.216,24.216,0,0,0-1.783,2.008,2.039,2.039,0,0,1-.17-1.417,11.208,11.208,0,0,1,2.057-2.295" transform="translate(2.765 2.897)" fill="#e4ad2e"/>
          <path id="Path_116899" data-name="Path 116899" d="M12.989,17.374A4.181,4.181,0,0,1,14.5,15.545c.7-.628,1.337-1.327,2.04-1.955l.36.538c-.017.054-.017.126-.051.162a25.377,25.377,0,0,1-3.5,3.371.5.5,0,0,1-.36-.287" transform="translate(2.932 3.067)" fill="#e49b2b"/>
          <path id="Path_116900" data-name="Path 116900" d="M12.432,16.554a.744.744,0,0,1,.206-.646c.977-.968,1.851-2.062,2.915-2.941a.812.812,0,0,1,.685.359c-.395.017-.6.322-.822.574-.944,1-1.869,2.008-2.812,3.013-.051-.108-.1-.234-.172-.359" transform="translate(2.805 2.927)" fill="#e4a72d"/>
          <path id="Path_116901" data-name="Path 116901" d="M9.867,7.606a21.189,21.189,0,0,0-1.011-2.08A23.344,23.344,0,0,1,7.69,2.8c-.137-.324-.257-.575-.635-.592a.942.942,0,0,1,.583-.341,1.087,1.087,0,0,1,.634.574c.635,1.631,1.475,3.173,2.109,4.823v.179c-.172.037-.343.108-.515.162" transform="translate(1.593 0.421)" fill="#eb9223"/>
          <path id="Path_116902" data-name="Path 116902" d="M33.737,11.495c-.7.036-1.337-.592-2.057-.233a7.006,7.006,0,0,0-2.726-.341c.411-.287.874-.108,1.32-.126.376-.017.6-.107.565-.537.721-.467,1.389.036,2.075.107.548.234,1.269.091,1.611.789-.12.449-.411.5-.788.341" transform="translate(6.536 2.271)" fill="#054f85"/>
          <path id="Path_116903" data-name="Path 116903" d="M10.789,17.078H9.967c-.172.036-.257-.072-.326-.2-.223-.609-.395-1.237-.583-1.847a1.127,1.127,0,0,1,.017-1.021.276.276,0,0,1,.378.017.9.9,0,0,0,1.028.538,8.828,8.828,0,0,0,.309,2.51" transform="translate(2.018 3.148)" fill="#de6028"/>
          <path id="Path_116904" data-name="Path 116904" d="M13.288,17.553a39.548,39.548,0,0,1,3.549-3.533.884.884,0,0,1,.189.717,14.918,14.918,0,0,0-3.1,3.121,1.419,1.419,0,0,1-.635-.305" transform="translate(3 3.164)" fill="#e2942b"/>
          <path id="Path_116905" data-name="Path 116905" d="M16.674,3.6c-.343-1.022-.685-2.026-1.028-3.048A11.44,11.44,0,0,1,17.428,3.2a1.386,1.386,0,0,0,.669.771c-.275.251-.343.717-.754.843-.206-.395-.429-.808-.669-1.22" transform="translate(3.532 0.123)" fill="#f2cf2f"/>
          <path id="Path_116906" data-name="Path 116906" d="M10.883,6.961a.344.344,0,0,1-.343.179c-.668-.251-.822-.932-1.046-1.488C9.049,4.54,8.415,3.518,7.986,2.406c-.12-.3-.223-.537-.017-.807a.479.479,0,0,1,.172-.036A3.972,3.972,0,0,1,9.254,3.088c.652,1.112,1.131,2.313,1.7,3.461a.369.369,0,0,1-.069.412" transform="translate(1.772 0.353)" fill="#ec9a23"/>
          <path id="Path_116907" data-name="Path 116907" d="M10.834,6.995A50.9,50.9,0,0,0,8.091,1.6a.378.378,0,0,1,.343-.162C9.6,2.889,10.149,4.717,11.074,6.3a1.632,1.632,0,0,1,.1.52c-.1.054-.223.125-.343.179" transform="translate(1.826 0.324)" fill="#ed9e24"/>
          <path id="Path_116908" data-name="Path 116908" d="M15.039,8.39a14.712,14.712,0,0,1-1.046-3.406.642.642,0,0,1,.651-.18.863.863,0,0,1,.257.126,4.545,4.545,0,0,1,.652,2.4c-.223.341-.223.789-.515,1.058" transform="translate(3.159 1.08)" fill="#e49b2b"/>
          <path id="Path_116909" data-name="Path 116909" d="M8.051,1.593a4.217,4.217,0,0,0,.874,2.242,28.361,28.361,0,0,0,1.7,3.3.344.344,0,0,1-.343.179A5.2,5.2,0,0,1,9.234,5.52a27.1,27.1,0,0,0-1.7-3.587.974.974,0,0,1,.515-.341" transform="translate(1.701 0.359)" fill="#eb9523"/>
          <path id="Path_116910" data-name="Path 116910" d="M30.972,13c-.771.412-1.56.825-2.331,1.255a1.506,1.506,0,0,1-.927.359A2.4,2.4,0,0,1,30.972,13" transform="translate(6.256 2.895)" fill="#3e68ad"/>
          <path id="Path_116911" data-name="Path 116911" d="M15.361,7.351a14.328,14.328,0,0,1-.7-2.367.493.493,0,0,1,.359-.2c.326-.036.618.162.927.126a.991.991,0,0,1,.462.628c-.343.609-.685,1.2-1.046,1.81" transform="translate(3.309 1.079)" fill="#e4a02c"/>
          <path id="Path_116912" data-name="Path 116912" d="M14.342,12.867a9.155,9.155,0,0,1-2.04,2.295,2.356,2.356,0,0,1,2.04-2.295" transform="translate(2.777 2.904)" fill="#e4b230"/>
          <path id="Path_116913" data-name="Path 116913" d="M9.665.956c.137.663.651,1.147.7,1.847.051.161-.017.233-.17.179-.5.089-.549-.341-.635-.663a1.187,1.187,0,0,0-.891-.951A2.237,2.237,0,0,1,9.665.956" transform="translate(1.957 0.215)" fill="#f0a924"/>
          <path id="Path_116914" data-name="Path 116914" d="M11.748,18.987c.395-.054.685.2,1.028.341.257-.216.583.018.841-.125a.3.3,0,0,1,.359.143c.309.824-.308.7-.72.771a1.793,1.793,0,0,1-.429,0,1.407,1.407,0,0,1-1.1-.395.993.993,0,0,1,.017-.735" transform="translate(2.634 4.284)" fill="#a77253"/>
          <path id="Path_116915" data-name="Path 116915" d="M17.93,17.494a.729.729,0,0,1,.411.376,1.522,1.522,0,0,1-1.32,1.506c-.223-.125-.429-.268-.378-.592q.644-.618,1.287-1.291" transform="translate(3.755 3.949)" fill="#866066"/>
          <path id="Path_116916" data-name="Path 116916" d="M19.3,2.1c-.1-.592-.754-.825-.857-1.417a6.054,6.054,0,0,1,1.817.61,1.765,1.765,0,0,1-.96.807" transform="translate(4.164 0.153)" fill="#f4da37"/>
          <path id="Path_116917" data-name="Path 116917" d="M11.311,3.214c-.515-.036-.566-.484-.7-.86A2.79,2.79,0,0,0,9.768.883.567.567,0,0,1,10.283.7c.393.843.805,1.667,1.2,2.51-.051.054-.1.054-.172,0" transform="translate(2.205 0.157)" fill="#f1b525"/>
          <path id="Path_116918" data-name="Path 116918" d="M14.883,19.372c.463-.125.925-.233,1.372-.359a.662.662,0,0,1,.223.628,1.349,1.349,0,0,1-1.08.467,1.476,1.476,0,0,1-.789-.126.36.36,0,0,1-.137-.358c.051-.251.275-.162.412-.251" transform="translate(3.266 4.292)" fill="#98665c"/>
          <path id="Path_116919" data-name="Path 116919" d="M14.941,17.422a3.918,3.918,0,0,1,1.68-1.775,2.267,2.267,0,0,1-1.68,1.775" transform="translate(3.373 3.532)" fill="#e38d2c"/>
          <path id="Path_116920" data-name="Path 116920" d="M14.9,19.467v.359a.52.52,0,0,1-.292.341c-.6,0-1.286.447-1.748-.341.359-.054.891.2.857-.538.172,0,.343.017.515.017.2.162.479-.036.668.162" transform="translate(2.902 4.354)" fill="#9a6b5d"/>
          <path id="Path_116921" data-name="Path 116921" d="M16.108,19.621c-.206-.108-.189-.322-.189-.52.292-.179.566-.359.857-.556.1.18.36.234.343.5-.172.5-.462.789-1.011.574" transform="translate(3.593 4.186)" fill="#8e6462"/>
          <path id="Path_116922" data-name="Path 116922" d="M5.386,3.5v.322c-.156.233-.156.556-.378.754a.447.447,0,0,1-.31.161c-.188,0-.358-.017-.547-.017A6.154,6.154,0,0,1,5.386,3.5" transform="translate(0.937 0.79)" fill="#d8b23a"/>
          <path id="Path_116923" data-name="Path 116923" d="M16.179,5.511a.578.578,0,0,1-.395-.556c.051-.071.1-.071.172-.017.172.054.326.125.5.179-.1.143-.189.27-.275.395" transform="translate(3.563 1.105)" fill="#e5a731"/>
          <path id="Path_116924" data-name="Path 116924" d="M16.931,11.444a.916.916,0,0,1-.017.216,2.494,2.494,0,0,1-.874-.592,1.175,1.175,0,0,1,.891.376" transform="translate(3.621 2.498)" fill="#8b696e"/>
          <path id="Path_116925" data-name="Path 116925" d="M13.416,19.19c-.257.251-.566.108-.84.125.051-.107.12-.215.17-.341l.669.216" transform="translate(2.839 4.283)" fill="#885c47"/>
          <path id="Path_116926" data-name="Path 116926" d="M27.7,14.566V15.7a1.3,1.3,0,0,1,0-1.13" transform="translate(6.223 3.288)" fill="#3e68ad"/>
          <path id="Path_116927" data-name="Path 116927" d="M14.645,19.455c-.223-.036-.5.072-.686-.162h1.012c-.1.054-.206.108-.326.162" transform="translate(3.151 4.355)" fill="#856768"/>
          <path id="Path_116928" data-name="Path 116928" d="M16.741,20.812a2.145,2.145,0,0,0,1.011-.574,2.477,2.477,0,0,0,1.372-1.417,5.143,5.143,0,0,0,1.063-4.429c-.069-.376-.17-.753-.239-1.112a5.969,5.969,0,0,1,1.406,3.676,6.412,6.412,0,0,1,.017.985,2.108,2.108,0,0,1,0,1.255,7.927,7.927,0,0,1-1.783,4.734,10.826,10.826,0,0,1-6.275,4.035c-.378-.556-.034-1.022.153-1.506.652-1.721,1.457-3.371,2.11-5.093a.606.606,0,0,1,.189-.179,1.844,1.844,0,0,0,.977-.376" transform="translate(2.967 2.998)" fill="#00578f"/>
          <path id="Path_116929" data-name="Path 116929" d="M39.44,16.97a23.13,23.13,0,0,0-2.4-2.51,11.678,11.678,0,0,1,.582-2.762c.463-1.883,1.217-3.658,1.766-5.5.086-.268.172-.591.566-.52a7.518,7.518,0,0,1,2.572,1.614,5.745,5.745,0,0,0-.944,2.367,71.764,71.764,0,0,1-2.091,6.867,3.988,3.988,0,0,0-.051.449" transform="translate(8.361 1.278)" fill="#0062a0"/>
          <path id="Path_116930" data-name="Path 116930" d="M3.046,25.08c1.063,0,.994-1.039,1.269-1.65.874-1.918,1.612-3.909,2.417-5.863a1.943,1.943,0,0,0,.257-.933.243.243,0,0,1,.223-.036c.446.322.84.7,1.286,1.022.309.268.737.412.874.878a8.723,8.723,0,0,1-.822,2.8C7.9,22.91,7.2,24.506,6.543,26.119a1,1,0,0,1-.411.556,8,8,0,0,1-3.086-1.6" transform="translate(0.688 3.744)" fill="#005d99"/>
          <path id="Path_116931" data-name="Path 116931" d="M12.659,19.573a1.669,1.669,0,0,0,1.063.359c.154.86-.395,1.524-.651,2.259A34.917,34.917,0,0,1,11,27.247a9.083,9.083,0,0,1-3.6-.359,3.783,3.783,0,0,0,.7-1.4c.635-1.578,1.218-3.191,1.989-4.715A6.243,6.243,0,0,0,10.637,19a.3.3,0,0,1,.239-.108,3.488,3.488,0,0,1,1.783.682" transform="translate(1.67 4.264)" fill="#005a94"/>
          <path id="Path_116932" data-name="Path 116932" d="M11.056,19.242c.395.682-.137,1.22-.36,1.721A55.339,55.339,0,0,0,8.433,26.63.56.56,0,0,1,7.8,27.1a5.2,5.2,0,0,1-2.228-.717c.669-2.026,1.646-3.909,2.383-5.9a9.4,9.4,0,0,0,.721-2.367c.257-.2.5-.036.72.072.515.43,1.337.322,1.663,1.058" transform="translate(1.257 4.067)" fill="#005c97"/>
          <path id="Path_116933" data-name="Path 116933" d="M10.334,27.069a22.415,22.415,0,0,1,1.251-3.46c.429-1.309.977-2.583,1.475-3.855.12-.018.24-.018.36-.037a4.17,4.17,0,0,0,1.885.162,1.675,1.675,0,0,1,1.028.018c-.222,1.38-1.046,2.492-1.456,3.8a9.093,9.093,0,0,0-.944,2.851,9.828,9.828,0,0,1-3.6.52" transform="translate(2.333 4.45)" fill="#005992"/>
          <path id="Path_116934" data-name="Path 116934" d="M33.72,12.424c-.446-.376-1.028-.341-1.543-.538a.865.865,0,0,1,0-.842c.618-2.063,1.354-4.089,1.921-6.151a1.232,1.232,0,0,1,.308-.52,6.751,6.751,0,0,1,2.4.179.835.835,0,0,1,.1.843c-.7,2.349-1.56,4.643-2.144,7.028-.017.089-.086.143-.137.216a.724.724,0,0,1-.908-.216" transform="translate(7.238 0.982)" fill="#005d99"/>
          <path id="Path_116935" data-name="Path 116935" d="M34.1,12.577a53.053,53.053,0,0,1,1.989-6.868,2.906,2.906,0,0,0,.239-1.2,6,6,0,0,1,2.23.538,11.93,11.93,0,0,1-.652,3.013C37.394,9.51,37,11,36.519,12.469a2.4,2.4,0,0,1-.479,1.041,2.05,2.05,0,0,1-1.938-.933" transform="translate(7.698 1.017)" fill="#005e9b"/>
          <path id="Path_116936" data-name="Path 116936" d="M34.831,4.355c-.48,2.438-1.44,4.715-2.108,7.1a4.029,4.029,0,0,1-.12.43,9.059,9.059,0,0,0-2.058-.359h-.172a.932.932,0,0,1-.154-.842A44.347,44.347,0,0,1,31.8,5.144a.972.972,0,0,1,.463-.61,11.358,11.358,0,0,1,2.572-.179" transform="translate(6.814 0.98)" fill="#005c97"/>
          <path id="Path_116937" data-name="Path 116937" d="M35.643,13.379c.618-1.937,1.217-3.873,1.835-5.81a9.822,9.822,0,0,1,.737-2.617,4.642,4.642,0,0,1,2.058.9c-.275.125-.292.376-.36.646-.755,2.438-1.7,4.823-2.212,7.334a3.648,3.648,0,0,1-.342.807h-.172c-.583-.322-1.32-.43-1.543-1.255" transform="translate(8.046 1.117)" fill="#00609e"/>
          <path id="Path_116938" data-name="Path 116938" d="M26.432,13.189a10.5,10.5,0,0,0-1.046,2.385,7.313,7.313,0,0,0,.36,3.891,6.456,6.456,0,0,1-1.526-3.406,9.41,9.41,0,0,1,1.714-7.549,5.382,5.382,0,0,1,2.041-1.972c.446.645.154,1.255-.051,1.864-.549,1.6-1.1,3.156-1.492,4.788" transform="translate(5.425 1.475)" fill="#005891"/>
          <path id="Path_116939" data-name="Path 116939" d="M32.8,4.5a56.111,56.111,0,0,0-1.852,6.276,4.892,4.892,0,0,0-.034.717,8.155,8.155,0,0,0-3.085.359.837.837,0,0,1-.034-.61c.565-1.972,1.234-3.909,1.92-5.846A13.285,13.285,0,0,1,32.8,4.5" transform="translate(6.266 1.016)" fill="#005a94"/>
          <path id="Path_116940" data-name="Path 116940" d="M30.141,5.233a8.952,8.952,0,0,1-.72,2.833c-.446,1.2-.789,2.4-1.167,3.622a12.178,12.178,0,0,0-2.228,1.793c-.309-.287-.12-.592-.017-.9.446-1.363.891-2.726,1.372-4.089a4.492,4.492,0,0,0,.206-1.649,6.265,6.265,0,0,1,2.554-1.614" transform="translate(5.837 1.181)" fill="#005992"/>
          <path id="Path_116941" data-name="Path 116941" d="M19.851,18.335V17.08a1.059,1.059,0,0,1,0,1.255" transform="translate(4.481 3.855)" fill="#13588c"/>
          <path id="Path_116942" data-name="Path 116942" d="M40.315,25.269l-4.321-1.991a4.886,4.886,0,0,0-.479-.161c.514-.592,1.028-1.2,1.542-1.793A6.752,6.752,0,0,1,40.3,22.651a3.1,3.1,0,0,1,.017,2.618" transform="translate(8.017 4.813)" fill="#005992"/>
          <path id="Path_116943" data-name="Path 116943" d="M37.894,19.378c.395-.322.378-.879.685-1.255.429-.251.7.054.978.305a9.7,9.7,0,0,1,.908,3.012,1.757,1.757,0,0,1-.12,1.184.776.776,0,0,1-.805.125,22.186,22.186,0,0,1-1.646-3.192Z" transform="translate(8.554 4.069)" fill="#00518a"/>
          <path id="Path_116944" data-name="Path 116944" d="M38.141,19.279a6.731,6.731,0,0,1,1.543,3.048c.275.179.411.395.172.717a27.393,27.393,0,0,1-3.086-1.255,11.379,11.379,0,0,0,1.372-2.51" transform="translate(8.3 4.352)" fill="#005890"/>
          <path id="Path_116945" data-name="Path 116945" d="M4.554,14.394c.206-.018.378-.089.395-.341.29-.143.325.143.462.268.172.575.755.9.841,1.525-.069.233-.172.412-.446.322-.275-.3-.566-.609-.84-.914l-.412-.86" transform="translate(1.028 3.163)" fill="#d3a73d"/>
          <path id="Path_116946" data-name="Path 116946" d="M5.564,15.853a.636.636,0,0,0,.378-.412c.462.125.634.591.96.9.154.341.154.592-.292.592a.445.445,0,0,1-.154-.018c-.308-.341-.6-.7-.891-1.058" transform="translate(1.256 3.485)" fill="#cea240"/>
          <path id="Path_116947" data-name="Path 116947" d="M36.637,13.212a18.612,18.612,0,0,1,2.709,2.922c.086.143.137.324.206.467.137.538.292,1.093-.343,1.434a8.653,8.653,0,0,0-2.057-2.689A5.171,5.171,0,0,0,36.1,13.661a.679.679,0,0,1-.2-.789c.376-.179.582.018.737.341" transform="translate(8.092 2.89)" fill="#16355c"/>
          <path id="Path_116948" data-name="Path 116948" d="M36.371,13.082a1.121,1.121,0,0,0,.429.843,1.873,1.873,0,0,1,.771,1.667A11.083,11.083,0,0,0,35,14.158c.069-.968-.72-1.542-1.028-2.35a2.482,2.482,0,0,1,2.4,1.274" transform="translate(7.669 2.658)" fill="#17365f"/>
          <path id="Path_116949" data-name="Path 116949" d="M38.583,17.35a4.6,4.6,0,0,0,.343-1.434,8.739,8.739,0,0,1,1.543,3.944c-.824.2-.789-.735-1.236-1.022a2.308,2.308,0,0,1-.651-1.309Z" transform="translate(8.71 3.592)" fill="#123f6d"/>
          <path id="Path_116950" data-name="Path 116950" d="M38.613,17.231a5.454,5.454,0,0,1,.685,1.255.106.106,0,0,1,.051.125c-.017.037-.033.054-.051.054-.291-.125-.565-.233-.857-.358.069-.359.12-.717.172-1.076" transform="translate(8.678 3.889)" fill="#044f86"/>
          <path id="Path_116951" data-name="Path 116951" d="M39.323,22.476a1.144,1.144,0,0,0-.172-.717h.857a1.01,1.01,0,0,1,.326.645,9.645,9.645,0,0,1-.326,2.223c-.291.43-.033,1.076-.514,1.435a.782.782,0,0,1,0-.9,9.431,9.431,0,0,0-.172-2.689" transform="translate(8.838 4.911)" fill="#01548e"/>
          <path id="Path_116952" data-name="Path 116952" d="M36.63,13.272a5.219,5.219,0,0,0-2.4-1.255c-.36-.449-.977-.322-1.372-.7a.605.605,0,0,0,.685-.359c.292.054.566.125.858.179a12.179,12.179,0,0,0,1.885.9c.395.591,1.183.628,1.543,1.255-.172.107-.257.393-.514.358a5.189,5.189,0,0,0-.686-.376" transform="translate(7.417 2.473)" fill="#094e83"/>
          <path id="Path_116953" data-name="Path 116953" d="M39.151,18.436v-.179c.5.233.6.968,1.2,1.075a5.715,5.715,0,0,1,.343,2.152c-.275.143-.48,0-.686-.179-.342-.933-.428-1.955-.857-2.869" transform="translate(8.838 4.121)" fill="#0f4171"/>
          <path id="Path_116954" data-name="Path 116954" d="M39.832,20.742a1.048,1.048,0,0,1,.685.179,4.837,4.837,0,0,1-.17,1.793c-.189.108-.24-.071-.343-.179-.206-.126-.154-.341-.172-.538Z" transform="translate(8.992 4.68)" fill="#0d4375"/>
          <path id="Path_116955" data-name="Path 116955" d="M40.02,22.206c.12.054.223.125.343.179a4.238,4.238,0,0,1-.515,2.152,21.3,21.3,0,0,1,.172-2.331" transform="translate(8.99 5.012)" fill="#074679"/>
          <path id="Path_116956" data-name="Path 116956" d="M9.969,15.256H9.626a2.506,2.506,0,0,1-1.834-1.471,22.718,22.718,0,0,0-1.166-3.658,1.272,1.272,0,0,1,.291-.985c.257-.251.309-.754.824-.682a.583.583,0,0,1,.325.376c.635,2.134,1.269,4.268,1.9,6.419" transform="translate(1.49 1.908)" fill="#df6626"/>
          <path id="Path_116957" data-name="Path 116957" d="M8.178,9.505l-.685.717A13.945,13.945,0,0,1,5.452,6.529a12.534,12.534,0,0,0-.788-1.685.476.476,0,0,1,.069-.378c.153-.25.222-.574.514-.717a31.415,31.415,0,0,0,2.161,3.8,7.432,7.432,0,0,1,.771,1.776Z" transform="translate(1.051 0.846)" fill="#e67924"/>
          <path id="Path_116958" data-name="Path 116958" d="M5.4,14.865c-.12-.108-.223-.216-.343-.341a8.488,8.488,0,0,1-.994-2.205c.172-.7.6-.5,1.011-.341a1.671,1.671,0,0,1,.618.842,1.365,1.365,0,0,1,.137.646,2.723,2.723,0,0,1-.429,1.4" transform="translate(0.916 2.669)" fill="#a14122"/>
          <path id="Path_116959" data-name="Path 116959" d="M4.907,4.347v.376a4.754,4.754,0,0,1,.257,2.242,2.223,2.223,0,0,1-.172.95c-.429.305-.652,0-.874-.322C3.827,7,4.2,6.392,4.067,5.8c.222-.413.428-.843.651-1.255a2,2,0,0,0,.189-.2" transform="translate(0.904 0.981)" fill="#df6825"/>
          <path id="Path_116960" data-name="Path 116960" d="M5.177,12.5c-.36-.054-.754-.359-1.011.179a7.124,7.124,0,0,1-.5-2.151c.549-.484.755.215,1.114.358A1.861,1.861,0,0,1,5.177,12.5" transform="translate(0.827 2.339)" fill="#a54322"/>
          <path id="Path_116961" data-name="Path 116961" d="M3.612,9.578A10.733,10.733,0,0,1,3.8,6.709c.36-.179.395.091.412.359a16.429,16.429,0,0,1,.2,2.6.556.556,0,0,1-.086.27c-.393.25-.531-.108-.72-.359" transform="translate(0.809 1.501)" fill="#b04a23"/>
          <path id="Path_116962" data-name="Path 116962" d="M3.607,9.036c.24.108.378.376.685.359a1.714,1.714,0,0,1,.343,1.792c-.411.108-.514-.628-.977-.376L3.607,9.036" transform="translate(0.814 2.039)" fill="#aa4622"/>
          <path id="Path_116963" data-name="Path 116963" d="M4.1,7.313a.3.3,0,0,0-.326-.341c-.086-.52.275-.95.343-1.434.309.574.086,1.183.137,1.775a.094.094,0,0,1-.154,0" transform="translate(0.848 1.25)" fill="#b75829"/>
          <path id="Path_116964" data-name="Path 116964" d="M9.913,2.635l.17-.179c1.064.95,1.373,2.33,1.885,3.585-.119.216-.325.18-.512.18-.515-1.2-1.03-2.385-1.543-3.587" transform="translate(2.238 0.554)" fill="#edab24"/>
          <path id="Path_116965" data-name="Path 116965" d="M11.017,2.753h.172a3.94,3.94,0,0,1,1.2,3.048h-.172a19.3,19.3,0,0,1-1.2-3.048" transform="translate(2.487 0.621)" fill="#efb423"/>
          <path id="Path_116966" data-name="Path 116966" d="M14.414,2.842c.395.933,1.32,1.56,1.372,2.689-.154.143-.343.072-.5.089a2,2,0,0,1-1.217-1.883c.137-.788-.651-1.362-.514-2.151.308.412.393.968.857,1.255" transform="translate(3.057 0.358)" fill="#f2c529"/>
          <path id="Path_116967" data-name="Path 116967" d="M14.318,3.588c.378.609.515,1.417,1.2,1.793.051.036.069.071.051.108s-.034.054-.051.054a2.3,2.3,0,0,0-.343.017H15c-.256-.179-.565-.017-.857-.108a.719.719,0,0,1-.429-.52,3.627,3.627,0,0,0-.96-1.7,1.99,1.99,0,0,1-.343-1.075c.669.447,1.081,1.237,1.9,1.434" transform="translate(2.801 0.486)" fill="#f1c128"/>
          <path id="Path_116968" data-name="Path 116968" d="M13.028,3.23A1.311,1.311,0,0,1,14.039,4.4a3.973,3.973,0,0,0,.36.985c-.086.126-.257.054-.343.18h-.172a11.474,11.474,0,0,0-2.091-2.51,1.211,1.211,0,0,1-.48-.9A8.622,8.622,0,0,0,13.028,3.23" transform="translate(2.554 0.486)" fill="#f0bd25"/>
          <path id="Path_116969" data-name="Path 116969" d="M13.536,4.968c.069-.143.206-.162.343-.179.292.054.617-.126.857.179-.223,0-.463,0-.685.018a4.818,4.818,0,0,0-.515-.018" transform="translate(3.056 1.079)" fill="#f0c138"/>
          <path id="Path_116970" data-name="Path 116970" d="M14.938,4.96V4.8h.515c.239.037.5-.089.685.18A.584.584,0,0,0,15.966,5c-.343-.017-.685-.017-1.028-.036" transform="translate(3.372 1.083)" fill="#f0c73c"/>
          <path id="Path_116971" data-name="Path 116971" d="M9.942,16.471c.069.054.12.108.189.162-.1.484.326.628.515.932a3.181,3.181,0,0,1,.514,1.56c-.24.216-.5.072-.754.036a1.962,1.962,0,0,1-1.3-.878,4.661,4.661,0,0,0-.686-1.489.611.611,0,0,1-.069-.734.471.471,0,0,1,.378-.108,2.754,2.754,0,0,1,1.217.52" transform="translate(1.863 3.599)" fill="#943f20"/>
          <path id="Path_116972" data-name="Path 116972" d="M10.063,18.4c.223.054.463.108.686.162.479.143.857.538,1.37.538.086.2.257.412-.05.574a4.825,4.825,0,0,1-1.835-.592.59.59,0,0,1-.172-.682" transform="translate(2.261 4.154)" fill="#b17a4f"/>
          <path id="Path_116973" data-name="Path 116973" d="M10.1,17.169a1.778,1.778,0,0,1-1.183-.376c-.154-.126-.378-.18-.446-.395a8.017,8.017,0,0,1-.84-3.46.5.5,0,0,0,.086-.108,8.311,8.311,0,0,0,1.714,1.434c-.033,1.041.635,1.883.669,2.905" transform="translate(1.717 2.896)" fill="#db5b27"/>
          <path id="Path_116974" data-name="Path 116974" d="M15.417,19.88c-.343,0-.685-.018-1.028-.018.051-.054.12-.107.172-.161.308,0,.6.017.908.017a.843.843,0,0,1-.051.162" transform="translate(3.248 4.447)" fill="#8e6462"/>
          <path id="Path_116975" data-name="Path 116975" d="M6.414,16.744c.275-.108.326-.287.172-.538.857-.108,1.063.663,1.492,1.166,0,.341-.017.646-.463.449a3.931,3.931,0,0,1-1.2-1.076" transform="translate(1.448 3.656)" fill="#cb9a43"/>
          <path id="Path_116976" data-name="Path 116976" d="M7.388,17.628c.326-.018.36-.251.36-.52a.352.352,0,0,0,.1-.072,2.568,2.568,0,0,1,1.372,1.022c0,.216.069.466-.292.449-.223-.072-.463-.126-.686-.2-.273-.216-.565-.449-.857-.682" transform="translate(1.668 3.845)" fill="#c29048"/>
          <path id="Path_116977" data-name="Path 116977" d="M8.66,18.362c.189-.125.172-.322.172-.52.12-.108.223-.126.343,0a1.943,1.943,0,0,0,1.2.7,1.122,1.122,0,0,1,.172.7.612.612,0,0,1-.172.036c-.532-.358-1.234-.412-1.715-.914" transform="translate(1.955 4.007)" fill="#ba864a"/>
          <path id="Path_116978" data-name="Path 116978" d="M8.255,17.995c-.549-.233-.754-.95-1.372-1.093a3.28,3.28,0,0,1-.84-.933c-.343-.43-.789-.771-.875-1.38a2.945,2.945,0,0,1,.343-1.435c.805.5,1.1,1.488,1.835,2.063a1.793,1.793,0,0,1,.376.52,4.169,4.169,0,0,0,.5,1c.206.395.395.789.034,1.22Z" transform="translate(1.167 2.969)" fill="#8f3920"/>
          <path id="Path_116979" data-name="Path 116979" d="M4.734,6.972V4.641a.948.948,0,0,1,.515.556c.479,1.739,1.542,3.192,2.228,4.823-.12.305-.223.592-.343.9a.174.174,0,0,1-.223,0C6.123,9.644,5.5,8.263,4.734,6.972" transform="translate(1.069 1.047)" fill="#e57424"/>
          <path id="Path_116980" data-name="Path 116980" d="M6.733,9.772H6.9a8.585,8.585,0,0,1,1.2,3.765C7.265,13.359,6.939,12.515,6.39,12c-.154-.143-.257-.395-.428-.538a.51.51,0,0,1-.137-.574c.548-.162.411-.914.908-1.112" transform="translate(1.305 2.205)" fill="#dd6126"/>
          <path id="Path_116981" data-name="Path 116981" d="M4.518,11.117c-.12-.592-.24-1.2-.343-1.793l.017.018a2.351,2.351,0,0,1,1.251,1.183,8.064,8.064,0,0,0,.875,1.166,1.208,1.208,0,0,1-.1.914c-.189.322-.1.879-.669.86-.172-.233-.343-.484-.5-.717-.172-.555-.343-1.093-.532-1.631" transform="translate(0.942 2.104)" fill="#da5c26"/>
          <path id="Path_116982" data-name="Path 116982" d="M5.288,12.862c.446-.125.223-.682.515-.9a.431.431,0,0,1,.531.322A24.443,24.443,0,0,1,7.31,14.96a.527.527,0,0,1-.136.574A7.8,7.8,0,0,1,5.46,13.4c-.051-.179-.1-.359-.172-.538" transform="translate(1.194 2.697)" fill="#d45227"/>
          <path id="Path_116983" data-name="Path 116983" d="M7.016,10.494c-.24.395-.189,1.058-.857,1.076-.789-.413-.927-1.292-1.217-2.009C4.684,8.917,4.272,8.2,4.77,7.446v-.9A7.552,7.552,0,0,1,6.449,9.221a3.656,3.656,0,0,1,.566,1.274" transform="translate(1.024 1.478)" fill="#e37024"/>
          <path id="Path_116984" data-name="Path 116984" d="M4.889,7.355c-.1,1.578.7,2.833,1.372,4.125.051.179.12.358.172.537.051.162-.017.216-.172.18a.561.561,0,0,1-.549-.341A7.9,7.9,0,0,0,4.22,9.866a10.908,10.908,0,0,1-.188-2.887H4.2c.239.108.393.395.685.376" transform="translate(0.91 1.575)" fill="#dd6026"/>
          <path id="Path_116985" data-name="Path 116985" d="M5.888,11.266l.172-.179c.463.5.943.968,1.389,1.488a3.034,3.034,0,0,0,.668.663,11.674,11.674,0,0,0,1.2,3.944,2.14,2.14,0,0,0-.342.018,2.094,2.094,0,0,1-1.543-1.058c-.12-.125-.223-.251-.343-.395A9.36,9.36,0,0,0,5.716,12.18c.069-.322.12-.609.172-.914" transform="translate(1.29 2.502)" fill="#d85627"/>
          <path id="Path_116986" data-name="Path 116986" d="M7.1,15.2c.515.359,1.028.717,1.543,1.058.086.807.908,1.291.857,2.17H9.161c-.462-.322-.925-.628-1.372-.95a1.617,1.617,0,0,0-.411-1.381,1.085,1.085,0,0,1-.275-.9" transform="translate(1.603 3.43)" fill="#913b20"/>
        </g>
      </g>
    </g>
  </g>
</svg>
