<svg width="31" height="39" viewBox="0 0 31 39" fill="none" xmlns="http://www.w3.org/2000/svg">
<path fill-rule="evenodd" clip-rule="evenodd" d="M25.6843 21.0404C25.7222 18.0972 27.264 15.3786 29.7697 13.837C28.1818 11.5675 25.6176 10.1803 22.8505 10.0936C19.9393 9.78782 17.1171 11.8369 15.6336 11.8369C14.1214 11.8369 11.8373 10.124 9.37778 10.1746C6.14165 10.2792 3.19784 12.0759 1.6234 14.9072C-1.72943 20.7164 0.771479 29.254 3.98321 33.9497C5.59011 36.2491 7.46812 38.8175 9.92545 38.7265C12.3301 38.6266 13.2282 37.192 16.1308 37.192C19.0065 37.192 19.8491 38.7265 22.3563 38.6685C24.9365 38.6266 26.5623 36.359 28.1128 34.0378C29.2673 32.3994 30.1558 30.5887 30.7452 28.6726C27.6805 27.3755 25.6879 24.3703 25.6843 21.0404Z" fill="white"/>
<path fill-rule="evenodd" clip-rule="evenodd" d="M20.7044 7.2492C22.0337 5.46148 22.6886 3.16368 22.53 0.84375C20.4992 1.08271 18.6233 2.17008 17.2761 3.88921C15.9458 5.58536 15.2719 7.80438 15.4028 10.0575C17.4608 10.0813 19.4148 9.0462 20.7044 7.2492Z" fill="white"/>
</svg>
