<svg width="31" height="39" viewBox="0 0 31 39" fill="none" xmlns="http://www.w3.org/2000/svg">
<path fill-rule="evenodd" clip-rule="evenodd" d="M25.6843 21.0483C25.7222 18.105 27.264 15.3864 29.7697 13.8448C28.1818 11.5754 25.6176 10.1881 22.8505 10.1014C19.9393 9.79563 17.1171 11.8447 15.6336 11.8447C14.1214 11.8447 11.8373 10.1318 9.37778 10.1824C6.14165 10.2871 3.19784 12.0837 1.6234 14.915C-1.72943 20.7242 0.771479 29.2618 3.98321 33.9575C5.59011 36.2569 7.46812 38.8254 9.92545 38.7343C12.3301 38.6345 13.2282 37.1998 16.1308 37.1998C19.0065 37.1998 19.8491 38.7343 22.3563 38.6764C24.9365 38.6344 26.5623 36.3668 28.1128 34.0456C29.2673 32.4073 30.1558 30.5965 30.7452 28.6804C27.6805 27.3833 25.6879 24.3782 25.6843 21.0483Z" fill="#13151A"/>
<path fill-rule="evenodd" clip-rule="evenodd" d="M20.7084 7.25702C22.0376 5.4693 22.6925 3.17149 22.5339 0.851562C20.5031 1.09052 18.6272 2.1779 17.28 3.89703C15.9497 5.59318 15.2758 7.8122 15.4067 10.0653C17.4647 10.0891 19.4187 9.05401 20.7084 7.25702Z" fill="#13151A"/>
</svg>
