<svg width="41" height="46" viewBox="0 0 41 46" fill="none" xmlns="http://www.w3.org/2000/svg">
<path d="M0.546875 4.28362C0.546875 3.2445 0.838049 2.46111 1.31598 1.96203L1.35546 1.92422L22.8204 23.0515V23.448L1.35546 44.5752L1.31599 44.5374C0.838052 44.0384 0.546875 43.255 0.546875 42.2158V4.28362Z" fill="white" stroke="black" stroke-width="0.25"/>
<path d="M38.4949 25.5528L38.4948 25.5528L30.1165 30.2115L30.1165 30.2115L30.0352 30.2567L23.0703 23.4362V23.0516L30.0386 16.2327L38.4948 20.9332C38.4948 20.9332 38.4948 20.9332 38.4949 20.9332C39.6689 21.5867 40.2249 22.4292 40.2249 23.2437C40.2249 24.0581 39.6689 24.9002 38.4949 25.5528Z" fill="white" stroke="black" stroke-width="0.25"/>
<path d="M1.62043 45.078L22.8561 23.4285L29.9096 30.6195L4.95373 45.0768C4.95372 45.0768 4.95371 45.0768 4.95369 45.0768C3.56481 45.8807 2.36677 45.7962 1.62043 45.078Z" fill="white" stroke="black" stroke-width="0.25"/>
<path d="M1.62042 1.42207C2.36678 0.703852 3.56483 0.619388 4.95373 1.42332L29.9096 15.8806L22.8561 23.0716L1.62042 1.42207Z" fill="white" stroke="black" stroke-width="0.25"/>
</svg>
