<svg width="60" height="86" viewBox="0 0 60 86" fill="none" xmlns="http://www.w3.org/2000/svg">
<path d="M6.49688 27.3869C6.44925 27.0217 6.44925 26.8312 6.4175 26.4977L6.40162 26.3072C6.0047 18.3847 8.51325 11.4306 13.4668 6.69926C18.4204 1.96795 25.5809 -0.223065 33.6146 0.539025C49.3327 2.04733 59.875 12.5578 59.875 26.6883C59.875 33.8329 57.2077 41.8031 52.7622 47.9792C49.6979 52.2342 48.0785 57.3942 48.0785 62.9193V67.8571C48.0785 68.6827 47.4275 69.3495 46.6019 69.3812C46.7289 69.794 46.8242 70.2068 46.8242 70.6673C46.8242 71.7469 46.4114 72.7154 45.7763 73.4775C46.4273 74.2396 46.8242 75.2081 46.8242 76.2877C46.8242 78.4469 45.2206 80.241 43.1566 80.5586C42.4898 83.5434 39.8225 85.7979 36.6312 85.7979H28.661C25.4698 85.7979 22.8025 83.5593 22.1356 80.5586C20.0557 80.2252 18.4681 78.4469 18.4681 76.2877C18.4681 75.2081 18.8809 74.2396 19.5159 73.4775C18.865 72.7154 18.4681 71.7469 18.4681 70.6673C18.4681 70.2227 18.5474 69.8099 18.6745 69.3971H18.341C17.4837 69.3971 16.801 68.7144 16.801 67.8571V56.8544C16.801 56.3781 16.4199 55.997 15.9436 55.997H11.3235C8.21158 55.997 5.68716 53.4726 5.68716 50.3607V43.613L3.30563 43.3273C2.40064 43.2161 1.6068 42.6763 1.194 41.8666C0.76532 41.0569 0.7812 40.0884 1.16225 39.4057L6.49688 27.3869ZM28.661 82.7178H36.6312C38.076 82.7178 39.3144 81.8605 39.9019 80.638H25.3904C25.9778 81.8605 27.2162 82.7178 28.661 82.7178ZM22.8024 77.5578H42.4898C43.1884 77.5578 43.76 76.9863 43.76 76.2877C43.76 75.5891 43.1884 75.0175 42.4898 75.0175H22.8024C22.1039 75.0175 21.5323 75.5891 21.5323 76.2877C21.5482 76.9863 22.1039 77.5578 22.8024 77.5578ZM21.5482 70.6831C21.5482 71.3817 22.1197 71.9533 22.8183 71.9533H42.5057C43.2043 71.9533 43.7758 71.3817 43.7758 70.6831C43.7758 69.9846 43.2043 69.413 42.5057 69.413H22.8183C22.1039 69.413 21.5482 69.9687 21.5482 70.6831ZM7.40187 40.7234C8.17984 40.8187 8.76727 41.4697 8.76727 42.2476V50.3607C8.76727 51.7738 9.91041 52.9169 11.3235 52.9169H15.9278C18.1029 52.9169 19.8652 54.6792 19.8652 56.8544V66.317H22.8024H42.4898H45.0142V62.9352C45.0142 56.7591 46.8401 50.964 50.2695 46.1851C54.3657 40.5012 56.8108 33.2137 56.8108 26.6883C56.8108 14.2249 47.3799 4.9528 33.3288 3.60326C26.1048 2.92056 19.9764 4.7464 15.6102 8.92203C11.3235 13.0183 9.14832 19.1467 9.49762 26.1485L9.51349 26.339C9.52937 26.6883 9.54524 26.8312 9.62463 27.371C9.67226 27.6568 9.62463 27.9584 9.51349 28.2283L4.13123 40.3265L7.40187 40.7234Z" fill="url(#paint0_linear_13049_9657)"/>
<path d="M14.3548 22.0577C14.7517 21.8354 15.2439 21.8036 15.6567 21.9783L15.9266 22.0894C16.7522 22.407 17.6889 21.9942 18.0065 21.1844C18.1652 20.7716 18.1494 20.3589 17.9747 19.9619C17.8001 19.565 17.4984 19.2633 17.1015 19.1205L16.8316 19.0093C16.4029 18.8505 16.0695 18.5013 15.9266 18.0726C15.7837 17.6439 15.8313 17.1676 16.0695 16.7707C17.4825 14.4685 19.4195 12.4522 21.674 10.9439C22.0551 10.6898 22.5314 10.6104 22.9601 10.7375C23.4046 10.8645 23.7539 11.182 23.9444 11.5948L24.0556 11.8647C24.4049 12.6586 25.4051 13.0237 26.1672 12.6903C26.9769 12.341 27.3421 11.3884 26.9928 10.5787L26.8817 10.3088C26.6911 9.89598 26.707 9.41967 26.9134 9.00687C27.1198 8.59407 27.485 8.29241 27.9295 8.19715C30.5492 7.56207 33.3436 7.51444 36.0109 8.03838C36.4554 8.13364 36.8524 8.40355 37.0588 8.81635C37.281 9.21327 37.3128 9.68958 37.1381 10.1183L37.0429 10.3882C36.7253 11.2138 37.1223 12.1346 37.9479 12.4522C38.7576 12.7697 39.7102 12.3569 40.0277 11.5472L40.1389 11.2773C40.2976 10.8486 40.6469 10.5152 41.0915 10.3723C41.5202 10.2294 41.9965 10.277 42.3934 10.5152C44.6955 11.9282 46.696 13.8652 48.2202 16.1197C48.4742 16.5008 48.5536 16.9771 48.4266 17.4057C48.2996 17.8503 47.9821 18.1996 47.5693 18.3901L47.2993 18.5013C46.9024 18.6759 46.6008 18.9776 46.4579 19.3904C46.2991 19.7873 46.315 20.2318 46.4738 20.6129C46.823 21.3908 47.7598 21.8036 48.5854 21.4385L48.8553 21.3273C49.2681 21.1527 49.7444 21.1527 50.1572 21.3591C50.57 21.5655 50.8558 21.9307 50.9669 22.3752C51.602 25.0108 51.6496 27.8051 51.1257 30.4566C51.0304 30.9011 50.7605 31.2822 50.3477 31.5044C49.9508 31.7267 49.4745 31.7585 49.0458 31.5838L48.7759 31.4727C47.9344 31.1393 47.0136 31.5679 46.696 32.3777C46.3785 33.2033 46.7754 34.1241 47.601 34.4575L47.8709 34.5687C48.2996 34.7433 48.6171 35.0767 48.76 35.5213C48.9029 35.95 48.8553 36.4263 48.6013 36.8232C47.1882 39.1253 45.2512 41.1417 42.9967 42.65C42.6157 42.904 42.1552 42.9675 41.7107 42.8564C41.2661 42.7294 40.9168 42.4119 40.7263 41.9991L40.6152 41.7292C40.2818 40.9353 39.3291 40.5543 38.5036 40.9036C38.1066 41.0782 37.805 41.3799 37.6621 41.7768C37.5033 42.1737 37.5192 42.6024 37.6938 42.9993L37.805 43.2692C37.9796 43.682 37.9796 44.1583 37.7732 44.5711C37.5668 44.9839 37.2016 45.2697 36.7571 45.3808C35.3123 45.7301 33.8357 45.9048 32.3592 45.9048C31.1367 45.9048 29.8983 45.7778 28.6758 45.5396C28.2312 45.4443 27.8343 45.1744 27.6279 44.7616C27.4056 44.3647 27.3738 43.8884 27.5485 43.4597L27.6596 43.1898C27.8184 42.7929 27.8025 42.3642 27.6279 41.9673C27.4532 41.5704 27.1516 41.2687 26.7547 41.1099C25.9449 40.7924 24.9923 41.2211 24.6748 42.0149L24.5636 42.2848C24.389 42.7135 24.0556 43.0311 23.611 43.174C23.1823 43.3168 22.706 43.2692 22.3091 43.0311C20.007 41.618 17.9906 39.681 16.4823 37.4265C16.2283 37.0455 16.1489 36.5692 16.2918 36.1405C16.4188 35.6959 16.7363 35.3466 17.1491 35.1561L17.419 35.045C17.8001 34.8703 18.1017 34.5687 18.2605 34.1717C18.4193 33.7748 18.4034 33.3461 18.2446 32.9492C17.8953 32.1554 16.9269 31.7743 16.133 32.1236L15.8631 32.2348C15.4503 32.4094 14.9581 32.4094 14.5612 32.203C14.1484 31.9966 13.8626 31.6314 13.7515 31.1869C13.1323 28.5513 13.0846 25.757 13.6086 23.1056C13.6721 22.661 13.9579 22.28 14.3548 22.0577ZM16.4505 28.9324C18.3875 28.7895 20.261 29.9326 21.0548 31.7267C21.5629 32.8698 21.5788 34.14 21.1184 35.299C20.8643 35.95 20.4674 36.5215 19.9752 36.9978C20.7532 37.9346 21.6423 38.7919 22.6108 39.5381C23.8492 38.1092 25.9926 37.5376 27.8502 38.2521C29.0092 38.7125 29.93 39.5858 30.4381 40.7289C30.7239 41.3799 30.8509 42.0626 30.835 42.7453C32.0417 42.8564 33.2801 42.8405 34.4867 42.6659C34.4391 41.9832 34.5502 41.3005 34.8042 40.6336C35.2647 39.4746 36.1379 38.5538 37.2969 38.0616C39.1069 37.2836 41.282 37.7599 42.568 39.1412C43.5048 38.3632 44.3621 37.4741 45.1083 36.5057C43.6635 35.2355 43.092 33.1556 43.8223 31.2663C44.5526 29.4246 46.2832 28.2179 48.3155 28.2973C48.4266 27.0907 48.4107 25.8523 48.2361 24.6456C46.2991 24.7726 44.4256 23.6454 43.6318 21.8513C43.1396 20.7081 43.1079 19.438 43.5683 18.2631C43.8223 17.6121 44.2192 17.0406 44.7114 16.5643C43.9334 15.6275 43.0443 14.7702 42.0759 14.0398C40.8375 15.4529 38.6782 16.0245 36.8365 15.31C34.9471 14.5638 33.8199 12.7379 33.8675 10.8168C32.645 10.7057 31.4066 10.7216 30.2158 10.8803C30.3428 12.7856 29.2791 14.6749 27.4215 15.4846C25.6115 16.2626 23.4523 15.7863 22.1503 14.405C21.2136 15.183 20.3563 16.0721 19.61 17.0406C20.1181 17.4851 20.5309 18.0567 20.8167 18.6918C21.3089 19.8349 21.3406 21.1051 20.8802 22.28C20.1499 24.1217 18.3875 25.3283 16.387 25.2489C16.26 26.4873 16.2759 27.7099 16.4505 28.9324Z" fill="url(#paint1_linear_13049_9657)"/>
<path d="M32.3341 17.0781C37.6846 17.0781 42.0508 21.4284 42.0508 26.7948C42.0508 32.1453 37.7005 36.5114 32.3341 36.5114C26.9836 36.5114 22.6175 32.1612 22.6175 26.7948C22.6175 21.4284 26.9836 17.0781 32.3341 17.0781ZM32.3341 33.4154C35.9858 33.4154 38.9707 30.4306 38.9707 26.7789C38.9707 23.1272 36.0017 20.1424 32.3341 20.1424C28.6824 20.1424 25.6976 23.1113 25.6976 26.7789C25.6976 30.4465 28.6824 33.4154 32.3341 33.4154Z" fill="url(#paint2_linear_13049_9657)"/>
<defs>
<linearGradient id="paint0_linear_13049_9657" x1="30.3749" y1="-1.52156" x2="30.3749" y2="86.0958" gradientUnits="userSpaceOnUse">
<stop stop-color="#00EFD1"/>
<stop offset="1" stop-color="#00ACEA"/>
</linearGradient>
<linearGradient id="paint1_linear_13049_9657" x1="32.3665" y1="6.82386" x2="32.3665" y2="46.0381" gradientUnits="userSpaceOnUse">
<stop stop-color="#00EFD1"/>
<stop offset="1" stop-color="#00ACEA"/>
</linearGradient>
<linearGradient id="paint2_linear_13049_9657" x1="32.3342" y1="16.643" x2="32.3342" y2="36.5792" gradientUnits="userSpaceOnUse">
<stop stop-color="#00EFD1"/>
<stop offset="1" stop-color="#00ACEA"/>
</linearGradient>
</defs>
</svg>
