<svg width="71" height="88" viewBox="0 0 71 88" fill="none" xmlns="http://www.w3.org/2000/svg">
<path d="M63.342 30.4732H63.211C61.4229 30.4632 59.6952 31.1255 58.365 32.3306C57.2883 29.3268 54.5521 27.1676 51.3472 27.1676C49.3829 27.1815 47.5066 27.9944 46.1458 29.4233C44.8945 26.8696 42.3842 25.1373 39.4978 25.1373H39.3585C37.8115 25.1133 36.3021 25.6205 35.0784 26.5747V8.36905C35.0784 3.96953 31.6805 0.390625 27.5474 0.390625C23.419 0.390625 20.0387 3.96722 20.0364 8.36365L20.0019 44.4847L17.9741 42.002C16.1959 39.7702 13.5784 38.3845 10.7464 38.1753C7.97265 37.9838 5.24408 38.9565 3.20704 40.8648L1.44262 42.3386C0.873625 42.8141 0.711275 43.6247 1.05206 44.2855L18.2069 77.5262C21.3436 83.601 27.3116 87.3906 33.7819 87.3906H53.1146V87.3736C62.917 87.3736 70.8645 78.7992 70.8745 68.271C70.8783 63.5603 70.8607 60.0494 70.8637 57.2038C70.8737 49.5905 70.866 46.7813 70.8469 38.3937C70.8369 34.0042 67.4635 30.4732 63.342 30.4732ZM67.704 57.193C67.701 60.0393 67.6964 63.5642 67.6918 68.2748C67.6833 77.0623 61.1028 84.2278 53.0227 84.2278H33.7826C28.4863 84.2278 23.5844 81.0897 20.9906 76.0657L4.41931 43.9659L5.23719 43.2781C5.25787 43.2611 5.27778 43.241 5.29769 43.2232C6.70447 41.8885 8.59755 41.203 10.5251 41.3303C12.4955 41.4824 14.3135 42.4536 15.5457 44.0107L20.3465 49.8993C20.7662 50.4158 21.4631 50.6096 22.0865 50.3849C22.7098 50.1603 23.1264 49.5643 23.1264 48.8973L23.1548 8.36519C23.1563 5.71112 25.1474 3.55189 27.549 3.55189C29.9505 3.55189 31.9416 5.71344 31.9416 8.36905V32.8077C31.9416 32.8926 31.9378 32.9783 31.9378 33.0647C31.9378 33.1018 31.9416 33.1396 31.9416 33.1759V43.6247C31.9416 44.4978 32.6439 45.2057 33.51 45.2057C34.3761 45.2057 35.0784 44.4978 35.0784 43.6247V32.8609C35.0784 30.3003 37.0189 28.2993 39.3585 28.2993H39.4978C41.9009 28.2993 43.9005 30.4107 43.9005 33.0663V42.6273C43.9005 43.5004 44.6027 44.2083 45.4688 44.2083C46.335 44.2083 47.0372 43.5004 47.0372 42.6273V35.1259C47.0372 32.4695 48.941 30.3088 51.3571 30.3088C53.7594 30.3088 55.6632 32.4688 55.6632 35.1259V42.2027C55.6632 43.0758 56.3655 43.7837 57.2316 43.7837C58.0977 43.7837 58.8 43.0758 58.8 42.2027V38.3706C58.8 35.7142 60.8079 33.6352 63.211 33.6352H63.342C65.739 33.6352 67.6925 35.7497 67.6987 38.3976C67.7178 46.779 67.714 49.5851 67.704 57.193Z" fill="url(#paint0_linear_13049_9656)"/>
<defs>
<linearGradient id="paint0_linear_13049_9656" x1="35.8748" y1="-1.55722" x2="35.8748" y2="87.6941" gradientUnits="userSpaceOnUse">
<stop stop-color="#00EFD1"/>
<stop offset="1" stop-color="#00ACEA"/>
</linearGradient>
</defs>
</svg>
