<svg width="77" height="77" viewBox="0 0 77 77" fill="none" xmlns="http://www.w3.org/2000/svg">
<path d="M73.2523 76.3873H58.7755C57.8159 76.3864 56.8959 76.0048 56.2174 75.3262C55.5388 74.6477 55.1572 73.7277 55.1562 72.7681V43.8145C55.1572 42.8549 55.5388 41.9349 56.2174 41.2564C56.8959 40.5779 57.8159 40.1963 58.7755 40.1953H73.2523C74.2118 40.1963 75.1318 40.5779 75.8104 41.2564C76.4889 41.9349 76.8705 42.8549 76.8715 43.8145V72.7681C76.8705 73.7277 76.4889 74.6477 75.8104 75.3262C75.1318 76.0048 74.2118 76.3864 73.2523 76.3873ZM58.7755 43.8145V72.7681H73.2523V43.8145H58.7755Z" fill="url(#paint0_linear_13065_1592)"/>
<path d="M46.1116 76.3992H31.6348C30.6752 76.3982 29.7552 76.0166 29.0767 75.3381C28.3982 74.6596 28.0166 73.7396 28.0156 72.78V36.588C28.0166 35.6284 28.3982 34.7084 29.0767 34.0298C29.7552 33.3513 30.6752 32.9697 31.6348 32.9688H46.1116C47.0712 32.9697 47.9912 33.3513 48.6697 34.0298C49.3483 34.7084 49.7299 35.6284 49.7308 36.588V72.78C49.7299 73.7396 49.3483 74.6596 48.6697 75.3381C47.9912 76.0166 47.0712 76.3982 46.1116 76.3992ZM31.6348 36.588V72.78H46.1116V36.588H31.6348Z" fill="url(#paint1_linear_13065_1592)"/>
<path d="M18.971 76.396H4.4942C3.53462 76.3951 2.61462 76.0135 1.9361 75.3349C1.25757 74.6564 0.875958 73.7364 0.875 72.7768V49.252C0.875958 48.2924 1.25757 47.3724 1.9361 46.6939C2.61462 46.0154 3.53462 45.6338 4.4942 45.6328H18.971C19.9306 45.6338 20.8506 46.0154 21.5291 46.6939C22.2076 47.3724 22.5893 48.2924 22.5902 49.252V72.7768C22.5893 73.7364 22.2076 74.6564 21.5291 75.3349C20.8506 76.0135 19.9306 76.3951 18.971 76.396ZM4.4942 49.252V72.7768H18.971V49.252H4.4942Z" fill="url(#paint2_linear_13065_1592)"/>
<path d="M47.1904 29.3424C46.7252 29.3423 46.268 29.2208 45.8641 28.9899L38.8784 24.9979L31.8936 28.9891C31.4384 29.2492 30.9167 29.3698 30.3935 29.336C29.8702 29.3022 29.3684 29.1155 28.9504 28.7989C28.5324 28.4824 28.2166 28.05 28.0422 27.5556C27.8679 27.0611 27.8426 26.5262 27.9696 26.0175L29.985 17.9574L25.2993 13.2708C24.9251 12.8966 24.6703 12.4198 24.5671 11.9008C24.4638 11.3817 24.5168 10.8437 24.7192 10.3548C24.9217 9.86582 25.2646 9.44789 25.7046 9.15381C26.1446 8.85973 26.6619 8.70271 27.1911 8.7026H33.5512L36.4185 2.0129C36.6248 1.53143 36.9678 1.12108 37.4051 0.832709C37.8423 0.544337 38.3546 0.390625 38.8784 0.390625C39.4022 0.390625 39.9145 0.544337 40.3518 0.832709C40.789 1.12108 41.1321 1.53143 41.3384 2.0129L44.2056 8.7026H50.5657C51.095 8.70271 51.6124 8.85979 52.0525 9.15397C52.4925 9.44816 52.8354 9.86624 53.0378 10.3553C53.2402 10.8444 53.2931 11.3826 53.1896 11.9017C53.0861 12.4208 52.8311 12.8975 52.4566 13.2717L47.7718 17.9574L49.7873 26.0166C49.8857 26.4113 49.893 26.8231 49.8085 27.2209C49.724 27.6188 49.55 27.9921 49.2997 28.3127C49.0494 28.6332 48.7294 28.8926 48.3639 29.071C47.9984 29.2494 47.5971 29.3423 47.1904 29.3424ZM38.8784 21.2372C39.3438 21.2366 39.8013 21.3575 40.2056 21.588L45.7395 24.7504L44.1314 18.317C44.02 17.868 44.0265 17.3978 44.1504 16.9521C44.2742 16.5064 44.5112 16.1002 44.8383 15.7731L48.2887 12.3218H43.5836C43.0593 12.3223 42.5465 12.1686 42.109 11.8798C41.6714 11.591 41.3284 11.18 41.1227 10.6978L38.8784 5.4607L36.6323 10.7004C36.4266 11.1821 36.0838 11.5926 35.6466 11.8808C35.2093 12.1691 34.697 12.3225 34.1733 12.3218H29.4681L32.9212 15.7759C33.2477 16.1033 33.4841 16.5096 33.6073 16.9553C33.7306 17.401 33.7365 17.871 33.6245 18.3197L32.0173 24.7505L37.5512 21.5882C37.9555 21.3576 38.413 21.2367 38.8784 21.2372Z" fill="url(#paint3_linear_13065_1592)"/>
<defs>
<linearGradient id="paint0_linear_13065_1592" x1="66.0138" y1="39.385" x2="66.0138" y2="76.5136" gradientUnits="userSpaceOnUse">
<stop stop-color="#00EFD1"/>
<stop offset="1" stop-color="#00ACEA"/>
</linearGradient>
<linearGradient id="paint1_linear_13065_1592" x1="38.8732" y1="31.9964" x2="38.8732" y2="76.5507" gradientUnits="userSpaceOnUse">
<stop stop-color="#00EFD1"/>
<stop offset="1" stop-color="#00ACEA"/>
</linearGradient>
<linearGradient id="paint2_linear_13065_1592" x1="11.7326" y1="44.9441" x2="11.7326" y2="76.5033" gradientUnits="userSpaceOnUse">
<stop stop-color="#00EFD1"/>
<stop offset="1" stop-color="#00ACEA"/>
</linearGradient>
<linearGradient id="paint3_linear_13065_1592" x1="38.8784" y1="-0.257578" x2="38.8784" y2="29.4434" gradientUnits="userSpaceOnUse">
<stop stop-color="#00EFD1"/>
<stop offset="1" stop-color="#00ACEA"/>
</linearGradient>
</defs>
</svg>
