<svg version="1.2" xmlns="http://www.w3.org/2000/svg" viewBox="0 0 68 81" width="68" height="81">
	<title>trust-based-svg</title>
	<defs>
		<linearGradient id="g1" x2="1" gradientUnits="userSpaceOnUse" gradientTransform="matrix(0,82.436,-69.268,0,33.983,-1.744)">
			<stop offset="0" stop-color="#00efd1"/>
			<stop offset="1" stop-color="#00acea"/>
		</linearGradient>
		<linearGradient id="g2" x2="1" gradientUnits="userSpaceOnUse" gradientTransform="matrix(0,21.737,-29.721,0,33.989,29.166)">
			<stop offset="0" stop-color="#00efd1"/>
			<stop offset="1" stop-color="#00acea"/>
		</linearGradient>
	</defs>
	<style>
		.s0 { fill: url(#g1) } 
		.s1 { fill: url(#g2) } 
	</style>
	<path id="Layer" fill-rule="evenodd" class="s0" d="m34.9 80.3q-0.4 0.1-0.9 0.1-0.5 0-0.9-0.1c-33.7-11.7-33.2-39.4-32.8-59.6 0.1-2.1 0.1-4.2 0.1-6.2 0-1.5 1.2-2.8 2.8-2.8 12 0 21.2-3.4 28.8-10.8 1.1-1.1 2.9-1.1 3.9 0 7.7 7.4 16.8 10.8 28.9 10.8 1.5 0 2.8 1.3 2.8 2.8 0 2 0 4.1 0.1 6.2 0.3 20.2 0.9 47.9-32.8 59.6zm27.1-59.4q0-1.9 0-3.6c-11.3-0.5-20.3-3.9-28-10.6-7.7 6.7-16.7 10.1-28 10.6q0 1.7-0.1 3.6c-0.4 20.2-0.8 43.2 28.1 53.7 28.9-10.5 28.4-33.5 28-53.7z"/>
	<path id="Layer" class="s1" d="m43.7 30.5l-13.6 13.5-5.8-5.8c-1.1-1.1-2.9-1.1-4 0-1.1 1.1-1.1 2.9 0 4l7.8 7.8c0.6 0.6 1.3 0.8 2 0.8 0.7 0 1.4-0.2 2-0.8l15.6-15.6c1-1.1 1-2.8 0-3.9-1.1-1.1-2.9-1.1-4 0z"/>
</svg>