<svg version="1.2" xmlns="http://www.w3.org/2000/svg" viewBox="0 0 12 6" width="12" height="6">
	<title>caret-down-solid-svg</title>
	<style>
		.s0 { fill: #1b1464 } 
	</style>
	<path id="caret-down-solid" class="s0" d="m11.7 1.7l-4.8 4q-0.1 0.1-0.2 0.1-0.1 0.1-0.2 0.1-0.1 0.1-0.3 0.1-0.1 0-0.2 0-0.1 0-0.2 0-0.1 0-0.2-0.1-0.2 0-0.3-0.1-0.1 0-0.1-0.1l-4.8-4q-0.1-0.1-0.2-0.2-0.1-0.1-0.2-0.3 0-0.1 0-0.3 0-0.1 0.1-0.3 0.1-0.1 0.2-0.2 0.1-0.2 0.3-0.2 0.1-0.1 0.3-0.2 0.1 0 0.3 0h9.6q0.2 0 0.3 0 0.2 0.1 0.3 0.2 0.2 0 0.3 0.2 0.1 0.1 0.2 0.2 0.1 0.2 0.1 0.3 0 0.2 0 0.3-0.1 0.2-0.1 0.3-0.1 0.1-0.2 0.2z"/>
</svg>