<svg xmlns="http://www.w3.org/2000/svg" width="43.814" height="20.184" viewBox="0 0 43.814 20.184">
  <g id="Group_99487" data-name="Group 99487" transform="translate(0 0)">
    <path id="Path_116667" data-name="Path 116667" d="M1.9,2.983,5.272,4.893,0,14.191l3.562,2.02,5.272-9.3L12.2,8.822,13.8,6,3.5.162Z" transform="translate(0.001 0.006)" fill="#fbfbfb"/>
    <path id="Path_116668" data-name="Path 116668" d="M16.744,13.92l1.491-4.886.192.009,1.034,5Zm-6,5.381,4.3.2.831-2.734,4.2.194.575,2.8,4.3.2-3.9-14.116-5.126-.236Z" transform="translate(0.435 0.227)" fill="#fbfbfb"/>
    <path id="Path_116669" data-name="Path 116669" d="M32.242,2.157l.174,4.953-.068.036L28.309,4.28l-4.2,2.267L31,10.641l.037.068L30.742,18.8l3.8-2.055.1-4.829.068-.036,4.112,2.552,4.009-2.166L35.75,8.183l-.036-.068L36.234,0Z" transform="translate(0.976 0)" fill="#fbfbfb"/>
  </g>
</svg>
