<svg width="61" height="61" viewBox="0 0 61 61" fill="none" xmlns="http://www.w3.org/2000/svg">
<g clip-path="url(#clip0_2905_18428)">
<path d="M59.9375 29.8516H45.0342C44.8026 26.4212 43.3352 23.1911 40.9041 20.76C38.4729 18.3288 35.2429 16.8615 31.8125 16.6299V10.8694C40.8249 11.239 48.5735 17.8113 50.4068 26.7701C50.4573 27.013 50.6021 27.2259 50.8094 27.3622C51.0167 27.4985 51.2695 27.5471 51.5125 27.4974C51.7556 27.4477 51.969 27.3036 52.106 27.0968C52.2431 26.8901 52.2926 26.6374 52.2437 26.3942C51.246 21.5298 48.6296 17.147 44.8211 13.9606C41.1521 10.9143 36.5781 9.16779 31.8125 8.99324V1.72656C31.8125 1.47792 31.7137 1.23947 31.5379 1.06365C31.3621 0.887835 31.1236 0.789063 30.875 0.789062C30.6264 0.789063 30.3879 0.887835 30.2121 1.06365C30.0363 1.23947 29.9375 1.47792 29.9375 1.72656V16.6299C26.5071 16.8615 23.2771 18.3288 20.8459 20.76C18.4148 23.1911 16.9474 26.4212 16.7158 29.8516H10.9554C11.325 20.8391 17.8972 13.0906 26.8561 11.2573C27.0977 11.2055 27.3091 11.0605 27.4444 10.8536C27.5796 10.6468 27.6277 10.3949 27.5782 10.1528C27.5287 9.91069 27.3856 9.69791 27.18 9.56075C26.9744 9.4236 26.723 9.37315 26.4805 9.42039C21.6161 10.418 17.2333 13.0345 14.0469 16.8429C11.0005 20.512 9.25383 25.0859 9.07918 29.8516H1.8125C1.56386 29.8516 1.3254 29.9503 1.14959 30.1261C0.973772 30.302 0.875 30.5404 0.875 30.7891C0.875 31.0377 0.973772 31.2762 1.14959 31.452C1.3254 31.6278 1.56386 31.7266 1.8125 31.7266H16.7158C16.9474 35.1569 18.4148 38.387 20.8459 40.8182C23.2771 43.2493 26.5071 44.7167 29.9375 44.9482V50.7088C20.8004 50.3379 13.0286 43.6562 11.2917 34.5468C11.2451 34.3026 11.1033 34.0868 10.8977 33.9471C10.7958 33.8779 10.6813 33.8294 10.5608 33.8045C10.4402 33.7795 10.3159 33.7786 10.195 33.8017C9.95074 33.8483 9.73502 33.99 9.59528 34.1957C9.45554 34.4014 9.40322 34.6541 9.44984 34.8984C10.3911 39.8269 12.9926 44.2842 16.8209 47.5277C20.5066 50.6293 25.1236 52.4094 29.9375 52.5849V59.8516C29.9375 60.1002 30.0363 60.3387 30.2121 60.5145C30.3879 60.6903 30.6264 60.7891 30.875 60.7891C31.1236 60.7891 31.3621 60.6903 31.5379 60.5145C31.7137 60.3387 31.8125 60.1002 31.8125 59.8516V44.9482C35.2429 44.7167 38.4729 43.2493 40.9041 40.8182C43.3352 38.387 44.8026 35.1569 45.0342 31.7266H50.7948C50.4239 40.8637 43.7422 48.6354 34.6327 50.3724C34.4034 50.4159 34.1985 50.5434 34.0581 50.7299C33.9178 50.9165 33.8521 51.1487 33.874 51.3812C33.8958 51.6136 34.0036 51.8295 34.1762 51.9867C34.3488 52.1439 34.5739 52.231 34.8073 52.231C34.8666 52.2309 34.9257 52.2253 34.9839 52.2142C39.9125 51.2729 44.3697 48.6715 47.6132 44.8431C50.715 41.1575 52.4952 36.5405 52.6707 31.7266H59.9375C60.1861 31.7266 60.4246 31.6278 60.6004 31.452C60.7762 31.2762 60.875 31.0377 60.875 30.7891C60.875 30.5404 60.7762 30.302 60.6004 30.1261C60.4246 29.9503 60.1861 29.8516 59.9375 29.8516ZM29.9375 18.5086V24.287C28.5344 24.4916 27.2349 25.1437 26.2323 26.1464C25.2297 27.149 24.5776 28.4485 24.373 29.8516H18.5946C18.8224 26.919 20.0906 24.1644 22.1705 22.0846C24.2504 20.0047 27.005 18.7365 29.9375 18.5086ZM29.9375 43.0695C27.005 42.8417 24.2504 41.5734 22.1705 39.4936C20.0906 37.4137 18.8224 34.6591 18.5946 31.7266H24.373C24.5776 33.1296 25.2297 34.4292 26.2323 35.4318C27.2349 36.4344 28.5344 37.0865 29.9375 37.2911V43.0695ZM30.875 32.7347C30.6264 32.7347 30.3879 32.8335 30.2121 33.0093C30.0363 33.1851 29.9375 33.4236 29.9375 33.6722V35.39C29.0356 35.2044 28.2079 34.7584 27.5568 34.1073C26.9057 33.4562 26.4598 32.6285 26.2742 31.7266H27.9922C28.2408 31.7266 28.4793 31.6278 28.6551 31.452C28.8309 31.2762 28.9297 31.0377 28.9297 30.7891C28.9297 30.5404 28.8309 30.302 28.6551 30.1261C28.4793 29.9503 28.2408 29.8516 27.9922 29.8516H26.2742C26.4598 28.9496 26.9057 28.1219 27.5568 27.4708C28.2079 26.8197 29.0356 26.3737 29.9375 26.1882V27.9062C29.9375 28.1549 30.0363 28.3933 30.2121 28.5692C30.3879 28.745 30.6264 28.8438 30.875 28.8438C31.1236 28.8438 31.3621 28.745 31.5379 28.5692C31.7137 28.3933 31.8125 28.1549 31.8125 27.9062V26.1882C32.7144 26.3737 33.5421 26.8197 34.1932 27.4708C34.8443 28.1219 35.2902 28.9496 35.4758 29.8516H33.7578C33.5092 29.8516 33.2707 29.9503 33.0949 30.1261C32.9191 30.302 32.8203 30.5404 32.8203 30.7891C32.8203 31.0377 32.9191 31.2762 33.0949 31.452C33.2707 31.6278 33.5092 31.7266 33.7578 31.7266H35.4758C35.2902 32.6285 34.8443 33.4562 34.1932 34.1073C33.5421 34.7584 32.7144 35.2044 31.8125 35.39V33.6719C31.8125 33.4232 31.7137 33.1848 31.5379 33.009C31.3621 32.8331 31.1236 32.7344 30.875 32.7344V32.7347ZM31.8125 43.0695V37.2911C33.2156 37.0865 34.5151 36.4344 35.5177 35.4318C36.5203 34.4292 37.1724 33.1296 37.377 31.7266H43.1554C42.9276 34.6591 41.6594 37.4137 39.5795 39.4936C37.4996 41.5734 34.745 42.8417 31.8125 43.0695ZM37.377 29.8516C37.1724 28.4485 36.5203 27.149 35.5177 26.1464C34.5151 25.1437 33.2156 24.4916 31.8125 24.287V18.5086C34.745 18.7365 37.4996 20.0047 39.5795 22.0846C41.6594 24.1644 42.9276 26.919 43.1554 29.8516H37.377Z" fill="url(#paint0_linear_2905_18428)"/>
</g>
<defs>
<linearGradient id="paint0_linear_2905_18428" x1="30.8749" y1="-0.55428" x2="30.8749" y2="60.9983" gradientUnits="userSpaceOnUse">
<stop stop-color="#00EFD1"/>
<stop offset="1" stop-color="#00ACEA"/>
</linearGradient>
<clipPath id="clip0_2905_18428">
<rect width="60" height="60" fill="white" transform="translate(0.875 0.789062)"/>
</clipPath>
</defs>
</svg>
