<svg width="72" height="71" viewBox="0 0 72 71" fill="none" xmlns="http://www.w3.org/2000/svg">
<path d="M22.2362 64.9476C22.2362 65.2894 21.9568 65.5667 21.6125 65.5667H18.4788C15.7516 65.5667 13.5328 63.3643 13.5328 60.6571V53.3447C13.5328 53.0028 13.8122 52.7255 14.1565 52.7255C14.5009 52.7255 14.7803 53.0028 14.7803 53.3447V60.6571C14.7803 62.6814 16.4395 64.3284 18.4788 64.3284H21.6125C21.9568 64.3284 22.2362 64.6058 22.2362 64.9476ZM62.7659 45.7788V52.9304C62.7659 54.1074 61.8015 55.0647 60.6158 55.0647H59.1815V64.6171C59.1815 67.0981 57.152 69.1163 54.6575 69.1163H14.4811C11.9866 69.1163 9.95703 67.0981 9.95703 64.6171V32.6527C9.95703 30.1765 11.9866 28.1619 14.4811 28.1619H19.4384L29.0781 18.5934C30.0953 17.5833 31.7508 17.5836 32.7673 18.5934L36.1196 21.9211L39.4715 18.5938C40.4875 17.5861 42.1403 17.5853 43.1563 18.5938L52.7953 28.1619H54.6575C57.152 28.1619 59.1815 30.1765 59.1815 32.6527V43.6445H60.6158C61.8015 43.6445 62.7659 44.6018 62.7659 45.7788ZM37.0022 22.796L42.4078 28.1619H51.0312L42.2742 19.4694C41.7448 18.9446 40.8831 18.9446 40.3536 19.4694L37.0022 22.796ZM21.2023 28.1619H40.6426L31.8852 19.4689C31.3537 18.9417 30.4908 18.9425 29.9601 19.4689L21.2023 28.1619ZM57.934 55.0659H47.2725C44.0987 55.0659 41.5238 52.4936 41.5238 49.3546C41.5238 46.1179 44.1871 43.6404 47.2725 43.6404H57.934V32.6527C57.934 30.8593 56.464 29.4002 54.6574 29.4002C50.5044 29.4002 19.0933 29.4002 14.4811 29.4002C12.6744 29.4002 11.2045 30.8593 11.2045 32.6527V64.6171C11.2045 66.4153 12.6744 67.878 14.4811 67.878H54.6574C56.464 67.878 57.934 66.4153 57.934 64.6171V55.0659ZM61.5185 45.7788C61.5185 45.2846 61.1136 44.8828 60.6158 44.8828H47.2763C44.6815 44.8828 42.7733 46.9948 42.7733 49.3534C42.7733 51.8096 44.7964 53.8265 47.2763 53.8265H60.6158C61.1136 53.8265 61.5185 53.4246 61.5185 52.9304V45.7788ZM50.6658 49.3497C50.6658 50.981 49.333 52.3084 47.6954 52.3084C46.052 52.3084 44.7148 50.981 44.7148 49.3497C44.7148 47.7237 46.052 46.4007 47.6954 46.4007C49.333 46.4007 50.6658 47.7237 50.6658 49.3497ZM49.4183 49.3497C49.4183 48.4065 48.6456 47.639 47.6954 47.639C46.7398 47.639 45.9622 48.4065 45.9622 49.3497C45.9622 50.2982 46.7398 51.0701 47.6954 51.0701C48.6456 51.0701 49.4183 50.2982 49.4183 49.3497Z" fill="url(#paint0_linear_2905_18817)" stroke="url(#paint1_linear_2905_18817)" stroke-width="0.5"/>
<path fill-rule="evenodd" clip-rule="evenodd" d="M17.6908 1.62457C17.4924 1.62457 17.3021 1.70337 17.1618 1.84365C17.0215 1.98394 16.9427 2.1742 16.9427 2.37258L16.9427 20.0153L12.2362 15.3072C12.0958 15.1668 11.9053 15.0879 11.7066 15.0879C11.508 15.0879 11.3175 15.1668 11.177 15.3072C11.0366 15.4477 10.9577 15.6382 10.9577 15.8368C10.9577 16.0355 11.0366 16.226 11.177 16.3664L17.1612 22.3506C17.2306 22.4202 17.3132 22.4755 17.4041 22.5132C17.4949 22.5509 17.5924 22.5703 17.6908 22.5703C17.7891 22.5703 17.8866 22.5509 17.9774 22.5132C18.0683 22.4755 18.1509 22.4202 18.2203 22.3506L24.2045 16.3664C24.274 16.2969 24.3292 16.2143 24.3668 16.1235C24.4045 16.0326 24.4238 15.9352 24.4238 15.8368C24.4238 15.6382 24.3449 15.4477 24.2045 15.3073C24.064 15.1668 23.8735 15.0879 23.6749 15.0879C23.4762 15.0879 23.2857 15.1668 23.1453 15.3072L18.4388 20.0153L18.4388 2.37258C18.4388 2.1742 18.36 1.98394 18.2197 1.84365C18.0794 1.70337 17.8891 1.62457 17.6908 1.62457Z" fill="url(#paint2_linear_2905_18817)" stroke="url(#paint3_linear_2905_18817)" stroke-width="0.3"/>
<defs>
<linearGradient id="paint0_linear_2905_18817" x1="36.3614" y1="16.6878" x2="36.3614" y2="69.2951" gradientUnits="userSpaceOnUse">
<stop stop-color="#00EFD1"/>
<stop offset="1" stop-color="#00ACEA"/>
</linearGradient>
<linearGradient id="paint1_linear_2905_18817" x1="36.3614" y1="16.6878" x2="36.3614" y2="69.2951" gradientUnits="userSpaceOnUse">
<stop stop-color="#00EFD1"/>
<stop offset="1" stop-color="#00ACEA"/>
</linearGradient>
<linearGradient id="paint2_linear_2905_18817" x1="17.6908" y1="23.0393" x2="17.6908" y2="1.55151" gradientUnits="userSpaceOnUse">
<stop stop-color="#00EFD1"/>
<stop offset="1" stop-color="#00ACEA"/>
</linearGradient>
<linearGradient id="paint3_linear_2905_18817" x1="17.6908" y1="23.0393" x2="17.6908" y2="1.55151" gradientUnits="userSpaceOnUse">
<stop stop-color="#00EFD1"/>
<stop offset="1" stop-color="#00ACEA"/>
</linearGradient>
</defs>
</svg>
