<svg width="71" height="71" viewBox="0 0 71 71" fill="none" xmlns="http://www.w3.org/2000/svg">
<path d="M21.496 64.9544C21.496 65.2962 21.2166 65.5735 20.8722 65.5735H17.7386C15.0114 65.5735 12.7926 63.3711 12.7926 60.6639V53.3515C12.7926 53.0097 13.072 52.7323 13.4163 52.7323C13.7606 52.7323 14.04 53.0097 14.04 53.3515V60.6639C14.04 62.6882 15.6993 64.3353 17.7386 64.3353H20.8722C21.2166 64.3353 21.496 64.6126 21.496 64.9544ZM62.0257 45.7856V52.9372C62.0257 54.1142 61.0612 55.0716 59.8755 55.0716H58.4413V64.6239C58.4413 67.1049 56.4118 69.1231 53.9173 69.1231H13.7408C11.2463 69.1231 9.2168 67.1049 9.2168 64.6239V32.6595C9.2168 30.1834 11.2463 28.1687 13.7408 28.1687H18.6981L28.3378 18.6002C29.3551 17.5901 31.0106 17.5904 32.027 18.6002L35.3794 21.9279L38.7313 18.6006C39.7473 17.5929 41.4 17.5921 42.416 18.6006L52.055 28.1687H53.9173C56.4118 28.1687 58.4413 30.1834 58.4413 32.6595V43.6513H59.8755C61.0612 43.6513 62.0257 44.6087 62.0257 45.7856ZM36.2619 22.8028L41.6676 28.1687H50.291L41.534 19.4762C41.0045 18.9514 40.1428 18.9514 39.6133 19.4762L36.2619 22.8028ZM20.4621 28.1687H39.9024L31.145 19.4758C30.6134 18.9485 29.7506 18.9494 29.2199 19.4758L20.4621 28.1687ZM57.1937 55.0727H46.5323C43.3585 55.0727 40.7836 52.5005 40.7836 49.3614C40.7836 46.1248 43.4469 43.6472 46.5323 43.6472H57.1937V32.6595C57.1937 30.8662 55.7238 29.407 53.9172 29.407C49.7642 29.407 18.3531 29.407 13.7408 29.407C11.9342 29.407 10.4642 30.8662 10.4642 32.6595V64.6239C10.4642 66.4221 11.9342 67.8848 13.7408 67.8848H53.9172C55.7238 67.8848 57.1937 66.4221 57.1937 64.6239V55.0727ZM60.7782 45.7856C60.7782 45.2915 60.3734 44.8896 59.8755 44.8896H46.536C43.9413 44.8896 42.0331 47.0017 42.0331 49.3603C42.0331 51.8164 44.0562 53.8333 46.536 53.8333H59.8755C60.3734 53.8333 60.7782 53.4314 60.7782 52.9372V45.7856ZM49.9255 49.3566C49.9255 50.9878 48.5928 52.3152 46.9551 52.3152C45.3117 52.3152 43.9745 50.9878 43.9745 49.3566C43.9745 47.7305 45.3117 46.4076 46.9551 46.4076C48.5928 46.4076 49.9255 47.7305 49.9255 49.3566ZM48.6781 49.3566C48.6781 48.4133 47.9053 47.6458 46.9551 47.6458C45.9996 47.6458 45.222 48.4133 45.222 49.3566C45.222 50.305 45.9996 51.077 46.9551 51.077C47.9053 51.077 48.6781 50.305 48.6781 49.3566Z" fill="url(#paint0_linear_4170_2935)" stroke="url(#paint1_linear_4170_2935)" stroke-width="0.5"/>
<path fill-rule="evenodd" clip-rule="evenodd" d="M16.9505 1.6314C16.7521 1.6314 16.5619 1.71021 16.4216 1.85049C16.2813 1.99077 16.2025 2.18103 16.2025 2.37942L16.2025 20.0221L11.496 15.3141C11.3555 15.1736 11.165 15.0947 10.9664 15.0947C10.7678 15.0947 10.5773 15.1736 10.4368 15.3141C10.2963 15.4545 10.2174 15.645 10.2174 15.8437C10.2174 16.0423 10.2963 16.2328 10.4368 16.3733L16.4209 22.3574C16.4904 22.4271 16.573 22.4823 16.6638 22.52C16.7547 22.5577 16.8521 22.5771 16.9505 22.5771C17.0489 22.5771 17.1463 22.5577 17.2372 22.52C17.3281 22.4823 17.4106 22.4271 17.4801 22.3574L23.4642 16.3733C23.5338 16.3037 23.5889 16.2212 23.6266 16.1303C23.6642 16.0394 23.6836 15.942 23.6836 15.8437C23.6836 15.645 23.6047 15.4545 23.4642 15.3141C23.3238 15.1736 23.1333 15.0947 22.9346 15.0947C22.736 15.0947 22.5455 15.1736 22.405 15.3141L17.6985 20.0221L17.6985 2.37942C17.6985 2.18103 17.6197 1.99077 17.4794 1.85049C17.3392 1.71021 17.1489 1.6314 16.9505 1.6314Z" fill="url(#paint2_linear_4170_2935)" stroke="url(#paint3_linear_4170_2935)" stroke-width="0.3"/>
<defs>
<linearGradient id="paint0_linear_4170_2935" x1="35.6211" y1="16.6947" x2="35.6211" y2="69.302" gradientUnits="userSpaceOnUse">
<stop stop-color="#00EFD1"/>
<stop offset="1" stop-color="#00ACEA"/>
</linearGradient>
<linearGradient id="paint1_linear_4170_2935" x1="35.6211" y1="16.6947" x2="35.6211" y2="69.302" gradientUnits="userSpaceOnUse">
<stop stop-color="#00EFD1"/>
<stop offset="1" stop-color="#00ACEA"/>
</linearGradient>
<linearGradient id="paint2_linear_4170_2935" x1="16.9505" y1="23.0461" x2="16.9505" y2="1.55835" gradientUnits="userSpaceOnUse">
<stop stop-color="#00EFD1"/>
<stop offset="1" stop-color="#00ACEA"/>
</linearGradient>
<linearGradient id="paint3_linear_4170_2935" x1="16.9505" y1="23.0461" x2="16.9505" y2="1.55835" gradientUnits="userSpaceOnUse">
<stop stop-color="#00EFD1"/>
<stop offset="1" stop-color="#00ACEA"/>
</linearGradient>
</defs>
</svg>
