<svg width="71" height="71" viewBox="0 0 71 71" fill="none" xmlns="http://www.w3.org/2000/svg">
<path fill-rule="evenodd" clip-rule="evenodd" d="M14.4971 36.8938C14.4971 47.1894 22.874 55.565 33.1691 55.565C43.4642 55.565 51.8409 47.1894 51.8409 36.8938C51.8409 26.5988 43.4641 18.2232 33.1691 18.2232C22.8741 18.2232 14.4971 26.5988 14.4971 36.8938ZM69.3786 42.2492C69.372 42.5015 69.2623 42.7504 69.0547 42.927L62.5558 48.4716C62.0955 48.8632 61.3554 48.6919 61.116 48.1349L57.6881 40.1546C57.4854 39.689 57.7027 39.1502 58.1666 38.9501C58.6306 38.7496 59.1717 38.9645 59.3744 39.4304L61.845 45.1837C64.5734 35.7598 62.5703 25.7326 56.3403 18.0625C51.7264 12.3853 45.2092 8.60979 37.9922 7.43059C37.4914 7.34952 37.1528 6.87757 37.2338 6.37704C37.3185 5.87706 37.7862 5.53854 38.2905 5.61962C45.9492 6.87087 52.8642 10.8796 57.7615 16.9056C64.227 24.8585 66.4033 35.2001 63.7999 44.9978L67.865 41.5303C68.2518 41.2026 68.8297 41.2476 69.1612 41.6324C69.3016 41.7979 69.3731 41.9992 69.3782 42.201L69.3786 42.2492ZM33.1691 16.3872C44.4768 16.3872 53.6745 25.5864 53.6745 36.8938C53.6745 48.2015 44.4768 57.3994 33.1691 57.3994C21.8613 57.3994 12.6636 48.2015 12.6636 36.8938C12.6636 25.5864 21.8613 16.3872 33.1691 16.3872ZM14.3389 13.7236C4.33466 21.851 0.678392 35.4054 5.23318 47.4519C5.41337 47.9253 5.17056 48.4546 4.69915 48.6337C4.59238 48.6748 4.48191 48.6933 4.37527 48.6933C4.00339 48.6933 3.65353 48.4675 3.51366 48.1005C-1.31716 35.3141 2.5673 20.9264 13.1793 12.3001C16.6219 9.50134 20.628 7.46751 24.8771 6.31319L19.8327 4.52532C19.3577 4.35565 19.1073 3.83161 19.2768 3.35405C19.446 2.87485 19.9726 2.62561 20.4476 2.79556L28.5004 5.65311C28.7764 5.75114 28.9863 5.97235 29.0709 6.25249C29.1558 6.53085 29.1041 6.83341 28.931 7.06692L23.732 14.0284C23.5516 14.2699 23.2753 14.3974 22.9992 14.3974C22.8041 14.3974 22.6127 14.3378 22.4506 14.2143C22.0419 13.912 21.9609 13.336 22.2627 12.9304L26.0187 7.89872C21.7693 8.94681 17.7595 10.9406 14.3389 13.7236ZM56.2779 55.8074C56.6018 55.416 57.18 55.3591 57.5703 55.68C57.9644 56.0012 58.0195 56.5796 57.6993 56.9708C56.3479 58.6184 54.8198 60.1373 53.1554 61.4889C47.463 66.1174 40.4707 68.5886 33.2132 68.5886C32.2668 68.5886 31.3134 68.5461 30.3559 68.4613C22.9146 67.7967 16.0732 64.5891 10.8373 59.3748L11.8057 64.622C11.8977 65.1198 11.57 65.5984 11.073 65.6903C11.0139 65.702 10.9587 65.7061 10.9035 65.7061C10.469 65.7061 10.086 65.3973 10.0049 64.9553L8.45126 56.5532C8.39958 56.2668 8.48421 55.972 8.68314 55.7586C8.88193 55.5462 9.17286 55.4413 9.46011 55.4747L18.0872 56.4946C18.5917 56.5532 18.9525 57.0093 18.8899 57.5134C18.8311 58.016 18.3708 58.3823 17.8738 58.3161L11.6363 57.5797C22.3696 68.802 39.7968 69.9815 51.9993 60.0643C53.5678 58.7908 55.0076 57.358 56.2779 55.8074Z" fill="url(#paint0_linear_2905_19622)"/>
<path d="M38.462 32.3937H37.2128C37.0428 31.5503 36.6664 30.7885 36.1654 30.1265H38.462C39.0877 30.1265 39.5956 29.6187 39.5956 28.9929C39.5956 28.3672 39.0877 27.8594 38.462 27.8594H31.6606H27.1263C26.5006 27.8594 25.9928 28.3672 25.9928 28.9929C25.9928 29.6187 26.5006 30.1265 27.1263 30.1265H31.6606C33.1365 30.1265 34.3834 31.0764 34.8527 32.3937H27.1263C26.5006 32.3937 25.9928 32.9015 25.9928 33.5272C25.9928 34.153 26.5006 34.6608 27.1263 34.6608H34.8527C34.3834 35.978 33.1365 36.9279 31.6606 36.9279H27.1263C26.979 36.9279 26.8316 36.9574 26.6933 37.0141C26.4167 37.1297 26.1945 37.3496 26.0789 37.6285C25.9633 37.9051 25.9633 38.2179 26.0789 38.4945C26.1356 38.6351 26.2195 38.7598 26.326 38.8641L35.3923 47.9303C35.6145 48.1525 35.9047 48.2636 36.1949 48.2636C36.4851 48.2636 36.7753 48.1525 36.9974 47.9326C37.4395 47.4905 37.4395 46.7718 36.9974 46.3297L29.8628 39.1951H31.6606C34.3993 39.1951 36.6868 37.2453 37.2128 34.6608H38.462C39.0877 34.6608 39.5956 34.153 39.5956 33.5272C39.5956 32.9015 39.0877 32.3937 38.462 32.3937Z" fill="url(#paint1_linear_2905_19622)"/>
<defs>
<linearGradient id="paint0_linear_2905_19622" x1="35.4196" y1="1.26795" x2="35.4196" y2="68.8182" gradientUnits="userSpaceOnUse">
<stop stop-color="#00EFD1"/>
<stop offset="1" stop-color="#00ACEA"/>
</linearGradient>
<linearGradient id="paint1_linear_2905_19622" x1="32.7939" y1="27.4025" x2="32.7939" y2="48.3348" gradientUnits="userSpaceOnUse">
<stop stop-color="#00EFD1"/>
<stop offset="1" stop-color="#00ACEA"/>
</linearGradient>
</defs>
</svg>
