<svg width="71" height="71" viewBox="0 0 71 71" fill="none" xmlns="http://www.w3.org/2000/svg">
<g clip-path="url(#clip0_2905_19620)">
<path fill-rule="evenodd" clip-rule="evenodd" d="M51.5879 66.11C47.2799 67.8119 41.54 68.7503 35.4198 68.7503C29.2996 68.7503 23.5597 67.812 19.2582 66.1101C15.292 64.5422 13.0219 62.4857 13.0219 60.4664C13.0219 57.2559 18.7101 54.1269 26.8876 52.8306L34.6653 62.7307C34.7559 62.844 34.8706 62.9357 35.0012 62.9991C35.1317 63.0624 35.2747 63.0958 35.4198 63.0968C35.5652 63.0972 35.7087 63.0644 35.8394 63.0009C35.9702 62.9374 36.0847 62.845 36.1744 62.7306L43.9585 52.8305C52.1296 54.1267 57.8242 57.2591 57.8242 60.4662C57.8242 62.4856 55.5477 64.5421 51.5879 66.11ZM19.6709 9.07406C11.5128 17.2329 11.545 30.2197 19.7483 40.6561L35.4198 60.5908L51.0913 40.6557C59.2945 30.2197 59.3269 17.2329 51.1687 9.07365C46.9827 4.91401 41.3211 2.57936 35.4198 2.57936C29.5185 2.57936 23.8569 4.91442 19.6709 9.07406ZM55.1027 54.3757C52.6007 52.9452 49.2276 51.8282 45.2999 51.1188L52.6007 41.8384C56.6766 36.6501 59.0048 30.4815 59.1531 24.467C59.3079 18.0056 57.0184 12.2142 52.5233 7.71972C47.9782 3.20066 41.8292 0.664063 35.4198 0.664062C29.0104 0.664063 22.8615 3.20066 18.3163 7.71972C13.828 12.2142 11.5321 18.0056 11.6868 24.4671C11.8352 30.4816 14.1633 36.6502 18.2456 41.8386L25.5397 51.1189C21.625 51.8271 18.2526 52.9415 15.7498 54.3675C12.7123 56.0983 11.1064 58.2065 11.1064 60.4664C11.1064 63.3537 13.7506 65.9914 18.5487 67.8902C23.0762 69.6783 29.0609 70.6644 35.4198 70.6644C41.7787 70.6644 47.77 69.6783 52.2909 67.8899C57.0897 65.9913 59.7332 63.3536 59.7332 60.4661C59.7332 58.2102 58.1336 56.1049 55.1027 54.3757ZM20.9994 25.1519C20.9994 22.299 21.8453 19.5101 23.4304 17.138C25.0154 14.7659 27.2683 12.9172 29.9041 11.8255C32.5399 10.7339 35.4402 10.4484 38.2383 11.0052C41.0363 11.562 43.6064 12.936 45.6235 14.9536C47.6406 16.9711 49.0141 19.5415 49.5703 22.3397C50.1265 25.1379 49.8404 28.0381 48.7482 30.6737C47.6559 33.3093 45.8067 35.5617 43.4342 37.1463C41.0618 38.7308 38.2727 39.5761 35.4198 39.5755C31.5961 39.5709 27.9303 38.0497 25.2268 35.3456C22.5234 32.6415 21.003 28.9756 20.9994 25.1519ZM51.7621 25.1519C51.7627 28.3835 50.805 31.5426 49.0102 34.2299C47.2154 36.9172 44.664 39.0119 41.6787 40.2491C38.6934 41.4863 35.4082 41.8105 32.2387 41.1807C29.0691 40.5509 26.1575 38.9953 23.872 36.7107C21.5865 34.4261 20.0298 31.5151 19.3987 28.3458C18.7676 25.1765 19.0905 21.8912 20.3266 18.9054C21.5627 15.9196 23.6564 13.3674 26.3429 11.5715C29.0295 9.77562 32.1883 8.81672 35.4198 8.81607C39.7515 8.8207 43.9046 10.5431 46.9682 13.6055C50.0317 16.6678 51.7558 20.8202 51.7621 25.1519ZM39.9232 31.2848L34.7034 25.7878C34.5492 25.6119 34.4643 25.3858 34.4648 25.1519V14.694C34.4648 14.44 34.5657 14.1964 34.7453 14.0168C34.925 13.8372 35.1686 13.7363 35.4226 13.7363C35.6766 13.7363 35.9202 13.8372 36.0998 14.0168C36.2794 14.1964 36.3803 14.44 36.3803 14.694V24.7869L41.3485 30.0118C41.4323 30.1055 41.4968 30.2149 41.5383 30.3335C41.5798 30.4522 41.5975 30.5779 41.5903 30.7034C41.5831 30.829 41.5512 30.9518 41.4964 31.065C41.4417 31.1781 41.3651 31.2794 41.2711 31.3629C41.1775 31.4463 41.0683 31.5105 40.9499 31.5517C40.8315 31.5929 40.7061 31.6104 40.581 31.6031C40.4558 31.5959 40.3333 31.564 40.2204 31.5094C40.1075 31.4548 40.0065 31.3785 39.9232 31.2848Z" fill="url(#paint0_linear_2905_19620)"/>
</g>
<defs>
<linearGradient id="paint0_linear_2905_19620" x1="35.4197" y1="-0.903177" x2="35.4197" y2="70.9085" gradientUnits="userSpaceOnUse">
<stop stop-color="#00EFD1"/>
<stop offset="1" stop-color="#00ACEA"/>
</linearGradient>
<clipPath id="clip0_2905_19620">
<rect width="70" height="70" fill="white" transform="translate(0.419922 0.664062)"/>
</clipPath>
</defs>
</svg>
