<svg width="70" height="71" viewBox="0 0 70 71" fill="none" xmlns="http://www.w3.org/2000/svg">
<path d="M33.5102 50.4011C33.2655 50.3776 33.0392 50.2609 32.8783 50.0751C32.7173 49.8894 32.634 49.6488 32.6456 49.4033C32.6572 49.1577 32.7628 48.9261 32.9406 48.7563C33.1183 48.5866 33.3546 48.4917 33.6004 48.4914L36.3238 48.4969C36.5699 48.498 36.806 48.5939 36.9832 48.7645C37.1604 48.9352 37.2651 49.1676 37.2755 49.4134C37.286 49.6592 37.2013 49.8996 37.0392 50.0846C36.877 50.2697 36.6498 50.3852 36.4048 50.4071C35.9126 50.4503 35.4537 50.4711 34.9982 50.4711C34.4995 50.4711 33.9985 50.4476 33.5102 50.4011ZM12.6026 28.496C13.0516 27.0176 13.6455 25.5872 14.3755 24.2255L9.99398 18.0655C9.86275 17.8811 9.80112 17.6562 9.82004 17.4308C9.83897 17.2053 9.93722 16.9938 10.0973 16.8339L16.5669 10.3649C16.7268 10.2048 16.9382 10.1065 17.1637 10.0876C17.3892 10.0687 17.6141 10.1303 17.7984 10.2616L23.9579 14.6431C25.3196 13.913 26.75 13.3191 28.2284 12.8702L29.4862 5.41898C29.5238 5.19615 29.639 4.9938 29.8115 4.84776C29.984 4.70173 30.2025 4.62143 30.4285 4.62109H39.5723C39.7985 4.62105 40.0175 4.70117 40.1903 4.84724C40.3631 4.9933 40.4785 5.19587 40.5162 5.41898L41.774 12.8702C43.2524 13.3191 44.6829 13.913 46.0445 14.6431L52.204 10.2616C52.3883 10.1303 52.6132 10.0687 52.8387 10.0876C53.0642 10.1065 53.2757 10.2048 53.4355 10.3649L59.9051 16.8339C60.0652 16.9938 60.1635 17.2053 60.1824 17.4308C60.2013 17.6562 60.1397 17.8811 60.0084 18.0655L55.6269 24.2255C56.3569 25.5872 56.9508 27.0176 57.3998 28.496L64.851 29.7538C65.074 29.7914 65.2765 29.9068 65.4226 30.0795C65.5686 30.2522 65.6488 30.471 65.6489 30.6972V39.8398C65.6488 40.066 65.5686 40.2848 65.4226 40.4575C65.2765 40.6302 65.074 40.7456 64.851 40.7832L57.3998 42.041C56.9508 43.5194 56.3569 44.9498 55.6269 46.3116L60.0084 52.4716C60.1396 52.6558 60.2012 52.8806 60.1823 53.106C60.1634 53.3314 60.0652 53.5428 59.9051 53.7026L53.4355 60.1721C53.2755 60.3319 53.0641 60.43 52.8387 60.4489C52.6133 60.4678 52.3884 60.4064 52.204 60.2755L46.0445 55.8939C44.6829 56.624 43.2524 57.2179 41.774 57.6669L40.5162 65.118C40.4785 65.3412 40.3631 65.5437 40.1903 65.6898C40.0175 65.8359 39.7985 65.916 39.5723 65.9159H30.4285C30.2023 65.916 29.9833 65.8359 29.8105 65.6898C29.6377 65.5437 29.5222 65.3412 29.4846 65.118L28.2268 57.6669C26.7484 57.2179 25.3179 56.624 23.9563 55.8939L17.7968 60.2755C17.6124 60.4065 17.3875 60.468 17.1621 60.4491C16.9367 60.4301 16.7252 60.332 16.5652 60.1721L10.0957 53.7026C9.93562 53.5428 9.83739 53.3314 9.81847 53.106C9.79954 52.8806 9.86115 52.6558 9.99234 52.4716L14.3739 46.3116C13.6439 44.9498 13.05 43.5194 12.6009 42.041L5.14977 40.7832C4.92705 40.7452 4.72493 40.6297 4.57921 40.4571C4.43348 40.2844 4.35353 40.0658 4.35352 39.8398V30.6961C4.3536 30.4699 4.43378 30.2511 4.57983 30.0784C4.72589 29.9057 4.92839 29.7903 5.15141 29.7527L12.6026 28.496ZM13.5142 30.2838L6.26758 31.5055V39.0305L13.5142 40.2522C13.6944 40.2822 13.8622 40.3631 13.9979 40.4854C14.1336 40.6077 14.2314 40.7662 14.2798 40.9423C14.7569 42.6745 15.4482 44.3404 16.3377 45.9014C16.4276 46.0602 16.4702 46.2413 16.4605 46.4235C16.4508 46.6056 16.3893 46.7812 16.283 46.9295L12.0223 52.92L17.3484 58.2455L23.3388 53.9842C23.4876 53.8787 23.6634 53.8178 23.8456 53.8086C24.0278 53.7994 24.2088 53.8423 24.3675 53.9323C25.9279 54.8223 27.5935 55.5138 29.3255 55.9907C29.5016 56.0391 29.6603 56.1369 29.7827 56.2726C29.9051 56.4083 29.9861 56.5761 30.0162 56.7563L31.2373 64.003H38.7634L39.9846 56.7563C40.0146 56.5761 40.0955 56.4082 40.218 56.2725C40.3404 56.1368 40.4991 56.039 40.6753 55.9907C42.4073 55.5138 44.0728 54.8223 45.6333 53.9323C45.7919 53.842 45.973 53.799 46.1552 53.8082C46.3374 53.8174 46.5133 53.8784 46.662 53.9842L52.6524 58.2455L57.9784 52.92L53.7172 46.9295C53.6114 46.7809 53.5503 46.6052 53.5411 46.4231C53.5319 46.2409 53.575 46.0599 53.6652 45.9014C54.5548 44.3404 55.2461 42.6745 55.7231 40.9423C55.7716 40.7662 55.8694 40.6077 56.0051 40.4854C56.1408 40.3631 56.3086 40.2822 56.4888 40.2522L63.7332 39.0305V31.5055L56.4866 30.2838C56.3064 30.2537 56.1385 30.1726 56.0028 30.0503C55.8672 29.9279 55.7694 29.7692 55.7209 29.593C55.2438 27.8611 54.5525 26.1954 53.663 24.6345C53.5728 24.476 53.5297 24.295 53.5389 24.1129C53.5481 23.9307 53.6092 23.755 53.715 23.6064L57.9762 17.6154L52.6502 12.2905L46.662 16.5517C46.5132 16.6572 46.3374 16.7182 46.1552 16.7274C45.973 16.7366 45.792 16.6937 45.6333 16.6037C44.0728 15.7137 42.4073 15.0222 40.6753 14.5452C40.4991 14.4969 40.3404 14.3992 40.218 14.2635C40.0955 14.1278 40.0146 13.9599 39.9846 13.7796L38.7634 6.53516H31.2373L30.0162 13.7818C29.9861 13.962 29.9051 14.1299 29.7827 14.2655C29.6603 14.4012 29.5016 14.499 29.3255 14.5474C27.5935 15.0243 25.9279 15.7158 24.3675 16.6059C24.2088 16.6957 24.0278 16.7386 23.8456 16.7294C23.6635 16.7202 23.4877 16.6593 23.3388 16.5539L17.3484 12.2905L12.0223 17.6154L16.2836 23.6064C16.3898 23.7547 16.4514 23.9303 16.4611 24.1125C16.4708 24.2946 16.4282 24.4758 16.3383 24.6345C15.4489 26.1954 14.7576 27.8611 14.2804 29.593C14.2319 29.7693 14.134 29.928 13.9983 30.0504C13.8625 30.1728 13.6945 30.2538 13.5142 30.2838ZM40.8815 47.1822C40.6878 47.2779 40.5321 47.4363 40.4399 47.6317C40.3477 47.8271 40.3243 48.048 40.3735 48.2584C40.4228 48.4688 40.5418 48.6563 40.7112 48.7905C40.8805 48.9246 41.0903 48.9975 41.3064 48.9973C42.4379 48.9945 50.2035 44.4582 50.2035 35.268C50.2045 32.561 49.4826 29.9028 48.1126 27.5681C46.7426 25.2334 44.774 23.3069 42.4103 21.9875C40.0466 20.6681 37.3735 20.0038 34.6671 20.0631C31.9608 20.1225 29.3194 20.9033 27.0158 22.325C24.7122 23.7467 22.8299 25.7577 21.5635 28.1502C20.2971 30.5427 19.6925 33.23 19.8121 35.9343C19.9317 38.6387 20.7712 41.262 22.2439 43.5334C23.7165 45.8048 25.7689 47.6417 28.1891 48.8545C28.4156 48.9661 28.6771 48.9836 28.9165 48.9032C29.1559 48.8228 29.3539 48.651 29.4672 48.4252C29.5805 48.1995 29.5999 47.9382 29.5213 47.6982C29.4428 47.4581 29.2725 47.2589 29.0477 47.1439C26.369 45.8017 24.2225 43.5937 22.9565 40.8782C21.6905 38.1627 21.3792 35.0991 22.0733 32.1844C22.7673 29.2698 24.426 26.6753 26.78 24.8218C29.134 22.9683 32.0453 21.9648 35.0414 21.9739C38.0375 21.983 40.9426 23.0044 43.2853 24.8721C45.628 26.7399 47.2707 29.3446 47.947 32.2634C48.6232 35.1822 48.2933 38.2438 47.0108 40.9516C45.7282 43.6593 43.5683 45.8542 40.8815 47.18V47.1822Z" fill="url(#paint0_linear_2905_18821)"/>
<path d="M39.4326 31.8354H38.4556C38.3226 31.1758 38.0283 30.58 37.6364 30.0622H39.4326C39.922 30.0622 40.3192 29.6651 40.3192 29.1757C40.3192 28.6863 39.922 28.2891 39.4326 28.2891H34.1131H30.5667C30.0773 28.2891 29.6801 28.6863 29.6801 29.1757C29.6801 29.6651 30.0773 30.0622 30.5667 30.0622H34.1131C35.2674 30.0622 36.2427 30.8052 36.6097 31.8354H30.5667C30.0773 31.8354 29.6801 32.2326 29.6801 32.722C29.6801 33.2114 30.0773 33.6086 30.5667 33.6086H36.6097C36.2427 34.6388 35.2674 35.3818 34.1131 35.3818H30.5667C30.4515 35.3818 30.3362 35.4048 30.228 35.4492C30.0117 35.5396 29.8379 35.7116 29.7475 35.9297C29.6571 36.146 29.6571 36.3907 29.7475 36.6071C29.7918 36.717 29.8574 36.8145 29.9408 36.8961L37.0317 43.987C37.2055 44.1608 37.4325 44.2477 37.6594 44.2477C37.8864 44.2477 38.1134 44.1608 38.2872 43.9888C38.6329 43.643 38.6329 43.0809 38.2872 42.7352L32.7069 37.155H34.1131C36.2551 37.155 38.0442 35.63 38.4556 33.6086H39.4326C39.922 33.6086 40.3192 33.2114 40.3192 32.722C40.3192 32.2326 39.922 31.8354 39.4326 31.8354Z" fill="url(#paint1_linear_2905_18821)"/>
<defs>
<linearGradient id="paint0_linear_2905_18821" x1="35.0011" y1="3.24876" x2="35.0011" y2="66.1297" gradientUnits="userSpaceOnUse">
<stop stop-color="#00EFD1"/>
<stop offset="1" stop-color="#00ACEA"/>
</linearGradient>
<linearGradient id="paint1_linear_2905_18821" x1="34.9994" y1="27.9318" x2="34.9994" y2="44.3034" gradientUnits="userSpaceOnUse">
<stop stop-color="#00EFD1"/>
<stop offset="1" stop-color="#00ACEA"/>
</linearGradient>
</defs>
</svg>
