<svg width="62" height="62" viewBox="0 0 62 62" fill="none" xmlns="http://www.w3.org/2000/svg">
<path d="M29.1566 45.8767C28.912 45.8532 28.6857 45.7365 28.5247 45.5507C28.3638 45.365 28.2805 45.1244 28.2921 44.8789C28.3037 44.6333 28.4093 44.4017 28.5871 44.2319C28.7648 44.0622 29.0011 43.9673 29.2469 43.967L31.9703 43.9725C32.2163 43.9736 32.4525 44.0695 32.6297 44.2401C32.8069 44.4108 32.9116 44.6432 32.922 44.889C32.9324 45.1348 32.8478 45.3752 32.6856 45.5602C32.5235 45.7453 32.2963 45.8607 32.0513 45.8827C31.5591 45.9259 31.1002 45.9467 30.6447 45.9467C30.1459 45.9467 29.645 45.9232 29.1566 45.8767ZM8.24906 23.9716C8.69812 22.4932 9.29199 21.0628 10.022 19.7011L5.64047 13.5411C5.50924 13.3567 5.4476 13.1318 5.46653 12.9063C5.48545 12.6809 5.58371 12.4694 5.74383 12.3095L12.2134 5.84051C12.3732 5.68039 12.5847 5.58213 12.8102 5.56321C13.0357 5.54428 13.2606 5.60592 13.4449 5.73715L19.6044 10.1187C20.966 9.38857 22.3965 8.7947 23.8749 8.34574L25.1327 0.89457C25.1703 0.671734 25.2855 0.469385 25.458 0.323351C25.6304 0.177317 25.849 0.0970201 26.075 0.0966797H35.2188C35.445 0.0966326 35.664 0.176753 35.8368 0.322821C36.0096 0.468889 36.125 0.671456 36.1627 0.89457L37.4205 8.34574C38.8989 8.7947 40.3293 9.38857 41.691 10.1187L47.8505 5.73715C48.0348 5.60592 48.2597 5.54428 48.4852 5.56321C48.7107 5.58213 48.9221 5.68039 49.082 5.84051L55.5516 12.3095C55.7117 12.4694 55.8099 12.6809 55.8289 12.9063C55.8478 13.1318 55.7862 13.3567 55.6549 13.5411L51.2734 19.7011C52.0034 21.0628 52.5973 22.4932 53.0463 23.9716L60.4975 25.2294C60.7205 25.267 60.923 25.3824 61.0691 25.5551C61.2151 25.7278 61.2953 25.9466 61.2954 26.1728V35.3154C61.2953 35.5416 61.2151 35.7604 61.0691 35.9331C60.923 36.1058 60.7205 36.2212 60.4975 36.2588L53.0463 37.5166C52.5973 38.995 52.0034 40.4254 51.2734 41.7871L55.6549 47.9471C55.7861 48.1314 55.8477 48.3562 55.8288 48.5816C55.8099 48.807 55.7116 49.0184 55.5516 49.1782L49.082 55.6477C48.922 55.8075 48.7105 55.9056 48.4851 55.9245C48.2597 55.9434 48.0349 55.882 47.8505 55.7511L41.691 51.3695C40.3293 52.0996 38.8989 52.6935 37.4205 53.1425L36.1627 60.5936C36.125 60.8167 36.0096 61.0193 35.8368 61.1654C35.664 61.3115 35.445 61.3916 35.2188 61.3915H26.075C25.8487 61.3916 25.6298 61.3115 25.457 61.1654C25.2842 61.0193 25.1687 60.8167 25.1311 60.5936L23.8733 53.1425C22.3949 52.6935 20.9644 52.0996 19.6027 51.3695L13.4433 55.7511C13.2589 55.8821 13.034 55.9436 12.8086 55.9247C12.5832 55.9057 12.3717 55.8076 12.2117 55.6477L5.74219 49.1782C5.58211 49.0184 5.48387 48.807 5.46495 48.5816C5.44602 48.3562 5.50764 48.1314 5.63883 47.9471L10.0204 41.7871C9.29035 40.4254 8.69648 38.995 8.24742 37.5166L0.79625 36.2588C0.57353 36.2208 0.371419 36.1053 0.225691 35.9327C0.0799638 35.76 1.64275e-05 35.5414 0 35.3154V26.1717C8.21764e-05 25.9455 0.0802612 25.7267 0.226318 25.554C0.372375 25.3813 0.57487 25.2659 0.79789 25.2283L8.24906 23.9716ZM9.1607 25.7593L1.91406 26.9811V34.5061L9.1607 35.7278C9.34087 35.7578 9.5087 35.8387 9.64437 35.961C9.78004 36.0833 9.87787 36.2418 9.92633 36.4179C10.4034 38.1501 11.0947 39.816 11.9842 41.377C12.0741 41.5357 12.1167 41.7169 12.107 41.899C12.0973 42.0812 12.0357 42.2568 11.9295 42.4051L7.66883 48.3956L12.9948 53.7211L18.9853 49.4598C19.1341 49.3543 19.3099 49.2934 19.4921 49.2841C19.6743 49.2749 19.8553 49.3179 20.014 49.4079C21.5744 50.2979 23.24 50.9894 24.972 51.4663C25.1481 51.5147 25.3068 51.6125 25.4292 51.7482C25.5515 51.8839 25.6326 52.0517 25.6627 52.2319L26.8838 59.4786H34.4099L35.6311 52.2319C35.6611 52.0517 35.742 51.8837 35.8644 51.7481C35.9868 51.6124 36.1456 51.5146 36.3218 51.4663C38.0538 50.9894 39.7193 50.2979 41.2798 49.4079C41.4384 49.3176 41.6194 49.2745 41.8017 49.2837C41.9839 49.2929 42.1597 49.354 42.3084 49.4598L48.2989 53.7211L53.6249 48.3956L49.3637 42.4051C49.2579 42.2565 49.1968 42.0808 49.1876 41.8986C49.1784 41.7165 49.2214 41.5355 49.3117 41.377C50.2012 39.816 50.8925 38.1501 51.3696 36.4179C51.4181 36.2418 51.5159 36.0833 51.6516 35.961C51.7872 35.8387 51.9551 35.7578 52.1352 35.7278L59.3797 34.5061V26.9811L52.133 25.7593C51.9528 25.7292 51.785 25.6482 51.6493 25.5258C51.5137 25.4035 51.4159 25.2448 51.3674 25.0686C50.8903 23.3367 50.199 21.671 49.3095 20.1101C49.2193 19.9516 49.1762 19.7706 49.1854 19.5885C49.1946 19.4063 49.2557 19.2306 49.3615 19.082L53.6227 13.091L48.2967 7.76605L42.3084 12.0273C42.1596 12.1328 41.9838 12.1938 41.8017 12.203C41.6195 12.2122 41.4384 12.1693 41.2798 12.0793C39.7193 11.1892 38.0538 10.4977 36.3218 10.0208C36.1456 9.97252 35.9868 9.87474 35.8644 9.73905C35.742 9.60337 35.6611 9.43546 35.6311 9.2552L34.4099 2.01074H26.8838L25.6627 9.25738C25.6326 9.4376 25.5515 9.60544 25.4292 9.7411C25.3068 9.87677 25.1481 9.97458 24.972 10.023C23.24 10.4999 21.5744 11.1914 20.014 12.0814C19.8553 12.1713 19.6743 12.2141 19.4921 12.2049C19.3099 12.1957 19.1342 12.1349 18.9853 12.0295L12.9948 7.76605L7.66883 13.091L11.9301 19.082C12.0363 19.2303 12.0979 19.4059 12.1076 19.5881C12.1172 19.7702 12.0746 19.9514 11.9848 20.1101C11.0953 21.671 10.404 23.3367 9.92688 25.0686C9.87841 25.2449 9.78051 25.4036 9.64474 25.526C9.50898 25.6484 9.34102 25.7293 9.1607 25.7593ZM36.528 42.6578C36.3342 42.7535 36.1786 42.9119 36.0864 43.1073C35.9941 43.3027 35.9707 43.5236 36.02 43.734C36.0693 43.9444 36.1883 44.1319 36.3576 44.266C36.527 44.4002 36.7368 44.4731 36.9529 44.4729C38.0844 44.4701 45.85 39.9338 45.85 30.7436C45.851 28.0366 45.1291 25.3784 43.7591 23.0437C42.389 20.709 40.4205 18.7824 38.0568 17.4631C35.6931 16.1437 33.02 15.4794 30.3136 15.5387C27.6073 15.598 24.9659 16.3789 22.6623 17.8006C20.3587 19.2223 18.4764 21.2333 17.21 23.6258C15.9436 26.0183 15.339 28.7055 15.4586 31.4099C15.5782 34.1143 16.4177 36.7376 17.8904 39.009C19.363 41.2804 21.4154 43.1173 23.8355 44.3301C24.0621 44.4417 24.3236 44.4592 24.563 44.3787C24.8024 44.2983 25.0004 44.1265 25.1136 43.9008C25.2269 43.6751 25.2464 43.4138 25.1678 43.1738C25.0893 42.9337 24.919 42.7345 24.6941 42.6195C22.0155 41.2773 19.869 39.0693 18.603 36.3538C17.3369 33.6383 17.0257 30.5747 17.7198 27.66C18.4138 24.7454 20.0724 22.1509 22.4265 20.2974C24.7805 18.4439 27.6918 17.4403 30.6879 17.4495C33.684 17.4586 36.5891 18.4799 38.9318 20.3477C41.2744 22.2155 42.9172 24.8201 43.5935 27.7389C44.2697 30.6577 43.9398 33.7194 42.6573 36.4272C41.3747 39.1349 39.2148 41.3298 36.528 42.6556V42.6578Z" fill="url(#paint0_linear_6930_2355)"/>
<circle cx="30.5696" cy="30.7698" r="14.32" stroke="url(#paint1_linear_6930_2355)" stroke-width="1.7"/>
<defs>
<linearGradient id="paint0_linear_6930_2355" x1="30.6476" y1="-1.27565" x2="30.6476" y2="61.6053" gradientUnits="userSpaceOnUse">
<stop stop-color="#00EFD1"/>
<stop offset="1" stop-color="#00ACEA"/>
</linearGradient>
<linearGradient id="paint1_linear_6930_2355" x1="30.5696" y1="16.6966" x2="30.5696" y2="44.3338" gradientUnits="userSpaceOnUse">
<stop stop-color="#00EFD1"/>
<stop offset="1" stop-color="#00ACEA"/>
</linearGradient>
</defs>
</svg>
