<svg width="60" height="61" viewBox="0 0 60 61" fill="none" xmlns="http://www.w3.org/2000/svg">
<path d="M57.5821 33.7048C57.6642 27.9043 52.8149 24.0095 47.4219 23.7485C52.2215 18.8829 50.1527 8.43917 41.2063 8.39229C39.5302 8.3306 37.8744 8.78204 36.4521 9.68845C35.0299 10.5949 33.9065 11.9147 33.2266 13.478C31.1917 12.892 29.0359 12.9035 27.0072 13.5112C26.3271 11.9479 25.2061 10.6262 23.7869 9.71461C22.3677 8.80301 20.7145 8.3427 19.0378 8.39229C10.0914 8.43917 8.03176 18.8829 12.8222 23.7485C7.42923 24.0089 2.57929 27.9055 2.66205 33.7048C2.36782 36.6954 2.99306 40.3892 6.40429 41.036C7.82368 41.3587 9.51385 41.703 11.1433 42.0085C10.8048 45.5602 11.1873 50.2282 15.3875 51.0298C25.0556 53.8109 35.2897 53.8109 44.9577 51.0298C49.1526 50.2276 49.5469 45.5542 49.1979 41.9914C50.7977 41.6865 52.4593 41.3489 53.8398 41.036C57.251 40.3892 57.8763 36.6954 57.5821 33.7048ZM41.2063 10.2485C50.994 10.2127 49.921 25.6392 40.2414 24.3066C40.466 22.2722 40.0837 20.216 39.1444 18.4066C38.2051 16.5972 36.7523 15.1188 34.976 14.1643C35.5035 12.9452 36.3816 11.918 37.4941 11.2188C38.6066 10.5196 39.9011 10.1813 41.2063 10.2485ZM30.1726 31.7917C19.1214 31.5949 19.1197 15.0879 30.1726 14.8892C41.2236 15.086 41.2253 31.593 30.1726 31.7917ZM19.0378 10.2485C20.3467 10.1952 21.6411 10.545 22.7523 11.2523C23.8634 11.9596 24.74 12.9917 25.2677 14.2142C23.5255 15.1782 22.1039 16.6489 21.184 18.4391C20.264 20.2294 19.8872 22.2582 20.1016 24.2675C10.385 25.8195 9.19562 10.1959 19.0378 10.2485ZM6.79967 39.1985C4.26193 38.7485 4.41824 35.711 4.50099 33.7048C4.58374 27.473 9.79549 25.7511 14.9554 25.286C16.6506 26.1002 18.5462 26.3779 20.3977 26.0834C20.8491 27.9759 21.833 29.6926 23.2284 31.0227C17.6775 31.2589 12.4842 34.6614 11.3488 40.1303C9.66299 39.8079 7.99001 39.4652 6.79967 39.1985ZM44.5623 49.1923C35.1466 51.8529 25.1986 51.8529 15.7829 49.1923C12.7211 48.6485 12.8498 45.0298 12.9601 42.5923C13.261 34.9048 19.0587 33.2446 25.4289 32.5409C26.914 33.2494 28.5335 33.6166 30.1731 33.6166C31.8127 33.6166 33.4323 33.2494 34.9174 32.5409C41.3384 33.2787 47.0382 34.8478 47.3854 42.5924C47.4955 45.0298 47.6242 48.6485 44.5623 49.1923ZM53.4444 39.1985C52.2728 39.4558 50.634 39.8012 48.985 40.1149C47.8379 34.6188 42.7259 31.3005 37.1177 31.0225C38.5019 29.7027 39.481 28.0019 39.9364 26.1262C41.7625 26.3659 43.6179 26.0746 45.2887 25.286C50.5369 25.8085 55.5821 27.3747 55.7431 33.7048C55.8259 35.711 55.9822 38.7485 53.4444 39.1985Z" fill="url(#paint0_linear_2905_18425)" stroke="url(#paint1_linear_2905_18425)" stroke-width="0.3"/>
<defs>
<linearGradient id="paint0_linear_2905_18425" x1="30.1219" y1="7.38528" x2="30.1219" y2="53.2716" gradientUnits="userSpaceOnUse">
<stop stop-color="#00EFD1"/>
<stop offset="1" stop-color="#00ACEA"/>
</linearGradient>
<linearGradient id="paint1_linear_2905_18425" x1="30.1219" y1="7.38528" x2="30.1219" y2="53.2716" gradientUnits="userSpaceOnUse">
<stop stop-color="#00EFD1"/>
<stop offset="1" stop-color="#00ACEA"/>
</linearGradient>
</defs>
</svg>
