<svg width="62" height="63" viewBox="0 0 62 63" fill="none" xmlns="http://www.w3.org/2000/svg">
<path d="M6.89689 28.2164C5.48218 28.213 4.10133 28.649 2.94507 29.4641C1.7888 30.2793 0.914204 31.4334 0.442076 32.767C-0.0300518 34.1006 -0.0764062 35.5479 0.309417 36.909C0.695239 38.2701 1.4942 39.4778 2.59593 40.3652C3.69766 41.2527 5.04779 41.7762 6.45981 41.8633C7.87184 41.9504 9.27608 41.5969 10.4786 40.8516C11.681 40.1063 12.6224 39.006 13.1726 37.7027C13.7228 36.3994 13.8548 34.9573 13.5502 33.5758L21.4011 30.6538C22.4983 32.8889 24.427 34.6055 26.7742 35.4363L22.8656 51.3443C21.4461 51.2458 20.0412 51.6838 18.9292 52.5716C17.8172 53.4595 17.079 54.7325 16.8608 56.1386C16.6426 57.5448 16.9602 58.9816 17.7509 60.1647C18.5415 61.3478 19.7476 62.191 21.1302 62.5273C22.5129 62.8636 23.9715 62.6686 25.2172 61.9808C26.4629 61.293 27.405 60.1626 27.857 58.8133C28.309 57.464 28.238 55.9942 27.658 54.6948C27.078 53.3954 26.0313 52.361 24.725 51.7966L28.6324 35.8902C29.0735 35.9533 29.5185 35.9859 29.9641 35.9875C31.8761 35.9847 33.7431 35.4078 35.3235 34.3316L41.0771 41.2085C40.5631 41.8055 40.1787 42.5027 39.9483 43.256C39.7179 44.0093 39.6465 44.8022 39.7386 45.5846C39.8307 46.3669 40.0843 47.1216 40.4834 47.8008C40.8824 48.48 41.4182 49.0689 42.0568 49.5301C42.6954 49.9914 43.4228 50.3149 44.193 50.4803C44.9632 50.6457 45.7593 50.6493 46.531 50.4909C47.3026 50.3324 48.033 50.0154 48.6757 49.5599C49.3184 49.1045 49.8595 48.5204 50.2646 47.8449C50.3321 47.7375 50.3775 47.6179 50.3983 47.4928C50.4191 47.3678 50.4148 47.2399 50.3858 47.1165C50.3568 46.9931 50.3035 46.8767 50.2291 46.7741C50.1547 46.6715 50.0607 46.5847 49.9525 46.5187C49.8443 46.4527 49.724 46.4088 49.5987 46.3897C49.4734 46.3706 49.3456 46.3765 49.2226 46.4072C49.0996 46.4379 48.9839 46.4927 48.8823 46.5684C48.7807 46.6442 48.6951 46.7394 48.6306 46.8484C48.2043 47.5522 47.5602 48.0977 46.7959 48.4024C46.0316 48.707 45.1888 48.7541 44.3954 48.5365C43.6019 48.319 42.901 47.8486 42.399 47.1967C41.897 46.5448 41.6212 45.7471 41.6135 44.9243C41.6058 44.1016 41.8666 43.2988 42.3564 42.6377C42.8461 41.9765 43.5381 41.4931 44.3274 41.2608C45.1166 41.0284 45.9601 41.0597 46.73 41.35C47.4998 41.6403 48.154 42.1737 48.5934 42.8694C48.729 43.0846 48.9445 43.237 49.1926 43.2933C49.4406 43.3495 49.7008 43.305 49.916 43.1693C50.1312 43.0337 50.2836 42.8182 50.3399 42.5702C50.3962 42.3221 50.3516 42.0619 50.216 41.8467C49.4307 40.5977 48.1902 39.7033 46.7571 39.353C45.3239 39.0027 43.8107 39.2239 42.5378 39.9699L36.7918 33.1011C37.6952 32.1791 38.4006 31.0822 38.8647 29.8777C39.3288 28.6732 39.5418 27.3865 39.4906 26.0967L50.7317 24.5469C51.1571 25.9122 52.0798 27.068 53.3169 27.7853C54.554 28.5027 56.0155 28.7292 57.4118 28.4202C58.808 28.1112 60.0374 27.2891 60.8563 26.1167C61.6752 24.9444 62.024 23.5072 61.8336 22.0899C61.6432 20.6725 60.9275 19.3784 59.8282 18.4637C58.7289 17.549 57.3262 17.0804 55.8979 17.1509C54.4696 17.2213 53.1198 17.8255 52.1158 18.8439C51.1118 19.8623 50.5269 21.2206 50.4768 22.6498L39.2292 24.2007C39.0874 23.6026 38.8876 23.0198 38.6326 22.4606C38.5238 22.2344 38.3305 22.06 38.0943 21.975C37.8582 21.89 37.5981 21.9012 37.3701 22.0061C37.1421 22.111 36.9644 22.3013 36.8754 22.536C36.7864 22.7706 36.7931 23.0309 36.8941 23.2606C37.5908 24.7803 37.7694 26.4866 37.4023 28.1175C37.0353 29.7485 36.143 31.2138 34.8624 32.2885C29.8585 36.4852 22.339 32.8053 22.339 26.4429C22.3393 25.1042 22.6919 23.7891 23.3615 22.6299C24.0311 21.4706 24.994 20.508 26.1535 19.8388C26.5946 19.5843 26.5 19.5967 27.4123 19.2378C27.7712 19.0967 28 19.0967 28.8659 18.9119C28.9016 18.7878 29.5158 17.7248 29.5 17.5967C29.5648 17.7083 29.4842 17.4686 29.5 17.5967C29.4352 17.4851 29.5 17.0967 29.018 16.9783C29.018 16.9783 28.3939 17.0257 28 17.0967C27.4536 17.1951 27.1479 17.2745 26.6279 17.469C26.0414 17.6884 25.5466 17.9808 25.1931 18.1851C24.4228 18.6302 23.7188 19.1814 23.1019 19.8224L10.41 9.82283C11.0712 8.60442 11.2516 7.18242 10.9156 5.83751C10.5796 4.4926 9.75166 3.3225 8.59517 2.55818C7.43868 1.79386 6.03768 1.49084 4.6687 1.70895C3.29973 1.92705 2.06225 2.65043 1.20053 3.73629C0.338805 4.82216 -0.0845461 6.19161 0.0140363 7.57434C0.112619 8.95707 0.725971 10.2526 1.73303 11.2052C2.74008 12.1579 4.06767 12.6984 5.45374 12.72C6.83981 12.7417 8.18366 12.243 9.22002 11.3224L21.9179 21.3242C20.9366 22.8507 20.4172 24.6282 20.4222 26.4429C20.4228 27.2578 20.5277 28.0692 20.7345 28.8574L12.8835 31.7782C12.2979 30.7013 11.4328 29.8021 10.3793 29.1753C9.32578 28.5485 8.12278 28.2172 6.89689 28.2164ZM6.89689 39.9294C5.9279 39.9293 4.98069 39.6418 4.17505 39.1034C3.36941 38.565 2.74152 37.7998 2.37078 36.9045C2.00003 36.0092 1.90309 35.0241 2.09219 34.0738C2.2813 33.1234 2.74797 32.2505 3.43319 31.5653C4.11842 30.8802 4.99142 30.4136 5.9418 30.2246C6.89219 30.0356 7.87728 30.1326 8.7725 30.5035C9.66773 30.8743 10.4329 31.5023 10.9712 32.308C11.5096 33.1137 11.7969 34.0609 11.7969 35.0299C11.7954 36.329 11.2787 37.5744 10.3601 38.493C9.44145 39.4115 8.19596 39.9281 6.89689 39.9294ZM26.2382 57.0132C26.2383 57.7602 26.0169 58.4904 25.602 59.1116C25.1871 59.7327 24.5973 60.2169 23.9072 60.5028C23.2171 60.7888 22.4577 60.8636 21.725 60.718C20.9924 60.5723 20.3194 60.2127 19.7912 59.6845C19.2629 59.1563 18.9032 58.4834 18.7574 57.7508C18.6116 57.0181 18.6864 56.2587 18.9722 55.5686C19.2581 54.8785 19.7421 54.2886 20.3632 53.8736C20.9843 53.4586 21.7145 53.237 22.4615 53.237C23.4627 53.2382 24.4226 53.6364 25.1306 54.3443C25.8386 55.0522 26.2369 56.012 26.2382 57.0132ZM56.1578 19.0601C56.9049 19.06 57.6353 19.2815 58.2565 19.6965C58.8777 20.1116 59.3618 20.7016 59.6477 21.3919C59.9335 22.0822 60.0082 22.8417 59.8623 23.5745C59.7163 24.3072 59.3564 24.9802 58.8279 25.5083C58.2994 26.0364 57.6261 26.3959 56.8933 26.5413C56.1604 26.6867 55.4009 26.6115 54.7109 26.3252C54.0208 26.0388 53.4311 25.5542 53.0165 24.9327C52.6019 24.3112 52.3809 23.5807 52.3816 22.8335C52.3836 21.8329 52.7822 20.8739 53.49 20.1666C54.1978 19.4593 55.1571 19.0614 56.1578 19.0601ZM5.57181 10.8088C4.86437 10.8091 4.17275 10.5995 3.58443 10.2066C2.99611 9.81369 2.53752 9.25515 2.26667 8.6016C1.99581 7.94806 1.92486 7.22887 2.06279 6.53499C2.20071 5.84112 2.54131 5.20374 3.04151 4.70346C3.54172 4.20318 4.17905 3.86248 4.8729 3.72445C5.56675 3.58642 6.28595 3.65726 6.93954 3.92802C7.59312 4.19877 8.15173 4.65727 8.54471 5.24553C8.93769 5.83379 9.14739 6.52538 9.14728 7.23283C9.14555 8.18013 8.76846 9.08814 8.09862 9.75799C7.42877 10.4278 6.52076 10.8049 5.57345 10.8067L5.57181 10.8088ZM35.9387 11.5198C37.3427 11.5249 38.6995 11.0127 39.7498 10.0809C40.8002 9.14918 41.4705 7.86319 41.6328 6.46854C41.7952 5.07389 41.4381 3.66832 40.6298 2.52025C39.8215 1.37218 38.6187 0.562057 37.251 0.244597C35.8833 -0.0728617 34.4465 0.124586 33.2152 0.799233C31.9838 1.47388 31.0441 2.57845 30.5755 3.90201C30.1069 5.22556 30.1422 6.67535 30.6748 7.97451C31.2073 9.27366 32.1997 10.3311 33.4624 10.945L31.6867 17.07C31.5954 17.0536 31.1289 16.9783 31 16.9783C30.5076 16.9783 30.5521 16.9849 30 16.9783C29.6237 16.9739 29.3098 16.9783 29.018 16.9783C28.7058 16.9907 28.717 18.7083 28.8659 18.9119C28.8659 18.9119 29.0234 18.8776 30 18.8776C30.503 18.847 31.0076 18.8925 31.1289 18.9119C31.9291 19.0357 32.7044 19.2862 33.4258 19.654C33.6523 19.7702 34.4569 20.5205 34.7776 20.5205C35.0983 20.5205 35.4039 21.1783 35.5 21.0967C35.5961 21.0151 34.6605 19.35 34.7181 19.2378C34.7756 19.1256 34.8105 19.0032 34.8207 18.8776C34.8309 18.7519 34.8163 18.6255 34.7776 18.5055C34.739 18.3855 34.6771 18.2743 34.5954 18.1782C34.5138 18.0821 34.4141 18.0031 34.3019 17.9456C34.0465 17.8149 33.7878 17.7 33.5286 17.5956L35.3027 11.4782C35.5151 11.5029 35.7287 11.5157 35.9425 11.5165L35.9387 11.5198ZM32.1636 5.82572C32.1636 5.07884 32.3851 4.34874 32.7999 3.72771C33.2148 3.10668 33.8046 2.62261 34.4945 2.33669C35.1845 2.05078 35.9438 1.97586 36.6763 2.12141C37.4089 2.26695 38.0818 2.62644 38.6101 3.1544C39.1384 3.68236 39.4982 4.35511 39.6442 5.08757C39.7902 5.82004 39.7157 6.57935 39.4302 7.26949C39.1447 7.95963 38.6609 8.54963 38.0402 8.96488C37.4194 9.38013 36.6894 9.602 35.9425 9.60244C34.9408 9.60186 33.9803 9.20384 33.2718 8.49575C32.5633 7.78767 32.1648 6.82739 32.1636 5.82572Z" fill="url(#paint0_linear_6930_2351)"/>
<circle cx="29.9004" cy="26.4004" r="8.5" stroke="url(#paint1_linear_6930_2351)" stroke-width="2"/>
<circle cx="45.385" cy="44.8255" r="4.77" stroke="url(#paint2_linear_6930_2351)" stroke-width="1.85"/>
<defs>
<linearGradient id="paint0_linear_6930_2351" x1="30.9421" y1="-1.30468" x2="30.9421" y2="62.9065" gradientUnits="userSpaceOnUse">
<stop stop-color="#00EFD1"/>
<stop offset="1" stop-color="#00ACEA"/>
</linearGradient>
<linearGradient id="paint1_linear_6930_2351" x1="29.9003" y1="16.475" x2="29.9003" y2="35.9667" gradientUnits="userSpaceOnUse">
<stop stop-color="#00EFD1"/>
<stop offset="1" stop-color="#00ACEA"/>
</linearGradient>
<linearGradient id="paint2_linear_6930_2351" x1="45.385" y1="40.8083" x2="45.385" y2="48.6973" gradientUnits="userSpaceOnUse">
<stop stop-color="#00EFD1"/>
<stop offset="1" stop-color="#00ACEA"/>
</linearGradient>
</defs>
</svg>
