<svg width="70" height="71" viewBox="0 0 70 71" fill="none" xmlns="http://www.w3.org/2000/svg">
<path d="M10.9311 32.0611C9.51636 32.0577 8.13551 32.4937 6.97924 33.3089C5.82298 34.124 4.94838 35.2781 4.47626 36.6117C4.00413 37.9453 3.95777 39.3926 4.3436 40.7537C4.72942 42.1148 5.52838 43.3225 6.63011 44.21C7.73184 45.0974 9.08197 45.6209 10.494 45.708C11.906 45.7951 13.3103 45.4416 14.5127 44.6963C15.7152 43.951 16.6566 42.8507 17.2068 41.5474C17.757 40.2441 17.8889 38.8021 17.5844 37.4205L25.4353 34.4986C26.5325 36.7336 28.4612 38.4502 30.8083 39.281L26.8998 55.189C25.4803 55.0905 24.0754 55.5285 22.9634 56.4163C21.8514 57.3042 21.1132 58.5772 20.895 59.9833C20.6768 61.3895 20.9944 62.8263 21.7851 64.0094C22.5757 65.1926 23.7817 66.0357 25.1644 66.372C26.5471 66.7083 28.0056 66.5133 29.2514 65.8255C30.4971 65.1377 31.4392 64.0073 31.8912 62.658C32.3432 61.3087 32.2722 59.8389 31.6922 58.5395C31.1122 57.2401 30.0654 56.2058 28.7592 55.6413L32.6666 39.7349C33.1077 39.7981 33.5527 39.8306 33.9983 39.8322C35.9102 39.8294 37.7773 39.2525 39.3576 38.1763L45.1113 45.0533C44.5973 45.6502 44.2129 46.3474 43.9825 47.1007C43.7521 47.854 43.6807 48.647 43.7728 49.4293C43.8649 50.2116 44.1185 50.9663 44.5175 51.6455C44.9166 52.3247 45.4524 52.9136 46.091 53.3748C46.7296 53.8361 47.457 54.1597 48.2272 54.3251C48.9974 54.4904 49.7935 54.494 50.5652 54.3356C51.3368 54.1772 52.0671 53.8601 52.7098 53.4047C53.3526 52.9492 53.8936 52.3652 54.2988 51.6896C54.3662 51.5823 54.4117 51.4626 54.4325 51.3376C54.4533 51.2125 54.449 51.0846 54.42 50.9612C54.3909 50.8379 54.3377 50.7215 54.2633 50.6188C54.1889 50.5162 54.0949 50.4294 53.9867 50.3634C53.8784 50.2974 53.7582 50.2536 53.6329 50.2344C53.5076 50.2153 53.3797 50.2212 53.2568 50.2519C53.1338 50.2826 53.0181 50.3374 52.9165 50.4132C52.8149 50.4889 52.7293 50.5841 52.6647 50.6932C52.2385 51.3969 51.5944 51.9425 50.8301 52.2471C50.0658 52.5517 49.223 52.5988 48.4295 52.3813C47.6361 52.1637 46.9352 51.6933 46.4332 51.0414C45.9311 50.3896 45.6554 49.5918 45.6477 48.7691C45.64 47.9463 45.9008 47.1435 46.3905 46.4824C46.8803 45.8213 47.5723 45.3379 48.3615 45.1055C49.1508 44.8731 49.9943 44.9045 50.7642 45.1948C51.534 45.4851 52.1882 46.0185 52.6276 46.7141C52.7632 46.9293 52.9787 47.0818 53.2267 47.138C53.4748 47.1943 53.735 47.1497 53.9502 47.0141C54.1653 46.8785 54.3178 46.6629 54.3741 46.4149C54.4303 46.1669 54.3857 45.9066 54.2501 45.6915C53.4649 44.4424 52.2244 43.5481 50.7913 43.1977C49.3581 42.8474 47.8449 43.0686 46.572 43.8146L40.826 36.9458C41.7294 36.0238 42.4348 34.9269 42.8989 33.7224C43.363 32.5179 43.576 31.2313 43.5248 29.9415L54.7658 28.3916C55.1913 29.7569 56.1139 30.9127 57.3511 31.63C58.5882 32.3474 60.0496 32.574 61.4459 32.265C62.8422 31.9559 64.0715 31.1338 64.8905 29.9615C65.7094 28.7891 66.0582 27.3519 65.8678 25.9346C65.6774 24.5173 64.9617 23.2231 63.8624 22.3084C62.7631 21.3937 61.3604 20.9252 59.9321 20.9956C58.5038 21.066 57.1539 21.6702 56.15 22.6886C55.146 23.707 54.561 25.0653 54.511 26.4945L43.2634 28.0454C43.1216 27.4474 42.9218 26.8646 42.6668 26.3053C42.558 26.0791 42.3647 25.9047 42.1285 25.8197C41.8924 25.7347 41.6323 25.7459 41.4043 25.8508C41.1763 25.9558 40.9986 26.146 40.9096 26.3807C40.8205 26.6154 40.8272 26.8756 40.9283 27.1054C41.625 28.625 41.8036 30.3313 41.4365 31.9623C41.0695 33.5932 40.1772 35.0585 38.8966 36.1332C33.8927 40.3299 26.3732 36.65 26.3732 30.2876C26.3734 28.9489 26.7261 27.6338 27.3957 26.4746C28.0652 25.3153 29.0282 24.3527 30.1876 23.6836C30.3019 23.6235 30.4028 23.541 30.4844 23.4409C30.5659 23.3408 30.6264 23.2253 30.6621 23.1013C30.6978 22.9772 30.7081 22.8472 30.6923 22.7191C30.6765 22.591 30.6349 22.4674 30.5701 22.3558C30.5053 22.2442 30.4185 22.1468 30.3151 22.0696C30.2117 21.9923 30.0937 21.9368 29.9682 21.9064C29.8428 21.8759 29.7125 21.8711 29.5852 21.8924C29.4578 21.9136 29.3361 21.9603 29.2273 22.0298C28.457 22.475 27.753 23.0261 27.1361 23.6672L14.4442 13.6676C15.1054 12.4491 15.2858 11.0271 14.9498 9.68223C14.6138 8.33733 13.7858 7.16723 12.6294 6.40291C11.4729 5.63858 10.0719 5.33557 8.70288 5.55367C7.3339 5.77178 6.09643 6.49515 5.23471 7.58102C4.37298 8.66688 3.94963 10.0363 4.04822 11.4191C4.1468 12.8018 4.76015 14.0973 5.76721 15.05C6.77426 16.0026 8.10185 16.5431 9.48792 16.5648C10.874 16.5865 12.2178 16.0877 13.2542 15.1671L25.9521 25.1689C24.9708 26.6954 24.4514 28.4729 24.4564 30.2876C24.457 31.1025 24.5619 31.9139 24.7687 32.7021L16.9177 35.6229C16.3321 34.546 15.467 33.6468 14.4135 33.02C13.36 32.3932 12.157 32.0619 10.9311 32.0611ZM10.9311 43.7741C9.96207 43.774 9.01487 43.4866 8.20923 42.9481C7.40359 42.4097 6.7757 41.6445 6.40496 40.7492C6.03421 39.854 5.93727 38.8689 6.12637 37.9185C6.31548 36.9681 6.78215 36.0952 7.46737 35.41C8.1526 34.7249 9.0256 34.2583 9.97598 34.0693C10.9264 33.8803 11.9115 33.9774 12.8067 34.3482C13.7019 34.7191 14.4671 35.347 15.0054 36.1527C15.5437 36.9584 15.8311 37.9057 15.8311 38.8747C15.8296 40.1737 15.3129 41.4192 14.3943 42.3377C13.4756 43.2562 12.2301 43.7728 10.9311 43.7741ZM30.2724 60.8579C30.2725 61.6049 30.0511 62.3352 29.6362 62.9563C29.2212 63.5775 28.6314 64.0616 27.9413 64.3476C27.2513 64.6335 26.4919 64.7084 25.7592 64.5627C25.0266 64.417 24.3536 64.0574 23.8253 63.5292C23.2971 63.0011 22.9373 62.3281 22.7916 61.5955C22.6458 60.8629 22.7206 60.1035 23.0064 59.4133C23.2922 58.7232 23.7763 58.1333 24.3974 57.7183C25.0185 57.3033 25.7487 57.0818 26.4957 57.0818C27.4969 57.0829 28.4567 57.4811 29.1648 58.189C29.8728 58.8969 30.2711 59.8568 30.2724 60.8579ZM60.1919 22.9048C60.9391 22.9047 61.6694 23.1262 62.2907 23.5413C62.9119 23.9563 63.396 24.5463 63.6819 25.2366C63.9677 25.9269 64.0424 26.6865 63.8965 27.4192C63.7505 28.1519 63.3905 28.8249 62.8621 29.353C62.3336 29.8812 61.6603 30.2406 60.9275 30.386C60.1946 30.5314 59.4351 30.4562 58.745 30.1699C58.055 29.8835 57.4653 29.399 57.0507 28.7774C56.6361 28.1559 56.4151 27.4254 56.4158 26.6783C56.4178 25.6776 56.8164 24.7186 57.5242 24.0113C58.232 23.304 59.1913 22.9061 60.1919 22.9048ZM9.60599 14.6536C8.89855 14.6538 8.20692 14.4442 7.61861 14.0513C7.03029 13.6584 6.5717 13.0999 6.30085 12.4463C6.02999 11.7928 5.95904 11.0736 6.09697 10.3797C6.23489 9.68585 6.57549 9.04847 7.07569 8.54819C7.5759 8.04791 8.21323 7.70721 8.90708 7.56918C9.60093 7.43115 10.3201 7.50199 10.9737 7.77274C11.6273 8.0435 12.1859 8.502 12.5789 9.09026C12.9719 9.67852 13.1816 10.3701 13.1815 11.0776C13.1797 12.0249 12.8026 12.9329 12.1328 13.6027C11.4629 14.2726 10.5549 14.6496 9.60763 14.6514L9.60599 14.6536ZM39.9729 15.3645C41.3769 15.3696 42.7337 14.8574 43.784 13.9257C44.8344 12.9939 45.5047 11.7079 45.667 10.3133C45.8293 8.91862 45.4723 7.51305 44.664 6.36498C43.8557 5.2169 42.6528 4.40678 41.2851 4.08932C39.9174 3.77186 38.4807 3.96931 37.2494 4.64396C36.018 5.31861 35.0783 6.42318 34.6097 7.74673C34.1411 9.07029 34.1764 10.5201 34.7089 11.8192C35.2415 13.1184 36.2339 14.1759 37.4966 14.7897L35.7209 20.9147C35.6296 20.8983 35.5383 20.8776 35.4475 20.8639C35.1977 20.8287 34.9441 20.8937 34.7419 21.0445C34.5397 21.1953 34.4052 21.4199 34.3678 21.6694C34.3303 21.9189 34.3928 22.173 34.5418 22.3766C34.6907 22.5802 34.914 22.7168 35.1631 22.7566C35.9633 22.8805 36.7386 23.131 37.46 23.4987C37.6865 23.6149 37.95 23.6363 38.1923 23.5583C38.3123 23.5196 38.4235 23.4577 38.5196 23.3761C38.6157 23.2945 38.6947 23.1947 38.7522 23.0826C38.8098 22.9704 38.8446 22.848 38.8549 22.7223C38.8651 22.5967 38.8504 22.4702 38.8118 22.3502C38.7732 22.2302 38.7112 22.119 38.6296 22.0229C38.548 21.9269 38.4482 21.8478 38.3361 21.7903C38.0807 21.6596 37.822 21.5447 37.5628 21.4403L39.3369 15.3229C39.5493 15.3476 39.7629 15.3604 39.9767 15.3612L39.9729 15.3645ZM36.1978 9.67044C36.1978 8.92357 36.4192 8.19347 36.8341 7.57244C37.249 6.95141 37.8387 6.46733 38.5287 6.18142C39.2187 5.8955 39.978 5.82058 40.7105 5.96613C41.4431 6.11168 42.116 6.47116 42.6443 6.99913C43.1726 7.52709 43.5324 8.19983 43.6784 8.9323C43.8244 9.66477 43.7499 10.4241 43.4644 11.1142C43.1789 11.8044 42.6951 12.3944 42.0743 12.8096C41.4535 13.2249 40.7236 13.4467 39.9767 13.4472C38.975 13.4466 38.0145 13.0486 37.306 12.3405C36.5975 11.6324 36.199 10.6721 36.1978 9.67044Z" fill="url(#paint0_linear_2905_18824)"/>
<defs>
<linearGradient id="paint0_linear_2905_18824" x1="34.9763" y1="2.54004" x2="34.9763" y2="66.7512" gradientUnits="userSpaceOnUse">
<stop stop-color="#00EFD1"/>
<stop offset="1" stop-color="#00ACEA"/>
</linearGradient>
</defs>
</svg>
