<svg width="71" height="71" viewBox="0 0 71 71" fill="none" xmlns="http://www.w3.org/2000/svg">
<g clip-path="url(#clip0_2905_19625)">
<path fill-rule="evenodd" clip-rule="evenodd" d="M60.1774 51.4376H57.108L61.9795 55.3596C66.076 49.8525 68.5021 43.0354 68.5021 35.6641C68.5021 17.4297 53.6549 2.59802 35.4205 2.59802C25.4952 2.59802 16.5815 6.99288 10.5124 13.9378L17.9108 19.8907H60.1774C61.5842 19.8907 62.7314 21.0378 62.7314 22.4447V40.776C62.7508 40.8845 62.7508 40.9891 62.7314 41.0899V48.8836C62.7314 50.2904 61.5842 51.4376 60.1774 51.4376ZM51.5505 25.2195H41.133C40.6021 25.2195 40.1796 24.7971 40.1796 24.2662C40.1796 23.7313 40.6021 23.3089 41.133 23.3089H51.5505C52.0853 23.3089 52.5077 23.7313 52.5077 24.2662C52.5077 24.7971 52.0853 25.2195 51.5505 25.2195ZM29.7196 48.0232H19.306C18.7712 48.0232 18.3487 47.5969 18.3487 47.066C18.3487 46.5311 18.7712 46.1087 19.306 46.1087H29.7196C30.2544 46.1087 30.6768 46.5311 30.6768 47.066C30.6768 47.5969 30.2389 48.0232 29.7196 48.0232ZM54.0541 51.4376H10.6674C9.2567 51.4376 8.10954 50.2904 8.10954 48.8836V22.4447C8.10954 21.0378 9.2567 19.8907 10.6674 19.8907H14.8685L9.30321 15.4106C4.95098 21.0107 2.35437 28.0371 2.35437 35.6641C2.35437 53.8985 17.1861 68.7457 35.4205 68.7457C45.5976 68.7457 54.7168 64.1183 60.7898 56.8633L54.0541 51.4376ZM51.6939 49.5386L43.3072 42.7912C41.3617 44.9422 38.548 46.2986 35.4205 46.2986C29.5568 46.2986 24.786 41.5278 24.786 35.6641C24.786 33.3582 25.5223 31.2228 26.7741 29.4788L17.7945 22.247C16.4885 26.1613 13.6283 29.1338 10.0357 30.2771V40.1908C14.0236 41.4658 17.124 45.0158 18.1782 49.5386H51.6939ZM20.2865 21.8052L28.0259 28.0293C29.9405 26.1729 32.5487 25.0296 35.4205 25.0296C41.2842 25.0296 46.055 29.8004 46.055 35.6641C46.055 37.7182 45.4697 39.6327 44.4621 41.2604L53.0697 48.1899C54.3796 44.326 57.2436 41.3418 60.8324 40.2024V30.2732C57.0964 29.0912 54.1471 25.9288 52.9108 21.8052H20.2865ZM54.6742 49.4804L54.7478 49.5386H60.189C60.5301 49.5386 60.8324 49.2518 60.8324 48.8952V42.2448C57.9064 43.4036 55.6159 46.0816 54.6742 49.4804ZM35.4205 70.6564C16.0699 70.6564 0.428223 54.9798 0.428223 35.6641C0.428223 16.3329 16.0893 0.671875 35.4205 0.671875C44.7721 0.671875 53.5619 4.30713 60.1619 10.9227C66.7775 17.5266 70.4127 26.3163 70.4127 35.6641C70.4127 45.0158 66.7775 53.8055 60.1619 60.4056C53.5619 67.0211 44.7721 70.6564 35.4205 70.6564ZM54.9261 21.8052C55.988 24.832 58.1389 27.1689 60.8324 28.2308V22.4447C60.8324 22.1036 60.5456 21.8052 60.189 21.8052H54.9261ZM16.2017 49.5386C15.2754 46.1126 12.985 43.4036 10.0357 42.2332V48.8952C10.0357 49.2401 10.3225 49.5386 10.679 49.5386H16.2017ZM10.0357 28.2308C12.7214 27.1651 14.8646 24.8281 15.9226 21.8052H10.679V21.8168C10.338 21.8168 10.0357 22.1036 10.0357 22.4602V28.2308Z" fill="url(#paint0_linear_2905_19625)"/>
<circle cx="35.4411" cy="35.7478" r="9.11495" fill="white"/>
<path d="M38.8338 32.2502H38.0816C37.9792 31.7423 37.7525 31.2835 37.4508 30.8849H38.8338C39.2107 30.8849 39.5165 30.579 39.5165 30.2022C39.5165 29.8254 39.2107 29.5195 38.8338 29.5195H34.7379H32.0072C31.6304 29.5195 31.3246 29.8254 31.3246 30.2022C31.3246 30.579 31.6304 30.8849 32.0072 30.8849H34.7379C35.6267 30.8849 36.3776 31.4569 36.6603 32.2502H32.0072C31.6304 32.2502 31.3246 32.556 31.3246 32.9328C31.3246 33.3097 31.6304 33.6155 32.0072 33.6155H36.6603C36.3776 34.4088 35.6267 34.9808 34.7379 34.9808H32.0072C31.9185 34.9808 31.8297 34.9986 31.7464 35.0327C31.5799 35.1023 31.4461 35.2348 31.3764 35.4027C31.3068 35.5693 31.3068 35.7577 31.3764 35.9243C31.4106 36.0089 31.4611 36.084 31.5253 36.1468L36.9852 41.6068C37.119 41.7406 37.2938 41.8075 37.4685 41.8075C37.6433 41.8075 37.818 41.7406 37.9518 41.6081C38.2181 41.3419 38.2181 40.9091 37.9518 40.6428L33.6552 36.3462H34.7379C36.3872 36.3462 37.7648 35.172 38.0816 33.6155H38.8338C39.2107 33.6155 39.5165 33.3097 39.5165 32.9328C39.5165 32.556 39.2107 32.2502 38.8338 32.2502Z" fill="url(#paint1_linear_2905_19625)"/>
<line x1="26.2563" y1="27.8467" x2="46.5298" y2="44.2078" stroke="url(#paint2_linear_2905_19625)" stroke-width="1.9"/>
</g>
<defs>
<linearGradient id="paint0_linear_2905_19625" x1="35.4203" y1="-0.89501" x2="35.4203" y2="70.9005" gradientUnits="userSpaceOnUse">
<stop stop-color="#00EFD1"/>
<stop offset="1" stop-color="#00ACEA"/>
</linearGradient>
<linearGradient id="paint1_linear_2905_19625" x1="35.4203" y1="29.2444" x2="35.4203" y2="41.8503" gradientUnits="userSpaceOnUse">
<stop stop-color="#00EFD1"/>
<stop offset="1" stop-color="#00ACEA"/>
</linearGradient>
<linearGradient id="paint2_linear_2905_19625" x1="25.8629" y1="27.6891" x2="47.4913" y2="44.9473" gradientUnits="userSpaceOnUse">
<stop stop-color="#00D4DA"/>
<stop offset="1" stop-color="#00C3E1"/>
</linearGradient>
<clipPath id="clip0_2905_19625">
<rect width="70" height="70" fill="white" transform="translate(0.419922 0.664062)"/>
</clipPath>
</defs>
</svg>
