<svg width="61" height="61" viewBox="0 0 61 61" fill="none" xmlns="http://www.w3.org/2000/svg">
<g clip-path="url(#clip0_2905_18433)">
<path d="M10.2028 18.2965C10.8867 17.125 11.6859 16.0073 12.5768 14.9753C12.9868 14.4998 13.7061 14.4493 14.1774 14.8579C14.6517 15.2673 14.7048 15.9841 14.2948 16.4584C13.4947 17.3862 12.7762 18.3898 12.1622 19.4417C11.9516 19.8029 11.5714 20.004 11.1812 20.004C10.9872 20.004 10.79 19.9541 10.6104 19.8494C10.0687 19.5327 9.88701 18.8378 10.2028 18.2965ZM20.9859 38.9808C21.2762 38.9808 21.5668 38.8699 21.7883 38.6482L30.1697 30.2663C30.3825 30.0535 30.5022 29.7647 30.5022 29.4639V17.49C30.5022 16.8632 29.9946 16.3551 29.3673 16.3551C28.7399 16.3551 28.2323 16.8632 28.2323 17.49V28.9941L20.1835 37.0434C19.7404 37.4866 19.7404 38.205 20.1835 38.6482C20.4052 38.8699 20.6958 38.9808 20.9859 38.9808ZM59.5574 49.8931C59.5574 55.9015 54.6695 60.7891 48.6614 60.7891C44.9961 60.7891 41.7547 58.9643 39.7788 56.1815C36.4616 57.4755 32.9629 58.139 29.3674 58.139C13.5556 58.139 0.692383 45.2755 0.692383 29.4639C0.692383 13.6523 13.5558 0.789062 29.3673 0.789062C45.1787 0.789062 58.0426 13.6525 58.0426 29.4641C58.0426 33.6271 57.1636 37.6322 55.446 41.3816C57.9474 43.3796 59.5574 46.4496 59.5574 49.8931ZM53.5101 40.1495C55.0051 36.7812 55.7726 33.1923 55.7726 29.4639C55.7726 14.9043 43.9278 3.05882 29.3675 3.05882C14.8073 3.05882 2.96215 14.9044 2.96215 29.4641C2.96215 44.0237 14.807 55.869 29.3673 55.869C32.568 55.869 35.6778 55.2791 38.6403 54.1667C38.0933 52.8888 37.7874 51.4854 37.7713 50.0133C35.0962 51.0791 32.191 51.6354 29.3185 51.6354C28.4707 51.6354 27.6249 51.5872 26.7892 51.4891C20.9062 50.8001 15.6437 47.8621 11.9704 43.2147C8.2974 38.5679 6.65375 32.7692 7.34213 26.886C7.4153 26.2643 7.97406 25.818 8.60131 25.8906C9.22416 25.9632 9.66989 26.5274 9.59671 27.1498C8.97811 32.4304 10.4536 37.6358 13.7509 41.8076C17.0483 45.9788 21.7722 48.6162 27.0534 49.2346C30.7267 49.6628 34.6834 48.9979 38.0599 47.4184C39.047 43.1916 42.495 39.9098 46.8095 39.1665C46.8316 39.0925 46.839 39.0162 46.8773 38.9455C48.0808 36.7209 48.8424 34.3098 49.1384 31.7782C49.757 26.4976 48.2815 21.2922 44.9842 17.1204C41.6865 12.9489 36.9629 10.3116 31.6814 9.69311C27.238 9.17279 22.879 10.121 19.0662 12.43C18.5308 12.7549 17.8325 12.584 17.5068 12.047C17.1819 11.511 17.3539 10.8127 17.8893 10.4881C22.1396 7.9146 26.9967 6.86062 31.9453 7.43852C44.0907 8.86008 52.8144 19.8968 51.3924 32.0416C51.1063 34.4907 50.4052 36.8313 49.3512 39.0314C50.8382 39.1258 52.243 39.5163 53.5101 40.1495Z" fill="url(#paint0_linear_2905_18433)"/>
<circle cx="48.5329" cy="49.7946" r="8.65397" fill="white"/>
<path d="M53.185 47.212L47.1341 52.8669L43.8857 49.6907C43.6379 49.4482 43.2356 49.4482 42.9878 49.6907C42.7397 49.9333 42.7397 50.3264 42.9878 50.569L46.6756 54.1748C46.795 54.2925 46.9582 54.3577 47.1279 54.3555C47.2923 54.357 47.4506 54.2942 47.5673 54.1811L54.0705 48.109C54.1922 47.9951 54.2628 47.8385 54.2663 47.6738C54.2698 47.5091 54.2063 47.3497 54.0896 47.2308C53.8446 46.9826 53.4405 46.9743 53.185 47.212Z" fill="url(#paint1_linear_2905_18433)"/>
</g>
<defs>
<linearGradient id="paint0_linear_2905_18433" x1="30.1248" y1="-0.55428" x2="30.1248" y2="60.9983" gradientUnits="userSpaceOnUse">
<stop stop-color="#00EFD1"/>
<stop offset="1" stop-color="#00ACEA"/>
</linearGradient>
<linearGradient id="paint1_linear_2905_18433" x1="48.5341" y1="46.8753" x2="48.5341" y2="54.3811" gradientUnits="userSpaceOnUse">
<stop stop-color="#00EFD1"/>
<stop offset="1" stop-color="#00ACEA"/>
</linearGradient>
<clipPath id="clip0_2905_18433">
<rect width="60" height="60" fill="white" transform="translate(0.125 0.789062)"/>
</clipPath>
</defs>
</svg>
