<svg width="72" height="71" viewBox="0 0 72 71" fill="none" xmlns="http://www.w3.org/2000/svg">
<g clip-path="url(#clip0_2905_18826)">
<path d="M66.6123 14.9781L62.433 14.3752L60.5639 10.616C59.9334 9.3465 58.1084 9.34703 57.4773 10.616L55.6083 14.3752L51.429 14.9781C50.0183 15.1816 49.4545 16.9039 50.4751 17.892L53.4993 20.8181L52.7853 24.9501C52.5437 26.3504 54.026 27.4067 55.2828 26.7509L59.0209 24.8L62.759 26.7509C64.0201 27.4094 65.497 26.3456 65.2559 24.9501L64.542 20.8181L67.5662 17.892C68.5873 16.9039 68.0235 15.1816 66.6123 14.9781ZM62.9699 19.4754C62.5643 19.868 62.3797 20.433 62.4749 20.9874L63.1017 24.6125L59.8215 22.9009C59.3206 22.6392 58.7212 22.6392 58.2198 22.9009L54.9401 24.6125L55.5663 20.9868C55.6621 20.433 55.477 19.868 55.0713 19.4754L52.4179 16.9077L56.085 16.379C56.6456 16.2978 57.1298 15.9485 57.3805 15.4444L59.0204 12.146L60.6602 15.4444C60.9109 15.9485 61.3957 16.2978 61.9563 16.379L65.6234 16.9077L62.9699 19.4754Z" fill="url(#paint0_linear_2905_18826)"/>
<path d="M11.6464 10.616L9.77735 14.3753L5.59806 14.9782C4.18685 15.1817 3.62355 16.904 4.64416 17.892L7.66833 20.8181L6.95439 24.9496C6.71228 26.3499 8.19505 27.4068 9.45131 26.751L13.19 24.8001L16.9281 26.751C18.1892 27.41 19.666 26.3446 19.425 24.9501L18.7111 20.8181L21.7352 17.892C22.7564 16.904 22.192 15.1811 20.7813 14.9777L16.602 14.3747L14.733 10.6155C14.1019 9.34657 12.2775 9.3471 11.6464 10.616ZM14.8298 15.4444C15.0805 15.9486 15.5653 16.2979 16.1259 16.379L19.7925 16.9078L17.1395 19.475C16.7333 19.868 16.5482 20.4331 16.644 20.9874L17.2703 24.6126L13.9905 22.9015C13.4891 22.6398 12.8903 22.6393 12.3889 22.9015L9.1086 24.6131L9.73538 20.988C9.83115 20.4336 9.64607 19.8686 9.24041 19.4755L6.58693 16.9083L10.2535 16.379C10.8141 16.2984 11.2988 15.9491 11.5496 15.4444L13.1894 12.1461L14.8298 15.4444Z" fill="url(#paint1_linear_2905_18826)"/>
<path d="M18.2747 65.6297C18.2747 65.8999 18.0536 66.12 17.7814 66.12H14.6039C14.033 66.12 13.5709 66.5787 13.5709 67.1454C13.5709 67.7115 14.033 68.1708 14.6039 68.1708H17.7814C19.0425 68.1708 20.0916 67.2591 20.3004 66.0655L21.0315 66.065H21.0337C24.64 66.065 24.5356 70.2653 30.2321 70.2648H30.2418H48.3572C50.5539 70.2648 52.3412 68.4907 52.3412 66.3101C52.3412 65.2751 51.9388 64.332 51.2808 63.6265C52.2476 62.9285 52.8943 61.8256 52.9363 60.5866C52.9702 59.5724 52.6231 58.609 51.9565 57.8522C52.9906 57.1596 53.69 56.0156 53.732 54.7248C53.7696 53.5771 53.3209 52.5095 52.5048 51.7239C55.3455 49.3629 53.6712 44.739 49.9492 44.739C49.9487 44.739 49.9471 44.739 49.9465 44.739H38.3857C40.0923 39.5666 40.0406 39.9864 40.0406 33.9211C40.0406 31.4447 38.0107 29.4297 35.5159 29.4297C33.2552 29.4297 31.327 31.1077 31.031 33.3326C30.2886 38.9033 29.3912 39.4817 25.496 43.2052C24.4345 44.2199 23.0378 44.779 21.5642 44.779H20.2046C19.8624 43.7755 18.9064 43.0503 17.7814 43.0503H6.60577C5.19402 43.0503 4.0459 44.19 4.0459 45.5913V65.6302C4.0459 67.0311 5.19402 68.1708 6.60577 68.1708H9.78274C10.3536 68.1708 10.8157 67.712 10.8157 67.1454C10.8157 66.5793 10.3536 66.12 9.78274 66.12H6.60577C6.33353 66.12 6.11187 65.9005 6.11187 65.6302V45.5908C6.11187 45.3206 6.33353 45.1011 6.60577 45.1011H17.7814C18.0536 45.1011 18.2747 45.3206 18.2747 45.5908V65.6297ZM20.3407 46.8293H21.5636C23.5747 46.8293 25.4804 46.0667 26.9287 44.6824C31.0429 40.7501 32.2529 39.8054 33.0787 33.6012C33.2396 32.3921 34.2871 31.4805 35.5159 31.4805C36.8712 31.4805 37.9741 32.5753 37.9741 33.9206C37.9741 39.9042 38.0785 39.0801 36.1944 44.7892C35.8694 45.774 36.6102 46.7892 37.6545 46.7892H49.9471H49.9487C51.0075 46.7892 51.8688 47.64 51.8699 48.6867C51.8705 49.7383 51.0091 50.5949 49.9508 50.5955C48.1124 50.5971 52.7275 50.5965 45.0076 50.5965C44.4373 50.5965 43.9746 51.0558 43.9746 51.6219C43.9746 52.1886 44.4373 52.6473 45.0076 52.6473H49.7012H49.7039H49.706C50.8079 52.6473 51.7026 53.5611 51.6666 54.658C51.6337 55.6722 50.739 56.4979 49.6716 56.4979C47.2877 56.4979 50.3893 56.4989 45.0076 56.4989C44.4373 56.4989 43.9746 56.9582 43.9746 57.5243C43.9746 58.0904 44.4373 58.5497 45.0076 58.5497C52.1502 58.5497 46.3348 58.5486 48.9544 58.5486C50.0283 58.5486 50.9074 59.4272 50.8708 60.5182C50.8369 61.5314 49.9422 62.3559 48.877 62.3559C48.877 62.3559 48.7462 62.357 45.0076 62.357C44.4367 62.357 43.9746 62.8163 43.9746 63.3824C43.9746 63.949 44.4367 64.4078 45.0076 64.4078H48.3809C49.4273 64.4206 50.2747 65.2687 50.2747 66.3106C50.2747 67.3601 49.4144 68.214 48.3572 68.214H30.2412C30.238 68.214 30.2353 68.214 30.2326 68.214C25.4314 68.214 25.865 64.0142 21.0353 64.0142C21.0337 64.0142 21.0321 64.0142 21.031 64.0142L20.3407 64.0147V46.8293Z" fill="url(#paint2_linear_2905_18826)"/>
<path d="M44.378 14.5543C43.9696 14.9495 43.9615 15.5989 44.3597 16.0042C44.7583 16.4101 45.412 16.4181 45.8204 16.0229L49.4778 12.4843C50.7507 11.2522 50.0476 9.10475 48.2888 8.85107L41.2408 7.83476C41.215 7.83102 41.1924 7.815 41.1811 7.7915L38.0294 1.45223C37.2428 -0.130178 34.9676 -0.129645 34.1815 1.45223L31.0293 7.7915C31.018 7.815 30.9954 7.83102 30.9696 7.83476L23.9216 8.85107C22.1628 9.10528 21.4602 11.2527 22.7326 12.4843L27.8324 17.4184C27.8513 17.4366 27.8599 17.4627 27.8556 17.4884L26.6515 24.4562C26.3497 26.2015 28.1977 27.5191 29.7644 26.7014L36.0683 23.4116C36.0915 23.3999 36.1189 23.3993 36.1421 23.4116L42.446 26.7014C44.0186 27.5223 45.8597 26.1951 45.5589 24.4562L44.7718 19.9013C44.6755 19.3426 44.1407 18.9672 43.5796 19.0633C43.0168 19.1594 42.6391 19.6892 42.7359 20.2479L43.5231 24.8028C43.5263 24.8231 43.5311 24.8514 43.4913 24.8803C43.4515 24.9086 43.4262 24.8958 43.4079 24.8861L37.104 21.5964C36.4788 21.27 35.7321 21.27 35.1069 21.5964L28.803 24.8861C28.7847 24.8958 28.7594 24.9086 28.7196 24.8803C28.6798 24.8514 28.6846 24.8231 28.6879 24.8028L29.8919 17.8355C30.0114 17.1444 29.7811 16.4395 29.2748 15.9503L24.175 11.0156C24.1605 11.0012 24.1395 10.9814 24.1551 10.935C24.1702 10.888 24.1987 10.8842 24.2191 10.881L31.2671 9.86471C31.966 9.76377 32.5696 9.32798 32.8828 8.6994L36.0344 2.3596C36.0436 2.34144 36.0565 2.31581 36.1055 2.31581C36.155 2.31581 36.1673 2.34144 36.177 2.3596L39.3287 8.69886C39.6413 9.32798 40.2449 9.76377 40.9444 9.86418L47.9923 10.881C48.0128 10.8837 48.0408 10.888 48.0564 10.9344C48.0714 10.9814 48.051 11.0012 48.0365 11.0156L44.378 14.5543Z" fill="url(#paint3_linear_2905_18826)"/>
</g>
<defs>
<linearGradient id="paint0_linear_2905_18826" x1="59.0208" y1="9.27703" x2="59.0208" y2="27.0111" gradientUnits="userSpaceOnUse">
<stop stop-color="#00EFD1"/>
<stop offset="1" stop-color="#00ACEA"/>
</linearGradient>
<linearGradient id="paint1_linear_2905_18826" x1="13.1897" y1="9.27703" x2="13.1897" y2="27.0112" gradientUnits="userSpaceOnUse">
<stop stop-color="#00EFD1"/>
<stop offset="1" stop-color="#00ACEA"/>
</linearGradient>
<linearGradient id="paint2_linear_2905_18826" x1="28.9899" y1="28.5154" x2="28.9899" y2="70.4072" gradientUnits="userSpaceOnUse">
<stop stop-color="#00EFD1"/>
<stop offset="1" stop-color="#00ACEA"/>
</linearGradient>
<linearGradient id="paint3_linear_2905_18826" x1="36.1053" y1="-0.331823" x2="36.1053" y2="27.0435" gradientUnits="userSpaceOnUse">
<stop stop-color="#00EFD1"/>
<stop offset="1" stop-color="#00ACEA"/>
</linearGradient>
<clipPath id="clip0_2905_18826">
<rect width="70.5185" height="70" fill="white" transform="translate(0.740234 0.265625)"/>
</clipPath>
</defs>
</svg>
