<svg width="71" height="71" viewBox="0 0 71 71" fill="none" xmlns="http://www.w3.org/2000/svg">
<g clip-path="url(#clip0_4170_2923)">
<path d="M65.872 14.8092L61.6927 14.2062L59.8237 10.447C59.1931 9.17755 57.3682 9.17809 56.7371 10.447L54.868 14.2062L50.6887 14.8092C49.2781 15.0127 48.7142 16.735 49.7349 17.723L52.759 20.6491L52.0451 24.7811C51.8035 26.1814 53.2857 27.2378 54.5425 26.582L58.2807 24.631L62.0188 26.582C63.2799 27.2404 64.7567 26.1766 64.5157 24.7811L63.8018 20.6491L66.8259 17.723C67.8471 16.735 67.2832 15.0127 65.872 14.8092ZM62.2297 19.3065C61.824 19.699 61.6395 20.2641 61.7347 20.8184L62.3615 24.4436L59.0812 22.7319C58.5803 22.4702 57.981 22.4702 57.4796 22.7319L54.1998 24.4436L54.8261 20.8179C54.9218 20.2641 54.7368 19.699 54.3311 19.3065L51.6776 16.7387L55.3447 16.21C55.9053 16.1288 56.3895 15.7796 56.6403 15.2754L58.2801 11.9771L59.92 15.2754C60.1707 15.7796 60.6555 16.1288 61.2161 16.21L64.8832 16.7387L62.2297 19.3065Z" fill="url(#paint0_linear_4170_2923)"/>
<path d="M10.9062 10.4471L9.03711 14.2063L4.85782 14.8093C3.44661 15.0127 2.88331 16.7351 3.90393 17.7231L6.9281 20.6492L6.21416 24.7806C5.97205 26.1809 7.45481 27.2378 8.71108 26.582L12.4497 24.6311L16.1879 26.582C17.449 27.2411 18.9258 26.1756 18.6848 24.7812L17.9708 20.6492L20.995 17.7231C22.0162 16.7351 21.4518 15.0122 20.0411 14.8087L15.8618 14.2058L13.9928 10.4465C13.3617 9.17762 11.5373 9.17815 10.9062 10.4471ZM14.0896 15.2755C14.3403 15.7796 14.8251 16.1289 15.3857 16.2101L19.0522 16.7388L16.3993 19.306C15.9931 19.6991 15.808 20.2641 15.9038 20.8185L16.53 24.4437L13.2503 22.7325C12.7489 22.4708 12.1501 22.4703 11.6486 22.7325L8.36836 24.4442L8.99515 20.819C9.09091 20.2647 8.90584 19.6996 8.50018 19.3066L5.84669 16.7393L9.51326 16.2101C10.0739 16.1294 10.5586 15.7802 10.8093 15.2755L12.4492 11.9771L14.0896 15.2755Z" fill="url(#paint1_linear_4170_2923)"/>
<path d="M17.5345 65.4608C17.5345 65.731 17.3134 65.951 17.0411 65.951H13.8636C13.2928 65.951 12.8307 66.4098 12.8307 66.9764C12.8307 67.5425 13.2928 68.0018 13.8636 68.0018H17.0411C18.3023 68.0018 19.3514 67.0902 19.5601 65.8966L20.2913 65.896H20.2934C23.8997 65.896 23.7954 70.0964 29.4919 70.0959H29.5015H47.617C49.8137 70.0959 51.601 68.3217 51.601 66.1412C51.601 65.1062 51.1986 64.163 50.5406 63.4575C51.5074 62.7595 52.1541 61.6567 52.196 60.4177C52.2299 59.4035 51.8829 58.44 51.2163 57.6833C52.2504 56.9906 52.9498 55.8467 52.9918 54.5558C53.0294 53.4082 52.5807 52.3406 51.7645 51.555C54.6053 49.1939 52.931 44.57 49.209 44.57H49.2063H37.6455C39.352 39.3977 39.3004 39.8175 39.3004 33.7522C39.3004 31.2757 37.2705 29.2607 34.7757 29.2607C32.515 29.2607 30.5867 30.9388 30.2908 33.1636C29.5483 38.7344 28.6509 39.3128 24.7557 43.0362C23.6942 44.0509 22.2975 44.6101 20.8239 44.6101H19.4644C19.1222 43.6066 18.1661 42.8813 17.0411 42.8813H5.86553C4.45378 42.8813 3.30566 44.021 3.30566 45.4224V65.4613C3.30566 66.8621 4.45378 68.0018 5.86553 68.0018H15.3096C15.8804 68.0018 14.241 67.5431 14.241 66.9764C14.241 66.4103 16.6889 65.951 16.1181 65.951H5.86553C5.5933 65.951 5.37164 65.7315 5.37164 65.4613V45.4219C5.37164 45.1516 5.5933 44.9321 5.86553 44.9321H17.0411C17.3134 44.9321 17.5345 45.1516 17.5345 45.4219V65.4608ZM19.6005 46.6603H20.8234C22.8345 46.6603 24.7401 45.8977 26.1885 44.5134C30.3026 40.5812 31.5126 39.6364 32.3385 33.4323C32.4994 32.2232 33.5469 31.3115 34.7757 31.3115C36.1309 31.3115 37.2339 32.4063 37.2339 33.7516C37.2339 39.7352 37.3382 38.9112 35.4541 44.6202C35.1292 45.605 35.87 46.6203 36.9143 46.6203H49.2068H49.2084C50.2673 46.6203 51.1286 47.471 51.1297 48.5178C51.1302 49.5694 50.2689 50.426 49.2106 50.4265C47.3722 50.4281 51.9873 50.4276 44.2673 50.4276C43.697 50.4276 43.2343 50.8869 43.2343 51.453C43.2343 52.0196 43.697 52.4784 44.2673 52.4784H48.961H48.9636H48.9658C50.0676 52.4784 50.9624 53.3921 50.9263 54.4891C50.8935 55.5033 49.9988 56.3289 48.9314 56.3289C46.5474 56.3289 49.6491 56.33 44.2673 56.33C43.697 56.33 43.2343 56.7893 43.2343 57.3554C43.2343 57.9215 43.697 58.3808 44.2673 58.3808C51.41 58.3808 45.5946 58.3797 48.2142 58.3797C49.2881 58.3797 50.1672 59.2582 50.1306 60.3493C50.0967 61.3624 49.202 62.187 48.1367 62.187C48.1367 62.187 48.006 62.1881 44.2673 62.1881C43.6965 62.1881 43.2343 62.6474 43.2343 63.2135C43.2343 63.7801 43.6965 64.2388 44.2673 64.2388H47.6407C48.6871 64.2517 49.5345 65.0997 49.5345 66.1417C49.5345 67.1911 48.6742 68.0451 47.617 68.0451H29.501C29.4978 68.0451 29.4951 68.0451 29.4924 68.0451C24.6912 68.0451 25.1248 63.8452 20.2951 63.8452H20.2908L19.6005 63.8458V46.6603Z" fill="url(#paint2_linear_4170_2923)"/>
<path d="M43.6377 14.3853C43.2294 14.7805 43.2213 15.4299 43.6194 15.8353C44.0181 16.2412 44.6718 16.2492 45.0801 15.854L48.7376 12.3153C50.0105 11.0832 49.3073 8.9358 47.5486 8.68212L40.5006 7.66581C40.4747 7.66207 40.4522 7.64605 40.4409 7.62255L37.2892 1.28329C36.5026 -0.299124 34.2273 -0.29859 33.4413 1.28329L30.2891 7.62255C30.2778 7.64605 30.2552 7.66207 30.2294 7.66581L23.1814 8.68212C21.4226 8.93633 20.72 11.0838 21.9924 12.3153L27.0922 17.2495C27.111 17.2676 27.1196 17.2938 27.1153 17.3194L25.9113 24.2873C25.6094 26.0326 27.4575 27.3501 29.0242 26.5325L35.3281 23.2427C35.3512 23.2309 35.3787 23.2304 35.4018 23.2427L41.7057 26.5325C43.2783 27.3533 45.1194 26.0262 44.8187 24.2873L44.0316 19.7323C43.9353 19.1737 43.4005 18.7982 42.8393 18.8944C42.2766 18.9905 41.8989 19.5203 41.9957 20.0789L42.7828 24.6339C42.7861 24.6542 42.7909 24.6825 42.7511 24.7113C42.7113 24.7396 42.686 24.7268 42.6677 24.7172L36.3638 21.4274C35.7386 21.1011 34.9919 21.1011 34.3667 21.4274L28.0628 24.7172C28.0445 24.7268 28.0192 24.7396 27.9794 24.7113C27.9396 24.6825 27.9444 24.6542 27.9476 24.6339L29.1517 17.6666C29.2712 16.9755 29.0409 16.2705 28.5346 15.7814L23.4348 10.8467C23.4203 10.8322 23.3993 10.8125 23.4149 10.766C23.4299 10.719 23.4585 10.7153 23.4789 10.7121L30.5269 9.69576C31.2258 9.59483 31.8294 9.15904 32.1425 8.53045L35.2942 2.19065C35.3034 2.17249 35.3163 2.14686 35.3652 2.14686C35.4147 2.14686 35.4271 2.17249 35.4368 2.19065L38.5885 8.52992C38.9011 9.15904 39.5047 9.59483 40.2041 9.69523L47.2521 10.7121C47.2726 10.7147 47.3005 10.719 47.3161 10.7655C47.3312 10.8125 47.3107 10.8322 47.2962 10.8467L43.6377 14.3853Z" fill="url(#paint3_linear_4170_2923)"/>
<path d="M43.5547 14.3853C43.1464 14.7805 43.1383 15.4299 43.5364 15.8353C43.9351 16.2412 44.5888 16.2492 44.9971 15.854L48.6546 12.3153C49.9275 11.0832 49.2243 8.9358 47.4655 8.68212L40.4176 7.66581C40.3917 7.66207 40.3691 7.64605 40.3578 7.62255L37.2062 1.28329C36.4196 -0.299124 34.1443 -0.29859 33.3583 1.28329L30.2061 7.62255C30.1948 7.64605 30.1722 7.66207 30.1463 7.66581L23.0984 8.68212C21.3396 8.93633 20.637 11.0838 21.9094 12.3153L27.0092 17.2495C27.028 17.2676 27.0366 17.2938 27.0323 17.3194L25.8283 24.2873C25.5264 26.0326 27.3745 27.3501 28.9412 26.5325L35.2451 23.2427C35.2682 23.2309 35.2957 23.2304 35.3188 23.2427L41.6227 26.5325C43.1953 27.3533 45.0364 26.0262 44.7357 24.2873L43.9485 19.7323C43.8522 19.1737 43.3175 18.7982 42.7563 18.8944C42.1935 18.9905 41.8159 19.5203 41.9127 20.0789L42.6998 24.6339C42.703 24.6542 42.7079 24.6825 42.6681 24.7113C42.6283 24.7396 42.603 24.7268 42.5847 24.7172L36.2808 21.4274C35.6556 21.1011 34.9088 21.1011 34.2837 21.4274L27.9798 24.7172C27.9615 24.7268 27.9362 24.7396 27.8964 24.7113C27.8566 24.6825 27.8614 24.6542 27.8646 24.6339L29.0687 17.6666C29.1881 16.9755 28.9579 16.2705 28.4516 15.7814L23.3518 10.8467C23.3372 10.8322 23.3163 10.8125 23.3319 10.766C23.3469 10.719 23.3754 10.7153 23.3959 10.7121L30.4439 9.69576C31.1427 9.59483 31.7464 9.15904 32.0595 8.53045L35.2112 2.19065C35.2204 2.17249 35.2333 2.14686 35.2822 2.14686C35.3317 2.14686 35.3441 2.17249 35.3538 2.19065L38.5055 8.52992C38.8181 9.15904 39.4217 9.59483 40.1211 9.69523L47.1691 10.7121C47.1895 10.7147 47.2175 10.719 47.2331 10.7655C47.2482 10.8125 47.2277 10.8322 47.2132 10.8467L43.5547 14.3853Z" fill="url(#paint4_linear_4170_2923)"/>
<path d="M27.0097 14.2564C27.4181 14.6516 27.4262 15.301 27.028 15.7064C26.6294 16.1123 25.9757 16.1203 25.5673 15.7251L21.9099 12.1864C20.637 10.9543 21.3401 8.80689 23.0989 8.55322L30.1469 7.53691C30.1727 7.53317 30.1953 7.51715 30.2066 7.49365L33.3583 1.15438C34.1449 -0.42803 36.4201 -0.427496 37.2062 1.15438L40.3584 7.49365C40.3697 7.51715 40.3923 7.53317 40.4181 7.53691L47.4661 8.55322C49.2249 8.80743 49.9275 10.9549 48.6551 12.1864L43.5553 17.1206C43.5364 17.1387 43.5278 17.1649 43.5321 17.1905L44.7362 24.1584C45.038 25.9037 43.19 27.2212 41.6233 26.4036L35.3194 23.1138C35.2962 23.102 35.2688 23.1015 35.2456 23.1138L28.9417 26.4036C27.3691 27.2244 25.528 25.8973 25.8288 24.1584L26.6159 19.6034C26.7122 19.0448 27.247 18.6693 27.8081 18.7655C28.3709 18.8616 28.7486 19.3914 28.6517 19.95L27.8646 24.505C27.8614 24.5253 27.8566 24.5536 27.8964 24.5824C27.9362 24.6107 27.9615 24.5979 27.9798 24.5883L34.2837 21.2985C34.9088 20.9722 35.6556 20.9722 36.2808 21.2985L42.5847 24.5883C42.603 24.5979 42.6283 24.6107 42.6681 24.5824C42.7079 24.5536 42.703 24.5253 42.6998 24.505L41.4957 17.5377C41.3763 16.8466 41.6066 16.1416 42.1128 15.6524L47.2127 10.7178C47.2272 10.7033 47.2482 10.6836 47.2326 10.6371C47.2175 10.5901 47.189 10.5864 47.1686 10.5832L40.1206 9.56686C39.4217 9.46592 38.8181 9.03013 38.5049 8.40154L35.3532 2.06175C35.3441 2.04359 35.3312 2.01795 35.2822 2.01795C35.2327 2.01795 35.2204 2.04359 35.2107 2.06175L32.059 8.40101C31.7464 9.03013 31.1427 9.46592 30.4433 9.56632L23.3954 10.5832C23.3749 10.5858 23.3469 10.5901 23.3313 10.6366C23.3163 10.6836 23.3367 10.7033 23.3512 10.7178L27.0097 14.2564Z" fill="url(#paint5_linear_4170_2923)"/>
</g>
<defs>
<linearGradient id="paint0_linear_4170_2923" x1="58.2805" y1="9.10808" x2="58.2805" y2="26.8421" gradientUnits="userSpaceOnUse">
<stop stop-color="#00EFD1"/>
<stop offset="1" stop-color="#00ACEA"/>
</linearGradient>
<linearGradient id="paint1_linear_4170_2923" x1="12.4495" y1="9.10808" x2="12.4495" y2="26.8423" gradientUnits="userSpaceOnUse">
<stop stop-color="#00EFD1"/>
<stop offset="1" stop-color="#00ACEA"/>
</linearGradient>
<linearGradient id="paint2_linear_4170_2923" x1="28.2497" y1="28.3465" x2="28.2497" y2="70.2383" gradientUnits="userSpaceOnUse">
<stop stop-color="#00EFD1"/>
<stop offset="1" stop-color="#00ACEA"/>
</linearGradient>
<linearGradient id="paint3_linear_4170_2923" x1="35.365" y1="-0.500768" x2="35.365" y2="26.8746" gradientUnits="userSpaceOnUse">
<stop stop-color="#00EFD1"/>
<stop offset="1" stop-color="#00ACEA"/>
</linearGradient>
<linearGradient id="paint4_linear_4170_2923" x1="35.282" y1="-0.500768" x2="35.282" y2="26.8746" gradientUnits="userSpaceOnUse">
<stop stop-color="#00EFD1"/>
<stop offset="1" stop-color="#00ACEA"/>
</linearGradient>
<linearGradient id="paint5_linear_4170_2923" x1="35.2824" y1="-0.629674" x2="35.2824" y2="26.7457" gradientUnits="userSpaceOnUse">
<stop stop-color="#00EFD1"/>
<stop offset="1" stop-color="#00ACEA"/>
</linearGradient>
<clipPath id="clip0_4170_2923">
<rect width="70.5185" height="70" fill="white" transform="translate(0 0.0966797)"/>
</clipPath>
</defs>
</svg>
