<svg width="62" height="61" viewBox="0 0 62 61" fill="none" xmlns="http://www.w3.org/2000/svg">
<path d="M51.5823 27.7722C49.0494 27.2289 45.6934 26.9297 42.1324 26.9297C37.2216 26.9297 31.5727 27.5546 29.3149 28.9395C26.9394 27.6192 24.2552 26.9267 21.5249 26.9297C12.776 26.9297 5.6582 33.9132 5.6582 42.497C5.6582 51.0809 12.776 58.0644 21.5249 58.0644C24.255 58.0674 26.939 57.375 29.3145 56.0549C31.5723 57.4396 37.222 58.0644 42.1324 58.0644C45.6935 58.0644 49.0494 57.7651 51.5823 57.2219C54.5859 56.5776 56.0459 55.6795 56.0459 54.4765V30.5176C56.0459 29.3145 54.5859 28.4164 51.5823 27.7722ZM54.4713 46.4617C54.414 46.5491 53.8876 47.209 50.8567 47.8064C48.479 48.2751 45.3807 48.5332 42.1324 48.5332C40.176 48.5377 38.2207 48.4374 36.2753 48.2327C37.0148 46.4076 37.3936 44.4611 37.3916 42.497C37.3916 42.298 37.3864 42.1003 37.3789 41.9031C38.8934 42.0278 40.4873 42.0918 42.1322 42.0918C45.6933 42.0918 49.0492 41.7925 51.5821 41.2493C52.7951 40.9892 53.7582 40.6864 54.4711 40.3411L54.4713 46.4617ZM54.4713 38.4754C54.4141 38.5628 53.8878 39.2226 50.8567 39.8201C48.479 40.2888 45.3808 40.5469 42.1324 40.5469C40.4322 40.5469 38.7894 40.4778 37.2387 40.3414C36.8942 37.9146 35.9673 35.6027 34.5343 33.5959C36.7512 33.9274 39.3713 34.1055 42.1324 34.1055C45.6935 34.1055 49.0494 33.8062 51.5823 33.263C52.7953 33.0029 53.7584 32.7001 54.4713 32.3548V38.4754ZM42.1324 28.4746C45.3807 28.4746 48.479 28.7327 50.8567 29.2014C53.6645 29.7548 54.3227 30.3617 54.45 30.5176C54.3228 30.6735 53.6649 31.2804 50.8567 31.8338C48.479 32.3025 45.3808 32.5606 42.1324 32.5606C38.7033 32.5606 35.39 32.2651 32.9911 31.7477C32.3324 31.072 31.6135 30.4554 30.8429 29.9053C32.7396 29.1443 36.811 28.4746 42.1324 28.4746ZM7.23282 42.497C7.23282 34.7651 13.6442 28.4746 21.5249 28.4746C29.4057 28.4746 35.8169 34.7651 35.8169 42.497C35.8169 50.229 29.4054 56.5195 21.5249 56.5195C13.6445 56.5195 7.23282 50.229 7.23282 42.497ZM50.8567 55.7929C48.479 56.2615 45.3808 56.5197 42.1324 56.5197C36.8113 56.5197 32.7396 55.8502 30.8426 55.0892C32.822 53.6757 34.4438 51.8347 35.5829 49.7086C37.7565 49.9611 39.9437 50.0846 42.1324 50.0783C45.6934 50.0783 49.0494 49.779 51.5823 49.2358C52.7953 48.9756 53.7584 48.6728 54.4713 48.3276V54.4479C54.4136 54.536 53.886 55.1956 50.8567 55.7929ZM24.3083 35.8768C24.8097 36.4539 25.1485 37.1496 25.2909 37.8949H27.1957C27.4045 37.8949 27.6048 37.9763 27.7524 38.1211C27.9001 38.266 27.983 38.4625 27.983 38.6673C27.983 38.8722 27.9001 39.0687 27.7524 39.2135C27.6048 39.3584 27.4045 39.4398 27.1957 39.4398H25.2929C25.1073 40.4387 24.5708 41.3421 23.7766 41.9931C22.9824 42.644 21.9808 43.0013 20.946 43.0027H17.755L24.2184 49.3441C24.3661 49.489 24.449 49.6855 24.449 49.8903C24.449 50.0952 24.366 50.2917 24.2184 50.4366C24.0707 50.5814 23.8704 50.6628 23.6616 50.6628C23.4528 50.6628 23.2525 50.5814 23.1049 50.4365L15.2975 42.776C15.1874 42.668 15.1124 42.5303 15.082 42.3805C15.0517 42.2306 15.0672 42.0753 15.1268 41.9342C15.1864 41.793 15.2873 41.6724 15.4168 41.5875C15.5463 41.5026 15.6985 41.4573 15.8542 41.4573H20.946C21.5626 41.4565 22.1624 41.2593 22.6551 40.8954C23.1478 40.5315 23.5068 40.0205 23.6781 39.4393H15.8538C15.645 39.4393 15.4448 39.3579 15.2971 39.213C15.1495 39.0682 15.0665 38.8717 15.0665 38.6668C15.0665 38.462 15.1495 38.2655 15.2971 38.1206C15.4448 37.9758 15.645 37.8944 15.8538 37.8944H23.6752C23.5053 37.3311 23.1603 36.834 22.6884 36.4725C22.2165 36.1111 21.6412 35.9033 21.0431 35.8784C21.0366 35.8784 21.0303 35.8771 21.0234 35.8767H15.8538C15.645 35.8767 15.4448 35.7954 15.2971 35.6505C15.1495 35.5056 15.0665 35.3092 15.0665 35.1043C15.0665 34.8994 15.1495 34.7029 15.2971 34.5581C15.4448 34.4132 15.645 34.3318 15.8538 34.3318H27.1957C27.4045 34.3318 27.6048 34.4132 27.7524 34.5581C27.9001 34.7029 27.983 34.8994 27.983 35.1043C27.983 35.3092 27.9001 35.5056 27.7524 35.6505C27.6048 35.7954 27.4045 35.8767 27.1957 35.8767L24.3083 35.8768Z" fill="url(#paint0_linear_2905_18430)" stroke="url(#paint1_linear_2905_18430)" stroke-width="0.3"/>
<path fill-rule="evenodd" clip-rule="evenodd" d="M42.5003 2.5855C42.3019 2.5855 42.1117 2.66431 41.9714 2.80459C41.8311 2.94487 41.7523 3.13513 41.7523 3.33352L41.7523 20.9762L37.0458 16.2682C36.9053 16.1277 36.7148 16.0488 36.5162 16.0488C36.3176 16.0488 36.1271 16.1277 35.9866 16.2682C35.8462 16.4086 35.7672 16.5991 35.7672 16.7978C35.7672 16.9964 35.8462 17.1869 35.9866 17.3274L41.9707 23.3115C42.0402 23.3812 42.1228 23.4364 42.2136 23.4741C42.3045 23.5118 42.4019 23.5312 42.5003 23.5312C42.5987 23.5312 42.6961 23.5118 42.787 23.4741C42.8779 23.4364 42.9604 23.3812 43.0299 23.3115L49.014 17.3274C49.0836 17.2578 49.1387 17.1753 49.1764 17.0844C49.214 16.9935 49.2334 16.8961 49.2334 16.7978C49.2334 16.5991 49.1545 16.4086 49.014 16.2682C48.8736 16.1277 48.6831 16.0488 48.4844 16.0488C48.2858 16.0488 48.0953 16.1277 47.9548 16.2682L43.2483 20.9762L43.2483 3.33352C43.2483 3.13513 43.1695 2.94487 43.0292 2.80459C42.889 2.66431 42.6987 2.5855 42.5003 2.5855Z" fill="url(#paint2_linear_2905_18430)" stroke="url(#paint3_linear_2905_18430)" stroke-width="0.3"/>
<defs>
<linearGradient id="paint0_linear_2905_18430" x1="30.852" y1="26.2326" x2="30.852" y2="58.173" gradientUnits="userSpaceOnUse">
<stop stop-color="#00EFD1"/>
<stop offset="1" stop-color="#00ACEA"/>
</linearGradient>
<linearGradient id="paint1_linear_2905_18430" x1="30.852" y1="26.2326" x2="30.852" y2="58.173" gradientUnits="userSpaceOnUse">
<stop stop-color="#00EFD1"/>
<stop offset="1" stop-color="#00ACEA"/>
</linearGradient>
<linearGradient id="paint2_linear_2905_18430" x1="42.5004" y1="24.0002" x2="42.5004" y2="2.51245" gradientUnits="userSpaceOnUse">
<stop stop-color="#00EFD1"/>
<stop offset="1" stop-color="#00ACEA"/>
</linearGradient>
<linearGradient id="paint3_linear_2905_18430" x1="42.5004" y1="24.0002" x2="42.5004" y2="2.51245" gradientUnits="userSpaceOnUse">
<stop stop-color="#00EFD1"/>
<stop offset="1" stop-color="#00ACEA"/>
</linearGradient>
</defs>
</svg>
