<svg width="71" height="71" viewBox="0 0 71 71" fill="none" xmlns="http://www.w3.org/2000/svg">
<path d="M5.44239 40.9726L11.9567 43.1757C12.2105 44.0994 12.5236 45.0022 12.8927 45.8696L9.53817 52.7314C9.06163 53.7066 9.24539 54.8813 9.99291 55.6506L15.0496 60.8516C15.7955 61.6208 16.9324 61.8075 17.8699 61.3135L23.5978 58.3219C24.5617 58.8948 25.5802 59.4114 26.6408 59.8619L28.7759 66.6449C29.1029 67.6861 30.0342 68.3861 31.0948 68.3861H38.2554C39.3128 68.3861 40.2441 67.6877 40.5727 66.6481L42.362 60.9852C43.7839 60.6151 45.1419 60.1291 46.4142 59.5369L51.9241 62.4174C52.8662 62.9131 54.0015 62.7232 54.7491 61.9523L59.8073 56.7271C60.5532 55.9547 60.7339 54.7799 60.2573 53.808L57.9011 49.0044C58.7779 47.4772 59.4818 45.9162 59.9973 44.3521L65.3997 42.5127C66.4026 42.1715 67.0753 41.2092 67.0753 40.1214V32.7462C67.0753 31.6551 66.4026 30.6944 65.3997 30.3516L60.5392 28.7022C60.0845 27.0463 59.4756 25.429 58.7218 23.8809L61.3023 18.5929C61.7773 17.6209 61.5951 16.4478 60.8491 15.677L55.8158 10.4743C55.0699 9.70666 53.9377 9.51677 52.9986 10.0076L48.0276 12.5872C46.6727 11.8614 45.3272 11.2708 44.0097 10.8267L42.063 4.67778C41.736 3.63821 40.8032 2.94141 39.7457 2.94141H32.5836C31.5277 2.94141 30.5964 3.63982 30.2663 4.67617L28.3196 10.8251C27.2341 11.1872 26.1674 11.6329 25.1348 12.1559L18.9149 8.90687C17.9696 8.41122 16.8374 8.60111 16.0914 9.37355L11.0332 14.5972C10.2857 15.3712 10.105 16.5476 10.5847 17.5228L13.6589 23.7537C13.2493 24.568 12.8709 25.4579 12.5251 26.4122L5.44239 28.8116C4.43946 29.1528 3.76514 30.1151 3.76514 31.2045V38.5765C3.76358 39.6708 4.43946 40.6331 5.44239 40.9726ZM6.16966 31.1048L13.7928 28.5235C14.1385 28.4061 14.4111 28.1293 14.5325 27.7752C14.9639 26.5007 15.456 25.3533 15.9949 24.3636C16.188 24.0112 16.1958 23.5848 16.0182 23.2227L12.684 16.3029L17.859 11.0584L24.6069 14.5827C24.9417 14.7565 25.3389 14.7549 25.6752 14.5762C26.9258 13.902 28.2371 13.3548 29.5717 12.9493C29.9408 12.8382 30.2335 12.5438 30.3519 12.1672L32.582 5.35205L39.8407 5.42447L41.9743 12.1672C42.0942 12.5438 42.3854 12.8366 42.7529 12.9493C44.2729 13.4127 45.8536 14.1031 47.4499 15.0011C47.7862 15.1926 48.1911 15.2006 48.5322 15.0204L54.1619 12.1785L59.2139 17.5018L56.364 23.3418C56.1927 23.6926 56.1974 24.1078 56.3749 24.4522C57.2735 26.1966 57.9681 28.0424 58.4415 29.9413C58.5412 30.3404 58.8308 30.659 59.2077 30.7877L64.7362 32.743L64.6661 40.2195L58.7016 42.2488C58.3418 42.3695 58.0615 42.6656 57.9509 43.0373C57.4246 44.8026 56.6241 46.5744 55.5744 48.306C55.3564 48.6648 55.3362 49.1154 55.5215 49.492L58.1534 55.0181L52.9784 60.2626L46.9608 57.1166C46.6369 56.9492 46.2538 56.9428 45.9252 57.1053C44.4738 57.8295 42.8822 58.3959 41.1956 58.7902C40.7938 58.8835 40.4699 59.1877 40.3422 59.5932L38.2523 65.9706L30.9951 65.8982L28.6918 58.5762C28.5828 58.2302 28.3305 57.9534 28.0035 57.823C26.675 57.292 25.4136 56.6499 24.2534 55.9129C23.8968 55.6892 23.4638 55.6811 23.1165 55.8662L16.6988 59.1394L11.6234 53.8144L15.2318 46.436C15.3937 46.1029 15.3984 45.7119 15.2442 45.3739C14.7443 44.2861 14.3441 43.129 14.056 41.9366C13.9579 41.5343 13.6682 41.2108 13.2867 41.0821L6.09958 38.5781L6.16966 31.1048Z" fill="url(#paint0_linear_2905_19642)"/>
<path d="M24.2473 22.4449C24.5588 22.1633 24.8811 21.8929 25.2128 21.6371C25.7299 21.2364 25.8342 20.48 25.4464 19.9458C25.0587 19.4131 24.3283 19.3085 23.8112 19.7044C23.4328 19.9989 23.0653 20.3062 22.7087 20.6281C22.2228 21.0658 22.1729 21.8286 22.5981 22.3323C23.0248 22.8327 23.7599 22.8859 24.2473 22.4449Z" fill="url(#paint1_linear_2905_19642)"/>
<path d="M19.7633 45.2538C20.3379 44.9496 20.5653 44.2222 20.271 43.6284C19.0407 41.1438 18.4162 38.4644 18.4162 35.6611C18.4162 32.6534 19.1699 29.6827 20.5949 27.0709C20.9126 26.4916 20.7132 25.7562 20.151 25.4279C19.5904 25.1044 18.8787 25.304 18.5594 25.8865C16.9367 28.8588 16.0786 32.2382 16.0786 35.6611C16.0786 38.849 16.7888 41.9017 18.1904 44.7291C18.4878 45.3262 19.1933 45.5547 19.7633 45.2538Z" fill="url(#paint2_linear_2905_19642)"/>
<path d="M35.4306 49.1915C42.6519 49.1915 48.5262 43.1231 48.5262 35.661C48.5262 28.199 42.6519 22.1289 35.4306 22.1289C28.1952 22.1289 22.3101 28.199 22.3101 35.661C22.3101 43.1231 28.1952 49.1915 35.4306 49.1915ZM35.4306 24.5428C41.364 24.5428 46.1902 29.5314 46.1902 35.661C46.1902 41.7906 41.364 46.7777 35.4306 46.7777C29.4847 46.7777 24.6461 41.7906 24.6461 35.661C24.6461 29.5314 29.4847 24.5428 35.4306 24.5428Z" fill="url(#paint3_linear_2905_19642)"/>
<defs>
<linearGradient id="paint0_linear_2905_19642" x1="35.4201" y1="1.47616" x2="35.4201" y2="68.6144" gradientUnits="userSpaceOnUse">
<stop stop-color="#00EFD1"/>
<stop offset="1" stop-color="#00ACEA"/>
</linearGradient>
<linearGradient id="paint1_linear_2905_19642" x1="23.9949" y1="19.3914" x2="23.9949" y2="22.7558" gradientUnits="userSpaceOnUse">
<stop stop-color="#00EFD1"/>
<stop offset="1" stop-color="#00ACEA"/>
</linearGradient>
<linearGradient id="paint2_linear_2905_19642" x1="18.4123" y1="24.8231" x2="18.4123" y2="45.4562" gradientUnits="userSpaceOnUse">
<stop stop-color="#00EFD1"/>
<stop offset="1" stop-color="#00ACEA"/>
</linearGradient>
<linearGradient id="paint3_linear_2905_19642" x1="35.4181" y1="21.523" x2="35.4181" y2="49.2859" gradientUnits="userSpaceOnUse">
<stop stop-color="#00EFD1"/>
<stop offset="1" stop-color="#00ACEA"/>
</linearGradient>
</defs>
</svg>
