<svg width="61" height="61" viewBox="0 0 61 61" fill="none" xmlns="http://www.w3.org/2000/svg">
<path d="M52.9854 12.616L52.4454 12.31C52.0681 12.0906 51.6511 11.948 51.2185 11.8903C50.7859 11.8327 50.3461 11.8612 49.9245 11.9742C49.5029 12.0871 49.1079 12.2824 48.762 12.5486C48.4162 12.8149 48.1264 13.1469 47.9094 13.5256L44.0022 20.2894V8.09679C44.0009 6.95988 43.5487 5.8699 42.7448 5.06598C41.9409 4.26206 40.8509 3.80986 39.714 3.80859H11.1378C10.0009 3.80986 8.91092 4.26206 8.107 5.06598C7.30308 5.8699 6.85088 6.95988 6.84961 8.09679V53.482C6.85088 54.6189 7.30308 55.7089 8.107 56.5128C8.91092 57.3167 10.0009 57.7689 11.1378 57.7702H39.714C40.8509 57.7689 41.9409 57.3167 42.7448 56.5128C43.5487 55.7089 44.0009 54.6189 44.0022 53.482V34.8292L54.2052 17.1592C54.643 16.3943 54.7604 15.4873 54.5319 14.6361C54.3034 13.785 53.7474 13.0588 52.9854 12.616ZM50.2356 13.1332C50.5053 13.0604 50.7868 13.042 51.0636 13.0793C51.3404 13.1166 51.607 13.2088 51.8478 13.3504L52.3878 13.657C52.7821 13.8879 53.0916 14.2396 53.2705 14.66C53.4495 15.0805 53.4884 15.5473 53.3814 15.9916L49.3308 13.6516C49.5839 13.4053 49.8951 13.2269 50.2356 13.1332ZM39.7296 39.8332L38.1396 38.9152L51.2742 16.1608L52.8654 17.0794L39.7296 39.8332ZM35.4192 42.4288L35.3196 38.6728L38.7216 40.6372L35.4192 42.4288ZM48.6492 14.6488L50.235 15.5644L37.0998 38.3116L35.5098 37.3942L48.6492 14.6488ZM42.8022 53.482C42.8013 54.3007 42.4756 55.0857 41.8966 55.6646C41.3177 56.2436 40.5328 56.5692 39.714 56.5702H11.1378C10.3191 56.5692 9.53412 56.2436 8.95517 55.6646C8.37623 55.0857 8.05056 54.3007 8.04961 53.482V8.09679C8.05056 7.27804 8.37623 6.4931 8.95517 5.91416C9.53412 5.33522 10.3191 5.00955 11.1378 5.00859H39.714C40.5328 5.00955 41.3177 5.33522 41.8966 5.91416C42.4756 6.4931 42.8013 7.27804 42.8022 8.09679V22.369L34.1694 37.312C34.1137 37.4079 34.0859 37.5174 34.089 37.6282L34.239 43.2628L33.2952 44.9014C33.2156 45.0393 33.1941 45.2031 33.2353 45.3569C33.2766 45.5106 33.3772 45.6417 33.5151 45.7213C33.653 45.8009 33.8168 45.8224 33.9706 45.7811C34.1244 45.7399 34.2554 45.6393 34.335 45.5014L35.2782 43.8694L40.2336 41.1808C40.331 41.1284 40.4119 41.0499 40.467 40.954L42.8022 36.9094V53.482ZM31.3968 45.217C31.3968 45.3761 31.3336 45.5287 31.2211 45.6413C31.1085 45.7538 30.9559 45.817 30.7968 45.817H29.676C27.2884 45.8149 24.9991 44.8657 23.3105 43.1776C21.622 41.4895 20.6721 39.2004 20.6694 36.8128V20.8654C20.667 18.797 19.8446 16.814 18.3825 15.3511C16.9203 13.8882 14.9378 13.0647 12.8694 13.0612C12.7103 13.0612 12.5577 12.998 12.4451 12.8855C12.3326 12.7729 12.2694 12.6203 12.2694 12.4612C12.2694 12.3021 12.3326 12.1495 12.4451 12.0369C12.5577 11.9244 12.7103 11.8612 12.8694 11.8612C15.2559 11.8652 17.5434 12.8152 19.2305 14.5031C20.9176 16.191 21.8666 18.4789 21.8694 20.8654V36.8128C21.8718 38.8823 22.6951 40.8663 24.1587 42.3294C25.6223 43.7925 27.6065 44.6152 29.676 44.617H30.7968C30.9559 44.617 31.1085 44.6802 31.2211 44.7927C31.3336 44.9053 31.3968 45.0579 31.3968 45.217ZM28.0494 12.4612C28.0494 12.3021 28.1126 12.1495 28.2251 12.0369C28.3377 11.9244 28.4903 11.8612 28.6494 11.8612H38.454C38.6131 11.8612 38.7657 11.9244 38.8783 12.0369C38.9908 12.1495 39.054 12.3021 39.054 12.4612C39.054 12.6203 38.9908 12.7729 38.8783 12.8855C38.7657 12.998 38.6131 13.0612 38.454 13.0612H28.6494C28.4903 13.0612 28.3377 12.998 28.2251 12.8855C28.1126 12.7729 28.0494 12.6203 28.0494 12.4612ZM39.0546 16.0816C39.0546 16.2407 38.9914 16.3933 38.8789 16.5059C38.7663 16.6184 38.6137 16.6816 38.4546 16.6816H33.5514C33.3923 16.6816 33.2397 16.6184 33.1271 16.5059C33.0146 16.3933 32.9514 16.2407 32.9514 16.0816C32.9514 15.9225 33.0146 15.7699 33.1271 15.6573C33.2397 15.5448 33.3923 15.4816 33.5514 15.4816H38.454C38.6131 15.4816 38.7657 15.5448 38.8783 15.6573C38.9908 15.7699 39.0546 15.9225 39.0546 16.0816ZM28.0494 19.702C28.0494 19.5429 28.1126 19.3902 28.2251 19.2777C28.3377 19.1652 28.4903 19.102 28.6494 19.102H38.454C38.6131 19.102 38.7657 19.1652 38.8783 19.2777C38.9908 19.3902 39.054 19.5429 39.054 19.702C39.054 19.8611 38.9908 20.0137 38.8783 20.1263C38.7657 20.2388 38.6131 20.302 38.454 20.302H28.6494C28.4903 20.302 28.3377 20.2388 28.2251 20.1263C28.1126 20.0137 28.0494 19.8611 28.0494 19.702ZM33.552 23.923C33.3929 23.923 33.2403 23.8598 33.1277 23.7473C33.0152 23.6347 32.952 23.4821 32.952 23.323C32.952 23.1639 33.0152 23.0112 33.1277 22.8987C33.2403 22.7862 33.3929 22.723 33.552 22.723H38.4546C38.6137 22.723 38.7663 22.7862 38.8789 22.8987C38.9914 23.0112 39.0546 23.1639 39.0546 23.323C39.0546 23.4821 38.9914 23.6347 38.8789 23.7473C38.7663 23.8598 38.6137 23.923 38.4546 23.923H33.552ZM32.9104 51.6604C32.9104 51.8195 32.8472 51.9721 32.7347 52.0847C32.6222 52.1972 32.4695 52.2604 32.3104 52.2604H12.8694C12.7103 52.2604 12.5577 52.1972 12.4451 52.0847C12.3326 51.9721 12.2694 51.8195 12.2694 51.6604C12.2694 51.5013 12.3326 51.3487 12.4451 51.2361C12.5577 51.1236 12.7103 51.0604 12.8694 51.0604H32.3104C32.4695 51.0604 32.6222 51.1236 32.7347 51.2361C32.8472 51.3487 32.9104 51.5013 32.9104 51.6604Z" fill="url(#paint0_linear_2905_18422)" stroke="url(#paint1_linear_2905_18422)" stroke-width="0.5"/>
<defs>
<linearGradient id="paint0_linear_2905_18422" x1="30.7477" y1="2.60045" x2="30.7477" y2="57.9584" gradientUnits="userSpaceOnUse">
<stop stop-color="#00EFD1"/>
<stop offset="1" stop-color="#00ACEA"/>
</linearGradient>
<linearGradient id="paint1_linear_2905_18422" x1="30.7477" y1="2.60045" x2="30.7477" y2="57.9584" gradientUnits="userSpaceOnUse">
<stop stop-color="#00EFD1"/>
<stop offset="1" stop-color="#00ACEA"/>
</linearGradient>
</defs>
</svg>
