<svg width="70" height="71" viewBox="0 0 70 71" fill="none" xmlns="http://www.w3.org/2000/svg">
<path d="M48.125 1.18359H21.875C20.4251 1.18522 19.035 1.76192 18.0098 2.78715C16.9846 3.81239 16.4079 5.20244 16.4062 6.65234V63.5273C16.4079 64.9772 16.9846 66.3673 18.0098 67.3925C19.035 68.4178 20.4251 68.9945 21.875 68.9961H48.125C49.5749 68.9945 50.965 68.4178 51.9902 67.3925C53.0154 66.3673 53.5921 64.9772 53.5938 63.5273V6.65234C53.5921 5.20244 53.0154 3.81239 51.9902 2.78715C50.965 1.76192 49.5749 1.18522 48.125 1.18359ZM42.4159 3.37109L41.7596 6.65234H28.2405L27.5842 3.37109H42.4159ZM51.4062 63.5273C51.4053 64.3973 51.0593 65.2313 50.4441 65.8465C49.829 66.4616 48.9949 66.8076 48.125 66.8086H21.875C21.0051 66.8076 20.171 66.4616 19.5559 65.8465C18.9407 65.2313 18.5947 64.3973 18.5938 63.5273V6.65234C18.5947 5.7824 18.9407 4.94837 19.5559 4.33323C20.171 3.71809 21.0051 3.37207 21.875 3.37109H25.3533L26.2712 7.96061C26.3208 8.20855 26.4547 8.43165 26.6503 8.59196C26.8458 8.75226 27.0909 8.83986 27.3438 8.83984H42.6562C42.9091 8.83986 43.1542 8.75226 43.3497 8.59196C43.5453 8.43165 43.6792 8.20855 43.7288 7.96061L44.6467 3.37109H48.125C48.9949 3.37207 49.829 3.71809 50.4441 4.33323C51.0593 4.94837 51.4053 5.7824 51.4062 6.65234V63.5273Z" fill="url(#paint0_linear_2905_18809)"/>
<path d="M28.4375 62.4336H21.875C21.5849 62.4336 21.3067 62.5488 21.1016 62.7539C20.8965 62.9591 20.7812 63.2373 20.7812 63.5273C20.7812 63.8174 20.8965 64.0956 21.1016 64.3007C21.3067 64.5059 21.5849 64.6211 21.875 64.6211H28.4375C28.7276 64.6211 29.0058 64.5059 29.2109 64.3007C29.416 64.0956 29.5312 63.8174 29.5312 63.5273C29.5312 63.2373 29.416 62.9591 29.2109 62.7539C29.0058 62.5488 28.7276 62.4336 28.4375 62.4336Z" fill="url(#paint1_linear_2905_18809)"/>
<path d="M32.8125 62.4336H31.7188C31.4287 62.4336 31.1505 62.5488 30.9454 62.7539C30.7402 62.9591 30.625 63.2373 30.625 63.5273C30.625 63.8174 30.7402 64.0956 30.9454 64.3007C31.1505 64.5059 31.4287 64.6211 31.7188 64.6211H32.8125C33.1026 64.6211 33.3808 64.5059 33.5859 64.3007C33.791 64.0956 33.9062 63.8174 33.9062 63.5273C33.9062 63.2373 33.791 62.9591 33.5859 62.7539C33.3808 62.5488 33.1026 62.4336 32.8125 62.4336Z" fill="url(#paint2_linear_2905_18809)"/>
<defs>
<linearGradient id="paint0_linear_2905_18809" x1="34.9999" y1="-0.334663" x2="34.9999" y2="69.2326" gradientUnits="userSpaceOnUse">
<stop stop-color="#00EFD1"/>
<stop offset="1" stop-color="#00ACEA"/>
</linearGradient>
<linearGradient id="paint1_linear_2905_18809" x1="25.1562" y1="62.3846" x2="25.1562" y2="64.6287" gradientUnits="userSpaceOnUse">
<stop stop-color="#00EFD1"/>
<stop offset="1" stop-color="#00ACEA"/>
</linearGradient>
<linearGradient id="paint2_linear_2905_18809" x1="32.2656" y1="62.3846" x2="32.2656" y2="64.6287" gradientUnits="userSpaceOnUse">
<stop stop-color="#00EFD1"/>
<stop offset="1" stop-color="#00ACEA"/>
</linearGradient>
</defs>
</svg>
