<svg width="38" height="68" viewBox="0 0 38 68" fill="none" xmlns="http://www.w3.org/2000/svg">
<path d="M31.7188 0.0966797H5.46875C4.01885 0.0983081 2.62879 0.675001 1.60356 1.70024C0.578321 2.72547 0.00162839 4.11553 0 5.56543V62.4404C0.00162839 63.8903 0.578321 65.2804 1.60356 66.3056C2.62879 67.3309 4.01885 67.9076 5.46875 67.9092H31.7188C33.1687 67.9076 34.5587 67.3309 35.5839 66.3056C36.6092 65.2804 37.1859 63.8903 37.1875 62.4404V5.56543C37.1859 4.11553 36.6092 2.72547 35.5839 1.70024C34.5587 0.675001 33.1687 0.0983081 31.7188 0.0966797ZM26.0096 2.28418L25.3534 5.56543H11.8342L11.178 2.28418H26.0096ZM35 62.4404C34.999 63.3104 34.653 64.1444 34.0379 64.7595C33.4227 65.3747 32.5887 65.7207 31.7188 65.7217H5.46875C4.59881 65.7207 3.76478 65.3747 3.14963 64.7595C2.53449 64.1444 2.18848 63.3104 2.1875 62.4404V5.56543C2.18848 4.69549 2.53449 3.86146 3.14963 3.24631C3.76478 2.63117 4.59881 2.28516 5.46875 2.28418H8.94701L9.86494 6.87369C9.91453 7.12164 10.0485 7.34474 10.244 7.50504C10.4396 7.66534 10.6846 7.75294 10.9375 7.75293H26.25C26.5029 7.75294 26.7479 7.66534 26.9435 7.50504C27.139 7.34474 27.273 7.12164 27.3226 6.87369L28.2405 2.28418H31.7188C32.5887 2.28516 33.4227 2.63117 34.0379 3.24631C34.653 3.86146 34.999 4.69549 35 5.56543V62.4404Z" fill="url(#paint0_linear_4170_2941)"/>
<path d="M12.0312 61.3467H5.46875C5.17867 61.3467 4.90047 61.4619 4.69535 61.667C4.49023 61.8721 4.375 62.1503 4.375 62.4404C4.375 62.7305 4.49023 63.0087 4.69535 63.2138C4.90047 63.4189 5.17867 63.5342 5.46875 63.5342H12.0312C12.3213 63.5342 12.5995 63.4189 12.8046 63.2138C13.0098 63.0087 13.125 62.7305 13.125 62.4404C13.125 62.1503 13.0098 61.8721 12.8046 61.667C12.5995 61.4619 12.3213 61.3467 12.0312 61.3467Z" fill="url(#paint1_linear_4170_2941)"/>
<defs>
<linearGradient id="paint0_linear_4170_2941" x1="18.5937" y1="-1.42158" x2="18.5937" y2="68.1457" gradientUnits="userSpaceOnUse">
<stop stop-color="#00EFD1"/>
<stop offset="1" stop-color="#00ACEA"/>
</linearGradient>
<linearGradient id="paint1_linear_4170_2941" x1="8.74998" y1="61.2977" x2="8.74998" y2="63.5418" gradientUnits="userSpaceOnUse">
<stop stop-color="#00EFD1"/>
<stop offset="1" stop-color="#00ACEA"/>
</linearGradient>
</defs>
</svg>
