<svg width="70" height="71" viewBox="0 0 70 71" fill="none" xmlns="http://www.w3.org/2000/svg">
<path d="M40.9352 15.9758C40.9352 20.0745 44.2697 23.4089 48.3677 23.4089C52.4686 23.4089 55.805 20.0745 55.805 15.9758C55.805 11.8774 52.4686 8.54297 48.3677 8.54297C44.2698 8.54297 40.9352 11.8774 40.9352 15.9758ZM54.3822 15.9758C54.3822 19.2897 51.6842 21.986 48.3678 21.986C45.0542 21.986 42.3583 19.2897 42.3583 15.9758C42.3583 12.6619 45.0543 9.96594 48.3678 9.96594C51.6842 9.96594 54.3822 12.6619 54.3822 15.9758ZM14.193 15.9758C14.193 20.0745 17.5275 23.4089 21.6262 23.4089C25.7271 23.4089 29.0635 20.0745 29.0635 15.9758C29.0635 11.8774 25.7271 8.54297 21.6262 8.54297C17.5275 8.54297 14.193 11.8774 14.193 15.9758ZM27.6406 15.9758C27.6406 19.2897 24.9426 21.986 21.6262 21.986C18.3118 21.986 15.616 19.2897 15.616 15.9758C15.616 12.6619 18.312 9.96594 21.6262 9.96594C24.9427 9.96594 27.6406 12.6619 27.6406 15.9758ZM64.0686 38.8573H60.9191C62.7789 37.5049 63.9949 35.3192 63.9949 32.8499C63.9949 28.7512 60.6584 25.4168 56.5575 25.4168C52.4595 25.4168 49.1251 28.7512 49.1251 32.8499C49.1251 35.3192 50.3404 37.5049 52.1988 38.8573C50.4291 38.8671 49.5634 38.8349 48.771 38.8811C47.7687 37.1419 45.8944 35.9659 43.7471 35.9659H39.7087C42.0159 34.4345 43.5415 31.8158 43.5415 28.845C43.5415 24.1341 39.7089 20.3015 34.998 20.3015C30.2843 20.3015 26.4496 24.1341 26.4496 28.845C26.4496 31.8158 27.9761 34.4345 30.2844 35.9659H26.244C24.0968 35.9659 22.2228 37.1417 21.2204 38.8806C20.4978 38.8403 19.1796 38.8649 17.7997 38.8573C19.6584 37.5049 20.8737 35.3192 20.8737 32.8499C20.8737 28.7512 17.5392 25.4168 13.4405 25.4168C9.33967 25.4168 6.00318 28.7512 6.00318 32.8499C6.00318 35.3192 7.21916 37.5049 9.07895 38.8573H5.92963C3.12744 38.8573 0.847656 41.1374 0.847656 43.9396V60.9237C0.847656 61.3167 1.16594 61.6352 1.55914 61.6352H68.4398C68.833 61.6352 69.1513 61.3167 69.1513 60.9237V43.9396C69.1513 41.1373 66.8716 38.8573 64.0686 38.8573ZM50.5481 32.8499C50.5481 29.536 53.244 26.8398 56.5575 26.8398C59.8739 26.8398 62.5719 29.536 62.5719 32.8499C62.5719 36.1477 59.8998 38.8311 56.6057 38.8573H56.5097C53.2183 38.8311 50.5481 36.1477 50.5481 32.8499ZM27.8727 28.8449C27.8727 24.9185 31.0689 21.7244 34.9981 21.7244C38.9245 21.7244 42.1185 24.9185 42.1185 28.8449C42.1185 32.7713 38.9245 35.9657 34.9981 35.9657C31.0689 35.9657 27.8727 32.7713 27.8727 28.8449ZM7.42629 32.8499C7.42629 29.536 10.1243 26.8398 13.4407 26.8398C16.755 26.8398 19.4508 29.536 19.4508 32.8499C19.4508 36.1477 16.7806 38.8311 13.4887 38.8573H13.3927C10.0985 38.8311 7.42629 36.1477 7.42629 32.8499ZM2.27062 43.9396C2.27062 41.9219 3.9118 40.2803 5.92949 40.2803H20.6381C20.5367 40.6668 20.4449 41.2736 20.4449 41.7648V60.2123H7.42629V47.6475C7.42629 47.2546 7.10801 46.9361 6.71481 46.9361C6.3216 46.9361 6.00332 47.2546 6.00332 47.6475V60.2123H2.27062V43.9396ZM48.1232 60.2143H43.5416V46.0876C43.5416 45.6946 43.2234 45.3761 42.8302 45.3761C42.437 45.3761 42.1187 45.6946 42.1187 46.0876V60.2143H27.8727V46.0876C27.8727 45.6946 27.5544 45.3761 27.1612 45.3761C26.768 45.3761 26.4497 45.6946 26.4497 46.0876V60.2143H21.8695V41.7658C21.8695 39.3725 23.8181 37.3887 26.2441 37.3887H43.7473C46.1604 37.3887 48.1232 39.3519 48.1232 41.7647V60.2143ZM67.7283 60.2123H63.995V47.6475C63.995 47.2546 63.6768 46.9361 63.2836 46.9361C62.8904 46.9361 62.5721 47.2546 62.5721 47.6475V60.2123H49.5518V41.7658C49.5518 41.522 49.4653 40.6808 49.36 40.2802H64.0686C66.0863 40.2802 67.7281 41.9216 67.7281 43.9395V60.2123H67.7283Z" fill="url(#paint0_linear_2905_18814)" stroke="url(#paint1_linear_2905_18814)" stroke-width="0.5"/>
<defs>
<linearGradient id="paint0_linear_2905_18814" x1="34.9993" y1="7.35428" x2="34.9993" y2="61.8204" gradientUnits="userSpaceOnUse">
<stop stop-color="#00EFD1"/>
<stop offset="1" stop-color="#00ACEA"/>
</linearGradient>
<linearGradient id="paint1_linear_2905_18814" x1="34.9993" y1="7.35428" x2="34.9993" y2="61.8204" gradientUnits="userSpaceOnUse">
<stop stop-color="#00EFD1"/>
<stop offset="1" stop-color="#00ACEA"/>
</linearGradient>
</defs>
</svg>
