<svg width="70" height="71" viewBox="0 0 70 71" fill="none" xmlns="http://www.w3.org/2000/svg">
<path d="M40.9352 15.9827C40.9352 20.0813 44.2697 23.4158 48.3677 23.4158C52.4686 23.4158 55.805 20.0813 55.805 15.9827C55.805 11.8842 52.4686 8.5498 48.3677 8.5498C44.2698 8.5498 40.9352 11.8842 40.9352 15.9827ZM54.3822 15.9827C54.3822 19.2966 51.6842 21.9928 48.3678 21.9928C45.0542 21.9928 42.3583 19.2966 42.3583 15.9827C42.3583 12.6687 45.0543 9.97277 48.3678 9.97277C51.6842 9.97277 54.3822 12.6687 54.3822 15.9827ZM14.193 15.9827C14.193 20.0813 17.5275 23.4158 21.6262 23.4158C25.7271 23.4158 29.0635 20.0813 29.0635 15.9827C29.0635 11.8842 25.7271 8.5498 21.6262 8.5498C17.5275 8.5498 14.193 11.8842 14.193 15.9827ZM27.6406 15.9827C27.6406 19.2966 24.9426 21.9928 21.6262 21.9928C18.3118 21.9928 15.616 19.2966 15.616 15.9827C15.616 12.6687 18.312 9.97277 21.6262 9.97277C24.9427 9.97277 27.6406 12.6687 27.6406 15.9827ZM64.0686 38.8642H60.9191C62.7789 37.5118 63.9949 35.326 63.9949 32.8568C63.9949 28.7581 60.6584 25.4236 56.5575 25.4236C52.4595 25.4236 49.1251 28.7581 49.1251 32.8568C49.1251 35.326 50.3404 37.5118 52.1988 38.8642C50.4291 38.8739 49.5634 38.8418 48.771 38.888C47.7687 37.1488 45.8944 35.9727 43.7471 35.9727H39.7087C42.0159 34.4413 43.5415 31.8226 43.5415 28.8519C43.5415 24.1409 39.7089 20.3083 34.998 20.3083C30.2843 20.3083 26.4496 24.1409 26.4496 28.8519C26.4496 31.8226 27.9761 34.4413 30.2844 35.9727H26.244C24.0968 35.9727 22.2228 37.1485 21.2204 38.8874C20.4978 38.8471 19.1796 38.8717 17.7997 38.8642C19.6584 37.5118 20.8737 35.326 20.8737 32.8568C20.8737 28.7581 17.5392 25.4236 13.4405 25.4236C9.33967 25.4236 6.00318 28.7581 6.00318 32.8568C6.00318 35.326 7.21916 37.5118 9.07895 38.8642H5.92963C3.12744 38.8642 0.847656 41.1442 0.847656 43.9464V60.9306C0.847656 61.3235 1.16594 61.6421 1.55914 61.6421H68.4398C68.833 61.6421 69.1513 61.3235 69.1513 60.9306V43.9464C69.1513 41.1441 66.8716 38.8642 64.0686 38.8642ZM50.5481 32.8568C50.5481 29.5428 53.244 26.8466 56.5575 26.8466C59.8739 26.8466 62.5719 29.5428 62.5719 32.8568C62.5719 36.1546 59.8998 38.8379 56.6057 38.8642H56.5097C53.2183 38.8379 50.5481 36.1546 50.5481 32.8568ZM27.8727 28.8517C27.8727 24.9253 31.0689 21.7313 34.9981 21.7313C38.9245 21.7313 42.1185 24.9253 42.1185 28.8517C42.1185 32.7781 38.9245 35.9726 34.9981 35.9726C31.0689 35.9726 27.8727 32.7781 27.8727 28.8517ZM7.42629 32.8568C7.42629 29.5428 10.1243 26.8466 13.4407 26.8466C16.755 26.8466 19.4508 29.5428 19.4508 32.8568C19.4508 36.1546 16.7806 38.8379 13.4887 38.8642H13.3927C10.0985 38.8379 7.42629 36.1546 7.42629 32.8568ZM2.27062 43.9464C2.27062 41.9287 3.9118 40.2871 5.92949 40.2871H20.6381C20.5367 40.6737 20.4449 41.2804 20.4449 41.7716V60.2191H7.42629V47.6544C7.42629 47.2614 7.10801 46.9429 6.71481 46.9429C6.3216 46.9429 6.00332 47.2614 6.00332 47.6544V60.2191H2.27062V43.9464ZM48.1232 60.2212H43.5416V46.0944C43.5416 45.7015 43.2234 45.3829 42.8302 45.3829C42.437 45.3829 42.1187 45.7015 42.1187 46.0944V60.2212H27.8727V46.0944C27.8727 45.7015 27.5544 45.3829 27.1612 45.3829C26.768 45.3829 26.4497 45.7015 26.4497 46.0944V60.2212H21.8695V41.7726C21.8695 39.3793 23.8181 37.3955 26.2441 37.3955H43.7473C46.1604 37.3955 48.1232 39.3587 48.1232 41.7715V60.2212ZM67.7283 60.2191H63.995V47.6544C63.995 47.2614 63.6768 46.9429 63.2836 46.9429C62.8904 46.9429 62.5721 47.2614 62.5721 47.6544V60.2191H49.5518V41.7726C49.5518 41.5288 49.4653 40.6876 49.36 40.287H64.0686C66.0863 40.287 67.7281 41.9285 67.7281 43.9463V60.2191H67.7283Z" fill="url(#paint0_linear_4170_2931)" stroke="url(#paint1_linear_4170_2931)" stroke-width="0.5"/>
<defs>
<linearGradient id="paint0_linear_4170_2931" x1="34.9993" y1="7.36112" x2="34.9993" y2="61.8272" gradientUnits="userSpaceOnUse">
<stop stop-color="#00EFD1"/>
<stop offset="1" stop-color="#00ACEA"/>
</linearGradient>
<linearGradient id="paint1_linear_4170_2931" x1="34.9993" y1="7.36112" x2="34.9993" y2="61.8272" gradientUnits="userSpaceOnUse">
<stop stop-color="#00EFD1"/>
<stop offset="1" stop-color="#00ACEA"/>
</linearGradient>
</defs>
</svg>
