<svg width="71" height="71" viewBox="0 0 71 71" fill="none" xmlns="http://www.w3.org/2000/svg">
<g clip-path="url(#clip0_2905_19631)">
<path d="M8.32369 21.1663C9.01891 16.8693 10.2781 13.1768 12.0628 10.1965C13.8787 7.13332 16.4036 4.74512 19.5674 3.0982C22.671 1.48301 26.6091 0.664062 31.2725 0.664062C35.8338 0.664062 39.7775 1.51172 42.9886 3.18092C46.2019 4.83289 48.8638 7.27072 50.9034 10.4313C52.8729 13.5106 54.3203 17.2712 55.2054 21.6083C56.0768 25.8784 56.5186 30.6939 56.5186 35.9211C56.5186 41.1885 56.1662 45.9817 55.4716 50.1672C54.7609 54.4488 53.4906 58.1395 51.6991 61.1313C49.8811 64.1979 47.3688 66.5856 44.2318 68.2279C41.1444 69.8442 37.211 70.6637 32.541 70.6637C27.9457 70.6637 23.9847 69.816 20.7734 68.1468C17.5603 66.4948 14.8982 64.0571 12.8585 60.8965C10.8818 57.8057 9.43987 54.0494 8.57293 49.7323C7.72486 45.5093 7.29475 40.6896 7.29475 35.4068C7.29475 30.1767 7.64092 25.3854 8.32369 21.1663ZM11.2537 49.1942C12.0538 53.1777 13.3686 56.6194 15.1589 59.4187C16.9325 62.1669 19.2421 64.2853 22.0289 65.718C24.8522 67.1854 28.3889 67.9296 32.5408 67.9296C36.7647 67.9296 40.2714 67.2149 42.9634 65.8056C45.6439 64.4022 47.7917 62.3606 49.35 59.7319C50.9678 57.0302 52.1198 53.6617 52.774 49.7196C53.4442 45.6816 53.784 41.0392 53.784 35.9212C53.784 30.8773 53.3608 26.2456 52.526 22.1552C51.7084 18.1486 50.3874 14.6999 48.6027 11.9095C46.8293 9.16141 44.5197 7.04295 41.7327 5.61014C38.9097 4.14246 35.3903 3.39844 31.2725 3.39844C27.0531 3.39844 23.5397 4.11348 20.8299 5.52373C18.1253 6.93152 15.9671 8.97287 14.4119 11.5961C12.8029 14.283 11.6626 17.6499 11.0229 21.6031C10.3635 25.6783 10.0291 30.3225 10.0291 35.4069C10.0291 40.5092 10.4412 45.148 11.2537 49.1942Z" fill="url(#paint0_linear_2905_19631)"/>
<path d="M21.6169 21.5343C21.6179 21.5292 21.619 21.524 21.6199 21.519C21.9937 19.7214 22.4654 18.1516 23.0218 16.8532C23.6186 15.4608 24.3639 14.3404 25.2374 13.5227C26.1196 12.6644 27.1419 12.041 28.2759 11.6698C28.2832 11.6673 28.2903 11.6651 28.2975 11.6628C29.3854 11.3267 30.5766 11.1562 31.8381 11.1562C34.0918 11.1562 36.0168 11.7223 37.5691 12.8454C39.0764 13.9562 40.2354 15.5571 41.1145 17.7451C41.9201 19.7772 42.4806 22.2934 42.7799 25.2154C42.9095 26.4106 43.0137 27.7046 43.0898 29.0613C43.1321 29.8154 42.5551 30.4607 41.8012 30.5029C41.0466 30.5439 40.4021 29.9682 40.3597 29.2143C40.2863 27.9047 40.1859 26.6585 40.0605 25.5021C39.7861 22.8219 39.2855 20.5512 38.575 18.7588C37.8931 17.0617 37.0336 15.8475 35.9567 15.0538C34.89 14.2819 33.5043 13.8906 31.8383 13.8906C30.8551 13.8906 29.9394 14.0189 29.1161 14.2719C28.3725 14.5171 27.7248 14.9156 27.1367 15.49C27.129 15.4975 27.1213 15.5047 27.1135 15.512C26.515 16.0699 25.984 16.8835 25.5353 17.9303C25.0513 19.0596 24.6353 20.4516 24.2988 22.0679C23.9677 23.7595 23.716 25.7722 23.5508 28.0507C23.3826 30.3555 23.2973 33.0616 23.2973 36.0938C23.2973 38.7406 23.3527 40.9916 23.4666 42.9758C23.5821 45.0051 23.7994 46.8527 24.1142 48.478C24.4067 50.0531 24.7959 51.4466 25.2713 52.6194C25.274 52.6262 25.2767 52.6332 25.2795 52.6399C25.7002 53.7277 26.2444 54.6496 26.8975 55.3801C27.5599 56.0841 28.268 56.5834 29.0621 56.9063C29.0682 56.9088 29.0744 56.9112 29.0805 56.914C29.9038 57.263 30.8951 57.4399 32.0268 57.4399C33.5516 57.4399 34.8033 57.1462 35.8463 56.5462C36.8363 55.9686 37.6741 54.9168 38.3342 53.4245C39.0681 51.7494 39.6211 49.4435 39.9774 46.5772C40.1593 45.0531 40.2969 43.3028 40.3868 41.3752C40.4219 40.6209 41.0613 40.0379 41.816 40.0731C42.5703 40.1082 43.1533 40.7482 43.1181 41.5023C43.0253 43.4954 42.8821 45.3119 42.6917 46.9078C42.2964 50.0872 41.6904 52.5777 40.8367 54.5263C39.9369 56.5603 38.7215 58.0345 37.2169 58.9122C35.7614 59.7498 34.0151 60.1743 32.0267 60.1743C30.5304 60.1743 29.1833 59.9257 28.0227 59.4356C26.871 58.9656 25.8179 58.2267 24.8923 57.2395C24.8856 57.2322 24.8789 57.2251 24.8723 57.2178C23.9949 56.2405 23.275 55.0354 22.7328 53.6364C22.1904 52.2957 21.7505 50.7283 21.4276 48.9878C21.0914 47.2531 20.8588 45.2825 20.7364 43.1319C20.6195 41.0956 20.5627 38.7935 20.5627 36.0938C20.5627 32.9956 20.6504 30.2226 20.8234 27.8525C20.9992 25.4275 21.2587 23.3609 21.6169 21.5343Z" fill="url(#paint1_linear_2905_19631)"/>
<path d="M41.8834 36.6523C41.1283 36.6523 40.5162 36.0401 40.5162 35.2852C40.5162 34.5302 41.1283 33.918 41.8834 33.918H41.8843C42.6394 33.918 43.251 34.5302 43.251 35.2852C43.251 36.0401 42.6385 36.6523 41.8834 36.6523Z" fill="url(#paint2_linear_2905_19631)"/>
<g clip-path="url(#clip1_2905_19631)">
<rect x="35.7251" y="38.8438" width="31.8182" height="31.1818" rx="15.5909" fill="white"/>
<path d="M56.2085 49.1843H55.1128C54.9636 48.4445 54.6335 47.7763 54.194 47.1957H56.2085C56.7574 47.1957 57.2028 46.7502 57.2028 46.2013C57.2028 45.6525 56.7574 45.207 56.2085 45.207H50.2426H46.2653C45.7165 45.207 45.271 45.6525 45.271 46.2013C45.271 46.7502 45.7165 47.1957 46.2653 47.1957H50.2426C51.5372 47.1957 52.6309 48.0289 53.0426 49.1843H46.2653C45.7165 49.1843 45.271 49.6298 45.271 50.1786C45.271 50.7275 45.7165 51.1729 46.2653 51.1729H53.0426C52.6309 52.3283 51.5372 53.1616 50.2426 53.1616H46.2653C46.1361 53.1616 46.0068 53.1874 45.8855 53.2371C45.6429 53.3386 45.448 53.5315 45.3466 53.7761C45.2452 54.0187 45.2452 54.2931 45.3466 54.5357C45.3963 54.659 45.4699 54.7684 45.5633 54.8599L53.5159 62.8124C53.7108 63.0073 53.9653 63.1048 54.2199 63.1048C54.4744 63.1048 54.729 63.0073 54.9238 62.8144C55.3116 62.4266 55.3116 61.7962 54.9238 61.4085L48.6656 55.1502H50.2426C52.6449 55.1502 54.6514 53.44 55.1128 51.1729H56.2085C56.7574 51.1729 57.2028 50.7275 57.2028 50.1786C57.2028 49.6298 56.7574 49.1843 56.2085 49.1843Z" fill="url(#paint3_linear_2905_19631)"/>
<path d="M51.316 38.8438C42.7196 38.8438 35.7251 45.8382 35.7251 54.4347C35.7251 63.0311 42.7196 70.0256 51.316 70.0256C59.9124 70.0256 66.9069 63.0311 66.9069 54.4347C66.9069 45.8382 59.9124 38.8438 51.316 38.8438ZM51.316 68.0767C43.7953 68.0767 37.674 61.9573 37.674 54.4347C37.674 46.912 43.7953 40.7926 51.316 40.7926C58.8367 40.7926 64.9581 46.912 64.9581 54.4347C64.9581 61.9573 58.8367 68.0767 51.316 68.0767Z" fill="url(#paint4_linear_2905_19631)"/>
</g>
</g>
<defs>
<linearGradient id="paint0_linear_2905_19631" x1="31.9068" y1="-0.903161" x2="31.9068" y2="70.9078" gradientUnits="userSpaceOnUse">
<stop stop-color="#00EFD1"/>
<stop offset="1" stop-color="#00ACEA"/>
</linearGradient>
<linearGradient id="paint1_linear_2905_19631" x1="31.8412" y1="10.0588" x2="31.8412" y2="60.3453" gradientUnits="userSpaceOnUse">
<stop stop-color="#00EFD1"/>
<stop offset="1" stop-color="#00ACEA"/>
</linearGradient>
<linearGradient id="paint2_linear_2905_19631" x1="41.8836" y1="33.8567" x2="41.8836" y2="36.6619" gradientUnits="userSpaceOnUse">
<stop stop-color="#00EFD1"/>
<stop offset="1" stop-color="#00ACEA"/>
</linearGradient>
<linearGradient id="paint3_linear_2905_19631" x1="51.2366" y1="44.8063" x2="51.2366" y2="63.1672" gradientUnits="userSpaceOnUse">
<stop stop-color="#00EFD1"/>
<stop offset="1" stop-color="#00ACEA"/>
</linearGradient>
<linearGradient id="paint4_linear_2905_19631" x1="51.3159" y1="38.1456" x2="51.3159" y2="70.1343" gradientUnits="userSpaceOnUse">
<stop stop-color="#00EFD1"/>
<stop offset="1" stop-color="#00ACEA"/>
</linearGradient>
<clipPath id="clip0_2905_19631">
<rect width="70" height="70" fill="white" transform="matrix(-1 0 0 1 70.4194 0.664062)"/>
</clipPath>
<clipPath id="clip1_2905_19631">
<rect x="35.7251" y="38.8438" width="31.8182" height="31.1818" rx="15.5909" fill="white"/>
</clipPath>
</defs>
</svg>
