<svg id="Group_21929" data-name="Group 21929" xmlns="http://www.w3.org/2000/svg" xmlns:xlink="http://www.w3.org/1999/xlink" width="50.397" height="54" viewBox="0 0 50.397 54">
  <defs>
    <linearGradient id="linear-gradient" x1="0.5" x2="0.5" y2="1" gradientUnits="objectBoundingBox">
      <stop offset="0" stop-color="#00efd1"/>
      <stop offset="1" stop-color="#00acea"/>
    </linearGradient>
    <clipPath id="clip-path">
      <rect id="Rectangle_1656" data-name="Rectangle 1656" width="50.397" height="54" fill="url(#linear-gradient)"/>
    </clipPath>
  </defs>
  <g id="Group_21929-2" data-name="Group 21929" clip-path="url(#clip-path)">
    <path id="Path_13980" data-name="Path 13980" d="M10.514,4.521a5.516,5.516,0,0,1,2.6-3.752A5.426,5.426,0,0,1,16,0Q22.326.009,28.65,0c3.079,0,5,1.47,5.813,4.512.2,0,.414,0,.631,0,1.741.025,3.5-.078,5.22.107A5.083,5.083,0,0,1,44.748,8.4a.943.943,0,0,0,.543.626,12.01,12.01,0,0,1,3.822,2.9,5.324,5.324,0,0,1,.049,6.881q-1.894,2.478-3.816,4.934a1.612,1.612,0,0,0-.37,1.07c.011,7.776-.049,15.553.035,23.328A5.687,5.687,0,0,1,39.169,54c-11.13-.063-22.26-.024-33.39-.024A5.429,5.429,0,0,1,0,48.216Q0,29.245,0,10.273A5.428,5.428,0,0,1,5.733,4.521h4.782Zm8.7,37.576c-.064-.479-.126-.868-.165-1.258a8.341,8.341,0,0,1,1.495-6.321c5.774-7.423,11.5-14.884,17.243-22.33.945-1.226,1.779-2.568,3.347-3.168a1.761,1.761,0,0,0-1.638-.9c-.937-.009-1.874,0-2.811,0H34.464c-.065.224-.113.385-.159.546a5.338,5.338,0,0,1-5.006,3.91c-4.535.039-9.071.056-13.6-.008a5.141,5.141,0,0,1-4.669-3,13.521,13.521,0,0,1-.558-1.445c-1.573,0-3.164,0-4.754,0-1.476,0-2.114.646-2.114,2.132q0,19,0,38c0,1.483.637,2.121,2.119,2.121H39.226c1.521,0,2.159-.633,2.159-2.142q0-9.332,0-18.665v-.652c-.207.251-.328.388-.439.532q-5.083,6.584-10.16,13.172a6.265,6.265,0,0,1-3.39,2.371,16.159,16.159,0,0,1-3.577.638c-3.295.1-6.593.054-9.89.064-1.181,0-2.361.016-3.542-.011A1.755,1.755,0,0,1,8.7,44.29a1.725,1.725,0,0,1,.853-1.913,2.92,2.92,0,0,1,1.238-.268c2.586-.023,5.172-.012,7.758-.012h.669m3.392-2.475a3.932,3.932,0,0,0,0,.538c.294,2.187.042,2.052,2.119,1.773a5.245,5.245,0,0,0,3.723-2.119c3.413-4.555,6.926-9.035,10.4-13.543q3.7-4.805,7.406-9.611a1.814,1.814,0,0,0-.38-2.9q-.665-.517-1.337-1.026a1.808,1.808,0,0,0-2.932.392Q32.658,24.737,23.69,36.335a4.784,4.784,0,0,0-1.081,3.287M22.491,3.6c-2.192,0-4.384-.006-6.576,0a1.747,1.747,0,0,0-1.857,1.817c-.011.6-.013,1.2,0,1.8a1.712,1.712,0,0,0,1.736,1.764q6.689.028,13.378,0a1.713,1.713,0,0,0,1.745-1.758c.019-.562.009-1.124,0-1.686A1.778,1.778,0,0,0,28.955,3.6q-3.232,0-6.464,0" transform="translate(0 0)" fill="url(#linear-gradient)"/>
    <path id="Path_13981" data-name="Path 13981" d="M78.393,207.853a11.657,11.657,0,0,1,1.178.007,1.762,1.762,0,0,1,1.563,1.705,1.714,1.714,0,0,1-1.5,1.806,14.319,14.319,0,0,1-2.52,0,1.72,1.72,0,0,1-1.484-1.768,1.773,1.773,0,0,1,1.587-1.743c.389-.037.785-.006,1.178-.006v0" transform="translate(-64.266 -176.614)" fill="url(#linear-gradient)"/>
    <path id="Path_13982" data-name="Path 13982" d="M78.383,108.3c.393,0,.789-.032,1.178.007a1.766,1.766,0,0,1,1.571,1.7,1.716,1.716,0,0,1-1.493,1.813,13.988,13.988,0,0,1-2.52,0A1.733,1.733,0,0,1,75.627,110,1.774,1.774,0,0,1,77.2,108.31c.389-.038.785-.006,1.178-.006" transform="translate(-64.265 -92.022)" fill="url(#linear-gradient)"/>
    <path id="Path_13983" data-name="Path 13983" d="M78.389,157.682c.374,0,.751-.027,1.122.005a1.771,1.771,0,0,1,1.62,1.714,1.716,1.716,0,0,1-1.5,1.808,13.989,13.989,0,0,1-2.52,0,1.732,1.732,0,0,1-1.485-1.824,1.775,1.775,0,0,1,1.584-1.688c.389-.037.785-.006,1.178-.006v0" transform="translate(-64.264 -133.984)" fill="url(#linear-gradient)"/>
  </g>
</svg>
