<?xml version="1.0" encoding="UTF-8"?><svg id="a" xmlns="http://www.w3.org/2000/svg" viewBox="0 0 17.41 16.67"><defs><style>.b{fill:#231f20;}</style></defs><path class="b" d="M17.41,9.8v6.87h-3.72v-6.44c0-1.5-.54-2.52-1.89-2.52-1.02,0-1.64,.69-1.9,1.35-.1,.24-.13,.57-.13,.9v6.71h-3.72v-7.92c0-1.45-.05-2.66-.1-3.71h3.23l.17,1.62h.08c.49-.76,1.69-1.88,3.7-1.88,2.45,0,4.28,1.59,4.28,5.02Z"/><path class="b" d="M3.94,1.81c0,1-.76,1.81-2.01,1.81-1.17,0-1.93-.81-1.93-1.81S.78,0,1.98,0s1.94,.79,1.96,1.81Z"/><rect class="b" x=".1" y="5.04" width="3.72" height="11.63"/></svg>