<svg width="193" height="48" viewBox="0 0 193 48" fill="none" xmlns="http://www.w3.org/2000/svg">
<g clip-path="url(#clip0_795_6555)">
<path d="M39.9925 39.8711C40.4567 40.3377 40.4567 40.8043 39.9925 41.2709C35.8882 45.3968 30.257 48 23.8318 48C10.5906 48 0 37.4152 0 24.0307C0 10.6462 10.5906 0 23.8441 0C30.2692 0 35.9004 2.59094 40.0047 6.72909C40.4689 7.1957 40.4689 7.66232 40.0047 8.12893L35.6317 12.8565C35.2286 13.3231 34.7034 13.3231 34.2392 12.9179C31.4541 10.4497 28.0094 8.92709 23.7708 8.92709C15.6965 8.92709 9.33241 15.386 9.33241 24.043C9.33241 32.6999 15.6843 39.0852 23.7708 39.0852C28.0094 39.0852 31.4541 37.5503 34.2392 35.0944C34.7034 34.6892 35.2286 34.6892 35.6317 35.1558L40.0047 39.8833L39.9925 39.8711Z" fill="white"/>
<path d="M74.6226 27.555V46.1214C74.6226 46.674 74.1828 47.116 73.6331 47.116H66.8781C66.3284 47.116 65.8887 46.674 65.8887 46.1214V29.1514C65.8887 23.7607 62.9693 21.8943 59.7933 21.8943C54.895 21.8943 52.6474 26.7569 52.6474 28.2795V46.1214C52.6474 46.674 52.2077 47.116 51.658 47.116H44.903C44.3533 47.116 43.9136 46.674 43.9136 46.1214V1.87891C43.9136 1.32633 44.3533 0.884277 44.903 0.884277H51.658C52.2077 0.884277 52.6474 1.32633 52.6474 1.87891V19.8313C54.7607 16.3685 58.2053 13.7776 62.9082 13.7776C69.5288 13.7776 74.6348 18.8367 74.6348 27.555H74.6226Z" fill="white"/>
<path d="M78.9346 30.8825C78.9346 21.2923 86.4225 13.7773 95.7549 13.7773C105.087 13.7773 112.575 21.3046 112.575 30.8825C112.575 40.4604 105.087 47.9876 95.7549 47.9876C86.4225 47.9876 78.9346 40.4604 78.9346 30.8825ZM104.159 30.8825C104.159 25.6269 100.384 21.894 95.7549 21.894C91.1253 21.894 87.3508 25.6269 87.3508 30.8825C87.3508 36.138 91.0642 39.871 95.7549 39.871C100.446 39.871 104.159 36.138 104.159 30.8825Z" fill="white"/>
<path d="M116.459 4.86262C116.459 2.198 118.573 0 121.297 0C124.021 0 126.061 2.198 126.061 4.86262C126.061 7.52725 123.947 9.72525 121.297 9.72525C118.646 9.72525 116.459 7.52725 116.459 4.86262ZM117.913 14.5142H124.668C125.267 14.5142 125.658 14.9194 125.658 15.5088V46.1335C125.658 46.7352 125.254 47.1282 124.668 47.1282H117.913C117.315 47.1282 116.924 46.7229 116.924 46.1335V15.5088C116.924 14.9071 117.327 14.5142 117.913 14.5142Z" fill="white"/>
<path d="M153.704 36.9484C154.229 36.4818 154.693 36.4818 155.157 36.9484L159.201 40.8041C159.604 41.2094 159.665 41.7374 159.262 42.204C156.22 45.7282 151.713 47.9998 146.546 47.9998C137.213 47.9998 129.994 40.4726 129.994 30.8947C129.994 21.3168 137.213 13.7896 146.546 13.7896C151.578 13.7896 156.012 16.049 159.066 19.5854C159.469 20.052 159.396 20.58 159.005 20.9853L154.962 24.9146C154.498 25.3813 154.034 25.3199 153.508 24.8533C151.652 23.1833 149.734 21.9185 146.753 21.9185C141.855 21.9185 138.41 25.7742 138.41 30.907C138.41 36.0397 141.855 39.8955 146.753 39.8955C149.868 39.8955 151.847 38.6307 153.704 36.9607V36.9484Z" fill="white"/>
<path d="M190.679 34.0878H169.889C170.744 38.4101 174.066 40.8783 179.16 40.8783C181.737 40.8783 183.789 40.2152 186.049 38.6189C186.648 38.2137 187.039 38.2137 187.503 38.6803L190.422 41.5414C190.887 42.008 190.887 42.4746 190.361 43.0026C187.246 46.1339 183.008 48.0003 178.305 48.0003C168.178 48.0003 161.216 40.4731 161.216 30.8952C161.216 21.3173 168.166 13.79 177.572 13.79C186.978 13.79 193 21.3173 193 30.1707C193 32.7616 192.67 34.1001 190.679 34.1001V34.0878ZM169.754 28.3656H185.255C184.657 23.7732 181.542 21.2436 177.645 21.2436C173.749 21.2436 170.499 23.7732 169.766 28.3656H169.754Z" fill="white"/>
</g>
<defs>
<clipPath id="clip0_795_6555">
<rect width="193" height="48" fill="white"/>
</clipPath>
</defs>
</svg>
