<svg width="254" height="255" viewBox="0 0 254 255" fill="none" xmlns="http://www.w3.org/2000/svg">
<path d="M253.331 0.960938H69.1797V226.359H253.331V0.960938Z" fill="#F3F3F3"/>
<path d="M211.47 116.914H97.1641V125.541H211.47V116.914Z" fill="#FF725E"/>
<path d="M155.339 74.4219H98.6953V83.0486H155.339V74.4219Z" fill="#E0E0E0"/>
<path d="M180.77 54.0809C180.77 54.1792 162.549 54.2564 140.064 54.2564C117.58 54.2564 99.3516 54.1792 99.3516 54.0809C99.3516 53.9827 117.58 53.8984 140.064 53.8984C162.549 53.8984 180.77 53.9756 180.77 54.0809Z" fill="#263238"/>
<path d="M211.822 143.292C211.822 143.39 186.485 143.474 155.212 143.474C123.939 143.474 98.6016 143.39 98.6016 143.292C98.6016 143.194 123.939 143.109 155.212 143.109C186.485 143.109 211.822 143.194 211.822 143.292Z" fill="#263238"/>
<path d="M211.822 153.222C211.822 153.32 186.485 153.404 155.212 153.404C123.939 153.404 98.6016 153.32 98.6016 153.222C98.6016 153.123 123.939 153.039 155.212 153.039C186.485 153.039 211.822 153.123 211.822 153.222Z" fill="#263238"/>
<path d="M211.822 163.261C211.822 163.366 186.485 163.443 155.212 163.443C123.939 163.443 98.6016 163.366 98.6016 163.261C98.6016 163.155 123.939 163.078 155.212 163.078C186.485 163.078 211.822 163.162 211.822 163.261Z" fill="#263238"/>
<path d="M148.562 193.722C148.562 193.827 137.45 193.904 123.746 193.904C110.041 193.904 98.9219 193.827 98.9219 193.722C98.9219 193.616 110.034 193.539 123.746 193.539C137.457 193.539 148.562 193.623 148.562 193.722Z" fill="#263238"/>
<path d="M0.335938 252.745L4.92456 252.676L15.0597 164.008L10.5406 163.484L0.335938 252.745Z" fill="#455A64"/>
<path d="M27.2344 252.745L31.823 252.676L41.9581 164.008L37.439 163.484L27.2344 252.745Z" fill="#455A64"/>
<path d="M108.31 252.906L103.721 252.837L93.5859 164.984L98.105 164.469L108.31 252.906Z" fill="#455A64"/>
<path d="M78.7316 252.906L74.1429 252.837L64.0078 164.984L68.5269 164.469L78.7316 252.906Z" fill="#455A64"/>
<path d="M7.48676 178.688H100.062V169.13H7.48676V178.688Z" fill="#455A64"/>
<path d="M66.8738 62.6172L8.22597 63.3406L7.48438 169.146L74.8304 170.062L66.8738 62.6172Z" fill="#455A64"/>
<path d="M93.1322 104.007C92.8309 101.968 86.6896 95.2036 86.6896 95.2036C86.6896 95.2036 83.5996 82.8908 82.7035 79.3124C82.3935 78.2695 81.944 77.273 81.3671 76.3496C79.1925 72.7439 76.1015 69.7735 72.4061 67.7383L63.9087 62.9825L61.877 58.4806L40.0464 54.6328L35.6509 59.6734C35.6509 59.6734 19.1658 65.8991 17.0028 67.7922C14.3532 70.1008 21.6378 108.84 21.6378 108.84C21.6378 108.84 16.0141 132.342 14.8321 137.206C13.6502 142.069 15.3497 148.895 15.3497 148.895L26.52 138.26C29.61 134.412 35.1565 129.68 40.0618 129.749L81.9696 129.934L80.301 118.236L114.183 124.801C114.183 124.801 120.015 113.481 120.478 113.257C120.942 113.034 93.1322 104.007 93.1322 104.007Z" fill="#FF725E"/>
<path d="M40.372 60.6238C40.0785 60.3237 42.9831 70.2663 46.3203 79.3855C48.1178 84.319 49.0329 89.5282 49.024 94.7766V127.806L69.1088 126.451L66.1116 104.642C66.1116 104.642 63.6627 90.6133 63.0216 85.2726C62.3881 80.3859 60.2251 65.5105 60.2251 65.5105C60.2251 65.5105 48.7845 69.1274 40.372 60.6238Z" fill="white"/>
<path d="M85.1978 112.189C85.1632 112.022 85.1632 111.849 85.1978 111.681C85.2396 111.225 85.3276 110.773 85.4605 110.335C85.8885 108.874 86.6791 107.544 87.7592 106.468C88.8393 105.392 90.1741 104.605 91.6404 104.178C92.0829 104.053 92.5351 103.966 92.9923 103.916C93.1605 103.882 93.3339 103.882 93.5021 103.916C93.5021 103.978 92.7991 104.055 91.7254 104.424C90.3303 104.91 89.0611 105.699 88.0097 106.733C86.9674 107.78 86.1753 109.048 85.6922 110.442C85.3368 111.52 85.2596 112.228 85.1978 112.189Z" fill="#263238"/>
<path d="M86.2656 104.295C87.2188 103.798 88.2625 103.497 89.3347 103.409C90.407 103.322 91.4859 103.45 92.5074 103.787C92.5074 103.895 91.086 103.625 89.3633 103.787C87.6407 103.948 86.2656 104.395 86.2656 104.295Z" fill="#263238"/>
<g opacity="0.3">
<path d="M19.5896 122.312L17.8438 124.283C19.6682 126.525 22.1415 128.153 24.9275 128.946C27.7192 129.538 30.5718 129.797 33.425 129.716C34.5859 129.769 35.7485 129.657 36.878 129.385C38.0213 129.061 39.0796 128.415 40.2615 128.346C41.0459 128.354 41.8255 128.467 42.579 128.684C43.3358 128.893 44.1332 128.906 44.8965 128.723C45.2803 128.618 45.6201 128.393 45.8662 128.081C46.1123 127.77 46.2516 127.388 46.2638 126.991C37.5707 124.466 28.6259 122.897 19.5896 122.312Z" fill="black"/>
</g>
<path d="M76.9423 124.843L72.0138 119.625L61.8709 117.07C61.8709 117.07 52.601 119.848 52.3538 119.833C52.1066 119.818 44.2658 117.694 44.2658 117.694L41.5234 127.744L55.6833 128.706L71.8593 128.06C71.8593 128.06 72.7013 127.29 72.2069 126.744C71.7125 126.197 74.9106 127.652 75.2969 127.667C75.6831 127.682 76.4016 127.975 76.9037 127.367C77.2359 126.959 77.6993 125.643 76.9423 124.843Z" fill="#FFBE9D"/>
<path d="M72.203 126.755C71.6509 126.658 71.11 126.506 70.5885 126.301C69.6074 125.985 68.271 125.57 66.726 125.185C65.181 124.8 63.806 124.508 62.794 124.308C62.2406 124.23 61.6951 124.104 61.1641 123.93C61.7258 123.902 62.2889 123.944 62.8404 124.054C64.1794 124.239 65.5075 124.496 66.8187 124.823C68.1281 125.159 69.4176 125.567 70.6812 126.047C71.2153 126.221 71.7263 126.458 72.203 126.755Z" fill="#EB996E"/>
<path d="M76.9413 124.836C76.1785 124.639 75.4279 124.398 74.6933 124.113C73.3106 123.651 71.387 123.082 69.2395 122.489C67.4557 121.857 65.6132 121.404 63.7394 121.135C62.9656 121.097 62.1901 121.128 61.4219 121.227C61.608 121.121 61.8123 121.051 62.0244 121.019C62.5979 120.898 63.1845 120.849 63.7703 120.873C65.6754 121.073 67.5502 121.497 69.3554 122.135C71.4952 122.736 73.4264 123.343 74.7628 123.874C75.4504 124.136 75.9911 124.367 76.3619 124.536C76.5702 124.604 76.7659 124.706 76.9413 124.836Z" fill="#EB996E"/>
<path d="M17.0144 67.7656C17.0144 67.7656 13.4223 70.1205 11.6069 77.4158C9.79155 84.7112 2.1284 114.485 3.70428 118.972C5.28017 123.458 36.0564 127.768 36.0564 127.768L39.7025 112.461L24.0904 108.206C24.0904 108.206 24.2835 94.0228 24.4844 88.1511C24.6852 82.2794 17.0144 67.7656 17.0144 67.7656Z" fill="#FF725E"/>
<path d="M39.4902 114.75L44.5191 115.981L41.4987 127.54L36.5547 126.747L39.4902 114.75Z" fill="white"/>
<path d="M3.60936 117.359C3.60936 117.359 3.60937 117.621 3.68662 118.083C3.854 118.76 4.22939 119.368 4.76038 119.822C6.0968 121.061 8.62286 122.092 11.8828 122.677C13.3582 123.162 15.0423 123.547 16.8422 123.955C18.6421 124.362 20.5811 124.77 22.6282 125.186C26.7224 126.017 31.2415 126.894 36.0387 127.787L35.8301 127.918C36.1777 126.502 36.5485 125.001 36.9193 123.477C37.7768 119.961 38.6188 116.551 39.4067 113.335L39.5303 113.542L25.6255 109.595C23.717 108.786 21.6475 108.425 19.5768 108.54C18.0014 108.622 16.453 108.982 15.0037 109.602C14.0883 110.004 13.2118 110.488 12.3849 111.049L11.7514 111.511C11.679 111.569 11.6015 111.621 11.5197 111.665L11.7206 111.48C11.8596 111.372 12.0604 111.195 12.3308 110.988C13.1443 110.384 14.0195 109.868 14.9419 109.448C16.4049 108.791 17.9751 108.403 19.5768 108.302C21.6883 108.166 23.8028 108.517 25.7568 109.325L39.6617 113.173L39.8316 113.219L39.7853 113.389C39.0128 116.613 38.1708 120.014 37.3133 123.531C36.9348 125.07 36.5408 126.556 36.2241 127.972L36.1777 128.141H36.0155C31.2183 127.241 26.6915 126.348 22.605 125.501C20.5579 125.07 18.6189 124.647 16.819 124.239C15.0191 123.831 13.3351 123.424 11.8364 122.908C8.56105 122.292 6.0041 121.215 4.65996 119.914C4.12391 119.433 3.75588 118.794 3.60936 118.091C3.56771 117.849 3.56771 117.601 3.60936 117.359Z" fill="#263238"/>
<path d="M24.9305 109.226C24.8841 109.272 24.3665 108.795 23.4318 108.172C22.2085 107.361 20.8701 106.739 19.4612 106.325C18.0477 105.922 16.5821 105.73 15.1121 105.755C13.9842 105.755 13.289 105.909 13.2812 105.847C13.8651 105.631 14.4814 105.514 15.1043 105.501C18.1411 105.285 21.1554 106.158 23.6018 107.964C24.1106 108.31 24.5594 108.736 24.9305 109.226Z" fill="#263238"/>
<path d="M26.9717 84.2656C27.0047 84.5777 27.0047 84.8924 26.9717 85.2045C26.9717 85.8047 26.9099 86.6743 26.8249 87.744C26.655 89.8834 26.3305 92.8307 25.7743 96.0629C25.3235 98.8269 24.6755 101.555 23.8354 104.228C23.6654 104.743 23.4877 105.197 23.3332 105.598L22.8852 106.598C22.7556 106.884 22.595 107.155 22.4062 107.406C22.4987 107.109 22.6177 106.82 22.7616 106.544L23.1478 105.528C23.2792 105.121 23.4337 104.666 23.5882 104.151C24.3573 101.48 24.9686 98.7665 25.419 96.0244C25.9829 92.8077 26.3383 89.868 26.5777 87.744C26.6859 86.7282 26.7708 85.8817 26.8404 85.2199C26.8533 84.8983 26.8973 84.5788 26.9717 84.2656Z" fill="#263238"/>
<path d="M44.8081 76.4264C44.8081 76.4264 44.7309 76.2494 44.5609 75.9493C44.3085 75.513 43.9465 75.1496 43.5103 74.895C43.1358 74.6622 42.7113 74.521 42.2715 74.483C41.8316 74.445 41.389 74.5114 40.9799 74.6765C40.5707 74.8416 40.2066 75.1009 39.9174 75.4332C39.6281 75.7654 39.4219 76.1612 39.3157 76.588L39.223 77.0421L39.0067 76.6188C38.1909 75.01 37.4762 73.3523 36.8669 71.6552C35.8113 68.854 35.2874 65.8818 35.3219 62.89C35.3347 62.3751 35.376 61.8613 35.4455 61.3509C35.5305 60.8968 35.5923 60.5121 35.6695 60.2042C35.7383 59.8761 35.8418 59.5563 35.9785 59.25C35.7325 60.4484 35.5981 61.6669 35.5768 62.89C35.63 65.8523 36.1944 68.7835 37.2454 71.5551C37.8508 73.2394 38.5497 74.8888 39.3389 76.4957H39.0299C39.1503 76.0264 39.3816 75.5926 39.7044 75.2305C40.0272 74.8683 40.4322 74.5882 40.8857 74.4135C41.3391 74.2388 41.828 74.1746 42.3114 74.2263C42.7948 74.2779 43.2589 74.4439 43.6649 74.7103C44.1144 74.9944 44.4734 75.4002 44.7 75.88C44.7573 76.0006 44.8013 76.1271 44.8313 76.2571C44.8081 76.3802 44.8159 76.4264 44.8081 76.4264Z" fill="#263238"/>
<path d="M61.8524 77.9541C61.7769 77.682 61.7253 77.4039 61.6979 77.1229C61.5426 76.3638 61.4906 75.5873 61.5434 74.8143C61.7046 73.6147 62.3075 72.5176 63.2352 71.7361C63.8081 71.2673 64.5255 71.0091 65.2668 71.005C65.672 70.9977 66.0738 71.0794 66.4436 71.2443C66.8134 71.4093 67.1422 71.6534 67.4066 71.9593L67.0977 72.1362C66.8891 71.5976 66.665 71.0435 66.4333 70.474C65.1278 67.188 63.9691 64.2098 63.1425 62.0089L62.1846 59.4386C62.0547 59.1305 61.9538 58.8111 61.8833 58.4844C62.0559 58.7728 62.2007 59.0769 62.3159 59.3925C62.594 60.0543 62.9571 60.9316 63.382 61.9166C64.2703 64.0559 65.4677 67.0187 66.7732 70.3047C67.0049 70.8742 67.2213 71.4359 67.4376 71.9746L67.8624 73.0443L67.1286 72.1439C66.8961 71.8806 66.6096 71.6701 66.2884 71.5268C65.9672 71.3834 65.6188 71.3104 65.2668 71.3128C64.5997 71.3084 63.9511 71.531 63.4283 71.9439C62.553 72.6739 61.9692 73.6923 61.7829 74.8143C61.7078 75.5828 61.7207 76.3573 61.8215 77.1229C61.8679 77.3975 61.8783 77.6769 61.8524 77.9541Z" fill="#263238"/>
<path d="M74.8253 79.6719C74.9258 79.6719 76.5016 90.2455 78.3556 103.328C80.2096 116.41 81.6233 127.022 81.5229 127.038C81.4224 127.053 79.8465 116.464 77.9926 103.382C76.1386 90.2994 74.7249 79.6796 74.8253 79.6719Z" fill="#263238"/>
<g opacity="0.3">
<path d="M37.0938 71.3125C37.1784 74.0221 37.7705 76.6921 38.8396 79.185C39.6121 78.2462 40.4464 77.2534 41.6051 76.9764C43.0497 76.6301 44.5097 77.5228 45.5526 78.6002C45.3688 77.517 44.9381 76.4902 44.2934 75.5989C43.9727 75.1628 43.556 74.8057 43.0753 74.5549C42.5946 74.3041 42.0626 74.1664 41.5201 74.1522C40.9776 74.1705 40.4564 74.3667 40.0373 74.7104C39.6183 75.0541 39.3249 75.5261 39.2027 76.0529L37.2019 71.3587" fill="black"/>
</g>
<path d="M25.2437 78.9727C25.1741 78.9727 25.1973 78.2032 24.9887 77.1027C24.7019 75.6245 24.1243 74.2174 23.2892 72.9625C22.8207 72.2801 22.285 71.646 21.6902 71.0694C21.1937 70.6061 20.6559 70.1888 20.0834 69.8227C19.1023 69.2071 18.4071 68.9685 18.4303 68.907C18.4534 68.8454 18.6157 68.907 18.9324 69.0301C19.1261 69.086 19.3148 69.158 19.4963 69.2456C19.744 69.3491 19.9841 69.47 20.2147 69.6073C20.8246 69.9487 21.3946 70.3565 21.9142 70.8232C22.5465 71.4027 23.1091 72.0535 23.5905 72.7624C24.4585 74.0547 25.0234 75.5249 25.2437 77.0642C25.3075 77.5282 25.3308 77.9968 25.3132 78.4648C25.3187 78.6368 25.2952 78.8085 25.2437 78.9727Z" fill="#263238"/>
<path d="M61.5495 25.5415C60.7144 21.8823 58.5266 18.6705 55.4216 16.5457C52.3167 14.4209 48.5224 13.5388 44.7941 14.0752L44.0216 14.1906C35.8023 15.8605 32.6428 23.7408 34.5431 31.8903L40.3677 60.6331L41.4878 63.619C43.9348 65.9832 47.1086 67.4592 50.4993 67.8095C53.8899 68.1598 57.3003 67.3642 60.1822 65.5506L60.3599 63.8653L58.6218 54.6306C58.6218 54.6306 66.4085 52.2527 65.3579 44.3032C64.8481 40.4247 63.164 32.5983 61.5495 25.5415Z" fill="#FFBE9D"/>
<path d="M58.6814 54.5547C54.9827 55.0904 51.2074 54.5562 47.8047 53.0156C47.8047 53.0156 51.0878 58.4025 58.9286 56.5171L58.6814 54.5547Z" fill="#EB996E"/>
<path d="M60.269 31.5849C60.314 31.8802 60.2414 32.1814 60.0669 32.4243C59.8923 32.6672 59.6295 32.8326 59.3343 32.8854C59.1917 32.9169 59.0441 32.9197 58.9004 32.8936C58.7567 32.8675 58.6196 32.8131 58.4973 32.7335C58.375 32.6539 58.2698 32.5508 58.188 32.4302C58.1063 32.3096 58.0495 32.174 58.021 32.0312C57.9759 31.737 58.0474 31.4367 58.2204 31.194C58.3933 30.9513 58.6543 30.7852 58.948 30.7307C59.0912 30.698 59.2395 30.6944 59.3841 30.7199C59.5288 30.7454 59.6668 30.7996 59.79 30.8793C59.9132 30.959 60.019 31.0625 60.1013 31.1837C60.1836 31.3049 60.2406 31.4413 60.269 31.5849Z" fill="#263238"/>
<path d="M48.2924 33.0849C48.3376 33.3791 48.2661 33.6793 48.0931 33.922C47.9201 34.1647 47.6592 34.3309 47.3654 34.3854C47.2223 34.418 47.074 34.4217 46.9294 34.3962C46.7847 34.3706 46.6467 34.3164 46.5235 34.2368C46.4003 34.1571 46.2944 34.0536 46.2122 33.9324C46.1299 33.8112 46.0728 33.6748 46.0445 33.5312C45.9993 33.2369 46.0708 32.9368 46.2438 32.6941C46.4168 32.4513 46.6777 32.2852 46.9715 32.2307C47.1147 32.198 47.263 32.1944 47.4076 32.2199C47.5522 32.2454 47.6902 32.2996 47.8134 32.3793C47.9366 32.459 48.0425 32.5625 48.1248 32.6837C48.2071 32.8049 48.2641 32.9413 48.2924 33.0849Z" fill="#263238"/>
<path d="M47.9241 31.1241C47.8005 31.2934 46.8194 30.7932 45.5602 30.9856C44.3011 31.178 43.4668 31.9167 43.3046 31.7551C43.1423 31.5935 43.3045 31.4165 43.6985 31.0702C44.1992 30.627 44.8198 30.3406 45.483 30.2468C46.1349 30.1485 46.8013 30.2534 47.391 30.5469C47.8159 30.8009 47.9859 31.0471 47.9241 31.1241Z" fill="#263238"/>
<path d="M59.7096 29.5794C59.5782 29.7487 58.5972 29.2562 57.3303 29.4409C56.0634 29.6256 55.2214 30.3797 55.0669 30.2489C54.9124 30.1181 55.0669 29.9026 55.4609 29.564C55.9636 29.1194 56.5872 28.8329 57.253 28.7406C57.9066 28.6403 58.5754 28.7424 59.1688 29.033C59.5937 29.2639 59.7714 29.5101 59.7096 29.5794Z" fill="#263238"/>
<path d="M53.7184 40.067C54.3351 39.7734 54.9866 39.5588 55.6574 39.4283C55.9587 39.3514 56.2522 39.2436 56.2676 39.0281C56.2522 38.7022 56.1332 38.3896 55.9277 38.1355L54.6609 35.896C52.8918 32.7024 51.5709 30.0628 51.6868 29.9936C51.8026 29.9243 53.3631 32.4485 55.1321 35.6421C55.5647 36.4116 55.9741 37.1812 56.3603 37.8969C56.6112 38.2451 56.7314 38.6699 56.7002 39.0974C56.6725 39.2147 56.6175 39.3238 56.5397 39.416C56.4619 39.5083 56.3634 39.581 56.2522 39.6284C56.086 39.697 55.9123 39.746 55.7346 39.7746C55.0779 39.9578 54.4003 40.056 53.7184 40.067Z" fill="#263238"/>
<path d="M47.2335 26.4165C47.1331 26.7551 45.8894 26.6858 44.4603 26.9552C43.0312 27.2245 41.8802 27.7247 41.6639 27.4169C41.5712 27.2784 41.7566 26.9475 42.2046 26.5935C42.806 26.1519 43.5007 25.8531 44.2357 25.7197C44.9707 25.5864 45.7266 25.622 46.4456 25.8239C46.9864 26.0009 47.2722 26.2549 47.2335 26.4165Z" fill="#263238"/>
<path d="M59.4474 25.2341C59.2157 25.5496 58.1187 25.3957 56.8518 25.5419C55.5849 25.6881 54.5344 26.0267 54.2563 25.7728C54.1327 25.642 54.2562 25.3418 54.6966 25.0032C55.3068 24.5941 56.011 24.3453 56.7437 24.2798C57.4685 24.193 58.2035 24.2965 58.8758 24.58C59.3624 24.8416 59.5478 25.111 59.4474 25.2341Z" fill="#263238"/>
<path d="M63.0521 18.2291C62.9366 17.8747 62.696 17.5742 62.375 17.3831C62.0539 17.1921 61.6742 17.1235 61.3063 17.1902C61.691 17.0278 62.042 16.7956 62.3414 16.5053C62.4884 16.3561 62.5897 16.1683 62.6335 15.9639C62.6773 15.7595 62.6617 15.5469 62.5886 15.351C62.3105 14.7584 61.5071 14.7276 60.8582 14.6199C60.0076 14.4843 59.2212 14.0859 58.6103 13.4809C57.7374 12.619 57.297 11.4031 56.5168 10.4566C56.0121 9.83776 55.3741 9.33991 54.6502 8.9999C53.9262 8.65989 53.1347 8.48642 52.3344 8.49233C51.534 8.49825 50.7452 8.68339 50.0263 9.03406C49.3075 9.38473 48.677 9.89194 48.1816 10.5182C47.4936 9.96359 46.6829 9.5803 45.8166 9.40007C44.9503 9.21985 44.0533 9.24787 43.2001 9.48181C42.3468 9.71575 41.5618 10.1489 40.9101 10.7453C40.2583 11.3418 39.7586 12.0843 39.4524 12.9115C38.3321 12.5898 37.1455 12.5743 36.0171 12.8668C34.8888 13.1592 33.8602 13.7488 33.0393 14.5736C32.2184 15.3985 31.6355 16.4282 31.3517 17.5547C31.0679 18.6813 31.0936 19.8632 31.4262 20.9764L36.7641 23.4236C36.7607 23.0425 36.8384 22.665 36.9922 22.3161C37.146 21.9671 37.3724 21.6547 37.6565 21.3994C37.9405 21.1441 38.2757 20.9517 38.6399 20.835C39.0041 20.7183 39.389 20.6799 39.7691 20.7224C41.3141 20.9764 42.4806 22.5924 44.0565 22.5309C45.2847 22.477 46.204 21.4227 47.3396 20.9918C48.7223 20.4454 50.2982 20.8379 51.6655 21.4073C52.9848 22.1009 54.3899 22.6183 55.8447 22.9464C57.5953 23.0837 59.3447 22.6662 60.8428 21.7536C61.5116 21.4192 62.1034 20.9502 62.5809 20.3761C62.8324 20.0855 63.0071 19.7369 63.0894 19.362C63.1717 18.9872 63.1589 18.5978 63.0521 18.2291Z" fill="#263238"/>
<path d="M37.3759 20.9878L60.1413 18.1789C59.1528 16.7589 57.8255 15.6059 56.2788 14.8236C52.9952 12.9776 49.21 12.2127 45.4639 12.6381C41.7482 13.1075 34.873 18.6945 32.5632 21.6265C30.717 23.9736 31.0182 25.7359 31.0182 25.7359C31.1032 28.7141 33.243 31.8077 34.3168 34.5934C34.873 36.0248 36.1862 40.419 36.1862 40.419C37.4299 40.2343 37.7312 39.18 37.3836 37.9718L36.4412 33.1775C37.5497 32.0102 38.2459 30.5146 38.4244 28.9176C38.6028 27.3206 38.2537 25.7092 37.4299 24.3276C36.9819 23.9351 36.0008 22.0267 37.3759 20.9878Z" fill="#263238"/>
<path d="M35.9932 32.9239C34.3555 29.0761 32.7796 24.8589 33.5443 20.7188L32.8645 20.7726L32.6019 21.0112C31.9346 20.8716 31.24 20.9477 30.6191 21.2282C29.9981 21.5088 29.4831 21.9793 29.1489 22.5714C28.8147 23.1634 28.6787 23.8462 28.7607 24.5205C28.8426 25.1949 29.1383 25.8256 29.6046 26.3211C28.9257 26.3929 28.2969 26.711 27.8382 27.2148C27.3795 27.7186 27.1229 28.3729 27.1172 29.053C27.2233 29.9874 27.5869 30.8744 28.1678 31.6156C28.7444 32.3586 29.1457 33.2213 29.342 34.1398C29.4241 34.6004 29.3415 35.0752 29.1086 35.4815C28.8758 35.8878 28.5073 36.2 28.0674 36.3638C28.3473 36.8057 28.7694 37.1399 29.2647 37.3119C29.7601 37.4838 30.2993 37.4832 30.7943 37.3103C30.5658 38.1375 30.1048 38.8824 29.4656 39.4574C31.0646 40.2885 33.0654 39.7113 34.5872 38.734C35.5372 38.2179 36.2632 37.3714 36.6266 36.3561C36.9279 35.1787 36.4489 33.9858 35.9932 32.9239Z" fill="#263238"/>
<path d="M36.1743 37.6232C36.0352 37.6232 30.4733 36.7997 31.4312 42.1943C32.389 47.5889 37.6111 45.5265 37.6111 45.3649C37.6111 45.2033 36.1743 37.6232 36.1743 37.6232Z" fill="#FFBE9D"/>
<path d="M36.0497 43.5462C36.0497 43.5462 35.9647 43.6309 35.8179 43.7309C35.6107 43.8667 35.3584 43.9164 35.115 43.8694C34.7267 43.7106 34.3882 43.4514 34.1342 43.1186C33.8802 42.7858 33.7201 42.3914 33.6704 41.9763C33.5616 41.5183 33.5616 41.0414 33.6704 40.5834C33.6902 40.4059 33.7533 40.2359 33.8543 40.0883C33.9553 39.9408 34.0911 39.8201 34.2498 39.7369C34.3524 39.6885 34.4689 39.6774 34.5789 39.7055C34.689 39.7336 34.7857 39.7991 34.8523 39.8908C34.9527 40.0293 34.9373 40.1448 34.9682 40.1525C34.9991 40.1602 35.0686 40.037 34.9682 39.8216C34.915 39.6938 34.8196 39.5879 34.6978 39.5214C34.5269 39.4395 34.3316 39.4231 34.1493 39.4753C33.9352 39.5603 33.7464 39.6981 33.6004 39.8758C33.4545 40.0535 33.3563 40.2652 33.315 40.4911C33.1693 40.9915 33.1481 41.5198 33.2532 42.0302C33.4773 43.1076 34.2189 44.031 35.0454 44.1157C35.1975 44.1314 35.3512 44.1133 35.4955 44.0627C35.6398 44.0121 35.771 43.9304 35.8797 43.8232C36.0497 43.7078 36.0883 43.5539 36.0497 43.5462Z" fill="#EB996E"/>
<path d="M29.9746 33.7834C29.9746 33.7834 29.7969 33.5987 29.7969 33.1677C29.8175 32.8642 29.905 32.5689 30.0532 32.3028C30.2014 32.0368 30.4067 31.8066 30.6543 31.6286C31.3919 31.1664 32.218 30.8624 33.08 30.7359C33.5602 30.678 34.0201 30.5086 34.4227 30.2412C34.8252 29.9739 35.1591 29.6162 35.3975 29.1968C35.7468 28.266 35.7793 27.2467 35.4902 26.2956C35.2507 25.3952 34.9108 24.5949 34.7177 23.8946C34.4206 23.163 34.3376 22.3626 34.4782 21.5859C34.5718 22.3523 34.7506 23.106 35.0112 23.833C35.243 24.5102 35.6138 25.2798 35.8841 26.2263C36.222 27.2642 36.192 28.3861 35.7992 29.4046C35.5584 29.9366 35.1485 30.3747 34.6327 30.6513C34.1703 30.8895 33.676 31.0605 33.165 31.1592C32.3509 31.2688 31.5648 31.5299 30.8475 31.9287C30.622 32.0754 30.4289 32.2664 30.2801 32.49C30.1314 32.7137 30.03 32.9652 29.9823 33.2293C29.969 33.4137 29.9664 33.5987 29.9746 33.7834Z" fill="#455A64"/>
<path d="M28.3769 31.5589C28.3769 31.5589 28.2379 31.4204 28.1529 31.0894C28.0354 30.613 28.0732 30.1116 28.2611 29.6581C28.3835 29.3372 28.5731 29.046 28.8173 28.8039C29.1006 28.5347 29.4375 28.3276 29.806 28.1959C30.1645 28.0766 30.4973 27.8912 30.7871 27.6495C30.913 27.5106 31.005 27.3445 31.0559 27.1643C31.1069 26.9841 31.1153 26.7946 31.0807 26.6107C31.0807 26.1951 30.9339 25.7641 30.8953 25.3255C30.7758 24.2017 30.9626 23.0665 31.436 22.0395C31.5343 21.8087 31.6878 21.6053 31.883 21.4471C32.0782 21.2888 32.3093 21.1804 32.5561 21.1314C32.9192 21.0929 33.0891 21.2392 33.0737 21.2546C33.0582 21.2699 32.8883 21.2161 32.587 21.2546C32.3839 21.3246 32.1996 21.4401 32.0482 21.5922C31.8969 21.7443 31.7826 21.9289 31.7141 22.1318C31.4655 22.7507 31.3194 23.4056 31.2815 24.0711C31.2472 24.4603 31.2472 24.8517 31.2815 25.2408C31.2815 25.641 31.436 26.0643 31.4824 26.5337C31.5176 26.7803 31.4978 27.0316 31.4244 27.2697C31.3509 27.5078 31.2257 27.7269 31.0575 27.9112C30.7239 28.188 30.3377 28.3948 29.9219 28.5191C29.6145 28.613 29.3301 28.7696 29.0867 28.9789C28.8433 29.1883 28.6463 29.4458 28.5082 29.735C28.2824 30.3162 28.2367 30.9515 28.3769 31.5589Z" fill="#455A64"/>
<path d="M58.6142 13.4868C58.4498 13.6004 58.2583 13.6688 58.0588 13.6851C57.8594 13.7013 57.6593 13.6647 57.4786 13.5791C57.0496 13.4056 56.6625 13.1433 56.343 12.8095C55.9445 12.399 55.4696 12.0697 54.9448 11.8399C54.2629 11.5623 53.5149 11.4873 52.7912 11.6239C52.0674 11.7604 51.3988 12.1027 50.866 12.6095C50.248 13.1789 49.7305 13.9254 49.0121 14.5872C48.6432 14.934 48.203 15.1966 47.722 15.3568C47.2163 15.495 46.6827 15.495 46.177 15.3568C45.1496 15.1259 44.2998 14.5872 43.4192 14.4102C42.5647 14.1898 41.6757 14.1349 40.8004 14.2486C39.3044 14.4267 37.9102 15.0954 36.8375 16.1494C36.1126 16.8643 35.5398 17.7176 35.1535 18.6582C34.8909 19.3277 34.8136 19.7278 34.775 19.7201C34.7364 19.7124 34.775 19.6124 34.775 19.42C34.8206 19.1408 34.8878 18.8655 34.9758 18.5966C35.3123 17.6027 35.8664 16.6958 36.5981 15.9416C37.6964 14.8013 39.1508 14.066 40.7232 13.8561C41.6484 13.7257 42.5902 13.7754 43.4964 14.0024C44.4543 14.2255 45.3118 14.7719 46.2465 14.9412C46.686 15.0645 47.1512 15.0645 47.5907 14.9412C48.018 14.7963 48.4082 14.5599 48.734 14.2486C49.406 13.6407 49.9313 12.8865 50.5957 12.2862C51.2315 11.6903 52.0452 11.3175 52.9132 11.2243C53.6552 11.1368 54.4073 11.2484 55.0916 11.5475C55.6386 11.8066 56.1294 12.17 56.5361 12.6172C56.8234 12.9397 57.1728 13.2014 57.5636 13.3867C57.8926 13.5364 58.2626 13.5716 58.6142 13.4868Z" fill="#455A64"/>
<path d="M50.8567 41.8618C51.0267 41.8002 51.3666 42.9391 52.5794 43.4624C53.7922 43.9857 54.9741 43.5086 55.0282 43.6625C55.0823 43.8164 54.8274 43.9627 54.3098 44.1243C53.6444 44.33 52.9275 44.2945 52.2858 44.0242C51.6686 43.7621 51.1782 43.2708 50.9185 42.6544C50.7331 42.1619 50.7795 41.8772 50.8567 41.8618Z" fill="#263238"/>
<path d="M122.085 160.096C119.943 158.276 117.17 157.364 114.36 157.556L109.633 172.524C113.101 172.678 116.585 174.456 119.899 173.54C121.233 173.131 122.421 172.349 123.324 171.288C124.226 170.227 124.804 168.931 124.99 167.553C125.144 166.169 124.96 164.768 124.454 163.47C123.948 162.172 123.136 161.015 122.085 160.096Z" fill="#FF725E"/>
<path d="M114.449 157.208C114.449 157.085 114.958 156.993 115.878 157C117.197 157.023 118.503 157.268 119.74 157.724C121.632 158.459 123.27 159.726 124.452 161.372C125.169 162.347 125.693 163.449 125.997 164.619C126.342 165.9 126.382 167.244 126.113 168.544C125.856 169.86 125.266 171.089 124.398 172.114C123.574 173.06 122.525 173.785 121.347 174.223C119.441 174.9 117.383 175.03 115.406 174.6C114.132 174.354 112.889 173.969 111.698 173.453C110.864 173.099 110.432 172.838 110.462 172.684C110.493 172.53 111.011 172.599 111.899 172.745C112.788 172.892 114.047 173.161 115.584 173.3C117.325 173.507 119.09 173.279 120.721 172.638C121.62 172.269 122.415 171.688 123.039 170.945C123.691 170.129 124.137 169.168 124.336 168.144C124.527 167.133 124.512 166.095 124.293 165.091C124.074 164.086 123.656 163.136 123.062 162.295C122.092 160.841 120.762 159.661 119.199 158.87C118.096 158.352 116.941 157.95 115.754 157.67C114.928 157.478 114.433 157.331 114.449 157.208Z" fill="#F5F5F5"/>
<path d="M70.6413 213.344L60.3594 242.04L96.1413 254.969C97.1687 251.49 81.1472 237.962 81.1472 237.962L88.4936 219.846L70.6413 213.344Z" fill="#FF725E"/>
<g opacity="0.6">
<path d="M70.6437 232.421C70.2605 232.399 69.8829 232.52 69.5844 232.76C69.286 233.001 69.0881 233.343 69.0292 233.721C68.9957 234.1 69.1092 234.477 69.3463 234.775C69.5834 235.072 69.9261 235.268 70.3038 235.322C70.7082 235.344 71.1064 235.215 71.4205 234.96C71.7347 234.705 71.9425 234.343 72.0033 233.944C72.0033 233.175 71.2308 232.313 70.4583 232.405" fill="white"/>
</g>
<path d="M60.3594 242.034L61.4022 239.141L95.392 252.646C95.392 252.646 96.7361 253.908 96.1645 254.955L60.3594 242.034Z" fill="white"/>
<path d="M81.7928 237.984C81.7233 238.154 80.8194 237.923 79.7611 238.169C78.7028 238.415 77.969 238.985 77.8376 238.854C77.7063 238.723 78.3243 237.823 79.6144 237.538C80.9044 237.253 81.8855 237.838 81.7928 237.984Z" fill="#263238"/>
<path d="M84.9887 240.887C84.9887 241.072 84.1004 241.095 83.2429 241.618C82.3854 242.142 81.9219 242.857 81.752 242.788C81.582 242.719 81.8292 241.688 82.9107 241.064C83.9922 240.441 85.0428 240.703 84.9887 240.887Z" fill="#263238"/>
<path d="M85.4898 246.144C85.3199 246.144 85.3894 245.167 86.1851 244.374C86.9807 243.582 87.9386 243.497 87.9541 243.666C87.9695 243.836 87.2897 244.167 86.6408 244.828C85.9919 245.49 85.6598 246.191 85.4898 246.144Z" fill="#263238"/>
<path d="M83.0125 233.676C82.8812 233.814 82.1705 233.283 81.1585 232.991C80.1466 232.698 79.2582 232.737 79.2273 232.552C79.1964 232.367 80.1543 232.013 81.3439 232.375C82.5336 232.737 83.1825 233.576 83.0125 233.676Z" fill="#263238"/>
<path d="M83.696 229.165C83.0534 229.109 82.4373 228.884 81.9115 228.511C81.3056 228.163 80.7452 227.742 80.243 227.257C79.9437 226.971 79.6649 226.665 79.4087 226.341C79.2489 226.157 79.1186 225.949 79.0224 225.725C78.9544 225.56 78.9424 225.378 78.9885 225.205C79.0345 225.033 79.136 224.881 79.2774 224.771C79.4095 224.682 79.5605 224.624 79.7186 224.603C79.8768 224.582 80.0377 224.597 80.1889 224.648C80.4181 224.729 80.6341 224.843 80.8301 224.987C81.1779 225.212 81.5038 225.47 81.8034 225.756C82.3119 226.243 82.7372 226.81 83.0626 227.434C83.6188 228.496 83.6651 229.25 83.5879 229.258C83.5106 229.265 83.2866 228.596 82.6686 227.665C82.3115 227.12 81.8857 226.624 81.4017 226.187C81.1143 225.934 80.8069 225.705 80.4825 225.502C80.1426 225.264 79.8181 225.14 79.6636 225.279C79.5091 225.418 79.5863 225.348 79.625 225.494C79.6991 225.656 79.7953 225.806 79.9108 225.941C80.1524 226.249 80.4102 226.545 80.6833 226.826C81.1392 227.299 81.6384 227.729 82.1742 228.111C83.078 228.757 83.7347 229.05 83.696 229.165Z" fill="#263238"/>
<path d="M83.3812 229.311C83.2294 228.678 83.2835 228.012 83.5357 227.411C83.8723 226.338 84.4974 225.377 85.3433 224.633C85.5228 224.429 85.753 224.276 86.0108 224.19C86.2685 224.103 86.5446 224.086 86.8111 224.14C86.9699 224.201 87.108 224.306 87.2092 224.442C87.3104 224.578 87.3706 224.741 87.3827 224.91C87.3979 225.152 87.3797 225.395 87.3286 225.633C87.2429 226.053 87.0945 226.458 86.8883 226.834C86.5432 227.456 86.0498 227.985 85.4515 228.373C84.4163 229.042 83.6129 228.988 83.6207 228.919C84.1535 228.645 84.6695 228.339 85.1657 228.003C85.6604 227.603 86.0634 227.102 86.3476 226.533C86.5106 226.203 86.6251 225.85 86.6875 225.487C86.7724 225.087 86.7415 224.717 86.5793 224.717C86.4171 224.717 86 224.825 85.745 225.079C85.4628 225.31 85.2041 225.567 84.9725 225.848C84.5597 226.35 84.2239 226.911 83.976 227.511C83.5357 228.596 83.4816 229.319 83.3812 229.311Z" fill="#263238"/>
<path d="M35.9822 136.685C30.5747 136.808 25.4067 137.57 21.6679 141.494C16.7084 146.696 10.5826 154.1 10.2272 159.24C9.70965 166.936 14.3601 169.206 17.759 171.076C19.2671 171.896 20.9713 172.289 22.6876 172.215L85.4141 171.738L87.384 161.156L46.8126 151.191L48.4966 135.977L35.9822 136.685Z" fill="#263238"/>
<path d="M48.4887 135.971L68.226 135.07C68.226 135.07 102.316 136.956 109.585 143.597C116.854 150.238 115.951 157.78 113.525 165.029C111.099 172.278 89.7399 218.598 89.7399 218.598C89.7399 218.598 91.4703 221.545 90.5124 224.485C90.121 225.77 89.4024 226.932 88.4264 227.859C87.4504 228.785 86.2502 229.444 84.9427 229.771L65.9703 222.846C65.9703 222.846 63.3979 221.945 65.1978 219.529C66.9977 217.112 68.2337 216.658 68.2337 216.658V211.833C68.2337 211.833 74.8926 199.759 75.5029 198.097C76.1131 196.434 82.4939 171.87 82.4939 171.87L86.7426 164.598C86.7426 164.598 76.4762 159.796 67.5848 156.31L46.8047 151.208L48.4887 135.971Z" fill="#263238"/>
<path d="M80.5065 221.957C80.4679 222.003 79.8654 221.526 78.8379 220.864C77.4997 220.005 76.0759 219.285 74.5892 218.717C73.0894 218.159 71.5364 217.754 69.9542 217.509C69.2932 217.447 68.6357 217.352 67.9844 217.224C68.6482 217.134 69.3213 217.134 69.9852 217.224C71.5948 217.399 73.1756 217.776 74.6896 218.348C76.2052 218.931 77.6385 219.707 78.9538 220.656C79.528 221.018 80.0504 221.456 80.5065 221.957Z" fill="#455A64"/>
<path d="M89.9895 218.633C89.5757 218.294 89.2048 217.907 88.8848 217.479C88.2514 216.709 87.3939 215.67 86.5055 214.462C85.6171 213.254 84.8447 212.153 84.3194 211.299C84.009 210.866 83.7498 210.399 83.5469 209.906C83.9264 210.282 84.2608 210.7 84.5434 211.153L86.8068 214.231L89.1243 217.309C89.4561 217.721 89.7459 218.164 89.9895 218.633Z" fill="#455A64"/>
<path d="M96.9412 157.953C96.3522 158.178 95.7513 158.37 95.1413 158.53C93.7119 159.006 92.3431 159.647 91.0626 160.439C89.7837 161.237 88.6039 162.182 87.5477 163.255C86.7752 164.079 86.2885 164.648 86.2422 164.61C86.5328 164.044 86.9079 163.525 87.3546 163.071C88.3789 161.926 89.5625 160.933 90.8694 160.123C92.1727 159.307 93.5884 158.685 95.0718 158.276C95.6759 158.079 96.3057 157.97 96.9412 157.953Z" fill="#455A64"/>
<path d="M77.5312 190.761C77.5389 190.62 77.5649 190.48 77.6085 190.346C77.6858 190.046 77.7785 189.668 77.9021 189.199C78.1802 188.152 78.5664 186.729 79.0376 184.982C80.0419 181.388 81.4092 176.517 82.9001 171.13C83.6726 168.421 84.3601 165.843 85.1172 163.504C85.9204 161.466 87.1382 159.616 88.6938 158.071C89.7168 157.022 90.8543 156.09 92.085 155.293C92.5176 155.015 92.8575 154.8 93.1047 154.677C93.223 154.605 93.347 154.543 93.4755 154.492C93.4755 154.492 93.0043 154.815 92.1623 155.408C90.9767 156.247 89.8771 157.201 88.8792 158.255C87.3764 159.8 86.2043 161.633 85.4339 163.642C84.7077 165.951 84.0279 168.56 83.2477 171.253C81.7027 176.64 80.2968 181.511 79.2616 185.105L78.0102 189.291C77.8711 189.753 77.7476 190.122 77.6549 190.423C77.6257 190.54 77.5843 190.653 77.5312 190.761Z" fill="#455A64"/>
<path d="M60.0754 155.367C59.975 155.367 59.5655 151.704 59.1561 147.164C58.7467 142.623 58.4918 138.93 58.5922 138.922C58.6926 138.914 59.1021 142.585 59.5115 147.133C59.9209 151.681 60.1758 155.36 60.0754 155.367Z" fill="#455A64"/>
<path d="M27.2331 165.189C27.179 165.189 26.87 164.62 26.252 163.75C25.4487 162.616 24.4832 161.605 23.386 160.749C22.2861 159.897 21.0684 159.207 19.7708 158.702C18.7742 158.317 18.1176 158.163 18.1331 158.109C18.7231 158.131 19.3053 158.251 19.8557 158.463C21.2155 158.905 22.4864 159.583 23.6101 160.464C24.7364 161.34 25.7032 162.402 26.4683 163.604C26.8046 164.089 27.0627 164.624 27.2331 165.189Z" fill="#455A64"/>
<path d="M39.3233 151.847C39.3233 151.901 38.4503 151.37 37.0058 150.708C35.1164 149.865 33.1204 149.283 31.073 148.977C29.0231 148.691 26.943 148.691 24.8931 148.977C23.3481 149.2 22.367 149.477 22.3516 149.415C22.5564 149.306 22.7745 149.223 23.0005 149.169C23.6078 148.979 24.2272 148.83 24.8544 148.723C29.0318 147.99 33.3349 148.604 37.1371 150.477C37.7078 150.758 38.2599 151.074 38.7902 151.424C38.9864 151.54 39.1657 151.683 39.3233 151.847Z" fill="#455A64"/>
<path d="M86.5658 161.147C86.4013 161.138 86.2382 161.113 86.0792 161.07L84.6887 160.77L79.5747 159.623C75.2565 158.661 69.2774 157.368 62.6571 156.06C56.0369 154.752 50.0191 153.682 45.6623 152.936L40.502 152.051L39.0961 151.797C38.9301 151.78 38.7667 151.744 38.6094 151.689C38.7777 151.683 38.9461 151.696 39.1115 151.727L40.5252 151.912C41.7457 152.074 43.5224 152.335 45.7086 152.682C50.0809 153.367 56.1064 154.398 62.7421 155.706C69.3778 157.014 75.3338 158.346 79.6366 159.369C81.7918 159.885 83.499 160.316 84.7273 160.631L86.1023 160.993C86.2608 161.032 86.4158 161.083 86.5658 161.147Z" fill="#455A64"/>
<path d="M46.8139 152.979C46.7443 152.979 46.5976 152.156 45.9487 150.986C45.5529 150.308 45.0699 149.684 44.5118 149.131C43.8206 148.458 43.0879 147.828 42.318 147.246C40.8968 146.198 39.3933 145.267 37.822 144.46C37.1561 144.149 36.5156 143.786 35.9062 143.375C36.6082 143.601 37.2882 143.889 37.9379 144.237C39.5604 144.981 41.1008 145.892 42.5343 146.953C43.3201 147.548 44.0611 148.198 44.7513 148.9C45.3188 149.482 45.7976 150.143 46.1727 150.863C46.4217 151.351 46.6111 151.868 46.7366 152.402C46.799 152.588 46.8252 152.783 46.8139 152.979Z" fill="#455A64"/>
<path d="M116.677 162.438C116.037 163.32 115.441 164.235 114.893 165.177C114.058 166.778 113.803 168.255 113.695 168.255C113.692 167.127 113.994 166.019 114.568 165.046C115.027 164.006 115.755 163.106 116.677 162.438Z" fill="#263238"/>
<g opacity="0.3">
<path d="M75.4609 84.0078L79.9491 115.521L80.1732 116.021C81.2245 105.127 79.6076 94.1422 75.4609 84.0078Z" fill="black"/>
</g>
<path d="M99.5899 102.129L84.9897 127.593L49.0147 128.363L48.9297 129.986L83.7615 129.733L84.8661 129.694L121.652 129.763L129.084 116.996L138.578 103.437C138.72 103.237 138.804 103.001 138.821 102.756C138.837 102.511 138.785 102.267 138.671 102.05C138.557 101.832 138.384 101.65 138.173 101.525C137.962 101.399 137.719 101.333 137.473 101.336L100.756 101.475C100.521 101.473 100.29 101.532 100.086 101.647C99.8809 101.761 99.71 101.928 99.5899 102.129Z" fill="#E0E0E0"/>
<path d="M129.089 116.969C129.089 116.969 130.982 118.693 130.681 120.155C130.379 121.617 130.48 122.717 129.089 122.817C129.11 123.352 128.926 123.874 128.575 124.278C128.223 124.683 127.731 124.939 127.197 124.995C127.197 124.995 127.622 127.304 124.941 127.689C124.941 127.689 124.114 130.151 122.423 129.551C121.451 129.219 120.517 128.788 119.634 128.266L119.14 127.373C119.14 127.373 116.644 126.442 117.262 125.064C117.633 124.21 118.923 123.987 118.923 123.987C118.776 123.637 118.714 123.257 118.742 122.879C118.771 122.5 118.888 122.134 119.086 121.809C119.68 121.04 121.627 121.671 121.627 121.671C121.584 120.984 121.805 120.308 122.245 119.778C122.902 119.008 125.999 121.117 125.999 121.117L127.691 119.108L129.089 116.969Z" fill="#FFBE9D"/>
<path d="M124.94 127.701C122.811 126.668 120.794 125.42 118.922 123.977C121.051 125.009 123.067 126.257 124.94 127.701Z" fill="#EB996E"/>
<path d="M127.21 124.996C125.232 124.095 123.363 122.972 121.641 121.648C122.655 122.054 123.621 122.57 124.522 123.188C125.483 123.688 126.385 124.295 127.21 124.996Z" fill="#EB996E"/>
<path d="M124.117 119.953C125.028 120.28 125.887 120.736 126.666 121.308C127.5 121.784 128.303 122.314 129.069 122.893C129.023 123.016 127.817 122.47 126.473 121.615C125.632 121.144 124.843 120.587 124.117 119.953Z" fill="#EB996E"/>
<path d="M138.589 102.269C138.53 102.28 138.47 102.28 138.411 102.269H137.894H135.908L128.601 102.33L104.506 102.384H102.753C102.493 102.36 102.231 102.406 101.994 102.517C101.758 102.628 101.556 102.8 101.409 103.015L99.7788 106.032C98.6973 107.963 97.6622 109.826 96.6888 111.603L91.4204 121.038L87.8129 127.364L86.8395 129.118L86.5692 129.557C86.5074 129.657 86.4765 129.711 86.4688 129.703L86.5383 129.542L86.77 129.08C87.0018 128.657 87.3107 128.072 87.7047 127.333C88.539 125.794 89.7209 123.616 91.1809 120.938L96.3798 111.419C97.3686 109.641 98.3961 107.771 99.4698 105.832L101.115 102.869C101.299 102.61 101.547 102.402 101.836 102.267C102.124 102.132 102.443 102.075 102.761 102.099H104.514L128.608 102.153L135.916 102.215H137.901H138.419C138.479 102.222 138.536 102.24 138.589 102.269Z" fill="#263238"/>
<path d="M112.703 115.062C112.537 115.306 112.445 115.593 112.438 115.888C112.431 116.183 112.509 116.474 112.663 116.726C112.818 116.978 113.041 117.18 113.308 117.309C113.574 117.438 113.872 117.488 114.167 117.453C114.461 117.418 114.739 117.299 114.967 117.111C115.195 116.923 115.364 116.673 115.454 116.392C115.544 116.111 115.551 115.81 115.474 115.525C115.398 115.24 115.24 114.983 115.021 114.785C114.675 114.518 114.239 114.397 113.805 114.449C113.371 114.501 112.975 114.721 112.703 115.062Z" fill="white"/>
<path d="M100.716 194.526C100.716 194.526 100.716 194.472 100.77 194.364L100.948 193.902L101.682 192.132C102.354 190.593 103.304 188.331 104.478 185.568C106.896 179.973 110.248 172.209 114.065 163.39C114.617 161.157 114.92 158.87 114.968 156.571C115.077 153.853 114.548 151.147 113.423 148.668C112.842 147.516 112.104 146.449 111.23 145.497C110.453 144.535 109.558 143.674 108.564 142.935C107.572 142.302 106.509 141.785 105.397 141.396C104.323 140.965 103.273 140.58 102.238 140.249C100.175 139.572 98.213 139.049 96.4131 138.625C92.8133 137.779 89.8469 137.325 87.7998 137.032L85.4359 136.725L84.818 136.64C84.7466 136.634 84.6764 136.619 84.6094 136.594H84.8257L85.4437 136.64C85.9844 136.686 86.7878 136.755 87.8152 136.878C90.7147 137.222 93.5947 137.713 96.444 138.348C98.2516 138.756 100.222 139.264 102.3 139.934C103.342 140.265 104.408 140.642 105.49 141.065C106.63 141.466 107.722 141.996 108.742 142.642C109.764 143.397 110.686 144.279 111.484 145.267C112.379 146.241 113.137 147.331 113.74 148.506C114.907 151.037 115.462 153.804 115.362 156.587C115.316 158.922 115.007 161.245 114.443 163.513L104.733 185.637C103.505 188.385 102.524 190.601 101.828 192.155L101.056 193.902L100.839 194.349C100.747 194.526 100.724 194.526 100.716 194.526Z" fill="#455A64"/>
</svg>
