<svg width="88" height="70" viewBox="0 0 88 70" fill="none" xmlns="http://www.w3.org/2000/svg">
<path d="M60.4914 18L52.6238 9.9544C50.1538 7.41363 46.793 5.9898 43.2903 6.00006H24.851C23.713 6.00152 22.5908 6.27325 21.5717 6.7918L18.2846 8.47344C17.6258 8.81255 16.8939 8.97442 16.157 8.94439L14.6667 8.89092V6.00006H0V39H14.6667V34.5H17.1603L18.0476 35.0999C20.5305 36.7859 23.4216 37.7381 26.4 37.8494V57H88V18H60.4914ZM11.7333 36H2.93333V9.00005H11.7333V36ZM19.6711 32.6038L18.0397 31.5H14.6667V11.8924L16.0495 11.9429C17.2777 11.9876 18.4966 11.7173 19.5959 11.157L22.8801 9.47539C23.4917 9.16265 24.1671 9.00005 24.851 9.00005H43.2903C46.0145 8.992 48.6292 10.0994 50.5499 12.0748L56.3435 18H44.2406L40.6807 14.3599L38.6074 16.4803L48.9679 27.0769C50.1188 28.2488 50.1223 30.1531 48.9765 31.3308C47.8299 32.5078 45.968 32.5115 44.8171 31.3396L36.1639 22.4898L35.137 23.3899C32.3018 25.8523 28.1574 25.9153 25.2513 23.5393L24.4012 22.8348L22.5529 25.1653L23.4122 25.878C24.311 26.6126 25.3201 27.1941 26.4 27.5999V34.8479C23.9995 34.7388 21.6727 33.9632 19.6711 32.6038ZM40.5346 31.1997L42.7475 33.4636C45.0449 35.7781 48.733 35.7818 51.034 33.471C48.8813 36.8804 49.7306 41.4177 52.9626 43.7725C56.1945 46.1272 60.6654 45.4658 63.1125 42.2717C65.5596 39.0769 65.1177 34.4788 62.1085 31.8333C59.0999 29.1878 54.5882 29.4302 51.8676 32.3833C52.8695 30.7742 53.0485 28.7688 52.3481 27H71.9884C72.6193 30.7742 75.5097 33.7302 79.2 34.3755V40.6245C75.5097 41.2698 72.6193 44.2258 71.9884 48H42.4116C41.7807 44.2258 38.8903 41.2698 35.2 40.6245V34.3755C37.2962 34.0144 39.1918 32.8858 40.5346 31.1997ZM52.8 37.5C52.8 35.0149 54.7701 33 57.2 33C59.6299 33 61.6 35.0149 61.6 37.5C61.6 39.9851 59.6299 42 57.2 42C54.7701 42 52.8 39.9851 52.8 37.5ZM85.0667 54H29.3333V28.2283C31.6587 28.407 33.9768 27.8006 35.9333 26.5035L38.4355 29.0625C37.3348 30.5918 35.5903 31.4964 33.7333 31.5H32.2667V43.5H33.7333C36.9732 43.5 39.6 46.1865 39.6 49.5V51H74.8V49.5C74.8 46.1865 77.4268 43.5 80.6667 43.5H82.1333V31.5H80.6667C77.4268 31.5 74.8 28.8135 74.8 25.5V24H50.1073L47.174 21H85.0667V54Z" fill="url(#paint0_linear_1405_11784)"/>
<defs>
<linearGradient id="paint0_linear_1405_11784" x1="46.5491" y1="101.501" x2="43.1053" y2="7.21763" gradientUnits="userSpaceOnUse">
<stop stop-color="#006DF0"/>
<stop offset="1" stop-color="#00E7F0"/>
</linearGradient>
</defs>
</svg>
