<svg width="71" height="70" viewBox="0 0 71 70" fill="none" xmlns="http://www.w3.org/2000/svg">
<path d="M47.2578 26.3018V24.6676C47.2578 21.9968 45.0917 19.8242 42.4299 19.8242H28.2966C25.6349 19.8242 23.4688 21.9968 23.4688 24.6676V26.3018C23.4688 29.794 26.8643 32.6688 29.3439 34.7682C29.4342 34.8446 29.5228 34.9199 29.6093 34.9931C29.518 35.071 29.424 35.1506 29.3279 35.2318C26.8488 37.3312 23.4533 40.206 23.4533 43.6982V45.3324C23.4533 45.4836 23.465 45.631 23.4885 45.7746C23.7123 48.2388 25.7834 50.1758 28.2966 50.1758H42.4299C45.0917 50.1758 47.2578 48.0032 47.2578 45.3324V43.6982C47.2578 40.2055 43.8617 37.3306 41.3826 35.2318C41.2892 35.1527 41.1979 35.0753 41.1092 35C41.1979 34.9242 41.2892 34.8473 41.3826 34.7682C43.8617 32.6694 47.2578 29.7945 47.2578 26.3018ZM41.7891 43.6982V44.707H28.922V43.7035C28.922 43.6987 28.9669 43.1999 29.9901 42.0597C30.8243 41.1304 31.9069 40.2145 32.8618 39.406C33.1096 39.1961 33.3467 38.9953 33.5704 38.802C33.6367 38.7539 33.7008 38.7026 33.7632 38.6481C34.6199 37.8973 35.1806 36.882 35.3633 35.7851C35.5459 36.882 36.1067 37.8967 36.9639 38.6481C37.2373 38.8879 37.5342 39.1395 37.8488 39.4054C38.8037 40.214 39.8862 41.1304 40.7204 42.0597C41.7442 43.1999 41.7885 43.6982 41.7891 43.6982ZM40.7204 27.9403C39.8862 28.8696 38.8037 29.786 37.8488 30.5946C37.5342 30.8605 37.2373 31.1121 36.9633 31.3524C36.1067 32.1033 35.5459 33.118 35.3633 34.2149C35.1806 33.1174 34.6199 32.1027 33.7632 31.3519C33.4893 31.1121 33.1918 30.8605 32.8772 30.594C31.9223 29.7855 30.8398 28.8696 30.0061 27.9403C28.9824 26.8001 28.938 26.3018 28.9375 26.3018V25.293H41.7891V26.2965C41.7885 26.3013 41.7442 26.7995 40.7204 27.9403ZM0.5 18.3203V11.7578C0.5 10.2475 1.72406 9.02344 3.23438 9.02344C4.74469 9.02344 5.96875 10.2475 5.96875 11.7578V16.206C8.65933 11.9827 12.2322 8.37029 16.4747 5.61775C22.14 1.9429 28.7185 0 35.5 0C44.8487 0 53.6382 3.64067 60.2488 10.2512C66.8593 16.8618 70.5 25.6513 70.5 35C70.5 36.5103 69.2759 37.7344 67.7656 37.7344C66.2553 37.7344 65.0312 36.5103 65.0312 35C65.0312 18.7166 51.7834 5.46875 35.5 5.46875C25.1548 5.46875 15.5567 10.9589 10.2444 19.6875H13.8984C15.4088 19.6875 16.6328 20.9116 16.6328 22.4219C16.6328 23.9322 15.4088 25.1562 13.8984 25.1562H7.33594C3.56656 25.1562 0.5 22.0897 0.5 18.3203ZM70.5 51.6797V58.1055C70.5 59.6158 69.2759 60.8398 67.7656 60.8398C66.2553 60.8398 65.0312 59.6158 65.0312 58.1055V53.5793C62.3257 57.8956 58.7027 61.5833 54.3885 64.3822C48.7233 68.0571 42.1447 70 35.3633 70C26.0199 70 17.2529 66.3572 10.677 59.7429C4.1145 53.1414 0.5 44.3546 0.5 35C0.5 33.4897 1.72406 32.2656 3.23438 32.2656C4.74469 32.2656 5.96875 33.4897 5.96875 35C5.96875 51.2834 19.1552 64.5312 35.3633 64.5312C45.708 64.5312 55.3066 59.0411 60.6189 50.3125H56.9648C55.4545 50.3125 54.2305 49.0884 54.2305 47.5781C54.2305 46.0678 55.4545 44.8438 56.9648 44.8438H63.6641C67.4334 44.8438 70.5 47.9103 70.5 51.6797Z" fill="url(#paint0_linear_1405_11800)"/>
<defs>
<linearGradient id="paint0_linear_1405_11800" x1="0.5" y1="35" x2="70.5" y2="35" gradientUnits="userSpaceOnUse">
<stop stop-color="#00F2FE"/>
<stop offset="0.0208" stop-color="#03EFFE"/>
<stop offset="0.2931" stop-color="#24D2FE"/>
<stop offset="0.5538" stop-color="#3CBDFE"/>
<stop offset="0.7956" stop-color="#4AB0FE"/>
<stop offset="1" stop-color="#4FACFE"/>
</linearGradient>
</defs>
</svg>
