<svg width="71" height="70" viewBox="0 0 71 70" fill="none" xmlns="http://www.w3.org/2000/svg">
<path d="M11.8095 20.4254C12.6226 19.0586 13.5731 17.7546 14.6325 16.5506C15.1201 15.9959 15.9754 15.937 16.5358 16.4136C17.0999 16.8913 17.163 17.7275 16.6754 18.2809C15.724 19.3633 14.8696 20.5342 14.1394 21.7614C13.889 22.1828 13.4368 22.4174 12.9729 22.4174C12.7422 22.4174 12.5076 22.3592 12.2941 22.237C11.6499 21.8676 11.4339 21.0569 11.8095 20.4254ZM24.6323 44.557C24.9775 44.557 25.3231 44.4276 25.5865 44.169L35.5532 34.3901C35.8063 34.1418 35.9487 33.8049 35.9487 33.454V19.4844C35.9487 18.7531 35.3451 18.1603 34.599 18.1603C33.853 18.1603 33.2494 18.7531 33.2494 19.4844V32.9059L23.6781 42.2968C23.1511 42.8138 23.1511 43.652 23.6781 44.169C23.9417 44.4276 24.2873 44.557 24.6323 44.557ZM70.5 57.288C70.5 64.2979 64.6874 70 57.5429 70C53.1842 70 49.3297 67.8711 46.98 64.6245C43.0353 66.1342 38.8748 66.9082 34.5992 66.9082C15.7965 66.9082 0.5 51.9009 0.5 33.454C0.5 15.0071 15.7967 0 34.599 0C53.4014 0 68.6986 15.0073 68.6986 33.4542C68.6986 38.311 67.6533 42.9837 65.6109 47.3579C68.5854 49.689 70.5 53.2707 70.5 57.288ZM63.3088 45.9205C65.0866 41.9908 65.9993 37.8037 65.9993 33.454C65.9993 16.4677 51.9138 2.64806 34.5994 2.64806C17.2849 2.64806 3.19911 16.4679 3.19911 33.4542C3.19911 50.4405 17.2846 64.26 34.599 64.26C38.4053 64.26 42.1033 63.5717 45.6262 62.2739C44.9757 60.783 44.612 59.1457 44.5927 57.4283C41.4117 58.6717 37.9569 59.3207 34.541 59.3207C33.5329 59.3207 32.5271 59.2645 31.5333 59.15C24.5375 58.3462 18.2796 54.9186 13.9114 49.4966C9.54359 44.0754 7.58903 37.3102 8.40761 30.4464C8.49463 29.7211 9.15908 29.2004 9.90498 29.2851C10.6457 29.3698 11.1757 30.028 11.0887 30.7542C10.3531 36.9149 12.1076 42.9878 16.0287 47.8549C19.9498 52.7214 25.5673 55.7983 31.8475 56.5198C36.2156 57.0193 40.9207 56.2437 44.9359 54.4009C46.1098 49.4696 50.21 45.6409 55.3406 44.7737C55.3669 44.6874 55.3757 44.5984 55.4212 44.5158C56.8525 41.9205 57.7581 39.1075 58.1101 36.154C58.8457 29.9933 57.0911 23.9204 53.17 19.0533C49.2486 14.1865 43.6315 11.1096 37.3509 10.3881C32.067 9.78101 26.8835 10.8872 22.3494 13.5811C21.7128 13.9602 20.8824 13.7608 20.495 13.1342C20.1087 12.509 20.3132 11.6943 20.9498 11.3156C26.0042 8.31312 31.78 7.08349 37.6648 7.7577C52.1076 9.41619 62.4814 22.2923 60.7904 36.4613C60.4503 39.3186 59.6165 42.0492 58.3632 44.6161C60.1314 44.7262 61.802 45.1817 63.3088 45.9205Z" fill="url(#paint0_linear_881_2715)"/>
<ellipse cx="57.3925" cy="57.1744" rx="10.291" ry="10.0963" fill="white"/>
<path d="M62.9255 54.1627L55.73 60.7601L51.8671 57.0546C51.5725 56.7716 51.094 56.7716 50.7994 57.0546C50.5044 57.3375 50.5044 57.7962 50.7994 58.0792L55.1847 62.2859C55.3267 62.4233 55.5208 62.4994 55.7226 62.4968C55.9182 62.4985 56.1063 62.4253 56.2451 62.2933L63.9785 55.2092C64.1231 55.0763 64.2072 54.8936 64.2113 54.7014C64.2154 54.5093 64.14 54.3234 64.0012 54.1846C63.7098 53.8951 63.2293 53.8854 62.9255 54.1627Z" fill="url(#paint1_linear_881_2715)"/>
<defs>
<linearGradient id="paint0_linear_881_2715" x1="35.4998" y1="-1.56723" x2="35.4998" y2="70.2442" gradientUnits="userSpaceOnUse">
<stop stop-color="#00EFD1"/>
<stop offset="1" stop-color="#00ACEA"/>
</linearGradient>
<linearGradient id="paint1_linear_881_2715" x1="57.3948" y1="53.7698" x2="57.3948" y2="62.5266" gradientUnits="userSpaceOnUse">
<stop stop-color="#00EFD1"/>
<stop offset="1" stop-color="#00ACEA"/>
</linearGradient>
</defs>
</svg>
