<svg width="70" height="71" viewBox="0 0 70 71" fill="none" xmlns="http://www.w3.org/2000/svg">
<path d="M23.0406 3.97125C22.9068 3.77601 22.7271 3.61667 22.5172 3.50725C22.3074 3.39784 22.0738 3.34171 21.8372 3.34381C21.6005 3.34591 21.368 3.40617 21.1601 3.51929C20.9523 3.63241 20.7754 3.79492 20.6451 3.9925L9.43367 20.9954C9.29021 21.213 9.20833 21.4654 9.19674 21.7257C9.18515 21.9861 9.24427 22.2447 9.36782 22.4742C9.49138 22.7036 9.67476 22.8953 9.8985 23.029C10.1222 23.1626 10.378 23.2332 10.6386 23.2332H33.4998C33.7626 23.2331 34.0204 23.1614 34.2453 23.0256C34.4703 22.8899 34.654 22.6953 34.7765 22.4628C34.899 22.2303 34.9558 21.9688 34.9406 21.7065C34.9254 21.4441 34.8389 21.1909 34.6904 20.9741L23.0406 3.97125ZM34.2209 22.17C34.1528 22.3022 34.0493 22.4129 33.922 22.4897C33.7947 22.5665 33.6485 22.6065 33.4998 22.6051H10.6386C10.4914 22.6051 10.347 22.5652 10.2206 22.4897C10.0943 22.4143 9.99069 22.306 9.92092 22.1764C9.85115 22.0468 9.81777 21.9007 9.82433 21.7536C9.83089 21.6066 9.87714 21.4641 9.95817 21.3412L21.1695 4.33831C21.2431 4.22672 21.343 4.13494 21.4604 4.07105C21.5778 4.00716 21.7091 3.97312 21.8428 3.97193C21.9764 3.97074 22.1083 4.00244 22.2269 4.06423C22.3454 4.12602 22.4469 4.21601 22.5225 4.32627L34.1722 21.3292C34.2574 21.451 34.3071 21.5942 34.3157 21.7427C34.3243 21.8911 34.2915 22.0391 34.2209 22.17V22.17Z" fill="url(#paint0_linear_578_4982)" stroke="url(#paint1_linear_578_4982)" stroke-width="2"/>
<path d="M67.5738 9.28757L60.8993 8.31929C60.764 8.29976 60.6355 8.24763 60.5248 8.16739C60.4142 8.08715 60.3247 7.98121 60.2641 7.85871L57.2792 1.81917C57.1575 1.57322 56.9694 1.36619 56.7363 1.22145C56.5031 1.0767 56.2342 1 55.9597 1C55.6853 1 55.4163 1.0767 55.1832 1.22145C54.95 1.36619 54.762 1.57322 54.6403 1.81917L51.6552 7.8585C51.5946 7.981 51.5052 8.08694 51.3945 8.16717C51.2839 8.24741 51.1554 8.29954 51.0201 8.31908L44.3456 9.28757C44.0741 9.32672 43.8189 9.44113 43.609 9.61784C43.3991 9.79454 43.2429 10.0265 43.158 10.2874C43.0731 10.5483 43.063 10.8278 43.1288 11.0942C43.1946 11.3606 43.3336 11.6032 43.5302 11.7946L48.3601 16.4958C48.4579 16.5909 48.5311 16.7085 48.5734 16.8382C48.6156 16.968 48.6256 17.1061 48.6025 17.2406L47.4621 23.8785C47.416 24.149 47.4464 24.427 47.55 24.6812C47.6535 24.9353 47.8261 25.1554 48.0482 25.3166C48.2703 25.4778 48.533 25.5737 48.8067 25.5934C49.0805 25.6131 49.3542 25.5558 49.5971 25.4281L55.5672 22.2941C55.6883 22.2306 55.823 22.1974 55.9597 22.1974C56.0965 22.1974 56.2312 22.2306 56.3523 22.2941L62.3222 25.4281C62.5651 25.5558 62.8389 25.6131 63.1126 25.5934C63.3863 25.5737 63.6491 25.4778 63.8712 25.3166C64.0933 25.1554 64.2658 24.9353 64.3694 24.6812C64.473 24.427 64.5034 24.149 64.4572 23.8785L63.3172 17.2406C63.2941 17.1061 63.3041 16.968 63.3463 16.8382C63.3886 16.7085 63.4618 16.5909 63.5596 16.4958L68.3894 11.7948C68.5859 11.6034 68.725 11.3608 68.7908 11.0944C68.8566 10.828 68.8464 10.5485 68.7616 10.2876C68.6767 10.0267 68.5205 9.79475 68.3106 9.61804C68.1007 9.44134 67.8455 9.32693 67.5739 9.28778L67.5738 9.28757ZM67.9512 11.3448L63.1214 16.0457C62.9505 16.2119 62.8226 16.4173 62.7489 16.644C62.6751 16.8707 62.6577 17.112 62.698 17.3469L63.8382 23.9848C63.8645 24.1398 63.847 24.2991 63.7875 24.4447C63.7281 24.5903 63.6291 24.7163 63.5018 24.8086C63.3745 24.9009 63.2239 24.9557 63.067 24.9669C62.9102 24.9781 62.7533 24.9453 62.6142 24.872L56.6443 21.738C56.4332 21.6272 56.1982 21.5693 55.9597 21.5693C55.7212 21.5693 55.4863 21.6272 55.2751 21.738L49.3052 24.872C49.166 24.9453 49.0092 24.9781 48.8523 24.9669C48.6955 24.9557 48.5449 24.9009 48.4176 24.8086C48.2903 24.7163 48.1913 24.5903 48.1318 24.4447C48.0724 24.2991 48.0548 24.1398 48.0812 23.9848L49.2213 17.3469C49.2617 17.112 49.2442 16.8707 49.1705 16.644C49.0967 16.4173 48.9689 16.2119 48.798 16.0457L43.9682 11.3448C43.8556 11.2351 43.7759 11.0961 43.7382 10.9436C43.7006 10.791 43.7064 10.6309 43.7551 10.4814C43.8038 10.332 43.8933 10.1992 44.0136 10.098C44.1339 9.99687 44.2801 9.93144 44.4357 9.90915L51.1103 8.94087C51.3463 8.9067 51.5705 8.81567 51.7635 8.67562C51.9565 8.53557 52.1126 8.35071 52.2183 8.13694L55.2033 2.09762C55.2731 1.95667 55.3809 1.83804 55.5146 1.7551C55.6483 1.67216 55.8024 1.62821 55.9597 1.62821C56.117 1.62821 56.2712 1.67216 56.4049 1.7551C56.5385 1.83804 56.6464 1.95667 56.7162 2.09762L59.7012 8.13689C59.8068 8.35066 59.9629 8.53552 60.1559 8.67557C60.349 8.81562 60.5731 8.90665 60.8091 8.94082L67.4837 9.9091C67.6393 9.93139 67.7855 9.99681 67.9058 10.098C68.0261 10.1991 68.1157 10.3319 68.1644 10.4814C68.213 10.6308 68.2189 10.7909 68.1812 10.9435C68.1436 11.0961 68.0639 11.2351 67.9513 11.3447L67.9512 11.3448Z" fill="url(#paint2_linear_578_4982)" stroke="url(#paint3_linear_578_4982)" stroke-width="2"/>
<path d="M33.4818 39.3139C33.4813 38.8806 33.3089 38.4652 33.0025 38.1588C32.6961 37.8524 32.2807 37.68 31.8474 37.6795L12.2631 37.6795C11.8296 37.6795 11.4139 37.8517 11.1074 38.1582C10.8009 38.4647 10.6287 38.8804 10.6287 39.3138L10.6287 58.8981C10.6292 59.3315 10.8016 59.7469 11.108 60.0533C11.4144 60.3597 11.8298 60.532 12.2631 60.5325L31.8474 60.5325C32.2809 60.5325 32.6966 60.3603 33.0031 60.0538C33.3096 59.7473 33.4818 59.3316 33.4818 58.8982L33.4818 39.3139ZM31.8476 59.7781L12.2633 59.7781C12.0299 59.7779 11.8062 59.6851 11.6412 59.5201C11.4762 59.3551 11.3834 59.1313 11.3832 58.898L11.3832 39.3137C11.3832 39.1981 11.4059 39.0837 11.4502 38.9769C11.4944 38.8701 11.5592 38.7731 11.6409 38.6914C11.7227 38.6096 11.8197 38.5448 11.9265 38.5006C12.0332 38.4564 12.1477 38.4336 12.2633 38.4336L31.8476 38.4336C32.0809 38.4339 32.3046 38.5267 32.4696 38.6917C32.6346 38.8567 32.7274 39.0804 32.7277 39.3137L32.7277 58.898C32.7277 59.0136 32.7049 59.128 32.6607 59.2348C32.6165 59.3416 32.5516 59.4386 32.4699 59.5203C32.3882 59.6021 32.2912 59.6669 32.1844 59.7111C32.0776 59.7553 31.9631 59.7781 31.8476 59.7781Z" fill="url(#paint4_linear_578_4982)" stroke="url(#paint5_linear_578_4982)" stroke-width="2"/>
<path d="M67.7893 45.0781L56.7378 37.0576C56.5121 36.8933 56.2401 36.8047 55.9608 36.8047C55.6816 36.8047 55.4096 36.8933 55.1839 37.0576L44.1324 45.0781C43.9058 45.2419 43.737 45.4735 43.6506 45.7395C43.5641 46.0055 43.5644 46.2921 43.6514 46.5579L47.8722 59.5337C47.9582 59.7996 48.1263 60.0313 48.3524 60.1955C48.5785 60.3597 48.8508 60.4479 49.1302 60.4474H62.7915C63.0709 60.4479 63.3432 60.3597 63.5693 60.1955C63.7954 60.0313 63.9635 59.7996 64.0494 59.5338L68.2703 46.5579C68.3573 46.2921 68.3576 46.0055 68.2711 45.7395C68.1847 45.4735 68.0159 45.2419 67.7893 45.0781ZM67.6962 46.3712L63.4754 59.3471C63.4287 59.4916 63.3372 59.6176 63.2143 59.7069C63.0913 59.7962 62.9432 59.8441 62.7913 59.8438H49.1302C48.9783 59.8441 48.8301 59.7962 48.7072 59.7069C48.5842 59.6176 48.4928 59.4916 48.4461 59.347L44.2253 46.3711C44.178 46.2266 44.1779 46.0708 44.2249 45.9262C44.2719 45.7816 44.3636 45.6557 44.4869 45.5666L55.5383 37.5462C55.661 37.4568 55.8089 37.4086 55.9607 37.4086C56.1125 37.4086 56.2604 37.4568 56.3831 37.5462L67.4348 45.5666C67.5581 45.6557 67.6498 45.7816 67.6968 45.9262C67.7438 46.0708 67.7435 46.2266 67.6962 46.3712Z" fill="url(#paint6_linear_578_4982)" stroke="url(#paint7_linear_578_4982)" stroke-width="2"/>
<defs>
<linearGradient id="paint0_linear_578_4982" x1="22.0691" y1="2.89845" x2="22.0691" y2="23.3025" gradientUnits="userSpaceOnUse">
<stop stop-color="#00EFD1"/>
<stop offset="1" stop-color="#00ACEA"/>
</linearGradient>
<linearGradient id="paint1_linear_578_4982" x1="22.0691" y1="2.89845" x2="22.0691" y2="23.3025" gradientUnits="userSpaceOnUse">
<stop stop-color="#00EFD1"/>
<stop offset="1" stop-color="#00ACEA"/>
</linearGradient>
<linearGradient id="paint2_linear_578_4982" x1="55.9597" y1="0.449293" x2="55.9597" y2="25.683" gradientUnits="userSpaceOnUse">
<stop stop-color="#00EFD1"/>
<stop offset="1" stop-color="#00ACEA"/>
</linearGradient>
<linearGradient id="paint3_linear_578_4982" x1="55.9597" y1="0.449293" x2="55.9597" y2="25.683" gradientUnits="userSpaceOnUse">
<stop stop-color="#00EFD1"/>
<stop offset="1" stop-color="#00ACEA"/>
</linearGradient>
<linearGradient id="paint4_linear_578_4982" x1="33.4927" y1="37.6685" x2="11.0316" y2="60.1296" gradientUnits="userSpaceOnUse">
<stop stop-color="#00EFD1"/>
<stop offset="1" stop-color="#00ACEA"/>
</linearGradient>
<linearGradient id="paint5_linear_578_4982" x1="33.4927" y1="37.6685" x2="11.0316" y2="60.1296" gradientUnits="userSpaceOnUse">
<stop stop-color="#00EFD1"/>
<stop offset="1" stop-color="#00ACEA"/>
</linearGradient>
<linearGradient id="paint6_linear_578_4982" x1="55.9608" y1="36.2754" x2="55.9608" y2="60.5298" gradientUnits="userSpaceOnUse">
<stop stop-color="#00EFD1"/>
<stop offset="1" stop-color="#00ACEA"/>
</linearGradient>
<linearGradient id="paint7_linear_578_4982" x1="55.9608" y1="36.2754" x2="55.9608" y2="60.5298" gradientUnits="userSpaceOnUse">
<stop stop-color="#00EFD1"/>
<stop offset="1" stop-color="#00ACEA"/>
</linearGradient>
</defs>
</svg>
