<svg width="39" height="70" viewBox="0 0 39 70" fill="none" xmlns="http://www.w3.org/2000/svg">
<path d="M33.0466 0H5.94985C4.45318 0.00168092 3.01828 0.596977 1.95997 1.65529C0.901664 2.71359 0.306368 4.14849 0.304688 5.64516V64.3548C0.306368 65.8515 0.901664 67.2864 1.95997 68.3447C3.01828 69.403 4.45318 69.9983 5.94985 70H33.0466C34.5433 69.9983 35.9782 69.403 37.0365 68.3447C38.0948 67.2864 38.6901 65.8515 38.6918 64.3548V5.64516C38.6901 4.14849 38.0948 2.71359 37.0365 1.65529C35.9782 0.596977 34.5433 0.00168092 33.0466 0ZM27.1534 2.25806L26.4759 5.64516H12.5207L11.8433 2.25806H27.1534ZM36.4337 64.3548C36.4327 65.2528 36.0755 66.1138 35.4405 66.7488C34.8056 67.3838 33.9446 67.7409 33.0466 67.7419H5.94985C5.05184 67.7409 4.19091 67.3838 3.55592 66.7488C2.92094 66.1138 2.56376 65.2528 2.56275 64.3548V5.64516C2.56376 4.74716 2.92094 3.88622 3.55592 3.25124C4.19091 2.61625 5.05184 2.25907 5.94985 2.25806H9.54031L10.4879 6.99563C10.539 7.25157 10.6773 7.48187 10.8792 7.64734C11.081 7.81281 11.334 7.90324 11.595 7.90323H27.4015C27.6625 7.90324 27.9154 7.81281 28.1173 7.64734C28.3191 7.48187 28.4574 7.25157 28.5086 6.99563L29.4562 2.25806H33.0466C33.9446 2.25907 34.8056 2.61625 35.4405 3.25124C36.0755 3.88622 36.4327 4.74716 36.4337 5.64516V64.3548Z" fill="url(#paint0_linear_881_2714)"/>
<path d="M12.7235 63.2266H5.94934C5.64991 63.2266 5.36273 63.3455 5.151 63.5572C4.93926 63.769 4.82031 64.0562 4.82031 64.3556C4.82031 64.655 4.93926 64.9422 5.151 65.1539C5.36273 65.3657 5.64991 65.4846 5.94934 65.4846H12.7235C13.023 65.4846 13.3102 65.3657 13.5219 65.1539C13.7336 64.9422 13.8526 64.655 13.8526 64.3556C13.8526 64.0562 13.7336 63.769 13.5219 63.5572C13.3102 63.3455 13.023 63.2266 12.7235 63.2266Z" fill="url(#paint1_linear_881_2714)"/>
<defs>
<linearGradient id="paint0_linear_881_2714" x1="19.4982" y1="-1.56723" x2="19.4982" y2="70.2442" gradientUnits="userSpaceOnUse">
<stop stop-color="#00EFD1"/>
<stop offset="1" stop-color="#00ACEA"/>
</linearGradient>
<linearGradient id="paint1_linear_881_2714" x1="9.33642" y1="63.176" x2="9.33642" y2="65.4925" gradientUnits="userSpaceOnUse">
<stop stop-color="#00EFD1"/>
<stop offset="1" stop-color="#00ACEA"/>
</linearGradient>
</defs>
</svg>
