<svg width="34" height="34" viewBox="0 0 34 34" fill="none" xmlns="http://www.w3.org/2000/svg">
<g clip-path="url(#clip0_578_4927)">
<path d="M10.4407 31.5937C10.4407 31.7598 10.305 31.8944 10.1378 31.8944H8.61571C7.29109 31.8944 6.21337 30.8247 6.21337 29.5098V25.958C6.21337 25.792 6.34907 25.6573 6.51632 25.6573C6.68357 25.6573 6.81927 25.792 6.81927 25.958V29.5098C6.81927 30.493 7.62519 31.293 8.61571 31.293H10.1378C10.305 31.293 10.4407 31.4277 10.4407 31.5937ZM30.1266 22.2832V25.7568C30.1266 26.3285 29.6582 26.7935 29.0822 26.7935H28.3856V31.4332C28.3856 32.6383 27.3998 33.6185 26.1882 33.6185H6.67395C5.46234 33.6185 4.47656 32.6383 4.47656 31.4332V15.9076C4.47656 14.7049 5.46234 13.7264 6.67395 13.7264H9.08178L13.7639 9.07884C14.258 8.58823 15.0621 8.58838 15.5558 9.07884L17.1841 10.6951L18.8122 9.07904C19.3057 8.58958 20.1084 8.58918 20.6019 9.07904L25.2837 13.7264H26.1882C27.3998 13.7264 28.3856 14.7049 28.3856 15.9076V21.2465H29.0822C29.6582 21.2465 30.1266 21.7115 30.1266 22.2832ZM17.6128 11.1201L20.2384 13.7264H24.4269L20.1735 9.50431C19.9163 9.24942 19.4978 9.24942 19.2406 9.50431L17.6128 11.1201ZM9.93857 13.7264H19.381L15.1274 9.50411C14.8692 9.24802 14.4501 9.24842 14.1923 9.50411L9.93857 13.7264ZM27.7796 26.794H22.6012C21.0597 26.794 19.809 25.5447 19.809 24.02C19.809 22.4479 21.1026 21.2445 22.6012 21.2445H27.7796V15.9076C27.7796 15.0366 27.0657 14.3279 26.1882 14.3279C24.171 14.3279 8.91418 14.3279 6.67395 14.3279C5.79644 14.3279 5.08247 15.0366 5.08247 15.9076V31.4332C5.08247 32.3066 5.79644 33.0171 6.67395 33.0171H26.1882C27.0657 33.0171 27.7796 32.3066 27.7796 31.4332V26.794ZM29.5207 22.2832C29.5207 22.0432 29.324 21.848 29.0822 21.848H22.6031C21.3428 21.848 20.4159 22.8738 20.4159 24.0194C20.4159 25.2124 21.3986 26.192 22.6031 26.192H29.0822C29.324 26.192 29.5207 25.9969 29.5207 25.7568V22.2832ZM24.2494 24.0176C24.2494 24.81 23.602 25.4547 22.8066 25.4547C22.0084 25.4547 21.3589 24.81 21.3589 24.0176C21.3589 23.2278 22.0084 22.5853 22.8066 22.5853C23.602 22.5853 24.2494 23.2278 24.2494 24.0176ZM23.6435 24.0176C23.6435 23.5595 23.2681 23.1867 22.8066 23.1867C22.3425 23.1867 21.9648 23.5595 21.9648 24.0176C21.9648 24.4783 22.3425 24.8533 22.8066 24.8533C23.2681 24.8533 23.6435 24.4783 23.6435 24.0176Z" fill="url(#paint0_linear_578_4927)" stroke="url(#paint1_linear_578_4927)" stroke-width="0.5"/>
<path fill-rule="evenodd" clip-rule="evenodd" d="M8.22965 0.841977C8.13329 0.841977 8.04088 0.880255 7.97274 0.948392C7.90461 1.01653 7.86633 1.10894 7.86633 1.2053L7.86633 9.7746L5.58031 7.48785C5.51209 7.41963 5.41956 7.3813 5.32308 7.3813C5.2266 7.3813 5.13407 7.41963 5.06585 7.48785C4.99762 7.55607 4.9593 7.6486 4.9593 7.74508C4.9593 7.84156 4.99762 7.93409 5.06585 8.00231L7.97242 10.9089C8.00617 10.9427 8.04626 10.9696 8.0904 10.9879C8.13454 11.0062 8.18186 11.0156 8.22965 11.0156C8.27744 11.0156 8.32476 11.0062 8.3689 10.9879C8.41304 10.9696 8.45313 10.9427 8.48688 10.9089L11.3935 8.00232C11.4272 7.96853 11.454 7.92843 11.4723 7.8843C11.4906 7.84016 11.5 7.79286 11.5 7.74508C11.5 7.6486 11.4617 7.55607 11.3935 7.48785C11.3252 7.41963 11.2327 7.3813 11.1362 7.3813C11.0397 7.3813 10.9472 7.41963 10.879 7.48785L8.59297 9.7746L8.59297 1.2053C8.59297 1.10894 8.55469 1.01653 8.48656 0.948392C8.41842 0.880255 8.32601 0.841977 8.22965 0.841977Z" fill="url(#paint2_linear_578_4927)" stroke="url(#paint3_linear_578_4927)" stroke-width="0.3"/>
</g>
<defs>
<linearGradient id="paint0_linear_578_4927" x1="17.3015" y1="8.15328" x2="17.3015" y2="33.7054" gradientUnits="userSpaceOnUse">
<stop stop-color="#00EFD1"/>
<stop offset="1" stop-color="#00ACEA"/>
</linearGradient>
<linearGradient id="paint1_linear_578_4927" x1="17.3015" y1="8.15328" x2="17.3015" y2="33.7054" gradientUnits="userSpaceOnUse">
<stop stop-color="#00EFD1"/>
<stop offset="1" stop-color="#00ACEA"/>
</linearGradient>
<linearGradient id="paint2_linear_578_4927" x1="8.22966" y1="11.2434" x2="8.22966" y2="0.806492" gradientUnits="userSpaceOnUse">
<stop stop-color="#00EFD1"/>
<stop offset="1" stop-color="#00ACEA"/>
</linearGradient>
<linearGradient id="paint3_linear_578_4927" x1="8.22966" y1="11.2434" x2="8.22966" y2="0.806492" gradientUnits="userSpaceOnUse">
<stop stop-color="#00EFD1"/>
<stop offset="1" stop-color="#00ACEA"/>
</linearGradient>
<clipPath id="clip0_578_4927">
<rect width="34.2519" height="34" fill="white" transform="translate(0 0.09375)"/>
</clipPath>
</defs>
</svg>
