<svg width="304" height="255" viewBox="0 0 304 255" fill="none" xmlns="http://www.w3.org/2000/svg">
<path d="M291.466 1.97656L303.053 21.3487V233.454L122.484 231.65L112.602 221.397L291.466 1.97656Z" fill="#E0E0E0"/>
<path d="M291.466 1.03906H112.602V221.393H291.466V1.03906Z" fill="#F3F3F3"/>
<path d="M291.468 221.396C291.468 220.023 291.407 132.097 291.311 1.04159L291.468 1.19942H112.617L112.795 1.021C112.795 82.5378 112.795 158.352 112.795 221.375L112.652 221.224L291.516 221.375L112.604 221.574H112.453V221.423C112.453 158.4 112.453 82.5859 112.453 1.06904V0.890625H112.645H291.496H291.653V1.04845C291.537 132.097 291.468 220.003 291.468 221.396Z" fill="#263238"/>
<path d="M250.816 37.0781H141.273V45.5119H250.816V37.0781Z" fill="#FF725E"/>
<path d="M250.813 114.398H139.789V122.832H250.813V114.398Z" fill="#FF725E"/>
<path d="M196.291 72.8594H141.273V81.2931H196.291V72.8594Z" fill="#E0E0E0"/>
<path d="M220.987 52.9753C220.987 53.0714 203.289 53.1468 181.45 53.1468C159.611 53.1468 141.906 53.0714 141.906 52.9753C141.906 52.8792 159.611 52.7969 181.45 52.7969C203.289 52.7969 220.987 52.8724 220.987 52.9753Z" fill="#263238"/>
<path d="M195.821 86.4362C195.821 86.5323 183.502 86.6147 168.329 86.6147C153.156 86.6147 140.844 86.5323 140.844 86.4362C140.844 86.3402 153.163 86.2578 168.329 86.2578C183.495 86.2578 195.821 86.3402 195.821 86.4362Z" fill="#263238"/>
<path d="M195.817 92.9128C195.817 93.0089 183.71 93.0912 168.783 93.0912C153.857 93.0912 141.75 93.0089 141.75 92.9128C141.75 92.8167 153.85 92.7344 168.783 92.7344C183.717 92.7344 195.817 92.8167 195.817 92.9128Z" fill="#263238"/>
<path d="M195.595 99.5065C195.595 99.6026 183.386 99.685 168.329 99.685C153.273 99.685 141.07 99.6026 141.07 99.5065C141.07 99.4105 153.273 99.3281 168.329 99.3281C183.386 99.3281 195.595 99.4311 195.595 99.5065Z" fill="#263238"/>
<path d="M195.595 105.889C195.595 105.985 183.386 106.068 168.329 106.068C153.273 106.068 141.07 105.985 141.07 105.889C141.07 105.793 153.273 105.711 168.329 105.711C183.386 105.711 195.595 105.793 195.595 105.889Z" fill="#263238"/>
<path d="M250.692 169.424C250.692 169.424 250.692 169.191 250.692 168.738C250.692 168.285 250.692 167.626 250.692 166.761C250.692 165.018 250.692 162.445 250.692 159.103C250.692 152.426 250.665 142.668 250.642 130.337L250.725 130.446L140.87 130.515L141.009 130.337C141.009 143.78 141.009 156.887 141.009 169.41L140.876 169.239L219.336 169.314L242.384 169.369H248.578H250.189H248.594H242.428L219.413 169.417L140.859 169.493H140.727V169.424C140.727 156.9 140.727 143.793 140.727 130.35V130.172H140.87L250.725 130.241H250.814V130.35C250.814 142.702 250.775 152.488 250.764 159.172C250.764 162.5 250.764 165.066 250.764 166.803C250.764 167.66 250.764 168.312 250.764 168.758C250.764 169.204 250.692 169.424 250.692 169.424Z" fill="#263238"/>
<path d="M251.15 140.194C251.15 140.29 226.54 140.372 196.165 140.372C165.79 140.372 141.18 140.29 141.18 140.194C141.18 140.098 165.79 140.016 196.165 140.016C226.54 140.016 251.15 140.098 251.15 140.194Z" fill="#263238"/>
<path d="M251.15 149.897C251.15 149.993 226.54 150.076 196.165 150.076C165.79 150.076 141.18 149.993 141.18 149.897C141.18 149.801 165.79 149.719 196.165 149.719C226.54 149.719 251.15 149.801 251.15 149.897Z" fill="#263238"/>
<path d="M251.15 159.71C251.15 159.813 226.54 159.888 196.165 159.888C165.79 159.888 141.18 159.813 141.18 159.71C141.18 159.607 165.79 159.531 196.165 159.531C226.54 159.531 251.15 159.614 251.15 159.71Z" fill="#263238"/>
<path d="M156.64 169.775C156.544 169.775 156.469 160.937 156.469 150.04C156.469 139.142 156.544 130.297 156.64 130.297C156.736 130.297 156.812 139.135 156.812 150.04C156.812 160.944 156.736 169.775 156.64 169.775Z" fill="#263238"/>
<path d="M202.562 168.584C202.466 168.584 202.391 160.144 202.391 149.733C202.391 139.323 202.466 130.883 202.562 130.883C202.658 130.883 202.734 139.323 202.734 149.733C202.734 160.144 202.658 168.584 202.562 168.584Z" fill="#263238"/>
<path d="M250.969 170.366C250.88 170.366 250.805 161.665 250.805 150.925C250.805 140.186 250.88 131.484 250.969 131.484C251.059 131.484 251.141 140.186 251.141 150.925C251.141 161.665 251.065 170.366 250.969 170.366Z" fill="#263238"/>
<path d="M189.707 189.483C189.707 189.586 178.914 189.662 165.603 189.662C152.292 189.662 141.492 189.586 141.492 189.483C141.492 189.38 152.285 189.305 165.603 189.305C178.921 189.305 189.707 189.387 189.707 189.483Z" fill="#263238"/>
<path d="M117.742 226.715C117.742 226.715 118.05 226.715 118.652 226.715H121.335H131.669L169.886 226.907L297.866 227.682L297.688 227.861V210.3C297.688 155.567 297.722 106.028 297.736 70.166C297.736 52.2349 297.784 37.7281 297.797 27.6955C297.797 22.686 297.797 18.7745 297.797 16.1532C297.797 14.8356 297.797 13.8268 297.797 13.1475C297.797 12.4681 297.797 12.125 297.797 12.125C297.797 12.125 297.797 12.4681 297.797 13.1475C297.797 13.8268 297.797 14.8356 297.797 16.1532C297.797 18.7951 297.797 22.686 297.832 27.6955C297.832 37.7281 297.866 52.2349 297.886 70.166C297.886 106.028 297.921 155.567 297.941 210.3V228.06H297.763L169.817 227.175L131.594 226.866L121.267 226.77L118.584 226.735L117.742 226.715Z" fill="#263238"/>
<path d="M114.781 223.805H115.691H128.695L166.829 223.894L294.583 224.313L294.405 224.491C294.405 218.589 294.405 212.311 294.405 205.963C294.488 151.065 294.556 101.361 294.604 65.3757C294.645 47.3966 294.679 32.8417 294.707 22.7748C294.707 17.7516 294.741 13.8538 294.748 11.1913C294.748 9.8737 294.748 8.86495 294.748 8.17873C294.748 7.4925 294.748 7.15625 294.748 7.15625C294.748 7.15625 294.748 7.49936 294.748 8.17873C294.748 8.85809 294.748 9.8737 294.748 11.1913C294.748 13.847 294.748 17.7516 294.748 22.7748C294.748 32.8417 294.748 47.3966 294.748 65.3757C294.748 101.361 294.693 151.058 294.659 205.963C294.659 212.311 294.659 218.589 294.659 224.491V224.669H294.481L166.726 224.134L128.592 223.942L118.285 223.867H115.609L114.781 223.805Z" fill="#263238"/>
<path d="M120.391 229.513H123.984L134.304 229.547L172.466 229.739L300.104 230.494L299.926 230.672C299.926 225.505 299.967 219.995 299.987 214.436C300.213 160.176 300.419 111.07 300.569 75.5166C300.665 57.7434 300.74 43.3601 300.788 33.4167C300.788 28.4484 300.85 24.5918 300.863 21.9704C300.863 20.6666 300.863 19.6715 300.898 18.9922C300.932 18.3128 300.898 17.9766 300.898 17.9766C300.898 17.9766 300.898 18.3265 300.898 18.9922C300.898 19.6578 300.898 20.6666 300.898 21.9704C300.898 24.5918 300.898 28.4484 300.898 33.4167C300.898 43.3601 300.836 57.7434 300.795 75.5166C300.672 111.07 300.501 160.176 300.316 214.436C300.316 219.995 300.275 225.505 300.254 230.672V230.851H300.076L172.438 229.972L134.277 229.671L123.956 229.574L121.273 229.54L120.391 229.513Z" fill="#263238"/>
<path d="M93.1156 83L84.2188 89.5809C85.1312 92.2297 86.0437 94.8809 86.9562 97.5343C88.9491 95.6858 90.5285 93.4347 91.5902 90.9294C92.6519 88.4241 93.1718 85.7215 93.1156 83Z" fill="#263238"/>
<path d="M72.464 67.1782C74.8802 65.9615 77.6437 65.6267 80.2795 66.2313C82.8954 66.8438 85.3942 67.8798 87.6775 69.2987C89.0154 69.9843 90.2132 70.9153 91.2089 72.0436C92.9198 74.1915 94.6307 77.7324 94.7676 80.4773C94.9045 82.7007 94.0832 88.2591 93.1183 90.2766C92.2628 92.1226 88.2387 93.5362 86.2746 93.9891L68.0703 72.7573C68.3982 71.5821 68.9553 70.4839 69.7095 69.5262C70.4637 68.5686 71.4 67.7705 72.464 67.1782Z" fill="#263238"/>
<path d="M69.3304 70.0401L73.6967 69.2578C71.3082 74.9535 70.6649 87.9849 69.2962 94.01C67.6879 91.67 63.9513 84.5401 64.1566 81.706C64.3619 78.8718 64.136 69.5598 69.3304 70.0401Z" fill="#263238"/>
<path d="M90.0151 79.5159C89.9349 77.9206 89.3465 76.3932 88.3364 75.158C87.3263 73.9229 85.9477 73.0451 84.4033 72.6537L74.391 70.0597C70.0452 69.5931 67.1435 74.9525 66.8629 79.3238C66.5412 84.1823 66.3496 89.3015 66.9176 92.9317C68.0537 100.219 73.6245 101.166 73.6245 101.166V106.766L76.9916 120.724L88.2016 108.598L90.0767 79.612C90.0425 79.4816 90.0288 79.6806 90.0151 79.5159Z" fill="#FFBF9D"/>
<path d="M69.0157 84.8333C69.012 85.0774 69.1037 85.3132 69.2713 85.4902C69.4389 85.6672 69.669 85.7714 69.9123 85.7803C70.0308 85.7896 70.15 85.775 70.2628 85.7374C70.3756 85.6998 70.4797 85.6398 70.5691 85.5611C70.6584 85.4824 70.7311 85.3866 70.7828 85.2793C70.8346 85.172 70.8643 85.0553 70.8704 84.9363C70.8724 84.6945 70.7808 84.4614 70.6148 84.2861C70.4489 84.1107 70.2216 84.0068 69.9807 83.9961C69.862 83.9849 69.7422 83.9978 69.6286 84.0342C69.515 84.0706 69.41 84.1298 69.3198 84.208C69.2296 84.2862 69.1562 84.382 69.1039 84.4894C69.0517 84.5969 69.0217 84.7139 69.0157 84.8333Z" fill="#263238"/>
<path d="M67.9203 82.1844C68.0366 82.308 68.7415 81.7864 69.7476 81.7864C70.7536 81.7864 71.4859 82.2942 71.5954 82.1776C71.7049 82.0609 71.5269 81.9031 71.2121 81.6629C70.7775 81.3624 70.2618 81.202 69.7339 81.2031C69.2113 81.2024 68.7016 81.3656 68.2762 81.6698C67.9682 81.9099 67.8655 82.1501 67.9203 82.1844Z" fill="#263238"/>
<path d="M77.7578 84.8327C77.7558 85.0763 77.8482 85.3111 78.0154 85.4877C78.1826 85.6644 78.4117 85.769 78.6544 85.7797C78.7733 85.789 78.8928 85.7745 79.006 85.7369C79.1192 85.6993 79.2238 85.6395 79.3137 85.5609C79.4035 85.4823 79.4768 85.3865 79.5293 85.2792C79.5818 85.1718 79.6124 85.055 79.6193 84.9356C79.6213 84.6928 79.5287 84.4587 79.3613 84.2832C79.1939 84.1076 78.9649 84.0044 78.7228 83.9955C78.6043 83.9852 78.4849 83.9989 78.3717 84.0357C78.2585 84.0724 78.1539 84.1316 78.0639 84.2097C77.9739 84.2877 77.9005 84.3831 77.8479 84.4901C77.7954 84.5971 77.7647 84.7136 77.7578 84.8327Z" fill="#263238"/>
<path d="M77.4437 82.1844C77.5601 82.308 78.265 81.7864 79.271 81.7864C80.277 81.7864 81.0093 82.3011 81.1188 82.1776C81.2283 82.0541 81.0504 81.9031 80.7355 81.6629C80.3009 81.3624 79.7852 81.202 79.2573 81.2031C78.7348 81.2024 78.2251 81.3656 77.7996 81.6698C77.4916 81.9099 77.389 82.1501 77.4437 82.1844Z" fill="#263238"/>
<path d="M74.3133 90.0903C73.784 89.9272 73.2372 89.8282 72.6845 89.7952C72.4244 89.7952 72.1849 89.7129 72.1438 89.5413C72.121 89.2758 72.1808 89.0097 72.3149 88.7796C72.5567 88.1574 72.81 87.5055 73.0746 86.8239C74.1354 84.0378 74.9018 81.7527 74.7923 81.7115C74.6828 81.6703 73.7316 83.8937 72.6708 86.6729C72.4176 87.3591 72.1712 88.0111 71.9385 88.6355C71.7796 88.9464 71.7336 89.3031 71.8085 89.6443C71.8442 89.7353 71.9004 89.8168 71.9729 89.8823C72.0453 89.9478 72.132 89.9955 72.226 90.0217C72.366 90.0629 72.5112 90.0837 72.6571 90.0835C73.2066 90.1569 73.7632 90.1592 74.3133 90.0903Z" fill="#263238"/>
<path d="M83.2297 98.5703C83.2297 98.5703 80.8686 103.58 73.5938 102.88V101.164C76.9834 101.212 80.3196 100.314 83.2297 98.5703Z" fill="#FF9A6C"/>
<path d="M77.7627 78.5497C77.8585 78.8242 78.8645 78.7007 80.0417 78.8448C81.2188 78.9889 82.17 79.3114 82.3206 79.0644C82.3959 78.9477 82.2316 78.6939 81.8484 78.4262C81.3362 78.1014 80.7572 77.8975 80.155 77.8297C79.5527 77.762 78.943 77.8322 78.3718 78.0351C77.9406 78.2066 77.7216 78.4194 77.7627 78.5497Z" fill="#263238"/>
<path d="M68.2445 79.1098C68.4224 79.3363 69.1136 79.1098 69.9417 79.1098C70.7698 79.1098 71.4747 79.2676 71.639 79.0275C71.7074 78.9108 71.5979 78.6844 71.2899 78.4648C70.8826 78.2024 70.4051 78.0707 69.9212 78.0873C69.4282 78.0931 68.9494 78.2539 68.5525 78.5471C68.2787 78.7598 68.1829 78.9932 68.2445 79.1098Z" fill="#263238"/>
<path d="M68.8063 72.6693C69.0633 72.1336 69.4637 71.6799 69.9627 71.3588C70.4618 71.0378 71.0399 70.8619 71.6327 70.8508C72.8205 70.8538 73.9832 71.1941 74.9861 71.8321C79.3113 74.3437 81.5355 80.4031 85.8129 82.997C86.8668 83.6352 88.2355 83.0519 89.1321 83.896C90.0286 84.74 90.6035 86.0919 90.1107 87.2242C90.7228 86.4599 91.2229 85.6118 91.5958 84.7057C91.779 84.2509 91.8628 83.7619 91.8415 83.2718C91.8203 82.7818 91.6945 82.3019 91.4726 81.8647C91.103 81.2197 90.4529 80.7325 90.275 80.0119C90.2273 79.3619 90.2479 78.7087 90.3365 78.0631C90.2566 77.398 90.0222 76.7611 89.6522 76.2034C88.0416 73.1723 85.6378 70.6386 82.699 68.8745C80.762 67.7528 78.5571 67.1811 76.3206 67.2207C74.0742 67.2722 71.9206 68.1291 70.2503 69.6362C69.299 70.5283 68.293 71.4547 68.7857 72.6693" fill="#263238"/>
<path d="M89.0313 84.8013C89.1065 84.5886 92.8979 83.2161 92.9459 87.258C92.9938 91.1832 89.0449 90.4146 89.0381 90.298C89.0312 90.1813 89.0313 84.8013 89.0313 84.8013Z" fill="#FFBF9D"/>
<path d="M90.2224 88.8082C90.2224 88.8082 90.2909 88.8562 90.4072 88.9043C90.5718 88.9711 90.7559 88.9711 90.9205 88.9043C91.1712 88.741 91.3742 88.514 91.5088 88.2463C91.6435 87.9787 91.705 87.6801 91.687 87.3809C91.6925 87.0425 91.6224 86.7072 91.4817 86.3996C91.4446 86.2782 91.3785 86.1678 91.289 86.0781C91.1995 85.9884 91.0894 85.922 90.9684 85.8849C90.8901 85.864 90.807 85.871 90.7333 85.9048C90.6597 85.9386 90.6 85.9971 90.5646 86.0702C90.5167 86.1868 90.5646 86.2623 90.5167 86.2692C90.4688 86.276 90.4346 86.2006 90.462 86.0427C90.4841 85.9445 90.5398 85.8571 90.6194 85.7957C90.6716 85.7534 90.732 85.7224 90.7968 85.7047C90.8616 85.6869 90.9293 85.6829 90.9958 85.6927C91.1564 85.7226 91.3067 85.7931 91.4325 85.8976C91.5582 86.0021 91.6553 86.1371 91.7144 86.2898C91.8838 86.6304 91.9684 87.0071 91.9607 87.3877C91.9816 87.7363 91.9 88.0833 91.726 88.3859C91.5521 88.6884 91.2934 88.9331 90.9821 89.0896C90.8766 89.1211 90.7654 89.1289 90.6565 89.1123C90.5477 89.0957 90.4438 89.0551 90.3525 88.9935C90.2293 88.9043 90.2087 88.8151 90.2224 88.8082Z" fill="#FF9A6C"/>
<path d="M90.5893 82.7867C90.5078 82.7481 90.4299 82.7021 90.3567 82.6494C90.1212 82.5223 89.8928 82.3825 89.6723 82.2308C88.8992 81.6675 88.1901 81.0209 87.5576 80.3025C86.634 79.2305 85.7704 78.1079 84.9707 76.94C84.0084 75.5068 82.9278 74.157 81.7404 72.905C81.12 72.2784 80.4313 71.7236 79.6873 71.2512C78.9812 70.8195 78.2251 70.4761 77.4357 70.2287C76.0981 69.7963 74.6909 69.6216 73.2884 69.7141C72.3419 69.7711 71.4073 69.9558 70.5099 70.263C70.1882 70.3591 69.9487 70.4689 69.7845 70.5307C69.7041 70.5708 69.619 70.6007 69.5312 70.6199L69.7708 70.4964C69.935 70.4277 70.1677 70.3042 70.4552 70.1944C71.353 69.8626 72.293 69.6593 73.2474 69.5905C74.6681 69.4753 76.0977 69.6385 77.4563 70.0709C78.2585 70.3216 79.0281 70.6671 79.7489 71.1002C80.5124 71.5796 81.2215 72.1411 81.8636 72.7746C83.0608 74.034 84.1462 75.3956 85.1075 76.844C85.8946 78.0147 86.7445 79.1418 87.6534 80.2202C88.2719 80.9383 88.9596 81.5934 89.7065 82.1759C89.9734 82.3818 90.1924 82.519 90.3361 82.622C90.428 82.6644 90.5132 82.7199 90.5893 82.7867Z" fill="#455A64"/>
<path d="M90.6708 89.4964C90.863 89.4619 91.061 89.5023 91.2245 89.6093C91.388 89.7163 91.5046 89.8818 91.5505 90.072C91.5965 90.2623 91.5683 90.4629 91.4718 90.6331C91.3752 90.8032 91.2176 90.93 91.031 90.9875C90.8444 91.0451 90.6429 91.0291 90.4677 90.9428C90.2925 90.8566 90.1567 90.7065 90.088 90.5232C90.0194 90.34 90.023 90.1374 90.0983 89.9568C90.1735 89.7761 90.3146 89.6311 90.4928 89.5512" fill="white"/>
<path d="M90.4851 89.5512C90.3154 89.6867 90.1912 89.8711 90.1292 90.0796C90.1028 90.187 90.1027 90.2994 90.1289 90.4069C90.1551 90.5144 90.2069 90.614 90.2798 90.6972C90.3671 90.8007 90.483 90.876 90.613 90.9135C90.7429 90.9511 90.8811 90.9492 91.0099 90.9081C91.1388 90.8669 91.2526 90.7885 91.337 90.6825C91.4215 90.5766 91.4727 90.448 91.4843 90.3129C91.4966 90.2036 91.4825 90.0929 91.4432 89.9902C91.4039 89.8875 91.3405 89.7957 91.2584 89.7227C91.0865 89.5901 90.8794 89.5114 90.663 89.4963C90.7182 89.462 90.7834 89.4475 90.8478 89.4551C90.959 89.4566 91.0687 89.481 91.1701 89.5267C91.2715 89.5724 91.3626 89.6384 91.4376 89.7207C91.5126 89.803 91.57 89.8998 91.6063 90.0052C91.6426 90.1106 91.6569 90.2223 91.6485 90.3335C91.6385 90.5023 91.5776 90.6642 91.474 90.7977C91.3704 90.9312 91.2289 91.0301 91.0681 91.0814C90.9073 91.1326 90.7348 91.1339 90.5733 91.0849C90.4118 91.0359 90.2689 90.939 90.1634 90.807C90.0905 90.7222 90.0359 90.6231 90.0034 90.5159C89.9709 90.4088 89.9611 90.2961 89.9747 90.1849C89.9882 90.0737 90.0248 89.9666 90.082 89.8705C90.1393 89.7744 90.216 89.6913 90.3072 89.6266C90.4098 89.558 90.4783 89.5443 90.4851 89.5512Z" fill="#263238"/>
<path d="M89.5986 83.8965C89.7534 84.9641 89.621 86.0539 89.2153 87.0531C88.7226 88.007 87.477 88.652 86.5463 88.1168C85.7866 87.6844 85.5608 86.7443 85.4307 85.8454C85.0612 83.3406 84.8901 80.8153 84.5 78.2969L89.5986 83.8965Z" fill="#263238"/>
<path d="M69.7734 70.8121C69.7734 70.8121 70.1156 70.7434 70.7452 70.7229C71.6323 70.7106 72.5132 70.8715 73.339 71.1964C73.9074 71.4178 74.451 71.6984 74.961 72.0336C75.5437 72.429 76.1035 72.8575 76.6377 73.3168C77.8674 74.3643 78.9679 75.5553 79.9158 76.8646C80.4086 77.5508 80.8534 78.2851 81.3256 78.9233C81.7811 79.5718 82.3092 80.1658 82.8997 80.6937C83.9144 81.5555 85.0233 82.2991 86.2052 82.9103C87.2112 83.4455 88.0461 83.8161 88.621 84.07L89.3054 84.3582C89.382 84.3943 89.4623 84.4219 89.5449 84.4405C89.4781 84.3893 89.4043 84.3477 89.3259 84.317L88.6758 83.9945C88.1077 83.7131 87.307 83.3083 86.2941 82.773C85.1336 82.1491 84.0437 81.4014 83.0434 80.5428C82.4705 80.0216 81.9585 79.4368 81.5172 78.7998C81.0519 78.1135 80.607 77.4273 80.1074 76.7068C79.1507 75.3835 78.0334 74.1849 76.7814 73.1384C76.2442 72.676 75.6773 72.2496 75.0842 71.862C74.5615 71.5255 74.0039 71.247 73.4211 71.0317C72.5772 70.7083 71.6746 70.568 70.7726 70.6199C70.5288 70.6345 70.2864 70.6666 70.0472 70.716C69.9521 70.7359 69.8601 70.7682 69.7734 70.8121Z" fill="#455A64"/>
<path d="M89.7031 81.4666C89.808 81.5604 89.9255 81.6389 90.0522 81.6999L91.0377 82.2832L91.373 82.4753C91.5048 82.5537 91.6518 82.6028 91.8041 82.6194C91.8976 82.6313 91.9922 82.6094 92.0711 82.5577C92.1127 82.5275 92.1471 82.4885 92.172 82.4434C92.1968 82.3983 92.2114 82.3483 92.2148 82.2969C92.2051 82.1171 92.1406 81.9447 92.03 81.8028L90.8802 79.9569L90.7228 80.101C91.1027 80.3818 91.529 80.5932 91.9821 80.7255C92.4357 80.8663 92.9109 80.9244 93.385 80.897C93.5059 80.8923 93.6255 80.8715 93.7409 80.8353C93.8069 80.814 93.8677 80.7793 93.9195 80.7332C93.9714 80.6871 94.0131 80.6307 94.042 80.5676C94.0664 80.5011 94.0729 80.4293 94.0608 80.3595C94.0488 80.2896 94.0188 80.2242 93.9736 80.1696C93.9075 80.0813 93.8343 79.9987 93.7546 79.9226C93.238 79.4234 92.7893 78.8581 92.4201 78.2413C92.094 77.6587 91.8104 77.0533 91.5715 76.4297C91.5873 76.6108 91.6288 76.7887 91.6946 76.9581C91.847 77.4332 92.044 77.8928 92.2832 78.3305C92.6441 78.9739 93.0908 79.5649 93.6109 80.0873C93.7546 80.2245 93.9052 80.3824 93.8436 80.5059C93.782 80.6294 93.5767 80.6911 93.3714 80.6911C92.9231 80.7125 92.4745 80.6592 92.0437 80.5333C91.6149 80.4059 91.2118 80.2038 90.8529 79.9363L90.3875 79.6001L90.6955 80.0873L91.8726 81.9195C91.9646 82.0255 92.0219 82.1572 92.0368 82.2969C92.0344 82.3236 92.0265 82.3494 92.0136 82.3728C92.0006 82.3962 91.983 82.4166 91.9617 82.4327C91.9404 82.4489 91.9161 82.4604 91.8901 82.4665C91.8642 82.4727 91.8372 82.4734 91.811 82.4685C91.5676 82.4139 91.3359 82.3163 91.1266 82.1803L90.1069 81.6519C89.98 81.5746 89.8444 81.5124 89.7031 81.4666Z" fill="#455A64"/>
<path d="M78.128 91.9367C78.0556 91.6345 77.8779 91.3682 77.6269 91.1857C77.376 91.0033 77.0683 90.9168 76.7593 90.9417C76.5358 90.9698 76.3227 91.0528 76.1388 91.1833C75.955 91.3137 75.8061 91.4877 75.7053 91.6897C75.6074 91.8939 75.5515 92.1158 75.5409 92.3422C75.5303 92.5686 75.5653 92.7947 75.6438 93.0073V93.0965C75.8514 93.3236 76.1241 93.4805 76.4244 93.5456C76.7247 93.6108 77.0378 93.5809 77.3205 93.4602C77.6085 93.3372 77.8459 93.1188 77.9928 92.8416C78.1398 92.5644 78.1875 92.245 78.128 91.9367Z" fill="#FF9A6C"/>
<path d="M74.9533 93.1342C74.9533 92.9763 75.9661 93.0244 76.7326 92.1941C77.4991 91.3637 77.417 90.2726 77.5744 90.2658C77.7318 90.2589 77.7592 90.5197 77.7523 90.952C77.7301 91.5471 77.5 92.1155 77.1022 92.5578C76.7193 92.9823 76.1867 93.2407 75.6171 93.2783C75.1928 93.3195 74.9464 93.1959 74.9533 93.1342Z" fill="#263238"/>
<path d="M59.4986 171.081C60.4088 166.353 63.3311 150.44 63.3311 147.221C63.3311 146.693 62.5099 145.039 62.3593 144.524C61.5038 141.656 58.5336 131.088 59.1975 125.516C59.7313 121.062 63.4886 115.367 64.6178 112.32C65.1448 110.885 69.3674 109.41 70.7773 108.82L73.768 104.586C73.768 104.586 73.0837 106.555 75.7596 108.326C77.1824 109.247 78.8592 109.694 80.5503 109.602C82.2366 109.525 83.8887 109.099 85.4032 108.352C86.9177 107.604 88.2619 106.551 89.3515 105.258L89.8443 105.643C99.5078 108.765 99.4257 108.786 101.26 109.568C103.648 110.577 96.079 135.157 96.079 135.157C96.079 135.157 91.61 151.757 94.0259 156.904C95.3947 159.8 99.9527 164.583 101.109 167.273C101.109 167.273 103.121 170.093 103.162 170.8C103.204 171.507 91.261 176.695 81.837 177.223C64.4262 178.225 59.4986 171.081 59.4986 171.081Z" fill="#F5F5F5"/>
<path d="M132.099 214.234H60.6358C59.2146 214.234 58.0625 215.39 58.0625 216.815V231.658C58.0625 233.083 59.2146 234.238 60.6358 234.238H132.099C133.521 234.238 134.673 233.083 134.673 231.658V216.815C134.673 215.39 133.521 214.234 132.099 214.234Z" fill="#263238"/>
<path d="M126.018 219H93.0172C92.7488 219 92.5312 219.218 92.5312 219.487V229.808C92.5312 230.077 92.7488 230.295 93.0172 230.295H126.018C126.286 230.295 126.503 230.077 126.503 229.808V219.487C126.503 219.218 126.286 219 126.018 219Z" fill="white"/>
<path d="M75.5163 228.742C77.769 228.742 79.5952 226.911 79.5952 224.652C79.5952 222.394 77.769 220.562 75.5163 220.562C73.2637 220.562 71.4375 222.394 71.4375 224.652C71.4375 226.911 73.2637 228.742 75.5163 228.742Z" fill="#263238"/>
<path d="M75.525 229.435C74.5775 229.435 73.6513 229.154 72.8635 228.626C72.0756 228.098 71.4616 227.348 71.099 226.47C70.7365 225.592 70.6416 224.626 70.8264 223.695C71.0113 222.763 71.4675 221.907 72.1375 221.235C72.8075 220.563 73.6611 220.106 74.5904 219.92C75.5197 219.735 76.4829 219.83 77.3583 220.194C78.2336 220.557 78.9818 221.173 79.5082 221.963C80.0346 222.753 80.3156 223.682 80.3156 224.632C80.3156 225.906 79.8108 227.127 78.9124 228.028C78.014 228.929 76.7955 229.435 75.525 229.435ZM75.525 221.255C74.8482 221.255 74.1866 221.457 73.6239 221.834C73.0612 222.211 72.6226 222.747 72.3636 223.374C72.1046 224.001 72.0368 224.69 72.1689 225.356C72.3009 226.022 72.6268 226.633 73.1054 227.113C73.5839 227.593 74.1936 227.919 74.8574 228.052C75.5212 228.184 76.2092 228.116 76.8345 227.857C77.4597 227.597 77.9941 227.157 78.3701 226.593C78.7461 226.029 78.9468 225.365 78.9468 224.687C78.9468 223.777 78.5863 222.904 77.9446 222.26C77.3029 221.617 76.4325 221.255 75.525 221.255Z" fill="#E0E0E0"/>
<path d="M96.099 220.938C96.3351 223.448 96.3351 225.975 96.099 228.486C95.8628 225.975 95.8628 223.448 96.099 220.938Z" fill="#E0E0E0"/>
<path d="M99.4037 220.938C99.6398 223.448 99.6398 225.975 99.4037 228.486C99.1675 225.975 99.1675 223.448 99.4037 220.938Z" fill="#E0E0E0"/>
<path d="M102.701 220.938C102.937 223.448 102.937 225.975 102.701 228.486C102.464 225.975 102.464 223.448 102.701 220.938Z" fill="#E0E0E0"/>
<path d="M106.005 220.938C106.241 223.448 106.241 225.975 106.005 228.486C105.769 225.975 105.769 223.448 106.005 220.938Z" fill="#E0E0E0"/>
<path d="M109.302 220.938C109.538 223.448 109.538 225.975 109.302 228.486C109.066 225.975 109.066 223.448 109.302 220.938Z" fill="#E0E0E0"/>
<path d="M112.622 220.938C112.859 223.448 112.859 225.975 112.622 228.486C112.386 225.975 112.386 223.448 112.622 220.938Z" fill="#E0E0E0"/>
<path d="M115.927 220.938C116.163 223.448 116.163 225.975 115.927 228.486C115.691 225.975 115.691 223.448 115.927 220.938Z" fill="#E0E0E0"/>
<path d="M119.224 220.938C119.46 223.448 119.46 225.975 119.224 228.486C118.988 225.975 118.988 223.448 119.224 220.938Z" fill="#E0E0E0"/>
<path d="M122.529 220.938C122.765 223.448 122.765 225.975 122.529 228.486C122.293 225.975 122.293 223.448 122.529 220.938Z" fill="#E0E0E0"/>
<path d="M132.099 194.977H60.6358C59.2146 194.977 58.0625 196.132 58.0625 197.557V212.4C58.0625 213.825 59.2146 214.98 60.6358 214.98H132.099C133.521 214.98 134.673 213.825 134.673 212.4V197.557C134.673 196.132 133.521 194.977 132.099 194.977Z" fill="#455A64"/>
<path d="M126.018 199.734H93.0172C92.7488 199.734 92.5312 199.953 92.5312 200.222V210.542C92.5312 210.812 92.7488 211.03 93.0172 211.03H126.018C126.286 211.03 126.503 210.812 126.503 210.542V200.222C126.503 199.953 126.286 199.734 126.018 199.734Z" fill="white"/>
<path d="M75.5163 209.492C77.769 209.492 79.5952 207.661 79.5952 205.402C79.5952 203.144 77.769 201.312 75.5163 201.312C73.2637 201.312 71.4375 203.144 71.4375 205.402C71.4375 207.661 73.2637 209.492 75.5163 209.492Z" fill="#263238"/>
<path d="M75.525 210.17C74.5775 210.17 73.6513 209.888 72.8635 209.36C72.0756 208.832 71.4616 208.082 71.099 207.204C70.7365 206.327 70.6416 205.361 70.8264 204.429C71.0113 203.497 71.4675 202.641 72.1375 201.969C72.8075 201.298 73.6611 200.84 74.5904 200.655C75.5197 200.469 76.4829 200.565 77.3583 200.928C78.2336 201.292 78.9818 201.907 79.5082 202.697C80.0346 203.487 80.3156 204.416 80.3156 205.366C80.3156 206.64 79.8108 207.862 78.9124 208.763C78.014 209.664 76.7955 210.17 75.525 210.17ZM75.525 201.997C74.8467 201.997 74.1838 202.199 73.6204 202.577C73.0569 202.956 72.6184 203.494 72.3605 204.123C72.1025 204.752 72.0368 205.443 72.1716 206.11C72.3064 206.776 72.6357 207.388 73.1177 207.866C73.5997 208.345 74.2126 208.669 74.8786 208.797C75.5446 208.926 76.2337 208.853 76.8583 208.588C77.483 208.323 78.015 207.878 78.3868 207.309C78.7587 206.74 78.9536 206.074 78.9468 205.394C78.9378 204.489 78.5733 203.626 77.9326 202.989C77.2918 202.353 76.4266 201.997 75.525 201.997Z" fill="#E0E0E0"/>
<path d="M96.0993 201.672C96.3359 204.182 96.3359 206.71 96.0993 209.22C95.8627 206.71 95.8627 204.182 96.0993 201.672Z" fill="#E0E0E0"/>
<path d="M99.404 201.672C99.6406 204.182 99.6406 206.71 99.404 209.22C99.1674 206.71 99.1674 204.182 99.404 201.672Z" fill="#E0E0E0"/>
<path d="M102.701 201.672C102.937 204.182 102.937 206.71 102.701 209.22C102.464 206.71 102.464 204.182 102.701 201.672Z" fill="#E0E0E0"/>
<path d="M106.006 201.672C106.242 204.182 106.242 206.71 106.006 209.22C105.769 206.71 105.769 204.182 106.006 201.672Z" fill="#E0E0E0"/>
<path d="M109.302 201.672C109.539 204.182 109.539 206.71 109.302 209.22C109.066 206.71 109.066 204.182 109.302 201.672Z" fill="#E0E0E0"/>
<path d="M112.623 201.672C112.859 204.182 112.859 206.71 112.623 209.22C112.386 206.71 112.386 204.182 112.623 201.672Z" fill="#E0E0E0"/>
<path d="M115.927 201.672C116.164 204.182 116.164 206.71 115.927 209.22C115.691 206.71 115.691 204.182 115.927 201.672Z" fill="#E0E0E0"/>
<path d="M119.224 201.672C119.461 204.182 119.461 206.71 119.224 209.22C118.988 206.71 118.988 204.182 119.224 201.672Z" fill="#E0E0E0"/>
<path d="M122.529 201.672C122.766 204.182 122.766 206.71 122.529 209.22C122.292 206.71 122.292 204.182 122.529 201.672Z" fill="#E0E0E0"/>
<path d="M132.099 234.336H60.6358C59.2146 234.336 58.0625 235.491 58.0625 236.916V251.759C58.0625 253.184 59.2146 254.339 60.6358 254.339H132.099C133.521 254.339 134.673 253.184 134.673 251.759V236.916C134.673 235.491 133.521 234.336 132.099 234.336Z" fill="#E0E0E0"/>
<path d="M126.018 239.117H93.0172C92.7488 239.117 92.5312 239.335 92.5312 239.604V249.925C92.5312 250.194 92.7488 250.412 93.0172 250.412H126.018C126.286 250.412 126.503 250.194 126.503 249.925V239.604C126.503 239.335 126.286 239.117 126.018 239.117Z" fill="white"/>
<path d="M79.5953 244.789C79.5953 243.975 79.3544 243.179 78.9032 242.502C78.452 241.825 77.8107 241.297 77.0604 240.985C76.3101 240.674 75.4845 240.592 74.688 240.751C73.8914 240.91 73.1598 241.302 72.5855 241.878C72.0112 242.454 71.6202 243.187 71.4617 243.986C71.3033 244.785 71.3846 245.613 71.6954 246.365C72.0062 247.117 72.5325 247.76 73.2077 248.213C73.883 248.665 74.6769 248.907 75.489 248.907C76.5781 248.907 77.6225 248.473 78.3926 247.701C79.1626 246.928 79.5953 245.881 79.5953 244.789Z" fill="#263238"/>
<path d="M75.525 249.545C74.5775 249.545 73.6513 249.263 72.8635 248.735C72.0756 248.207 71.4616 247.457 71.099 246.579C70.7365 245.702 70.6416 244.736 70.8264 243.804C71.0113 242.872 71.4675 242.016 72.1375 241.344C72.8075 240.673 73.6611 240.215 74.5904 240.03C75.5197 239.844 76.4829 239.94 77.3583 240.303C78.2336 240.667 78.9818 241.282 79.5082 242.072C80.0346 242.862 80.3156 243.791 80.3156 244.741C80.3156 246.015 79.8108 247.237 78.9124 248.138C78.014 249.039 76.7955 249.545 75.525 249.545ZM75.525 241.365C74.8482 241.365 74.1866 241.566 73.6239 241.943C73.0612 242.32 72.6226 242.856 72.3636 243.483C72.1046 244.11 72.0368 244.8 72.1689 245.465C72.3009 246.131 72.6268 246.742 73.1054 247.222C73.5839 247.702 74.1936 248.029 74.8574 248.161C75.5212 248.294 76.2092 248.226 76.8345 247.966C77.4597 247.706 77.9941 247.266 78.3701 246.702C78.7461 246.138 78.9468 245.475 78.9468 244.796C78.9477 244.345 78.8599 243.898 78.6883 243.481C78.5168 243.064 78.2648 242.685 77.947 242.365C77.6292 242.046 77.2516 241.793 76.836 241.62C76.4204 241.447 75.9749 241.358 75.525 241.358V241.365Z" fill="#F5F5F5"/>
<path d="M96.0993 241.047C96.3359 243.557 96.3359 246.085 96.0993 248.595C95.8627 246.085 95.8627 243.557 96.0993 241.047Z" fill="#E0E0E0"/>
<path d="M99.404 241.047C99.6406 243.557 99.6406 246.085 99.404 248.595C99.1674 246.085 99.1674 243.557 99.404 241.047Z" fill="#E0E0E0"/>
<path d="M102.701 241.047C102.937 243.557 102.937 246.085 102.701 248.595C102.464 246.085 102.464 243.557 102.701 241.047Z" fill="#E0E0E0"/>
<path d="M106.006 241.047C106.242 243.557 106.242 246.085 106.006 248.595C105.769 246.085 105.769 243.557 106.006 241.047Z" fill="#E0E0E0"/>
<path d="M109.302 241.047C109.539 243.557 109.539 246.085 109.302 248.595C109.066 246.085 109.066 243.557 109.302 241.047Z" fill="#E0E0E0"/>
<path d="M112.623 241.047C112.859 243.557 112.859 246.085 112.623 248.595C112.386 246.085 112.386 243.557 112.623 241.047Z" fill="#E0E0E0"/>
<path d="M115.927 241.047C116.164 243.557 116.164 246.085 115.927 248.595C115.691 246.085 115.691 243.557 115.927 241.047Z" fill="#E0E0E0"/>
<path d="M119.224 241.047C119.461 243.557 119.461 246.085 119.224 248.595C118.988 246.085 118.988 243.557 119.224 241.047Z" fill="#E0E0E0"/>
<path d="M122.529 241.047C122.766 243.557 122.766 246.085 122.529 248.595C122.292 246.085 122.292 243.557 122.529 241.047Z" fill="#E0E0E0"/>
<path d="M21.3081 213.984L15.6347 226.254C15.6347 226.254 1.46824 224.374 0.195312 226.542L23.3613 238.647L32.9835 219.879L21.3081 213.984Z" fill="#455A64"/>
<path d="M23.1914 228.885C23.3818 229.07 23.498 229.319 23.5182 229.585C23.5384 229.85 23.4611 230.114 23.3009 230.326C23.1233 230.524 22.8769 230.646 22.6123 230.668C22.3476 230.69 22.0847 230.609 21.8774 230.443C21.6752 230.247 21.5528 229.982 21.5338 229.701C21.5149 229.419 21.6007 229.141 21.7747 228.919C21.9799 228.733 22.2489 228.633 22.5255 228.641C22.8022 228.649 23.0652 228.763 23.2598 228.96" fill="#E0E0E0"/>
<path d="M23.3634 238.666L24.1299 237.17L1.41562 225.875C1.14893 225.901 0.890177 225.98 0.654942 226.109C0.419708 226.237 0.212864 226.412 0.046875 226.623L23.3634 238.666Z" fill="#263238"/>
<path d="M15.3866 226.263C15.3319 226.38 15.8794 226.73 16.2558 227.382C16.6322 228.033 16.6938 228.679 16.817 228.685C16.9401 228.692 17.1112 227.944 16.6459 227.155C16.1805 226.366 15.414 226.126 15.3866 226.263Z" fill="#263238"/>
<path d="M12.4017 226.006C12.3196 226.109 12.7165 226.555 12.8602 227.242C13.0039 227.928 12.8602 228.497 12.9697 228.552C13.0792 228.607 13.4898 227.989 13.2982 227.18C13.1066 226.37 12.4564 225.903 12.4017 226.006Z" fill="#263238"/>
<path d="M9.50334 228.249C9.59915 228.324 10.0508 227.83 10.0714 227.048C10.0919 226.266 9.68812 225.744 9.59231 225.82C9.4965 225.895 9.6539 226.396 9.62653 227.034C9.59915 227.673 9.387 228.18 9.50334 228.249Z" fill="#263238"/>
<path d="M17.0002 223.57C17.0002 223.701 17.6024 223.804 18.2321 224.181C18.8617 224.559 19.2586 225.018 19.3681 224.95C19.4776 224.881 19.197 224.222 18.4511 223.79C17.7051 223.358 16.9865 223.447 17.0002 223.57Z" fill="#263238"/>
<path d="M17.8988 220.769C17.8988 220.817 18.2889 221.119 19.0827 221.366C19.5465 221.501 20.024 221.584 20.5062 221.613C20.791 221.633 21.0769 221.633 21.3617 221.613C21.5321 221.607 21.7006 221.574 21.8613 221.517C21.9768 221.472 22.0748 221.391 22.1403 221.286C22.2058 221.181 22.2351 221.057 22.224 220.933C22.2052 220.824 22.1622 220.721 22.0982 220.631C22.0343 220.54 21.951 220.466 21.8544 220.412C21.7028 220.336 21.5417 220.28 21.3754 220.247C21.0943 220.182 20.808 220.143 20.5199 220.131C20.031 220.107 19.5414 220.16 19.069 220.288C18.2683 220.522 17.8646 220.858 17.8919 220.899C17.9193 220.94 18.371 220.734 19.1375 220.604C19.5892 220.525 20.0492 220.504 20.5062 220.542C20.7697 220.566 21.0307 220.612 21.2864 220.68C21.567 220.741 21.7792 220.844 21.7928 220.988C21.8065 221.132 21.7928 221.064 21.697 221.105C21.5803 221.146 21.458 221.169 21.3343 221.174C21.0688 221.207 20.8012 221.221 20.5336 221.215C20.074 221.214 19.6155 221.168 19.1649 221.078C18.7505 220.945 18.3275 220.842 17.8988 220.769Z" fill="#263238"/>
<path d="M43.3436 233.714L44.0622 247.226C44.0622 247.226 30.669 252.215 30.5938 254.726L56.7093 254.555L56.4561 233.453L43.3436 233.714Z" fill="#455A64"/>
<path d="M51.9753 246.012C52.2298 246.084 52.4487 246.248 52.5901 246.472C52.7315 246.696 52.7856 246.965 52.7418 247.226C52.6797 247.485 52.5207 247.71 52.2977 247.854C52.0747 247.999 51.8049 248.052 51.5442 248.002C51.2731 247.925 51.0404 247.749 50.8912 247.509C50.7419 247.27 50.6868 246.983 50.7366 246.705C50.7807 246.569 50.8512 246.444 50.9441 246.335C51.037 246.227 51.1505 246.139 51.2778 246.075C51.4052 246.011 51.5439 245.973 51.686 245.963C51.8281 245.954 51.9706 245.973 52.1054 246.019" fill="#E0E0E0"/>
<path d="M56.6743 254.572V252.891L31.3526 253.577C31.1238 253.724 30.928 253.917 30.7772 254.144C30.6265 254.371 30.5241 254.626 30.4766 254.894L56.6743 254.572Z" fill="#263238"/>
<path d="M43.8288 247.334C43.8288 247.457 44.5132 247.505 45.1223 247.91C45.7314 248.315 46.1146 248.85 46.231 248.802C46.3473 248.754 46.142 248.006 45.355 247.526C44.568 247.045 43.8015 247.21 43.8288 247.334Z" fill="#263238"/>
<path d="M41.0859 248.531C41.0859 248.655 41.6197 248.867 42.0714 249.403C42.5231 249.938 42.6531 250.514 42.7558 250.507C42.8585 250.5 42.9543 249.766 42.3862 249.135C41.8182 248.504 41.0859 248.407 41.0859 248.531Z" fill="#263238"/>
<path d="M39.5739 251.87C39.6902 251.87 39.8613 251.253 39.5191 250.546C39.1769 249.839 38.5678 249.578 38.5131 249.688C38.4583 249.798 38.8416 250.162 39.1153 250.745C39.3891 251.328 39.4438 251.864 39.5739 251.87Z" fill="#263238"/>
<path d="M44.0134 244.216C44.0682 244.332 44.6568 244.14 45.3822 244.181C46.1076 244.223 46.6825 244.435 46.7509 244.326C46.8194 244.216 46.2582 243.763 45.3822 243.729C44.5062 243.694 43.945 244.106 44.0134 244.216Z" fill="#263238"/>
<path d="M43.4844 241.304C43.916 241.428 44.3736 241.428 44.8052 241.304C45.2777 241.212 45.7373 241.062 46.174 240.858C46.4355 240.739 46.6872 240.599 46.9268 240.44C47.0738 240.354 47.2075 240.248 47.3237 240.124C47.4032 240.029 47.4507 239.912 47.4593 239.789C47.4679 239.665 47.4372 239.542 47.3716 239.438C47.304 239.35 47.2169 239.278 47.1171 239.229C47.0174 239.181 46.9077 239.156 46.7967 239.156C46.6295 239.154 46.463 239.18 46.304 239.232C46.0245 239.306 45.752 239.405 45.4896 239.527C45.0477 239.737 44.6413 240.015 44.2851 240.35C43.6828 240.927 43.4844 241.414 43.5254 241.442C43.5665 241.469 43.8745 241.071 44.4904 240.591C44.8488 240.311 45.2423 240.081 45.6607 239.904C45.9056 239.805 46.1571 239.722 46.4135 239.657C46.6872 239.582 46.9268 239.575 47.002 239.698C47.0773 239.822 47.002 239.76 47.002 239.849C46.9172 239.938 46.8205 240.014 46.7146 240.076C46.4947 240.227 46.2662 240.364 46.0302 240.488C45.6256 240.699 45.2016 240.872 44.7642 241.002C44.3313 241.074 43.9037 241.175 43.4844 241.304Z" fill="#263238"/>
<path d="M103.083 168.839C103.083 168.839 49.5983 162.484 46.5185 162.484C39.2777 162.484 35.8832 167.803 34.8018 172.092C34.0011 175.248 17.8906 220.882 17.8906 220.882L29.7784 227.058L47.2508 195.917L56.1478 180.381L102.05 187.49L103.083 168.839Z" fill="#263238"/>
<path d="M53.9988 178.908C53.9988 178.908 46.8264 178.908 42.9528 184.659C40.6737 188.042 41.4745 194.088 41.4266 198.651C41.365 204.862 42.8638 242.7 42.8638 242.7L57.537 242.94L60.6099 203.51L60.4251 196.215L89.7169 193.827C89.7169 193.827 92.386 184.906 85.8296 177.9C84.9809 177.014 53.9988 178.908 53.9988 178.908Z" fill="#263238"/>
<path d="M103.059 169.582C103.059 169.582 107.624 180.157 101.458 189.208C97.3517 195.178 89.5704 193.813 89.5704 193.813L79.1953 180.774L87.4762 167.805L103.059 169.582Z" fill="#263238"/>
<path d="M42.8672 242.727C42.9536 242.717 43.0409 242.717 43.1273 242.727H43.8869H46.8093L57.5404 242.844L57.4104 242.967C57.9784 235.048 58.7381 224.398 59.5799 212.698C59.8605 208.889 60.1343 205.19 60.3943 201.677C60.3441 199.81 60.3008 197.999 60.2643 196.242V196.064H60.4217C68.7507 195.377 75.8478 194.794 80.8575 194.334C83.3692 194.101 85.3539 193.916 86.709 193.765C87.3934 193.696 87.9067 193.614 88.2626 193.573C88.4365 193.532 88.6124 193.5 88.7895 193.477C88.6197 193.538 88.4459 193.589 88.2694 193.628C87.9204 193.689 87.4002 193.785 86.7227 193.868C85.3539 194.06 83.3829 194.279 80.878 194.554C75.8683 195.075 68.7712 195.721 60.4491 196.42L60.5996 196.249C60.6498 198.006 60.6977 199.817 60.7434 201.684C60.4901 205.197 60.2164 208.896 59.9426 212.705C59.0666 224.37 58.2659 235.048 57.6773 242.967V243.091H57.5541L46.8298 242.851L43.9075 242.768L43.1273 242.727H42.8672Z" fill="#455A64"/>
<path d="M89.576 193.805C89.576 193.805 89.5144 193.764 89.3844 193.702L88.8027 193.427L86.5442 192.405L78.2152 188.686L65.8552 183.196L58.5528 179.97C57.9163 179.696 57.3003 179.387 56.616 179.154C55.9488 178.914 55.2617 178.735 54.5628 178.619C53.114 178.402 51.6422 178.388 50.1896 178.577C48.7317 178.75 47.3108 179.156 45.9806 179.778C45.3107 180.079 44.69 180.479 44.1396 180.965C43.6101 181.446 43.1617 182.009 42.8119 182.633C42.1198 183.835 41.7015 185.175 41.5868 186.558C41.5321 187.244 41.5868 187.896 41.5868 188.548C41.5868 189.2 41.5868 189.852 41.5868 190.49C41.6484 195.582 41.6963 200.18 41.7442 204.036C41.7922 207.893 41.8401 211.002 41.8743 213.177C41.8743 214.241 41.8743 215.071 41.9222 215.661V216.306C41.9134 216.379 41.9134 216.453 41.9222 216.526C41.9222 216.526 41.9222 216.45 41.9222 216.306C41.9222 216.162 41.9222 215.929 41.9222 215.654C41.9222 215.071 41.9222 214.241 41.9222 213.17C41.9222 211.002 41.9222 207.879 41.8811 204.036C41.8401 200.194 41.8264 195.582 41.7922 190.483C41.7922 189.852 41.7922 189.207 41.7922 188.548C41.7922 187.889 41.7922 187.231 41.7922 186.586C41.9062 185.244 42.3127 183.944 42.983 182.777C43.3232 182.18 43.7551 181.64 44.2628 181.178C44.7848 180.717 45.3702 180.333 46.0011 180.039C47.3006 179.437 48.6863 179.044 50.1075 178.872C51.5325 178.685 52.9767 178.696 54.3986 178.907C55.0978 179.015 55.7853 179.19 56.4517 179.428C57.1361 179.648 57.7384 179.97 58.3748 180.238L65.6841 183.443L78.0646 188.871L86.4278 192.501L88.7069 193.475L89.3023 193.722L89.576 193.805Z" fill="#455A64"/>
<path d="M63.1022 141.008C63.0904 140.719 63.0514 140.432 62.9859 140.15C62.8901 139.608 62.7737 138.812 62.6642 137.824C62.5547 136.836 62.4794 135.662 62.4589 134.352C62.4281 131.506 62.7569 128.667 63.4376 125.904C63.7114 124.776 64.0449 123.662 64.4367 122.569C64.7652 121.636 65.0664 120.888 65.2854 120.38C65.4142 120.121 65.5174 119.85 65.5933 119.57C65.436 119.813 65.2986 120.067 65.1827 120.332C64.9295 120.826 64.601 121.567 64.2383 122.501C63.8223 123.592 63.4659 124.705 63.1707 125.836C62.4541 128.616 62.1203 131.481 62.1783 134.352C62.2017 135.523 62.2931 136.691 62.4521 137.851C62.5516 138.633 62.6909 139.41 62.8695 140.178C62.9184 140.462 62.9964 140.74 63.1022 141.008Z" fill="#263238"/>
<path d="M73.7604 104.583V102.414L71.2283 106.531L66.0544 108.446C64.4325 110.319 59.1696 131.455 60.2373 134.948L62.0714 155.638L56.8359 163.543L66.1776 164.552C66.1776 164.552 68.1965 162.548 67.6969 157.257C66.4171 143.855 67.738 128.559 67.9296 125.176C68.2307 120.078 73.7604 104.583 73.7604 104.583Z" fill="#FF725E"/>
<path d="M71.203 106.555C71.203 106.555 62.7168 109.341 61.6218 110.94C58.5968 115.297 40.4063 145.093 49.3031 153.987C55.1545 159.806 63.3738 147.522 63.3738 147.522L71.203 106.555Z" fill="#FF725E"/>
<path d="M50.4453 142.145C50.7066 142.122 50.9654 142.076 51.2186 142.008L53.3334 141.555C55.1264 141.171 57.6449 140.636 60.5329 140.183L60.3824 140.093C60.6561 140.78 60.9504 141.555 61.2447 142.317C61.9838 144.204 62.6887 145.988 63.2978 147.553V147.422L60.1018 151.457L59.2189 152.596C59.104 152.726 59.0052 152.869 58.9247 153.022C59.0559 152.911 59.1751 152.787 59.2805 152.651L60.225 151.553L63.4963 147.628L63.5442 147.573V147.498C62.9419 145.926 62.2507 144.142 61.4911 142.255C61.1899 141.493 60.9025 140.745 60.6219 140.032L60.5808 139.922H60.4645C57.5628 140.375 55.0511 140.944 53.2649 141.377C52.3684 141.589 51.6567 141.782 51.1639 141.919C50.9183 141.973 50.6779 142.049 50.4453 142.145Z" fill="#263238"/>
<path d="M59.1404 139.793C59.1313 139.475 59.1016 139.159 59.0515 138.846C58.9694 138.159 58.8667 137.315 58.7367 136.265C58.3482 133.442 58.2542 130.586 58.4561 127.743C58.7372 124.907 59.5327 122.146 60.8035 119.597C61.2825 118.609 61.7137 117.833 62.0148 117.305C62.1866 117.036 62.3376 116.753 62.4665 116.461C62.4086 116.518 62.358 116.583 62.3159 116.653C62.2201 116.79 62.0832 116.982 61.919 117.243C61.5837 117.758 61.1251 118.52 60.6187 119.501C59.2761 122.061 58.4417 124.857 58.1618 127.736C57.9515 130.6 58.0755 133.478 58.5314 136.313C58.6819 137.398 58.8325 138.276 58.9351 138.88C58.9764 139.19 59.0451 139.495 59.1404 139.793Z" fill="#263238"/>
<path d="M66.7696 136.216C66.7876 136.102 66.7876 135.986 66.7696 135.873C66.7696 135.619 66.7216 135.296 66.6943 134.898C66.619 134.02 66.5095 132.805 66.3795 131.323C66.2494 129.841 66.0578 128.008 65.8662 126.018C65.7704 125.023 65.6677 123.96 65.5582 122.889C65.4973 122.349 65.4767 121.806 65.4966 121.263C65.5039 120.715 65.6575 120.18 65.9415 119.712C66.0964 119.451 66.3156 119.234 66.5781 119.083C66.8405 118.932 67.1374 118.85 67.4402 118.847H67.974L67.5292 118.552L65.2982 117.042L65.3392 117.228L69.6987 109.734L70.9374 107.545L71.259 106.955C71.2998 106.888 71.332 106.817 71.3548 106.742C71.3018 106.801 71.2559 106.865 71.218 106.934C71.1153 107.085 70.999 107.271 70.8552 107.497L69.5413 109.645L65.0997 117.084L65.0312 117.2L65.1408 117.276L67.365 118.792L67.4539 118.525C67.0994 118.525 66.7511 118.618 66.4429 118.793C66.1347 118.969 65.8771 119.222 65.6951 119.527C65.3813 120.037 65.2111 120.622 65.2023 121.222C65.1955 121.784 65.2276 122.345 65.2982 122.903C65.4145 123.987 65.524 125.037 65.6267 126.032C65.8388 128.015 66.0373 129.813 66.2015 131.33C66.3658 132.846 66.5095 134.02 66.6121 134.898C66.6601 135.296 66.7011 135.584 66.7353 135.866C66.738 135.983 66.7495 136.1 66.7696 136.216Z" fill="#263238"/>
<path d="M88.4617 102.922L90.9939 105.667L100.404 108.645C100.089 115.574 99.3462 122.477 98.1798 129.314C96.1267 140.98 94.9906 152.817 94.929 153.003C94.4773 152.138 99.6649 159.282 102.526 166.295C104.784 171.785 106.016 183.313 106.016 183.313L82.3229 190.574L78.3125 147.506L79.3527 127.605L88.4617 102.922Z" fill="#FF725E"/>
<path d="M79.3516 138.27C79.4217 138.156 79.4813 138.037 79.5295 137.913L79.988 136.877C80.385 135.978 80.9667 134.667 81.7126 133.075C83.6501 128.915 85.7972 124.856 88.1457 120.915L88.8301 119.838L88.9191 119.693L88.7617 119.625L86.0926 118.52V118.767C86.9523 118.046 87.9664 117.534 89.0559 117.271H89.1518V117.148C89.3189 115.556 89.5979 113.978 89.9867 112.426C90.3152 111.02 90.6026 109.777 90.7669 108.734C90.9029 107.924 90.9829 107.106 91.0064 106.285C91.0064 105.996 91.0064 105.777 91.0064 105.633C91.0154 105.557 91.0154 105.481 91.0064 105.406C90.9688 105.698 90.9483 105.991 90.9448 106.285C90.8886 107.098 90.7835 107.907 90.63 108.707C90.4452 109.736 90.1441 110.972 89.7951 112.378C89.3796 113.936 89.0844 115.524 88.9122 117.127L89.0149 117.003C87.8838 117.271 86.8297 117.797 85.9352 118.541L85.7504 118.698L85.9694 118.788L88.6385 119.899L88.5632 119.687L87.8788 120.764C85.5237 124.712 83.3963 128.793 81.5073 132.986C80.823 134.598 80.2344 135.916 79.8717 136.829L79.4611 137.892C79.4144 138.015 79.3778 138.141 79.3516 138.27Z" fill="#263238"/>
<path d="M98.809 167.806C98.8701 167.911 98.9411 168.01 99.0212 168.101L99.644 168.89L101.964 171.731L102.026 171.56L90.7677 173.68L90.9182 173.742C90.8566 173.667 90.795 173.577 90.7403 173.495L87.599 169.11L87.5032 169.33L95.613 168.28L97.9672 167.95L98.5969 167.854L98.8227 167.806C98.8227 167.806 98.7543 167.806 98.6106 167.806L97.9946 167.861L95.6541 168.108L87.4827 169.055H87.25L87.3869 169.247L90.5145 173.639C90.576 173.721 90.6308 173.811 90.6924 173.886L90.7471 173.962H90.8361L102.073 171.752H102.251L102.135 171.615L99.7192 168.787L99.0349 168.039C98.8911 167.875 98.809 167.792 98.809 167.806Z" fill="#263238"/>
<g opacity="0.3">
<path d="M100.612 171.942L101.358 173.396L90.7979 175.675L88.1562 170.109L90.8116 173.829L100.612 171.942Z" fill="black"/>
</g>
<path d="M21.9284 137.63L27.7115 166.074H77.8633C78.1283 166.074 78.3825 165.969 78.5699 165.781C78.7573 165.593 78.8625 165.338 78.8625 165.072C78.8635 164.94 78.8383 164.809 78.7885 164.687C78.7386 164.565 78.6652 164.453 78.5723 164.36C78.4794 164.266 78.369 164.191 78.2473 164.141C78.1256 164.09 77.9951 164.064 77.8633 164.064H67.7686L62.4099 137.617C62.3601 137.37 62.2277 137.148 62.0348 136.987C61.8419 136.826 61.6 136.736 61.3491 136.731L23.0234 136.313C22.8592 136.309 22.6963 136.343 22.5469 136.412C22.3974 136.48 22.2652 136.581 22.1601 136.708C22.0549 136.834 21.9795 136.983 21.9394 137.142C21.8993 137.302 21.8955 137.469 21.9284 137.63Z" fill="#E0E0E0"/>
<path d="M21.9234 137.635C21.922 137.607 21.922 137.58 21.9234 137.552C21.9157 137.466 21.9157 137.378 21.9234 137.292C21.9426 137.121 22.0007 136.958 22.0933 136.814C22.1859 136.67 22.3105 136.549 22.4573 136.461C22.5582 136.399 22.6694 136.354 22.7858 136.331C22.9177 136.317 23.0508 136.317 23.1827 136.331H24.0861H26.3446L40.833 136.468L50.9414 136.571L56.6013 136.626L59.5715 136.66H61.084C61.2141 136.66 61.3373 136.66 61.4741 136.66C61.6098 136.673 61.742 136.71 61.8642 136.77C62.1078 136.893 62.3013 137.097 62.4118 137.346C62.4611 137.472 62.4955 137.604 62.5144 137.738L62.5965 138.115C62.6444 138.376 62.6992 138.63 62.7539 138.884C62.8566 139.398 62.9593 139.92 63.0688 140.441C63.2741 141.484 63.4931 142.5 63.7052 143.605C64.1432 145.739 64.5813 147.921 65.074 150.151C65.9774 154.612 66.915 159.251 67.8868 164.027L67.8184 163.972H77.7489C77.8784 163.956 78.0094 163.956 78.139 163.972C78.3531 164.017 78.5483 164.127 78.6981 164.287C78.8479 164.447 78.9451 164.649 78.9764 164.866C79.0078 165.084 78.9719 165.305 78.8735 165.501C78.7751 165.697 78.619 165.858 78.4264 165.962C78.2813 166.042 78.1196 166.087 77.9542 166.093H51.2563H27.7065H27.6586V166.051C25.886 157.35 24.4351 150.234 23.4565 145.286C22.9637 142.823 22.5736 140.908 22.3135 139.604C22.1835 138.952 22.0877 138.458 22.0193 138.122C21.9508 137.786 21.9234 137.614 21.9234 137.614C21.9234 137.614 21.9645 137.786 22.0398 138.122C22.1151 138.458 22.2109 138.952 22.3478 139.597C22.6147 140.901 23.0321 142.816 23.5112 145.272L27.7544 166.051L27.7065 166.003H77.8926C78.0355 165.995 78.1753 165.958 78.3032 165.893C78.4302 165.824 78.5395 165.725 78.6225 165.606C78.7056 165.487 78.7603 165.351 78.7823 165.207C78.8212 164.967 78.7647 164.72 78.6249 164.521C78.5585 164.423 78.4736 164.34 78.3749 164.275C78.2763 164.21 78.1659 164.166 78.05 164.144C77.9318 164.13 77.8123 164.13 77.6941 164.144H67.7089V164.089L64.9029 150.213C64.4467 147.985 64.0041 145.801 63.5752 143.66C63.3631 142.596 63.1509 141.539 62.9387 140.496C62.8292 139.975 62.7266 139.46 62.6239 138.945L62.4665 138.177L62.3912 137.793C62.3707 137.669 62.3386 137.547 62.2954 137.429C62.2212 137.261 62.1044 137.116 61.9567 137.007C61.809 136.899 61.6355 136.831 61.4536 136.811H61.0772H59.5579L56.5945 136.777L50.9346 136.715L40.8262 136.592L26.324 136.365H24.0656H23.1622C23.0327 136.348 22.9015 136.348 22.7721 136.365C22.6595 136.391 22.5512 136.432 22.4504 136.489C22.3068 136.575 22.1843 136.693 22.092 136.833C21.9996 136.973 21.9397 137.132 21.9166 137.298C21.9117 137.411 21.9139 137.523 21.9234 137.635Z" fill="#263238"/>
<path d="M43.3906 152.314C44.3052 152.314 45.0467 151.57 45.0467 150.653C45.0467 149.736 44.3052 148.992 43.3906 148.992C42.4759 148.992 41.7344 149.736 41.7344 150.653C41.7344 151.57 42.4759 152.314 43.3906 152.314Z" fill="white"/>
<path d="M21.9766 137.867H24.6115L31.777 137.901L55.4362 138.066H58.8582H59.7C59.8434 138.053 59.9877 138.053 60.1311 138.066C60.2745 138.096 60.4112 138.152 60.5349 138.231C60.7853 138.387 60.9684 138.632 61.0482 138.917C61.1098 139.198 61.1577 139.459 61.2125 139.727C61.6368 141.875 62.0406 143.94 62.4307 145.903C63.2109 149.835 63.9089 153.383 64.4838 156.361C65.0587 159.339 65.5309 161.748 65.8526 163.422C66.01 164.253 66.14 164.898 66.2222 165.337C66.2632 165.556 66.2906 165.721 66.3111 165.838C66.3317 165.954 66.3111 166.009 66.3111 166.009L66.2701 165.845C66.2701 165.728 66.2153 165.563 66.1674 165.344C66.0784 164.905 65.9416 164.259 65.7705 163.429C65.4351 161.762 64.9492 159.353 64.3538 156.382C63.7584 153.41 63.0466 149.862 62.2596 145.923C61.8695 143.954 61.4588 141.888 61.0277 139.747C60.9729 139.487 60.925 139.205 60.8634 138.945C60.7978 138.692 60.6388 138.473 60.4186 138.334C60.307 138.265 60.1843 138.216 60.0558 138.19C59.9215 138.179 59.7864 138.179 59.6521 138.19H58.8103H55.3883L31.7291 137.977L24.5567 137.901H22.613H22.0998L21.9766 137.867Z" fill="#263238"/>
<path d="M73.7656 150.469L73.8475 150.517L73.7656 150.469Z" fill="#FFBF9D"/>
<path d="M63.8564 157.57C64.7872 156.198 71.1792 153.123 71.1792 153.123L69.612 152.561L67.7505 153.103C67.5436 153.691 67.2147 154.229 66.7855 154.681C66.0259 155.532 65.0267 154.434 65.0267 154.434L66.2038 150.921L69.9747 149.219C71.2442 149.553 72.494 149.958 73.7182 150.433L74.9774 151.895C75.5386 152.451 77.099 154.585 77.578 154.702C77.7286 154.702 82.1702 153.281 82.1702 153.281L84.0043 161.447L77.229 162.031L73.1228 162.662C71.999 162.981 70.856 163.229 69.7009 163.403C68.3322 163.527 67.4973 162.991 67.552 162.25C67.6068 161.509 68.6402 161.564 68.6402 161.564C69.571 161.355 70.4858 161.08 71.3776 160.74C72.0288 160.406 72.5899 159.918 73.0133 159.32H71.5282C71.5282 159.32 68.2569 161.063 67.0456 161.55C65.8342 162.037 65.7453 160.864 65.6768 160.514C65.6084 160.164 69.5162 157.152 69.5162 157.152C69.5162 157.152 65.9574 158.805 65.3004 159.251C64.6434 159.697 63.7401 159.752 63.5895 159.382C63.4389 159.011 62.9257 158.922 63.8564 157.57Z" fill="#FFBF9D"/>
<path d="M80.1719 159.842C80.1719 159.842 80.1719 159.76 80.2198 159.609C80.2275 159.517 80.2275 159.426 80.2198 159.334C80.2295 159.213 80.2295 159.092 80.2198 158.971C80.1097 158.265 79.8558 157.59 79.4738 156.987C79.1035 156.388 78.6773 155.825 78.2009 155.306C78.0159 155.081 77.8071 154.876 77.5781 154.695C77.7489 154.933 77.9317 155.162 78.1256 155.382C78.5775 155.911 78.9872 156.476 79.3507 157.07C79.7253 157.656 79.9854 158.308 80.1171 158.991C80.1503 159.274 80.1686 159.558 80.1719 159.842Z" fill="#FF9A6C"/>
<path d="M71.3203 153.021C71.6545 153.126 72.0127 153.126 72.3469 153.021C72.6928 152.974 73.0157 152.821 73.2708 152.582C73.2708 152.547 72.8533 152.774 72.3195 152.884C71.7857 152.993 71.3272 152.98 71.3203 153.021Z" fill="#FF9A6C"/>
<path d="M69.875 156.856C70.4126 156.784 70.942 156.66 71.4559 156.485C71.9823 156.362 72.4974 156.194 72.9957 155.984C72.4596 156.065 71.9309 156.189 71.4148 156.355C70.8892 156.481 70.3743 156.649 69.875 156.856Z" fill="#FF9A6C"/>
<path d="M72.8125 159.246C73.3561 159.147 73.8915 159.007 74.4139 158.827C74.1338 158.804 73.8519 158.839 73.5858 158.93C73.3092 158.981 73.046 159.088 72.8125 159.246Z" fill="#FF9A6C"/>
<path d="M70.3359 157.176C70.5379 157.345 70.7153 157.541 70.8629 157.759C70.9777 157.995 71.0628 158.244 71.1161 158.5C71.1161 158.5 71.164 158.411 71.1572 158.26C71.1458 158.058 71.0864 157.862 70.984 157.688C70.8816 157.513 70.7392 157.366 70.5686 157.258C70.4386 157.183 70.3428 157.162 70.3359 157.176Z" fill="#FF9A6C"/>
<path d="M69.1953 154.812C69.1953 154.847 69.4143 155.018 69.5512 155.341C69.6161 155.542 69.6642 155.749 69.6949 155.958C69.755 155.854 69.7866 155.736 69.7866 155.615C69.7866 155.495 69.755 155.376 69.6949 155.272C69.517 154.895 69.2022 154.771 69.1953 154.812Z" fill="#FF9A6C"/>
<path d="M70.134 150.921C70.134 150.921 70.2092 150.873 70.264 150.749C70.3391 150.584 70.3652 150.4 70.3393 150.221C70.3193 150.043 70.2506 149.874 70.1408 149.734C70.0587 149.624 69.9834 149.583 69.9766 149.596C70.0764 149.802 70.1522 150.018 70.2024 150.241C70.2046 150.47 70.1816 150.697 70.134 150.921Z" fill="#FF9A6C"/>
<path d="M100.398 108.633C101.77 109.244 102.988 110.157 103.959 111.305C104.931 112.452 105.632 113.805 106.01 115.262C106.01 115.262 107.009 118.377 107.762 121.863C109.576 130.331 112.833 144.763 112.984 148.976C113.271 156.6 107.769 158.769 104.682 159.434C101.596 160.1 82.4472 162.474 82.4472 162.474L79.0938 152.99L98.6188 144.468C98.6188 144.468 94.8959 131.649 94.0336 127.641" fill="#FF725E"/>
<path d="M94.0582 127.647C94.0582 127.647 94.0582 127.75 94.1471 127.942C94.2361 128.134 94.2703 128.443 94.3661 128.807C94.5714 129.589 94.8726 130.708 95.2558 132.142C96.0497 135.038 97.2405 139.238 98.7598 144.439V144.542L98.664 144.583L79.2005 153.147L79.2894 152.942C80.3616 155.984 81.4794 159.145 82.6429 162.425L82.4581 162.309C87.4403 161.684 92.7236 161.005 98.1986 160.25C100.402 159.934 102.599 159.653 104.714 159.248C106.792 158.846 108.715 157.866 110.264 156.421C111.703 154.962 112.587 153.044 112.762 150.999C112.762 150.752 112.824 150.505 112.837 150.258V149.51C112.844 149.018 112.824 148.525 112.776 148.035C112.666 147.054 112.536 146.086 112.379 145.125C111.756 141.31 111.01 137.7 110.326 134.331C109.641 130.962 108.957 127.819 108.341 124.95C108.033 123.523 107.739 122.157 107.458 120.867C107.178 119.577 106.856 118.376 106.541 117.258C106.226 116.139 105.925 115.096 105.603 114.163C105.289 113.317 104.854 112.522 104.31 111.802C103.559 110.796 102.631 109.936 101.573 109.263C101.21 109.037 100.888 108.879 100.724 108.776C100.622 108.734 100.523 108.684 100.43 108.625C100.536 108.657 100.639 108.698 100.738 108.749C101.036 108.881 101.327 109.033 101.607 109.201C102.689 109.857 103.641 110.708 104.413 111.713C104.983 112.437 105.444 113.242 105.781 114.101C106.124 115.048 106.425 116.084 106.753 117.203C107.082 118.321 107.397 119.529 107.705 120.812C108.012 122.096 108.286 123.468 108.608 124.93C109.224 127.791 109.908 130.927 110.661 134.297C111.414 137.666 112.05 141.262 112.735 145.091C112.892 146.045 113.036 147.019 113.145 148.014C113.193 148.516 113.214 149.02 113.207 149.524V150.286C113.207 150.54 113.159 150.8 113.132 151.054C112.953 153.176 112.038 155.168 110.545 156.681C108.952 158.179 106.968 159.193 104.823 159.605C102.668 160.017 100.491 160.291 98.2807 160.614C92.8058 161.362 87.5087 162.034 82.5402 162.672H82.3965L82.3554 162.542L79.0157 153.051L78.9609 152.907L79.1047 152.845L98.6434 144.364L98.575 144.508C97.0899 139.292 95.9333 135.086 95.1532 132.156C94.7836 130.701 94.4688 129.575 94.3251 128.807C94.2361 128.423 94.1813 128.121 94.1403 127.929C94.0992 127.736 94.0582 127.647 94.0582 127.647Z" fill="#263238"/>
<path d="M93.243 124.015C93.1752 123.816 93.1383 123.607 93.1335 123.397C93.0699 122.834 93.0448 122.268 93.0582 121.702C93.1164 117.916 94.3641 114.244 96.6238 111.21C96.961 110.753 97.3291 110.319 97.7256 109.913C98.0062 109.624 98.1636 109.473 98.1841 109.494C98.2047 109.515 97.6366 110.18 96.8154 111.354C95.7767 112.881 94.9459 114.54 94.3448 116.288C93.7518 118.039 93.3972 119.862 93.2909 121.709C93.2293 123.15 93.3046 124.015 93.243 124.015Z" fill="#263238"/>
</svg>
