<svg width="52" height="34" viewBox="0 0 52 34" fill="none" xmlns="http://www.w3.org/2000/svg">
<g clip-path="url(#clip0_578_4917)">
<path d="M35.5969 10.4813L24.0231 8.85253C23.8858 8.83037 23.7627 8.75525 23.6802 8.64332C23.5976 8.53139 23.5623 8.39157 23.5817 8.25387C23.6011 8.11617 23.6738 7.99158 23.784 7.90685C23.8943 7.82211 24.0334 7.78399 24.1715 7.80066L35.7453 9.42942C35.8826 9.45158 36.0057 9.5267 36.0882 9.63863C36.1708 9.75056 36.2061 9.89038 36.1867 10.0281C36.1673 10.1658 36.0946 10.2904 35.9844 10.3751C35.8741 10.4598 35.735 10.498 35.5969 10.4813ZM35.3749 12.0595L23.8015 10.4307C23.6635 10.414 23.5244 10.4522 23.4141 10.5369C23.3039 10.6216 23.2312 10.7462 23.2118 10.8839C23.1924 11.0216 23.2277 11.1615 23.3103 11.2734C23.3928 11.3853 23.5159 11.4604 23.6532 11.4826L35.2266 13.1116C35.3661 13.1313 35.5077 13.0947 35.6203 13.01C35.7328 12.9253 35.8071 12.7993 35.8268 12.6597C35.8465 12.5202 35.8099 12.3786 35.7252 12.266C35.6405 12.1534 35.5145 12.0792 35.3749 12.0595ZM34.6346 17.3201L23.0612 15.6913C22.9232 15.6747 22.7841 15.7129 22.6739 15.7976C22.5637 15.8823 22.4911 16.0069 22.4717 16.1446C22.4523 16.2822 22.4876 16.422 22.5701 16.534C22.6526 16.6459 22.7756 16.721 22.9129 16.7432L34.4862 18.3719C34.6241 18.3883 34.7629 18.35 34.8729 18.2652C34.9829 18.1805 35.0553 18.0561 35.0747 17.9186C35.0941 17.7811 35.0589 17.6415 34.9766 17.5296C34.8944 17.4178 34.7716 17.3426 34.6346 17.3201ZM35.005 14.6898L23.4311 13.061C23.2931 13.0444 23.154 13.0825 23.0437 13.1672C22.9334 13.252 22.8608 13.3766 22.8414 13.5143C22.8219 13.652 22.8573 13.7918 22.9398 13.9037C23.0223 14.0156 23.1454 14.0908 23.2827 14.1129L34.8566 15.7417C34.9947 15.7584 35.1338 15.7202 35.2441 15.6355C35.3543 15.5508 35.427 15.4262 35.4464 15.2885C35.4658 15.1508 35.4305 15.0109 35.3479 14.899C35.2654 14.7871 35.1423 14.712 35.005 14.6898ZM34.2647 19.9504L22.6908 18.3216C22.5528 18.305 22.4137 18.3431 22.3034 18.4278C22.1931 18.5126 22.1205 18.6372 22.1011 18.7749C22.0816 18.9125 22.117 19.0524 22.1995 19.1643C22.282 19.2762 22.4052 19.3513 22.5424 19.3735L34.1162 21.0025C34.1853 21.0123 34.2557 21.0083 34.3232 20.9909C34.3908 20.9735 34.4542 20.9429 34.51 20.9009C34.5657 20.859 34.6126 20.8064 34.6481 20.7464C34.6835 20.6863 34.7068 20.6198 34.7165 20.5507C34.7263 20.4816 34.7223 20.4113 34.7049 20.3437C34.6875 20.2762 34.6569 20.2127 34.6149 20.157C34.573 20.1012 34.5204 20.0543 34.4603 20.0188C34.4003 19.9834 34.3338 19.9601 34.2647 19.9504ZM33.8942 22.5807L22.3209 20.9522C22.1828 20.9356 22.0438 20.9737 21.9335 21.0584C21.8232 21.1432 21.7506 21.2677 21.7312 21.4054C21.7117 21.5431 21.7471 21.683 21.8296 21.7949C21.9121 21.9068 22.0352 21.9819 22.1725 22.0041L33.7459 23.6329C33.8854 23.6526 34.0271 23.616 34.1396 23.5313C34.2522 23.4465 34.3265 23.3205 34.3462 23.181C34.3658 23.0415 34.3293 22.8998 34.2445 22.7873C34.1598 22.6747 34.0338 22.6004 33.8942 22.5807ZM40.5072 6.09636L37.6172 26.6239C37.5545 27.0407 37.3307 27.4162 36.9938 27.6696C36.657 27.923 36.2341 28.0339 35.8162 27.9785L35.3541 27.9148C35.2731 28.0647 35.1691 28.2009 35.0459 28.3185C34.8895 28.4682 34.7043 28.5844 34.5016 28.6602C34.2988 28.736 34.0828 28.7698 33.8666 28.7595L32.7031 28.701V28.7276C32.7029 29.1433 32.5398 29.5424 32.2488 29.8393C31.9579 30.1362 31.5622 30.3074 31.1466 30.316L14.1519 30.6932H14.1147C13.6987 30.6893 13.3004 30.5245 13.0032 30.2333C12.7061 29.9421 12.5333 29.5472 12.5209 29.1314L12.0003 5.46948C11.992 5.04633 12.1517 4.63712 12.4444 4.33145C12.7371 4.02577 13.1391 3.84854 13.5622 3.83854L16.5159 3.77479L16.5744 2.58479C16.598 2.16347 16.7871 1.76854 17.1005 1.48598C17.414 1.20341 17.8263 1.05607 18.2478 1.07604L20.8084 1.20354L20.9253 0.36948C20.9863 -0.0481452 21.2097 -0.424795 21.547 -0.678503C21.8843 -0.93221 22.3081 -1.04244 22.7262 -0.985208L34.7909 0.714792C35.1484 0.765314 36.7031 0.96448 37.0328 1.04948C39.0887 1.58795 40.7962 3.97417 40.5072 6.09636ZM35.7153 1.91542C35.7917 2.33558 35.8161 2.76355 35.788 3.18967L35.7897 3.19042C35.7537 3.81008 35.6721 4.42624 35.5453 5.03386C35.5179 5.26712 35.5825 5.50188 35.7253 5.68834C35.8681 5.8748 36.078 5.99829 36.3103 6.0326L36.3093 6.03377C37.3487 6.09633 38.3731 6.31256 39.3491 6.67542C39.3639 6.55498 39.4708 5.8906 39.4712 5.78292C39.5811 4.14624 38.0475 2.19698 36.4242 2.01598C36.4317 2.01875 35.7153 1.91542 35.7153 1.91542ZM34.4934 4.85854C34.5537 4.55398 34.5975 4.27449 34.6336 4.00806L26.2325 2.82385C26.0931 2.80451 25.9517 2.84116 25.8392 2.92577C25.7267 3.01039 25.6523 3.1361 25.6322 3.27542L25.5578 3.81729C25.5382 3.95676 25.5747 4.09831 25.6594 4.21086C25.7441 4.32341 25.8699 4.39777 26.0094 4.4176L34.5359 5.61823L34.5412 5.61903C34.475 5.37122 34.4587 5.1127 34.4934 4.85854ZM31.6406 28.6479L16.8878 27.8989C16.4661 27.8762 16.0705 27.6874 15.7878 27.3738C15.505 27.0601 15.358 26.6472 15.3791 26.2254L16.4628 4.83729L13.5834 4.90104C13.4427 4.90428 13.3089 4.96308 13.2114 5.06461C13.1138 5.16614 13.0604 5.30214 13.0628 5.44292L13.5834 29.1101C13.5893 29.25 13.649 29.3822 13.7499 29.4791C13.8509 29.5761 13.9853 29.6304 14.1253 29.6307L31.1253 29.2535C31.1949 29.2523 31.2635 29.2372 31.3272 29.2092C31.3909 29.1812 31.4484 29.1408 31.4963 29.0904C31.5443 29.04 31.5817 28.9805 31.6065 28.9155C31.6313 28.8505 31.6429 28.7812 31.6406 28.7117V28.6479ZM33.755 27.6864L18.9809 25.6092C18.563 25.5489 18.1858 25.3257 17.932 24.9882C17.6781 24.6507 17.5682 24.2265 17.6262 23.8082L20.6597 2.26073L18.1947 2.13323C18.0541 2.12757 17.917 2.17726 17.8127 2.27163C17.7084 2.366 17.6453 2.49751 17.6369 2.63792L16.4416 26.2785C16.4349 26.4193 16.4843 26.557 16.5788 26.6616C16.6734 26.7661 16.8055 26.8289 16.9462 26.8364L33.755 27.6864ZM39.195 7.81229C39.1047 7.69011 38.6478 7.35542 36.3262 7.10573C35.947 7.07772 35.5839 6.9405 35.2809 6.71064L35.2744 6.71261H35.2691C35.1027 6.74538 34.9319 6.74898 34.7644 6.72323L25.8606 5.46948C25.4422 5.41024 25.0644 5.18724 24.8104 4.84952C24.5563 4.51179 24.4468 4.08699 24.5059 3.66854L24.5803 3.13198C24.6393 2.71304 24.862 2.33459 25.1996 2.07964C25.5372 1.82469 25.9622 1.71404 26.3812 1.77198L34.7219 2.94604H34.7233C34.7644 2.54085 34.7036 2.1318 34.5466 1.75604L22.5775 0.0666674C22.4381 0.047326 22.2967 0.0839678 22.1842 0.168584C22.0717 0.2532 21.9973 0.378908 21.9772 0.51823L18.6781 23.957C18.6588 24.0964 18.6954 24.2378 18.78 24.3503C18.8647 24.4628 18.9904 24.5372 19.1297 24.5573L35.965 26.9267C36.1044 26.946 36.2458 26.9094 36.3583 26.8247C36.4708 26.7401 36.5452 26.6144 36.5653 26.4751L39.195 7.81229Z" fill="url(#paint0_linear_578_4917)"/>
</g>
<defs>
<linearGradient id="paint0_linear_578_4917" x1="12.0003" y1="14.845" x2="40.5391" y2="14.845" gradientUnits="userSpaceOnUse">
<stop stop-color="#0FDCDD"/>
<stop offset="1" stop-color="#46A1E8"/>
</linearGradient>
<clipPath id="clip0_578_4917">
<rect width="51.3617" height="34" fill="white" transform="translate(0.320312)"/>
</clipPath>
</defs>
</svg>
