<svg width="120" height="101" viewBox="0 0 120 101" fill="none" xmlns="http://www.w3.org/2000/svg">
<path d="M115.161 0H4.83871C3.5558 0.00128099 2.3258 0.511484 1.41864 1.41864C0.511483 2.3258 0.00128099 3.5558 0 4.83871V76.4516C0.00128099 77.7345 0.511483 78.9645 1.41864 79.8717C2.3258 80.7788 3.5558 81.289 4.83871 81.2903H42.5806V90.9677H32.9032C32.3899 90.9677 31.8976 91.1717 31.5346 91.5346C31.1717 91.8976 30.9677 92.3899 30.9677 92.9032V98.7097C30.9677 99.223 31.1717 99.7153 31.5346 100.078C31.8976 100.441 32.3899 100.645 32.9032 100.645H87.0968C87.6101 100.645 88.1024 100.441 88.4654 100.078C88.8283 99.7153 89.0323 99.223 89.0323 98.7097V92.9032C89.0323 92.3899 88.8283 91.8976 88.4654 91.5346C88.1024 91.1717 87.6101 90.9677 87.0968 90.9677H77.4193V81.2903H115.161C116.444 81.289 117.674 80.7788 118.581 79.8717C119.489 78.9645 119.999 77.7345 120 76.4516V4.83871C119.999 3.5558 119.489 2.3258 118.581 1.41864C117.674 0.511484 116.444 0.00128099 115.161 0ZM85.1613 94.8387V96.7742H34.8387V94.8387H85.1613ZM46.4516 90.9677V81.2903H73.5484V90.9677H46.4516ZM116.129 76.4516C116.129 76.7083 116.027 76.9544 115.846 77.1359C115.664 77.3174 115.418 77.4194 115.161 77.4194H4.83871C4.58205 77.4194 4.3359 77.3174 4.15441 77.1359C3.97293 76.9544 3.87097 76.7083 3.87097 76.4516V69.6774H116.129V76.4516ZM116.129 65.8065H3.87097V4.83871C3.87097 4.58205 3.97293 4.3359 4.15441 4.15441C4.3359 3.97293 4.58205 3.87097 4.83871 3.87097H115.161C115.418 3.87097 115.664 3.97293 115.846 4.15441C116.027 4.3359 116.129 4.58205 116.129 4.83871V65.8065Z" fill="url(#paint0_linear_6365_2096)"/>
<path d="M78.2052 20.0221L60.7858 12.2802C60.5383 12.1701 60.2704 12.1133 59.9995 12.1133C59.7287 12.1133 59.4608 12.1701 59.2133 12.2802L41.7939 20.0221C41.4254 20.1859 41.1172 20.4608 40.9125 20.8083C40.7077 21.1558 40.6166 21.5585 40.652 21.9603L42.5875 43.9764C42.6104 44.2377 42.6862 44.4915 42.8103 44.7226C42.9343 44.9537 43.1041 45.1571 43.3091 45.3206L58.793 57.6593C59.1357 57.9325 59.561 58.0812 59.9993 58.0812C60.4376 58.0812 60.8629 57.9325 61.2056 57.6593L76.6895 45.3206C76.8946 45.1571 77.0643 44.9537 77.1884 44.7226C77.3124 44.4915 77.3882 44.2377 77.4112 43.9764L79.3466 21.9603C79.382 21.5586 79.291 21.1558 79.0864 20.8084C78.8817 20.4609 78.5737 20.186 78.2052 20.0221ZM73.6283 42.8105L59.9998 53.6708L46.3713 42.8105L44.6294 22.9979L59.9998 16.1669L75.37 22.9979L73.6283 42.8105Z" fill="url(#paint1_linear_6365_2096)"/>
<path d="M55.2666 35.1825C54.8395 34.9038 54.3196 34.805 53.82 34.9074C53.3204 35.0099 52.8814 35.3055 52.5985 35.7298C52.3156 36.1542 52.2116 36.673 52.3092 37.1736C52.4067 37.6742 52.6979 38.1161 53.1194 38.4032L58.9259 42.2741C59.353 42.5589 59.8757 42.6623 60.379 42.5617C60.8824 42.4611 61.3251 42.1646 61.6099 41.7375L69.3518 30.1246C69.4958 29.9132 69.5965 29.6753 69.648 29.4248C69.6995 29.1743 69.7008 28.916 69.6519 28.6649C69.603 28.4139 69.5048 28.175 69.363 27.9621C69.2212 27.7492 69.0386 27.5666 68.8258 27.4247C68.6129 27.2828 68.3741 27.1845 68.1231 27.1355C67.872 27.0865 67.6138 27.0877 67.3632 27.1391C67.1126 27.1905 66.8747 27.291 66.6633 27.4349C66.4518 27.5788 66.271 27.7632 66.1312 27.9774L59.4627 37.9798L55.2666 35.1825Z" fill="url(#paint2_linear_6365_2096)"/>
<defs>
<linearGradient id="paint0_linear_6365_2096" x1="59.9997" y1="-2.25335" x2="59.9997" y2="100.996" gradientUnits="userSpaceOnUse">
<stop stop-color="#00EFD1"/>
<stop offset="1" stop-color="#00ACEA"/>
</linearGradient>
<linearGradient id="paint1_linear_6365_2096" x1="59.9992" y1="11.0841" x2="59.9992" y2="58.2415" gradientUnits="userSpaceOnUse">
<stop stop-color="#00EFD1"/>
<stop offset="1" stop-color="#00ACEA"/>
</linearGradient>
<linearGradient id="paint2_linear_6365_2096" x1="60.9805" y1="26.7526" x2="60.9805" y2="42.6533" gradientUnits="userSpaceOnUse">
<stop stop-color="#00EFD1"/>
<stop offset="1" stop-color="#00ACEA"/>
</linearGradient>
</defs>
</svg>
