<svg xmlns="http://www.w3.org/2000/svg" xmlns:xlink="http://www.w3.org/1999/xlink" width="74" height="74" viewBox="0 0 74 74">
  <defs>
    <clipPath id="clip-path">
      <rect width="74" height="74" fill="none"/>
    </clipPath>
    <clipPath id="clip-path-2">
      <rect id="Rectangle_2744" data-name="Rectangle 2744" width="74" height="74" fill="#0068b3"/>
    </clipPath>
  </defs>
  <g id="Scroll_Group_3" data-name="Scroll Group 3" clip-path="url(#clip-path)" style="mix-blend-mode: normal;isolation: isolate">
    <g id="Group_24096" data-name="Group 24096">
      <g id="Group_24095" data-name="Group 24095" clip-path="url(#clip-path-2)">
        <path id="Path_27494" data-name="Path 27494" d="M57.379,0C59.41.861,60.3,2.475,59.725,4.253a2.958,2.958,0,0,1-1.447,1.819.954.954,0,0,0-.569,1.041c.029.5.013,1.011,0,1.517-.019.992-.415,1.387-1.425,1.39-2.819.007-5.637,0-8.455,0-.868,0-.853.01-.876,1.059-.014.618.014,1.081.858,1.022.958-.067,1.926-.026,2.889-.01.813.014,1.316.465,1.311,1.136s-.506,1.111-1.325,1.123c-.988.015-1.976.028-2.963,0-.556-.018-.821.169-.764.742.012.119,0,.24,0,.361,0,.969,0,.972.956.972H68.008c1.406,0,1.707.3,1.707,1.684q0,18.246,0,36.492c0,1.356-.31,1.67-1.647,1.67H5.923c-1.309,0-1.634-.321-1.637-1.608,0-1.2-.007-2.409,0-3.613.008-.846.468-1.377,1.153-1.364.66.013,1.1.527,1.109,1.334s.018,1.59,0,2.385c-.01.428.147.634.588.6.168-.014.337,0,.506,0H66.393c1.052,0,1.052,0,1.053-1.067q0-16.62,0-33.24c0-1,0-1-.975-1h-18.5c-1,0-1.006,0-1.008.994,0,1.3.028,2.6-.012,3.9a1.13,1.13,0,0,0,.779,1.212c1.145.506,2.256,1.088,3.4,1.6a1.661,1.661,0,0,1,1.083,1.69q-.023,8.42,0,16.837a1.565,1.565,0,0,1-.984,1.6c-.638.282-1.258.608-1.9.878a1.123,1.123,0,0,1-1.538-.508,1.155,1.155,0,0,1,.512-1.546.258.258,0,0,1,.063-.034c1.451-.341,1.521-1.374,1.5-2.633-.068-4.118-.025-8.238-.027-12.356,0-.8-.008-.806-.742-.458-3.415,1.622-6.825,3.254-10.247,4.862a1,1,0,0,0-.671,1.043c.02,4.528.009,9.057.013,13.585,0,.765.034.783.71.463,1.763-.834,3.521-1.679,5.287-2.506a1.189,1.189,0,0,1,1.656.336,1.137,1.137,0,0,1-.5,1.654c-2.572,1.262-5.163,2.487-7.748,3.721a1.539,1.539,0,0,1-1.389-.09q-6.713-3.21-13.429-6.412a1.6,1.6,0,0,1-.979-1.608q.016-8.419,0-16.837A1.666,1.666,0,0,1,22.878,26.4c1.184-.535,2.342-1.13,3.526-1.668a.962.962,0,0,0,.64-1q-.033-2.131,0-4.264c.008-.532-.136-.781-.731-.779q-9.539.024-19.077,0c-.721,0-.683.389-.683.876q.006,12.934,0,25.869c0,.265.01.531-.011.8a1.087,1.087,0,0,1-1.1,1.1,1.1,1.1,0,0,1-1.147-1.13c-.012-.168-.007-.337-.007-.506q0-13.8,0-27.6c0-1.344.313-1.655,1.664-1.655q10.008,0,20.016-.008c.337,0,.82.2.98-.218a2.758,2.758,0,0,0,.012-1.632c-.038-.158-.2-.192-.353-.2-.192-.009-.385-.01-.577-.01H4.2c-1.667,0-1.985.317-1.985,1.978q0,20.016,0,40.032c0,1.654.319,1.969,2,1.969h65.54c.265,0,.531.005.794-.019a1.212,1.212,0,0,0,1.211-1.2c.027-.287.021-.577.021-.866q0-19.908,0-39.816c0-.169,0-.337,0-.506-.03-1.148-.433-1.565-1.592-1.571-2.674-.012-5.347-.005-8.021-.005-2.1,0-4.191,0-6.287,0-.99,0-1.53-.417-1.519-1.148s.542-1.118,1.55-1.118c4.721,0,9.443.04,14.163-.022A3.715,3.715,0,0,1,74,14.6V58.1a3.689,3.689,0,0,1-3.925,2.527c-2.936-.072-5.875-.019-8.813-.019H48.186c-.915,0-.924,0-.763.861a9.983,9.983,0,0,0,3.4,5.724,1.189,1.189,0,0,0,.872.251c1.372,0,2.746-.025,4.117.011a3.278,3.278,0,0,1,3.075,3.949A3.5,3.5,0,0,1,56.512,74H17.489c-.087-.042-.172-.086-.26-.125A3.33,3.33,0,0,1,15.1,70.193a3.274,3.274,0,0,1,3.455-2.746c1.252-.007,2.5,0,3.757,0a1.2,1.2,0,0,0,.873-.25,9.915,9.915,0,0,0,3.384-5.652c.181-.93.163-.935-.821-.935-7.273,0-14.546-.03-21.818.02A3.728,3.728,0,0,1,0,58.1V14.6a3.725,3.725,0,0,1,3.92-2.528c6.519.053,13.038.021,19.557.02.962,0,1.924,0,2.887,0,.21,0,.494.057.577-.185a2.6,2.6,0,0,0,.018-1.63c-.142-.437-.63-.239-.964-.241-2.766-.014-5.532,0-8.3-.011-1,0-1.391-.4-1.408-1.4-.009-.529-.024-1.059,0-1.587a.861.861,0,0,0-.517-.922,3.039,3.039,0,0,1-1.5-1.861C13.7,2.47,14.592.861,16.621,0h1.735a3.793,3.793,0,0,1,2.1,1.877A3.268,3.268,0,0,1,19.19,6.048,1.139,1.139,0,0,0,18.671,7.4c.121.56.625.338.967.34,2.769.017,5.538.005,8.307.012,1.045,0,1.428.4,1.44,1.447.008.723.025,1.446-.005,2.167-.021.512.128.739.687.729q2.528-.042,5.056,0c.549.008.708-.2.7-.723q-.035-2.168,0-4.334a1.012,1.012,0,0,0-.564-.978,3.219,3.219,0,0,1-1.486-3.542A3.5,3.5,0,0,1,36.133,0h1.735A3.359,3.359,0,0,1,38.5,6.224c-.287.143-.313.4-.313.674,0,1.516.008,3.033-.006,4.55-.005.452.144.652.624.647q2.6-.026,5.2,0c.489.005.626-.206.613-.654-.021-.721-.01-1.444,0-2.166.009-1.148.373-1.519,1.513-1.521,2.817,0,5.634-.02,8.451.011.676.008.819-.275.794-.864a.994.994,0,0,0-.569-.843A3.154,3.154,0,0,1,53.27,3.282,3.4,3.4,0,0,1,55.645,0ZM35.816,42.564c0-2.261-.012-4.523.008-6.784a.948.948,0,0,0-.6-1.01q-5.192-2.439-10.358-4.931c-.632-.305-.706-.106-.7.482q.023,6.749,0,13.5a1.1,1.1,0,0,0,.744,1.146q5.124,2.414,10.222,4.883c.531.257.712.2.706-.426-.022-2.286-.009-4.571-.008-6.857M26.281,67.381H47.7c-.118-.179-.178-.281-.249-.376A11.965,11.965,0,0,1,45.012,61.3c-.068-.539-.321-.7-.859-.7-4.479.02-8.958.011-13.437.011-1.526,0-1.536,0-1.85,1.469a13.354,13.354,0,0,1-2.585,5.3M48.255,27.674c-.263-.159-.36-.229-.465-.28Q42.642,24.933,37.5,22.468a1.142,1.142,0,0,0-1.091.05c-2.059,1-4.126,1.973-6.188,2.961-1.447.693-2.891,1.392-4.318,2.08.05.282.242.309.383.377,3.429,1.644,6.864,3.278,10.289,4.933a1.051,1.051,0,0,0,1.014-.085q4.168-2,8.343-3.98c.733-.35,1.462-.71,2.325-1.13M37,71.78q9.068,0,18.134,0c.985,0,1.464-.347,1.475-1.012s-.471-1.024-1.44-1.049h-36.2c-.1,0-.193,0-.289,0-.857.048-1.306.412-1.294,1.048.01.606.445.957,1.259,1.007.24.015.482.007.723.007H37M32.616,18.7c-.889,0-1.779,0-2.668,0-.335,0-.561.083-.559.477.006,1.2,0,2.4,0,3.606,0,.323.12.456.441.3,1.887-.9,3.783-1.781,5.654-2.714.582-.29.339-.906.286-1.372-.049-.442-.489-.286-.774-.292-.793-.019-1.586-.007-2.38,0m8.791,0c-.769,0-1.539-.019-2.307.009-.319.012-.823-.2-.88.338-.053.51-.248,1.108.457,1.434,1.789.828,3.565,1.682,5.34,2.539.422.2.61.161.6-.359-.018-1.106-.024-2.213,0-3.318.013-.522-.209-.664-.69-.65-.84.026-1.682.007-2.524.007m-8.8-2.27c.625,0,1.25.008,1.874,0,1.415-.019,1.318.244,1.34-1.367.008-.533-.182-.716-.714-.707-1.441.027-2.884,0-4.325.012-1.532.016-1.38-.278-1.4,1.438-.007.468.165.644.632.631.865-.023,1.73-.006,2.6-.006m8.726,0c.649,0,1.3.007,1.946,0,1.46-.017,1.308.219,1.341-1.36.01-.526-.158-.725-.7-.714-1.466.028-2.932.009-4.4.009-1.409,0-1.394,0-1.348,1.434.015.456.162.651.635.638.84-.024,1.682-.007,2.523-.006M37.017,2.317a.9.9,0,0,0-.982.918.966.966,0,0,0,1.931.033.9.9,0,0,0-.949-.951M17.432,4.222a1.041,1.041,0,0,0,1-.96,1.037,1.037,0,0,0-.976-.978.936.936,0,0,0-.958.958.939.939,0,0,0,.938.98m40.074-.948a.938.938,0,0,0-.925-.993,1.039,1.039,0,0,0-1.007.948,1.03,1.03,0,0,0,.963.99.935.935,0,0,0,.969-.945" fill="#0068b3"/>
      </g>
    </g>
    <g id="Group_24134" data-name="Group 24134" transform="translate(0 91)">
      <g id="Group_24095-2" data-name="Group 24095" clip-path="url(#clip-path-2)">
        <path id="Path_27494-2" data-name="Path 27494" d="M57.379,0C59.41.861,60.3,2.475,59.725,4.253a2.958,2.958,0,0,1-1.447,1.819.954.954,0,0,0-.569,1.041c.029.5.013,1.011,0,1.517-.019.992-.415,1.387-1.425,1.39-2.819.007-5.637,0-8.455,0-.868,0-.853.01-.876,1.059-.014.618.014,1.081.858,1.022.958-.067,1.926-.026,2.889-.01.813.014,1.316.465,1.311,1.136s-.506,1.111-1.325,1.123c-.988.015-1.976.028-2.963,0-.556-.018-.821.169-.764.742.012.119,0,.24,0,.361,0,.969,0,.972.956.972H68.008c1.406,0,1.707.3,1.707,1.684q0,18.246,0,36.492c0,1.356-.31,1.67-1.647,1.67H5.923c-1.309,0-1.634-.321-1.637-1.608,0-1.2-.007-2.409,0-3.613.008-.846.468-1.377,1.153-1.364.66.013,1.1.527,1.109,1.334s.018,1.59,0,2.385c-.01.428.147.634.588.6.168-.014.337,0,.506,0H66.393c1.052,0,1.052,0,1.053-1.067q0-16.62,0-33.24c0-1,0-1-.975-1h-18.5c-1,0-1.006,0-1.008.994,0,1.3.028,2.6-.012,3.9a1.13,1.13,0,0,0,.779,1.212c1.145.506,2.256,1.088,3.4,1.6a1.661,1.661,0,0,1,1.083,1.69q-.023,8.42,0,16.837a1.565,1.565,0,0,1-.984,1.6c-.638.282-1.258.608-1.9.878a1.123,1.123,0,0,1-1.538-.508,1.155,1.155,0,0,1,.512-1.546.258.258,0,0,1,.063-.034c1.451-.341,1.521-1.374,1.5-2.633-.068-4.118-.025-8.238-.027-12.356,0-.8-.008-.806-.742-.458-3.415,1.622-6.825,3.254-10.247,4.862a1,1,0,0,0-.671,1.043c.02,4.528.009,9.057.013,13.585,0,.765.034.783.71.463,1.763-.834,3.521-1.679,5.287-2.506a1.189,1.189,0,0,1,1.656.336,1.137,1.137,0,0,1-.5,1.654c-2.572,1.262-5.163,2.487-7.748,3.721a1.539,1.539,0,0,1-1.389-.09q-6.713-3.21-13.429-6.412a1.6,1.6,0,0,1-.979-1.608q.016-8.419,0-16.837A1.666,1.666,0,0,1,22.878,26.4c1.184-.535,2.342-1.13,3.526-1.668a.962.962,0,0,0,.64-1q-.033-2.131,0-4.264c.008-.532-.136-.781-.731-.779q-9.539.024-19.077,0c-.721,0-.683.389-.683.876q.006,12.934,0,25.869c0,.265.01.531-.011.8a1.087,1.087,0,0,1-1.1,1.1,1.1,1.1,0,0,1-1.147-1.13c-.012-.168-.007-.337-.007-.506q0-13.8,0-27.6c0-1.344.313-1.655,1.664-1.655q10.008,0,20.016-.008c.337,0,.82.2.98-.218a2.758,2.758,0,0,0,.012-1.632c-.038-.158-.2-.192-.353-.2-.192-.009-.385-.01-.577-.01H4.2c-1.667,0-1.985.317-1.985,1.978q0,20.016,0,40.032c0,1.654.319,1.969,2,1.969h65.54c.265,0,.531.005.794-.019a1.212,1.212,0,0,0,1.211-1.2c.027-.287.021-.577.021-.866q0-19.908,0-39.816c0-.169,0-.337,0-.506-.03-1.148-.433-1.565-1.592-1.571-2.674-.012-5.347-.005-8.021-.005-2.1,0-4.191,0-6.287,0-.99,0-1.53-.417-1.519-1.148s.542-1.118,1.55-1.118c4.721,0,9.443.04,14.163-.022A3.715,3.715,0,0,1,74,14.6V58.1a3.689,3.689,0,0,1-3.925,2.527c-2.936-.072-5.875-.019-8.813-.019H48.186c-.915,0-.924,0-.763.861a9.983,9.983,0,0,0,3.4,5.724,1.189,1.189,0,0,0,.872.251c1.372,0,2.746-.025,4.117.011a3.278,3.278,0,0,1,3.075,3.949A3.5,3.5,0,0,1,56.512,74H17.489c-.087-.042-.172-.086-.26-.125A3.33,3.33,0,0,1,15.1,70.193a3.274,3.274,0,0,1,3.455-2.746c1.252-.007,2.5,0,3.757,0a1.2,1.2,0,0,0,.873-.25,9.915,9.915,0,0,0,3.384-5.652c.181-.93.163-.935-.821-.935-7.273,0-14.546-.03-21.818.02A3.728,3.728,0,0,1,0,58.1V14.6a3.725,3.725,0,0,1,3.92-2.528c6.519.053,13.038.021,19.557.02.962,0,1.924,0,2.887,0,.21,0,.494.057.577-.185a2.6,2.6,0,0,0,.018-1.63c-.142-.437-.63-.239-.964-.241-2.766-.014-5.532,0-8.3-.011-1,0-1.391-.4-1.408-1.4-.009-.529-.024-1.059,0-1.587a.861.861,0,0,0-.517-.922,3.039,3.039,0,0,1-1.5-1.861C13.7,2.47,14.592.861,16.621,0h1.735a3.793,3.793,0,0,1,2.1,1.877A3.268,3.268,0,0,1,19.19,6.048,1.139,1.139,0,0,0,18.671,7.4c.121.56.625.338.967.34,2.769.017,5.538.005,8.307.012,1.045,0,1.428.4,1.44,1.447.008.723.025,1.446-.005,2.167-.021.512.128.739.687.729q2.528-.042,5.056,0c.549.008.708-.2.7-.723q-.035-2.168,0-4.334a1.012,1.012,0,0,0-.564-.978,3.219,3.219,0,0,1-1.486-3.542A3.5,3.5,0,0,1,36.133,0h1.735A3.359,3.359,0,0,1,38.5,6.224c-.287.143-.313.4-.313.674,0,1.516.008,3.033-.006,4.55-.005.452.144.652.624.647q2.6-.026,5.2,0c.489.005.626-.206.613-.654-.021-.721-.01-1.444,0-2.166.009-1.148.373-1.519,1.513-1.521,2.817,0,5.634-.02,8.451.011.676.008.819-.275.794-.864a.994.994,0,0,0-.569-.843A3.154,3.154,0,0,1,53.27,3.282,3.4,3.4,0,0,1,55.645,0ZM35.816,42.564c0-2.261-.012-4.523.008-6.784a.948.948,0,0,0-.6-1.01q-5.192-2.439-10.358-4.931c-.632-.305-.706-.106-.7.482q.023,6.749,0,13.5a1.1,1.1,0,0,0,.744,1.146q5.124,2.414,10.222,4.883c.531.257.712.2.706-.426-.022-2.286-.009-4.571-.008-6.857M26.281,67.381H47.7c-.118-.179-.178-.281-.249-.376A11.965,11.965,0,0,1,45.012,61.3c-.068-.539-.321-.7-.859-.7-4.479.02-8.958.011-13.437.011-1.526,0-1.536,0-1.85,1.469a13.354,13.354,0,0,1-2.585,5.3M48.255,27.674c-.263-.159-.36-.229-.465-.28Q42.642,24.933,37.5,22.468a1.142,1.142,0,0,0-1.091.05c-2.059,1-4.126,1.973-6.188,2.961-1.447.693-2.891,1.392-4.318,2.08.05.282.242.309.383.377,3.429,1.644,6.864,3.278,10.289,4.933a1.051,1.051,0,0,0,1.014-.085q4.168-2,8.343-3.98c.733-.35,1.462-.71,2.325-1.13M37,71.78q9.068,0,18.134,0c.985,0,1.464-.347,1.475-1.012s-.471-1.024-1.44-1.049h-36.2c-.1,0-.193,0-.289,0-.857.048-1.306.412-1.294,1.048.01.606.445.957,1.259,1.007.24.015.482.007.723.007H37M32.616,18.7c-.889,0-1.779,0-2.668,0-.335,0-.561.083-.559.477.006,1.2,0,2.4,0,3.606,0,.323.12.456.441.3,1.887-.9,3.783-1.781,5.654-2.714.582-.29.339-.906.286-1.372-.049-.442-.489-.286-.774-.292-.793-.019-1.586-.007-2.38,0m8.791,0c-.769,0-1.539-.019-2.307.009-.319.012-.823-.2-.88.338-.053.51-.248,1.108.457,1.434,1.789.828,3.565,1.682,5.34,2.539.422.2.61.161.6-.359-.018-1.106-.024-2.213,0-3.318.013-.522-.209-.664-.69-.65-.84.026-1.682.007-2.524.007m-8.8-2.27c.625,0,1.25.008,1.874,0,1.415-.019,1.318.244,1.34-1.367.008-.533-.182-.716-.714-.707-1.441.027-2.884,0-4.325.012-1.532.016-1.38-.278-1.4,1.438-.007.468.165.644.632.631.865-.023,1.73-.006,2.6-.006m8.726,0c.649,0,1.3.007,1.946,0,1.46-.017,1.308.219,1.341-1.36.01-.526-.158-.725-.7-.714-1.466.028-2.932.009-4.4.009-1.409,0-1.394,0-1.348,1.434.015.456.162.651.635.638.84-.024,1.682-.007,2.523-.006M37.017,2.317a.9.9,0,0,0-.982.918.966.966,0,0,0,1.931.033.9.9,0,0,0-.949-.951M17.432,4.222a1.041,1.041,0,0,0,1-.96,1.037,1.037,0,0,0-.976-.978.936.936,0,0,0-.958.958.939.939,0,0,0,.938.98m40.074-.948a.938.938,0,0,0-.925-.993,1.039,1.039,0,0,0-1.007.948,1.03,1.03,0,0,0,.963.99.935.935,0,0,0,.969-.945" fill="#0068b3"/>
      </g>
    </g>
  </g>
</svg>
