<svg width="50" height="50" viewBox="0 0 50 50" fill="none" xmlns="http://www.w3.org/2000/svg">
<path d="M24.9993 45.8346C22.1174 45.8346 19.4091 45.2874 16.8744 44.193C14.3396 43.0999 12.1348 41.6159 10.2598 39.7409C8.38477 37.8659 6.90074 35.661 5.80768 33.1263C4.71324 30.5916 4.16602 27.8832 4.16602 25.0013C4.16602 22.1194 4.71324 19.411 5.80768 16.8763C6.90074 14.3416 8.38477 12.1367 10.2598 10.2617C12.1348 8.38672 14.3396 6.902 16.8744 5.80755C19.4091 4.7145 22.1174 4.16797 24.9993 4.16797C27.8813 4.16797 30.5896 4.7145 33.1243 5.80755C35.6591 6.902 37.8639 8.38672 39.7389 10.2617C41.6139 12.1367 43.098 14.3416 44.191 16.8763C45.2855 19.411 45.8327 22.1194 45.8327 25.0013C45.8327 27.8832 45.2855 30.5916 44.191 33.1263C43.098 35.661 41.6139 37.8659 39.7389 39.7409C37.8639 41.6159 35.6591 43.0999 33.1243 44.193C30.5896 45.2874 27.8813 45.8346 24.9993 45.8346Z" fill="white"/>
<path d="M22.0827 28.7513L17.5514 24.2201C17.1695 23.8381 16.7007 23.6471 16.1452 23.6471C15.5896 23.6471 15.1035 23.8555 14.6869 24.2721C14.3049 24.6541 14.1139 25.1402 14.1139 25.7305C14.1139 26.3207 14.3049 26.8069 14.6869 27.1888L20.6243 33.1263C21.0063 33.5082 21.4924 33.6992 22.0827 33.6992C22.673 33.6992 23.1591 33.5082 23.541 33.1263L35.3639 21.3034C35.7459 20.9214 35.9369 20.4527 35.9369 19.8971C35.9369 19.3416 35.7285 18.8555 35.3119 18.4388C34.9299 18.0569 34.4438 17.8659 33.8535 17.8659C33.2632 17.8659 32.7771 18.0569 32.3952 18.4388L22.0827 28.7513ZM24.9994 45.8346C22.1174 45.8346 19.4091 45.2874 16.8744 44.193C14.3396 43.0999 12.1348 41.6159 10.2598 39.7409C8.38477 37.8659 6.90074 35.661 5.80768 33.1263C4.71324 30.5916 4.16602 27.8832 4.16602 25.0013C4.16602 22.1194 4.71324 19.411 5.80768 16.8763C6.90074 14.3416 8.38477 12.1367 10.2598 10.2617C12.1348 8.38672 14.3396 6.902 16.8744 5.80755C19.4091 4.7145 22.1174 4.16797 24.9994 4.16797C27.8813 4.16797 30.5896 4.7145 33.1243 5.80755C35.6591 6.902 37.8639 8.38672 39.7389 10.2617C41.6139 12.1367 43.098 14.3416 44.191 16.8763C45.2855 19.411 45.8327 22.1194 45.8327 25.0013C45.8327 27.8832 45.2855 30.5916 44.191 33.1263C43.098 35.661 41.6139 37.8659 39.7389 39.7409C37.8639 41.6159 35.6591 43.0999 33.1243 44.193C30.5896 45.2874 27.8813 45.8346 24.9994 45.8346Z" fill="#00B16B"/>
</svg>
