<svg xmlns="http://www.w3.org/2000/svg" xmlns:xlink="http://www.w3.org/1999/xlink" width="74" height="74" viewBox="0 0 74 74">
  <defs>
    <clipPath id="clip-path">
      <rect id="Rectangle_2747" data-name="Rectangle 2747" width="74" height="57.543" transform="translate(0 0.001)" fill="#0068b3"/>
    </clipPath>
  </defs>
  <g id="Group_24101" data-name="Group 24101" transform="translate(-430 -1286)">
    <rect id="Rectangle_2710" data-name="Rectangle 2710" width="74" height="74" transform="translate(430 1286)" fill="#545454" opacity="0"/>
    <g id="Group_24100" data-name="Group 24100" transform="translate(430 1294)">
      <g id="Group_24099" data-name="Group 24099" clip-path="url(#clip-path)">
        <path id="Path_27517" data-name="Path 27517" d="M74,55.051c-.779,1.883-2.248,2.507-4.206,2.492-5.68-.046-11.36-.015-17.041-.017-2.735,0-4.065-1.341-4.066-4.089q0-5.271,0-10.543c0-.979,0-.984-.943-.985-2.359,0-4.718.018-7.076-.013-.66-.008-.874.2-.863.871.035,2.358.039,4.718,0,7.076-.012.7.239.885.879.834a6.3,6.3,0,0,1,1.44.033,3.417,3.417,0,0,1,.167,6.678A6.325,6.325,0,0,1,41,57.521q-9.677.012-19.353.006a3.618,3.618,0,0,1-3.263-1.5,3.254,3.254,0,0,1-.229-3.552,3.221,3.221,0,0,1,2.986-1.812c1.688-.014,1.688-.021,1.688-1.733,0-2.07-.021-4.141.012-6.21.01-.641-.215-.834-.837-.825-2.069.028-4.139.015-6.209.005a4.583,4.583,0,0,1-1.073-.108,1.035,1.035,0,0,1-.843-1.175,1.068,1.068,0,0,1,1.008-1.046,5.931,5.931,0,0,1,.865-.021H47.67c1.015,0,1.016,0,1.017-1.037s-.021-2.07.008-3.1c.016-.543-.2-.753-.722-.7-.119.012-.24,0-.361,0H3.348c-1.078,0-1.079,0-1.079,1.049,0,.915-.01,1.83,0,2.744.012.779.269,1.039,1.049,1.043,2.143.01,4.285,0,6.427.009A1.164,1.164,0,0,1,11.066,40.6c.055.686-.376,1.146-1.187,1.268a.446.446,0,0,1-.072.01c-2.405.006-4.815.156-7.213-.077A2.826,2.826,0,0,1,0,38.849Q0,20.978,0,3.106A2.979,2.979,0,0,1,2.89.017C3.129,0,3.371,0,3.612,0H41.594a3.38,3.38,0,0,1,1.074.085,1.093,1.093,0,0,1,.866,1.174,1.106,1.106,0,0,1-1,1.07,5.5,5.5,0,0,1-.936.035H3.76c-1.386,0-1.491.1-1.491,1.461q0,13.757,0,27.512c0,1,0,1,.978,1,1.372,0,2.745-.034,4.116.015.706.025.892-.22.89-.906Q8.222,20.188,8.24,8.924c0-1.231.379-1.8,1.18-1.781s1.173.606,1.174,1.826q0,7.98,0,15.958c0,.974-.008.916.9.59a8.994,8.994,0,0,0,3.809-2.974c.758-.9,1.606-1.729,2.372-2.624a2.476,2.476,0,0,1,1.445-.869c1.319-.271,2.628-.593,3.949-.85a2.186,2.186,0,0,0,1.332-.768q3.119-3.7,6.266-7.37c.141-.165.283-.329.431-.487.669-.718,1.058-.782,1.894-.286,2.008,1.19,4.027,2.364,6.008,3.6a1.3,1.3,0,0,0,1.572-.006c1.245-.778,2.519-1.507,3.787-2.247.555-.324,1.1-.768,1.8-.343.647.395.583,1.047.583,1.675q0,9.677.008,19.352c0,.332-.2.816.241.962a2.612,2.612,0,0,0,1.494-.007c.223-.062.194-.308.2-.5.007-.433-.011-.867.013-1.3a1.15,1.15,0,0,1,1.1-1.2,1.124,1.124,0,0,1,1.213,1.078,5.652,5.652,0,0,1,.039.864c0,2.744.019,5.488-.011,8.232-.008.673.228.863.878.861q9.531-.027,19.063,0c.643,0,.816-.215.814-.837-.019-5.921-.009-11.843-.014-17.764,0-1.247-.35-1.588-1.58-1.6-2.183-.014-2.183-.014-2.859,2.047A2.721,2.721,0,0,1,64.458,24.3q-3.1.026-6.209,0a2.715,2.715,0,0,1-2.789-2.069c-.158-.479-.312-.961-.438-1.45a.753.753,0,0,0-.86-.67c-.648.034-1.3,0-1.949.015a1.032,1.032,0,0,0-1.154,1.166c-.02,1.155,0,2.31-.012,3.466a3.4,3.4,0,0,1-.1.855,1.057,1.057,0,0,1-1.169.86,1.04,1.04,0,0,1-1.055-1,27.1,27.1,0,0,1,.043-4.9,3.354,3.354,0,0,1,3.437-2.815c.945-.026.947-.026.948-.963q0-4.586,0-9.171a4.209,4.209,0,0,1,.024-.72,1.088,1.088,0,0,1,1.086-.974,1.03,1.03,0,0,1,1.122.826A4.6,4.6,0,0,1,55.5,7.9c.009,2.984.021,5.969-.007,8.953-.007.681.19.948.9.916,1.1-.05,2.214-.03,3.321-.006.5.01.673-.176.672-.676-.013-4.573-.005-9.146-.011-13.719,0-.79-.226-.993-1.068-.994q-5.632-.009-11.265,0c-1.145,0-1.741-.4-1.748-1.17S46.913,0,48.031,0q5.559,0,11.12,0c2.348,0,3.574,1.206,3.581,3.552.013,4.188,0,8.377.007,12.565,0,1.893-.216,1.616,1.666,1.63,1.853.014,3.708.052,5.559-.01A3.8,3.8,0,0,1,74,20.243ZM61.456,42.668c-3.176,0-6.352.019-9.527-.015-.71-.007-.9.235-.891.914.029,3.344.012,6.688.014,10.032,0,1.278.287,1.561,1.577,1.561q8.731,0,17.465,0c1.352,0,1.687-.338,1.688-1.715,0-3.3-.017-6.592.015-9.887.007-.685-.18-.913-.887-.9-3.151.034-6.3.015-9.454.015M33.312,22.208c0,3.128.01,6.257-.01,9.386,0,.556.163.775.74.76q1.876-.048,3.754,0c.585.015.8-.17.8-.778q-.027-7.8,0-15.6a1.01,1.01,0,0,0-.558-.989c-1.355-.782-2.691-1.6-4.037-2.393-.675-.4-.684-.4-.685.368q0,4.621,0,9.243m-2.449-8.657a.7.7,0,0,0-.176.108q-2.4,2.792-4.79,5.586a1.063,1.063,0,0,0-.232.737c0,3.9.007,7.793-.007,11.69,0,.495.163.688.667.679,1.2-.022,2.4-.005,3.607-.007,1.016,0,1.018,0,1.018-1.053q0-8.514,0-17.029a1.157,1.157,0,0,0-.084-.711m.531,37.116c1.779,0,3.558-.024,5.337.013.626.013.837-.171.827-.813-.034-2.308-.013-4.616-.013-6.924,0-1.032,0-1.035-1.033-1.034-1.7,0-1.458-.111-1.477,1.461a3.708,3.708,0,1,1-7.408.067c-.045-1.641.33-1.523-1.711-1.534-.519,0-.733.183-.729.716q.022,3.678,0,7.356c0,.54.206.707.728.7,1.826-.022,3.654-.008,5.481-.008M44.38,22.874c0-2.936-.007-5.871.006-8.807,0-.544-.109-.723-.636-.389-.751.476-1.522.923-2.293,1.368a.852.852,0,0,0-.506.8q.01,7.941,0,15.881c0,.476.2.639.651.625a17.519,17.519,0,0,1,1.876.007c.684.052.925-.185.917-.891-.034-2.863-.014-5.727-.014-8.59M31.331,55.161h8.736c.457,0,.915.012,1.371-.009a1.094,1.094,0,0,0,.134-2.183,3.751,3.751,0,0,0-.72-.033q-9.53,0-19.059,0a3.5,3.5,0,0,0-.857.075.988.988,0,0,0-.8,1.121,1.008,1.008,0,0,0,.948,1.005,4.678,4.678,0,0,0,.721.021h9.529M23.392,26.453c0-1.755-.006-3.509,0-5.263,0-.455-.107-.686-.63-.549-.672.177-1.355.323-2.039.447a.632.632,0,0,0-.613.72q.016,4.938,0,9.877c0,.5.217.681.7.664.624-.022,1.25-.029,1.873,0,.531.027.72-.172.713-.708-.025-1.73-.009-3.46-.01-5.19M17.65,23.418c-.712.794-1.4,1.554-2.079,2.32a1.15,1.15,0,0,0-.177.827c0,1.419-.011,2.838,0,4.257.015,1.719-.24,1.477,1.546,1.536.692.023.848-.242.84-.88-.031-2.381-.009-4.763-.017-7.144a1.581,1.581,0,0,0-.115-.916m43.778-3.3c-1.18,0-2.359,0-3.538,0-.2,0-.456-.071-.528.237a1.428,1.428,0,0,0,1.222,1.578q2.634.006,5.27,0c1.161,0,1.139-.007,1.475-1.119.156-.519.033-.713-.508-.706-1.131.015-2.262.005-3.393,0m-48.4,9.754c0-.648-.008-1.3,0-1.944.008-.4-.1-.5-.509-.334-1.92.789-1.924.779-1.924,2.854,0,.072,0,.144,0,.216.037,1.907-.33,1.66,1.833,1.68.43.005.61-.173.6-.6-.015-.624,0-1.248,0-1.872M31.29,41.908c-1.3,0-1.3,0-1.3,1.055,0,1.373.394,1.949,1.344,1.958.927.01,1.337-.566,1.338-1.881,0-1.132,0-1.132-1.378-1.132" fill="#0068b3"/>
        <path id="Path_27518" data-name="Path 27518" d="M64.345,28.984a1.176,1.176,0,0,1-.632,1,1.119,1.119,0,0,1-1.283-.139,1.417,1.417,0,0,0-1.594-.315c-.156.07-.326.142-.324.342s.181.272.341.322c.642.2,1.292.376,1.929.589a3.029,3.029,0,0,1,2.442,2.7,3.109,3.109,0,0,1-2.095,3.13.948.948,0,0,0-.626.711,1.065,1.065,0,0,1-1.122.927,1.05,1.05,0,0,1-1.11-.937c-.061-.414-.3-.547-.623-.69a3.288,3.288,0,0,1-2.09-2.482,1.231,1.231,0,0,1,.8-1.5,1.167,1.167,0,0,1,1.477.909,1.742,1.742,0,0,0,2.749.71.623.623,0,0,0-.138-1.109,11.189,11.189,0,0,0-1.295-.436c-.5-.165-1.019-.3-1.5-.508a2.341,2.341,0,0,1-1.576-2.135,2.583,2.583,0,0,1,1.379-2.441c.422-.248.778-.443.867-1.021a.976.976,0,0,1,1.074-.78,1,1,0,0,1,1.064.8,1.354,1.354,0,0,0,.786.945,1.808,1.808,0,0,1,1.1,1.4" fill="#0068b3"/>
        <path id="Path_27519" data-name="Path 27519" d="M26.654,9.647a1.134,1.134,0,0,1-.812,1.1.966.966,0,0,0-.763.743,1.058,1.058,0,0,1-1.13.822,1.046,1.046,0,0,1-1.044-.841.8.8,0,0,0-.682-.7,1.042,1.042,0,0,1-.84-1.108,1.019,1.019,0,0,1,.857-1.092c.447-.085.561-.3.66-.693a1.137,1.137,0,0,1,2.181-.006.878.878,0,0,0,.753.725,1.116,1.116,0,0,1,.82,1.054" fill="#0068b3"/>
        <path id="Path_27520" data-name="Path 27520" d="M53.717,26.633A1.132,1.132,0,0,1,52.58,25.5a1.128,1.128,0,1,1,2.256-.018,1.134,1.134,0,0,1-1.119,1.151" fill="#0068b3"/>
        <path id="Path_27521" data-name="Path 27521" d="M61.536,49.1q3.355,0,6.712,0a3.633,3.633,0,0,1,.789.05,1.14,1.14,0,0,1,.194,2.166,2.324,2.324,0,0,1-1.062.148H54.961a4.664,4.664,0,0,1-.648-.027,1.165,1.165,0,1,1,.078-2.328c.456-.025.914-.01,1.371-.01h5.774" fill="#0068b3"/>
        <path id="Path_27522" data-name="Path 27522" d="M57.371,45.335c.938,0,1.876-.011,2.813,0,.851.011,1.377.459,1.387,1.147a1.207,1.207,0,0,1-1.3,1.181q-2.921.057-5.843,0a1.173,1.173,0,0,1-1.266-1.2c.011-.667.512-1.116,1.319-1.131.962-.019,1.924-.005,2.886-.005" fill="#0068b3"/>
      </g>
    </g>
  </g>
</svg>
