<svg width="113" height="108" viewBox="0 0 113 108" fill="none" xmlns="http://www.w3.org/2000/svg">
<path d="M79.3593 35.1063H81.1113V45.8185C81.1113 47.0304 82.0994 48.0128 83.3183 48.0128C84.5372 48.0128 85.5253 47.0304 85.5253 45.8185V35.1063H87.2773C88.4962 35.1063 89.4843 34.1239 89.4843 32.912V15.1005C89.4843 13.8886 88.4962 12.9062 87.2773 12.9062H85.5253V2.1943C85.5253 0.982387 84.5372 0 83.3183 0C82.0994 0 81.1113 0.982387 81.1113 2.1943V12.9062H79.3593C78.1404 12.9062 77.1523 13.8886 77.1523 15.1005V32.912C77.1523 34.1239 78.1404 35.1063 79.3593 35.1063ZM81.5664 17.2948H85.07V30.7177H81.5664V17.2948ZM61.4804 52.6816H63.2323V63.3935C63.2323 64.6054 64.2204 65.5878 65.4394 65.5878C66.6583 65.5878 67.6464 64.6054 67.6464 63.3935V52.6816H69.3983C70.6173 52.6816 71.6054 51.6992 71.6054 50.4873V32.6757C71.6054 31.4638 70.6173 30.4814 69.3983 30.4814H67.6464V19.7695C67.6464 18.5576 66.6583 17.5752 65.4394 17.5752C64.2204 17.5752 63.2323 18.5576 63.2323 19.7695V30.4814H61.4804C60.2614 30.4814 59.2734 31.4638 59.2734 32.6757V50.4873C59.2734 51.6992 60.2614 52.6816 61.4804 52.6816ZM63.6874 34.87H67.1911V48.293H63.6874V34.87ZM43.6019 35.1063H45.3536V45.8185C45.3536 47.0304 46.3417 48.0128 47.5606 48.0128C48.7796 48.0128 49.7677 47.0304 49.7677 45.8185V35.1063H51.5196C52.7386 35.1063 53.7266 34.1239 53.7266 32.912V15.1005C53.7266 13.8886 52.7386 12.9062 51.5196 12.9062H49.7677V2.1943C49.7677 0.982387 48.7796 0 47.5606 0C46.3417 0 45.3536 0.982387 45.3536 2.1943V12.9062H43.6019C42.3829 12.9062 41.3949 13.8886 41.3949 15.1005V32.912C41.3949 34.1239 42.3829 35.1063 43.6019 35.1063ZM45.8089 17.2948H49.3126V30.7177H45.8089V17.2948ZM23.5159 32.6757V50.4873C23.5159 51.6992 24.504 52.6816 25.7229 52.6816H27.4749V63.3935C27.4749 64.6054 28.463 65.5878 29.6819 65.5878C30.9009 65.5878 31.889 64.6054 31.889 63.3935V52.6816H33.6409C34.8598 52.6816 35.8479 51.6992 35.8479 50.4873V32.6757C35.8479 31.4638 34.8598 30.4814 33.6409 30.4814H31.889V19.7695C31.889 18.5576 30.9009 17.5752 29.6819 17.5752C28.463 17.5752 27.4749 18.5576 27.4749 19.7695V30.4814H25.7229C24.504 30.4814 23.5159 31.4638 23.5159 32.6757ZM27.93 34.87H31.4336V48.293H27.93V34.87ZM105.067 10.4501H95.9562C94.7373 10.4501 93.7492 11.4325 93.7492 12.6444C93.7492 13.8563 94.7373 14.8387 95.9562 14.8387H105.067C107.007 14.8387 108.586 16.409 108.586 18.3388V72.5061H4.41406V20.3949C4.41406 17.3312 6.92103 14.8387 10.0025 14.8387H22.2965C23.5155 14.8387 24.5036 13.8563 24.5036 12.6444C24.5036 11.4325 23.5155 10.4501 22.2965 10.4501H10.0025C4.48711 10.4501 0 14.9111 0 20.3949V82.3667C0 87.8502 4.48711 92.3114 10.0025 92.3114H40.9969C41.3746 95.6694 41.1399 99.6867 40.3445 103.611H27.9106C26.6916 103.611 25.7035 104.593 25.7035 105.805C25.7035 107.017 26.6916 107.999 27.9106 107.999H42.1051C42.1086 107.999 42.1124 108 42.1159 108C42.121 108 42.126 107.999 42.1311 107.999H70.7746C70.7797 107.999 70.785 108 70.7901 108C70.7934 108 70.7969 107.999 70.8002 107.999H85.0905C86.3095 107.999 87.2976 107.017 87.2976 105.805C87.2976 104.593 86.3095 103.611 85.0905 103.611H72.5345C71.668 99.6498 71.3888 95.631 71.7576 92.3114H102.998C108.513 92.3114 113 87.8502 113 82.3667V18.3388C113 13.9889 109.441 10.4501 105.067 10.4501ZM68.0289 103.611H44.8369C45.5489 99.7115 45.7632 95.7462 45.4357 92.3114H67.32C67.0033 95.7179 67.2562 99.683 68.0289 103.611ZM102.998 87.9228H10.0025C6.92103 87.9228 4.41406 85.4303 4.41406 82.3667V76.8947H108.586V82.3667C108.586 85.4303 106.079 87.9228 102.998 87.9228Z" fill="url(#paint0_linear_6394_2094)"/>
<defs>
<linearGradient id="paint0_linear_6394_2094" x1="56.4998" y1="-2.41802" x2="56.4998" y2="108.377" gradientUnits="userSpaceOnUse">
<stop stop-color="#00EFD1"/>
<stop offset="1" stop-color="#00ACEA"/>
</linearGradient>
</defs>
</svg>
