<svg xmlns="http://www.w3.org/2000/svg" xmlns:xlink="http://www.w3.org/1999/xlink" width="74" height="74" viewBox="0 0 74 74">
  <defs>
    <clipPath id="clip-path">
      <rect id="Rectangle_2748" data-name="Rectangle 2748" width="58.314" height="74" fill="#0068b3"/>
    </clipPath>
  </defs>
  <g id="Group_24109" data-name="Group 24109" transform="translate(-1006 -1011)">
    <rect id="Rectangle_2749" data-name="Rectangle 2749" width="74" height="74" transform="translate(1006 1011)" fill="#545454" opacity="0"/>
    <g id="Group_24108" data-name="Group 24108" transform="translate(1014 1011)">
      <g id="Group_24107" data-name="Group 24107" clip-path="url(#clip-path)">
        <path id="Path_27527" data-name="Path 27527" d="M46.221,0a8.681,8.681,0,0,1,4.66,2.712,8.749,8.749,0,0,1,1.984,5.957c-.005,7.052.006,14.1-.014,21.157a1.8,1.8,0,0,0,.739,1.583A12.623,12.623,0,0,1,53.713,51a2.093,2.093,0,0,0-.867,1.818c.037,4.188.021,8.376.016,12.564a8.511,8.511,0,0,1-1.737,5.535,7.65,7.65,0,0,1-6.175,3.07q-15.633.024-31.266,0a7.976,7.976,0,0,1-8.074-8.06C5.588,58.279,5.6,50.625,5.6,42.971c0-1.772,0-1.771-1.8-1.772-.385,0-.771.015-1.155-.011A2.713,2.713,0,0,1,.089,38.856a5.125,5.125,0,0,1-.082-.789c0-6.209-.015-12.419,0-18.629A2.84,2.84,0,0,1,3.2,16.282c.53,0,1.062-.035,1.588.009.63.051.841-.177.831-.817-.033-2.19.073-4.384-.03-6.57a8.3,8.3,0,0,1,6.7-8.9ZM29.215,58.9q9.855,0,19.711.011c.642,0,.9-.157.875-.847-.05-1.346-.033-2.695-.006-4.042.012-.57-.144-.708-.712-.544a11.638,11.638,0,0,1-6.484.1,6.656,6.656,0,0,0-4.122-.166,1.407,1.407,0,0,1-1.775-1.7,2.016,2.016,0,0,0-.663-2.135,12.111,12.111,0,0,1-2.905-10.61,12.647,12.647,0,0,1,15.94-9.92c.5.133.726.159.725-.488-.02-6.859-.008-13.718-.019-20.577a4.918,4.918,0,0,0-.93-2.909A5.157,5.157,0,0,0,44.343,2.94q-8.592,0-17.184,0c-4.4,0-8.809-.014-13.213.006A4.978,4.978,0,0,0,8.693,8.206c-.007,2.359,0,4.717,0,7.076,0,1,0,1,.991,1q8.448,0,16.895,0a2.785,2.785,0,0,1,3.074,3.092q.007,5.2,0,10.4c0,2.864.011,5.728-.006,8.592A2.735,2.735,0,0,1,26.824,41.2c-.264.006-.53.016-.794,0-.44-.025-.686.152-.706.61a3.39,3.39,0,0,1-.066.5A1.578,1.578,0,0,1,22.6,43.437c-.9-.6-1.8-1.2-2.682-1.833a2.178,2.178,0,0,0-1.343-.412c-2.984.015-5.969.029-8.953-.008-.725-.009-.949.2-.945.933.029,5.271.015,10.541.016,15.812,0,.962,0,.965.956.965q9.783,0,19.567,0M14.806,19.368H4.047c-.962,0-.965,0-.965.954q0,8.413,0,16.826c0,.961,0,.965.954.965,4.526,0,9.052.044,13.576-.023,1.642-.024,3.165.1,4.424,1.276a1,1,0,0,0,.12.079c.258.18.4.16.511-.185a1.616,1.616,0,0,1,1.66-1.138,9.083,9.083,0,0,1,1.3,0c.714.071.965-.181.962-.927q-.041-8.448,0-16.9c0-.731-.221-.951-.948-.945-3.61.032-7.221.015-10.832.015M29.251,61.984H9.9c-.241,0-.482,0-.722.007-.281,0-.474.12-.472.422a26.379,26.379,0,0,0,.09,4.612A4.977,4.977,0,0,0,13.944,71c3.394.017,6.788,0,10.182,0q10.11,0,20.219,0c2.991,0,5.095-1.739,5.4-4.536a33.871,33.871,0,0,0,.043-3.536c0-.943,0-.946-.966-.946H29.251M45.6,31.679c-.409,0-.817,0-1.226,0a1.973,1.973,0,0,0-.356.052,9.3,9.3,0,0,0-7.643,6.826,9.368,9.368,0,0,0,2.811,9.923,6.254,6.254,0,0,0,2.461,1.627,11.875,11.875,0,0,0,5.222.714,9.715,9.715,0,0,0,8.4-9.082A9.579,9.579,0,0,0,45.6,31.679" fill="#0068b3"/>
        <path id="Path_27528" data-name="Path 27528" d="M29.186,9.14H15.328a2.409,2.409,0,0,1-1.064-.134,1.465,1.465,0,0,1-.913-1.5A1.359,1.359,0,0,1,14.4,6.188a4.035,4.035,0,0,1,1.069-.124q13.785-.01,27.57-.005c.121,0,.241,0,.361.005a1.594,1.594,0,0,1,1.7,1.58,1.557,1.557,0,0,1-1.769,1.493q-7.073.01-14.146,0" fill="#0068b3"/>
        <path id="Path_27529" data-name="Path 27529" d="M16.357,28.666a1.534,1.534,0,0,1-1.546,1.477A1.508,1.508,0,0,1,13.337,28.6a1.51,1.51,0,1,1,3.02.062" fill="#0068b3"/>
        <path id="Path_27530" data-name="Path 27530" d="M9.838,28.627A1.524,1.524,0,1,1,8.309,27.12a1.577,1.577,0,0,1,1.529,1.507" fill="#0068b3"/>
        <path id="Path_27531" data-name="Path 27531" d="M22.868,28.611a1.489,1.489,0,1,1-2.977,0,1.488,1.488,0,0,1,2.977,0" fill="#0068b3"/>
        <path id="Path_27532" data-name="Path 27532" d="M29.181,67.908c-.24,0-.481.019-.718,0A1.59,1.59,0,0,1,27,66.473a1.537,1.537,0,0,1,1.3-1.578,4.9,4.9,0,0,1,1.787-.009,1.437,1.437,0,0,1,1.328,1.588A1.487,1.487,0,0,1,29.9,67.908c-.239.018-.479,0-.719,0v0" fill="#0068b3"/>
      </g>
    </g>
  </g>
</svg>
