<svg width="145" height="120" viewBox="0 0 145 120" fill="none" xmlns="http://www.w3.org/2000/svg">
<path d="M133.643 55.7111C126.729 48.6721 117.533 44.7931 107.745 44.7891C97.9787 44.7891 88.7673 48.6646 81.8086 55.7019C74.8375 62.7512 70.9948 72.1194 70.9858 82.0464V82.0579V82.0648C70.987 88.0732 72.5315 94.1344 75.4635 99.6671L71.0863 120L91.2108 115.322C96.3078 117.947 101.995 119.331 107.731 119.334H107.745C117.51 119.334 126.721 115.457 133.681 108.42C140.658 101.364 144.502 92.0084 144.507 82.0751C144.51 72.2118 140.652 62.8488 133.643 55.7111ZM107.731 116C102.58 115.998 97.5035 114.499 93 112L91.5 111L76 115L79.5 99.6671L78.5 98C75.714 93.0899 74.5 87.3926 74.5 82.0464C74.5 62.5 89 49 107.745 48C117.486 47.4803 124.624 51 131.5 58C138.376 65 141 72.5 141 82.0464C141 103 124.827 116 107.731 116Z" fill="url(#paint0_linear_6394_2082)"/>
<path d="M96.5 66.7598H95.5509C94.9961 66.7598 94.0954 66.9676 93.3334 67.7973C92.571 68.6275 90.4224 70.6342 90.4224 74.7154C90.4224 78.7966 93.4029 82.7399 93.8183 83.294C94.2342 83.8475 99.5716 92.49 108.025 95.8148C115.051 98.5778 116.481 98.0282 118.005 97.8898C119.53 97.752 122.284 95.5123 123.619 93.947C124 93.5 124.208 92.3457 124 92C123.792 91.6543 122.831 90.4344 122 90.0198C121.168 89.6047 116.762 87.6106 116 87.3333C115.238 87.0572 114.555 87.1692 114 88C113.445 88.8291 112.78 89.4663 112.294 90.0198C111.026 91.4662 110.166 91.8813 109.334 91.4662C108.503 91.05 105.851 90.1586 102.674 87.3333C100.201 85.1344 98.4854 82.3302 98 81.5C97.4154 80.5 98.5 79.5856 99.5233 78.5693C99.897 78.1981 100.402 77.6901 100.818 77.2061C101.233 76.7215 101.222 76.5535 101.5 76C101.5 74.7154 100.5 73.5 100.5 73.5C100.5 73.5 99.0496 70.8272 98 68.5C97.3769 67.1185 97.0925 66.7842 96.5 66.7598Z" fill="url(#paint1_linear_6394_2082)"/>
<path d="M88.2184 17.6359L9.1465 34.3037L27.7861 49.1656L24.6921 72.5073L29 74.5L41.3434 62.5941L59.1474 87.5338L88.2184 17.6359ZM29 69L31.3699 48L60.5 37.471L29 69ZM44 59.5L72 30L29 45L17 36L81.5 22.5L58 79L44 59.5Z" fill="url(#paint2_linear_6394_2082)"/>
<defs>
<linearGradient id="paint0_linear_6394_2082" x1="107.746" y1="43.1052" x2="107.746" y2="120.263" gradientUnits="userSpaceOnUse">
<stop stop-color="#00EFD1"/>
<stop offset="1" stop-color="#00ACEA"/>
</linearGradient>
<linearGradient id="paint1_linear_6394_2082" x1="107.252" y1="66.0597" x2="107.252" y2="98.1364" gradientUnits="userSpaceOnUse">
<stop stop-color="#00EFD1"/>
<stop offset="1" stop-color="#00ACEA"/>
</linearGradient>
<linearGradient id="paint2_linear_6394_2082" x1="53.1417" y1="7.18738" x2="34.6137" y2="81.7025" gradientUnits="userSpaceOnUse">
<stop stop-color="#00EFD1"/>
<stop offset="1" stop-color="#00ACEA"/>
</linearGradient>
</defs>
</svg>
