<svg width="65" height="72" viewBox="0 0 65 72" fill="none" xmlns="http://www.w3.org/2000/svg">
<path d="M62.744 19.2379H50.6464C49.4006 19.2379 48.3905 20.2453 48.3905 21.4879V30.9939H38.5488C37.3029 30.9939 36.2928 32.0014 36.2928 33.2439V42.7446H28.7072V30.9512C28.7072 29.7086 27.6971 28.7012 26.4512 28.7012H14.3537C13.1079 28.7012 12.0978 29.7086 12.0978 30.9512V42.6013H2.25597C1.01011 42.6013 0 43.6086 0 44.8513V69.75C0 70.9927 1.01011 72 2.25597 72H62.744C63.9899 72 65 70.9927 65 69.75V21.4879C65 20.2453 63.9899 19.2379 62.744 19.2379ZM48.3905 35.4939V67.5H40.8048V35.4939H48.3905ZM12.0976 67.5H4.51193V47.1013H12.0976V67.5ZM24.1952 67.5H16.6097V33.2012H24.1952V67.5ZM28.7073 47.2446H36.2928V67.5H28.7073V47.2446ZM60.4881 67.5H52.9024V23.7379H60.4881V67.5ZM4.28972 26.2871C3.51395 25.3147 3.67553 23.8993 4.65053 23.1256L21.1421 10.0392C21.9281 9.41527 23.0331 9.38517 23.8525 9.96525L35.0174 17.8695L53.6875 4.7433L49.6769 4.49594C48.4335 4.41916 47.4876 3.35154 47.5645 2.11124C47.6413 0.871071 48.7105 -0.0726592 49.9555 0.00440297L60.2536 0.639603C60.8922 0.678978 61.4839 0.987086 61.8815 1.48686C62.2793 1.98678 62.4454 2.63155 62.3385 3.26084L60.6167 13.4069C60.4304 14.505 59.4756 15.2817 58.3951 15.2817C58.27 15.2817 58.1434 15.2713 58.016 15.2498C56.7876 15.0424 55.9602 13.8811 56.1682 12.6558L56.9681 7.94237L36.3127 22.4646C35.531 23.0141 34.4868 23.0125 33.7071 22.4603L22.6241 14.6139L7.45977 26.647C7.04467 26.9764 6.54893 27.1363 6.05656 27.1363C5.39274 27.1363 4.73513 26.8454 4.28972 26.2871Z" fill="url(#paint0_linear_6689_2208)"/>
<defs>
<linearGradient id="paint0_linear_6689_2208" x1="32.4999" y1="-1.61201" x2="32.4999" y2="72.2511" gradientUnits="userSpaceOnUse">
<stop stop-color="#00EFD1"/>
<stop offset="1" stop-color="#00ACEA"/>
</linearGradient>
</defs>
</svg>
