<svg width="68" height="68" viewBox="0 0 68 68" fill="none" xmlns="http://www.w3.org/2000/svg">
<path d="M58.0415 9.95293C53.2865 5.20054 47.2283 1.96412 40.6329 0.652949C34.0376 -0.658224 27.2013 0.0147349 20.9887 2.58673C14.776 5.15872 9.46595 9.51422 5.73 15.1025C1.99404 20.6907 -8.61668e-06 27.2607 0 33.9816C0 34.404 0.167912 34.8092 0.466798 35.1079C0.765683 35.4067 1.17106 35.5745 1.59375 35.5745H1.68193C2.06417 35.5745 2.43367 35.4371 2.72306 35.1875C3.01245 34.938 3.20245 34.5927 3.25842 34.2148C3.48927 32.6733 4.26614 31.2659 5.44767 30.2486C6.6292 29.2313 8.13687 28.6718 9.69636 28.6718C11.2558 28.6718 12.7635 29.2313 13.945 30.2486C15.1266 31.2659 15.9034 32.6733 16.1343 34.2148C16.1903 34.5928 16.3803 34.938 16.6697 35.1876C16.9591 35.4372 17.3287 35.5745 17.7109 35.5745H17.8836C18.2658 35.5745 18.6354 35.4372 18.9248 35.1876C19.2142 34.938 19.4042 34.5928 19.4602 34.2148C19.6892 32.6816 20.4584 31.2806 21.6293 30.264C22.8002 29.2474 24.2959 28.6822 25.8468 28.67C27.3978 28.6579 28.9021 29.1997 30.0888 30.1979C31.2755 31.196 32.0665 32.5849 32.3195 34.1143V57.4129C32.3236 58.3826 32.1361 59.3435 31.7676 60.2405C31.3992 61.1376 30.8571 61.9531 30.1726 62.6402C29.488 63.3273 28.6744 63.8725 27.7784 64.2445C26.8825 64.6166 25.9218 64.8081 24.9516 64.8081C23.9814 64.8081 23.0208 64.6166 22.1248 64.2445C21.2289 63.8725 20.4153 63.3273 19.7307 62.6402C19.0461 61.9531 18.5041 61.1376 18.1357 60.2405C17.7672 59.3435 17.5797 58.3826 17.5838 57.4129C17.5838 56.9905 17.4159 56.5853 17.117 56.2866C16.8181 55.9879 16.4128 55.82 15.9901 55.82C15.5674 55.82 15.162 55.9879 14.8631 56.2866C14.5642 56.5853 14.3963 56.9905 14.3963 57.4129C14.3914 58.8015 14.6608 60.1773 15.189 61.4616C15.7173 62.7458 16.494 63.9132 17.4746 64.8968C18.4553 65.8804 19.6205 66.6609 20.9036 67.1934C22.1867 67.7259 23.5623 68 24.9516 68C26.3409 68 27.7166 67.7259 28.9997 67.1934C30.2827 66.6609 31.448 65.8804 32.4286 64.8968C33.4093 63.9132 34.186 62.7458 34.7143 61.4616C35.2425 60.1773 35.5119 58.8015 35.507 57.4129V34.701C35.585 34.5484 35.6378 34.3842 35.6631 34.2147C35.8941 32.6733 36.671 31.2659 37.8525 30.2487C39.0341 29.2315 40.5417 28.672 42.1012 28.672C43.6606 28.672 45.1682 29.2315 46.3498 30.2487C47.5313 31.2659 48.3082 32.6733 48.5392 34.2147C48.5951 34.5926 48.7851 34.9379 49.0745 35.1875C49.3639 35.4371 49.7334 35.5744 50.1156 35.5745H50.2891C50.6714 35.5745 51.0409 35.4372 51.3303 35.1876C51.6197 34.938 51.8097 34.5928 51.8657 34.2148C52.0967 32.6734 52.8736 31.2661 54.0551 30.2489C55.2366 29.2317 56.7442 28.6722 58.3036 28.6722C59.863 28.6722 61.3706 29.2317 62.5521 30.2489C63.7336 31.2661 64.5105 32.6734 64.7415 34.2148C64.7974 34.5928 64.9874 34.938 65.2769 35.1876C65.5663 35.4372 65.9358 35.5745 66.3181 35.5745H66.4061C66.8288 35.5745 67.2342 35.4067 67.5331 35.1079C67.832 34.8092 67.9999 34.404 67.9999 33.9816C68.0121 29.5173 67.1382 25.0948 65.4288 20.9703C63.7195 16.8458 61.2086 13.1011 58.0415 9.95293ZM58.3035 25.4862C56.697 25.4862 55.1156 25.8851 53.7015 26.6471C52.2873 27.4091 51.0848 28.5104 50.202 29.8519C49.3192 28.5104 48.1167 27.4092 46.7026 26.6472C45.2886 25.8852 43.7073 25.4862 42.1008 25.4862C40.4943 25.4862 38.9129 25.8852 37.4989 26.6472C36.0848 27.4092 34.8824 28.5104 33.9995 29.8519C33.1167 28.5105 31.9142 27.4093 30.5002 26.6473C29.0861 25.8853 27.5048 25.4864 25.8983 25.4864C24.2918 25.4864 22.7105 25.8853 21.2965 26.6473C19.8824 27.4093 18.68 28.5105 17.7971 29.8519C17.0705 28.7478 16.1257 27.804 15.0207 27.0783C13.9157 26.3526 12.6739 25.8604 11.3716 25.632C10.0694 25.4037 8.73408 25.4439 7.44791 25.7502C6.16175 26.0566 4.95185 26.6226 3.89259 27.4135C6.91168 13.577 19.2643 3.18583 33.9999 3.18583C48.7356 3.18583 61.0882 13.577 64.1069 27.4135C62.4312 26.1619 60.3954 25.4859 58.3035 25.4862Z" fill="url(#paint0_linear_6491_2207)"/>
<defs>
<linearGradient id="paint0_linear_6491_2207" x1="33.9999" y1="-1.52245" x2="33.9999" y2="68.2372" gradientUnits="userSpaceOnUse">
<stop stop-color="#00EFD1"/>
<stop offset="1" stop-color="#00ACEA"/>
</linearGradient>
</defs>
</svg>
