<svg id="Group_24118" data-name="Group 24118" xmlns="http://www.w3.org/2000/svg" xmlns:xlink="http://www.w3.org/1999/xlink" width="60" height="58.125" viewBox="0 0 60 58.125">
  <defs>
    <clipPath id="clip-path">
      <rect id="Rectangle_2752" data-name="Rectangle 2752" width="60" height="58.125" fill="#0068b3"/>
    </clipPath>
  </defs>
  <g id="Group_24116" data-name="Group 24116" clip-path="url(#clip-path)">
    <path id="Path_27543" data-name="Path 27543" d="M0,38.679a5.936,5.936,0,0,0,2.266,3.235Q9.515,47.661,16.7,53.489a8.008,8.008,0,0,0,6.6,1.585c3.046-.447,6.11-.766,9.167-1.138,3.019-.367,6.039-.718,9.055-1.106a3.459,3.459,0,0,1,1.885.186c.591.255,1.2.459,1.81.675.29.1.466.225.362.594a1.013,1.013,0,0,0,.581,1.21,19.124,19.124,0,0,0,7.455,2.617c.566.078.936-.175,1.2-.808q1.418-3.436,2.667-6.937,1.276-3.585,2.359-7.232c.325-1.087.224-1.314-.76-1.892a18.833,18.833,0,0,0-7.094-2.428c-.615-.084-.936.134-1.249.807-.094.2-.076.558-.472.46-.357-.088-.719-.129-.794-.625a5.851,5.851,0,0,0-3.491-4.591c-4.318-2.1-8.642-4.184-12.933-6.335a5.293,5.293,0,0,0-7.769,4.894,4.777,4.777,0,0,0,1.07,2.918.642.642,0,0,1-.064,1.007,1.878,1.878,0,0,1-3.178-.786,3.56,3.56,0,0,1-.107-.985q0-6.968,0-13.936a1.739,1.739,0,0,1,.376-1.13,4.646,4.646,0,0,1,7.488.256c.119.178.215.374.345.543a.929.929,0,0,0,1.543,0c.1-.122.165-.264.249-.4a4.623,4.623,0,0,1,7.747-.152c.078.113.15.229.221.345a.983.983,0,0,0,1.159.572c.529-.154.674-.572.676-1.1a19.24,19.24,0,0,0-2.108-8.914A20.278,20.278,0,0,0,25.237.287,20.041,20.041,0,0,0,10.126,3.805a3.272,3.272,0,0,0-.372.285A.937.937,0,0,0,10.859,5.6a24.263,24.263,0,0,1,2.6-1.586c.577-.283,1.166-.544,1.759-.794a8.321,8.321,0,0,1,1.248-.4,21.227,21.227,0,0,0-3.728,7.265,35.264,35.264,0,0,0-1.442,8.108,6.771,6.771,0,0,0-7.849-.22A17.964,17.964,0,0,1,4.854,13.1,18.381,18.381,0,0,1,7.993,8.253,5.645,5.645,0,0,0,8.37,7.8.956.956,0,0,0,8.3,6.483a.889.889,0,0,0-1.31.06,15.631,15.631,0,0,0-1.9,2.3A20.281,20.281,0,0,0,1.361,19.707c-.013.292-.064.583-.064.875A1.012,1.012,0,0,0,2,21.674a.959.959,0,0,0,1.163-.558A4.524,4.524,0,0,1,5.99,18.9,4.579,4.579,0,0,1,11.1,20.851a4.466,4.466,0,0,0,.362.531.9.9,0,0,0,1.427-.019c.161-.193.28-.422.424-.631a4.631,4.631,0,0,1,7.375-.318,1.8,1.8,0,0,1,.4,1.24q-.013,6.851-.006,13.7a6.07,6.07,0,0,0,.156,1.626,3.654,3.654,0,0,0,2.755,2.754,3.556,3.556,0,0,0,3.821-1.288c.345-.418.57-.435,1-.168,1.206.757,2.44,1.472,3.66,2.207.109.066.256.108.285.331-1.16.208-2.322.419-3.485.621-1.94.337-3.881.666-5.821,1a5.5,5.5,0,0,1-4.135-.812c-3.931-2.582-7.9-5.1-11.822-7.7A4.783,4.783,0,0,0,.336,35.87c-.133.3-.225.623-.336.935Zm22.334,5.777a12.408,12.408,0,0,0,2.778-.363c3.477-.6,6.951-1.208,10.427-1.811.486-.084.922-.23,1.026-.8a1.057,1.057,0,0,0-.669-1.172c-.778-.447-1.541-.919-2.312-1.381-1.572-.944-3.152-1.877-4.716-2.835a3.359,3.359,0,0,1,3.271-5.868c3.056,1.479,6.1,2.976,9.153,4.464,1.315.641,2.634,1.275,3.946,1.923a3.973,3.973,0,0,1,2.389,3.6c.04.966.17,1.153,1.122,1.427a5.76,5.76,0,0,0,.565.152c.4.072.448.273.3.626-.259.631-.5,1.271-.716,1.918a.863.863,0,0,0,.508,1.112.912.912,0,0,0,1.206-.409,4.892,4.892,0,0,0,.276-.645c.416-1.052.832-2.1,1.24-3.159.11-.284.237-.456.6-.384a17.71,17.71,0,0,1,4.835,1.716.469.469,0,0,1,.249.662q-1.933,6.3-4.384,12.41a.529.529,0,0,1-.708.387A18.234,18.234,0,0,1,48.1,54.413a.562.562,0,0,1-.343-.817c.562-1.663,1.089-3.337,1.628-5.008a1.469,1.469,0,0,0,.142-.739.954.954,0,0,0-1.872-.111c-.419,1.258-.838,2.518-1.233,3.783-.118.379-.282.506-.672.348-.687-.278-1.395-.5-2.079-.788a3.893,3.893,0,0,0-2.063-.19c-3.035.387-6.074.74-9.11,1.11-3.057.371-6.123.677-9.165,1.145A6.939,6.939,0,0,1,17.359,51.6c-3.181-2.7-6.493-5.252-9.751-7.864q-2.26-1.812-4.522-3.624a2.856,2.856,0,0,1-1.019-3.436A2.819,2.819,0,0,1,6.33,35.467q5.922,3.832,11.831,7.685a7.072,7.072,0,0,0,4.173,1.3M23,10.133V3.225c0-1.314.071-1.357,1.24-.706A8.947,8.947,0,0,1,27.486,5.9a27.15,27.15,0,0,1,3.388,11.637c.013.13.063.3-.065.382-.163.1-.285-.076-.413-.148a6.5,6.5,0,0,0-6.89.075c-.131.077-.3.225-.4.191-.2-.071-.106-.3-.107-.468q-.009-3.717,0-7.434M21.082,10.1c0,2.479,0,4.957,0,7.436,0,.4-.015.59-.489.306a6.461,6.461,0,0,0-6.837-.1c-.13.071-.257.252-.411.156-.173-.108-.088-.324-.074-.488a33.411,33.411,0,0,1,.462-3.417,22.489,22.489,0,0,1,3.5-8.98,7.549,7.549,0,0,1,3.141-2.729c.634-.274.7-.233.7.442q0,3.688,0,7.376m19.59,7.885a6.938,6.938,0,0,0-3.946-1.15,7.215,7.215,0,0,0-3.878,1.352,35.745,35.745,0,0,0-1.455-8.136A20.414,20.414,0,0,0,27.585,2.8,18.8,18.8,0,0,1,40.672,17.989" transform="translate(0 0)" fill="#0068b3"/>
    <path id="Path_27544" data-name="Path 27544" d="M33.847,44.112a2.375,2.375,0,0,0,1.918-.988,8.154,8.154,0,0,0,1.228-2.7,1,1,0,0,0-.649-1.361c-.525-.144-.99.174-1.181.847a8.63,8.63,0,0,1-.736,1.778c-.255.468-.573.594-1.049.3a4.619,4.619,0,0,0-.939-.469.926.926,0,0,0-.948,1.537,4.673,4.673,0,0,0,2.357,1.058" transform="translate(-2.336 -7.384)" fill="#0068b3"/>
    <path id="Path_27545" data-name="Path 27545" d="M10.437,64.144a1.01,1.01,0,0,0-.885.992,1,1,0,0,0,1.046.884.942.942,0,0,0-.161-1.876" transform="translate(40.818 -12.135)" fill="#0068b3"/>
  </g>
</svg>
