<svg id="Group_24137" data-name="Group 24137" xmlns="http://www.w3.org/2000/svg" xmlns:xlink="http://www.w3.org/1999/xlink" width="74.686" height="74" viewBox="0 0 74.686 74">
  <defs>
    <clipPath id="clip-path">
      <rect id="Rectangle_2745" data-name="Rectangle 2745" width="74.686" height="74" fill="#0068b3"/>
    </clipPath>
  </defs>
  <g id="Group_24097" data-name="Group 24097" clip-path="url(#clip-path)">
    <path id="Path_27495" data-name="Path 27495" d="M0,26.2c.917-1.727,2.224-2.125,3.915-1.119Q13.469,30.766,23,36.478a3.461,3.461,0,0,1,1.851,3.173.727.727,0,0,0,.405.7,3.675,3.675,0,0,0,3.4.431c.7-.267,1.421-.5,2.109-.806a5.88,5.88,0,0,1,5.653.275,2.108,2.108,0,0,0,1.8.2c.954-.282,1.931-.484,2.888-.756a6.011,6.011,0,0,1,4.059.223,15.39,15.39,0,0,0,2.942,1.059,3.449,3.449,0,0,0,.867.037c.69-.044.92-.3.823-1.061a3.424,3.424,0,0,1,1.925-3.543q5.3-3.142,10.578-6.314,4.068-2.43,8.135-4.86a4.555,4.555,0,0,1,1.376-.653,2.367,2.367,0,0,1,2.857,2.335q.018,11.1-.006,22.2a4.088,4.088,0,0,1-1.991,3.462c-.663.449-1.361.849-2.059,1.242A1.171,1.171,0,1,1,69.4,51.833c.528-.347,1.066-.682,1.623-.978A2.511,2.511,0,0,0,72.4,48.4q-.02-9.565-.006-19.13c0-.511,0-1.022,0-1.533-.006-.863-.057-.895-.788-.458Q66.036,30.61,60.47,33.94q-3.693,2.207-7.386,4.409c-1.133.679-1.245,1.13-.58,2.249q4.252,7.147,8.5,14.3c.721,1.211,1.066,1.3,2.271.58.522-.311,1.033-.642,1.568-.929a1.155,1.155,0,0,1,1.635.43,1.124,1.124,0,0,1-.449,1.573,22.707,22.707,0,0,1-2.261,1.329,3.386,3.386,0,0,1-3.53-.223c-.242-.158-.453-.351-.792-.179-.415.21-.662.351-.332.906a3.909,3.909,0,0,1-4.161,5.841c-.442-.091-.615-.019-.75.464a3.836,3.836,0,0,1-3.986,2.868c-.517-.024-.74.066-.893.613a3.844,3.844,0,0,1-5.15,2.657c-.454-.16-.607-.1-.771.371a3.856,3.856,0,0,1-5.761,2.235c-.79-.429-1.562-.891-2.325-1.367a.6.6,0,0,0-.826.069,3.876,3.876,0,0,1-6.067-.934.683.683,0,0,0-.837-.339,3.857,3.857,0,0,1-4.71-2.657c-.122-.327-.262-.466-.616-.464A3.762,3.762,0,0,1,18.411,65a.612.612,0,0,0-.689-.479,3.615,3.615,0,0,1-3.533-2.129,3.888,3.888,0,0,1,.4-4.2c.284-.4.556-.81.877-1.277-.364,0-.443.209-.577.333a3.359,3.359,0,0,1-4.1.6C7.8,56.116,4.85,54.331,1.9,52.54A4.507,4.507,0,0,1,0,49.862ZM25.478,55.362a3.812,3.812,0,0,1,3.2,1.714c.824,1.229.824,1.229,2.228,1.614a3.888,3.888,0,0,1,2.833,4.541c-.055.313-.134.57.3.753,2.511,1.058,3.3,2.868,2.411,5.453-.1.3-.112.508.18.677.777.45,1.534.941,2.335,1.345A1.557,1.557,0,0,0,41.2,69.806a1.6,1.6,0,0,0-.824-1.143c-.747-.452-1.516-.876-2.231-1.376a1.079,1.079,0,0,1-.312-1.544,1.163,1.163,0,0,1,1.533-.409,6.3,6.3,0,0,1,.57.322c1.567.929,3.125,1.875,4.7,2.785a1.58,1.58,0,0,0,2.467-.985,1.618,1.618,0,0,0-.961-1.786c-1.748-1.053-3.5-2.09-5.261-3.131a1.392,1.392,0,0,1-.823-1.041,1.092,1.092,0,0,1,.485-1.073,1.216,1.216,0,0,1,1.432.028q3.129,1.868,6.265,3.724c.48.285.953.588,1.453.832a1.588,1.588,0,0,0,2.1-.587,1.555,1.555,0,0,0-.53-2.11c-.258-.182-.532-.34-.8-.5-2.276-1.353-4.558-2.7-6.829-4.058-.773-.464-.976-1.076-.62-1.694.369-.639,1.055-.763,1.837-.307,1.113.647,2.217,1.31,3.324,1.967,2.215,1.314,4.423,2.638,6.647,3.937a1.6,1.6,0,0,0,2.505-1c.146-.7-.206-1.3-1.128-1.85q-7.2-4.282-14.408-8.565c-.507-.3-.694-.219-.96.306a5.077,5.077,0,0,1-4.23,2.83,2.483,2.483,0,0,1-2.827-2.526c-.016-1.8,0-3.6-.005-5.4a5.338,5.338,0,0,1,.643-2.368c.155-.319.7-.581.408-.955-.232-.3-.736-.336-1.148-.383a3.407,3.407,0,0,0-1.566.268c-.844.307-1.678.64-2.522.948a5.806,5.806,0,0,1-5.057-.348c-.485-.274-.727-.232-1.02.27-2.183,3.737-4.4,7.457-6.595,11.185-.139.237-.4.483-.1.779.245.247.506.172.8.052a3.786,3.786,0,0,1,4.752,1.2c.244.289.384.328.688.077a3.5,3.5,0,0,1,2.433-.808m-23.24-17.2c0,3.431.008,6.861,0,10.292A2.533,2.533,0,0,0,3.59,50.847c2.621,1.533,5.217,3.108,7.825,4.663,1.114.664,1.575.547,2.247-.589q4.256-7.187,8.5-14.378c.613-1.038.493-1.534-.543-2.154q-9.288-5.554-18.58-11.1c-.733-.438-.8-.4-.8.439q0,5.219,0,10.438m33.818,9.754c0,.9-.008,1.631,0,2.36.009.671.2.811.852.654A2.807,2.807,0,0,0,39.04,48.3c.1-1.4.92-1.847,2.119-1.15,1.28.744,2.55,1.506,3.823,2.261q5.574,3.309,11.144,6.623c.389.233.722.36,1.113.025a2.522,2.522,0,0,1,.623-.374c.483-.212.569-.459.277-.948q-3.367-5.63-6.679-11.293a.7.7,0,0,0-.986-.38,5.987,5.987,0,0,1-4.2-.163c-.7-.277-1.4-.546-2.1-.829a3.5,3.5,0,0,0-2.145-.16c-1.276.3-2.547.614-3.807.971a2.757,2.757,0,0,0-2.059,2.227,18,18,0,0,0-.109,2.81m-9.1,11.451a1.482,1.482,0,0,0-1.031-1.58,1.518,1.518,0,0,0-1.837.65Q22.5,60.61,20.957,62.818a1.58,1.58,0,1,0,2.577,1.805c1.044-1.429,2.062-2.878,3.1-4.315a1.561,1.561,0,0,0,.328-.939m4.5,3.083a1.542,1.542,0,0,0-2.738-.957c-1.165,1.557-2.32,3.123-3.4,4.74a1.551,1.551,0,0,0,1.039,2.382,1.674,1.674,0,0,0,1.716-.864q1.513-2.1,3.015-4.21a1.662,1.662,0,0,0,.365-1.091M19.152,56.9a1.2,1.2,0,0,0-1.01.443,17.115,17.115,0,0,0-1.854,2.6,1.474,1.474,0,0,0,.468,1.936,1.442,1.442,0,0,0,1.983-.127,11.694,11.694,0,0,0,1.926-2.721A1.526,1.526,0,0,0,19.152,56.9m12.7,13.935a1.166,1.166,0,0,0,.75-.235,5.966,5.966,0,0,0,1.848-2.553,1.491,1.491,0,0,0-.748-1.669,1.508,1.508,0,0,0-1.816.191,7.844,7.844,0,0,0-1.468,2.063,1.565,1.565,0,0,0,1.434,2.2" fill="#0068b3"/>
    <path id="Path_27496" data-name="Path 27496" d="M37.3,28.722c-4.057,0-8.113-.02-12.169.007-3.169.021-5.1-2.418-4.491-6.03a1.045,1.045,0,0,1,1.215-.912,1.094,1.094,0,0,1,1.06,1.1,9.377,9.377,0,0,1,.014.949c0,1.939.567,2.5,2.53,2.5H37.847q5.755,0,11.513,0c1.709,0,2.34-.629,2.342-2.32q0-3.651,0-7.3c0-.185.091-.431-.1-.54s-.345.119-.5.22a5.986,5.986,0,0,1-3.564,1.091c-.641-.022-.969.155-.892.854a1.447,1.447,0,0,1-.218.91,1.138,1.138,0,0,1-2.063-.235,2.244,2.244,0,0,1-.084-.791c.036-.525-.147-.734-.7-.732q-6.267.027-12.533,0c-.491,0-.728.144-.691.666a2.38,2.38,0,0,1-.065.794,1.091,1.091,0,0,1-1.06.85,1.065,1.065,0,0,1-1.118-.762,1.679,1.679,0,0,1-.12-.712c.075-.714-.278-.866-.9-.844a6.09,6.09,0,0,1-3.562-1.1c-.151-.1-.291-.339-.5-.209-.181.115-.088.359-.095.546-.014.364.013.731-.016,1.094a1.109,1.109,0,0,1-1.042,1.119,1.128,1.128,0,0,1-1.256-.964,1.184,1.184,0,0,1-.05-.287c.017-2.894-.164-5.794.091-8.681a4.026,4.026,0,0,1,3.724-3.593c1.77-.163,3.544-.051,5.315-.082,1.019-.017,1.034-.007,1.019-1.005a4.614,4.614,0,0,1,.361-2.138A3.538,3.538,0,0,1,34.364.025c1.942-.036,3.886-.028,5.829,0a3.7,3.7,0,0,1,3.714,3.715c.045,1.588.045,1.581,1.609,1.59,1.456.009,2.919-.045,4.368.07A4.113,4.113,0,0,1,54.06,9.8c.056,4.818.065,9.638,0,14.456-.04,2.846-1.816,4.464-4.66,4.467q-6.048,0-12.1,0M37.384,7.7H32.431c-2.428,0-4.856-.006-7.284,0A1.976,1.976,0,0,0,22.93,9.9c0,.243,0,.486,0,.73a4.348,4.348,0,0,0,3.953,4.538c.942.136,1.034.063,1.1-.877.061-.857.516-1.395,1.187-1.4.714-.008,1.215.539,1.172,1.447-.034.741.266.881.933.877,3.981-.026,7.963-.01,11.945-.016.843,0,1.091.222,1.065-1.017A1.174,1.174,0,0,1,45.4,12.887a1.248,1.248,0,0,1,1.235,1.194c.182,1.257.18,1.247,1.484,1.014a4.192,4.192,0,0,0,1.617-.63,4.637,4.637,0,0,0,1.979-4.359c-.05-1.7-.7-2.4-2.384-2.4q-5.973,0-11.945,0m-.141-2.376h2.768c1.631,0,1.662-.035,1.5-1.689A1.192,1.192,0,0,0,40.3,2.422q-2.987-.044-5.973,0a1.185,1.185,0,0,0-1.2,1.213c-.021.241.012.489-.018.728-.091.719.174,1.013.93.975,1.066-.055,2.137-.014,3.205-.014" fill="#0068b3"/>
  </g>
</svg>
