<svg width="116" height="119" viewBox="0 0 116 119" fill="none" xmlns="http://www.w3.org/2000/svg">
<path d="M38.3866 44.1459C38.3866 43.6369 38.1843 43.1487 37.8244 42.7887C37.4644 42.4288 36.9763 42.2266 36.4672 42.2266C35.9582 42.2266 35.47 42.4288 35.11 42.7887C34.7501 43.1487 34.5479 43.6369 34.5479 44.1459V46.0653C34.5479 46.5743 34.7501 47.0625 35.11 47.4225C35.47 47.7824 35.9582 47.9846 36.4672 47.9846C36.9763 47.9846 37.4644 47.7824 37.8244 47.4225C38.1843 47.0625 38.3866 46.5743 38.3866 46.0653V44.1459Z" fill="url(#paint0_linear_6363_2086)"/>
<path d="M59.5004 42.2266C58.9914 42.2266 58.5032 42.4288 58.1432 42.7887C57.7833 43.1487 57.5811 43.6369 57.5811 44.1459V46.0653C57.5811 46.5743 57.7833 47.0625 58.1432 47.4225C58.5032 47.7824 58.9914 47.9846 59.5004 47.9846C60.0095 47.9846 60.4977 47.7824 60.8576 47.4225C61.2175 47.0625 61.4198 46.5743 61.4198 46.0653V44.1459C61.4198 43.6369 61.2175 43.1487 60.8576 42.7887C60.4977 42.4288 60.0095 42.2266 59.5004 42.2266Z" fill="url(#paint1_linear_6363_2086)"/>
<path d="M55.6612 40.3075C55.8676 40.3074 56.0727 40.274 56.2685 40.2087L62.0265 38.2893C62.5095 38.1283 62.9087 37.7821 63.1364 37.3267C63.364 36.8714 63.4015 36.3443 63.2405 35.8613C63.0795 35.3784 62.7333 34.9791 62.2779 34.7515C61.8226 34.5238 61.2955 34.4863 60.8125 34.6473L55.0545 36.5667C54.6217 36.7105 54.2542 37.0037 54.0179 37.3937C53.7816 37.7838 53.692 38.2453 53.765 38.6955C53.838 39.1456 54.0689 39.5551 54.4164 39.8505C54.7639 40.1459 55.2052 40.3079 55.6612 40.3075Z" fill="url(#paint2_linear_6363_2086)"/>
<path d="M57.5803 57.5815C57.5803 57.0724 57.3781 56.5842 57.0181 56.2243C56.6582 55.8643 56.17 55.6621 55.6609 55.6621H40.3061C39.797 55.6621 39.3088 55.8643 38.9489 56.2243C38.5889 56.5842 38.3867 57.0724 38.3867 57.5815C38.3867 60.1267 39.3978 62.5677 41.1975 64.3674C42.9973 66.1672 45.4383 67.1782 47.9835 67.1782C50.5287 67.1782 52.9697 66.1672 54.7694 64.3674C56.5692 62.5677 57.5803 60.1267 57.5803 57.5815ZM42.5544 59.5008H53.4126C53.0159 60.6237 52.2807 61.596 51.3084 62.2837C50.3361 62.9713 49.1744 63.3406 47.9835 63.3406C46.7926 63.3406 45.6309 62.9713 44.6586 62.2837C43.6863 61.596 42.9511 60.6237 42.5544 59.5008Z" fill="url(#paint3_linear_6363_2086)"/>
<path d="M91.7596 91.9227C89.0354 88.2631 85.1918 85.5921 80.812 84.3149L65.4044 79.7852C64.8095 79.6073 64.2875 79.2428 63.9155 78.7456C63.5436 78.2483 63.3413 77.6447 63.3387 77.0237V73.8616C66.625 71.5725 69.3583 68.5781 71.3388 65.0971C73.3192 61.6161 74.4967 57.7365 74.7853 53.7419H75.8145C77.5956 53.74 79.3031 53.0316 80.5625 51.7722C81.8219 50.5128 82.5303 48.8052 82.5323 47.0242V45.1048C82.53 43.4902 81.947 41.9302 80.8899 40.7096C79.8328 39.4891 78.372 38.6895 76.7742 38.4567V28.7903C76.7742 21.1547 73.7409 13.8317 68.3417 8.43249C62.9425 3.03326 55.6195 0 47.9839 0C40.3482 0 33.0253 3.03326 27.626 8.43249C22.2268 13.8317 19.1935 21.1547 19.1935 28.7903V38.4567C17.5957 38.6895 16.1349 39.4891 15.0778 40.7096C14.0207 41.9302 13.4378 43.4902 13.4355 45.1048V47.0242C13.4375 48.8052 14.1458 50.5128 15.4052 51.7722C16.6646 53.0316 18.3722 53.74 20.1532 53.7419H21.1825C21.471 57.7365 22.6485 61.6161 24.629 65.0971C26.6094 68.5781 29.3427 71.5725 32.629 73.8616V77.0237C32.6264 77.6447 32.4242 78.2483 32.0522 78.7456C31.6803 79.2428 31.1583 79.6073 30.5633 79.7852L15.1557 84.3149C10.781 85.602 6.94045 88.2709 4.20856 91.9222C1.47667 95.5735 0.000211291 100.011 0 104.571V117.081C0 117.59 0.202217 118.078 0.562166 118.438C0.922115 118.798 1.41031 119 1.91935 119H94.0484C94.5574 119 95.0456 118.798 95.4056 118.438C95.7655 118.078 95.9677 117.59 95.9677 117.081V104.571C95.9784 100.01 94.501 95.5688 91.7596 91.9227ZM74.8548 42.2258H75.8145C76.5779 42.2264 77.3098 42.53 77.8496 43.0698C78.3894 43.6095 78.6929 44.3415 78.6936 45.1048V47.0242C78.6929 47.7876 78.3894 48.5195 77.8496 49.0593C77.3098 49.5991 76.5779 49.9026 75.8145 49.9032H74.8548V42.2258ZM21.1129 49.9032H20.1532C19.3899 49.9026 18.6579 49.5991 18.1181 49.0593C17.5784 48.5195 17.2748 47.7876 17.2742 47.0242V45.1048C17.2748 44.3415 17.5784 43.6095 18.1181 43.0698C18.6579 42.53 19.3899 42.2264 20.1532 42.2258H21.1129V49.9032ZM23.0323 28.7903C23.0323 22.1727 25.6611 15.8262 30.3404 11.1469C35.0197 6.46753 41.3663 3.83871 47.9839 3.83871C54.6014 3.83871 60.948 6.46753 65.6273 11.1469C70.3067 15.8262 72.9355 22.1727 72.9355 28.7903V38.3871C72.4267 38.3864 71.9389 38.184 71.5791 37.8242C71.2193 37.4644 71.0168 36.9766 71.0161 36.4677C71.0157 36.3616 71.0069 36.2558 70.9897 36.151L69.0704 24.6349C69.0206 24.3345 68.8999 24.0502 68.7183 23.8057C68.5368 23.5612 68.2996 23.3634 68.0264 23.2288C67.7532 23.0942 67.4519 23.0267 67.1473 23.0317C66.8428 23.0367 66.5439 23.1142 66.2753 23.2578C65.9898 23.4089 37.7297 38.3871 23.0323 38.3871V28.7903ZM24.9516 51.8226V42.1586C31.463 41.7148 40.4144 39.1117 51.6067 34.3972C57.6118 31.8685 62.8397 29.3157 65.7163 27.8618L67.1798 36.6429C67.217 37.8028 67.6029 38.9246 68.2873 39.8619C68.9716 40.7992 69.9226 41.5085 71.0161 41.8971V51.8226C71.0161 57.9311 68.5895 63.7895 64.2701 68.1088C59.9508 72.4282 54.0924 74.8548 47.9839 74.8548C41.8753 74.8548 36.017 72.4282 31.6976 68.1088C27.3782 63.7895 24.9516 57.9311 24.9516 51.8226ZM61.1267 81.3854C59.5384 91.2773 52.264 92.7864 47.9839 92.7864C43.7037 92.7864 36.4294 91.2773 34.8411 81.3854C35.8862 80.1721 36.4632 78.6251 36.4677 77.0237V76.0976C40.0663 77.8068 44.0001 78.6935 47.9839 78.6935C51.9677 78.6935 55.9015 77.8068 59.5 76.0976V77.0237C59.5046 78.6251 60.0815 80.1721 61.1267 81.3854ZM31.3599 83.5519C33.2792 91.7907 39.3396 96.6251 47.9839 96.6251C56.6282 96.6251 62.6885 91.7907 64.6103 83.5519L67.1558 84.3005C66.7096 93.2447 58.2812 100.401 47.9839 100.401C37.6865 100.401 29.2582 93.2447 28.8119 84.3005L31.3599 83.5519ZM80.6129 115.161H71.0161V111.323H80.6129V115.161ZM92.129 115.161H84.4516V109.403C84.4516 108.894 84.2494 108.406 83.8895 108.046C83.5295 107.686 83.0413 107.484 82.5323 107.484H69.0968C68.5877 107.484 68.0995 107.686 67.7396 108.046C67.3796 108.406 67.1774 108.894 67.1774 109.403V115.161H3.83871V104.571C3.85374 100.844 5.06728 97.2205 7.30005 94.236C9.53281 91.2514 12.6664 89.0643 16.2377 87.9976L25.0452 85.4089C26.0936 95.9485 35.9807 104.24 47.9839 104.24C59.987 104.24 69.8741 95.9485 70.9226 85.4089L79.73 87.9976C83.3014 89.0643 86.4349 91.2514 88.6677 94.236C90.9005 97.2205 92.114 100.844 92.129 104.571V115.161Z" fill="url(#paint4_linear_6363_2086)"/>
<path d="M114.022 6.21719L100.587 0.2456C100.341 0.136468 100.076 0.0800781 99.807 0.0800781C99.5384 0.0800781 99.2728 0.136468 99.0273 0.2456L85.5918 6.21719C85.2265 6.37983 84.9211 6.65239 84.7181 6.99688C84.5151 7.34136 84.4247 7.74061 84.4594 8.13895L85.9517 25.1204C85.9745 25.3798 86.0499 25.6318 86.1732 25.8612C86.2966 26.0905 86.4653 26.2923 86.6691 26.4544L98.6099 35.9696C98.9497 36.2414 99.3719 36.3895 99.807 36.3895C100.242 36.3895 100.664 36.2414 101.004 35.9696L112.945 26.4544C113.149 26.2923 113.318 26.0905 113.441 25.8612C113.564 25.6318 113.64 25.3798 113.662 25.1204L115.155 8.13895C115.189 7.74061 115.099 7.34136 114.896 6.99688C114.693 6.65239 114.388 6.37983 114.022 6.21719ZM109.91 23.964L99.807 32.0157L89.704 23.964L88.4037 9.1682L99.807 4.1011L111.21 9.1682L109.91 23.964Z" fill="url(#paint5_linear_6363_2086)"/>
<path d="M96.8259 18.1966C96.3712 17.9736 95.8468 17.9394 95.3669 18.1014C94.8871 18.2634 94.4907 18.6085 94.2642 19.0614C94.0377 19.5144 93.9994 20.0385 94.1576 20.5196C94.3159 21.0007 94.6579 21.3998 95.1091 21.6298L98.9478 23.5492C99.3803 23.7655 99.8785 23.8105 100.343 23.6753C100.807 23.5402 101.203 23.2347 101.452 22.8201L107.21 13.2233C107.34 13.0071 107.426 12.7676 107.463 12.5183C107.5 12.269 107.487 12.0148 107.426 11.7703C107.365 11.5257 107.256 11.2956 107.106 11.0931C106.956 10.8906 106.768 10.7196 106.552 10.5899C106.336 10.4602 106.096 10.3744 105.847 10.3373C105.597 10.3002 105.343 10.3126 105.099 10.3737C104.854 10.4348 104.624 10.5435 104.422 10.6936C104.219 10.8437 104.048 11.0321 103.918 11.2483L99.0749 19.3208L96.8259 18.1966Z" fill="url(#paint6_linear_6363_2086)"/>
<defs>
<linearGradient id="paint0_linear_6363_2086" x1="36.4672" y1="42.0976" x2="36.4672" y2="48.0047" gradientUnits="userSpaceOnUse">
<stop stop-color="#00EFD1"/>
<stop offset="1" stop-color="#00ACEA"/>
</linearGradient>
<linearGradient id="paint1_linear_6363_2086" x1="-4.31814" y1="45.1056" x2="113.6" y2="45.1056" gradientUnits="userSpaceOnUse">
<stop stop-color="#003F8A"/>
<stop offset="0.518" stop-color="#00D7DF"/>
<stop offset="1" stop-color="#006DF0"/>
</linearGradient>
<linearGradient id="paint2_linear_6363_2086" x1="-3.83877" y1="37.4285" x2="113.599" y2="37.4285" gradientUnits="userSpaceOnUse">
<stop stop-color="#003F8A"/>
<stop offset="0.518" stop-color="#00D7DF"/>
<stop offset="1" stop-color="#006DF0"/>
</linearGradient>
<linearGradient id="paint3_linear_6363_2086" x1="-3.83909" y1="61.4202" x2="113.599" y2="61.4202" gradientUnits="userSpaceOnUse">
<stop stop-color="#003F8A"/>
<stop offset="0.518" stop-color="#00D7DF"/>
<stop offset="1" stop-color="#006DF0"/>
</linearGradient>
<linearGradient id="paint4_linear_6363_2086" x1="47.9837" y1="-2.6643" x2="47.9837" y2="119.415" gradientUnits="userSpaceOnUse">
<stop stop-color="#00EFD1"/>
<stop offset="1" stop-color="#00ACEA"/>
</linearGradient>
<linearGradient id="paint5_linear_6363_2086" x1="99.807" y1="-0.732854" x2="99.807" y2="36.5161" gradientUnits="userSpaceOnUse">
<stop stop-color="#00EFD1"/>
<stop offset="1" stop-color="#00ACEA"/>
</linearGradient>
<linearGradient id="paint6_linear_6363_2086" x1="100.773" y1="10.0156" x2="100.773" y2="23.7987" gradientUnits="userSpaceOnUse">
<stop stop-color="#00EFD1"/>
<stop offset="1" stop-color="#00ACEA"/>
</linearGradient>
</defs>
</svg>
