<svg width="99" height="99" viewBox="0 0 99 99" fill="none" xmlns="http://www.w3.org/2000/svg">
<path d="M64.5104 98.9991C64.2562 98.9991 64.5498 99.0015 64.2926 98.9991C56.3759 98.9291 49.3656 97.3564 41.2679 92.7796C34.9096 89.186 28.6544 83.8643 22.4079 77.6211C8.17405 63.3957 3 49.0001 3 35.9971C3 26.5001 4.00039 13.0577 13 4.50013C13 4.50013 18.8481 0.536351 23.6894 0.500056C25.9997 0.482639 30.9987 1.86707 34.8207 8.00003L38 13.5C39.6633 16.9631 40.8375 18.4983 41 21C41.2325 24.5788 39.6521 25.9704 37.1397 28.5L27.5 38.2383C28.8515 41.9745 34.6959 54.709 41.2679 61.2914C47.7737 67.7792 58.3346 71.1981 62.0501 72.5001L70.9999 63.7322C72.4999 62.1492 75.6916 59.7085 75.6916 59.7085C78.3174 59.823 80.6408 59.4366 84.222 61.2914L92.4999 66.032C94.6115 68.3264 98.4425 69.2053 98.4425 77.6211C98.4425 79.5001 96.9999 84.3303 94.1527 87.0001C91.3056 89.67 87.4999 92.7796 84.222 94.5001C79.7604 95.7131 78.1013 98.9991 64.5104 98.9991ZM23.7903 6.15438C23.7847 6.15438 23.7793 6.15438 23.7737 6.15438L23.6894 6.15478C20.9709 6.17523 18.1912 7.46701 15.8646 9.7923C8.20535 17.4471 7.40861 28.414 7.47562 35.9971C7.58236 48.0644 13.3064 61.8141 25.9997 74.5001C38.8251 87.3183 51.2526 94.3934 63.3281 94.5001C70.8885 94.5671 82.7957 92.0429 90.5125 84.3303C92.8394 82.005 94.1319 79.2271 94.1523 76.5084L94.1527 76.4116C94.1588 73.457 92.5195 70.6902 89.8747 69.2053L84.222 66.032C78.6488 63.1573 77.0477 64.0161 75.6916 65.3599L63.3281 78.1856L61.0747 77.6211C60.5288 77.4844 47.5865 74.1529 37.1451 63.7376L37.1397 63.7322C26.7431 53.3214 23.1438 40.2317 22.9956 39.6795L22.4079 37.4888L34.8207 24.6305C35.9937 23.4558 36.9056 21.8222 34.143 16.0246L30.9987 10.43C29.5154 7.79166 26.7546 6.15438 23.7903 6.15438ZM85.5839 14.7183C76.4888 5.62847 65.6415 1.86707 54.0244 1.86707V6.15458C76.1511 6.15458 94.1525 24.1456 94.1525 46.2595H98.4425C98.4425 34.649 94.6789 23.8078 85.5839 14.7183ZM54.0244 34.573V38.2383C58.4498 38.2383 62.0501 41.8365 62.0501 46.2593H66.34C66.34 38.6582 61.0072 34.573 54.0244 34.573ZM54.0244 17.9088V22.1964C67.3004 22.1964 78.1013 32.991 78.1013 46.2593H82.3912C82.3912 31.0572 69.2355 17.9088 54.0244 17.9088Z" fill="url(#paint0_linear_6365_2110)"/>
<defs>
<linearGradient id="paint0_linear_6365_2110" x1="50.721" y1="-1.70532" x2="50.721" y2="99.3437" gradientUnits="userSpaceOnUse">
<stop stop-color="#00EFD1"/>
<stop offset="1" stop-color="#00ACEA"/>
</linearGradient>
</defs>
</svg>
