<svg id="Group_24098" data-name="Group 24098" xmlns="http://www.w3.org/2000/svg" xmlns:xlink="http://www.w3.org/1999/xlink" width="74.072" height="74" viewBox="0 0 74.072 74">
  <defs>
    <clipPath id="clip-path">
      <rect id="Rectangle_2746" data-name="Rectangle 2746" width="74.072" height="74" fill="#0068b3"/>
    </clipPath>
  </defs>
  <g id="Group_24098-2" data-name="Group 24098" clip-path="url(#clip-path)">
    <path id="Path_27497" data-name="Path 27497" d="M0,29.456a20.627,20.627,0,0,1,1.891-6.031,17.991,17.991,0,0,1,6.047-6.769,4.647,4.647,0,0,1,6.459.619q3.916,3.9,7.825,7.811c2.515,2.517,2.124,5.771-.913,7.652-.941.583-1.889,1.16-2.828,1.747A2.308,2.308,0,0,0,17.449,37.7a35.259,35.259,0,0,0,7.063,10.742c.249.261.509.512.762.77.691.7.772,1.357.236,1.889-.52.516-1.18.427-1.892-.27a37.005,37.005,0,0,1-8.312-12.219,4.587,4.587,0,0,1,2.01-6.143c1.3-.8,1.177-.633.207-1.6-3.3-3.306-6.621-6.595-9.909-9.916-.47-.474-.741-.487-1.186.012a15.224,15.224,0,0,0-3.7,14.21A44.439,44.439,0,0,0,12.25,53.608,54.281,54.281,0,0,0,30.875,68.424a32.635,32.635,0,0,0,9.308,3.053A15.241,15.241,0,0,0,53.17,67.428c.387-.353.427-.584.028-.979q-5.24-5.185-10.436-10.412c-.408-.41-.64-.4-.9.109a9.041,9.041,0,0,1-.652,1.039A4.443,4.443,0,0,1,36.1,58.918a32.75,32.75,0,0,1-8.5-4.713,1.094,1.094,0,0,1-.268-1.647,1.142,1.142,0,0,1,1.728-.135,36.721,36.721,0,0,0,7.219,4.083,2.572,2.572,0,0,0,1.466.3,2.446,2.446,0,0,0,1.726-1.193c.657-1.066,1.3-2.139,1.983-3.189a4.571,4.571,0,0,1,7.359-.8q4.083,4.041,8.133,8.115a4.557,4.557,0,0,1,.642,5.989,17.983,17.983,0,0,1-19.355,7.768,48.9,48.9,0,0,1-19.69-10.275A57.676,57.676,0,0,1,5.587,48.182,41.6,41.6,0,0,1,.044,33.635.979.979,0,0,0,0,33.5V29.456m21.514-.747a2.276,2.276,0,0,0-.7-1.744q-4.135-4.143-8.288-8.268A2.259,2.259,0,0,0,9.5,18.421c-.545.328-.644.543-.134,1.045,3.5,3.45,6.967,6.931,10.445,10.4.7.7,1.03.646,1.47-.245a1.961,1.961,0,0,0,.237-.914M56.085,63.042a2.36,2.36,0,0,0-.659-1.53c-2.806-2.811-5.61-5.625-8.438-8.413a2.167,2.167,0,0,0-2.672-.338c-.836.451-.86.714-.193,1.372q3.26,3.224,6.5,6.464c1.365,1.358,2.725,2.719,4.1,4.068.176.174.373.547.68.124a3.017,3.017,0,0,0,.682-1.747" fill="#0068b3"/>
    <path id="Path_27498" data-name="Path 27498" d="M50.635,0a1.187,1.187,0,0,1,.624,1.4c-.182.64-.69.809-1.286.841a20.985,20.985,0,0,0-7.647,1.687C35.094,7.2,30.672,12.756,29.624,20.6c-1.067,7.993,1.821,14.579,8.122,19.65.113.091.232.175.335.275a1.159,1.159,0,0,1,.185,1.619,1.108,1.108,0,0,1-1.609.182A21.253,21.253,0,0,1,32.6,38.548a22.9,22.9,0,0,1-5.536-14.922A23.473,23.473,0,0,1,46.827.229c.45-.071.9-.152,1.349-.229Z" fill="#0068b3"/>
    <path id="Path_27499" data-name="Path 27499" d="M74.072,22.669a1.236,1.236,0,0,1-1.233.7,1.055,1.055,0,0,1-.916-.712,1.11,1.11,0,0,1,.321-1.3,1.067,1.067,0,0,1,1.389-.063c.157.108.293.245.439.368Z" fill="#0068b3"/>
    <path id="Path_27500" data-name="Path 27500" d="M58.838,26.934c0-.77-.005-1.54,0-2.31a1.9,1.9,0,0,1,1.6-2.086c.409-.1.545-.26.556-.671A10.473,10.473,0,0,0,52.52,10.939a10.348,10.348,0,0,0-12.132,8.773c-.046.382-.1.763-.119,1.147-.05.858-.17,1.673,1.078,1.917A1.562,1.562,0,0,1,42.4,24.431c.026,1.636.034,3.273,0,4.909a1.885,1.885,0,0,1-1.777,1.931,8.847,8.847,0,0,1-2.737-.043,2.457,2.457,0,0,1-2.042-2.305c-.041-1.322-.035-2.647,0-3.97a2.245,2.245,0,0,1,1.389-2.116,1.045,1.045,0,0,0,.68-1.172,12.531,12.531,0,0,1,2.853-8.506C44.29,9.027,48.784,7.5,54.009,8.947c5.135,1.424,8.141,4.989,9.13,10.23a14.392,14.392,0,0,1,.124,2.735.742.742,0,0,0,.527.814,2.52,2.52,0,0,1,1.63,2.494c.023,1.058.011,2.118.005,3.176-.009,1.773-.952,2.947-2.7,2.874a3.011,3.011,0,0,0-3.035,1.673,8.125,8.125,0,0,1-3.712,3.009,1.274,1.274,0,0,0-.7.672,2.877,2.877,0,0,1-2.333,1.736,10.538,10.538,0,0,1-3.454-.044,3.062,3.062,0,0,1,.069-6.016,11.83,11.83,0,0,1,3.314-.043,2.882,2.882,0,0,1,1.983,1.077c.238.29.433.39.783.187a7.5,7.5,0,0,0,3.1-3.424,1.635,1.635,0,0,0,.1-.708q0-1.227,0-2.455m-18.79.038h0c0-.5-.018-1.01.005-1.513.026-.564-.323-.645-.747-.591s-1.073-.268-1.1.528c-.036,1.007-.011,2.017-.007,3.026a.491.491,0,0,0,.291.526c.913.373,1.561-.055,1.563-1.039v-.937m21.154-.08c0,.479.022.96-.006,1.438-.039.654.373.677.842.648.453-.028,1.027.157,1.018-.631-.011-.959-.018-1.918,0-2.877.015-.686-.453-.62-.884-.6s-.984-.164-.973.589c.008.479,0,.959,0,1.438m-9.85,7.666v.007c-.41,0-.822-.029-1.228.008a.721.721,0,0,0-.722.756.69.69,0,0,0,.742.722c.771.021,1.543.017,2.314,0a.673.673,0,0,0,.741-.713.714.714,0,0,0-.763-.778c-.36-.021-.722,0-1.084,0" fill="#0068b3"/>
    <path id="Path_27501" data-name="Path 27501" d="M67.081,6.433c0-.991,0-1.966,0-2.941A5.356,5.356,0,0,1,67.1,2.7a1.069,1.069,0,0,1,1.05-1,1.046,1.046,0,0,1,1.177.843,3.417,3.417,0,0,1,.1.856c.008,1.876.016,3.752,0,5.627C69.419,10.38,69,10.8,67.656,10.815c-1.9.017-3.807.007-5.71,0a3.445,3.445,0,0,1-.716-.08,1.086,1.086,0,0,1-.937-1.245,1.071,1.071,0,0,1,1.125-1.006c1.084-.026,2.168-.011,3.253-.012h.886a7.593,7.593,0,0,0-1.58-1.5,20.771,20.771,0,0,0-8.7-4.206C54.1,2.505,53.616,2,53.806,1.215c.18-.75.807-.979,1.965-.723A23.48,23.48,0,0,1,66.486,6.048c.154.138.265.344.6.385" fill="#0068b3"/>
    <path id="Path_27502" data-name="Path 27502" d="M47.275,22.514c0-.769-.018-1.539,0-2.308a1.173,1.173,0,1,1,2.338-.061q.057,2.379,0,4.76a1.174,1.174,0,1,1-2.339-.083c-.02-.769,0-1.539,0-2.308" fill="#0068b3"/>
    <path id="Path_27503" data-name="Path 27503" d="M51.615,22.512c0-.769-.017-1.539,0-2.308a1.173,1.173,0,1,1,2.337-.057q.057,2.379,0,4.76a1.173,1.173,0,1,1-2.337-.087c-.02-.769,0-1.539,0-2.308" fill="#0068b3"/>
    <path id="Path_27504" data-name="Path 27504" d="M70.136,35.5a1.157,1.157,0,1,1,1.176-1.149A1.23,1.23,0,0,1,70.136,35.5" fill="#0068b3"/>
    <path id="Path_27505" data-name="Path 27505" d="M73.515,18.1a1.191,1.191,0,0,1-1.186,1.127,1.161,1.161,0,1,1,.062-2.321A1.208,1.208,0,0,1,73.515,18.1" fill="#0068b3"/>
    <path id="Path_27506" data-name="Path 27506" d="M72.993,30.491a1.129,1.129,0,0,1-1.124,1.161,1.152,1.152,0,0,1-.025-2.3,1.142,1.142,0,0,1,1.149,1.142" fill="#0068b3"/>
    <path id="Path_27507" data-name="Path 27507" d="M42.13,43.587A1.178,1.178,0,0,1,41,44.759,1.221,1.221,0,0,1,39.832,43.6a1.149,1.149,0,1,1,2.3-.018" fill="#0068b3"/>
    <path id="Path_27508" data-name="Path 27508" d="M58.549,44.692a1.151,1.151,0,0,1-2.3.065,1.176,1.176,0,0,1,1.12-1.18,1.164,1.164,0,0,1,1.182,1.115" fill="#0068b3"/>
    <path id="Path_27509" data-name="Path 27509" d="M72.825,25.255a1.163,1.163,0,1,1-1.156,1.15,1.186,1.186,0,0,1,1.156-1.15" fill="#0068b3"/>
    <path id="Path_27510" data-name="Path 27510" d="M68.9,37.751a1.165,1.165,0,0,1-1.1,1.2,1.137,1.137,0,0,1-1.18-1.1,1.142,1.142,0,1,1,2.282-.091" fill="#0068b3"/>
    <path id="Path_27511" data-name="Path 27511" d="M49.085,44.578a1.151,1.151,0,0,1,1.15,1.138,1.1,1.1,0,0,1-1.152,1.117,1.118,1.118,0,0,1-1.157-1.121,1.151,1.151,0,0,1,1.159-1.134" fill="#0068b3"/>
    <path id="Path_27512" data-name="Path 27512" d="M64.793,39.6A1.136,1.136,0,0,1,65.9,40.776a1.141,1.141,0,1,1-2.281-.061A1.157,1.157,0,0,1,64.793,39.6" fill="#0068b3"/>
    <path id="Path_27513" data-name="Path 27513" d="M46.056,45.063a1.149,1.149,0,0,1-1.146,1.142,1.182,1.182,0,0,1-1.115-1.188,1.131,1.131,0,1,1,2.261.046" fill="#0068b3"/>
    <path id="Path_27514" data-name="Path 27514" d="M54.432,45.6a1.144,1.144,0,1,1-2.287.036,1.144,1.144,0,1,1,2.287-.036" fill="#0068b3"/>
    <path id="Path_27515" data-name="Path 27515" d="M71.008,15.255a1.147,1.147,0,0,1-.077-2.293,1.135,1.135,0,0,1,1.163,1.11,1.115,1.115,0,0,1-1.086,1.183" fill="#0068b3"/>
    <path id="Path_27516" data-name="Path 27516" d="M62.4,43.064a1.132,1.132,0,0,1-1.116,1.157A1.134,1.134,0,1,1,62.4,43.064" fill="#0068b3"/>
  </g>
</svg>
