<svg id="Group_24115" data-name="Group 24115" xmlns="http://www.w3.org/2000/svg" xmlns:xlink="http://www.w3.org/1999/xlink" width="59.929" height="60" viewBox="0 0 59.929 60">
  <defs>
    <clipPath id="clip-path">
      <rect id="Rectangle_2751" data-name="Rectangle 2751" width="59.929" height="60" fill="#0068b3"/>
    </clipPath>
  </defs>
  <g id="Group_24114" data-name="Group 24114" clip-path="url(#clip-path)">
    <path id="Path_27539" data-name="Path 27539" d="M11.973,0a1.353,1.353,0,0,1,.742,1.353c-.038.407.182.49.534.485.935-.014,1.871,0,2.806,0,4.091,0,8.184.017,12.276-.006a8.838,8.838,0,0,1,5.588,1.9c1.732,1.33,3.467,2.655,5.183,4.007a1.919,1.919,0,0,0,1.275.44q7.19-.023,14.381-.008a3.067,3.067,0,0,1,3.329,3.359q0,8.668,0,17.337a3.05,3.05,0,0,1-2.981,3.3c-.329.032-.66.054-.991.054q-5.612.006-11.223,0a6.442,6.442,0,0,1-1.047-.074,1.168,1.168,0,0,1-1.023-1.28,1.187,1.187,0,0,1,1.189-1.13c.175-.01.351,0,.526,0,2.494,0,4.988-.006,7.482.006.376,0,.6-.07.717-.484a6.118,6.118,0,0,1,4.4-4.438.639.639,0,0,0,.542-.737q-.027-3.9,0-7.79a.665.665,0,0,0-.565-.775,6.112,6.112,0,0,1-4.356-4.337c-.126-.418-.286-.592-.751-.591q-11.546.023-23.09.012a2.74,2.74,0,0,0-.523.034,1.2,1.2,0,0,0-.426,2.247c1.65.923,3.31,1.828,4.955,2.76.369.209.559.038.791-.206a6.821,6.821,0,0,1,5.23-2.2A6.937,6.937,0,0,1,38.1,26.964a6.722,6.722,0,0,1-6.867-2.652.908.908,0,0,0-.962-.424,10.377,10.377,0,0,1-2.884-.362,32.806,32.806,0,0,1-9.1-2.49c-.359-.168-.44-.021-.436.318.011.956.013,1.914,0,2.869a.477.477,0,0,0,.408.536,6.229,6.229,0,0,1,4.558,4.578c.11.394.363.388.666.387q3.916,0,7.833,0c.856,0,1.364.441,1.386,1.172a1.163,1.163,0,0,1-.947,1.229,5.576,5.576,0,0,1-1.046.085q-5.7.009-11.4,0a7.108,7.108,0,0,1-1.509-.131,3.019,3.019,0,0,1-2.361-2.965c-.011-2.968-.015-5.935.006-8.9a1.012,1.012,0,0,0-.583-1.028c-.542-.288-1-.739-1.7-.638-.312.045-.465.13-.45.457.012.272.006.546,0,.82a1.194,1.194,0,0,1-1.306,1.31h-.059q-5,0-10,0A1.184,1.184,0,0,1,.008,19.8Q0,10.548,0,1.294A1.413,1.413,0,0,1,.748,0ZM35.5,8.062c-1.048-.808-2.047-1.552-3.017-2.332a6.434,6.434,0,0,0-4.107-1.459c-5.046-.024-10.091-.008-15.137-.015-.358,0-.532.093-.531.493q.015,5.445,0,10.892c0,.344.114.538.471.484a3.669,3.669,0,0,1,2.91.911,9.005,9.005,0,0,0,1.1.67,27.166,27.166,0,0,0,9.755,3.236c.846.125,1.685.306,2.53.441a1.661,1.661,0,0,0,2.1-1.533,1.786,1.786,0,0,0-1.1-1.654c-1.9-1.041-3.792-2.082-5.676-3.145a3.653,3.653,0,0,1,1.8-6.888c2.728,0,5.455,0,8.182,0a1.288,1.288,0,0,0,.717-.1M2.426,10.545c0,2.518.009,5.038-.008,7.557,0,.452.123.617.6.612q3.332-.032,6.665,0c.495,0,.627-.167.625-.642q-.021-7.528,0-15.056c0-.475-.131-.647-.625-.642q-3.3.034-6.606,0c-.524-.006-.661.167-.656.673.023,2.5.011,5,.011,7.5m38.766,9.641a4.4,4.4,0,0,0-2.77-4.158,4.457,4.457,0,0,0-4.759.945.606.606,0,0,0-.128.852,3.913,3.913,0,0,1-.225,4.3.632.632,0,0,0,.042.91,4.5,4.5,0,0,0,4.928,1.322,4.4,4.4,0,0,0,2.912-4.175m13.021-9.591v-.007c-.214,0-.428.006-.641,0-.292-.011-.4.091-.272.383a3.746,3.746,0,0,0,2.025,2c.159.067.331.093.332-.15a13.871,13.871,0,0,0-.038-1.633.692.692,0,0,0-.705-.589c-.231-.019-.466,0-.7,0m-34.9,19.12v0h.7c.233,0,.33-.094.232-.325A3.76,3.76,0,0,0,18.2,27.341c-.156-.067-.329-.091-.329.155a14.188,14.188,0,0,0,.04,1.631.683.683,0,0,0,.7.585c.233.015.466,0,.7,0m36.343-1.425h.009c0-.234,0-.467,0-.7.007-.279-.116-.349-.361-.241a3.788,3.788,0,0,0-2.01,2.014c-.063.145-.125.341.126.345a13.1,13.1,0,0,0,1.684-.041.671.671,0,0,0,.546-.676c.022-.231,0-.466,0-.7" transform="translate(0)" fill="#0068b3"/>
    <path id="Path_27540" data-name="Path 27540" d="M49.459,69.021a1.381,1.381,0,0,1-.742-1.059c-.016-.221-.146-.3-.35-.3-.175,0-.351,0-.526,0-6.9,0-13.8-.012-20.694,0a16.2,16.2,0,0,1-11.876-4.9q-3.156-3.133-6.282-6.3a3.941,3.941,0,0,1-1.047-4.044,3.884,3.884,0,0,1,3.067-2.9,3.969,3.969,0,0,1,3.857,1.142q2.769,2.774,5.539,5.55a9.412,9.412,0,0,0,2.188,1.647c.165.089.336.279.528.167s.092-.356.088-.541a4.1,4.1,0,0,1,3.15-4.232,7.226,7.226,0,0,1,1.683-.151c1.812,0,3.625-.014,5.436.007a1.22,1.22,0,0,0,1.1-.507,11.754,11.754,0,0,1,5.783-4.282,11.078,11.078,0,0,1,7.717.26c.371.151.654.28.9-.207a.992.992,0,0,1,.949-.474q5.145,0,10.288,0a1.35,1.35,0,0,1,1.176.744q0,9.96.011,19.918c0,.4-.079.482-.479.48-3.82-.019-7.64-.011-11.46-.011M37.44,65.231q5.319,0,10.638,0c.4,0,.65-.037.648-.556q-.027-6.266,0-12.533a.754.754,0,0,0-.444-.743,8.7,8.7,0,0,0-8.758-.024,10.772,10.772,0,0,0-3.367,3.2A2.455,2.455,0,0,1,33.9,55.6c-2.141-.063-4.286-.032-6.429-.015a1.662,1.662,0,0,0-1.548,2.55,1.706,1.706,0,0,0,1.6.78q5.991-.011,11.982,0a4.673,4.673,0,0,1,.7.024,1.272,1.272,0,0,1,1.075,1.151,1.252,1.252,0,0,1-.885,1.239,2.588,2.588,0,0,1-.867.09c-4.072,0-8.144-.011-12.216,0a11.752,11.752,0,0,1-8.855-3.68c-1.737-1.793-3.515-3.545-5.288-5.3a1.666,1.666,0,0,0-2.407-.1,1.7,1.7,0,0,0,.05,2.46c.308.326.632.637.948.955,1.722,1.725,3.45,3.445,5.165,5.177a14.1,14.1,0,0,0,10.289,4.291c3.409.028,6.819.006,10.228.006m13.7-6.8c0,2.519.008,5.038-.008,7.557,0,.457.095.663.61.658,2.222-.024,4.444-.02,6.666,0,.451,0,.612-.124.611-.6q-.021-7.558,0-15.114c0-.495-.165-.631-.641-.627-2.183.02-4.365.024-6.548,0-.528-.006-.709.135-.7.687.028,2.48.012,4.96.012,7.44" transform="translate(-1.469 -9.033)" fill="#0068b3"/>
    <path id="Path_27541" data-name="Path 27541" d="M61.264,24.572a1.206,1.206,0,0,1-2.411.049,1.206,1.206,0,1,1,2.411-.049" transform="translate(-11.134 -4.421)" fill="#0068b3"/>
    <path id="Path_27542" data-name="Path 27542" d="M46.267,37.883a1.205,1.205,0,0,1-2.411.016,1.205,1.205,0,1,1,2.411-.016" transform="translate(-8.297 -6.936)" fill="#0068b3"/>
  </g>
</svg>
