<svg width="72" height="64" viewBox="0 0 72 64" fill="none" xmlns="http://www.w3.org/2000/svg">
<path d="M23.1425 31.9336C16.5101 31.9336 11.1143 37.2824 11.1143 43.8571C11.1143 50.4317 16.5101 55.7806 23.1425 55.7806C29.7749 55.7806 35.1707 50.4317 35.1707 43.8571C35.1707 37.2825 29.7749 31.9336 23.1425 31.9336ZM23.1425 54.2902C17.3391 54.2902 12.6178 49.6099 12.6178 43.8571C12.6178 38.1043 17.3391 33.424 23.1425 33.424C28.9458 33.424 33.6672 38.1043 33.6672 43.8571C33.6672 49.6099 28.9458 54.2902 23.1425 54.2902ZM24.6173 38.6638C24.8346 38.9501 25.0113 39.2683 25.1389 39.61H27.3204C27.7356 39.61 28.0721 39.9436 28.0721 40.3552C28.0721 40.7667 27.7356 41.1004 27.3204 41.1004H25.3659C25.2605 43.0626 23.6171 44.627 21.6119 44.627H21.1469L27.0595 49.2086C27.3866 49.4621 27.4445 49.9304 27.1888 50.2547C27.0405 50.4426 26.8194 50.5409 26.596 50.541C26.4341 50.541 26.271 50.4894 26.1335 50.3828L18.5016 44.4688C18.2488 44.273 18.1493 43.9397 18.2538 43.639C18.3584 43.3383 18.6438 43.1365 18.9646 43.1365H21.6119C22.7878 43.1365 23.7559 42.24 23.8585 41.1004H18.9646C18.5493 41.1004 18.2128 40.7667 18.2128 40.3552C18.2128 39.9436 18.5493 39.61 18.9646 39.61H23.4529C23.044 39.0383 22.3718 38.664 21.6127 38.6638H21.6118C21.6117 38.6638 21.6116 38.6638 21.6114 38.6638H18.9646C18.5493 38.6638 18.2128 38.3301 18.2128 37.9185C18.2128 37.507 18.5493 37.1733 18.9646 37.1733H21.6119H21.6128H27.3204C27.7356 37.1733 28.0721 37.507 28.0721 37.9185C28.0721 38.3301 27.7356 38.6638 27.3204 38.6638H24.6173Z" fill="url(#paint0_linear_6491_2205)"/>
<path d="M16.9086 2.54209C16.4852 3.20067 15.7535 4.24769 15.3641 4.23296C15.1854 4.22172 14.5436 3.91528 13.8693 3.39911C12.5528 2.22762 11.5794 1.589 10.0035 2.23403C9.6105 2.47634 9.35445 2.82507 9.1946 3.14638C8.87484 3.78905 8.81211 4.4138 8.77258 5.24397C8.76808 5.26083 8.76633 5.27214 8.76349 5.28901C8.74024 6.51616 9.18145 7.68783 9.80398 8.97581C10.4265 10.2638 11.2799 11.6208 12.2512 12.9619C13.704 14.968 15.3939 16.9092 17.0989 18.3484C13.7072 20.6476 10.0684 24.8388 6.87898 29.9611C3.01345 36.1693 -0.0326143 43.69 0.000263657 50.7458C0.0138754 53.7658 0.802317 56.9373 2.58234 59.4764C4.36237 62.0156 7.26459 63.8745 10.9998 63.8693C19.3518 63.9986 27.719 63.6337 36.0677 63.8693C39.3268 63.7714 42.1499 62.0113 44.1099 59.5636C44.5613 58.9999 44.9665 58.3939 45.3291 57.7622C47.2194 61.4724 51.4532 64 56.2613 64H60.0069C66.5185 64 71.9912 59.3749 71.9912 53.4362C72.011 47.0416 71.9912 40.7025 71.9912 34.3307C71.9912 28.392 66.5185 23.7669 60.0069 23.7669H56.2613C49.7497 23.7669 44.277 28.392 44.277 34.3307V37.8811C43.1229 35.1096 41.7149 32.4305 40.1679 29.9611C38.0848 26.6358 35.8163 23.7097 33.553 21.4223C34.2628 21.5342 34.9802 21.6438 35.713 21.7012C37.5762 21.8474 39.4432 21.8125 41.0765 21.207C42.7098 20.6016 44.1451 19.034 44.1451 17.0145C44.1451 15.943 43.6928 14.8961 42.9376 14.2457C42.1823 13.5953 41.2618 13.3237 40.3321 13.2027C38.4726 12.961 36.3846 13.309 34.3502 13.839C33.8693 13.9644 33.3963 14.1044 32.9316 14.2489C33.2571 13.7272 33.5826 13.2051 33.8871 12.6568C35.5255 9.70626 36.7886 6.55859 36.7886 3.84769C36.7899 3.23903 36.4177 2.69168 35.8478 2.46488C33.7677 1.63747 31.9465 1.57865 30.4961 2.06957C29.0458 2.56039 28.0649 3.52185 27.3513 4.3329C26.7059 5.06632 26.2648 5.59159 26.0764 5.77105C26.0429 5.8104 25.9492 5.82158 25.8799 5.72601C24.7614 4.61377 24.3045 2.61914 23.0077 1.07169C22.6835 0.684888 22.0544 0.0272607 21.4133 0.00252317C19.6872 -0.0638184 17.9382 1.18838 16.9086 2.54209ZM20.496 2.98064C20.5278 2.95253 20.6474 2.90531 20.704 2.9694C21.2467 3.61702 22.0915 6.00678 23.9163 7.82128C24.4166 8.31884 25.0111 8.71897 25.7451 8.83237C26.4792 8.94594 27.1937 8.68389 27.659 8.36174C28.5896 7.718 29.0369 6.9368 29.6109 6.2844C30.185 5.63206 30.7609 5.13052 31.472 4.88984C31.8857 4.74984 32.7105 5.00234 33.3653 5.08723C33.0888 6.81712 32.4917 8.98873 31.2493 11.2262C29.8256 13.7899 28.7097 15.7174 26.7035 16.7841C24.6974 17.8508 22.2811 18.185 20.5399 17.1647C18.7987 16.1444 16.4671 13.6802 14.6899 11.2263C13.8013 9.99929 13.0254 8.75257 12.5064 7.67879C12.0485 6.73134 11.8971 6.03162 11.8529 5.61603C11.9203 5.66663 11.9605 5.69249 12.0316 5.74703C12.794 6.33049 13.7549 7.12487 15.1882 7.20842C15.9048 7.24777 16.7156 7.01839 17.3687 6.5373C18.0218 6.05604 18.3938 5.15075 18.966 4.50645C19.4453 3.94424 19.8785 3.36294 20.496 2.98064ZM41.1409 17.0162C41.299 17.5942 40.9204 18.099 40.0243 18.4311C39.1282 18.7634 37.5882 18.8674 35.9563 18.7392C34.4458 18.6206 32.8891 18.304 31.56 17.9925C32.6519 17.5433 33.7757 17.066 35.1151 16.7171C37.4291 16.1039 40.7531 15.5972 41.1409 17.0162V17.0162ZM26.0236 19.9768C25.6272 21.411 24.924 23.4313 23.6614 25.0321C22.2913 26.6061 24.8056 28.5599 26.0207 26.8653C27.7704 24.647 27.7295 23.4116 28.1485 21.7461C28.8297 23.7678 29.2566 26.2941 32.7558 29.7736C34.0287 31.2523 36.0729 29.4779 35.2265 28.0943C36.0431 29.1805 36.8502 30.3224 37.6093 31.5342C41.2944 37.4168 44.1525 44.5662 44.2096 50.7501C44.2323 53.2335 43.2892 55.8045 41.7623 57.7113C40.2354 59.6182 38.201 60.8288 35.9797 60.8955H11.0001C8.213 60.8955 6.38825 59.6823 5.05335 57.7781C3.71845 55.8739 3.0134 53.2255 3.00177 50.7269C2.97284 44.5513 5.77678 37.4142 9.43791 31.5342C12.8647 26.0306 17.1549 21.658 19.8893 20.1453C22.0789 20.6591 24.2541 20.4579 26.0236 19.9766V19.9768ZM32.6005 24.8984C33.4194 25.8067 34.2424 26.7966 35.0594 27.8706C33.9617 27.0988 33.2604 25.9391 32.6005 24.8984ZM56.3052 26.9206H60.0509C63.6128 26.9206 66.3858 28.7697 67.8381 31.1798C66.1812 33.5709 62.5337 35.5255 58.0579 35.529C53.7291 35.528 50.167 33.6925 48.43 31.4006C49.8339 28.8798 52.6432 26.9206 56.3052 26.9206ZM68.9899 34.7504V41.1916C68.2685 42.3188 66.9736 43.2304 65.1124 43.8616C63.0959 44.5454 60.5142 44.8812 57.8234 44.8842C53.9487 44.4378 49.1116 43.4983 47.2665 40.6003V34.8826C49.9054 37.2129 54.2613 38.5071 58.0579 38.4939C61.9132 38.4827 66.3091 37.0218 68.9899 34.7504ZM47.2665 44.9307C49.9112 46.9222 54.5315 47.8118 57.8116 47.8593C60.5945 47.8987 63.6818 47.4748 66.0769 46.6856C67.1249 46.3303 68.1087 45.8688 68.9902 45.2997V49.9657C68.2975 51.177 66.9515 52.1485 64.9924 52.8129C62.9729 53.4977 60.3868 53.8191 57.6917 53.8211C52.6204 53.82 48.8727 52.2679 47.2666 49.7042L47.2665 44.9307ZM47.2988 53.9838C49.9371 55.8939 53.6092 56.7982 57.6916 56.799C60.6239 56.7975 63.4848 56.4594 65.9536 55.6223C67.0327 55.2563 68.0453 54.7802 68.9461 54.1871C68.5091 57.961 64.8002 61.0263 60.0069 61.0263H56.2613C51.383 61.0263 47.6255 57.8495 47.2988 53.9838Z" fill="url(#paint1_linear_6491_2205)"/>
<defs>
<linearGradient id="paint0_linear_6491_2205" x1="23.1424" y1="31.3997" x2="23.1424" y2="55.8638" gradientUnits="userSpaceOnUse">
<stop stop-color="#00EFD1"/>
<stop offset="1" stop-color="#00ACEA"/>
</linearGradient>
<linearGradient id="paint1_linear_6491_2205" x1="35.9998" y1="-1.4329" x2="35.9998" y2="64.2232" gradientUnits="userSpaceOnUse">
<stop stop-color="#00EFD1"/>
<stop offset="1" stop-color="#00ACEA"/>
</linearGradient>
</defs>
</svg>
