<svg xmlns="http://www.w3.org/2000/svg" width="59.487" height="60" viewBox="0 0 59.487 60">
  <g id="Group_24120" data-name="Group 24120" transform="translate(0 0)">
    <g id="Group_24121" data-name="Group 24121" transform="translate(0)">
      <path id="Path_27546" data-name="Path 27546" d="M53.815,60a2.329,2.329,0,0,0,.582-.864A147.488,147.488,0,0,0,59.36,45.127c.268-.9.144-1.2-.669-1.683a18.792,18.792,0,0,0-6.807-2.421c-.956-.149-1.207,0-1.616.845-.081.168-.115.432-.374.37-.288-.07-.656-.054-.767-.435-.065-.225-.088-.46-.147-.686a5.769,5.769,0,0,0-3.105-3.9c-1.207-.6-2.414-1.2-3.632-1.781a.666.666,0,0,1-.452-.826,2.185,2.185,0,0,0,.041-.465c-.01-1-.012-1,.954-.94A15.112,15.112,0,1,0,29.827,12.46c-.015.036-.03.072-.045.108-.1.234-.162.506-.534.328-.349-.169-.241-.372-.1-.614a8.519,8.519,0,0,0,1.175-3.223,5,5,0,0,0-.555-3.285,3.1,3.1,0,0,0-2.66-1.66c-.4-.016-.544-.186-.6-.549a5.56,5.56,0,0,0-.272-1.014A3.6,3.6,0,0,0,22.86,0,3.612,3.612,0,0,0,19.1,2.416a1.66,1.66,0,0,0-.155.44c-.088.834-.409,1.245-1.372,1.379a3.478,3.478,0,0,0-2.64,3.394A7.706,7.706,0,0,0,16.1,12.206c.242.4.194.577-.226.79a19.949,19.949,0,0,0-6.241,5.059.953.953,0,0,0-.01,1.41.9.9,0,0,0,1.391-.155,21.745,21.745,0,0,1,3.644-3.379,13.462,13.462,0,0,1,8.487-2.736,12.823,12.823,0,0,1,5.491,1.517.568.568,0,0,1,.344.7,15.071,15.071,0,0,0,7.94,16.13,14.775,14.775,0,0,0,2.439,1,1.32,1.32,0,0,1,.546,1.571c-.173.24-.355,0-.505-.071q-3.246-1.571-6.482-3.163a5.332,5.332,0,0,0-3.748-.542,5,5,0,0,0-3.965,4.087,4.841,4.841,0,0,0,2.155,5.248c1.515,1.033,3.133,1.916,4.7,2.867.165.1.324.206.606.388-1.274.227-2.415.435-3.559.632-1.925.335-3.851.66-5.775.995a5.494,5.494,0,0,1-4.143-.8c-3.773-2.479-7.573-4.916-11.36-7.372A5.761,5.761,0,0,0,5.788,35.4c-.413-.076-.394-.356-.4-.655A20.894,20.894,0,0,1,6.637,27.05a24.693,24.693,0,0,1,2.278-4.806A.948.948,0,0,0,8.9,21.05a.9.9,0,0,0-1-.3,1.179,1.179,0,0,0-.662.628,26.08,26.08,0,0,0-3.317,8.4,20.769,20.769,0,0,0-.437,5.175.521.521,0,0,1-.385.6,4.647,4.647,0,0,0-1.137,8.174c4.874,3.915,9.769,7.807,14.63,11.738A7.747,7.747,0,0,0,22.9,57.077c3.092-.444,6.2-.77,9.3-1.149q4.594-.562,9.186-1.131a2.8,2.8,0,0,1,1.438.135c.67.272,1.351.516,2.034.755.275.1.444.2.349.54-.174.613.139.984.644,1.288A20.06,20.06,0,0,0,52.642,60Zm-31.7-13.408c.349-.032.7-.042,1.048-.1q3.64-.612,7.276-1.241c1.617-.278,3.232-.564,4.848-.848.49-.086.919-.271,1.022-.818s-.241-.867-.674-1.113c-.187-.106-.369-.221-.554-.331-2.128-1.275-4.262-2.542-6.385-3.828a3.317,3.317,0,0,1,3.126-5.851c1.327.622,2.638,1.279,3.955,1.921q4.585,2.232,9.169,4.467a3.789,3.789,0,0,1,2.265,3.309c.084,1.234.149,1.356,1.349,1.682.8.216.8.216.522,1a.991.991,0,0,0,.469,1.384c.519.22,1.005-.03,1.278-.681q.462-1.108.892-2.228c.111-.29.261-.368.578-.306a18.032,18.032,0,0,1,4.639,1.6.624.624,0,0,1,.349.889c-1.275,4.1-2.693,8.149-4.309,12.129a.5.5,0,0,1-.661.367,17.058,17.058,0,0,1-4.683-1.643.512.512,0,0,1-.273-.72c.358-1.093.684-2.2,1.044-3.29.371-1.13.78-2.249,1.145-3.381a.893.893,0,0,0-.576-1.175.912.912,0,0,0-1.16.519,4.26,4.26,0,0,0-.21.546q-.71,2.108-1.416,4.216c-.362,1.078-.175,1.051-1.284.619a7.851,7.851,0,0,0-4.3-.73c-2.693.453-5.419.7-8.132,1.037-3.1.379-6.211.692-9.3,1.155a6.85,6.85,0,0,1-5.93-1.553c-2.419-2.1-4.982-4.028-7.482-6.032-2.271-1.82-4.548-3.634-6.81-5.465A2.77,2.77,0,0,1,4.8,37.166a3.544,3.544,0,0,1,1.932.753q5.755,3.73,11.51,7.459a7.131,7.131,0,0,0,3.865,1.214M43.887,31.305a13.213,13.213,0,1,1,13.2-13.217,13.2,13.2,0,0,1-13.2,13.217M28.463,8.085A6.34,6.34,0,0,1,27.426,11.5a.665.665,0,0,1-.9.351,13.311,13.311,0,0,0-5.092-.507,18.614,18.614,0,0,0-2.756.517c-.233.061-.469.153-.633-.1A5.663,5.663,0,0,1,16.91,7.307a1.518,1.518,0,0,1,2.131-1.2c1.014.272,1.474-.075,1.481-1.136A5.473,5.473,0,0,1,20.9,3.035,1.738,1.738,0,0,1,22.62,1.863a1.775,1.775,0,0,1,1.729,1.079,5.7,5.7,0,0,1,.426,2.106c.092,1.048.448,1.309,1.493,1.045A1.586,1.586,0,0,1,28.431,7.56c.03.23.029.465.032.525" transform="translate(0 0)" fill="#0068b3"/>
      <path id="Path_27547" data-name="Path 27547" d="M50.31,36.348c0-.9-.014-1.794.006-2.691a.705.705,0,0,0-.477-.769,10.984,10.984,0,0,1-1.033-.551,3.576,3.576,0,0,1-1.991-3.784A4.036,4.036,0,0,1,49.6,24.97c.561-.2.821-.435.719-1.026a1.524,1.524,0,0,1,.017-.525.886.886,0,0,1,.884-.79.871.871,0,0,1,.923.664.912.912,0,0,1,.072.4c-.135.8.266,1.087,1,1.238a3.759,3.759,0,0,1,1.646.865.935.935,0,1,1-1.119,1.494c-.426-.271-.925-.767-1.342-.552s-.142.891-.156,1.361c-.03,1.052.007,2.106-.016,3.159a.723.723,0,0,0,.573.812,5.214,5.214,0,0,1,2.475,1.494,4.927,4.927,0,0,1-2.322,7.728c-.571.2-.8.447-.729,1.031a2,2,0,0,1-.079.75.861.861,0,0,1-.958.688c-.482-.04-.9-.36-.83-.821.169-1.176-.426-1.482-1.437-1.588a4.854,4.854,0,0,1-2.064-.94.928.928,0,0,1-.371-1.309.943.943,0,0,1,1.33-.29,6.2,6.2,0,0,0,1.871.811c.447.091.654-.03.639-.526-.026-.916-.007-1.833-.007-2.75m1.918.339c0,.7-.009,1.4,0,2.106,0,.22-.118.524.131.639.221.1.427-.127.628-.239a1.363,1.363,0,0,0,.194-.132A3.135,3.135,0,0,0,54.4,36.009,2.475,2.475,0,0,0,52.8,34.077c-.449-.205-.59-.091-.575.388.024.74.006,1.481.006,2.222m-1.918-7.81c0-.544-.016-1.089,0-1.631.019-.485-.158-.556-.536-.3A2.416,2.416,0,0,0,48.7,29.079a1.841,1.841,0,0,0,1.141,1.682c.327.186.491.193.475-.252-.018-.544,0-1.088,0-1.632" transform="translate(-34.436 -4.281)" fill="#0068b3"/>
      <path id="Path_27548" data-name="Path 27548" d="M33.493,46.827a2.362,2.362,0,0,0,1.934-1.044,8,8,0,0,0,1.211-2.769.934.934,0,1,0-1.8-.5,9.167,9.167,0,0,1-.738,1.839c-.366.623-.478.654-1.108.335-.261-.132-.516-.281-.786-.389a.926.926,0,0,0-.855,1.641,4.894,4.894,0,0,0,2.144.882" transform="translate(-2.209 -7.909)" fill="#0068b3"/>
      <path id="Path_27549" data-name="Path 27549" d="M9.446,67.573a.963.963,0,0,0,.967.9,1,1,0,0,0,.911-.968.971.971,0,0,0-.975-.891.958.958,0,0,0-.9.962" transform="translate(40.505 -12.602)" fill="#0068b3"/>
      <path id="Path_27550" data-name="Path 27550" d="M19.967,27.814a4.3,4.3,0,0,1,1.678-3.508,3.48,3.48,0,0,1,4.72.426,4.624,4.624,0,0,1,.434,5.634,3.565,3.565,0,0,1-6.045.039,4.407,4.407,0,0,1-.786-2.591m5.668-.066c-.006-.1-.006-.293-.036-.484a1.968,1.968,0,0,0-2.036-1.77,2.157,2.157,0,0,0-1.675,2.338,2.088,2.088,0,0,0,1.691,2.308c1.194.1,2.05-.852,2.055-2.392" transform="translate(24.455 -4.461)" fill="#0068b3"/>
      <path id="Path_27551" data-name="Path 27551" d="M9.222,14.792a4.226,4.226,0,0,1,1.462-3.26,3.5,3.5,0,0,1,5.24.641,4.583,4.583,0,0,1,.165,5.168A3.576,3.576,0,0,1,9.8,17.147a4.564,4.564,0,0,1-.579-2.355m5.672.107a2.479,2.479,0,0,0-.441-1.549,1.625,1.625,0,0,0-2.691-.229,2.576,2.576,0,0,0-.459,2.79A1.909,1.909,0,0,0,13,17.232a1.8,1.8,0,0,0,1.655-1.2,2.3,2.3,0,0,0,.238-1.134" transform="translate(26.488 -2.012)" fill="#0068b3"/>
      <path id="Path_27552" data-name="Path 27552" d="M15.352,28.719a.942.942,0,0,1-.978-1.36c.438-1.105.911-2.2,1.372-3.293q2.459-5.85,4.922-11.7a2.2,2.2,0,0,1,.208-.417.876.876,0,0,1,1.183-.319.827.827,0,0,1,.486,1.068c-.186.553-.426,1.089-.652,1.627Q19.086,21.014,16.273,27.7c-.205.486-.385,1.009-.92,1.021" transform="translate(25.53 -2.18)" fill="#0068b3"/>
    </g>
  </g>
</svg>
