<svg width="59" height="67" viewBox="0 0 59 67" fill="none" xmlns="http://www.w3.org/2000/svg">
<path d="M29.4994 46.0536C31.9896 46.0536 34.4238 45.3173 36.4942 43.9379C38.5647 42.5584 40.1784 40.5977 41.1313 38.3037C42.0843 36.0098 42.3336 33.4855 41.8478 31.0503C41.362 28.615 40.1629 26.3781 38.4021 24.6223C36.6413 22.8666 34.398 21.6709 31.9557 21.1865C29.5134 20.7021 26.9819 20.9508 24.6814 21.9009C22.3808 22.8511 20.4145 24.4602 19.031 26.5248C17.6476 28.5893 16.9092 31.0165 16.9092 33.4995C16.913 36.8279 18.2407 40.0189 20.601 42.3724C22.9613 44.726 26.1615 46.0498 29.4994 46.0536ZM29.4994 23.1242C31.5574 23.1242 33.5691 23.7327 35.2802 24.8728C36.9913 26.0128 38.325 27.6332 39.1125 29.529C39.9 31.4249 40.1061 33.511 39.7046 35.5236C39.3031 37.5362 38.3121 39.3849 36.857 40.8359C35.4018 42.2869 33.5478 43.275 31.5294 43.6754C29.511 44.0757 27.4189 43.8702 25.5176 43.0849C23.6163 42.2997 21.9913 40.9698 20.8479 39.2636C19.7046 37.5574 19.0943 35.5515 19.0943 33.4995C19.0975 30.7487 20.1947 28.1115 22.1454 26.1665C24.096 24.2214 26.7408 23.1273 29.4994 23.1242Z" fill="url(#paint0_linear_6491_2220)"/>
<path d="M24.457 30.7758C24.457 31.0647 24.5721 31.3418 24.777 31.5461C24.9819 31.7504 25.2598 31.8652 25.5496 31.8652H29.8309C29.4415 32.6823 28.6819 33.0909 27.8104 33.0909H25.5496C25.3295 33.095 25.1157 33.1642 24.935 33.2896C24.7544 33.415 24.6151 33.591 24.5348 33.7954C24.4545 33.9997 24.4367 34.2232 24.4838 34.4376C24.5309 34.652 24.6407 34.8477 24.7993 34.9998L30.45 40.329C30.554 40.4275 30.6764 40.5045 30.8103 40.5557C30.9441 40.607 31.0868 40.6314 31.2302 40.6276C31.3735 40.6238 31.5147 40.5919 31.6456 40.5337C31.7766 40.4754 31.8948 40.392 31.9934 40.2882C32.092 40.1844 32.1691 40.0623 32.2203 39.9287C32.2715 39.7952 32.2959 39.6529 32.2919 39.5099C32.2879 39.367 32.2558 39.2263 32.1972 39.0958C32.1387 38.9653 32.0549 38.8475 31.9507 38.7493L28.2717 35.2523C29.1953 35.1699 30.0689 34.7976 30.7671 34.189C31.4653 33.5805 31.952 32.7669 32.1574 31.8652H33.4506C33.7404 31.8652 34.0183 31.7504 34.2232 31.5461C34.4281 31.3418 34.5432 31.0647 34.5432 30.7758C34.5432 30.4868 34.4281 30.2097 34.2232 30.0054C34.0183 29.8011 33.7404 29.6863 33.4506 29.6863H32.1577C32.0658 29.2934 31.8958 28.923 31.6576 28.5969H33.4506C33.7404 28.5969 34.0183 28.4821 34.2232 28.2778C34.4281 28.0735 34.5432 27.7964 34.5432 27.5074C34.5432 27.2185 34.4281 26.9414 34.2232 26.7371C34.0183 26.5327 33.7404 26.418 33.4506 26.418H25.5496C25.2598 26.418 24.9819 26.5327 24.777 26.7371C24.5721 26.9414 24.457 27.2185 24.457 27.5074C24.457 27.7964 24.5721 28.0735 24.777 28.2778C24.9819 28.4821 25.2598 28.5969 25.5496 28.5969H27.8104C28.6821 28.5969 29.4415 29.0054 29.8309 29.6863H25.5496C25.2598 29.6863 24.9819 29.8011 24.777 30.0054C24.5721 30.2097 24.457 30.4868 24.457 30.7758Z" fill="url(#paint1_linear_6491_2220)"/>
<path d="M38.9419 46.1597L33.2857 50.3769C32.6486 49.6757 31.8438 49.1467 30.9464 48.8392C30.049 48.5316 29.0881 48.4556 28.1533 48.618L22.1508 49.6644C21.2371 49.8227 20.2994 49.774 19.4071 49.5219L18.7358 49.3312C17.0709 48.8542 15.3177 48.7695 13.6144 49.0836C11.9111 49.3977 10.3043 50.1022 8.92065 51.1413L8.75062 50.172C8.70063 49.8874 8.53933 49.6343 8.30219 49.4683C8.06505 49.3023 7.77149 49.237 7.48609 49.2868L0.904084 50.4348C0.618688 50.4847 0.364835 50.6455 0.198359 50.882C0.0318821 51.1184 -0.0335846 51.4111 0.0163583 51.6957L2.54296 66.0981C2.56758 66.2391 2.61983 66.3738 2.69674 66.4947C2.77364 66.6155 2.87368 66.72 2.99113 66.8022C3.10859 66.8844 3.24115 66.9427 3.38123 66.9738C3.52131 67.0049 3.66616 67.0081 3.80749 66.9833L10.3895 65.8353C10.6749 65.7854 10.9287 65.6246 11.0952 65.3881C11.2617 65.1517 11.3272 64.859 11.2772 64.5744L11.1777 64.0068L12.5844 62.8675C13.129 62.4156 13.8285 62.1925 14.535 62.2451L25.2685 63.0275C25.2928 63.0293 25.3172 63.0302 25.3417 63.0305C27.7942 63.0395 30.1854 62.2665 32.1661 60.8244C32.2078 60.7938 32.2472 60.7604 32.2842 60.7243L45.0692 48.2419C45.2682 48.0476 45.3853 47.7849 45.3965 47.5074C45.4078 47.23 45.3124 46.9587 45.1297 46.7491C44.3717 45.877 43.3062 45.3293 42.1541 45.2196C41.002 45.1098 39.8517 45.4465 38.9419 46.1597ZM4.50675 64.65L2.35668 52.3936L6.78615 51.621L8.93636 63.8773L4.50675 64.65ZM30.8126 59.1228C29.2384 60.253 27.3494 60.8646 25.4095 60.8722H25.3907L14.6951 60.0823C13.4299 59.9851 12.1764 60.3817 11.1988 61.1884L10.7465 61.5531L9.35796 53.636C10.4958 52.5282 11.9074 51.7404 13.4494 51.3527C14.9914 50.9651 16.6089 50.9913 18.1374 51.4288L18.8088 51.6195C20.0182 51.9608 21.289 52.0268 22.5274 51.8126L28.5297 50.7655C29.2394 50.6425 29.97 50.7445 30.6185 51.0572C31.2671 51.3699 31.8009 51.8775 32.145 52.5086L23.5299 54.0113C23.2604 54.058 23.0183 54.2038 22.8513 54.4199C22.6844 54.6359 22.6048 54.9066 22.6283 55.1783C22.6518 55.45 22.7766 55.7031 22.9782 55.8875C23.1797 56.0719 23.4433 56.1742 23.7168 56.1742C23.7804 56.1741 23.8439 56.1686 23.9065 56.1577L33.7731 54.4366C34.0585 54.3868 34.3124 54.226 34.4789 53.9895C34.6453 53.753 34.7108 53.4603 34.6609 53.1757C34.6057 52.8623 34.5238 52.5542 34.4163 52.2546L40.2616 47.8968C40.2692 47.8911 40.2766 47.8854 40.2841 47.8795C40.6125 47.6212 41.0048 47.4562 41.4195 47.402C41.8341 47.3478 42.2558 47.4063 42.6399 47.5715L30.8126 59.1228Z" fill="url(#paint2_linear_6491_2220)"/>
<path d="M56.4569 0.90149C56.4069 0.616913 56.2456 0.363789 56.0084 0.197789C55.7713 0.0317904 55.4777 -0.0334882 55.1923 0.0163114L48.6103 1.16432C48.3249 1.21417 48.0711 1.37501 47.9046 1.61147C47.7381 1.84793 47.6727 2.14064 47.7226 2.42522L47.8222 2.99283L46.4155 4.13212C45.8707 4.58382 45.1713 4.80694 44.4648 4.75447L33.7314 3.97211C33.7071 3.97034 33.6826 3.96938 33.6582 3.96911C31.2058 3.96084 28.8148 4.73377 26.8338 6.17525C26.7921 6.20581 26.7526 6.23926 26.7156 6.27534L13.9307 18.7569C13.7318 18.9512 13.6147 19.2139 13.6034 19.4913C13.5922 19.7688 13.6876 20.0401 13.8702 20.2497C14.6281 21.1221 15.6936 21.6701 16.8458 21.7801C17.998 21.8901 19.1485 21.5535 20.0585 20.8403L25.7143 16.6234C26.3507 17.3256 27.1555 17.8553 28.0532 18.1629C28.9509 18.4704 29.9122 18.5458 30.8471 18.382L36.8496 17.335C37.7633 17.1769 38.701 17.2256 39.5932 17.4776L40.2646 17.6683C41.9295 18.1452 43.6827 18.23 45.386 17.9158C47.0893 17.6017 48.6961 16.8973 50.0797 15.8582L50.2498 16.8275C50.294 17.0798 50.426 17.3086 50.6225 17.4735C50.8191 17.6385 51.0677 17.7291 51.3246 17.7294C51.3882 17.7294 51.4516 17.7238 51.5143 17.7129L58.0963 16.5649C58.3817 16.5151 58.6355 16.3542 58.802 16.1178C58.9685 15.8813 59.034 15.5886 58.984 15.304L56.4569 0.90149ZM40.863 15.5726L40.1916 15.3819C38.9822 15.0404 37.7113 14.9744 36.4729 15.1887L30.4697 16.2356C29.76 16.3586 29.0295 16.2565 28.3809 15.9438C27.7324 15.6312 27.1985 15.1236 26.8544 14.4925L35.4695 12.9898C35.6118 12.9661 35.7479 12.9146 35.8701 12.8382C35.9923 12.7618 36.0981 12.6621 36.1814 12.5447C36.2647 12.4274 36.3239 12.2947 36.3556 12.1544C36.3873 12.0142 36.3908 11.869 36.3659 11.7274C36.341 11.5857 36.2883 11.4504 36.2108 11.3292C36.1332 11.208 36.0323 11.1033 35.914 11.0211C35.7956 10.9389 35.6622 10.8809 35.5212 10.8505C35.3803 10.82 35.2347 10.8176 35.0929 10.8435L25.2263 12.5645C24.9409 12.6143 24.687 12.7752 24.5206 13.0116C24.3541 13.2481 24.2886 13.5408 24.3386 13.8254C24.394 14.1385 24.4759 14.4464 24.5834 14.7457L18.7391 19.1035C18.7314 19.1092 18.724 19.1149 18.7165 19.1208C18.3886 19.3798 17.9966 19.5456 17.5819 19.6007C17.1672 19.6559 16.7453 19.5983 16.3608 19.434L28.188 7.87752C29.762 6.74736 31.6506 6.13566 33.5902 6.12786H33.609L44.3046 6.91771C45.5698 7.01489 46.8234 6.61816 47.8009 5.81124L48.2531 5.44763L49.6416 13.3647C48.5039 14.4725 47.0925 15.2603 45.5506 15.6481C44.0088 16.0359 42.3914 16.0098 40.863 15.5726ZM52.214 15.3788L50.0637 3.12247L54.4929 2.35005L56.643 14.6064L52.214 15.3788Z" fill="url(#paint3_linear_6491_2220)"/>
<defs>
<linearGradient id="paint0_linear_6491_2220" x1="29.4994" y1="20.3832" x2="29.4994" y2="46.1412" gradientUnits="userSpaceOnUse">
<stop stop-color="#00EFD1"/>
<stop offset="1" stop-color="#00ACEA"/>
</linearGradient>
<linearGradient id="paint1_linear_6491_2220" x1="29.5001" y1="26.0998" x2="29.5001" y2="40.6776" gradientUnits="userSpaceOnUse">
<stop stop-color="#00EFD1"/>
<stop offset="1" stop-color="#00ACEA"/>
</linearGradient>
<linearGradient id="paint2_linear_6491_2220" x1="22.6986" y1="44.7111" x2="22.6986" y2="67.0758" gradientUnits="userSpaceOnUse">
<stop stop-color="#00EFD1"/>
<stop offset="1" stop-color="#00ACEA"/>
</linearGradient>
<linearGradient id="paint3_linear_6491_2220" x1="36.3014" y1="-0.488093" x2="36.3014" y2="21.8766" gradientUnits="userSpaceOnUse">
<stop stop-color="#00EFD1"/>
<stop offset="1" stop-color="#00ACEA"/>
</linearGradient>
</defs>
</svg>
