<svg xmlns="http://www.w3.org/2000/svg" xmlns:xlink="http://www.w3.org/1999/xlink" width="74" height="74" viewBox="0 0 74 74">
  <defs>
    <clipPath id="clip-path">
      <rect id="Rectangle_2754" data-name="Rectangle 2754" width="48.697" height="74" fill="#0068b3"/>
    </clipPath>
  </defs>
  <g id="Group_24132" data-name="Group 24132" transform="translate(-1018 -3005)">
    <rect id="Rectangle_2728" data-name="Rectangle 2728" width="74" height="74" transform="translate(1018 3005)" fill="#545454" opacity="0"/>
    <g id="Group_24129" data-name="Group 24129" transform="translate(1031 3005)">
      <g id="Group_24128" data-name="Group 24128" clip-path="url(#clip-path)">
        <path id="Path_27558" data-name="Path 27558" d="M32.732,0a49.377,49.377,0,0,1,3.519,3.91c3.179,3.611,6.328,7.249,9.488,10.875.158.182.316.364.463.555a1.144,1.144,0,0,1-.918,1.891c-1.131,0-2.264.047-3.392-.016-.759-.041-.961.243-.918.952.053.888.022,1.78.009,2.671-.014.945-.475,1.493-1.212,1.474-.707-.019-1.139-.554-1.146-1.465-.011-1.492-.015-2.984,0-4.476.011-.989.434-1.393,1.418-1.4.856-.009,1.712,0,2.747,0-.948-1.1-1.772-2.054-2.6-3.007q-3.745-4.3-7.492-8.594c-.279-.323-.478-.49-.839-.074-3.338,3.852-6.69,7.691-10.16,11.675.919,0,1.695,0,2.47,0,1.381,0,1.679.306,1.68,1.709,0,1.15,0,2.3,0,3.556.985-.613,1.591-.154,2.177.525q3.724,4.316,7.481,8.605c.4.453.744.9.435,1.546a1.4,1.4,0,0,1-1.453.727h-.072c-1.791.026-1.791.026-1.791,1.791,0,.674.025,1.35-.008,2.021-.026.545.14.783.729.77q2.272-.047,4.546,0c.582.012.741-.216.737-.764-.019-2.767-.009-5.534-.008-8.3,0-.24-.006-.482,0-.722.03-.865.525-1.444,1.21-1.422a1.265,1.265,0,0,1,1.145,1.412c.014,2.936.006,5.872.008,8.806,0,.978,0,.979,1.01.981,1.563,0,3.127,0,4.691,0,1.329,0,1.707.345,1.783,1.695a29.479,29.479,0,0,1-.316,5.608,48.8,48.8,0,0,1-1.422,6.842.8.8,0,0,0,.265.884,5.236,5.236,0,0,1-1.97,8.864.763.763,0,0,0-.566.853,13.209,13.209,0,0,1-.99,5.712A11.512,11.512,0,0,1,33.117,73.8c-4.37.287-8.752.2-13.129.151a34.322,34.322,0,0,1-6.324-.4,11.66,11.66,0,0,1-9.294-10.3,16.026,16.026,0,0,1-.112-2.23c.024-.554-.2-.782-.715-.968a5.18,5.18,0,0,1-2.462-8.04,3.186,3.186,0,0,0,.632-2.733,78.825,78.825,0,0,1-.92-10.4c0-.386,0-.771.028-1.155.081-1.108.5-1.5,1.593-1.51.721-.008,1.444-.02,2.165,0,.48.017.7-.139.693-.655q-.022-4.8,0-9.6c0-.512-.2-.691-.688-.663-.407.024-.818,0-1.226.006a1.329,1.329,0,0,1-1.393-.689,1.275,1.275,0,0,1,.363-1.5q2.511-2.888,5.027-5.767,1.327-1.522,2.654-3.048c.791-.91,1.483-.912,2.272-.007q3.792,4.354,7.586,8.706c.407.466.787.941.472,1.612s-.908.7-1.533.7c-1.778,0-1.778.008-1.778,1.8,0,2.765.017,5.534-.012,8.3-.007.637.2.855.829.819.792-.044,1.588-.026,2.381-.006.463.013.649-.167.641-.634q-.027-1.659,0-3.32c.007-.48-.214-.637-.659-.623-.481.014-.963.01-1.443-.007a1.273,1.273,0,0,1-1.221-.746A1.206,1.206,0,0,1,17.87,29.5c1.691-1.941,3.374-3.888,5.083-5.812a1.964,1.964,0,0,0,.554-1.425c-.026-1.42-.03-2.839,0-4.259.013-.6-.212-.8-.8-.78-1.033.036-2.068,0-3.1.014-.6.007-1.166-.013-1.476-.651s.036-1.1.43-1.548q4.269-4.894,8.533-9.793c1.535-1.756,3.089-3.5,4.634-5.244Zm-8.1,38.57H4.35c-1.2,0-1.2,0-1.191,1.239A73.2,73.2,0,0,0,4.007,48.7c.162,1.242.743,1.461,1.8.7a4.077,4.077,0,0,0,.82-.808,11.352,11.352,0,0,0,1.014-1.66,1.12,1.12,0,0,1,1.55-.621A1.139,1.139,0,0,1,9.725,47.9,7.742,7.742,0,0,1,7.069,51.34a1.2,1.2,0,0,0-.574,1.134c.019,2.382-.049,4.766.029,7.144a28.123,28.123,0,0,0,.269,4.169,9.454,9.454,0,0,0,8.326,7.645c2.689.187,5.384.186,8.075.246,3.317.075,6.635-.091,9.951-.23a9.414,9.414,0,0,0,8.911-8.571c.242-3.53.178-7.068.159-10.6a.9.9,0,0,0-.443-.834,7.6,7.6,0,0,1-2.5-2.937,18.953,18.953,0,0,1-1.244-3.225,4.274,4.274,0,0,0-6.907-2.115c-4.334,3.443-9.169,3.438-13.544-.01a4.377,4.377,0,0,0-5.895.333A1.165,1.165,0,0,1,9.671,43.2a1.258,1.258,0,0,1,.435-1.424,6.629,6.629,0,0,1,8.986-.383,7.863,7.863,0,0,0,6.57,1.883,8.477,8.477,0,0,0,4.045-1.945A6.191,6.191,0,0,1,34.9,39.9a6.5,6.5,0,0,1,5.392,4.817A11.015,11.015,0,0,0,42.2,48.722a2.534,2.534,0,0,0,1.722,1.08c.375.035.564-.026.668-.424a42.088,42.088,0,0,0,1.534-9.808c.018-.995.007-1-.991-1h-20.5M5.693,22.811c1.905.428,1.938.472,1.938,2.437,0,3.34.018,6.68-.014,10.02-.007.709.17.976.923.954,1.729-.052,3.461-.048,5.19,0,.719.019.957-.187.949-.929-.036-3.46-.017-6.92-.016-10.382,0-1.575.212-1.813,1.763-2.016.032,0,.057-.068.085-.1a.457.457,0,0,0-.053-.133c-1.682-1.944-3.372-3.881-5.046-5.832-.294-.342-.421-.111-.6.1-.867,1-1.742,1.986-2.609,2.984-.828.953-1.65,1.91-2.508,2.9m15.653,6.364c1.839.36,1.883.416,1.883,2.318,0,1.324.021,2.647-.008,3.97-.013.564.184.759.75.752,1.828-.027,3.657-.034,5.485,0,.647.013.829-.224.816-.841-.032-1.538-.023-3.078,0-4.618.014-1,.413-1.406,1.372-1.487.158-.014.38.076.456-.111.087-.215-.138-.335-.257-.472-1.562-1.8-3.136-3.584-4.684-5.393-.329-.385-.5-.357-.82.017-1.2,1.411-2.442,2.785-3.639,4.2a9.01,9.01,0,0,0-1.351,1.665M4.125,52.394a2.814,2.814,0,0,0-1.762,2.538,2.767,2.767,0,0,0,1.284,2.58c.527.353.472-.132.474-.418.01-1.531,0-3.063,0-4.7m40.464-.012c0,1.658,0,3.189,0,4.721,0,.3-.034.757.483.4a2.783,2.783,0,0,0,1.275-2.584,2.857,2.857,0,0,0-1.762-2.541" fill="#0068b3"/>
        <path id="Path_27559" data-name="Path 27559" d="M24.389,64.608a5.472,5.472,0,0,1-4.773-2.777,1.215,1.215,0,0,1,.246-1.781c.614-.39,1.268-.175,1.751.576a3.1,3.1,0,0,0,5.478.021c.487-.764,1.12-.985,1.741-.609.6.363.714,1.067.243,1.835a5.44,5.44,0,0,1-4.686,2.735" fill="#0068b3"/>
        <path id="Path_27560" data-name="Path 27560" d="M17.327,53.633a2.994,2.994,0,0,1-.646,2.017,1.393,1.393,0,0,1-2.287-.006A3.53,3.53,0,0,1,14.41,51.6a1.393,1.393,0,0,1,2.286.011,3.214,3.214,0,0,1,.631,2.025" fill="#0068b3"/>
        <path id="Path_27561" data-name="Path 27561" d="M34.944,53.616a3.029,3.029,0,0,1-.611,2.007A1.4,1.4,0,0,1,32,55.614a3.5,3.5,0,0,1-.041-3.929,1.406,1.406,0,0,1,2.414.008,2.991,2.991,0,0,1,.568,1.923" fill="#0068b3"/>
      </g>
    </g>
  </g>
</svg>
