<svg width="94" height="86" viewBox="0 0 94 86" fill="none" xmlns="http://www.w3.org/2000/svg">
<path fill-rule="evenodd" clip-rule="evenodd" d="M63.1777 67.26L51.0058 55.0333C50.4 54.4248 50.4 53.4842 51.0058 52.8757L66.4272 37.4401C67.033 36.8869 67.9143 36.8869 68.465 37.4401L80.6369 49.6668C81.2427 50.2754 81.2427 51.1606 80.6369 51.7692L65.2706 67.3154C64.5546 67.8133 63.7835 67.8686 63.1777 67.26ZM64.2792 80.206L61.0297 76.9972L45.7736 85.8491C45.0025 86.181 44.1764 85.9597 43.6807 85.2405L20.6588 45.1302C20.4936 44.7983 20.4385 44.411 20.4936 44.0237L21.8705 38.6019C12.838 34.2866 3.86052 24.5495 0.941476 15.3103C-2.58341 4.13473 4.1359 -2.55954 15.3164 0.925908C20.6037 2.58564 26.7172 6.56901 31.2885 11.5482L54.1452 11.9355C54.5307 11.9355 54.9163 12.1015 55.1366 12.3781L93.5247 50.9393C94.1857 51.6032 94.1306 52.4884 93.5247 53.097L66.3721 80.3166C65.7112 80.8146 64.8851 80.8146 64.2792 80.206ZM58.8267 74.7842L25.9461 41.7554C25.3954 41.2022 25.5055 40.7596 25.4504 40.0404C25.175 39.9297 24.8997 39.8191 24.5692 39.7084L23.4677 44.1344L45.4982 82.4743L58.8267 74.7842ZM25.2301 25.0474L25.0098 12.9867C25.0098 11.7695 26.0563 11.4376 27.0476 11.4929C18.7311 3.74746 8.76231 0.70461 4.68667 4.68798C2.70392 6.67966 2.37346 10.1651 3.69529 14.4804C6.28388 22.8898 14.4352 31.5757 22.5865 35.7251L25.2301 25.0474ZM28.3695 40.0404L65.3257 77.1631L90.4405 51.9351L53.5393 14.8677L27.9839 14.4804L28.3695 40.0404ZM39.55 32.7929C33.5466 32.7929 30.6827 25.4347 34.8134 21.23C37.402 18.6298 41.6979 18.6298 44.3967 21.23C48.4723 25.2687 45.7736 32.7929 39.55 32.7929ZM39.55 22.2259C36.2454 22.2259 34.4829 26.3752 36.8512 28.7542C38.3383 30.2479 40.7616 30.3586 42.2487 28.7542C44.617 26.2092 42.7444 22.2259 39.55 22.2259ZM25.2852 36.9422L25.3954 36.9975V36.4996L25.2852 36.9422ZM54.1452 54.0375L64.2792 64.1619L77.5526 50.7733L67.4186 40.6489L54.1452 54.0375Z" fill="url(#paint0_linear_6501_2193)"/>
<defs>
<linearGradient id="paint0_linear_6501_2193" x1="46.9998" y1="-1.92546" x2="46.9998" y2="86.3" gradientUnits="userSpaceOnUse">
<stop stop-color="#00EFD1"/>
<stop offset="1" stop-color="#00ACEA"/>
</linearGradient>
</defs>
</svg>
