<svg width="68" height="68" viewBox="0 0 68 68" fill="none" xmlns="http://www.w3.org/2000/svg">
<g clip-path="url(#clip0_13377_2435)">
<path d="M67.3641 41.7502V41.7226C67.3094 40.7252 66.9778 39.7628 66.4065 38.9434C65.8352 38.124 65.0468 37.48 64.1298 37.0837C62.5276 36.2826 60.0074 34.9588 57.7166 33.7624C55.2537 32.4746 52.7058 31.1294 52.3913 31.0147C51.861 30.818 51.2745 30.8387 50.7593 31.0721C48.9552 31.9221 46.3224 33.1971 46.0652 33.3331C45.092 33.8494 44.1187 34.3956 43.1157 34.9078C41.5135 35.796 39.9282 36.6545 38.3069 37.4832C37.5894 37.8288 36.9834 38.369 36.5581 39.0423C36.1328 39.7156 35.9052 40.4948 35.9013 41.2912C35.5552 45.6222 36.0112 49.9798 37.2464 54.1453L37.3888 54.6043H9.90833C9.32669 54.6725 8.73727 54.6214 8.17606 54.454C7.61486 54.2867 7.09363 54.0067 6.64431 53.6311C6.18475 53.2587 5.80381 52.7987 5.52364 52.2778C5.24347 51.7568 5.0697 51.1853 5.01236 50.5966C4.98435 50.314 4.98435 50.0292 5.01236 49.7466V19.459C4.99703 18.7542 5.12919 18.0541 5.40036 17.4035C5.67153 16.7528 6.07571 16.1659 6.58698 15.6807C9.70365 12.6462 12.8146 9.58274 15.92 6.49016C16.3859 6.01634 16.9435 5.64248 17.5588 5.39148C18.1741 5.14047 18.8341 5.01755 19.4985 5.03026H42.0235C43.2074 4.94844 44.3755 5.33934 45.2717 6.11727C46.168 6.89521 46.7192 7.99671 46.8047 9.18039V22.6635C46.8123 23.3244 47.0762 23.9567 47.5408 24.4269C48.0054 24.897 48.6344 25.1684 49.2952 25.1838H49.3228C49.9871 25.1793 50.6225 24.9113 51.0894 24.4388C51.5564 23.9663 51.8167 23.3278 51.8133 22.6635V9.29518C51.7948 6.86339 50.8264 4.5351 49.1147 2.8076C47.4031 1.08009 45.084 0.0902425 42.6525 0.0492736C36.7832 -0.00810138 30.8013 -0.00810242 25.0468 0.0216476H19.0352C16.603 0.0344528 14.2755 1.01279 12.5646 2.74158C9.33033 5.92908 6.09399 9.11658 2.85974 12.3041C1.93517 13.2024 1.20424 14.2804 0.711975 15.4717C0.219707 16.6631 -0.0235203 17.9427 -0.00267072 19.2316V34.6059C-0.00267072 39.7059 -0.00266969 44.8272 0.0249553 49.9506C-0.00443731 50.7697 0.0821324 51.5889 0.282085 52.3838C0.767304 54.4434 1.93349 56.2789 3.59183 57.5933C5.25016 58.9076 7.30354 59.6238 9.41956 59.6258H9.67669C19.4673 59.6541 29.2579 59.6541 39.0485 59.6258H39.2482C39.4721 59.6333 39.6914 59.6913 39.8897 59.7954C40.088 59.8996 40.2603 60.0471 40.3936 60.2271C42.9667 63.9798 46.7934 66.6922 51.1865 67.8772C51.7556 68.0435 52.3591 68.0531 52.9332 67.9048C55.809 67.1747 58.4684 65.7674 60.6897 63.8004C62.9109 61.8335 64.6296 59.3638 65.7024 56.5976C67.4837 51.864 68.0549 46.7605 67.3641 41.7502ZM62.5828 45.4711C62.7396 49.2257 61.9419 52.9586 60.2644 56.3213C58.6211 59.3395 55.9023 61.6289 52.6485 62.7346C52.4689 62.7678 52.287 62.787 52.1044 62.792C51.8577 62.8031 51.612 62.7542 51.3883 62.6496C49.1695 61.8519 47.1705 60.5416 45.5538 58.8253C43.9372 57.109 42.7487 55.0351 42.0851 52.7726C41.0301 49.4359 40.6219 45.9286 40.8824 42.4388C40.9092 42.2513 40.977 42.072 41.0809 41.9137C41.1849 41.7555 41.3224 41.622 41.4837 41.5228C44.5182 39.8632 47.7248 38.1229 50.9888 36.3697C51.1697 36.2918 51.3646 36.2516 51.5615 36.2516C51.7585 36.2516 51.9533 36.2918 52.1342 36.3697C55.2537 38.0017 58.3753 39.6911 61.7243 41.5228C61.8803 41.6279 62.0139 41.7631 62.1171 41.9204C62.2204 42.0776 62.2912 42.2538 62.3257 42.4388C62.4681 43.4694 62.5254 44.5 62.5828 45.1863V45.4711Z" fill="url(#paint0_linear_13377_2435)"/>
<path d="M36.8465 26.3291C36.8449 26.8362 36.6875 27.3306 36.3956 27.7453C36.1036 28.16 35.6913 28.4749 35.2145 28.6475L35.0721 28.6751C34.781 28.745 34.4832 28.7835 34.1839 28.7899H17.5514C17.0072 28.8293 16.4653 28.688 16.0096 28.3879C15.5539 28.0878 15.21 27.6458 15.0312 27.1302C14.8371 26.6727 14.7991 26.164 14.9231 25.6826C15.0472 25.2013 15.3264 24.7743 15.7176 24.4676C16.2698 24.0889 16.9116 23.8618 17.5791 23.8089C18.8392 23.7813 20.0994 23.7812 21.3871 23.7812H34.3836C34.7129 23.7859 35.038 23.8557 35.3402 23.9864C35.6424 24.1172 35.9159 24.3063 36.1447 24.5431C36.3736 24.7799 36.5534 25.0596 36.6738 25.3661C36.7943 25.6725 36.8529 25.9998 36.8465 26.3291Z" fill="url(#paint1_linear_13377_2435)"/>
<path d="M28.4038 39.47C28.3905 40.1405 28.1124 40.7785 27.6302 41.2445C27.4043 41.4779 27.1324 41.6621 26.8318 41.7853C26.5312 41.9086 26.2083 41.9681 25.8835 41.9605C25.7985 41.9882 25.7411 41.9605 25.6264 41.9605H17.6109C16.9464 41.9605 16.3092 41.6967 15.8393 41.2268C15.3695 40.757 15.1055 40.1197 15.1055 39.4553C15.1055 38.7908 15.3695 38.1535 15.8393 37.6837C16.3092 37.2138 16.9464 36.9498 17.6109 36.9498H25.7411C26.0671 36.9191 26.3959 36.9567 26.7066 37.0602C27.0172 37.1638 27.3029 37.3311 27.5452 37.5513C27.7932 37.7659 27.9948 38.0289 28.1376 38.3241C28.2805 38.6194 28.3617 38.9406 28.3761 39.2682C28.3994 39.3328 28.4089 39.4016 28.4038 39.47Z" fill="url(#paint2_linear_13377_2435)"/>
</g>
<defs>
<linearGradient id="paint0_linear_13377_2435" x1="33.8223" y1="-1.52067" x2="33.8223" y2="68.2466" gradientUnits="userSpaceOnUse">
<stop stop-color="#00EFD1"/>
<stop offset="1" stop-color="#00ACEA"/>
</linearGradient>
<linearGradient id="paint1_linear_13377_2435" x1="25.8492" y1="23.669" x2="25.8492" y2="28.8138" gradientUnits="userSpaceOnUse">
<stop stop-color="#00EFD1"/>
<stop offset="1" stop-color="#00ACEA"/>
</linearGradient>
<linearGradient id="paint2_linear_13377_2435" x1="21.7553" y1="36.8268" x2="21.7553" y2="41.9904" gradientUnits="userSpaceOnUse">
<stop stop-color="#00EFD1"/>
<stop offset="1" stop-color="#00ACEA"/>
</linearGradient>
<clipPath id="clip0_13377_2435">
<rect width="67.6472" height="68" fill="white"/>
</clipPath>
</defs>
</svg>
