<svg width="66" height="68" viewBox="0 0 66 68" fill="none" xmlns="http://www.w3.org/2000/svg">
<g clip-path="url(#clip0_13377_2443)">
<mask id="mask0_13377_2443" style="mask-type:luminance" maskUnits="userSpaceOnUse" x="0" y="0" width="66" height="68">
<path d="M65.3027 0H0V68H65.3027V0Z" fill="white"/>
</mask>
<g mask="url(#mask0_13377_2443)">
<path d="M49.2048 36.55C49.1254 36.2647 48.9905 35.998 48.8076 35.7651C48.6248 35.5322 48.3977 35.3377 48.1395 35.1928C47.9295 35.0869 47.7003 35.0246 47.4656 35.0095C47.2309 34.9944 46.9956 35.0269 46.7738 35.105C46.5213 35.1845 46.288 35.3155 46.0886 35.4897C45.8892 35.664 45.7281 35.8776 45.6155 36.1172C45.5029 36.3569 45.4412 36.6172 45.4343 36.8819C45.4273 37.1466 45.4754 37.4098 45.5753 37.655C46.5133 40.5758 47.116 43.5938 47.3717 46.6508C47.7027 49.7057 47.4204 52.7958 46.5415 55.7402C45.9174 58.2335 44.4572 60.4375 42.4045 61.9844C40.3518 63.5312 37.8308 64.3275 35.262 64.2402H34.9787C31.0403 64.1693 27.0453 64.1835 23.1608 64.1977C20.6987 64.1977 18.1515 64.2147 15.6497 64.1977C13.4328 64.2628 11.2509 63.6351 9.40747 62.4021C7.56405 61.1691 6.15089 59.3921 5.36466 57.3183C3.84975 53.6065 3.38228 49.5503 4.01316 45.5912C4.55337 40.4447 6.13223 35.4614 8.65416 30.9428C10.7323 26.9787 13.7163 23.5607 17.3638 20.9667C17.7126 20.7127 18.1338 20.5776 18.5652 20.5813C23.26 20.5955 28.0228 20.5955 32.7177 20.5813C33.1477 20.5717 33.569 20.7041 33.9162 20.9582C35.453 22.0226 36.8695 23.251 38.1407 24.6217C38.2978 24.8428 38.4993 25.0287 38.7323 25.1676C38.9654 25.3065 39.2248 25.3953 39.494 25.4284C39.7633 25.4615 40.0365 25.438 40.2962 25.3596C40.5559 25.2812 40.7964 25.1495 41.0023 24.973C41.1928 24.813 41.3488 24.616 41.4608 24.3939C41.5728 24.1718 41.6386 23.9293 41.654 23.681C41.6531 23.375 41.5908 23.0724 41.4705 22.791C41.3503 22.5097 41.1747 22.2554 40.9542 22.0433C40.1339 21.1431 39.2515 20.3014 38.3135 19.5245C38.9467 19.0385 39.4439 18.3976 39.7572 17.6635C40.0705 16.9294 40.1893 16.127 40.1022 15.3336C40.0151 14.5402 39.7249 13.7827 39.2597 13.1341C38.7945 12.4855 38.17 11.9678 37.4465 11.6308C38.7527 10.608 40.2572 9.42367 41.6965 8.21383C42.4345 7.60056 42.9606 6.77041 43.2002 5.84122C43.4397 4.91202 43.3805 3.93098 43.031 3.03733C42.7307 2.17631 42.1777 1.42586 41.4443 0.883997C40.7109 0.342137 39.8311 0.0340585 38.9198 3.42123e-09C30.315 3.42123e-09 21.3758 3.42123e-09 12.3913 3.42123e-09C11.7297 -2.66201e-05 11.0774 0.155333 10.4868 0.453564C9.89628 0.751796 9.38402 1.18456 8.99133 1.717C8.58995 2.2056 8.29225 2.7708 8.11638 3.37817C7.9405 3.98554 7.89013 4.62236 7.96833 5.24983C8.04653 5.8773 8.25167 6.48228 8.57124 7.0279C8.89082 7.57352 9.31814 8.04837 9.82716 8.4235C11.1985 9.55683 12.6152 10.676 13.8392 11.6308C13.1146 11.9662 12.4889 12.4829 12.0226 13.131C11.5563 13.7791 11.2651 14.5366 11.1774 15.3301C11.0896 16.1237 11.2082 16.9265 11.5216 17.6608C11.8351 18.3951 12.3327 19.0361 12.9665 19.5217H12.9835L12.958 19.5415C9.69141 22.3774 6.99842 25.8129 5.02466 29.6622C2.27854 34.7894 0.610449 40.4243 0.122996 46.2202C-0.406533 50.5735 0.226967 54.9894 1.959 59.0183C2.77681 60.9879 4.0134 62.756 5.58296 64.1998C7.15252 65.6436 9.01745 66.7286 11.0483 67.3795C11.6495 67.5587 12.2607 67.7025 12.8787 67.8102C13.162 67.8668 13.4708 67.9235 13.7627 67.9887H13.8108H37.4918H37.54L37.6873 67.9547C37.7808 67.932 37.8687 67.9093 37.9508 67.898C39.9447 67.6301 41.8577 66.9373 43.5608 65.8665C47.0535 63.5402 49.5256 59.9675 50.4713 55.879C51.2769 52.7585 51.5159 49.5186 51.1768 46.3137C50.9027 42.9936 50.239 39.7168 49.2048 36.55ZM15.9953 14.9798C16.885 14.9798 17.7917 14.9798 18.6672 14.9798H26.7138C29.5472 14.9798 32.3899 14.9798 35.2422 14.9798C35.4503 14.9499 35.6624 14.9917 35.8436 15.0983C36.0249 15.2049 36.1645 15.3699 36.2395 15.5663C36.3085 15.7212 36.325 15.8944 36.2867 16.0595C36.2483 16.2247 36.1572 16.3729 36.027 16.4815C35.898 16.5935 35.7466 16.6767 35.583 16.7255C35.4193 16.7744 35.2471 16.7878 35.0778 16.7648H16.4317C16.2338 16.772 16.0357 16.7625 15.8395 16.7365C15.7204 16.7311 15.6035 16.7016 15.4961 16.6498C15.3887 16.598 15.2928 16.5251 15.2143 16.4353C15.1358 16.3455 15.0763 16.2407 15.0393 16.1273C15.0024 16.0139 14.9887 15.8942 14.9993 15.7754C15.0098 15.6566 15.0442 15.5412 15.1005 15.4361C15.1569 15.3309 15.2339 15.2383 15.3269 15.1637C15.42 15.0891 15.5272 15.0341 15.642 15.002C15.7569 14.9699 15.8771 14.9614 15.9953 14.977M39.478 4.87333C39.4587 4.98142 39.4182 5.08462 39.3589 5.17701C39.2996 5.26939 39.2226 5.34914 39.1323 5.41167L36.1007 7.837C34.7784 8.89478 33.4562 9.95444 32.134 11.016C31.9836 11.1231 31.7989 11.1705 31.6155 11.1492H31.4483C27.6007 11.1492 23.6227 11.1492 19.707 11.1492C19.4582 11.1529 19.2168 11.0641 19.0298 10.8998C17.8644 9.95539 16.698 9.02133 15.5307 8.09767L12.278 5.50233C11.6887 5.02917 11.7453 4.6325 11.8615 4.34067C11.9777 4.04883 12.2043 3.81083 12.8702 3.81083C16.0803 3.81083 19.3472 3.81083 22.5035 3.81083H29.4083C32.4305 3.81083 35.4528 3.81083 38.475 3.81083C38.6301 3.7978 38.7862 3.8181 38.9328 3.8704C39.0794 3.92269 39.2131 4.00575 39.325 4.114C39.4023 4.2206 39.4562 4.34237 39.4831 4.4713C39.5099 4.60023 39.5092 4.73339 39.4808 4.862" fill="url(#paint0_linear_13377_2443)"/>
<path d="M65.287 18.5958C65.2915 18.3619 65.2499 18.1294 65.1644 17.9116C65.079 17.6938 64.9514 17.495 64.789 17.3266C64.6267 17.1581 64.4327 17.0234 64.2181 16.93C64.0036 16.8367 63.7728 16.7865 63.5389 16.7825C60.731 16.7626 57.8212 16.7626 54.8887 16.7825C54.439 16.7987 54.0105 16.9773 53.6823 17.2851C53.3542 17.593 53.1486 18.0093 53.1037 18.457C53.0688 18.8977 53.1858 19.3371 53.4353 19.702C53.6847 20.067 54.0517 20.3355 54.4751 20.463C54.8558 20.5624 55.2493 20.6035 55.6424 20.5848H58.7817L57.9147 21.4518C56.3601 23.0007 54.8075 24.5515 53.2567 26.1041L53.2397 26.1183C53.1854 26.0968 53.1325 26.0722 53.081 26.0446L52.5144 25.7613C51.3811 25.1946 50.2278 24.6138 49.0775 24.0613C48.6786 23.7953 48.1938 23.6905 47.7206 23.7678C47.2474 23.845 46.8211 24.0988 46.5275 24.4778C44.6802 26.3195 42.8357 28.163 40.994 30.0085L39.8607 31.1418C39.7323 31.2636 39.6148 31.3963 39.5094 31.5385C39.2977 31.8102 39.1701 32.138 39.1424 32.4813C39.1147 32.8247 39.1881 33.1686 39.3535 33.4708C39.502 33.7764 39.7318 34.0351 40.0177 34.2186C40.3036 34.402 40.6346 34.5031 40.9742 34.5106H41.0677C41.3749 34.4953 41.6755 34.4164 41.9506 34.2789C42.2256 34.1413 42.4691 33.9482 42.6657 33.7116L44.2184 32.1618C45.4735 30.9123 46.7684 29.6118 48.032 28.3255C48.3607 27.9883 48.491 27.9628 48.8537 28.164C49.6782 28.623 50.5367 29.0423 51.3669 29.4475L52.316 29.915C52.5444 30.0825 52.8038 30.203 53.0791 30.2695C53.3544 30.336 53.6401 30.3472 53.9198 30.3024C54.1994 30.2575 54.4674 30.1577 54.7081 30.0085C54.9489 29.8593 55.1576 29.6638 55.3222 29.4333L57.977 26.7813L61.4847 23.2765C61.4847 23.6183 61.4847 23.9602 61.4847 24.3021C61.4847 25.1946 61.4847 26.1183 61.5017 27.0306C61.4994 27.5327 61.6955 28.0153 62.0473 28.3735C62.3991 28.7317 62.8782 28.9364 63.3802 28.9431H63.4057C63.6542 28.9446 63.9005 28.8969 64.1305 28.8027C64.3604 28.7084 64.5694 28.5696 64.7454 28.3941C64.9213 28.2187 65.0608 28.0101 65.1557 27.7804C65.2507 27.5508 65.2991 27.3046 65.2984 27.0561C65.3267 24.4551 65.3295 21.6898 65.2984 18.6015" fill="url(#paint1_linear_13377_2443)"/>
<path d="M35.1571 31.7422H17.6867C17.2655 31.7422 16.8616 31.9095 16.5638 32.2073C16.2659 32.5052 16.0986 32.9091 16.0986 33.3303C16.0986 33.7515 16.2659 34.1554 16.5638 34.4532C16.8616 34.751 17.2655 34.9184 17.6867 34.9184H22.4496C23.7135 34.9184 24.9257 35.4205 25.8194 36.3142C26.7131 37.2079 27.2152 38.4201 27.2152 39.684C27.2152 40.9479 26.7131 42.1601 25.8194 43.0539C24.9257 43.9476 23.7135 44.4497 22.4496 44.4497H17.6867C17.3731 44.4509 17.0669 44.5445 16.8062 44.7188C16.5455 44.8931 16.342 45.1403 16.2211 45.4297C16.1001 45.719 16.0671 46.0375 16.1262 46.3455C16.1854 46.6535 16.3339 46.9372 16.5534 47.1612L26.0847 56.6925C26.3873 56.9693 26.7849 57.1186 27.1949 57.1095C27.6048 57.1004 27.9954 56.9334 28.2854 56.6435C28.5753 56.3536 28.7422 55.963 28.7514 55.553C28.7605 55.1431 28.6111 54.7454 28.3344 54.4428L21.5344 47.623H22.4581C24.5621 47.7109 26.6149 46.9594 28.1649 45.5338C29.7148 44.1082 30.635 42.1252 30.7229 40.0212C30.8108 37.9171 30.0593 35.8643 28.6337 34.3144C27.208 32.7644 25.2251 31.8443 23.1211 31.7564C22.9001 31.7564 22.6791 31.7564 22.4581 31.7564H17.6952C17.274 31.7564 16.8701 31.9236 16.5723 32.2215C16.2745 32.5193 16.1071 32.9233 16.1071 33.3445C16.1071 33.7656 16.2745 34.1696 16.5723 34.4674C16.8701 34.7652 17.274 34.9325 17.6952 34.9325H35.1627C35.5839 34.9325 35.9878 34.7652 36.2857 34.4674C36.5835 34.1696 36.7508 33.7656 36.7508 33.3445C36.7508 32.9233 36.5835 32.5193 36.2857 32.2215C35.9878 31.9236 35.5839 31.7564 35.1627 31.7564" fill="url(#paint2_linear_13377_2443)"/>
<path d="M17.6857 41.2797H35.1532C35.5744 41.2797 35.9784 41.1124 36.2762 40.8145C36.574 40.5167 36.7413 40.1128 36.7413 39.6916C36.7413 39.2704 36.574 38.8665 36.2762 38.5687C35.9784 38.2708 35.5744 38.1035 35.1532 38.1035H17.6857C17.2646 38.1035 16.8606 38.2708 16.5628 38.5687C16.265 38.8665 16.0977 39.2704 16.0977 39.6916C16.0977 40.1128 16.265 40.5167 16.5628 40.8145C16.8606 41.1124 17.2646 41.2797 17.6857 41.2797Z" fill="url(#paint3_linear_13377_2443)"/>
</g>
</g>
<defs>
<linearGradient id="paint0_linear_13377_2443" x1="25.6337" y1="-1.5222" x2="25.6337" y2="68.2258" gradientUnits="userSpaceOnUse">
<stop stop-color="#00EFD1"/>
<stop offset="1" stop-color="#00ACEA"/>
</linearGradient>
<linearGradient id="paint1_linear_13377_2443" x1="52.2286" y1="16.3703" x2="52.2286" y2="34.5725" gradientUnits="userSpaceOnUse">
<stop stop-color="#00EFD1"/>
<stop offset="1" stop-color="#00ACEA"/>
</linearGradient>
<linearGradient id="paint2_linear_13377_2443" x1="26.4242" y1="31.1742" x2="26.4242" y2="57.1984" gradientUnits="userSpaceOnUse">
<stop stop-color="#00EFD1"/>
<stop offset="1" stop-color="#00ACEA"/>
</linearGradient>
<linearGradient id="paint3_linear_13377_2443" x1="26.4194" y1="38.0324" x2="26.4194" y2="41.2908" gradientUnits="userSpaceOnUse">
<stop stop-color="#00EFD1"/>
<stop offset="1" stop-color="#00ACEA"/>
</linearGradient>
<clipPath id="clip0_13377_2443">
<rect width="65.3027" height="68" fill="white"/>
</clipPath>
</defs>
</svg>
