<svg width="80" height="80" viewBox="0 0 80 80" fill="none" xmlns="http://www.w3.org/2000/svg">
<path d="M21.8744 51.2503C20.7141 51.2503 19.6013 50.7893 18.7809 49.9688C17.9604 49.1484 17.4995 48.0356 17.4995 46.8752V21.875C17.4995 20.7147 17.9604 19.6019 18.7809 18.7814C19.6013 17.9609 20.7141 17.5 21.8744 17.5C23.0347 17.5 24.1475 17.9609 24.9679 18.7814C25.7884 19.6019 26.2493 20.7147 26.2493 21.875V46.8752C26.2493 48.0356 25.7884 49.1484 24.9679 49.9688C24.1475 50.7893 23.0347 51.2503 21.8744 51.2503ZM21.8744 20C21.3771 20 20.9002 20.1976 20.5486 20.5492C20.197 20.9008 19.9994 21.3777 19.9994 21.875V46.8752C19.9994 47.3725 20.197 47.8494 20.5486 48.2011C20.9002 48.5527 21.3771 48.7502 21.8744 48.7502C22.3717 48.7502 22.8486 48.5527 23.2002 48.2011C23.5518 47.8494 23.7493 47.3725 23.7493 46.8752V21.875C23.7493 21.3777 23.5518 20.9008 23.2002 20.5492C22.8486 20.1976 22.3717 20 21.8744 20Z" fill="url(#paint0_linear_6501_2208)"/>
<path d="M40.6237 51.2498C38.6631 51.2519 36.7401 50.7107 35.0683 49.6865C33.3964 48.6622 32.0409 47.1948 31.1522 45.447C30.2634 43.6993 29.8762 41.7395 30.0334 39.7851C30.1906 37.8306 30.8861 35.9579 32.0427 34.3747C30.8861 32.7904 30.1906 30.9169 30.0333 28.9616C29.8759 27.0063 30.263 25.0456 31.1514 23.2968C32.0399 21.548 33.3952 20.0792 35.0671 19.0533C36.739 18.0274 38.6622 17.4844 40.6237 17.4844C42.5853 17.4844 44.5085 18.0274 46.1804 19.0533C47.8523 20.0792 49.2076 21.548 50.096 23.2968C50.9845 25.0456 51.3715 27.0063 51.2142 28.9616C51.0569 30.9169 50.3614 32.7904 49.2048 34.3747C50.3614 35.9579 51.0569 37.8306 51.2141 39.7851C51.3713 41.7395 50.984 43.6993 50.0953 45.447C49.2066 47.1948 47.8511 48.6622 46.1792 49.6865C44.5073 50.7107 42.5844 51.2519 40.6237 51.2498ZM40.6237 19.9996C39.0544 19.9974 37.5182 20.4504 36.2011 21.3037C34.884 22.1569 33.8426 23.3739 33.2031 24.807C32.5636 26.2402 32.3534 27.8281 32.5981 29.3782C32.8427 30.9284 33.5316 32.3744 34.5814 33.541C34.7866 33.7702 34.9001 34.067 34.9001 34.3747C34.9001 34.6824 34.7866 34.9792 34.5814 35.2085C33.5317 36.3762 32.8429 37.8231 32.5982 39.3741C32.3535 40.9252 32.5635 42.5139 33.2027 43.948C33.842 45.3822 34.883 46.6005 36.2001 47.4554C37.5171 48.3103 39.0536 48.7653 40.6237 48.7653C42.1939 48.7653 43.7304 48.3103 45.0474 47.4554C46.3644 46.6005 47.4055 45.3822 48.0447 43.948C48.684 42.5139 48.8939 40.9252 48.6493 39.3741C48.4046 37.8231 47.7158 36.3762 46.6661 35.2085C46.4609 34.9792 46.3474 34.6824 46.3474 34.3747C46.3474 34.067 46.4609 33.7702 46.6661 33.541C47.7158 32.3744 48.4048 30.9284 48.6494 29.3782C48.894 27.8281 48.6839 26.2402 48.0444 24.807C47.4049 23.3739 46.3635 22.1569 45.0464 21.3037C43.7293 20.4504 42.1931 19.9974 40.6237 19.9996Z" fill="url(#paint1_linear_6501_2208)"/>
<path d="M39.9991 68.7502C37.4967 68.7552 35.0406 68.0748 32.8975 66.7829C30.7543 65.4909 29.0059 63.6367 27.8419 61.4214C25.7515 62.3029 23.4754 62.6534 21.2167 62.4417C18.9579 62.2301 16.7866 61.4627 14.8964 60.2082C13.0061 58.9536 11.4557 57.2508 10.3832 55.2516C9.31077 53.2523 8.74967 51.0188 8.74993 48.75C8.74993 48.4488 8.76243 48.1438 8.78743 47.8213C6.16861 46.8092 3.92269 45.0191 2.35196 42.692C0.78123 40.3648 -0.0389055 37.6123 0.00194329 34.805C0.0427921 31.9976 0.942664 29.2701 2.58044 26.9897C4.21821 24.7092 6.51526 22.9853 9.16242 22.0498C8.89003 20.9709 8.75149 19.8626 8.74993 18.7498C8.74628 16.4266 9.33221 14.1405 10.4528 12.1055C11.5735 10.0705 13.1922 8.35322 15.1574 7.11435C17.1226 5.87548 19.3701 5.15559 21.6893 5.02207C24.0086 4.88856 26.3238 5.34579 28.4181 6.35095C29.6592 4.40435 31.371 2.80199 33.3951 1.69195C35.4193 0.581908 37.6906 0 39.9991 0C42.3076 0 44.5789 0.581908 46.6031 1.69195C48.6272 2.80199 50.3389 4.40435 51.58 6.35095C53.9292 5.22183 56.5513 4.78507 59.1396 5.09177C61.728 5.39847 64.1754 6.43595 66.1957 8.08282C68.216 9.72969 69.7255 11.9178 70.5476 14.3913C71.3698 16.8647 71.4706 19.5212 70.8382 22.0498C73.4854 22.9853 75.7825 24.7092 77.4202 26.9897C79.058 29.2701 79.9579 31.9976 79.9987 34.805C80.0396 37.6123 79.2194 40.3648 77.6487 42.692C76.078 45.0191 73.8321 46.8092 71.2132 47.8213C71.2382 48.1438 71.2507 48.4463 71.2507 48.75C71.2512 51.0191 70.6901 53.253 69.6175 55.2525C68.5449 57.2521 66.9942 58.9551 65.1036 60.2097C63.213 61.4643 61.0413 62.2315 58.7822 62.443C56.5231 62.6544 54.2468 62.3034 52.1563 61.4214C50.9922 63.6367 49.2438 65.4909 47.1007 66.7829C44.9575 68.0748 42.5015 68.7552 39.9991 68.7502ZM28.4394 58.5001C28.5821 58.4999 28.7238 58.5244 28.8581 58.5726C29.0234 58.6312 29.1744 58.724 29.3015 58.8448C29.4285 58.9656 29.5287 59.1118 29.5956 59.2739C30.444 61.3357 31.8858 63.099 33.7381 64.3399C35.5904 65.5807 37.7696 66.2432 39.9991 66.2432C42.2286 66.2432 44.4078 65.5807 46.2601 64.3399C48.1124 63.099 49.5542 61.3357 50.4025 59.2739C50.4691 59.1118 50.569 58.9655 50.6958 58.8445C50.8226 58.7236 50.9733 58.6306 51.1383 58.5716C51.3034 58.5127 51.4789 58.4891 51.6536 58.5024C51.8283 58.5157 51.9983 58.5656 52.1525 58.6488C53.9842 59.6575 56.0617 60.1331 58.1497 60.0219C60.2378 59.9107 62.253 59.217 63.9671 58.0195C65.6813 56.822 67.026 55.1685 67.8489 53.2462C68.6718 51.3238 68.9401 49.2095 68.6233 47.1425C68.5806 46.8465 68.6454 46.5451 68.8059 46.2928C68.9664 46.0405 69.2121 45.8541 69.4983 45.7675C71.8559 45.0587 73.9156 43.5953 75.3609 41.6024C76.8063 39.6094 77.5574 37.1969 77.4987 34.7357C77.4401 32.2744 76.575 29.9005 75.0364 27.9786C73.4978 26.0567 71.3708 24.6931 68.982 24.0973C68.8137 24.055 68.6559 23.978 68.5189 23.8713C68.382 23.7646 68.2687 23.6306 68.1864 23.4777C68.104 23.3248 68.0545 23.1565 68.0408 22.9834C68.0272 22.8103 68.0497 22.6362 68.1071 22.4723C68.8776 20.2933 68.957 17.9296 68.3344 15.7038C67.7118 13.478 66.4175 11.4986 64.6283 10.0356C62.8391 8.57266 60.642 7.69749 58.3369 7.52955C56.0319 7.36161 53.7312 7.90907 51.7488 9.09722C51.6017 9.18338 51.4388 9.23887 51.2697 9.26036C51.1006 9.28184 50.929 9.26887 50.765 9.22222C50.6013 9.17579 50.4488 9.0964 50.3168 8.98892C50.1848 8.88145 50.0762 8.74816 49.9976 8.59722C49.0531 6.76041 47.6208 5.21943 45.8578 4.14351C44.0948 3.0676 42.0694 2.49839 40.0041 2.49839C37.9388 2.49839 35.9134 3.0676 34.1504 4.14351C32.3874 5.21943 30.955 6.76041 30.0106 8.59722C29.9323 8.74866 29.8239 8.88248 29.692 8.99047C29.5601 9.09845 29.4075 9.17831 29.2436 9.22515C29.0797 9.27198 28.9079 9.28479 28.7389 9.26279C28.5699 9.24079 28.4071 9.18445 28.2607 9.09722C26.2784 7.90705 23.977 7.35797 21.671 7.52504C19.365 7.6921 17.1668 8.56714 15.3768 10.0306C13.5867 11.4941 12.2923 13.4745 11.6702 15.7014C11.0481 17.9283 11.1287 20.293 11.9011 22.4723C11.9584 22.6362 11.981 22.8103 11.9673 22.9834C11.9537 23.1565 11.9041 23.3248 11.8218 23.4777C11.7395 23.6306 11.6262 23.7646 11.4892 23.8713C11.3522 23.978 11.1945 24.055 11.0261 24.0973C8.63653 24.6915 6.50817 26.054 4.96813 27.9754C3.42809 29.8968 2.56161 32.2707 2.50183 34.7324C2.44205 37.1941 3.1923 39.6074 4.63726 41.6012C6.08222 43.5951 8.14195 45.0593 10.4999 45.7688C10.7861 45.8554 11.0317 46.0418 11.1923 46.294C11.3528 46.5463 11.4176 46.8478 11.3749 47.1438C11.075 49.2063 11.3544 51.3117 12.182 53.2246C13.0095 55.1376 14.3526 56.7828 16.0611 57.9764C17.7697 59.1701 19.7764 59.8652 21.8572 59.9842C23.9381 60.1032 26.011 59.6413 27.8444 58.6501C28.0272 58.5514 28.2317 58.4999 28.4394 58.5001Z" fill="url(#paint2_linear_6501_2208)"/>
<path d="M4.99987 80.0001C4.01099 80.0001 3.04431 79.7068 2.22209 79.1574C1.39987 78.608 0.759022 77.8271 0.380594 76.9135C0.00216635 75.9998 -0.0968476 74.9945 0.0960732 74.0246C0.288994 73.0547 0.765185 72.1637 1.46443 71.4645C2.16367 70.7652 3.05456 70.289 4.02444 70.0961C4.99432 69.9031 5.99963 70.0022 6.91323 70.3806C7.82684 70.759 8.60771 71.3999 9.1571 72.2222C9.7065 73.0444 9.99973 74.0111 9.99973 75C9.99973 76.3261 9.47296 77.5979 8.53531 78.5356C7.59765 79.4733 6.32591 80.0001 4.99987 80.0001ZM4.99987 72.5C4.50543 72.5 4.02209 72.6466 3.61098 72.9213C3.19987 73.1961 2.87945 73.5865 2.69023 74.0433C2.50102 74.5001 2.45151 75.0028 2.54797 75.4878C2.64443 75.9727 2.88253 76.4182 3.23215 76.7678C3.58177 77.1175 4.02722 77.3556 4.51216 77.452C4.99709 77.5485 5.49975 77.499 5.95655 77.3098C6.41335 77.1205 6.80379 76.8001 7.07849 76.389C7.35318 75.9779 7.4998 75.4945 7.4998 75C7.4998 74.337 7.23641 73.7011 6.76759 73.2323C6.29876 72.7634 5.66289 72.5 4.99987 72.5Z" fill="url(#paint3_linear_6501_2208)"/>
<path d="M17.4994 75.0001C16.5105 75.0001 15.5438 74.7068 14.7216 74.1574C13.8994 73.608 13.2585 72.8271 12.8801 71.9135C12.5017 70.9998 12.4027 69.9945 12.5956 69.0246C12.7885 68.0547 13.2647 67.1637 13.9639 66.4645C14.6632 65.7652 15.5541 65.289 16.524 65.0961C17.4938 64.9031 18.4991 65.0022 19.4127 65.3806C20.3264 65.759 21.1072 66.3999 21.6566 67.2222C22.206 68.0444 22.4992 69.0111 22.4992 70C22.4992 71.3261 21.9725 72.5979 21.0348 73.5356C20.0972 74.4733 18.8254 75.0001 17.4994 75.0001ZM17.4994 67.5C17.0049 67.5 16.5216 67.6466 16.1105 67.9213C15.6994 68.1961 15.379 68.5865 15.1897 69.0433C15.0005 69.5001 14.951 70.0028 15.0475 70.4878C15.1439 70.9727 15.382 71.4182 15.7317 71.7678C16.0813 72.1175 16.5267 72.3556 17.0117 72.452C17.4966 72.5485 17.9993 72.499 18.4561 72.3098C18.9129 72.1205 19.3033 71.8001 19.578 71.389C19.8527 70.9779 19.9993 70.4945 19.9993 70C19.9993 69.337 19.7359 68.7011 19.2671 68.2323C18.7983 67.7634 18.1624 67.5 17.4994 67.5Z" fill="url(#paint4_linear_6501_2208)"/>
<path d="M40.6239 32.5001C39.7586 32.5001 38.9128 32.2435 38.1934 31.7627C37.4739 31.282 36.9132 30.5987 36.582 29.7993C36.2509 28.9999 36.1643 28.1202 36.3331 27.2715C36.5019 26.4228 36.9186 25.6433 37.5304 25.0314C38.1422 24.4196 38.9218 24.0029 39.7704 23.8341C40.6191 23.6653 41.4987 23.7519 42.2981 24.083C43.0975 24.4142 43.7808 24.9749 44.2615 25.6944C44.7422 26.4139 44.9988 27.2597 44.9988 28.125C44.9988 29.2854 44.5379 30.3982 43.7174 31.2187C42.897 32.0391 41.7842 32.5001 40.6239 32.5001ZM40.6239 26.25C40.2531 26.25 39.8906 26.36 39.5822 26.566C39.2739 26.772 39.0336 27.0649 38.8917 27.4075C38.7498 27.7501 38.7126 28.1271 38.785 28.4908C38.8573 28.8545 39.0359 29.1886 39.2981 29.4509C39.5603 29.7131 39.8944 29.8917 40.2581 29.964C40.6218 30.0364 40.9988 29.9992 41.3414 29.8573C41.684 29.7154 41.9768 29.4751 42.1829 29.1667C42.3889 28.8584 42.4989 28.4959 42.4989 28.125C42.4989 27.6278 42.3013 27.1508 41.9497 26.7992C41.5981 26.4476 41.1212 26.25 40.6239 26.25Z" fill="url(#paint5_linear_6501_2208)"/>
<path d="M40.6239 45.0001C39.7586 45.0001 38.9128 44.7435 38.1934 44.2627C37.4739 43.782 36.9132 43.0987 36.582 42.2993C36.2509 41.4999 36.1643 40.6202 36.3331 39.7715C36.5019 38.9228 36.9186 38.1433 37.5304 37.5314C38.1422 36.9196 38.9218 36.5029 39.7704 36.3341C40.6191 36.1653 41.4987 36.2519 42.2981 36.583C43.0975 36.9142 43.7808 37.4749 44.2615 38.1944C44.7422 38.9139 44.9988 39.7597 44.9988 40.625C44.9988 41.7854 44.5379 42.8982 43.7174 43.7186C42.897 44.5391 41.7842 45.0001 40.6239 45.0001ZM40.6239 38.75C40.2531 38.75 39.8906 38.86 39.5822 39.066C39.2739 39.272 39.0336 39.5649 38.8917 39.9075C38.7498 40.2501 38.7126 40.6271 38.785 40.9908C38.8573 41.3546 39.0359 41.6886 39.2981 41.9509C39.5603 42.2131 39.8944 42.3917 40.2581 42.464C40.6218 42.5364 40.9988 42.4992 41.3414 42.3573C41.684 42.2154 41.9768 41.9751 42.1829 41.6667C42.3889 41.3584 42.4989 40.9959 42.4989 40.625C42.4989 40.1278 42.3013 39.6508 41.9497 39.2992C41.5981 38.9476 41.1212 38.75 40.6239 38.75Z" fill="url(#paint6_linear_6501_2208)"/>
<path d="M61.2483 43.7501C60.1212 43.7501 59.0402 43.3024 58.2432 42.5053C57.4462 41.7083 56.9984 40.6273 56.9984 39.5001V39.2501H56.7484C55.6213 39.2501 54.5403 38.8023 53.7433 38.0053C52.9463 37.2083 52.4985 36.1272 52.4985 35.0001C52.4985 33.8729 52.9463 32.7919 53.7433 31.9948C54.5403 31.1978 55.6213 30.75 56.7484 30.75H56.9984V30.5C56.9984 29.3729 57.4462 28.2918 58.2432 27.4948C59.0402 26.6978 60.1212 26.25 61.2483 26.25C62.3754 26.25 63.4564 26.6978 64.2534 27.4948C65.0504 28.2918 65.4982 29.3729 65.4982 30.5V30.75H65.7482C66.8753 30.75 67.9563 31.1978 68.7533 31.9948C69.5503 32.7919 69.9981 33.8729 69.9981 35.0001C69.9981 36.1272 69.5503 37.2083 68.7533 38.0053C67.9563 38.8023 66.8753 39.2501 65.7482 39.2501H65.4982V39.5001C65.4982 40.6273 65.0504 41.7083 64.2534 42.5053C63.4564 43.3024 62.3754 43.7501 61.2483 43.7501ZM56.7484 33.2501C56.2843 33.2501 55.8392 33.4344 55.511 33.7626C55.1828 34.0908 54.9985 34.5359 54.9985 35.0001C54.9985 35.4642 55.1828 35.9093 55.511 36.2375C55.8392 36.5657 56.2843 36.7501 56.7484 36.7501H58.2484C58.5799 36.7501 58.8978 36.8818 59.1322 37.1162C59.3667 37.3506 59.4983 37.6686 59.4983 38.0001V39.5001C59.4983 39.9642 59.6827 40.4094 60.0109 40.7375C60.3391 41.0657 60.7842 41.2501 61.2483 41.2501C61.7124 41.2501 62.1575 41.0657 62.4857 40.7375C62.8139 40.4094 62.9983 39.9642 62.9983 39.5001V38.0001C62.9983 37.6686 63.1299 37.3506 63.3644 37.1162C63.5988 36.8818 63.9167 36.7501 64.2482 36.7501H65.7482C66.2123 36.7501 66.6574 36.5657 66.9856 36.2375C67.3138 35.9093 67.4981 35.4642 67.4981 35.0001C67.4981 34.5359 67.3138 34.0908 66.9856 33.7626C66.6574 33.4344 66.2123 33.2501 65.7482 33.2501H64.2482C63.9167 33.2501 63.5988 33.1184 63.3644 32.8839C63.1299 32.6495 62.9983 32.3316 62.9983 32V30.5C62.9983 30.0359 62.8139 29.5908 62.4857 29.2626C62.1575 28.9344 61.7124 28.75 61.2483 28.75C60.7842 28.75 60.3391 28.9344 60.0109 29.2626C59.6827 29.5908 59.4983 30.0359 59.4983 30.5V32C59.4983 32.3316 59.3667 32.6495 59.1322 32.8839C58.8978 33.1184 58.5799 33.2501 58.2484 33.2501H56.7484Z" fill="url(#paint7_linear_6501_2208)"/>
<defs>
<linearGradient id="paint0_linear_6501_2208" x1="21.8744" y1="-0.69639" x2="21.8744" y2="86.3618" gradientUnits="userSpaceOnUse">
<stop stop-color="#38D6A4"/>
<stop offset="0.197" stop-color="#36CCB0"/>
<stop offset="0.552" stop-color="#30B3CF"/>
<stop offset="0.999" stop-color="#288CFF"/>
</linearGradient>
<linearGradient id="paint1_linear_6501_2208" x1="40.6237" y1="-0.696809" x2="40.6237" y2="86.3614" gradientUnits="userSpaceOnUse">
<stop stop-color="#38D6A4"/>
<stop offset="0.197" stop-color="#36CCB0"/>
<stop offset="0.552" stop-color="#30B3CF"/>
<stop offset="0.999" stop-color="#288CFF"/>
</linearGradient>
<linearGradient id="paint2_linear_6501_2208" x1="39.9991" y1="-0.696601" x2="39.9991" y2="86.3616" gradientUnits="userSpaceOnUse">
<stop stop-color="#38D6A4"/>
<stop offset="0.197" stop-color="#36CCB0"/>
<stop offset="0.552" stop-color="#30B3CF"/>
<stop offset="0.999" stop-color="#288CFF"/>
</linearGradient>
<linearGradient id="paint3_linear_6501_2208" x1="4.99984" y1="69.7761" x2="4.99984" y2="80.035" gradientUnits="userSpaceOnUse">
<stop stop-color="#00EFD1"/>
<stop offset="1" stop-color="#00ACEA"/>
</linearGradient>
<linearGradient id="paint4_linear_6501_2208" x1="17.4994" y1="64.7761" x2="17.4994" y2="75.035" gradientUnits="userSpaceOnUse">
<stop stop-color="#00EFD1"/>
<stop offset="1" stop-color="#00ACEA"/>
</linearGradient>
<linearGradient id="paint5_linear_6501_2208" x1="40.6239" y1="23.5541" x2="40.6239" y2="32.5306" gradientUnits="userSpaceOnUse">
<stop stop-color="#00EFD1"/>
<stop offset="1" stop-color="#00ACEA"/>
</linearGradient>
<linearGradient id="paint6_linear_6501_2208" x1="40.6239" y1="36.0541" x2="40.6239" y2="45.0306" gradientUnits="userSpaceOnUse">
<stop stop-color="#00EFD1"/>
<stop offset="1" stop-color="#00ACEA"/>
</linearGradient>
<linearGradient id="paint7_linear_6501_2208" x1="61.2483" y1="25.8582" x2="61.2483" y2="43.8112" gradientUnits="userSpaceOnUse">
<stop stop-color="#00EFD1"/>
<stop offset="1" stop-color="#00ACEA"/>
</linearGradient>
</defs>
</svg>
