<svg width="85" height="101" viewBox="0 0 85 101" fill="none" xmlns="http://www.w3.org/2000/svg">
<g clip-path="url(#clip0_6365_2096)">
<path d="M76.1782 32.5227L77.6187 31.1217C77.7008 31.1824 77.7862 31.2432 77.8765 31.3023C79.4385 32.3206 81.5244 32.0447 82.7299 30.6618C83.9995 29.2033 83.9864 27.0977 82.6987 25.7657C80.4929 23.4843 78.0621 21.0502 75.2634 18.3238C74.2714 17.358 72.9525 17.1035 71.5482 17.606C70.1948 18.0922 69.3605 19.1253 69.1388 20.5953C68.9877 21.589 69.2389 22.5038 69.9255 23.4449C69.9107 23.4613 69.8943 23.4761 69.8795 23.4925C69.6561 23.7225 69.4443 23.9376 69.2406 24.1758C69.0238 24.4304 68.8218 24.6981 68.6263 24.9559C68.6247 24.9592 68.623 24.9609 68.6198 24.9642C62.6938 20.3949 56.2374 17.611 48.9007 16.4596V12.6886C49.0567 12.6886 49.2094 12.6886 49.3622 12.6902C50.0126 12.6935 50.6285 12.6968 51.2543 12.682C52.4188 12.6541 53.0675 12.0037 53.079 10.8491L53.0856 10.3071C53.1036 8.81079 53.1201 7.26362 53.0675 5.74108C52.9575 2.61224 50.4363 0.109165 47.3272 0.0434679C44.333 -0.0189447 41.2124 -0.0173022 37.7863 0.0500377C34.6903 0.110808 32.2677 2.36587 32.0263 5.41259C31.8998 7.00576 31.931 8.62684 31.9622 10.1954C31.9671 10.4746 31.9737 10.7538 31.9786 11.0314C31.9951 12.0185 32.6635 12.6475 33.7213 12.6754C34.3684 12.6919 35.0007 12.6886 35.6708 12.6837C35.8252 12.6837 35.9796 12.682 36.1356 12.682V16.458C28.9155 17.5699 22.3178 20.3867 16.5167 24.8361L15.101 23.3891C15.1781 23.2839 15.2504 23.1805 15.3194 23.0737C16.3443 21.4888 16.0667 19.4981 14.6476 18.2318C13.2647 16.9983 11.095 17.0016 9.81066 18.24C6.71795 21.2178 4.4054 23.5303 2.30965 25.7394C1.48679 26.6066 1.16652 27.8302 1.4523 29.0161C1.74958 30.2528 2.6365 31.2416 3.82234 31.6587C5.07716 32.1005 6.30078 31.9051 7.38643 31.0954L8.84163 32.4898C2.01894 41.5331 -0.878316 51.726 0.230329 62.7944C1.35376 74.0106 6.34348 83.4792 15.0632 90.9376C22.5576 97.3496 32.1839 100.922 42.165 101.001C42.2751 101.001 42.3851 101.001 42.4952 101.001C52.4516 101.001 62.0993 97.5007 69.6972 91.1231C77.7714 84.3465 82.7069 75.7664 84.3674 65.621C86.3367 53.5918 83.5807 42.4578 76.1766 32.5227H76.1782ZM49.6348 8.43139C49.6348 8.68269 49.6332 8.93726 49.6315 9.19513H35.4918C35.4885 8.88306 35.4803 8.57428 35.4737 8.27208C35.4507 7.26855 35.4277 6.32086 35.5247 5.3781C35.6331 4.31545 36.6349 3.50572 37.8586 3.49423C41.5031 3.45809 44.4694 3.45809 47.1925 3.49423C48.5787 3.51229 49.602 4.5651 49.6283 5.99402C49.643 6.79388 49.6398 7.58882 49.6348 8.42975V8.43139ZM12.1922 21.4329C10.2459 23.3907 8.2602 25.3748 6.34019 27.2948L5.47299 28.162C5.11001 28.525 5.04103 28.4576 4.9162 28.3377C4.85215 28.2753 4.81273 28.2178 4.81273 28.1833C4.81273 28.1423 4.84722 28.0388 5.08044 27.8056C5.63887 27.2471 6.1973 26.6887 6.75573 26.1286C8.42773 24.455 10.1556 22.7239 11.8736 21.0404C11.9442 20.9714 12.1479 20.9041 12.3893 20.8942C12.4189 20.9336 12.455 20.9862 12.4813 21.0272C12.4829 21.0305 12.4845 21.0322 12.4878 21.0355C12.4829 21.0437 12.478 21.0502 12.4731 21.0584C12.3729 21.2095 12.2875 21.3393 12.1922 21.4346V21.4329ZM11.0244 29.6123L10.1277 28.548L12.6981 25.9381L13.6934 27.0024L11.0244 29.6123ZM81.5194 58.5717C81.5014 80.0646 63.9996 97.5451 42.5001 97.5451H42.4837C32.0361 97.5402 22.2275 93.4735 14.8677 86.0924C7.50632 78.7096 3.45443 68.878 3.45607 58.4075C3.45772 47.9714 7.5326 38.1759 14.9252 30.8227C22.3112 23.4778 32.1429 19.4341 42.6134 19.4341H42.6495C64.0998 19.4538 81.5359 37.0114 81.5178 58.5733L81.5194 58.5717ZM72.6618 20.9205C72.7012 20.8958 72.7488 20.8663 72.785 20.8449C72.7948 20.84 72.803 20.8334 72.8129 20.8285L72.831 20.84C72.9623 20.9238 73.0773 20.996 73.1545 21.0716C74.6261 22.535 76.0945 24.0017 77.5628 25.4684C78.3528 26.2584 79.1445 27.0484 79.9361 27.8384C80.1677 28.07 80.2022 28.1817 80.2022 28.2277C80.2022 28.2786 80.1414 28.3443 80.1069 28.3804C79.9986 28.4855 79.9148 28.5693 79.5534 28.208C78.9753 27.6298 78.3972 27.0517 77.819 26.4752C76.1667 24.8246 74.457 23.1181 72.7948 21.4231C72.7324 21.359 72.6716 21.1636 72.6618 20.9205ZM75.0154 28.6892L73.9839 29.6632L71.3774 27.0895L72.353 26.0137L75.0154 28.6892ZM45.3448 12.7477V16.0424H39.68V12.7477H45.3448Z" fill="url(#paint0_linear_6365_2096)"/>
<path d="M42.6517 25.7715H42.6073C33.8302 25.7715 25.5835 29.1549 19.3817 35.2993C13.1683 41.4551 9.74547 49.6542 9.74219 58.3837C9.73891 67.174 13.1305 75.4207 19.293 81.6045C25.4554 87.7882 33.6791 91.1963 42.4497 91.2029H42.4743C51.2646 91.2029 59.5294 87.7669 65.746 81.5273C71.9183 75.3337 75.2968 67.1445 75.259 58.4675C75.2212 49.733 71.8132 41.5257 65.6622 35.3567C59.5097 29.1878 51.3385 25.7846 42.6533 25.7731L42.6517 25.7715ZM69.7979 56.7725C67.8844 56.7774 67.597 57.8581 67.597 58.502C67.597 59.0111 67.8138 60.1937 69.8274 60.2068L70.4138 60.2101C70.849 60.2117 71.2859 60.215 71.7212 60.2183C71.3007 66.949 68.8798 72.7747 64.3286 78.001C64.2448 77.9057 64.161 77.8121 64.0789 77.7201C63.6716 77.2586 63.2856 76.8217 62.8684 76.4012C62.0226 75.5472 61.0289 75.4782 60.2767 76.2173C59.9367 76.5507 59.756 76.9547 59.7544 77.3867C59.7527 77.8811 59.9843 78.3754 60.4261 78.8173C60.8433 79.2344 61.2736 79.627 61.7286 80.0442C61.8239 80.1312 61.9208 80.2199 62.0193 80.3102C56.8637 84.8253 51.038 87.2528 44.2366 87.7225C44.2366 87.5747 44.2366 87.4286 44.2366 87.284C44.2383 86.6517 44.2399 86.0555 44.2317 85.456C44.2153 84.3046 43.5665 83.5853 42.5384 83.5787H42.5269C41.5003 83.5787 40.8187 84.2997 40.7892 85.4166C40.7727 86.021 40.776 86.6221 40.781 87.2594C40.781 87.4105 40.7826 87.5632 40.7842 87.7193C33.9961 87.2676 28.1785 84.8598 23.0295 80.371C23.1461 80.2593 23.2594 80.1509 23.3711 80.0442C23.8359 79.5991 24.2745 79.1786 24.6966 78.7434C25.4751 77.9418 25.5047 76.9202 24.7705 76.2025C24.0708 75.5192 23.0541 75.5537 22.297 76.2863C21.8453 76.7232 21.4199 77.1798 20.9682 77.661C20.8648 77.771 20.7613 77.8827 20.6545 77.996C16.1575 72.8799 13.7317 67.0492 13.2455 60.2019C13.4048 60.2019 13.5641 60.2019 13.7202 60.2035C14.4133 60.2068 15.0653 60.2101 15.7289 60.1953C16.5994 60.174 17.2284 59.6599 17.4107 58.8206C17.5848 58.0174 17.2218 57.2981 16.463 56.9433C16.1313 56.7873 15.7584 56.7823 15.4316 56.7774H15.333C14.7533 56.7643 14.1784 56.7659 13.5707 56.7675C13.4656 56.7675 13.3588 56.7675 13.2521 56.7675C13.7169 49.9547 16.1526 44.1109 20.6857 38.934C20.7859 39.0457 20.8845 39.1541 20.983 39.2641C21.4232 39.7535 21.8404 40.2167 22.2838 40.6635C23.0262 41.4108 24.0412 41.4617 24.7508 40.7883C25.1121 40.445 25.3076 40.0328 25.3158 39.5926C25.324 39.1212 25.1154 38.6564 24.7114 38.2458C24.2695 37.7974 23.8064 37.3802 23.3169 36.9384C23.2085 36.8399 23.0985 36.7413 22.9868 36.6411C28.1555 32.1261 33.9862 29.7018 40.7859 29.2452C40.7859 29.3865 40.7859 29.5277 40.7859 29.6657C40.7826 30.2767 40.781 30.8548 40.7908 31.4346C40.804 32.1014 40.9928 32.6139 41.3558 32.9555C41.6695 33.2528 42.1015 33.4006 42.609 33.3809C44.0773 33.3251 44.2383 31.9585 44.2399 31.3738C44.2399 30.8121 44.2399 30.2504 44.2399 29.6509V29.2452C51.0281 29.71 56.8489 32.1326 62.0078 36.6428C61.9093 36.7364 61.8107 36.8284 61.7138 36.9187C61.2572 37.3474 60.8253 37.7531 60.3999 38.1784C59.623 38.9553 59.554 39.9983 60.234 40.7144C60.5608 41.0593 60.9665 41.2449 61.4083 41.2498C61.4149 41.2498 61.4215 41.2498 61.428 41.2498C61.924 41.2498 62.4118 41.0232 62.8372 40.5945C63.2544 40.1757 63.647 39.7404 64.0625 39.2805C64.1528 39.182 64.2432 39.0801 64.3351 38.9783C68.8469 44.1356 71.2695 49.9629 71.7294 56.7675H71.3779C70.8343 56.7675 70.3169 56.7675 69.8012 56.7675L69.7979 56.7725Z" fill="url(#paint1_linear_6365_2096)"/>
<path d="M31.4414 49.1119H39.2578C41.5637 49.1119 43.3228 49.5045 44.5333 50.2863C45.7437 51.0697 46.4763 52.2293 46.7325 53.7666H32.2528V56.7131H46.7325C46.5042 58.28 45.793 59.4248 44.5973 60.1507C43.4016 60.8767 41.6508 61.2397 39.3432 61.2397H32.2528V64.1862H38.0194L45.793 76.0594H49.9779L42.1189 63.9727C44.2261 63.8019 46.0755 63.0907 47.672 61.8375C49.2668 60.5843 50.2062 58.8762 50.4904 56.7115H53.6504V53.765H50.4904C50.2916 51.8006 49.4359 50.2485 47.9282 49.1086H53.6521V46.1621H31.4841L31.4414 49.1086V49.1119Z" fill="url(#paint2_linear_6365_2096)"/>
</g>
<defs>
<linearGradient id="paint0_linear_6365_2096" x1="42.4916" y1="-2.26331" x2="42.4916" y2="101.353" gradientUnits="userSpaceOnUse">
<stop stop-color="#00EFD1"/>
<stop offset="1" stop-color="#00ACEA"/>
</linearGradient>
<linearGradient id="paint1_linear_6365_2096" x1="42.5006" y1="24.3065" x2="42.5006" y2="91.4311" gradientUnits="userSpaceOnUse">
<stop stop-color="#00EFD1"/>
<stop offset="1" stop-color="#00ACEA"/>
</linearGradient>
<linearGradient id="paint2_linear_6365_2096" x1="42.5467" y1="45.4927" x2="42.5467" y2="76.1637" gradientUnits="userSpaceOnUse">
<stop stop-color="#00EFD1"/>
<stop offset="1" stop-color="#00ACEA"/>
</linearGradient>
<clipPath id="clip0_6365_2096">
<rect width="84.9846" height="101" fill="white"/>
</clipPath>
</defs>
</svg>
