<svg width="109" height="109" viewBox="0 0 109 109" fill="none" xmlns="http://www.w3.org/2000/svg">
<path d="M102.944 12.1111H100.926V2.01852C100.926 1.48317 100.713 0.969756 100.335 0.591211C99.9562 0.212665 99.4427 0 98.9074 0H10.0926C9.55725 0 9.04383 0.212665 8.66528 0.591211C8.28674 0.969756 8.07407 1.48317 8.07407 2.01852V12.1111H6.05556C4.45006 12.1129 2.91083 12.7514 1.77558 13.8867C0.640323 15.0219 0.00176313 16.5612 0 18.1667V82.7593C0.00176313 84.3647 0.640323 85.904 1.77558 87.0392C2.91083 88.1745 4.45006 88.813 6.05556 88.8148H41.4321L40.8064 96.8889H32.2963C30.6908 96.8906 29.1516 97.5292 28.0163 98.6645C26.8811 99.7997 26.2425 101.339 26.2407 102.944V106.981C26.2407 107.517 26.4534 108.03 26.8319 108.409C27.2105 108.787 27.7239 109 28.2593 109H80.7407C81.2761 109 81.7895 108.787 82.168 108.409C82.5466 108.03 82.7593 107.517 82.7593 106.981V102.944C82.7575 101.339 82.1189 99.7997 80.9837 98.6645C79.8484 97.5292 78.3092 96.8906 76.7037 96.8889H68.194L67.5683 88.8148H102.944C104.55 88.813 106.089 88.1745 107.224 87.0392C108.36 85.904 108.998 84.3647 109 82.7593V18.1667C108.998 16.5612 108.36 15.0219 107.224 13.8867C106.089 12.7514 104.55 12.1129 102.944 12.1111ZM44.4074 60.5556C44.4056 58.6332 43.9445 56.7392 43.0625 55.0312C42.1804 53.3232 40.903 51.8506 39.3367 50.7363C40.1927 49.4603 40.6859 47.9756 40.7635 46.441C40.841 44.9063 40.5 43.3795 39.777 42.0237C39.0539 40.6679 37.9759 39.5341 36.6583 38.7435C35.3408 37.9529 33.8331 37.5353 32.2965 37.5353C30.7599 37.5353 29.2522 37.9529 27.9346 38.7435C26.6171 39.5341 25.5391 40.6679 24.816 42.0237C24.093 43.3795 23.752 44.9063 23.8295 46.441C23.9071 47.9756 24.4002 49.4603 25.2563 50.7363C23.6914 51.8521 22.4151 53.3249 21.5332 55.0326C20.6513 56.7403 20.1892 58.6336 20.1852 60.5556H12.1111V34.3148H52.4815V60.5556H44.4074ZM32.2963 50.463C31.418 50.463 30.5594 50.2025 29.8292 49.7146C29.0989 49.2266 28.5297 48.5331 28.1936 47.7216C27.8575 46.9102 27.7695 46.0173 27.9409 45.1559C28.1122 44.2945 28.5352 43.5032 29.1562 42.8821C29.7773 42.2611 30.5685 41.8382 31.4299 41.6668C32.2914 41.4955 33.1843 41.5834 33.9957 41.9195C34.8071 42.2556 35.5007 42.8248 35.9886 43.5551C36.4766 44.2854 36.737 45.1439 36.737 46.0222C36.7358 47.1996 36.2675 48.3284 35.435 49.1609C34.6024 49.9934 33.4737 50.4617 32.2963 50.463ZM28.3983 53.5061C29.5945 54.1585 30.9353 54.5003 32.2978 54.5C33.6603 54.4997 35.001 54.1574 36.1969 53.5045C37.4602 54.1983 38.514 55.2188 39.2481 56.4591C39.9823 57.6995 40.3699 59.1142 40.3704 60.5556H24.2222C24.2246 59.1145 24.6133 57.7005 25.3478 56.4606C26.0823 55.2208 27.1357 54.2005 28.3983 53.5061ZM56.5185 34.3148H96.8889V60.5556H56.5185V34.3148ZM76.7037 20.1852C75.8254 20.1852 74.9668 19.9247 74.2366 19.4368C73.5063 18.9488 72.9371 18.2553 72.601 17.4438C72.2649 16.6324 72.1769 15.7395 72.3483 14.8781C72.5196 14.0167 72.9426 13.2254 73.5636 12.6044C74.1847 11.9833 74.9759 11.5604 75.8374 11.389C76.6988 11.2177 77.5917 11.3056 78.4031 11.6417C79.2145 11.9778 79.9081 12.547 80.396 13.2773C80.884 14.0076 81.1444 14.8661 81.1444 15.7444C81.143 16.9218 80.6747 18.0504 79.8422 18.8829C79.0097 19.7154 77.881 20.1837 76.7037 20.1852ZM72.8051 23.2279C74.0014 23.8806 75.3424 24.2224 76.7052 24.2222C78.0679 24.222 79.4088 23.8797 80.6049 23.2267C81.8682 23.9206 82.9219 24.941 83.656 26.1814C84.39 27.4217 84.7774 28.8365 84.7778 30.2778H68.6296C68.6319 28.8367 69.0205 27.4226 69.7548 26.1827C70.4892 24.9428 71.5425 23.9225 72.8051 23.2279ZM96.8889 30.2778H88.8148C88.813 28.3555 88.3519 26.4615 87.4699 24.7535C86.5879 23.0455 85.3106 21.5729 83.7443 20.4585C84.6002 19.1825 85.0933 17.6978 85.1707 16.1632C85.2481 14.6287 84.9071 13.1019 84.184 11.7462C83.4609 10.3905 82.3829 9.25674 81.0654 8.46622C79.7478 7.67571 78.2402 7.25813 76.7037 7.25813C75.1672 7.25813 73.6596 7.67571 72.342 8.46622C71.0245 9.25674 69.9465 10.3905 69.2234 11.7462C68.5003 13.1019 68.1593 14.6287 68.2367 16.1632C68.3142 17.6978 68.8072 19.1825 69.6631 20.4585C68.0984 21.5744 66.8222 23.0473 65.9404 24.7549C65.0585 26.4626 64.5965 28.3559 64.5926 30.2778H56.5185V4.03704H96.8889V30.2778ZM12.1111 4.03704H52.4815V30.2778H12.1111V4.03704ZM6.05556 16.1481H8.07407V62.5741C8.07407 63.1094 8.28674 63.6228 8.66528 64.0014C9.04383 64.3799 9.55725 64.5926 10.0926 64.5926H98.9074C99.4427 64.5926 99.9562 64.3799 100.335 64.0014C100.713 63.6228 100.926 63.1094 100.926 62.5741V16.1481H102.944C103.48 16.1486 103.993 16.3614 104.371 16.7399C104.75 17.1183 104.962 17.6315 104.963 18.1667V68.6296H4.03704V18.1667C4.03773 17.6315 4.25062 17.1185 4.62901 16.7401C5.00741 16.3617 5.52042 16.1488 6.05556 16.1481ZM78.7222 102.944V104.963H30.2778V102.944C30.2785 102.409 30.4914 101.896 30.8698 101.518C31.2482 101.14 31.7612 100.927 32.2963 100.926H76.7037C77.2389 100.926 77.752 101.139 78.1305 101.518C78.5089 101.896 78.7217 102.409 78.7222 102.944ZM64.1447 96.8889H44.8563L45.4821 88.8148H63.5195L64.1447 96.8889ZM102.944 84.7778H6.05556C5.52042 84.7771 5.00741 84.5642 4.62901 84.1858C4.25062 83.8074 4.03773 83.2944 4.03704 82.7593V72.6667H104.963V82.7593C104.962 83.2945 104.75 83.8076 104.371 84.186C103.993 84.5645 103.48 84.7773 102.944 84.7778Z" fill="url(#paint0_linear_6394_2091)"/>
<path d="M60.5554 76.7031H48.4443C47.909 76.7031 47.3955 76.9158 47.017 77.2943C46.6384 77.6729 46.4258 78.1863 46.4258 78.7216C46.4258 79.257 46.6384 79.7704 47.017 80.149C47.3955 80.5275 47.909 80.7402 48.4443 80.7402H60.5554C61.0908 80.7402 61.6042 80.5275 61.9827 80.149C62.3613 79.7704 62.5739 79.257 62.5739 78.7216C62.5739 78.1863 62.3613 77.6729 61.9827 77.2943C61.6042 76.9158 61.0908 76.7031 60.5554 76.7031Z" fill="url(#paint1_linear_6394_2091)"/>
<path d="M18.167 15.1386H46.4262C46.9616 15.1386 47.475 14.9259 47.8535 14.5474C48.2321 14.1688 48.4447 13.6554 48.4447 13.1201C48.4447 12.5847 48.2321 12.0713 47.8535 11.6928C47.475 11.3142 46.9616 11.1016 46.4262 11.1016H18.167C17.6316 11.1016 17.1182 11.3142 16.7396 11.6928C16.3611 12.0713 16.1484 12.5847 16.1484 13.1201C16.1484 13.6554 16.3611 14.1688 16.7396 14.5474C17.1182 14.9259 17.6316 15.1386 18.167 15.1386V15.1386Z" fill="url(#paint2_linear_6394_2091)"/>
<path d="M18.167 23.2128H38.3521C38.8875 23.2128 39.4009 23.0002 39.7795 22.6216C40.158 22.2431 40.3707 21.7296 40.3707 21.1943C40.3707 20.659 40.158 20.1455 39.7795 19.767C39.4009 19.3884 38.8875 19.1758 38.3521 19.1758H18.167C17.6316 19.1758 17.1182 19.3884 16.7396 19.767C16.3611 20.1455 16.1484 20.659 16.1484 21.1943C16.1484 21.7296 16.3611 22.2431 16.7396 22.6216C17.1182 23.0002 17.6316 23.2128 18.167 23.2128V23.2128Z" fill="url(#paint3_linear_6394_2091)"/>
<path d="M90.8334 41.3789H62.5742C62.0388 41.3789 61.5254 41.5916 61.1469 41.9701C60.7683 42.3487 60.5557 42.8621 60.5557 43.3974C60.5557 43.9328 60.7683 44.4462 61.1469 44.8247C61.5254 45.2033 62.0388 45.4159 62.5742 45.4159H90.8334C91.3688 45.4159 91.8822 45.2033 92.2608 44.8247C92.6393 44.4462 92.852 43.9328 92.852 43.3974C92.852 42.8621 92.6393 42.3487 92.2608 41.9701C91.8822 41.5916 91.3688 41.3789 90.8334 41.3789Z" fill="url(#paint4_linear_6394_2091)"/>
<path d="M82.7594 49.4531H62.5742C62.0388 49.4531 61.5254 49.6658 61.1469 50.0443C60.7683 50.4229 60.5557 50.9363 60.5557 51.4716C60.5557 52.007 60.7683 52.5204 61.1469 52.899C61.5254 53.2775 62.0388 53.4902 62.5742 53.4902H82.7594C83.2947 53.4902 83.8081 53.2775 84.1867 52.899C84.5652 52.5204 84.7779 52.007 84.7779 51.4716C84.7779 50.9363 84.5652 50.4229 84.1867 50.0443C83.8081 49.6658 83.2947 49.4531 82.7594 49.4531Z" fill="url(#paint5_linear_6394_2091)"/>
<defs>
<linearGradient id="paint0_linear_6394_2091" x1="-47.5179" y1="-54.7584" x2="160.513" y2="153.272" gradientUnits="userSpaceOnUse">
<stop stop-color="#9CECFB"/>
<stop offset="0.512" stop-color="#65C7F7"/>
<stop offset="1" stop-color="#0052D4"/>
</linearGradient>
<linearGradient id="paint1_linear_6394_2091" x1="-63.2484" y1="-39.0266" x2="144.78" y2="169.002" gradientUnits="userSpaceOnUse">
<stop stop-color="#9CECFB"/>
<stop offset="0.512" stop-color="#65C7F7"/>
<stop offset="1" stop-color="#0052D4"/>
</linearGradient>
<linearGradient id="paint2_linear_6394_2091" x1="-41.5489" y1="-60.7254" x2="166.48" y2="147.303" gradientUnits="userSpaceOnUse">
<stop stop-color="#9CECFB"/>
<stop offset="0.512" stop-color="#65C7F7"/>
<stop offset="1" stop-color="#0052D4"/>
</linearGradient>
<linearGradient id="paint3_linear_6394_2091" x1="-47.6045" y1="-54.6697" x2="160.424" y2="153.359" gradientUnits="userSpaceOnUse">
<stop stop-color="#9CECFB"/>
<stop offset="0.512" stop-color="#65C7F7"/>
<stop offset="1" stop-color="#0052D4"/>
</linearGradient>
<linearGradient id="paint4_linear_6394_2091" x1="-34.4843" y1="-67.7907" x2="173.544" y2="140.238" gradientUnits="userSpaceOnUse">
<stop stop-color="#9CECFB"/>
<stop offset="0.512" stop-color="#65C7F7"/>
<stop offset="1" stop-color="#0052D4"/>
</linearGradient>
<linearGradient id="paint5_linear_6394_2091" x1="-40.5398" y1="-61.735" x2="167.489" y2="146.294" gradientUnits="userSpaceOnUse">
<stop stop-color="#9CECFB"/>
<stop offset="0.512" stop-color="#65C7F7"/>
<stop offset="1" stop-color="#0052D4"/>
</linearGradient>
</defs>
</svg>
