<svg width="94" height="86" viewBox="0 0 73 91" fill="none" xmlns="http://www.w3.org/2000/svg">
<path d="M63.8311 91C62.2411 91 61.7216 89.4081 61.7216 87.4442V65.5556C61.7216 61.8194 62.1163 60.5275 64.1125 58.7128C65.5017 57.4502 66.996 55.2166 67.7681 53.2424C68.1035 52.385 68.4 45.5001 68.4 41.6788C68.4 40.3458 68.5757 37.0577 68.5757 35.1765C69.1755 33.4215 67.6972 37.575 70.8769 38.648C74.0395 37.6513 72.6317 33.7087 72.9703 35.1765C72.9703 37.7686 72.9293 43.3157 72.7946 45.0557C72.3703 50.5371 72.1949 53.3655 71.8454 54.2589C70.6696 57.2653 68.9553 59.8059 66.7502 61.8103C66.2358 62.2781 65.9407 62.922 65.9407 63.5772V87.4444C65.9405 89.4081 65.2453 91 63.8311 91ZM22.0032 91C20.4133 91 20.0695 89.4081 20.0695 87.4442V64.109C8.16238 54.4801 1.77453 44.3487 1.71987 44.2519C-1.18758 38.2457 -0.51568 36.1003 4.55491 26.027C6.46234 22.3553 8.34111 19.1182 8.70439 18.4966C9.81356 16.3233 11.5916 14.6624 13.7254 13.7054V11.0866C13.6497 2.71699 23.4466 -2.153 29.9235 2.93513C33.6551 -0.975858 40.3928 -0.978525 44.1274 2.92802C48.4088 -0.488895 55.1041 0.510632 58.2593 4.91143C64.7405 0.941058 73.0779 5.95452 72.9703 13.6643V35.1765C72.7975 39.8894 68.2833 39.7237 68.5757 35.1765L68.4 26.183C64.0247 29.0312 59.2029 27.2813 56.7733 25.0766C53.2052 28.329 47.1749 28.3164 43.6198 25.0526C40.0505 28.3296 33.9951 28.3256 30.4304 25.0454C29.0608 24.6767 28.4525 24.9109 27.6187 25.3102C27.4528 25.8496 26.5227 27.7095 26.2656 28.2313L23.0871 35.5185C22.2065 37.4776 22.0411 38.1845 22.0411 38.8235C22.2086 40.0507 23.702 40.2284 25.7226 40.4062C27.7431 40.5839 32.0551 41.3914 37.345 43.3637C38.796 44.313 43.8463 46.9159 42.5565 48.3836C41.267 49.8516 39.0452 49.9837 37.5942 48.6789C32.8345 44.3992 28.6453 43.7984 25.2791 43.3157C23.5068 43.0616 21.976 42.8423 20.5883 42.1299C17.1663 40.3735 19.1221 36.1206 20.8383 32.6423L23.6662 26.0706C23.6699 26.063 25.2791 23.9657 23.7981 21.6229C22.317 19.2801 21.3946 19.1957 19.661 18.3189C19.2501 18.111 17.904 17.7614 15.6461 17.7614C13.3881 17.7614 11.8258 20.436 11.2402 21.6229C11.2022 21.6999 10.0323 23.9535 8.08045 27.6944C4.58775 34.3887 3.92633 37.1518 3.89909 37.4094C3.90418 38.3781 4.30168 40.6371 4.78974 41.5278C5.37218 42.4164 11.3582 51.8767 22.3873 60.4466C23.2534 61.1197 23.7611 62.1617 23.7611 63.2665V87.4439C23.7613 89.4081 23.5932 91 22.0032 91ZM59.6133 21.7523V21.8412C59.764 25.8465 67.548 26.021 67.6972 22.019L67.8729 11.7092C67.7223 7.70401 59.7625 6.64081 59.6133 10.6428V21.7523ZM46.0806 18.7309C46.0806 25.8319 55.0431 25.4765 55.0431 18.7309V8.24263C55.0431 2.28209 46.0806 2.54869 46.0806 8.24263V18.7309ZM37.2048 4.42012C35.509 4.42012 31.8451 5.99367 31.8451 8.24236C31.8451 10.491 31.8451 18.9086 31.8451 18.9086C31.8451 25.5653 42.2131 25.6542 42.2131 18.9086V8.24236C42.2131 5.6382 39.2513 4.42012 37.2048 4.42012ZM17.9443 14.1654C18.6593 14.3421 20.3085 14.3722 22.7894 15.6271C24.5206 16.5027 27.4243 19.8642 27.4243 19.8642C27.4243 19.8642 27.4338 17.3911 27.4338 17.309C27.4338 17.2268 27.4338 9.84224 27.4338 9.84224C27.4243 3.66729 17.9443 3.39426 17.9443 9.56921V14.1654Z" fill="url(#paint0_linear_6501_2362)"/>
<defs>
<linearGradient id="paint0_linear_6501_2362" x1="36.4998" y1="-2.0374" x2="36.4998" y2="91.3174" gradientUnits="userSpaceOnUse">
<stop stop-color="#00EFD1"/>
<stop offset="1" stop-color="#00ACEA"/>
</linearGradient>
</defs>
</svg>
