<svg xmlns="http://www.w3.org/2000/svg" xmlns:xlink="http://www.w3.org/1999/xlink" width="74" height="74" viewBox="0 0 74 74">
  <defs>
    <clipPath id="clip-path">
      <rect id="Rectangle_2753" data-name="Rectangle 2753" width="74" height="69.108" fill="#0068b3"/>
    </clipPath>
  </defs>
  <g id="Group_24127" data-name="Group 24127" transform="translate(-1018 -3005)">
    <rect id="Rectangle_2728" data-name="Rectangle 2728" width="74" height="74" transform="translate(1018 3005)" fill="#0068b3" opacity="0"/>
    <g id="Group_24126" data-name="Group 24126" transform="translate(1018 3007)">
      <g id="Group_24125" data-name="Group 24125" clip-path="url(#clip-path)">
        <path id="Path_27553" data-name="Path 27553" d="M74,55.482a17.138,17.138,0,0,1-2.556,6.682,15.642,15.642,0,0,1-19.969,5.305,10,10,0,0,1-.882-.491,1.3,1.3,0,1,1,1.274-2.264,14.507,14.507,0,0,0,4.387,1.579A12.982,12.982,0,1,0,46.6,58.811c.531,1.192.328,1.754-.855,2.309a31.094,31.094,0,0,1-16.4,2.932A31.994,31.994,0,0,1,1.076,39.98C-1.58,29.441.708,19.849,7.662,11.482A30.709,30.709,0,0,1,26.322.561,31.092,31.092,0,0,1,52.622,7.5,32.073,32.073,0,0,1,64.2,33.709c-.041.969-.593,1.553-1.382,1.528s-1.3-.636-1.26-1.615a27.974,27.974,0,0,0-1.667-11.337C55.88,11.911,48.446,5.33,37.523,3.207c-9.978-1.941-18.787.9-26.087,7.968A27.551,27.551,0,0,0,2.909,28.717C1.794,40.367,6.121,49.644,15.6,56.45a27.343,27.343,0,0,0,13.46,4.932,29.219,29.219,0,0,0,14.066-1.963c.575-.232.684-.47.491-1.063A15.593,15.593,0,0,1,52.091,39.24a1.486,1.486,0,0,0,.942-1.064A21.127,21.127,0,0,0,47.991,17.3a20.3,20.3,0,0,0-14.18-6.888c-8.8-.509-15.645,3.079-20.351,10.542a19.985,19.985,0,0,0-3.013,12.769C11.232,42.062,15.5,48.109,22.993,51.8a20.707,20.707,0,0,0,13.778,1.566,5.234,5.234,0,0,1,.638-.108,1.286,1.286,0,0,1,.536,2.511,15.827,15.827,0,0,1-3.257.6,24,24,0,0,1-20.41-7.739A22.48,22.48,0,0,1,7.883,34.289C7.2,23.528,11.752,15.516,21.142,10.381,29.722,5.69,40.927,7.24,48.183,13.8a24.686,24.686,0,0,1,8.041,14.386A22.449,22.449,0,0,1,56.033,37c-.237,1.071-.225,1.082.841.969a15.029,15.029,0,0,1,11.2,3.246,15.378,15.378,0,0,1,5.81,9.744c.029.165.078.325.117.487Z" transform="translate(0 0)" fill="#0068b3"/>
        <path id="Path_27554" data-name="Path 27554" d="M29.509,18.167A5.681,5.681,0,0,1,34.8,21.538a5.36,5.36,0,0,1-.759,6.011c-.513.628-.423.9.124,1.417a6.591,6.591,0,0,1,1.247,8.119,6.7,6.7,0,0,1-12.529-3.434,6.39,6.39,0,0,1,2.358-4.916c.419-.351.428-.531.065-.947a5.491,5.491,0,0,1-.974-6.177,5.616,5.616,0,0,1,5.174-3.445m.082,19.675a4.048,4.048,0,0,0,4.085-4.058,4.1,4.1,0,0,0-4.052-4.042,4.038,4.038,0,0,0-4.088,4.043,3.987,3.987,0,0,0,4.054,4.057M32.7,23.971a3.024,3.024,0,0,0-3.068-3.128,3.1,3.1,0,0,0-3.209,3.094,3.248,3.248,0,0,0,3.1,3.182A3.173,3.173,0,0,0,32.7,23.971" transform="translate(3.474 2.758)" fill="#0068b3"/>
        <path id="Path_27555" data-name="Path 27555" d="M19.75,29.712q0,4.4,0,8.8a3.315,3.315,0,0,1-.053.788,1.246,1.246,0,0,1-1.227,1.033,1.23,1.23,0,0,1-1.279-.959A3.5,3.5,0,0,1,17.1,38.3q0-7.533,0-15.068c0-.863,0-.863-.85-.669a1.331,1.331,0,0,1-1.7-.821,1.3,1.3,0,0,1,.883-1.651c.762-.291,1.537-.556,2.312-.812,1.217-.4,2,.145,2,1.425.013,3,0,6.008,0,9.012" transform="translate(2.198 2.906)" fill="#0068b3"/>
        <path id="Path_27556" data-name="Path 27556" d="M57.757,44.623a1.451,1.451,0,0,1-.506,1.077c-2.072,2.072-4.137,4.15-6.22,6.212a1.347,1.347,0,0,1-2.1.075c-1.016-1.022-2-2.074-2.99-3.121a1.383,1.383,0,0,1-.435-1.242,1.292,1.292,0,0,1,2.182-.7A24.157,24.157,0,0,1,49.484,48.8c.342.384.591.352.938,0,1.533-1.557,3.083-3.1,4.634-4.638a5.586,5.586,0,0,1,.767-.652,1.142,1.142,0,0,1,1.292-.01,1.208,1.208,0,0,1,.643,1.129" transform="translate(6.905 6.573)" fill="#0068b3"/>
        <path id="Path_27557" data-name="Path 27557" d="M40.811,23.953a1.238,1.238,0,0,1,1.29,1.34c-.009.733.181,1.03.966.984a1.264,1.264,0,1,1-.029,2.519c-.738-.036-.95.22-.935.94a1.3,1.3,0,1,1-2.6.025c.014-.768-.245-1-.993-.968a1.247,1.247,0,0,1-1.32-1.235,1.279,1.279,0,0,1,1.35-1.284c.712.031.976-.173.959-.919a1.28,1.28,0,0,1,1.315-1.4" transform="translate(5.645 3.636)" fill="#0068b3"/>
      </g>
    </g>
  </g>
</svg>
