<svg id="Group_24094" data-name="Group 24094" xmlns="http://www.w3.org/2000/svg" xmlns:xlink="http://www.w3.org/1999/xlink" width="74.861" height="74" viewBox="0 0 74.861 74">
  <defs>
    <clipPath id="clip-path">
      <rect id="Rectangle_2743" data-name="Rectangle 2743" width="74.861" height="74" fill="#0068b3"/>
    </clipPath>
  </defs>
  <g id="Group_24093" data-name="Group 24093" clip-path="url(#clip-path)">
    <path id="Path_27491" data-name="Path 27491" d="M74.86,22.6V37.957a5.923,5.923,0,0,1-5.171,4.419c-.418.053-.485.336-.485.683,0,.78.019,1.561-.017,2.339a1.171,1.171,0,1,1-2.341.077,11.851,11.851,0,0,1-.043-1.386c-.018-1.881.21-1.679-1.751-1.7-.546-.006-.559.166-.317.592a5.454,5.454,0,0,1,.681,2.805c-.017,1.8-.026,3.606,0,5.409a7.239,7.239,0,0,1-2.723,5.956,1.393,1.393,0,0,0-.426,1.79c.112.474.607.3.946.309a8.046,8.046,0,0,1,2.833.645c.742.308.751.312.753-.5,0-2.729-.005-5.458.007-8.187.006-1.16.439-1.75,1.222-1.742s1.172.582,1.173,1.767c0,3.315.016,6.628-.009,9.942a3.518,3.518,0,0,0,.564,2.132,5.315,5.315,0,0,1,.753,1.969,24.359,24.359,0,0,1,.226,5.535c-.061,2.17-1.147,3.155-3.339,3.156-6.164,0-12.329.064-18.491-.047-1.471-.027-2.929-.01-4.4.011q-9.171.129-18.345,0c-1.493-.021-2.976-.032-4.471-.007-6.114.1-12.23.022-18.345.058A3.253,3.253,0,0,1,0,72.024V65.59a8.907,8.907,0,0,1,1.4-3.107A7.7,7.7,0,0,1,7.647,59.25c.286,0,.6.045.744-.312a1.848,1.848,0,0,0-.5-1.834,7.254,7.254,0,0,1-2.671-5.689c-.016-1.728.016-3.457-.011-5.184a6.339,6.339,0,0,1,.732-3.307c.272-.481.038-.527-.361-.53a9.993,9.993,0,0,1-2.039-.076A4.663,4.663,0,0,1,0,38.98V3.451l.245-.609A4.408,4.408,0,0,1,4.328.035c.707-.011,1.414-.01,2.12,0,.888.012,1.408.435,1.418,1.133S7.35,2.317,6.48,2.333c-.633.012-1.268-.015-1.9.012a2.236,2.236,0,0,0-2.325,2.3c-.01.17-.006.341-.006.512q0,16.047,0,32.093a5.354,5.354,0,0,0,.034.8,2.089,2.089,0,0,0,1.938,1.956,7.811,7.811,0,0,0,1.165.067q13.379,0,26.757,0,6.469,0,12.94,0c2,0,2.721-.739,2.726-2.742.006-2.12,0-4.24.007-6.36a4.982,4.982,0,0,1,.117-1.158A1.035,1.035,0,0,1,49,28.988a1.061,1.061,0,0,1,1.106.78,2.244,2.244,0,0,1,.09.719c.006,2.461.024,4.922,0,7.383a4.454,4.454,0,0,1-4.559,4.523c-1.121.013-2.242.011-3.363,0-.446,0-.663.052-.37.564a5.677,5.677,0,0,1,.7,2.948c-.022,1.876-.012,3.753-.006,5.629a7.3,7.3,0,0,1-2.822,5.691c-.612.466-.432,1.118-.336,1.684.088.526.634.292.992.345.288.041.583.04.87.086a7.755,7.755,0,0,1,5.067,3.05c.165.218.3.58.634.13a7.677,7.677,0,0,1,6.451-3.272c.261,0,.534-.054.555-.354.048-.665.167-1.3-.524-1.836a6.529,6.529,0,0,1-2.518-4.392,52.023,52.023,0,0,1-.12-6.862,5.484,5.484,0,0,1,3.057-5.117,1.024,1.024,0,0,0,.6-1.038q-.018-6.471,0-12.94c0-.681-.262-.9-.91-.883-1.438.029-2.876.008-4.313.008-3.631,0-7.262.017-10.893-.007-2.835-.018-4.369-1.536-4.475-4.367-.02-.536-.015-1.072-.008-1.608a1.081,1.081,0,0,0-.433-.947,3.11,3.11,0,0,1-1.165-3.377.781.781,0,0,0-.15-.808c-.476-.489-.944-.985-1.419-1.475a.743.743,0,0,0-.594-.225c-1.9.063-1.9.061-3.155,1.6-.216.265-.417.543-.653.788a1.2,1.2,0,0,0-.268,1.328,3.1,3.1,0,0,1-2.162,3.894,3.008,3.008,0,0,1-3.862-2.174,2.577,2.577,0,0,0-1.736-2.075,4.073,4.073,0,0,1-.58-.308.952.952,0,0,0-1.147-.007,2.033,2.033,0,0,1-1.669.383,2.025,2.025,0,0,0-2.389.834,6.063,6.063,0,0,1-.645.595A2.391,2.391,0,0,0,10.82,20.2a3.032,3.032,0,0,1-3.193,3.158,3.251,3.251,0,0,1-3.095-3.335,3.068,3.068,0,0,1,3.454-2.966,2.1,2.1,0,0,0,2.195-.807,4.423,4.423,0,0,1,.693-.648,2.359,2.359,0,0,0,1.091-2.379,2.972,2.972,0,0,1,2.725-3.08,2.992,2.992,0,0,1,3.371,2.277A2.475,2.475,0,0,0,19.8,14.5a4.369,4.369,0,0,1,.642.347.861.861,0,0,0,1.013.013,2.861,2.861,0,0,1,2.1-.406.754.754,0,0,0,.812-.344c.565-.7,1.13-1.406,1.711-2.1a.973.973,0,0,0,.206-1.072A2.827,2.827,0,0,1,26.2,9.218,3.165,3.165,0,0,1,32.38,10.6c-.051.276-.259.6-.006.838.849.786,1.3,2.252,2.925,1.768a.656.656,0,0,1,.362.006c.542.164.851-.116,1.16-.514.823-1.058,1.655-2.11,2.529-3.125a1.94,1.94,0,0,0,.536-2.014,2.936,2.936,0,0,1,1.525-3.327,3.169,3.169,0,1,1,1.191,5.92,1.018,1.018,0,0,0-1.058.44q-1.478,1.86-2.983,3.7a.946.946,0,0,0-.212,1.065,2.6,2.6,0,0,1,.071,1.795c-.211.657.042.748.606.745,2.607-.016,5.215,0,7.822-.008.892,0,.961-.067.962-.96q.007-5.226,0-10.454c0-.706.013-1.414-.026-2.119a1.979,1.979,0,0,0-1.608-1.916,4.993,4.993,0,0,0-1.306-.1H12.047c-1.251,0-1.839-.386-1.816-1.182.023-.774.579-1.124,1.8-1.124C23.119.031,34.207.075,45.294,0a4.726,4.726,0,0,1,4.929,4.933C50.136,8.9,50.2,12.878,50.2,16.85c0,1.024.012,1.037,1.009,1.039q3.327,0,6.653,0c.991,0,1.3-.419,1.022-1.373a1.349,1.349,0,0,0-.5-.612,6.416,6.416,0,0,1-2.266-4.3,50.235,50.235,0,0,1-.03-7.739A4.014,4.014,0,0,1,60.268.035c1.73-.013,3.46-.009,5.19,0a4.106,4.106,0,0,1,4.335,4.3c.013,2.144,0,4.288,0,6.433a6.644,6.644,0,0,1-.385,2.219,6.534,6.534,0,0,1-2.264,3.162,1.209,1.209,0,0,0-.378,1.384c.123.533.632.35.99.351a10.746,10.746,0,0,1,2.758.23A5.9,5.9,0,0,1,74.86,22.6M47.788,20.3H42.525q-2.706,0-5.41,0c-.337,0-.689-.04-.8.437-.369,1.663.422,2.69,2.108,2.691q8.042,0,16.083,0c1.88,0,2.4.517,2.4,2.377q0,6.579,0,13.159c0,.983.039,1.022,1.039,1.023q3.912.006,7.823,0c.969,0,1.019-.055,1.02-1.052q0-5.373,0-10.747a3.672,3.672,0,0,1,.114-1.158A1.145,1.145,0,0,1,69.1,27a2.749,2.749,0,0,1,.1,1.012q0,5.52,0,11.039c0,.919.225,1.07,1.11.779a3.3,3.3,0,0,0,2.276-3.249c.042-4.24.057-8.481,0-12.72a3.427,3.427,0,0,0-3.706-3.56c-.512,0-1.024.02-1.535-.007a1.068,1.068,0,0,0-1.107.621,3.834,3.834,0,0,1-6.758.027,1.176,1.176,0,0,0-1.167-.652c-3.509.018-7.019.009-10.528.009M23.906,42.4c-1.484,0-2.969.007-4.454,0-.463,0-.645.075-.363.571a5.706,5.706,0,0,1,.707,2.945c-.022,1.9.013,3.8-.015,5.695a7.14,7.14,0,0,1-2.1,4.986c-.252.263-.553.478-.817.729-.484.461-.312,1.059-.233,1.584.075.5.578.31.917.35.313.037.632.037.942.087a7.768,7.768,0,0,1,5.065,3.042c.162.212.3.591.631.139a7.69,7.69,0,0,1,6.444-3.272c.292,0,.572-.068.587-.408.028-.639.131-1.248-.516-1.773a7.1,7.1,0,0,1-2.672-5.755c0-1.8.009-3.6,0-5.4a5.59,5.59,0,0,1,.687-2.876c.328-.574.1-.647-.42-.642-1.46.016-2.921.006-4.382.006m-1.155,26.52c0-.559.015-1.119,0-1.678a5.426,5.426,0,0,0-5.719-5.6,1.1,1.1,0,0,0-1.008.447,2.917,2.917,0,0,1-2.459,1.21c-.706.012-1.412.014-2.118,0a2.957,2.957,0,0,1-2.462-1.206.98.98,0,0,0-.712-.443,5.409,5.409,0,0,0-5.9,4.576,43.186,43.186,0,0,0-.115,4.592c-.014.52.255.756.763.754q1.206-.006,2.411,0c.453,0,.671-.2.662-.662-.011-.536-.019-1.074.014-1.608a1.16,1.16,0,0,1,1.145-1.183A1.125,1.125,0,0,1,8.4,69.208c.065.554.062,1.117.076,1.675.011.443.2.683.664.682q3.432,0,6.865,0c.477,0,.636-.258.63-.7-.006-.51-.019-1.024.024-1.532a1.176,1.176,0,1,1,2.352-.021,12.613,12.613,0,0,1,.031,1.532c-.009.48.182.729.684.722.755-.009,1.51-.007,2.265,0,.562,0,.781-.284.769-.824-.014-.607,0-1.216,0-1.826M35.4,71.568v0c1,0,2,0,2.995,0s1.037-.038,1.046-1.015c0-.415-.016-.83.028-1.24a1.178,1.178,0,1,1,2.356.011,13.262,13.262,0,0,1,.026,1.532c-.01.489.2.719.694.711.73-.009,1.46-.011,2.191,0,.581.011.841-.244.831-.835-.019-1.193.027-2.388-.013-3.578a5.4,5.4,0,0,0-5.716-5.521,1.1,1.1,0,0,0-1.006.453,2.909,2.909,0,0,1-2.46,1.2c-.706.012-1.412.014-2.118,0a2.958,2.958,0,0,1-2.46-1.209.983.983,0,0,0-.715-.438,5.426,5.426,0,0,0-5.87,4.365,33.446,33.446,0,0,0-.139,4.81c0,.512.272.75.78.748.779,0,1.558-.012,2.337,0,.542.01.735-.247.715-.763a14.248,14.248,0,0,1,.013-1.533,1.169,1.169,0,0,1,1.1-1.161A1.117,1.117,0,0,1,31.2,69.155a12.625,12.625,0,0,1,.085,1.674c0,.523.232.748.754.743,1.12-.012,2.24,0,3.359,0m12.552-3.027c0,.755,0,1.511,0,2.265,0,.457.182.752.686.752.828,0,1.657,0,2.485,0a.516.516,0,0,0,.583-.587c0-.51-.01-1.023.012-1.534a1.223,1.223,0,0,1,1.1-1.321c.67-.047,1.165.418,1.251,1.241.053.507.04,1.022.042,1.532,0,.453.205.673.664.673q3.4,0,6.8,0c.5,0,.695-.242.685-.723a12.963,12.963,0,0,1,.027-1.462c.079-.817.571-1.3,1.235-1.27a1.23,1.23,0,0,1,1.13,1.3,11.687,11.687,0,0,1,.011,1.388c-.029.577.237.786.788.768.682-.021,1.365-.025,2.047,0s.9-.288.885-.931c-.028-1.146,0-2.292-.009-3.437a5.423,5.423,0,0,0-5.745-5.573,1.148,1.148,0,0,0-.993.488,2.921,2.921,0,0,1-2.406,1.175q-1.1.025-2.193,0a2.9,2.9,0,0,1-2.4-1.178,1.038,1.038,0,0,0-.849-.481,5.393,5.393,0,0,0-5.251,2.909,7.944,7.944,0,0,0-.583,4m5.3-22.128c0,.218-.007.437,0,.656a4.877,4.877,0,0,0,6.22,4.552c2.339-.66,3.666-2.677,3.626-5.507A3.39,3.39,0,0,0,59.381,42.4c-.924,0-1.848-.017-2.772.005a3.3,3.3,0,0,0-3.25,2.343,6.258,6.258,0,0,0-.1,1.667m-13.041.029c0-.244.009-.488,0-.731a3.1,3.1,0,0,0-2.905-3.258,17.941,17.941,0,0,0-4.012,0A3.147,3.147,0,0,0,30.43,45.68c-.015.535-.006,1.072.021,1.607a4.871,4.871,0,0,0,5.938,4.4c2.477-.615,3.806-2.432,3.825-5.243M12.759,42.4c-.757,0-1.318-.021-1.877,0a3.207,3.207,0,0,0-3.266,3.307c-.015.486-.007.974.016,1.46a4.8,4.8,0,0,0,3.239,4.35A4.929,4.929,0,0,0,16.2,50.14c1.239-1.379,1.294-3.038,1.176-4.742a3.121,3.121,0,0,0-2.555-2.889,11.147,11.147,0,0,0-2.058-.108M62.94,7.728V7.723H60.46l-.146,0A1.843,1.843,0,0,0,58.4,9.66c-.01.34-.016.682,0,1.021a4.471,4.471,0,0,0,2.769,4.2,4.319,4.319,0,0,0,4.763-.793c1.457-1.248,1.585-2.932,1.465-4.678a1.7,1.7,0,0,0-1.756-1.675c-.9-.024-1.8,0-2.7,0M17.2,52.6a2.3,2.3,0,0,0-.353.133,7.146,7.146,0,0,1-8.587.062c-.114-.077-.237-.229-.381-.1s-.051.271,0,.408a4.735,4.735,0,0,0,1.952,2.477,1.825,1.825,0,0,1,.925,1.765c-.038.923.01,1.85.033,2.774a.719.719,0,0,0,.831.789c.608-.013,1.217-.006,1.826,0a.723.723,0,0,0,.813-.81,16.036,16.036,0,0,0-.005-1.9,2.781,2.781,0,0,1,1.393-3A3.414,3.414,0,0,0,17.2,52.6m45.694-.06c-.077,0-.109-.016-.124,0a7.225,7.225,0,0,1-8.946.21c-.1-.066-.211-.166-.322-.065-.129.118-.052.272,0,.408a4.611,4.611,0,0,0,2,2.525,1.854,1.854,0,0,1,.951,1.757c-.012.924.014,1.85.02,2.775a.662.662,0,0,0,.762.754c.608-.008,1.217,0,1.826,0,.578,0,.842-.291.838-.859-.005-.829.045-1.659-.01-2.483a2.052,2.052,0,0,1,1-2.021,4.445,4.445,0,0,0,2.009-3m-22.8-.012c-.117.013-.146.007-.163.019a7.2,7.2,0,0,1-8.876.232c-.114-.076-.24-.227-.376-.075-.109.122-.026.277.025.413a4.7,4.7,0,0,0,1.9,2.421,1.99,1.99,0,0,1,1.022,1.879c-.026.826.018,1.654-.008,2.48-.023.7.229,1.056.971,1.013.534-.032,1.07-.015,1.6-.008a.769.769,0,0,0,.888-.889c-.008-.827.049-1.658-.013-2.48a2.066,2.066,0,0,1,1.06-2.064,4.455,4.455,0,0,0,1.962-2.941M63.008,2.338c-.731,0-1.462.01-2.193,0C58.645,2.3,58.251,3.625,58.4,5.293c.013.153.07.357.231.3.562-.193,1.258-.013,1.632-.746a1.093,1.093,0,0,1,1.993-.089,1.087,1.087,0,0,0,1.072.56,12.185,12.185,0,0,1,3.628.243.311.311,0,0,0,.442-.236,2.176,2.176,0,0,0-2.05-2.983c-.779-.021-1.559,0-2.338,0M64.422,18.5c.01-.981-.028-1.01-1.047-.9a3.468,3.468,0,0,1-.795.011c-1.429-.178-1.257-.245-1.258,1.173a2.34,2.34,0,0,0,.1.642,1.41,1.41,0,0,0,1.507,1.1c.953-.032,1.481-.746,1.495-2.022M14.99,12.545a.736.736,0,0,0-.708.806.784.784,0,0,0,1.565-.047c0-.477-.32-.735-.857-.759m20.3,3.076a.76.76,0,1,0,.114,1.516.688.688,0,0,0,.729-.741c0-.472-.272-.762-.843-.775m-27.618,3.8a.758.758,0,1,0,.1,1.512.693.693,0,0,0,.712-.758.716.716,0,0,0-.811-.754M42.934,6.254c-.471.043-.778.283-.756.781a.711.711,0,0,0,.807.736.7.7,0,0,0,.725-.747c.011-.49-.276-.748-.776-.77M29.265,9.2a.691.691,0,0,0-.724.763.675.675,0,0,0,.785.748.7.7,0,0,0,.726-.753.726.726,0,0,0-.787-.758M23.8,17.589c-.034-.476-.272-.781-.776-.767a.7.7,0,0,0-.738.744.694.694,0,0,0,.781.764c.47,0,.707-.266.733-.741" fill="#0068b3"/>
    <path id="Path_27492" data-name="Path 27492" d="M25.154,30.443q9.024,0,18.049,0c1.209,0,1.742.365,1.73,1.172-.011.787-.523,1.133-1.694,1.133q-18.159,0-36.317,0a4.024,4.024,0,0,1-.8-.034,1.135,1.135,0,0,1-.035-2.224,3.838,3.838,0,0,1,.873-.044q9.1,0,18.195,0" fill="#0068b3"/>
    <path id="Path_27493" data-name="Path 27493" d="M15.9,36.989H6.925a5.534,5.534,0,0,1-.729-.021A1.139,1.139,0,0,1,6.219,34.7a4.478,4.478,0,0,1,.656-.019q9.089,0,18.177,0c1.137,0,1.7.373,1.72,1.129.021.778-.564,1.176-1.743,1.177q-4.563,0-9.124,0" fill="#0068b3"/>
  </g>
</svg>
