<svg width="106" height="106" viewBox="0 0 106 106" fill="none" xmlns="http://www.w3.org/2000/svg">
<path d="M33.125 12.4219C33.125 5.57245 27.5525 0 20.7031 0C13.8537 0 8.28125 5.57245 8.28125 12.4219C8.28125 19.2713 13.8537 24.8437 20.7031 24.8437C27.5525 24.8437 33.125 19.2713 33.125 12.4219ZM20.7031 20.6116C16.3326 20.6116 12.4169 16.7924 12.4169 12.4219C12.4169 8.05136 16.3326 4.13562 20.7031 4.13562C25.0736 4.13562 28.8447 8.05136 28.8447 12.4219C28.8447 17.8215 24.0445 20.6116 20.7031 20.6116ZM41.4062 37.2656C41.4062 30.4162 35.8338 24.8437 28.9844 24.8437H20.7031H12.4219C5.57245 24.8437 0 30.4162 0 37.2656V49.6875H41.4062V37.2656ZM35.2124 44.5228H6.19387V37.2656C6.19387 33.9242 9.08048 30.0085 12.4219 30.0085H28.9844C32.3258 30.0085 35.2124 33.9242 35.2124 37.2656V44.5228ZM76.1071 77.0156L79.709 79.8055L87.9903 71.5243L96.2715 63.243L92.6696 60.4531L84.3883 68.7344L76.1071 77.0156ZM65.4219 16.5625H53H40.5781V21.0971H53H65.4219V16.5625ZM93.5781 24.8437H85.2969H77.0156C70.1662 24.8437 64.5938 30.4162 64.5938 37.2656V49.6875H106V37.2656C106 30.4162 100.428 24.8437 93.5781 24.8437ZM99.8061 44.5228H70.7876V37.2656C70.7876 33.9242 73.6742 30.0085 77.0156 30.0085H93.5781C96.9195 30.0085 99.8061 33.9242 99.8061 37.2656V44.5228ZM61.2812 81.1562H53H44.7187C37.8693 81.1562 32.2969 86.7287 32.2969 93.5781V106H73.7031V93.5781C73.7031 86.7287 68.1307 81.1562 61.2812 81.1562ZM67.5384 100.864H50.9417H38.4616V93.5781C38.4616 90.2367 41.3774 86.321 44.7187 86.321H61.2812C64.6226 86.321 67.5384 90.2367 67.5384 93.5781V100.864ZM65.4219 68.7344C65.4219 61.885 59.8494 56.3125 53 56.3125C46.1506 56.3125 40.5781 61.885 40.5781 68.7344C40.5781 75.5838 46.1506 81.1562 53 81.1562C59.8494 81.1562 65.4219 75.5838 65.4219 68.7344ZM53 76.699C47.6295 76.699 45.2524 72.0758 45.2524 68.7344C45.2524 64.3639 48.6295 60.6893 53 60.6893C57.3705 60.6893 60.7476 64.393 60.7476 68.7344C60.7476 72.0758 58.3705 76.699 53 76.699ZM97.7187 12.4219C97.7187 5.57245 92.1463 0 85.2969 0C78.4474 0 72.875 5.57245 72.875 12.4219C72.875 19.2713 78.4474 24.8437 85.2969 24.8437C92.1463 24.8437 97.7187 19.2713 97.7187 12.4219ZM85.2969 20.7081C80.9263 20.7081 77.0106 16.7924 77.0106 12.4219C77.0106 8.05136 80.9263 4.13562 85.2969 4.13562C89.6674 4.13562 93.5831 8.05136 93.5831 12.4219C93.5831 16.7924 89.6674 20.7081 85.2969 20.7081ZM9.7767 63.243L18.0579 71.5243L26.3392 79.8055L29.8929 77.0156L21.6116 68.7344L13.3304 60.4531L9.7767 63.243Z" fill="url(#paint0_linear_6394_2099)"/>
<defs>
<linearGradient id="paint0_linear_6394_2099" x1="52.9998" y1="-2.37324" x2="52.9998" y2="106.37" gradientUnits="userSpaceOnUse">
<stop stop-color="#00EFD1"/>
<stop offset="1" stop-color="#00ACEA"/>
</linearGradient>
</defs>
</svg>
