<svg id="Group_24105" data-name="Group 24105" xmlns="http://www.w3.org/2000/svg" width="74.165" height="73.498" viewBox="0 0 74.165 73.498">
  <g id="Group_24106" data-name="Group 24106">
    <path id="Path_27525" data-name="Path 27525" d="M74.13,66.59a4.06,4.06,0,0,0-1.64-2.72v-.01L64.2,57.6V19.78a3.984,3.984,0,0,0-3.99-3.97H50.8l-.04-.21a18.966,18.966,0,0,0-37.33,0l-.04.21H3.97A3.969,3.969,0,0,0,0,19.78V38.95a1.3,1.3,0,0,0,2.6,0V35.01l.42.36a8.74,8.74,0,0,0,5.73,2.16H29.61l-.31.4a15.762,15.762,0,0,0,1.56,20.98l.44.43H3.97A1.383,1.383,0,0,1,2.6,57.95V44.55a1.3,1.3,0,0,0-2.6,0v13.4a4,4,0,0,0,3.99,3.99H35.21a15.137,15.137,0,0,0,5.69,1.47,15.819,15.819,0,0,0,11-3.54l.15-.13,2.54,1.92-.07.18a2.41,2.41,0,0,0,.78,2.83l3.541,2.679a1.3,1.3,0,1,0,1.573-2.082L57.3,62.92a.236.236,0,0,1-.09-.06l-.2-.15.31-.41c.27-.37.88-1.17,1.49-1.99s1.23-1.63,1.54-2.04l.16-.2,10.47,7.91a1.466,1.466,0,0,1,.29,2.04l-.01.01-1.72,2.29a1.472,1.472,0,0,1-1.17.58,1.491,1.491,0,0,1-.89-.3l-3.736-2.783a1.3,1.3,0,0,0-1.566,2.075L65.91,72.68a4.1,4.1,0,0,0,5.71-.79l1.72-2.29a4.1,4.1,0,0,0,.79-3.01M50.08,22.62v3.89a.491.491,0,0,1-.49.49H44.23a.491.491,0,0,1-.49-.49V22.62a.5.5,0,0,1,.47-.49h5.4a.493.493,0,0,1,.47.49M15.72,18.97A16.394,16.394,0,0,1,31.817,2.6c9.153-.155,16.643,7.636,16.643,16.79v.128H45.29v-.17A13.441,13.441,0,0,0,32.756,5.8,13.211,13.211,0,0,0,18.9,18.97v.55H15.72ZM42.2,15.8H21.99l.11-.33a10.583,10.583,0,0,1,19.98,0ZM14.15,22.62a.481.481,0,0,1,.45-.48l5.41-.01a.5.5,0,0,1,.48.49v3.89A.491.491,0,0,1,20,27H14.62a.469.469,0,0,1-.47-.47Zm-5.4,12.3A6.149,6.149,0,0,1,2.6,28.77V19.78a1.37,1.37,0,0,1,1.37-1.37h9.16v.26a.915.915,0,0,1-.01.16v1.1L13,20a3.108,3.108,0,0,0-1.46,2.62v3.89a3.1,3.1,0,0,0,3.09,3.09h5.36a3.1,3.1,0,0,0,3.1-3.09V22.62A3.07,3.07,0,0,0,21.62,20l-.12-.07v-.96a1.231,1.231,0,0,1,.02-.2c0-.04.01-.08.01-.12l.01-.24H42.66l.01.36a1.34,1.34,0,0,1,.01.2v.97l-.11.08a3.078,3.078,0,0,0-1.44,2.6V26.5a3.1,3.1,0,0,0,3.1,3.1H49.6a3.08,3.08,0,0,0,3.08-3.08v-3.9a3.065,3.065,0,0,0-1.49-2.64l-.12-.07v-.94c0-.05-.01-.1-.01-.14,0-.06-.01-.11-.01-.17v-.25h9.16a1.356,1.356,0,0,1,1.38,1.37v8.99a6.161,6.161,0,0,1-6.16,6.15H51.45l-.07-.05A15.613,15.613,0,0,0,39.8,31.85a15.338,15.338,0,0,0-7.38,3.02l-.07.05ZM29.37,51.9a.212.212,0,0,0-.03-.07c-.01-.04-.03-.08-.04-.12a11.623,11.623,0,0,1-.63-3.12,13.227,13.227,0,0,1,3.22-9.7,12.414,12.414,0,0,1,8.18-4.45,13.276,13.276,0,0,1,13.52,6.89l.09.16L43.21,51.97,37.43,46.2a1.3,1.3,0,0,0-1.84,0L29.5,52.28Zm22.08,4.84a12.879,12.879,0,0,1-9.33,4.11c-.34,0-.69-.01-1.03-.04a13.18,13.18,0,0,1-10.22-5.92l-.11-.18,5.75-5.75,5.77,5.77a1.308,1.308,0,0,0,1.85,0L54.72,44.14l.1.44c.09.39.17.78.22,1.15a13.305,13.305,0,0,1-3.59,11.01m5.64,1.53c-.32.43-.53.7-.67.88l-.15.2-.01-.01a.01.01,0,0,1-.01.01v.01c-.09.09-.13.11-.18.11-.01,0-.02-.01-.04-.01l-.14-.01-.05-.11-1.9-1.44.16-.2c.06-.07.77-.99.81-1.06l.15-.21,2.18,1.64Zm4.51-2.62-.34-.12a2.423,2.423,0,0,0-1.12-.12A2.368,2.368,0,0,0,59,55.9l-.15.12-2.52-1.89.08-.19a15.73,15.73,0,0,0-1.92-16.01l-.31-.4h1.161a8.971,8.971,0,0,0,5.839-2.16l.42-.36Z" fill="#0068b3"/>
    <path id="Path_27526" data-name="Path 27526" d="M23.13,54.66a1.3,1.3,0,0,1-1.3,1.3H6.66a1.3,1.3,0,1,1,0-2.6h.4V43.29a1.305,1.305,0,0,1,2.61,0V53.36h2.9V46.4a1.3,1.3,0,1,1,2.6,0v6.96h2.9V49.5a1.3,1.3,0,0,1,2.6,0v3.86h1.16a1.294,1.294,0,0,1,.92.38,1.319,1.319,0,0,1,.38.92" fill="#0068b3"/>
  </g>
</svg>
