<svg width="198" height="308" viewBox="0 0 198 308" fill="none" xmlns="http://www.w3.org/2000/svg">
<path d="M-25.6261 291.336C-52.7964 277.648 -75.2971 256.21 -90.2828 229.732C-105.269 203.254 -112.066 172.926 -109.816 142.582C-107.567 112.239 -96.3701 83.2434 -77.6429 59.2622C-58.9158 35.281 -33.499 17.3914 -4.60675 7.85542C24.2855 -1.68052 55.3556 -2.43441 84.6745 5.68909C113.993 13.8126 140.244 30.4486 160.108 53.4934C179.971 76.5383 192.554 104.957 196.267 135.155C199.98 165.354 194.654 195.976 180.965 223.15C162.576 259.559 130.497 287.186 91.7653 299.969C53.0341 312.753 10.8154 309.648 -25.6261 291.336V291.336ZM100.814 40.3528C78.3508 29.0363 53.0358 24.6358 28.0704 27.708C3.10496 30.7801 -20.3896 41.1868 -39.4424 57.6121C-58.4951 74.0374 -72.2503 95.7436 -78.9684 119.986C-85.6865 144.228 -85.0659 169.917 -77.1849 193.805C-69.304 217.693 -54.5168 238.707 -34.6932 254.189C-14.8696 269.671 9.10006 278.926 34.1846 280.783C59.2691 282.641 84.3419 277.018 106.232 264.625C128.123 252.233 145.848 233.627 157.166 211.161C172.324 181.024 174.908 146.106 164.35 114.069C153.791 82.0322 130.954 55.4952 100.849 40.2826L100.814 40.3528Z" fill="#323232"/>
</svg>
