<svg width="31" height="31" viewBox="0 0 31 31" fill="none" xmlns="http://www.w3.org/2000/svg">
<path d="M5.6687 20.0614C4.5966 20.0614 3.54857 20.3793 2.65715 20.9749C1.76573 21.5706 1.07095 22.4172 0.660672 23.4077C0.250396 24.3982 0.143049 25.4881 0.352206 26.5396C0.561363 27.5911 1.07763 28.5569 1.83572 29.315C2.59381 30.0731 3.55968 30.5894 4.61118 30.7985C5.66269 31.0077 6.7526 30.9004 7.74309 30.4901C8.73359 30.0798 9.58018 29.385 10.1758 28.4936C10.7714 27.6022 11.0894 26.5542 11.0894 25.4821C11.0851 24.0457 10.5127 22.6694 9.49704 21.6537C8.48138 20.6381 7.10505 20.0656 5.6687 20.0614ZM5.6687 28.9895C4.97499 28.9895 4.29685 28.7838 3.72005 28.3984C3.14325 28.013 2.69368 27.4652 2.42821 26.8243C2.16274 26.1834 2.09328 25.4782 2.22862 24.7978C2.36395 24.1174 2.69801 23.4924 3.18854 23.0019C3.67907 22.5114 4.30404 22.1773 4.98443 22.042C5.66481 21.9066 6.37005 21.9761 7.01096 22.2416C7.65186 22.507 8.19966 22.9566 8.58506 23.5334C8.97047 24.1102 9.17618 24.7883 9.17618 25.4821C9.17199 26.411 8.8011 27.3007 8.14423 27.9576C7.48736 28.6145 6.59765 28.9853 5.6687 28.9895ZM0.535025 12.6957L3.03809 10.1767L0.535025 7.65767C0.357433 7.48008 0.257663 7.23922 0.257663 6.98806C0.257663 6.73691 0.357433 6.49605 0.535025 6.31845C0.712616 6.14086 0.953482 6.04109 1.20463 6.04109C1.45579 6.04109 1.69665 6.14086 1.87424 6.31845L4.39325 8.82152L6.91226 6.31845C7.08985 6.14086 7.33072 6.04109 7.58187 6.04109C7.83302 6.04109 8.07389 6.14086 8.25148 6.31845C8.42907 6.49605 8.52884 6.73691 8.52884 6.98806C8.52884 7.23922 8.42907 7.48008 8.25148 7.65767L5.74842 10.1767L8.25148 12.6957C8.42907 12.8733 8.52884 13.1141 8.52884 13.3653C8.52884 13.6165 8.42907 13.8573 8.25148 14.0349C8.07389 14.2125 7.83302 14.3123 7.58187 14.3123C7.33072 14.3123 7.08985 14.2125 6.91226 14.0349L4.39325 11.5318L1.87424 14.0349C1.69665 14.2125 1.45579 14.3123 1.20463 14.3123C0.953482 14.3123 0.712616 14.2125 0.535025 14.0349C0.357433 13.8573 0.257663 13.6165 0.257663 13.3653C0.257663 13.1141 0.357433 12.8733 0.535025 12.6957ZM29.9341 28.0011C30.1117 28.1787 30.2115 28.4195 30.2115 28.6707C30.2115 28.9218 30.1117 29.1627 29.9341 29.3403C29.7565 29.5179 29.5156 29.6176 29.2645 29.6176C29.0133 29.6176 28.7725 29.5179 28.5949 29.3403L26.0759 26.8372L23.5569 29.3403C23.3793 29.5179 23.1384 29.6176 22.8872 29.6176C22.6361 29.6176 22.3952 29.5179 22.2176 29.3403C22.04 29.1627 21.9403 28.9218 21.9403 28.6707C21.9403 28.4195 22.04 28.1787 22.2176 28.0011L24.7207 25.4821L22.2176 22.963C22.1297 22.8751 22.0599 22.7707 22.0124 22.6558C21.9648 22.5409 21.9403 22.4178 21.9403 22.2934C21.9403 22.1691 21.9648 22.0459 22.0124 21.931C22.0599 21.8162 22.1297 21.7118 22.2176 21.6238C22.3056 21.5359 22.41 21.4661 22.5249 21.4185C22.6397 21.371 22.7629 21.3465 22.8872 21.3465C23.0116 21.3465 23.1347 21.371 23.2496 21.4185C23.3645 21.4661 23.4689 21.5359 23.5569 21.6238L26.0759 24.1269L28.5949 21.6238C28.7725 21.4462 29.0133 21.3465 29.2645 21.3465C29.5156 21.3465 29.7565 21.4462 29.9341 21.6238C30.1117 21.8014 30.2115 22.0423 30.2115 22.2934C30.2115 22.5446 30.1117 22.7855 29.9341 22.963L27.431 25.4821L29.9341 28.0011ZM22.6481 13.4131C21.6915 16.8728 18.742 19.8541 15.4737 20.6672L15.2346 20.6991C15.0027 20.6977 14.7793 20.6122 14.6058 20.4585C14.4323 20.3047 14.3206 20.0932 14.2913 19.8632C14.2621 19.6332 14.3174 19.4004 14.4469 19.2082C14.5764 19.0159 14.7713 18.8772 14.9954 18.8178C17.5941 18.1642 20.0494 15.6771 20.8146 12.903C21.3408 10.9898 21.3567 8.08814 18.3913 5.10678L17.4666 4.19802V8.26351C17.4666 8.51721 17.3658 8.76052 17.1864 8.93992C17.007 9.11931 16.7637 9.2201 16.51 9.2201C16.2563 9.2201 16.013 9.11931 15.8336 8.93992C15.6542 8.76052 15.5534 8.51721 15.5534 8.26351V1.88627C15.5534 1.63257 15.6542 1.38926 15.8336 1.20986C16.013 1.03047 16.2563 0.929688 16.51 0.929688H22.8872C23.1409 0.929688 23.3843 1.03047 23.5637 1.20986C23.743 1.38926 23.8438 1.63257 23.8438 1.88627C23.8438 2.13998 23.743 2.38329 23.5637 2.56268C23.3843 2.74208 23.1409 2.84286 22.8872 2.84286H18.8218L19.7305 3.76756C22.5684 6.58949 23.6047 10.0173 22.6481 13.4131Z" fill="black"/>
</svg>
