<svg xmlns="http://www.w3.org/2000/svg" xmlns:svgjs="http://svgjs.com/svgjs" xmlns:xlink="http://www.w3.org/1999/xlink" width="288" height="288"><svg xmlns="http://www.w3.org/2000/svg" width="288" height="288" viewBox="0 0 37.69 36.202"><g class="color000 svgShape" data-name="Group 66067"><g class="color000 svgShape" data-name="Group 66068" transform="translate(.1 .102)"><path fill="#1b1464" stroke="#1b1464" stroke-width=".2" d="M47.139,27.732a1.006,1.006,0,0,0-1.006-1.006V26.9l-.005-.008v-.177H37.008a1.01,1.01,0,0,0,.007,2.021H39.69a2.3,2.3,0,0,1,1.852,1.3H37.008a1.005,1.005,0,1,0,0,2.01h4.539a2.3,2.3,0,0,1-2.057,1.306H37.008a1.008,1.008,0,0,0-.712,1.72l4.973,4.975a1.006,1.006,0,1,0,1.425-1.422l-3.252-3.259h.044a4.379,4.379,0,0,0,3.131-1.075,4.277,4.277,0,0,0,1.334-2.245h2.174a1.005,1.005,0,1,0,0-2.01H43.953a4.3,4.3,0,0,0-.543-1.3h2.722a1.006,1.006,0,0,0,1.006-1.006" class="color2d77f4 svgShape colorStroke2d77f4 svgStroke" data-name="Path 29171" transform="translate(-26.214 -19.454)"/><path fill="#1b1464" stroke="#1b1464" stroke-width=".2" d="M36.468,62.289c-2.038-.006-4.124-.006-6.2,0a1.067,1.067,0,0,0-1.072.977,1.081,1.081,0,0,0,.85,1.127,2.609,2.609,0,0,0,.56.053c1.064,0,2.128,0,3.193,0l-2.834,2.836q-3.392,3.393-6.779,6.79a.738.738,0,0,1-.071.064.777.777,0,0,1-.078-.071q-2.173-2.195-4.363-4.373l-.808-.807a1.1,1.1,0,0,0-1.64-.189L.678,79.224a1.942,1.942,0,0,0-.636.592L0,79.882v.826l.063.076a1.256,1.256,0,0,0,.943.567,1.558,1.558,0,0,0,.809-.292q1.431-.9,2.858-1.815l3.066-1.952c3.232-2.057,6.575-4.184,9.856-6.286.2-.127.229-.123.407.058,1.281,1.3,2.593,2.609,3.862,3.876L23.12,76.2c.732.732,1.253.731,1.99-.007l2.065-2.065q4.075-4.075,8.151-8.148v.337c0,.944,0,1.878,0,2.811a2.9,2.9,0,0,0,.039.553,1.065,1.065,0,0,0,2.118-.195q.009-3.083,0-6.166a.993.993,0,0,0-1.017-1.027" class="color2d77f4 svgShape colorStroke2d77f4 svgStroke" data-name="Path 29172" transform="translate(0 -45.351)"/><path fill="#1b1464" stroke="#1b1464" stroke-width=".2" d="M10.16,23.538a12.953,12.953,0,0,0,3.662,2.231,1.4,1.4,0,0,0,.523.108,1.073,1.073,0,0,0,1.011-1.355,1.3,1.3,0,0,0-.768-.775A11.222,11.222,0,0,1,20.34,2.257,11.029,11.029,0,0,1,27.507,6.2a11.207,11.207,0,0,1,.558,13.658,12.19,12.19,0,0,1-2.807,2.8,1.186,1.186,0,0,0-.5.76,1.044,1.044,0,0,0,.191.782,1.06,1.06,0,0,0,1.544.222c.066-.042.131-.087.194-.135a13.375,13.375,0,0,0,5.6-10.522v-.013A13.357,13.357,0,0,0,28.417,4.01,12.961,12.961,0,0,0,16.8.171a12.8,12.8,0,0,0-8.1,4.552A13.018,13.018,0,0,0,5.6,14.977a13,13,0,0,0,4.557,8.561" class="color2d77f4 svgShape colorStroke2d77f4 svgStroke" data-name="Path 29173" transform="translate(-4.007)"/></g></g></svg></svg>