<svg id="Group_25090" data-name="Group 25090" xmlns="http://www.w3.org/2000/svg" xmlns:xlink="http://www.w3.org/1999/xlink" width="34.573" height="36" viewBox="0 0 34.573 36">
  <defs>
    <clipPath id="clip-path">
      <rect id="Rectangle_3022" data-name="Rectangle 3022" width="34.573" height="36" fill="#666"/>
    </clipPath>
  </defs>
  <g id="Group_24885" data-name="Group 24885" clip-path="url(#clip-path)">
    <path id="Path_27956" data-name="Path 27956" d="M26.051,19.349a1.189,1.189,0,0,0-.564-.718.924.924,0,0,0-.723-.046,1.014,1.014,0,0,0-.635,1.354A21.412,21.412,0,0,1,25.08,24.7a12.22,12.22,0,0,1-.439,4.812,5.948,5.948,0,0,1-5.971,4.5h-.152c-2.086-.037-4.206-.029-6.256-.022-1.3,0-2.651.009-3.976,0a5.646,5.646,0,0,1-5.443-3.652,11.6,11.6,0,0,1-.716-6.208,20.248,20.248,0,0,1,2.457-7.756,15.062,15.062,0,0,1,4.613-5.275,1.065,1.065,0,0,1,.635-.2h0c2.486.008,5.006.008,7.492,0h0a1.036,1.036,0,0,1,.634.2A13.648,13.648,0,0,1,20.2,13.041a1.033,1.033,0,0,0,1.515.185.971.971,0,0,0,.346-.684,1.208,1.208,0,0,0-.371-.867,13.8,13.8,0,0,0-1.4-1.334,2.459,2.459,0,0,0-.459-4.18c.691-.541,1.488-1.169,2.251-1.809a2.418,2.418,0,0,0,.706-2.74A2.4,2.4,0,0,0,20.606,0C16.043,0,11.317,0,6.561,0a2.237,2.237,0,0,0-1.8.909,2.466,2.466,0,0,0,.442,3.55c.726.6,1.476,1.192,2.124,1.7a2.456,2.456,0,0,0-.463,4.178l.009.007-.013.011a17.928,17.928,0,0,0-4.2,5.357,22.573,22.573,0,0,0-2.6,8.766,13.139,13.139,0,0,0,.969,6.762,7.782,7.782,0,0,0,4.812,4.427,8.491,8.491,0,0,0,.969.227c.154.03.313.061.467.095L7.312,36H19.849l.025-.006.078-.019c.049-.012.1-.024.14-.03a7.441,7.441,0,0,0,2.969-1.076,8.712,8.712,0,0,0,3.658-5.287,14.258,14.258,0,0,0,.374-5.065,22.659,22.659,0,0,0-1.042-5.169M8.469,7.931c.471-.006.95-.005,1.414,0h4.261q2.257,0,4.515,0h0a.491.491,0,0,1,.528.311.413.413,0,0,1-.112.485.637.637,0,0,1-.5.155H8.7a1.87,1.87,0,0,1-.313-.015.468.468,0,1,1,.083-.931M20.9,2.58a.441.441,0,0,1-.183.285l-1.6,1.284q-1.051.84-2.1,1.683a.4.4,0,0,1-.274.071h-.092c-2.037,0-4.144,0-6.216,0a.53.53,0,0,1-.359-.132q-.925-.744-1.853-1.484Q7.359,3.6,6.5,2.914c-.311-.25-.281-.46-.221-.615.068-.173.181-.28.534-.28h0c1.7,0,3.429,0,5.1,0h3.655q2.4,0,4.793,0a.577.577,0,0,1,.452.16.493.493,0,0,1,.082.4" transform="translate(0 0)" fill="#666"/>
    <path id="Path_27957" data-name="Path 27957" d="M237.339,96.773a.942.942,0,0,0-.926-.959c-1.486-.011-3.027-.01-4.58,0a.985.985,0,0,0-.945.887,1.024,1.024,0,0,0,.726,1.061,2.058,2.058,0,0,0,.617.064h1.662l-.46.458q-1.234,1.231-2.466,2.463l-.009.008a.806.806,0,0,1-.085-.039l-.3-.152c-.6-.3-1.211-.608-1.819-.907a1,1,0,0,0-1.355.221q-1.467,1.462-2.93,2.929l-.6.6a1.619,1.619,0,0,0-.186.21.935.935,0,0,0-.082,1.024.977.977,0,0,0,.858.55h.05a1.176,1.176,0,0,0,.846-.422l.822-.82c.665-.662,1.352-1.347,2.019-2.03.174-.179.244-.192.435-.086.437.243.891.465,1.331.68q.252.123.5.248a1.132,1.132,0,0,0,1.592-.254l1.405-1.4q.928-.928,1.857-1.855,0,.271,0,.543c0,.473,0,.962.009,1.444a1.008,1.008,0,0,0,.994,1.012h.013a1,1,0,0,0,1-1c.015-1.377.017-2.841.005-4.477" transform="translate(-202.774 -86.928)" fill="#666"/>
    <path id="Path_27958" data-name="Path 27958" d="M102.078,181.36H92.83a.84.84,0,1,0,0,1.681h2.521a2.523,2.523,0,0,1,0,5.046H92.83a.844.844,0,0,0-.6,1.436l5.046,5.046a.842.842,0,1,0,1.191-1.191l-3.606-3.61h.49a4.206,4.206,0,1,0,.35-8.4q-.175-.007-.35,0H92.834a.84.84,0,1,0,0,1.681h9.248a.84.84,0,1,0,0-1.681" transform="translate(-83.466 -164.555)" fill="#666"/>
    <path id="Path_27959" data-name="Path 27959" d="M92.831,219.359h9.248a.84.84,0,1,0,0-1.681H92.831a.84.84,0,1,0,0,1.681" transform="translate(-83.467 -197.508)" fill="#666"/>
  </g>
</svg>
