<svg xmlns="http://www.w3.org/2000/svg" width="22.706" height="24.531" viewBox="0 0 22.706 24.531">
  <g id="Group_24307" data-name="Group 24307" transform="translate(0.251 0.266)">
    <g id="Group_24308" data-name="Group 24308" transform="translate(0 0)">
      <g id="Group_24305" data-name="Group 24305">
        <g id="Group_24309" data-name="Group 24309">
          <path id="Path_27711" data-name="Path 27711" d="M62.8,15.321a7.561,7.561,0,0,0-9.352-6.226c-.316.078-.329.074-.33-.255q0-1.372,0-2.743c0-.692-.076-.769-.757-.769H51.228a.459.459,0,0,1,.178-.256c1.22-1.223,2.447-2.439,3.659-3.669.2-.2.316-.19.509.006,1.213,1.229,2.439,2.447,3.659,3.669.061.062.152.108.163.251-.445,0-.884,0-1.323,0-.4,0-.552.151-.554.554,0,.822,0,.644,0,1.466,0,.367.167.561.467.556s.445-.193.447-.546c0-.609.008-.219,0-.828,0-.215.066-.295.286-.291.619.011,1.238,0,1.857.005a.459.459,0,0,0,.489-.287.468.468,0,0,0-.128-.531Q58.3,2.8,55.679.178a.459.459,0,0,0-.729,0Q52.33,2.8,49.716,5.412a.482.482,0,0,0-.142.552.463.463,0,0,0,.492.281c.581-.005,1.163,0,1.745,0,.387,0,.388,0,.388.375,0,.859-.009,1.719.006,2.577a.465.465,0,0,1-.3.489A7.562,7.562,0,1,0,62.8,15.321M55.313,23.2a6.773,6.773,0,1,1,6.774-6.773A6.773,6.773,0,0,1,55.313,23.2" transform="translate(-44.215 0)" fill="#2d77f4" stroke="#2d77f4" stroke-width="0.5"/>
          <path id="Path_27712" data-name="Path 27712" d="M2.688,86.946c0,.443,0,.886,0,1.329,0,.341-.176.537-.46.539s-.448-.2-.449-.544c0-.886,0-1.772,0-2.657,0-.078.04-.186-.045-.229s-.146.056-.209.1c-.254.184-.5.378-.756.56A.468.468,0,0,1,.1,85.979.457.457,0,0,1,.2,85.319c.571-.438,1.15-.865,1.726-1.3a.463.463,0,0,1,.591-.013c.587.432,1.172.866,1.747,1.314a.452.452,0,0,1,.095.661.462.462,0,0,1-.667.057c-.263-.187-.517-.387-.779-.576-.055-.04-.108-.129-.188-.081s-.04.135-.04.205c0,.452,0,.9,0,1.356" transform="translate(0 -77.696)" fill="#2d77f4" stroke="#2d77f4" stroke-width="0.5"/>
          <path id="Path_27713" data-name="Path 27713" d="M242.221,85.776c0-.443,0-.886,0-1.329,0-.34-.177-.536-.462-.537s-.446.2-.447.546c0,.886,0,1.772,0,2.657,0,.078.04.186-.046.228s-.146-.058-.209-.1c-.254-.184-.5-.378-.756-.56a.469.469,0,0,0-.667.069.457.457,0,0,0,.109.659c.571.438,1.15.865,1.726,1.3a.463.463,0,0,0,.591.011c.587-.432,1.172-.867,1.747-1.314a.451.451,0,0,0,.093-.661.464.464,0,0,0-.667-.055c-.226.16-.441.335-.667.494-.093.065-.18.214-.3.156-.1-.049-.04-.2-.041-.31,0-.415,0-.83,0-1.246" transform="translate(-221.795 -77.696)" fill="#2d77f4" stroke="#2d77f4" stroke-width="0.5"/>
          <path id="Path_27715" data-name="Path 27715" d="M85.355,154.687a4.429,4.429,0,0,0-2.65,2.653,1.157,1.157,0,0,1-.142.267.389.389,0,0,1-.473.121.349.349,0,0,1-.242-.364,1.551,1.551,0,0,1,.21-.681,5.256,5.256,0,0,1,3-2.789,1.72,1.72,0,0,1,.246-.064c.277-.016.41.073.483.26a.367.367,0,0,1-.158.457,1.092,1.092,0,0,1-.269.14" transform="translate(-75.786 -142.437)" fill="#2d77f4" stroke="#2d77f4" stroke-width="0.5"/>
          <path id="Path_27716" data-name="Path 27716" d="M128.666,175.256c-.215.095-.308.2-.285.431a.773.773,0,0,1-.022.247.407.407,0,0,1-.425.361.39.39,0,0,1-.407-.409.662.662,0,0,0-.464-.721,1.656,1.656,0,0,1-.868-1.371.461.461,0,0,1,.367-.534.419.419,0,0,1,.468.375,1.111,1.111,0,0,0,.295.669.852.852,0,0,0,.945.2.894.894,0,0,0-.254-1.725,1.929,1.929,0,0,1-1.26-.492,1.738,1.738,0,0,1,.436-2.854.466.466,0,0,0,.324-.5c-.013-.33.167-.544.415-.556s.451.205.447.555a.461.461,0,0,0,.314.5,1.689,1.689,0,0,1,1,1.4.476.476,0,0,1-.367.587c-.241.032-.441-.16-.483-.461a.894.894,0,0,0-1.786.007.886.886,0,0,0,.8.931,2.217,2.217,0,0,1,.858.2,1.674,1.674,0,0,1,.986,1.582,1.65,1.65,0,0,1-1.031,1.577" transform="translate(-116.845 -155.908)" fill="#2d77f4" stroke="#2d77f4" stroke-width="0.5"/>
          <path id="Path_27717" data-name="Path 27717" d="M168.812,236.832a1.49,1.49,0,0,1-.19.63,5.252,5.252,0,0,1-3.044,2.849.538.538,0,0,1-.576-.039.4.4,0,0,1-.11-.408c.048-.222.24-.292.421-.359a4.472,4.472,0,0,0,2.615-2.583,1.439,1.439,0,0,1,.175-.343.353.353,0,0,1,.435-.147.376.376,0,0,1,.273.4" transform="translate(-152.669 -218.899)" fill="#2d77f4" stroke="#2d77f4" stroke-width="0.5"/>
        </g>
      </g>
    </g>
  </g>
</svg>
