<svg xmlns="http://www.w3.org/2000/svg" width="36.286" height="36.101" viewBox="0 0 36.286 36.101">
  <g id="Group_25091" data-name="Group 25091" transform="translate(0.075 0.051)">
    <g id="Group_66283" data-name="Group 66283" transform="translate(0 0)">
      <path id="Path_27960" data-name="Path 27960" d="M194.161,56.719h-1.822a3.475,3.475,0,0,0-.437-1.044h2.262a.823.823,0,0,0,0-1.645v.15l0,0v-.15h-7.4a.824.824,0,0,0,0,1.648h2.119a1.869,1.869,0,0,1,1.57,1.044h-3.692a.823.823,0,1,0,0,1.645h3.69a1.868,1.868,0,0,1-1.674,1.044h-2.018a.825.825,0,0,0-.582,1.405l4.036,4.036a.824.824,0,1,0,1.165-1.165l-2.628-2.631h.023a3.516,3.516,0,0,0,3.564-2.689h1.82a.823.823,0,0,0,0-1.645" transform="translate(-167.312 -48.614)" fill="#666" stroke="gray" stroke-width="0.1"/>
      <path id="Path_27961" data-name="Path 27961" d="M127.734,12.781a10.193,10.193,0,0,0,6.8,7.069,1.106,1.106,0,0,0,.648-2.115,7.923,7.923,0,0,1-5.567-7.5,0,0,0,0,1,0,0c0-.03,0-.06,0-.09a7.516,7.516,0,0,1,.3-2.146q.02-.071.042-.141a7.931,7.931,0,0,1,9.554-5.363l.038.01a7.907,7.907,0,0,1,5.542,5.273c.007.022.013.044.02.066A7.931,7.931,0,0,1,139.9,17.73a1.122,1.122,0,0,0,.662,2.145A10.169,10.169,0,1,0,127.752,7.4c-.173.621-.259,1.267-.386,1.9v1.65c.12.61.2,1.23.368,1.828" transform="translate(-114.605 -0.001)" fill="#666" stroke="gray" stroke-width="0.1"/>
      <path id="Path_27962" data-name="Path 27962" d="M27.006,92.194a1.139,1.139,0,0,0-1.515-.637c-.436.151-.867.321-1.306.461-.66.21-1.328.4-2.023.612-.835-4.192-1.657-8.324-2.487-12.495.63,0,1.216.012,1.8,0a1.119,1.119,0,0,0,.216-2.214,2.226,2.226,0,0,0-.484-.03h-5.56a1.134,1.134,0,0,0,0,2.268h1.736c.148.752.29,1.472.436,2.214H8.8c-.206-.718-.418-1.453-.636-2.214h2.944a1.134,1.134,0,1,0,0-2.268H7.53c-.039-.11-.072-.191-.1-.276Q6.57,74.59,5.706,71.565C5.32,70.21,4.939,68.852,4.544,67.5a1.126,1.126,0,0,0-1.17-.858,1.081,1.081,0,0,0-1.013.9,1.9,1.9,0,0,0,.081.768q2.116,7.454,4.242,14.905a1.659,1.659,0,0,1,.029.729C6.489,85.157,6.239,86.368,6,87.58c-.331,1.663-.662,3.326-1,5.034-.143-.033-.241-.049-.335-.078q-1.551-.491-3.1-.989a1.137,1.137,0,0,0-1.494.679A1.116,1.116,0,0,0,.8,93.661a36.08,36.08,0,0,0,9.465,2.149,36.4,36.4,0,0,0,7.932-.141,35.216,35.216,0,0,0,8.084-2.006,1.121,1.121,0,0,0,.728-1.469m-19.813.92c.561-2.827,1.117-5.626,1.677-8.449H18.28c.558,2.8,1.115,5.6,1.682,8.446a34.315,34.315,0,0,1-12.77,0" transform="translate(0 -59.962)" fill="#666" stroke="gray" stroke-width="0.1"/>
      <path id="Path_27963" data-name="Path 27963" d="M360.923,76.84v.023c0-.03,0-.06,0-.09,0,.022,0,.045,0,.067" transform="translate(-324.762 -69.081)" fill="#666" stroke="gray" stroke-width="0.1"/>
    </g>
  </g>
</svg>
