<svg xmlns="http://www.w3.org/2000/svg" xmlns:svgjs="http://svgjs.com/svgjs" xmlns:xlink="http://www.w3.org/1999/xlink" width="288" height="288"><svg xmlns="http://www.w3.org/2000/svg" width="288" height="288" data-name="Group 20619" viewBox="0 0 35.215 42"><g class="color000 svgShape" data-name="Group 20620"><path fill="#1b1464" d="M23.519,400.487c-.13,0-.231,0-.333,0-1.916-.029-3.832-.055-5.748-.088a8.78,8.78,0,0,1-3.759-.99c-.658-.325-1.333-.615-1.985-.951a8.983,8.983,0,0,0-4.083-.928c-1.586-.022-3.17-.106-4.756-.117a2.988,2.988,0,0,1-2.463-1.389,2.045,2.045,0,0,1-.326-1.15C.032,394.229,0,393.583,0,392.937q0-3.59.028-7.181a5.741,5.741,0,0,1,.137-1.244,2.169,2.169,0,0,1,.392-.771,5.308,5.308,0,0,1,.651-.655,1.88,1.88,0,0,1,1.182-.481c.666-.051,1.333-.085,2-.11,1.152-.043,2.3-.071,3.456-.112a4.04,4.04,0,0,0,1.643-.452,34.051,34.051,0,0,0,4.327-2.624c1.455-1.006,2.882-2.053,4.327-3.074.329-.233.684-.429,1.021-.651a4.273,4.273,0,0,1,3.079-.492,8.129,8.129,0,0,1,2.738.99c.6.324,1.206.643,1.784,1.006a7.3,7.3,0,0,0,3.063,1.083,18.394,18.394,0,0,1,2.011.463.845.845,0,0,1,.123.047,1.6,1.6,0,0,1,.566,2.673,3.826,3.826,0,0,1-2.21,1.1,11.25,11.25,0,0,1-7.262-.982c-.1-.053-.21-.1-.316-.155a1.16,1.16,0,0,0-.113-.037c-.046.124-.093.244-.134.366a11.8,11.8,0,0,1-2.408,4.288,10.609,10.609,0,0,1-5.875,3.37c-.179.036-.355.091-.531.141-.025.007-.044.034-.106.084.112.02.185.039.259.045a8.547,8.547,0,0,0,7.336-2.9,21.838,21.838,0,0,0,1.415-1.906c.082-.112.16-.229.248-.336a.265.265,0,0,1,.373-.068.342.342,0,0,1,.073.282,3.918,3.918,0,0,0,.232,2.268c.083.192.021.259-.149.342a2.569,2.569,0,0,0-1.526,1.9,6.768,6.768,0,0,0-.011,1.647,2.438,2.438,0,0,0,.746,1.344,2.144,2.144,0,0,0,.155.156c.32.306.324.308.123.691a3.284,3.284,0,0,0,.767,3.922.246.246,0,0,1,.079.38,3.519,3.519,0,0,0-.24,2.936c.025.074.04.152.067.258" class="color2D77F4 svgShape" data-name="Path 27473" transform="translate(0 -358.488)"/><path fill="#1b1464" d="M275.9.042c.5.112.942.221,1.392.313A17.406,17.406,0,0,0,280.622.7c1.894.019,3.788.029,5.682,0a15.681,15.681,0,0,0,3.841-.6L290.552,0c-.05.147-.081.263-.128.372A35.675,35.675,0,0,0,288.205,7.8a44.48,44.48,0,0,0-.768,6.508c-.01.22-.041.439-.044.659,0,.2-.082.269-.284.232-.411-.076-.823-.157-1.238-.2a8.331,8.331,0,0,0-4.172.661c-.18.076-.362.147-.581.236-.072-.42-.143-.806-.2-1.194a41.683,41.683,0,0,0-3.8-12.388c-.34-.683-.717-1.347-1.077-2.02-.038-.07-.074-.142-.134-.257m5.9,8.923a3.631,3.631,0,0,0,.651,2.159,1.756,1.756,0,0,0,3.007-.05,3.61,3.61,0,0,0,.632-1.851,3.56,3.56,0,0,0-.658-2.474,1.838,1.838,0,0,0-1.438-.783,1.764,1.764,0,0,0-1.554.843,3.7,3.7,0,0,0-.64,2.156" class="color2D77F4 svgShape" data-name="Path 27474" transform="translate(-263.748 -.001)"/><path fill="#1b1464" d="M148.137,149.869a31.164,31.164,0,0,0-8.352-11.531l.043-.06c.121.026.242.057.364.076a32.419,32.419,0,0,0,5.261.4c.271,0,.542-.04.813-.043a.259.259,0,0,1,.2.115,36.409,36.409,0,0,1,3.279,9.587.436.436,0,0,1-.23.529c-.459.288-.9.6-1.374.927" class="color2D77F4 svgShape" data-name="Path 27475" transform="translate(-133.626 -132.185)"/><path fill="#1b1464" d="M567.833,117.214l-.629-.334c-.382-.2-.759-.419-1.148-.607a.339.339,0,0,1-.215-.392,35.209,35.209,0,0,1,1.854-9.071c.071-.208.15-.414.21-.626.041-.144.122-.183.267-.2,1.066-.1,2.135-.184,3.193-.336a18.64,18.64,0,0,0,1.9-.451c.16-.04.312-.114.541-.2a3.514,3.514,0,0,1-.171.315,49.884,49.884,0,0,0-3.038,4.847,27.256,27.256,0,0,0-2.544,6.333c-.058.231-.142.456-.224.717" class="color2D77F4 svgShape" data-name="Path 27476" transform="translate(-540.907 -100.375)"/><path fill="#1b1464" d="M534.53,684.01q-2.322-.045-4.644-.09a1.154,1.154,0,0,1-.985-.569,1.628,1.628,0,0,1,.036-1.769,1.2,1.2,0,0,1,1.028-.537c1.541-.008,3.082-.031,4.623-.033s3.086-.043,4.622.044c1.006.057,1.507.615,1.335,1.566a1.7,1.7,0,0,1-.531.967,1.171,1.171,0,0,1-.794.33q-2.344.043-4.689.091" class="color2D77F4 svgShape" data-name="Path 27477" transform="translate(-505.363 -650.994)"/><path fill="#1b1464" d="M551.4,782.939c1.269.029,2.538.085,3.807.079,1.39-.006,1.513,1.3.982,2.053a1.8,1.8,0,0,1-1.52.825c-2.37-.009-4.741-.012-7.111-.039a1.37,1.37,0,0,1-1.326-1.92,1.222,1.222,0,0,1,1.227-.948c1.313-.016,2.627,0,3.94,0,0-.015,0-.031,0-.046" class="color2D77F4 svgShape" data-name="Path 27478" transform="translate(-522.078 -748.441)"/><path fill="#1b1464" d="M566.718,581.67q-1.685,0-3.37,0c-.117,0-.235-.007-.352-.017a1.318,1.318,0,0,1-1.291-1.339,1.471,1.471,0,0,1,.619-1.319,1.174,1.174,0,0,1,.63-.2c1.615-.022,3.23-.021,4.845-.024a17.923,17.923,0,0,1,2.025.023,1.727,1.727,0,0,1,1.5,2.214.928.928,0,0,1-.925.623c-1.225.03-2.451.055-3.677.082,0-.013,0-.026,0-.039" class="color2D77F4 svgShape" data-name="Path 27479" transform="translate(-536.953 -553.247)"/><path fill="#1b1464" d="M566.553,889.246c-.785,0-1.569.012-2.354,0a1.268,1.268,0,0,1-1.3-1.052,1.518,1.518,0,0,1,.716-1.717,1.232,1.232,0,0,1,.528-.126q2.628,0,5.257.034a1.528,1.528,0,0,1,1,.406.846.846,0,0,1,.267.5,1.751,1.751,0,0,1-1.711,1.957q-.6.029-1.209.04c-.4.007-.792,0-1.188,0v-.041" class="color2D77F4 svgShape" data-name="Path 27480" transform="translate(-538.05 -847.293)"/></g></svg></svg>