<svg xmlns="http://www.w3.org/2000/svg" xmlns:svgjs="http://svgjs.com/svgjs" xmlns:xlink="http://www.w3.org/1999/xlink" width="288" height="288"><svg xmlns="http://www.w3.org/2000/svg" width="288" height="288" data-name="Group 20592" viewBox="0 0 30.148 36.713"><defs><clipPath id="a"><rect width="30.148" height="36.713" fill="#1b1464" class="color2D77F4 svgShape" data-name="Rectangle 2570"/></clipPath></defs><g class="color000 svgShape" clip-path="url(#a)" data-name="Group 20591"><path fill="#1b1464" d="M30.141,16.917a4.268,4.268,0,0,0-.107-.992A4.386,4.386,0,0,0,25.574,12.6a24.052,24.052,0,0,0-.129-3.158,10.794,10.794,0,0,0-3.782-7.322A10.2,10.2,0,0,0,14.53.01,9.408,9.408,0,0,0,5.784,5.7,14.93,14.93,0,0,0,4.525,12.6C1.655,12.727,0,14.5,0,17.389q0,7.327,0,14.653c0,2.932,1.739,4.662,4.69,4.666q5.191.008,10.383,0c3.573,0,7.145.008,10.718,0a4.187,4.187,0,0,0,4.352-4.384q.01-7.7,0-15.406M20.9,19.862H17.714a2.641,2.641,0,0,1,.473.777,5.327,5.327,0,0,1,.255.842H20.9v2.228H18.279a3.871,3.871,0,0,1-.533.956,5.333,5.333,0,0,1-.755.81,5.264,5.264,0,0,1-.907.636,4.988,4.988,0,0,1-1,.424v.043a3.517,3.517,0,0,1,.668.408,4.713,4.713,0,0,1,.576.538,7.751,7.751,0,0,1,.554.69q.277.386.614.875l2.554,3.749h-4L14.1,29.62a3.912,3.912,0,0,0-.75-.94,2.831,2.831,0,0,0-.837-.516,3.4,3.4,0,0,0-.951-.217q-.505-.043-1.092-.044H9.249V25.458h2.2a3.871,3.871,0,0,0,.864-.1,3.151,3.151,0,0,0,.81-.3,2.544,2.544,0,0,0,.679-.538,2.433,2.433,0,0,0,.473-.81H9.249V21.481h5.064a2.477,2.477,0,0,0-.956-1.168,2.985,2.985,0,0,0-1.7-.451H9.249V17.417H20.9Zm-3.373-7.277c-2.872,0-5.744-.009-8.616-.006,0-.084.006-.173.01-.274a10.586,10.586,0,0,1,1.13-5.259A6.013,6.013,0,0,1,16.054,4.4,5.557,5.557,0,0,1,20.9,9.158a30.488,30.488,0,0,1,.387,3.426q-1.882,0-3.763,0" class="color2D77F4 svgShape" data-name="Path 27047"/></g></svg></svg>