<svg xmlns="http://www.w3.org/2000/svg" xmlns:svgjs="http://svgjs.com/svgjs" xmlns:xlink="http://www.w3.org/1999/xlink" width="288" height="288"><svg xmlns="http://www.w3.org/2000/svg" width="288" height="288" data-name="Group 20602" viewBox="0 0 36.59 42.879"><defs><clipPath id="a"><rect width="36.59" height="42.879" fill="#1b1464" class="color2D77F4 svgShape" data-name="Rectangle 2578"/></clipPath></defs><g class="color000 svgShape" clip-path="url(#a)" data-name="Group 20601"><path fill="#1b1464" d="M8.155,656.671H1.148A1.151,1.151,0,0,1,0,655.523v-11.1a1.151,1.151,0,0,1,1.148-1.148H8.155A1.151,1.151,0,0,1,9.3,644.426v11.1a1.151,1.151,0,0,1-1.148,1.148" class="color2D77F4 svgShape" data-name="Path 27074" transform="translate(0 -613.792)"/><rect width="1.772" height="7.204" fill="#1b1464" class="color2D77F4 svgShape" data-name="Rectangle 2576" transform="translate(25.974 .07)"/><path fill="#1b1464" d="M404.047,7.271H405.8V0l-1.748.116Z" class="color2D77F4 svgShape" data-name="Path 27075" transform="translate(-385.527)"/><rect width="1.737" height="4.309" fill="#1b1464" class="color2D77F4 svgShape" data-name="Rectangle 2577" transform="translate(22.259 .053)"/><path fill="#1b1464" d="M203.2,645.193a1.924,1.924,0,0,1,.241,0,3.3,3.3,0,0,0,1.558-.326c.823-.29,1.66-.544,2.5-.768a15.493,15.493,0,0,1,1.9-.376,13.556,13.556,0,0,1,3.858-.054c.7.106,1.4.211,2.093.351a10.939,10.939,0,0,1,1.337.376.572.572,0,0,0,.49-.076,7.807,7.807,0,0,1,4.038-1.04,2.541,2.541,0,0,1,2.084,1.12l.025.038c.267.434.245.5-.2.735-.329.171-.656.346-.978.529-.138.078-.227.078-.271-.093a.51.51,0,0,0-.049-.1c-.209-.4-.191-.443.244-.574.092-.028.183-.058.277-.088-.024-.138-.038-.251-.065-.361s-.063-.2-.116-.368l-1.5.625.649,1.4a2.553,2.553,0,0,1-1.6.7c-.537.055-1.072.146-1.6.246q-1.1.206-2.19.453a1.152,1.152,0,0,0-.854.538,7.774,7.774,0,0,1-.611.872c-.1.128-.085.2.059.283a5.208,5.208,0,0,1,.431.3c.239-.339.481-.655.693-.991a.833.833,0,0,1,.53-.317,11.475,11.475,0,0,1,3.986-.355c.3.012.609.015.914.014.247,0,1.447.042,1.808.065a1.369,1.369,0,0,0,1.181-.493c1.366-1.438,2.767-2.843,4.153-4.262a3.624,3.624,0,0,1,.621-.516,1.146,1.146,0,0,1,.372-.085,1.115,1.115,0,0,1,1.135.644,1.135,1.135,0,0,1-.1,1.23q-1.63,2.376-3.263,4.752c-.248.362-.485.732-.743,1.086a2.545,2.545,0,0,1-1.778,1.026c-1.084.164-2.157.392-3.236.592-.734.136-1.466.278-2.2.4-.2.033-.411-.031-.607.005-.621.115-1.236.257-1.854.388-.945.2-1.887.416-2.835.6s-1.915.371-2.879.512a15.564,15.564,0,0,1-3.835.154,2.59,2.59,0,0,1-1.59-.612.369.369,0,0,0-.231-.054c-.656,0-1.312,0-1.985,0Z" class="color2D77F4 svgShape" data-name="Path 27076" transform="translate(-193.885 -613.14)"/><path fill="#1b1464" d="M597.005,597.751c.278-.174.547-.363.834-.52.688-.378,1.385-.738,2.073-1.116a.294.294,0,0,0,.111-.217,1.976,1.976,0,0,0-.266-1.092c-.069-.117-.076-.194.039-.29,1.341-1.131,2.677-2.269,4.019-3.4a1.186,1.186,0,0,1,1.4-.029,1.166,1.166,0,0,1,.421,1.337c-.058.171-.161.138-.263.119a1.593,1.593,0,0,0-1.132.149,4.206,4.206,0,0,0-.808.647c-1.442,1.464-2.871,2.94-4.308,4.408a.347.347,0,0,1-.216.1c-.624.008-1.248,0-1.872,0l-.032-.106" class="color2D77F4 svgShape" data-name="Path 27077" transform="translate(-569.64 -563.789)"/><path fill="#1b1464" d="M608.241,577.672a3.79,3.79,0,0,0-1.749-.833c.332-.294.623-.555.918-.811.771-.669,1.549-1.329,2.314-2a1.16,1.16,0,0,1,1.944.56.286.286,0,0,1-.063.229q-1.594,1.367-3.2,2.72l-.166.138" class="color2D77F4 svgShape" data-name="Path 27078" transform="translate(-578.692 -547.394)"/><path fill="#1b1464" d="M100.19,699.19a.855.855,0,0,1,.878.87.88.88,0,0,1-.885.878.892.892,0,0,1-.872-.871.87.87,0,0,1,.88-.877" class="color2D77F4 svgShape" data-name="Path 27079" transform="translate(-94.758 -667.137)"/><path fill="#1b1464" d="M317.585,199.334a8.466,8.466,0,1,0,8.466,8.466,8.466,8.466,0,0,0-8.466-8.466M320.9,204.8h-1.813a1.5,1.5,0,0,1,.269.442,3.027,3.027,0,0,1,.145.48h1.4v1.269h-1.491a2.208,2.208,0,0,1-.3.545,3.022,3.022,0,0,1-.947.823,2.835,2.835,0,0,1-.569.241v.025a2,2,0,0,1,.381.232,2.687,2.687,0,0,1,.328.306,4.391,4.391,0,0,1,.316.393q.158.22.35.5l1.454,2.135h-2.278l-1.114-1.832a2.229,2.229,0,0,0-.427-.535,1.613,1.613,0,0,0-.477-.294,1.942,1.942,0,0,0-.542-.124q-.288-.025-.622-.025h-.693v-1.393h1.25a2.208,2.208,0,0,0,.492-.056,1.8,1.8,0,0,0,.461-.173,1.448,1.448,0,0,0,.387-.306,1.389,1.389,0,0,0,.269-.461h-2.859v-1.269h2.884a1.41,1.41,0,0,0-.545-.665,1.7,1.7,0,0,0-.965-.257h-1.374v-1.392H320.9Z" class="color2D77F4 svgShape" data-name="Path 27080" transform="translate(-294.95 -190.197)"/><path fill="#1b1464" d="M39.627,156.757a5.521,5.521,0,1,0,5.521,5.521,5.521,5.521,0,0,0-5.521-5.521m2.163,3.566H40.608a.979.979,0,0,1,.176.289,1.965,1.965,0,0,1,.095.313h.912v.827h-.973a1.439,1.439,0,0,1-.2.355,1.983,1.983,0,0,1-.28.3,1.963,1.963,0,0,1-.337.236,1.849,1.849,0,0,1-.371.157v.016a1.309,1.309,0,0,1,.248.151,1.753,1.753,0,0,1,.214.2,2.864,2.864,0,0,1,.206.256q.1.143.228.325l.948,1.392H39.99l-.726-1.195a1.453,1.453,0,0,0-.279-.349,1.052,1.052,0,0,0-.311-.192,1.266,1.266,0,0,0-.353-.081q-.188-.016-.406-.016h-.452V162.4h.815a1.441,1.441,0,0,0,.321-.036,1.174,1.174,0,0,0,.3-.113.945.945,0,0,0,.252-.2.906.906,0,0,0,.176-.3H37.464v-.827h1.881a.92.92,0,0,0-.355-.434,1.109,1.109,0,0,0-.63-.167h-.9v-.908H41.79Z" class="color2D77F4 svgShape" data-name="Path 27081" transform="translate(-32.543 -149.572)"/></g></svg></svg>