<svg xmlns="http://www.w3.org/2000/svg" xmlns:svgjs="http://svgjs.com/svgjs" xmlns:xlink="http://www.w3.org/1999/xlink" width="288" height="288"><svg xmlns="http://www.w3.org/2000/svg" width="288" height="288" data-name="Group 20621" viewBox="0 0 40.403 42"><defs><clipPath id="a"><rect width="40.403" height="42" fill="#1b1464" class="color2D77F4 svgShape" data-name="Rectangle 2596"/></clipPath></defs><g class="color000 svgShape" clip-path="url(#a)" data-name="Group 20621"><path fill="#1b1464" d="M36.353,19.447H32.282A14.016,14.016,0,0,0,27.038,7.256a13.655,13.655,0,0,0-8.556-3.121,14.083,14.083,0,0,0-7.777,26A14.085,14.085,0,0,0,29.06,27.221c.083.534.17,1.041.234,1.552a.391.391,0,0,1-.133.26,15.414,15.414,0,0,1-8.433,4.382c-.676.116-.679.1-.679.791,0,.312,0,.624,0,1.007a16.923,16.923,0,0,0,10.087-4.736l.77.715a17.98,17.98,0,0,1-20.541,3.453,18.206,18.206,0,1,1,25.988-15.2M16.634,1.221A17.158,17.158,0,0,0,1.226,16.606c.5,0,.939-.014,1.377.005.25.011.335-.073.375-.322A15.174,15.174,0,0,1,13.9,3.489c.875-.29,1.8-.417,2.737-.626Z" class="color2D77F4 svgShape" data-name="Path 27481"/><path fill="#1b1464" d="M443.036,344.9h-8.807c0-.163,0-.31,0-.456,0-1.3.038-2.606-.008-3.906a3.984,3.984,0,0,1,2.637-3.737c.142-.05.249-.2.372-.3-.123-.1-.23-.252-.372-.3a3.981,3.981,0,0,1-2.637-3.7c.04-1.359.01-2.72.006-4.08,0-.212.019-.347.294-.346,2.779.009,5.557.006,8.336.007a1.69,1.69,0,0,1,.171.021c.008.138.023.272.023.406,0,1.325-.033,2.652.01,3.976a3.954,3.954,0,0,1-2.625,3.705.392.392,0,0,0-.13.046c-.09.079-.248.18-.237.251a.506.506,0,0,0,.241.287,11.139,11.139,0,0,1,1.427.843,3.557,3.557,0,0,1,1.321,2.91c-.02,1.348,0,2.7-.005,4.046,0,.1-.01.206-.016.333" class="color2D77F4 svgShape" data-name="Path 27482" transform="translate(-403.914 -305.169)"/><path fill="#1b1464" d="M163.034,101.966l1.991,3.459h-1.074c-.012.14-.027.24-.027.339,0,1.453,0,2.907-.013,4.36a.419.419,0,0,0,.275.448,2.8,2.8,0,0,1-2.324,5.094.508.508,0,0,0-.677.147c-.822.849-1.662,1.681-2.522,2.547l.745.781-3.852,1.029,1.035-3.848.788.753c.311-.3.614-.579.907-.87.61-.606,1.209-1.223,1.823-1.825a.416.416,0,0,0,.128-.484,2.8,2.8,0,0,1,1.629-3.44.449.449,0,0,0,.248-.3c.017-1.523.013-3.046.013-4.569a.755.755,0,0,0-.036-.14H161.02l2.014-3.48" class="color2D77F4 svgShape" data-name="Path 27483" transform="translate(-144.7 -94.85)"/><path fill="#1b1464" d="M427.608,581.184c0,.37.009.716,0,1.062a.368.368,0,0,1-.384.372c-.092.008-.186,0-.279,0h-9.977c-.651,0-.706-.058-.707-.723,0-.23,0-.46,0-.716Z" class="color2D77F4 svgShape" data-name="Path 27484" transform="translate(-387.208 -540.623)"/><path fill="#1b1464" d="M416.809,297.377a1.369,1.369,0,0,1,1.383-1.437c.848-.013,1.7,0,2.544,0,1.975,0,3.95,0,5.926,0a1.368,1.368,0,0,1,1.421,1.438Z" class="color2D77F4 svgShape" data-name="Path 27485" transform="translate(-387.72 -275.28)"/></g></svg></svg>