<svg xmlns="http://www.w3.org/2000/svg" xmlns:svgjs="http://svgjs.com/svgjs" xmlns:xlink="http://www.w3.org/1999/xlink" width="288" height="288"><svg xmlns="http://www.w3.org/2000/svg" width="288" height="288" data-name="Group 20600" viewBox="0 0 52.974 31.134"><defs><clipPath id="a"><rect width="52.974" height="31.134" fill="#1b1464" class="color2D77F4 svgShape" data-name="Rectangle 2575"/></clipPath></defs><g class="color000 svgShape" clip-path="url(#a)" data-name="Group 20599"><path fill="#1b1464" d="M32.249,128.191a4.608,4.608,0,0,1-3.639,4.657,4.446,4.446,0,0,1-5.115-2.913,1.413,1.413,0,0,0-.989-.98q-10.079-3.581-20.145-7.2c-.071-.025-.137-.068-.209-.089-.554-.16-.938-.491-.763-1.1.187-.647.713-.681,1.293-.539,1.248.306,2.5.591,3.751.887q8.716,2.064,17.43,4.139a1.282,1.282,0,0,0,1.172-.243,4.523,4.523,0,0,1,7.213,3.373" class="color2D77F4 svgShape" data-name="Path 27067" transform="translate(-1.143 -101.791)"/><path fill="#1b1464" d="M236.944,21.406l-5.035,3.865a22.361,22.361,0,0,0-8.631-5.989l2.572-6.326a28.015,28.015,0,0,1,11.093,8.45" class="color2D77F4 svgShape" data-name="Path 27068" transform="translate(-189.449 -10.993)"/><path fill="#1b1464" d="M140.956,6.982c-3.514-.4-6.925-.65-10.4.343l-1.993-6.312c4.746-1.1,9.385-1.6,14.088.06l-1.7,5.909" class="color2D77F4 svgShape" data-name="Path 27069" transform="translate(-109.089 -.001)"/><path fill="#1b1464" d="M46.388,14.9l2.695,5.959a18.211,18.211,0,0,0-8.153,6.362l-5.455-3.99A29.56,29.56,0,0,1,46.388,14.9" class="color2D77F4 svgShape" data-name="Path 27070" transform="translate(-30.1 -12.641)"/><path fill="#1b1464" d="M289.291,90.365l5.616-3.335c2.205,4.174,3.709,8.471,3.51,13.267h-6.249c-.539-6.031-.821-7.012-2.877-9.932" class="color2D77F4 svgShape" data-name="Path 27071" transform="translate(-245.461 -73.844)"/><path fill="#1b1464" d="M6.67,148.051H0l.574-4.795,2.7.96c.948.337,1.9.657,2.84,1.025.217.085.513.32.528.507.061.746.025,1.5.025,2.3" class="color2D77F4 svgShape" data-name="Path 27072" transform="translate(0 -121.551)"/><path fill="#1b1464" d="M15.017,91.74l1.58-3.089,5.392,3.421c-.44,1.088-.442,1.095-1.51.864-1.788-.386-3.573-.781-5.461-1.2" class="color2D77F4 svgShape" data-name="Path 27073" transform="translate(-12.742 -75.22)"/></g></svg></svg>