<svg xmlns="http://www.w3.org/2000/svg" width="124" height="124" viewBox="0 0 124 124">
  <g id="Group_20677" data-name="Group 20677" transform="translate(-250 -1349)">
    <circle id="Ellipse_1" data-name="Ellipse 1" cx="62" cy="62" r="62" transform="translate(250 1349)" fill="#5792f6"/>
    <g id="Group_20587" data-name="Group 20587" transform="translate(-10 -83)">
      <circle id="Ellipse_4" data-name="Ellipse 4" cx="16" cy="16" r="16" transform="translate(352 1432)" fill="#fff"/>
    </g>
    <g id="Group_20627" data-name="Group 20627" transform="translate(286 1385)">
      <g id="Group_20628" data-name="Group 20628">
        <path id="Path_27495" data-name="Path 27495" d="M40.727,52c-.308-.283-.625-.556-.921-.851q-2.985-2.976-5.959-5.962a3.954,3.954,0,0,1-.331-.451c-.824.828-1.56,1.572-2.3,2.311-.816.813-1.637.6-1.958-.51-.253-.874-.5-1.749-.767-2.663h-.564q-4.291,0-8.581,0a1.068,1.068,0,0,1-1.111-.632,1.011,1.011,0,0,1,1.028-1.4c1.455-.011,2.911,0,4.367,0H27.9L25.39,33.107h-.574c-3.385,0-6.77.01-10.156,0a7.107,7.107,0,0,1-.079-14.213q10.156-.026,20.311,0a23.6,23.6,0,0,1,3.495.1A6.706,6.706,0,0,1,44.171,24a6.84,6.84,0,0,1-2.138,7.365c-.121.113-.248.22-.429.381.685.2,1.31.378,1.932.562,1.041.308,1.263,1.141.5,1.908s-1.506,1.5-2.281,2.278l3.149,3.152c.646.647,1.286,1.3,1.942,1.935a.8.8,0,0,0,.462.246c.861.024,1.723.011,2.62.011V10.18H2.056V41.842H2.59c2.42,0,4.841,0,7.261,0a1.076,1.076,0,0,1,1.061.552,1,1,0,0,1-.95,1.478c-1.455.017-2.911.005-4.367.005-1.4,0-2.81-.024-4.214.011A1.361,1.361,0,0,1,0,43.163V0H52V43.163a1.318,1.318,0,0,1-1.377.719c-.55-.04-1.1-.008-1.461-.008a6.669,6.669,0,0,1-.715,1.151q-3.2,3.247-6.439,6.451a6.822,6.822,0,0,1-.672.524ZM24.792,31.047c-.133-.463-.258-.9-.383-1.336-.13-.455-.267-.908-.387-1.366a.938.938,0,0,1,.541-1.213,1.92,1.92,0,0,1,1.025.02c4.226,1.2,8.444,2.425,12.669,3.626a1.47,1.47,0,0,0,.826-.015,5.067,5.067,0,0,0-1.762-9.842c-5.484-.014-10.967,0-16.451,0-2.132,0-4.265-.027-6.4.011a5.071,5.071,0,0,0,.137,10.14c3.266.023,6.533.006,9.8.005.114,0,.229-.016.383-.027M49.946,2.059H2.073V8.092H49.946Zm-9,47.44,5.52-5.515a3.568,3.568,0,0,1-.394-.307q-3.145-3.137-6.283-6.283a1.064,1.064,0,0,1,0-1.781c.569-.573,1.144-1.14,1.765-1.759L26.469,29.513,30.813,44.6c.616-.622,1.171-1.186,1.732-1.745.672-.67,1.154-.673,1.817-.01q2.856,2.852,5.707,5.71c.321.323.618.67.873.949" fill="#fff" stroke="#fff" stroke-width="0.5"/>
        <path id="Path_27496" data-name="Path 27496" d="M133.823,413.02a1,1,0,0,1,.991-1.009,1.013,1.013,0,1,1-.008,2.026,1,1,0,0,1-.983-1.017" transform="translate(-120.232 -370.167)" fill="#fff" stroke="#fff" stroke-width="1"/>
        <path id="Path_27497" data-name="Path 27497" d="M203.686,39.909h12.178a3.58,3.58,0,0,1,.507.014,1.01,1.01,0,0,1,.011,2,3.363,3.363,0,0,1-.506.016H191.418a4.139,4.139,0,0,1-.456-.008,1.011,1.011,0,0,1-.011-2.013,4.485,4.485,0,0,1,.507-.009h12.228" transform="translate(-170.735 -35.853)" fill="#fff" stroke="#fff" stroke-width="1"/>
        <path id="Path_27498" data-name="Path 27498" d="M55.62,41.986A1.013,1.013,0,1,1,56.633,41a1.006,1.006,0,0,1-1.014.989" transform="translate(-49.081 -35.902)" fill="#fff" stroke="#fff" stroke-width="1"/>
        <path id="Path_27499" data-name="Path 27499" d="M95.609,41.985a1.013,1.013,0,1,1,1.025-.977,1.007,1.007,0,0,1-1.025.977" transform="translate(-85.018 -35.902)" fill="#fff" stroke="#fff" stroke-width="1"/>
        <path id="Path_27500" data-name="Path 27500" d="M135.608,39.959a1.013,1.013,0,1,1-.979,1.022,1.005,1.005,0,0,1,.979-1.022" transform="translate(-120.955 -35.901)" fill="#fff" stroke="#fff" stroke-width="1"/>
      </g>
    </g>
    <path id="Path_27514" data-name="Path 27514" d="M3.314,0,0,2.329V4.465L3.156,2.233H3.3v10.45H5.572V0Z" transform="translate(355 1359)" fill="#2d77f4"/>
  </g>
</svg>
