<svg xmlns="http://www.w3.org/2000/svg" xmlns:xlink="http://www.w3.org/1999/xlink" width="124" height="124" viewBox="0 0 124 124">
  <defs>
    <clipPath id="clip-path">
      <rect id="Rectangle_2606" data-name="Rectangle 2606" width="9.51" height="13.192" transform="translate(0 0)" fill="none"/>
    </clipPath>
  </defs>
  <g id="Group_20679" data-name="Group 20679" transform="translate(-993 -1349)">
    <circle id="Ellipse_3" data-name="Ellipse 3" cx="62" cy="62" r="62" transform="translate(993 1349)" fill="#5792f6"/>
    <g id="Group_20589" data-name="Group 20589" transform="translate(733 -83)">
      <circle id="Ellipse_4" data-name="Ellipse 4" cx="16" cy="16" r="16" transform="translate(352 1432)" fill="#fff"/>
      <g id="Group_20683" data-name="Group 20683" transform="translate(363 1441)">
        <g id="Group_20682" data-name="Group 20682" clip-path="url(#clip-path)">
          <path id="Path_27516" data-name="Path 27516" d="M4.773,13.192a5.266,5.266,0,0,1-3.349-1.015A3.589,3.589,0,0,1,.009,9.509L0,9.4H2.163l.008.1a1.858,1.858,0,0,0,.8,1.327,3,3,0,0,0,1.8.51,2.7,2.7,0,0,0,1.77-.554,1.777,1.777,0,0,0,.672-1.442V9.325a1.836,1.836,0,0,0-.689-1.534,3.048,3.048,0,0,0-1.921-.54H3.112V5.563H4.561a2.569,2.569,0,0,0,1.685-.532,1.693,1.693,0,0,0,.645-1.366V3.647a1.7,1.7,0,0,0-.563-1.358A2.328,2.328,0,0,0,4.754,1.8a2.6,2.6,0,0,0-1.642.5,1.875,1.875,0,0,0-.73,1.349l-.008.088H.264l.009-.1A3.7,3.7,0,0,1,1.635.993,4.766,4.766,0,0,1,4.754,0a4.92,4.92,0,0,1,3.13.927A2.94,2.94,0,0,1,9.061,3.348v.018a2.673,2.673,0,0,1-.733,1.916A3.567,3.567,0,0,1,6.407,6.3v.044a3.648,3.648,0,0,1,2.263.936,2.779,2.779,0,0,1,.839,2.1V9.4A3.339,3.339,0,0,1,8.2,12.137a5.3,5.3,0,0,1-3.423,1.055" fill="#2d77f4"/>
        </g>
      </g>
    </g>
    <g id="Group_20622" data-name="Group 20622" transform="translate(1029 1385)">
      <g id="Group_20623" data-name="Group 20623">
        <path id="Path_27486" data-name="Path 27486" d="M27.585,0c.968.132,1.946.212,2.9.4,9.834,1.985,16.624,7.679,19.964,17.1,2.914,8.221,1.646,16.069-3.214,23.317a1.735,1.735,0,0,1-.744.631.877.877,0,0,1-1.069-.366.985.985,0,0,1,0-1.183c.507-.8,1.044-1.579,1.505-2.4A23.866,23.866,0,0,0,40.779,7.17,23.575,23.575,0,0,0,24.972,2.065a23.926,23.926,0,0,0-7.09,46.425,23.288,23.288,0,0,0,21.478-2.7c.184-.12.36-.252.547-.367a1,1,0,0,1,1.431.247.987.987,0,0,1-.305,1.418,46.575,46.575,0,0,1-4.479,2.553,25.461,25.461,0,0,1-13.9,2.071A25.979,25.979,0,0,1,.713,31.974c-.3-1.3-.42-2.63-.626-3.946-.023-.148-.058-.295-.087-.442V24.34c.166-1.15.29-2.307.5-3.448A25.959,25.959,0,0,1,21.438.4C22.4.241,23.372.132,24.34,0Z" fill="#fff" stroke="#fff" stroke-width="1"/>
        <path id="Path_27487" data-name="Path 27487" d="M115.567,141.2a4.773,4.773,0,0,1,.372-.491q5.336-5.345,10.679-10.684c.768-.768,1.192-.769,1.961,0q2.6,2.6,5.2,5.2c.773.773.777,1.2.018,1.962L116.482,154.5c-.751.751-1.185.754-1.922.017q-5.288-5.286-10.574-10.574c-.7-.7-.7-1.16-.014-1.851q2.668-2.673,5.34-5.341c.672-.67,1.144-.671,1.816,0,1.445,1.445,2.887,2.893,4.439,4.45m-9.548,1.8,9.5,9.5,16.292-16.289-4.307-4.3a4.591,4.591,0,0,1-.326.4q-5.319,5.326-10.643,10.647c-.833.833-1.223.831-2.066-.014-1.406-1.41-2.81-2.821-4.194-4.21L106.019,143" transform="translate(-92.945 -116.296)" fill="#fff" stroke="#fff" stroke-width="1"/>
        <path id="Path_27488" data-name="Path 27488" d="M420.2,419.193a1.01,1.01,0,1,1-1.007,1,1.021,1.021,0,0,1,1.007-1" transform="translate(-376.597 -376.597)" fill="#fff" stroke="#fff" stroke-width="1"/>
      </g>
    </g>
  </g>
</svg>
