<svg xmlns="http://www.w3.org/2000/svg" xmlns:xlink="http://www.w3.org/1999/xlink" width="124" height="127" viewBox="0 0 124 127">
  <defs>
    <clipPath id="clip-path">
      <rect id="Rectangle_2605" data-name="Rectangle 2605" width="8.93" height="12.999" transform="translate(0 0)" fill="none"/>
    </clipPath>
    <clipPath id="clip-path-2">
      <rect id="Rectangle_2598" data-name="Rectangle 2598" width="52" height="62.878" fill="#fff" stroke="#fff" stroke-width="1"/>
    </clipPath>
  </defs>
  <g id="Group_20678" data-name="Group 20678" transform="translate(-621 -1357)">
    <circle id="Ellipse_2" data-name="Ellipse 2" cx="62" cy="62" r="62" transform="translate(621 1360)" fill="#5792f6"/>
    <g id="Group_20588" data-name="Group 20588" transform="translate(361 -75)">
      <circle id="Ellipse_4" data-name="Ellipse 4" cx="16" cy="16" r="16" transform="translate(352 1432)" fill="#fff"/>
      <g id="Group_20681" data-name="Group 20681" transform="translate(364 1442)">
        <g id="Group_20680" data-name="Group 20680" clip-path="url(#clip-path)">
          <path id="Path_27515" data-name="Path 27515" d="M.123,13V11.47L4.289,7.216A16.065,16.065,0,0,0,6.06,5.221a2.416,2.416,0,0,0,.435-1.363V3.832a1.945,1.945,0,0,0-.571-1.45,2.11,2.11,0,0,0-1.547-.563,2.227,2.227,0,0,0-1.63.607,2.122,2.122,0,0,0-.62,1.591l-.009.035L.009,4.043,0,4.017a3.709,3.709,0,0,1,1.252-2.9A4.68,4.68,0,0,1,4.491,0a4.535,4.535,0,0,1,3.05,1.02,3.283,3.283,0,0,1,1.2,2.619v.026A3.954,3.954,0,0,1,8.1,5.783,15.873,15.873,0,0,1,5.73,8.473L3.19,10.934v.184H8.93V13Z" fill="#2d77f4"/>
        </g>
      </g>
    </g>
    <g id="Group_20625" data-name="Group 20625" transform="translate(657 1391)">
      <g id="Group_20624" data-name="Group 20624" clip-path="url(#clip-path-2)">
        <path id="Path_27489" data-name="Path 27489" d="M5.37,131.127a13.007,13.007,0,0,1-1.739-.562,5.964,5.964,0,0,1-3.6-5.606c-.047-2.333-.019-4.667-.008-7,0-.884.526-1.451,1.259-1.427s1.179.557,1.182,1.432c.008,2.211,0,4.421,0,6.632a3.723,3.723,0,0,0,4.078,4.079q16.767,0,33.533,0a3.726,3.726,0,0,0,4.083-4.076q0-3.008-.011-6.017a1.178,1.178,0,0,0-.067-.212h-.675c-4.115,0-8.23.04-12.344-.025a6.122,6.122,0,0,1,.644-12.227c3.89-.017,7.779,0,11.669,0h.748c.015-.258.035-.437.035-.617,0-1.924.011-3.848,0-5.772a3.671,3.671,0,0,0-3.9-3.883q-16.951-.011-33.9,0a3.658,3.658,0,0,0-3.892,3.884c-.015,2.17,0,4.339,0,6.509a4.723,4.723,0,0,1-.034.735,1.158,1.158,0,0,1-1.1.972,1.185,1.185,0,0,1-1.229-.818,1.424,1.424,0,0,1-.072-.422c.007-2.558-.073-5.121.054-7.673A5.958,5.958,0,0,1,5.97,93.405c1.678-.041,3.357-.01,5.036-.014.2,0,.391-.019.691-.035a7.131,7.131,0,0,1-1.519-6.165,6.784,6.784,0,0,1,2.485-3.98,7.032,7.032,0,0,1,8.946.075A6.916,6.916,0,0,1,24.144,88.1a7.128,7.128,0,0,1-1.7,5.294h.839q11.209,0,22.417,0a6.058,6.058,0,0,1,6.154,4.864,8.564,8.564,0,0,1,.145,1.769q.014,12.189.006,24.378c0,3.644-1.7,5.793-5.252,6.659a.421.421,0,0,0-.1.062Zm44.138-15.244c.015-.185.04-.344.04-.5,0-2.065-.012-4.131.012-6.2.006-.48-.127-.628-.618-.624-2.8.022-5.6.011-8.406.011-2.986,0-5.972-.011-8.959,0a3.694,3.694,0,0,0-3.849,3.494,3.657,3.657,0,0,0,3.786,3.848q8.744.02,17.488,0c.159,0,.318-.022.505-.036M12.466,88.756A4.624,4.624,0,1,0,17.08,84.1a4.625,4.625,0,0,0-4.614,4.661M46.61,118.4v.691c0,1.431-.021,2.863.005,4.294.033,1.833,0,3.644-1.219,5.241.167.023.24.041.314.043a3.687,3.687,0,0,0,3.833-3.82c.025-1.983.007-3.967,0-5.95,0-.158-.028-.316-.046-.5Zm0-12.341H49.5c0-2.378.092-4.711-.032-7.032a3.3,3.3,0,0,0-2.622-3.047,9.519,9.519,0,0,0-1.477-.179,6.6,6.6,0,0,1,1.244,3.914q0,1.719,0,3.437v2.907" transform="translate(0 -68.249)" fill="#fff" stroke="#fff" stroke-width="1"/>
        <path id="Path_27490" data-name="Path 27490" d="M176.823,30.6a7.08,7.08,0,1,1,7.063-7.06,7.077,7.077,0,0,1-7.063,7.06m4.611-7.084a4.625,4.625,0,1,0-4.631,4.632,4.612,4.612,0,0,0,4.631-4.632" transform="translate(-141.887 -13.741)" fill="#fff" stroke="#fff" stroke-width="1"/>
        <path id="Path_27491" data-name="Path 27491" d="M134.834,6.016c0,1.533,0,3.066,0,4.6,0,.919-.449,1.442-1.213,1.445s-1.235-.53-1.236-1.433q-.008-4.6,0-9.2A1.267,1.267,0,0,1,133.638,0c.726.015,1.19.556,1.194,1.414.006,1.533,0,3.066,0,4.6" transform="translate(-110.663 -0.002)" fill="#fff" stroke="#fff" stroke-width="1"/>
        <path id="Path_27492" data-name="Path 27492" d="M98.923,3.952c0,.858.01,1.716,0,2.574a1.222,1.222,0,1,1-2.439.025q-.033-2.635,0-5.271A1.227,1.227,0,0,1,97.757,0a1.213,1.213,0,0,1,1.164,1.315c.013.878,0,1.757,0,2.635" transform="translate(-80.64 0)" fill="#fff" stroke="#fff" stroke-width="1"/>
        <path id="Path_27493" data-name="Path 27493" d="M2.6,261.98a1.187,1.187,0,0,1-1.18,1.221,1.2,1.2,0,0,1-1.243-1.228,1.234,1.234,0,0,1,1.219-1.205,1.212,1.212,0,0,1,1.2,1.212" transform="translate(-0.146 -217.99)" fill="#fff" stroke="#fff" stroke-width="1"/>
        <path id="Path_27494" data-name="Path 27494" d="M184.47,262.018a1.186,1.186,0,0,1-1.217,1.186,1.213,1.213,0,0,1-1.214-1.2,1.245,1.245,0,0,1,1.261-1.23,1.213,1.213,0,0,1,1.17,1.246" transform="translate(-152.176 -217.993)" fill="#fff" stroke="#fff" stroke-width="1"/>
      </g>
    </g>
  </g>
</svg>
