<svg xmlns="http://www.w3.org/2000/svg" xmlns:svgjs="http://svgjs.com/svgjs" xmlns:xlink="http://www.w3.org/1999/xlink" width="288" height="288"><svg xmlns="http://www.w3.org/2000/svg" width="288" height="288" data-name="Group 20596" viewBox="0 0 41.543 36"><defs><clipPath id="a"><rect width="41.543" height="36" fill="#1b1464" class="color2D77F4 svgShape" data-name="Rectangle 2573"/></clipPath></defs><g class="color000 svgShape" clip-path="url(#a)" data-name="Group 20595"><path fill="#1b1464" d="M3.938,133.921c.235,1.087.443,2.113.686,3.13a.415.415,0,0,1-.19.5c-.314.229-.627.46-.925.708-.431.359-.413.606.022.95,2.853,2.256,5.7,4.516,8.58,6.795l-3.455,3.285c-.522.5-1.032,1.005-1.569,1.484-.6.535-.792.947-.269,2.015q1.952-1.5,3.894-3c2.528-1.951,5.045-3.917,7.586-5.85a3.953,3.953,0,0,1,4.886-.041c1.734,1.283,3.425,2.624,5.133,3.942q2.391,1.845,4.779,3.7.8.619,1.6,1.241a1.356,1.356,0,0,0-.146-1.919c-1.669-1.547-3.3-3.131-4.951-4.7-.051-.048-.1-.1-.154-.163l6-4.752c.879-.7,1.761-1.391,2.637-2.091.352-.281.355-.55.008-.844a4.395,4.395,0,0,0-.751-.578c-.445-.234-.48-.551-.368-.992.232-.912.422-1.834.647-2.828,1.112.988,2.489,1.583,3.3,2.859a3.92,3.92,0,0,1,.616,2.121q.02,7.659,0,15.319a4.148,4.148,0,0,1-4.1,4.106q-16.659.012-33.318,0a4.146,4.146,0,0,1-4.109-4.138q-.009-7.616,0-15.232a4.02,4.02,0,0,1,1.717-3.361c.726-.538,1.444-1.087,2.21-1.663" class="color2D77F4 svgShape" data-name="Path 27053" transform="translate(0 -122.321)"/><path fill="#1b1464" d="M144.42,22.553V6.723a5.619,5.619,0,0,1-3.965-3.965h-1.5c-1.342,0-2.683.014-4.024-.01-.342-.006-.459.127-.561.421a5.243,5.243,0,0,1-3.412,3.4.5.5,0,0,0-.4.574q.019,7.422.009,14.845v.564L129,21.32c-.034-.027-.058-.07-.1-.087-1.007-.472-1.137-1.29-1.128-2.324.051-5.51.024-11.022.024-16.533A2.163,2.163,0,0,1,130.191,0h14.671a2.151,2.151,0,0,1,2.317,2.313q0,8.829.008,17.658a.726.726,0,0,1-.316.643c-.794.614-1.576,1.243-2.452,1.937" class="color2D77F4 svgShape" data-name="Path 27054" transform="translate(-116.72 -.001)"/><path fill="#1b1464" d="M53.412,22.209v2.742l-1.535.252c-.17.028-.339.064-.511.077-.418.033-.538.261-.454.646.307,1.4.609,2.8.917,4.2.523,2.378,1.083,4.748,1.552,7.137a12.281,12.281,0,0,1,.021,2.259c-.677-.535-1.277-1.069-1.936-1.514a2.572,2.572,0,0,1-1.118-1.761c-.771-3.688-1.606-7.362-2.417-11.041a2.156,2.156,0,0,1,1.885-2.488c.6-.094,1.193-.176,1.79-.261s1.192-.164,1.806-.248" class="color2D77F4 svgShape" data-name="Path 27055" transform="translate(-43.743 -20.287)"/><path fill="#1b1464" d="M368.086,24.946V22.192c1.222.173,2.429.325,3.63.519a2.109,2.109,0,0,1,1.8,2.675q-1.251,5.71-2.5,11.42a1.189,1.189,0,0,1-.465.768c-.811.61-1.595,1.258-2.447,1.936a12.112,12.112,0,0,1,.251-3.478c.653-2.819,1.259-5.65,1.882-8.476.123-.56.241-1.121.362-1.681.074-.343-.041-.553-.408-.607-.694-.1-1.387-.214-2.1-.324" class="color2D77F4 svgShape" data-name="Path 27056" transform="translate(-336.214 -20.271)"/><path fill="#1b1464" d="M196.663,135.008a5.2,5.2,0,0,1-3.208-1.03,3.065,3.065,0,0,1-.13-4.8,4.79,4.79,0,0,1,5.438-.468,3.165,3.165,0,0,1-.356,5.8,10.535,10.535,0,0,1-1.744.5" class="color2D77F4 svgShape" data-name="Path 27057" transform="translate(-175.592 -116.99)"/><path fill="#1b1464" d="M225.449,66.772A1.378,1.378,0,1,1,226.83,65.4a1.41,1.41,0,0,1-1.381,1.375" class="color2D77F4 svgShape" data-name="Path 27058" transform="translate(-204.68 -58.475)"/></g></svg></svg>