<svg width="52" height="52" viewBox="0 0 52 52" fill="none" xmlns="http://www.w3.org/2000/svg">
<path d="M16.25 29.25H29.25V32.5H16.25V29.25ZM16.25 21.125H35.75V24.375H16.25V21.125ZM16.25 37.375H24.375V40.625H16.25V37.375Z" fill="#CACACA"/>
<path d="M40.625 8.125H35.75V6.5C35.75 5.63805 35.4076 4.8114 34.7981 4.2019C34.1886 3.59241 33.362 3.25 32.5 3.25H19.5C18.638 3.25 17.8114 3.59241 17.2019 4.2019C16.5924 4.8114 16.25 5.63805 16.25 6.5V8.125H11.375C10.513 8.125 9.6864 8.46741 9.0769 9.0769C8.46741 9.6864 8.125 10.513 8.125 11.375V45.5C8.125 46.362 8.46741 47.1886 9.0769 47.7981C9.6864 48.4076 10.513 48.75 11.375 48.75H40.625C41.487 48.75 42.3136 48.4076 42.9231 47.7981C43.5326 47.1886 43.875 46.362 43.875 45.5V11.375C43.875 10.513 43.5326 9.6864 42.9231 9.0769C42.3136 8.46741 41.487 8.125 40.625 8.125ZM19.5 6.5H32.5V13H19.5V6.5ZM40.625 45.5H11.375V11.375H16.25V16.25H35.75V11.375H40.625V45.5Z" fill="#CACACA"/>
</svg>
