<svg width="54" height="54" viewBox="0 0 54 54" fill="none" xmlns="http://www.w3.org/2000/svg">
<path d="M20.2568 13.5011C20.2568 11.7126 20.9672 9.99747 22.2318 8.73286C23.4964 7.46826 25.2116 6.75781 27 6.75781C28.7884 6.75781 30.5036 7.46826 31.7682 8.73286C33.0328 9.99747 33.7432 11.7126 33.7432 13.5011C33.7432 15.2895 33.0328 17.0047 31.7682 18.2693C30.5036 19.5339 28.7884 20.2443 27 20.2443C25.2116 20.2443 23.4964 19.5339 22.2318 18.2693C20.9672 17.0047 20.2568 15.2895 20.2568 13.5011ZM27 10.1328C26.5577 10.1328 26.1197 10.2199 25.711 10.3892C25.3024 10.5585 24.9311 10.8066 24.6183 11.1193C24.3055 11.4321 24.0574 11.8034 23.8881 12.2121C23.7189 12.6207 23.6318 13.0587 23.6318 13.5011C23.6318 13.9434 23.7189 14.3814 23.8881 14.79C24.0574 15.1987 24.3055 15.57 24.6183 15.8828C24.9311 16.1955 25.3024 16.4436 25.711 16.6129C26.1197 16.7822 26.5577 16.8693 27 16.8693C27.8933 16.8693 28.75 16.5144 29.3817 15.8828C30.0134 15.2511 30.3682 14.3944 30.3682 13.5011C30.3682 12.6077 30.0134 11.751 29.3817 11.1193C28.75 10.4877 27.8933 10.1328 27 10.1328ZM37.125 15.1886C37.125 14.5237 37.2559 13.8654 37.5104 13.2512C37.7648 12.637 38.1377 12.0789 38.6078 11.6088C39.0779 11.1387 39.636 10.7658 40.2502 10.5114C40.8644 10.257 41.5227 10.1261 42.1875 10.1261C42.8523 10.1261 43.5106 10.257 44.1248 10.5114C44.739 10.7658 45.2971 11.1387 45.7672 11.6088C46.2373 12.0789 46.6102 12.637 46.8646 13.2512C47.1191 13.8654 47.25 14.5237 47.25 15.1886C47.25 16.5312 46.7166 17.8189 45.7672 18.7683C44.8178 19.7177 43.5302 20.2511 42.1875 20.2511C40.8448 20.2511 39.5572 19.7177 38.6078 18.7683C37.6584 17.8189 37.125 16.5312 37.125 15.1886ZM42.1875 13.5011C41.7399 13.5011 41.3107 13.6789 40.9943 13.9953C40.6778 14.3118 40.5 14.741 40.5 15.1886C40.5 15.6361 40.6778 16.0653 40.9943 16.3818C41.3107 16.6983 41.7399 16.8761 42.1875 16.8761C42.6351 16.8761 43.0643 16.6983 43.3807 16.3818C43.6972 16.0653 43.875 15.6361 43.875 15.1886C43.875 14.741 43.6972 14.3118 43.3807 13.9953C43.0643 13.6789 42.6351 13.5011 42.1875 13.5011ZM11.8125 10.1261C10.4698 10.1261 9.18218 10.6594 8.23277 11.6088C7.28337 12.5582 6.75 13.8459 6.75 15.1886C6.75 16.5312 7.28337 17.8189 8.23277 18.7683C9.18218 19.7177 10.4698 20.2511 11.8125 20.2511C13.1552 20.2511 14.4428 19.7177 15.3922 18.7683C16.3416 17.8189 16.875 16.5312 16.875 15.1886C16.875 13.8459 16.3416 12.5582 15.3922 11.6088C14.4428 10.6594 13.1552 10.1261 11.8125 10.1261ZM10.125 15.1886C10.125 14.741 10.3028 14.3118 10.6193 13.9953C10.9357 13.6789 11.3649 13.5011 11.8125 13.5011C12.2601 13.5011 12.6893 13.6789 13.0057 13.9953C13.3222 14.3118 13.5 14.741 13.5 15.1886C13.5 15.6361 13.3222 16.0653 13.0057 16.3818C12.6893 16.6983 12.2601 16.8761 11.8125 16.8761C11.3649 16.8761 10.9357 16.6983 10.6193 16.3818C10.3028 16.0653 10.125 15.6361 10.125 15.1886ZM14.4045 23.6261C13.8105 24.6516 13.4985 25.816 13.5 27.0011H6.75V35.4386C6.74973 36.2781 6.95822 37.1044 7.35671 37.8433C7.75521 38.5822 8.33119 39.2104 9.03281 39.6713C9.73443 40.1323 10.5397 40.4115 11.376 40.4839C12.2124 40.5562 13.0536 40.4195 13.824 40.0859C14.0738 41.2031 14.4653 42.2696 14.9715 43.2652C13.6906 43.7824 12.3022 43.9772 10.9284 43.8324C9.55464 43.6877 8.23739 43.2079 7.09237 42.4351C5.94735 41.6623 5.00958 40.6202 4.36142 39.4003C3.71326 38.1804 3.37454 36.82 3.375 35.4386V27.0011C3.375 26.106 3.73058 25.2475 4.36351 24.6146C4.99645 23.9816 5.85489 23.6261 6.75 23.6261H14.4045ZM39.0285 43.2652C40.3094 43.7824 41.6978 43.9772 43.0716 43.8324C44.4454 43.6877 45.7626 43.2079 46.9076 42.4351C48.0527 41.6623 48.9904 40.6202 49.6386 39.4003C50.2867 38.1804 50.6255 36.82 50.625 35.4386V27.0011C50.625 26.106 50.2694 25.2475 49.6365 24.6146C49.0035 23.9816 48.1451 23.6261 47.25 23.6261H39.5955C40.1693 24.6183 40.5 25.7692 40.5 27.0011H47.25V35.4386C47.2503 36.2781 47.0418 37.1044 46.6433 37.8433C46.2448 38.5822 45.6688 39.2104 44.9672 39.6713C44.2656 40.1323 43.4603 40.4115 42.624 40.4839C41.7876 40.5562 40.9464 40.4195 40.176 40.0859C39.9229 41.2031 39.5348 42.2696 39.0285 43.2652ZM20.25 23.6227C19.3549 23.6227 18.4965 23.9783 17.8635 24.6112C17.2306 25.2441 16.875 26.1026 16.875 26.9977V37.1261C16.875 39.8114 17.9417 42.3867 19.8405 44.2855C21.7393 46.1843 24.3147 47.2511 27 47.2511C29.6853 47.2511 32.2607 46.1843 34.1595 44.2855C36.0583 42.3867 37.125 39.8114 37.125 37.1261V27.0011C37.125 26.106 36.7694 25.2475 36.1365 24.6146C35.5035 23.9816 34.6451 23.6261 33.75 23.6261H20.25V23.6227ZM20.25 26.9977H33.75V37.1261C33.75 38.9163 33.0388 40.6332 31.773 41.899C30.5071 43.1649 28.7902 43.8761 27 43.8761C25.2098 43.8761 23.4929 43.1649 22.227 41.899C20.9612 40.6332 20.25 38.9163 20.25 37.1261V27.0011V26.9977Z" fill="#CACACA"/>
</svg>
