<svg width="48" height="42" viewBox="0 0 48 42" fill="none" xmlns="http://www.w3.org/2000/svg">
<path fill-rule="evenodd" clip-rule="evenodd" d="M25.5626 1.72656C25.5626 1.31216 25.398 0.914734 25.1049 0.621708C24.8119 0.328682 24.4145 0.164062 24.0001 0.164062C23.5857 0.164062 23.1883 0.328682 22.8952 0.621708C22.6022 0.914734 22.4376 1.31216 22.4376 1.72656V5.3724H18.3251C17.5932 5.37207 16.8782 5.59203 16.273 6.00365L12.7418 8.40781C12.6551 8.46652 12.5527 8.49774 12.448 8.4974H3.90218C3.48778 8.4974 3.09035 8.66202 2.79732 8.95504C2.5043 9.24807 2.33968 9.6455 2.33968 10.0599C2.33968 10.4743 2.5043 10.8717 2.79732 11.1648C3.09035 11.4578 3.48778 11.6224 3.90218 11.6224H7.18759L0.17301 27.6224C0.040512 27.9346 0.0115031 28.2811 0.0902344 28.611C0.168966 28.9409 0.351297 29.237 0.61051 29.4557C0.777176 29.5891 0.945926 29.7161 1.25426 29.9161C1.64176 30.1682 2.19593 30.4953 2.90426 30.8182C4.32093 31.4661 6.36676 32.1099 8.89593 32.1099C10.9627 32.1139 13.0061 31.6733 14.8876 30.8182C15.5959 30.4953 16.1501 30.1682 16.5376 29.9161C16.8501 29.7141 17.0168 29.587 17.1834 29.4516C17.4447 29.2353 17.6285 28.9398 17.7071 28.6098C17.7856 28.2798 17.7547 27.9332 17.6188 27.6224L10.6022 11.6224H12.448C13.1793 11.6224 13.8938 11.4016 14.498 10.9911L18.0313 8.58698C18.1174 8.52867 18.219 8.49747 18.323 8.4974H22.4376V38.7057H13.0897C12.6753 38.7057 12.2778 38.8704 11.9848 39.1634C11.6918 39.4564 11.5272 39.8538 11.5272 40.2682C11.5272 40.6826 11.6918 41.0801 11.9848 41.3731C12.2778 41.6661 12.6753 41.8307 13.0897 41.8307H34.9105C35.3249 41.8307 35.7223 41.6661 36.0154 41.3731C36.3084 41.0801 36.473 40.6826 36.473 40.2682C36.473 39.8538 36.3084 39.4564 36.0154 39.1634C35.7223 38.8704 35.3249 38.7057 34.9105 38.7057H25.5626V8.4974H29.6751C29.7793 8.4974 29.8834 8.52865 29.9668 8.58698L33.5022 10.9911C34.1063 11.4016 34.8209 11.6224 35.5522 11.6224H37.398L30.3813 27.6224C30.241 27.9423 30.212 28.3 30.2989 28.6384C30.3857 28.9768 30.5835 29.2763 30.8605 29.4891C30.8855 29.5078 30.8605 29.4891 30.8647 29.4891C31.0713 29.6447 31.287 29.788 31.5105 29.9182C31.8959 30.1516 32.448 30.4516 33.1563 30.7516C35.0402 31.539 37.0625 31.9413 39.1043 31.9349C41.1468 31.9409 43.17 31.5379 45.0543 30.7495C45.7584 30.4516 46.3126 30.1516 46.7001 29.9182C46.9228 29.7867 47.1384 29.6435 47.3459 29.4891C47.623 29.2763 47.8207 28.9768 47.9076 28.6384C47.9944 28.3 47.9654 27.9423 47.8251 27.6224L40.8126 11.6224H44.1001C44.5145 11.6224 44.9119 11.4578 45.205 11.1648C45.498 10.8717 45.6626 10.4743 45.6626 10.0599C45.6626 9.6455 45.498 9.24807 45.205 8.95504C44.9119 8.66202 44.5145 8.4974 44.1001 8.4974H35.5543C35.4503 8.49732 35.3487 8.46612 35.2626 8.40781L31.7272 6.00365C31.1226 5.59243 30.4084 5.37249 29.6772 5.3724H25.5626V1.72656ZM3.56884 27.6599C5.20864 28.5325 7.03843 28.9869 8.89593 28.9828C10.7534 28.9869 12.5832 28.5325 14.223 27.6599L8.89593 15.5141L3.56884 27.6599ZM33.798 27.6099C33.9688 27.6932 34.1605 27.7828 34.3709 27.8724C35.4751 28.337 37.0897 28.8099 39.1043 28.8099C40.9409 28.8151 42.7549 28.4049 44.4105 27.6099L39.1043 15.512L33.798 27.6099Z" fill="#FFCE02"/>
</svg>
