<svg width="43" height="43" viewBox="0 0 43 43" fill="none" xmlns="http://www.w3.org/2000/svg">
<path d="M21.5 40.3125C16.5106 40.3125 11.7256 38.3305 8.19755 34.8024C4.66953 31.2744 2.6875 26.4894 2.6875 21.5C2.6875 16.5106 4.66953 11.7256 8.19755 8.19755C11.7256 4.66953 16.5106 2.6875 21.5 2.6875C26.4894 2.6875 31.2744 4.66953 34.8024 8.19755C38.3305 11.7256 40.3125 16.5106 40.3125 21.5C40.3125 26.4894 38.3305 31.2744 34.8024 34.8024C31.2744 38.3305 26.4894 40.3125 21.5 40.3125ZM21.5 43C27.2022 43 32.6708 40.7348 36.7028 36.7028C40.7348 32.6708 43 27.2022 43 21.5C43 15.7978 40.7348 10.3292 36.7028 6.2972C32.6708 2.26517 27.2022 0 21.5 0C15.7978 0 10.3292 2.26517 6.2972 6.2972C2.26517 10.3292 0 15.7978 0 21.5C0 27.2022 2.26517 32.6708 6.2972 36.7028C10.3292 40.7348 15.7978 43 21.5 43Z" fill="#CACACA"/>
<path d="M23.9992 17.7052L17.8449 18.4766L17.6245 19.4978L18.8339 19.7209C19.624 19.909 19.7799 20.1939 19.6079 20.9813L17.6245 30.3016C17.1031 32.7123 17.9067 33.8464 19.796 33.8464C21.2607 33.8464 22.9619 33.1691 23.7332 32.2393L23.9697 31.1213C23.4322 31.5943 22.6474 31.7824 22.1261 31.7824C21.387 31.7824 21.1182 31.2637 21.3091 30.3499L23.9992 17.7052ZM24.1874 12.0938C24.1874 12.8065 23.9042 13.4901 23.4002 13.9941C22.8962 14.4981 22.2126 14.7813 21.4999 14.7813C20.7871 14.7813 20.1035 14.4981 19.5995 13.9941C19.0955 13.4901 18.8124 12.8065 18.8124 12.0938C18.8124 11.381 19.0955 10.6974 19.5995 10.1934C20.1035 9.6894 20.7871 9.40625 21.4999 9.40625C22.2126 9.40625 22.8962 9.6894 23.4002 10.1934C23.9042 10.6974 24.1874 11.381 24.1874 12.0938Z" fill="#CACACA"/>
</svg>
