<svg width="50" height="44" viewBox="0 0 50 44" fill="none" xmlns="http://www.w3.org/2000/svg">
<path d="M10.4987 34.0833H22.582V29.25H10.4987V34.0833ZM34.6654 34.0833H39.4987V29.25H34.6654V34.0833ZM10.4987 24.4167H22.582V19.5833H10.4987V24.4167ZM34.6654 24.4167H39.4987V9.91667H34.6654V24.4167ZM10.4987 14.75H22.582V9.91667H10.4987V14.75ZM5.66536 43.75C4.3362 43.75 3.19875 43.2771 2.25303 42.3314C1.3057 41.3841 0.832031 40.2458 0.832031 38.9167V5.08333C0.832031 3.75417 1.3057 2.61592 2.25303 1.66858C3.19875 0.722861 4.3362 0.25 5.66536 0.25H44.332C45.6612 0.25 46.7994 0.722861 47.7468 1.66858C48.6925 2.61592 49.1654 3.75417 49.1654 5.08333V38.9167C49.1654 40.2458 48.6925 41.3841 47.7468 42.3314C46.7994 43.2771 45.6612 43.75 44.332 43.75H5.66536ZM5.66536 38.9167H44.332V5.08333H5.66536V38.9167ZM5.66536 38.9167V5.08333V38.9167Z" fill="#CACACA"/>
</svg>
