<svg width="40" height="40" viewBox="0 0 40 40" fill="none" xmlns="http://www.w3.org/2000/svg">
<path d="M19.9987 4.66927C28.4531 4.66927 35.332 11.5482 35.332 20.0026C35.332 28.457 28.4531 35.3359 19.9987 35.3359C11.5443 35.3359 4.66536 28.457 4.66536 20.0026C4.66536 11.5482 11.5443 4.66927 19.9987 4.66927ZM19.9987 0.835938C9.41295 0.835938 0.832031 9.41685 0.832031 20.0026C0.832031 30.5884 9.41295 39.1693 19.9987 39.1693C30.5844 39.1693 39.1654 30.5884 39.1654 20.0026C39.1654 9.41685 30.5844 0.835938 19.9987 0.835938ZM21.9154 25.7526H18.082V29.5859H21.9154V25.7526ZM18.082 21.9193H21.9154L22.8737 10.4193H17.1237L18.082 21.9193Z" fill="#CACACA"/>
</svg>
