<svg width="42" height="46" viewBox="0 0 42 46" fill="none" xmlns="http://www.w3.org/2000/svg">
<path d="M34.5 25.253H32.97L28.47 29.753H32.7675L36.75 34.253H5.25L9.255 29.753H13.8675L9.3675 25.253H7.5L0.75 32.003V41.003C0.75 43.478 2.7525 45.503 5.2275 45.503H36.75C37.9435 45.503 39.0881 45.0289 39.932 44.185C40.7759 43.3411 41.25 42.1965 41.25 41.003V32.003L34.5 25.253ZM36.75 41.003H5.25V38.753H36.75V41.003ZM19.515 29.798C20.3925 30.6755 21.81 30.6755 22.6875 29.798L36.9975 15.488C37.2061 15.2799 37.3716 15.0326 37.4845 14.7604C37.5974 14.4882 37.6555 14.1964 37.6555 13.9018C37.6555 13.6071 37.5974 13.3153 37.4845 13.0431C37.3716 12.7709 37.2061 12.5237 36.9975 12.3155L25.86 1.17802C25.657 0.965624 25.4134 0.796168 25.1437 0.679707C24.8739 0.563247 24.5836 0.502155 24.2898 0.500056C23.996 0.497957 23.7047 0.554895 23.4334 0.667491C23.162 0.780086 22.916 0.946045 22.71 1.15552L8.3775 15.488C8.16892 15.6962 8.00343 15.9434 7.89053 16.2156C7.77762 16.4878 7.7195 16.7796 7.7195 17.0743C7.7195 17.3689 7.77762 17.6607 7.89053 17.9329C8.00343 18.2051 8.16892 18.4524 8.3775 18.6605L19.515 29.798ZM24.285 5.92552L32.25 13.8905L21.1125 25.028L13.1475 17.063L24.285 5.92552Z" fill="#CACACA"/>
</svg>
