<svg width="64" height="64" viewBox="0 0 64 64" fill="none" xmlns="http://www.w3.org/2000/svg">
<path d="M48.078 51.2201C47.1909 50.3329 46.4102 49.5522 45.6117 48.7538C39.0113 54.13 31.4704 56.3479 22.9892 54.9284C15.7855 53.7041 9.9657 50.0668 5.54765 44.247C-3.04004 32.9269 -1.49638 16.9226 9.0608 7.21706C19.5115 -2.382 35.5513 -2.41748 46.2505 7.18157C56.9141 16.7629 58.8304 33.6544 48.8055 45.5423C49.6039 46.3407 50.3846 47.1214 51.2718 47.9908C51.6266 47.6005 52.0702 47.0682 52.567 46.6069C53.4897 45.7197 54.6962 45.6842 55.6011 46.5714C57.8545 48.7893 60.1434 50.9894 62.2903 53.3138C65.6615 56.9511 63.763 62.7532 58.9013 63.8355C56.8254 64.2968 54.9446 63.7823 53.4187 62.3628C51.0589 60.1627 48.8055 57.8383 46.5344 55.5317C45.7004 54.6978 45.7537 53.4557 46.5698 52.6041C47.0489 52.0895 47.5989 51.6459 48.078 51.2201ZM27.6911 51.0959C40.6081 51.0959 51.0411 40.6807 51.1121 27.7282C51.1831 14.8111 40.6791 4.27169 27.7266 4.25395C14.7918 4.23621 4.28789 14.7224 4.27015 27.6572C4.27015 40.5919 14.7386 51.0959 27.6911 51.0959ZM54.1817 51.2733C53.2235 52.2315 52.2299 53.2251 51.2363 54.2187C52.8332 55.8156 54.4656 57.4834 56.1334 59.1158C57.0206 59.9852 58.1384 59.932 59.0255 59.0803C59.895 58.2464 60.0192 57.0753 59.2207 56.2414C57.5529 54.5203 55.814 52.8525 54.1817 51.2556V51.2733Z" fill="#0CBCB7"/>
<path d="M38.1417 24.4278C37.2723 25.3149 36.4206 26.2021 35.5335 27.0715C33.493 29.1297 31.4348 31.1702 29.3766 33.2106C28.2588 34.3285 27.07 34.3285 25.9522 33.2106C25.1183 32.3767 24.3021 31.5428 23.4504 30.6734C23.2375 30.8685 23.0778 31.0282 22.9004 31.1879C20.7534 33.3348 18.6065 35.4818 16.4596 37.6109C15.6611 38.4094 14.8627 38.5868 13.9933 38.1787C12.5384 37.5045 12.2367 35.8189 13.39 34.6656C15.3418 32.6961 17.2935 30.7443 19.263 28.7926C20.1147 27.9409 20.9486 27.0892 21.8003 26.2553C22.8116 25.2794 24.0359 25.2794 25.0295 26.2553C25.8812 27.0892 26.7151 27.9409 27.5668 28.7748C27.5668 28.7748 27.6023 28.7926 27.5491 28.7748C30.0686 26.2553 32.5526 23.7713 35.0367 21.2872C34.9835 21.2872 34.8238 21.2517 34.6641 21.2517C33.7414 21.2517 32.801 21.2517 31.8784 21.2517C30.6719 21.2163 29.7847 20.3646 29.7492 19.2468C29.696 18.0757 30.5477 17.0466 31.7542 17.0289C34.6996 16.9756 37.6449 16.9756 40.5903 17.0289C41.8146 17.0466 42.5775 18.0225 42.5953 19.3887C42.5953 21.8195 42.5953 24.2503 42.5953 26.6989C42.5953 27.0005 42.5953 27.3199 42.5953 27.6215C42.542 28.9345 41.6371 29.8572 40.4483 29.8572C39.2596 29.8572 38.3724 28.8991 38.3369 27.5861C38.3192 26.557 38.3369 25.5278 38.3369 24.481C38.2837 24.4633 38.2127 24.4455 38.1595 24.41L38.1417 24.4278Z" fill="#0CBCB7"/>
</svg>
