<svg width="104" height="100" viewBox="0 0 104 100" fill="none" xmlns="http://www.w3.org/2000/svg">
<path d="M0 17.5057C0.518687 15.794 1.08924 14.1083 2.36003 12.7597C4.07169 10.9184 6.14644 9.80318 8.66208 9.75132C12.5522 9.67351 16.4424 9.69945 20.3066 9.72538C21.6552 9.72538 22.4851 10.5812 22.4851 11.7483C22.4851 12.9153 21.6033 13.7452 20.2547 13.7452C16.8314 13.7711 13.434 13.8749 10.0107 13.7452C5.93897 13.5637 3.96796 16.4943 3.96796 19.736C4.07169 35.1151 4.01983 50.4942 4.01983 65.8473V67.0922H99.7176C99.7176 66.7291 99.7176 66.366 99.7176 66.0289C99.7176 49.8718 99.7176 33.7147 99.7176 17.5835C99.7176 15.016 98.4987 13.7971 95.9312 13.7971C93.5193 13.7971 91.1333 13.7971 88.7214 13.7971C88.2546 13.7971 87.7619 13.7711 87.321 13.6155C86.4652 13.3303 85.9724 12.4226 86.128 11.4889C86.2577 10.5553 86.8282 9.82912 87.7619 9.82912C91.1333 9.77725 94.5307 9.62164 97.8763 9.93286C101.17 10.27 103.608 13.4081 103.737 16.7277C103.737 16.9611 103.737 17.1945 103.737 17.4279C103.737 36.9305 103.737 56.4332 103.737 75.9358C103.737 80.604 100.937 84.2607 96.5536 85.2462C95.6459 85.4537 94.6863 85.5056 93.7268 85.5056C84.8832 85.5056 76.0136 85.5056 67.17 85.5056C66.781 85.5056 66.366 85.5056 65.8733 85.5056C65.4583 89.0327 65.8473 92.4301 66.5476 95.9312C66.9366 95.9312 67.2997 95.9312 67.6627 95.9312C71.0342 95.9312 74.4316 95.9312 77.8031 95.9312C79.2035 95.9312 80.0853 96.7352 80.1112 97.9541C80.1112 98.9915 79.3851 99.8473 78.3477 99.977C78.0106 100.029 77.6734 99.977 77.3363 99.977C60.3493 99.977 43.3363 99.977 26.3493 99.977C26.1159 99.977 25.8825 99.977 25.6491 99.977C24.4561 99.9251 23.6262 99.1471 23.5743 98.0319C23.5225 96.8908 24.3524 95.9571 25.5713 95.9312C27.7238 95.8793 29.9023 95.9312 32.0549 95.9312C33.6628 95.9312 35.2967 95.9312 36.9824 95.9312C37.6826 92.4819 37.942 89.0845 37.5789 85.5056C37.138 85.5056 36.749 85.5056 36.36 85.5056C27.4645 85.5056 18.5949 85.5056 9.69945 85.5056C5.23874 85.5056 1.78947 83.1715 0.440884 79.2813C0.311212 78.7367 0.155606 78.1921 0 77.6475C0 57.6002 0 37.553 0 17.5057ZM99.7435 71.2676H4.04576C4.04576 72.7459 4.04576 74.1204 4.04576 75.4949C4.04576 79.411 6.06864 81.408 9.98473 81.408C37.916 81.408 65.8733 81.408 93.8046 81.408C94.3492 81.408 94.8938 81.408 95.4125 81.3042C97.7207 80.9671 99.562 79.0479 99.6917 76.6879C99.7954 74.8984 99.6917 73.109 99.6917 71.2417L99.7435 71.2676ZM61.5941 85.5834H41.9877C41.8062 89.0586 41.6246 92.456 41.4172 95.9053H62.2684C62.035 92.4819 61.8275 89.0845 61.5941 85.5834Z" fill="url(#paint0_linear_120_60)"/>
<path d="M25.2343 48.8603C24.8453 48.8603 24.5341 48.8085 24.2488 48.8085C22.2519 48.8085 21.6035 48.1601 21.6035 46.1113C21.6035 42.1433 21.6035 38.2013 21.6035 34.2333C21.6035 33.0922 21.6035 31.9252 21.6035 30.7841C21.6035 28.9427 22.2778 28.2944 24.1191 28.2684C24.4563 28.2684 24.7675 28.2684 25.2343 28.2684C25.2343 27.7498 25.2343 27.3607 25.2343 26.9717C25.2343 24.1189 25.2343 21.2921 25.2343 18.4393C25.2343 17.1685 26.0902 16.3386 27.2053 16.3127C28.3724 16.3127 29.1763 17.1426 29.2542 18.4912C29.2542 18.7505 29.2542 19.0358 29.2542 19.2952C29.2542 21.8886 29.2542 24.508 29.2542 27.1014C29.2542 27.4645 29.2542 27.8276 29.2542 28.2684C29.695 28.2684 30.0062 28.2684 30.2915 28.2684C32.2366 28.2684 32.859 28.9168 32.885 30.9137C32.885 33.9481 32.885 37.0083 32.885 40.0426C32.885 42.0655 32.885 44.1143 32.885 46.1372C32.885 48.1601 32.2366 48.8085 30.2137 48.8085C29.9544 48.8085 29.6691 48.8085 29.2542 48.8085C29.2542 49.2493 29.2542 49.6384 29.2542 50.0274C29.2542 52.9061 29.2542 55.7848 29.2542 58.6635C29.2542 59.9343 28.3724 60.7642 27.2313 60.7642C26.1939 60.7642 25.364 59.9602 25.2343 58.845C25.2084 58.5079 25.2084 58.1708 25.2084 57.8336C25.2084 55.2402 25.2084 52.6208 25.2084 50.0274C25.2084 49.6643 25.2084 49.3012 25.2084 48.8862L25.2343 48.8603ZM28.7873 44.7108V32.392H25.7271V44.7108H28.7873Z" fill="url(#paint1_linear_120_60)"/>
<path d="M62.1388 48.8603C62.1388 49.7162 62.1388 50.5201 62.1388 51.3241C62.1388 53.5544 62.1388 55.7848 62.1388 58.0151C62.1388 59.7787 61.4386 60.7383 60.1419 60.7642C58.8192 60.7642 58.0931 59.8046 58.0931 57.9633C58.0931 55.318 58.0931 52.6727 58.0931 50.0533C58.0931 49.6902 58.0931 49.3271 58.0931 48.8085C57.5225 48.8085 57.0298 48.8085 56.537 48.8085C55.2922 48.7566 54.4882 48.0045 54.4882 46.7596C54.4623 41.2875 54.4623 35.7894 54.4882 30.3173C54.4882 28.9946 55.2922 28.3203 56.6148 28.2684C57.0557 28.2684 57.4966 28.2684 58.0412 28.2684C58.0412 27.8535 58.0931 27.4904 58.0931 27.1273C58.0931 24.2745 58.0931 21.4477 58.0931 18.5949C58.0931 17.1426 59.0008 16.2349 60.2197 16.3127C61.3608 16.3905 62.1129 17.2463 62.1388 18.6209C62.1388 21.4218 62.1388 24.2486 62.1388 27.0495C62.1388 27.4126 62.1388 27.7757 62.1388 28.2684C62.6835 28.2684 63.1243 28.2684 63.5393 28.2684C64.9916 28.2944 65.7437 29.0205 65.7437 30.4729C65.7696 32.7032 65.7437 34.9336 65.7437 37.1639C65.7437 40.0686 65.7437 42.9732 65.7437 45.9038C65.7437 48.2379 65.1991 48.7825 62.9169 48.8344C62.6835 48.8344 62.45 48.8603 62.1129 48.8863L62.1388 48.8603ZM61.672 32.392H58.5858V44.6849H61.672V32.392Z" fill="url(#paint2_linear_120_60)"/>
<path d="M41.6767 11.9817C41.6767 11.0999 41.6767 10.3737 41.6767 9.64757C41.6767 7.20974 41.6767 4.77191 41.6767 2.33408C41.6767 0.907693 42.4806 0.0259247 43.6995 0.0259247C44.9184 0.0259247 45.6965 0.881758 45.7224 2.33408C45.7224 5.13499 45.7224 7.96184 45.7224 10.7627C45.7224 11.1258 45.7224 11.4889 45.7224 11.9298C46.1633 11.9298 46.4745 11.9817 46.8117 11.9817C48.7049 11.9817 49.3532 12.656 49.3532 14.5751C49.3532 16.4424 49.3532 18.3096 49.3532 20.151C49.3532 23.289 49.3532 26.453 49.3532 29.5911C49.3532 31.9252 48.8086 32.4698 46.5264 32.5217C46.293 32.5217 46.0596 32.5476 45.7224 32.5735C45.7224 33.7147 45.7224 34.8298 45.7224 35.945C45.7224 38.0198 45.7224 40.0686 45.7224 42.1433C45.7224 43.5697 44.8925 44.4515 43.7255 44.4774C42.5325 44.4774 41.7026 43.5697 41.7026 42.1693C41.7026 39.3943 41.7026 36.6193 41.7026 33.8443C41.7026 33.4553 41.7026 33.0404 41.7026 32.5995C41.3136 32.5995 41.0024 32.5476 40.7171 32.5476C38.7201 32.5476 38.0718 31.8733 38.0718 29.8245C38.0718 25.1823 38.0718 20.54 38.0718 15.8978C38.0718 11.2555 38.0718 14.8863 38.0718 14.3676C38.0977 12.656 38.7979 12.0076 40.5096 11.9817C40.8468 11.9817 41.1839 11.9817 41.7026 11.9817H41.6767ZM42.1694 16.0793V28.3981H45.2297V16.0793H42.1694Z" fill="url(#paint3_linear_120_60)"/>
<path d="M74.5096 11.9817C74.5096 10.659 74.5096 9.49198 74.5096 8.299C74.5096 6.27612 74.5096 4.2273 74.5096 2.20442C74.5096 0.855834 75.3395 0 76.5325 0C77.6996 0 78.5295 0.855834 78.5554 2.20442C78.5813 5.00533 78.5554 7.83218 78.5554 10.6331C78.5554 11.0221 78.5554 11.4371 78.5554 11.9557C79.1 11.9557 79.5409 11.9557 79.9559 11.9557C81.4082 11.9817 82.1343 12.6819 82.1603 14.1602C82.1862 16.4943 82.1603 18.8283 82.1603 21.1624C82.1603 23.9634 82.1603 26.7902 82.1603 29.5911C82.1603 31.8993 81.5897 32.4698 79.3075 32.4958C79.1 32.4958 78.9185 32.4958 78.5813 32.5217C78.5813 32.8848 78.5295 33.2479 78.5295 33.6109C78.5295 36.4637 78.5295 39.2906 78.5295 42.1433C78.5295 43.8809 77.129 44.8924 75.7026 44.27C74.743 43.8291 74.4837 42.9992 74.4837 42.0137C74.4837 39.2387 74.4837 36.4637 74.4837 33.6887C74.4837 33.3257 74.4837 32.9626 74.4837 32.4958C73.9132 32.4958 73.4463 32.4958 72.9795 32.4958C71.7087 32.4439 70.9048 31.7177 70.8788 30.4729C70.8529 24.9489 70.8529 19.4248 70.8788 13.9268C70.8788 12.7078 71.6828 12.0076 72.9017 11.9557C73.3685 11.9557 73.8353 11.9557 74.4837 11.9557L74.5096 11.9817ZM78.0626 28.3981V16.1052H75.0024V28.3981H78.0626Z" fill="url(#paint4_linear_120_60)"/>
<defs>
<linearGradient id="paint0_linear_120_60" x1="51.8685" y1="7.67771" x2="51.8685" y2="100.315" gradientUnits="userSpaceOnUse">
<stop stop-color="#00EFD1"/>
<stop offset="1" stop-color="#00ACEA"/>
</linearGradient>
<linearGradient id="paint1_linear_120_60" x1="27.2442" y1="15.3175" x2="27.2442" y2="60.9192" gradientUnits="userSpaceOnUse">
<stop stop-color="#00EFD1"/>
<stop offset="1" stop-color="#00ACEA"/>
</linearGradient>
<linearGradient id="paint2_linear_120_60" x1="60.112" y1="15.3127" x2="60.112" y2="60.9192" gradientUnits="userSpaceOnUse">
<stop stop-color="#00EFD1"/>
<stop offset="1" stop-color="#00ACEA"/>
</linearGradient>
<linearGradient id="paint3_linear_120_60" x1="43.7125" y1="-0.969301" x2="43.7125" y2="44.6325" gradientUnits="userSpaceOnUse">
<stop stop-color="#00EFD1"/>
<stop offset="1" stop-color="#00ACEA"/>
</linearGradient>
<linearGradient id="paint4_linear_120_60" x1="76.5156" y1="-0.995296" x2="76.5156" y2="44.6097" gradientUnits="userSpaceOnUse">
<stop stop-color="#00EFD1"/>
<stop offset="1" stop-color="#00ACEA"/>
</linearGradient>
</defs>
</svg>
