<svg width="99" height="100" viewBox="0 0 99 100" fill="none" xmlns="http://www.w3.org/2000/svg">
<path d="M92.6155 16.5505C89.259 16.5505 85.9024 16.5505 82.5458 16.5505C81.5389 16.5505 80.6868 17.3767 80.6868 18.3837C80.6868 18.3837 80.6868 18.4095 80.6868 18.4353C80.6868 19.4681 81.513 20.2943 82.5458 20.2943C85.2053 20.2943 90.0594 20.2943 92.693 20.2943C94.3713 20.2943 95.0684 20.9657 95.0684 22.6439C95.0684 41.3375 95.0684 60.031 95.0684 78.7245C95.0684 80.4028 94.3971 81.0741 92.693 81.0741C64.3945 81.0741 34.3661 81.0741 6.06765 81.0741C4.441 81.0741 3.74387 80.377 3.74387 78.7761C3.74387 60.0568 3.74387 41.3375 3.74387 22.6181C3.74387 21.0173 4.441 20.3202 6.06765 20.3202C8.70127 20.3202 13.5812 20.3202 16.2406 20.3202C17.2734 20.3202 18.1255 19.3132 18.1255 18.4353C18.1255 17.5574 17.2993 16.5505 16.2406 16.5505C13.607 16.5505 8.882 16.5505 6.32585 16.5505C2.29796 16.5505 0 18.8226 0 22.8763C0 41.4149 0 59.9277 0 78.4663C0 81.9778 2.84018 84.818 6.35167 84.818C16.757 84.818 28.0145 84.818 38.4198 84.818H39.6075C39.5301 85.1794 39.4784 85.4118 39.4268 85.67C38.678 88.4586 37.9551 91.2213 37.2063 94.0098C37.0256 94.7069 37.0256 95.6623 36.5608 96.0238C36.0702 96.411 35.1407 96.2303 34.3919 96.2561C33.1784 96.3078 32.4038 97.0307 32.378 98.0893C32.378 99.1996 33.1526 99.9484 34.3919 100C34.6243 100 34.8309 100 35.0633 100C44.6424 100 54.2215 100 63.8007 100C64.0589 100 64.3171 100 64.5494 100C65.6855 99.9225 66.4343 99.1738 66.4343 98.141C66.4343 97.1082 65.6855 96.3336 64.5753 96.2561C64.0331 96.2303 63.4908 96.2045 62.9744 96.2561C62.3806 96.3078 62.174 96.0754 62.0191 95.5074C61.1671 92.2282 60.2892 88.975 59.4113 85.7217C59.3339 85.4635 59.2822 85.1794 59.2048 84.818H60.7281C71.1335 84.818 82.3909 84.818 92.7963 84.818C95.7914 84.818 97.8053 83.2946 98.6574 80.4028C98.6832 80.2995 98.7865 80.1962 98.8381 80.093V21.2755C98.8381 18.0222 95.843 16.5505 92.6155 16.5505ZM40.4854 96.2045C41.3375 92.977 42.1895 89.8012 43.0416 86.6512C43.3686 85.4463 44.1604 84.8438 45.417 84.8438C48.4637 84.8438 51.4846 84.8438 54.5314 84.8438C54.8154 84.8438 55.3318 85.0762 55.3834 85.2827C56.3904 88.8975 57.3457 92.5123 58.3527 96.2045H40.4854Z" fill="url(#paint0_linear_120_66)"/>
<path d="M16.2663 27.8595C17.2991 27.8595 18.1253 27.0333 18.1253 26.0005C18.1253 24.9677 17.2991 24.1415 16.2663 24.1415C14.149 24.1415 12.0835 24.1415 9.99206 24.1415C8.67525 24.1415 7.59082 25.2259 7.59082 26.5427C7.59082 42.6285 7.59082 58.74 7.59082 74.8257C7.59082 76.5815 8.26213 77.227 9.99206 77.227C35.7086 77.227 63.1292 77.227 88.8198 77.227C90.1367 77.227 91.2211 76.1425 91.2211 74.8257C91.2211 71.1593 91.2211 67.4929 91.2211 63.8265C91.2211 51.4072 91.2211 38.962 91.2211 26.5427C91.2211 24.787 90.5756 24.1415 88.8198 24.1415C87.1416 24.1415 85.4633 24.1415 83.785 24.1415H82.5715C81.5128 24.1415 80.6866 24.9935 80.6866 26.0263C80.6866 27.0591 81.5387 27.9112 82.5715 27.9112H87.4256V73.4056H11.4121V27.8595H16.2663Z" fill="url(#paint1_linear_120_66)"/>
<path d="M31.4226 58.3269C32.9718 59.8761 34.4952 61.4253 36.0444 62.9486C36.9223 63.8007 38.0583 63.8523 38.8329 63.0777C39.6075 62.3289 39.5559 61.1929 38.7038 60.2892C38.394 59.9535 38.0841 59.6437 37.7743 59.3339C36.2251 57.8105 34.6759 56.2871 32.9202 54.583C34.9858 52.5691 36.8706 50.7617 38.7296 48.9285C39.5559 48.1022 39.5817 46.9662 38.8329 46.2174C38.0841 45.4428 36.8964 45.4428 36.0444 46.2949C33.7464 48.567 31.4743 50.8391 29.228 53.1629C28.2468 54.1441 28.2726 55.1252 29.2538 56.158C29.9509 56.881 30.6739 57.6039 31.3968 58.3011L31.4226 58.3269Z" fill="url(#paint2_linear_120_66)"/>
<path d="M62.5612 46.1658C61.7866 45.4686 60.6764 45.5461 59.9792 46.2174C59.2821 46.9145 59.2305 47.9731 59.9276 48.7994C60.2116 49.135 60.5473 49.4449 60.8571 49.7547C62.4838 51.3297 64.1104 52.9047 65.7887 54.5314C65.5047 54.867 65.4014 54.9961 65.2723 55.0994C63.5682 56.8293 61.8383 58.5593 60.1342 60.2892C59.3079 61.1154 59.2046 62.0707 59.7727 62.8453C60.5215 63.8523 61.7866 63.9298 62.7936 62.9228C65.0141 60.7281 67.2088 58.5076 69.4035 56.2613C70.5395 55.0994 70.5137 54.1699 69.3518 52.9822C67.751 51.3555 66.1502 49.7547 64.5493 48.1281C63.878 47.4568 63.2325 46.7596 62.5354 46.1399L62.5612 46.1658Z" fill="url(#paint3_linear_120_66)"/>
<path d="M47.1467 62.3806C49.7545 57.8621 52.3365 53.3437 54.9185 48.8252C55.125 48.4379 55.2541 48.0248 55.3316 47.7924C55.3316 46.6822 54.8927 46.0625 54.0664 45.7785C53.1111 45.4428 52.2849 45.8301 51.691 46.8629C49.0832 51.4072 46.4754 55.9515 43.8676 60.5216C43.1705 61.7351 43.377 62.8453 44.3582 63.4134C45.3652 63.9814 46.398 63.6199 47.1209 62.4064L47.1467 62.3806Z" fill="url(#paint4_linear_120_66)"/>
<path d="M50.297 35.9411C55.0221 35.9411 59.4631 34.0563 62.8455 30.6481C66.2279 27.2399 68.0869 22.7472 68.0869 17.9706C68.0869 13.1939 66.2279 8.67545 62.8455 5.26723C59.4631 1.85902 54.9704 0 50.1938 0C40.3048 0 32.249 8.05577 32.249 17.9706C32.249 22.7989 34.108 27.3173 37.5163 30.6997C40.9245 34.0821 45.4687 35.9411 50.3229 35.9411H50.297ZM39.8142 7.61683C42.6028 4.8283 46.3208 3.30493 50.297 3.30493C54.17 3.30493 57.8106 4.85412 60.5475 7.64265C63.3102 10.4312 64.8078 14.1234 64.8078 18.0222C64.8078 21.9726 63.2586 25.6649 60.4959 28.4276C57.7331 31.1903 54.0409 32.6878 50.0905 32.6878C42.0605 32.6878 35.5281 26.1038 35.5281 18.0222C35.5281 14.0976 37.0515 10.4054 39.8142 7.64265V7.61683Z" fill="url(#paint5_linear_120_66)"/>
<path d="M46.011 19.8296C45.2623 20.6042 44.5135 21.353 43.7647 22.1017C43.3258 22.5407 43.145 23.0571 43.2225 23.5993C43.3258 24.2448 43.7131 24.7095 44.3328 24.8903C44.5135 24.9419 44.6942 24.9677 44.875 24.9677C45.3139 24.9677 45.7012 24.787 46.0627 24.4255C46.8115 23.6509 47.5602 22.9021 48.3348 22.1276L50.168 20.2685C50.168 20.2685 50.1938 20.2685 50.2197 20.2943L50.6844 20.7591C51.898 21.9726 53.1373 23.212 54.3508 24.4513C54.8156 24.8903 55.4353 25.071 56.0033 24.9161C56.5713 24.7612 57.0103 24.2964 57.1652 23.7026C57.3201 23.1087 57.1394 22.5665 56.623 22.0243C55.5902 20.9398 54.5574 19.8812 53.5246 18.7968L52.5951 17.8156L53.1115 17.2993C54.2476 16.189 55.4094 15.0529 56.5455 13.891C56.8037 13.6328 57.0103 13.2972 57.1135 12.9615C57.3201 12.2386 56.9845 11.4898 56.3131 11.1283C55.6418 10.7669 54.8672 10.8959 54.325 11.464C53.4213 12.3677 52.5176 13.2714 51.6139 14.1751L50.2197 15.5693C50.2197 15.5693 50.1938 15.5951 50.168 15.621C50.168 15.621 50.1422 15.5951 50.1164 15.5693L49.316 14.7689C48.2832 13.7361 47.2246 12.6775 46.166 11.6189C45.8819 11.3349 45.4946 11.1283 45.1074 11.0509C44.4619 10.9218 43.7389 11.2832 43.4291 11.9546C43.1192 12.6001 43.2483 13.2972 43.7647 13.8394C44.6684 14.7689 45.5979 15.6726 46.5016 16.6021L47.7926 17.8931C47.7926 17.8931 47.7926 17.8931 47.8184 17.9189C47.7926 17.9447 47.741 17.9706 47.7151 18.0222C47.1471 18.6161 46.5533 19.2099 45.9852 19.778L46.011 19.8296Z" fill="url(#paint6_linear_120_66)"/>
<defs>
<linearGradient id="paint0_linear_120_66" x1="49.4188" y1="14.6821" x2="49.4188" y2="100.291" gradientUnits="userSpaceOnUse">
<stop stop-color="#00EFD1"/>
<stop offset="1" stop-color="#00ACEA"/>
</linearGradient>
<linearGradient id="paint1_linear_120_66" x1="49.4058" y1="22.953" x2="49.4058" y2="77.4121" gradientUnits="userSpaceOnUse">
<stop stop-color="#00EFD1"/>
<stop offset="1" stop-color="#00ACEA"/>
</linearGradient>
<linearGradient id="paint2_linear_120_66" x1="33.9425" y1="45.2433" x2="33.9425" y2="63.6878" gradientUnits="userSpaceOnUse">
<stop stop-color="#00EFD1"/>
<stop offset="1" stop-color="#00ACEA"/>
</linearGradient>
<linearGradient id="paint3_linear_120_66" x1="64.8278" y1="45.2751" x2="64.8278" y2="63.7031" gradientUnits="userSpaceOnUse">
<stop stop-color="#00EFD1"/>
<stop offset="1" stop-color="#00ACEA"/>
</linearGradient>
<linearGradient id="paint4_linear_120_66" x1="49.394" y1="45.2573" x2="49.394" y2="63.7388" gradientUnits="userSpaceOnUse">
<stop stop-color="#00EFD1"/>
<stop offset="1" stop-color="#00ACEA"/>
</linearGradient>
<linearGradient id="paint5_linear_120_66" x1="50.1679" y1="-0.804687" x2="50.1679" y2="36.0665" gradientUnits="userSpaceOnUse">
<stop stop-color="#00EFD1"/>
<stop offset="1" stop-color="#00ACEA"/>
</linearGradient>
<linearGradient id="paint6_linear_120_66" x1="50.2119" y1="10.6115" x2="50.2119" y2="25.0197" gradientUnits="userSpaceOnUse">
<stop stop-color="#00EFD1"/>
<stop offset="1" stop-color="#00ACEA"/>
</linearGradient>
</defs>
</svg>
