<svg width="100" height="100" viewBox="0 0 100 100" fill="none" xmlns="http://www.w3.org/2000/svg">
<path d="M99.7246 56.5688C99.6988 56.4915 99.6731 56.4142 99.6216 56.3369C99.5443 56.1824 99.4928 56.0278 99.4412 55.899C98.3336 52.6533 94.959 50.8243 91.739 51.7774C88.4675 52.7306 86.5613 56.1051 87.4371 59.2993C87.6947 60.2009 88.1842 60.9995 88.6994 61.8496C88.9054 62.1844 89.1115 62.5451 89.3176 62.9057C89.0342 63.4209 88.7509 63.9619 88.4418 64.5286C87.7978 65.7651 87.128 67.0273 86.4067 68.2895C85.737 69.5003 84.9384 70.1958 84.0368 70.3503C83.0064 70.5307 81.7442 69.9897 80.3531 68.779C80.1728 68.6244 79.9925 68.4441 79.8122 68.2638C79.5546 68.0062 79.297 67.7486 78.9879 67.5167C78.7045 67.2849 78.6788 67.1819 78.8333 66.8212C79.2455 65.8423 79.6319 64.8119 80.1213 63.4467C83.5474 53.6064 84.8354 45.1314 84.1141 36.8109C83.1352 25.425 77.4938 15.5075 67.3186 7.29006C67.061 7.08398 66.8292 6.92942 66.6231 6.80062C62.1151 3.81247 56.9889 1.80319 51.4248 0.772798C50.214 0.540958 48.9776 0.386399 47.7668 0.231839C47.2001 0.154559 46.6334 0.0772798 46.0667 0H40.7344H40.6829C39.5494 0.386399 39.0342 1.21072 39.06 2.52447C39.0858 3.99279 39.06 5.48686 39.06 6.92942C39.06 8.32045 39.06 9.73725 39.06 11.154C39.06 11.8238 38.9054 12.0814 38.3387 12.3132C37.669 12.5708 37.0765 12.983 36.484 13.3694L36.3552 13.4467C32.9291 15.7393 30.1728 18.9593 28.112 23.0294C25.6906 27.795 23.0373 31.1953 19.7401 33.7455C17.9111 35.1623 16.5974 37.1716 15.9534 39.5415C15.026 42.9675 16.0564 46.0072 19.1218 48.8408C22.7282 52.2154 25.7164 52.3957 29.7349 49.4848C30.0183 49.2787 30.2759 49.0726 30.5592 48.8666C31.2805 48.3256 32.0275 47.7846 32.8003 47.3467C33.161 47.1406 33.805 47.0891 34.2944 47.2437C34.8869 47.424 35.4536 47.7074 36.0461 48.0422C36.2522 48.1453 36.4582 48.2741 36.6643 48.3771C39.3176 49.7166 42.0224 49.8197 44.7272 48.6605C44.8045 48.6347 44.856 48.609 44.9333 48.5832C41.8163 55.8733 37.5144 61.798 31.8472 66.6409C31.3835 66.2803 30.8941 65.9196 30.4304 65.559C29.0136 64.4771 27.5711 63.3694 26.1285 62.3132C25.6391 61.9526 25.536 61.7723 25.7421 61.2056C26.6695 58.6296 25.7936 55.796 23.5268 54.1473C21.3629 52.5502 18.4005 52.5245 16.211 54.1216C13.9183 55.7702 12.991 58.6553 13.9441 61.154C14.279 62.0041 14.1759 62.5193 13.5834 63.2664C12.9137 64.1164 12.2697 65.018 11.6772 65.8939C11.3938 66.2803 11.1362 66.6667 10.8529 67.0531L9.15274 69.3972C8.9209 69.2942 8.71482 69.1911 8.48298 69.1139C6.57674 68.4183 4.51595 68.6502 2.8158 69.7579C1.1414 70.8655 0.111004 72.643 0.00796473 74.6265C-0.120835 77.2282 1.32172 79.6239 3.66587 80.7058C5.98427 81.7877 8.7921 81.2983 10.6468 79.4951C12.4758 77.7177 13.0425 74.9871 12.0636 72.5657C11.9348 72.2308 11.909 71.9475 11.9348 71.8959C13.3001 69.9382 14.7169 67.9547 16.0822 66.0484L16.958 64.8377C19.0188 65.8166 21.0796 65.7651 23.0889 64.6316L28.9621 69.1396C25.5618 72.5657 23.6556 76.7388 23.3207 81.5817C23.3207 81.7105 23.0889 81.9938 22.857 82.1226C21.1053 82.9727 20.1007 84.2864 19.8431 85.9866C19.7401 86.6564 19.8173 87.3519 19.8689 88.0216C19.8689 88.2277 19.8946 88.4338 19.9204 88.6656C16.8807 89.9536 15.8503 91.628 15.8503 95.1571C15.8503 98.6862 15.8503 95.6466 15.8503 95.9042C15.8503 96.4451 15.8503 97.0118 15.8503 97.5528C15.773 98.6347 16.1594 99.4333 17.0095 99.9485L17.1126 100H76.1285L76.2316 99.9227C76.9786 99.3045 77.3135 98.4802 77.2362 97.3725C77.2104 96.8315 77.2104 96.2648 77.2362 95.7239C77.2362 95.4663 77.2362 95.2344 77.2362 94.9768C77.2362 91.6023 76.1543 89.9021 73.1146 88.6399C73.1146 88.3823 73.1146 88.0989 73.1661 87.8413C73.2176 86.9912 73.2692 86.1154 73.0373 85.3168C72.7797 84.5183 72.2388 83.8228 71.7236 83.153C71.5433 82.9212 71.3629 82.7151 71.2084 82.4833L77.2877 71.0201C77.5968 71.3034 77.906 71.5868 78.2408 71.8959L79.297 72.8748C78.4984 74.4204 78.2408 75.7857 78.4727 77.2025C78.9364 79.83 80.9199 81.865 83.5474 82.3802C86.0461 82.8697 88.7251 81.6074 90.0389 79.3663C91.4042 77.0479 91.1723 74.1628 89.4464 72.2308C88.9312 71.6641 88.957 71.3807 89.3176 70.7883C89.9616 69.6806 90.5798 68.5214 91.1723 67.4137C91.6617 66.5121 92.1512 65.5847 92.6664 64.6832C92.7694 64.4771 93.0528 64.271 93.1816 64.271C96.7365 64.0392 98.5397 62.6739 99.6216 59.3251C99.6216 59.3251 99.6731 59.2736 99.6988 59.2478L99.7761 59.1448V56.7233L99.7246 56.5688ZM96.0667 57.831C96.0667 59.2221 94.8817 60.407 93.4907 60.407C92.8209 60.407 92.1512 60.1236 91.636 59.6342C91.1466 59.119 90.8632 58.475 90.8632 57.8053C90.8632 56.44 92.0739 55.2293 93.4392 55.2293C94.1089 55.2293 94.7529 55.5126 95.2424 56.0021C95.7576 56.5173 96.0409 57.187 96.0152 57.8568L96.0667 57.831ZM84.6293 78.6193C83.9338 78.6193 83.2898 78.3359 82.7746 77.8465C82.2851 77.357 82.0018 76.6873 82.0018 76.0175C82.0018 74.6265 83.1867 73.4415 84.5778 73.4158C85.2475 73.4158 85.8658 73.6734 86.3552 74.1628C86.8704 74.6522 87.1538 75.3478 87.128 76.0433C87.128 77.4601 85.9688 78.5935 84.5778 78.6193H84.6293ZM19.8173 61.7723C19.1476 61.7723 18.4778 61.4889 17.9884 60.9995C17.499 60.51 17.2156 59.8403 17.2156 59.1705C17.2156 57.7795 18.4005 56.5945 19.7916 56.5688C20.4613 56.5688 21.1053 56.8521 21.5948 57.3416C22.11 57.831 22.3933 58.5265 22.3676 59.1963C22.3676 60.5873 21.1826 61.7723 19.7916 61.7723H19.8173ZM73.5268 96.2133H19.6113C19.6113 96.0072 19.6113 95.8269 19.6113 95.6466C19.5855 94.9253 19.5597 94.2813 19.6628 93.6115C19.8173 92.6069 20.6932 92.0144 22.0327 92.0144C25.7936 92.0144 36.4582 92.0144 42.8467 92.0144H42.9497C43.1301 92.0144 43.3104 92.0144 43.4649 92.0144C43.5422 92.0144 43.6195 92.0144 43.6968 92.0144H46.788C46.9683 92.0144 47.1486 92.0144 47.3289 92.0144H70.5644C72.8828 92.0144 73.5268 92.6584 73.5268 94.9768V96.2133ZM24.8405 85.3426C24.9436 85.2911 25.1754 85.3168 25.3557 85.3426C25.4588 85.3426 25.5876 85.3426 25.6906 85.3426H67.5247C67.7823 85.3426 68.0141 85.3426 68.2717 85.3426C69.0961 85.4199 69.6113 86.0381 69.6113 86.8367C69.6113 87.6352 69.0445 88.2277 68.2202 88.305C67.9884 88.305 67.7565 88.305 67.5247 88.305H67.2929H47.4835C47.2259 88.305 46.9683 88.305 46.7107 88.305C46.5819 88.305 46.4789 88.305 46.3501 88.305C45.3197 88.305 43.4134 88.305 41.1208 88.305C35.4021 88.305 27.5711 88.305 25.0466 88.305C24.4026 88.305 23.8359 87.9959 23.5525 87.5322C23.3207 87.1458 23.3207 86.7079 23.5525 86.27C23.7586 85.8836 24.3253 85.5744 24.789 85.3426H24.8405ZM50.008 45.2344C50.1883 44.6419 50.5747 43.4055 49.3124 42.6584C48.282 42.0402 47.4577 42.6069 46.788 43.0706C45.5257 43.9722 44.3923 44.6677 43.3104 45.2087C41.739 46.0072 40.0904 45.9814 38.4418 45.1571C38.1326 45.0026 37.7978 44.848 37.4886 44.6935C36.9992 44.4616 36.5098 44.2298 36.0203 43.9722C34.0883 42.9933 32.2079 43.1221 30.4304 44.4101C29.8122 44.8738 29.1682 45.3117 28.55 45.7496C27.9575 46.1875 27.3392 46.5997 26.7468 47.0376C25.4072 47.9907 24.145 47.9907 22.6509 46.9861C20.7189 45.6981 19.5855 44.1267 19.3794 42.4523C19.1733 40.8037 19.8431 39.0778 21.3114 37.4034C22.2645 36.3472 23.3722 35.3684 24.4541 34.441C24.6344 34.2864 24.8405 34.1061 25.0208 33.9516C26.7983 32.406 28.1636 30.6801 29.2455 28.6708C30.2501 26.7646 31.5896 24.2916 33.1352 21.9217C35.2475 18.7017 37.7462 16.5121 40.7859 15.1984C42.6406 14.3998 42.7179 14.271 42.7179 12.1844V4.07007C42.8467 4.07007 42.9755 4.09583 43.0785 4.14735C47.535 5.28078 49.9049 8.19165 50.0852 12.7769C50.1368 13.9361 50.6262 14.6574 51.7339 15.1468C53.5371 15.9454 55.0569 16.7439 56.3964 17.5683C61.4711 20.6852 65.026 24.3946 67.2671 28.9284C69.5082 33.4621 70.0749 38.5368 69.0703 45.3632C68.8127 47.0634 68.4521 48.7893 68.1172 50.4637C67.9369 51.3138 67.7565 52.1638 67.602 53.0397C67.602 53.1169 67.602 53.1685 67.602 53.2457C67.4474 53.864 67.2156 54.8686 66.9322 56.0278C66.2625 58.8099 65.4124 62.2617 65.2321 63.1633C63.8668 69.9124 63.841 75.3735 65.1548 80.3967C65.2578 80.7831 65.3609 81.1695 65.4639 81.5817H27.0301C27.0301 81.5817 27.0301 81.5817 27.0301 81.5559C27.0301 81.2725 27.0301 80.9892 27.0816 80.7316C27.6226 76.7903 29.4 73.493 32.3882 70.917C32.8003 70.5564 33.2125 70.2215 33.6247 69.8609C34.552 69.0881 35.5309 68.2638 36.4067 67.4137C42.7952 61.2828 47.3547 53.8125 50.008 45.2344ZM67.9626 69.9124C68.246 67.9289 69.1476 63.73 69.9461 60.0206C70.4871 57.4961 71.0023 55.1005 71.2599 53.7352C71.2599 53.6064 71.3114 53.4518 71.3114 53.323C72.0584 50.0773 72.9601 45.7754 73.1919 41.2931C73.5783 33.8743 71.569 27.4343 67.2156 22.102C63.8668 18.0062 59.6937 14.812 54.4644 12.3132C53.9492 12.0814 53.7689 11.8753 53.6916 11.3086C53.4083 8.60381 52.4036 6.28542 50.6777 4.43071C55.7782 5.38382 60.2346 7.10974 64.2532 9.68573C64.3305 9.73725 64.382 9.78877 64.4593 9.81453C64.5881 9.89181 64.7169 9.99485 64.8714 10.0721C71.6463 14.8892 75.1754 21.0716 77.9317 26.4812C82.0018 34.4668 81.1259 43.2509 79.7349 50.7986C78.0348 60.1236 74.4026 69.423 68.6324 79.2117C67.9626 76.8418 67.5247 72.9263 67.9626 69.9639V69.9124ZM8.84362 74.9614C8.84362 76.3524 7.65866 77.5116 6.26762 77.5116C5.57211 77.5116 4.92811 77.2282 4.43867 76.7388C3.94923 76.2494 3.66587 75.5796 3.69163 74.8841C3.69163 73.4673 4.85083 72.3338 6.26762 72.3338C6.96314 72.3338 7.60714 72.6172 8.12234 73.1066C8.61178 73.5961 8.89514 74.2658 8.86938 74.9356L8.84362 74.9614Z" fill="url(#paint0_linear_8_522)"/>
<defs>
<linearGradient id="paint0_linear_8_522" x1="49.8878" y1="-2.2389" x2="49.8878" y2="100.349" gradientUnits="userSpaceOnUse">
<stop stop-color="#00EFD1"/>
<stop offset="1" stop-color="#00ACEA"/>
</linearGradient>
</defs>
</svg>
