<svg width="100" height="100" viewBox="0 0 100 100" fill="none" xmlns="http://www.w3.org/2000/svg">
<path d="M46.7145 0C59.2514 0 71.7884 0 84.2993 0C89.8395 0 93.2989 3.45937 93.2989 9.05158C93.2989 22.707 93.2989 36.3364 93.2989 49.9918C93.2989 50.8241 93.481 51.5004 94.0012 52.1766C107.448 70.0457 96.8883 96.186 74.8576 99.6194C60.604 101.83 47.3647 94.2613 42.0586 80.7619C41.7725 80.0337 41.3564 79.9816 40.7321 79.9816C30.1459 79.9816 19.5597 79.9816 8.97355 79.9816C3.48538 80.0076 0 76.5223 0 71.0081C0 50.3299 0 29.6257 0 8.94754C0 3.51139 3.51139 0 8.92153 0C21.5105 0 34.1255 0 46.7145 0ZM89.9696 16.7506H3.32932V17.8431C3.32932 35.5821 3.32932 53.3211 3.32932 71.0601C3.32932 74.6755 5.33211 76.6523 8.94754 76.6523C19.1436 76.6523 29.3656 76.6523 39.5616 76.6523H40.7061C40.6541 76.2882 40.6281 76.0541 40.6021 75.82C38.6773 65.0257 41.6945 55.8181 49.4976 48.119C49.7837 47.8329 49.9918 47.2867 49.9918 46.8705C50.0438 43.5672 49.9918 40.2639 49.9918 36.9866C49.9918 35.6341 50.616 35.0359 51.9686 35.0098C52.9569 35.0098 53.9453 35.0098 54.9857 35.0098C54.9857 33.3972 54.9857 31.9406 54.9857 30.4841C54.9857 29.1055 55.61 28.3252 56.6764 28.3252C57.7168 28.3252 58.3151 29.1055 58.3151 30.432C58.3151 31.9146 58.3151 33.3972 58.3151 34.9838C59.3295 34.9838 60.2658 34.9838 61.2022 34.9838C62.7368 34.9838 63.309 35.5561 63.309 37.1427C63.309 38.3132 63.309 39.4836 63.309 40.6281C65.5719 40.368 67.7308 40.1079 69.9677 39.8478V38.8594C69.9677 35.6341 69.9677 32.4088 69.9677 29.1835C69.9677 27.0767 70.4098 26.6605 72.5427 26.6605C73.323 26.6605 74.1033 26.6605 74.9616 26.6605C74.9616 24.9439 74.9616 23.3572 74.9616 21.7446C74.9616 20.8863 75.4038 20.158 76.2362 20.0799C76.8084 20.0279 77.5107 20.4181 78.0048 20.8082C78.265 21.0163 78.291 21.6406 78.291 22.0827C78.317 23.5913 78.291 25.0999 78.291 26.6605C79.3054 26.6605 80.1897 26.6605 81.0481 26.6605C82.7647 26.6605 83.2849 27.2068 83.2849 28.8974C83.2849 33.3712 83.2849 37.845 83.2849 42.3447C83.2849 42.943 83.467 43.2291 83.9872 43.5672C85.8339 44.7377 87.6026 46.0122 89.3974 47.2347C89.5534 47.3387 89.7095 47.4168 89.9176 47.5468V16.7506H89.9696ZM43.3331 69.9417C43.3071 84.6375 55.2198 96.6802 69.8636 96.6802C84.6635 96.6802 96.6542 84.7675 96.6542 69.9937C96.6542 55.3759 84.7415 43.3852 70.1237 43.3591C55.3499 43.3331 43.3591 55.2198 43.3331 69.9417ZM3.35533 13.2652H89.9696C89.9696 11.8347 89.9696 10.4821 89.9696 9.12961C89.9696 5.22807 88.0448 3.32932 84.1433 3.32932C59.1214 3.32932 34.0995 3.32932 9.07759 3.32932C8.76547 3.32932 8.45334 3.32932 8.14122 3.32932C5.67024 3.43336 3.56341 5.28009 3.35533 7.69904C3.19927 9.51977 3.32932 11.3665 3.32932 13.2392L3.35533 13.2652ZM79.9036 41.6165V30.0679H73.375V40.0819C75.5859 40.6021 77.7187 41.0963 79.9036 41.6165ZM53.3991 38.3912V44.8157C55.4539 43.8533 57.4827 42.917 59.4855 41.9546C59.6936 41.8506 59.9537 41.5904 59.9537 41.4084C60.0057 40.42 59.9537 39.4316 59.9537 38.3912H53.3731H53.3991Z" fill="url(#paint0_linear_120_51)"/>
<path d="M34.9837 29.9899C34.9837 28.4032 34.9837 26.9207 34.9837 25.4381C34.9837 24.1115 35.582 23.3572 36.6224 23.3312C37.6888 23.3312 38.313 24.0855 38.313 25.4641C38.313 26.9207 38.313 28.3772 38.313 29.9899C39.3534 29.9899 40.3418 29.9899 41.3302 29.9899C42.6828 29.9899 43.307 30.6141 43.307 31.9667C43.307 37.2988 43.307 42.6569 43.307 47.989C43.307 49.3675 42.7088 49.9658 41.3562 49.9918C40.3939 49.9918 39.4315 49.9918 38.313 49.9918C38.313 51.6825 38.313 53.2951 38.313 54.9077C38.313 55.8181 37.8449 56.4423 36.9345 56.6244C36.0762 56.7805 35.4259 56.3903 35.1138 55.584C34.9837 55.2459 34.9837 54.8297 34.9837 54.4656C34.9837 53.009 34.9837 51.5784 34.9837 49.9918C33.8913 49.9918 32.9029 49.9918 31.9145 49.9918C30.614 49.9918 29.9897 49.3675 29.9897 48.067C29.9897 42.6829 29.9897 37.2988 29.9897 31.9406C29.9897 30.6401 30.614 30.0159 31.8885 30.0159C32.8769 30.0159 33.8913 30.0159 34.9837 30.0159V29.9899ZM33.3711 46.5844H39.8997V33.3712H33.3711V46.5844Z" fill="url(#paint1_linear_120_51)"/>
<path d="M18.3375 66.6644C18.3375 68.303 18.3375 69.8116 18.3375 71.2942C18.3375 72.5687 17.6612 73.349 16.6208 73.323C15.6324 73.297 15.0081 72.5427 15.0081 71.2942C15.0081 69.8116 15.0081 68.303 15.0081 66.6644C14.0197 66.6644 13.0834 66.6644 12.121 66.6644C10.6124 66.6644 10.0142 66.0921 10.0142 64.6096C10.0142 59.3035 10.0142 53.9974 10.0142 48.6913C10.0142 47.2607 10.6124 46.6885 12.043 46.6885C12.9793 46.6885 13.9157 46.6885 15.0081 46.6885C15.0081 45.0758 15.0081 43.4892 15.0081 41.9026C15.0081 40.9402 15.4243 40.2899 16.3607 40.0558C17.3751 39.8218 18.3114 40.6021 18.3375 41.7725C18.3635 43.3592 18.3375 44.9458 18.3375 46.6885C19.3519 46.6885 20.3142 46.6885 21.2766 46.6885C22.7072 46.6885 23.3314 47.2867 23.3314 48.6913C23.3314 54.0234 23.3314 59.3815 23.3314 64.7136C23.3314 66.0661 22.7072 66.6644 21.3546 66.6904C20.3923 66.6904 19.4299 66.6904 18.3375 66.6904V66.6644ZM13.4215 50.0438V63.257H19.9501V50.0438H13.4215Z" fill="url(#paint2_linear_120_51)"/>
<path d="M75.8199 63.257C75.5338 68.251 75.2737 73.245 74.9876 78.2389C74.9096 79.4094 74.3113 79.9816 73.1149 80.0076C71.0341 80.0076 68.9532 80.0076 66.8724 80.0076C65.6759 80.0076 65.0777 79.4094 64.9997 78.2389C64.5055 69.4475 64.0113 60.63 63.5431 51.8385C63.4911 50.8241 63.413 49.8357 63.361 48.8213C63.309 47.3387 63.9072 46.6885 65.3638 46.6885C68.459 46.6885 71.5543 46.6885 74.6235 46.6885C76.08 46.6885 76.7043 47.3387 76.6263 48.8213C76.3662 53.6332 76.08 58.4451 75.8199 63.283V63.257ZM71.7363 76.6263C72.2305 67.7568 72.7247 58.9133 73.2189 50.0698H66.7684C67.2626 58.9653 67.7568 67.7828 68.2509 76.6263H71.7623H71.7363Z" fill="url(#paint3_linear_120_51)"/>
<path d="M70.0195 93.3249C67.2364 93.3249 64.9995 91.062 64.9995 88.3049C64.9995 85.5998 67.2364 83.363 69.9675 83.3369C72.7246 83.3369 74.9875 85.5738 74.9875 88.3569C74.9875 91.062 72.7246 93.3249 70.0195 93.3249ZM70.0195 86.6663C69.1352 86.6403 68.3548 87.3685 68.3288 88.2529C68.3028 89.1372 69.0051 89.9175 69.8895 89.9696C70.8258 90.0216 71.6321 89.2673 71.6321 88.3309C71.6321 87.4466 70.9039 86.6663 70.0195 86.6403V86.6663Z" fill="url(#paint4_linear_120_51)"/>
<path d="M73.323 8.34931C73.323 9.25967 72.5687 10.014 71.6583 10.014C70.748 10.014 69.9937 9.25967 70.0197 8.34931C70.0197 7.43895 70.774 6.68465 71.6844 6.71066C72.5947 6.71066 73.349 7.46496 73.349 8.37532L73.323 8.34931Z" fill="url(#paint5_linear_120_51)"/>
<path d="M79.9817 8.3753C79.9817 9.28566 79.1754 10.014 78.2911 9.98794C77.3807 9.98794 76.6524 9.18162 76.6784 8.29727C76.6784 7.38691 77.4847 6.65863 78.3691 6.68464C79.2794 6.68464 80.0077 7.49095 79.9817 8.3753Z" fill="url(#paint6_linear_120_51)"/>
<path d="M86.6404 8.3753C86.6404 9.28566 85.8341 10.014 84.9497 9.98794C84.0394 9.98794 83.3111 9.20763 83.3371 8.29727C83.3371 7.38691 84.1174 6.65863 85.0278 6.68464C85.9381 6.68464 86.6664 7.46494 86.6404 8.3753Z" fill="url(#paint7_linear_120_51)"/>
<defs>
<linearGradient id="paint0_linear_120_51" x1="49.9804" y1="-2.2389" x2="49.9804" y2="100.349" gradientUnits="userSpaceOnUse">
<stop stop-color="#00EFD1"/>
<stop offset="1" stop-color="#00ACEA"/>
</linearGradient>
<linearGradient id="paint1_linear_120_51" x1="36.6483" y1="22.5851" x2="36.6483" y2="56.7745" gradientUnits="userSpaceOnUse">
<stop stop-color="#00EFD1"/>
<stop offset="1" stop-color="#00ACEA"/>
</linearGradient>
<linearGradient id="paint2_linear_120_51" x1="16.6728" y1="39.2685" x2="16.6728" y2="73.4398" gradientUnits="userSpaceOnUse">
<stop stop-color="#00EFD1"/>
<stop offset="1" stop-color="#00ACEA"/>
</linearGradient>
<linearGradient id="paint3_linear_120_51" x1="69.9953" y1="45.9425" x2="69.9953" y2="80.1239" gradientUnits="userSpaceOnUse">
<stop stop-color="#00EFD1"/>
<stop offset="1" stop-color="#00ACEA"/>
</linearGradient>
<linearGradient id="paint4_linear_120_51" x1="69.9935" y1="83.1133" x2="69.9935" y2="93.3597" gradientUnits="userSpaceOnUse">
<stop stop-color="#00EFD1"/>
<stop offset="1" stop-color="#00ACEA"/>
</linearGradient>
<linearGradient id="paint5_linear_120_51" x1="71.684" y1="6.63603" x2="71.684" y2="10.0255" gradientUnits="userSpaceOnUse">
<stop stop-color="#00EFD1"/>
<stop offset="1" stop-color="#00ACEA"/>
</linearGradient>
<linearGradient id="paint6_linear_120_51" x1="78.3301" y1="6.60997" x2="78.3301" y2="10.0001" gradientUnits="userSpaceOnUse">
<stop stop-color="#00EFD1"/>
<stop offset="1" stop-color="#00ACEA"/>
</linearGradient>
<linearGradient id="paint7_linear_120_51" x1="84.9887" y1="6.60997" x2="84.9887" y2="10.0001" gradientUnits="userSpaceOnUse">
<stop stop-color="#00EFD1"/>
<stop offset="1" stop-color="#00ACEA"/>
</linearGradient>
</defs>
</svg>
