<svg width="16" height="16" viewBox="0 0 16 16" fill="none" xmlns="http://www.w3.org/2000/svg">
<g clip-path="url(#clip0_18056_35694)">
<path d="M15.9842 8.00178C15.9841 9.58091 15.5158 11.1246 14.6384 12.4375C13.7611 13.7505 12.5141 14.7739 11.0552 15.3782C9.59624 15.9825 7.99088 16.1406 6.44208 15.8326C4.89328 15.5246 3.47059 14.7643 2.35389 13.6477C0.870379 12.1474 0.0409773 10.121 0.0469066 8.01108C0.0528358 5.90119 0.893614 3.87941 2.38554 2.38749C3.87746 0.895567 5.89924 0.054789 8.00913 0.0488597C10.119 0.0429304 12.1455 0.872332 13.6458 2.35584C14.3895 3.0956 14.9791 3.97549 15.3804 4.94461C15.7818 5.91373 15.987 6.95283 15.9842 8.00178Z" fill="#FFA000"/>
<path d="M9.16937 2.91406H6.82812V9.93844H9.16937V2.91406Z" fill="white"/>
<path d="M9.16937 10.7461H6.82812V13.0877H9.16937V10.7461Z" fill="white"/>
<path d="M14.7903 12.2068C14.4652 12.729 14.0813 13.2122 13.646 13.6468C12.5293 14.7635 11.1066 15.524 9.55778 15.8321C8.00893 16.1402 6.4035 15.982 4.94451 15.3777C3.48552 14.7734 2.23852 13.7499 1.36118 12.4369C0.483853 11.1238 0.015606 9.58006 0.0156582 8.00086C0.0102543 6.13191 0.665624 4.32121 1.86597 2.88867C0.9195 4.41979 0.517567 6.22556 0.725259 8.01358C0.932951 9.80159 1.73811 11.4671 3.01035 12.7405C4.5078 14.2378 6.53868 15.079 8.65628 15.079C10.7739 15.079 12.8048 14.2378 14.3022 12.7405C14.4737 12.5689 14.6364 12.391 14.7903 12.2068Z" fill="#EA8500"/>
<path opacity="0.5" d="M14.9375 8.15625C14.8961 8.15625 14.8563 8.13979 14.827 8.11049C14.7977 8.08118 14.7812 8.04144 14.7812 8C14.7812 6.2015 14.0668 4.47666 12.7951 3.20493C11.5233 1.9332 9.7985 1.21875 8 1.21875C7.95856 1.21875 7.91882 1.20229 7.88951 1.17299C7.86021 1.14368 7.84375 1.10394 7.84375 1.0625C7.84375 1.02106 7.86021 0.981317 7.88951 0.952015C7.91882 0.922712 7.95856 0.90625 8 0.90625C8.93156 0.90625 9.85401 1.08974 10.7147 1.44623C11.5753 1.80272 12.3573 2.32525 13.016 2.98396C13.6748 3.64268 14.1973 4.42469 14.5538 5.28534C14.9103 6.14599 15.0938 7.06844 15.0938 8C15.0938 8.04144 15.0773 8.08118 15.048 8.11049C15.0187 8.13979 14.9789 8.15625 14.9375 8.15625Z" fill="white"/>
</g>
<defs>
<clipPath id="clip0_18056_35694">
<rect width="16" height="16" fill="white"/>
</clipPath>
</defs>
</svg>
