<svg width="46" height="46" viewBox="0 0 46 46" fill="none" xmlns="http://www.w3.org/2000/svg">
<g clip-path="url(#clip0_18389_29364)">
<path d="M22.9982 12.8438C26.4024 12.9582 28.977 14.503 30.3502 17.6497C31.6947 20.7393 31.1512 23.6286 28.977 26.2032C28.7482 26.4893 28.7768 26.5465 29.0915 26.6895C31.0367 27.5477 32.3527 28.9495 33.0678 30.952C33.3825 31.8102 32.982 32.697 32.181 33.0117C31.38 33.3263 30.436 33.0117 30.1499 32.1821C29.492 30.3512 28.0902 29.4644 26.288 29.1497C23.885 28.7206 21.5106 28.692 19.1363 29.2928C17.6487 29.6646 16.533 30.5229 15.9895 32.039C15.6462 32.9831 14.7308 33.3549 13.8726 33.0117C13.0144 32.6684 12.6711 31.7816 13.0144 30.8375C13.7581 28.8923 15.0455 27.4905 16.9621 26.6609C17.2768 26.5179 17.334 26.4607 17.0765 26.1746C14.9882 23.7716 14.4161 21.0253 15.5318 18.0502C16.6474 15.0465 18.9074 13.3301 22.0828 12.8438C22.14 12.8438 22.2258 12.8438 22.283 12.8438C22.5405 12.8438 22.7979 12.8438 23.0268 12.8438H22.9982Z" fill="#004393"/>
<path d="M46.0008 23.0014C45.9149 29.3235 43.6836 34.7589 39.2495 39.2788C38.5343 40.0225 37.5331 40.0798 36.8751 39.4218C36.1886 38.7638 36.1886 37.8198 36.9323 37.076C39.5356 34.4442 41.3378 31.3832 42.2246 27.7788C44.9709 16.6507 37.7906 5.55115 26.5766 3.52005C25.0605 3.23398 23.5443 3.20538 22.0281 3.23398C20.8838 3.23398 20.1115 2.23274 20.4261 1.17428C20.5978 0.544928 21.1699 0.05861 21.8565 0.030003C29.0368 -0.22746 35.1301 2.23274 40.0219 7.49642C43.1687 10.9007 45.0567 14.9342 45.7719 19.5113C45.9435 20.6556 46.058 21.8285 46.0294 23.0014H46.0008Z" fill="#FFBF3C"/>
<path d="M8.0967 6.40625C9.09795 6.40625 9.84173 7.09282 9.84173 8.00824C9.84173 8.89506 9.09795 9.61023 8.15392 9.61023C7.18128 9.61023 6.4375 8.92366 6.4375 7.97963C6.4375 7.0356 7.12407 6.40625 8.12531 6.40625H8.0967Z" fill="#FFBF3C"/>
<path d="M8.12267 39.5634C7.09282 39.5634 6.40625 38.9054 6.40625 37.9614C6.40625 37.0459 7.12142 36.3594 8.09406 36.3594C9.0667 36.3594 9.83909 37.0745 9.81048 37.99C9.81048 38.9054 9.0667 39.5634 8.09406 39.5634H8.12267Z" fill="#FFBF3C"/>
<path d="M3.80626 12.8438C4.83611 12.8438 5.52268 13.5017 5.52268 14.4457C5.52268 15.3612 4.80751 16.0477 3.83487 16.0477C2.86223 16.0477 2.08984 15.3612 2.08984 14.4457C2.08984 13.5303 2.80502 12.8438 3.77766 12.8438H3.80626Z" fill="#FFBF3C"/>
<path d="M3.83361 33.1571C2.86097 33.1571 2.14579 32.4991 2.11719 31.5837C2.11719 30.6683 2.86097 29.9531 3.83361 29.9531C4.80624 29.9531 5.52142 30.6397 5.52142 31.5551C5.52142 32.4991 4.83485 33.1571 3.805 33.1571H3.83361Z" fill="#FFBF3C"/>
<path d="M23.1149 46.0009C22.1136 46.0009 21.3984 45.3143 21.3984 44.3989C21.3984 43.4834 22.1422 42.7969 23.0862 42.7969C24.0875 42.7969 24.8027 43.4834 24.8027 44.4275C24.8027 45.3429 24.0875 46.0009 23.1149 46.0009Z" fill="#FFBF3C"/>
<path d="M14.5628 2.11719C15.5354 2.11719 16.2506 2.80375 16.2792 3.69057C16.2792 4.60599 15.5354 5.32117 14.5628 5.32117C13.5902 5.32117 12.875 4.66321 12.875 3.74778C12.875 2.80375 13.5902 2.11719 14.5914 2.11719H14.5628Z" fill="#FFBF3C"/>
<path d="M1.68864 24.6024C0.687396 24.6024 -0.0277785 23.9158 0.000828485 22.9718C0.000828485 22.0564 0.716003 21.3984 1.68864 21.3984C2.68988 21.3984 3.43366 22.1136 3.40506 23.029C3.40506 23.9445 2.66128 24.6024 1.68864 24.6024Z" fill="#FFBF3C"/>
<path d="M14.5614 40.6493C15.5341 40.6493 16.2492 41.3359 16.2492 42.2513C16.2492 43.1667 15.5055 43.8819 14.5042 43.8533C13.5316 43.8533 12.8164 43.1953 12.8164 42.2513C12.8164 41.3073 13.5316 40.6207 14.5328 40.6493H14.5614Z" fill="#FFBF3C"/>
<path d="M31.4399 43.8563C30.4386 43.8563 29.6948 43.1412 29.7235 42.2257C29.7235 41.3103 30.4672 40.6523 31.4399 40.6523C32.4411 40.6523 33.1563 41.3389 33.1277 42.2829C33.1277 43.1984 32.4125 43.8563 31.4399 43.8563Z" fill="#FFBF3C"/>
</g>
<defs>
<clipPath id="clip0_18389_29364">
<rect width="46" height="46" fill="white"/>
</clipPath>
</defs>
</svg>
