<svg width="43" height="49" viewBox="0 0 43 49" fill="none" xmlns="http://www.w3.org/2000/svg">
<path d="M42.8855 11.8793C42.79 10.4223 41.8986 9.13163 40.5625 8.50521L23.2519 0.389823C22.1432 -0.129941 20.8567 -0.129941 19.748 0.389823L2.43745 8.50521C1.10133 9.13163 0.209925 10.4223 0.114525 11.8793C-1.50924 36.6545 14.5839 45.6816 19.8594 47.9619C20.9056 48.4142 22.0943 48.4142 23.1405 47.9619C28.4161 45.6816 44.5092 36.6545 42.8855 11.8793Z" fill="url(#paint0_linear_18389_29614)"/>
<path opacity="0.67" d="M16.2619 3.93124C16.1232 3.93124 15.9901 3.85412 15.9266 3.7222C15.8387 3.53944 15.9174 3.32106 16.1025 3.2344L20.1927 1.3168C20.3779 1.22993 20.5991 1.30776 20.6869 1.49042C20.7748 1.67318 20.696 1.89156 20.511 1.97822L16.4208 3.89582C16.3694 3.91987 16.3153 3.93124 16.2619 3.93124Z" fill="white"/>
<path opacity="0.67" d="M1.44445 17.3036C1.24532 17.3036 1.08074 17.1477 1.07395 16.9497C1.01895 15.3348 1.04784 13.6508 1.15969 11.9445C1.23052 10.8621 1.8937 9.89953 2.89026 9.43223L14.5353 3.97298C14.7205 3.88622 14.9417 3.96405 15.0295 4.14661C15.1174 4.32927 15.0386 4.54775 14.8535 4.63441L3.20854 10.0938C2.4549 10.4471 1.95332 11.1744 1.89987 11.9918C1.78966 13.6744 1.76119 15.3342 1.81526 16.9253C1.82215 17.1273 1.66178 17.2967 1.4571 17.3036C1.45288 17.3036 1.44866 17.3036 1.44445 17.3036Z" fill="white"/>
<path d="M38.6983 12.8461C38.6792 12.4767 38.4564 12.147 38.118 11.9884L21.9355 4.4018C21.6592 4.27232 21.3385 4.27232 21.0622 4.4018L4.87977 11.9884C4.54134 12.1471 4.31857 12.4768 4.29945 12.8461C3.8209 22.088 5.98346 29.7992 10.7317 35.7757C14.3518 40.3323 18.5865 42.7743 21.0681 43.9135C21.3414 44.039 21.6561 44.039 21.9294 43.9135C24.4109 42.7743 28.6457 40.3323 32.2658 35.7757C37.0142 29.7992 39.1768 22.088 38.6983 12.8461Z" fill="url(#paint1_linear_18389_29614)"/>
<g opacity="0.87">
<path d="M21.4583 36.1459C19.4887 36.1459 18.125 34.6879 18.125 32.7436C18.125 30.7247 19.5264 29.3413 21.5339 29.3413C23.5415 29.3413 24.867 30.7247 24.905 32.7436C24.905 34.6879 23.5792 36.1459 21.5339 36.1459H21.4583ZM19.2703 25.3433L18.6869 13.4853C18.608 11.8796 19.9054 10.5352 21.534 10.5352C23.1625 10.5352 24.4601 11.8796 24.3811 13.4853L23.7977 25.3433C23.739 26.5353 22.743 27.472 21.534 27.472C20.3251 27.4719 19.3289 26.5353 19.2703 25.3433Z" fill="white"/>
</g>
<defs>
<linearGradient id="paint0_linear_18389_29614" x1="11.8002" y1="-5.8398" x2="29.9849" y2="39.3786" gradientUnits="userSpaceOnUse">
<stop stop-color="#E1473D"/>
<stop offset="1" stop-color="#E9605A"/>
</linearGradient>
<linearGradient id="paint1_linear_18389_29614" x1="13.5936" y1="6.56318" x2="40.2448" y2="50.335" gradientUnits="userSpaceOnUse">
<stop stop-color="#FE7062"/>
<stop offset="1" stop-color="#FF928E"/>
</linearGradient>
</defs>
</svg>
