<svg xmlns="http://www.w3.org/2000/svg" width="14" height="11.375" viewBox="0 0 14 11.375">
  <path id="Twitter" d="M14,1.346a5.762,5.762,0,0,1-1.65.453A2.881,2.881,0,0,0,13.613.21a5.74,5.74,0,0,1-1.824.7A2.874,2.874,0,0,0,6.82,2.872a2.9,2.9,0,0,0,.075.655,8.153,8.153,0,0,1-5.919-3,2.875,2.875,0,0,0,.889,3.834A2.848,2.848,0,0,1,.563,4v.037a2.873,2.873,0,0,0,2.3,2.816,2.868,2.868,0,0,1-.757.1A2.825,2.825,0,0,1,1.57,6.9,2.877,2.877,0,0,0,4.253,8.9,5.77,5.77,0,0,1,.685,10.124,5.789,5.789,0,0,1,0,10.085a8.128,8.128,0,0,0,4.4,1.29A8.116,8.116,0,0,0,12.575,3.2c0-.125,0-.248-.008-.371A5.838,5.838,0,0,0,14,1.347Z" fill="#fff"/>
</svg>
