<svg width="133" height="121" viewBox="0 0 133 121" fill="none" xmlns="http://www.w3.org/2000/svg">
<path d="M51.0072 31.0001C53.0635 32.6596 55.0477 34.3191 57.1041 35.9425C57.3927 36.1951 58.006 36.3033 58.3307 36.1951C63.67 34.0305 69.0093 34.0305 74.3485 36.1951C74.6732 36.3033 75.2144 36.1951 75.4669 36.0147C77.5233 34.3913 79.5796 32.6957 81.636 31.0001C77.1264 27.3203 74.6372 22.3778 74.9619 16.2449C75.2144 11.5549 77.1986 7.58655 80.698 4.41183C87.6607 -1.90153 98.5197 -1.36038 104.869 5.5302C111.363 12.529 111.327 24.1095 102.56 31.1805C102.885 31.3969 103.21 31.6134 103.534 31.7938C110.858 36.2312 114.826 42.6888 115.151 51.275C115.187 52.4294 115.548 52.9706 116.594 53.4396C128.174 58.7428 130.303 74.1113 120.598 82.3367C120.346 82.5532 120.129 82.7335 119.949 82.9139C121.753 84.2848 123.629 85.4753 125.252 86.9905C129.87 91.2836 132.287 96.6951 132.468 103.008C132.54 106.111 132.54 109.214 132.468 112.316C132.395 117.331 128.716 120.974 123.701 120.974C114.213 120.974 104.689 120.974 95.2007 120.974C93 120.974 91.0519 120.253 89.2841 118.774C87.0835 120.722 84.4138 121.011 81.5999 120.974C71.2099 120.902 60.8199 120.902 50.3939 120.974C47.7603 120.974 45.271 120.614 43.1786 118.774C41.0501 120.65 38.5248 121.011 35.8551 120.974C26.9803 120.902 18.1056 120.974 9.26686 120.974C3.5668 120.974 -0.00476008 117.403 0.0313163 111.703C0.0313163 107.879 -0.149065 104.019 0.356003 100.267C1.36614 92.7988 5.44276 87.2431 12.0087 83.5272C12.153 83.4551 12.3333 83.3468 12.4776 83.2386C12.5498 83.2025 12.5859 83.1304 12.6941 83.0221C9.48331 80.4968 7.24658 77.3221 6.27252 73.3176C4.25225 65.0922 8.40102 56.6864 16.1935 53.2953C16.8429 53.0066 17.3119 52.7902 17.348 51.9244C17.5283 42.761 21.7132 35.9786 29.6139 31.4691C29.7221 31.3969 29.8304 31.2887 29.9386 31.2165C20.9556 24.0734 21.2081 11.9518 28.1709 5.0612C35.0254 -1.68507 45.9926 -1.61292 52.6667 5.20551C59.4851 12.2043 59.6294 24.0734 50.935 31.0362L51.0072 31.0001ZM66.2674 115.238C71.715 115.238 77.1625 115.238 82.61 115.238C85.5322 115.238 86.5424 114.264 86.5424 111.378C86.5424 106.111 86.5424 100.844 86.5424 95.5767C86.5424 84.4291 78.9302 76.0594 67.8187 74.9411C57.4288 73.8948 47.1109 82.1924 46.3894 92.6185C45.9565 98.8597 46.1729 105.101 46.1369 111.378C46.1369 114.264 47.147 115.238 50.0692 115.238C55.4806 115.238 60.856 115.238 66.2674 115.238ZM23.0841 115.238C27.7019 115.238 32.3557 115.238 36.9735 115.238C38.9938 115.238 40.3286 114.264 40.3286 112.533C40.3286 108.672 40.509 104.776 40.076 100.952C39.0659 92.6906 31.5981 86.4494 23.1923 86.4133C14.6783 86.4133 7.17443 92.5824 6.12822 100.88C5.6953 104.379 5.87568 107.951 5.83961 111.522C5.80353 114.228 6.84974 115.238 9.59154 115.238C14.1011 115.238 18.5745 115.238 23.0841 115.238ZM109.487 115.238C114.105 115.238 118.759 115.238 123.376 115.238C125.433 115.238 126.767 114.264 126.804 112.569C126.804 108.709 127.02 104.812 126.551 100.988C125.541 92.6545 118.073 86.4133 109.559 86.4133C101.081 86.4133 93.6133 92.6545 92.5671 100.952C92.1342 104.415 92.3146 107.951 92.2785 111.45C92.2785 114.192 93.2525 115.202 95.9943 115.238C100.504 115.238 104.977 115.238 109.487 115.238ZM109.487 51.744C109.739 44.7812 104.833 37.9267 97.9425 35.5096C91.593 33.309 83.4037 35.2571 80.0125 39.8388C84.5942 44.3123 86.9031 49.7598 86.4341 56.2174C85.9651 62.7112 82.7904 67.7258 77.5593 71.5499C86.0373 76.817 88.0576 79.3424 91.593 88.7583C94.0462 86.8102 96.5355 84.826 98.9887 82.8778C93.1804 77.8632 90.6911 71.4777 93.1443 63.9017C95.6336 56.1814 101.442 52.3573 109.487 51.7079V51.744ZM23.1562 51.744C30.8405 52.2851 36.5045 55.8206 39.2102 62.9998C42.1685 70.9005 39.7514 77.5746 33.7266 82.8778C36.2159 84.862 38.6691 86.8462 41.1583 88.8304C42.0963 85.2228 43.7197 81.7956 46.1729 78.8012C48.6261 75.7708 51.6205 73.4258 55.192 71.6581C44.1527 63.8656 43.2508 48.7496 52.6667 39.8388C49.3116 35.2932 41.0862 33.309 34.7367 35.5096C27.8101 37.9267 22.9398 44.7091 23.1923 51.744H23.1562ZM80.698 54.9187C80.8062 46.9458 74.5289 40.4882 66.4839 40.3078C58.6914 40.1274 52.0895 46.549 51.9452 54.4497C51.8008 62.4226 58.1503 68.9885 66.0871 69.0967C74.0599 69.2049 80.5898 62.8555 80.698 54.8826V54.9187ZM28.8563 17.255C28.8563 23.5684 34.0513 28.7634 40.3647 28.7634C46.678 28.7634 51.873 23.6044 51.9091 17.2911C51.9451 10.9416 46.678 5.63843 40.3286 5.71058C34.0152 5.74665 28.8202 10.9416 28.8202 17.255H28.8563ZM103.787 17.255C103.787 10.9416 98.6279 5.74665 92.2785 5.71058C86.0012 5.6745 80.7701 10.8334 80.698 17.1829C80.6258 23.4962 85.9291 28.8355 92.2424 28.7994C98.5558 28.7994 103.751 23.5684 103.751 17.2911L103.787 17.255ZM11.5757 69.0606C11.5757 75.3379 16.6986 80.5329 23.048 80.6411C29.2892 80.7133 34.5564 75.5183 34.6646 69.2049C34.7367 62.8916 29.4696 57.5523 23.1202 57.5883C16.8068 57.5883 11.6118 62.7833 11.5757 69.0967V69.0606ZM98.0146 69.0606C98.0146 75.3379 103.137 80.569 109.487 80.6411C115.764 80.7133 120.995 75.5543 121.103 69.2049C121.212 62.8916 115.908 57.5523 109.559 57.5883C103.246 57.5883 98.0507 62.7473 98.0146 69.0967V69.0606Z" fill="#25B8AF" fill-opacity="0.16"/>
</svg>
