<svg width="117" height="122" viewBox="0 0 117 122" fill="none" xmlns="http://www.w3.org/2000/svg">
<path d="M117 56.2123C117 45.705 117 35.1977 117 24.6905C117 17.1109 112.376 11.1579 105.244 9.59643C104.071 9.33618 102.801 9.30365 101.564 9.27112C100.229 9.23859 98.861 9.23859 97.4281 9.27112C96.8093 9.27112 96.158 9.27112 95.5393 9.27112H93.911V7.64461C93.911 7.12413 93.911 6.60364 93.911 6.08316C93.911 5.00966 93.911 4.00122 93.911 2.99278C93.8133 1.20362 92.5107 -0.0325303 90.8173 0.0325303C89.1564 0.0975908 87.9841 1.36627 87.9515 3.12291C87.9515 3.83857 87.9515 4.55424 87.9515 5.2699C87.9515 5.5952 87.9515 5.92051 87.9515 6.24581V9.141H29.1381V6.21328C29.1381 5.23737 29.1381 4.29399 29.1381 3.31809C29.1055 1.33374 27.9331 0 26.1746 0C24.416 0 23.2111 1.36627 23.1786 3.28556C23.1786 4.22893 23.1786 5.17231 23.1786 6.18075C23.1786 6.63617 23.1786 7.12413 23.1786 7.61208V9.23859H15.4605C6.53754 9.27112 0.0569898 15.6471 0.0244242 24.4628C-0.00814139 49.0882 -0.00814139 75.0473 0.0244242 106.146C0.0244242 114.019 4.90926 119.776 12.7576 121.24C12.953 121.273 13.1484 121.338 13.2786 121.403H88.6679C88.8959 121.24 89.1239 121.078 89.3518 120.948C90.0683 120.46 90.7847 119.972 91.3057 119.451C95.5393 115.255 99.8379 110.961 103.974 106.829C107.751 103.056 111.692 99.1197 115.567 95.2811C116.544 94.3052 116.967 93.2968 116.967 91.898C116.967 79.9919 116.967 68.1184 116.967 56.2123H117ZM86.9094 114.702V97.0052C86.9094 95.0534 88.1143 93.7522 89.938 93.7522C93.5202 93.7522 97.0699 93.7522 100.522 93.7522C101.694 93.7522 102.867 93.7522 104.006 93.7522H107.947L86.942 114.734L86.9094 114.702ZM111.008 87.7016H100.098C97.0047 87.7016 93.911 87.7016 90.8173 87.7016C84.6298 87.7016 80.9499 91.3775 80.9173 97.5257C80.9173 101.202 80.9173 104.91 80.9173 108.651V115.417H15.5256C9.72897 115.417 5.98393 111.676 5.98393 105.886C5.98393 76.6738 5.98393 50.1291 5.98393 24.6579C5.98393 18.9326 9.6964 15.1916 15.4605 15.1916C16.7957 15.1916 18.0983 15.1916 19.4986 15.1916H23.1134V16.8181C23.1134 17.3061 23.1134 17.7941 23.1134 18.282C23.1134 19.323 23.1134 20.2989 23.1134 21.2748C23.146 22.3483 23.6019 23.2917 24.3835 23.8772C25.0999 24.3977 26.0443 24.5603 26.9562 24.3001C28.1937 23.9423 29.0404 22.8688 29.0729 21.6001C29.0729 20.5917 29.0729 19.5507 29.0729 18.4447C29.0729 17.9567 29.0729 17.4362 29.0729 16.9157V15.2892H87.8538V18.1844C87.8538 19.1278 87.8538 20.0386 87.8538 20.982C87.8538 23.0314 89.0587 24.4302 90.8173 24.4302C92.6084 24.4302 93.8133 23.0314 93.8459 20.982C93.8459 20.0712 93.8459 19.1929 93.8459 18.2169C93.8459 17.729 93.8459 17.241 93.8459 16.7206V15.029L95.5393 15.094C96.386 15.1266 97.2978 15.1266 98.1445 15.1591C100.164 15.1591 102.248 15.1916 104.267 15.6145C107.784 16.2977 110.161 18.9326 110.78 22.8362C110.91 23.617 110.91 24.3977 110.91 25.0483C110.91 42.5171 110.91 59.9858 110.91 77.4546V87.7341L111.008 87.7016Z" fill="#25B8AF" fill-opacity="0.16"/>
<path d="M31.9062 86.1076C28.7473 86.1076 26.1746 88.7425 26.1746 91.8654C26.1746 95.0209 28.845 97.6884 32.0039 97.6558C35.1627 97.6233 37.7354 95.0209 37.7354 91.898C37.7354 88.71 35.065 86.0751 31.9062 86.1076Z" fill="#25B8AF" fill-opacity="0.16"/>
<path d="M31.8736 63.0435C28.7147 63.0435 26.142 65.6459 26.142 68.8013C26.142 71.9893 28.8124 74.6242 31.9713 74.5917C35.0976 74.5917 37.7028 71.9567 37.7028 68.8338C37.7028 65.6459 35.065 63.0435 31.8736 63.076V63.0435Z" fill="#25B8AF" fill-opacity="0.16"/>
<path d="M82.7735 39.9474C79.5821 39.9474 77.0746 42.4847 77.042 45.6727C77.042 48.8932 79.6147 51.4631 82.8387 51.4631C85.9975 51.4631 88.5376 48.8932 88.5702 45.7378C88.5702 42.4847 86.0301 39.9474 82.7735 39.9799V39.9474Z" fill="#25B8AF" fill-opacity="0.16"/>
<path d="M57.405 86.1076C54.2136 86.0751 51.6083 88.6775 51.6083 91.898C51.6083 95.0534 54.1484 97.6233 57.3073 97.6558C60.4662 97.6884 63.1365 95.0534 63.1365 91.8655C63.1365 88.7425 60.5639 86.1401 57.405 86.1076Z" fill="#25B8AF" fill-opacity="0.16"/>
<path d="M82.7735 63.0435C79.6147 63.0435 77.042 65.6133 77.042 68.7688C77.042 71.9893 79.6147 74.5917 82.8061 74.5917C85.965 74.5917 88.5376 72.0218 88.5376 68.8664C88.5376 65.6459 85.9975 63.0435 82.7735 63.0435Z" fill="#25B8AF" fill-opacity="0.16"/>
<path d="M31.9713 39.9799C28.7473 39.9799 26.1094 42.5498 26.142 45.7378C26.142 48.8607 28.7473 51.4631 31.9061 51.4631C35.0975 51.4631 37.7354 48.8607 37.7354 45.6727C37.7354 42.5173 35.1627 39.9799 31.9713 39.9474V39.9799Z" fill="#25B8AF" fill-opacity="0.16"/>
<path d="M57.4376 63.0435C54.2136 63.011 51.6083 65.5809 51.6083 68.8014C51.6083 71.9893 54.1484 74.5592 57.3073 74.5918C60.4987 74.6243 63.1365 72.0219 63.1365 68.8339C63.1365 65.6785 60.5964 63.1086 57.4376 63.076V63.0435Z" fill="#25B8AF" fill-opacity="0.16"/>
<path d="M57.405 39.9474C54.2136 39.9474 51.6409 42.3872 51.6083 45.5751C51.5432 48.7956 54.1159 51.4306 57.3073 51.4306C60.5313 51.4306 63.1365 48.8607 63.1365 45.6727C63.1365 42.5173 60.5964 39.9474 57.405 39.9474Z" fill="#25B8AF" fill-opacity="0.16"/>
</svg>
