<svg width="121" height="122" viewBox="0 0 121 122" fill="none" xmlns="http://www.w3.org/2000/svg">
<path d="M51.3003 7.11035H48.1505C47.806 7.11035 47.5268 7.3896 47.5268 7.73406V11.0397C47.5268 11.3842 47.806 11.6634 48.1505 11.6634H51.3003C51.6447 11.6634 51.924 11.3842 51.924 11.0397V7.73406C51.924 7.3896 51.6447 7.11035 51.3003 7.11035Z" fill="#25B8AF" fill-opacity="0.16"/>
<path d="M51.3002 14.1271H48.1193C47.7749 14.1271 47.4956 14.4063 47.4956 14.7508V18.0253C47.4956 18.3697 47.7749 18.649 48.1193 18.649H51.3002C51.6447 18.649 51.924 18.3697 51.924 18.0253V14.7508C51.924 14.4063 51.6447 14.1271 51.3002 14.1271Z" fill="#25B8AF" fill-opacity="0.16"/>
<path d="M55.0737 11.7258C55.3232 11.7258 55.6039 11.7258 55.8534 11.7258C56.1028 11.7258 56.3211 11.7258 56.5394 11.7258C56.9449 11.7258 57.3503 11.7258 57.7557 11.7258C58.1923 11.7258 58.8784 11.2892 58.9095 10.7278C58.9719 9.917 58.9719 9.0438 58.9095 8.10823C58.9095 7.60926 58.317 7.14148 57.8492 7.14148C57.1632 7.14148 56.4459 7.14148 55.791 7.14148C55.5415 7.14148 55.3232 7.14148 55.0737 7.14148C54.7307 7.14148 54.45 7.42215 54.45 7.76519V11.1644C54.45 11.5075 54.7307 11.7881 55.0737 11.7881V11.7258Z" fill="#25B8AF" fill-opacity="0.16"/>
<path d="M58.9719 14.782C58.9719 14.439 58.6913 14.1583 58.3482 14.1583H55.1049C54.7619 14.1583 54.4812 14.439 54.4812 14.782V18.0877C54.4812 18.4307 54.7619 18.7114 55.1049 18.7114C55.448 18.7114 55.6351 18.7114 55.8846 18.7114C56.134 18.7114 56.3523 18.7114 56.5706 18.7114C56.9449 18.7114 57.3503 18.7114 57.7245 18.6802C58.2547 18.649 58.9096 18.1189 58.9407 17.5576C59.0031 16.8715 59.0031 16.1854 58.9719 15.4993C58.9719 15.2498 58.9719 15.0003 58.9719 14.782Z" fill="#25B8AF" fill-opacity="0.16"/>
<path d="M70.8536 29.2833C70.8536 29.0338 70.8536 28.7843 70.8536 28.5348C70.8536 28.2854 70.5729 27.9111 70.2299 27.9111H67.0489C66.7059 27.9111 66.4252 28.1918 66.4252 28.5348V31.8717C66.4252 32.2147 66.7059 32.4954 67.0489 32.4954C67.392 32.4954 67.5479 32.4954 67.7662 32.4954C67.9845 32.4954 68.2028 32.4954 68.4523 32.4954C68.8265 32.4954 69.1696 32.4954 69.5126 32.4642C69.9492 32.433 70.76 32.0276 70.7912 31.4039C70.8536 30.6866 70.8536 29.9694 70.8224 29.2521L70.8536 29.2833Z" fill="#25B8AF" fill-opacity="0.16"/>
<path d="M63.868 28.566C63.868 28.2229 63.5874 27.9423 63.2443 27.9423H60.0322C59.6892 27.9423 59.4085 28.2229 59.4085 28.566V31.8716C59.4085 32.2147 59.6892 32.4954 60.0322 32.4954C60.3753 32.4954 60.5312 32.4954 60.7807 32.4954C61.0302 32.4954 61.2485 32.4954 61.4979 32.4954C61.9034 32.4954 62.3088 32.4954 62.7142 32.4642C63.182 32.433 63.8369 31.9028 63.868 31.3727C63.9304 30.6866 63.8992 30.0005 63.8992 29.3144C63.8992 29.0649 63.8992 28.8155 63.8992 28.566H63.868Z" fill="#25B8AF" fill-opacity="0.16"/>
<path d="M117.975 58.0363L120.033 53.7327C120.158 53.4521 120.283 53.2026 120.376 52.9219C120.439 52.7972 120.47 52.6412 120.532 52.5165C120.657 52.2046 120.532 51.8616 120.252 51.7057L101.104 42.007C100.948 41.9446 100.792 41.9134 100.636 41.9758C100.48 42.0381 100.355 42.1317 100.262 42.2876L88.5046 66.7995C87.8186 66.5188 87.1325 66.2381 86.4776 65.9575C84.2634 65.0219 82.1428 64.1175 79.9598 63.3067C79.2737 63.0572 79.149 62.8701 79.149 62.1528C79.149 51.7057 79.149 41.0714 79.149 30.8113V21.3933C79.149 21.0503 78.8683 20.7696 78.5253 20.7696H67.2985V0.623711C67.2985 0.28067 67.0178 0 66.6747 0H40.0735C39.7304 0 39.4497 0.249485 39.4497 0.592526C39.4497 0.779639 39.4497 0.966753 39.4497 1.15387C39.4497 1.55928 39.4186 1.96469 39.4186 2.3701V9.26211C39.4186 26.726 39.4186 44.8137 39.4186 62.5894C39.4186 63.5874 39.2314 63.8992 38.3582 64.2111C36.7678 64.8036 35.2709 65.4897 33.6804 66.207C33.2126 66.4253 32.7137 66.6436 32.2147 66.8619L20.7696 42.3188C20.7072 42.1629 20.5825 42.0381 20.3954 42.007C20.2394 41.9446 20.0523 41.9758 19.8964 42.0381L0.748454 51.7369C0.467784 51.8928 0.343041 52.2358 0.467784 52.5477C0.530155 52.6724 0.592526 52.8284 0.623711 52.9531C0.748454 53.2338 0.84201 53.4832 0.966753 53.7639L3.025 58.1611C6.54897 65.6456 10.1665 73.3796 13.784 80.9889C14.0647 81.5503 14.0335 81.7997 13.6281 82.2987C6.4866 91.0307 2.08943 101.197 0.592526 112.518C0.343041 114.295 0.249485 116.135 0.155928 117.913C0.124742 118.723 0.0623711 119.534 0 120.376C0 120.563 0.0623711 120.719 0.155928 120.844C0.28067 120.969 0.436598 121.031 0.623711 121.031H4.11649C4.45954 121.031 4.74021 120.751 4.74021 120.407V116.54H5.11443C5.73814 116.54 6.2683 116.54 6.79845 116.54H10.5095C14.3142 116.54 18.2436 116.54 22.0794 116.603C23.1709 116.603 23.9193 116.291 24.5742 115.543C25.2915 114.763 26.0399 113.983 26.7572 113.204C27.3497 112.58 27.9735 111.956 28.566 111.301C28.9402 110.896 29.1273 110.865 29.6263 111.021C31.6845 111.707 33.7116 112.299 35.8634 112.954C36.643 113.204 37.4539 113.422 38.2335 113.671C38.5454 113.765 38.8884 113.609 38.982 113.297L39.824 111.145C40.8843 108.401 41.9134 105.781 42.9113 103.099C43.0985 102.601 42.9113 101.914 42.6619 101.509L42.5995 101.384C40.4165 97.8603 38.1711 94.2428 35.8634 90.7188C35.4268 90.0639 34.616 89.6897 33.8675 89.409L33.6492 89.3155C32.3394 88.8165 31.5286 88.5358 31.2479 88.1304C30.9985 87.7562 30.9985 87.0077 31.1232 85.5108C31.3415 82.7353 30.3436 81.2072 27.7552 80.3964C26.6325 80.0533 25.541 79.492 24.3871 78.9307C24.1064 78.8059 23.8258 78.65 23.5451 78.5253C32.3082 70.916 41.9758 66.5188 53.0778 65.0843C66.3629 63.4003 78.8059 66.2381 90.0951 73.5667C89.8144 73.5979 89.5026 73.6291 89.2219 73.6603C87.3196 73.8162 85.4173 73.941 83.5149 74.0969C79.149 74.4399 74.5959 74.7518 70.1675 75.126C69.4814 75.1884 68.7018 75.6562 68.3588 76.1863C67.0178 78.2134 65.708 80.334 64.3982 82.3611C63.4626 83.8268 62.5583 85.2613 61.6227 86.7271C61.1549 87.4755 61.1549 88.0992 61.7162 88.7853C63.3379 90.8436 64.9595 92.933 66.6124 95.0224C68.4211 97.3302 70.2299 99.6379 72.0387 101.946C72.3817 102.351 72.943 102.694 73.5044 102.756L74.0969 102.819C76.4982 103.131 78.9619 103.443 81.3943 103.63C82.5794 103.723 83.2031 104.097 83.7644 105.064C84.9495 107.091 86.2281 109.087 87.4443 111.021C88.1928 112.206 88.9724 113.453 89.7521 114.701C90.1263 115.324 90.6876 115.948 91.8727 115.886C95.7709 115.698 99.9809 115.543 104.815 115.418C105.813 115.418 106.343 114.95 106.561 113.983C107.122 111.488 107.777 109.056 108.339 106.998C108.401 106.748 108.557 106.499 108.651 106.468C109.991 105.937 111.364 105.438 112.798 104.939C113.079 104.846 113.391 104.721 113.671 104.628C115.106 109.149 115.854 114.077 116.041 120.439C116.041 120.782 116.322 121.031 116.665 121.031H119.94C120.096 121.031 120.283 120.969 120.376 120.844C120.501 120.719 120.563 120.563 120.563 120.376C120.563 119.846 120.532 119.316 120.501 118.786C120.47 117.663 120.407 116.478 120.314 115.324C119.316 103.068 114.856 91.9974 107.06 82.3611C106.623 81.8309 106.592 81.5815 106.904 80.9889C110.615 73.3485 114.357 65.5832 117.975 58.0675V58.0363ZM95.5838 77.7768C95.8956 77.7768 96.2387 77.8704 96.4258 78.0263C103.536 84.1387 108.713 91.4049 112.174 100.199C111.707 100.386 111.239 100.542 110.771 100.729C109.118 101.353 107.528 101.946 105.906 102.476C104.908 102.788 104.378 103.38 104.16 104.44C103.941 105.501 103.661 106.561 103.411 107.59C103.193 108.495 102.944 109.43 102.756 110.335C102.632 110.865 102.538 110.927 102.039 110.958C99.6067 110.958 97.0183 111.083 93.6191 111.239C93.1513 111.239 92.9642 111.145 92.6835 110.74C91.6232 109.025 90.5629 107.31 89.5026 105.657C88.4735 104.004 87.4131 102.32 86.384 100.636C85.9162 99.8562 85.3237 99.482 84.4505 99.4196C83.0783 99.2948 81.6438 99.1389 80.3028 98.983C79.0242 98.8271 77.6833 98.6711 76.3423 98.5464C75.3755 98.4528 74.8142 98.141 74.2528 97.4237C71.9451 94.3363 69.575 91.3425 66.9242 88.0057C66.6124 87.6003 66.6124 87.5067 66.8619 87.1013C67.5791 86.0098 68.2652 84.9183 68.9513 83.858C69.7309 82.6418 70.5418 81.3631 71.3526 80.1469C71.5085 79.8974 71.9451 79.6479 72.257 79.6168C79.2737 79.0242 86.8518 78.4317 95.4902 77.808C95.4902 77.808 95.5526 77.808 95.5838 77.808V77.7768ZM114.763 54.107L103.349 77.808L92.5588 69.0448L102.663 47.9634L114.794 54.107H114.763ZM18.3371 47.9946L28.1294 69.0448L17.3392 77.808L6.23711 54.1693L18.3683 48.0258L18.3371 47.9946ZM10.416 95.7397C12.7861 90.9371 15.8735 86.4464 19.6157 82.3923C19.9899 81.9869 20.1147 81.9557 20.5513 82.2052C22.0794 82.9848 23.7634 83.7333 25.9776 84.7C26.4454 84.9183 26.5701 85.1054 26.5389 85.6044C26.5389 86.384 26.5389 87.1637 26.5389 87.9121C26.5389 88.6294 26.5389 89.3466 26.5389 90.0639C26.5389 90.5317 26.4765 91.9351 28.067 92.2157C31.1856 92.7771 33.4621 94.6482 35.0214 97.8603C35.5204 98.8894 36.1441 99.825 36.7366 100.729C37.0796 101.26 37.4539 101.821 37.7969 102.382C37.984 102.725 38.0464 103.037 38.0464 103.131C37.5786 104.503 37.0485 105.844 36.4871 107.247C36.3624 107.559 36.2376 107.902 36.1129 108.214C35.5827 108.058 35.0526 107.902 34.5536 107.746C32.8384 107.216 31.1856 106.748 29.5639 106.187C28.2229 105.719 27.3186 105.969 26.383 107.029C25.042 108.557 23.6387 109.992 22.0482 111.551C21.7675 111.831 21.3621 112.05 21.1126 112.05C16.6531 112.05 12.1312 111.987 7.76521 111.956H5.36392C6.17474 106.343 7.85876 101.041 10.4472 95.7709L10.416 95.7397ZM74.4711 25.5722V61.6851C69.8557 60.5936 65.1778 60.0322 60.3441 60.0322C55.5103 60.0322 57.4126 60.0946 55.9469 60.1881V25.5722H74.5023H74.4711ZM51.3003 21.4245C51.3003 21.6428 51.3003 21.8299 51.3003 22.017C51.3003 22.3912 51.2691 22.7343 51.2691 23.0773V29.7198C51.2691 39.5745 51.2691 49.7722 51.2691 59.8139C51.2691 60.6559 51.1443 60.7495 50.3647 60.8742C48.9613 61.0925 47.558 61.4356 46.1858 61.7474C45.6245 61.8722 45.0943 61.9969 44.533 62.1217C44.3771 62.1528 44.2211 62.184 44.0652 62.2152V4.80258H62.6206V20.832H51.9552C51.6121 20.832 51.3626 21.0814 51.3314 21.4245H51.3003Z" fill="#25B8AF" fill-opacity="0.16"/>
<path d="M55.791 72.6001C51.4874 72.2258 47.2461 71.8828 43.2232 71.6333C42.6307 71.6021 41.7886 71.9452 41.4456 72.5377C40.3229 74.5648 39.2002 76.7477 37.8905 79.3985C37.641 79.8975 37.6722 80.6771 37.9528 81.1449C40.6972 85.8539 43.7222 90.9684 47.1838 96.7065C47.4021 97.0495 47.9322 97.5173 48.4624 97.5173C48.9925 97.5173 48.5559 97.5173 48.5871 97.5173C50.7701 97.1743 52.9219 96.8001 55.1984 96.4258L57.0384 96.114C57.2255 96.0828 57.3814 95.9581 57.475 95.8021C57.5685 95.615 57.5685 95.4279 57.475 95.2408L53.5768 86.9454C53.7951 86.8519 54.0134 86.7583 54.2005 86.6647C55.3232 86.1658 56.3835 85.6668 57.4126 85.1367C57.8492 84.9184 58.4417 84.2323 58.3794 83.6398C58.0051 80.4588 57.5685 77.1843 57.0696 73.9099C56.976 73.3173 56.2899 72.6936 55.7286 72.6312L55.791 72.6001ZM47.7451 85.2614L51.0819 92.4341C50.7077 92.59 50.3647 92.6836 50.2088 92.6524C50.0216 92.59 49.6786 92.0287 49.4291 91.5921C48.899 90.6877 48.3376 89.7521 47.8075 88.8477C46.2482 86.197 44.6265 83.4526 43.0049 80.7707C42.693 80.2717 42.693 79.9599 42.9737 79.4921C43.5662 78.4941 43.9716 77.6833 44.3147 76.9349C44.5018 76.4671 44.6889 76.3111 45.0943 76.3111C45.4997 76.3111 45.2502 76.3111 45.3438 76.3111C47.5892 76.5606 49.9905 76.7477 52.4541 76.9349C52.9531 76.966 52.9843 77.0284 53.0466 77.465C53.1714 78.9307 53.3273 80.0534 53.5456 81.1137C53.6703 81.7686 53.5456 81.9557 52.8907 82.2364C51.7368 82.7042 50.6453 83.2032 49.4915 83.7645C49.0237 83.9828 48.5247 84.2323 48.0569 84.4506C47.901 84.5129 47.7763 84.6377 47.7451 84.7936C47.7139 84.9495 47.6827 85.1367 47.7451 85.2614Z" fill="#25B8AF" fill-opacity="0.16"/>
<path d="M70.8536 49.1485C70.8536 48.8055 70.5729 48.5248 70.2299 48.5248H67.0178C66.6747 48.5248 66.394 48.8055 66.394 49.1485V52.423C66.394 52.766 66.6747 53.0467 67.0178 53.0467C67.3608 53.0467 67.5167 53.0467 67.735 53.0467C67.9845 53.0467 68.2028 53.0467 68.4523 53.0467C68.8265 53.0467 69.2007 53.0467 69.575 52.9843C70.1363 52.9219 70.76 52.2982 70.8224 51.7681C70.8848 51.1444 70.8848 50.5207 70.8536 49.8658C70.8536 49.6163 70.8536 49.3668 70.8536 49.1173V49.1485Z" fill="#25B8AF" fill-opacity="0.16"/>
<path d="M61.0613 48.4C60.7183 48.4 60.3753 48.4 60.0946 48.3376C59.9075 48.3376 59.7515 48.3688 59.5956 48.4936C59.4397 48.6183 59.3773 48.7742 59.3773 48.9614V52.5165C59.3773 52.7036 59.4397 52.8596 59.5956 52.9843C59.7204 53.0779 59.8763 53.1402 60.001 53.1402C60.1258 53.1402 60.0322 53.1402 60.0634 53.1402C61.1861 53.0467 62.5894 53.2962 63.4314 52.5789C63.9928 52.1111 64.024 51.082 64.024 50.6454C64.024 50.1776 63.9304 49.3356 63.4626 48.9614C62.8389 48.4312 61.9345 48.4312 61.0302 48.4H61.0613Z" fill="#25B8AF" fill-opacity="0.16"/>
<path d="M60.001 46.2794C60.2505 46.2794 60.5 46.2794 60.7495 46.2794C60.999 46.2794 61.2173 46.2794 61.4668 46.2794C61.8722 46.2794 62.2776 46.2794 62.683 46.2482C63.1508 46.217 63.8057 45.6869 63.8369 45.1255C63.8992 44.4395 63.868 43.7534 63.868 43.0673C63.868 42.8178 63.868 42.5995 63.868 42.35C63.868 42.007 63.5874 41.7263 63.2443 41.7263H60.001C59.658 41.7263 59.3773 42.007 59.3773 42.35V45.6245C59.3773 45.9676 59.658 46.2482 60.001 46.2482V46.2794Z" fill="#25B8AF" fill-opacity="0.16"/>
<path d="M67.0178 39.5121C67.2672 39.5121 67.5479 39.5121 67.7974 39.5121C68.0469 39.5121 68.2652 39.5121 68.4835 39.5121C68.8577 39.5121 69.2631 39.5121 69.6373 39.4809C70.1363 39.4497 70.7912 38.8884 70.8224 38.327C70.8848 37.6721 70.8848 37.0172 70.8536 36.3311C70.8536 36.0817 70.8536 35.8322 70.8536 35.5827C70.8536 35.3332 70.5729 34.959 70.2299 34.959H67.0178C66.6747 34.959 66.394 35.2397 66.394 35.5827V38.8884C66.394 39.2314 66.6747 39.5121 67.0178 39.5121Z" fill="#25B8AF" fill-opacity="0.16"/>
<path d="M60.001 39.4186C60.4376 39.4186 60.8119 39.4498 61.1237 39.481C61.5603 39.481 61.9345 39.5433 62.2152 39.5433C62.8077 39.5433 63.182 39.4498 63.4938 39.1691C63.9616 38.7013 63.8992 38.0464 63.8369 36.7678C63.8369 36.4871 63.8057 36.1441 63.7745 35.7699C63.7745 35.5828 63.6809 35.458 63.6497 35.3956C63.6497 35.3956 63.6497 35.3645 63.5874 35.3021C63.4626 35.115 63.2755 34.9902 63.0572 34.9902H60.0322C59.6892 34.9902 59.4085 35.2709 59.4085 35.6139V38.8261C59.4085 39.1691 59.658 39.4186 60.001 39.4498V39.4186Z" fill="#25B8AF" fill-opacity="0.16"/>
<path d="M67.0178 46.2793C67.2672 46.2793 67.5167 46.2793 67.735 46.2793C67.9845 46.2793 68.2028 46.2793 68.4523 46.2793C68.8577 46.2793 69.2631 46.2793 69.6373 46.2482C70.1363 46.217 70.76 45.6868 70.8224 45.1567C70.8848 44.4706 70.8536 43.7845 70.8536 43.0672C70.8536 42.8178 70.8536 42.5683 70.8536 42.3188C70.8536 42.0693 70.5729 41.6951 70.2299 41.6951H67.0178C66.6747 41.6951 66.394 41.9757 66.394 42.3188V45.6245C66.394 45.9675 66.6747 46.2482 67.0178 46.2482V46.2793Z" fill="#25B8AF" fill-opacity="0.16"/>
<path d="M99.9809 62.2464L105.251 64.9283C105.345 64.9595 105.438 64.9907 105.532 64.9907C105.625 64.9907 105.657 64.9907 105.719 64.9907C105.875 64.9283 106 64.8348 106.093 64.6789L107.59 61.685C107.653 61.5291 107.684 61.3732 107.621 61.2173C107.559 61.0613 107.465 60.9366 107.31 60.843L102.039 58.1923C101.883 58.1299 101.727 58.0987 101.571 58.1611C101.415 58.2234 101.291 58.317 101.197 58.4729L99.7002 61.4667C99.5443 61.7786 99.6691 62.1528 99.9809 62.3088V62.2464Z" fill="#25B8AF" fill-opacity="0.16"/>
<path d="M103.131 55.9781L108.401 58.6288C108.495 58.66 108.588 58.6912 108.682 58.6912C108.775 58.6912 108.806 58.6912 108.869 58.66C109.025 58.5977 109.149 58.5041 109.243 58.3482L110.74 55.3544C110.896 55.0425 110.74 54.6683 110.459 54.5123L105.189 51.8616C105.033 51.7992 104.877 51.768 104.721 51.8304C104.565 51.8928 104.44 51.9863 104.347 52.1422L102.85 55.1361C102.694 55.4479 102.85 55.8221 103.131 55.9781Z" fill="#25B8AF" fill-opacity="0.16"/>
<path d="M96.9247 68.2964L102.195 70.9472C102.289 70.9784 102.382 71.0096 102.476 71.0096C102.569 71.0096 102.601 71.0096 102.663 70.9784C102.819 70.916 102.944 70.8225 103.037 70.6665L104.534 67.6727C104.69 67.3609 104.534 66.9866 104.253 66.8307L99.0142 64.1799C98.8582 64.1176 98.7023 64.0864 98.5464 64.1487C98.3905 64.2111 98.2657 64.3047 98.1722 64.4606L96.6753 67.4544C96.5193 67.7663 96.6752 68.1405 96.9559 68.2964H96.9247Z" fill="#25B8AF" fill-opacity="0.16"/>
<path d="M21.4245 61.9658C21.4868 61.8098 21.4557 61.6227 21.3933 61.498L19.8652 58.5042C19.8028 58.3483 19.6469 58.2547 19.491 58.1923C19.335 58.13 19.1479 58.1611 19.0232 58.2235L13.7528 60.9055C13.441 61.0614 13.3162 61.4356 13.4722 61.7475L14.9691 64.7101C15.0938 64.9284 15.3121 65.0531 15.5304 65.0531C15.7487 65.0531 15.7175 65.0531 15.8111 64.9908L21.0814 62.34C21.2374 62.2776 21.3309 62.1217 21.3933 61.9658H21.4245Z" fill="#25B8AF" fill-opacity="0.16"/>
<path d="M18.2435 55.2297L16.7466 52.2359C16.6843 52.0799 16.5283 51.9864 16.3724 51.924C16.2165 51.8616 16.0294 51.8928 15.9046 51.9552L10.6343 54.6372C10.3224 54.7931 10.1977 55.1673 10.3536 55.4792L11.8505 58.473C11.9129 58.6289 12.0688 58.7225 12.2247 58.7848C12.2871 58.7848 12.3495 58.7848 12.4118 58.7848C12.5054 58.7848 12.599 58.7848 12.6925 58.7225L17.9629 56.0717C18.2747 55.9158 18.3995 55.5415 18.2435 55.2297Z" fill="#25B8AF" fill-opacity="0.16"/>
<path d="M18.4307 71.0719C18.493 71.0719 18.5554 71.0719 18.6178 71.0719C18.7113 71.0719 18.8049 71.0719 18.8984 71.0096L24.1688 68.3276C24.3247 68.2652 24.4183 68.1093 24.4807 67.9534C24.543 67.7975 24.5118 67.6103 24.4495 67.4856L22.9214 64.523C22.7655 64.2111 22.3912 64.0864 22.0794 64.2423L16.8402 66.8931C16.5283 67.049 16.4036 67.4232 16.5595 67.7351L18.0564 70.7289C18.1188 70.8848 18.2747 70.9784 18.4307 71.0408V71.0719Z" fill="#25B8AF" fill-opacity="0.16"/>
</svg>
