<svg width="16" height="16" viewBox="0 0 16 16" fill="none" xmlns="http://www.w3.org/2000/svg">
<path id="Vector" d="M8 16C3.5816 16 0 12.4184 0 8C0 3.5816 3.5816 0 8 0C12.4184 0 16 3.5816 16 8C16 12.4184 12.4184 16 8 16ZM4.736 5.7872V5.8688C4.736 5.97489 4.77814 6.07663 4.85316 6.15164C4.92817 6.22666 5.02991 6.2688 5.136 6.2688H5.9336C5.98602 6.2688 6.03793 6.25847 6.08637 6.23841C6.1348 6.21835 6.17881 6.18895 6.21588 6.15188C6.25295 6.11481 6.28235 6.0708 6.30241 6.02237C6.32247 5.97393 6.3328 5.92202 6.3328 5.8696C6.3328 4.8376 7.1312 4.2864 8.2048 4.2864C9.2512 4.2864 9.9392 4.8376 9.9392 5.6224C9.9392 6.3648 9.5536 6.7096 8.5904 7.1504L8.3152 7.2736C7.5032 7.632 7.2 8.168 7.2 9.1048V9.2C7.2 9.30609 7.24214 9.40783 7.31716 9.48284C7.39217 9.55786 7.49391 9.6 7.6 9.6H8.3976C8.45002 9.6 8.50193 9.58967 8.55037 9.56961C8.5988 9.54955 8.64281 9.52015 8.67988 9.48308C8.71695 9.44601 8.74635 9.402 8.76641 9.35357C8.78647 9.30513 8.7968 9.25322 8.7968 9.2008C8.7968 8.788 8.9072 8.6224 9.2368 8.4712L9.5128 8.3472C10.6688 7.824 11.536 7.136 11.536 5.6352V5.5528C11.536 3.9704 10.16 2.8 8.2048 2.8C6.2224 2.8 4.736 3.9424 4.736 5.7872ZM6.8 11.9928C6.8 12.6864 7.3272 13.2 7.9928 13.2C8.6728 13.2 9.2 12.6864 9.2 11.9928C9.2 11.2992 8.6728 10.8 7.9928 10.8C7.3272 10.8 6.8 11.2992 6.8 11.9928Z" fill="#004393"/>
</svg>
