<?xml version="1.0" encoding="utf-8"?>
<!-- Generator: Adobe Illustrator 26.3.1, SVG Export Plug-In . SVG Version: 6.00 Build 0)  -->
<svg version="1.1" id="Layer_1" xmlns="http://www.w3.org/2000/svg" xmlns:xlink="http://www.w3.org/1999/xlink" x="0px" y="0px"
	 viewBox="0 0 140.9 44" style="enable-background:new 0 0 140.9 44;" xml:space="preserve">
<style type="text/css">
	.st0{fill:#1B1464;}
	.st1{fill:#FFFFFF;}
	.st2{fill:#F9EB21;}
</style>
<g>
	<g id="Group_98898_00000034049046572957461200000010193621340141037992_" transform="translate(467.55 715.534)">
		<g id="Group_98892_00000158733012187598332560000011212891238208963470_" transform="translate(0.477 12.22)">
			<path id="Path_115827_00000055695704666280392840000011091082507582131126_" class="st0" d="M-465.7-684.7
				c-0.4,0-0.8-0.4-0.8-0.8v-11.1c0-0.2,0.1-0.4,0.3-0.6l13.3-11.8c0.3-0.3,0.8-0.3,1.1,0.1l21.4,22.9c0.3,0.3,0.3,0.8,0,1.1
				c-0.1,0.1-0.3,0.2-0.5,0.2h-11.6c-0.2,0-0.4-0.1-0.6-0.2l-10.7-10.5l-11.3,10.5C-465.3-684.8-465.5-684.7-465.7-684.7z"/>
			<g id="Group_98891-2_00000017483903875673901880000011706181312423531662_">
				<path id="Path_115828_00000115502286601884379750000003868375618833640865_" class="st0" d="M-452.4-708.5l21.4,22.9h-11.6
					l-11.2-11l-11.9,11v-11.1L-452.4-708.5 M-452.4-710.1c-0.4,0-0.8,0.1-1.1,0.4l-13.3,11.8c-0.3,0.3-0.5,0.7-0.5,1.2v11.1
					c0,0.9,0.7,1.6,1.6,1.6c0.4,0,0.8-0.2,1.1-0.4l10.7-10l10.1,10c0.3,0.3,0.7,0.5,1.1,0.5h11.6c0.9,0,1.6-0.7,1.6-1.6
					c0-0.4-0.2-0.8-0.4-1.1l-21.4-22.9C-451.5-709.9-452-710.1-452.4-710.1L-452.4-710.1z"/>
			</g>
		</g>
		<g id="Group_98894_00000178906754258867811520000007348015934594220970_" transform="translate(0 0)">
			<path id="Path_115829_00000085234670103329526050000000601799852886374589_" class="st0" d="M-443.1-685.1
				c-0.2,0-0.4-0.1-0.6-0.2l-22.8-21.6c-0.3-0.3-0.3-0.8,0-1.1c0.2-0.2,0.4-0.2,0.6-0.3h11.6c0.2,0,0.4,0.1,0.6,0.2l10.7,10.5
				l17.8-16.8c0.3-0.3,0.8-0.3,1.1,0c0.1,0.1,0.2,0.3,0.2,0.5v11.1c0,0.2-0.1,0.4-0.3,0.6l-18.4,16.8
				C-442.7-685.2-442.9-685.1-443.1-685.1z"/>
			<g id="Group_98893_00000039126396144682740030000005369763149133240996_">
				<path id="Path_115830_00000145042419012922550570000007760212445143799741_" class="st0" d="M-424.7-713.8v11.1l-18.4,16.8
					l-22.9-21.6h11.6l11.2,11L-424.7-713.8 M-424.7-715.4c-0.4,0-0.8,0.2-1.1,0.4l-17.3,16.3l-10.1-10c-0.3-0.3-0.7-0.5-1.1-0.5
					h-11.6c-0.9,0-1.6,0.7-1.6,1.6c0,0.4,0.2,0.9,0.5,1.2l22.9,21.6c0.6,0.6,1.6,0.6,2.2,0l18.4-16.8c0.3-0.3,0.5-0.7,0.5-1.2v-11.1
					C-423.1-714.7-423.8-715.4-424.7-715.4L-424.7-715.4L-424.7-715.4z"/>
			</g>
		</g>
		<g id="Group_98896_00000152955391581077530070000014683307348123398808_" transform="translate(0.476 13.123)">
			<path id="Path_115831_00000088104277808663951450000012469467407800185258_" class="st1" d="M-431-685.6c-0.2,0-0.4-0.1-0.6-0.2
				l-11.1-10.5l-10.8,10.5c-0.1,0.1-0.4,0.2-0.6,0.2h-11.6c-0.4,0-0.8-0.4-0.8-0.8c0-0.2,0.1-0.4,0.3-0.6l23-21.6
				c0.3-0.3,0.8-0.3,1.1,0l11.7,10.5c0.2,0.2,0.3,0.4,0.3,0.6v11.1C-430.2-686-430.6-685.6-431-685.6
				C-431-685.6-431-685.6-431-685.6L-431-685.6z"/>
			<g id="Group_98895_00000050631297904461648160000012270107856827939738_">
				<path id="Path_115832_00000174562658174426055630000008046577638087355065_" class="st0" d="M-442.7-708.1l11.7,10.5v11.1
					l-11.7-11l-11.4,11h-11.6L-442.7-708.1 M-442.7-709.7c-0.4,0-0.8,0.2-1.1,0.4l-23,21.6c-0.6,0.6-0.7,1.6-0.1,2.3
					c0.3,0.3,0.7,0.5,1.2,0.5h11.6c0.4,0,0.8-0.2,1.1-0.5l10.3-10l10.6,10c0.6,0.6,1.7,0.6,2.3-0.1c0.3-0.3,0.4-0.7,0.4-1.1v-11.1
					c0-0.5-0.2-0.9-0.5-1.2l-11.7-10.5C-441.9-709.5-442.3-709.7-442.7-709.7L-442.7-709.7z"/>
			</g>
		</g>
		<g id="Group_98897_00000060006266927297464600000004143509374857813688_" transform="translate(0 0)">
			<path id="Path_115833_00000005968823519231643030000008810366409911074464_" class="st2" d="M-454.3-685.1
				c-0.2,0-0.4-0.1-0.5-0.2l-11.7-10.5c-0.2-0.2-0.3-0.4-0.3-0.6v-11.1c0-0.4,0.4-0.8,0.8-0.8c0.2,0,0.4,0.1,0.6,0.2l11.1,10.5
				l17.4-16.8c0.2-0.1,0.4-0.2,0.6-0.2h11.6c0.4,0,0.8,0.4,0.8,0.8c0,0.2-0.1,0.4-0.3,0.6l-29.6,27.9
				C-453.9-685.2-454.1-685.1-454.3-685.1z"/>
			<path id="Path_115834_00000082335446415520457470000015804822224532407976_" class="st0" d="M-424.7-713.8l-29.6,27.9l-11.7-10.5
				v-11.1l11.7,11l17.9-17.3L-424.7-713.8 M-424.7-715.4h-11.6c-0.4,0-0.8,0.2-1.1,0.5l-16.8,16.2l-10.6-10
				c-0.6-0.6-1.7-0.6-2.3,0.1c-0.3,0.3-0.4,0.7-0.4,1.1v11.1c0,0.5,0.2,0.9,0.5,1.2l11.7,10.5c0.6,0.6,1.6,0.5,2.2,0l29.6-27.9
				c0.6-0.6,0.7-1.6,0.1-2.3C-423.8-715.2-424.3-715.4-424.7-715.4L-424.7-715.4z"/>
		</g>
	</g>
	<g>
		<path class="st0" d="M54.5,11c0-5.8,4.6-10.1,10.2-10.1c2.8,0,5.2,1.1,7,3c0.2,0.2,0.1,0.4-0.1,0.6L69,7.1
			c-0.1,0.2-0.4,0.2-0.6,0.1c-1-0.9-2.3-1.5-3.9-1.5c-3,0-5.2,2.2-5.2,5.3s2.3,5.3,5.2,5.3c1.5,0,2.8-0.6,3.9-1.5
			c0.2-0.1,0.4-0.1,0.6,0.1l2.5,2.7c0.1,0.1,0.3,0.3,0.1,0.5c-1.7,1.8-4.1,3-7,3C59.1,21.1,54.5,16.8,54.5,11z"/>
		<path class="st0" d="M74.2,20.2V1.1c0-0.3,0.2-0.4,0.4-0.4h3.8c0.3,0,0.4,0.2,0.4,0.4V9c0.8-1.4,2-2.3,3.9-2.3
			c2.8,0,4.9,2.1,4.9,5.7v7.9c0,0.3-0.2,0.4-0.5,0.4h-3.8c-0.3,0-0.4-0.2-0.4-0.4v-6.7c0-1.7-0.7-2.5-2.1-2.5
			c-1.3,0-2.1,0.8-2.1,2.5v6.7c0,0.3-0.2,0.4-0.4,0.4h-3.8C74.4,20.7,74.2,20.5,74.2,20.2z"/>
		<path class="st0" d="M89.9,13.8c0-4,3-7.2,7.2-7.2c4.2,0,7.2,3.2,7.2,7.2s-3,7.2-7.2,7.2C93,21,89.9,17.9,89.9,13.8z M97.2,16.7
			c1.5,0,2.7-1.1,2.7-2.9S98.6,11,97.2,11c-1.5,0-2.7,1.1-2.7,2.9S95.6,16.7,97.2,16.7z"/>
		<path class="st0" d="M106.4,2.5c0-1.4,1.1-2.5,2.5-2.5c1.5,0,2.5,1.1,2.5,2.5c0,1.4-1.1,2.5-2.5,2.5
			C107.5,5.1,106.4,3.9,106.4,2.5z M106.6,7.4c0-0.3,0.2-0.4,0.4-0.4h3.9c0.3,0,0.4,0.2,0.4,0.4v12.8c0,0.3-0.2,0.4-0.4,0.4h-3.9
			c-0.3,0-0.4-0.2-0.4-0.4V7.4z"/>
		<path class="st0" d="M113.6,13.8c0-4,3-7.1,7.2-7.1c2.3,0,4.2,1,5.4,2.5c0.2,0.2,0.1,0.4-0.1,0.6l-2.2,2.1c-0.2,0.2-0.6,0.2-0.8,0
			c-0.7-0.6-1.4-0.9-2.2-0.9c-1.8,0-2.9,1.3-2.9,2.8c0,1.5,1,3,3,3c0.8,0,1.4-0.3,2.1-1c0.2-0.2,0.6-0.2,0.8,0l2.2,2.1
			c0.2,0.2,0.2,0.4,0.1,0.6c-1.2,1.5-3,2.5-5.3,2.5C116.7,21,113.6,17.9,113.6,13.8z"/>
		<path class="st0" d="M127.2,13.8c0-4,2.8-7.1,7.1-7.1c4.2,0,6.6,3,6.6,6.6c0,1.5-0.4,2.4-1.7,2.4h-7.4c0.5,1.3,1.7,1.7,3.4,1.7
			c0.8,0,1.7,0,2.8-0.6c0.2-0.1,0.4-0.1,0.5,0.2l1.3,1.8c0.1,0.2,0.1,0.4-0.1,0.6c-1.1,1.2-2.9,1.7-4.9,1.7
			C130.3,21,127.2,18,127.2,13.8z M136.7,12.4c-0.3-1.5-1.3-1.9-2.4-1.9c-1.2,0-2.3,0.5-2.6,1.9H136.7z"/>
		<g id="Group_98899_00000109030527246505813140000007207079734207917202_" transform="translate(507.213 721.534)">
			<path id="Path_115835_00000139260841461106220400000016049413301516343465_" class="st0" d="M-451.8-677.5
				c-0.3,0-0.4-0.1-0.4-0.4v-18.7c0-0.3,0.1-0.4,0.4-0.4h10.2c0.3,0,0.5,0.2,0.5,0.5v0v3.4c0,0.3-0.2,0.5-0.5,0.5h0h-5.7l0,0v3.2
				l0,0h5.3c0.3,0,0.5,0.2,0.5,0.5v0v3.4c0,0.3-0.2,0.5-0.5,0.5h0h-5.3l0,0v7.4c0,0.3-0.2,0.5-0.5,0.5h0L-451.8-677.5z"/>
			<path id="Path_115836_00000103258423036159374070000016275936032671322273_" class="st0" d="M-434.2-693.9c-1,1-2.7,0.9-3.6-0.1
				c-0.9-1-0.9-2.5,0-3.5c1-1,2.6-1,3.6,0c0.5,0.5,0.7,1.1,0.7,1.8C-433.4-695.1-433.7-694.4-434.2-693.9z M-437.9-677.5
				c-0.3,0-0.5-0.2-0.5-0.5v0v-12.8c0-0.3,0.2-0.5,0.5-0.5h0h3.9c0.3,0,0.5,0.2,0.5,0.5v0v12.8c0,0.3-0.2,0.5-0.5,0.5h0
				L-437.9-677.5z"/>
			<path id="Path_115837_00000134236538914755502750000013094359006732294060_" class="st0" d="M-430.2-677.5
				c-0.3,0-0.5-0.2-0.5-0.5v0v-12.8c0-0.3,0.2-0.5,0.5-0.5l0,0h3.7c0.3,0,0.4,0.2,0.4,0.5l0.1,1.5l0,0c0.7-1.5,2.3-2.4,3.9-2.3
				c1.4,0,2.7,0.5,3.6,1.5c1,1.2,1.5,2.6,1.4,4.1v7.9c0,0.1,0,0.2-0.1,0.3c-0.1,0.1-0.2,0.1-0.3,0.1h-3.8c-0.3,0-0.5-0.2-0.5-0.5v0
				v-6.8c0-1.7-0.7-2.5-2.1-2.5c-1.4,0-2.1,0.8-2.1,2.5v6.8c0,0.3-0.2,0.5-0.5,0.5l0,0L-430.2-677.5z"/>
			<path id="Path_115838_00000179604829146333749160000016668417947284203649_" class="st0" d="M-414.8-677.5
				c-0.4,0-0.5-0.2-0.3-0.5l5.5-9.5l0,0l-5.2-9.1c-0.2-0.3-0.1-0.5,0.3-0.5h4.3c0.2,0,0.4,0.1,0.5,0.3l2.8,4.8l0,0l2.8-4.8
				c0.1-0.2,0.3-0.3,0.5-0.3h4.3c0.4,0,0.5,0.2,0.3,0.5l-5.2,9.1l0,0l5.5,9.5c0.2,0.3,0.1,0.5-0.3,0.5h-4.3c-0.2,0-0.4-0.1-0.5-0.3
				l-3-5.3l0,0l-3,5.3c-0.1,0.2-0.3,0.3-0.5,0.3H-414.8z"/>
		</g>
	</g>
</g>
</svg>
