<svg width="9" height="10" viewBox="0 0 9 10" fill="none" xmlns="http://www.w3.org/2000/svg">
<path id="Vector" fill-rule="evenodd" clip-rule="evenodd" d="M1.55556 4.22222V2.88889C1.55556 2.12271 1.85992 1.38791 2.40169 0.846138C2.94346 0.304364 3.67827 0 4.44444 0C5.21062 0 5.94542 0.304364 6.4872 0.846138C7.02898 1.38791 7.33333 2.12271 7.33333 2.88889V4.22222H7.55556C8.29196 4.22222 8.88889 4.81916 8.88889 5.55556V8.66667C8.88889 9.40307 8.29196 10 7.55556 10H1.33333C0.596956 10 0 9.40307 0 8.66667V5.55556C0 4.81916 0.596956 4.22222 1.33333 4.22222H1.55556ZM3.3445 1.78895C3.63622 1.49722 4.03187 1.33333 4.44444 1.33333C4.85702 1.33333 5.25267 1.49722 5.5444 1.78895C5.83613 2.08067 6 2.47633 6 2.88889V4.22222H2.88889V2.88889C2.88889 2.47633 3.05278 2.08067 3.3445 1.78895Z" fill="#666666"/>
</svg>
