<svg width="43" height="42" viewBox="0 0 43 42" fill="none" xmlns="http://www.w3.org/2000/svg">
<g id="Group">
<g id="Group_98898_00000034049046572957461200000010193621340141037992_">
<g id="Group_98892_00000158733012187598332560000011212891238208963470_">
<path id="Path_115827_00000055695704666280392840000011091082507582131126_" d="M2.18434 41.1694C1.74574 41.1694 1.42676 40.8132 1.42676 40.3778V29.6918C1.42676 29.4544 1.5065 29.2565 1.70586 29.0982L14.5849 17.7789C14.9039 17.5019 15.3823 17.5414 15.6615 17.8185L36.3556 39.8238C36.6347 40.1404 36.6347 40.6153 36.3157 40.9319C36.1562 41.0507 35.9967 41.1298 35.7974 41.1298H24.5532C24.3538 41.1298 24.1544 41.0507 23.9949 40.8924L13.6678 30.8L2.74257 40.8924C2.58307 41.0903 2.38371 41.1694 2.18434 41.1694Z" fill="#1B1464"/>
<g id="Group_98891-2_00000017483903875673901880000011706181312423531662_">
<path id="Path_115828_00000115502286601884379750000003868375618833640865_" d="M15.1028 18.4117L35.797 40.417H24.5528L13.7073 29.8101L2.22383 40.417V29.731L15.1028 18.4117ZM15.063 16.8682C14.6642 16.8682 14.3054 16.9869 14.0263 17.2639L1.14725 28.5832C0.828267 28.8602 0.628906 29.2956 0.628906 29.731V40.417C0.628906 41.2877 1.30675 41.9605 2.18396 41.9605C2.58269 41.9605 2.94155 41.8022 3.26053 41.5647L13.6275 31.9869L23.4363 41.5647C23.7154 41.8418 24.1142 42.0001 24.5129 42.0001H35.7571C36.6343 42.0001 37.3122 41.3273 37.3122 40.4565C37.3122 40.0608 37.1527 39.7046 36.8736 39.3879L16.1794 17.4222C15.9402 17.0265 15.5016 16.8682 15.063 16.8682Z" fill="#1B1464"/>
</g>
</g>
<g id="Group_98894_00000178906754258867811520000007348015934594220970_">
<path id="Path_115829_00000085234670103329526050000000601799852886374589_" d="M23.6445 29.0899C23.4452 29.0899 23.2458 29.0108 23.1262 28.892L1.03647 8.15327C0.717481 7.87623 0.717478 7.3617 0.99659 7.04507C1.15608 6.88676 1.35545 6.80762 1.55481 6.80762H12.799C12.9984 6.80762 13.1978 6.88676 13.3573 7.04507L23.6844 17.1374L40.9495 1.02926C41.2684 0.752216 41.7469 0.752206 42.0659 1.06883C42.1855 1.22714 42.2653 1.38545 42.2653 1.58334V12.2694C42.2653 12.4672 42.1855 12.7047 42.026 12.8235L24.2426 28.9316C24.0034 29.0108 23.8439 29.0899 23.6445 29.0899Z" fill="#1B1464"/>
<g id="Group_98893_00000039126396144682740030000005369763149133240996_">
<path id="Path_115830_00000145042419012922550570000007760212445143799741_" d="M41.4282 1.54355V12.2296L23.6448 28.3377L1.55505 7.59895H12.7993L23.6448 18.2058L41.4282 1.54355ZM41.4282 0C41.0294 0 40.6706 0.158311 40.3516 0.395778L23.6448 15.9895L13.8758 6.45118C13.5967 6.17414 13.198 6.01584 12.7993 6.01584H1.55505C0.677841 6.01584 0 6.68867 0 7.55938C0 7.99474 0.159497 8.39051 0.478482 8.66756L22.5682 29.4063C23.1663 29.9604 24.0834 29.9604 24.6815 29.4063L42.4649 13.2982C42.7839 13.0211 42.9832 12.5858 42.9832 12.1504V1.46438C42.9832 0.672828 42.3054 0 41.4282 0Z" fill="#1B1464"/>
</g>
</g>
<g id="Group_98896_00000152955391581077530070000014683307348123398808_">
<path id="Path_115831_00000088104277808663951450000012469467407800185258_" d="M35.7566 41.1696C35.5573 41.1696 35.3579 41.0905 35.2383 40.9717L24.4725 30.8794L13.9859 40.9717C13.8264 41.1301 13.6669 41.2092 13.4277 41.2092H2.18347C1.74487 41.2092 1.38601 40.853 1.42588 40.4177C1.42588 40.2198 1.50563 39.9823 1.66512 39.8636L23.9542 19.1248C24.2333 18.8477 24.7118 18.8477 24.9909 19.1248L36.275 29.2171C36.4345 29.3754 36.5142 29.5733 36.5142 29.7712V40.4572C36.5541 40.8134 36.1952 41.1696 35.7566 41.1696Z" fill="white"/>
<g id="Group_98895_00000050631297904461648160000012270107856827939738_">
<path id="Path_115832_00000174562658174426055630000008046577638087355065_" d="M24.4728 19.6402L35.7569 29.7325V40.4186L24.4728 29.8117L13.4678 40.4186H2.22356L24.4728 19.6402ZM24.4728 18.0967C24.074 18.0967 23.7152 18.255 23.3962 18.4925L1.1071 39.2312C0.469135 39.8249 0.469142 40.7748 1.02737 41.408C1.30648 41.7246 1.74508 41.883 2.14381 41.883H13.388C13.7868 41.883 14.1855 41.7246 14.4646 41.4476L24.4329 31.8698L34.6404 41.4476C35.2784 42.0413 36.2353 42.0017 36.8334 41.3684C37.1125 41.0914 37.272 40.6956 37.272 40.2998V29.6534C37.272 29.218 37.0727 28.7827 36.7537 28.5056L25.4696 18.4133C25.2303 18.255 24.8715 18.0967 24.4728 18.0967Z" fill="#1B1464"/>
</g>
</g>
<g id="Group_98897_00000060006266927297464600000004143509374857813688_">
<path id="Path_115833_00000005968823519231643030000008810366409911074464_" d="M12.8395 29.0896C12.6402 29.0896 12.4807 29.0105 12.3212 28.8917L1.03709 18.7994C0.8776 18.6411 0.797852 18.4432 0.797852 18.2453V7.59886C0.797852 7.1635 1.15671 6.80729 1.59531 6.84687C1.79468 6.84687 1.99404 6.92602 2.11366 7.04476L12.8794 17.1371L29.7059 1.02894C29.8654 0.870633 30.0248 0.831055 30.2641 0.831055H41.5083C41.9469 0.831055 42.3058 1.18726 42.2659 1.62261C42.2659 1.8205 42.1861 2.01838 42.0266 2.17669L13.4376 28.9313C13.2383 29.0105 13.0389 29.0896 12.8395 29.0896Z" fill="#F9EB21"/>
<path id="Path_115834_00000082335446415520457470000015804822224532407976_" d="M41.4282 1.54355L12.8391 28.2982L1.55505 18.2058V7.51979L12.8391 18.1266L30.184 1.50395L41.4282 1.54355ZM41.4282 0H30.184C29.7852 0 29.3865 0.158326 29.1074 0.435371L12.8391 16.029L2.63163 6.45118C1.99366 5.85752 1.0367 5.8971 0.438607 6.53034C0.159495 6.80739 0 7.20317 0 7.59895V18.285C0 18.7203 0.199361 19.1557 0.518346 19.4327L11.8024 29.5251C12.4005 30.0792 13.3176 30.0396 13.9157 29.4855L42.5047 2.73088C43.1427 2.13721 43.1427 1.18734 42.5845 0.554099C42.2655 0.158321 41.8668 0 41.4282 0Z" fill="#1B1464"/>
</g>
</g>
</g>
</svg>
