<svg width="30" height="30" viewBox="0 0 30 30" fill="none" xmlns="http://www.w3.org/2000/svg">
<path d="M8.167 25.333H10.375V21.792H13.958V19.542H10.375V16H8.167V19.542H4.625V21.792H8.167V25.333ZM16.917 23.958H25.292V21.75H16.917V23.958ZM16.917 19.583H25.292V17.375H16.917V19.583ZM18.542 12.958L21.042 10.458L23.5 12.958L25.083 11.375L22.625 8.875L25.083 6.375L23.5 4.792L21.042 7.292L18.542 4.792L16.958 6.375L19.458 8.875L16.958 11.375L18.542 12.958ZM5.167 9.958H13.375V7.75H5.167V9.958ZM2.792 30C2.042 30 1.389 29.7223 0.833 29.167C0.277667 28.611 0 27.958 0 27.208V2.792C0 2.042 0.277667 1.389 0.833 0.833C1.389 0.277667 2.042 0 2.792 0H27.208C27.958 0 28.611 0.277667 29.167 0.833C29.7223 1.389 30 2.042 30 2.792V27.208C30 27.958 29.7223 28.611 29.167 29.167C28.611 29.7223 27.958 30 27.208 30H2.792ZM2.792 27.208H27.208V2.792H2.792V27.208ZM2.792 2.792V27.208V2.792Z" fill="black"/>
</svg>
