<svg width="30" height="30" viewBox="0 0 30 30" fill="none" xmlns="http://www.w3.org/2000/svg">
<path d="M28.167 30C24.7223 30 21.3127 29.1807 17.938 27.542C14.5627 25.9027 11.5487 23.7567 8.896 21.104C6.24333 18.4513 4.09733 15.4373 2.458 12.062C0.819334 8.68733 0 5.27767 0 1.833C0 1.30567 0.173667 0.868333 0.521 0.521C0.868333 0.173667 1.30567 0 1.833 0H7.958C8.34733 0 8.69467 0.132 9 0.396C9.30533 0.66 9.486 1.00033 9.542 1.417L10.667 6.875C10.7223 7.26367 10.7153 7.618 10.646 7.938C10.5767 8.25733 10.4307 8.528 10.208 8.75L6.083 12.917C7.49967 15.3057 9.14567 17.4307 11.021 19.292C12.8957 21.1527 14.9997 22.736 17.333 24.042L21.292 20.042C21.542 19.736 21.8543 19.5207 22.229 19.396C22.6043 19.2707 22.9863 19.2497 23.375 19.333L28.583 20.458C28.9997 20.5413 29.34 20.7427 29.604 21.062C29.868 21.382 30 21.7503 30 22.167V28.167C30 28.6943 29.8263 29.1317 29.479 29.479C29.1317 29.8263 28.6943 30 28.167 30ZM4.708 10.333L7.875 7.125L7 2.792H2.792C2.84733 3.87533 3.02767 5.035 3.333 6.271C3.639 7.507 4.09733 8.861 4.708 10.333ZM19.917 25.375C21.0557 25.903 22.257 26.3197 23.521 26.625C24.785 26.9303 26.014 27.1247 27.208 27.208V23L23.042 22.167L19.917 25.375Z" fill="black"/>
</svg>
