<svg width="28" height="27" viewBox="0 0 28 27" fill="none" xmlns="http://www.w3.org/2000/svg">
<path d="M14 12.958C12.1667 12.958 10.646 12.354 9.43799 11.146C8.22933 9.93734 7.62499 8.41634 7.62499 6.58301C7.62499 4.74967 8.22933 3.22901 9.43799 2.02101C10.646 0.812341 12.1667 0.208008 14 0.208008C15.8333 0.208008 17.354 0.812341 18.562 2.02101C19.7707 3.22901 20.375 4.74967 20.375 6.58301C20.375 8.41634 19.7707 9.93734 18.562 11.146C17.354 12.354 15.8333 12.958 14 12.958ZM0.666992 26.333V22.167C0.666992 21.139 0.923659 20.243 1.43699 19.479C1.95099 18.715 2.62466 18.1387 3.45799 17.75C5.26399 16.9167 7.03499 16.2847 8.77099 15.854C10.507 15.4233 12.25 15.208 14 15.208C15.75 15.208 17.486 15.4233 19.208 15.854C20.9307 16.2847 22.7087 16.9167 24.542 17.75C25.3753 18.1667 26.0487 18.75 26.562 19.5C27.076 20.25 27.333 21.139 27.333 22.167V26.333H0.666992ZM3.45799 23.542H24.542V22.167C24.542 21.7777 24.4307 21.4027 24.208 21.042C23.986 20.6807 23.7083 20.4167 23.375 20.25C21.6803 19.4167 20.09 18.8333 18.604 18.5C17.118 18.1667 15.5833 18 14 18C12.4167 18 10.875 18.1667 9.37499 18.5C7.87499 18.8333 6.29166 19.4167 4.62499 20.25C4.26366 20.4167 3.97899 20.6807 3.77099 21.042C3.56233 21.4027 3.45799 21.7777 3.45799 22.167V23.542ZM14 10.208C15.028 10.208 15.889 9.86101 16.583 9.16701C17.2777 8.47234 17.625 7.61101 17.625 6.58301C17.625 5.55567 17.2777 4.69467 16.583 4.00001C15.889 3.30534 15.028 2.95801 14 2.95801C12.972 2.95801 12.111 3.30534 11.417 4.00001C10.7223 4.69467 10.375 5.55567 10.375 6.58301C10.375 7.61101 10.7223 8.47234 11.417 9.16701C12.111 9.86101 12.972 10.208 14 10.208Z" fill="black"/>
</svg>
