<svg width="26" height="35" viewBox="0 0 26 35" fill="none" xmlns="http://www.w3.org/2000/svg">
<path d="M25.707 8.2928L17.7072 0.293C17.5205 0.1062 17.2656 0 17 0H3C1.3458 0 0 1.3458 0 3V31.1333C0 32.7875 1.3458 34.1333 3 34.1333H23C24.6542 34.1333 26 32.7875 26 31.1333V9C26 8.72733 25.8855 8.47127 25.707 8.2928ZM18 3.4142L22.5858 8H19C18.4486 8 18 7.5514 18 7V3.4142ZM23 32.1333H3C2.4486 32.1333 2 31.6847 2 31.1333V3C2 2.4486 2.4486 2 3 2H16V7C16 8.6542 17.3458 10 19 10H24V31.1333C24 31.6847 23.5514 32.1333 23 32.1333Z" fill="black"/>
<path d="M19 14.1328H7C6.44773 14.1328 6 14.5805 6 15.1328C6 15.6851 6.44773 16.1328 7 16.1328H19C19.5523 16.1328 20 15.6851 20 15.1328C20 14.5805 19.5523 14.1328 19 14.1328Z" fill="black"/>
<path d="M19 18.1328H7C6.44773 18.1328 6 18.5805 6 19.1328C6 19.6851 6.44773 20.1328 7 20.1328H19C19.5523 20.1328 20 19.6851 20 19.1328C20 18.5805 19.5523 18.1328 19 18.1328Z" fill="black"/>
<path d="M19 22.1328H7C6.44773 22.1328 6 22.5805 6 23.1328C6 23.6851 6.44773 24.1328 7 24.1328H19C19.5523 24.1328 20 23.6851 20 23.1328C20 22.5805 19.5523 22.1328 19 22.1328Z" fill="black"/>
<path d="M15 26.1328H7C6.44773 26.1328 6 26.5805 6 27.1328C6 27.6851 6.44773 28.1328 7 28.1328H15C15.5523 28.1328 16 27.6851 16 27.1328C16 26.5805 15.5523 26.1328 15 26.1328Z" fill="black"/>
</svg>
