<svg width="85" height="55" viewBox="0 0 85 55" fill="none" xmlns="http://www.w3.org/2000/svg">
<path d="M48.8038 1.97897L47.1999 0.375L68.5862 0.464108L66.9822 2.06809L68.4971 3.58295H47.1999L48.8038 1.97897ZM74.2001 0.464108H68.5862L66.9822 2.06809L68.5862 3.67206H74.2001C77.9427 3.67206 81.0616 6.70179 81.0616 10.5335V45.019C81.0616 48.7616 78.0318 51.8804 74.2001 51.8804H10.754C7.01136 51.8804 3.89252 48.8507 3.89252 45.019V10.4444C3.89252 6.70179 6.92225 3.58295 10.754 3.58295H47.1999L48.8038 1.97897L47.1999 0.375H10.754C5.22917 0.375 0.773682 4.83049 0.773682 10.3553V44.8408C0.773682 50.3656 5.22917 54.8211 10.754 54.8211H74.111C79.6358 54.8211 84.0913 50.3656 84.0913 44.8408V10.4444C84.0913 4.9196 79.6358 0.464108 74.2001 0.464108ZM26.6155 11.781C35.3483 11.781 42.477 18.9098 42.477 27.6426C42.477 32.6327 40.0711 37.3555 36.0611 40.3853C30.1799 44.6625 22.5165 44.3952 17.0808 40.3853C10.0411 35.1278 8.61534 25.1475 13.8728 18.1078C16.9025 14.187 21.6254 11.781 26.6155 11.781ZM30.7146 25.3257C30.7146 23.098 28.9324 21.2267 26.7046 21.2267C24.4769 21.2267 22.6056 23.0089 22.6056 25.2366C22.6056 27.4644 24.3878 29.3357 26.6155 29.3357C28.8432 29.3357 30.7146 27.5535 30.7146 25.3257ZM19.6649 37.8902V38.3358C21.4471 39.4942 23.764 40.2962 26.17 40.3853C29.1997 40.2962 30.8037 40.2071 33.5661 38.3358V37.8902C33.5661 34.8605 31.1601 32.4545 28.1304 32.4545H25.0115C22.0709 32.4545 19.6649 34.9496 19.6649 37.8902ZM26.6155 14.8999C19.5758 14.8999 13.8728 20.6029 13.8728 27.6426C13.8728 30.5832 14.9421 33.5238 16.8134 35.7516C17.4372 33.2565 19.1303 31.207 21.4471 30.1377C18.7739 27.2861 18.863 22.7415 21.8036 19.9791C24.6551 17.3059 29.1997 17.395 31.9621 20.3356C34.5463 23.098 34.5463 27.3753 31.9621 30.1377C34.2789 31.207 35.972 33.2565 36.5958 35.7516C38.4671 33.4347 39.5364 30.5832 39.5364 27.6426C39.4473 20.6029 33.6552 14.8999 26.6155 14.8999ZM52.5464 19.7118H72.5961C73.4872 19.7118 74.2001 18.9989 74.2001 18.1078C74.2001 17.2167 73.4872 16.5039 72.5961 16.5039H52.5464C51.6553 16.5039 50.9425 17.2167 50.9425 18.1078C50.9425 18.9989 51.7445 19.7118 52.5464 19.7118ZM52.5464 29.2466H72.5961C73.4872 29.2466 74.2001 28.5337 74.2001 27.6426C74.2001 26.7515 73.4872 26.0386 72.5961 26.0386H52.5464C51.6553 26.0386 50.9425 26.7515 50.9425 27.6426C50.9425 28.5337 51.7445 29.2466 52.5464 29.2466ZM52.5464 38.7813H72.5961C73.4872 38.7813 74.2001 38.0684 74.2001 37.1773C74.2001 36.2862 73.4872 35.5733 72.5961 35.5733H52.5464C51.6553 35.5733 50.9425 36.2862 50.9425 37.1773C50.9425 38.0684 51.7445 38.7813 52.5464 38.7813Z" fill="url(#paint0_linear_240_1119)"/>
<defs>
<linearGradient id="paint0_linear_240_1119" x1="42.4323" y1="-0.843995" x2="42.4323" y2="55.011" gradientUnits="userSpaceOnUse">
<stop stop-color="#00EFD1"/>
<stop offset="1" stop-color="#00ACEA"/>
</linearGradient>
</defs>
</svg>
