<svg width="28" height="28" viewBox="0 0 28 28" fill="none" xmlns="http://www.w3.org/2000/svg">
<path d="M6.20799 11.792C4.68066 11.792 3.37533 11.2503 2.29199 10.167C1.20866 9.08366 0.666992 7.76399 0.666992 6.20799C0.666992 4.68066 1.20866 3.37533 2.29199 2.29199C3.37533 1.20866 4.68066 0.666992 6.20799 0.666992C7.76399 0.666992 9.08366 1.20866 10.167 2.29199C11.2503 3.37533 11.792 4.68066 11.792 6.20799C11.792 7.76399 11.2503 9.08366 10.167 10.167C9.08366 11.2503 7.76399 11.792 6.20799 11.792ZM6.20799 8.99999C6.98599 8.99999 7.64599 8.72933 8.18799 8.18799C8.72933 7.64599 8.99999 6.98599 8.99999 6.20799C8.99999 5.45799 8.72933 4.81233 8.18799 4.27099C7.64599 3.72899 6.98599 3.45799 6.20799 3.45799C5.45799 3.45799 4.81233 3.72899 4.27099 4.27099C3.72899 4.81233 3.45799 5.45799 3.45799 6.20799C3.45799 6.98599 3.72899 7.64599 4.27099 8.18799C4.81233 8.72933 5.45799 8.99999 6.20799 8.99999ZM21.792 27.333C20.236 27.333 18.9163 26.7913 17.833 25.708C16.7497 24.6247 16.208 23.3193 16.208 21.792C16.208 20.236 16.7497 18.9163 17.833 17.833C18.9163 16.7497 20.236 16.208 21.792 16.208C23.3193 16.208 24.6247 16.7497 25.708 17.833C26.7913 18.9163 27.333 20.236 27.333 21.792C27.333 23.3193 26.7913 24.6247 25.708 25.708C24.6247 26.7913 23.3193 27.333 21.792 27.333ZM21.792 24.542C22.542 24.542 23.1877 24.271 23.729 23.729C24.271 23.1877 24.542 22.542 24.542 21.792C24.542 21.014 24.271 20.354 23.729 19.812C23.1877 19.2707 22.542 19 21.792 19C21.014 19 20.354 19.2707 19.812 19.812C19.2707 20.354 19 21.014 19 21.792C19 22.542 19.2707 23.1877 19.812 23.729C20.354 24.271 21.014 24.542 21.792 24.542ZM2.62499 27.333L0.666992 25.375L25.375 0.666992L27.333 2.62499L2.62499 27.333Z" fill="black"/>
</svg>
