<svg width="38" height="28" viewBox="0 0 38 28" fill="none" xmlns="http://www.w3.org/2000/svg">
<path d="M0.666992 27.333V20.667C0.666992 19.8057 0.965325 19.0833 1.56199 18.5C2.15933 17.9167 2.87466 17.625 3.70799 17.625H9.45799C9.95799 17.625 10.4373 17.75 10.896 18C11.354 18.25 11.736 18.5833 12.042 19C12.8473 20.1387 13.861 21.0277 15.083 21.667C16.3057 22.3057 17.6113 22.625 19 22.625C20.3887 22.625 21.7013 22.3057 22.938 21.667C24.174 21.0277 25.1947 20.1387 26 19C26.3333 18.5833 26.7153 18.25 27.146 18C27.5767 17.75 28.042 17.625 28.542 17.625H34.292C35.1253 17.625 35.8407 17.9167 36.438 18.5C37.0347 19.0833 37.333 19.8057 37.333 20.667V27.333H26.208V22.75C25.236 23.6113 24.132 24.264 22.896 24.708C21.66 25.1527 20.3613 25.375 19 25.375C17.6667 25.375 16.382 25.146 15.146 24.688C13.91 24.2293 12.792 23.5833 11.792 22.75V27.333H0.666992ZM19 20.375C18 20.375 17.0417 20.146 16.125 19.688C15.2083 19.2293 14.4583 18.5833 13.875 17.75C13.4303 17.0833 12.8817 16.5557 12.229 16.167C11.5763 15.7777 10.861 15.5413 10.083 15.458C10.833 14.5413 12.111 13.84 13.917 13.354C15.7223 12.868 17.4167 12.625 19 12.625C20.5833 12.625 22.2847 12.868 24.104 13.354C25.9233 13.84 27.1943 14.5413 27.917 15.458C27.167 15.5413 26.4653 15.7777 25.812 16.167C25.1593 16.5557 24.611 17.0833 24.167 17.75C23.5837 18.5833 22.8337 19.2293 21.917 19.688C21.0003 20.146 20.028 20.375 19 20.375ZM5.66699 15.125C4.36099 15.125 3.24966 14.6597 2.33299 13.729C1.41633 12.7983 0.957992 11.6803 0.957992 10.375C0.957992 9.06966 1.41633 7.95866 2.33299 7.04199C3.24966 6.12533 4.36099 5.66699 5.66699 5.66699C7.00033 5.66699 8.11833 6.12533 9.02099 7.04199C9.92366 7.95866 10.375 9.06966 10.375 10.375C10.375 11.6803 9.92366 12.7983 9.02099 13.729C8.11833 14.6597 7.00033 15.125 5.66699 15.125ZM32.333 15.125C31.0277 15.125 29.9167 14.6597 29 13.729C28.0833 12.7983 27.625 11.6803 27.625 10.375C27.625 9.06966 28.0833 7.95866 29 7.04199C29.9167 6.12533 31.0277 5.66699 32.333 5.66699C33.6663 5.66699 34.7847 6.12533 35.688 7.04199C36.5907 7.95866 37.042 9.06966 37.042 10.375C37.042 11.6803 36.5907 12.7983 35.688 13.729C34.7847 14.6597 33.6663 15.125 32.333 15.125ZM19 10.125C17.6947 10.125 16.5837 9.65966 15.667 8.72899C14.7503 7.79833 14.292 6.68033 14.292 5.37499C14.292 4.06966 14.7503 2.95866 15.667 2.04199C16.5837 1.12533 17.6947 0.666992 19 0.666992C20.3333 0.666992 21.4513 1.12533 22.354 2.04199C23.2567 2.95866 23.708 4.06966 23.708 5.37499C23.708 6.68033 23.2567 7.79833 22.354 8.72899C21.4513 9.65966 20.3333 10.125 19 10.125Z" fill="black"/>
</svg>
