<svg width="28" height="28" viewBox="0 0 28 28" fill="none" xmlns="http://www.w3.org/2000/svg">
<path d="M14 27.333C10.3053 27.333 7.15933 26.0347 4.56199 23.438C1.96533 20.8407 0.666992 17.6947 0.666992 14C0.666992 10.3053 1.96533 7.15966 4.56199 4.56299C7.15933 1.96566 10.3053 0.666992 14 0.666992C16.222 0.666992 18.215 1.11833 19.979 2.02099C21.743 2.92366 23.264 4.18066 24.542 5.79199V0.666992H27.333V11.625H16.375V8.83299H23.375C22.375 7.19433 21.0763 5.88899 19.479 4.91699C17.8817 3.94433 16.0553 3.45799 14 3.45799C11.0553 3.45799 8.56233 4.47899 6.52099 6.52099C4.47899 8.56233 3.45799 11.0553 3.45799 14C3.45799 16.9447 4.47899 19.4377 6.52099 21.479C8.56233 23.521 11.0553 24.542 14 24.542C16.25 24.542 18.2987 23.903 20.146 22.625C21.9933 21.347 23.292 19.6527 24.042 17.542H26.917C26.111 20.4587 24.5137 22.8197 22.125 24.625C19.7363 26.4303 17.028 27.333 14 27.333Z" fill="black"/>
</svg>
