<svg width="130" height="33" viewBox="0 0 130 33" fill="none" xmlns="http://www.w3.org/2000/svg">
<rect width="130" height="33" rx="16.5" fill="#F5F5F5"/>
<path fill-rule="evenodd" clip-rule="evenodd" d="M37.0936 16.5191C37.1114 15.1315 37.8383 13.8499 39.0195 13.1232C38.271 12.0533 37.0621 11.3993 35.7576 11.3584C34.3852 11.2143 33.0547 12.1803 32.3554 12.1803C31.6425 12.1803 30.5657 11.3727 29.4062 11.3966C27.8806 11.4459 26.4928 12.2929 25.7506 13.6277C24.17 16.3663 25.349 20.3912 26.8631 22.6049C27.6206 23.6889 28.506 24.8997 29.6644 24.8568C30.798 24.8097 31.2214 24.1334 32.5898 24.1334C33.9455 24.1334 34.3427 24.8568 35.5246 24.8295C36.7411 24.8097 37.5075 23.7407 38.2384 22.6464C38.7827 21.874 39.2016 21.0204 39.4794 20.1171C38.0347 19.5056 37.0953 18.0889 37.0936 16.5191Z" fill="#221F20"/>
<path fill-rule="evenodd" clip-rule="evenodd" d="M34.7452 10.0197C35.3719 9.17693 35.6806 8.09368 35.6058 7C34.6484 7.11265 33.7641 7.62527 33.129 8.43572C32.5019 9.23533 32.1841 10.2814 32.2458 11.3436C33.2161 11.3548 34.1372 10.8669 34.7452 10.0197Z" fill="#221F20"/>
<path d="M60.926 13.793C62.8172 13.793 64.0639 15.2523 64.0639 17.5063C64.0639 19.7666 62.8245 21.2187 60.9541 21.2187C59.9874 21.2681 59.0767 20.7738 58.6096 19.9462H58.5742V23.5488H57.0446V13.8691H58.5252V15.0789H58.5533C59.0412 14.2564 59.9528 13.7624 60.926 13.793ZM69.1276 13.793C71.0188 13.793 72.2655 15.2523 72.2655 17.5063C72.2655 19.7666 71.0261 21.2187 69.1557 21.2187C68.1889 21.2681 67.2783 20.7738 66.8111 19.9462H66.7758V23.5488H65.2462V13.8691H66.7267V15.0789H66.7548C67.2428 14.2564 68.1544 13.7624 69.1276 13.793ZM80.1086 11C82.2683 11 83.7488 12.1823 83.7987 13.9036H82.2546C82.1622 12.908 81.319 12.3071 80.0869 12.3071C78.8547 12.3071 78.0116 12.9151 78.0116 13.8C78.0116 14.5054 78.5501 14.9204 79.8675 15.2381L80.9935 15.508C83.0905 15.992 83.9618 16.8143 83.9618 18.2735C83.9618 20.1399 82.4387 21.3089 80.0161 21.3089C77.7495 21.3089 76.2192 20.1674 76.1203 18.3629L77.6861 18.363C77.7994 19.3523 78.784 20.0019 80.1295 20.0019C81.4187 20.0019 82.3463 19.3523 82.3463 18.4602C82.3463 17.6859 81.7869 17.2222 80.4623 16.9045L79.1377 16.593C77.2609 16.1505 76.3896 15.2938 76.3896 13.9036C76.3896 12.1823 77.9264 11 80.1086 11ZM93.0347 13.7797C95.1953 13.7797 96.5697 15.2177 96.5697 17.5063C96.5697 19.8011 95.2025 21.2329 93.0347 21.2329C90.8678 21.2329 89.5006 19.8011 89.5006 17.5063C89.5006 15.2178 90.8815 13.7797 93.0347 13.7797ZM105.421 13.7797C107.482 13.7797 108.779 15.162 108.779 17.3674V17.8789H103.516V17.9691C103.467 18.5106 103.658 19.0467 104.042 19.4408C104.425 19.835 104.964 20.0494 105.52 20.0294C106.263 20.0972 106.962 19.6812 107.241 19.0063L108.694 19.0063C108.488 20.3267 107.17 21.2329 105.485 21.2329C103.317 21.2329 101.972 19.8152 101.972 17.5408C101.972 15.2593 103.324 13.7797 105.421 13.7797ZM87.2629 12.1478V13.8691H88.6799V15.0514H87.2629V19.0612C87.2629 19.6842 87.5466 19.9744 88.1695 19.9744C88.3378 19.9716 88.5057 19.9601 88.6727 19.9399V21.1151C88.3926 21.1662 88.108 21.1894 87.8231 21.1842C86.3145 21.1842 85.7261 20.6311 85.7261 19.2205V15.0514H84.6426V13.8691H85.7261V12.1478H87.2629ZM52.4045 11.1663L56.0946 21.1426H54.4163L53.4815 18.4462H49.5857L48.6501 21.1426H47L50.6901 11.1663H52.4045ZM101.117 13.793C101.294 13.7924 101.469 13.8111 101.641 13.8487V15.2452C101.419 15.1788 101.187 15.1484 100.954 15.155C100.505 15.1372 100.069 15.3121 99.7629 15.6338C99.4565 15.9556 99.3094 16.3919 99.3603 16.8284V21.1426H97.8308V13.8691H99.2896V15.1071H99.325C99.5284 14.3102 100.277 13.7617 101.117 13.793ZM93.0347 15.0099C91.7953 15.0099 91.0591 15.9435 91.0591 17.5063C91.0591 19.0824 91.7953 20.0019 93.0347 20.0019C94.2741 20.0019 95.0112 19.0824 95.0112 17.5063C95.0112 15.9364 94.2741 15.0099 93.0347 15.0099ZM60.5225 15.0656C59.3538 15.0656 58.5677 16.0541 58.5677 17.5063C58.5677 18.9718 59.3538 19.9533 60.5225 19.9533C61.7121 19.9533 62.4917 18.9922 62.4917 17.5063C62.4917 16.0337 61.7121 15.0656 60.5225 15.0656ZM68.7241 15.0656C67.5554 15.0656 66.7693 16.0541 66.7693 17.5063C66.7693 18.9718 67.5554 19.9533 68.7241 19.9533C69.9137 19.9533 70.6933 18.9922 70.6933 17.5063C70.6933 16.0337 69.9137 15.0656 68.7241 15.0656ZM51.555 12.8257H51.5124L49.9892 17.2019H53.0773L51.555 12.8257ZM105.421 14.9894C104.918 14.9865 104.434 15.1799 104.078 15.5265C103.721 15.8732 103.522 16.3444 103.523 16.8355H107.248C107.276 16.3489 107.095 15.8731 106.748 15.5227C106.401 15.1722 105.92 14.979 105.421 14.9894Z" fill="#221F20"/>
</svg>
