<svg id="Group_20178" data-name="Group 20178" xmlns="http://www.w3.org/2000/svg" xmlns:xlink="http://www.w3.org/1999/xlink" width="27.193" height="24" viewBox="0 0 27.193 24">
  <defs>
    <clipPath id="clip-path">
      <rect id="Rectangle_2628" data-name="Rectangle 2628" width="27.193" height="24" fill="#fff"/>
    </clipPath>
  </defs>
  <g id="Group_20177" data-name="Group 20177" clip-path="url(#clip-path)">
    <path id="Path_27420" data-name="Path 27420" d="M9.231,18.519q-3.708,0-7.416,0A1.728,1.728,0,0,1,0,16.785a1.746,1.746,0,0,1,1.8-1.8c1.2-.008,2.406-.012,3.609,0a1.182,1.182,0,0,0,1.148-.671q2.3-4.023,4.645-8.016a1,1,0,0,0,0-1.186c-.508-.818-1-1.651-1.447-2.5A1.765,1.765,0,0,1,10.859.06a1.8,1.8,0,0,1,2.014.835c.167.269.315.55.474.824.237.409.258.41.487.015.146-.251.287-.5.434-.755A1.817,1.817,0,0,1,16.722.215a1.768,1.768,0,0,1,.666,2.494c-1.428,2.5-2.876,4.983-4.316,7.474q-1.249,2.159-2.5,4.319c-.256.443-.235.48.263.481,1.177,0,2.353-.01,3.53.005a3.943,3.943,0,0,1,1.832.437,2.561,2.561,0,0,1,1.37,2.179c.057.632-.237.915-.883.915H9.231" transform="translate(-0.001 0.001)" fill="#fff"/>
    <path id="Path_27421" data-name="Path 27421" d="M381.094,181.885c-.412,0-.729,0-1.046,0-.45.007-.485.063-.27.439.439.767.888,1.529,1.321,2.3a1.781,1.781,0,1,1-3.082,1.783c-2.023-3.478-4.073-6.941-6.031-10.456a5.212,5.212,0,0,1-.375-4.831,3.076,3.076,0,0,1,.444-.746c.3-.352.517-.348.783.027.481.68.858,1.423,1.276,2.141q1.553,2.668,3.085,5.348a.835.835,0,0,0,.831.467q1.942-.024,3.885,0a1.774,1.774,0,0,1,.465,3.475,6.3,6.3,0,0,1-1.286.056" transform="translate(-356.453 -163.365)" fill="#fff"/>
    <path id="Path_27422" data-name="Path 27422" d="M58.753,481.187a1.763,1.763,0,0,1-1.592-2.553c.322-.635.689-1.249,1.064-1.854a1.435,1.435,0,0,1,1.537-.669,3.9,3.9,0,0,1,1.463.468.945.945,0,0,1,.4,1.438q-.651,1.156-1.328,2.3a1.707,1.707,0,0,1-1.542.874" transform="translate(-54.709 -457.2)" fill="#fff"/>
  </g>
</svg>
