<svg width="276" height="71" viewBox="0 0 276 71" fill="none" xmlns="http://www.w3.org/2000/svg">
<rect y="0.0332031" width="275.758" height="70" rx="35" fill="#221F20"/>
<path fill-rule="evenodd" clip-rule="evenodd" d="M78.6833 35.0736C78.7212 32.1304 80.2631 29.4118 82.7687 27.8702C81.1808 25.6007 78.6166 24.2135 75.8495 24.1268C72.9383 23.821 70.1161 25.8701 68.6326 25.8701C67.1204 25.8701 64.8364 24.1572 62.3768 24.2078C59.1407 24.3124 56.1969 26.1091 54.6224 28.9404C51.2696 34.7496 53.7705 43.2872 56.9822 47.9829C58.5891 50.2823 60.4671 52.8507 62.9245 52.7597C65.3291 52.6599 66.2272 51.2252 69.1298 51.2252C72.0055 51.2252 72.8481 52.7597 75.3553 52.7017C77.9356 52.6598 79.5613 50.3922 81.1118 48.071C82.2664 46.4327 83.1548 44.6219 83.7442 42.7058C80.6796 41.4087 78.6869 38.4036 78.6833 35.0736Z" fill="white"/>
<path fill-rule="evenodd" clip-rule="evenodd" d="M73.704 21.2873C75.0332 19.4996 75.6881 17.2018 75.5295 14.8818C73.4987 15.1208 71.6228 16.2082 70.2756 17.9273C68.9453 19.6234 68.2714 21.8425 68.4023 24.0956C70.4603 24.1193 72.4143 23.0843 73.704 21.2873Z" fill="white"/>
<path d="M129.237 29.2918C133.248 29.2918 135.893 32.3872 135.893 37.1684C135.893 41.9629 133.264 45.0433 129.296 45.0433C127.246 45.148 125.314 44.0996 124.323 42.344H124.248V49.9859H121.003V29.4532H124.144V32.0194H124.204C125.239 30.2748 127.172 29.2268 129.237 29.2918ZM146.634 29.2918C150.646 29.2918 153.29 32.3872 153.29 37.1684C153.29 41.9629 150.661 45.0433 146.694 45.0433C144.643 45.148 142.711 44.0996 141.72 42.344H141.645V49.9859H138.401V29.4532H141.541V32.0194H141.601C142.636 30.2748 144.57 29.2268 146.634 29.2918ZM169.927 23.3672C174.508 23.3672 177.649 25.8751 177.755 29.5263H174.479C174.283 27.4145 172.495 26.1397 169.881 26.1397C167.267 26.1397 165.479 27.4295 165.479 29.3067C165.479 30.8028 166.621 31.6831 169.416 32.3571L171.804 32.9295C176.252 33.9564 178.101 35.7005 178.101 38.7958C178.101 42.7549 174.87 45.2345 169.731 45.2345C164.923 45.2345 161.677 42.8131 161.467 38.9855L164.788 38.9857C165.029 41.0842 167.117 42.4621 169.971 42.4621C172.706 42.4621 174.674 41.0841 174.674 39.1919C174.674 37.5494 173.487 36.5659 170.677 35.8919L167.868 35.2312C163.887 34.2926 162.038 32.4753 162.038 29.5263C162.038 25.8751 165.298 23.3672 169.927 23.3672ZM197.346 29.2635C201.929 29.2635 204.845 32.3139 204.845 37.1684C204.845 42.0361 201.944 45.0733 197.346 45.0733C192.75 45.0733 189.85 42.0361 189.85 37.1684C189.85 32.314 192.779 29.2635 197.346 29.2635ZM223.619 29.2635C227.993 29.2635 230.743 32.1958 230.743 36.8738V37.9588H219.579V38.1502C219.475 39.2989 219.881 40.4358 220.694 41.272C221.508 42.1081 222.65 42.5628 223.831 42.5204C225.405 42.6644 226.89 41.7819 227.481 40.3503L230.562 40.3503C230.126 43.1511 227.331 45.0732 223.756 45.0732C219.158 45.0732 216.304 42.066 216.304 37.2416C216.304 32.4021 219.173 29.2635 223.619 29.2635ZM185.103 25.802V29.4532H188.109V31.9611H185.103V40.4668C185.103 41.7881 185.705 42.4039 187.026 42.4039C187.383 42.3978 187.739 42.3734 188.093 42.3306V44.8236C187.499 44.9319 186.895 44.981 186.291 44.97C183.091 44.97 181.843 43.7968 181.843 40.8046V31.9611H179.545V29.4532H181.843V25.802H185.103ZM111.161 23.72L118.988 44.8819H115.428L113.446 39.1621H105.182L103.197 44.8819H99.6968L107.524 23.72H111.161ZM214.491 29.2918C214.865 29.2905 215.238 29.3301 215.603 29.4099V32.3722C215.131 32.2314 214.638 32.1667 214.145 32.1808C213.191 32.143 212.268 32.5141 211.618 33.1965C210.968 33.879 210.656 34.8047 210.764 35.7305V44.8818H207.52V29.4532H210.614V32.0793H210.689C211.121 30.3887 212.708 29.2253 214.491 29.2918ZM197.346 31.8729C194.717 31.8729 193.155 33.8533 193.155 37.1684C193.155 40.5117 194.717 42.4622 197.346 42.4622C199.975 42.4622 201.539 40.5117 201.539 37.1684C201.539 33.8383 199.975 31.8729 197.346 31.8729ZM128.381 31.9911C125.902 31.9911 124.234 34.088 124.234 37.1684C124.234 40.2771 125.902 42.359 128.381 42.359C130.904 42.359 132.558 40.3203 132.558 37.1684C132.558 34.0447 130.904 31.9911 128.381 31.9911ZM145.778 31.9911C143.299 31.9911 141.632 34.088 141.632 37.1684C141.632 40.2771 143.299 42.359 145.778 42.359C148.302 42.359 149.955 40.3203 149.955 37.1684C149.955 34.0447 148.302 31.9911 145.778 31.9911ZM109.359 27.2398H109.268L106.037 36.5227H112.588L109.359 27.2398ZM223.619 31.8297C222.552 31.8234 221.527 32.2336 220.771 32.9689C220.015 33.7042 219.591 34.7038 219.594 35.7455H227.497C227.555 34.7134 227.17 33.704 226.435 32.9607C225.699 32.2174 224.678 31.8075 223.619 31.8297Z" fill="white"/>
</svg>
