<svg width="72" height="72" viewBox="0 0 72 72" fill="none" xmlns="http://www.w3.org/2000/svg">
<circle cx="36" cy="36.3379" r="35" fill="white" stroke="#DDD7D5"/>
<path fill-rule="evenodd" clip-rule="evenodd" d="M42.1646 21.9407C42.1646 23.4766 41.4862 25.0126 40.5287 26.1208C39.5112 27.3458 37.7557 28.2596 36.3592 28.2598C36.1996 28.2598 36.0399 28.2402 35.9402 28.2208C35.9203 28.143 35.8803 27.9096 35.8803 27.6764C35.8803 26.1208 36.6984 24.5849 37.5761 23.6127C38.6933 22.349 40.5486 21.3962 42.1047 21.3379C42.1447 21.513 42.1646 21.7268 42.1646 21.9407ZM47.6528 31.616C47.6915 31.5912 47.7181 31.5742 47.7306 31.5648C45.6558 28.6679 42.5036 28.59 41.6257 28.5898C40.2844 28.5898 39.0837 29.0536 38.0743 29.4436C37.3424 29.7264 36.711 29.9703 36.1994 29.9703C35.6351 29.9703 34.9889 29.7158 34.2678 29.4318C33.3575 29.0732 32.3276 28.6676 31.1921 28.6676C27.3619 28.6676 23.4717 31.7591 23.4717 37.5919C23.4717 41.2276 24.908 45.0578 26.6836 47.5271C28.2196 49.6269 29.5562 51.3379 31.4714 51.3379C32.3797 51.3379 33.0457 51.0624 33.7459 50.7728C34.5223 50.4516 35.3409 50.113 36.5786 50.113C37.8284 50.113 38.5755 50.4309 39.2961 50.7375C39.9674 51.0231 40.6157 51.299 41.6259 51.299C43.7205 51.299 45.0972 49.452 46.4138 47.6049C47.8901 45.5051 48.5086 43.4441 48.5285 43.347C48.4087 43.3082 44.3989 41.7333 44.3989 37.2809C44.3989 33.6973 47.1304 31.9501 47.6528 31.616Z" fill="#221F20"/>
</svg>
