<svg width="19" height="20" viewBox="0 0 19 20" fill="none" xmlns="http://www.w3.org/2000/svg">
<g clip-path="url(#clip0_795_619)">
<path d="M9.5 0.976563C12.0196 0.976563 14.4359 1.97745 16.2175 3.75905C17.9991 5.54064 19 7.95701 19 10.4766C19 12.9961 17.9991 15.4125 16.2175 17.1941C14.4359 18.9757 12.0196 19.9766 9.5 19.9766C6.98044 19.9766 4.56408 18.9757 2.78249 17.1941C1.00089 15.4125 0 12.9961 0 10.4766C0 7.95701 1.00089 5.54064 2.78249 3.75905C4.56408 1.97745 6.98044 0.976563 9.5 0.976562V0.976563ZM5.34375 9.88281C5.18628 9.88281 5.03525 9.94537 4.9239 10.0567C4.81256 10.1681 4.75 10.3191 4.75 10.4766C4.75 10.634 4.81256 10.7851 4.9239 10.8964C5.03525 11.0078 5.18628 11.0703 5.34375 11.0703H12.2229L9.67338 13.6187C9.61817 13.6739 9.57438 13.7394 9.5445 13.8116C9.51463 13.8837 9.49925 13.961 9.49925 14.0391C9.49925 14.1171 9.51463 14.1944 9.5445 14.2666C9.57438 14.3387 9.61817 14.4042 9.67338 14.4594C9.72858 14.5146 9.79412 14.5584 9.86624 14.5883C9.93837 14.6182 10.0157 14.6336 10.0938 14.6336C10.1718 14.6336 10.2491 14.6182 10.3213 14.5883C10.3934 14.5584 10.4589 14.5146 10.5141 14.4594L14.0766 10.8969C14.1319 10.8418 14.1758 10.7763 14.2057 10.7041C14.2357 10.632 14.2511 10.5547 14.2511 10.4766C14.2511 10.3985 14.2357 10.3211 14.2057 10.249C14.1758 10.1769 14.1319 10.1113 14.0766 10.0562L10.5141 6.49369C10.4026 6.3822 10.2514 6.31956 10.0938 6.31956C9.93608 6.31956 9.78487 6.3822 9.67338 6.49369C9.56188 6.60518 9.49925 6.75639 9.49925 6.91406C9.49925 7.07173 9.56188 7.22295 9.67338 7.33444L12.2229 9.88281H5.34375Z" fill="#0066B3"/>
</g>
<defs>
<clipPath id="clip0_795_619">
<rect width="19" height="19" fill="white" transform="matrix(-1 0 0 1 19 0.976562)"/>
</clipPath>
</defs>
</svg>
