<svg width="71" height="71" viewBox="0 0 71 71" fill="none" xmlns="http://www.w3.org/2000/svg">
<g clip-path="url(#clip0_742_4590)">
<path d="M41.0561 61.8119V59.8433C41.0561 57.7197 39.3384 55.9424 37.2148 55.9424H8.12937C6.00516 55.9424 4.27955 57.7197 4.27955 59.8433V61.8119C2.24846 61.9408 0.661975 63.617 0.645508 65.6521V68.8103C0.668221 69.4775 1.20197 70.0147 1.86916 70.0425H43.4744C44.1399 70.0141 44.6708 69.4764 44.6901 68.8103V65.6521C44.6737 63.617 43.0872 61.9408 41.0561 61.8119ZM8.12937 58.2682H37.2148C38.0557 58.2682 38.7303 59.0024 38.7303 59.8433V61.7569H6.60534V59.8433C6.60194 58.9921 7.27821 58.2932 8.12937 58.2682ZM42.3644 67.7167H2.9713V65.6521C2.99742 64.7896 3.69527 64.0991 4.55779 64.0826H40.7858C41.6472 64.0997 42.3422 64.7913 42.3644 65.6521V67.7167Z" fill="url(#paint0_linear_742_4590)"/>
<path d="M68.4485 45.1794L51.7211 30.3832C51.2402 29.9579 50.5054 30.0028 50.0796 30.4837L49.6673 30.9505L43.5156 25.509C44.8568 23.42 45.9453 21.1794 46.7573 18.8332L47.3041 19.3175C47.7856 19.7428 48.5204 19.698 48.9456 19.217L52.8625 14.7892C53.2878 14.3082 53.2429 13.5735 52.7614 13.1476L40.5811 2.3738C40.1002 1.94851 39.3654 1.99336 38.9395 2.47431L35.0233 6.90216C34.598 7.38311 34.6428 8.11843 35.1238 8.54373L35.8109 9.1513C28.4088 12.7604 22.7453 19.1637 20.0669 26.9507L19.3799 26.3426C18.8989 25.9173 18.1642 25.9622 17.7389 26.4431L13.822 30.871C13.3967 31.3519 13.4416 32.0867 13.9225 32.5125L26.1028 43.2863C26.5838 43.7116 27.3185 43.6668 27.7444 43.1853L31.6607 38.758C32.086 38.277 32.0411 37.5423 31.5602 37.1164L31.0128 36.6326C33.242 35.5401 35.3333 34.1865 37.2429 32.6005L43.3946 38.042L42.9818 38.5081C42.5565 38.9897 42.6014 39.7244 43.0823 40.1497L59.8097 54.9459C60.997 56.0021 62.5313 56.5841 64.1206 56.5818C64.2558 56.5818 64.3915 56.5779 64.5272 56.5693C66.2545 56.4683 67.8694 55.6807 69.0118 54.3815C71.3932 51.6833 71.1411 47.5666 68.4485 45.1794ZM39.9116 4.8864L50.3493 14.1192L47.9741 16.8049L37.5359 7.57219L39.9116 4.8864ZM26.7729 40.7737L16.3346 31.5404L18.7104 28.8552L29.1481 38.088L26.7729 40.7737ZM21.9657 28.6298C24.3971 20.7013 30.1378 14.2117 37.7091 10.8303L44.8585 17.1536C42.4271 25.082 36.6864 31.5717 29.1146 34.9536L21.9657 28.6298ZM38.9872 31.039C39.5658 30.4803 40.1217 29.9006 40.6555 29.2998C41.1875 28.6985 41.6952 28.0756 42.1784 27.4317L48.1257 32.6925L44.9346 36.2999L38.9872 31.039ZM51.0511 32.8958L53.0998 34.7077L47.5431 40.9906L45.4933 39.1782L51.0511 32.8958ZM67.2703 52.841C65.7361 54.5763 63.0855 54.7393 61.3508 53.2044L49.2858 42.5323L54.8424 36.2499L66.9075 46.9221C68.6393 48.4575 68.8017 51.1052 67.2703 52.841Z" fill="url(#paint1_linear_742_4590)"/>
<path d="M3.117 44.7496H11.8387C12.4809 44.7496 13.0016 44.2289 13.0016 43.5867C13.0016 42.9445 12.4809 42.4238 11.8387 42.4238H3.117C2.47479 42.4238 1.9541 42.9445 1.9541 43.5867C1.9541 44.2289 2.47479 44.7496 3.117 44.7496Z" fill="url(#paint2_linear_742_4590)"/>
<path d="M7.22338 35.5802L12.8828 38.5589C13.4512 38.8582 14.1542 38.6396 14.4534 38.0712C14.7527 37.5028 14.5341 36.7998 13.9657 36.5006L8.30621 33.5224C7.73839 33.2231 7.03486 33.4412 6.73562 34.0096C6.43638 34.5779 6.65499 35.2809 7.22338 35.5802Z" fill="url(#paint3_linear_742_4590)"/>
<path d="M12.8828 48.4153L7.22338 51.3935C6.65499 51.6928 6.43638 52.3963 6.73562 52.9647C7.03486 53.5331 7.73782 53.7511 8.30621 53.4519L13.9657 50.4737C14.5341 50.1744 14.7527 49.4709 14.4534 48.9031C14.1542 48.3347 13.4512 48.1161 12.8828 48.4153Z" fill="url(#paint4_linear_742_4590)"/>
</g>
<defs>
<linearGradient id="paint0_linear_742_4590" x1="22.6678" y1="2.59443" x2="22.6678" y2="71.5014" gradientUnits="userSpaceOnUse">
<stop stop-color="#00EFD1"/>
<stop offset="1" stop-color="#00ACEA"/>
</linearGradient>
<linearGradient id="paint1_linear_742_4590" x1="42.088" y1="2.59451" x2="42.088" y2="71.5015" gradientUnits="userSpaceOnUse">
<stop stop-color="#00EFD1"/>
<stop offset="1" stop-color="#00ACEA"/>
</linearGradient>
<linearGradient id="paint2_linear_742_4590" x1="7.47785" y1="2.59462" x2="7.47785" y2="71.5015" gradientUnits="userSpaceOnUse">
<stop stop-color="#00EFD1"/>
<stop offset="1" stop-color="#00ACEA"/>
</linearGradient>
<linearGradient id="paint3_linear_742_4590" x1="10.5945" y1="2.5941" x2="10.5945" y2="71.5013" gradientUnits="userSpaceOnUse">
<stop stop-color="#00EFD1"/>
<stop offset="1" stop-color="#00ACEA"/>
</linearGradient>
<linearGradient id="paint4_linear_742_4590" x1="10.5945" y1="2.59432" x2="10.5945" y2="71.5014" gradientUnits="userSpaceOnUse">
<stop stop-color="#00EFD1"/>
<stop offset="1" stop-color="#00ACEA"/>
</linearGradient>
<clipPath id="clip0_742_4590">
<rect width="70" height="70" fill="white" transform="translate(0.645508 0.983398)"/>
</clipPath>
</defs>
</svg>
