<svg width="70" height="71" viewBox="0 0 70 71" fill="none" xmlns="http://www.w3.org/2000/svg">
<path d="M61.2244 21.382H57.0569L44.3423 8.66687C43.0307 7.40328 40.9481 7.42467 39.6615 8.71435C38.3755 10.004 38.3604 12.0867 39.6276 13.3951L47.6145 21.382H22.3986L30.3855 13.3951C31.6856 12.0872 31.6856 9.9748 30.3855 8.66687C29.076 7.37146 26.9672 7.37146 25.6577 8.66687L12.9431 21.382H8.78924C5.10178 21.3831 2.11289 24.372 2.11133 28.0599V28.6609C2.11498 31.991 4.56963 34.8104 7.86789 35.2721L11.0462 56.7478C11.5501 60.0148 14.3522 62.4319 17.6573 62.4512H52.3428C55.6499 62.4371 58.4546 60.0174 58.9539 56.7478L62.1322 35.2721C65.4283 34.8062 67.8809 31.9895 67.8887 28.6609V28.0599C67.8934 26.2898 67.1933 24.5906 65.9427 23.3374C64.6922 22.0842 62.9945 21.381 61.2244 21.382ZM41.511 11.4987C41.3853 11.3751 41.3133 11.2071 41.3106 11.0313C41.3091 10.8539 41.3816 10.6843 41.511 10.5638C41.776 10.3097 42.1939 10.3097 42.4595 10.5638L53.2777 21.382H51.3943L41.511 11.4987ZM27.5542 10.5638C27.6788 10.4355 27.8494 10.3635 28.0284 10.3635C28.2068 10.3635 28.3779 10.4355 28.5026 10.5638C28.6278 10.6869 28.6998 10.8549 28.703 11.0313C28.7045 11.2081 28.632 11.3777 28.5026 11.4987L18.6193 21.382H16.7359L27.5542 10.5638ZM56.3093 56.3607C56.0078 58.3208 54.3258 59.7706 52.3428 59.78H17.6709C15.6878 59.7706 14.0058 58.3208 13.7043 56.3607L10.5923 35.3389H59.4344L56.3093 56.3607ZM65.2311 28.6609C65.2243 30.8709 63.4344 32.6609 61.2244 32.6677H8.78924C6.57927 32.6609 4.78875 30.8709 4.78249 28.6609V28.0599C4.78875 25.8494 6.57927 24.0594 8.78924 24.0532H61.2244C63.4344 24.0594 65.2243 25.8494 65.2311 28.0599V28.6609Z" fill="#FFCE02"/>
<path d="M40.2954 40.72C41.0331 40.72 41.631 40.1221 41.631 39.3844C41.631 38.6472 41.0331 38.0488 40.2954 38.0488H29.7177C28.98 38.0488 28.3821 38.6472 28.3821 39.3844C28.3821 40.1221 28.98 40.72 29.7177 40.72H32.7494C34.0031 40.7179 35.142 41.4493 35.6611 42.5898H29.7313C28.9936 42.5898 28.3957 43.1882 28.3957 43.9254C28.3957 44.6631 28.9936 45.261 29.7313 45.261H35.6611C35.1378 46.3983 34.0015 47.1277 32.7494 47.1308H29.7177C29.1699 47.1318 28.678 47.4657 28.475 47.9744C28.2721 48.4831 28.3994 49.0642 28.7964 49.4414L36.3555 56.5868C36.6054 56.8205 36.9351 56.9494 37.2773 56.9473C37.6446 56.9452 37.9952 56.796 38.2524 56.5336C38.495 56.2769 38.6259 55.9341 38.616 55.5809C38.6061 55.2277 38.4559 54.8928 38.1987 54.6502L33.0702 49.8019C35.672 49.6517 37.8658 47.8106 38.4658 45.2745H40.2954C41.0331 45.2745 41.631 44.6767 41.631 43.939C41.631 43.2013 41.0331 42.6034 40.2954 42.6034H38.4658C38.3103 41.9382 38.039 41.3048 37.6644 40.7336H40.2954V40.72Z" fill="#FFCE02"/>
</svg>
