<svg width="70" height="71" viewBox="0 0 70 71" fill="none" xmlns="http://www.w3.org/2000/svg">
<path d="M70 16.9501C70 13.8364 67.4761 11.3125 64.3624 11.3125H5.63758C2.52394 11.3125 0 13.8364 0 16.9501V55.0038C0 58.1174 2.52394 60.6414 5.63758 60.6414H64.3624C67.4761 60.6414 70 58.1174 70 55.0038V16.9501ZM68.1208 55.0038C68.1208 57.0793 66.438 58.7622 64.3624 58.7622H5.63758C3.56203 58.7622 1.87919 57.0793 1.87919 55.0038V16.9501C1.87919 14.8745 3.56203 13.1917 5.63758 13.1917H64.3624C66.438 13.1917 68.1208 14.8745 68.1208 16.9501V55.0038Z" fill="url(#paint0_linear_2905_1322)"/>
<path d="M28.3443 35.2734H25.643C25.2711 31.63 22.4272 28.7293 18.7918 28.2846V25.7208C18.7918 25.2021 18.3709 24.7812 17.8522 24.7812C17.3334 24.7812 16.9126 25.2021 16.9126 25.7208V28.2846C13.2771 28.7293 10.4333 31.63 10.0613 35.2734H7.36001C6.84127 35.2734 6.42041 35.6943 6.42041 36.213C6.42041 36.7318 6.84127 37.1526 7.36001 37.1526H10.1005C10.6021 40.6614 13.3946 43.3976 16.9126 43.8283V46.5486C16.9126 47.0673 17.3334 47.4882 17.8522 47.4882C18.3709 47.4882 18.7918 47.0673 18.7918 46.5486V43.8283C22.3098 43.3976 25.1022 40.6614 25.6039 37.1526H28.3443C28.8631 37.1526 29.2839 36.7318 29.2839 36.213C29.2839 35.6943 28.8631 35.2734 28.3443 35.2734ZM18.7918 41.9326V41.3808C18.7918 40.8621 18.3709 40.4412 17.8522 40.4412C17.3334 40.4412 16.9126 40.8621 16.9126 41.3808V41.9326C14.4333 41.5313 12.4709 39.6203 12.0042 37.1526H12.5278C13.0465 37.1526 13.4674 36.7318 13.4674 36.213C13.4674 35.6943 13.0465 35.2734 12.5278 35.2734H11.9546C12.3045 32.6687 14.3183 30.5999 16.9126 30.1803V30.8886C16.9126 31.4074 17.3334 31.8282 17.8522 31.8282C18.3709 31.8282 18.7918 31.4074 18.7918 30.8886V30.1803C21.3861 30.5999 23.3998 32.6687 23.7497 35.2734H23.1766C22.6578 35.2734 22.237 35.6943 22.237 36.213C22.237 36.7318 22.6578 37.1526 23.1766 37.1526H23.7002C23.2335 39.6203 21.2711 41.5313 18.7918 41.9326Z" fill="url(#paint1_linear_2905_1322)"/>
<path d="M44.6309 39.5H41.1857C40.667 39.5 40.2461 39.9209 40.2461 40.4396C40.2461 40.9583 40.667 41.3792 41.1857 41.3792H44.6309C45.1496 41.3792 45.5705 40.9583 45.5705 40.4396C45.5705 39.9209 45.1496 39.5 44.6309 39.5Z" fill="url(#paint2_linear_2905_1322)"/>
<path d="M52.461 39.5H49.0158C48.497 39.5 48.0762 39.9209 48.0762 40.4396C48.0762 40.9583 48.497 41.3792 49.0158 41.3792H52.461C52.9797 41.3792 53.4006 40.9583 53.4006 40.4396C53.4006 39.9209 52.9797 39.5 52.461 39.5Z" fill="url(#paint3_linear_2905_1322)"/>
<path d="M60.291 39.5H56.8458C56.3271 39.5 55.9062 39.9209 55.9062 40.4396C55.9062 40.9583 56.3271 41.3792 56.8458 41.3792H60.291C60.8098 41.3792 61.2306 40.9583 61.2306 40.4396C61.2306 39.9209 60.8098 39.5 60.291 39.5Z" fill="url(#paint4_linear_2905_1322)"/>
<path d="M44.6309 45.1406H41.1857C40.667 45.1406 40.2461 45.5615 40.2461 46.0802C40.2461 46.599 40.667 47.0198 41.1857 47.0198H44.6309C45.1496 47.0198 45.5705 46.599 45.5705 46.0802C45.5705 45.5615 45.1496 45.1406 44.6309 45.1406Z" fill="url(#paint5_linear_2905_1322)"/>
<path d="M52.461 45.1406H49.0158C48.497 45.1406 48.0762 45.5615 48.0762 46.0802C48.0762 46.599 48.497 47.0198 49.0158 47.0198H52.461C52.9797 47.0198 53.4006 46.599 53.4006 46.0802C53.4006 45.5615 52.9797 45.1406 52.461 45.1406Z" fill="url(#paint6_linear_2905_1322)"/>
<path d="M60.291 45.1406H56.8458C56.3271 45.1406 55.9062 45.5615 55.9062 46.0802C55.9062 46.599 56.3271 47.0198 56.8458 47.0198H60.291C60.8098 47.0198 61.2306 46.599 61.2306 46.0802C61.2306 45.5615 60.8098 45.1406 60.291 45.1406Z" fill="url(#paint7_linear_2905_1322)"/>
<path d="M44.6309 50.7734H41.1857C40.667 50.7734 40.2461 51.1943 40.2461 51.713C40.2461 52.2318 40.667 52.6526 41.1857 52.6526H44.6309C45.1496 52.6526 45.5705 52.2318 45.5705 51.713C45.5705 51.1943 45.1496 50.7734 44.6309 50.7734Z" fill="url(#paint8_linear_2905_1322)"/>
<path d="M52.461 50.7734H49.0158C48.497 50.7734 48.0762 51.1943 48.0762 51.713C48.0762 52.2318 48.497 52.6526 49.0158 52.6526H52.461C52.9797 52.6526 53.4006 52.2318 53.4006 51.713C53.4006 51.1943 52.9797 50.7734 52.461 50.7734Z" fill="url(#paint9_linear_2905_1322)"/>
<path d="M60.291 50.7734H56.8458C56.3271 50.7734 55.9062 51.1943 55.9062 51.713C55.9062 52.2318 56.3271 52.6526 56.8458 52.6526H60.291C60.8098 52.6526 61.2306 52.2318 61.2306 51.713C61.2306 51.1943 60.8098 50.7734 60.291 50.7734Z" fill="url(#paint10_linear_2905_1322)"/>
<path d="M61.5435 18.6719H39.9328C39.414 18.6719 38.9932 19.0927 38.9932 19.6115V34.9582C38.9932 35.477 39.414 35.8978 39.9328 35.8978H61.5435C62.0623 35.8978 62.4831 35.477 62.4831 34.9582V19.6115C62.4831 19.0927 62.0623 18.6719 61.5435 18.6719ZM60.6039 34.0186H40.8724V20.5511H60.6039V34.0186Z" fill="url(#paint11_linear_2905_1322)"/>
<path d="M46.7193 25.4065C46.7193 25.9252 47.1402 26.3461 47.6589 26.3461H50.8399C50.5303 26.8306 49.9963 27.1254 49.4213 27.1291H47.6589C47.2791 27.1138 46.9298 27.3383 46.786 27.69C46.6417 28.0417 46.7328 28.4467 47.0136 28.703L51.4186 32.8566C51.7984 33.2046 52.3881 33.1826 52.7411 32.807C53.0941 32.4314 53.08 31.8417 52.7093 31.4839L49.9761 28.9232C51.3507 28.6785 52.4719 27.6827 52.8769 26.3461H53.8177C54.3364 26.3461 54.7573 25.9252 54.7573 25.4065C54.7573 24.8877 54.3364 24.4669 53.8177 24.4669H52.8781C52.8292 24.1885 52.7252 23.9218 52.5729 23.6839H53.8183C54.3371 23.6839 54.7579 23.263 54.7579 22.7443C54.7579 22.2255 54.3371 21.8047 53.8183 21.8047H47.6589C47.1402 21.8047 46.7193 22.2255 46.7193 22.7443C46.7193 23.263 47.1402 23.6839 47.6589 23.6839H49.4213C49.9963 23.6876 50.5303 23.9824 50.8399 24.4669H47.6589C47.1402 24.4669 46.7193 24.8877 46.7193 25.4065Z" fill="url(#paint12_linear_2905_1322)"/>
<defs>
<linearGradient id="paint0_linear_2905_1322" x1="34.9998" y1="10.2081" x2="34.9998" y2="60.8134" gradientUnits="userSpaceOnUse">
<stop stop-color="#00EFD1"/>
<stop offset="1" stop-color="#00ACEA"/>
</linearGradient>
<linearGradient id="paint1_linear_2905_1322" x1="17.8521" y1="24.2729" x2="17.8521" y2="47.5674" gradientUnits="userSpaceOnUse">
<stop stop-color="#00EFD1"/>
<stop offset="1" stop-color="#00ACEA"/>
</linearGradient>
<linearGradient id="paint2_linear_2905_1322" x1="42.9083" y1="39.4579" x2="42.9083" y2="41.3858" gradientUnits="userSpaceOnUse">
<stop stop-color="#00EFD1"/>
<stop offset="1" stop-color="#00ACEA"/>
</linearGradient>
<linearGradient id="paint3_linear_2905_1322" x1="50.7384" y1="39.4579" x2="50.7384" y2="41.3858" gradientUnits="userSpaceOnUse">
<stop stop-color="#00EFD1"/>
<stop offset="1" stop-color="#00ACEA"/>
</linearGradient>
<linearGradient id="paint4_linear_2905_1322" x1="58.5684" y1="39.4579" x2="58.5684" y2="41.3858" gradientUnits="userSpaceOnUse">
<stop stop-color="#00EFD1"/>
<stop offset="1" stop-color="#00ACEA"/>
</linearGradient>
<linearGradient id="paint5_linear_2905_1322" x1="42.9083" y1="45.0986" x2="42.9083" y2="47.0264" gradientUnits="userSpaceOnUse">
<stop stop-color="#00EFD1"/>
<stop offset="1" stop-color="#00ACEA"/>
</linearGradient>
<linearGradient id="paint6_linear_2905_1322" x1="50.7384" y1="45.0986" x2="50.7384" y2="47.0264" gradientUnits="userSpaceOnUse">
<stop stop-color="#00EFD1"/>
<stop offset="1" stop-color="#00ACEA"/>
</linearGradient>
<linearGradient id="paint7_linear_2905_1322" x1="58.5684" y1="45.0986" x2="58.5684" y2="47.0264" gradientUnits="userSpaceOnUse">
<stop stop-color="#00EFD1"/>
<stop offset="1" stop-color="#00ACEA"/>
</linearGradient>
<linearGradient id="paint8_linear_2905_1322" x1="42.9083" y1="50.7314" x2="42.9083" y2="52.6592" gradientUnits="userSpaceOnUse">
<stop stop-color="#00EFD1"/>
<stop offset="1" stop-color="#00ACEA"/>
</linearGradient>
<linearGradient id="paint9_linear_2905_1322" x1="50.7384" y1="50.7314" x2="50.7384" y2="52.6592" gradientUnits="userSpaceOnUse">
<stop stop-color="#00EFD1"/>
<stop offset="1" stop-color="#00ACEA"/>
</linearGradient>
<linearGradient id="paint10_linear_2905_1322" x1="58.5684" y1="50.7314" x2="58.5684" y2="52.6592" gradientUnits="userSpaceOnUse">
<stop stop-color="#00EFD1"/>
<stop offset="1" stop-color="#00ACEA"/>
</linearGradient>
<linearGradient id="paint11_linear_2905_1322" x1="50.7381" y1="18.2862" x2="50.7381" y2="35.9579" gradientUnits="userSpaceOnUse">
<stop stop-color="#00EFD1"/>
<stop offset="1" stop-color="#00ACEA"/>
</linearGradient>
<linearGradient id="paint12_linear_2905_1322" x1="50.7381" y1="21.5517" x2="50.7381" y2="33.1432" gradientUnits="userSpaceOnUse">
<stop stop-color="#00EFD1"/>
<stop offset="1" stop-color="#00ACEA"/>
</linearGradient>
</defs>
</svg>
