<svg width="70" height="70" viewBox="0 0 70 70" fill="none" xmlns="http://www.w3.org/2000/svg">
<path d="M25.259 24.5072H34.1571C34.7912 24.5072 35.3052 23.9931 35.3052 23.3591C35.3052 22.725 34.7912 22.2109 34.1571 22.2109H25.259C24.6249 22.2109 24.1108 22.725 24.1108 23.3591C24.1108 23.9931 24.6249 24.5072 25.259 24.5072Z" fill="url(#paint0_linear_2905_1972)"/>
<path d="M48.3791 30.2422C39.2051 30.2422 31.7686 37.6788 31.7686 46.8527C31.768 56.0266 39.2046 63.4632 48.3785 63.4638C57.5524 63.4638 64.989 56.0272 64.9896 46.8533C64.9795 37.6838 57.5491 30.2528 48.3791 30.2422ZM48.3791 61.1669C40.4733 61.1669 34.0643 54.7585 34.0648 46.8527C34.0648 38.9469 40.4738 32.5385 48.3796 32.5385C56.2849 32.5385 62.6939 38.948 62.6933 46.8533C62.6838 54.7552 56.2804 61.158 48.3791 61.1669Z" fill="url(#paint1_linear_2905_1972)"/>
<path d="M54.3968 47.0407H48.6527V39.1169C48.6527 38.4828 48.1386 37.9688 47.5046 37.9688C46.8705 37.9688 46.3564 38.4828 46.3564 39.1169V48.1434C46.3598 48.7892 46.8733 49.3162 47.5192 49.3369H54.3963C55.0303 49.3369 55.5444 48.8229 55.5444 48.1888C55.5444 47.5547 55.0303 47.0407 54.3963 47.0407H54.3968Z" fill="url(#paint2_linear_2905_1972)"/>
<path d="M59.4164 28.2631V15.3493C59.4164 12.1947 56.9794 9.57607 53.9414 9.57607H42.0507V7.19401C42.0507 4.03885 39.5336 1.53906 36.4956 1.53906H22.9752C19.9372 1.53906 17.5092 4.03885 17.5092 7.19401V9.57607H5.5288C2.49082 9.57607 0 12.1947 0 15.3493V46.2707C0 49.4253 2.49082 52.0574 5.5288 52.0574H27.3603C29.6751 61.386 38.2201 68.5182 48.379 68.5182C60.3106 68.5182 69.9997 58.7949 69.9997 46.8633C69.9997 38.9754 65.7312 32.0445 59.4164 28.2631ZM19.8055 7.19401C19.8055 5.30529 21.2031 3.83535 22.9752 3.83535H36.4956C38.2677 3.83535 39.7545 5.30529 39.7545 7.19401V9.57607H19.8055V7.19401ZM2.29629 15.3493C2.29629 13.4606 3.75725 11.8724 5.5288 11.8724H53.9414C55.7135 11.8724 57.1201 13.4606 57.1201 15.3493V27.0712C54.3692 25.8227 51.3822 25.1803 48.3616 25.1859C41.3051 25.173 34.6898 28.6169 30.6534 34.4047H5.5288C3.75725 34.4047 2.29629 32.9151 2.29629 31.0264V15.3493ZM5.5288 49.7611C3.75725 49.7611 2.29629 48.1594 2.29629 46.2707V35.6694C3.15739 36.3472 4.33076 36.701 5.5288 36.701H29.2474C27.5969 39.8314 26.7364 43.3179 26.7409 46.8565C26.7431 47.8275 26.8059 48.7979 26.9287 49.7611H5.5288ZM48.379 66.1888C37.7138 66.1888 29.0371 57.5122 29.0371 46.847C29.0371 36.1818 37.7138 27.5052 48.379 27.5052C59.0442 27.5052 67.7208 36.1818 67.7208 46.847C67.7208 57.5122 59.0442 66.1888 48.379 66.1888Z" fill="url(#paint3_linear_2905_1972)"/>
<defs>
<linearGradient id="paint0_linear_2905_1972" x1="29.708" y1="22.1595" x2="29.708" y2="24.5152" gradientUnits="userSpaceOnUse">
<stop stop-color="#00EFD1"/>
<stop offset="1" stop-color="#00ACEA"/>
</linearGradient>
<linearGradient id="paint1_linear_2905_1972" x1="48.379" y1="29.4984" x2="48.379" y2="63.5797" gradientUnits="userSpaceOnUse">
<stop stop-color="#00EFD1"/>
<stop offset="1" stop-color="#00ACEA"/>
</linearGradient>
<linearGradient id="paint2_linear_2905_1972" x1="50.9504" y1="37.7142" x2="50.9504" y2="49.3766" gradientUnits="userSpaceOnUse">
<stop stop-color="#00EFD1"/>
<stop offset="1" stop-color="#00ACEA"/>
</linearGradient>
<linearGradient id="paint3_linear_2905_1972" x1="34.9997" y1="0.039464" x2="34.9997" y2="68.7518" gradientUnits="userSpaceOnUse">
<stop stop-color="#00EFD1"/>
<stop offset="1" stop-color="#00ACEA"/>
</linearGradient>
</defs>
</svg>
