<svg width="70" height="70" viewBox="0 0 70 70" fill="none" xmlns="http://www.w3.org/2000/svg">
<path d="M24.9785 21.9531C24.3448 21.9531 23.8311 22.4669 23.8311 23.1006C23.8311 23.8503 23.2231 24.4582 22.4735 24.4582C21.7232 24.4582 21.1153 23.8503 21.1153 23.1006C21.1153 22.4669 20.6021 21.9531 19.9678 21.9531C19.3341 21.9531 18.8203 22.4669 18.8203 23.1006C18.8203 25.1177 20.4558 26.7532 22.4735 26.7532C24.4905 26.7532 26.126 25.1177 26.126 23.1006C26.126 22.4669 25.6122 21.9531 24.9785 21.9531Z" fill="url(#paint0_linear_2905_1967)"/>
<path d="M34.9993 26.7532C37.0152 26.751 38.6496 25.1171 38.6518 23.1006C38.6518 22.4669 38.138 21.9531 37.5044 21.9531C36.8707 21.9531 36.3569 22.4669 36.3569 23.1006C36.349 23.8452 35.7433 24.4442 34.9993 24.4442C34.2546 24.4442 33.6489 23.8452 33.6417 23.1006C33.6417 22.4669 33.1279 21.9531 32.4942 21.9531C31.8605 21.9531 31.3467 22.4669 31.3467 23.1006C31.3489 25.1171 32.9827 26.751 34.9993 26.7532Z" fill="url(#paint1_linear_2905_1967)"/>
<path d="M51.6218 38.814C47.9563 38.7989 44.4051 40.091 41.6059 42.4571H38.0138V38.9597C38.7035 38.465 39.344 37.9052 39.9267 37.2872C42.3981 34.7681 43.9787 31.51 44.4275 28.0093C46.2754 27.5493 47.5871 25.9098 47.6302 24.0059C47.6733 22.1021 46.4368 20.4049 44.6119 19.862V12.3355H47.0217C47.6565 12.3327 48.1692 11.8167 48.1692 11.1819C48.1625 5.01186 43.1641 0.0100854 36.9935 0H26.67C25.383 0 24.1285 0.405655 23.0841 1.1587C16.9595 3.50578 12.9153 9.38442 12.9125 15.9433V19.8351C11.0484 20.3074 9.75016 21.9945 9.77034 23.9169C9.77034 25.8415 11.1823 27.514 13.0386 27.9986C13.4946 31.5055 15.0842 34.7676 17.5658 37.2872C18.3356 38.0778 19.0802 38.7771 20.0843 39.3805V42.4571H13.9737C7.8121 42.4571 2.72852 47.4953 2.72852 53.6563V62.5197C2.72852 63.1534 3.31347 63.6857 3.94772 63.6857H39.0969C42.0211 67.6733 46.6771 70.0204 51.6218 69.9996C60.2134 69.9996 67.2036 62.9987 67.2036 54.4071C67.2036 45.815 60.2134 38.814 51.6218 38.814ZM45.3649 23.9169C45.3526 24.5119 45.0764 25.0711 44.6119 25.4426V22.3917C45.0764 22.7632 45.3526 23.3224 45.3649 23.9169ZM36.9935 2.29498C41.5017 2.29498 45.236 5.73745 45.8008 10.0405H26.67C24.5314 10.0405 22.7973 8.30641 22.7973 6.16776C22.7973 4.0291 24.5314 2.29498 26.67 2.29498H36.9935ZM20.5953 5.14913C20.1157 7.98088 21.6604 10.7667 24.3157 11.8604C20.8698 15.541 17.0721 16.0441 15.2075 16.0503V15.9433C15.2226 11.7018 17.215 7.71081 20.5953 5.14913ZM12.0659 23.9169C12.0659 23.2546 12.3387 22.6691 12.9125 22.3223V25.4454C12.378 25.1232 12.0552 24.541 12.0659 23.9169ZM19.1805 35.687C16.6329 33.0917 15.2063 29.6005 15.2075 25.9636V18.3419C17.6459 18.3313 22.7295 17.6426 26.9367 12.3355H42.3169V25.9636C42.3085 29.6033 40.8725 33.0945 38.3181 35.687C35.7463 38.3283 32.3402 39.7828 28.7493 39.7828C25.1578 39.7828 21.7517 38.3277 19.1805 35.687ZM28.756 42.0778C31.1782 42.08 33.5656 41.5029 35.7188 40.3935V42.9927L28.8748 47.2796L22.3793 43.009V40.6787C24.3784 41.601 26.5535 42.0783 28.7555 42.0772L28.756 42.0778ZM5.02349 53.6563C5.02349 48.7605 9.07781 44.7521 13.9737 44.7521H20.8284L27.6864 49.2614V61.3907H5.02349V53.6563ZM29.9814 61.3907V49.2776L37.2171 44.7521H39.3809C37.2894 47.4774 36.0388 50.773 36.0388 54.4054C36.0427 56.8293 36.6063 59.2201 37.6849 61.3907H29.9814ZM51.6218 67.6957C44.2835 67.6963 38.3343 61.7476 38.3343 54.4094C38.3337 47.0712 44.2824 41.1219 51.6206 41.1219C58.9589 41.1219 64.9081 47.0706 64.9081 54.4088C64.8997 61.7431 58.9561 67.6867 51.6218 67.6957Z" fill="url(#paint2_linear_2905_1967)"/>
<path d="M57.2395 54.5057H51.9273V47.1866C51.9273 46.5529 51.4135 46.0391 50.7798 46.0391C50.1461 46.0391 49.6323 46.5529 49.6323 47.1866V55.6129C49.6475 56.2623 50.1702 56.785 50.819 56.8007H57.2395C57.8732 56.8007 58.387 56.2869 58.387 55.6532C58.387 55.0195 57.8732 54.5057 57.2395 54.5057Z" fill="url(#paint3_linear_2905_1967)"/>
<defs>
<linearGradient id="paint0_linear_2905_1967" x1="22.4732" y1="21.8457" x2="22.4732" y2="26.7699" gradientUnits="userSpaceOnUse">
<stop stop-color="#00EFD1"/>
<stop offset="1" stop-color="#00ACEA"/>
</linearGradient>
<linearGradient id="paint1_linear_2905_1967" x1="34.9992" y1="21.8457" x2="34.9992" y2="26.7699" gradientUnits="userSpaceOnUse">
<stop stop-color="#00EFD1"/>
<stop offset="1" stop-color="#00ACEA"/>
</linearGradient>
<linearGradient id="paint2_linear_2905_1967" x1="34.9659" y1="-1.56723" x2="34.9659" y2="70.2439" gradientUnits="userSpaceOnUse">
<stop stop-color="#00EFD1"/>
<stop offset="1" stop-color="#00ACEA"/>
</linearGradient>
<linearGradient id="paint3_linear_2905_1967" x1="54.0096" y1="45.7981" x2="54.0096" y2="56.8382" gradientUnits="userSpaceOnUse">
<stop stop-color="#00EFD1"/>
<stop offset="1" stop-color="#00ACEA"/>
</linearGradient>
</defs>
</svg>
