<svg width="56" height="50" viewBox="0 0 56 50" fill="none" xmlns="http://www.w3.org/2000/svg">
<path d="M49.5411 0H13.7297C10.6218 0 8.09321 2.5049 8.09321 5.57385L7.86242 37.1076H0.873651C0.378363 37.1076 0 37.5455 0 38.0408V42.3806C0 46.4432 3.25112 49.7657 7.17489 49.9479V50H37.3318V49.9413C37.5561 49.9505 37.6918 50 37.846 50H37.8674C42.0522 49.9755 45.4255 46.5645 45.4036 42.3797V14.7982H54.5075C55.0028 14.7982 55.3812 14.3498 55.3812 13.8549V5.89222C55.3869 2.65599 52.7773 0.0232098 49.5411 0V0ZM7.56726 48.2063H7.56113C4.37088 48.2063 1.79372 45.5696 1.79372 42.3797V38.9013H30.2691V42.3649C30.2621 44.3837 31.0595 46.3219 32.4849 47.7513C32.6365 47.9037 32.795 47.9821 32.957 48.2063H7.56726ZM43.6099 42.3789C43.6099 45.5696 41.0577 48.2063 37.8661 48.2063H37.8477C34.6404 48.1831 32.0553 45.5726 32.0628 42.3653V38.0408C32.0654 37.5385 31.6682 37.1251 31.1659 37.1076H9.65614L9.88693 5.57998C9.88693 3.49417 11.6106 1.79372 13.7297 1.79372H45.3068C44.2847 2.9148 43.6099 4.33322 43.6099 5.9163V42.3789ZM53.5874 5.90798V13.0045H45.4036V5.91455C45.4036 3.66977 47.2709 1.79372 49.5148 1.79372H49.5397C51.7893 1.81606 53.598 3.65138 53.5874 5.90142V5.90798Z" fill="url(#paint0_linear_4421_1243)"/>
<path d="M21.0603 22.0753L25.6843 25.2367C25.986 25.4447 26.385 25.4447 26.6867 25.2367L31.2967 22.0762C32.8982 20.9836 34.081 18.6994 34.081 16.7625V10.3662C34.0906 10.0282 33.9041 9.71461 33.6028 9.5609L26.5623 6.09782C26.3154 5.9752 26.0255 5.9752 25.7785 6.09782L18.7512 9.55126C18.4499 9.70497 18.2638 10.0185 18.2738 10.3566V16.7625C18.2738 18.6994 19.4593 20.9836 21.0603 22.0753ZM20.0675 10.9163L26.1774 7.90162L32.2873 10.9246V16.7625C32.2873 18.1135 31.4018 19.8319 30.2847 20.5934L26.1669 23.4097L22.0653 20.5939C20.9482 19.8314 20.0675 18.1135 20.0675 16.7625V10.9163Z" fill="url(#paint1_linear_4421_1243)"/>
<path d="M24.6606 18.1173C24.8279 18.2881 25.0565 18.3849 25.2956 18.3862H25.2978C25.536 18.3853 25.7642 18.2898 25.9319 18.1208L29.4996 14.5518C29.8504 14.2014 29.8504 13.633 29.5001 13.2827C29.1502 12.9319 28.5818 12.9319 28.2314 13.2822L25.3009 16.2124L24.1294 15.0295C23.7804 14.6774 23.2124 14.6748 22.8603 15.0238C22.5082 15.3729 22.5061 15.9408 22.8546 16.2929L24.6606 18.1173Z" fill="url(#paint2_linear_4421_1243)"/>
<path d="M37.3317 27.8027H15.807C15.3117 27.8027 14.9102 28.2043 14.9102 28.6996C14.9102 29.1949 15.3117 29.5965 15.807 29.5965H37.3317C37.827 29.5965 38.2285 29.1949 38.2285 28.6996C38.2285 28.2043 37.827 27.8027 37.3317 27.8027Z" fill="url(#paint3_linear_4421_1243)"/>
<path d="M37.3317 31.9502H15.807C15.3117 31.9502 14.9102 32.3518 14.9102 32.8471C14.9102 33.3423 15.3117 33.7439 15.807 33.7439H37.3317C37.827 33.7439 38.2285 33.3423 38.2285 32.8471C38.2285 32.3518 37.827 31.9502 37.3317 31.9502Z" fill="url(#paint4_linear_4421_1243)"/>
<defs>
<linearGradient id="paint0_linear_4421_1243" x1="27.6905" y1="-1.11945" x2="27.6905" y2="50.1744" gradientUnits="userSpaceOnUse">
<stop stop-color="#00EFD1"/>
<stop offset="1" stop-color="#00ACEA"/>
</linearGradient>
<linearGradient id="paint1_linear_4421_1243" x1="26.1774" y1="5.57181" x2="26.1774" y2="25.4603" gradientUnits="userSpaceOnUse">
<stop stop-color="#00EFD1"/>
<stop offset="1" stop-color="#00ACEA"/>
</linearGradient>
<linearGradient id="paint2_linear_4421_1243" x1="26.1787" y1="12.8994" x2="26.1787" y2="18.4049" gradientUnits="userSpaceOnUse">
<stop stop-color="#00EFD1"/>
<stop offset="1" stop-color="#00ACEA"/>
</linearGradient>
<linearGradient id="paint3_linear_4421_1243" x1="26.5693" y1="27.7626" x2="26.5693" y2="29.6027" gradientUnits="userSpaceOnUse">
<stop stop-color="#00EFD1"/>
<stop offset="1" stop-color="#00ACEA"/>
</linearGradient>
<linearGradient id="paint4_linear_4421_1243" x1="26.5693" y1="31.91" x2="26.5693" y2="33.7502" gradientUnits="userSpaceOnUse">
<stop stop-color="#00EFD1"/>
<stop offset="1" stop-color="#00ACEA"/>
</linearGradient>
</defs>
</svg>
