<svg width="70" height="71" viewBox="0 0 70 71" fill="none" xmlns="http://www.w3.org/2000/svg">
<g clip-path="url(#clip0_795_9509)">
<path d="M60.5054 12.6924L50.506 21.8511L45.5737 16.5029C45.1187 16.0178 44.3579 15.9906 43.8687 16.4414C43.38 16.8922 43.3457 17.653 43.7923 18.1458L49.5434 24.382C49.996 24.8725 50.7603 24.9044 51.2526 24.4536L62.1424 14.4784C62.6358 14.0264 62.6695 13.2597 62.2175 12.7663C61.7655 12.2729 60.9988 12.2392 60.5054 12.6912V12.6924Z" fill="#FFCE02"/>
<path d="M14.2822 42.9516H30.0919C30.761 42.9516 31.3035 42.4091 31.3035 41.7399C31.3035 41.0708 30.761 40.5283 30.0919 40.5283H14.2822C13.6131 40.5283 13.0706 41.0708 13.0706 41.7399C13.0706 42.4091 13.6131 42.9516 14.2822 42.9516Z" fill="#FFCE02"/>
<path d="M38.4129 48.8584H14.2822C13.6131 48.8584 13.0706 49.4009 13.0706 50.07C13.0706 50.7391 13.6131 51.2816 14.2822 51.2816H38.4129C39.082 51.2816 39.6245 50.7391 39.6245 50.07C39.6245 49.4009 39.082 48.8584 38.4129 48.8584Z" fill="#FFCE02"/>
<path d="M53.0032 1.58203C44.5662 1.58203 37.5455 7.81408 36.2257 15.8411H1.17791C0.862577 15.8369 0.559079 15.9612 0.337224 16.1854C0.114778 16.4096 -0.00650289 16.7143 4.86101e-06 17.0296V67.3688C-0.00591127 67.683 0.115961 67.9865 0.338408 68.2089C0.560263 68.4307 0.86376 68.5532 1.17791 68.5467H51.5177C51.833 68.5532 52.1371 68.4319 52.3613 68.2101C52.5855 67.9876 52.7098 67.6841 52.7056 67.3688V35.5708C52.8571 35.5726 52.9003 35.5743 52.992 35.5743C62.3667 35.5743 70.0003 27.9532 70.0003 18.5785C69.9914 9.19491 62.3868 1.59031 53.0032 1.58203ZM19.6889 18.2643H33.0168V27.8011L26.7368 25.5938C26.4853 25.5021 26.2097 25.5021 25.9576 25.5938L19.6889 27.8011V18.2643ZM50.2824 66.1235H2.42325V18.2643H17.2656V29.5103C17.2579 29.9008 17.4425 30.2705 17.7596 30.4989C18.0762 30.7267 18.485 30.7846 18.8529 30.6539L26.3522 28.0206L33.8533 30.6533C33.9817 30.6983 34.1171 30.7213 34.2532 30.7213C34.5005 30.7213 34.7413 30.6432 34.9419 30.4983C35.259 30.2699 35.4447 29.9014 35.44 29.5103V18.2643H36.0056C36.0038 18.4158 35.9902 18.4732 35.9902 18.5844C35.9902 27.0409 42.256 34.0628 50.283 35.3596L50.2824 66.1235ZM53.0032 33.1511C44.952 33.1511 38.4247 26.6238 38.4247 18.5726C38.4247 10.5207 44.952 3.99345 53.0038 3.99404C61.0551 3.99404 67.5823 10.5213 67.5823 18.5726C67.5729 26.6203 61.0515 33.1422 53.0032 33.1511Z" fill="#FFCE02"/>
</g>
<defs>
<clipPath id="clip0_795_9509">
<rect width="70" height="70" fill="white" transform="translate(0 0.0390625)"/>
</clipPath>
</defs>
</svg>
