<svg width="70" height="71" viewBox="0 0 70 71" fill="none" xmlns="http://www.w3.org/2000/svg">
<path d="M47.3485 48.649H44.4291V45.3746H53.0648C53.3467 45.381 53.6185 45.2712 53.8168 45.0714C54.0156 44.8715 54.1232 44.5992 54.1158 44.3173V33.8696C56.4351 33.3361 57.987 31.3365 57.987 28.958C57.987 26.579 56.4351 24.5789 54.1158 24.0454V17.0933C54.1232 16.8124 54.015 16.5406 53.8162 16.3418C53.6175 16.1431 53.3457 16.0349 53.0648 16.0423H35.9703V13.7496C38.084 13.2695 39.5117 11.2939 39.3054 9.136C39.0987 6.97814 37.3219 5.30951 35.1549 5.23863C32.9885 5.16828 31.1067 6.71753 30.7598 8.85727C30.4129 10.997 31.7095 13.0616 33.7874 13.6788V16.0418H16.9653C16.6844 16.0343 16.4126 16.1425 16.2138 16.3413C16.015 16.5401 15.9069 16.8114 15.9148 17.0922V24.0444C13.5955 24.5778 12.0431 26.5774 12.0431 28.9559C12.0431 31.3349 13.5955 33.3361 15.9148 33.8696V44.3173C15.9069 44.5992 16.0145 44.8715 16.2133 45.0714C16.4115 45.2712 16.6833 45.381 16.9653 45.3746H25.6015V48.649H22.6815C16.4947 48.649 11.4126 53.714 11.4126 59.9014V67.7766C11.4126 68.3799 11.9493 68.8409 12.552 68.8409H57.4781C58.0808 68.8409 58.618 68.3794 58.618 67.7766V59.9014C58.618 53.714 53.5359 48.649 47.3485 48.649ZM32.8868 9.54796C32.8868 8.3723 33.8396 7.41941 35.0153 7.41941C36.1904 7.41941 37.1433 8.3723 37.1433 9.54796C37.1433 10.7231 36.1904 11.676 35.0153 11.676C33.8402 11.6749 32.8878 10.7226 32.8868 9.54796ZM55.8041 28.9575C55.8041 30.1188 55.2072 31.1186 54.1158 31.57V26.3445C55.2072 26.7959 55.8041 27.7962 55.8041 28.9575ZM14.226 28.9575C14.226 27.7962 14.8234 26.7959 15.9148 26.3445V31.57C14.8234 31.1186 14.226 30.1188 14.226 28.9575ZM18.0978 18.2247H51.9328V43.1917H18.0978V18.2247ZM27.7844 45.3746H42.2462V48.649H27.7844V45.3746ZM45.3841 66.658H24.6465V59.0178H45.3841V66.658ZM56.4351 66.658H47.567V57.9088C47.567 57.306 47.0106 56.8349 46.4074 56.8349H23.6232C23.0205 56.8349 22.4636 57.306 22.4636 57.9088V66.658H13.5955V59.9014C13.5955 54.9179 17.6981 50.8319 22.6815 50.8319H47.3485C52.3326 50.8319 56.4351 54.9179 56.4351 59.9014V66.658Z" fill="#FFCE02"/>
<path d="M44.9747 32.9596C44.9747 32.3569 44.486 31.8682 43.8832 31.8682H26.0106C25.4079 31.8682 24.9192 32.3569 24.9192 32.9596V39.6448C24.9192 40.2475 25.4079 40.7362 26.0106 40.7362H43.8832C44.486 40.7362 44.9747 40.2475 44.9747 39.6448V32.9596ZM42.9282 34.0511V35.279H27.1021V34.0511H42.9282ZM27.1021 38.6898V37.4619H42.9282V38.6898H27.1021Z" fill="#FFCE02"/>
<path d="M31.3315 22.8639C31.3315 22.2612 30.8428 21.7725 30.24 21.7725H25.192C24.5893 21.7725 24.1006 22.2612 24.1006 22.8639V27.9119C24.1006 28.5146 24.5893 29.0034 25.192 29.0034H30.24C30.8428 29.0034 31.3315 28.5146 31.3315 27.9119V22.8639ZM26.2835 23.9554H29.285V26.8204H26.2835V23.9554Z" fill="#FFCE02"/>
<path d="M45.7934 22.8639C45.7934 22.2612 45.3047 21.7725 44.7019 21.7725H39.654C39.0512 21.7725 38.5625 22.2612 38.5625 22.8639V27.9119C38.5625 28.5146 39.0512 29.0034 39.654 29.0034H44.7019C45.3047 29.0034 45.7934 28.5146 45.7934 27.9119V22.8639ZM40.7454 23.9554H43.7469V26.8204H40.7454V23.9554Z" fill="#FFCE02"/>
</svg>
