<svg width="130" height="33" viewBox="0 0 130 33" fill="none" xmlns="http://www.w3.org/2000/svg">
<rect width="130" height="33" rx="16.5" fill="#0066B3"/>
<path fill-rule="evenodd" clip-rule="evenodd" d="M101.021 21.2794H102.551V11.3587H101.021V21.2794ZM114.8 14.9323L113.046 19.2335H112.994L111.174 14.9323H109.526L112.255 20.9437L110.699 24.2879H112.295L116.501 14.9323H114.8ZM106.125 20.1525C105.623 20.1525 104.924 19.9105 104.924 19.3105C104.924 18.5447 105.795 18.2511 106.546 18.2511C107.219 18.2511 107.535 18.3915 107.944 18.5828C107.825 19.5018 107.008 20.1525 106.125 20.1525ZM106.309 14.7156C105.202 14.7156 104.055 15.1878 103.58 16.2345L104.938 16.7829C105.228 16.2345 105.768 16.0552 106.335 16.0552C107.127 16.0552 107.931 16.5147 107.944 17.3321V17.4337C107.667 17.2805 107.074 17.0512 106.349 17.0512C104.885 17.0512 103.395 17.8297 103.395 19.2843C103.395 20.612 104.595 21.4675 105.939 21.4675C106.968 21.4675 107.535 21.0207 107.891 20.4969H107.944V21.2628H109.42V17.4599C109.42 15.6981 108.063 14.7156 106.309 14.7156ZM96.855 16.1401H94.6792V12.7396H96.855C97.9986 12.7396 98.6479 13.6562 98.6479 14.4394C98.6479 15.2084 97.9986 16.1401 96.855 16.1401ZM96.8156 11.3587H93.1502V21.2794H94.6792V17.521H96.8156C98.511 17.521 100.178 16.3322 100.178 14.4394C100.178 12.5467 98.511 11.3587 96.8156 11.3587ZM76.8276 20.1541C75.7708 20.1541 74.8862 19.2978 74.8862 18.1217C74.8862 16.9329 75.7708 16.0631 76.8276 16.0631C77.8712 16.0631 78.6894 16.9329 78.6894 18.1217C78.6894 19.2978 77.8712 20.1541 76.8276 20.1541ZM78.5836 15.4878H78.5311C78.1876 15.0918 77.5277 14.7339 76.6956 14.7339C74.9518 14.7339 73.354 16.2163 73.354 18.1217C73.354 20.0136 74.9518 21.4842 76.6956 21.4842C77.5277 21.4842 78.1876 21.1263 78.5311 20.7168H78.5836V21.2025C78.5836 22.4944 77.8712 23.1848 76.7218 23.1848C75.7839 23.1848 75.2027 22.5325 74.9649 21.9826L73.6311 22.5198C74.0139 23.415 75.0313 24.5141 76.7218 24.5141C78.518 24.5141 80.0372 23.4912 80.0372 20.9985V14.9378H78.5836V15.4878ZM81.0939 21.2794H82.6262V11.3579H81.0939V21.2794ZM84.8839 18.0066C84.8446 16.7028 85.9276 16.0377 86.7064 16.0377C87.3147 16.0377 87.8296 16.3314 88.0009 16.7536L84.8839 18.0066ZM89.6389 16.8813C89.3487 16.1274 88.4633 14.7339 86.6539 14.7339C84.8577 14.7339 83.3656 16.1012 83.3656 18.109C83.3656 20.0009 84.8446 21.4842 86.8253 21.4842C88.4239 21.4842 89.3487 20.5382 89.7315 19.9883L88.5428 19.2208C88.1468 19.7835 87.6049 20.1541 86.8253 20.1541C86.0465 20.1541 85.4914 19.8089 85.1348 19.132L89.7971 17.2654L89.6389 16.8813ZM52.4944 15.7695V17.2011H56.0336C55.9279 18.0066 55.6508 18.5947 55.2285 19.0042C54.7129 19.5026 53.907 20.0517 52.4944 20.0517C50.3154 20.0517 48.6109 18.3519 48.6109 16.2425C48.6109 14.1323 50.3154 12.4324 52.4944 12.4324C53.6701 12.4324 54.5284 12.88 55.1621 13.4554L56.2058 12.4451C55.3204 11.6269 54.1456 11 52.4944 11C49.5095 11 47 13.353 47 16.2425C47 19.132 49.5095 21.4842 52.4944 21.4842C54.1054 21.4842 55.3204 20.9731 56.2714 20.0136C57.2486 19.0677 57.5527 17.7384 57.5527 16.6639C57.5527 16.3314 57.5265 16.025 57.4732 15.7695H52.4944ZM61.5772 20.1541C60.5205 20.1541 59.6089 19.3105 59.6089 18.109C59.6089 16.894 60.5205 16.0631 61.5772 16.0631C62.6332 16.0631 63.5448 16.894 63.5448 18.109C63.5448 19.3105 62.6332 20.1541 61.5772 20.1541ZM61.5772 14.7339C59.6482 14.7339 58.0766 16.1528 58.0766 18.109C58.0766 20.0517 59.6482 21.4842 61.5772 21.4842C63.5055 21.4842 65.0771 20.0517 65.0771 18.109C65.0771 16.1528 63.5055 14.7339 61.5772 14.7339ZM69.2122 20.1541C68.1555 20.1541 67.2438 19.3105 67.2438 18.109C67.2438 16.894 68.1555 16.0631 69.2122 16.0631C70.269 16.0631 71.1798 16.894 71.1798 18.109C71.1798 19.3105 70.269 20.1541 69.2122 20.1541ZM69.2122 14.7339C67.284 14.7339 65.7124 16.1528 65.7124 18.109C65.7124 20.0517 67.284 21.4842 69.2122 21.4842C71.1405 21.4842 72.7121 20.0517 72.7121 18.109C72.7121 16.1528 71.1405 14.7339 69.2122 14.7339Z" fill="white"/>
<path d="M20.125 7.67782C20.125 7.22111 20.2472 6.88045 20.4413 6.65945L30.4932 16.5532V16.6848L20.4413 26.5785C20.2472 26.3575 20.125 26.0169 20.125 25.5602V7.67782Z" fill="white" stroke="#0066B3" stroke-width="0.25"/>
<path d="M37.9175 17.6481L37.9175 17.6482L33.9725 19.8417L30.7441 16.6803V16.5545L33.9741 13.3938L37.9175 15.5858C38.4593 15.8874 38.6991 16.2663 38.6991 16.6173C38.6991 16.9682 38.4594 17.347 37.9175 17.6481Z" fill="white" stroke="#0066B3" stroke-width="0.25"/>
<path d="M20.6606 26.9054L30.5761 16.7967L33.7945 20.0779L22.1033 26.8507C22.1033 26.8508 22.1033 26.8508 22.1033 26.8508C21.4958 27.2023 20.9876 27.176 20.6606 26.9054Z" fill="white" stroke="#0066B3" stroke-width="0.25"/>
<path d="M22.1033 6.38563C22.1033 6.38564 22.1033 6.38565 22.1033 6.38565L33.7945 13.1585L30.5761 16.4397L20.6606 6.33104C20.9876 6.06043 21.4958 6.03406 22.1033 6.38563Z" fill="white" stroke="#0066B3" stroke-width="0.25"/>
</svg>
