<svg width="70" height="70" viewBox="0 0 70 70" fill="none" xmlns="http://www.w3.org/2000/svg">
<path d="M34.9998 3.85548C30.8365 3.85287 26.7136 4.67096 22.8667 6.26296C19.0198 7.85496 15.5245 10.1897 12.5806 13.1335C9.63668 16.0774 7.30195 19.5727 5.70989 23.4195C4.11784 27.2664 3.2997 31.3893 3.30225 35.5526C3.3022 35.8184 3.39895 36.0752 3.57441 36.2748C3.74988 36.4745 3.99205 36.6034 4.25567 36.6376C4.51928 36.6717 4.78629 36.6086 5.0068 36.4602C5.2273 36.3117 5.3862 36.0881 5.45379 35.831C5.66899 35.0134 6.43174 32.6814 7.38153 31.6497C8.70647 30.4136 10.3191 29.7605 12.0472 29.7605C13.7854 29.7519 15.4574 30.4265 16.703 31.6389C17.9472 32.9663 18.6045 34.5838 18.6045 36.3177C18.6045 36.6078 18.7197 36.886 18.9248 37.0911C19.13 37.2962 19.4082 37.4115 19.6982 37.4115C19.9883 37.4115 20.2665 37.2962 20.4716 37.0911C20.6768 36.886 20.792 36.6078 20.792 36.3177C20.792 34.5889 21.4454 32.976 22.6823 31.6508C24.0075 30.4141 25.6205 29.7605 27.3492 29.7605C29.0873 29.752 30.7593 30.4265 32.0048 31.6389C33.249 32.9663 33.9063 34.5838 33.9063 36.3177V59.1005C33.9063 60.3877 33.395 61.6223 32.4848 62.5325C31.5746 63.4427 30.34 63.954 29.0528 63.954C27.7656 63.954 26.5311 63.4427 25.6209 62.5325C24.7107 61.6223 24.1993 60.3877 24.1993 59.1005V56.2527C24.1993 55.9626 24.0841 55.6844 23.879 55.4793C23.6738 55.2741 23.3956 55.1589 23.1056 55.1589C22.8155 55.1589 22.5373 55.2741 22.3322 55.4793C22.127 55.6844 22.0118 55.9626 22.0118 56.2527V59.1005C22.0118 60.9679 22.7536 62.7588 24.0741 64.0793C25.3945 65.3997 27.1854 66.1415 29.0528 66.1415C30.9202 66.1415 32.7111 65.3997 34.0316 64.0793C35.352 62.7588 36.0938 60.9679 36.0938 59.1005V36.3177C36.0938 34.589 36.7473 32.9759 37.9842 31.6507C39.3093 30.414 40.9225 29.7605 42.651 29.7605C44.3892 29.752 46.0612 30.4266 47.3068 31.6389C48.551 32.9663 49.2082 34.5838 49.2082 36.3177C49.2082 36.6078 49.3234 36.886 49.5285 37.0911C49.7336 37.2962 50.0118 37.4115 50.3019 37.4115C50.592 37.4115 50.8702 37.2962 51.0753 37.0911C51.2804 36.886 51.3957 36.6078 51.3957 36.3177C51.3957 34.589 52.0492 32.976 53.2861 31.6508C54.6112 30.4141 56.2242 29.7605 57.953 29.7605C59.6909 29.752 61.3626 30.4263 62.6081 31.6384C63.5586 32.6598 64.329 35.0093 64.5461 35.831C64.6137 36.0881 64.7726 36.3117 64.9931 36.4602C65.2136 36.6086 65.4806 36.6717 65.7442 36.6376C66.0078 36.6034 66.25 36.4745 66.4255 36.2748C66.6009 36.0752 66.6977 35.8184 66.6976 35.5526C66.7002 31.3893 65.882 27.2663 64.29 23.4195C62.6979 19.5726 60.3631 16.0773 57.4192 13.1334C54.4753 10.1896 50.9799 7.85487 47.133 6.26288C43.2861 4.6709 39.1631 3.85283 34.9998 3.85548ZM57.9527 27.5734C55.6458 27.5734 53.5054 28.4405 51.7623 30.081C51.7462 30.096 51.7306 30.1118 51.7154 30.1278C51.1652 30.709 50.6902 31.3571 50.3016 32.0569C49.9131 31.3571 49.4381 30.709 48.8878 30.1278C48.8803 30.1197 48.8727 30.1119 48.8649 30.1041C47.2072 28.4756 44.9744 27.5663 42.6507 27.5734C40.344 27.5734 38.2034 28.4405 36.4605 30.081C36.4444 30.096 36.4288 30.1118 36.4136 30.1278C36.0432 30.5207 35.706 30.9437 35.4057 31.3925C35.1453 31.2875 34.8543 31.2875 34.5939 31.3925C34.2936 30.9437 33.9564 30.5207 33.586 30.1278C33.5785 30.1198 33.5707 30.1119 33.5629 30.1041C31.9053 28.4756 29.6726 27.5663 27.3489 27.5734C25.0422 27.5734 22.9016 28.4405 21.1585 30.081C21.1425 30.096 21.1268 30.1118 21.1118 30.1278C20.5615 30.709 20.0865 31.3571 19.698 32.0569C19.3094 31.3571 18.8344 30.709 18.2842 30.1278C18.2765 30.1198 18.2689 30.1119 18.2611 30.1041C16.6316 28.5123 14.4532 27.6067 12.1754 27.5744C9.89766 27.542 7.69441 28.3853 6.02036 29.9302C7.04344 24.6726 9.47736 19.7924 13.0614 15.812C16.6455 11.8317 21.2448 8.90123 26.3667 7.33445C31.4886 5.76767 36.9402 5.62359 42.1378 6.91764C47.3353 8.21169 52.0829 10.8951 55.8722 14.6806C60.0438 18.831 62.8683 24.1418 63.9775 29.9208C62.3373 28.4062 60.1852 27.5676 57.9527 27.573V27.5734Z" fill="url(#paint0_linear_795_32957)"/>
<defs>
<linearGradient id="paint0_linear_795_32957" x1="34.9998" y1="2.46094" x2="34.9998" y2="66.3588" gradientUnits="userSpaceOnUse">
<stop stop-color="#00EFD1"/>
<stop offset="1" stop-color="#00ACEA"/>
</linearGradient>
</defs>
</svg>
