<svg width="70" height="71" viewBox="0 0 70 71" fill="none" xmlns="http://www.w3.org/2000/svg">
<path d="M60.9972 20.0832C60.8766 19.9804 60.7353 19.9049 60.5828 19.8617C60.4304 19.8186 60.2704 19.8088 60.1139 19.8332C59.7957 19.873 59.4753 19.8921 59.1547 19.8902C56.8877 19.8854 54.7152 18.9817 53.1136 17.3772C51.5121 15.7727 50.6124 13.5985 50.6118 11.3316C50.6088 10.0312 50.9058 8.7477 51.4797 7.58084C51.5479 7.44155 51.5857 7.28935 51.5906 7.13433C51.5956 6.97932 51.5674 6.82502 51.5082 6.6817C51.4489 6.53837 51.3598 6.40929 51.2469 6.30302C51.1339 6.19675 50.9996 6.11572 50.853 6.06531L49.0857 5.45732C39.7292 2.25275 29.5674 2.28491 20.2314 5.54865L19.0859 5.95047C18.939 6.00208 18.8048 6.08448 18.6922 6.19215C18.5797 6.29983 18.4915 6.4303 18.4334 6.57483C18.3754 6.71935 18.3489 6.87461 18.3557 7.03021C18.3625 7.18581 18.4025 7.33816 18.4729 7.47707C19.0825 8.67024 19.3996 9.99128 19.3981 11.3312C19.3965 13.5992 18.4953 15.774 16.8924 17.3785C15.2894 18.9829 13.1154 19.8861 10.8474 19.8898C10.5275 19.8917 10.2078 19.8726 9.89037 19.8328C9.73353 19.8081 9.57324 19.8176 9.42038 19.8605C9.26752 19.9034 9.12569 19.9786 9.00452 20.0812C8.88335 20.1838 8.7857 20.3113 8.71819 20.4549C8.65068 20.5986 8.6149 20.7552 8.61328 20.9139V31.7039C8.61923 38.8595 10.7092 45.8583 14.628 51.8455C18.5467 57.8326 24.1244 62.5487 30.6797 65.4175L34.1085 66.9188C34.2465 66.9791 34.3955 67.0103 34.5461 67.0107C34.6967 67.0111 34.8458 66.9805 34.9841 66.921L38.8691 65.2416C38.8931 65.2312 38.9238 65.2201 38.9468 65.2082C45.6004 62.3934 51.2772 57.6806 55.2682 51.6584C59.2591 45.6363 61.3872 38.5717 61.3867 31.3472V20.9139C61.3854 20.7556 61.3499 20.5994 61.2827 20.456C61.2154 20.3127 61.1181 20.1855 60.9972 20.0832ZM59.1992 31.3472C59.1991 38.1576 57.1881 44.8163 53.4185 50.4882C49.6488 56.1601 44.2883 60.5927 38.0093 63.23C37.9801 63.2425 37.9479 63.256 37.9203 63.271L34.5554 64.7248L31.5581 63.4146C25.392 60.7163 20.1454 56.2805 16.4591 50.6491C12.7729 45.0177 10.8067 38.4345 10.8008 31.7039V22.0503H10.8474C13.694 22.0491 16.4237 20.9182 18.437 18.9059C20.4504 16.8936 21.5828 14.1645 21.5856 11.3179C21.5877 10.0548 21.3629 8.80152 20.9218 7.61789L20.9561 7.60914C29.8275 4.50857 39.4835 4.47862 48.374 7.5241L49.0362 7.75283C48.6283 8.89687 48.421 10.1028 48.4235 11.3174C48.425 14.1628 49.5558 16.8914 51.5675 18.9037C53.5793 20.9161 56.3074 22.0478 59.1529 22.0503H59.1992V31.3472Z" fill="#FFCE02"/>
<path d="M35 19.9785C32.0213 19.9785 29.1095 20.8618 26.6328 22.5167C24.1561 24.1715 22.2258 26.5237 21.0859 29.2756C19.946 32.0276 19.6477 35.0558 20.2288 37.9772C20.81 40.8987 22.2443 43.5822 24.3506 45.6885C26.4568 47.7947 29.1404 49.2291 32.0618 49.8102C34.9833 50.3913 38.0115 50.0931 40.7634 48.9532C43.5154 47.8133 45.8675 45.8829 47.5224 43.4062C49.1772 40.9295 50.0605 38.0177 50.0605 35.039C50.056 31.0461 48.4679 27.218 45.6444 24.3946C42.821 21.5712 38.9929 19.983 35 19.9785ZM35 47.9121C32.4539 47.9121 29.9651 47.1571 27.8481 45.7426C25.7312 44.3281 24.0812 42.3176 23.1069 39.9653C22.1325 37.6131 21.8776 35.0248 22.3743 32.5276C22.871 30.0305 24.0971 27.7368 25.8974 25.9364C27.6977 24.1361 29.9915 22.9101 32.4886 22.4134C34.9857 21.9167 37.574 22.1716 39.9263 23.1459C42.2785 24.1202 44.289 25.7702 45.7035 27.8872C47.118 30.0041 47.873 32.493 47.873 35.039C47.8691 38.452 46.5116 41.7241 44.0983 44.1374C41.685 46.5507 38.4129 47.9082 35 47.9121Z" fill="#FFCE02"/>
<path d="M39.7988 28.75C40.0889 28.75 40.3671 28.6348 40.5722 28.4297C40.7773 28.2245 40.8926 27.9463 40.8926 27.6563C40.8926 27.3662 40.7773 27.088 40.5722 26.8829C40.3671 26.6777 40.0889 26.5625 39.7988 26.5625H30.2012C29.9111 26.5625 29.6329 26.6777 29.4278 26.8829C29.2227 27.088 29.1074 27.3662 29.1074 27.6563C29.1074 27.9463 29.2227 28.2245 29.4278 28.4297C29.6329 28.6348 29.9111 28.75 30.2012 28.75H32.9476C33.5539 28.7545 34.1454 28.9388 34.647 29.2795C35.1486 29.6202 35.5379 30.1021 35.7656 30.6641H30.2012C29.9111 30.6641 29.6329 30.7793 29.4278 30.9844C29.2227 31.1895 29.1074 31.4677 29.1074 31.7578C29.1074 32.0479 29.2227 32.3261 29.4278 32.5312C29.6329 32.7363 29.9111 32.8516 30.2012 32.8516H35.7656C35.3262 34.082 34.2289 34.7656 32.947 34.7656H30.2012C29.9803 34.7718 29.7661 34.8429 29.5854 34.9702C29.4047 35.0975 29.2656 35.2752 29.1854 35.4812C29.1052 35.6871 29.0876 35.9121 29.1346 36.1281C29.1817 36.344 29.2914 36.5413 29.45 36.6951L36.3141 43.1883C36.4176 43.2897 36.5402 43.3696 36.6748 43.4231C36.8095 43.4767 36.9534 43.5029 37.0982 43.5002C37.2431 43.4976 37.386 43.4661 37.5186 43.4077C37.6511 43.3493 37.7708 43.2651 37.8705 43.1599C37.9702 43.0548 38.0479 42.9309 38.0992 42.7954C38.1506 42.6599 38.1744 42.5156 38.1694 42.3708C38.1643 42.226 38.1305 42.0837 38.0699 41.9521C38.0093 41.8205 37.9232 41.7023 37.8164 41.6043L32.9509 36.988C34.1426 36.977 35.2952 36.5618 36.2202 35.8104C37.1452 35.0589 37.7878 34.0157 38.0427 32.8516H39.7988C40.0889 32.8516 40.3671 32.7363 40.5722 32.5312C40.7773 32.3261 40.8926 32.0479 40.8926 31.7578C40.8926 31.4677 40.7773 31.1895 40.5722 30.9844C40.3671 30.7793 40.0889 30.6641 39.7988 30.6641H38.0427C37.8927 29.9739 37.6016 29.3222 37.1875 28.75H39.7988Z" fill="#FFCE02"/>
</svg>
