<svg width="70" height="71" viewBox="0 0 70 71" fill="none" xmlns="http://www.w3.org/2000/svg">
<g clip-path="url(#clip0_2905_1159)">
<path d="M56.7983 43.7714L48.845 49.7189C47.2306 47.706 44.6495 46.7309 42.1072 47.1733L34.0487 48.583C32.7513 48.8083 31.4204 48.7386 30.1534 48.3796L29.2519 48.1232C24.5966 46.7865 19.581 47.8558 15.8756 50.9749L15.5095 48.88C15.4152 48.3402 14.9012 47.9792 14.3619 48.0735L5.52468 49.6194C4.98482 49.7137 4.62384 50.2277 4.71877 50.7676L8.11031 70.1586C8.15552 70.4182 8.3021 70.6487 8.51714 70.8005C8.73283 70.9516 8.99953 71.011 9.25848 70.9651L18.0951 69.4192C18.6343 69.3249 18.9953 68.8109 18.901 68.2717L18.7189 67.2326L20.8209 65.5259C21.6462 64.8388 22.7065 64.4991 23.7778 64.5798L38.1874 65.6331C38.2093 65.635 38.2319 65.6357 38.2532 65.6357C41.4433 65.6466 44.5539 64.6386 47.1312 62.7581C47.1686 62.7304 47.2048 62.7 47.2384 62.6671L64.4021 45.8611C64.7773 45.4943 64.8012 44.8982 64.4576 44.5017C62.5087 42.2532 59.1372 41.9316 56.7983 43.7714ZM9.89391 68.8393L6.84333 51.4024L13.7265 50.1987L16.7765 67.6356L9.89391 68.8393ZM45.9029 61.1993C43.6906 62.7982 41.0287 63.657 38.2984 63.6519L23.9225 62.6012C22.3442 62.4817 20.7808 62.9803 19.5629 63.9915L18.3282 64.9944L16.2818 53.2958C19.5125 50.012 24.2815 48.7593 28.7089 50.0308L29.6103 50.2871C31.1647 50.7276 32.7985 50.8128 34.3909 50.5364L42.4488 49.1267C44.8413 48.7121 47.1938 50.0411 48.074 52.3039L35.9001 54.4329C35.3609 54.5272 34.9999 55.0413 35.0942 55.5811C35.1884 56.121 35.7025 56.482 36.2423 56.387L49.4882 54.07C50.0281 53.9757 50.3891 53.4617 50.2941 52.9219C50.205 52.4123 50.0597 51.9138 49.8615 51.436L57.9961 45.3522C58.0026 45.347 58.0097 45.3419 58.0168 45.3361C59.2463 44.3629 60.9647 44.2996 62.2621 45.1798L45.9029 61.1993Z" fill="url(#paint0_linear_2905_1159)"/>
<path d="M40.5943 11.0366C41.0636 11.0366 41.4444 10.6558 41.4444 10.1864V1.8267C41.4444 1.35735 41.0636 0.976562 40.5943 0.976562C40.1249 0.976562 39.7441 1.35735 39.7441 1.8267V10.1864C39.7441 10.6558 40.1249 11.0366 40.5943 11.0366Z" fill="url(#paint1_linear_2905_1159)"/>
<path d="M46.1207 11.0398C46.59 11.0398 46.9708 10.659 46.9708 10.1896V4.52202C46.9708 4.05267 46.59 3.67188 46.1207 3.67188C45.6513 3.67188 45.2705 4.05267 45.2705 4.52202V10.1896C45.2705 10.659 45.6513 11.0398 46.1207 11.0398Z" fill="url(#paint2_linear_2905_1159)"/>
<path d="M35.2105 11.0398C35.6798 11.0398 36.0606 10.659 36.0606 10.1896V4.52202C36.0606 4.05267 35.6798 3.67188 35.2105 3.67188C34.7411 3.67188 34.3604 4.05267 34.3604 4.52202V10.1896C34.3604 10.659 34.7411 11.0398 35.2105 11.0398Z" fill="url(#paint3_linear_2905_1159)"/>
<path d="M50.0875 12.4521C50.5568 12.4521 50.9376 12.0713 50.9376 11.6019V7.20952C50.9376 6.74017 50.5568 6.35938 50.0875 6.35938C49.6181 6.35938 49.2373 6.74017 49.2373 7.20952V11.6019C49.2373 12.0713 49.6181 12.4521 50.0875 12.4521Z" fill="url(#paint4_linear_2905_1159)"/>
<path d="M31.1011 12.4521C31.5705 12.4521 31.9513 12.0713 31.9513 11.6019V7.20952C31.9513 6.74017 31.5705 6.35938 31.1011 6.35938C30.6318 6.35938 30.251 6.74017 30.251 7.20952V11.6019C30.251 12.0713 30.6318 12.4521 31.1011 12.4521Z" fill="url(#paint5_linear_2905_1159)"/>
<path d="M40.5947 14.4531C37.616 14.4531 34.7042 15.3364 32.2275 16.9913C29.7508 18.6462 27.8205 20.9983 26.6806 23.7502C25.5407 26.5022 25.2425 29.5304 25.8236 32.4518C26.4047 35.3733 27.8391 38.0568 29.9453 40.1631C32.0516 42.2693 34.7351 43.7037 37.6566 44.2848C40.578 44.8659 43.6062 44.5677 46.3581 43.4278C49.1101 42.2879 51.4622 40.3575 53.1171 37.8808C54.772 35.4042 55.6552 32.4924 55.6552 29.5137C55.6508 25.5207 54.0626 21.6926 51.2392 18.8692C48.4157 16.0458 44.5876 14.4576 40.5947 14.4531ZM40.5947 42.3867C38.0487 42.3867 35.5598 41.6317 33.4428 40.2172C31.3259 38.8027 29.6759 36.7922 28.7016 34.44C27.7273 32.0877 27.4723 29.4994 27.969 27.0023C28.4657 24.5051 29.6918 22.2114 31.4921 20.411C33.2924 18.6107 35.5862 17.3847 38.0833 16.888C40.5804 16.3913 43.1688 16.6462 45.521 17.6205C47.8732 18.5949 49.8837 20.2448 51.2982 22.3618C52.7128 24.4787 53.4677 26.9676 53.4677 29.5137C53.4639 32.9266 52.1064 36.1987 49.693 38.612C47.2797 41.0253 44.0077 42.3828 40.5947 42.3867Z" fill="url(#paint6_linear_2905_1159)"/>
<path d="M45.3936 23.2266C45.6836 23.2266 45.9618 23.1113 46.167 22.9062C46.3721 22.7011 46.4873 22.4229 46.4873 22.1328C46.4873 21.8427 46.3721 21.5645 46.167 21.3594C45.9618 21.1543 45.6836 21.0391 45.3936 21.0391H35.7959C35.5058 21.0391 35.2276 21.1543 35.0225 21.3594C34.8174 21.5645 34.7021 21.8427 34.7021 22.1328C34.7021 22.4229 34.8174 22.7011 35.0225 22.9062C35.2276 23.1113 35.5058 23.2266 35.7959 23.2266H38.5423C39.1487 23.2311 39.7401 23.4154 40.2417 23.7561C40.7433 24.0968 41.1326 24.5786 41.3604 25.1406H35.7959C35.5058 25.1406 35.2276 25.2559 35.0225 25.461C34.8174 25.6661 34.7021 25.9443 34.7021 26.2344C34.7021 26.5245 34.8174 26.8027 35.0225 27.0078C35.2276 27.2129 35.5058 27.3281 35.7959 27.3281H41.3604C40.9209 28.5586 39.8236 29.2422 38.5418 29.2422H35.7959C35.575 29.2483 35.3608 29.3195 35.1801 29.4468C34.9994 29.574 34.8603 29.7518 34.7801 29.9577C34.6999 30.1637 34.6823 30.3887 34.7294 30.6046C34.7764 30.8206 34.8861 31.0178 35.0448 31.1717L41.9089 37.6649C42.0123 37.7663 42.1349 37.8461 42.2696 37.8997C42.4042 37.9532 42.5481 37.9794 42.693 37.9768C42.8378 37.9742 42.9807 37.9427 43.1133 37.8843C43.2459 37.8259 43.3655 37.7416 43.4652 37.6365C43.5649 37.5314 43.6427 37.4075 43.694 37.272C43.7453 37.1365 43.7691 36.9922 43.7641 36.8474C43.7591 36.7026 43.7253 36.5602 43.6647 36.4286C43.6041 36.297 43.5179 36.1788 43.4111 36.0809L38.5456 31.4646C39.7373 31.4536 40.89 31.0384 41.815 30.2869C42.74 29.5355 43.3825 28.4923 43.6374 27.3281H45.3936C45.6836 27.3281 45.9618 27.2129 46.167 27.0078C46.3721 26.8027 46.4873 26.5245 46.4873 26.2344C46.4873 25.9443 46.3721 25.6661 46.167 25.461C45.9618 25.2559 45.6836 25.1406 45.3936 25.1406H43.6374C43.4874 24.4504 43.1963 23.7988 42.7822 23.2266H45.3936Z" fill="url(#paint7_linear_2905_1159)"/>
</g>
<defs>
<linearGradient id="paint0_linear_2905_1159" x1="34.7018" y1="41.9422" x2="34.7018" y2="71.0793" gradientUnits="userSpaceOnUse">
<stop stop-color="#00EFD1"/>
<stop offset="1" stop-color="#00ACEA"/>
</linearGradient>
<linearGradient id="paint1_linear_2905_1159" x1="40.5943" y1="0.751329" x2="40.5943" y2="11.0716" gradientUnits="userSpaceOnUse">
<stop stop-color="#00EFD1"/>
<stop offset="1" stop-color="#00ACEA"/>
</linearGradient>
<linearGradient id="paint2_linear_2905_1159" x1="46.1206" y1="3.50692" x2="46.1206" y2="11.0655" gradientUnits="userSpaceOnUse">
<stop stop-color="#00EFD1"/>
<stop offset="1" stop-color="#00ACEA"/>
</linearGradient>
<linearGradient id="paint3_linear_2905_1159" x1="35.2105" y1="3.50692" x2="35.2105" y2="11.0655" gradientUnits="userSpaceOnUse">
<stop stop-color="#00EFD1"/>
<stop offset="1" stop-color="#00ACEA"/>
</linearGradient>
<linearGradient id="paint4_linear_2905_1159" x1="50.0874" y1="6.22297" x2="50.0874" y2="12.4733" gradientUnits="userSpaceOnUse">
<stop stop-color="#00EFD1"/>
<stop offset="1" stop-color="#00ACEA"/>
</linearGradient>
<linearGradient id="paint5_linear_2905_1159" x1="31.1011" y1="6.22297" x2="31.1011" y2="12.4733" gradientUnits="userSpaceOnUse">
<stop stop-color="#00EFD1"/>
<stop offset="1" stop-color="#00ACEA"/>
</linearGradient>
<linearGradient id="paint6_linear_2905_1159" x1="40.5946" y1="13.7787" x2="40.5946" y2="44.6793" gradientUnits="userSpaceOnUse">
<stop stop-color="#00EFD1"/>
<stop offset="1" stop-color="#00ACEA"/>
</linearGradient>
<linearGradient id="paint7_linear_2905_1159" x1="40.5947" y1="20.6598" x2="40.5947" y2="38.0361" gradientUnits="userSpaceOnUse">
<stop stop-color="#00EFD1"/>
<stop offset="1" stop-color="#00ACEA"/>
</linearGradient>
<clipPath id="clip0_2905_1159">
<rect width="70" height="70" fill="white" transform="translate(0 0.976562)"/>
</clipPath>
</defs>
</svg>
