<svg width="70" height="70" viewBox="0 0 70 70" fill="none" xmlns="http://www.w3.org/2000/svg">
<g clip-path="url(#clip0_808_33093)">
<path fill-rule="evenodd" clip-rule="evenodd" d="M35.0016 33.5486C37.584 33.5483 40.1085 34.3138 42.2559 35.7483C44.4033 37.1827 46.077 39.2218 47.0655 41.6076C48.054 43.9933 48.3128 46.6186 47.8092 49.1515C47.3056 51.6843 46.0622 54.011 44.2362 55.8371C42.4103 57.6633 40.0838 58.907 37.551 59.4109C35.0183 59.9148 32.3929 59.6564 30.007 58.6682C27.6211 57.68 25.5819 56.0065 24.1471 53.8593C22.7124 51.7121 21.9466 49.1877 21.9466 46.6053C21.9502 43.1438 23.3267 39.8252 25.7742 37.3774C28.2216 34.9296 31.5401 33.5527 35.0016 33.5486ZM35.0016 61.3025C37.9083 61.3022 40.7497 60.4399 43.1664 58.8248C45.5831 57.2096 47.4666 54.9141 48.5788 52.2285C49.6909 49.5429 49.9817 46.5879 49.4145 43.737C48.8472 40.8862 47.4473 38.2675 45.3918 36.2122C43.3364 34.157 40.7176 32.7573 37.8667 32.1903C35.0158 31.6233 32.0607 31.9144 29.3753 33.0268C26.6898 34.1392 24.3945 36.0229 22.7795 38.4398C21.1646 40.8566 20.3026 43.6981 20.3025 46.6048C20.3079 50.5016 21.8584 54.2372 24.614 56.9923C27.3697 59.7475 31.1048 61.2978 35.0016 61.3025ZM26.7906 18.572C11.749 34.4787 4.90539 47.0706 6.45989 56.0008C7.29196 60.7686 10.588 64.633 16.2704 67.4852C17.4057 68.0739 18.6683 68.3741 19.9471 68.3593H50.1787C51.4741 68.375 52.753 68.0681 53.9003 67.4665C59.4921 64.6207 62.737 60.7733 63.5497 56.0311C65.0913 47.0106 58.1122 34.2736 42.7997 18.1736C41.0687 19.1058 39.1825 19.7154 37.2334 19.9726C38.0863 20.6956 38.7728 21.5945 39.246 22.6076C39.7191 23.6207 39.9677 24.7241 39.9746 25.8422C39.9756 25.9499 39.9555 26.0568 39.9152 26.1567C39.8749 26.2566 39.8153 26.3476 39.7398 26.4244C39.6643 26.5013 39.5745 26.5625 39.4753 26.6046C39.3761 26.6466 39.2696 26.6687 39.1619 26.6696H39.156C38.94 26.6693 38.7328 26.5838 38.5794 26.4317C38.426 26.2795 38.3388 26.073 38.3368 25.857C38.3286 24.7645 38.029 23.694 37.4688 22.756C36.9086 21.818 36.1082 21.0466 35.1502 20.5214V24.3606C35.1516 24.469 35.1314 24.5767 35.0909 24.6773C35.0504 24.7779 34.9902 24.8695 34.914 24.9467C34.8378 25.0239 34.7471 25.0852 34.647 25.127C34.5469 25.1688 34.4395 25.1904 34.331 25.1904C34.2226 25.1904 34.1152 25.1688 34.0151 25.127C33.915 25.0852 33.8242 25.0239 33.748 24.9467C33.6718 24.8695 33.6117 24.7779 33.5712 24.6773C33.5306 24.5767 33.5105 24.469 33.5119 24.3606V20.4737C32.5292 20.9897 31.7052 21.7631 31.1281 22.7111C30.5509 23.6592 30.2423 24.7464 30.2353 25.8563C30.2323 26.072 30.1448 26.278 29.9917 26.4299C29.8385 26.5819 29.6318 26.6677 29.4161 26.6689H29.4096C29.1914 26.6674 28.9826 26.5795 28.8291 26.4244C28.6756 26.2694 28.5897 26.0597 28.5904 25.8415C28.6001 24.7061 28.858 23.5866 29.346 22.5614C29.8341 21.5362 30.5404 20.6301 31.4156 19.9067C29.8242 19.6571 28.2702 19.2091 26.7906 18.572ZM22.5142 13.4953C21.1677 11.849 20.2938 9.86793 19.9857 7.76359C19.9516 7.56876 19.9793 7.36813 20.0649 7.18981C20.1505 7.01148 20.2897 6.86438 20.463 6.7691C20.6131 6.67891 20.7847 6.63096 20.9597 6.63033C21.1784 6.63152 21.3901 6.70756 21.5595 6.8458L23.372 8.26412C23.8335 8.62733 24.4037 8.8248 24.991 8.8248C25.5783 8.8248 26.1485 8.62733 26.61 8.26412L30.1647 5.47711C30.3366 5.339 30.5505 5.26372 30.771 5.26372C30.9915 5.26372 31.2054 5.339 31.3773 5.47711L34.9183 8.25059C35.385 8.61889 35.9633 8.8171 36.5578 8.81253C37.1523 8.80796 37.7275 8.60087 38.1885 8.22543L46.0512 1.86377C46.176 1.76226 46.3238 1.69288 46.4816 1.66172C46.6395 1.63056 46.8025 1.63856 46.9566 1.68503C47.1106 1.73149 47.2509 1.815 47.3652 1.92825C47.4795 2.0415 47.5642 2.18103 47.6121 2.33463C48.2513 4.35724 48.3628 6.50967 47.9361 8.58751C47.5094 10.6653 46.5586 12.5996 45.174 14.2066C43.3744 16.3062 40.6911 17.7136 37.5629 18.2592C38.318 17.5397 38.9206 16.6756 39.3349 15.7184C39.7493 14.7612 39.9668 13.7304 39.9746 12.6874C39.9756 12.5797 39.9555 12.4728 39.9152 12.3729C39.8749 12.273 39.8153 12.182 39.7398 12.1051C39.6644 12.0282 39.5745 11.967 39.4753 11.9249C39.3761 11.8828 39.2696 11.8607 39.1619 11.8598H39.156C38.9398 11.8601 38.7325 11.9457 38.5791 12.0981C38.4257 12.2504 38.3386 12.4571 38.3368 12.6733C38.3276 13.9272 37.9343 15.1482 37.2101 16.1719C36.4859 17.1956 35.4654 17.9728 34.2861 18.3989C33.1061 17.9739 32.0849 17.1969 31.3606 16.173C30.6362 15.1491 30.2435 13.9275 30.2356 12.6733C30.2327 12.4574 30.1453 12.2513 29.9921 12.0992C29.839 11.9471 29.6322 11.8611 29.4163 11.8598H29.4099C29.1917 11.8614 28.9829 11.9493 28.8294 12.1044C28.6759 12.2595 28.59 12.4691 28.5907 12.6874C28.6067 14.7404 29.4346 16.7036 30.8934 18.1481C29.5508 17.8801 28.245 17.4524 27.0039 16.8741C26.9625 16.8506 26.9194 16.8301 26.875 16.8129C25.1206 15.9699 23.6171 14.8421 22.5142 13.4953ZM15.5287 68.9519C16.8954 69.6526 18.4113 70.0121 19.9471 69.9999H50.1787C51.7319 70.0142 53.2647 69.6462 54.6422 68.9284C60.7181 65.835 64.2593 61.589 65.1623 56.3082C65.9943 51.4757 64.601 45.6958 61.0342 39.1303C57.7318 33.0639 52.4749 26.1411 45.3927 18.5306C47.8834 18.3815 50.3718 18.8565 52.6323 19.9126C54.8928 20.9688 56.8539 22.5725 58.3377 24.5785C58.4148 24.6818 58.5151 24.7657 58.6305 24.8233C58.7458 24.881 58.873 24.9109 59.002 24.9106C59.1535 24.9098 59.3018 24.8671 59.4306 24.7872C59.5594 24.7074 59.6636 24.5935 59.7316 24.4581C59.7997 24.3228 59.8291 24.1712 59.8164 24.0203C59.8037 23.8693 59.7496 23.7247 59.6599 23.6026C58.1864 21.6126 56.2875 19.9765 54.1016 18.8133C51.9157 17.6501 49.4979 16.9893 47.0242 16.8789C50.4558 14.9052 52.8938 11.3273 53.255 7.41086C53.275 7.19359 53.2078 6.9773 53.0683 6.80956C52.9287 6.64183 52.7283 6.53639 52.511 6.51645C52.2937 6.4965 52.0774 6.56369 51.9097 6.70322C51.742 6.84275 51.6365 7.0432 51.6166 7.26047C51.3071 10.6165 49.2366 13.6873 46.3018 15.407C46.3405 15.3624 46.3792 15.3192 46.4179 15.2741C47.9851 13.4568 49.0614 11.2688 49.5447 8.91825C50.0279 6.56767 49.902 4.13256 49.1789 1.84436C49.0504 1.4357 48.8239 1.06464 48.5193 0.763453C48.2146 0.462267 47.841 0.240077 47.4309 0.116213C47.0208 -0.0076515 46.5867 -0.0294387 46.1662 0.0527465C45.7458 0.134932 45.3518 0.3186 45.0185 0.587774L37.156 6.95026C36.9842 7.09308 36.7682 7.17202 36.5448 7.17367C36.3214 7.17531 36.1043 7.09956 35.9304 6.95928L32.3894 4.1858C31.9278 3.8229 31.3576 3.62562 30.7705 3.62562C30.1833 3.62562 29.6131 3.8229 29.1515 4.1858L25.5974 6.97254C25.4254 7.11059 25.2115 7.18583 24.991 7.18583C24.7705 7.18583 24.5566 7.11059 24.3847 6.97254L22.5721 5.55449C22.1592 5.23084 21.6587 5.03846 21.1354 5.00222C20.612 4.96598 20.0898 5.08755 19.6362 5.35121C19.1827 5.61487 18.8187 6.0085 18.5912 6.48123C18.3637 6.95396 18.2832 7.48405 18.3602 8.00299C18.7132 10.4003 19.7097 12.6571 21.2436 14.5331C22.3622 15.8669 23.721 16.9792 25.2494 17.8124C17.8256 25.7011 12.3492 32.863 8.95651 39.1101C5.38952 45.6749 4.00278 51.4522 4.84127 56.2819C5.76932 61.5905 9.36243 65.8527 15.5287 68.9519Z" fill="url(#paint0_linear_808_33093)"/>
<path d="M39.343 41.9548C39.343 41.715 39.2478 41.4851 39.0782 41.3156C38.9087 41.146 38.6787 41.0508 38.439 41.0508H31.5608C31.321 41.0508 31.0911 41.146 30.9215 41.3156C30.752 41.4851 30.6567 41.715 30.6567 41.9548C30.6567 42.1946 30.752 42.4245 30.9215 42.594C31.0911 42.7636 31.321 42.8588 31.5608 42.8588H33.5315C33.9179 42.8561 34.2968 42.9657 34.622 43.1744C34.9472 43.383 35.2048 43.6817 35.3634 44.034H31.5608C31.321 44.034 31.0911 44.1293 30.9215 44.2988C30.752 44.4684 30.6567 44.6983 30.6567 44.9381C30.6567 45.1778 30.752 45.4078 30.9215 45.5773C31.0911 45.7468 31.321 45.8421 31.5608 45.8421H35.3612C35.2582 46.031 35.1287 46.2042 34.9765 46.3563C34.7857 46.5428 34.5596 46.6893 34.3115 46.7873C34.0634 46.8853 33.7981 46.9327 33.5314 46.9269H31.5607C31.3792 46.9289 31.2024 46.9849 31.053 47.0878C30.9035 47.1908 30.7881 47.3359 30.7214 47.5047C30.6548 47.6735 30.64 47.8583 30.6789 48.0356C30.7178 48.2128 30.8086 48.3745 30.9398 48.4999L35.8569 53.149C35.9431 53.2305 36.0445 53.2943 36.1553 53.3367C36.2661 53.379 36.3841 53.3992 36.5027 53.3959C36.6213 53.3926 36.7381 53.366 36.8464 53.3176C36.9547 53.2692 37.0524 53.2 37.1339 53.1138C37.2155 53.0277 37.2793 52.9263 37.3216 52.8155C37.364 52.7047 37.3841 52.5866 37.3808 52.468C37.3776 52.3495 37.351 52.2327 37.3026 52.1244C37.2542 52.0161 37.1849 51.9184 37.0988 51.8368L33.8222 48.7405C34.7404 48.6805 35.6058 48.2896 36.2579 47.6402C36.7472 47.1393 37.0976 46.5196 37.2746 45.8421H38.439C38.6787 45.8421 38.9087 45.7468 39.0782 45.5773C39.2478 45.4078 39.343 45.1778 39.343 44.9381C39.343 44.6983 39.2478 44.4684 39.0782 44.2988C38.9087 44.1293 38.6787 44.034 38.439 44.034H37.274C37.1816 43.6176 37.0186 43.2201 36.7919 42.8588H38.439C38.6787 42.8588 38.9087 42.7636 39.0782 42.594C39.2478 42.4245 39.343 42.1946 39.343 41.9548Z" fill="#4475B3"/>
</g>
<defs>
<linearGradient id="paint0_linear_808_33093" x1="35.2261" y1="69.8428" x2="34.2925" y2="2.27242" gradientUnits="userSpaceOnUse">
<stop stop-color="#6A54A3"/>
<stop offset="1" stop-color="#00B1D2"/>
</linearGradient>
<clipPath id="clip0_808_33093">
<rect width="70" height="70" fill="white"/>
</clipPath>
</defs>
</svg>
