<svg width="71" height="71" viewBox="0 0 71 71" fill="none" xmlns="http://www.w3.org/2000/svg">
<g clip-path="url(#clip0_2905_18365)">
<path fill-rule="evenodd" clip-rule="evenodd" d="M35.5021 33.8767C38.0845 33.8764 40.609 34.6419 42.7564 36.0764C44.9038 37.5109 46.5775 39.5499 47.566 41.9357C48.5545 44.3214 48.8133 46.9468 48.3097 49.4796C47.8061 52.0125 46.5627 54.3391 44.7367 56.1652C42.9108 57.9914 40.5843 59.2351 38.0515 59.739C35.5187 60.243 32.8934 59.9845 30.5075 58.9963C28.1216 58.0081 26.0824 56.3346 24.6476 54.1874C23.2129 52.0402 22.4471 49.5158 22.4471 46.9334C22.4507 43.4719 23.8272 40.1533 26.2747 37.7055C28.7221 35.2578 32.0406 33.8808 35.5021 33.8767ZM35.5021 61.6307C38.4088 61.6303 41.2502 60.768 43.6669 59.1529C46.0836 57.5377 47.9671 55.2422 49.0793 52.5567C50.1914 49.8711 50.4822 46.916 49.915 44.0652C49.3477 41.2143 47.9478 38.5957 45.8923 36.5404C43.8369 34.4851 41.2181 33.0854 38.3672 32.5184C35.5163 31.9514 32.5612 32.2425 29.8758 33.3549C27.1903 34.4673 24.895 36.351 23.28 38.7679C21.6651 41.1848 20.8031 44.0262 20.803 46.933C20.8084 50.8297 22.3589 54.5653 25.1145 57.3205C27.8702 60.0756 31.6053 61.6259 35.5021 61.6307ZM27.2911 18.9002C12.2495 34.8068 5.40588 47.3988 6.96037 56.329C7.79244 61.0968 11.0885 64.9611 16.7709 67.8133C17.9062 68.402 19.1688 68.7022 20.4475 68.6874H50.6792C51.9746 68.7031 53.2535 68.3963 54.4008 67.7946C59.9926 64.9488 63.2375 61.1014 64.0502 56.3592C65.5918 47.3388 58.6127 34.6018 43.3002 18.5018C41.5692 19.4339 39.683 20.0435 37.7339 20.3007C38.5868 21.0237 39.2733 21.9226 39.7465 22.9357C40.2196 23.9488 40.4681 25.0522 40.4751 26.1703C40.4761 26.278 40.4559 26.3849 40.4157 26.4848C40.3754 26.5847 40.3158 26.6757 40.2403 26.7525C40.1648 26.8294 40.0749 26.8906 39.9758 26.9327C39.8766 26.9748 39.7701 26.9969 39.6624 26.9977H39.6565C39.4405 26.9975 39.2333 26.912 39.0799 26.7598C38.9265 26.6076 38.8393 26.4011 38.8373 26.1851C38.8291 25.0926 38.5295 24.0221 37.9693 23.0841C37.4091 22.1462 36.6087 21.3747 35.6507 20.8495V24.6887C35.6521 24.7972 35.6319 24.9048 35.5914 25.0054C35.5508 25.106 35.4907 25.1976 35.4145 25.2748C35.3383 25.352 35.2475 25.4133 35.1475 25.4551C35.0474 25.497 34.94 25.5185 34.8315 25.5185C34.723 25.5185 34.6157 25.497 34.5156 25.4551C34.4155 25.4133 34.3247 25.352 34.2485 25.2748C34.1723 25.1976 34.1122 25.106 34.0717 25.0054C34.0311 24.9048 34.011 24.7972 34.0124 24.6887V20.8018C33.0297 21.3178 32.2057 22.0912 31.6286 23.0393C31.0514 23.9874 30.7428 25.0745 30.7358 26.1844C30.7328 26.4001 30.6453 26.6061 30.4922 26.7581C30.339 26.91 30.1323 26.9958 29.9165 26.9971H29.9101C29.6919 26.9956 29.4831 26.9077 29.3296 26.7526C29.176 26.5975 29.0902 26.3879 29.0909 26.1696C29.1006 25.0342 29.3585 23.9147 29.8465 22.8895C30.3346 21.8643 31.0409 20.9582 31.9161 20.2348C30.3247 19.9852 28.7707 19.5372 27.2911 18.9002ZM23.0147 13.8234C21.6682 12.1772 20.7943 10.1961 20.4862 8.09172C20.4521 7.89688 20.4798 7.69626 20.5654 7.51793C20.651 7.33961 20.7902 7.19251 20.9635 7.09723C21.1135 7.00703 21.2852 6.95908 21.4602 6.95846C21.6789 6.95965 21.8906 7.03569 22.06 7.17393L23.8725 8.59225C24.334 8.95545 24.9042 9.15293 25.4915 9.15293C26.0788 9.15293 26.649 8.95545 27.1105 8.59225L30.6652 5.80524C30.8371 5.66713 31.051 5.59185 31.2715 5.59185C31.492 5.59185 31.7059 5.66713 31.8778 5.80524L35.4188 8.57871C35.8855 8.94702 36.4638 9.14523 37.0583 9.14066C37.6528 9.13608 38.228 8.929 38.689 8.55356L46.5517 2.1919C46.6765 2.09038 46.8243 2.02101 46.9821 1.98985C47.14 1.95869 47.303 1.96669 47.4571 2.01315C47.6111 2.05962 47.7514 2.14313 47.8657 2.25637C47.9799 2.36962 48.0647 2.50915 48.1126 2.66275C48.7518 4.68536 48.8633 6.83779 48.4366 8.91564C48.0099 10.9935 47.0591 12.9277 45.6745 14.5347C43.8749 16.6343 41.1916 18.0417 38.0633 18.5873C38.8185 17.8678 39.4211 17.0037 39.8354 16.0465C40.2498 15.0893 40.4673 14.0585 40.4751 13.0155C40.4761 12.9078 40.4559 12.8009 40.4157 12.701C40.3754 12.6011 40.3158 12.5101 40.2403 12.4332C40.1648 12.3564 40.075 12.2951 39.9758 12.2531C39.8766 12.211 39.7701 12.1888 39.6624 12.188H39.6565C39.4403 12.1882 39.233 12.2738 39.0796 12.4262C38.9262 12.5785 38.8391 12.7852 38.8373 13.0014C38.828 14.2554 38.4348 15.4763 37.7106 16.5C36.9864 17.5237 35.9659 18.3009 34.7866 18.7271C33.6066 18.302 32.5854 17.5251 31.8611 16.5011C31.1367 15.4772 30.744 14.2556 30.736 13.0014C30.7332 12.7856 30.6458 12.5794 30.4926 12.4273C30.3394 12.2752 30.1327 12.1893 29.9168 12.188H29.9104C29.6922 12.1895 29.4834 12.2775 29.3299 12.4326C29.1764 12.5877 29.0905 12.7973 29.0912 13.0155C29.1072 15.0685 29.9351 17.0317 31.3939 18.4762C30.0512 18.2083 28.7454 17.7806 27.5044 17.2022C27.463 17.1787 27.4199 17.1583 27.3755 17.141C25.6211 16.298 24.1176 15.1702 23.0147 13.8234ZM16.0292 69.2801C17.3959 69.9807 18.9118 70.3402 20.4475 70.328H50.6792C52.2324 70.3423 53.7652 69.9743 55.1427 69.2566C61.2186 66.1632 64.7597 61.9171 65.6628 56.6363C66.4948 51.8039 65.1015 46.0239 61.5347 39.4584C58.2322 33.3921 52.9754 26.4692 45.8932 18.8587C48.3838 18.7096 50.8723 19.1846 53.1328 20.2408C55.3933 21.2969 57.3544 22.9007 58.8382 24.9066C58.9153 25.01 59.0156 25.0938 59.1309 25.1515C59.2463 25.2091 59.3735 25.239 59.5025 25.2387C59.654 25.2379 59.8023 25.1952 59.9311 25.1154C60.0599 25.0355 60.164 24.9216 60.2321 24.7863C60.3002 24.6509 60.3295 24.4994 60.3169 24.3484C60.3042 24.1974 60.2501 24.0529 60.1604 23.9307C58.6869 21.9408 56.788 20.3046 54.6021 19.1414C52.4162 17.9783 49.9983 17.3174 47.5247 17.207C50.9563 15.2334 53.3943 11.6554 53.7555 7.73899C53.7755 7.52172 53.7083 7.30542 53.5687 7.13769C53.4292 6.96995 53.2288 6.86451 53.0115 6.84457C52.7942 6.82463 52.5779 6.89181 52.4102 7.03134C52.2425 7.17088 52.137 7.37132 52.1171 7.58859C51.8075 10.9446 49.7371 14.0155 46.8023 15.7351C46.841 15.6905 46.8797 15.6473 46.9184 15.6022C48.4855 13.7849 49.5619 11.597 50.0452 9.24638C50.5284 6.8958 50.4025 4.46068 49.6794 2.17248C49.5508 1.76383 49.3244 1.39276 49.0198 1.09158C48.7151 0.790392 48.3415 0.568202 47.9314 0.444338C47.5213 0.320473 47.0872 0.298686 46.6667 0.380871C46.2463 0.463057 45.8523 0.646725 45.519 0.915899L37.6565 7.27838C37.4847 7.42121 37.2687 7.50015 37.0453 7.50179C36.8219 7.50344 36.6048 7.42768 36.4309 7.2874L32.8899 4.51393C32.4283 4.15103 31.8581 3.95375 31.271 3.95375C30.6838 3.95375 30.1136 4.15103 29.652 4.51393L26.0979 7.30066C25.9259 7.43871 25.712 7.51396 25.4915 7.51396C25.271 7.51396 25.0571 7.43871 24.8852 7.30066L23.0725 5.88262C22.6597 5.55896 22.1592 5.36659 21.6358 5.33035C21.1125 5.29411 20.5903 5.41567 20.1367 5.67933C19.6832 5.94299 19.3191 6.33663 19.0917 6.80935C18.8642 7.28208 18.7837 7.81217 18.8606 8.33111C19.2137 10.7285 20.2102 12.9852 21.744 14.8612C22.8627 16.195 24.2215 17.3073 25.7499 18.1405C18.3261 26.0292 12.8497 33.1911 9.457 39.4382C5.89 46.003 4.50326 51.7803 5.34176 56.6101C6.26981 61.9186 9.86291 66.1808 16.0292 69.2801Z" fill="url(#paint0_linear_2905_18365)"/>
<path d="M39.8435 42.2829C39.8435 42.0432 39.7482 41.8132 39.5787 41.6437C39.4092 41.4742 39.1792 41.3789 38.9395 41.3789H32.0612C31.8215 41.3789 31.5915 41.4742 31.422 41.6437C31.2525 41.8132 31.1572 42.0432 31.1572 42.2829C31.1572 42.5227 31.2525 42.7526 31.422 42.9222C31.5915 43.0917 31.8215 43.1869 32.0612 43.1869H34.032C34.4184 43.1842 34.7973 43.2939 35.1225 43.5025C35.4477 43.7111 35.7053 44.0098 35.8639 44.3622H32.0612C31.8215 44.3622 31.5915 44.4574 31.422 44.6269C31.2525 44.7965 31.1572 45.0264 31.1572 45.2662C31.1572 45.5059 31.2525 45.7359 31.422 45.9054C31.5915 46.075 31.8215 46.1702 32.0612 46.1702H35.8617C35.7587 46.3591 35.6292 46.5323 35.477 46.6844C35.2862 46.8709 35.0601 47.0174 34.812 47.1154C34.5638 47.2134 34.2986 47.2609 34.0319 47.255H32.0612C31.8797 47.257 31.7029 47.3131 31.5535 47.416C31.404 47.5189 31.2886 47.664 31.2219 47.8328C31.1553 48.0016 31.1405 48.1864 31.1794 48.3637C31.2183 48.541 31.3091 48.7026 31.4403 48.828L36.3574 53.4771C36.4436 53.5587 36.545 53.6224 36.6558 53.6648C36.7666 53.7072 36.8846 53.7273 37.0032 53.724C37.1218 53.7207 37.2386 53.6942 37.3469 53.6458C37.4552 53.5974 37.5529 53.5281 37.6344 53.442C37.716 53.3558 37.7797 53.2544 37.8221 53.1436C37.8645 53.0328 37.8846 52.9147 37.8813 52.7962C37.8781 52.6776 37.8515 52.5608 37.8031 52.4525C37.7547 52.3442 37.6854 52.2465 37.5993 52.1649L34.3226 49.0687C35.2409 49.0086 36.1063 48.6177 36.7583 47.9683C37.2477 47.4674 37.5981 46.8477 37.7751 46.1702H38.9395C39.1792 46.1702 39.4092 46.075 39.5787 45.9054C39.7482 45.7359 39.8435 45.5059 39.8435 45.2662C39.8435 45.0264 39.7482 44.7965 39.5787 44.6269C39.4092 44.4574 39.1792 44.3622 38.9395 44.3622H37.7745C37.6821 43.9458 37.519 43.5483 37.2924 43.1869H38.9395C39.1792 43.1869 39.4092 43.0917 39.5787 42.9222C39.7482 42.7526 39.8435 42.5227 39.8435 42.2829Z" fill="url(#paint1_linear_2905_18365)"/>
</g>
<defs>
<linearGradient id="paint0_linear_2905_18365" x1="35.5003" y1="-1.23512" x2="35.5003" y2="70.5726" gradientUnits="userSpaceOnUse">
<stop stop-color="#00EFD1"/>
<stop offset="1" stop-color="#00ACEA"/>
</linearGradient>
<linearGradient id="paint1_linear_2905_18365" x1="35.5003" y1="41.1025" x2="35.5003" y2="53.7674" gradientUnits="userSpaceOnUse">
<stop stop-color="#00EFD1"/>
<stop offset="1" stop-color="#00ACEA"/>
</linearGradient>
<clipPath id="clip0_2905_18365">
<rect width="70" height="70" fill="white" transform="translate(0.5 0.328125)"/>
</clipPath>
</defs>
</svg>
