<svg width="70" height="71" viewBox="0 0 70 71" fill="none" xmlns="http://www.w3.org/2000/svg">
<path d="M41.4197 6.1767C41.4205 5.76844 41.3001 5.36912 41.0739 5.02928C40.8476 4.68944 40.5257 4.42436 40.1487 4.26758C39.7717 4.1108 39.3567 4.06937 38.9562 4.14854C38.5557 4.22771 38.1877 4.42391 37.8987 4.71232C37.6098 5.00072 37.4128 5.36837 37.3329 5.76873C37.253 6.16909 37.2936 6.58417 37.4497 6.96143C37.6057 7.33869 37.8702 7.66118 38.2096 7.88808C38.549 8.11498 38.9481 8.23609 39.3563 8.23609C39.9029 8.23602 40.427 8.01916 40.8139 7.63307C41.2007 7.24699 41.4186 6.72323 41.4197 6.1767ZM39.3563 6.59547C39.2737 6.59469 39.1931 6.56946 39.1248 6.52297C39.0564 6.47649 39.0034 6.41081 38.9723 6.33423C38.9412 6.25764 38.9335 6.17357 38.9501 6.0926C38.9667 6.01163 39.0069 5.93738 39.0656 5.87921C39.1243 5.82104 39.1989 5.78155 39.28 5.76571C39.3612 5.74987 39.4452 5.75839 39.5215 5.7902C39.5977 5.82201 39.6629 5.87568 39.7088 5.94446C39.7546 6.01324 39.7791 6.09404 39.7791 6.1767C39.7784 6.28825 39.7335 6.39499 39.6543 6.4735C39.575 6.552 39.4679 6.59587 39.3563 6.59547Z" fill="url(#paint0_linear_2905_1316)"/>
<path d="M19.3248 56.1408C19.3248 56.6596 19.7457 57.0804 20.2644 57.0804H23.4453C23.1358 57.5649 22.6018 57.8598 22.0268 57.8634H20.2644C19.8845 57.8482 19.5352 58.0727 19.3915 58.4244C19.2471 58.7761 19.3383 59.1811 19.619 59.4374L24.024 63.5909C24.4039 63.939 24.9936 63.917 25.3466 63.5414C25.6995 63.1658 25.6855 62.5761 25.3147 62.2183L22.5816 59.6576C23.9561 59.4129 25.0774 58.417 25.4824 57.0804H26.4232C26.9419 57.0804 27.3628 56.6596 27.3628 56.1408C27.3628 55.6221 26.9419 55.2013 26.4232 55.2013H25.4836C25.4346 54.9229 25.3307 54.6562 25.1783 54.4183H26.4238C26.9425 54.4183 27.3634 53.9974 27.3634 53.4787C27.3634 52.9599 26.9425 52.5391 26.4238 52.5391H20.2644C19.7457 52.5391 19.3248 52.9599 19.3248 53.4787C19.3248 53.9974 19.7457 54.4183 20.2644 54.4183H22.0268C22.6018 54.4219 23.1358 54.7168 23.4453 55.2013H20.2644C19.7457 55.2013 19.3248 55.6221 19.3248 56.1408Z" fill="url(#paint1_linear_2905_1316)"/>
<path d="M47.9883 67.3359H32.4618C33.498 66.6726 34.4098 65.8327 35.156 64.8545C36.1072 63.6298 36.7609 62.2009 37.0657 60.6804C37.3704 59.1599 37.3179 57.5894 36.9121 56.0927C36.8888 56.0067 36.8644 55.9203 36.839 55.8337C35.7841 52.2304 33.4268 49.4606 30.1479 47.9339C30.2083 47.7576 30.2394 47.5725 30.2397 47.3861V46.2766C30.2396 45.9955 30.17 45.7188 30.037 45.4711C29.9041 45.2234 29.7121 45.0123 29.4779 44.8568C29.9576 43.8191 30.5222 42.8228 31.166 41.8781C31.8973 40.8143 32.5605 40.3001 33.263 39.7555C33.5364 39.5431 33.8205 39.3234 34.1071 39.071C34.333 38.8762 34.498 38.6205 34.5824 38.3344C34.6669 38.0483 34.6672 37.7439 34.5833 37.4577C34.3736 36.7741 33.75 36.3727 32.9961 36.4349C32.3287 36.4896 31.4342 35.9707 30.7813 35.592C30.493 35.4143 30.1928 35.2565 29.8829 35.1198C28.2822 34.4805 27.2487 35.5635 26.8067 36.0261C26.6552 36.1848 26.1201 36.4765 25.864 36.5756C25.8316 36.5882 25.7988 36.5995 25.766 36.6089C25.002 36.8308 24.6039 36.7961 23.8886 36.1589C22.3068 34.7507 20.9259 35.4524 20.5405 35.7011C20.1362 35.962 19.9313 36.4112 19.7329 36.8456C19.6472 37.0429 19.551 37.2355 19.445 37.4226C19.414 37.4827 19.3741 37.5378 19.3266 37.5859C19.3151 37.5899 19.3033 37.5926 19.2913 37.5941C19.1449 37.6179 19.1145 37.6227 18.8237 37.4116L18.71 37.3279C18.067 36.8452 17.3684 36.4412 16.6292 36.1248C16.5989 36.1112 16.5646 36.0949 16.5271 36.0771C16.4145 36.0239 16.2743 35.9575 16.117 35.8966C15.4563 35.6421 14.0034 35.5849 13.29 35.7855C13.0972 35.8322 12.9142 35.9125 12.7493 36.0227C12.4327 36.2546 12.2038 36.5867 12.0996 36.9651C11.9839 37.3751 12.0024 37.8115 12.1525 38.2102C12.3025 38.609 12.5763 38.9493 12.9336 39.1813C13.9837 39.871 14.8977 40.7484 15.6297 41.7695C16.2565 42.6537 16.7547 43.6224 17.1094 44.6465C16.7616 44.7547 16.4575 44.9712 16.2414 45.2644C16.0253 45.5575 15.9085 45.9121 15.908 46.2763V47.3858C15.908 47.6629 15.9758 47.9357 16.1056 48.1805C14.1943 49.1376 10.9974 51.0672 9.54871 55.0262C9.47242 55.235 9.39982 55.448 9.33338 55.6592C8.85349 57.1754 8.74141 58.7841 9.00642 60.3522C9.27142 61.9203 9.9059 63.4028 10.8574 64.6772C11.6267 65.7304 12.5846 66.6319 13.6825 67.3359H6.13566V29.4812C6.13566 24.2143 10.5078 19.9294 15.8819 19.9294C21.2561 19.9294 25.6281 24.2143 25.6281 29.4812C25.6281 29.6988 25.7145 29.9075 25.8683 30.0613C26.0222 30.2151 26.2308 30.3016 26.4484 30.3016C26.6659 30.3016 26.8746 30.2151 27.0284 30.0613C27.1823 29.9075 27.2687 29.6988 27.2687 29.4812C27.2687 25.2879 24.9091 21.6279 21.4277 19.7109H22.6436C23.4451 19.712 24.2362 19.8927 24.9587 20.2397L25.4908 20.4964C27.0464 21.2506 28.7798 21.561 30.5004 21.3935C32.2211 21.2259 33.8621 20.587 35.243 19.5469C35.2609 19.5332 35.2784 19.5195 35.2952 19.5042L36.5803 18.3637C36.9797 18.0104 37.4425 17.736 37.9441 17.555L38.6017 19.7055C38.6531 19.8734 38.7571 20.0205 38.8983 20.125C39.0395 20.2295 39.2105 20.2858 39.3862 20.2858H45.601C45.7172 20.2858 45.8319 20.2611 45.9378 20.2135C46.0437 20.1658 46.1382 20.0961 46.2152 20.0092C46.2922 19.9222 46.3498 19.8199 46.3843 19.7091C46.4187 19.5982 46.4293 19.4812 46.4152 19.366L44.3429 2.43172C44.3186 2.23289 44.2224 2.04983 44.0725 1.91705C43.9225 1.78427 43.7291 1.71096 43.5288 1.71094H34.207C34.0788 1.71093 33.9523 1.74099 33.8378 1.79872C33.7232 1.85645 33.6238 1.94023 33.5475 2.04333C33.4713 2.14644 33.4202 2.26599 33.3985 2.3924C33.3768 2.51881 33.385 2.64854 33.4225 2.77119L34.593 6.59836L30.9426 8.89893C30.4863 9.14833 29.9527 9.2162 29.4485 9.08896C29.4316 9.08486 29.4145 9.08104 29.3973 9.07789L21.6377 7.65355C19.4789 7.26851 17.2537 7.58177 15.2852 8.54783C15.2503 8.56495 15.2168 8.58455 15.1848 8.60648L1.7649 17.7918C1.59208 17.9101 1.47105 18.0901 1.42664 18.2947C1.38223 18.4994 1.4178 18.7134 1.52606 18.8927C2.04777 19.7571 2.88221 20.3876 3.85631 20.6534C4.83041 20.9191 5.86942 20.7997 6.75787 20.32L6.81926 20.2871C7.2045 20.7009 7.6807 21.0194 8.21023 21.2176C7.04363 22.2554 6.10955 23.5282 5.46922 24.9523C4.82889 26.3764 4.49677 27.9198 4.49463 29.4812V67.3359H0.820312C0.602752 67.3359 0.394103 67.4224 0.240264 67.5762C0.0864259 67.73 0 67.9387 0 68.1562C0 68.3738 0.0864259 68.5825 0.240264 68.7363C0.394103 68.8901 0.602752 68.9766 0.820312 68.9766H47.9883C48.2058 68.9766 48.4145 68.8901 48.5683 68.7363C48.7222 68.5825 48.8086 68.3738 48.8086 68.1562C48.8086 67.9387 48.7222 67.73 48.5683 67.5762C48.4145 67.4224 48.2058 67.3359 47.9883 67.3359ZM42.8027 3.35156L44.6735 18.6452H39.9926L35.3153 3.35156H42.8027ZM3.43998 18.6333L16.0619 9.99404C17.7023 9.20248 19.5505 8.9483 21.3437 9.26766L29.0764 10.6872C29.9845 10.9088 30.9429 10.7784 31.7588 10.322C31.7717 10.3149 31.7842 10.3074 31.7967 10.2996L35.0898 8.22422L37.4631 15.9844C36.7364 16.2353 36.0662 16.6268 35.4907 17.1365L34.2315 18.2539C33.0919 19.1049 31.7402 19.6263 30.3243 19.761C28.9084 19.8958 27.4827 19.6388 26.203 19.0182L25.6709 18.7617C24.726 18.3077 23.6914 18.0714 22.6432 18.07H17.4818C16.8344 18.07 16.204 17.862 15.6837 17.4766C15.1634 17.0913 14.7807 16.549 14.5919 15.9297L18.0098 16.0839C19.3845 16.1455 20.7619 16.0821 22.1251 15.8944C22.2318 15.8797 22.3346 15.8441 22.4275 15.7897C22.5205 15.7352 22.6018 15.663 22.6669 15.5771C22.7319 15.4912 22.7794 15.3934 22.8066 15.2892C22.8339 15.1849 22.8403 15.0764 22.8256 14.9696C22.8109 14.8629 22.7753 14.7602 22.7208 14.6672C22.6664 14.5742 22.5942 14.4929 22.5083 14.4278C22.4224 14.3628 22.3246 14.3153 22.2204 14.2881C22.1161 14.2608 22.0076 14.2544 21.9008 14.2691C20.6366 14.4434 19.3591 14.5022 18.0842 14.4448L13.6819 14.2463C13.5711 14.2413 13.4605 14.2588 13.3568 14.2977C13.253 14.3367 13.1582 14.3962 13.0781 14.4728C12.998 14.5494 12.9342 14.6414 12.8906 14.7433C12.8471 14.8452 12.8246 14.9549 12.8246 15.0658C12.8246 15.1106 12.8267 15.1549 12.828 15.1993L12.3584 15.4454L5.98104 18.8753C5.58118 19.0913 5.12615 19.1836 4.67373 19.1405C4.2213 19.0974 3.79188 18.9209 3.43998 18.6333ZM13.1281 16.894L13.1873 16.8629C13.3122 17.1578 13.4672 17.4389 13.65 17.7018L9.97787 19.6743C9.49813 19.912 8.85965 19.8027 8.35775 19.4596L13.1281 16.894ZM17.7851 47.4517H17.6143C17.5969 47.4517 17.5802 47.4447 17.5679 47.4324C17.5556 47.4201 17.5487 47.4035 17.5487 47.3861V46.2766C17.5487 46.2592 17.5556 46.2425 17.5679 46.2302C17.5802 46.2179 17.5969 46.211 17.6143 46.211H28.3467H28.351H28.3537H28.5332C28.5506 46.211 28.5672 46.218 28.5795 46.2303C28.5917 46.2426 28.5987 46.2592 28.5987 46.2766V47.3861C28.5987 47.4034 28.5917 47.4201 28.5795 47.4324C28.5672 47.4447 28.5506 47.4516 28.5332 47.4517H17.7851ZM13.8489 37.8199C13.7825 37.781 13.7298 37.7224 13.6983 37.6522C13.6668 37.582 13.6581 37.5037 13.6732 37.4283C13.6785 37.4106 13.685 37.3934 13.6929 37.3768C13.7044 37.3732 13.7179 37.3692 13.7339 37.3647C14.1031 37.2605 15.1926 37.2987 15.5262 37.4272C15.6276 37.4663 15.7328 37.5162 15.8256 37.5601C15.8739 37.5829 15.918 37.6037 15.9569 37.6212C16.5888 37.89 17.1856 38.2347 17.7342 38.6477L17.8593 38.7396C18.2861 39.0495 18.7686 39.3411 19.5538 39.214C20.2817 39.0959 20.6445 38.6143 20.8541 38.2624C20.9913 38.0244 21.1151 37.779 21.225 37.5273C21.2926 37.3663 21.3716 37.2103 21.4613 37.0605C21.8533 36.8271 22.2906 36.9337 22.7969 37.3844C23.8906 38.3588 24.8515 38.5832 26.2238 38.1848C26.3 38.1626 26.3782 38.136 26.4562 38.1059C26.6685 38.0238 27.5516 37.6224 27.9934 37.1592C28.5573 36.5686 28.8206 36.4627 29.2737 36.6438C29.5084 36.7532 29.7367 36.8761 29.9573 37.0119C30.7059 37.4459 31.701 38.0228 32.7428 38.0758C32.5847 38.2047 32.4237 38.3295 32.2569 38.4586C31.522 39.0283 30.6891 39.6739 29.813 40.9484C29.0347 42.0917 28.3631 43.304 27.8065 44.5701H25.5778C25.6181 43.904 25.8003 42.9256 26.4582 42.1756C26.729 41.8693 27.052 41.6135 27.4121 41.4199C27.6033 41.3161 27.7453 41.1405 27.8071 40.9319C27.8688 40.7232 27.8451 40.4986 27.7412 40.3075C27.6898 40.2128 27.6202 40.1292 27.5364 40.0614C27.4527 39.9937 27.3564 39.9431 27.2531 39.9125C27.0445 39.8508 26.8199 39.8745 26.6287 39.9784C26.0984 40.2643 25.623 40.642 25.2246 41.094C24.2281 42.23 23.9786 43.6441 23.9347 44.5704H23.0781C22.7339 43.5433 22.0355 41.7907 21.6016 41.1064C21.4849 40.9228 21.3001 40.793 21.0877 40.7456C20.8754 40.6982 20.6529 40.7371 20.4693 40.8538C20.2856 40.9704 20.1558 41.1553 20.1084 41.3676C20.061 41.58 20.1 41.8024 20.2166 41.9861C20.5014 42.4345 21.0089 43.6669 21.3419 44.5701H18.8136C18.4006 43.2246 17.7742 41.9541 16.9585 40.8072C16.1117 39.6313 15.0576 38.6191 13.8489 37.8199ZM12.181 63.7071C11.383 62.64 10.8505 61.3983 10.6276 60.0846C10.4046 58.771 10.4976 57.4231 10.8988 56.1525C10.9579 55.9649 11.0219 55.7757 11.0902 55.5903C12.5184 51.6875 15.9176 50.0778 17.5511 49.3041C17.7198 49.2243 17.8637 49.1558 17.9904 49.0923H28.5332C28.5742 49.0923 28.6144 49.0889 28.6549 49.086C31.9621 50.3322 34.2475 52.8224 35.2641 56.2945C35.2864 56.3707 35.3078 56.4468 35.3283 56.5223C35.667 57.7758 35.71 59.0909 35.4537 60.3639C35.1975 61.6368 34.6491 62.8328 33.8517 63.8577C33.0259 64.9438 31.9592 65.8234 30.7356 66.427C29.5119 67.0306 28.1648 67.3417 26.8004 67.3359H19.354C17.9561 67.3439 16.5764 67.0189 15.3289 66.3879C14.0815 65.7569 13.0029 64.838 12.181 63.7071Z" fill="url(#paint2_linear_2905_1316)"/>
<defs>
<linearGradient id="paint0_linear_2905_1316" x1="39.3563" y1="4.01698" x2="39.3563" y2="8.25049" gradientUnits="userSpaceOnUse">
<stop stop-color="#00EFD1"/>
<stop offset="1" stop-color="#00ACEA"/>
</linearGradient>
<linearGradient id="paint1_linear_2905_1316" x1="23.3435" y1="52.2861" x2="23.3435" y2="63.8776" gradientUnits="userSpaceOnUse">
<stop stop-color="#00EFD1"/>
<stop offset="1" stop-color="#00ACEA"/>
</linearGradient>
<linearGradient id="paint2_linear_2905_1316" x1="24.4042" y1="0.204925" x2="24.4042" y2="69.2112" gradientUnits="userSpaceOnUse">
<stop stop-color="#00EFD1"/>
<stop offset="1" stop-color="#00ACEA"/>
</linearGradient>
</defs>
</svg>
