<svg width="72" height="72" viewBox="0 0 72 72" fill="none" xmlns="http://www.w3.org/2000/svg">
<circle cx="36" cy="36.3379" r="35" fill="white" stroke="#B6AAA7" stroke-opacity="0.47"/>
<path fill-rule="evenodd" clip-rule="evenodd" d="M27.0448 21.8844C26.7017 22.2418 26.5 22.7955 26.5 23.514V49.163C26.5 49.8815 26.7017 50.4352 27.0448 50.7927L27.1321 50.8762L41.73 36.508V36.169L27.1321 21.8008L27.0448 21.8844Z" fill="#00D7FE"/>
<path d="M46.5114 41.182L41.7314 36.5011V36.17L46.5138 31.4902L52.2868 34.6993C53.9045 35.5996 53.9045 37.0715 52.2868 37.9707L46.6215 41.1208L46.5114 41.182Z" fill="#F5F5F5"/>
<path fill-rule="evenodd" clip-rule="evenodd" d="M46.5114 41.182L41.7314 36.5011V36.17L46.5138 31.4902L52.2868 34.6993C53.9045 35.5996 53.9045 37.0715 52.2868 37.9707L46.6215 41.1208L46.5114 41.182Z" fill="url(#paint0_linear_795_669)"/>
<path d="M46.5765 41.3396L41.6704 36.3379L27.1929 51.0976C27.7288 51.6748 28.6124 51.7459 29.6075 51.1699L46.5765 41.3396Z" fill="#F5F5F5"/>
<path fill-rule="evenodd" clip-rule="evenodd" d="M46.5765 41.3396L41.6704 36.3379L27.1929 51.0976C27.7288 51.6748 28.6124 51.7459 29.6075 51.1699L46.5765 41.3396Z" fill="url(#paint1_linear_795_669)"/>
<path d="M46.5765 31.3357L29.6075 21.5054C28.6124 20.9294 27.7288 21.0005 27.1929 21.5777L41.6704 36.3374L46.5765 31.3357Z" fill="#F5F5F5"/>
<path fill-rule="evenodd" clip-rule="evenodd" d="M46.5765 31.3357L29.6075 21.5054C28.6124 20.9294 27.7288 21.0005 27.1929 21.5777L41.6704 36.3374L46.5765 31.3357Z" fill="url(#paint2_linear_795_669)"/>
<defs>
<linearGradient id="paint0_linear_795_669" x1="51.2344" y1="36.3359" x2="41.7314" y2="36.3359" gradientUnits="userSpaceOnUse">
<stop stop-color="#FFBC00"/>
<stop offset="1" stop-color="#FFDA03"/>
</linearGradient>
<linearGradient id="paint1_linear_795_669" x1="43.9102" y1="41.0442" x2="31.273" y2="51.2615" gradientUnits="userSpaceOnUse">
<stop stop-color="#E22652"/>
<stop offset="1" stop-color="#FF3A44"/>
</linearGradient>
<linearGradient id="paint2_linear_795_669" x1="29.3851" y1="23.3546" x2="37.8208" y2="30.6303" gradientUnits="userSpaceOnUse">
<stop stop-color="#0ED574"/>
<stop offset="1" stop-color="#07F076"/>
</linearGradient>
</defs>
</svg>
