<svg width="70" height="70" viewBox="0 0 70 70" fill="none" xmlns="http://www.w3.org/2000/svg">
<g clip-path="url(#clip0_2905_1961)">
<path d="M63.8613 36.7211V33.1667C64.0101 27.0493 58.9685 22.0938 52.8488 22.0938H49.4141C45.0182 22.1118 41.0343 24.6846 39.2089 28.6836C37.5229 27.6869 35.6022 27.1586 33.6436 27.1522H30.1927C28.2394 27.1545 26.321 27.6753 24.6344 28.6609C22.8258 24.673 18.8565 22.1071 14.4774 22.0938H11.059C4.95734 22.0926 0.00755514 27.0348 0 33.1365C0 33.1545 0.035451 33.1533 0.035451 33.1713V43.8932C0.035451 44.5505 0.496896 45.1544 1.15419 45.1544H19.0791V49.1371C19.0855 49.8049 19.6207 50.3471 20.2879 50.3616H37.7379C38.2534 58.8925 45.3239 65.5457 53.8705 65.5428C62.7827 65.5428 70.0001 58.284 70.0001 49.3719C69.9885 44.4401 67.7284 39.7821 63.8613 36.7211ZM49.4141 24.4742H52.8465C55.1461 24.4742 57.3511 25.3919 58.972 27.0232C60.5928 28.6545 61.496 30.8653 61.4808 33.1649V35.1438C59.1388 33.86 56.509 33.1917 53.8374 33.2016C50.4939 33.1981 47.233 34.2401 44.5114 36.1829C44.0721 33.8629 42.8993 31.7457 41.1662 30.1423C42.4901 26.7384 45.7615 24.4899 49.4141 24.4742ZM2.4159 42.7739V33.1341C2.4066 30.8374 3.3138 28.6313 4.93641 27.0058C6.55961 25.3797 8.76397 24.4684 11.0607 24.4742H14.4757C18.1085 24.4835 21.3619 26.7251 22.6648 30.1161C22.562 30.2109 22.4504 30.2963 22.3504 30.3957C20.2553 32.4629 19.0767 35.2839 19.0791 38.2275V42.7739H2.4159ZM21.4595 38.2298C21.4764 33.4183 25.3835 29.5286 30.1944 29.5327H33.6419C38.3761 29.5513 42.2332 33.3393 42.3373 38.0723C39.7069 40.7422 38.0919 44.2472 37.7711 47.9812H21.4595V38.2298ZM53.8705 63.1455C46.259 63.1455 40.0888 56.9753 40.0888 49.3638C40.0888 41.7522 46.259 35.582 53.8705 35.582C61.482 35.582 67.6522 41.7522 67.6522 49.3638C67.6441 56.9712 61.4785 63.1368 53.8705 63.1455Z" fill="url(#paint0_linear_2905_1961)"/>
<path d="M59.697 49.4663H54.1905V41.8699C54.1905 41.212 53.6576 40.6797 53.0003 40.6797C52.343 40.6797 51.8101 41.212 51.8101 41.8699V50.6095C51.824 51.2836 52.3645 51.8276 53.0381 51.8468H59.697C60.3543 51.8468 60.8873 51.3138 60.8873 50.6565C60.8873 49.9992 60.3543 49.4663 59.697 49.4663Z" fill="url(#paint1_linear_2905_1961)"/>
<path d="M31.907 25.5127H31.9169C36.2721 25.5098 39.8004 21.9775 39.7975 17.6228C39.7946 13.2675 36.2623 9.73928 31.9076 9.74219H31.9035C27.5489 9.74277 24.0194 13.2739 24.02 17.6292C24.0212 21.9838 27.5523 25.5133 31.907 25.5127ZM27.9888 13.7354C29.0273 12.6945 30.4401 12.1133 31.9105 12.1226H31.9134C33.3814 12.1174 34.7913 12.6974 35.831 13.7348C36.8702 14.7716 37.4536 16.1803 37.4519 17.6484C37.4507 19.1111 36.8649 20.5129 35.8258 21.5427C34.7867 22.572 33.3791 23.1444 31.9163 23.1322H31.907C29.673 23.1485 27.6511 21.8118 26.7916 19.7498C25.9321 17.6879 26.4051 15.3109 27.9888 13.7354Z" fill="url(#paint2_linear_2905_1961)"/>
<path d="M51.0404 20.4583H51.1497C53.2529 20.3096 55.2242 19.5779 56.701 18.0802C58.9431 15.7939 59.5981 12.3865 58.3637 9.43189C57.1287 6.47725 54.2438 4.54952 51.0416 4.53906H51.0375C46.6707 4.53906 43.1197 8.13182 43.1221 12.5051C43.1238 16.8708 46.6753 20.4583 51.0404 20.4583ZM51.0451 6.91951H51.0474C53.2849 6.94044 55.294 8.29339 56.1553 10.3583C57.0171 12.4231 56.5644 14.803 55.0057 16.4076C53.9916 17.4618 52.5956 18.0639 51.1328 18.0779H51.0416C47.9603 18.0767 45.463 15.5783 45.4642 12.497C45.4647 9.41562 47.9638 6.91835 51.0451 6.91951Z" fill="url(#paint3_linear_2905_1961)"/>
<path d="M12.7731 20.4583H12.7771C17.1364 20.4583 20.5671 16.9248 20.7158 12.4946V12.4662C20.7019 8.08766 17.1515 4.54429 12.7731 4.53906H12.769C8.40269 4.53906 4.85119 8.13182 4.85352 12.5063C4.85642 16.8714 8.40792 20.4583 12.7731 20.4583ZM12.7765 6.91951H12.7789C15.8346 6.92649 18.3098 9.40051 18.3179 12.4563C18.254 15.5713 15.8218 18.0122 12.7765 18.0122C12.7754 18.0122 12.7742 18.014 12.7731 18.014C9.72019 17.9971 7.25489 15.5173 7.25605 12.465C7.25721 9.41213 9.72426 6.93404 12.7765 6.91951Z" fill="url(#paint4_linear_2905_1961)"/>
</g>
<defs>
<linearGradient id="paint0_linear_2905_1961" x1="34.9999" y1="21.121" x2="34.9999" y2="65.6943" gradientUnits="userSpaceOnUse">
<stop stop-color="#00EFD1"/>
<stop offset="1" stop-color="#00ACEA"/>
</linearGradient>
<linearGradient id="paint1_linear_2905_1961" x1="56.3486" y1="40.4297" x2="56.3486" y2="51.8857" gradientUnits="userSpaceOnUse">
<stop stop-color="#00EFD1"/>
<stop offset="1" stop-color="#00ACEA"/>
</linearGradient>
<linearGradient id="paint2_linear_2905_1961" x1="31.9087" y1="9.3891" x2="31.9087" y2="25.5677" gradientUnits="userSpaceOnUse">
<stop stop-color="#00EFD1"/>
<stop offset="1" stop-color="#00ACEA"/>
</linearGradient>
<linearGradient id="paint3_linear_2905_1961" x1="51.0508" y1="4.18265" x2="51.0508" y2="20.5139" gradientUnits="userSpaceOnUse">
<stop stop-color="#00EFD1"/>
<stop offset="1" stop-color="#00ACEA"/>
</linearGradient>
<linearGradient id="paint4_linear_2905_1961" x1="12.7846" y1="4.18265" x2="12.7846" y2="20.5139" gradientUnits="userSpaceOnUse">
<stop stop-color="#00EFD1"/>
<stop offset="1" stop-color="#00ACEA"/>
</linearGradient>
<clipPath id="clip0_2905_1961">
<rect width="70" height="70" fill="white"/>
</clipPath>
</defs>
</svg>
