<svg width="71" height="71" viewBox="0 0 71 71" fill="none" xmlns="http://www.w3.org/2000/svg">
<path d="M23.3748 39.1613H47.6076C47.7655 39.1616 47.9218 39.1305 48.0676 39.0699C48.2134 39.0093 48.3457 38.9204 48.4568 38.8083C48.568 38.6962 48.6558 38.5632 48.7151 38.4169C48.7745 38.2706 48.8042 38.114 48.8026 37.9561V18.6515C48.8026 17.9831 48.2762 17.3789 47.6076 17.3789H45.4747V14.0102C45.4858 12.665 45.2281 11.3312 44.7166 10.0869C44.2052 8.84269 43.4504 7.71315 42.4965 6.76459C41.5869 5.8519 40.506 5.12788 39.3158 4.63409C38.1256 4.14031 36.8496 3.88649 35.5611 3.88721C35.5331 3.88721 35.5408 3.88721 35.5127 3.88721C29.9763 3.88721 25.5076 8.42837 25.5076 14.0102V17.3789H23.3748C22.7065 17.3789 22.1798 17.9831 22.1798 18.6515V37.9561C22.1781 38.114 22.2079 38.2706 22.2672 38.4169C22.3266 38.5632 22.4144 38.6962 22.5255 38.8083C22.6367 38.9204 22.769 39.0093 22.9148 39.0699C23.0605 39.1305 23.2169 39.1616 23.3748 39.1613ZM27.9279 14.0102C27.9279 9.76284 31.3177 6.30747 35.5301 6.30732C36.5104 6.29844 37.4825 6.4864 38.3888 6.86006C39.2952 7.23373 40.1173 7.78549 40.8065 8.48268C41.5309 9.20759 42.1029 10.0701 42.489 11.0193C42.875 11.9686 43.0673 12.9855 43.0545 14.0102V17.3789H27.9279V14.0102ZM24.6 19.7992H46.3823V36.741H24.6V19.7992Z" fill="url(#paint0_linear_742_4597)"/>
<path d="M35.34 26.8882C35.0191 26.8882 34.7113 27.0157 34.4843 27.2426C34.2574 27.4696 34.1299 27.7774 34.1299 28.0983V30.9734C34.1299 31.2944 34.2574 31.6022 34.4843 31.8291C34.7113 32.0561 35.0191 32.1836 35.34 32.1836C35.661 32.1836 35.9688 32.0561 36.1957 31.8291C36.4226 31.6022 36.5501 31.2944 36.5501 30.9734V28.0983C36.5501 27.7774 36.4226 27.4696 36.1957 27.2426C35.9688 27.0157 35.661 26.8882 35.34 26.8882Z" fill="url(#paint1_linear_742_4597)"/>
<path d="M69.8291 43.3967C69.8291 43.0757 69.7016 42.7679 69.4746 42.541C69.2477 42.314 68.9399 42.1865 68.6189 42.1865H2.21306C1.89211 42.1865 1.58431 42.314 1.35737 42.541C1.13043 42.7679 1.00293 43.0757 1.00293 43.3967V66.8429C1.00293 67.1639 1.13043 67.4717 1.35737 67.6986C1.58431 67.9256 1.89211 68.053 2.21306 68.053H68.6189C68.9399 68.053 69.2477 67.9256 69.4746 67.6986C69.7016 67.4717 69.8291 67.1639 69.8291 66.8429V43.3967ZM67.5601 65.6328H3.42319V44.6068H67.5601V65.6328Z" fill="url(#paint2_linear_742_4597)"/>
<path d="M27.0677 55.2281L24.7198 57.576C24.4993 57.8042 24.3773 58.1099 24.38 58.4271C24.3827 58.7444 24.5099 59.048 24.7342 59.2724C24.9585 59.4968 25.262 59.6241 25.5793 59.6269C25.8966 59.6297 26.2023 59.5078 26.4306 59.2874L28.7787 56.9395L31.1265 59.2874C31.3534 59.5144 31.6613 59.6419 31.9822 59.6419C32.3032 59.6419 32.611 59.5145 32.838 59.2875C33.065 59.0606 33.1925 58.7527 33.1925 58.4318C33.1925 58.1108 33.065 57.803 32.8381 57.576L30.4906 55.2281L32.9574 52.7614C33.0738 52.6499 33.1668 52.5163 33.2308 52.3685C33.2949 52.2206 33.3288 52.0614 33.3305 51.9003C33.3322 51.7392 33.3017 51.5793 33.2408 51.4301C33.1799 51.2809 33.0899 51.1454 32.9759 51.0315C32.8619 50.9175 32.7263 50.8275 32.5771 50.7667C32.4279 50.7059 32.268 50.6755 32.1069 50.6773C31.9457 50.6791 31.7866 50.7131 31.6388 50.7772C31.4909 50.8414 31.3574 50.9344 31.246 51.0508L28.7793 53.5165L26.3126 51.0508C26.0852 50.8262 25.7781 50.7006 25.4585 50.7016C25.1388 50.7025 24.8325 50.8299 24.6064 51.0559C24.3804 51.282 24.2529 51.5883 24.252 51.9079C24.251 52.2276 24.3765 52.5347 24.6012 52.7621L27.0677 55.2281Z" fill="url(#paint3_linear_742_4597)"/>
<path d="M13.644 55.2282L11.2961 57.5762C11.0691 57.8031 10.9416 58.1109 10.9416 58.4319C10.9416 58.7528 11.0691 59.0606 11.2961 59.2876C11.523 59.5145 11.8308 59.642 12.1518 59.642C12.4728 59.642 12.7806 59.5145 13.0075 59.2876L15.3556 56.9396L17.7031 59.2876C17.8155 59.4 17.9489 59.4891 18.0957 59.5499C18.2426 59.6108 18.3999 59.6421 18.5588 59.6421C18.7178 59.6421 18.8751 59.6108 19.022 59.55C19.1688 59.4892 19.3022 59.4 19.4146 59.2877C19.527 59.1753 19.6161 59.0419 19.677 58.895C19.7378 58.7482 19.7691 58.5908 19.7691 58.4319C19.7691 58.273 19.7378 58.1156 19.677 57.9688C19.6162 57.822 19.5271 57.6885 19.4147 57.5762L17.0666 55.2282L19.5334 52.7615C19.7514 52.5328 19.8713 52.2279 19.8675 51.912C19.8636 51.596 19.7364 51.2941 19.5129 51.0707C19.2895 50.8474 18.9875 50.7203 18.6716 50.7166C18.3556 50.7129 18.0508 50.8329 17.8222 51.051L15.3556 53.5166L12.8889 51.051C12.6604 50.8322 12.3553 50.7115 12.039 50.7149C11.7227 50.7183 11.4202 50.8454 11.1965 51.0691C10.9727 51.2927 10.8454 51.5951 10.8419 51.9114C10.8383 52.2278 10.9588 52.5329 11.1775 52.7615L13.644 55.2282Z" fill="url(#paint4_linear_742_4597)"/>
<path d="M40.4925 55.2278L38.1444 57.5758C37.9174 57.8028 37.7899 58.1106 37.7899 58.4315C37.79 58.7525 37.9175 59.0603 38.1444 59.2873C38.3714 59.5142 38.6792 59.6417 39.0002 59.6417C39.3212 59.6417 39.629 59.5142 39.8559 59.2872L42.2037 56.9393L44.5525 59.2872C44.6648 59.3996 44.7982 59.4887 44.9451 59.5495C45.0919 59.6104 45.2493 59.6417 45.4082 59.6417C45.5671 59.6417 45.7245 59.6104 45.8713 59.5495C46.0181 59.4887 46.1515 59.3996 46.2639 59.2872C46.3763 59.1748 46.4654 59.0414 46.5262 58.8946C46.587 58.7478 46.6183 58.5904 46.6183 58.4315C46.6183 58.2726 46.587 58.1152 46.5262 57.9684C46.4654 57.8216 46.3763 57.6882 46.2639 57.5758L43.9159 55.2278L46.3825 52.7611C46.6051 52.5332 46.7289 52.2267 46.727 51.9081C46.7251 51.5895 46.5976 51.2846 46.3722 51.0594C46.1468 50.8342 45.8417 50.707 45.5231 50.7053C45.2045 50.7037 44.8981 50.8278 44.6704 51.0506L42.2037 53.5162L39.7371 51.0506C39.6249 50.9371 39.4915 50.8469 39.3444 50.7852C39.1973 50.7234 39.0394 50.6914 38.8799 50.6909C38.7203 50.6904 38.5623 50.7215 38.4148 50.7823C38.2673 50.8431 38.1333 50.9325 38.0205 51.0453C37.9077 51.1581 37.8183 51.2921 37.7575 51.4396C37.6966 51.5871 37.6655 51.7451 37.666 51.9047C37.6665 52.0642 37.6985 52.2221 37.7602 52.3692C37.8219 52.5163 37.9121 52.6498 38.0256 52.7619L40.4925 55.2278Z" fill="url(#paint5_linear_742_4597)"/>
<path d="M53.9166 55.2278L51.5685 57.5757C51.4561 57.6881 51.367 57.8216 51.3062 57.9684C51.2454 58.1153 51.2141 58.2727 51.2141 58.4316C51.2142 58.7526 51.3417 59.0604 51.5687 59.2874C51.7957 59.5143 52.1036 59.6418 52.4246 59.6418C52.7456 59.6417 53.0534 59.5142 53.2804 59.2871L55.6282 56.9392L57.9763 59.2871C58.2032 59.5141 58.511 59.6416 58.832 59.6416C59.1529 59.6416 59.4608 59.5141 59.6877 59.2871C59.9147 59.0602 60.0422 58.7524 60.0422 58.4314C60.0422 58.1105 59.9147 57.8027 59.6877 57.5757L57.3398 55.2278L59.8063 52.7611C60.0267 52.5328 60.1485 52.227 60.1456 51.9097C60.1428 51.5924 60.0154 51.289 59.791 51.0647C59.5665 50.8404 59.263 50.7132 58.9457 50.7106C58.6284 50.7079 58.3227 50.83 58.0946 51.0505L55.6279 53.5162L53.1613 51.0505C53.05 50.9338 52.9165 50.8404 52.7686 50.776C52.6206 50.7115 52.4613 50.6773 52.3 50.6754C52.1387 50.6734 51.9786 50.7038 51.8291 50.7646C51.6797 50.8254 51.5439 50.9155 51.4298 51.0295C51.3157 51.1436 51.2256 51.2793 51.1647 51.4287C51.1038 51.5782 51.0734 51.7382 51.0753 51.8996C51.0772 52.0609 51.1113 52.2202 51.1757 52.3682C51.24 52.5161 51.3333 52.6497 51.4501 52.7611L53.9166 55.2278Z" fill="url(#paint6_linear_742_4597)"/>
<defs>
<linearGradient id="paint0_linear_742_4597" x1="35.4912" y1="0.285864" x2="35.4912" y2="70.318" gradientUnits="userSpaceOnUse">
<stop stop-color="#00EFD1"/>
<stop offset="1" stop-color="#00ACEA"/>
</linearGradient>
<linearGradient id="paint1_linear_742_4597" x1="35.34" y1="0.285762" x2="35.34" y2="70.3179" gradientUnits="userSpaceOnUse">
<stop stop-color="#00EFD1"/>
<stop offset="1" stop-color="#00ACEA"/>
</linearGradient>
<linearGradient id="paint2_linear_742_4597" x1="35.416" y1="0.285786" x2="35.416" y2="70.318" gradientUnits="userSpaceOnUse">
<stop stop-color="#00EFD1"/>
<stop offset="1" stop-color="#00ACEA"/>
</linearGradient>
<linearGradient id="paint3_linear_742_4597" x1="28.7793" y1="0.285984" x2="28.7793" y2="70.318" gradientUnits="userSpaceOnUse">
<stop stop-color="#00EFD1"/>
<stop offset="1" stop-color="#00ACEA"/>
</linearGradient>
<linearGradient id="paint4_linear_742_4597" x1="15.3555" y1="0.286068" x2="15.3555" y2="70.3182" gradientUnits="userSpaceOnUse">
<stop stop-color="#00EFD1"/>
<stop offset="1" stop-color="#00ACEA"/>
</linearGradient>
<linearGradient id="paint5_linear_742_4597" x1="42.2038" y1="0.285617" x2="42.2038" y2="70.3179" gradientUnits="userSpaceOnUse">
<stop stop-color="#00EFD1"/>
<stop offset="1" stop-color="#00ACEA"/>
</linearGradient>
<linearGradient id="paint6_linear_742_4597" x1="55.628" y1="0.285554" x2="55.628" y2="70.3178" gradientUnits="userSpaceOnUse">
<stop stop-color="#00EFD1"/>
<stop offset="1" stop-color="#00ACEA"/>
</linearGradient>
</defs>
</svg>
