<svg width="71" height="71" viewBox="0 0 71 71" fill="none" xmlns="http://www.w3.org/2000/svg">
<g clip-path="url(#clip0_742_4605)">
<path d="M60.414 19.939C60.3925 18.8362 60.3726 17.794 60.3603 16.7631C60.3533 16.1771 59.888 15.6995 59.3026 15.678C49.9332 15.3303 42.5897 12.5499 36.1913 6.92905C35.7764 6.56467 35.1555 6.56467 34.7407 6.92905C28.3417 12.5504 20.9982 15.3303 11.6294 15.678C11.0439 15.7 10.5786 16.1777 10.5716 16.7637C10.5588 17.7946 10.5394 18.8362 10.518 19.9396L10.5169 20.0206C10.3548 28.4299 10.1729 37.9613 13.2978 46.4398C16.8037 55.9519 23.9331 62.5312 35.0927 66.5523C35.3337 66.6393 35.5972 66.6393 35.8376 66.5523C46.9972 62.5312 54.1266 55.9525 57.6325 46.4398C60.7574 37.9613 60.5755 28.4299 60.4145 20.0206L60.414 19.939ZM55.5702 45.6799C52.3412 54.4407 45.7629 60.5499 35.4652 64.3483C25.1674 60.5499 18.5892 54.4407 15.3602 45.6799C12.3791 37.5894 12.5562 28.278 12.7134 20.0619L12.715 19.9809C12.7284 19.2403 12.7424 18.5276 12.7537 17.8257C17.2857 17.5692 21.3304 16.7476 25.0896 15.3228C28.8708 13.8872 32.3794 11.8179 35.4652 9.20337C38.5509 11.8179 42.0595 13.8872 45.8407 15.3228C49.6 16.7476 53.6441 17.5692 58.1767 17.8257C58.1879 18.5276 58.2014 19.2408 58.2153 19.9809L58.2169 20.0625C58.3742 28.278 58.5518 37.5894 55.5702 45.6799Z" fill="url(#paint0_linear_742_4605)"/>
<path d="M64.4534 14.7527V12.6919C64.4534 12.085 63.9763 11.5317 63.3693 11.5317H61.3086C56.2722 11.5317 51.9468 10.8507 48.0851 9.38671C44.2652 7.93884 40.8553 5.75038 37.6612 2.66519L36.2294 1.28976C35.8022 0.879762 35.1271 0.881372 34.7021 1.29405L33.2703 2.64802C26.9754 8.72878 19.4608 11.5317 9.62291 11.5317H7.56218C6.95523 11.5317 6.47815 12.085 6.47815 12.6919V14.7527C6.47815 16.4125 6.43682 18.1266 6.40302 19.9415C6.23558 28.7146 6.04185 38.6587 9.43508 47.865C13.4648 58.7992 21.6412 66.265 34.4354 70.6897L35.1084 70.9231C35.3413 71.0036 35.5935 71.0036 35.8264 70.9231L36.4993 70.6897C49.293 66.265 57.471 58.7992 61.5007 47.865C64.8945 38.6587 64.6965 28.7146 64.529 19.941C64.4947 18.126 64.4534 16.4125 64.4534 14.7527ZM59.4379 47.1051C55.6502 57.3808 47.9112 64.4163 35.7808 68.6123L35.4663 68.7207L35.1518 68.6123C23.0203 64.4163 15.2819 57.3813 11.4947 47.1051C8.24479 38.2868 8.43799 28.5628 8.60167 19.9834C8.63655 18.1577 8.67733 16.4334 8.67733 14.7527V13.7298H9.62398C20.0682 13.7298 28.0675 10.7326 34.7987 4.2306L35.4658 3.60111L36.1339 4.25367C39.547 7.55084 43.2016 9.88258 47.3058 11.4389C51.4209 12.9984 56.0017 13.7298 61.3086 13.7298H62.2553V14.7527C62.2553 16.4334 62.2966 18.1577 62.3309 19.9834C62.4946 28.5628 62.6878 38.2868 59.4379 47.1051Z" fill="url(#paint1_linear_742_4605)"/>
<path d="M44.3958 33.3322V28.8914C44.3948 26.5543 43.4202 24.3235 41.7061 22.735C40.0216 21.1374 37.7773 20.2648 35.4563 20.3045C30.5401 20.3088 26.5362 24.1593 26.5362 28.8914V33.3322C24.7706 33.6826 23.5019 35.2373 23.5138 37.0372V47.8748C23.5138 49.9672 25.2171 51.6475 27.3878 51.6475H43.5442C45.7149 51.6475 47.4182 49.9672 47.4182 47.8748V37.0372C47.43 35.2373 46.1614 33.6821 44.3958 33.3322ZM28.7343 28.8914C28.7343 25.3683 31.7583 22.5225 35.466 22.5225H35.4821C37.23 22.5021 38.9183 23.1541 40.1982 24.3444C41.4695 25.5154 42.1945 27.1634 42.1977 28.8914V33.2383H28.7343V28.8914ZM45.2201 47.8748C45.2201 48.7544 44.5021 49.4494 43.5442 49.4494H27.3878C26.4299 49.4494 25.7119 48.7549 25.7119 47.8748V37.0372C25.7119 36.1582 26.4299 35.4364 27.3878 35.4364H43.5442C44.5021 35.4364 45.2201 36.1577 45.2201 37.0372V47.8748Z" fill="url(#paint2_linear_742_4605)"/>
<path d="M35.4658 39.9399C33.8821 39.9399 32.5947 41.1887 32.5947 42.7235C32.6055 43.8618 33.3069 44.8793 34.3667 45.2941V46.7699C34.3667 47.3768 34.8589 47.8689 35.4658 47.8689C36.0728 47.8689 36.5649 47.3768 36.5649 46.7699V45.2941C37.6247 44.8793 38.3261 43.8618 38.3369 42.7235C38.3369 41.1887 37.0489 39.9399 35.4658 39.9399ZM35.4658 43.3085C35.095 43.3085 34.7928 43.0461 34.7928 42.7235C34.7928 42.4005 35.095 42.1381 35.4658 42.1381C35.8366 42.1381 36.1388 42.4005 36.1388 42.7235C36.1388 43.0461 35.8366 43.3085 35.4658 43.3085Z" fill="url(#paint3_linear_742_4605)"/>
</g>
<defs>
<linearGradient id="paint0_linear_742_4605" x1="35.4652" y1="3.66934" x2="35.4652" y2="68.3881" gradientUnits="userSpaceOnUse">
<stop stop-color="#00EFD1"/>
<stop offset="1" stop-color="#00ACEA"/>
</linearGradient>
<linearGradient id="paint1_linear_742_4605" x1="35.4661" y1="3.66916" x2="35.4661" y2="68.3879" gradientUnits="userSpaceOnUse">
<stop stop-color="#00EFD1"/>
<stop offset="1" stop-color="#00ACEA"/>
</linearGradient>
<linearGradient id="paint2_linear_742_4605" x1="35.466" y1="3.66938" x2="35.466" y2="68.3881" gradientUnits="userSpaceOnUse">
<stop stop-color="#00EFD1"/>
<stop offset="1" stop-color="#00ACEA"/>
</linearGradient>
<linearGradient id="paint3_linear_742_4605" x1="35.4657" y1="3.66936" x2="35.4657" y2="68.3881" gradientUnits="userSpaceOnUse">
<stop stop-color="#00EFD1"/>
<stop offset="1" stop-color="#00ACEA"/>
</linearGradient>
<clipPath id="clip0_742_4605">
<rect width="70" height="70" fill="white" transform="translate(0.484375 0.983398)"/>
</clipPath>
</defs>
</svg>
