<svg width="50" height="50" viewBox="0 0 50 50" fill="none" xmlns="http://www.w3.org/2000/svg">
<path d="M17.0576 37.1855C16.1595 37.1855 15.2815 37.4519 14.5348 37.9508C13.788 38.4498 13.206 39.159 12.8623 39.9888C12.5186 40.8186 12.4286 41.7316 12.6039 42.6125C12.7791 43.4933 13.2116 44.3025 13.8466 44.9375C14.4817 45.5726 15.2908 46.0051 16.1717 46.1803C17.0526 46.3555 17.9656 46.2656 18.7954 45.9219C19.6252 45.5782 20.3344 44.9962 20.8333 44.2494C21.3323 43.5026 21.5986 42.6247 21.5986 41.7266C21.5974 40.5226 21.1185 39.3683 20.2672 38.517C19.4159 37.6656 18.2616 37.1868 17.0576 37.1855ZM17.0576 44.3137C16.5458 44.3137 16.0454 44.1619 15.6199 43.8775C15.1943 43.5932 14.8626 43.189 14.6667 42.7161C14.4708 42.2432 14.4196 41.7229 14.5195 41.2209C14.6193 40.7189 14.8658 40.2578 15.2277 39.8959C15.5896 39.5339 16.0507 39.2875 16.5527 39.1876C17.0547 39.0878 17.5751 39.139 18.048 39.3349C18.5208 39.5308 18.925 39.8624 19.2094 40.288C19.4937 40.7136 19.6455 41.2139 19.6455 41.7258C19.6448 42.4119 19.372 43.0698 18.8868 43.5549C18.4016 44.0401 17.7438 44.313 17.0576 44.3137Z" fill="url(#paint0_linear_795_780)"/>
<path d="M36.4048 37.1855C35.5067 37.1855 34.6287 37.4519 33.8819 37.9508C33.1352 38.4498 32.5531 39.159 32.2094 39.9888C31.8657 40.8186 31.7758 41.7316 31.951 42.6125C32.1262 43.4933 32.5587 44.3025 33.1938 44.9375C33.8289 45.5726 34.638 46.0051 35.5189 46.1803C36.3998 46.3555 37.3128 46.2656 38.1426 45.9219C38.9723 45.5782 39.6815 44.9962 40.1805 44.2494C40.6795 43.5026 40.9458 42.6247 40.9458 41.7266C40.9445 40.5226 40.4657 39.3683 39.6144 38.517C38.763 37.6656 37.6088 37.1868 36.4048 37.1855ZM36.4048 44.3137C35.893 44.3137 35.3926 44.1619 34.967 43.8775C34.5415 43.5932 34.2098 43.189 34.0139 42.7161C33.818 42.2432 33.7668 41.7229 33.8666 41.2209C33.9665 40.7189 34.213 40.2578 34.5749 39.8959C34.9368 39.5339 35.3979 39.2875 35.8999 39.1876C36.4019 39.0878 36.9223 39.139 37.3951 39.3349C37.868 39.5308 38.2722 39.8624 38.5565 40.288C38.8409 40.7136 38.9927 41.2139 38.9927 41.7258C38.992 42.4119 38.7191 43.0698 38.234 43.5549C37.7488 44.0401 37.0909 44.313 36.4048 44.3137Z" fill="url(#paint1_linear_795_780)"/>
<path d="M45.9408 9.3874L12.7298 8.88584L11.8188 6.125C11.52 5.21664 10.9423 4.42565 10.168 3.86459C9.39366 3.30353 8.46209 3.00098 7.50586 3H4.07422C3.81522 3 3.56683 3.10289 3.38368 3.28603C3.20054 3.46917 3.09766 3.71756 3.09766 3.97656C3.09766 4.23556 3.20054 4.48396 3.38368 4.6671C3.56683 4.85024 3.81522 4.95312 4.07422 4.95312H7.50586C8.05142 4.95463 8.58263 5.12801 9.02404 5.44863C9.46545 5.76925 9.7946 6.22081 9.96475 6.73916L11.1152 10.2168L16.4237 26.2598L15.9452 27.4185C15.6611 28.1067 15.5514 28.8545 15.6259 29.5953C15.7003 30.3361 15.9566 31.0471 16.3719 31.6651C16.7873 32.283 17.3488 32.7889 18.0067 33.1376C18.6645 33.4863 19.3983 33.6672 20.1429 33.6641H39.9689C40.228 33.6641 40.4763 33.5612 40.6595 33.378C40.8426 33.1949 40.9455 32.9465 40.9455 32.6875C40.9455 32.4285 40.8426 32.1801 40.6595 31.997C40.4763 31.8138 40.228 31.7109 39.9689 31.7109H20.1429C19.7188 31.7139 19.3006 31.6118 18.9255 31.4138C18.5505 31.2158 18.2303 30.9281 17.9934 30.5763C17.7566 30.2244 17.6106 29.8195 17.5683 29.3975C17.5261 28.9755 17.5889 28.5496 17.7513 28.1578L18.1267 27.2523L39.585 25.0551C40.7312 24.937 41.8125 24.4661 42.6798 23.7074C43.547 22.9487 44.1574 21.9395 44.4268 20.8191L46.8758 10.5908C46.9098 10.4485 46.9114 10.3004 46.8805 10.1574C46.8495 10.0145 46.7869 9.88024 46.6971 9.76471C46.6074 9.64919 46.4928 9.5553 46.3619 9.49C46.231 9.42469 46.0871 9.38963 45.9408 9.3874ZM42.5272 20.3654C42.3524 21.0923 41.9564 21.7471 41.3937 22.2394C40.831 22.7316 40.1294 23.0372 39.3857 23.1139L18.1587 25.2891L13.3798 10.849L44.6924 11.322L42.5272 20.3654Z" fill="url(#paint2_linear_795_780)"/>
<defs>
<linearGradient id="paint0_linear_795_780" x1="17.0576" y1="2.9305" x2="17.0576" y2="42.7818" gradientUnits="userSpaceOnUse">
<stop stop-color="#00EFD1"/>
<stop offset="1" stop-color="#00ACEA"/>
</linearGradient>
<linearGradient id="paint1_linear_795_780" x1="36.4048" y1="2.9305" x2="36.4048" y2="42.7818" gradientUnits="userSpaceOnUse">
<stop stop-color="#00EFD1"/>
<stop offset="1" stop-color="#00ACEA"/>
</linearGradient>
<linearGradient id="paint2_linear_795_780" x1="25.0001" y1="2.21875" x2="25.0001" y2="42.0701" gradientUnits="userSpaceOnUse">
<stop stop-color="#00EFD1"/>
<stop offset="1" stop-color="#00ACEA"/>
</linearGradient>
</defs>
</svg>
