<svg id="Group_24018" data-name="Group 24018" xmlns="http://www.w3.org/2000/svg" xmlns:xlink="http://www.w3.org/1999/xlink" width="232.278" height="108.83" viewBox="0 0 232.278 108.83">
  <defs>
    <clipPath id="clip-path">
      <rect id="Rectangle_2786" data-name="Rectangle 2786" width="6.904" height="9.066" fill="#ee404a"/>
    </clipPath>
  </defs>
  <g id="Group_24025" data-name="Group 24025">
    <g id="Group_24022" data-name="Group 24022">
      <g id="Group_24026" data-name="Group 24026">
        <path id="Path_26675" data-name="Path 26675" d="M1567.084,285.607c-3.045-1.054-5.127-2.883-7.472-5.563l.993-2.115c2.463,3.261,3.27,5.027,6.348,4.773Z" transform="translate(-1371.055 -244.328)" fill="#ffca05"/>
        <path id="Path_26676" data-name="Path 26676" d="M1880.644,647.312c-2.266-2.946-3.277-5.971-4.116-9.943l1.931-1.281c.665,4.58.544,6.716,3.474,8.49Z" transform="translate(-1649.656 -559.184)" fill="#638cc7"/>
        <path id="Path_26677" data-name="Path 26677" d="M1216.487,383.823c-3.206.8-5.873.339-9.142-.737l-.006-2.484c3.625,1.535,5.11,2.669,7.786.668Z" transform="translate(-1061.371 -334.587)" fill="#00bc70"/>
        <path id="Path_26678" data-name="Path 26678" d="M554.025,318.3a13.121,13.121,0,0,1-5.509,4.427l-.984-1.415c2.674-1.046,3.97-1.186,4.708-3.747Z" transform="translate(-481.335 -279.17)" fill="#ee404a"/>
        <path id="Path_26679" data-name="Path 26679" d="M96.185,805.317c-3.6.181-6.3-.815-9.468-2.563l.653-2.543c3.424,2.288,4.693,3.742,8.053,2.225Z" transform="translate(-76.233 -703.464)" fill="#638cc7"/>
        <path id="Path_26680" data-name="Path 26680" d="M178.9,262.3c-2.748-2-4.187-4.446-5.563-7.81l1.871-1.752c1.268,3.97,1.407,5.952,4.707,6.68Z" transform="translate(-152.381 -222.185)" fill="#00bc70"/>
        <path id="Path_26681" data-name="Path 26681" d="M278.34,498.742c-3.114,2.173-6.051,2.806-9.812,3.042l-.778-2.6c4.276.1,6.186.665,8.37-2.548Z" transform="translate(-235.379 -436.591)" fill="#638cc7"/>
        <path id="Path_26682" data-name="Path 26682" d="M649.948,2.205c-3.123,1.836-5.983,2.206-9.611,2.129l-.591-2.563c4.1.439,5.9,1.139,8.2-1.771Z" transform="translate(-562.401)" fill="#ffca05"/>
        <path id="Path_26683" data-name="Path 26683" d="M1045.6,15.8c-2.6-1.284-4.286-3.142-6.13-5.783l1.06-1.755c1.9,3.169,2.46,4.824,5.2,4.954Z" transform="translate(-913.801 -7.265)" fill="#00bc70"/>
        <path id="Path_26684" data-name="Path 26684" d="M1419.328,91.476c2.848-1.677,4.429-3.868,6.005-6.919l-1.742-1.768c-1.507,3.626-1.77,5.47-5.086,5.922Z" transform="translate(-1247.007 -72.78)" fill="#ee404a"/>
        <g id="Group_24020" data-name="Group 24020" transform="translate(71.978 99.764)" opacity="0.837">
          <g id="Group_24019" data-name="Group 24019">
            <g id="Group_24018-2" data-name="Group 24018" clip-path="url(#clip-path)">
              <path id="Path_26685" data-name="Path 26685" d="M601.921,834.24c-2.871-1.71-4.657-3.986-6.568-7.169l1.331-1.9c1.936,3.789,2.458,5.727,5.573,6.137Z" transform="translate(-595.353 -825.174)" fill="#ee404a"/>
            </g>
          </g>
        </g>
        <path id="Path_26686" data-name="Path 26686" d="M1382.546,686.993a20.6,20.6,0,0,1-5.445,8.533l-1.809-1.328c3.062-2.716,4.684-3.558,4.667-7.246Z" transform="translate(-1209.019 -603.899)" fill="#ee404a"/>
        <path id="Path_26687" data-name="Path 26687" d="M452.324,191.209A1.209,1.209,0,1,1,451.115,190a1.209,1.209,0,0,1,1.209,1.209" transform="translate(-395.512 -167.029)" fill="#ee404a"/>
        <path id="Path_26688" data-name="Path 26688" d="M1246.991,191.209a1.209,1.209,0,1,1-1.209-1.209,1.209,1.209,0,0,1,1.209,1.209" transform="translate(-1094.104 -167.029)" fill="#ffca05"/>
        <path id="Path_26689" data-name="Path 26689" d="M1508.324,495.876a1.209,1.209,0,1,1-1.209-1.209,1.209,1.209,0,0,1,1.209,1.209" transform="translate(-1323.842 -434.862)" fill="#ff5c33"/>
        <path id="Path_26690" data-name="Path 26690" d="M468.324,597.209A1.209,1.209,0,1,1,467.115,596a1.209,1.209,0,0,1,1.209,1.209" transform="translate(-409.578 -523.943)" fill="#00bc70"/>
        <rect id="Rectangle_2787" data-name="Rectangle 2787" width="3.42" height="3.42" transform="translate(0 62.667) rotate(-45)" fill="#ffca05"/>
        <rect id="Rectangle_2788" data-name="Rectangle 2788" width="3.42" height="3.42" transform="translate(209.974 58.706) rotate(-45)" fill="#00bc70"/>
      </g>
    </g>
  </g>
</svg>
