<svg width="21" height="44" viewBox="0 0 21 44" fill="none" xmlns="http://www.w3.org/2000/svg">
<path d="M19.6997 12.625H13.281L16.7869 1.33594C16.8231 1.21886 16.8314 1.0949 16.8111 0.974036C16.7907 0.853169 16.7423 0.738757 16.6697 0.639988C16.5972 0.54122 16.5024 0.460848 16.3932 0.405329C16.2839 0.34981 16.1631 0.320692 16.0406 0.320312H2.51694C2.31784 0.323325 2.12715 0.401117 1.98276 0.538236C1.83837 0.675355 1.75083 0.861768 1.73754 1.06045L0.0897914 24.5977C0.0823163 24.7034 0.096942 24.8096 0.132736 24.9094C0.168531 25.0092 0.22471 25.1005 0.297701 25.1774C0.371235 25.2547 0.459948 25.316 0.558273 25.3574C0.656599 25.3988 0.762416 25.4194 0.869089 25.418H6.18949L5.42621 42.8264C5.41645 43.0079 5.47028 43.1872 5.57843 43.3334C5.68659 43.4796 5.84231 43.5835 6.0188 43.6272C6.19529 43.671 6.38151 43.6518 6.54541 43.5731C6.70932 43.4944 6.84066 43.361 6.91684 43.1959L20.4098 13.7788C20.4645 13.6557 20.4883 13.521 20.4792 13.3866C20.47 13.2521 20.4282 13.1219 20.3573 13.0073C20.2877 12.8943 20.1913 12.8002 20.0766 12.7335C19.9618 12.6668 19.8324 12.6295 19.6997 12.625V12.625ZM7.16235 38.8903L7.78627 24.6813C7.79116 24.5754 7.77465 24.4696 7.73773 24.3701C7.70082 24.2707 7.64425 24.1798 7.57141 24.1027C7.49857 24.0256 7.41094 23.964 7.31377 23.9215C7.21659 23.879 7.11185 23.8566 7.0058 23.8555H1.70698L3.24536 1.88281H14.9806L11.4747 13.2091C11.4385 13.3232 11.4302 13.4443 11.4506 13.5623C11.471 13.6802 11.5195 13.7915 11.5919 13.8868C11.6655 13.9831 11.7609 14.0606 11.8702 14.1129C11.9796 14.1652 12.0998 14.1907 12.2209 14.1875H18.4819L7.16235 38.8903Z" fill="url(#paint0_linear_795_791)"/>
<defs>
<linearGradient id="paint0_linear_795_791" x1="10.2844" y1="-0.586719" x2="10.2844" y2="43.973" gradientUnits="userSpaceOnUse">
<stop stop-color="#00EFD1"/>
<stop offset="1" stop-color="#00ACEA"/>
</linearGradient>
</defs>
</svg>
