<svg width="70" height="70" viewBox="0 0 70 70" fill="none" xmlns="http://www.w3.org/2000/svg">
<g clip-path="url(#clip0_795_689)">
<path d="M63.2655 3.44727C60.8781 3.44601 58.6693 4.70892 57.459 6.76677C56.2494 8.82463 56.2199 11.3692 57.3826 13.4546L50.1102 19.5487C48.7891 17.8253 46.7162 16.8462 44.5456 16.9189C42.375 16.9922 40.3735 18.1091 39.1713 19.9176L30.9575 14.6242C30.9744 14.4281 30.985 14.2302 30.985 14.0291C30.9882 11.2013 29.2235 8.6724 26.5686 7.69892C23.9131 6.72605 20.9325 7.51537 19.1071 9.67534C17.2816 11.8353 17.0004 14.9055 18.4023 17.3618L9.98612 25.5888C6.87709 23.8943 2.98752 24.8884 1.07249 27.8672C-0.841908 30.8453 -0.131524 34.7968 2.70061 36.9217C5.53338 39.0466 9.52568 38.6238 11.8498 35.952C14.1739 33.2809 14.0404 29.2679 11.5441 26.7571L19.5945 18.8878C21.1988 20.4288 23.4608 21.0778 25.6377 20.6199C27.8152 20.1626 29.625 18.6585 30.4732 16.6019L38.3369 21.6698C37.4681 24.4856 38.5305 27.5395 40.9592 29.2077C43.3885 30.876 46.6203 30.772 48.9363 28.9503C51.2529 27.1286 52.1161 24.0127 51.0675 21.2588L58.5515 14.9863C60.7209 17.1156 64.0479 17.5265 66.6708 15.9905C69.2931 14.4538 70.561 11.3504 69.7648 8.41744C68.9686 5.48382 66.305 3.44789 63.2655 3.44852V3.44727ZM6.77373 36.3153C4.11699 36.3153 1.96329 34.1616 1.96329 31.5055C1.96329 28.8488 4.11699 26.6951 6.77373 26.6951C9.43046 26.6951 11.5835 28.8488 11.5835 31.5055C11.5804 34.1604 9.42921 36.3122 6.77373 36.3153ZM24.2508 18.8389C21.5941 18.8389 19.4404 16.6852 19.4404 14.0285C19.4404 11.3724 21.5941 9.21866 24.2502 9.21866C26.9069 9.21866 29.0606 11.3717 29.0606 14.0285C29.0575 16.6839 26.9056 18.8358 24.2508 18.8389ZM44.773 28.4591C42.1169 28.4591 39.9632 26.3061 39.9632 23.6493C39.9632 20.9932 42.1169 18.8395 44.773 18.8395C47.4297 18.8395 49.5834 20.9932 49.5834 23.6493C49.5803 26.3048 47.4285 28.456 44.773 28.4591ZM63.2655 14.9919C60.6088 14.9919 58.4557 12.8382 58.4557 10.1815C58.4557 7.52539 60.6088 5.37169 63.2655 5.37169C65.9222 5.37169 68.0753 7.52539 68.0753 10.1815C68.0722 12.837 65.921 14.9888 63.2655 14.9919Z" fill="url(#paint0_linear_795_689)"/>
<path d="M32.1324 32.929C32.1324 32.3972 31.7021 31.9668 31.1702 31.9668H21.2273C20.6961 31.9668 20.2651 32.3972 20.2651 32.929V65.6442C20.2651 66.1755 20.6961 66.6065 21.2273 66.6065H31.1702C31.7021 66.6065 32.1324 66.1755 32.1324 65.6442V32.929ZM30.208 64.682H22.1896V33.8912H30.208V64.682Z" fill="url(#paint1_linear_795_689)"/>
<path d="M13.69 47.8431C13.69 47.3112 13.2597 46.8809 12.7278 46.8809H2.78497C2.25374 46.8809 1.82275 47.3112 1.82275 47.8431V65.644C1.82275 66.1752 2.25374 66.6062 2.78497 66.6062H12.7278C13.2597 66.6062 13.69 66.1752 13.69 65.644V47.8431ZM11.6052 64.6818H3.74718V48.8053H11.6052V64.6818Z" fill="url(#paint2_linear_795_689)"/>
<path d="M50.5748 42.2298C50.5748 41.6979 50.1444 41.2676 49.6126 41.2676H39.6697C39.1385 41.2676 38.7075 41.6979 38.7075 42.2298V65.6437C38.7075 66.1749 39.1385 66.6059 39.6697 66.6059H49.6126C50.1444 66.6059 50.5748 66.1749 50.5748 65.6437V42.2298ZM48.6504 64.6814H40.6319V43.192H48.6504V64.6814Z" fill="url(#paint3_linear_795_689)"/>
<path d="M69.1779 32.929C69.1779 32.3972 68.7475 31.9668 68.2156 31.9668H58.2728C57.7415 31.9668 57.3105 32.3972 57.3105 32.929V65.6442C57.3105 66.1755 57.7415 66.6065 58.2728 66.6065H68.2156C68.7475 66.6065 69.1779 66.1755 69.1779 65.6442V32.929ZM67.0931 64.682H59.235V33.8912H67.0931V64.682Z" fill="url(#paint4_linear_795_689)"/>
</g>
<defs>
<linearGradient id="paint0_linear_795_689" x1="35.0196" y1="-0.634452" x2="35.0196" y2="70.9412" gradientUnits="userSpaceOnUse">
<stop stop-color="#00EFD1"/>
<stop offset="1" stop-color="#00ACEA"/>
</linearGradient>
<linearGradient id="paint1_linear_795_689" x1="26.1991" y1="-0.634256" x2="26.1991" y2="70.9414" gradientUnits="userSpaceOnUse">
<stop stop-color="#00EFD1"/>
<stop offset="1" stop-color="#00ACEA"/>
</linearGradient>
<linearGradient id="paint2_linear_795_689" x1="7.7567" y1="-0.634518" x2="7.7567" y2="70.9412" gradientUnits="userSpaceOnUse">
<stop stop-color="#00EFD1"/>
<stop offset="1" stop-color="#00ACEA"/>
</linearGradient>
<linearGradient id="paint3_linear_795_689" x1="44.6415" y1="-0.634889" x2="44.6415" y2="70.9408" gradientUnits="userSpaceOnUse">
<stop stop-color="#00EFD1"/>
<stop offset="1" stop-color="#00ACEA"/>
</linearGradient>
<linearGradient id="paint4_linear_795_689" x1="63.2445" y1="-0.634256" x2="63.2445" y2="70.9414" gradientUnits="userSpaceOnUse">
<stop stop-color="#00EFD1"/>
<stop offset="1" stop-color="#00ACEA"/>
</linearGradient>
<clipPath id="clip0_795_689">
<rect width="70" height="70" fill="white"/>
</clipPath>
</defs>
</svg>
