<svg width="70" height="71" viewBox="0 0 70 71" fill="none" xmlns="http://www.w3.org/2000/svg">
<path d="M40.8174 24.2749L39.7531 30.4599C39.6896 30.8291 39.7306 31.2087 39.8716 31.5558C40.0125 31.9029 40.2477 32.2036 40.5506 32.424C40.8536 32.6444 41.2121 32.7757 41.5857 32.803C41.9593 32.8304 42.3331 32.7526 42.6649 32.5786L48.2239 29.6605L53.783 32.5774C54.1145 32.7512 54.488 32.8288 54.8613 32.8016C55.2346 32.7743 55.5929 32.6433 55.8957 32.4233C56.1985 32.2032 56.4337 31.903 56.5749 31.5563C56.7161 31.2097 56.7576 30.8305 56.6948 30.4615L55.6387 24.2765L60.1328 19.89C60.4009 19.6284 60.5905 19.297 60.6802 18.9333C60.7698 18.5696 60.7559 18.188 60.6401 17.8318C60.5242 17.4756 60.3111 17.1588 60.0247 16.9174C59.7383 16.676 59.39 16.5195 59.0193 16.4656L52.807 15.5619L50.024 9.90586C49.8595 9.56697 49.6041 9.28046 49.2862 9.07834C48.9684 8.87621 48.6006 8.76643 48.2239 8.76123H48.2225C47.8458 8.76651 47.4779 8.87647 47.16 9.07882C46.8422 9.28117 46.5869 9.56793 46.4227 9.90706L43.6486 15.5486L37.438 16.4589C37.0672 16.5136 36.719 16.6707 36.4327 16.9126C36.1465 17.1546 35.9334 17.4716 35.8177 17.8281C35.7019 18.1846 35.688 18.5663 35.7776 18.9302C35.8671 19.2942 36.0565 19.6259 36.3245 19.888L40.8174 24.2749ZM45.2722 19.3841C45.5945 19.3372 45.9005 19.2126 46.1639 19.0211C46.4273 18.8295 46.6402 18.5768 46.7841 18.2847L48.2269 15.3575L49.6754 18.2869C49.8195 18.5785 50.0323 18.8307 50.2955 19.0218C50.5586 19.2129 50.8643 19.3373 51.1861 19.3841L54.4192 19.8546L52.0791 22.1387C51.8465 22.3658 51.6725 22.6459 51.572 22.9551C51.4715 23.2643 51.4477 23.5932 51.5024 23.9136L52.0522 27.1341L49.1565 25.6137C48.8685 25.4624 48.548 25.3834 48.2227 25.3834C47.8974 25.3834 47.577 25.4624 47.289 25.6137L44.3995 27.1306L44.9529 23.9165C45.0082 23.5956 44.9846 23.2662 44.8843 22.9565C44.7839 22.6468 44.6097 22.3661 44.3768 22.1387L42.0367 19.8546L45.2722 19.3841Z" fill="#FFCE02"/>
<path d="M43.4955 37.2688C43.1254 37.2659 42.7611 37.361 42.4397 37.5445C42.1183 37.7281 41.8512 37.9935 41.6656 38.3138L35.9988 48.1904C35.8157 48.5091 35.7193 48.8702 35.7193 49.2377C35.7193 49.6053 35.8157 49.9664 35.9988 50.285L41.6659 60.2125C41.8483 60.5398 42.1131 60.8138 42.4341 61.0074C42.755 61.2009 43.1209 61.3073 43.4955 61.3159H54.8179C55.1928 61.307 55.5588 61.2003 55.8798 61.0064C56.2007 60.8126 56.4655 60.5382 56.6478 60.2106L62.3149 50.3049C62.498 49.9835 62.5943 49.62 62.5943 49.2502C62.5943 48.8803 62.498 48.5168 62.3149 48.1955L56.6478 38.321C56.4628 37.9997 56.196 37.7332 55.8746 37.5484C55.5532 37.3636 55.1887 37.2671 54.8179 37.2688H43.4955ZM58.0533 49.2924L53.597 57.0971H44.7177L40.2602 49.2924L44.7177 41.4876H53.597L58.0533 49.2924Z" fill="#FFCE02"/>
<path d="M19.435 8.76123C17.0565 8.7601 14.7311 9.46445 12.7529 10.7852C10.7748 12.1059 9.23281 13.9837 8.32206 16.1809C7.41131 18.3781 7.17271 20.7961 7.63644 23.129C8.10017 25.4619 9.2454 27.6048 10.9273 29.2867C12.6091 30.9686 14.752 32.1138 17.0849 32.5776C19.4177 33.0414 21.8357 32.8028 24.033 31.8921C26.2302 30.9814 28.108 29.4395 29.4288 27.4614C30.7496 25.4832 31.4539 23.1578 31.4529 20.7793C31.4477 17.5936 30.1799 14.5397 27.9272 12.287C25.6746 10.0343 22.6208 8.76645 19.435 8.76123ZM19.435 28.4202C17.9248 28.4214 16.4483 27.9746 15.192 27.1366C13.9358 26.2985 12.9562 25.1068 12.3773 23.712C11.7983 22.3173 11.646 20.7822 11.9395 19.3008C12.233 17.8195 12.9592 16.4584 14.0262 15.3898C15.0932 14.3212 16.4532 13.593 17.9341 13.2972C19.415 13.0015 20.9503 13.1516 22.346 13.7284C23.7416 14.3053 24.9348 15.2831 25.7747 16.5381C26.6147 17.7931 27.0636 19.269 27.0647 20.7791C27.0624 22.803 26.2582 24.7435 24.8281 26.1756C23.3981 27.6078 21.4588 28.4149 19.435 28.4202Z" fill="#FFCE02"/>
<path d="M29.5136 37.2687H9.34499C8.83066 37.2687 8.33739 37.4731 7.9737 37.8367C7.61002 38.2004 7.4057 38.6937 7.4057 39.208V59.3766C7.4057 59.8909 7.61002 60.3842 7.9737 60.7479C8.33739 61.1116 8.83066 61.3159 9.34499 61.3159H29.5136C30.0279 61.3159 30.5212 61.1116 30.8849 60.7479C31.2486 60.3842 31.4529 59.8909 31.4529 59.3766V39.208C31.4529 38.6937 31.2486 38.2004 30.8849 37.8367C30.5212 37.4731 30.0279 37.2687 29.5136 37.2687ZM27.5743 57.4373H11.2843V41.1473H27.5743V57.4373Z" fill="#FFCE02"/>
</svg>
