<svg width="70" height="71" viewBox="0 0 70 71" fill="none" xmlns="http://www.w3.org/2000/svg">
<g clip-path="url(#clip0_795_9482)">
<path d="M56.7983 42.83L48.845 48.7775C47.2306 46.7646 44.6495 45.7895 42.1072 46.2319L34.0487 47.6416C32.7513 47.8669 31.4204 47.7972 30.1534 47.4381L29.2519 47.1818C24.5966 45.845 19.581 46.9144 15.8756 50.0335L15.5095 47.9386C15.4152 47.3988 14.9012 47.0378 14.3619 47.1321L5.52468 48.678C4.98482 48.7723 4.62384 49.2863 4.71877 49.8262L8.11031 69.2172C8.15552 69.4768 8.3021 69.7073 8.51714 69.8591C8.73283 70.0102 8.99953 70.0696 9.25848 70.0237L18.0951 68.4778C18.6343 68.3835 18.9953 67.8695 18.901 67.3303L18.7189 66.2912L20.8209 64.5845C21.6462 63.8974 22.7065 63.5577 23.7778 63.6384L38.1874 64.6917C38.2093 64.6936 38.2319 64.6942 38.2532 64.6942C41.4433 64.7052 44.5539 63.6972 47.1312 61.8167C47.1686 61.789 47.2048 61.7586 47.2384 61.7257L64.4021 44.9197C64.7773 44.5529 64.8012 43.9568 64.4576 43.5603C62.5087 41.3118 59.1372 40.9902 56.7983 42.83ZM9.89391 67.8979L6.84333 50.461L13.7265 49.2573L16.7765 66.6942L9.89391 67.8979ZM45.9029 60.2579C43.6906 61.8568 41.0287 62.7156 38.2984 62.7105L23.9225 61.6598C22.3442 61.5403 20.7808 62.0389 19.5629 63.0501L18.3282 64.053L16.2818 52.3543C19.5125 49.0706 24.2815 47.8179 28.7089 49.0894L29.6103 49.3457C31.1647 49.7861 32.7985 49.8714 34.3909 49.595L42.4488 48.1853C44.8413 47.7707 47.1938 49.0997 48.074 51.3625L35.9001 53.4915C35.3609 53.5858 34.9999 54.0998 35.0942 54.6397C35.1884 55.1796 35.7025 55.5405 36.2423 55.4456L49.4882 53.1286C50.0281 53.0343 50.3891 52.5203 50.2941 51.9804C50.205 51.4709 50.0597 50.9724 49.8615 50.4945L57.9961 44.4108C58.0026 44.4056 58.0097 44.4005 58.0168 44.3947C59.2463 43.4215 60.9647 43.3582 62.2621 44.2384L45.9029 60.2579Z" fill="#FFCE02"/>
<path d="M40.5945 10.0991C41.0639 10.0991 41.4446 9.71826 41.4446 9.24892V0.889203C41.4446 0.419855 41.0639 0.0390625 40.5945 0.0390625C40.1252 0.0390625 39.7444 0.419855 39.7444 0.889203V9.24892C39.7444 9.71826 40.1252 10.0991 40.5945 10.0991Z" fill="#FFCE02"/>
<path d="M46.1204 10.0993C46.5898 10.0993 46.9706 9.71854 46.9706 9.24919V3.58159C46.9706 3.11224 46.5898 2.73145 46.1204 2.73145C45.6511 2.73145 45.2703 3.11224 45.2703 3.58159V9.24919C45.2703 9.71854 45.6511 10.0993 46.1204 10.0993Z" fill="#FFCE02"/>
<path d="M35.2102 10.0993C35.6796 10.0993 36.0604 9.71854 36.0604 9.24919V3.58159C36.0604 3.11224 35.6796 2.73145 35.2102 2.73145C34.7409 2.73145 34.3601 3.11224 34.3601 3.58159V9.24919C34.3601 9.71854 34.7409 10.0993 35.2102 10.0993Z" fill="#FFCE02"/>
<path d="M50.0877 11.5155C50.557 11.5155 50.9378 11.1347 50.9378 10.6654V6.27299C50.9378 5.80364 50.557 5.42285 50.0877 5.42285C49.6183 5.42285 49.2375 5.80364 49.2375 6.27299V10.6654C49.2375 11.1347 49.6183 11.5155 50.0877 11.5155Z" fill="#FFCE02"/>
<path d="M31.1014 11.5155C31.5707 11.5155 31.9515 11.1347 31.9515 10.6654V6.27299C31.9515 5.80364 31.5707 5.42285 31.1014 5.42285C30.632 5.42285 30.2512 5.80364 30.2512 6.27299V10.6654C30.2512 11.1347 30.632 11.5155 31.1014 11.5155Z" fill="#FFCE02"/>
<path d="M40.5945 13.5156C37.6158 13.5156 34.704 14.3989 32.2273 16.0538C29.7506 17.7087 27.8203 20.0608 26.6804 22.8127C25.5405 25.5647 25.2422 28.5929 25.8233 31.5143C26.4044 34.4358 27.8388 37.1193 29.9451 39.2256C32.0513 41.3318 34.7348 42.7662 37.6563 43.3473C40.5778 43.9284 43.6059 43.6302 46.3579 42.4903C49.1098 41.3504 51.462 39.42 53.1168 36.9433C54.7717 34.4667 55.655 31.5549 55.655 28.5762C55.6505 24.5832 54.0623 20.7551 51.2389 17.9317C48.4155 15.1083 44.5874 13.5201 40.5945 13.5156ZM40.5945 41.4492C38.0484 41.4492 35.5596 40.6942 33.4426 39.2797C31.3256 37.8652 29.6757 35.8547 28.7013 33.5025C27.727 31.1502 27.4721 28.5619 27.9688 26.0648C28.4655 23.5676 29.6915 21.2739 31.4919 19.4735C33.2922 17.6732 35.5859 16.4472 38.0831 15.9505C40.5802 15.4538 43.1685 15.7087 45.5208 16.683C47.873 17.6574 49.8835 19.3073 51.298 21.4243C52.7125 23.5412 53.4675 26.0301 53.4675 28.5762C53.4636 31.9891 52.1061 35.2612 49.6928 37.6745C47.2795 40.0878 44.0074 41.4453 40.5945 41.4492Z" fill="#FFCE02"/>
<path d="M45.3933 22.2871C45.6834 22.2871 45.9616 22.1719 46.1667 21.9668C46.3718 21.7616 46.4871 21.4834 46.4871 21.1934C46.4871 20.9033 46.3718 20.6251 46.1667 20.42C45.9616 20.2148 45.6834 20.0996 45.3933 20.0996H35.7957C35.5056 20.0996 35.2274 20.2148 35.0223 20.42C34.8171 20.6251 34.7019 20.9033 34.7019 21.1934C34.7019 21.4834 34.8171 21.7616 35.0223 21.9668C35.2274 22.1719 35.5056 22.2871 35.7957 22.2871H38.5421C39.1484 22.2916 39.7398 22.4759 40.2415 22.8166C40.7431 23.1573 41.1324 23.6392 41.3601 24.2012H35.7957C35.5056 24.2012 35.2274 24.3164 35.0223 24.5215C34.8171 24.7266 34.7019 25.0048 34.7019 25.2949C34.7019 25.585 34.8171 25.8632 35.0223 26.0683C35.2274 26.2734 35.5056 26.3887 35.7957 26.3887H41.3601C40.9207 27.6191 39.8234 28.3027 38.5415 28.3027H35.7957C35.5747 28.3089 35.3605 28.38 35.1799 28.5073C34.9992 28.6346 34.8601 28.8123 34.7799 29.0183C34.6997 29.2242 34.682 29.4492 34.7291 29.6652C34.7762 29.8811 34.8859 30.0784 35.0445 30.2323L41.9086 36.7254C42.0121 36.8269 42.1347 36.9067 42.2693 36.9602C42.4039 37.0138 42.5479 37.04 42.6927 37.0373C42.8376 37.0347 42.9805 37.0033 43.113 36.9448C43.2456 36.8864 43.3652 36.8022 43.4649 36.6971C43.5646 36.5919 43.6424 36.468 43.6937 36.3325C43.7451 36.1971 43.7689 36.0527 43.7639 35.9079C43.7588 35.7631 43.725 35.6208 43.6644 35.4892C43.6038 35.3576 43.5176 35.2394 43.4109 35.1414L38.5453 30.5251C39.737 30.5141 40.8897 30.0989 41.8147 29.3475C42.7397 28.596 43.3823 27.5529 43.6372 26.3887H45.3933C45.6834 26.3887 45.9616 26.2734 46.1667 26.0683C46.3718 25.8632 46.4871 25.585 46.4871 25.2949C46.4871 25.0048 46.3718 24.7266 46.1667 24.5215C45.9616 24.3164 45.6834 24.2012 45.3933 24.2012H43.6372C43.4872 23.511 43.196 22.8593 42.782 22.2871H45.3933Z" fill="#FFCE02"/>
</g>
<defs>
<clipPath id="clip0_795_9482">
<rect width="70" height="70" fill="white" transform="translate(0 0.0390625)"/>
</clipPath>
</defs>
</svg>
