<svg id="Group_24026" data-name="Group 24026" xmlns="http://www.w3.org/2000/svg" xmlns:xlink="http://www.w3.org/1999/xlink" width="58.54" height="56" viewBox="0 0 58.54 56">
  <defs>
    <linearGradient id="linear-gradient" x1="2.056" y1="-0.059" x2="1.995" y2="1.392" gradientUnits="objectBoundingBox">
      <stop offset="0" stop-color="#00efd1"/>
      <stop offset="1" stop-color="#00acea"/>
    </linearGradient>
    <clipPath id="clip-path">
      <rect id="Rectangle_2626" data-name="Rectangle 2626" width="58.54" height="56" stroke="rgba(0,0,0,0)" stroke-width="1" fill="url(#linear-gradient)"/>
    </clipPath>
  </defs>
  <g id="Group_24026-2" data-name="Group 24026" clip-path="url(#clip-path)">
    <path id="Path_27411" data-name="Path 27411" d="M146.419,255.284c.757-2.229,1.494-4.413,2.241-6.593a1.319,1.319,0,0,1,1.47-1.041c.889-.006,1.777,0,2.65,0,.749-2.2,1.483-4.363,2.222-6.522a1.345,1.345,0,0,1,1.544-1.112q3.943,0,7.886,0a1.348,1.348,0,0,1,1.541,1.118c.739,2.159,1.473,4.32,2.221,6.517.877,0,1.766,0,2.654,0a1.32,1.32,0,0,1,1.467,1.047c.747,2.18,1.484,4.363,2.239,6.587.87,0,1.758,0,2.647,0a1.322,1.322,0,0,1,1.474,1.037c.688,2,1.411,3.992,2.018,6.017a5.735,5.735,0,0,1,.1,2.133,1.133,1.133,0,0,1-1.1.98,4.961,4.961,0,0,1-.635.012H141.913c-1.422,0-1.814-.373-1.774-1.821a6.622,6.622,0,0,1,.289-1.8c.556-1.754,1.172-3.49,1.765-5.233.387-1.135.658-1.33,1.84-1.331h2.386m10.78-12.725-1.718,5.067h10.013c-.558-1.641-1.1-3.239-1.655-4.83a.48.48,0,0,0-.372-.227c-2.075-.014-4.151-.01-6.268-.01M149.12,255.25h10.008l-1.708-5.035h-6.59l-1.709,5.035m21.016-5.057H164.95c-1.383,0-1.383,0-1.831,1.316-.421,1.236-.84,2.473-1.267,3.728h10l-1.716-5.044m-17.367,12.7c-.557-1.64-1.095-3.239-1.655-4.829a.48.48,0,0,0-.371-.229c-2.075-.014-4.151-.01-6.269-.01l-1.718,5.068Zm12.726,0c-.558-1.64-1.095-3.239-1.655-4.829a.48.48,0,0,0-.372-.228c-2.075-.014-4.151-.01-6.269-.01l-1.718,5.068Zm4.43-5.068-1.716,5.065H178.22c-.559-1.642-1.1-3.241-1.657-4.832a.482.482,0,0,0-.375-.223c-2.075-.014-4.151-.01-6.264-.01" transform="translate(-122.303 -209.468)" stroke="rgba(0,0,0,0)" stroke-width="1" fill="url(#linear-gradient)"/>
    <path id="Path_27412" data-name="Path 27412" d="M5.1,2.594c0,3.395-.023,6.744.018,10.092.009.724-.143,1.132-.9,1.28a2.465,2.465,0,0,0-1,.526,1.831,1.831,0,0,0-.008,2.835,1.467,1.467,0,0,0,.648.382c1.245.164,1.272.983,1.261,1.991-.045,4.135-.029,8.271-.006,12.407,0,.491-.139.736-.609.84a3.51,3.51,0,0,0-.771.291,1.906,1.906,0,0,0,.02,3.53,3.032,3.032,0,0,0,.711.268c.5.1.656.348.651.876-.03,3.223-.015,6.447-.015,9.671v.751h11.7c-.288.855-.536,1.63-.822,2.389-.037.1-.273.175-.417.175q-7.126.013-14.252,0A1.252,1.252,0,0,1,.011,49.611a1.269,1.269,0,0,1,1.272-1.244c.4-.019.8,0,1.234,0,.013-.233.033-.418.033-.6,0-2.821-.008-5.641.012-8.462a.912.912,0,0,0-.466-.871A5.427,5.427,0,0,1,1.058,37.5c-1.665-1.9-1.315-4.226.929-5.845a1.262,1.262,0,0,0,.574-1.2q-.024-5.09,0-10.18c0-.417-.055-.747-.471-.925a.548.548,0,0,1-.105-.071c-2.641-1.971-2.608-4.907.1-6.794a.977.977,0,0,0,.477-.926C2.543,8.781,2.552,6,2.552,3.225V2.547c-.459,0-.857.013-1.255,0A1.254,1.254,0,0,1,0,1.267,1.258,1.258,0,0,1,1.312,0c.169-.007.339,0,.509,0H38.914c.191,0,.382-.008.573,0a1.255,1.255,0,0,1,1.248,1.261A1.248,1.248,0,0,1,39.5,2.541c-.418.023-.837,0-1.317,0V3.989c0,2.545.009,5.09-.009,7.635a.763.763,0,0,0,.434.817.934.934,0,0,1,.157.108c2.585,1.941,2.588,4.818-.027,6.72a1.207,1.207,0,0,0-.567,1.138c.028,2.5.012,5,.012,7.547H35.671c-.011-.185-.031-.369-.031-.552,0-2.884.009-5.769-.013-8.653,0-.435.114-.642.537-.766a4.324,4.324,0,0,0,1.207-.544,1.837,1.837,0,0,0,0-3.065,3.575,3.575,0,0,0-.73-.377c-1-.4-1-.393-1-1.5q0-4.867-.006-9.734a1.059,1.059,0,0,0-.035-.167Z" transform="translate(0 0)" stroke="rgba(0,0,0,0)" stroke-width="1" fill="url(#linear-gradient)"/>
    <path id="Path_27413" data-name="Path 27413" d="M107.885,98.915c1.611,2.667,3.221,5.158,4.647,7.75a34.23,34.23,0,0,1,2.529,5.6,7.414,7.414,0,0,1-5.109,9.4,7.661,7.661,0,0,1-9.5-5.266,7.949,7.949,0,0,1,.449-5.214,64.138,64.138,0,0,1,6.069-10.925c.254-.388.522-.767.916-1.343m-.037,4.825a2.3,2.3,0,0,0-.219.261c-1.34,2.426-2.735,4.824-3.986,7.3a7.817,7.817,0,0,0-.878,3.086,4.909,4.909,0,0,0,5.819,4.98,4.832,4.832,0,0,0,4.007-6.489,41.444,41.444,0,0,0-4.743-9.134" transform="translate(-87.446 -86.327)" stroke="rgba(0,0,0,0)" stroke-width="1" fill="url(#linear-gradient)"/>
  </g>
</svg>
