<svg id="Group_24025" data-name="Group 24025" xmlns="http://www.w3.org/2000/svg" xmlns:xlink="http://www.w3.org/1999/xlink" width="64.064" height="45.383" viewBox="0 0 64.064 45.383">
  <defs>
    <linearGradient id="linear-gradient" x1="2.056" y1="-0.059" x2="1.995" y2="1.392" gradientUnits="objectBoundingBox">
      <stop offset="0" stop-color="#00efd1"/>
      <stop offset="1" stop-color="#00acea"/>
    </linearGradient>
    <clipPath id="clip-path">
      <rect id="Rectangle_2625" data-name="Rectangle 2625" width="64.064" height="45.383" stroke="rgba(0,0,0,0)" stroke-width="1" fill="url(#linear-gradient)"/>
    </clipPath>
  </defs>
  <g id="Group_24025-2" data-name="Group 24025" clip-path="url(#clip-path)">
    <path id="Path_27408" data-name="Path 27408" d="M63.992,19.9c-.047-.315-.094-.631-.144-.946A21.7,21.7,0,0,0,58.206,7.072a22.228,22.228,0,0,0-19.39-6.9c-6.943.761-12.49,4.3-16.486,10.518a.8.8,0,0,1-.809.438h-.008c-4.125-.013-8.318-.012-12.372-.011H4.8A4.855,4.855,0,0,0,1.176,12.8a5.712,5.712,0,0,0-1.1,3.906,4.921,4.921,0,0,0,1.26,3.475l.035.031a1.446,1.446,0,0,1,.121.115.527.527,0,0,1-.058.083,5.9,5.9,0,0,0,.029,7.745c.014.017.024.031.032.042-.023.028-.055.063-.082.091l-.027.029A4.637,4.637,0,0,0,.1,31.732c.012.3.008.607,0,.906l0,.186a4.356,4.356,0,0,0,.911,2.694,2.544,2.544,0,0,1,.366.558,2.407,2.407,0,0,1-.349.532A4.4,4.4,0,0,0,.1,39.3q0,.3,0,.608c0,.229,0,.459,0,.688a4.607,4.607,0,0,0,4.064,4.662,18.3,18.3,0,0,0,2.344.129c.506,0,1.008-.012,1.5-.024s8.084-.023,8.581-.023h.129a1.525,1.525,0,0,0,.475-.1,1.285,1.285,0,0,0,.933-1.284,1.264,1.264,0,0,0-.943-1.288,2.6,2.6,0,0,0-.781-.089c-.707,0-8.5,0-9.208,0-.733,0-1.464,0-2.2,0a2.008,2.008,0,0,1-2.175-1.9,4.684,4.684,0,0,1,.051-1.59,1.882,1.882,0,0,1,1.944-1.6q4.87-.006,9.741,0,4.781,0,9.562,0h0a.659.659,0,0,1,.559.266,22.253,22.253,0,0,0,5.731,4.629c.124.071.249.14.376.21H29.551q-7.51,0-15.02,0h-.107a3.528,3.528,0,0,0-.7.043,1.351,1.351,0,0,0-.16,2.614,3.1,3.1,0,0,0,1.075.123H22.3q8.884,0,17.768,0h.022a27.975,27.975,0,0,0,6.3-.619C54.923,42.8,60.559,37.648,63.149,29.43a28.154,28.154,0,0,0,.879-4.3l.033-.216,0-4.5Zm-2.513,3a19.24,19.24,0,0,1-5.652,13.748,20.026,20.026,0,0,1-28.507-.07,19.184,19.184,0,0,1-5.626-13.8c.162-11.743,8.334-19.926,19.885-19.926h.074c11.617.035,19.77,8.28,19.828,20.051M8.089,13.877l2.267,0,2.277,0h.986q3.453,0,6.9,0h.138l-.052.125a21.381,21.381,0,0,0-1.347,4.627c-.047.271-.082.292-.36.3-4.707-.009-9.412,0-14.117-.014A1.82,1.82,0,0,1,2.87,17.3a4.446,4.446,0,0,1-.028-1.638,1.892,1.892,0,0,1,2.086-1.775c1.049-.005,2.108-.007,3.161-.007M5.036,21.7q3.716-.008,7.432,0h2.859q.473,0,.947,0c.762,0,1.551.008,2.329-.012h.046c.188,0,.219.026.219.026a.5.5,0,0,1,.025.242,20.563,20.563,0,0,0,.372,4.68,1.068,1.068,0,0,1,.021.166,1.778,1.778,0,0,1-.2.009q-1.754-.01-3.509-.008H13.726l-3.9,0q-2.424,0-4.849,0a1.914,1.914,0,0,1-2.13-1.847,5.332,5.332,0,0,1-.006-1.373,2.012,2.012,0,0,1,2.2-1.882M2.884,31.177A1.919,1.919,0,0,1,4.738,29.6q4.329-.015,8.656-.011,3.192,0,6.384-.005h0c.179,0,.228.023.294.23a21.22,21.22,0,0,0,2.31,4.88q-2.237-.008-4.473-.006H11.059q-3.018,0-6.036,0a1.972,1.972,0,0,1-2.2-1.921,4.707,4.707,0,0,1,.058-1.59" transform="translate(0 0)" stroke="rgba(0,0,0,0)" stroke-width="1" fill="url(#linear-gradient)"/>
    <path id="Path_27409" data-name="Path 27409" d="M126.116,27.212c-5.4-4.851-11.581-5.981-18.373-3.359a14.973,14.973,0,0,0-4.536,2.838,1.346,1.346,0,0,0-.342,1.8,1.3,1.3,0,0,0,1.54.6,1.748,1.748,0,0,0,.716-.424l.055-.047a13.546,13.546,0,0,1,12.762-2.833A14.05,14.05,0,0,1,128.354,41.6a14.3,14.3,0,0,1-14.231,11.98H114.1a10.437,10.437,0,0,1-2.2-.162,14.4,14.4,0,0,1-11.054-18.442,14.866,14.866,0,0,1,1.471-3.086,1.374,1.374,0,0,0-.36-1.936,1.4,1.4,0,0,0-1.954.481c-.077.11-.148.227-.217.342l-.028.046a15.932,15.932,0,0,0-2.236,10.284,17.041,17.041,0,0,0,5.357,10.708,15.742,15.742,0,0,0,11.065,4.528,18.409,18.409,0,0,0,2.876-.232,16.188,16.188,0,0,0,11.179-6.643,17,17,0,0,0,3.07-11.564,15.6,15.6,0,0,0-4.959-10.691" transform="translate(-72.754 -16.788)" stroke="rgba(0,0,0,0)" stroke-width="1" fill="url(#linear-gradient)"/>
    <path id="Path_27410" data-name="Path 27410" d="M140.237,56.372h-2.265c-.259,0-.51,0-.765,0-.641,0-1.3-.006-1.958.012a1.411,1.411,0,0,0-1.159.6,1.325,1.325,0,0,0-.12,1.222,1.442,1.442,0,0,0,1.508.872q3.778-.009,7.558,0h1.134c.081,0,.146,0,.2,0-.025.047-.057.105-.1.178a3.115,3.115,0,0,1-2.778,1.72c-.728.008-1.456.009-2.184.01-.669,0-1.339,0-2.008.008a1.435,1.435,0,0,0-1.463.979,1.369,1.369,0,0,0,.57,1.6l1.108.878q3.748,2.967,7.5,5.926a1.72,1.72,0,0,0,1.055.41,1.279,1.279,0,0,0,1.058-.559,1.386,1.386,0,0,0-.427-2.009c-.491-.4-.988-.79-1.485-1.181l-4.147-3.279.3,0a6,6,0,0,0,5.712-4.166c.159-.5.277-.56.666-.534a1.47,1.47,0,0,0,1.11-.347,1.358,1.358,0,0,0-1.041-2.334l-.066,0a2.236,2.236,0,0,0-.359,0c-.115.012-.144.015-.192-.179a5.5,5.5,0,0,0-.763-1.738l.309,0a6.119,6.119,0,0,0,1.47-.1A1.27,1.27,0,0,0,149.269,53a1.284,1.284,0,0,0-1.14-1.284,2.441,2.441,0,0,0-.463-.025h-.1q-5.981,0-11.962,0h-.1a2.964,2.964,0,0,0-.45.02,1.349,1.349,0,0,0-.145,2.644,4.982,4.982,0,0,0,1.061.1c1.829.009,3.659,0,5.488.009a3.113,3.113,0,0,1,2.816,1.749c.036.062.064.112.086.154-.045,0-.1,0-.168,0h-3.963" transform="translate(-99.986 -38.606)" stroke="rgba(0,0,0,0)" stroke-width="1" fill="url(#linear-gradient)"/>
  </g>
</svg>
