<svg id="Group_24021" data-name="Group 24021" xmlns="http://www.w3.org/2000/svg" xmlns:xlink="http://www.w3.org/1999/xlink" width="54.846" height="56" viewBox="0 0 54.846 56">
  <defs>
    <linearGradient id="linear-gradient" x1="2.056" y1="-0.059" x2="1.995" y2="1.392" gradientUnits="objectBoundingBox">
      <stop offset="0" stop-color="#00efd1"/>
      <stop offset="1" stop-color="#00acea"/>
    </linearGradient>
    <clipPath id="clip-path">
      <rect id="Rectangle_2624" data-name="Rectangle 2624" width="54.846" height="56" fill="url(#linear-gradient)"/>
    </clipPath>
  </defs>
  <g id="Group_24020" data-name="Group 24020" clip-path="url(#clip-path)">
    <path id="Path_27404" data-name="Path 27404" d="M88.857,32.745c0,1.882.006,3.747,0,5.611a1.166,1.166,0,1,1-2.32.028c-.015-1.639,0-3.279-.005-4.918v-.807c-.718,0-1.371,0-2.025,0-1.081-.006-1.473-.395-1.481-1.491-.009-1.161,0-2.322,0-3.483q0-10.041,0-20.082c0-1.456.3-1.758,1.761-1.759h1.747V3.871c0-.82,0-1.639,0-2.459.006-.853.459-1.4,1.15-1.411s1.171.542,1.175,1.383c.007,1.454,0,2.908,0,4.46.718,0,1.391,0,2.065,0,1.012.007,1.445.4,1.446,1.388q.011,12.022,0,24.044c0,.959-.437,1.368-1.386,1.381-.637.009-1.275.008-1.912.014a1.062,1.062,0,0,0-.213.073M85.412,30.3H90V8.2H85.412Z" transform="translate(-67.856 0)" fill="url(#linear-gradient)"/>
    <path id="Path_27405" data-name="Path 27405" d="M254.937,86.673c0,1.757,0,3.417,0,5.076,0,.228.008.456,0,.683a1.174,1.174,0,0,1-1.176,1.24,1.15,1.15,0,0,1-1.146-1.257c-.013-1.639,0-3.279,0-4.918v-.823c-.764,0-1.462.009-2.161,0-.913-.016-1.352-.429-1.353-1.34q-.012-10.314,0-20.628c0-.91.44-1.319,1.358-1.334.68-.011,1.361,0,2.12,0,.014-.282.034-.521.035-.76,0-1.275-.008-2.55.006-3.825a1.163,1.163,0,0,1,1.152-1.256,1.177,1.177,0,0,1,1.166,1.252c.017,1.5.005,3,.005,4.588.661,0,1.268,0,1.875,0,1.282,0,1.624.338,1.625,1.617q0,9.426,0,18.852c0,.524.016,1.048-.007,1.571a1.157,1.157,0,0,1-1.286,1.264c-.7.016-1.4,0-2.207,0m1.112-20.92h-4.582V84.31h4.582Z" transform="translate(-203.596 -47.02)" fill="url(#linear-gradient)"/>
    <path id="Path_27406" data-name="Path 27406" d="M171.9,153.5v4.933c0,.228,0,.455,0,.683-.015.837-.494,1.391-1.187,1.376a1.208,1.208,0,0,1-1.138-1.351c-.008-1.594,0-3.189,0-4.783V153.5c-.689,0-1.337.005-1.985,0-1.116-.011-1.527-.416-1.528-1.53q-.006-7.823,0-15.647c0-1.084.415-1.492,1.484-1.5.654,0,1.309,0,2.029,0,0-1.293,0-2.517,0-3.74,0-.592,0-1.184,0-1.776,0-.941.411-1.458,1.147-1.466s1.177.517,1.18,1.438c0,1.594,0,3.189,0,4.783v.762c.718,0,1.392,0,2.066,0,1,.009,1.436.417,1.438,1.4q.013,7.926,0,15.852c0,.983-.441,1.4-1.431,1.418-.659.012-1.318,0-2.073,0M173,137.191h-4.577v13.922H173Z" transform="translate(-135.724 -104.49)" fill="url(#linear-gradient)"/>
    <path id="Path_27407" data-name="Path 27407" d="M3.5,173.085c0-1.716,0-3.35,0-4.983,0-.25-.008-.5,0-.751A1.2,1.2,0,0,1,4.677,166.1a1.17,1.17,0,0,1,1.151,1.261c.013,1.707,0,3.415.007,5.122,0,.177.019.353.033.6.712,0,1.389-.009,2.065,0,.976.016,1.413.448,1.416,1.434q.013,4.4,0,8.81c0,.986-.433,1.415-1.413,1.436-.676.014-1.353,0-2.1,0,0,1.508,0,2.936,0,4.364,0,.478.014.957-.006,1.434a1.177,1.177,0,0,1-1.152,1.2A1.19,1.19,0,0,1,3.51,190.5c-.017-1.639-.006-3.278-.007-4.917v-.817c-.716,0-1.369.007-2.021,0-1.046-.014-1.47-.413-1.474-1.439q-.016-4.405,0-8.81c0-1.022.436-1.424,1.48-1.434.636-.006,1.273,0,2.015,0m-1.158,9.3H6.974v-6.971c-.879,0-1.714-.008-2.549,0-.655.008-1.585-.21-1.893.128-.351.385-.175,1.276-.181,1.947-.016,1.611-.005,3.223-.005,4.894" transform="translate(0 -135.763)" fill="url(#linear-gradient)"/>
  </g>
</svg>
