<svg xmlns="http://www.w3.org/2000/svg" width="49.268" height="56.542" viewBox="0 0 49.268 56.542">
  <g id="Group_3629" data-name="Group 3629" transform="translate(864.675 -1495.5)">
    <g id="Group_3621" data-name="Group 3621" transform="translate(-864.675 1496.5)">
      <g id="Group_3620" data-name="Group 3620">
        <g id="Group_3620-2" data-name="Group 3620">
          <g id="Group_3617" data-name="Group 3617" transform="translate(0 11.237)">
            <path id="Path_8293" data-name="Path 8293" d="M1080.8,1141.338l5.48,5.48a1.322,1.322,0,0,1,0,1.871,1.35,1.35,0,0,1-1.87,0l-2.971-2.971a.708.708,0,0,0-1,1l2.971,2.971a2.739,2.739,0,0,0,3.874-3.874l-5.686-5.686a.709.709,0,0,0-.5-.207h-9.13v-.4a2.6,2.6,0,0,0-2.6-2.6h-3.306a2.6,2.6,0,0,0-2.6,2.6v11.018a2.6,2.6,0,0,0,2.6,2.6h3.305a2.6,2.6,0,0,0,2.6-2.6v-9.208Zm-10.253,9.208a1.182,1.182,0,0,1-1.18,1.18h-3.305a1.182,1.182,0,0,1-1.18-1.18v-11.019a1.182,1.182,0,0,1,1.18-1.181h3.306a1.182,1.182,0,0,1,1.18,1.181Z" transform="translate(-1063.466 -1111.199)" fill="#fff"/>
            <path id="Path_8294" data-name="Path 8294" d="M1125.187,1149.157a2.245,2.245,0,0,0-2.663-1.28l-11.376,3.177a.708.708,0,0,0,.381,1.365l11.376-3.177a.823.823,0,0,1,.979.47l.505,1.187a.82.82,0,0,1-.361,1.043l-16.562,9.073-8.09-4.008a.709.709,0,0,0-.629,1.271l8.419,4.171a.708.708,0,0,0,.654-.013l16.885-9.25a2.232,2.232,0,0,0,.984-2.84Z" transform="translate(-1085.998 -1118.216)" fill="#fff"/>
            <path id="Path_8295" data-name="Path 8295" d="M1086.387,1122.6l5.776,3.131a3.438,3.438,0,0,0,2.024.4c6.574-.744,15.618-6.772,15.618-6.772l-1.1-1.1c-5.51,4.25-15.111,6.69-15.111,6.69l-4.8-2.754,3.1-.63-1.391-1.181-3.919.808a.76.76,0,0,0-.193,1.41Z" transform="translate(-1078.015 -1099.144)" fill="#fff"/>
            <path id="Path_8296" data-name="Path 8296" d="M1142.665,1128.49l-2.673-1.2-2.361.367,2.047,1.365c-6.195,3.256-18.836,2.885-18.836,2.885a11.148,11.148,0,0,1-2.047.735c8.675,2.749,20.022-1.393,23.854-2.986a.635.635,0,0,0,.016-1.17Z" transform="translate(-1099.202 -1104.98)" fill="#fff"/>
            <path id="Path_8297" data-name="Path 8297" d="M1105.456,1102.243a6.768,6.768,0,1,0-6.768-6.768A6.768,6.768,0,0,0,1105.456,1102.243Zm0-12.121a5.352,5.352,0,1,1-5.352,5.352,5.352,5.352,0,0,1,5.352-5.352Z" transform="translate(-1086.214 -1080.055)" fill="#fff"/>
            <path id="Path_8298" data-name="Path 8298" d="M1110.629,1100.768a.423.423,0,0,0,.422.423h2.859a1.073,1.073,0,0,1-.794.635c-.7-.011-1.429.018-2.115-.006a.42.42,0,0,0-.356.284.452.452,0,0,0,.105.442l2.542,2.542a.428.428,0,0,0,.6,0,.437.437,0,0,0-.007-.6l-1.812-1.811h1.044a1.8,1.8,0,0,0,1.692-1.48h.469a.423.423,0,1,0,0-.846h-.469a1.97,1.97,0,0,0-.251-.635h.72a.423.423,0,0,0,0-.846h-4.23a.423.423,0,1,0,0,.846h2.069a1.083,1.083,0,0,1,.794.635h-2.859a.423.423,0,0,0-.426.418Z" transform="translate(-1093.928 -1086.617)" fill="#fff"/>
            <path id="Path_8299" data-name="Path 8299" d="M1154.33,1064.28a10.382,10.382,0,1,0,10.382,10.382A10.382,10.382,0,0,0,1154.33,1064.28Zm0,19.078a8.7,8.7,0,1,1,8.7-8.7,8.7,8.7,0,0,1-8.7,8.7Z" transform="translate(-1115.444 -1064.28)" fill="#fff"/>
            <path id="Path_8300" data-name="Path 8300" d="M1170.053,1080.512a.649.649,0,0,0-.649-.649h-6.488a.649.649,0,1,0,0,1.3h3.177a1.662,1.662,0,0,1,1.217.973h-4.39a.649.649,0,0,0,0,1.3h4.39a1.647,1.647,0,0,1-1.217.973c-1.071-.017-2.192.029-3.244-.01a.645.645,0,0,0-.547.436.694.694,0,0,0,.159.679l3.892,3.892a.654.654,0,0,0,.923,0,.671.671,0,0,0-.01-.923l-2.78-2.78h1.6a2.766,2.766,0,0,0,2.6-2.271h.719a.649.649,0,0,0,0-1.3h-.72a3.019,3.019,0,0,0-.385-.973h1.1A.649.649,0,0,0,1170.053,1080.512Z" transform="translate(-1127.278 -1074.342)" fill="#fff"/>
          </g>
          <line id="Line_51" data-name="Line 51" y2="6.354" transform="translate(16.023 8.736)" fill="none" stroke="#fff" stroke-linecap="round" stroke-width="2"/>
          <line id="Line_52" data-name="Line 52" y2="2.383" transform="translate(21.583 14.296)" fill="none" stroke="#fff" stroke-linecap="round" stroke-width="2"/>
          <line id="Line_53" data-name="Line 53" y2="5.56" transform="translate(21.583 5.56)" fill="none" stroke="#fff" stroke-linecap="round" stroke-width="2"/>
          <line id="Line_54" data-name="Line 54" y2="7.148" transform="translate(31.113 3.971)" fill="none" stroke="#fff" stroke-linecap="round" stroke-width="2"/>
          <line id="Line_55" data-name="Line 55" y2="7.148" transform="translate(36.673)" fill="none" stroke="#fff" stroke-linecap="round" stroke-width="2"/>
          <line id="Line_56" data-name="Line 56" y2="5.56" transform="translate(42.232 3.177)" fill="none" stroke="#fff" stroke-linecap="round" stroke-width="2"/>
        </g>
      </g>
    </g>
  </g>
</svg>
