<svg width="71" height="70" viewBox="0 0 71 70" fill="none" xmlns="http://www.w3.org/2000/svg">
<path d="M69.371 67.74H55.8226V55.3206C57.6413 53.8377 59.224 52.0862 60.5146 50.127C62.6602 51.0404 63.7258 52.465 63.7258 54.4816C63.7258 55.0367 63.6437 55.5885 63.4821 56.1194C63.3614 56.518 63.4695 56.9508 63.7638 57.2452C64.0588 57.5401 64.4915 57.6481 64.8896 57.5274C68.2298 56.5312 70.5143 53.4534 70.5 49.9676C70.5469 45.774 67.7193 42.092 63.6558 41.055C63.6977 40.5456 63.7258 40.0335 63.7258 39.5142C63.7258 29.3187 57.5161 21.3174 47.1288 18.1122C46.5329 17.9281 45.9005 18.2621 45.7164 18.8581C45.5328 19.4546 45.8669 20.0869 46.4629 20.2705C55.8562 23.168 61.4677 30.3617 61.4677 39.5142C61.4677 50.9103 50.0644 59.8368 35.5 59.8368C22.794 59.8368 15.1829 55.5588 12.8797 47.1203C12.7457 46.6291 12.2997 46.2878 11.7903 46.2884H2.75806V32.74H11.7903C12.2997 32.74 12.7457 32.3987 12.8797 31.9075C14.5567 25.7613 17.7266 22.6046 24.5757 20.2594C25.159 20.0527 25.4672 19.4149 25.2665 18.8294C25.0664 18.2439 24.4313 17.9286 23.8436 18.1232C23.2874 18.3128 22.7598 18.5119 22.2449 18.7147C22.2157 18.6387 22.1782 18.5659 22.1324 18.4981C18.0584 13.2311 8.59287 14.9098 8.19208 14.9836C7.81666 15.0531 7.50132 15.3083 7.35523 15.6612C7.20914 16.014 7.25104 16.417 7.46714 16.7323L13.3383 25.2861C12.2837 26.8881 11.4755 28.6395 10.9413 30.4819H1.62903C1.00553 30.4819 0.5 30.9869 0.5 31.611V47.4174C0.5 48.0409 1.00553 48.5464 1.62903 48.5464H10.948C11.9221 51.6854 13.7827 54.4766 16.3064 56.5825V67.74H1.62903C1.00553 67.74 0.5 68.245 0.5 68.869C0.5 69.4925 1.00553 69.998 1.62903 69.998H69.371C69.9945 69.998 70.5 69.4925 70.5 68.869C70.5 68.245 69.9945 67.74 69.371 67.74V67.74ZM63.3421 43.2938C66.2838 44.1731 68.2844 46.8975 68.2419 49.9676C68.2491 51.7483 67.4111 53.4264 65.9839 54.4904V54.4838C65.9899 51.6805 64.2644 49.165 61.6475 48.1611C62.4275 46.6219 62.997 44.9846 63.3421 43.2938V43.2938ZM10.3939 16.9975C12.9905 16.8056 17.7448 16.8927 20.1362 19.6348C18.1439 20.5671 16.3406 21.8587 14.8174 23.4453L10.3939 16.9975ZM26.4677 67.74H18.5645V58.1846C21.0084 59.6372 23.6804 60.6648 26.4677 61.2243V67.74ZM43.4032 67.74H28.7258V61.6262C30.9695 61.9471 33.2337 62.1036 35.5 62.0948C38.1583 62.0981 40.8089 61.8065 43.4032 61.2254V67.74ZM53.5645 67.74H45.6613V60.6345C48.458 59.8097 51.1201 58.5826 53.5645 56.9927V67.74Z" fill="url(#paint0_linear_578_4452)"/>
<path d="M44.5333 15.7979C44.5333 10.8093 40.4896 6.76562 35.501 6.76562C30.5124 6.76562 26.4688 10.8093 26.4688 15.7979C26.4688 20.7859 30.5124 24.8301 35.501 24.8301C40.4868 24.8241 44.5277 20.7837 44.5333 15.7979ZM35.501 22.5721C31.76 22.5721 28.7268 19.5389 28.7268 15.7979C28.7268 12.0563 31.76 9.02369 35.501 9.02369C39.242 9.02369 42.2752 12.0563 42.2752 15.7979C42.2713 19.5372 39.2409 22.5682 35.501 22.5721Z" fill="url(#paint1_linear_578_4452)"/>
<path d="M17.4375 31.6058C17.4375 33.4764 18.9541 34.9929 20.8246 34.9929C22.6951 34.9929 24.2117 33.4764 24.2117 31.6058C24.2117 29.7348 22.6951 28.2188 20.8246 28.2188C18.9541 28.2188 17.4375 29.7348 17.4375 31.6058ZM21.9536 31.6058C21.9536 32.2293 21.4481 32.7349 20.8246 32.7349C20.2011 32.7349 19.6956 32.2293 19.6956 31.6058C19.6956 30.9818 20.2011 30.4768 20.8246 30.4768C21.4481 30.4768 21.9536 30.9818 21.9536 31.6058Z" fill="url(#paint2_linear_578_4452)"/>
<path d="M26.4728 27.1018H44.5373C45.1608 27.1018 45.6663 26.5963 45.6663 25.9728C45.6663 25.3487 45.1608 24.8438 44.5373 24.8438H26.4728C25.8493 24.8438 25.3438 25.3487 25.3438 25.9728C25.3438 26.5963 25.8493 27.1018 26.4728 27.1018Z" fill="url(#paint3_linear_578_4452)"/>
<path d="M35.4962 5.64516C36.1197 5.64516 36.6253 5.13963 36.6253 4.51613V1.12903C36.6253 0.504977 36.1197 0 35.4962 0C34.8727 0 34.3672 0.504977 34.3672 1.12903V4.51613C34.3672 5.13963 34.8727 5.64516 35.4962 5.64516Z" fill="url(#paint4_linear_578_4452)"/>
<path d="M27.5978 9.03335C28.2213 9.03335 28.7268 8.52782 28.7268 7.90432V2.32987C28.7268 1.70581 28.2213 3.33553 27.5978 3.33553C26.9743 3.33553 26.4688 1.70581 26.4688 2.32987V7.90432C26.4688 8.52782 26.9743 9.03335 27.5978 9.03335Z" fill="url(#paint5_linear_578_4452)"/>
<path d="M27.5978 3.3871C28.2213 3.3871 28.7268 2.88157 28.7268 2.25806V1.12903C28.7268 0.504977 28.2213 0 27.5978 0C26.9743 0 26.4688 0.504977 26.4688 1.12903V2.25806C26.4688 2.88157 26.9743 3.3871 27.5978 3.3871Z" fill="url(#paint6_linear_578_4452)"/>
<path d="M43.4337 8.6408C44.0572 8.6408 44.5628 8.13527 44.5628 7.51177V2.67785C44.5628 2.0538 44.0572 3.73653 43.4337 3.73653C42.8102 3.73653 42.3047 2.0538 42.3047 2.67785V7.51177C42.3047 8.13527 42.8102 8.6408 43.4337 8.6408Z" fill="url(#paint7_linear_578_4452)"/>
<path d="M43.4103 4.51613C44.0338 4.51613 44.5393 4.0106 44.5393 3.3871V1.12903C44.5393 0.504977 44.0338 0 43.4103 0C42.7868 0 42.2812 0.504977 42.2812 1.12903V3.3871C42.2812 4.0106 42.7868 4.51613 43.4103 4.51613Z" fill="url(#paint8_linear_578_4452)"/>
<defs>
<linearGradient id="paint0_linear_578_4452" x1="35.5001" y1="13.4332" x2="35.5001" y2="70.191" gradientUnits="userSpaceOnUse">
<stop stop-color="#00EFD1"/>
<stop offset="1" stop-color="#00ACEA"/>
</linearGradient>
<linearGradient id="paint1_linear_578_4452" x1="35.501" y1="6.36118" x2="35.501" y2="24.8931" gradientUnits="userSpaceOnUse">
<stop stop-color="#00EFD1"/>
<stop offset="1" stop-color="#00ACEA"/>
</linearGradient>
<linearGradient id="paint2_linear_578_4452" x1="20.8246" y1="28.0671" x2="20.8246" y2="35.0166" gradientUnits="userSpaceOnUse">
<stop stop-color="#00EFD1"/>
<stop offset="1" stop-color="#00ACEA"/>
</linearGradient>
<linearGradient id="paint3_linear_578_4452" x1="35.505" y1="24.7932" x2="35.505" y2="27.1097" gradientUnits="userSpaceOnUse">
<stop stop-color="#00EFD1"/>
<stop offset="1" stop-color="#00ACEA"/>
</linearGradient>
<linearGradient id="paint4_linear_578_4452" x1="35.4962" y1="-0.12639" x2="35.4962" y2="5.66485" gradientUnits="userSpaceOnUse">
<stop stop-color="#00EFD1"/>
<stop offset="1" stop-color="#00ACEA"/>
</linearGradient>
<linearGradient id="paint5_linear_578_4452" x1="27.5978" y1="2.03423" x2="27.5978" y2="9.05723" gradientUnits="userSpaceOnUse">
<stop stop-color="#00EFD1"/>
<stop offset="1" stop-color="#00ACEA"/>
</linearGradient>
<linearGradient id="paint6_linear_578_4452" x1="27.5978" y1="-0.0758338" x2="27.5978" y2="3.39891" gradientUnits="userSpaceOnUse">
<stop stop-color="#00EFD1"/>
<stop offset="1" stop-color="#00ACEA"/>
</linearGradient>
<linearGradient id="paint7_linear_578_4452" x1="43.4337" y1="2.40245" x2="43.4337" y2="8.66208" gradientUnits="userSpaceOnUse">
<stop stop-color="#00EFD1"/>
<stop offset="1" stop-color="#00ACEA"/>
</linearGradient>
<linearGradient id="paint8_linear_578_4452" x1="43.4103" y1="-0.101112" x2="43.4103" y2="4.53188" gradientUnits="userSpaceOnUse">
<stop stop-color="#00EFD1"/>
<stop offset="1" stop-color="#00ACEA"/>
</linearGradient>
</defs>
</svg>
