<svg width="254" height="255" viewBox="0 0 254 255" fill="none" xmlns="http://www.w3.org/2000/svg">
<path d="M253.331 0.921875H69.1797V226.32H253.331V0.921875Z" fill="#F3F3F3"/>
<path d="M211.47 116.875H97.1641V125.502H211.47V116.875Z" fill="#FF725E"/>
<path d="M155.339 74.3828H98.6953V83.0096H155.339V74.3828Z" fill="#E0E0E0"/>
<path d="M180.77 54.0419C180.77 54.1401 162.549 54.2174 140.064 54.2174C117.58 54.2174 99.3516 54.1401 99.3516 54.0419C99.3516 53.9436 117.58 53.8594 140.064 53.8594C162.549 53.8594 180.77 53.9366 180.77 54.0419Z" fill="#263238"/>
<path d="M211.822 143.253C211.822 143.351 186.485 143.435 155.212 143.435C123.939 143.435 98.6016 143.351 98.6016 143.253C98.6016 143.155 123.939 143.07 155.212 143.07C186.485 143.07 211.822 143.155 211.822 143.253Z" fill="#263238"/>
<path d="M211.822 153.182C211.822 153.281 186.485 153.365 155.212 153.365C123.939 153.365 98.6016 153.281 98.6016 153.182C98.6016 153.084 123.939 153 155.212 153C186.485 153 211.822 153.084 211.822 153.182Z" fill="#263238"/>
<path d="M211.822 163.222C211.822 163.327 186.485 163.404 155.212 163.404C123.939 163.404 98.6016 163.327 98.6016 163.222C98.6016 163.116 123.939 163.039 155.212 163.039C186.485 163.039 211.822 163.123 211.822 163.222Z" fill="#263238"/>
<path d="M148.562 193.682C148.562 193.788 137.45 193.865 123.746 193.865C110.041 193.865 98.9219 193.788 98.9219 193.682C98.9219 193.577 110.034 193.5 123.746 193.5C137.457 193.5 148.562 193.584 148.562 193.682Z" fill="#263238"/>
<path d="M0.335938 252.706L4.92456 252.636L15.0597 163.969L10.5406 163.445L0.335938 252.706Z" fill="#455A64"/>
<path d="M27.2344 252.706L31.823 252.636L41.9581 163.969L37.439 163.445L27.2344 252.706Z" fill="#455A64"/>
<path d="M108.31 252.867L103.721 252.797L93.5859 164.945L98.105 164.43L108.31 252.867Z" fill="#455A64"/>
<path d="M78.7316 252.867L74.1429 252.797L64.0078 164.945L68.5269 164.43L78.7316 252.867Z" fill="#455A64"/>
<path d="M7.48676 178.648H100.062V169.091H7.48676V178.648Z" fill="#455A64"/>
<path d="M66.8738 62.5781L8.22597 63.3015L7.48438 169.107L74.8304 170.023L66.8738 62.5781Z" fill="#455A64"/>
<path d="M93.1322 103.968C92.8309 101.929 86.6896 95.1646 86.6896 95.1646C86.6896 95.1646 83.5996 82.8517 82.7035 79.2733C82.3935 78.2305 81.944 77.2339 81.3671 76.3105C79.1925 72.7048 76.1015 69.7345 72.4061 67.6992L63.9087 62.9434L61.877 58.4415L40.0464 54.5938L35.6509 59.6343C35.6509 59.6343 19.1658 65.86 17.0028 67.7531C14.3532 70.0618 21.6378 108.801 21.6378 108.801C21.6378 108.801 16.0141 132.303 14.8321 137.167C13.6502 142.03 15.3497 148.856 15.3497 148.856L26.52 138.221C29.61 134.373 35.1565 129.641 40.0618 129.71L81.9696 129.895L80.301 118.197L114.183 124.762C114.183 124.762 120.015 113.441 120.478 113.218C120.942 112.995 93.1322 103.968 93.1322 103.968Z" fill="#FF725E"/>
<path d="M40.372 60.5848C40.0785 60.2846 42.9831 70.2273 46.3203 79.3465C48.1178 84.2799 49.0329 89.4892 49.024 94.7375V127.767L69.1088 126.412L66.1116 104.603C66.1116 104.603 63.6627 90.5742 63.0216 85.2335C62.3881 80.3469 60.2251 65.4714 60.2251 65.4714C60.2251 65.4714 48.7845 69.0883 40.372 60.5848Z" fill="white"/>
<path d="M85.1978 112.15C85.1632 111.983 85.1632 111.81 85.1978 111.642C85.2396 111.186 85.3276 110.734 85.4605 110.295C85.8885 108.835 86.6791 107.505 87.7592 106.429C88.8393 105.353 90.1741 104.565 91.6404 104.139C92.0829 104.014 92.5351 103.927 92.9923 103.877C93.1605 103.843 93.3339 103.843 93.5021 103.877C93.5021 103.939 92.7991 104.016 91.7254 104.385C90.3303 104.871 89.0611 105.659 88.0097 106.694C86.9674 107.741 86.1753 109.009 85.6922 110.403C85.3368 111.481 85.2596 112.189 85.1978 112.15Z" fill="#263238"/>
<path d="M86.2656 104.256C87.2188 103.759 88.2625 103.458 89.3347 103.37C90.407 103.283 91.4859 103.411 92.5074 103.748C92.5074 103.856 91.086 103.586 89.3633 103.748C87.6407 103.909 86.2656 104.356 86.2656 104.256Z" fill="#263238"/>
<g opacity="0.3">
<path d="M19.5896 122.273L17.8438 124.243C19.6682 126.486 22.1415 128.114 24.9275 128.907C27.7192 129.499 30.5718 129.758 33.425 129.677C34.5859 129.73 35.7485 129.618 36.878 129.346C38.0213 129.022 39.0796 128.376 40.2615 128.307C41.0459 128.315 41.8255 128.428 42.579 128.645C43.3358 128.853 44.1332 128.867 44.8965 128.684C45.2803 128.579 45.6201 128.354 45.8662 128.042C46.1123 127.731 46.2516 127.349 46.2638 126.952C37.5707 124.426 28.6259 122.857 19.5896 122.273Z" fill="black"/>
</g>
<path d="M76.9423 124.804L72.0138 119.586L61.8709 117.031C61.8709 117.031 52.601 119.809 52.3538 119.794C52.1066 119.779 44.2658 117.655 44.2658 117.655L41.5234 127.705L55.6833 128.667L71.8593 128.02C71.8593 128.02 72.7013 127.251 72.2069 126.705C71.7125 126.158 74.9106 127.613 75.2969 127.628C75.6831 127.643 76.4016 127.936 76.9037 127.328C77.2359 126.92 77.6993 125.604 76.9423 124.804Z" fill="#FFBE9D"/>
<path d="M72.203 126.716C71.6509 126.619 71.11 126.467 70.5885 126.262C69.6074 125.946 68.271 125.531 66.726 125.146C65.181 124.761 63.806 124.469 62.794 124.269C62.2406 124.191 61.6951 124.065 61.1641 123.891C61.7258 123.863 62.2889 123.905 62.8404 124.015C64.1794 124.2 65.5075 124.456 66.8187 124.784C68.1281 125.12 69.4176 125.528 70.6812 126.008C71.2153 126.182 71.7263 126.419 72.203 126.716Z" fill="#EB996E"/>
<path d="M76.9413 124.797C76.1785 124.6 75.4279 124.358 74.6933 124.074C73.3106 123.612 71.387 123.043 69.2395 122.45C67.4557 121.818 65.6132 121.365 63.7394 121.096C62.9656 121.058 62.1901 121.089 61.4219 121.188C61.608 121.082 61.8123 121.012 62.0244 120.98C62.5979 120.859 63.1845 120.81 63.7703 120.834C65.6754 121.034 67.5502 121.458 69.3554 122.096C71.4952 122.696 73.4264 123.304 74.7628 123.835C75.4504 124.097 75.9911 124.328 76.3619 124.497C76.5702 124.565 76.7659 124.666 76.9413 124.797Z" fill="#EB996E"/>
<path d="M17.0144 67.7266C17.0144 67.7266 13.4223 70.0814 11.6069 77.3768C9.79155 84.6721 2.1284 114.446 3.70428 118.933C5.28017 123.419 36.0564 127.729 36.0564 127.729L39.7025 112.422L24.0904 108.167C24.0904 108.167 24.2835 93.9837 24.4844 88.112C24.6852 82.2403 17.0144 67.7266 17.0144 67.7266Z" fill="#FF725E"/>
<path d="M39.4902 114.711L44.5191 115.942L41.4987 127.501L36.5547 126.708L39.4902 114.711Z" fill="white"/>
<path d="M3.60936 117.32C3.60936 117.32 3.60937 117.582 3.68662 118.044C3.854 118.721 4.22939 119.329 4.76038 119.783C6.0968 121.022 8.62286 122.053 11.8828 122.638C13.3582 123.123 15.0423 123.508 16.8422 123.915C18.6421 124.323 20.5811 124.731 22.6282 125.147C26.7224 125.978 31.2415 126.855 36.0387 127.748L35.8301 127.879C36.1777 126.463 36.5485 124.962 36.9193 123.438C37.7768 119.921 38.6188 116.512 39.4067 113.296L39.5303 113.503L25.6255 109.556C23.717 108.747 21.6475 108.386 19.5768 108.501C18.0014 108.583 16.453 108.943 15.0037 109.563C14.0883 109.965 13.2118 110.449 12.3849 111.01L11.7514 111.472C11.679 111.53 11.6015 111.581 11.5197 111.626L11.7206 111.441C11.8596 111.333 12.0604 111.156 12.3308 110.949C13.1443 110.345 14.0195 109.829 14.9419 109.409C16.4049 108.752 17.9751 108.364 19.5768 108.263C21.6883 108.127 23.8028 108.478 25.7568 109.286L39.6617 113.134L39.8316 113.18L39.7853 113.35C39.0128 116.574 38.1708 119.975 37.3133 123.492C36.9348 125.031 36.5408 126.517 36.2241 127.933L36.1777 128.102H36.0155C31.2183 127.201 26.6915 126.309 22.605 125.462C20.5579 125.031 18.6189 124.608 16.819 124.2C15.0191 123.792 13.3351 123.384 11.8364 122.869C8.56105 122.253 6.0041 121.176 4.65996 119.875C4.12391 119.394 3.75588 118.755 3.60936 118.051C3.56771 117.81 3.56771 117.562 3.60936 117.32Z" fill="#263238"/>
<path d="M24.9305 109.187C24.8841 109.233 24.3665 108.756 23.4318 108.132C22.2085 107.322 20.8701 106.7 19.4612 106.286C18.0477 105.883 16.5821 105.691 15.1121 105.716C13.9842 105.716 13.289 105.87 13.2812 105.808C13.8651 105.592 14.4814 105.475 15.1043 105.462C18.1411 105.246 21.1554 106.119 23.6018 107.925C24.1106 108.271 24.5594 108.697 24.9305 109.187Z" fill="#263238"/>
<path d="M26.9717 84.2266C27.0047 84.5387 27.0047 84.8533 26.9717 85.1654C26.9717 85.7657 26.9099 86.6353 26.8249 87.7049C26.655 89.8443 26.3305 92.7917 25.7743 96.0238C25.3235 98.7879 24.6755 101.516 23.8354 104.189C23.6654 104.704 23.4877 105.158 23.3332 105.559L22.8852 106.559C22.7556 106.845 22.595 107.116 22.4062 107.367C22.4987 107.07 22.6177 106.781 22.7616 106.505L23.1478 105.489C23.2792 105.081 23.4337 104.627 23.5882 104.112C24.3573 101.441 24.9686 98.7275 25.419 95.9853C25.9829 92.7686 26.3383 89.8289 26.5777 87.7049C26.6859 86.6891 26.7708 85.8426 26.8404 85.1808C26.8533 84.8593 26.8973 84.5397 26.9717 84.2266Z" fill="#263238"/>
<path d="M44.8081 76.3874C44.8081 76.3874 44.7309 76.2104 44.5609 75.9102C44.3085 75.4739 43.9465 75.1106 43.5103 74.8559C43.1358 74.6231 42.7113 74.4819 42.2715 74.444C41.8316 74.406 41.389 74.4723 40.9799 74.6374C40.5707 74.8026 40.2066 75.0619 39.9174 75.3941C39.6281 75.7264 39.4219 76.1221 39.3157 76.549L39.223 77.003L39.0067 76.5797C38.1909 74.971 37.4762 73.3132 36.8669 71.6161C35.8113 68.815 35.2874 65.8428 35.3219 62.8509C35.3347 62.336 35.376 61.8222 35.4455 61.3118C35.5305 60.8578 35.5923 60.473 35.6695 60.1652C35.7383 59.8371 35.8418 59.5172 35.9785 59.2109C35.7325 60.4094 35.5981 61.6279 35.5768 62.8509C35.63 65.8133 36.1944 68.7444 37.2454 71.5161C37.8508 73.2003 38.5497 74.8497 39.3389 76.4566H39.0299C39.1503 75.9874 39.3816 75.5536 39.7044 75.1914C40.0272 74.8292 40.4322 74.5491 40.8857 74.3744C41.3391 74.1998 41.828 74.1356 42.3114 74.1872C42.7948 74.2388 43.2589 74.4048 43.6649 74.6713C44.1144 74.9554 44.4734 75.3611 44.7 75.841C44.7573 75.9616 44.8013 76.088 44.8313 76.2181C44.8081 76.3412 44.8159 76.3874 44.8081 76.3874Z" fill="#263238"/>
<path d="M61.8524 77.915C61.7769 77.6429 61.7253 77.3648 61.6979 77.0839C61.5426 76.3247 61.4906 75.5482 61.5434 74.7752C61.7046 73.5756 62.3075 72.4785 63.2352 71.697C63.8081 71.2282 64.5255 70.9701 65.2668 70.9659C65.672 70.9586 66.0738 71.0403 66.4436 71.2053C66.8134 71.3702 67.1422 71.6143 67.4066 71.9202L67.0977 72.0972C66.8891 71.5585 66.665 71.0044 66.4333 70.4349C65.1278 67.149 63.9691 64.1708 63.1425 61.9699L62.1846 59.3996C62.0547 59.0915 61.9538 58.772 61.8833 58.4453C62.0559 58.7338 62.2007 59.0378 62.3159 59.3534C62.594 60.0152 62.9571 60.8925 63.382 61.8775C64.2703 64.0169 65.4677 66.9797 66.7732 70.2656C67.0049 70.8351 67.2213 71.3969 67.4376 71.9356L67.8624 73.0053L67.1286 72.1049C66.8961 71.8416 66.6096 71.6311 66.2884 71.4877C65.9672 71.3443 65.6188 71.2713 65.2668 71.2738C64.5997 71.2693 63.9511 71.4919 63.4283 71.9048C62.553 72.6348 61.9692 73.6532 61.7829 74.7752C61.7078 75.5437 61.7207 76.3183 61.8215 77.0839C61.8679 77.3584 61.8783 77.6378 61.8524 77.915Z" fill="#263238"/>
<path d="M74.8253 79.6328C74.9258 79.6328 76.5016 90.2065 78.3556 103.289C80.2096 116.371 81.6233 126.983 81.5229 126.999C81.4224 127.014 79.8465 116.425 77.9926 103.343C76.1386 90.2603 74.7249 79.6405 74.8253 79.6328Z" fill="#263238"/>
<g opacity="0.3">
<path d="M37.0938 71.2734C37.1784 73.983 37.7705 76.653 38.8396 79.146C39.6121 78.2071 40.4464 77.2144 41.6051 76.9373C43.0497 76.591 44.5097 77.4837 45.5526 78.5611C45.3688 77.4779 44.9381 76.4511 44.2934 75.5599C43.9727 75.1238 43.556 74.7666 43.0753 74.5158C42.5946 74.2651 42.0626 74.1273 41.5201 74.1131C40.9776 74.1314 40.4564 74.3277 40.0373 74.6714C39.6183 75.0151 39.3249 75.487 39.2027 76.0139L37.2019 71.3196" fill="black"/>
</g>
<path d="M25.2437 78.9337C25.1741 78.9337 25.1973 78.1641 24.9887 77.0636C24.7019 75.5854 24.1243 74.1783 23.2892 72.9234C22.8207 72.2411 22.285 71.6069 21.6902 71.0304C21.1937 70.567 20.6559 70.1497 20.0834 69.7837C19.1023 69.168 18.4071 68.9295 18.4303 68.8679C18.4534 68.8063 18.6157 68.8679 18.9324 68.991C19.1261 69.0469 19.3148 69.119 19.4963 69.2065C19.744 69.3101 19.9841 69.4309 20.2147 69.5682C20.8246 69.9097 21.3946 70.3175 21.9142 70.7841C22.5465 71.3636 23.1091 72.0144 23.5905 72.7234C24.4585 74.0156 25.0234 75.4859 25.2437 77.0252C25.3075 77.4891 25.3308 77.9578 25.3132 78.4257C25.3187 78.5977 25.2952 78.7694 25.2437 78.9337Z" fill="#263238"/>
<path d="M61.5495 25.5025C60.7144 21.8432 58.5266 18.6315 55.4216 16.5066C52.3167 14.3818 48.5224 13.4998 44.7941 14.0361L44.0216 14.1516C35.8023 15.8215 32.6428 23.7017 34.5431 31.8513L40.3677 60.5941L41.4878 63.5799C43.9348 65.9442 47.1086 67.4201 50.4993 67.7704C53.8899 68.1208 57.3003 67.3252 60.1822 65.5115L60.3599 63.8262L58.6218 54.5916C58.6218 54.5916 66.4085 52.2136 65.3579 44.2642C64.8481 40.3856 63.164 32.5593 61.5495 25.5025Z" fill="#FFBE9D"/>
<path d="M58.6814 54.5157C54.9827 55.0513 51.2074 54.5171 47.8047 52.9766C47.8047 52.9766 51.0878 58.3634 58.9286 56.478L58.6814 54.5157Z" fill="#EB996E"/>
<path d="M60.269 31.5458C60.314 31.8412 60.2414 32.1423 60.0669 32.3852C59.8923 32.6281 59.6295 32.7936 59.3343 32.8463C59.1917 32.8778 59.0441 32.8806 58.9004 32.8545C58.7567 32.8284 58.6196 32.774 58.4973 32.6944C58.375 32.6149 58.2698 32.5118 58.188 32.3912C58.1063 32.2706 58.0495 32.1349 58.021 31.9921C57.9759 31.6979 58.0474 31.3977 58.2204 31.155C58.3933 30.9123 58.6543 30.7461 58.948 30.6916C59.0912 30.659 59.2395 30.6553 59.3841 30.6808C59.5288 30.7064 59.6668 30.7606 59.79 30.8402C59.9132 30.9199 60.019 31.0234 60.1013 31.1446C60.1836 31.2658 60.2406 31.4022 60.269 31.5458Z" fill="#263238"/>
<path d="M48.2924 33.0458C48.3376 33.34 48.2661 33.6402 48.0931 33.8829C47.9201 34.1256 47.6592 34.2918 47.3654 34.3463C47.2223 34.379 47.074 34.3826 46.9294 34.3571C46.7847 34.3316 46.6467 34.2774 46.5235 34.1977C46.4003 34.118 46.2944 34.0145 46.2122 33.8933C46.1299 33.7721 46.0728 33.6357 46.0445 33.4921C45.9993 33.1979 46.0708 32.8977 46.2438 32.655C46.4168 32.4123 46.6777 32.2461 46.9715 32.1916C47.1147 32.159 47.263 32.1553 47.4076 32.1808C47.5522 32.2064 47.6902 32.2606 47.8134 32.3402C47.9366 32.4199 48.0425 32.5234 48.1248 32.6446C48.2071 32.7658 48.2641 32.9022 48.2924 33.0458Z" fill="#263238"/>
<path d="M47.9241 31.085C47.8005 31.2543 46.8194 30.7541 45.5602 30.9465C44.3011 31.1389 43.4668 31.8777 43.3046 31.7161C43.1423 31.5545 43.3045 31.3775 43.6985 31.0312C44.1992 30.5879 44.8198 30.3015 45.483 30.2077C46.1349 30.1095 46.8013 30.2143 47.391 30.5079C47.8159 30.7618 47.9859 31.0081 47.9241 31.085Z" fill="#263238"/>
<path d="M59.7096 29.5403C59.5782 29.7096 58.5972 29.2171 57.3303 29.4018C56.0634 29.5865 55.2214 30.3407 55.0669 30.2099C54.9124 30.079 55.0669 29.8636 55.4609 29.525C55.9636 29.0803 56.5872 28.7938 57.253 28.7015C57.9066 28.6013 58.5754 28.7034 59.1688 28.994C59.5937 29.2248 59.7714 29.4711 59.7096 29.5403Z" fill="#263238"/>
<path d="M53.7184 40.028C54.3351 39.7344 54.9866 39.5198 55.6574 39.3892C55.9587 39.3123 56.2522 39.2045 56.2676 38.9891C56.2522 38.6631 56.1332 38.3505 55.9277 38.0964L54.6609 35.857C52.8918 32.6633 51.5709 30.0238 51.6868 29.9545C51.8026 29.8853 53.3631 32.4094 55.1321 35.603C55.5647 36.3726 55.9741 37.1421 56.3603 37.8578C56.6112 38.2061 56.7314 38.6309 56.7002 39.0583C56.6725 39.1756 56.6175 39.2847 56.5397 39.377C56.4619 39.4692 56.3634 39.5419 56.2522 39.5893C56.086 39.6579 55.9123 39.707 55.7346 39.7355C55.0779 39.9187 54.4003 40.017 53.7184 40.028Z" fill="#263238"/>
<path d="M47.2335 26.3774C47.1331 26.716 45.8894 26.6468 44.4603 26.9161C43.0312 27.1854 41.8802 27.6856 41.6639 27.3778C41.5712 27.2393 41.7566 26.9084 42.2046 26.5544C42.806 26.1129 43.5007 25.814 44.2357 25.6807C44.9707 25.5473 45.7266 25.5829 46.4456 25.7849C46.9864 25.9619 47.2722 26.2158 47.2335 26.3774Z" fill="#263238"/>
<path d="M59.4474 25.195C59.2157 25.5105 58.1187 25.3566 56.8518 25.5028C55.5849 25.6491 54.5344 25.9877 54.2563 25.7337C54.1327 25.6029 54.2562 25.3028 54.6966 24.9642C55.3068 24.555 56.011 24.3062 56.7437 24.2408C57.4685 24.1539 58.2035 24.2574 58.8758 24.5409C59.3624 24.8026 59.5478 25.0719 59.4474 25.195Z" fill="#263238"/>
<path d="M63.0521 18.19C62.9366 17.8357 62.696 17.5351 62.375 17.3441C62.0539 17.153 61.6742 17.0845 61.3063 17.1511C61.691 16.9888 62.042 16.7565 62.3414 16.4662C62.4884 16.3171 62.5897 16.1293 62.6335 15.9249C62.6773 15.7204 62.6617 15.5078 62.5886 15.3119C62.3105 14.7193 61.5071 14.6886 60.8582 14.5808C60.0076 14.4453 59.2212 14.0468 58.6103 13.4419C57.7374 12.58 57.297 11.3641 56.5168 10.4175C56.0121 9.7987 55.3741 9.30085 54.6502 8.96084C53.9262 8.62083 53.1347 8.44736 52.3344 8.45327C51.534 8.45918 50.7452 8.64433 50.0263 8.995C49.3075 9.34566 48.677 9.85288 48.1816 10.4791C47.4936 9.92452 46.6829 9.54123 45.8166 9.36101C44.9503 9.18078 44.0533 9.20881 43.2001 9.44275C42.3468 9.67669 41.5618 10.1098 40.9101 10.7063C40.2583 11.3027 39.7586 12.0453 39.4524 12.8724C38.3321 12.5507 37.1455 12.5352 36.0171 12.8277C34.8888 13.1201 33.8602 13.7097 33.0393 14.5346C32.2184 15.3594 31.6355 16.3891 31.3517 17.5156C31.0679 18.6422 31.0936 19.8241 31.4262 20.9373L36.7641 23.3845C36.7607 23.0034 36.8384 22.6259 36.9922 22.277C37.146 21.9281 37.3724 21.6156 37.6565 21.3603C37.9405 21.105 38.2757 20.9126 38.6399 20.796C39.0041 20.6793 39.389 20.6409 39.7691 20.6834C41.3141 20.9373 42.4806 22.5534 44.0565 22.4918C45.2847 22.438 46.204 21.3837 47.3396 20.9527C48.7223 20.4063 50.2982 20.7988 51.6655 21.3683C52.9848 22.0618 54.3899 22.5793 55.8447 22.9074C57.5953 23.0447 59.3447 22.6272 60.8428 21.7146C61.5116 21.3802 62.1034 20.9111 62.5809 20.3371C62.8324 20.0464 63.0071 19.6979 63.0894 19.323C63.1717 18.9481 63.1589 18.5587 63.0521 18.19Z" fill="#263238"/>
<path d="M37.3759 20.9487L60.1413 18.1398C59.1528 16.7199 57.8255 15.5669 56.2788 14.7846C52.9952 12.9385 49.21 12.1736 45.4639 12.599C41.7482 13.0685 34.873 18.6554 32.5632 21.5874C30.717 23.9346 31.0182 25.6968 31.0182 25.6968C31.1032 28.675 33.243 31.7686 34.3168 34.5544C34.873 35.9858 36.1862 40.3799 36.1862 40.3799C37.4299 40.1952 37.7312 39.1409 37.3836 37.9327L36.4412 33.1384C37.5497 31.9711 38.2459 30.4756 38.4244 28.8786C38.6028 27.2815 38.2537 25.6701 37.4299 24.2886C36.9819 23.8961 36.0008 21.9876 37.3759 20.9487Z" fill="#263238"/>
<path d="M35.9932 32.8848C34.3555 29.037 32.7796 24.8199 33.5443 20.6797L32.8645 20.7336L32.6019 20.9721C31.9346 20.8326 31.24 20.9086 30.6191 21.1892C29.9981 21.4698 29.4831 21.9402 29.1489 22.5323C28.8147 23.1244 28.6787 23.8071 28.7607 24.4815C28.8426 25.1558 29.1383 25.7865 29.6046 26.282C28.9257 26.3538 28.2969 26.6719 27.8382 27.1757C27.3795 27.6795 27.1229 28.3338 27.1172 29.0139C27.2233 29.9484 27.5869 30.8353 28.1678 31.5766C28.7444 32.3195 29.1457 33.1822 29.342 34.1007C29.4241 34.5614 29.3415 35.0361 29.1086 35.4425C28.8758 35.8488 28.5073 36.1609 28.0674 36.3247C28.3473 36.7666 28.7694 37.1009 29.2647 37.2728C29.7601 37.4447 30.2993 37.4442 30.7943 37.2712C30.5658 38.0984 30.1048 38.8434 29.4656 39.4183C31.0646 40.2494 33.0654 39.6723 34.5872 38.6949C35.5372 38.1788 36.2632 37.3324 36.6266 36.317C36.9279 35.1396 36.4489 33.9468 35.9932 32.8848Z" fill="#263238"/>
<path d="M36.1743 37.5841C36.0352 37.5841 30.4733 36.7607 31.4312 42.1552C32.389 47.5498 37.6111 45.4874 37.6111 45.3258C37.6111 45.1642 36.1743 37.5841 36.1743 37.5841Z" fill="#FFBE9D"/>
<path d="M36.0497 43.5071C36.0497 43.5071 35.9647 43.5918 35.8179 43.6918C35.6107 43.8276 35.3584 43.8774 35.115 43.8304C34.7267 43.6716 34.3882 43.4124 34.1342 43.0795C33.8802 42.7467 33.7201 42.3524 33.6704 41.9373C33.5616 41.4793 33.5616 41.0023 33.6704 40.5444C33.6902 40.3668 33.7533 40.1969 33.8543 40.0493C33.9553 39.9017 34.0911 39.781 34.2498 39.6979C34.3524 39.6494 34.4689 39.6383 34.5789 39.6664C34.689 39.6945 34.7857 39.7601 34.8523 39.8518C34.9527 39.9903 34.9373 40.1057 34.9682 40.1134C34.9991 40.1211 35.0686 39.998 34.9682 39.7825C34.915 39.6547 34.8196 39.5489 34.6978 39.4824C34.5269 39.4004 34.3316 39.384 34.1493 39.4362C33.9352 39.5212 33.7464 39.659 33.6004 39.8367C33.4545 40.0144 33.3563 40.2261 33.315 40.452C33.1693 40.9525 33.1481 41.4807 33.2532 41.9911C33.4773 43.0685 34.2189 43.992 35.0454 44.0766C35.1975 44.0923 35.3512 44.0742 35.4955 44.0236C35.6398 43.9731 35.771 43.8913 35.8797 43.7842C36.0497 43.6687 36.0883 43.5148 36.0497 43.5071Z" fill="#EB996E"/>
<path d="M29.9746 33.7443C29.9746 33.7443 29.7969 33.5596 29.7969 33.1286C29.8175 32.8251 29.905 32.5298 30.0532 32.2638C30.2014 31.9978 30.4067 31.7676 30.6543 31.5895C31.3919 31.1274 32.218 30.8234 33.08 30.6969C33.5602 30.6389 34.0201 30.4695 34.4227 30.2022C34.8252 29.9349 35.1591 29.5771 35.3975 29.1578C35.7468 28.2269 35.7793 27.2076 35.4902 26.2565C35.2507 25.3562 34.9108 24.5558 34.7177 23.8555C34.4206 23.1239 34.3376 22.3235 34.4782 21.5469C34.5718 22.3133 34.7506 23.0669 35.0112 23.794C35.243 24.4712 35.6138 25.2407 35.8841 26.1873C36.222 27.2251 36.192 28.3471 35.7992 29.3655C35.5584 29.8975 35.1485 30.3356 34.6327 30.6122C34.1703 30.8504 33.676 31.0215 33.165 31.1201C32.3509 31.2298 31.5648 31.4908 30.8475 31.8897C30.622 32.0363 30.4289 32.2273 30.2801 32.451C30.1314 32.6746 30.03 32.9262 29.9823 33.1902C29.969 33.3746 29.9664 33.5596 29.9746 33.7443Z" fill="#455A64"/>
<path d="M28.3769 31.5198C28.3769 31.5198 28.2379 31.3813 28.1529 31.0504C28.0354 30.5739 28.0732 30.0726 28.2611 29.619C28.3835 29.2982 28.5731 29.007 28.8173 28.7648C29.1006 28.4956 29.4375 28.2885 29.806 28.1569C30.1645 28.0375 30.4973 27.8521 30.7871 27.6105C30.913 27.4715 31.005 27.3055 31.0559 27.1253C31.1069 26.9451 31.1153 26.7556 31.0807 26.5716C31.0807 26.156 30.9339 25.7251 30.8953 25.2864C30.7758 24.1626 30.9626 23.0275 31.436 22.0004C31.5343 21.7696 31.6878 21.5663 31.883 21.408C32.0782 21.2497 32.3093 21.1414 32.5561 21.0924C32.9192 21.0539 33.0891 21.2001 33.0737 21.2155C33.0582 21.2309 32.8883 21.177 32.587 21.2155C32.3839 21.2855 32.1996 21.401 32.0482 21.5531C31.8969 21.7052 31.7826 21.8898 31.7141 22.0928C31.4655 22.7116 31.3194 23.3666 31.2815 24.0321C31.2472 24.4212 31.2472 24.8126 31.2815 25.2018C31.2815 25.602 31.436 26.0252 31.4824 26.4946C31.5176 26.7412 31.4978 26.9925 31.4244 27.2307C31.3509 27.4688 31.2257 27.6878 31.0575 27.8721C30.7239 28.1489 30.3377 28.3557 29.9219 28.4801C29.6145 28.574 29.3301 28.7305 29.0867 28.9399C28.8433 29.1492 28.6463 29.4067 28.5082 29.696C28.2824 30.2772 28.2367 30.9125 28.3769 31.5198Z" fill="#455A64"/>
<path d="M58.6142 13.4477C58.4498 13.5614 58.2583 13.6298 58.0588 13.646C57.8594 13.6622 57.6593 13.6257 57.4786 13.54C57.0496 13.3666 56.6625 13.1042 56.343 12.7705C55.9445 12.36 55.4696 12.0307 54.9448 11.8009C54.2629 11.5233 53.5149 11.4482 52.7912 11.5848C52.0674 11.7213 51.3988 12.0637 50.866 12.5704C50.248 13.1399 49.7305 13.8863 49.0121 14.5482C48.6432 14.895 48.203 15.1576 47.722 15.3177C47.2163 15.4559 46.6827 15.4559 46.177 15.3177C45.1496 15.0868 44.2998 14.5482 43.4192 14.3712C42.5647 14.1507 41.6757 14.0958 40.8004 14.2095C39.3044 14.3876 37.9102 15.0563 36.8375 16.1103C36.1126 16.8253 35.5398 17.6786 35.1535 18.6191C34.8909 19.2886 34.8136 19.6888 34.775 19.6811C34.7364 19.6734 34.775 19.5733 34.775 19.3809C34.8206 19.1017 34.8878 18.8265 34.9758 18.5575C35.3123 17.5637 35.8664 16.6568 36.5981 15.9026C37.6964 14.7622 39.1508 14.027 40.7232 13.8171C41.6484 13.6867 42.5902 13.7363 43.4964 13.9633C44.4543 14.1865 45.3118 14.7329 46.2465 14.9022C46.686 15.0254 47.1512 15.0254 47.5907 14.9022C48.018 14.7572 48.4082 14.5208 48.734 14.2095C49.406 13.6016 49.9313 12.8474 50.5957 12.2472C51.2315 11.6513 52.0452 11.2784 52.9132 11.1852C53.6552 11.0977 54.4073 11.2093 55.0916 11.5084C55.6386 11.7675 56.1294 12.1309 56.5361 12.5781C56.8234 12.9006 57.1728 13.1623 57.5636 13.3477C57.8926 13.4973 58.2626 13.5325 58.6142 13.4477Z" fill="#455A64"/>
<path d="M50.8567 41.8227C51.0267 41.7611 51.3666 42.9001 52.5794 43.4234C53.7922 43.9467 54.9741 43.4696 55.0282 43.6235C55.0823 43.7774 54.8274 43.9236 54.3098 44.0852C53.6444 44.2909 52.9275 44.2554 52.2858 43.9852C51.6686 43.723 51.1782 43.2317 50.9185 42.6154C50.7331 42.1228 50.7795 41.8381 50.8567 41.8227Z" fill="#263238"/>
<path d="M122.085 160.057C119.943 158.237 117.17 157.325 114.36 157.517L109.633 172.485C113.101 172.639 116.585 174.417 119.899 173.501C121.233 173.092 122.421 172.31 123.324 171.249C124.226 170.188 124.804 168.892 124.99 167.514C125.144 166.13 124.96 164.729 124.454 163.431C123.948 162.133 123.136 160.976 122.085 160.057Z" fill="#FF725E"/>
<path d="M114.449 157.169C114.449 157.046 114.958 156.954 115.878 156.961C117.197 156.984 118.503 157.228 119.74 157.685C121.632 158.42 123.27 159.687 124.452 161.332C125.169 162.308 125.693 163.41 125.997 164.58C126.342 165.861 126.382 167.205 126.113 168.505C125.856 169.821 125.266 171.05 124.398 172.075C123.574 173.021 122.525 173.746 121.347 174.184C119.441 174.861 117.383 174.991 115.406 174.561C114.132 174.315 112.889 173.93 111.698 173.414C110.864 173.06 110.432 172.799 110.462 172.645C110.493 172.491 111.011 172.56 111.899 172.706C112.788 172.853 114.047 173.122 115.584 173.261C117.325 173.468 119.09 173.24 120.721 172.599C121.62 172.23 122.415 171.649 123.039 170.906C123.691 170.09 124.137 169.129 124.336 168.104C124.527 167.094 124.512 166.056 124.293 165.052C124.074 164.047 123.656 163.097 123.062 162.256C122.092 160.802 120.762 159.622 119.199 158.831C118.096 158.313 116.941 157.911 115.754 157.631C114.928 157.439 114.433 157.292 114.449 157.169Z" fill="#F5F5F5"/>
<path d="M70.6413 213.305L60.3594 242.001L96.1413 254.93C97.1687 251.451 81.1472 237.923 81.1472 237.923L88.4936 219.807L70.6413 213.305Z" fill="#FF725E"/>
<g opacity="0.6">
<path d="M70.6437 232.382C70.2605 232.36 69.8829 232.481 69.5844 232.721C69.286 232.962 69.0881 233.304 69.0292 233.682C68.9957 234.061 69.1092 234.438 69.3463 234.735C69.5834 235.033 69.9261 235.229 70.3038 235.283C70.7082 235.305 71.1064 235.176 71.4205 234.921C71.7347 234.666 71.9425 234.304 72.0033 233.905C72.0033 233.136 71.2308 232.274 70.4583 232.366" fill="white"/>
</g>
<path d="M60.3594 241.995L61.4022 239.102L95.392 252.607C95.392 252.607 96.7361 253.869 96.1645 254.916L60.3594 241.995Z" fill="white"/>
<path d="M81.7928 237.945C81.7233 238.115 80.8194 237.884 79.7611 238.13C78.7028 238.376 77.969 238.946 77.8376 238.815C77.7063 238.684 78.3243 237.784 79.6144 237.499C80.9044 237.214 81.8855 237.799 81.7928 237.945Z" fill="#263238"/>
<path d="M84.9887 240.848C84.9887 241.033 84.1004 241.056 83.2429 241.579C82.3854 242.103 81.9219 242.818 81.752 242.749C81.582 242.68 81.8292 241.648 82.9107 241.025C83.9922 240.402 85.0428 240.663 84.9887 240.848Z" fill="#263238"/>
<path d="M85.4898 246.105C85.3199 246.105 85.3894 245.128 86.1851 244.335C86.9807 243.543 87.9386 243.458 87.9541 243.627C87.9695 243.797 87.2897 244.128 86.6408 244.789C85.9919 245.451 85.6598 246.151 85.4898 246.105Z" fill="#263238"/>
<path d="M83.0125 233.637C82.8812 233.775 82.1705 233.244 81.1585 232.952C80.1466 232.659 79.2582 232.698 79.2273 232.513C79.1964 232.328 80.1543 231.974 81.3439 232.336C82.5336 232.698 83.1825 233.537 83.0125 233.637Z" fill="#263238"/>
<path d="M83.696 229.126C83.0534 229.07 82.4373 228.844 81.9115 228.472C81.3056 228.124 80.7452 227.703 80.243 227.218C79.9437 226.932 79.6649 226.626 79.4087 226.302C79.2489 226.118 79.1186 225.91 79.0224 225.686C78.9544 225.521 78.9424 225.339 78.9885 225.166C79.0345 224.994 79.136 224.841 79.2774 224.732C79.4095 224.643 79.5605 224.585 79.7186 224.564C79.8768 224.543 80.0377 224.558 80.1889 224.609C80.4181 224.69 80.6341 224.804 80.8301 224.947C81.1779 225.173 81.5038 225.431 81.8034 225.717C82.3119 226.204 82.7372 226.771 83.0626 227.395C83.6188 228.457 83.6651 229.211 83.5879 229.219C83.5106 229.226 83.2866 228.557 82.6686 227.626C82.3115 227.081 81.8857 226.585 81.4017 226.148C81.1143 225.895 80.8069 225.666 80.4825 225.463C80.1426 225.225 79.8181 225.101 79.6636 225.24C79.5091 225.378 79.5863 225.309 79.625 225.455C79.6991 225.617 79.7953 225.767 79.9108 225.902C80.1524 226.21 80.4102 226.506 80.6833 226.787C81.1392 227.26 81.6384 227.69 82.1742 228.072C83.078 228.718 83.7347 229.011 83.696 229.126Z" fill="#263238"/>
<path d="M83.3812 229.272C83.2294 228.639 83.2835 227.973 83.5357 227.372C83.8723 226.299 84.4974 225.338 85.3433 224.594C85.5228 224.39 85.753 224.237 86.0108 224.151C86.2685 224.064 86.5446 224.047 86.8111 224.101C86.9699 224.162 87.108 224.267 87.2092 224.403C87.3104 224.539 87.3706 224.701 87.3827 224.871C87.3979 225.113 87.3797 225.356 87.3286 225.594C87.2429 226.014 87.0945 226.418 86.8883 226.794C86.5432 227.417 86.0498 227.946 85.4515 228.334C84.4163 229.003 83.6129 228.949 83.6207 228.88C84.1535 228.606 84.6695 228.3 85.1657 227.964C85.6604 227.564 86.0634 227.063 86.3476 226.494C86.5106 226.163 86.6251 225.811 86.6875 225.448C86.7724 225.048 86.7415 224.678 86.5793 224.678C86.4171 224.678 86 224.786 85.745 225.04C85.4628 225.271 85.2041 225.528 84.9725 225.809C84.5597 226.311 84.2239 226.872 83.976 227.472C83.5357 228.557 83.4816 229.28 83.3812 229.272Z" fill="#263238"/>
<path d="M35.9822 136.645C30.5747 136.769 25.4067 137.53 21.6679 141.455C16.7084 146.657 10.5826 154.06 10.2272 159.201C9.70965 166.897 14.3601 169.167 17.759 171.037C19.2671 171.856 20.9713 172.25 22.6876 172.176L85.4141 171.699L87.384 161.117L46.8126 151.152L48.4966 135.938L35.9822 136.645Z" fill="#263238"/>
<path d="M48.4887 135.932L68.226 135.031C68.226 135.031 102.316 136.917 109.585 143.558C116.854 150.199 115.951 157.741 113.525 164.99C111.099 172.239 89.7399 218.559 89.7399 218.559C89.7399 218.559 91.4703 221.506 90.5124 224.446C90.121 225.731 89.4024 226.893 88.4264 227.82C87.4504 228.746 86.2502 229.405 84.9427 229.732L65.9703 222.806C65.9703 222.806 63.3979 221.906 65.1978 219.49C66.9977 217.073 68.2337 216.619 68.2337 216.619V211.794C68.2337 211.794 74.8926 199.72 75.5029 198.058C76.1131 196.395 82.4939 171.831 82.4939 171.831L86.7426 164.559C86.7426 164.559 76.4762 159.757 67.5848 156.271L46.8047 151.169L48.4887 135.932Z" fill="#263238"/>
<path d="M80.5065 221.918C80.4679 221.964 79.8654 221.487 78.8379 220.825C77.4997 219.966 76.0759 219.246 74.5892 218.678C73.0894 218.12 71.5364 217.715 69.9542 217.47C69.2932 217.408 68.6357 217.313 67.9844 217.185C68.6482 217.095 69.3213 217.095 69.9852 217.185C71.5948 217.36 73.1756 217.737 74.6896 218.309C76.2052 218.892 77.6385 219.668 78.9538 220.617C79.528 220.979 80.0504 221.416 80.5065 221.918Z" fill="#455A64"/>
<path d="M89.9895 218.594C89.5757 218.255 89.2048 217.867 88.8848 217.44C88.2514 216.67 87.3939 215.631 86.5055 214.423C85.6171 213.215 84.8447 212.114 84.3194 211.26C84.009 210.827 83.7498 210.36 83.5469 209.867C83.9264 210.243 84.2608 210.661 84.5434 211.114L86.8068 214.192L89.1243 217.27C89.4561 217.682 89.7459 218.125 89.9895 218.594Z" fill="#455A64"/>
<path d="M96.9412 157.914C96.3522 158.139 95.7513 158.331 95.1413 158.491C93.7119 158.967 92.3431 159.608 91.0626 160.4C89.7837 161.197 88.6039 162.143 87.5477 163.216C86.7752 164.04 86.2885 164.609 86.2422 164.571C86.5328 164.005 86.9079 163.486 87.3546 163.032C88.3789 161.887 89.5625 160.894 90.8694 160.084C92.1727 159.268 93.5884 158.646 95.0718 158.237C95.6759 158.04 96.3057 157.931 96.9412 157.914Z" fill="#455A64"/>
<path d="M77.5312 190.722C77.5389 190.581 77.5649 190.441 77.6085 190.307C77.6858 190.006 77.7785 189.629 77.9021 189.16C78.1802 188.113 78.5664 186.69 79.0376 184.943C80.0419 181.349 81.4092 176.478 82.9001 171.091C83.6726 168.382 84.3601 165.804 85.1172 163.465C85.9204 161.427 87.1382 159.577 88.6938 158.032C89.7168 156.983 90.8543 156.051 92.085 155.253C92.5176 154.976 92.8575 154.761 93.1047 154.638C93.223 154.566 93.347 154.504 93.4755 154.453C93.4755 154.453 93.0043 154.776 92.1623 155.369C90.9767 156.208 89.8771 157.162 88.8792 158.216C87.3764 159.761 86.2043 161.594 85.4339 163.603C84.7077 165.912 84.0279 168.521 83.2477 171.214C81.7027 176.601 80.2968 181.472 79.2616 185.066L78.0102 189.252C77.8711 189.714 77.7476 190.083 77.6549 190.384C77.6257 190.5 77.5843 190.614 77.5312 190.722Z" fill="#455A64"/>
<path d="M60.0754 155.328C59.975 155.328 59.5655 151.665 59.1561 147.125C58.7467 142.584 58.4918 138.891 58.5922 138.883C58.6926 138.875 59.1021 142.546 59.5115 147.094C59.9209 151.642 60.1758 155.32 60.0754 155.328Z" fill="#455A64"/>
<path d="M27.2331 165.15C27.179 165.15 26.87 164.581 26.252 163.711C25.4487 162.577 24.4832 161.566 23.386 160.71C22.2861 159.858 21.0684 159.168 19.7708 158.663C18.7742 158.278 18.1176 158.124 18.1331 158.07C18.7231 158.092 19.3053 158.212 19.8557 158.424C21.2155 158.866 22.4864 159.544 23.6101 160.425C24.7364 161.301 25.7032 162.363 26.4683 163.565C26.8046 164.05 27.0627 164.585 27.2331 165.15Z" fill="#455A64"/>
<path d="M39.3233 151.808C39.3233 151.862 38.4503 151.331 37.0058 150.669C35.1164 149.826 33.1204 149.244 31.073 148.938C29.0231 148.651 26.943 148.651 24.8931 148.938C23.3481 149.161 22.367 149.438 22.3516 149.376C22.5564 149.267 22.7745 149.184 23.0005 149.13C23.6078 148.94 24.2272 148.791 24.8544 148.684C29.0318 147.951 33.3349 148.565 37.1371 150.438C37.7078 150.718 38.2599 151.035 38.7902 151.385C38.9864 151.501 39.1657 151.644 39.3233 151.808Z" fill="#455A64"/>
<path d="M86.5658 161.108C86.4013 161.099 86.2382 161.074 86.0792 161.031L84.6887 160.731L79.5747 159.584C75.2565 158.622 69.2774 157.329 62.6571 156.021C56.0369 154.713 50.0191 153.643 45.6623 152.897L40.502 152.012L39.0961 151.758C38.9301 151.741 38.7667 151.705 38.6094 151.65C38.7777 151.644 38.9461 151.657 39.1115 151.688L40.5252 151.873C41.7457 152.035 43.5224 152.296 45.7086 152.643C50.0809 153.328 56.1064 154.359 62.7421 155.667C69.3778 156.975 75.3338 158.307 79.6366 159.33C81.7918 159.846 83.499 160.277 84.7273 160.592L86.1023 160.954C86.2608 160.993 86.4158 161.044 86.5658 161.108Z" fill="#455A64"/>
<path d="M46.8139 152.94C46.7443 152.94 46.5976 152.117 45.9487 150.947C45.5529 150.269 45.0699 149.645 44.5118 149.092C43.8206 148.419 43.0879 147.789 42.318 147.207C40.8968 146.159 39.3933 145.228 37.822 144.421C37.1561 144.109 36.5156 143.747 35.9062 143.336C36.6082 143.561 37.2882 143.85 37.9379 144.198C39.5604 144.942 41.1008 145.853 42.5343 146.914C43.3201 147.508 44.0611 148.159 44.7513 148.861C45.3188 149.443 45.7976 150.104 46.1727 150.824C46.4217 151.312 46.6111 151.829 46.7366 152.363C46.799 152.549 46.8252 152.744 46.8139 152.94Z" fill="#455A64"/>
<path d="M116.677 162.398C116.037 163.281 115.441 164.196 114.893 165.138C114.058 166.739 113.803 168.216 113.695 168.216C113.692 167.088 113.994 165.979 114.568 165.007C115.027 163.967 115.755 163.067 116.677 162.398Z" fill="#263238"/>
<g opacity="0.3">
<path d="M75.4609 83.9688L79.9491 115.482L80.1732 115.982C81.2245 105.088 79.6076 94.1032 75.4609 83.9688Z" fill="black"/>
</g>
<path d="M99.5899 102.09L84.9897 127.554L49.0147 128.324L48.9297 129.947L83.7615 129.693L84.8661 129.655L121.652 129.724L129.084 116.957L138.578 103.398C138.72 103.198 138.804 102.962 138.821 102.717C138.837 102.472 138.785 102.228 138.671 102.01C138.557 101.793 138.384 101.611 138.173 101.486C137.962 101.36 137.719 101.294 137.473 101.297L100.756 101.435C100.521 101.433 100.29 101.493 100.086 101.608C99.8809 101.722 99.71 101.889 99.5899 102.09Z" fill="#E0E0E0"/>
<path d="M129.089 116.93C129.089 116.93 130.982 118.653 130.681 120.116C130.379 121.578 130.48 122.678 129.089 122.778C129.11 123.313 128.926 123.835 128.575 124.239C128.223 124.644 127.731 124.9 127.197 124.956C127.197 124.956 127.622 127.265 124.941 127.65C124.941 127.65 124.114 130.112 122.423 129.512C121.451 129.18 120.517 128.749 119.634 128.227L119.14 127.334C119.14 127.334 116.644 126.403 117.262 125.025C117.633 124.171 118.923 123.948 118.923 123.948C118.776 123.598 118.714 123.218 118.742 122.84C118.771 122.461 118.888 122.095 119.086 121.77C119.68 121.001 121.627 121.632 121.627 121.632C121.584 120.945 121.805 120.269 122.245 119.739C122.902 118.969 125.999 121.078 125.999 121.078L127.691 119.069L129.089 116.93Z" fill="#FFBE9D"/>
<path d="M124.94 127.662C122.811 126.629 120.794 125.381 118.922 123.938C121.051 124.97 123.067 126.218 124.94 127.662Z" fill="#EB996E"/>
<path d="M127.21 124.957C125.232 124.056 123.363 122.933 121.641 121.609C122.655 122.015 123.621 122.531 124.522 123.148C125.483 123.649 126.385 124.256 127.21 124.957Z" fill="#EB996E"/>
<path d="M124.117 119.914C125.028 120.241 125.887 120.697 126.666 121.268C127.5 121.745 128.303 122.275 129.069 122.854C129.023 122.977 127.817 122.431 126.473 121.576C125.632 121.105 124.843 120.548 124.117 119.914Z" fill="#EB996E"/>
<path d="M138.589 102.23C138.53 102.241 138.47 102.241 138.411 102.23H137.894H135.908L128.601 102.291L104.506 102.345H102.753C102.493 102.321 102.231 102.366 101.994 102.477C101.758 102.588 101.556 102.761 101.409 102.976L99.7788 105.993C98.6973 107.924 97.6622 109.787 96.6888 111.564L91.4204 120.999L87.8129 127.325L86.8395 129.079L86.5692 129.518C86.5074 129.618 86.4765 129.672 86.4688 129.664L86.5383 129.503L86.77 129.041C87.0018 128.618 87.3107 128.033 87.7047 127.294C88.539 125.755 89.7209 123.577 91.1809 120.899L96.3798 111.38C97.3686 109.602 98.3961 107.732 99.4698 105.793L101.115 102.83C101.299 102.571 101.547 102.363 101.836 102.228C102.124 102.093 102.443 102.035 102.761 102.06H104.514L128.608 102.114L135.916 102.176H137.901H138.419C138.479 102.183 138.536 102.201 138.589 102.23Z" fill="#263238"/>
<path d="M112.703 115.023C112.537 115.267 112.445 115.554 112.438 115.849C112.431 116.144 112.509 116.435 112.663 116.687C112.818 116.939 113.041 117.141 113.308 117.27C113.574 117.399 113.872 117.449 114.167 117.414C114.461 117.379 114.739 117.26 114.967 117.072C115.195 116.884 115.364 116.634 115.454 116.353C115.544 116.072 115.551 115.771 115.474 115.486C115.398 115.201 115.24 114.944 115.021 114.746C114.675 114.479 114.239 114.358 113.805 114.41C113.371 114.462 112.975 114.682 112.703 115.023Z" fill="white"/>
<path d="M100.716 194.487C100.716 194.487 100.716 194.433 100.77 194.325L100.948 193.863L101.682 192.093C102.354 190.554 103.304 188.292 104.478 185.529C106.896 179.934 110.248 172.17 114.065 163.351C114.617 161.118 114.92 158.831 114.968 156.532C115.077 153.814 114.548 151.108 113.423 148.629C112.842 147.476 112.104 146.41 111.23 145.458C110.453 144.496 109.558 143.634 108.564 142.896C107.572 142.263 106.509 141.746 105.397 141.357C104.323 140.926 103.273 140.541 102.238 140.21C100.175 139.533 98.213 139.01 96.4131 138.586C92.8133 137.74 89.8469 137.286 87.7998 136.993L85.4359 136.686L84.818 136.601C84.7466 136.595 84.6764 136.58 84.6094 136.555H84.8257L85.4437 136.601C85.9844 136.647 86.7878 136.716 87.8152 136.839C90.7147 137.183 93.5947 137.674 96.444 138.309C98.2516 138.717 100.222 139.225 102.3 139.895C103.342 140.225 104.408 140.603 105.49 141.026C106.63 141.427 107.722 141.956 108.742 142.603C109.764 143.358 110.686 144.24 111.484 145.228C112.379 146.202 113.137 147.292 113.74 148.467C114.907 150.998 115.462 153.765 115.362 156.548C115.316 158.883 115.007 161.206 114.443 163.474L104.733 185.598C103.505 188.346 102.524 190.562 101.828 192.116L101.056 193.863L100.839 194.31C100.747 194.487 100.724 194.487 100.716 194.487Z" fill="#455A64"/>
</svg>
