<svg width="71" height="70" viewBox="0 0 71 70" fill="none" xmlns="http://www.w3.org/2000/svg">
<path d="M49.0466 0H21.9498C20.4532 0.00168092 19.0183 0.596977 17.96 1.65529C16.9017 2.71359 16.3064 4.14849 16.3047 5.64516V64.3548C16.3064 65.8515 16.9017 67.2864 17.96 68.3447C19.0183 69.403 20.4532 69.9983 21.9498 70H49.0466C50.5433 69.9983 51.9782 69.403 53.0365 68.3447C54.0948 67.2864 54.6901 65.8515 54.6918 64.3548V5.64516C54.6901 4.14849 54.0948 2.71359 53.0365 1.65529C51.9782 0.596977 50.5433 0.00168092 49.0466 0ZM43.1534 2.25806L42.4759 5.64516H28.5207L27.8433 2.25806H43.1534ZM52.4337 64.3548C52.4327 65.2528 52.0755 66.1138 51.4405 66.7488C50.8056 67.3838 49.9446 67.7409 49.0466 67.7419H21.9498C21.0518 67.7409 20.1909 67.3838 19.5559 66.7488C18.9209 66.1138 18.5638 65.2528 18.5628 64.3548V5.64516C18.5638 4.74716 18.9209 3.88622 19.5559 3.25124C20.1909 2.61625 21.0518 2.25907 21.9498 2.25806H25.5403L26.4879 6.99563C26.539 7.25157 26.6773 7.48187 26.8792 7.64734C27.081 7.81281 27.334 7.90324 27.595 7.90323H43.4015C43.6625 7.90324 43.9154 7.81281 44.1173 7.64734C44.3191 7.48187 44.4574 7.25157 44.5086 6.99563L45.4562 2.25806H49.0466C49.9446 2.25907 50.8056 2.61625 51.4405 3.25124C52.0755 3.88622 52.4327 4.74716 52.4337 5.64516V64.3548Z" fill="url(#paint0_linear_976_2678)"/>
<path d="M28.7314 59.1094H21.9572C21.6577 59.1094 21.3705 59.2283 21.1588 59.4401C20.9471 59.6518 20.8281 59.939 20.8281 60.2384C20.8281 60.5378 20.9471 60.825 21.1588 61.0368C21.3705 61.2485 21.6577 61.3674 21.9572 61.3674H28.7314C29.0308 61.3674 29.318 61.2485 29.5297 61.0368C29.7414 60.825 29.8604 60.5378 29.8604 60.2384C29.8604 59.939 29.7414 59.6518 29.5297 59.4401C29.318 59.2283 29.0308 59.1094 28.7314 59.1094Z" fill="url(#paint1_linear_976_2678)"/>
<defs>
<linearGradient id="paint0_linear_976_2678" x1="35.4982" y1="-1.56723" x2="35.4982" y2="70.2442" gradientUnits="userSpaceOnUse">
<stop stop-color="#00EFD1"/>
<stop offset="1" stop-color="#00ACEA"/>
</linearGradient>
<linearGradient id="paint1_linear_976_2678" x1="25.3442" y1="59.0588" x2="25.3442" y2="61.3753" gradientUnits="userSpaceOnUse">
<stop stop-color="#00EFD1"/>
<stop offset="1" stop-color="#00ACEA"/>
</linearGradient>
</defs>
</svg>
