<svg width="71" height="70" viewBox="0 0 71 70" fill="none" xmlns="http://www.w3.org/2000/svg">
<path d="M69.6993 11.7385L58.7618 0.80101C57.9796 0.019115 56.8037 -0.215084 55.7819 0.208197C54.76 0.631478 54.0938 1.62843 54.0938 2.73449V5.46886H40.9688C33.4301 5.46886 27.2969 11.6021 27.2969 19.1407V48.1251H16.9063V45.3908C16.9063 44.2848 16.2401 43.2877 15.2184 42.8645C14.1968 42.4413 13.0206 42.6751 12.2384 43.4571L1.30093 54.3946C0.233022 55.4626 0.233022 57.1938 1.30093 58.2616L12.2384 69.1991C13.022 69.9826 14.1986 70.2142 15.2184 69.7918C16.2401 69.3686 16.9063 68.3715 16.9063 67.2655V64.5311H30.0313C37.57 64.5311 43.7032 58.3979 43.7032 50.8592V21.8748H54.0938V24.6092C54.0938 25.7151 54.76 26.7122 55.7819 27.1355C56.8034 27.5587 57.9796 27.3249 58.7618 26.5428L69.6993 15.6053C70.7671 14.5377 70.7671 12.8063 69.6993 11.7385ZM38.2346 50.8595C38.2346 55.3827 34.5546 59.0626 30.0314 59.0626H14.172C12.9995 59.0626 11.9993 59.8006 11.6108 60.8375L7.1015 56.3283L11.6108 51.819C11.9993 52.8559 12.9995 53.5939 14.172 53.5939H30.0314C33.1065 53.5939 35.9481 52.5731 38.2346 50.8531V50.8595ZM38.2346 39.922C38.2346 43.4867 35.9483 46.5259 32.7658 47.6548V30.0782C32.7658 26.5136 35.052 23.4742 38.2346 22.3454V39.922ZM59.3896 18.1813C59.0009 17.1444 58.0008 16.4064 56.8283 16.4064H40.9689C37.8939 16.4064 35.0523 17.4271 32.7658 19.1472V19.1407C32.7658 14.6175 36.4457 10.9376 40.9689 10.9376H56.8283C58.0008 10.9376 59.001 10.1996 59.3896 9.16273L63.8987 13.672L59.3896 18.1813Z" fill="url(#paint0_linear_578_5021)"/>
<defs>
<linearGradient id="paint0_linear_578_5021" x1="35.4999" y1="-1.56723" x2="35.4999" y2="70.2442" gradientUnits="userSpaceOnUse">
<stop stop-color="#00EFD1"/>
<stop offset="1" stop-color="#00ACEA"/>
</linearGradient>
</defs>
</svg>
