<svg width="71" height="71" viewBox="0 0 71 71" fill="none" xmlns="http://www.w3.org/2000/svg">
<path fill-rule="evenodd" clip-rule="evenodd" d="M44.5233 19.7519C44.0708 19.3299 43.4693 19.105 42.8509 19.1264C42.2326 19.1478 41.6481 19.414 41.2259 19.8662L26.0576 36.1197C25.8485 36.3437 25.6855 36.6067 25.578 36.8937C25.4705 37.1807 25.4206 37.4861 25.4311 37.7924C25.4416 38.0987 25.5123 38.3999 25.6392 38.6789C25.7662 38.9578 25.9468 39.209 26.1708 39.4182C26.3948 39.6274 26.6578 39.7903 26.9448 39.8978C27.2318 40.0053 27.5372 40.0553 27.8435 40.0448C28.1498 40.0342 28.451 39.9635 28.73 39.8366C29.0089 39.7097 29.2602 39.529 29.4693 39.305L44.6376 23.0492C45.0596 22.5968 45.2846 21.9952 45.2631 21.3769C45.2417 20.7586 44.9756 20.1741 44.5233 19.7519Z" fill="url(#paint0_linear_976_2682)"/>
<path fill-rule="evenodd" clip-rule="evenodd" d="M66.5638 41.3378C66.2313 40.4378 65.6309 39.6614 64.8436 39.1132C64.0562 38.5649 63.1198 38.2711 62.1603 38.2715H56.7324H56.7137V38.2528V5.19285C56.7131 3.94801 56.2182 2.75437 55.3377 1.87436C54.4573 0.994349 53.2634 0.5 52.0186 0.5H18.975C17.7301 0.5 16.5362 0.994349 15.6558 1.87436C14.7753 2.75437 14.2804 3.94801 14.2798 5.19285V38.2388V38.2575H14.2611H8.83319C7.87426 38.258 6.93849 38.5521 6.15171 39.1003C5.36493 39.6485 4.76486 40.4245 4.4322 41.3238C4.09954 42.2232 4.05024 43.2029 4.29093 44.1311C4.53162 45.0593 5.05075 45.8916 5.77853 46.516L32.4421 69.3712C33.2932 70.0997 34.3765 70.5 35.4968 70.5C36.617 70.5 37.7004 70.0997 38.5514 69.3712L65.215 46.516C65.9404 45.8929 66.4583 45.0632 66.6993 44.1379C66.9403 43.2125 66.8931 42.2356 66.5638 41.3378ZM62.179 42.9853L35.5131 65.8405C35.5084 65.8449 35.5021 65.8474 35.4956 65.8474C35.4891 65.8474 35.4829 65.8449 35.4781 65.8405L8.81452 42.9713C8.81181 42.9671 8.81037 42.9623 8.81037 42.9573C8.81037 42.9523 8.81181 42.9475 8.81452 42.9433C8.81609 42.9378 8.81947 42.9329 8.82413 42.9295C8.82878 42.9261 8.83444 42.9244 8.84019 42.9246H14.2611C15.5057 42.9246 16.6994 42.4302 17.5795 41.5501C18.4595 40.6701 18.954 39.4764 18.954 38.2318V5.19285C18.9539 5.18677 18.9559 5.18086 18.9598 5.17616C18.9636 5.17146 18.969 5.16828 18.975 5.16718H52.0186C52.0254 5.16718 52.0319 5.16988 52.0367 5.17469C52.0415 5.17951 52.0442 5.18604 52.0442 5.19285V38.2388C52.0442 39.4826 52.538 40.6755 53.4171 41.5555C54.2962 42.4354 55.4886 42.9304 56.7324 42.9316H62.1533C62.1591 42.9314 62.1648 42.9331 62.1694 42.9365C62.1741 42.9399 62.1774 42.9448 62.179 42.9503C62.1801 42.9538 62.1805 42.9574 62.1801 42.9611C62.1797 42.9647 62.1785 42.9682 62.1767 42.9713L62.179 42.9853Z" fill="url(#paint1_linear_976_2682)"/>
<defs>
<linearGradient id="paint0_linear_976_2682" x1="35.3453" y1="-0.961038" x2="35.3453" y2="73.1304" gradientUnits="userSpaceOnUse">
<stop stop-color="#1FEDD8"/>
<stop offset="1" stop-color="#02B4E8"/>
</linearGradient>
<linearGradient id="paint1_linear_976_2682" x1="35.4968" y1="-0.958493" x2="35.4968" y2="73.1329" gradientUnits="userSpaceOnUse">
<stop stop-color="#20F0D7"/>
<stop offset="1" stop-color="#00AFE9"/>
</linearGradient>
</defs>
</svg>
