<svg width="71" height="70" viewBox="0 0 71 70" fill="none" xmlns="http://www.w3.org/2000/svg">
<path d="M56.1023 25.3584L30.5394 21.761C30.2362 21.7121 29.9643 21.5462 29.782 21.299C29.5998 21.0517 29.5217 20.7429 29.5646 20.4388C29.6075 20.1347 29.768 19.8595 30.0115 19.6723C30.255 19.4852 30.5622 19.401 30.8672 19.4378L56.43 23.0352C56.7333 23.0841 57.0052 23.25 57.1875 23.4973C57.3697 23.7445 57.4478 24.0533 57.4049 24.3574C57.362 24.6616 57.2015 24.9367 56.958 25.1239C56.7145 25.311 56.4073 25.3953 56.1023 25.3584ZM55.612 28.8441L30.0501 25.2467C29.7452 25.2099 29.438 25.2941 29.1945 25.4813C28.9509 25.6684 28.7905 25.9436 28.7476 26.2477C28.7047 26.5519 28.7828 26.8607 28.965 27.1079C29.1473 27.3551 29.4192 27.521 29.7224 27.57L55.2843 31.168C55.5924 31.2114 55.9052 31.1307 56.1539 30.9435C56.4025 30.7563 56.5666 30.4781 56.61 30.1699C56.6535 29.8617 56.5728 29.5489 56.3856 29.3003C56.1984 29.0517 55.9201 28.8876 55.612 28.8441ZM53.9768 40.4632L28.415 36.8657C28.1101 36.829 27.803 36.9132 27.5595 37.1004C27.3161 37.2876 27.1557 37.5627 27.1129 37.8668C27.07 38.1708 27.148 38.4796 27.3302 38.7268C27.5124 38.974 27.7842 39.1399 28.0874 39.1889L53.6491 42.7863C53.9536 42.8224 54.2602 42.7378 54.5031 42.5506C54.746 42.3635 54.9061 42.0886 54.9489 41.785C54.9917 41.4813 54.914 41.173 54.7323 40.9259C54.5506 40.6789 54.2794 40.5128 53.9768 40.4632ZM54.795 34.6537L29.232 31.0563C28.927 31.0194 28.6198 31.1036 28.3763 31.2908C28.1328 31.4779 27.9723 31.7531 27.9294 32.0573C27.8865 32.3614 27.9646 32.6702 28.1468 32.9174C28.3291 33.1646 28.601 33.3305 28.9042 33.3795L54.4673 36.9769C54.7722 37.0137 55.0794 36.9295 55.3229 36.7424C55.5665 36.5552 55.7269 36.28 55.7698 35.9759C55.8127 35.6718 55.7346 35.3629 55.5524 35.1157C55.3701 34.8685 55.0982 34.7026 54.795 34.6537ZM53.1598 46.2726L27.5969 42.6752C27.292 42.6384 26.9848 42.7226 26.7412 42.9097C26.4977 43.0969 26.3373 43.3721 26.2943 43.6762C26.2514 43.9803 26.3295 44.2891 26.5118 44.5364C26.694 44.7836 26.966 44.9495 27.2692 44.9984L52.8319 48.5964C52.9845 48.618 53.1399 48.6092 53.2891 48.5707C53.4383 48.5322 53.5784 48.4647 53.7016 48.372C53.8247 48.2793 53.9283 48.1633 54.0066 48.0306C54.0849 47.8979 54.1363 47.751 54.1578 47.5984C54.1793 47.4458 54.1706 47.2905 54.1321 47.1413C54.0936 46.9921 54.026 46.8519 53.9334 46.7288C53.8407 46.6057 53.7247 46.502 53.592 46.4238C53.4592 46.3455 53.3124 46.2941 53.1598 46.2726ZM52.3416 52.0821L26.7799 48.4853C26.475 48.4485 26.1677 48.5327 25.9242 48.7198C25.6807 48.907 25.5202 49.1822 25.4773 49.4863C25.4344 49.7904 25.5125 50.0993 25.6948 50.3465C25.877 50.5937 26.1489 50.7596 26.4522 50.8086L52.014 54.4061C52.3222 54.4495 52.635 54.3688 52.8836 54.1816C53.1322 53.9944 53.2963 53.7161 53.3398 53.4079C53.3832 53.0997 53.3025 52.7869 53.1153 52.5383C52.9281 52.2896 52.6498 52.1256 52.3416 52.0821ZM66.9474 15.6735L60.5644 61.0121C60.426 61.9327 59.9316 62.7622 59.1876 63.3218C58.4436 63.8814 57.5096 64.1265 56.5867 64.0041L55.5659 63.8633C55.3871 64.1943 55.1574 64.4953 54.8853 64.7551C54.5399 65.0856 54.1308 65.3424 53.683 65.5098C53.2352 65.6772 52.758 65.7518 52.2805 65.729L49.7108 65.5999V65.6586C49.7103 66.5768 49.3501 67.4582 48.7075 68.114C48.0648 68.7698 47.1909 69.1478 46.2729 69.1669L8.73716 70H8.65502C7.73622 69.9913 6.85647 69.6272 6.20022 68.9841C5.54397 68.341 5.1622 67.4688 5.13495 66.5503L3.98506 14.289C3.9667 13.3544 4.3194 12.4506 4.96595 11.7754C5.61249 11.1003 6.5002 10.7088 7.43473 10.6868L13.9586 10.546L14.0877 7.91764C14.1399 6.98707 14.5576 6.11481 15.2498 5.49071C15.942 4.86661 16.8528 4.5412 17.7837 4.5853L23.4393 4.86691L23.6975 3.02473C23.8321 2.10234 24.3256 1.27044 25.0705 0.710082C25.8155 0.149725 26.7516 -0.0937395 27.6752 0.0326717L54.3221 3.78742C55.1115 3.899 58.5454 4.33889 59.2737 4.52663C63.8146 5.71595 67.5857 10.9863 66.9474 15.6735ZM56.3638 6.43921C56.5325 7.36721 56.5864 8.31245 56.5243 9.25362L56.528 9.25526C56.4487 10.6239 56.2682 11.9848 55.9883 13.3268C55.9278 13.842 56.0704 14.3605 56.3858 14.7724C56.7013 15.1842 57.1647 15.4569 57.6779 15.5327L57.6757 15.5353C59.9713 15.6735 62.2339 16.1511 64.3895 16.9525C64.4224 16.6865 64.6585 15.2191 64.6594 14.9813C64.902 11.3664 61.5148 7.06109 57.9295 6.66132C57.946 6.66742 56.3638 6.43921 56.3638 6.43921ZM53.665 12.9396C53.7982 12.2669 53.8949 11.6496 53.9746 11.0612L35.4193 8.44565C35.1114 8.40293 34.799 8.48386 34.5506 8.67075C34.3021 8.85764 34.1378 9.13528 34.0934 9.443L33.9291 10.6398C33.8859 10.9479 33.9666 11.2605 34.1536 11.5091C34.3405 11.7577 34.6185 11.9219 34.9265 11.9657L53.7589 14.6175L53.7706 14.6193C53.6243 14.0719 53.5884 13.501 53.665 12.9396ZM47.3641 65.4826L14.7799 63.8281C13.8485 63.7782 12.9749 63.3612 12.3503 62.6684C11.7257 61.9757 11.4011 61.0636 11.4476 60.1321L13.8413 12.8927L7.48166 13.0335C7.17077 13.0406 6.87534 13.1705 6.65989 13.3947C6.44444 13.619 6.32648 13.9194 6.33177 14.2303L7.48166 66.5034C7.49469 66.8123 7.6264 67.1043 7.84935 67.3185C8.0723 67.5327 8.36931 67.6526 8.67849 67.6533L46.2259 66.8202C46.3796 66.8174 46.5312 66.7842 46.6718 66.7223C46.8125 66.6604 46.9395 66.5712 47.0454 66.4599C47.1513 66.3485 47.234 66.2172 47.2887 66.0736C47.3434 65.93 47.369 65.777 47.3641 65.6234V65.4826ZM52.0341 63.3588L19.403 58.771C18.4798 58.6379 17.6469 58.1448 17.0862 57.3995C16.5255 56.6541 16.2828 55.7171 16.4109 54.7933L23.1108 7.20189L17.6664 6.92028C17.356 6.90778 17.0531 7.01753 16.8227 7.22596C16.5923 7.43439 16.4529 7.72486 16.4344 8.03497L13.7943 60.2494C13.7796 60.5604 13.8886 60.8645 14.0975 61.0954C14.3064 61.3262 14.5981 61.465 14.909 61.4814L52.0341 63.3588ZM64.0492 19.4635C63.8498 19.1936 62.8407 18.4544 57.7131 17.9029C56.8754 17.8411 56.0735 17.538 55.4043 17.0303L55.3899 17.0346H55.3781C55.0107 17.107 54.6336 17.115 54.2634 17.0581L34.598 14.289C33.6738 14.1581 32.8394 13.6656 32.2783 12.9197C31.7172 12.1737 31.4753 11.2355 31.6059 10.3113L31.7702 9.12619C31.9004 8.2009 32.3923 7.36503 33.138 6.80192C33.8837 6.23881 34.8222 5.99444 35.7479 6.1224L54.1696 8.71552H54.1726C54.2635 7.82058 54.1293 6.91713 53.7824 6.0872L27.3466 2.35592C27.0387 2.3132 26.7263 2.39413 26.4779 2.58102C26.2294 2.76791 26.0651 3.04556 26.0207 3.35327L18.7342 55.1218C18.6914 55.4298 18.7724 55.7421 18.9593 55.9906C19.1462 56.239 19.4238 56.4034 19.7315 56.4477L56.9152 61.6809C57.2232 61.7236 57.5355 61.6427 57.784 61.4558C58.0324 61.2689 58.1968 60.9913 58.2411 60.6835L64.0492 19.4635Z" fill="url(#paint0_linear_976_2679)"/>
<defs>
<linearGradient id="paint0_linear_976_2679" x1="3.98506" y1="34.9964" x2="67.0178" y2="34.9964" gradientUnits="userSpaceOnUse">
<stop stop-color="#0FDCDD"/>
<stop offset="1" stop-color="#46A1E8"/>
</linearGradient>
</defs>
</svg>
