<svg version="1.2" xmlns="http://www.w3.org/2000/svg" viewBox="0 0 218 254" width="218" height="254">
	<title>Advantages-pana 1-svg</title>
	<defs>
		<clipPath clipPathUnits="userSpaceOnUse" id="cp1">
			<path d="m-12.95-0.08h428.51v254h-428.51z"/>
		</clipPath>
	</defs>
	<style>
		.s0 { fill: #ffffff } 
		.s1 { fill: #f3f3f3 } 
		.s2 { fill: #e0e0e0 } 
		.s3 { fill: #ff725e } 
		.s4 { fill: #263238 } 
		.s5 { fill: #455a64 } 
		.s6 { fill: #ae7461 } 
		.s7 { fill: #6f4439 } 
		.s8 { fill: #000000 } 
	</style>
	<g id="Clip-Path" clip-path="url(#cp1)">
		<g id="Layer">
			<path id="Layer" class="s0" d="m180.3 141.9q-0.1-0.1-0.2-0.1-0.2-0.2-0.4-0.4-0.1-0.3-0.1-0.6-0.1-0.1 0-0.2 0 0 0 0.2 0 0.3 0.2 0.5 0.1 0.3 0.3 0.4 0.2 0.2 0.2 0.2z"/>
			<path id="Layer" class="s1" d="m184 4.8v194.9c0 2.7-2.6 4.8-5.9 4.8h-171.9c-3.3 0-6-2.1-6-4.8v-194.9c0-2.7 2.7-4.8 6-4.8h171.9c3.3 0 5.9 2.1 5.9 4.8z"/>
			<path id="Layer" class="s2" d="m79.7 54.8v0.3c0 2-0.9 3.6-2 3.6h-31.7c-1.2 0-2.1-1.6-2.1-3.6v-0.3c0-2 0.9-3.5 2.1-3.5h31.7c1.1 0 2 1.5 2 3.5z"/>
			<path id="Layer" class="s3" d="m37.1 49.7v11.5c0 1.6-1.3 2.9-2.9 2.9h-11.5c-1.6 0-2.9-1.3-2.9-2.9v-11.5c0-1.6 1.3-2.9 2.9-2.9h11.5c1.6 0 2.9 1.3 2.9 2.9z"/>
			<path id="Layer" class="s0" d="m22.5 55.7l1.7-1.8 3.4 3 5.6-5.6 1.6 1.7-7.5 7.3z"/>
			<path id="Layer" class="s2" d="m107.1 81.6v0.3c0 2-1.6 3.6-3.5 3.6h-56.1c-2 0-3.6-1.6-3.6-3.6v-0.3c0-2 1.6-3.6 3.6-3.6h56.1c1.9 0 3.5 1.6 3.5 3.6z"/>
			<path id="Layer" class="s3" d="m37.1 76.5v11.4c0 1.6-1.3 2.9-2.9 2.9h-11.5c-1.6 0-2.9-1.3-2.9-2.9v-11.4c0-1.6 1.3-2.9 2.9-2.9h11.5c1.6 0 2.9 1.3 2.9 2.9z"/>
			<path id="Layer" class="s0" d="m22.5 82.5l1.7-1.8 3.4 3 5.6-5.6 1.6 1.7-7.5 7.2z"/>
			<path id="Layer" class="s2" d="m92.4 108.3v0.4c0 1.9-1.2 3.5-2.8 3.5h-42.9c-1.5 0-2.8-1.6-2.8-3.5v-0.4c0-1.9 1.3-3.5 2.8-3.5h42.9c1.6 0 2.8 1.6 2.8 3.5z"/>
			<path id="Layer" class="s3" d="m37.1 103.2v11.5c0 1.6-1.3 2.9-2.9 2.9h-11.5c-1.6 0-2.9-1.3-2.9-2.9v-11.5c0-1.6 1.3-2.9 2.9-2.9h11.5c1.6 0 2.9 1.3 2.9 2.9z"/>
			<path id="Layer" class="s0" d="m22.5 109.2l1.7-1.7 3.4 3 5.6-5.7 1.6 1.8-7.5 7.2z"/>
			<path id="Layer" class="s2" d="m75.4 135.1v0.3c0 2-0.8 3.6-1.8 3.6h-27.9c-1 0-1.8-1.6-1.8-3.6v-0.3c0-2 0.8-3.6 1.8-3.6h27.9c1 0 1.8 1.6 1.8 3.6z"/>
			<path id="Layer" class="s2" d="m75.4 161.9v0.3c0 2-0.8 3.6-1.8 3.6h-27.9c-1 0-1.8-1.6-1.8-3.6v-0.3c0-2 0.8-3.6 1.8-3.6h27.9c1 0 1.8 1.6 1.8 3.6z"/>
			<path id="Layer" class="s2" d="m75.4 188.6v0.4c0 1.9-0.8 3.5-1.8 3.5h-27.9c-1 0-1.8-1.6-1.8-3.5v-0.4c0-1.9 0.8-3.5 1.8-3.5h27.9c1 0 1.8 1.6 1.8 3.5z"/>
			<path id="Layer" class="s3" d="m37.1 130v11.5c0 1.6-1.3 2.9-2.9 2.9h-11.5c-1.6 0-2.9-1.3-2.9-2.9v-11.5c0-1.6 1.3-2.9 2.9-2.9h11.5c1.6 0 2.9 1.3 2.9 2.9z"/>
			<path id="Layer" class="s3" d="m37.1 156.8v11.4c0 1.6-1.3 2.9-2.9 2.9h-11.5c-1.6 0-2.9-1.3-2.9-2.9v-11.4c0-1.6 1.3-2.9 2.9-2.9h11.5c1.6 0 2.9 1.3 2.9 2.9z"/>
			<path id="Layer" class="s3" d="m37.1 183.5v11.5c0 1.6-1.3 2.9-2.9 2.9h-11.5c-1.6 0-2.9-1.3-2.9-2.9v-11.5c0-1.6 1.3-2.9 2.9-2.9h11.5c1.6 0 2.9 1.3 2.9 2.9z"/>
			<path id="Layer" class="s0" d="m22.5 136l1.7-1.8 3.4 3 5.6-5.6 1.6 1.7-7.5 7.3z"/>
			<path id="Layer" class="s0" d="m22.5 162.7l1.7-1.7 3.4 3 5.6-5.6 1.6 1.7-7.5 7.2z"/>
			<path id="Layer" class="s0" d="m22.5 189.5l1.7-1.7 3.4 2.9 5.6-5.6 1.6 1.8-7.5 7.2z"/>
			<path id="Layer" class="s4" d="m149 225.6l-0.5 12.7c0 0 12.8 4.7 13 7.1h-24.9v-19.9z"/>
			<path id="Layer" class="s2" d="m140.7 237.2q0.4-0.1 0.8 0.1 0.3 0.1 0.5 0.5 0 0.4-0.2 0.8-0.2 0.3-0.6 0.4-0.3 0.1-0.7-0.1-0.3-0.2-0.4-0.6-0.1-0.3 0.1-0.7 0.2-0.3 0.6-0.4"/>
			<path id="Layer" class="s5" d="m136.6 245.4l0.1-2 23.8 0.8c0 0 1.1 0.4 1 1.2z"/>
			<path id="Layer" class="s0" d="m148.9 238.2c0 0.1-0.6 0.1-1.2 0.5-0.6 0.4-0.9 0.9-1.1 0.9-0.1-0.1 0.1-0.8 0.9-1.2 0.7-0.5 1.4-0.3 1.4-0.2z"/>
			<path id="Layer" class="s0" d="m151.5 239.2c0 0.2-0.5 0.4-0.9 0.9-0.4 0.5-0.6 1-0.7 1-0.1 0-0.2-0.7 0.4-1.3 0.5-0.6 1.2-0.7 1.2-0.6z"/>
			<path id="Layer" class="s0" d="m153 242.3c-0.2 0-0.3-0.5 0-1.2 0.3-0.7 0.9-0.9 0.9-0.8 0.1 0.1-0.3 0.4-0.5 1-0.3 0.5-0.3 1-0.4 1z"/>
			<path id="Layer" class="s0" d="m148.7 235.3c-0.1 0.1-0.6-0.1-1.3 0-0.7 0-1.2 0.2-1.3 0.1-0.1-0.1 0.5-0.5 1.3-0.5 0.8 0 1.3 0.3 1.3 0.4z"/>
			<path id="Layer" class="s4" d="m118.6 223.8l-1.4 15.4 2.5 12.4q0.1 0.3 0 0.7-0.1 0.3-0.3 0.5-0.2 0.3-0.5 0.5-0.2 0.1-0.6 0.2-0.3 0-0.7-0.1-0.4-0.1-0.6-0.4c-2.2-2.4-10.3-11.3-10.2-12.4 0.2-1.3 0.4-16.3 0.4-16.3z"/>
			<path id="Layer" class="s5" d="m118.4 253.5q-0.4 0.1-0.8-0.1-0.4-0.1-0.7-0.4c-6.1-6.7-8.7-10-9.6-11.2-0.3-0.5-0.5-1-0.4-1.6v-0.6l11.4 13.9z"/>
			<g id="Layer" style="opacity: .6">
				<path id="Layer" class="s0" d="m110.4 234.8q0.3 0.2 0.3 0.6 0.1 0.4-0.1 0.7-0.3 0.3-0.6 0.3-0.4 0.1-0.7-0.1-0.3-0.3-0.3-0.7-0.1-0.4 0.1-0.7 0.3-0.2 0.7-0.3 0.4 0 0.7 0.3"/>
			</g>
			<path id="Layer" class="s0" d="m115.4 246q0.5-0.6 1.1-0.9 0.7-0.3 1.4-0.2c0.4 0.1 0.6 0.2 0.6 0.3q-1-0.1-1.8 0.2-0.9 0.4-1.5 1.1c0 0 0-0.2 0.2-0.5z"/>
			<path id="Layer" class="s0" d="m117.5 247.8q0.5-0.1 0.9-0.1 0.4 0.1 0.7 0.3-0.7 0-1.5 0.1-0.7 0.3-1.4 0.6c-0.1-0.1 0.4-0.7 1.3-0.9z"/>
			<path id="Layer" class="s0" d="m115.4 242.4c1.3-0.4 2.4-0.1 2.4 0 0 0.1-1.1 0-2.3 0.3-1.3 0.4-2.1 1.2-2.1 1.1 0.4-0.7 1.2-1.2 2-1.4z"/>
			<path id="Layer" class="s0" d="m115.4 238.6c0.7 0 1.4 0.2 2 0.6 0 0.1-0.9-0.3-2-0.3-1.1 0-2 0.3-2 0.2 0.6-0.4 1.3-0.5 2-0.5z"/>
			<path id="Layer" class="s0" d="m114.2 234.2q0.8-0.3 1.6-0.2 0.8 0.1 1.5 0.5c0.3 0.2 0.5 0.4 0.5 0.5-0.1 0.1-0.9-0.6-2-0.7q-1.1 0-2.1 0.3c-0.1-0.1 0.1-0.2 0.5-0.4z"/>
			<path id="Layer" class="s0" d="m115.3 231.5q-0.2-0.5-0.7-0.8-0.1-0.1-0.2 0-0.1 0-0.2 0.1-0.1 0.2-0.1 0.4c0 0.5 0.1 0.9 0.4 1.2 0.3 0.4 0.7 0.6 1.1 0.7q0.7 0.1 1.3-0.2 0.7-0.3 1-0.8 0.1-0.1 0.1-0.3 0.1-0.1 0-0.2 0-0.1-0.1-0.2-0.1 0-0.2 0-0.5 0.1-0.9 0.4-0.9 0.6-1.6 1.4 0.1-0.3 0.3-0.5 0.5-0.7 1.1-1.1 0.5-0.4 1.1-0.5 0.2 0 0.3 0.1 0.2 0.1 0.3 0.3 0.1 0.2 0 0.4 0 0.2-0.1 0.3c-0.3 0.5-0.7 0.8-1.1 1-0.5 0.2-1 0.3-1.5 0.2-0.5-0.1-1-0.4-1.3-0.8-0.4-0.4-0.5-0.9-0.5-1.4q0-0.4 0.2-0.7 0.2-0.1 0.4-0.1 0.2 0 0.4 0c0.3 0.3 0.5 0.6 0.7 1q0.3 0.7 0.4 1.5 0 0.3-0.1 0.6-0.1-1.1-0.5-2z"/>
			<path id="Layer" class="s4" d="m160.9 118.3c1.2 5.2 1.6 10.7 1.2 16-0.2 3.5-11.8 98.1-11.8 98.1h-15.7l4.4-88.9-1.3 0.2c0 0-8.5 38-9.2 44.1-0.6 5.5-7.8 45.6-7.8 45.6l-14.3 0.2 4.5-53 5.3-50.9 2.1-14.9z"/>
			<path id="Layer" class="s5" d="m139 137.6q0.3 0 0.7-0.1 0.3-0.1 0.6-0.3c0.5-0.5 0.8-1.2 0.8-1.9 0.1-0.8 0.2-1.7 0.2-2.7 0.1-1.9 0.2-3.6 0.3-4.9q0.1-1 0.3-2 0 1 0 2c-0.1 1.3-0.2 3-0.3 4.9 0 1-0.1 1.9-0.2 2.8q0 0.5-0.3 1.1-0.2 0.5-0.7 0.9-0.3 0.2-0.7 0.3-0.4 0.1-0.8 0-0.2 0-0.3-0.2-0.2-0.1-0.1-0.1 0.2 0.1 0.5 0.2z"/>
			<path id="Layer" class="s5" d="m117.1 128.4c1.4 0.1 2.8-0.2 4-0.7 1.3-0.5 2.5-1.2 3.4-2.2 0.7-0.8 1.1-1.3 1.1-1.3q0 0.2-0.2 0.4-0.3 0.6-0.7 1c-1 1.1-2.1 1.9-3.4 2.4-1.4 0.6-2.8 0.8-4.2 0.6q-0.6 0-1.2-0.2-0.3 0-0.5-0.1c0-0.1 0.7 0.1 1.7 0.1z"/>
			<path id="Layer" class="s5" d="m156.8 129.2c1.6 2.5 3.7 3.7 3.7 3.8q-0.8-0.3-1.4-0.8c-2-1.6-3.5-3.8-4.2-6.3q-0.2-0.8-0.2-1.6c0.1 0 0.4 2.4 2.1 4.9z"/>
			<path id="Layer" class="s6" d="m202.5 97.5l3.6 1.2 6.5-3.6 3.7 10.3-8.9 2.1-6.7-0.8z"/>
			<path id="Layer" class="s2" d="m160.8 56.3c-0.1 0 3.6 2.2 6.7 9.7 5.9 14.6 9.7 22.5 9.7 22.5l27.4 8.6-2.2 11c0 0-27.8-3.9-31.5-5.3-5.1-1.9-8.9-11.9-8.9-11.9z"/>
			<path id="Layer" class="s4" d="m138.4 15.4c-0.4-0.4-0.7-0.9-0.9-1.5-0.1-0.6 0-1.2 0.2-1.8 0.3-0.6 0.7-1 1.2-1.3 0.6-0.3 1.2-0.4 1.8-0.4 0.7-0.5 1.6-0.9 2.5-0.9 0.9 0 1.8 0.3 2.5 0.8q0.8-0.5 1.7-0.6 1-0.1 1.8 0.3 0.9 0.5 1.4 1.2 0.6 0.8 0.7 1.7c0.6-0.1 1.2 0 1.8 0.2 0.6 0.3 1.1 0.7 1.4 1.3 0.3 0.5 0.4 1.1 0.4 1.8-0.1 0.6-0.3 1.2-0.8 1.7 0.7 0.2 1.3 0.6 1.7 1.2 0.3 0.6 0.5 1.3 0.4 2-0.2 0.7-0.5 1.3-1.1 1.7-0.5 0.5-1.2 0.7-1.9 0.7"/>
			<path id="Layer" class="s6" d="m140.2 13.3h0.7c3-0.2 6.1 0.8 8.4 2.8 2.4 2 3.9 4.8 4.3 7.8 0.8 5.9 1.6 12.4 1.7 15.5 0.2 6.6-6.3 7.9-6.3 7.9l1 7.9-16 0.3-2.8-28.5c-1-6.8 2.2-13 9-13.7z"/>
			<path id="Layer" class="s7" d="m149.2 48.9c-6.6 0.9-8.8-3.7-8.8-3.7 2.6 1.5 5.6 2.2 8.7 2.1z"/>
			<path id="Layer" class="s4" d="m151.3 29.9q0 0.4-0.3 0.7-0.2 0.3-0.6 0.3-0.4 0-0.6-0.2-0.3-0.2-0.4-0.6 0-0.4 0.3-0.7 0.2-0.2 0.6-0.3 0.2 0 0.3 0.1 0.2 0 0.3 0.1 0.2 0.1 0.3 0.3 0 0.1 0.1 0.3z"/>
			<path id="Layer" class="s4" d="m152.4 27.2c-0.1 0.1-0.9-0.4-1.9-0.4-1 0.1-1.7 0.6-1.8 0.5-0.2-0.1 0-0.3 0.3-0.5 0.5-0.3 1-0.5 1.5-0.5 0.5-0.1 1 0.1 1.5 0.4 0.3 0.2 0.4 0.4 0.4 0.5z"/>
			<path id="Layer" class="s4" d="m142.1 30.2q0 0.2-0.1 0.3 0 0.2-0.2 0.4-0.1 0.1-0.3 0.2-0.1 0.1-0.3 0.1-0.2 0-0.4 0-0.1-0.1-0.3-0.2-0.1-0.1-0.2-0.3-0.1-0.1-0.1-0.3 0-0.4 0.2-0.7 0.3-0.3 0.6-0.3 0.2 0 0.4 0 0.2 0.1 0.3 0.2 0.2 0.1 0.3 0.2 0 0.2 0.1 0.4z"/>
			<path id="Layer" class="s4" d="m142.5 27.8c-0.2 0.2-0.9-0.3-1.9-0.3-1 0.1-1.7 0.6-1.9 0.5-0.1-0.1 0.1-0.3 0.4-0.5 0.4-0.4 0.9-0.5 1.5-0.6 0.5 0 1 0.1 1.5 0.4 0.3 0.3 0.4 0.5 0.4 0.5z"/>
			<path id="Layer" class="s4" d="m146.5 35.1q0.8-0.3 1.6-0.4c0.3 0 0.5-0.1 0.6-0.2q0-0.4-0.3-0.8-0.4-0.9-0.8-1.9c-1.2-2.7-2.1-5-2-5 0.1-0.1 1.2 2.1 2.4 4.8q0.4 1 0.8 2c0.2 0.3 0.3 0.6 0.2 1q-0.1 0.1-0.2 0.2-0.1 0.1-0.2 0.2-0.2 0-0.4 0-0.9 0.2-1.7 0.1z"/>
			<path id="Layer" class="s4" d="m143.1 23.9c-0.1 0.3-1 0-2 0.1-1.1 0-2 0.2-2.1 0-0.1-0.2 0.1-0.4 0.5-0.6q0.7-0.4 1.6-0.4 0.8 0 1.5 0.4c0.4 0.2 0.6 0.4 0.5 0.5z"/>
			<path id="Layer" class="s4" d="m152.2 23c-0.2 0.2-1 0-2 0.1-1 0-1.9 0.2-2.1 0-0.1-0.1 0.1-0.4 0.4-0.6 0.5-0.3 1.1-0.4 1.7-0.4 0.6-0.1 1.1 0.1 1.6 0.3 0.4 0.3 0.5 0.5 0.4 0.6z"/>
			<path id="Layer" class="s4" d="m152.8 20.9c0 0-1.9-4-3.9-4.9-2.5-1-3.4 1.7-5.7 1.2-2.3-0.6-4.7-1.6-6.9 0.3-2.5 2.1-1.2 3.4-1.2 6.3-0.1 11.8-2.1 15.2-3 9.7-0.1-0.6-1.8-1-2.2-3.5-0.4-3.4-0.8-7.4-0.2-9.8 0.6-2 1.7-3.5 3.6-5.1 3.1-2.5 7.6-2.8 10.6-2.6 3 0.1 9 3.3 8.9 8.4z"/>
			<path id="Layer" class="s6" d="m133 38.2c0 0.1-4.5 1.4-4.8-3.1-0.2-2.5 1.1-3.2 2.3-3.4q0.4-0.1 0.7 0 0.4 0.1 0.7 0.4 0.2 0.2 0.4 0.5 0.2 0.3 0.2 0.7c0.2 1.9 0.5 4.8 0.5 4.9z"/>
			<path id="Layer" class="s7" d="m131.8 36.8q-0.2 0.2-0.4 0.2-0.2 0-0.3 0c-0.7-0.1-1.2-0.9-1.4-1.8q0-0.7 0.2-1.3 0.1-0.3 0.3-0.5 0.2-0.2 0.5-0.3 0.1 0 0.2 0 0.1 0.1 0.2 0.1 0.2 0.1 0.2 0.3c0.1 0.2 0 0.3 0 0.2 0 0 0 0-0.1-0.2q-0.1-0.1-0.2-0.1-0.1-0.1-0.3 0-0.2 0-0.3 0.2-0.2 0.2-0.2 0.4-0.2 0.6-0.1 1.1c0.1 0.8 0.5 1.5 1 1.7q0.3 0.1 0.6-0.1 0.2-0.1 0.2-0.1c0 0 0 0.1-0.1 0.2z"/>
			<path id="Layer" class="s4" d="m132.4 24.5q-0.1 0.3-0.4 0.5-0.2 0.2-0.5 0.3-0.3 0.1-0.6 0.1-0.3-0.1-0.6-0.2-0.3-0.1-0.5-0.4-0.2-0.2-0.3-0.5-0.1-0.3-0.1-0.7 0-0.3 0.1-0.6c-0.8 0.3-1.8-0.5-1.8-1.5q0-0.7 0.4-1.3 0.4-0.6 1-0.9c-0.3-0.5-0.5-1.1-0.5-1.6 0.1-0.6 0.2-1.2 0.6-1.6 0.3-0.5 0.7-0.8 1.3-1.1 0.5-0.2 1.1-0.2 1.6-0.1q0.4-0.9 1.1-1.6 0.7-0.7 1.7-0.9 0.9-0.3 1.9-0.1 0.9 0.2 1.7 0.8c0.3-0.7 0.9-1.2 1.5-1.6 0.7-0.4 1.5-0.6 2.2-0.6 0.8 0 1.6 0.3 2.2 0.8 0.6 0.4 1.1 1.1 1.4 1.8 0.6-0.3 1.2-0.3 1.9-0.1 0.6 0.1 1.2 0.5 1.6 1q0.1 0.2 0.2 0.4 0 0.2 0 0.4c-0.1 0.6-0.8 0.7-1.4 0.7-0.5-0.1-1.1-0.2-1.6 0.1-0.4 0.3-0.5 1-0.5 1.6-0.1 0.6-0.4 1.3-0.9 1.4q-0.5-0.1-1-0.2-0.5 0-0.9 0.2-0.4 0.3-0.6 0.7-0.5 0.5-1.1 1-0.3 0.2-0.8 0.2-0.5-0.1-0.7-0.5c-0.3 1.3-1.8 2.8-3.1 2.7-0.4 0-0.9 0-1.1 0.3-0.1 0.2-0.1 0.6-0.1 0.9-0.1 0.3-0.3 0.6-0.6 0.8-0.3 0.2-0.6 0.3-1 0.3-0.7-0.1-1.3-0.4-1.9-0.8"/>
			<path id="Layer" class="s5" d="m146.2 14.8q0 0 0 0.1 0 0.1 0 0.2-0.1 0.5-0.3 0.9-0.4 0.7-1 1.1c-0.5 0.4-1.1 0.7-1.8 0.7l0.1-0.2c0.1 0.4 0.1 0.9 0 1.3q-0.3 0.6-0.8 1.1-0.2 0.3-0.4 0.6-0.3 0.2-0.7 0.3-0.4 0-0.8-0.1-0.4-0.1-0.7-0.4h0.2q-0.1 0.7-0.4 1.3-0.4 0.6-0.9 1c-0.5 0.4-1 0.6-1.5 0.6q-0.7 0-1.5-0.2l0.2-0.1q-0.4 0.8-1.1 1.4-0.3 0.3-0.7 0.4-0.4 0.2-0.8 0.1-0.7-0.1-1.3-0.6-0.5-0.5-0.7-1.2h0.1c-0.5 0.3-1 0.4-1.5 0.3q-0.6 0-1.1-0.4-0.3-0.2-0.6-0.5 0-0.1-0.1-0.2 0.3 0.4 0.7 0.6 0.5 0.4 1.1 0.4c0.5 0.1 1 0 1.4-0.3h0.1v0.1q0.2 0.6 0.7 1.1 0.5 0.4 1.2 0.6 0.4 0 0.8-0.1 0.3-0.1 0.6-0.4 0.6-0.6 0.9-1.4l0.1-0.1h0.1q0.6 0.3 1.4 0.3c0.5 0 0.9-0.2 1.3-0.5q0.5-0.5 0.9-1 0.3-0.6 0.3-1.3v-0.2l0.2 0.1q0.3 0.3 0.6 0.4 0.3 0.1 0.7 0 0.3 0 0.6-0.2 0.3-0.3 0.5-0.5 0.4-0.5 0.7-1.1 0.1-0.3 0.1-0.6 0-0.3-0.1-0.5v-0.2h0.1c0.6 0.1 1.2-0.1 1.7-0.5q0.6-0.4 1-1.1 0.3-0.5 0.4-1.1z"/>
			<path id="Layer" class="s4" d="m145.8 38.9c-0.7 0.1-1.3-0.1-1.8-0.4-0.6-0.4-0.9-1-1.1-1.6q-0.2-0.8 0-0.8c0.2-0.1 0.4 1.1 1.4 1.9 1 0.7 2.1 0.4 2.1 0.6 0.1 0-0.2 0.2-0.6 0.3z"/>
			<path id="Layer" class="s2" d="m160.9 80.8l-7.2 10.5-29.4-6.5-1.8 4.6-14.2 7.2c0 0 1.2-21 2.5-30.2 1.2-8 10.5-10 10.5-10 0 0 31.2-2.5 34.2-2.3 2.9 0.2 7.6 2 9.8 6.2 1.9 3.4 7.7 19.3 7.8 19.7z"/>
			<path id="Layer" class="s2" d="m119.3 57.3l12.2-5.4 1.3-5.2 14.3 6.7 2.9-3.3 1.3 3.7 3.1 1 7.3 12.8v27.2l1.5 23.4-1.6 3.7-13.1 2q-2.1 0.3-4.3 0l-26.5-4.3-0.7-7.8 2.9-21.4z"/>
			<path id="Layer" class="s2" d="m132.8 46.7c0 0 1.6 0.5 5.7 2.6 4 2.2 8.6 4.1 8.6 4.1l-0.4 6.4-15.1-7.6"/>
			<path id="Layer" class="s2" d="m151.3 54.1l-2.6 6.2-1.6-6.9 2.9-3.3"/>
			<g id="Layer" style="opacity: .3">
				<path id="Layer" class="s8" d="m147.1 54.1c0.1 0.1 1 7.9 1 7.9l-15.2-9.1 13.8 6.9z"/>
			</g>
			<path id="Layer" class="s5" d="m147 83.3c-0.2-6 0.7-21.2 0.7-21.2l2-0.4c2.5 10.9 4.2 21.9 5.1 33 0.6 7.4 0.6 15.9 0.6 15.9l-4 8.5-4.4-8.5c0 0 0.3-20 0-27.3z"/>
			<path id="Layer" class="s4" d="m118.7 58.4q0.4 0.4 0.8 0.7 1.3 1.2 2.1 2.8 0.8 1.5 1.2 3.3 0.1 0.5 0.1 1 0 0.2 0 0.4c-0.1 0-0.1-0.6-0.3-1.4-0.5-2.3-1.6-4.3-3.2-6-0.6-0.6-1.1-0.9-1-1q0.2 0.1 0.3 0.2z"/>
			<path id="Layer" class="s5" d="m147 56.5l1.4-0.6 1.3 2.2 0.2 3.6-1.8 0.3-1.4-2.2z"/>
			<path id="Layer" class="s4" d="m161.8 84.6c0 9.6-0.1 17.4-0.1 17.4-0.1 0-0.1-7.8-0.1-17.4 0-9.6 0-17.4 0.1-17.4 0 0 0.1 7.8 0.1 17.4z"/>
			<path id="Layer" class="s4" d="m147.2 53.7q0.2 0.3 0.6 0.9 1 1.5 1.8 3.2l0.1 0.3h-0.2q0.8-1.5 1.4-3.2c0.3-0.8 0.4-1.3 0.4-1.3q0 0.2 0 0.4-0.1 0.4-0.3 1-0.5 1.6-1.3 3.2l-0.1 0.2-0.1-0.2q0-0.2-0.1-0.3-0.8-1.7-1.7-3.2-0.4-0.7-0.8-1.3 0-0.1 0.3 0.3z"/>
			<path id="Layer" class="s4" d="m131.7 52l0.7 0.3c0.5 0.3 1.3 0.6 2.2 1.1 2 1 4.6 2.4 7.5 3.9 1.8 0.9 3.4 1.8 4.9 2.5l-0.2 0.1c0.1-1.8 0.1-3.4 0.2-4.6q0-0.8 0-1.3 0-0.2 0-0.4 0.1 0.2 0 0.4c0 0.4 0 0.8 0 1.3 0 1.2 0 2.8 0 4.6v0.2l-0.1-0.1c-1.5-0.7-3.2-1.6-4.9-2.5-2.9-1.5-5.5-2.9-7.4-3.9l-2.3-1.2-0.6-0.3q-0.1-0.1-0.2-0.1 0.1 0 0.2 0z"/>
			<path id="Layer" class="s4" d="m160 57.2q0.3 0.3 0.5 0.7c0.9 1.8 1.3 3.8 1.1 5.8q-0.1 0.4-0.2 0.9 0 0.2-0.1 0.3c0 0 0.1-0.5 0.1-1.2q0.1-1.5-0.2-2.9-0.2-1.5-0.8-2.8c-0.3-0.7-0.6-1.1-0.6-1.1q0.1 0 0.2 0.3z"/>
			<path id="Layer" class="s4" d="m149.1 61.7q0.3-0.2 0.7-0.3c0.1 0-0.2 0.3-0.6 0.5-0.4 0.3-0.8 0.4-0.8 0.4 0-0.1 0.3-0.3 0.7-0.6z"/>
			<path id="Layer" class="s4" d="m148.5 59.5q0.4-1 0.9-1.8-0.3 1-0.7 1.9-0.4 0.9-0.9 1.8 0.2-1 0.7-1.9z"/>
			<path id="Layer" class="s2" d="m124.3 75.4l-3 22.9 3 6.2-5.6 11.4c0 0-6-1.7-8.8-3.9-2.8-2.2-2.4-8.9-1.9-12.5 0.4-3.6 2.9-33.8 3.5-35.6 0.6-1.9 5.3-5.3 5.3-5.3z"/>
			<path id="Layer" class="s4" d="m117.3 115.5q0.2 0 0.3 0 0.5 0 0.9-0.1c1.1-0.1 2.1-0.5 3-1.1 1.3-1 2.3-2.3 2.9-3.9 0.7-1.9 1.1-4 1.1-6.1v0.1l-4.3-6h-0.1v-0.1q0.1-0.2 0.1-0.5c0.8-6.4 1.6-12.2 2.1-16.5 0.3-2.1 0.5-3.8 0.7-5q0.1-0.8 0.2-1.3c0-0.4 0-0.5 0-0.5q0 0 0 0.1 0 0.1 0 0.4 0 0.5-0.1 1.3c-0.1 1.2-0.3 2.9-0.6 5-0.5 4.3-1.2 10.1-2 16.6q0 0.2-0.1 0.4v-0.1l4.3 6v0.1c0 2.1-0.4 4.2-1.1 6.2-0.6 1.6-1.6 3-3 4q-0.8 0.5-1.7 0.7l-0.4 0.2h-0.3q-0.4 0.1-0.7 0.1-0.4 0-0.8 0-0.2 0-0.4 0z"/>
			<path id="Layer" class="s4" d="m111.7 100.4q0.5-0.5 1.2-0.8c2.2-1.2 4.6-1.7 7.1-1.4q0.7 0.1 1.4 0.3c-3.3-0.5-6.8 0.1-9.7 1.9z"/>
			<path id="Layer" class="s3" d="m148.5 70.3c0 0 0.3 1 0.7 2.8 1-1.4 2.2-2.5 3.6-3.4 0 0 7.3-7.2 9.6-14.7 1.7-5.5 1.3-11.6 1.3-11.6-0.1-0.3-0.7-2.8-1.1-4.9-0.2-0.9-0.1-1.7 0.4-2.5 0.4-0.7 1.1-1.2 2-1.4 3.6-1 13.3-2.9 15.6 3.6 3.3 9.8-2.1 20.3-2 23.3q0 0.8 0 1.4c2.8-0.7 5.1-1.2 5.1-1.1l18.7-4.4c0 0 6.2-1.8 8.4 4.5 2.1 6.3-5.1 8.5-5.1 8.5 0 0 3.4-0.2 4.3 5.6 0.9 5.7-5.3 7.6-5.3 7.6 0 0 3.8-0.3 4.8 4.8 0.9 5-5.3 8-5.6 8.2q0.7-0.2 1.5-0.3-0.6 0.2-1.1 0.3c2.9 0.4 3.3 3.8 3.3 3.8 1.8 7-3.6 8.5-3.6 8.5l-34.3 8c-3.4 0.8-7 0.6-10.3-0.4 0.3 1.4 0.5 2.2 0.5 2.2l-24 5.6c0 0-2.6-10.8-5.7-24.2-3.2-13.3-5.7-24.2-5.6-24.2z"/>
			<g id="Layer" style="opacity: .3">
				<path id="Layer" class="s8" d="m148.5 70.3c0 0 0.3 1 0.7 2.8 1-1.4 2.2-2.5 3.6-3.4 0 0 7.3-7.2 9.6-14.7 1.7-5.5 1.3-11.6 1.3-11.6-0.1-0.3-0.7-2.8-1.1-4.9-0.2-0.9-0.1-1.7 0.4-2.5 0.4-0.7 1.1-1.2 2-1.4 3.6-1 13.3-2.9 15.6 3.6 3.3 9.8-2.1 20.3-2 23.3q0 0.8 0 1.4c2.8-0.7 5.1-1.2 5.1-1.1l18.7-4.4c0 0 6.2-1.8 8.4 4.5 2.1 6.3-5.1 8.5-5.1 8.5 0 0 3.4-0.2 4.3 5.6 0.9 5.7-5.3 7.6-5.3 7.6 0 0 3.8-0.3 4.8 4.8 0.9 5-5.3 8-5.6 8.2q0.7-0.2 1.5-0.3-0.6 0.2-1.1 0.3c2.9 0.4 3.3 3.8 3.3 3.8 1.8 7-3.6 8.5-3.6 8.5l-34.3 8c-3.4 0.8-7 0.6-10.3-0.4 0.3 1.4 0.5 2.2 0.5 2.2l-24 5.6c0 0-2.6-10.8-5.7-24.2-3.2-13.3-5.7-24.2-5.6-24.2z"/>
			</g>
			<path id="Layer" class="s3" d="m156.3 70.5c1.7-1.9 4-3.2 6.4-3.7l21.4-5 24.3-5.6c0 0 6.2-1.9 8.4 4.4 2.1 6.4-5.1 8.5-5.1 8.5 0 0 3.4-0.2 4.3 5.6 0.9 5.8-5.3 7.6-5.3 7.6 0 0 3.8-0.2 4.8 4.9 1 5.1-5.6 8.1-5.6 8.1 3.2 0.1 3.7 3.8 3.7 3.8 1.8 7.1-3.6 8.5-3.6 8.5l-34.3 8c-2.6 0.6-5.3 0.7-8 0.2-2.6-0.5-5.1-1.5-7.4-3l-7.6-32.6 0.4-3.1c0.4-2.5 1.5-4.8 3.2-6.6z"/>
			<path id="Layer" class="s3" d="m158.8 68.4c0 0 7.3-7.1 9.6-14.7 1.7-5.5 1.3-11.5 1.3-11.5-0.1-0.3-0.7-2.9-1.1-5-0.2-0.8-0.1-1.7 0.4-2.4 0.4-0.7 1.1-1.2 2-1.5 3.6-0.9 10.1 0.9 12.3 7.4 3.3 9.7 1.2 16.5 1.3 19.5v3z"/>
			<path id="Layer" class="s3" d="m165.9 117.5l-23.9 5.6-11.4-48.5 23.9-5.5z"/>
			<path id="Layer" class="s4" d="m160.1 93.3c-3.1-13.4-5.6-24.2-5.6-24.2 0.1 0 2.7 10.8 5.8 24.2 3.1 13.4 5.6 24.2 5.6 24.2-0.1 0-2.6-10.8-5.8-24.2z"/>
			<path id="Layer" class="s4" d="m136.2 98.9c-3.1-13.4-5.6-24.2-5.6-24.3 0.1 0 2.6 10.8 5.8 24.2 3.1 13.4 5.6 24.3 5.6 24.3-0.1 0-2.7-10.8-5.8-24.2z"/>
			<path id="Layer" class="s0" d="m148.7 82.1c0.2 0.9 0.1 1.8-0.2 2.7-0.3 0.8-0.9 1.6-1.6 2.1-0.7 0.5-1.6 0.8-2.5 0.9-0.9 0-1.8-0.2-2.6-0.7-0.8-0.5-1.4-1.2-1.8-2-0.3-0.8-0.5-1.8-0.3-2.7 0.1-0.8 0.5-1.7 1.2-2.3 0.6-0.7 1.4-1.2 2.3-1.4 1.2-0.2 2.4 0 3.4 0.6 1.1 0.6 1.8 1.7 2.1 2.8z"/>
			<path id="Layer" class="s4" d="m183.9 62c-3.3 0.7-5.9 1.3-5.9 1.3 0-0.1 2.6-0.7 5.8-1.5 3.2-0.7 5.9-1.3 5.9-1.3 0 0.1-2.6 0.8-5.8 1.5z"/>
			<path id="Layer" class="s4" d="m207.5 83.4c-2 0.5-3.7 0.8-3.7 0.8q1.8-0.6 3.7-1c2-0.5 3.7-0.8 3.7-0.8q-1.8 0.6-3.7 1z"/>
			<path id="Layer" class="s4" d="m206.9 70.2c-3 0.7-5.3 1.2-5.4 1.1 0 0 2.4-0.6 5.3-1.3 2.9-0.7 5.3-1.2 5.3-1.1 0 0-2.3 0.6-5.2 1.3z"/>
			<path id="Layer" class="s4" d="m206.1 96.3c-2.9 0.7-5.3 1.2-5.3 1.2 0-0.1 2.4-0.7 5.3-1.4 2.9-0.6 5.3-1.1 5.3-1.1 0 0.1-2.3 0.7-5.3 1.3z"/>
			<g id="Layer" style="opacity: .3">
				<path id="Layer" class="s0" d="m171.1 35.7c2.2-1.6 4.1-0.8 5.3 0.2 1.3 0.9 2.1 2.3 2.4 3.8 0.5 1.8 0.4 3.7-0.2 5.4-0.6 1.8-1.7 3.3-3.2 4.5-0.7 0.6-2 1-2.6 0.2-0.4-0.5-0.2-1.3-0.1-1.9 0.5-2.3 0.2-4.6-0.8-6.6q-0.7-1.3-1.3-2.7-0.2-0.8-0.1-1.5 0.2-0.8 0.7-1.4"/>
			</g>
			<g id="Layer" style="opacity: .3">
				<path id="Layer" class="s0" d="m211.8 57.6q0.5 0.4 0.6 1.1 0 0.4-0.2 0.8-0.2 0.4-0.5 0.7-0.7 0.5-1.5 0.8c-3.7 1.6-7.5 2.5-11.4 3.4-1.9 0.5-3.8 0.9-5.7 1.2-0.9 0.3-1.9 0.2-2.8-0.1-0.8-0.3-1.5-1.3-1.2-2.2 0.1-1.6 3-1.9 4.6-2.3l14.4-3.7q1.3-0.4 2.6-0.3 0.6 0.1 1.1 0.6z"/>
			</g>
			<path id="Layer" class="s0" d="m141.8 73.6c-4.1 1-7.5 1.7-7.5 1.6 0 0 3.3-0.8 7.4-1.8 4.1-0.9 7.5-1.7 7.5-1.6 0 0-3.3 0.8-7.4 1.8z"/>
			<path id="Layer" class="s0" d="m213.9 76.2q0-0.6-0.1-1.2-0.1-0.7-0.4-1.4-0.3-0.6-0.7-1.2-0.3-0.5-0.7-0.9c-0.5-0.5-0.8-0.7-0.8-0.8q0.1 0.1 0.2 0.2 0.4 0.2 0.7 0.5 0.4 0.4 0.8 0.9 0.4 0.6 0.7 1.3 0.3 0.7 0.4 1.4 0.1 0.6 0 1.2 0 0.4-0.1 0.8 0 0.1-0.1 0.3c0 0 0.1-0.5 0.1-1.1z"/>
			<path id="Layer" class="s0" d="m214.8 63.5q0.3-0.9 0.3-1.8-0.1-0.9-0.5-1.7c-0.3-0.4-0.5-0.7-0.4-0.7q0.3 0.3 0.5 0.6 0.5 0.8 0.6 1.8c0 0.6-0.1 1.3-0.4 1.8q-0.1 0.4-0.4 0.7c-0.1 0 0.1-0.3 0.3-0.7z"/>
			<path id="Layer" class="s0" d="m213.2 90.7c0.3-0.6 0.5-1.3 0.5-2-0.1-0.7-0.3-1.4-0.8-2-0.3-0.4-0.6-0.6-0.6-0.6q0.4 0.2 0.7 0.6c0.5 0.5 0.8 1.2 0.9 2 0 0.7-0.2 1.4-0.6 2q-0.3 0.4-0.7 0.7c0-0.1 0.3-0.3 0.6-0.7z"/>
			<path id="Layer" class="s0" d="m210.8 103.3q0.3-0.9 0.3-1.9-0.1-0.9-0.5-1.8c-0.2-0.4-0.4-0.7-0.3-0.7q0.3 0.3 0.4 0.6 0.5 0.9 0.6 1.9 0 1-0.4 1.9-0.1 0.4-0.4 0.7c-0.1 0 0.1-0.3 0.3-0.7z"/>
			<path id="Layer" class="s0" d="m183.6 51.5q0.1-0.3 0.1-0.7c0.1-0.2 0.1-0.5 0.1-0.8q0.1-1.2 0.1-2.3-0.1-1.4-0.4-2.8-0.2-1.3-0.7-2.7-0.4-1.1-0.9-2.1c-0.1-0.3-0.3-0.5-0.4-0.8q-0.2-0.3-0.3-0.5-0.2-0.3-0.3-0.5 0.2 0.2 0.3 0.4 0.2 0.3 0.4 0.6 0.2 0.3 0.4 0.8 0.6 1 1 2.1c0.6 1.8 1 3.6 1 5.5q0.1 1.2 0 2.3-0.1 0.5-0.2 0.9 0 0.4-0.1 0.6 0 0.3-0.1 0.6 0-0.3 0-0.6z"/>
			<path id="Layer" class="s6" d="m128.9 109.2c0 0 1.9-1.4 3.3-1.5 1.4 0 3.2 0.5 3.6 0.3 0.3-0.2 1.2-1 1.7-0.3 0.6 0.7 1.3 3.1-1.7 3.8h-2c0 0 0.3 2 0.8 2.7 0.5 0.8 7.3 9.3 7.3 9.3 0 0 0.8 0.9 0.4 1.7-0.4 0.9-2.3 0.4-2.3 0.4 0 0-1.3 1.1-2.7 0.6q-1.1-0.4-2.1-1c-0.4 0.4-1 0.6-1.6 0.6-0.6 0-1.2-0.2-1.7-0.6-1.7-1.2-7.3-8.3-7.3-8.3l2-7.9z"/>
			<path id="Layer" class="s6" d="m123 104.5l5.9 4.7-4.3 7.7-8.6-3.1c0 0 0.2-9.1 7-9.3z"/>
			<path id="Layer" class="s6" d="m212 95.3c0 0 0.5-2.5 1.7-2.9 1.2-0.4 1.4 1.7 1.4 1.7z"/>
			<path id="Layer" class="s6" d="m210.8 96.2c0 0 2.1-2.3 4.9-2.1 2.9 0.2 1.1 2.6 1.1 2.6 0 0 2.1 1.3 0.6 3.1l-0.3 0.5c0 0 1.8 0.7-0.1 2.6q0.3 0.5 0.3 1.1-0.1 0.6-0.5 1.1c-0.9 0.9-3.3-0.3-3.3-0.3 0 0-2.1 0.5-2.3-0.4q-0.1-0.4 0-0.9 0.2-0.4 0.5-0.7c0.2-0.1 1.3-0.6 1.3-0.6 0 0-2.5 0.3-2.5-0.3-0.1-0.6-0.3-1.3 1.5-1.9l1-0.3c0 0-2.6 0.1-2.6-0.5 0-0.7-0.1-0.9 0.8-1.3q0.9-0.4 1.7-1c0 0-2.4 0.6-2.1-0.7z"/>
			<path id="Layer" class="s7" d="m211.1 97.9c1.4-1 3.1-1.5 4.8-1.4q0.5 0 1 0.2-1.8-0.1-3.5 0.3-1.6 0.5-3 1.6 0.3-0.4 0.7-0.7z"/>
			<path id="Layer" class="s7" d="m210.5 102q-0.1-0.2-0.2-0.4 0-0.2 0.1-0.4c0-0.3 0.3-0.7 0.6-0.9q0.5-0.4 1.2-0.5 1.1-0.3 2.3-0.3 0.5 0 1 0.1-1.6 0.1-3.3 0.4-0.6 0.1-1.1 0.5-0.4 0.3-0.6 0.8-0.1 0.3 0 0.6 0.1 0.2 0.2 0.2c0 0-0.1 0-0.2-0.1z"/>
			<path id="Layer" class="s7" d="m211.5 104.7q-0.2-0.1-0.3-0.3-0.1-0.1-0.2-0.3 0-0.3 0-0.6 0.1-0.3 0.4-0.6 0.6-0.4 1.3-0.6 1.3-0.3 2.6-0.1 0.5 0.1 1 0.2-0.5 0.1-1 0-1.3-0.1-2.5 0.2-0.7 0.1-1.2 0.5-0.2 0.2-0.3 0.4-0.1 0.2-0.1 0.4 0 0.2 0 0.4 0.1 0.2 0.3 0.4 0.2 0.1 0.2 0.1c0 0.1-0.1 0.1-0.2-0.1z"/>
			<path id="Layer" class="s7" d="m213.6 94.3c0.8-0.3 1.6-0.4 2.4-0.3q0.6 0.1 1 0.4-0.5-0.1-1-0.2-1.2-0.1-2.3 0.3-1.2 0.4-2.2 1.1-0.3 0.2-0.5 0.5-0.2 0.2-0.2 0.2c-0.2-0.1 0.9-1.4 2.8-2z"/>
		</g>
	</g>
</svg>