<svg width="71" height="70" viewBox="0 0 71 70" fill="none" xmlns="http://www.w3.org/2000/svg">
<path d="M53.7316 61.8579C54.468 63.1764 53.9959 64.8421 52.6772 65.5782C51.8164 66.0588 50.9253 66.5079 50.028 66.9132C49.6628 67.078 49.2804 67.1561 48.9042 67.1561C47.8624 67.1561 46.8672 66.5577 46.4106 65.5465C45.789 64.1702 46.4009 62.5506 47.7772 61.9291C48.5335 61.5874 49.2852 61.2087 50.0112 60.8035C51.3298 60.0674 52.9956 60.5395 53.7316 61.8579ZM63.1727 52.0462C61.961 51.1448 60.2481 51.3965 59.3468 52.608C58.851 53.2744 58.3205 53.928 57.77 54.5508C56.7699 55.6821 56.8761 57.4103 58.0075 58.4105C58.5278 58.8704 59.1738 59.0963 59.8175 59.0963C60.5738 59.0963 61.3269 58.7841 61.8672 58.1729C62.5192 57.4354 63.1474 56.6613 63.7345 55.872C64.6359 54.6606 64.3844 52.9475 63.1727 52.0462ZM67.7457 39.2227C66.271 38.9015 64.8135 39.8374 64.4923 41.3129C64.3155 42.1246 64.102 42.9378 63.8571 43.7302C63.4113 45.1731 64.2196 46.7041 65.6623 47.1499C65.9313 47.2329 66.2031 47.2724 66.4705 47.2724C67.6381 47.2724 68.7192 46.5186 69.0821 45.3444C69.3728 44.4041 69.6262 43.439 69.836 42.4761C70.1571 41.0006 69.2213 39.544 67.7457 39.2227ZM32.7656 13.125V33.8674L22.7388 43.8941C21.671 44.962 21.671 46.6933 22.7388 47.7611C23.2728 48.2951 23.9724 48.562 24.6724 48.562C25.3721 48.562 26.072 48.2949 26.606 47.7611L37.4336 36.9335C37.9463 36.4208 38.2344 35.7252 38.2344 35V13.125C38.2344 11.6148 37.0102 10.3906 35.5 10.3906C33.9898 10.3906 32.7656 11.6148 32.7656 13.125ZM67.7656 5.87891C66.2554 5.87891 65.0312 7.10309 65.0312 8.61328V16.2061C58.6667 6.22453 47.5519 0 35.5 0C26.1512 0 17.3619 3.64068 10.7512 10.2512C4.14068 16.8619 0.5 25.6512 0.5 35C0.5 44.3488 4.14068 53.1381 10.7512 59.7488C17.3619 66.3593 26.1512 70 35.5 70C35.5231 70 35.5454 69.9971 35.5684 69.9966C35.5913 69.9971 35.6136 70 35.6367 70C36.6222 70 37.6174 69.9584 38.5949 69.8767C40.0998 69.7506 41.2176 68.4286 41.0917 66.9237C40.9655 65.4188 39.6452 64.3005 38.1385 64.4271C37.3122 64.4961 36.4706 64.5312 35.6367 64.5312C35.6136 64.5312 35.5913 64.5341 35.5684 64.5347C35.5454 64.5341 35.5231 64.5312 35.5 64.5312C19.2164 64.5312 5.96875 51.2836 5.96875 35C5.96875 18.7164 19.2164 5.46875 35.5 5.46875C45.9943 5.46875 55.6465 11.0623 60.9209 19.9609H53.4024C51.8922 19.9609 50.668 21.1851 50.668 22.6953C50.668 24.2055 51.8922 25.4297 53.4024 25.4297H61.75C63.4152 25.4297 64.9731 24.9617 66.2996 24.151C66.3849 24.1023 66.4669 24.0499 66.5451 23.9935C68.9249 22.4279 70.5 19.7349 70.5 16.6797V8.61328C70.5 7.10309 69.2758 5.87891 67.7656 5.87891Z" fill="url(#paint0_linear_976_2677)"/>
<defs>
<linearGradient id="paint0_linear_976_2677" x1="0.5" y1="35" x2="70.5" y2="35" gradientUnits="userSpaceOnUse">
<stop stop-color="#00F2FE"/>
<stop offset="0.021" stop-color="#03EFFE"/>
<stop offset="0.293" stop-color="#24D2FE"/>
<stop offset="0.554" stop-color="#3CBDFE"/>
<stop offset="0.796" stop-color="#4AB0FE"/>
<stop offset="1" stop-color="#4FACFE"/>
</linearGradient>
</defs>
</svg>
