<svg xmlns="http://www.w3.org/2000/svg" viewBox="0 0 126.98 126.98"><defs><style>.cls-1{isolation:isolate;}.cls-2,.cls-3{fill:#ffc174;}.cls-2,.cls-3,.cls-5{fill-rule:evenodd;}.cls-3{mix-blend-mode:soft-light;}.cls-4{fill:none;stroke:#4d4d4d;stroke-linecap:round;stroke-linejoin:round;stroke-width:3.84px;}.cls-5{fill:#4d4d4d;}</style></defs><title>Asset 2jiffy emoticons</title><g class="cls-1"><g id="Layer_2" data-name="Layer 2"><g id="Layer_1-2" data-name="Layer 1"><path class="cls-2" d="M63.49,127A63.49,63.49,0,1,0,0,63.49,63.61,63.61,0,0,0,63.49,127Z"/><path class="cls-3" d="M63.49,118.17A54.68,54.68,0,1,0,8.82,63.49,54.78,54.78,0,0,0,63.49,118.17Z"/><line class="cls-4" x1="34.19" y1="88.8" x2="94.33" y2="88.8"/><path class="cls-2" d="M28.95,80.86c5.45,0,9.89-3.31,9.89-7.38s-4.44-7.38-9.89-7.38-9.89,3.31-9.89,7.38S23.5,80.86,28.95,80.86Z"/><path class="cls-2" d="M98,80.86c5.45,0,9.89-3.31,9.89-7.38s-4.44-7.38-9.89-7.38-9.89,3.31-9.89,7.38S92.58,80.86,98,80.86Z"/><path class="cls-5" d="M80.16,54.71c0,.63-.07,1.27-.07,1.93,0,6.16,2.06,11.19,4.58,11.19s4.58-5,4.58-11.19A23.27,23.27,0,0,0,88.33,50Z"/><line class="cls-4" x1="75.02" y1="57.68" x2="94.3" y2="46.55"/><line class="cls-4" x1="34.29" y1="46.55" x2="53.57" y2="57.68"/><path class="cls-5" d="M40.26,50a23.26,23.26,0,0,0-.91,6.64c0,6.16,2.06,11.19,4.58,11.19s4.58-5,4.58-11.19c0-.66,0-1.3-.07-1.93Z"/></g></g></g></svg>