<svg width="16" height="16" viewBox="0 0 16 16" fill="none" xmlns="http://www.w3.org/2000/svg">
<path d="M11.8769 16C13.3539 16 14.2667 15.6105 15.0872 14.6778C15.159 14.5958 15.2205 14.5138 15.2923 14.4421C15.7744 13.8886 16 13.3556 16 12.8431C16 12.2281 15.641 11.6542 14.8615 11.1212L12.5128 9.48123C11.7539 8.9585 10.8718 8.91751 10.2051 9.57348L9.56924 10.209C9.38462 10.3934 9.24103 10.3934 9.08719 10.2909C8.62564 9.99371 7.76412 9.21474 7.22053 8.67151C6.67693 8.12828 6.01025 7.39031 5.70257 6.91883C5.6 6.75482 5.6 6.62159 5.78461 6.4371L6.43077 5.79136C7.08718 5.13539 7.04616 4.24368 6.51282 3.4852L4.88204 1.14829C4.33847 0.369305 3.76411 0.0105637 3.14872 0.000319952C2.64615 -0.00992378 2.11283 0.225808 1.55897 0.707557C1.47692 0.779306 1.40513 0.851032 1.32308 0.922781C0.389738 1.73252 0 2.65498 0 4.12067C0 6.4371 1.39488 9.29674 4.05129 11.9514C6.69743 14.5958 9.55899 16 11.8769 16ZM11.8872 14.6061C9.8359 14.647 7.16923 13.0583 5.1077 10.9982C3.02565 8.93799 1.34358 6.16035 1.39488 4.11043C1.41538 3.23921 1.72308 2.50124 2.33847 1.97849C2.39999 1.92725 2.45129 1.88626 2.51283 1.835C2.71795 1.67101 2.95386 1.56851 3.15897 1.56851C3.38461 1.56851 3.58974 1.6505 3.73334 1.87601L5.29232 4.22317C5.44616 4.44866 5.44616 4.68441 5.24102 4.87915L4.50256 5.61712C3.9077 6.22185 3.95897 6.93933 4.41027 7.5133C4.91282 8.16928 5.73334 9.08149 6.28718 9.61448C6.83077 10.1577 7.83591 11.0802 8.49232 11.5927C9.06667 12.0334 9.78462 12.0949 10.3795 11.4902L11.118 10.7522C11.3231 10.5574 11.559 10.5574 11.7846 10.7112L14.1231 12.2691C14.359 12.4126 14.4308 12.6074 14.4308 12.8329C14.4308 13.0481 14.3385 13.2838 14.1641 13.4888C14.1231 13.5503 14.0821 13.6016 14.0308 13.6528C13.5077 14.2781 12.759 14.5856 11.8872 14.6061Z" fill="#004393"/>
</svg>
