<svg width="365" height="325" viewBox="0 0 365 325" fill="none" xmlns="http://www.w3.org/2000/svg">
<path d="M273.029 53.9594H254.592L240.515 57.2766L238.417 56.0603C238.417 56.0603 229.585 53.3513 225.334 60.4832H203.805C203.805 60.4832 203.805 60.4832 203.805 60.4279L217.992 53.4066V46.3852C217.992 46.3852 217.992 46.0535 217.992 45.9429V23.8837H186.361L183.988 24.713L182.552 23.8837L176.646 27.3115L153.957 35.2727L121.995 16.5859H102.784V39.5297C103.005 41.7412 104.441 43.8973 107.366 45.6112C110.016 47.1592 113.328 47.9885 116.806 48.2097C119.235 48.5967 121.112 49.039 122.602 49.5365L118.572 53.4619L108.305 51.5821L92.1855 54.1253V76.1845L126.798 96.1981C126.798 96.1981 136.679 99.2389 140.598 90.4484C140.985 88.4581 142.475 86.523 145.125 85.0303C145.787 84.6433 146.505 84.3116 147.223 84.0352V105.984C147.057 107.421 148.106 108.527 148.106 108.527L182.718 128.541L217.33 108.527C217.33 108.527 227.211 105.486 231.131 114.277C231.848 118.147 236.761 121.685 246.09 122.791C257.517 122.072 262.817 117.483 262.541 112.95V91.1671L249.789 89.8402C249.789 89.8402 249.789 89.8402 249.789 89.7849L273.25 76.2398V54.1806L273.029 53.9594Z" fill="#82A4CD"/>
<path d="M182.499 130.144L181.726 129.702L146.838 109.467C146.838 109.467 145.347 107.808 145.568 105.818V86.3018C143.415 87.5734 142.091 89.1214 141.759 90.7247L141.649 91.0565C137.288 100.842 126.579 97.6908 126.137 97.5802L125.861 97.4697L90.5312 77.0137V76.1292V52.8537L91.7457 52.6325L108.196 50.0341H108.472L117.912 51.8585L119.623 50.1999C118.629 49.9788 117.581 49.7576 116.421 49.5918C112.723 49.3706 109.245 48.3755 106.485 46.8275C103.283 45.003 101.406 42.4046 101.241 39.6402V15.1484H102.676H122.383L122.77 15.4249L154.069 33.6693L176.151 25.9293L182.554 22.2251L184.155 23.1649L186.363 22.4462H219.429V23.939V45.9982C219.429 46.1087 219.429 46.3299 219.429 46.6063V54.4017L218.601 54.844L209.769 59.2116H224.563C229.531 52.0244 238.75 54.844 238.861 54.844L239.137 54.9545L240.793 55.8944L254.649 52.6878H274.466V54.1805V77.1243L273.638 77.5666L254.041 88.9003L263.757 89.8954V91.2223L263.647 114.443C262.874 119.031 257.354 123.509 245.927 124.283C236.542 123.233 230.525 119.695 229.476 114.774C226.275 107.808 218.767 109.633 217.608 109.909L182.388 130.254L182.499 130.144ZM148.825 107.366L182.499 126.827L216.89 107.034C219.981 106.094 228.593 105.431 232.236 113.613L232.347 113.945C232.899 116.765 236.763 120.192 246.037 121.298C256.47 120.579 261.107 116.488 260.887 113.005L260.776 111.457H260.887V92.3833L248.411 91.1117L247.914 89.0662L248.852 88.5133L271.596 75.3552V55.5074H254.759L240.296 58.9351L237.812 57.4977C236.763 57.2213 229.973 55.618 226.495 61.3125L226.054 62.0312H225.226H202.593L202.041 59.7644L203.089 59.2116L216.504 52.5772V25.2658H186.473L183.713 26.261L182.388 25.487L177.199 28.4724L153.683 36.7654L153.131 36.4889L121.39 17.968H103.945V39.5297C104.111 41.2435 105.491 43.0127 107.81 44.3396C110.183 45.7217 113.22 46.551 116.587 46.7722C119.071 47.1592 121.003 47.6015 122.77 48.1543L125.033 48.9283L118.795 54.9545H118.077L107.975 53.0195L93.2362 55.3415V75.4105L127.02 94.9265C128.179 95.2582 135.687 96.9721 138.889 90.0613C139.386 87.6287 141.207 85.4725 144.078 83.814C144.795 83.4269 145.568 83.04 146.341 82.7635L148.328 81.9342V106.039C148.328 106.647 148.549 107.2 148.715 107.476L148.825 107.366Z" fill="#222222"/>
<path d="M217.222 26.9257V46.1653V46.2206L212.143 47.5475L200.716 46.7735L193.982 42.7376L193.926 42.6823L192.602 37.2642L196.024 32.8966L203.863 29.9664L212.64 28.5843L217.112 24.7695L217.222 26.9257Z" fill="#222222"/>
<path d="M151.806 60.0957L149.763 61.0356L143.912 63.1364L139.992 65.7902L137.674 70.5448L136.128 73.3644L131.215 75.6311L126.799 75.1888V97.3033L134.582 95.8106L139.827 91.4983L144.243 85.0851L145.733 83.0395L151.806 80.054V60.0957Z" fill="#222222"/>
<path d="M182.498 105.543V127.547L211.921 110.519L218.104 107.313V85.3086L182.498 105.543Z" fill="#222222"/>
<path d="M241.51 100.456V122.515L253.489 122.073L261.88 115.992L262.322 110.85V95.3145C262.322 95.3145 262.322 95.3145 262.266 95.3145L255.753 99.7374L248.355 101.341L241.455 100.401L241.51 100.456Z" fill="#222222"/>
<path d="M240.295 78.8944L250.784 81.4376L257.739 83.7596L273.03 75.3008V53.2969L245.098 69.4405L239.026 72.9235L237.535 75.4114L238.474 77.6781L240.295 79.005V78.8944Z" fill="#222222"/>
<path d="M232.679 93.2129H229.809V115.604H232.679V93.2129Z" fill="#222222"/>
<path d="M118.576 25.709H115.705V40.3046H118.576V25.709Z" fill="#222222"/>
<path d="M332.925 60.041L330.828 61.0362L324.976 63.0818L321.057 65.7908L318.793 70.4901L317.248 73.365L312.335 75.5764L307.863 75.1894V97.3039L315.647 95.8112L320.891 91.4436L325.307 85.0857L326.853 82.9848L332.925 79.9994V60.041Z" fill="#222222"/>
<path d="M151.53 107.531L153.628 101.284C154.842 100.952 156.167 100.676 157.823 100.454C161.301 100.233 164.613 99.3487 167.263 97.856C170.354 96.0315 171.9 93.7095 171.9 91.3322V69.2177L166.214 68.7754L148.88 72.4796L139.827 77.6765L120.009 85.0848L94.2848 77.4L92.0767 76.1285L91.3591 76.5155L82.7475 73.917L56.6366 76.0732L56.8574 97.1925C56.195 98.7958 56.3054 101.837 64.7514 103.606L63.3713 109.743L52.7724 118.312C51.1716 117.04 50.2883 115.548 49.9571 114.055C46.0377 105.264 36.2117 108.305 36.1565 108.305L26.9376 113.613L27.1584 108.416L19.0436 102.002L11.9777 105.098L1.59961 106.204V128.263L92.1319 180.619L126.744 160.606C126.744 160.606 127.793 159.5 127.627 158.063V136.114C128.345 136.39 129.062 136.722 129.725 137.109C132.375 138.657 133.865 140.537 134.252 142.527C138.171 151.318 147.997 148.277 148.052 148.277L182.664 128.263V106.204L151.696 107.476L151.53 107.531Z" fill="#82A4CD"/>
<path d="M91.9676 182.5L91.1947 182.002L0 129.314V128.43V105.044L11.4821 103.827L19.1553 100.455L19.8729 100.953L28.7054 107.919L28.5398 108.803L28.4293 111.125L35.8817 106.923C39.8011 105.762 47.7503 105.762 51.1728 113.502L51.2832 113.834C51.4488 114.719 51.9457 115.603 52.7185 116.433L61.9925 108.914L62.931 104.601C59.0116 103.606 56.5827 102.169 55.5338 100.289C54.9818 99.2387 54.8714 98.0224 55.2578 96.8613L55.037 74.6916L56.4171 74.581L82.7487 72.4248H82.9695L91.0843 74.9127L91.9676 74.4151L94.7829 76.0184L119.9 83.5374L139.276 76.2949L148.274 71.0427H148.716L166.381 67.2832L166.602 67.3938L173.336 67.9466V69.3288L173.281 92.549C172.895 95.0922 171.073 97.4142 168.037 99.1834C165.277 100.787 161.799 101.727 157.99 102.003C156.886 102.169 155.837 102.39 154.788 102.611L153.629 106.205L183.162 104.988L184.101 105.818V106.481V129.425L183.273 129.867L148.44 149.991C144.576 151.208 136.461 151.374 132.928 143.468L132.817 143.136C132.486 141.477 131.217 139.985 129.064 138.713V158.395C129.229 160.275 127.96 161.767 127.794 161.933L127.463 162.21L92.078 182.666L91.9676 182.5ZM2.87054 127.601L92.0228 179.127L125.696 159.667C125.696 159.667 126.138 158.893 126.083 158.395V134.18L128.07 135.009C128.843 135.341 129.616 135.672 130.333 136.059C133.204 137.718 134.97 139.874 135.522 142.307C138.724 149.217 146.232 147.448 147.391 147.172L181.175 127.656V107.863L150.924 109.08L149.986 107.808L152.58 100.068L153.408 99.9021C154.678 99.5704 156.113 99.2939 157.714 99.0175C161.192 98.7964 164.228 97.9671 166.602 96.5849C169.141 95.0922 170.521 93.2677 170.521 91.3327V90.1717V70.4898L166.325 70.1581L149.433 73.7517L141.319 78.5616L120.176 86.4675H119.79L93.5684 78.5616L92.078 77.677L91.5259 78.0087L82.5279 75.355L57.9627 77.4006L58.1836 97.4695L58.0732 97.7459C57.7971 98.3541 57.9627 98.7964 58.0732 99.0175C58.4596 99.7362 59.8396 101.118 64.8631 102.169L66.1879 102.445L66.0223 103.827L64.5319 110.628L64.035 110.959L52.6633 120.192L51.7801 119.473C50.0136 118.036 48.9095 116.322 48.5231 114.553C45.3214 107.642 37.8138 109.411 36.6545 109.688L25.338 116.212L25.6692 109.135L18.7689 103.717L12.4758 106.592H11.8686L2.92574 107.587V127.601H2.87054Z" fill="#222222"/>
<path d="M155.395 59.7634C146.065 60.8692 141.152 64.4075 140.435 68.2775C136.515 77.068 126.689 74.0273 126.634 74.0273L92.022 54.0137L57.41 74.0273C57.41 74.0273 52.1105 79.7218 67.3464 81.9885C74.026 82.4308 80.1535 85.2504 82.0303 90.6132C80.2086 100.344 63.3167 102.61 54.429 97.4687C51.7793 95.9207 50.2888 94.0409 49.9024 92.0506C45.983 83.2601 36.157 86.3008 36.1018 86.3008L1.54492 106.314C1.54492 106.314 1.54492 106.314 1.54492 106.37L92.022 158.671L126.634 138.657C126.634 138.657 131.934 132.962 116.698 130.696C110.018 130.309 103.891 127.434 102.014 122.071C103.835 112.341 120.727 110.074 129.615 115.216C132.265 116.764 133.755 118.643 134.142 120.634C138.061 129.424 147.887 126.383 147.942 126.383L182.499 106.37C182.499 106.37 182.499 106.37 182.499 106.314L147.942 86.3008C147.942 86.3008 142.643 80.6064 157.879 78.3396C161.357 78.1185 164.669 77.2339 167.318 75.7412C176.206 70.5995 172.287 60.8139 155.45 59.7634H155.395Z" fill="white"/>
<path d="M91.967 160.384L91.1942 159.886L0.0546875 107.199V105.485L35.6604 84.9183C39.4694 83.702 47.6393 83.5362 51.1723 91.4421L51.2827 91.7738C51.6139 93.4324 52.9388 94.9804 55.0917 96.252C60.3359 99.2927 68.9476 99.5692 74.7438 96.8601C76.9519 95.865 79.7121 93.9852 80.4849 90.7234C78.3872 85.7476 72.3149 83.702 67.1811 83.3703C60.1151 82.3199 56.251 80.4401 55.2573 77.6205C54.5397 75.6302 55.5885 73.7505 56.3062 72.9765L56.6374 72.7L92.0222 52.2441L92.7951 52.7417L127.186 72.6448C128.29 72.9765 135.853 74.7456 139.055 67.7796C140.104 62.9144 146.121 59.3761 155.229 58.3256H155.395C167.043 59.0444 172.176 63.6331 173.115 67.669C173.943 71.152 172.011 74.5798 167.981 76.9571C165.221 78.5604 161.743 79.5003 157.934 79.7767C150.316 80.9377 148.826 82.8174 148.55 83.5914C148.329 84.2549 148.66 84.9183 148.881 85.1947L183.935 105.485V107.199L148.108 127.82C144.189 128.981 136.24 128.981 132.817 121.241L132.707 120.91C132.375 119.251 131.051 117.703 128.898 116.431C123.653 113.391 115.042 113.114 109.245 115.823C107.037 116.818 104.277 118.698 103.504 121.96C105.492 126.881 111.619 128.981 116.808 129.313C123.874 130.364 127.738 132.243 128.732 135.063C129.45 137.053 128.401 138.933 127.683 139.707L127.352 139.983L91.967 160.439V160.384ZM4.30529 106.314L92.0222 157.012L125.696 137.551C125.696 137.551 126.248 136.611 126.027 135.948C125.751 135.174 124.261 133.238 116.532 132.077C108.583 131.58 102.621 127.986 100.689 122.458L100.579 121.96C101.296 117.979 103.836 115.049 108.031 113.114C114.711 110.018 124.261 110.35 130.333 113.888C133.203 115.547 134.97 117.703 135.522 120.136C138.724 127.046 146.231 125.277 147.39 125.001L179.739 106.314L146.949 87.2403C146.231 86.4663 145.182 84.6419 145.9 82.5963C146.894 79.7767 150.758 77.8969 157.713 76.8465C161.191 76.6254 164.227 75.7961 166.601 74.4139C169.527 72.7001 170.907 70.4886 170.41 68.2771C169.748 65.347 165.387 61.7534 155.505 61.1452C146.286 62.251 142.422 65.6234 141.925 68.443L141.815 68.7747C138.282 76.6807 130.112 76.5148 126.303 75.2985L126.027 75.1879L92.1326 55.5613L58.4591 75.0221C58.4591 75.0221 57.907 75.9619 58.1278 76.6254C58.4039 77.3994 59.8943 79.3344 67.6227 80.4954C75.5719 80.993 81.5338 84.5866 83.4658 90.1152L83.5762 90.6128C82.8586 94.5934 80.3193 97.5236 76.1239 99.4586C69.4444 102.555 59.8943 102.223 53.822 98.6846C50.9515 97.026 49.185 94.8698 48.633 92.4372C45.4312 85.5265 37.9237 87.2956 36.7644 87.572L4.41569 106.259L4.30529 106.314Z" fill="#222222"/>
<path d="M91.9688 158.616V180.62L127.022 159.887V137.828L91.9688 158.56V158.616Z" fill="#222222"/>
<path d="M143.857 126.77V148.83L147.942 148.332L182.554 128.318V106.314L149.212 125.831L143.913 126.826L143.857 126.77Z" fill="#222222"/>
<path d="M171.845 72.1484V90.8905L168.368 97.0272H166.656L147.391 85.3066V82.7081L149.985 80.4414L161.246 77.8982L171.901 72.1484H171.845Z" fill="#222222"/>
<path d="M118.961 112.451V130.972L111.012 129.535L103.781 126.162L102.18 119.583L107.369 115.16L114.711 112.506H119.016L118.961 112.451Z" fill="#222222"/>
<path d="M135.578 120.523H132.707V142.638H135.578V120.523Z" fill="#222222"/>
<path d="M73.6948 82.1543H70.8242V100.288H73.6948V82.1543Z" fill="#222222"/>
<path d="M342.309 100.732L342.529 99.9579C344.627 99.5156 346.67 98.8522 348.381 97.857C351.693 95.922 353.184 93.3235 352.908 90.8357V69.2187L341.536 65.0723L319.179 80.9394L274.244 76.8482L273.085 76.1848L272.201 76.6824L266.736 76.1848H244.655H237.589L237.424 102.999H213.024L190.225 106.813L182.607 106.316V128.375L204.026 140.759L204.578 142.473L193.262 143.358V165.306C193.206 169.729 198.616 174.207 209.767 174.926C219.096 173.82 224.009 170.282 224.727 166.412C228.646 157.621 238.472 160.662 238.528 160.662L273.14 180.676L307.752 160.662C307.752 160.662 308.58 159.778 308.635 158.561C308.635 158.561 308.635 158.23 308.635 158.119V136.17C309.353 136.447 310.07 136.779 310.733 137.166C313.382 138.714 314.873 140.593 315.259 142.639C319.179 151.429 329.005 148.389 329.06 148.389L363.672 128.375V106.316L342.364 100.732H342.309Z" fill="#82A4CD"/>
<path d="M273.141 182.446L272.423 182.114L237.867 162.156C236.762 161.824 229.2 160.055 225.998 167.021C224.949 171.886 218.932 175.425 209.824 176.475C198.121 175.756 192.545 171.168 191.828 166.579H191.717V165.418V142.198L193.042 142.032L201.874 141.313L181.008 129.261V128.376V105.709L181.946 104.824L190.006 105.322L212.639 101.507H235.879L235.99 74.6378H237.425H266.572L271.706 75.0801L272.92 74.4166L274.576 75.3565L318.683 79.3924L341.206 63.3594L354.234 68.114V69.1644L354.178 92.2188C353.847 94.8725 352.026 97.3051 348.934 99.0743C348.106 99.5166 347.223 99.9589 346.284 100.346L364.943 105.266V106.427V129.371L364.115 129.813L329.282 149.938C325.473 151.154 317.303 151.32 313.77 143.414L313.66 143.082C313.329 141.424 312.059 139.931 309.906 138.659V158.341C309.906 158.341 309.906 158.618 309.906 158.839C309.796 160.553 308.747 161.714 308.636 161.824L308.305 162.101L273.031 182.501L273.141 182.446ZM234.665 158.839C236.431 158.839 237.977 159.17 238.86 159.447L273.031 179.184L306.704 159.723C306.704 159.723 307.091 159.115 307.091 158.673V158.286V134.181L309.078 135.01C309.851 135.342 310.624 135.674 311.341 136.116C314.212 137.775 315.978 139.931 316.53 142.363C319.732 149.274 327.24 147.505 328.399 147.229L362.183 127.713V107.533L340.488 101.839L341.371 98.7979L342.199 98.632C344.297 98.1897 346.119 97.5263 347.609 96.697C350.314 95.149 351.639 93.1587 351.418 91.0578L351.253 89.4545H351.474V70.2702L341.758 66.7318L319.622 82.4331H319.125L273.472 78.1761L272.975 77.8997L272.423 78.2314L266.517 77.6785H238.86L238.75 104.548H237.314H212.915L190.116 108.418L183.878 108.031V127.768L205.076 140.041L206.346 144.022L194.532 144.962V165.639C194.532 169.122 199.169 173.103 209.658 173.766C218.711 172.716 222.575 169.288 223.127 166.468L223.238 166.136C225.777 160.387 230.801 159.005 234.61 159.005L234.665 158.839Z" fill="#222222"/>
<path d="M336.461 59.7654C327.132 60.8711 322.219 64.4094 321.501 68.2795C317.582 77.07 307.756 74.0293 307.7 74.0293L273.088 54.0156L238.476 74.0293C238.476 74.0293 233.177 79.7237 248.413 81.9905C255.092 82.4328 261.22 85.2524 263.097 90.6151C261.275 100.346 244.383 102.612 235.495 97.4706C232.846 95.9226 231.355 94.0429 230.969 91.9973C227.049 83.2068 217.223 86.2475 217.168 86.2475L182.611 106.261C182.611 106.261 182.611 106.261 182.611 106.316L217.168 126.33C217.168 126.33 222.468 132.025 207.232 134.291C200.552 134.678 194.425 137.553 192.548 142.916C194.37 152.646 211.262 154.913 220.149 149.771C222.799 148.223 224.289 146.344 224.676 144.353C228.595 135.563 238.421 138.604 238.476 138.604L273.088 158.617L307.7 138.604C307.7 138.604 313 132.909 297.764 130.642C291.084 130.255 284.957 127.38 283.08 122.018C284.902 112.287 301.794 110.021 310.681 115.162C313.331 116.71 314.822 118.59 315.208 120.58C319.127 129.371 328.953 126.33 329.009 126.33L363.566 106.316C363.566 106.316 363.566 106.316 363.566 106.261L329.009 86.2475C329.009 86.2475 323.709 80.553 338.945 78.2863C342.423 78.0651 345.735 77.1806 348.385 75.6878C357.272 70.5462 353.353 60.7606 336.516 59.7101L336.461 59.7654Z" fill="white"/>
<path d="M273.144 160.331L272.426 160L237.869 140.041C236.765 139.71 229.203 137.941 226.001 144.907C225.504 147.339 223.682 149.495 220.812 151.154C214.739 154.637 205.189 154.969 198.51 151.928C194.37 149.993 191.775 147.063 191.113 143.359V143.137L191.168 142.585C193.1 137.056 199.062 133.462 207.122 132.965C214.739 131.804 216.23 129.924 216.506 129.15C216.727 128.487 216.396 127.823 216.175 127.547L181.121 107.257V105.543L216.672 84.9763C219.763 83.9811 228.54 83.2071 232.239 91.5001L232.349 91.8318C232.68 93.4904 234.005 95.0384 236.158 96.31C241.402 99.3507 250.014 99.6272 255.81 96.9181C258.018 95.923 260.778 94.0432 261.551 90.7814C259.619 85.8609 253.437 83.76 248.247 83.4283C241.182 82.3778 237.317 80.4981 236.324 77.6785C235.606 75.6882 236.655 73.8085 237.373 73.0345L237.704 72.758L272.978 52.3574L273.696 52.6891L308.253 72.6475C309.412 72.9792 316.92 74.6931 320.121 67.7823C321.17 62.9171 327.187 59.3788 336.296 58.3283H336.461C348.109 59.0471 353.243 63.6358 354.181 67.6717C355.009 71.1547 353.077 74.5825 349.047 76.9598C346.287 78.5631 342.81 79.503 339.001 79.7794C331.327 80.9404 329.892 82.8754 329.616 83.6494C329.395 84.3129 329.782 84.9763 329.947 85.2527L365.001 105.543V107.257L329.175 127.878C325.255 129.039 317.306 129.039 313.883 121.299L313.773 120.968C313.442 119.309 312.117 117.761 309.964 116.489C304.72 113.449 296.108 113.172 290.312 115.881C288.104 116.876 285.344 118.756 284.571 122.018C286.668 126.994 292.741 129.039 297.875 129.371C304.941 130.422 308.805 132.301 309.798 135.121C310.516 137.111 309.467 138.991 308.75 139.765L308.418 140.041L273.144 160.442V160.331ZM234.612 136.724C236.269 136.724 237.759 137.001 238.863 137.332L239.139 137.443L273.033 157.07L306.707 137.609C306.707 137.609 307.259 136.669 307.038 136.006C306.762 135.231 305.272 133.296 297.543 132.135C289.594 131.638 283.632 128.044 281.7 122.516L281.59 122.018C282.307 118.037 284.847 115.107 289.042 113.172C295.722 110.076 305.272 110.408 311.344 113.946C314.215 115.605 315.981 117.761 316.533 120.194C319.735 127.104 327.242 125.335 328.402 125.059L360.75 106.372L327.96 87.2983C327.242 86.5243 326.194 84.6999 326.911 82.6543C327.905 79.8347 331.769 77.9549 338.725 76.9045C342.202 76.6834 345.238 75.8541 347.612 74.4719C350.538 72.758 351.918 70.5466 351.421 68.3351C350.759 65.405 346.398 61.8114 336.516 61.2032C327.298 62.3089 323.433 65.6814 322.937 68.501L322.826 68.8327C318.465 78.6184 307.756 75.4671 307.314 75.3565L307.038 75.2459L273.144 55.6193L239.47 75.0801C239.47 75.0801 238.918 76.0199 239.139 76.6834C239.415 77.4574 240.906 79.3924 248.634 80.5534C256.583 81.051 262.545 84.6446 264.477 90.1732L264.587 91.0025L264.422 91.2236C263.815 94.6514 261.22 97.6368 257.08 99.5166C250.4 102.557 240.85 102.281 234.778 98.7426C231.907 97.084 230.141 94.9278 229.589 92.4952C226.387 85.5844 218.935 87.3536 217.72 87.63L185.372 106.317L218.162 125.391C218.88 126.165 219.929 127.989 219.211 130.035C218.217 132.854 214.353 134.734 207.398 135.784C202.098 136.116 195.915 138.217 193.983 143.137C194.867 146.455 197.571 148.279 199.724 149.274C205.521 151.928 214.187 151.651 219.376 148.666C221.585 147.394 222.909 145.846 223.185 144.188L223.296 143.856C225.78 138.272 230.583 136.724 234.557 136.724H234.612Z" fill="#222222"/>
<path d="M210.102 152.536V174.595L216.284 173.6L222.909 169.785L225.172 165.528L228.484 161.935L233.507 160.331H236.047V138.217H233.121L228.318 139.875L225.779 142.142L223.019 147.505L218.051 151.32L210.102 152.481V152.536Z" fill="#222222"/>
<path d="M273.086 158.728V180.732L308.251 159.723L309.079 138.217L305.104 139.599L273.031 158.673L273.086 158.728Z" fill="#222222"/>
<path d="M300.3 112.564V131.085L291.964 129.593L284.07 123.124L284.678 116.545L293.068 112.62H300.3V112.564Z" fill="#222222"/>
<path d="M324.205 126.828V148.943L329.063 148.445L363.675 128.432V106.428L331.768 125.28L324.26 126.884L324.205 126.828Z" fill="#222222"/>
<path d="M352.356 71.8184L352.743 92.7166L348.382 97.8029H348.327L329.006 86.3034L328.178 83.539L331.876 80.1113H331.932L341.482 78.0657L350.369 74.638L352.356 71.8184Z" fill="#222222"/>
<path d="M316.64 120.637H313.77V142.751H316.64V120.637Z" fill="#222222"/>
<path d="M254.648 82.4336H251.777V100.567H254.648V82.4336Z" fill="#222222"/>
<path d="M238.418 74.0279L272.975 54.0143C272.975 54.0143 272.975 54.0143 272.975 53.959L238.418 33.9454C238.418 33.9454 228.537 30.9046 224.617 39.6951C223.9 43.5652 218.987 47.1035 209.657 48.2092C192.82 47.1588 188.901 37.3731 197.789 32.2315C200.438 30.6835 203.751 29.8542 207.228 29.633C222.464 27.3663 217.165 21.6718 217.165 21.6718L182.553 1.6582L147.941 21.6718C147.941 21.6718 138.059 24.7126 134.14 15.9221C133.422 12.052 128.509 8.5137 119.18 7.40797C102.343 8.45841 98.424 18.2441 107.312 23.3857C109.961 24.9337 113.273 25.763 116.751 25.9842C131.987 28.2509 126.688 33.9454 126.688 33.9454L92.1309 53.959C92.1309 53.959 92.1309 53.959 92.1309 54.0143L126.688 74.0279C126.688 74.0279 136.569 77.0686 140.488 68.2781C141.206 64.4081 146.119 60.8698 155.448 59.7641C172.285 60.8145 176.204 70.6002 167.317 75.7418C164.667 77.2898 161.355 78.1191 157.877 78.3402C142.641 80.607 147.941 86.3014 147.941 86.3014L182.553 106.315L217.165 86.3014C217.165 86.3014 227.046 83.2607 230.965 92.0512C231.683 95.9212 236.596 99.4596 245.925 100.565C262.762 99.5149 266.682 89.7292 257.794 84.5876C255.144 83.0396 251.832 82.2103 248.354 81.9891C233.118 79.7224 238.418 74.0279 238.418 74.0279Z" fill="white"/>
<path d="M182.553 107.974L181.835 107.642L146.837 87.297C146.119 86.523 145.07 84.6985 145.788 82.6529C146.782 79.8333 150.646 77.9536 157.601 76.9032C161.079 76.682 164.115 75.8527 166.489 74.4706C169.415 72.7567 170.795 70.5452 170.298 68.3338C169.636 65.4036 165.275 61.81 155.283 61.1466C146.23 62.197 142.31 65.6248 141.813 68.4444L141.703 68.7761C137.342 78.5618 126.633 75.4104 126.191 75.2999L125.915 75.1893L90.6406 54.7887V53.1301L91.3031 52.6878L125.694 32.7847C125.694 32.7847 126.246 31.8449 126.026 31.1814C125.749 30.4074 124.259 28.4724 116.531 27.3114C112.832 27.0903 109.354 26.0951 106.594 24.5471C102.564 22.2251 100.632 18.742 101.46 15.3143C102.399 11.2784 107.533 6.63435 119.125 5.91563C128.51 6.96607 134.527 10.5044 135.576 15.4249C138.777 22.2804 146.23 20.5665 147.444 20.2901L182.553 0L183.271 0.33172L218.269 20.6771C218.987 21.4511 220.036 23.2755 219.318 25.3211C218.324 28.1407 214.46 30.0204 207.505 31.0709C204.027 31.292 200.991 32.1213 198.617 33.5035C195.691 35.2173 194.311 37.4288 194.808 39.6402C195.47 42.5704 199.831 46.164 209.823 46.8275C218.876 45.777 222.796 42.3493 223.293 39.4744L223.403 39.1427C226.936 31.2367 235.106 31.4026 238.915 32.6189L239.191 32.7295L274.465 53.1301V54.844L239.412 75.134C239.191 75.4104 238.86 76.0739 239.08 76.7373C239.356 77.5113 240.847 79.4463 248.575 80.6073C252.274 80.8285 255.752 81.8236 258.512 83.3717C262.542 85.6937 264.474 89.1767 263.646 92.6045C262.707 96.6404 257.573 101.284 245.981 102.003C236.596 100.953 230.579 97.4144 229.53 92.4939C226.329 85.5831 218.821 87.3523 217.662 87.6287L182.553 107.919V107.974ZM148.824 85.1961L182.498 104.657L216.944 84.8644C220.864 83.7034 228.813 83.7034 232.235 91.4434L232.346 91.7752C232.898 94.5948 236.762 98.0225 246.091 99.1282C255.862 98.5201 260.223 94.8712 260.885 91.941C261.382 89.7296 260.002 87.5181 257.077 85.8042C254.703 84.4221 251.667 83.5928 248.299 83.3717C241.233 82.3212 237.369 80.4415 236.376 77.6219C235.658 75.6316 236.707 73.7518 237.424 72.9778L237.756 72.7014L270.215 53.9041L237.866 35.2173C236.762 34.8856 229.199 33.1165 225.997 40.0825C224.949 44.9477 218.932 48.486 209.823 49.5365C198.01 48.8178 192.876 44.229 191.937 40.1931C191.109 36.7101 193.041 33.2823 197.071 30.9603C199.831 29.357 203.309 28.4171 207.118 28.1407C214.736 26.9797 216.227 25.1 216.503 24.3259C216.723 23.6625 216.392 22.9991 216.171 22.7226L182.498 3.26189L148.272 22.9991C144.408 24.1601 136.238 24.3259 132.76 16.4753L132.65 16.1436C132.098 13.324 128.234 9.89624 118.904 8.79051C109.133 9.39866 104.828 13.0476 104.11 15.9777C103.613 18.1892 104.993 20.4006 107.919 22.1145C110.293 23.4967 113.329 24.3259 116.696 24.5471C123.762 25.5975 127.626 27.4773 128.62 30.2969C129.338 32.2872 128.289 34.1669 127.571 34.9409L127.24 35.2173L94.7808 54.0147L127.13 72.7014C128.289 73.0331 135.796 74.747 138.998 67.8362C140.047 62.971 146.064 59.4327 155.172 58.3823C166.986 59.101 172.12 63.6898 173.058 67.7256C173.886 71.2087 171.954 74.6364 167.924 76.9585C165.164 78.5617 161.686 79.5016 157.877 79.778C150.259 80.9391 148.769 82.8188 148.493 83.5928C148.272 84.2562 148.603 84.9197 148.824 85.1961Z" fill="#222222"/>
<path d="M215.365 248.813H196.928L182.851 252.13L180.753 250.914C180.753 250.914 171.921 248.205 167.67 255.337H146.141C146.141 255.337 146.141 255.337 146.141 255.281L160.328 248.26V241.239C160.328 241.239 160.328 240.907 160.328 240.796V218.737H128.697L126.323 219.567L124.888 218.737L118.982 222.165L96.2932 230.126L64.3309 211.439H45.1204V234.383C45.3412 236.595 46.7765 238.751 49.7022 240.465C52.3519 242.013 55.6641 242.842 59.1419 243.063C61.5708 243.45 63.4477 243.892 64.9381 244.39L60.9084 248.315L50.6407 246.436L34.5215 248.979V271.038L69.1335 291.052C69.1335 291.052 79.0148 294.092 82.9342 285.302C83.3206 283.312 84.8111 281.377 87.4608 279.829C88.1232 279.442 88.8409 279.11 89.5585 278.833V300.782C89.3929 302.219 90.4417 303.325 90.4417 303.325L125.054 323.339L159.666 303.325C159.666 303.325 169.547 300.284 173.466 309.075C174.184 312.945 179.097 316.483 188.426 317.589C199.853 316.87 205.153 312.282 204.877 307.748V285.965L192.125 284.638C192.125 284.638 192.125 284.638 192.125 284.583L215.586 271.038V248.979L215.365 248.813Z" fill="#82A4CD"/>
<path d="M124.89 324.888L124.172 324.556L89.1739 304.211C89.1739 304.211 87.6834 302.552 87.9042 300.562V281.046C85.7513 282.318 84.4264 283.866 84.0952 285.469L83.9848 285.801C79.6238 295.586 68.9145 292.435 68.4729 292.324L68.1969 292.214L32.8672 271.758V270.873V247.598L34.0817 247.377L50.3664 244.833H50.7528L60.3029 246.603L62.0142 244.944C61.0205 244.723 59.9717 244.502 58.8124 244.336C55.1138 244.115 51.6361 243.12 48.876 241.572C45.6742 239.747 43.7973 237.149 43.6317 234.384V209.893H45.067H64.6087L64.9399 210.058L96.4606 228.469L118.542 220.729L124.945 217.024L126.546 217.964L128.754 217.246H161.82V218.738V240.798C161.82 240.908 161.82 241.129 161.82 241.406V249.201L160.992 249.643L152.16 254.011H166.954C171.923 246.824 181.141 249.643 181.252 249.643L181.528 249.754L183.184 250.694L197.04 247.487H216.858V248.98V271.924L216.03 272.366L196.433 283.7L206.148 284.695V286.022L206.038 309.242C205.265 313.831 199.745 318.309 188.318 319.083C178.933 318.032 172.916 314.494 171.867 309.574C168.666 302.663 161.158 304.432 159.999 304.708L124.89 324.999V324.888ZM91.1612 302.11L124.835 321.571L159.06 301.834C162.925 300.617 171.039 300.451 174.572 308.357L174.683 308.689C175.235 311.509 179.099 314.936 188.373 316.042C198.806 315.323 203.443 311.232 203.222 307.749L203.112 306.201H203.222V287.127L190.747 285.856L190.25 283.866L191.133 283.257L213.932 270.099V250.252H197.095L182.632 253.679L180.148 252.242C179.099 251.965 172.309 250.362 168.886 256.057L168.445 256.775H167.617H144.984L144.432 254.509L145.481 253.956L158.895 247.321V220.01H128.865L126.104 221.005L124.78 220.231L119.591 223.217L96.1846 231.454L95.6878 231.288L63.8359 212.712H46.3918V234.274C46.5574 235.988 47.9375 237.757 50.256 239.084C52.6297 240.466 55.6659 241.295 59.0332 241.516C61.5174 241.903 63.4494 242.346 65.2159 242.898L67.4792 243.672L61.1861 249.754L60.3581 249.588L50.4216 247.764L35.6825 250.086V270.155L69.4665 289.671C70.5154 289.947 78.0781 291.771 81.3351 284.805C81.8319 282.373 83.6536 280.217 86.5241 278.558C87.2418 278.171 88.0146 277.784 88.7874 277.508L90.7747 276.678V300.783C90.7747 301.391 90.9956 301.944 91.1612 302.221V302.11Z" fill="#222222"/>
<path d="M159.556 221.781V240.965L159.501 241.021L154.477 242.403H154.422L143.05 241.574H142.995L136.26 237.538L134.936 232.064L138.303 227.752L138.358 227.697L146.142 224.767L154.919 223.384H154.974L159.39 219.625L159.556 221.781Z" fill="#222222"/>
<path d="M124.834 300.342V322.346L154.257 305.318L160.44 302.111V280.107L124.834 300.342Z" fill="#222222"/>
<path d="M183.792 295.257V317.316L195.771 316.874L204.161 310.792L204.603 305.651V290.115C204.603 290.115 204.603 290.115 204.548 290.115L198.034 294.538L190.637 296.141L183.736 295.202L183.792 295.257Z" fill="#222222"/>
<path d="M182.631 273.693L193.12 276.236L200.075 278.558L215.366 270.1V248.096L187.434 264.239L181.362 267.722L179.871 270.21L180.81 272.477L182.631 273.804V273.693Z" fill="#222222"/>
<path d="M175.013 288.068H172.143V310.459H175.013V288.068Z" fill="#222222"/>
<path d="M60.9116 220.508H58.041V235.103H60.9116V220.508Z" fill="#222222"/>
<path d="M180.754 268.829L215.311 248.815C215.311 248.815 215.311 248.815 215.311 248.76L180.754 228.746C180.754 228.746 170.872 225.705 166.953 234.496C166.235 238.366 161.322 241.904 151.993 243.01C135.156 241.96 131.237 232.174 140.125 227.032C142.774 225.484 146.087 224.655 149.564 224.434C164.8 222.167 159.501 216.473 159.501 216.473L124.889 196.459L90.2767 216.473C90.2767 216.473 80.3954 219.513 76.476 210.723C75.7584 206.853 70.8453 203.314 61.5161 202.209C44.6793 203.259 40.7599 213.045 49.6475 218.186C52.2972 219.734 55.6094 220.564 59.0872 220.785C74.3231 223.052 69.0236 228.746 69.0236 228.746L34.4668 248.76C34.4668 248.76 34.4668 248.76 34.4668 248.815L69.0236 268.829C69.0236 268.829 78.9049 271.869 82.8243 263.079C83.5419 259.209 88.455 255.671 97.7842 254.565C114.621 255.615 118.54 265.401 109.653 270.543C107.003 272.091 103.691 272.92 100.213 273.141C84.9772 275.408 90.2767 281.102 90.2767 281.102L124.889 301.116L159.501 281.102C159.501 281.102 169.382 278.061 173.301 286.852C174.019 290.722 178.932 294.26 188.261 295.366C205.098 294.316 209.017 284.53 200.13 279.388C197.48 277.84 194.168 277.011 190.69 276.79C175.454 274.523 180.754 268.829 180.754 268.829Z" fill="#004393"/>
<path d="M124.834 302.829L124.061 302.387L89.1733 282.152C88.4557 281.378 87.4069 279.554 88.1245 277.508C89.1181 274.689 92.9823 272.809 99.9379 271.759C103.416 271.537 106.452 270.708 108.825 269.326C111.751 267.612 113.131 265.401 112.634 263.189C111.972 260.259 107.666 256.665 97.7297 256.057C88.5109 257.163 84.6467 260.536 84.0947 263.355L83.9843 263.687C79.6233 273.473 68.914 270.321 68.4724 270.211L68.1963 270.1L32.9219 249.699V248.041L33.5843 247.599L67.9755 227.695C67.9755 227.695 68.5276 226.756 68.3068 226.092C68.0307 225.318 66.5403 223.383 58.8119 222.222C55.1133 222.001 51.6356 221.006 48.8754 219.458C44.8456 217.136 42.9135 213.653 43.7416 210.225C44.68 206.189 49.8139 201.545 61.4064 200.826C70.7909 201.877 76.808 205.415 77.8568 210.336C81.0034 217.191 88.5109 215.477 89.7254 215.201L124.945 194.855L125.717 195.298L160.606 215.533C161.323 216.307 162.372 218.131 161.654 220.177C160.661 222.996 156.797 224.876 149.841 225.926C146.363 226.147 143.327 226.977 140.953 228.359C138.028 230.073 136.648 232.284 137.144 234.496C137.807 237.426 142.168 241.019 152.16 241.683C161.213 240.632 165.132 237.205 165.629 234.33L165.739 233.998C169.272 226.092 177.442 226.258 181.251 227.474L181.527 227.585L216.802 247.986V249.699L181.748 269.989C181.527 270.266 181.196 270.929 181.417 271.593C181.693 272.367 183.183 274.302 190.912 275.463C194.61 275.684 198.088 276.679 200.848 278.227C204.878 280.549 206.81 284.032 205.982 287.46C205.044 291.496 199.91 296.14 188.317 296.859C178.933 295.808 172.916 292.27 171.867 287.349C168.665 280.439 161.158 282.208 159.998 282.484L124.779 302.829H124.834ZM91.1606 280.052L124.834 299.512L159.06 279.775C162.924 278.559 171.039 278.393 174.572 286.299L174.682 286.631C175.234 289.45 179.098 292.878 188.428 293.984C198.199 293.376 202.559 289.727 203.222 286.796C203.719 284.585 202.339 282.374 199.413 280.66C197.039 279.278 194.003 278.448 190.636 278.227C183.57 277.177 179.706 275.297 178.712 272.477C177.994 270.487 179.043 268.607 179.761 267.833L180.092 267.557L212.551 248.76L180.202 230.073C179.043 229.741 171.536 227.972 168.334 234.938C167.285 239.803 161.268 243.342 152.16 244.392C140.346 243.673 135.212 239.084 134.274 235.049C133.446 231.566 135.378 228.138 139.408 225.816C142.168 224.212 145.646 223.273 149.455 222.996C157.073 221.835 158.563 219.955 158.839 219.181C159.06 218.518 158.729 217.855 158.508 217.578L124.779 198.062L90.6086 217.799C87.5172 218.85 78.7952 219.624 75.0415 211.275L74.931 210.944C74.379 208.124 70.5149 204.696 61.1856 203.591C51.4147 204.199 47.1089 207.848 46.3913 210.778C45.8945 212.989 47.2745 215.201 50.2003 216.915C52.574 218.297 55.6101 219.126 58.9775 219.347C66.0434 220.398 69.9076 222.277 70.9013 225.097C71.6189 227.087 70.5701 228.967 69.8524 229.741L69.5212 230.018L37.0621 248.815L69.4108 267.502C70.4596 267.778 78.0224 269.602 81.2794 262.636C82.3282 257.771 88.2349 254.288 97.2329 253.182H97.2881H97.6193C109.267 253.901 114.401 258.49 115.339 262.581C116.167 266.064 114.235 269.492 110.206 271.814C107.445 273.417 103.968 274.357 100.159 274.634C92.5407 275.795 91.0502 277.674 90.7742 278.448C90.5534 279.112 90.8846 279.775 91.1054 280.052H91.1606Z" fill="#222222"/>
</svg>
