<?xml version="1.0" encoding="utf-8"?>
<!-- Generator: Adobe Illustrator 26.3.1, SVG Export Plug-In . SVG Version: 6.00 Build 0)  -->
<svg version="1.1" id="Layer_1" xmlns="http://www.w3.org/2000/svg" xmlns:xlink="http://www.w3.org/1999/xlink" x="0px" y="0px"
	 viewBox="0 0 341.8 106.7" style="enable-background:new 0 0 341.8 106.7;" xml:space="preserve">
<style type="text/css">
	.st0{fill:#1B1464;}
	.st1{fill:#FFFFFF;}
	.st2{fill:#F9EB21;}
</style>
<g>
	<g id="Group_98898_00000034049046572957461200000010193621340141037992_" transform="translate(467.55 715.534)">
		<g id="Group_98892_00000158733012187598332560000011212891238208963470_" transform="translate(0.477 12.22)">
			<path id="Path_115827_00000055695704666280392840000011091082507582131126_" class="st0" d="M-462.5-623.4c-1.1,0-1.9-0.9-1.9-2
				v-27c0-0.6,0.2-1.1,0.7-1.5l32.3-28.6c0.8-0.7,2-0.6,2.7,0.1l51.9,55.6c0.7,0.8,0.7,2-0.1,2.8c-0.4,0.3-0.8,0.5-1.3,0.5h-28.2
				c-0.5,0-1-0.2-1.4-0.6l-25.9-25.5l-27.4,25.5C-461.5-623.6-462-623.4-462.5-623.4z"/>
			<g id="Group_98891-2_00000017483903875673901880000011706181312423531662_">
				<path id="Path_115828_00000115502286601884379750000003868375618833640865_" class="st0" d="M-430.1-680.9l51.9,55.6h-28.2
					l-27.2-26.8l-28.8,26.8v-27L-430.1-680.9 M-430.2-684.8c-1,0-1.9,0.3-2.6,1l-32.3,28.6c-0.8,0.7-1.3,1.8-1.3,2.9v27
					c0,2.2,1.7,3.9,3.9,3.9c1,0,1.9-0.4,2.7-1l26-24.2l24.6,24.2c0.7,0.7,1.7,1.1,2.7,1.1h28.2c2.2,0,3.9-1.7,3.9-3.9
					c0-1-0.4-1.9-1.1-2.7l-51.9-55.5C-428-684.4-429.1-684.8-430.2-684.8L-430.2-684.8z"/>
			</g>
		</g>
		<g id="Group_98894_00000178906754258867811520000007348015934594220970_" transform="translate(0 0)">
			<path id="Path_115829_00000085234670103329526050000000601799852886374589_" class="st0" d="M-408.2-641.7c-0.5,0-1-0.2-1.3-0.5
				l-55.4-52.4c-0.8-0.7-0.8-2-0.1-2.8c0.4-0.4,0.9-0.6,1.4-0.6h28.2c0.5,0,1,0.2,1.4,0.6l25.9,25.5l43.3-40.7
				c0.8-0.7,2-0.7,2.8,0.1c0.3,0.4,0.5,0.8,0.5,1.3v27c0,0.5-0.2,1.1-0.6,1.4l-44.6,40.7C-407.3-641.9-407.7-641.7-408.2-641.7z"/>
			<g id="Group_98893_00000039126396144682740030000005369763149133240996_">
				<path id="Path_115830_00000145042419012922550570000007760212445143799741_" class="st0" d="M-363.6-711.3v27l-44.6,40.7
					l-55.4-52.4h28.2l27.2,26.8L-363.6-711.3 M-363.6-715.2c-1,0-1.9,0.4-2.7,1l-41.9,39.4l-24.5-24.1c-0.7-0.7-1.7-1.1-2.7-1.1
					h-28.2c-2.2,0-3.9,1.7-3.9,3.9c0,1.1,0.4,2.1,1.2,2.8l55.4,52.4c1.5,1.4,3.8,1.4,5.3,0l44.6-40.7c0.8-0.7,1.3-1.8,1.3-2.9v-27
					C-359.7-713.5-361.4-715.2-363.6-715.2L-363.6-715.2L-363.6-715.2z"/>
			</g>
		</g>
		<g id="Group_98896_00000152955391581077530070000014683307348123398808_" transform="translate(0.476 13.123)">
			<path id="Path_115831_00000088104277808663951450000012469467407800185258_" class="st1" d="M-378.3-624.3c-0.5,0-1-0.2-1.3-0.5
				l-27-25.5l-26.3,25.5c-0.4,0.4-0.8,0.6-1.4,0.6h-28.2c-1.1,0-2-0.9-1.9-2c0-0.5,0.2-1.1,0.6-1.4l55.9-52.4c0.7-0.7,1.9-0.7,2.6,0
				l28.3,25.5c0.4,0.4,0.6,0.9,0.6,1.4v27C-376.3-625.2-377.2-624.3-378.3-624.3C-378.3-624.3-378.3-624.3-378.3-624.3L-378.3-624.3
				z"/>
			<g id="Group_98895_00000050631297904461648160000012270107856827939738_">
				<path id="Path_115832_00000174562658174426055630000008046577638087355065_" class="st0" d="M-406.6-678.7l28.3,25.5v27
					l-28.3-26.8l-27.6,26.8h-28.2L-406.6-678.7 M-406.6-682.6c-1,0-1.9,0.4-2.7,1l-55.9,52.4c-1.6,1.5-1.6,3.9-0.2,5.5
					c0.7,0.8,1.8,1.2,2.8,1.2h28.2c1,0,2-0.4,2.7-1.1l25-24.2l25.6,24.2c1.6,1.5,4,1.4,5.5-0.2c0.7-0.7,1.1-1.7,1.1-2.7v-26.9
					c0-1.1-0.5-2.2-1.3-2.9l-28.3-25.5C-404.7-682.2-405.6-682.6-406.6-682.6L-406.6-682.6z"/>
			</g>
		</g>
		<g id="Group_98897_00000060006266927297464600000004143509374857813688_" transform="translate(0 0)">
			<path id="Path_115833_00000005968823519231643030000008810366409911074464_" class="st2" d="M-435.3-641.7
				c-0.5,0-0.9-0.2-1.3-0.5l-28.3-25.5c-0.4-0.4-0.6-0.9-0.6-1.4v-26.9c0-1.1,0.9-2,2-1.9c0.5,0,1,0.2,1.3,0.5l27,25.5l42.2-40.7
				c0.4-0.4,0.8-0.5,1.4-0.5h28.2c1.1,0,2,0.9,1.9,2c0,0.5-0.2,1-0.6,1.4l-71.7,67.6C-434.3-641.9-434.8-641.7-435.3-641.7z"/>
			<path id="Path_115834_00000082335446415520457470000015804822224532407976_" class="st0" d="M-363.6-711.3l-71.7,67.6l-28.3-25.5
				v-27l28.3,26.8l43.5-42L-363.6-711.3 M-363.6-715.2h-28.2c-1,0-2,0.4-2.7,1.1l-40.8,39.4l-25.6-24.2c-1.6-1.5-4-1.4-5.5,0.2
				c-0.7,0.7-1.1,1.7-1.1,2.7v27c0,1.1,0.5,2.2,1.3,2.9l28.3,25.5c1.5,1.4,3.8,1.3,5.3-0.1l71.7-67.6c1.6-1.5,1.6-3.9,0.2-5.5
				C-361.5-714.8-362.5-715.2-363.6-715.2L-363.6-715.2z"/>
		</g>
	</g>
	<g>
		<path class="st0" d="M132.1,26.7c0-14,11.3-24.5,24.6-24.5c6.9,0,12.7,2.8,16.9,7.2c0.5,0.5,0.2,0.9-0.1,1.4l-6,6.4
			c-0.3,0.5-0.9,0.5-1.4,0.1c-2.5-2.2-5.6-3.5-9.4-3.5c-7.2,0-12.7,5.4-12.7,12.9s5.5,12.8,12.7,12.8c3.7,0,6.9-1.4,9.4-3.5
			c0.4-0.3,1-0.3,1.4,0.1l6,6.4c0.3,0.3,0.6,0.8,0.1,1.3c-4.2,4.5-10,7.3-16.9,7.3C143.4,51.1,132.1,40.7,132.1,26.7z"/>
		<path class="st0" d="M179.9,49.1V2.8c0-0.6,0.5-1.1,1.1-1.1h9.2c0.6,0,1.1,0.5,1.1,1.1v19.1c1.9-3.4,4.8-5.7,9.5-5.7
			c6.9,0,12,5.2,12,13.8v19.2c0,0.6-0.5,1.1-1.2,1.1h-9.2c-0.6,0-1.1-0.5-1.1-1.1V32.8c0-4.1-1.7-6.2-5-6.2c-3.3,0-5.1,2-5.1,6.2
			v16.3c0,0.6-0.5,1.1-1.1,1.1H181C180.4,50.2,179.9,49.7,179.9,49.1z"/>
		<path class="st0" d="M218.1,33.6c0-9.8,7.4-17.4,17.6-17.4c10.1,0,17.5,7.7,17.5,17.4S245.8,51,235.6,51
			C225.5,51,218.1,43.3,218.1,33.6z M235.6,40.6c3.6,0,6.6-2.6,6.6-7s-3-7-6.6-7c-3.7,0-6.6,2.6-6.6,7S232,40.6,235.6,40.6z"/>
		<path class="st0" d="M258.2,6.1c0-3.4,2.6-6.1,6.2-6.1c3.5,0,6.2,2.7,6.2,6.1c0,3.5-2.6,6.2-6.2,6.2
			C260.7,12.3,258.2,9.6,258.2,6.1z M258.6,18c0-0.6,0.5-1.1,1.1-1.1h9.4c0.6,0,1.1,0.5,1.1,1.1v31.1c0,0.6-0.5,1.1-1.1,1.1h-9.4
			c-0.6,0-1.1-0.5-1.1-1.1V18z"/>
		<path class="st0" d="M275.5,33.4c0-9.8,7.3-17.2,17.4-17.2c5.6,0,10.2,2.4,13,6.2c0.4,0.5,0.3,1.1-0.1,1.5l-5.2,5
			c-0.5,0.5-1.4,0.5-1.8,0c-1.7-1.6-3.3-2.2-5.3-2.2c-4.5,0-7,3.1-7,6.8c0,3.7,2.5,7.2,7.2,7.2c1.8,0,3.5-0.7,5.2-2.3
			c0.5-0.5,1.4-0.4,1.8,0.1l5.2,5c0.4,0.4,0.5,1,0.1,1.5c-2.8,3.7-7.4,6.2-12.8,6.2C283,51,275.5,43.3,275.5,33.4z"/>
		<path class="st0" d="M308.5,33.4c0-9.8,6.9-17.3,17.2-17.3c10.2,0,16.1,7.4,16.1,15.9c0,3.6-0.9,5.8-4.2,5.8h-18
			c1.2,3.1,4.1,4.2,8.3,4.2c1.9,0,4.1-0.1,6.9-1.6c0.5-0.3,0.9-0.1,1.2,0.4l3.1,4.3c0.3,0.4,0.3,0.9-0.3,1.6
			c-2.8,2.8-7.1,4.1-11.8,4.1C316,51,308.5,43.7,308.5,33.4z M331.7,30.1c-0.7-3.5-3.1-4.7-5.9-4.7c-2.9,0-5.5,1.3-6.4,4.7H331.7z"
			/>
		<g id="Group_98899_00000109030527246505813140000007207079734207917202_" transform="translate(507.213 721.534)">
			<path id="Path_115835_00000139260841461106220400000016049413301516343465_" class="st0" d="M-372.7-614.8c-0.7,0-1-0.4-1-1.1
				v-45.4c0-0.7,0.3-1.1,1-1.1h24.7c0.6,0,1.1,0.5,1.1,1.1v0v8.3c0,0.6-0.5,1.1-1.1,1.1h0h-13.9l0,0v7.7l0,0h13
				c0.6,0,1.1,0.5,1.1,1.1v0v8.3c0,0.6-0.5,1.1-1.1,1.1h0h-13l0,0v17.9c0,0.6-0.5,1.1-1.1,1.1h0L-372.7-614.8z"/>
			<path id="Path_115836_00000103258423036159374070000016275936032671322273_" class="st0" d="M-330-654.6
				c-2.5,2.3-6.4,2.2-8.8-0.3c-2.2-2.4-2.2-6.1,0-8.5c2.5-2.3,6.4-2.3,8.8,0c1.2,1.1,1.8,2.7,1.8,4.4
				C-328.2-657.4-328.8-655.8-330-654.6z M-339.1-614.8c-0.6,0-1.1-0.5-1.1-1.1v0V-647c0-0.6,0.5-1.1,1.1-1.1h0h9.4
				c0.6,0,1.1,0.5,1.1,1.1v0v31.1c0,0.6-0.5,1.1-1.1,1.1h0L-339.1-614.8z"/>
			<path id="Path_115837_00000134236538914755502750000013094359006732294060_" class="st0" d="M-320.4-614.8
				c-0.6,0-1.1-0.5-1.1-1.1v0V-647c0-0.6,0.5-1.1,1.1-1.1l0,0h9c0.7,0,1,0.4,1,1.2l0.3,3.7l0,0c1.8-3.6,5.5-5.8,9.5-5.7
				c3.3-0.1,6.5,1.3,8.7,3.7c2.4,2.8,3.6,6.4,3.4,10.1v19.2c0,0.3-0.1,0.6-0.3,0.8c-0.2,0.2-0.5,0.3-0.8,0.3h-9.2
				c-0.6,0-1.1-0.5-1.1-1.1v0v-16.4c0-4.1-1.7-6.2-5-6.2c-3.4,0-5.1,2.1-5.1,6.2v16.4c0,0.6-0.5,1.1-1.1,1.1l0,0L-320.4-614.8z"/>
			<path id="Path_115838_00000179604829146333749160000016668417947284203649_" class="st0" d="M-283.1-614.8
				c-0.9,0-1.2-0.4-0.7-1.2l13.3-23l0,0l-12.6-22.1c-0.4-0.8-0.2-1.2,0.7-1.2h10.3c0.5,0,1,0.2,1.3,0.7l6.7,11.7l0,0l6.7-11.7
				c0.2-0.5,0.7-0.7,1.2-0.7h10.3c0.9,0,1.2,0.4,0.7,1.2l-12.6,22.1l0,0l13.3,23c0.4,0.8,0.2,1.2-0.7,1.2h-10.5
				c-0.5,0-1-0.2-1.3-0.7l-7.2-12.8l0,0l-7.3,12.8c-0.3,0.4-0.8,0.7-1.3,0.7H-283.1z"/>
		</g>
	</g>
</g>
</svg>
