<svg width="10" height="12" viewBox="0 0 10 12" fill="none" xmlns="http://www.w3.org/2000/svg">
<path fill-rule="evenodd" clip-rule="evenodd" d="M1.75 5V3.5C1.75 2.63805 2.09241 1.81139 2.7019 1.20191C3.31139 0.59241 4.13805 0.25 5 0.25C5.86195 0.25 6.6886 0.59241 7.2981 1.20191C7.9076 1.81139 8.25 2.63805 8.25 3.5V5H8.5C9.32845 5 10 5.67155 10 6.5V10C10 10.8285 9.32845 11.5 8.5 11.5H1.5C0.671575 11.5 0 10.8285 0 10V6.5C0 5.67155 0.671575 5 1.5 5H1.75ZM3.76256 2.26256C4.09075 1.93437 4.53585 1.75 5 1.75C5.46415 1.75 5.90925 1.93437 6.23745 2.26256C6.56565 2.59075 6.75 3.03587 6.75 3.5V5H3.25V3.5C3.25 3.03587 3.43437 2.59075 3.76256 2.26256Z" fill="#333333"/>
</svg>
