<svg width="20" height="20" viewBox="0 0 20 20" fill="none" xmlns="http://www.w3.org/2000/svg">
<g clip-path="url(#clip0_6646_40612)">
<path d="M0.423595 9.8809C0.42313 11.5613 0.8622 13.2021 1.69708 14.6483L0.34375 19.5895L5.40049 18.2636C6.79912 19.025 8.36618 19.424 9.95863 19.4241H9.96282C15.2198 19.4241 19.4991 15.1463 19.5013 9.88842C19.5024 7.34059 18.511 4.94477 16.71 3.14229C14.9092 1.33997 12.5142 0.346866 9.96243 0.345703C4.70484 0.345703 0.425843 4.62322 0.423672 9.8809" fill="url(#paint0_linear_6646_40612)"/>
<path d="M0.0829457 9.87721C0.0824031 11.6181 0.537209 13.3175 1.40186 14.8155L0 19.9339L5.23806 18.5605C6.68132 19.3474 8.30628 19.7622 9.95977 19.7629H9.96403C15.4096 19.7629 19.8426 15.3312 19.845 9.88511C19.8459 7.24574 18.8189 4.7638 16.9535 2.89674C15.0878 1.02992 12.6072 0.00108527 9.96403 0C4.51752 0 0.0851163 4.43101 0.0829457 9.87721ZM3.2024 14.5575L3.00682 14.2471C2.18465 12.9398 1.7507 11.4291 1.75132 9.87783C1.75302 5.35109 5.43705 1.66822 9.96713 1.66822C12.1609 1.66915 14.2226 2.52434 15.7733 4.07597C17.324 5.62775 18.1772 7.69054 18.1767 9.8845C18.1747 14.4112 14.4905 18.0946 9.96403 18.0946H9.96077C8.4869 18.0938 7.04139 17.698 5.78077 16.95L5.48077 16.7721L2.3724 17.5871L3.2024 14.5575Z" fill="url(#paint1_linear_6646_40612)"/>
<path d="M7.49452 5.74874C7.30956 5.33765 7.11491 5.32936 6.93902 5.32215C6.79499 5.31595 6.63034 5.31641 6.46584 5.31641C6.30119 5.31641 6.03367 5.37835 5.80755 5.62525C5.58119 5.87238 4.94336 6.46959 4.94336 7.68424C4.94336 8.89897 5.82809 10.0728 5.95142 10.2377C6.07491 10.4023 7.65941 12.9747 10.1689 13.9643C12.2544 14.7867 12.6789 14.6232 13.1315 14.5819C13.5842 14.5408 14.5923 13.9849 14.7979 13.4083C15.0037 12.8319 15.0037 12.3378 14.942 12.2346C14.8803 12.1317 14.7157 12.0699 14.4688 11.9465C14.2218 11.823 13.008 11.2257 12.7817 11.1433C12.5554 11.061 12.3908 11.0199 12.2261 11.2671C12.0615 11.5139 11.5887 12.0699 11.4446 12.2346C11.3006 12.3996 11.1565 12.4201 10.9097 12.2966C10.6627 12.1728 9.86755 11.9124 8.92421 11.0714C8.19026 10.417 7.69475 9.60882 7.55072 9.36161C7.40669 9.11479 7.5353 8.98099 7.6591 8.85796C7.77003 8.74734 7.90607 8.56967 8.02964 8.42556C8.15274 8.28137 8.19382 8.17851 8.27615 8.01386C8.35855 7.84905 8.31731 7.70486 8.25568 7.58138C8.19382 7.45789 7.71406 6.23688 7.49452 5.74874Z" fill="white"/>
</g>
<defs>
<linearGradient id="paint0_linear_6646_40612" x1="958.224" y1="1924.73" x2="958.224" y2="0.345703" gradientUnits="userSpaceOnUse">
<stop stop-color="#1FAF38"/>
<stop offset="1" stop-color="#60D669"/>
</linearGradient>
<linearGradient id="paint1_linear_6646_40612" x1="992.248" y1="1993.39" x2="992.248" y2="0" gradientUnits="userSpaceOnUse">
<stop stop-color="#F9F9F9"/>
<stop offset="1" stop-color="white"/>
</linearGradient>
<clipPath id="clip0_6646_40612">
<rect width="19.845" height="20" fill="white"/>
</clipPath>
</defs>
</svg>
