<svg width="12" height="11" viewBox="0 0 12 11" fill="none" xmlns="http://www.w3.org/2000/svg">
<path d="M1.20588 10.2008C1.04961 10.2234 0.914051 10.091 0.933507 9.93412C0.957982 9.73517 0.980575 9.55757 1.00756 9.38059C1.0948 8.81639 1.18768 8.25345 1.27993 7.68988C1.35524 7.22987 1.60816 6.86587 1.9276 6.5458C3.94339 4.52624 5.95981 2.50668 7.98063 0.491514C8.6308 -0.156778 9.45858 -0.166192 10.1081 0.477708C10.4131 0.780202 10.7244 1.09525 10.9491 1.45674C11.2698 1.97261 11.1926 2.56191 10.7683 3.00373C9.85647 3.952 8.92074 4.87643 7.99318 5.80902C6.9401 6.86838 5.87446 7.91518 4.83581 8.98835C4.30802 9.53372 3.70491 9.87638 2.94553 9.96048C2.38071 10.0232 1.8184 10.1117 1.2065 10.2008H1.20588ZM4.43102 7.97292C4.49629 7.91895 4.55466 7.87879 4.60423 7.82921C5.80292 6.63178 6.99972 5.43247 8.20091 4.23755C8.31827 4.12082 8.3509 4.0361 8.21471 3.90556C7.88649 3.58926 7.56768 3.26229 7.25138 2.93344C7.12209 2.79913 7.03235 2.80102 6.89491 2.93971C5.69874 4.14655 4.49566 5.34775 3.28882 6.54455C3.16142 6.67132 3.1564 6.74725 3.28694 6.87152C3.62521 7.19221 3.95029 7.52734 4.28228 7.85494C4.32433 7.89636 4.37454 7.92899 4.43102 7.97292ZM9.00484 3.31752C9.38202 2.97172 9.73158 2.66295 10.0655 2.33786C10.2186 2.18912 10.2261 2.00022 10.0742 1.83893C9.81819 1.56845 9.56715 1.28917 9.27972 1.05571C9.18684 0.980401 8.92639 0.970987 8.84481 1.04504C8.47893 1.37515 8.1507 1.74605 7.82687 2.08244C8.2235 2.49789 8.62829 2.92214 9.00484 3.31689V3.31752ZM2.44347 7.41061C2.11587 7.93025 2.11273 8.49633 2.03868 9.10759C2.64618 9.0122 3.22042 9.03981 3.72876 8.67707C3.29949 8.25345 2.89345 7.85431 2.44347 7.41061Z" fill="#004393"/>
</svg>
