<?xml version="1.0" encoding="UTF-8"?>
<svg id="Layer_2" data-name="Layer 2" xmlns="http://www.w3.org/2000/svg" viewBox="0 0 955.87 955.87">
  <defs>
    <style>
      .cls-1 {
        fill: #fff;
      }

      .cls-2 {
        fill: #ffce00;
      }

      .cls-2, .cls-3, .cls-4, .cls-5, .cls-6 {
        isolation: isolate;
      }

      .cls-3 {
        fill: #333940;
      }

      .cls-7, .cls-5 {
        fill: #ffa300;
      }

      .cls-4 {
        fill: #e9edf5;
      }

      .cls-6 {
        fill: #555a66;
      }
    </style>
  </defs>
  <g id="Layer_1-2" data-name="Layer 1">
    <g>
      <path class="cls-2" d="m955.87,477.93c0,263.92-214.01,477.94-477.94,477.94-6.49,0-12.99,0-19.48-.68C203.41,945.27,0,735.36,0,477.93S214.01,0,477.93,0c249.91,0,455.03,192.13,476.23,436.57,1.02,13.67,1.71,27.35,1.71,41.36Z"/>
      <polygon class="cls-5" points="551.88 100.33 403.35 169.83 501.87 285.37 628.17 254.03 667.1 214.62 551.88 100.33"/>
      <path class="cls-7" d="m955.87,477.93c0,263.92-214.01,477.94-477.94,477.94-6.49,0-12.99,0-19.48-.68l-200.34-203.07,503.58-503.57,192.47,188.03c1.02,13.67,1.71,27.35,1.71,41.36Z"/>
      <path class="cls-6" d="m470.41,765.58c-132.77-2.06-236.21-112.98-235.39-243.35.8-127.18,103.07-239.73,238.89-239.87.93,0,1.8.13,2.73.14V101.88c-21.26.09-42.56-.93-63.8-2.54-9.49-.72-12.19,1.84-12.03,9.36.32,14.3.09,28.61.09,42.91,0,20.75-.01,20.92,20.67,21.95,5.91.29,8.41,2.4,8.25,8.4-.2,7.45-.08,14.93.37,22.37.32,5.41-1.82,7.95-7.09,8.81-33.33,5.45-64.84,16.36-94.55,32.33-4.11,2.21-9,1.68-12.26-1.66-13.49-13.79-41.21-41.12-52.88-52.56-3.01-2.95-7.72-2.81-10.71.17l-54.98,54.93c-3.03,3.03-3,7.95.06,10.95l49.74,48.71c-126.43,136.3-105.73,335.14,11.88,447.37,58.7,56.01,137.37,86.4,217.26,87.07v-75.08c-2.09.02-4.12.24-6.22.21Z"/>
      <path class="cls-3" d="m708.87,306.36c2.48-2.7,4.27-4.8,6.22-6.76,14.27-14.31,28.42-28.76,42.95-42.8,4.88-4.71,5.38-7.9.14-12.77-8.74-8.12-38.67-38.73-53.69-54.16-3.57-3.66-9.16-3.72-12.85-.17-12.76,12.27-40.14,38.93-53.42,52.39-3.49,3.54-8.69,4.02-13.03,1.59-26.9-15.03-55.75-24.9-85.92-30.86-18.21-3.6-14.68-2.21-14.86-18.04-.23-20.03-.06-20.38,19.82-20.4,8.04,0,10.03-3.26,9.89-10.59-.34-18.34-.48-36.7.05-55.03.3-10.59-3.95-12.56-18.67-10.6-19.55,2.6-39.2,3.63-58.88,3.71v180.6c148.74,1.34,243.47,122.09,241.59,242.3-.04,133.17-105.86,239.43-241.59,240.58v75.08c97.03.82,195.86-42.34,262.87-138.5,22.51-32.31,38.36-69.2,46.74-107.68,23.73-108.98-4.73-204.7-77.38-287.91Z"/>
      <path class="cls-4" d="m498.71,463.34c29.35-30.37,59.48-59.99,89.51-90.09,13.38,13.43,25.84,25.95,38.94,39.11-1.64,1.77-3.78,4.24-6.08,6.54-29.87,29.9-59.67,59.88-89.77,89.56-4.61,4.54-6.33,8.97-6.23,15.42.36,24.55-17.46,44.9-41.61,48.41-2.27.33-4.55.24-6.83.17v192.92c135.73-1.15,241.55-107.42,241.59-240.58,1.88-120.22-92.86-240.97-241.59-242.3v193.01c8.4-1.93,15.55-5.41,22.07-12.15Z"/>
      <path class="cls-1" d="m235.02,522.22c-.82,130.38,102.62,241.3,235.39,243.35,2.11.03,4.13-.19,6.22-.21v-192.92c-22.51-.68-44.31-19.91-47.26-43.55-3-24.15,16.27-49.57,40.74-51.69,2.47-.21,4.31-1.21,6.51-1.72v-193.01c-.93,0-1.8-.14-2.73-.14-135.82.15-238.09,112.7-238.89,239.87Z"/>
      <path class="cls-6" d="m470.12,477.21c-24.47,2.12-43.75,27.54-40.74,51.69,2.94,23.64,24.75,42.87,47.26,43.55v-96.96c-2.21.51-4.04,1.5-6.51,1.72Z"/>
      <path class="cls-3" d="m525.08,523.87c-.1-6.45,1.63-10.88,6.23-15.42,30.1-29.68,59.89-59.66,89.77-89.56,2.3-2.3,4.44-4.76,6.08-6.54-13.1-13.16-25.57-25.68-38.94-39.11-30.03,30.1-60.15,59.72-89.51,90.09-6.52,6.74-13.67,10.22-22.07,12.15v96.96c2.28.07,4.56.16,6.83-.17,24.15-3.51,41.97-23.86,41.61-48.41Z"/>
    </g>
  </g>
</svg>