<svg xmlns="http://www.w3.org/2000/svg" xmlns:xlink="http://www.w3.org/1999/xlink" width="24" height="24" viewBox="0 0 24 24">
  <defs>
    <clipPath id="clip-path">
      <rect id="Rectangle_5839" data-name="Rectangle 5839" width="12.683" height="14" transform="translate(0 0)" fill="none"/>
    </clipPath>
  </defs>
  <g id="Group_99557" data-name="Group 99557" transform="translate(-137 -270)">
    <circle id="Ellipse_365" data-name="Ellipse 365" cx="12" cy="12" r="12" transform="translate(137 270)" fill="rgba(0,67,147,0.08)"/>
    <g id="Group_99238" data-name="Group 99238" transform="translate(142 275)">
      <g id="Group_99237" data-name="Group 99237" transform="translate(0 0)" clip-path="url(#clip-path)">
        <path id="Path_115817" data-name="Path 115817" d="M12.671,3.141a.708.708,0,0,0,.011-.126.666.666,0,0,0-.011-.119v-1.4a.7.7,0,0,0,.011-.126.669.669,0,0,0-.041-.232.684.684,0,0,0-.278-.382C11.5.036,8.989,0,8.492,0S5.483.036,4.622.752a.669.669,0,0,0-.274.369.7.7,0,0,0-.046.246.72.72,0,0,0,.011.125V2.9a.656.656,0,0,0-.011.119.724.724,0,0,0,.011.125V4.715a.831.831,0,0,0,.015.153.683.683,0,0,0-.026.184.723.723,0,0,0,.011.125v.636c-.073,0-.145-.006-.218-.006a4.1,4.1,0,1,0,3.82,5.574c.191.006.384.01.577.01,1.561,0,4.179-.193,4.179-1.488V8.33a.706.706,0,0,0,.011-.126.666.666,0,0,0-.011-.119V6.827a.706.706,0,0,0,.011-.126.667.667,0,0,0-.011-.119v-1.4a.706.706,0,0,0,.011-.126.673.673,0,0,0-.026-.184.824.824,0,0,0,.015-.153ZM7.323,9.9A3.227,3.227,0,1,1,4.1,6.677,3.231,3.231,0,0,1,7.323,9.9m4.524.005c-.032.188-1.184.614-3.355.614q-.176,0-.346,0A4.122,4.122,0,0,0,8.192,9.9V9.886l.3,0a9.513,9.513,0,0,0,3.356-.483v.461c0,.013,0,.025,0,.033ZM8.492,8.24a9.516,9.516,0,0,0,3.356-.483v.607c0,.013,0,.025,0,.033v.009c-.032.188-1.184.614-3.355.614-.135,0-.268,0-.4-.006a4.054,4.054,0,0,0-.261-.788c.267.01.5.013.66.013m3.355-1.483c-.032.188-1.184.614-3.355.614-.418,0-.828-.017-1.221-.051A4.124,4.124,0,0,0,5.69,6.133a13.241,13.241,0,0,0,2.8.286,11.067,11.067,0,0,0,3.356-.461V6.71c0,.015,0,.03,0,.039Zm0-2.079c0,.013,0,.025,0,.033v.009c-.032.188-1.184.614-3.355.614s-3.324-.426-3.355-.614c0-.01,0-.022,0-.038V4.071a9.511,9.511,0,0,0,3.356.483,9.516,9.516,0,0,0,3.356-.483Zm0-1.607c-.032.188-1.184.614-3.355.614S5.169,3.26,5.138,3.071c0-.01,0-.021,0-.038V2.272a11.056,11.056,0,0,0,3.356.461,11.065,11.065,0,0,0,3.356-.461v.752c0,.015,0,.03,0,.038ZM5.384,1.367A9.183,9.183,0,0,1,8.492.945a9.182,9.182,0,0,1,3.109.422,9.181,9.181,0,0,1-3.109.422,9.178,9.178,0,0,1-3.109-.422m6.647,5.379h0Zm0-3.686h0Z" transform="translate(0 0)" fill="#272525"/>
        <path id="Path_115818" data-name="Path 115818" d="M15.562,51.215H12.977a.565.565,0,1,0,0,1.129h2.585a.565.565,0,1,0,0-1.129" transform="translate(-10.132 -41.807)" fill="#272525"/>
      </g>
    </g>
  </g>
</svg>
