<svg width="14" height="14" viewBox="0 0 14 14" fill="none" xmlns="http://www.w3.org/2000/svg">
<mask id="mask0_7652_37812" style="mask-type:luminance" maskUnits="userSpaceOnUse" x="0" y="0" width="14" height="14">
<path d="M14 0H0V14H14V0Z" fill="white"/>
</mask>
<g mask="url(#mask0_7652_37812)">
<path d="M11.1231 14C10.4343 14 9.74482 14.0084 9.05602 14C8.25868 14.0043 7.47267 13.8111 6.76815 13.4377C6.06363 13.0643 5.4625 12.5223 5.01842 11.8601C4.98149 11.7974 4.92775 11.7464 4.86329 11.7127C4.79883 11.6791 4.72623 11.6642 4.65372 11.6697C3.42662 11.6774 2.19882 11.6746 0.971724 11.6697C0.901134 11.6755 0.830152 11.6651 0.764152 11.6394C0.698152 11.6137 0.638863 11.5733 0.590775 11.5213C0.542687 11.4693 0.507059 11.4071 0.486589 11.3393C0.466119 11.2715 0.461344 11.1999 0.472624 11.13C0.479594 11.0647 0.500592 11.0017 0.534179 10.9452C0.567767 10.8888 0.613151 10.8403 0.667224 10.8031C0.938814 10.6049 1.18476 10.3737 1.39942 10.115C1.57372 9.88887 1.57022 9.82657 1.38962 9.61097C0.891827 9.03386 0.513945 8.36339 0.278024 7.63868C0.042103 6.91397 -0.0471323 6.14954 0.0155245 5.38997C0.111186 4.09615 0.63713 2.87157 1.50955 1.91136C2.38197 0.951155 3.55067 0.310566 4.82942 0.0916726C5.76444 -0.0864924 6.72922 -0.0269962 7.63526 0.264702C8.5413 0.556401 9.35958 1.07096 10.015 1.76117C10.801 2.55119 11.3349 3.55654 11.5494 4.65007C11.5596 4.70617 11.5817 4.75941 11.6143 4.80616C11.647 4.85291 11.6893 4.89207 11.7384 4.92097C12.3593 5.31161 12.8829 5.83873 13.2694 6.46222C13.6558 7.08571 13.895 7.78913 13.9686 8.51897C14.122 9.76227 13.7828 11.0162 13.0236 12.0127C12.9772 12.061 12.9512 12.1255 12.9512 12.1926C12.9512 12.2596 12.9772 12.3241 13.0236 12.3725C13.2425 12.658 13.5019 12.9101 13.7936 13.1208C13.8465 13.1556 13.8919 13.2008 13.9271 13.2535C13.9623 13.3062 13.9866 13.3654 13.9986 13.4276C14.0105 13.4899 14.0099 13.5539 13.9967 13.6159C13.9835 13.6779 13.958 13.7366 13.9217 13.7886C13.8766 13.8576 13.8139 13.9134 13.7401 13.9503C13.6663 13.9872 13.584 14.0039 13.5017 13.9986C12.7107 13.9986 11.9204 13.9986 11.1294 13.9986M2.17572 10.6988C2.19131 10.7062 2.20777 10.7116 2.22472 10.7149C3.49522 10.7058 4.76642 10.7373 6.03692 10.6981C6.82607 10.6759 7.59673 10.4541 8.27692 10.0534C9.13263 9.56085 9.81801 8.81936 10.2418 7.92762C10.6656 7.03587 10.8077 6.03619 10.6492 5.06167C10.4804 3.93059 9.9062 2.89941 9.03362 2.16017C8.52473 1.7051 7.92345 1.36545 7.271 1.16452C6.61855 0.963589 5.93036 0.906127 5.25362 0.996073C4.05641 1.12513 2.95417 1.70807 2.17362 2.62497C1.68756 3.16485 1.33212 3.80924 1.13476 4.50836C0.937407 5.20749 0.903419 5.94262 1.03542 6.65697C1.18985 7.62289 1.64182 8.51655 2.32832 9.21337C2.44053 9.31557 2.51294 9.45419 2.53272 9.60467C2.55675 9.9165 2.47835 10.2277 2.30942 10.4909C2.26812 10.5609 2.22122 10.626 2.17292 10.7009M6.08942 11.6669C6.12232 11.7096 6.13492 11.7292 6.15102 11.7467C6.68747 12.3351 7.38921 12.7477 8.16422 12.9304C8.73175 13.0359 9.30973 13.0742 9.88622 13.0445C10.6422 13.0445 11.3987 13.0445 12.1556 13.0445C12.1927 13.0445 12.241 13.062 12.2634 13.0235C12.2858 12.985 12.2403 12.9535 12.2228 12.9227C12.2116 12.901 12.1962 12.8828 12.1829 12.8618C12.0253 12.6641 11.9426 12.417 11.9497 12.1642C11.9567 11.9114 12.053 11.6693 12.2214 11.4807C12.2305 11.4695 12.2396 11.4576 12.248 11.4457C12.6104 10.9657 12.8577 10.4089 12.9709 9.8182C13.0841 9.22753 13.0603 8.61876 12.9011 8.03877C12.7169 7.32481 12.3333 6.67802 11.7951 6.17397C11.765 6.14597 11.737 6.09207 11.6908 6.10957C11.6446 6.12707 11.667 6.18727 11.6628 6.22787C11.6411 6.40567 11.6334 6.58557 11.5998 6.76127C11.4405 7.78872 11.0064 8.754 10.3435 9.55495C9.68054 10.3559 8.8134 10.9628 7.83382 11.3113C7.27451 11.5209 6.68549 11.6404 6.08872 11.6655" fill="#333333"/>
<path d="M5.3024 6.6049C5.3024 6.4691 5.3024 6.3333 5.3024 6.1975C5.29905 6.13405 5.30873 6.07058 5.33084 6.011C5.35295 5.95143 5.38703 5.89702 5.43097 5.85111C5.4749 5.8052 5.52778 5.76878 5.58632 5.74408C5.64487 5.71939 5.70786 5.70694 5.7714 5.7075C6.01769 5.70978 6.25566 5.61849 6.43725 5.45209C6.61884 5.28569 6.73052 5.05658 6.74971 4.81102C6.76891 4.56547 6.6942 4.32178 6.54067 4.12919C6.38715 3.93659 6.16625 3.80943 5.9226 3.7734C5.7889 3.75059 5.65187 3.75677 5.52076 3.7915C5.38966 3.82624 5.26754 3.88873 5.16268 3.97474C5.05782 4.06076 4.97265 4.16829 4.91294 4.29007C4.85324 4.41185 4.82038 4.54503 4.8166 4.6806C4.81083 4.75309 4.79794 4.82484 4.7781 4.8948C4.74082 5.00062 4.66756 5.08998 4.57111 5.1473C4.47467 5.20461 4.36115 5.22624 4.25039 5.2084C4.13962 5.19057 4.03864 5.1344 3.96506 5.04971C3.89148 4.96502 3.84998 4.85717 3.8478 4.745C3.8435 4.38915 3.9374 4.039 4.11917 3.73305C4.30094 3.42709 4.56354 3.17718 4.87812 3.01077C5.19269 2.84436 5.54706 2.7679 5.90226 2.7898C6.25746 2.8117 6.59975 2.93111 6.8915 3.1349C7.18325 3.33869 7.41317 3.61897 7.55598 3.94494C7.69879 4.2709 7.74896 4.62993 7.70099 4.98256C7.65301 5.33519 7.50874 5.66777 7.28403 5.94373C7.05933 6.21969 6.76289 6.42836 6.4273 6.5468C6.2929 6.5937 6.2369 6.6553 6.2537 6.7946C6.25976 6.87686 6.25976 6.95945 6.2537 7.0417C6.25615 7.1057 6.24567 7.16954 6.22287 7.22939C6.20007 7.28924 6.16543 7.34387 6.12102 7.39002C6.07661 7.43617 6.02335 7.47288 5.96441 7.49795C5.90548 7.52303 5.84209 7.53595 5.77805 7.53595C5.714 7.53595 5.65061 7.52303 5.59168 7.49795C5.53275 7.47288 5.47948 7.43617 5.43507 7.39002C5.39066 7.34387 5.35602 7.28924 5.33322 7.22939C5.31043 7.16954 5.29994 7.1057 5.3024 7.0417C5.3024 6.8961 5.3024 6.7512 5.3024 6.6049Z" fill="#333333"/>
<path d="M6.25241 8.60925C6.24956 8.73634 6.19786 8.85744 6.10804 8.94739C6.01822 9.03734 5.89719 9.08922 5.77011 9.09225C5.6432 9.08704 5.52294 9.0341 5.43339 8.94403C5.34383 8.85396 5.29159 8.73339 5.28711 8.60645C5.28983 8.47917 5.34199 8.35794 5.43253 8.26844C5.52308 8.17894 5.6449 8.1282 5.77221 8.12695C5.89947 8.12805 6.02118 8.17919 6.11104 8.26931C6.2009 8.35943 6.25168 8.48199 6.25241 8.60925Z" fill="#333333"/>
</g>
</svg>
