<?xml version="1.0" encoding="UTF-8"?>
<svg id="Layer_1" data-name="Layer 1" xmlns="http://www.w3.org/2000/svg" viewBox="0 0 24 24">
  <path d="M12.84,24h-1.69c-.15-.02-.29-.04-.44-.06-2.1-.24-4.05-.94-5.74-2.21C1.31,18.97-.33,15.28.05,10.72c.18-2.1.92-4.03,2.19-5.72C5,1.32,8.69-.33,13.27.05c2.07.17,3.96.91,5.65,2.13,2.66,1.92,4.31,4.49,4.9,7.72.08.41.12.83.18,1.25v1.69c-.04.28-.07.55-.11.83-.32,2.18-1.15,4.14-2.54,5.85-1.88,2.31-4.29,3.75-7.22,4.29-.43.08-.86.13-1.29.19ZM22.12,11.99c0-5.58-4.53-10.12-10.12-10.13-5.58-.01-10.14,4.55-10.14,10.13,0,5.58,4.53,10.12,10.12,10.13,5.58.01,10.15-4.55,10.14-10.13Z" fill="#1b478f" stroke-width="0"/>
  <g>
    <path d="M13.14,14.24c0,1.2,0,2.39,0,3.59,0,.72-.47,1.21-1.15,1.21-.66,0-1.13-.5-1.13-1.2,0-2.4,0-4.8,0-7.2,0-.7.49-1.23,1.15-1.22.65,0,1.13.52,1.13,1.21,0,1.21,0,2.41,0,3.62Z" fill="#1b478f" stroke-width="0"/>
    <path d="M13.54,6.49c0,.85-.68,1.54-1.52,1.55-.86,0-1.55-.69-1.55-1.55,0-.85.68-1.53,1.54-1.53.86,0,1.53.67,1.54,1.53Z" fill="#1b478f" stroke-width="0"/>
  </g>
</svg>