<svg width="38" height="40" viewBox="0 0 38 40" fill="none" xmlns="http://www.w3.org/2000/svg">
<g clip-path="url(#clip0_19991_50398)">
<path d="M16.6527 39.4889C16.393 39.4889 16.1333 39.4213 15.9008 39.2864C6.06143 33.5785 2.32361 25.3965 0.920761 19.5375C-0.595649 13.2044 0.209776 8.24601 0.244742 8.03792C0.328423 7.54071 0.65657 7.11884 1.11771 6.91523C1.26744 6.84915 4.85225 5.28545 10.466 4.49703C15.6342 3.77139 23.5862 3.59708 32.1204 6.88772C32.5917 7.0695 32.9399 7.47672 33.0466 7.97065C33.1533 8.46457 33.0039 8.97913 32.6494 9.33941L16.8834 25.3576C16.6031 25.6425 16.2205 25.8034 15.821 25.8052H15.8153C15.4178 25.8052 15.0365 25.6473 14.7552 25.366L9.69377 20.3023C9.1083 19.7166 9.1083 18.767 9.69377 18.1813C10.2792 17.5956 11.2284 17.5956 11.8139 18.1813L15.8072 22.1764L28.8566 8.91843C16.6883 5.04686 6.01571 8.30222 3.10632 9.35824C2.96227 10.9363 2.80895 14.6201 3.86512 18.9545C5.65977 26.3197 9.96035 32.132 16.653 36.2431C26.4583 30.2149 29.3892 21.5111 30.1073 15.1959C30.2009 14.3728 30.9429 13.7808 31.7663 13.8753C32.5891 13.9689 33.1799 14.7119 33.0863 15.535C32.2723 22.6924 28.8913 32.6229 17.4055 39.2867C17.173 39.4216 16.9133 39.4892 16.6536 39.4892L16.6527 39.4889Z" fill="#E0E0E0"/>
<path d="M20.7149 35.4267C20.4552 35.4267 20.1955 35.3591 19.963 35.2242C10.1236 29.516 6.38611 21.334 4.98326 15.475C3.46685 9.1419 4.27228 4.18351 4.30724 3.97542C4.39092 3.47821 4.71907 3.05634 5.18021 2.85273C5.32994 2.78665 8.91475 1.22295 14.5285 0.434528C19.6967 -0.291111 27.6487 -0.46542 36.1829 2.82522C36.6542 3.007 37.0024 3.41422 37.1091 3.90815C37.2158 4.40207 37.0664 4.91663 36.7119 5.27691L20.9459 21.2951C20.6656 21.58 20.283 21.7409 19.8835 21.7427H19.8778C19.4803 21.7427 19.099 21.5848 18.8177 21.3035L13.756 16.2395C13.1705 15.6538 13.1705 14.7042 13.756 14.1185C14.3414 13.5328 15.2906 13.5328 15.8761 14.1185L19.8694 18.1136L32.9188 4.85563C20.7505 0.984064 10.0779 4.23942 7.16852 5.29544C7.02447 6.87349 6.87115 10.5573 7.92732 14.8917C9.72197 22.2569 14.0225 28.0692 20.7152 32.1803C30.5205 26.1521 33.4514 17.4483 34.1695 11.1331C34.2631 10.31 35.0051 9.71804 35.8285 9.81252C36.6513 9.90611 37.2421 10.6491 37.1486 11.4722C36.3345 18.6296 32.9535 28.5601 21.4677 35.2239C21.2352 35.3588 20.9752 35.4264 20.7158 35.4264L20.7149 35.4267Z" fill="#E6E6E6"/>
<path d="M20.7149 35.4267C20.4552 35.4267 20.1955 35.3591 19.963 35.2242C10.1236 29.516 6.38611 21.334 4.98326 15.475C3.46685 9.1419 4.27228 4.18351 4.30724 3.97542C4.39092 3.47821 4.71907 3.05634 5.18021 2.85273C5.32994 2.78665 8.91475 1.22295 14.5285 0.434528C19.6967 -0.291111 27.6487 -0.46542 36.1829 2.82522C36.6542 3.007 37.0024 3.41422 37.1091 3.90815C37.2158 4.40207 37.0664 4.91663 36.7119 5.27691L20.9459 21.2951C20.6656 21.58 20.283 21.7409 19.8835 21.7427H19.8778C19.4803 21.7427 19.099 21.5848 18.8177 21.3035L13.756 16.2395C13.1705 15.6538 13.1705 14.7042 13.756 14.1185C14.3414 13.5328 15.2906 13.5328 15.8761 14.1185L19.8694 18.1136L32.9188 4.85563C20.7505 0.984064 10.0779 4.23942 7.16852 5.29544C7.02447 6.87349 6.87115 10.5573 7.92732 14.8917C9.72197 22.2569 14.0225 28.0692 20.7152 32.1803C30.5205 26.1521 33.4514 17.4483 34.1695 11.1331C34.2631 10.31 35.0051 9.71804 35.8285 9.81252C36.6513 9.90611 37.2421 10.6491 37.1486 11.4722C36.3345 18.6296 32.9535 28.5601 21.4677 35.2239C21.2352 35.3588 20.9752 35.4264 20.7158 35.4264L20.7149 35.4267Z" fill="url(#paint0_linear_19991_50398)"/>
</g>
<defs>
<linearGradient id="paint0_linear_19991_50398" x1="11.0238" y1="24.3761" x2="27.3783" y2="2.16452" gradientUnits="userSpaceOnUse">
<stop stop-color="#428FEB"/>
<stop offset="0.27" stop-color="#71A1DB"/>
<stop offset="0.83" stop-color="#91B6E3"/>
<stop offset="1" stop-color="#9CC9FF"/>
</linearGradient>
<clipPath id="clip0_19991_50398">
<rect width="37.1556" height="39.4883" fill="white"/>
</clipPath>
</defs>
</svg>
