<svg width="24" height="24" viewBox="0 0 24 24" fill="none" xmlns="http://www.w3.org/2000/svg">
<g clip-path="url(#clip0_5569_45186)">
<path d="M12 24C18.6274 24 24 18.6274 24 12C24 5.37258 18.6274 0 12 0C5.37258 0 0 5.37258 0 12C0 18.6274 5.37258 24 12 24Z" fill="#F6B900"/>
<path d="M11.9519 16.1111C11.7651 16.1107 11.5824 16.1657 11.4269 16.2692C11.2714 16.3727 11.15 16.52 11.0783 16.6924C11.0065 16.8649 10.9876 17.0548 11.0238 17.238C11.06 17.4213 11.1497 17.5897 11.2816 17.7219C11.4136 17.8541 11.5818 17.9442 11.765 17.9808C11.9481 18.0174 12.138 17.9988 12.3106 17.9274C12.4833 17.856 12.6308 17.735 12.7346 17.5798C12.8384 17.4245 12.8939 17.2419 12.8939 17.0551C12.8939 16.8051 12.7947 16.5653 12.6181 16.3883C12.4415 16.2113 12.2019 16.1116 11.9519 16.1111ZM11.9519 17.6241C11.8392 17.6245 11.729 17.5914 11.6352 17.5292C11.5414 17.4669 11.4681 17.3782 11.4247 17.2742C11.3814 17.1703 11.3698 17.0558 11.3915 16.9453C11.4133 16.8348 11.4673 16.7332 11.5468 16.6535C11.6263 16.5737 11.7277 16.5193 11.8381 16.4972C11.9485 16.4751 12.0631 16.4862 12.1671 16.5292C12.2712 16.5722 12.3602 16.6451 12.4228 16.7388C12.4854 16.8324 12.5189 16.9425 12.5189 17.0551C12.519 17.1297 12.5044 17.2036 12.476 17.2725C12.4476 17.3415 12.4059 17.4042 12.3532 17.457C12.3006 17.5099 12.238 17.5518 12.1691 17.5805C12.1003 17.6091 12.0265 17.624 11.9519 17.6241Z" fill="#444444" stroke="#444444" stroke-width="0.5"/>
<path d="M11.9522 9.26904C11.6606 9.26152 11.378 9.37012 11.1664 9.57097C10.9549 9.77181 10.8318 10.0484 10.8242 10.34L11.0702 14.487C11.081 14.7017 11.1734 14.9042 11.3285 15.0531C11.4836 15.2019 11.6897 15.2859 11.9046 15.2878C12.1196 15.2897 12.3272 15.2094 12.4849 15.0634C12.6427 14.9173 12.7386 14.7165 12.7532 14.502L13.0782 10.329C13.0678 10.0397 12.9437 9.76621 12.7329 9.56778C12.5221 9.36935 12.2416 9.26201 11.9522 9.26904ZM12.3792 14.486C12.3672 14.6021 12.3122 14.7095 12.225 14.7871C12.1379 14.8648 12.0249 14.907 11.9082 14.9056C11.7915 14.9043 11.6795 14.8593 11.5943 14.7797C11.509 14.7 11.4565 14.5914 11.4472 14.475L11.2002 10.329C11.2215 10.1462 11.3087 9.97736 11.4456 9.85424C11.5824 9.73112 11.7595 9.66218 11.9436 9.66034C12.1277 9.6585 12.3061 9.72389 12.4454 9.84424C12.5847 9.9646 12.6753 10.1316 12.7002 10.314L12.3792 14.486Z" fill="#444444" stroke="#444444" stroke-width="0.5"/>
<path d="M6.35034 17.273H9.67334C9.7232 17.273 9.77102 17.2532 9.80628 17.2179C9.84154 17.1827 9.86134 17.1349 9.86134 17.085C9.86134 17.0352 9.84154 16.9873 9.80628 16.9521C9.77102 16.9168 9.7232 16.897 9.67334 16.897H6.35034C6.17494 16.8989 6.00238 16.8526 5.85146 16.7632C5.70053 16.6738 5.57701 16.5447 5.49434 16.39C5.41108 16.2396 5.37068 16.0693 5.37756 15.8976C5.38443 15.7258 5.43832 15.5592 5.53334 15.416L11.1333 6.81601C11.2224 6.68068 11.3437 6.56958 11.4863 6.49271C11.6289 6.41584 11.7883 6.37559 11.9503 6.37559C12.1123 6.37559 12.2718 6.41584 12.4144 6.49271C12.557 6.56958 12.6783 6.68068 12.7673 6.81601L18.3673 15.416C18.4624 15.5592 18.5163 15.7258 18.5231 15.8976C18.53 16.0693 18.4896 16.2396 18.4063 16.39C18.3237 16.5447 18.2002 16.6738 18.0492 16.7632C17.8983 16.8526 17.7257 16.8989 17.5503 16.897H14.2323C14.1825 16.897 14.1347 16.9168 14.0994 16.9521C14.0642 16.9873 14.0443 17.0352 14.0443 17.085C14.0443 17.1349 14.0642 17.1827 14.0994 17.2179C14.1347 17.2532 14.1825 17.273 14.2323 17.273H17.5553C17.7983 17.2759 18.0373 17.2121 18.2466 17.0887C18.4558 16.9653 18.6273 16.787 18.7423 16.573C18.8582 16.3632 18.9143 16.1257 18.9046 15.8863C18.8949 15.6469 18.8197 15.4147 18.6873 15.215L13.0873 6.61501C12.9641 6.42727 12.7962 6.27312 12.5986 6.16644C12.4009 6.05976 12.1799 6.00391 11.9553 6.00391C11.7308 6.00391 11.5097 6.05976 11.3121 6.16644C11.1145 6.27312 10.9466 6.42727 10.8233 6.61501L5.22334 15.215C5.09084 15.4147 5.01565 15.6469 5.00596 15.8863C4.99626 16.1258 5.05243 16.3633 5.16834 16.573C5.283 16.7862 5.45368 16.9641 5.66197 17.0874C5.87026 17.2108 6.10827 17.275 6.35034 17.273Z" fill="#444444" stroke="#444444" stroke-width="0.5"/>
</g>
<defs>
<clipPath id="clip0_5569_45186">
<rect width="24" height="24" fill="white"/>
</clipPath>
</defs>
</svg>
