<?xml version="1.0" standalone="no"?>
<!DOCTYPE svg PUBLIC "-//W3C//DTD SVG 1.1//EN" "http://www.w3.org/Graphics/SVG/1.1/DTD/svg11.dtd" >
<svg xmlns="http://www.w3.org/2000/svg" xmlns:xlink="http://www.w3.org/1999/xlink" version="1.1">
<metadata>
Created by FontForge 20190801 at Sat Jun  1 21:33:22 2019
 By www-data
Copyright (c) 2019 by Indian Type Foundry. All rights reserved.
</metadata>
<defs>
<font id="PassengerSansBold" horiz-adv-x="258" >
  <font-face 
    font-family="PassengerSansBold"
    font-weight="600"
    font-stretch="normal"
    units-per-em="1000"
    panose-1="0 0 7 0 0 0 0 0 0 0"
    ascent="750"
    descent="-250"
    x-height="513"
    cap-height="670"
    bbox="-307 -241 1263 912"
    underline-thickness="50"
    underline-position="-100"
    unicode-range="U+0020-FB02"
  />
<missing-glyph horiz-adv-x="0" 
 />
    <glyph glyph-name="fi" unicode="fi" horiz-adv-x="603" 
d="M546 513v-513h-144v396h-174v-396h-144v396h-64v117h64v47q0 170 174 170q46 0 81 -9v-120q-24 8 -50 8q-61 0 -61 -60v-36h318zM400 720h147v-138h-147v138z" />
    <glyph glyph-name="fl" unicode="fl" horiz-adv-x="603" 
d="M84 396h-64v117h64v47q0 170 174 170q42 0 77 -8v-117q-26 8 -46 8q-61 0 -61 -64v-36h101v-117h-101v-396h-144v396zM402 720h144v-720h-144v720z" />
    <glyph glyph-name=".notdef" horiz-adv-x="0" 
 />
    <glyph glyph-name=".null" horiz-adv-x="0" 
 />
    <glyph glyph-name="nonmarkingreturn" horiz-adv-x="333" 
 />
    <glyph glyph-name="space" unicode=" " horiz-adv-x="215" 
 />
    <glyph glyph-name="exclam" unicode="!" horiz-adv-x="271" 
d="M58 670h155l-16 -475h-124zM61 140h148v-140h-148v140z" />
    <glyph glyph-name="quotedbl" unicode="&#x22;" horiz-adv-x="411" 
d="M49 590v80h124v-80l-12 -176h-100zM238 590v80h124v-80l-12 -176h-100z" />
    <glyph glyph-name="numbersign" unicode="#" horiz-adv-x="721" 
d="M658 401h-115l-34 -130h114l-26 -110h-116l-41 -161h-109l41 161h-114l-41 -161h-110l41 161h-113l26 110h115l34 130h-114l29 110h113l41 160h110l-41 -160h114l41 160h109l-41 -160h115zM400 271l34 130h-114l-34 -130h114z" />
    <glyph glyph-name="dollar" unicode="$" horiz-adv-x="609" 
d="M572 202q0 -98 -69 -155t-191 -59l-9 -99h-78l9 104q-98 16 -150 74.5t-47 152.5h149q-3 -79 59 -104l14 163q-101 19 -157 64.5t-56 135.5q0 97 69.5 149t178.5 54l8 88h79l-8 -95q88 -16 139 -71.5t47 -142.5h-147q2 67 -50 90l-14 -155q114 -21 169 -63.5t55 -130.5z
M194 489q0 -30 18 -47t59 -29l13 151q-42 -3 -66 -23.5t-24 -51.5zM322 106q99 6 99 80q0 31 -19 48t-66 29z" />
    <glyph glyph-name="percent" unicode="%" horiz-adv-x="893" 
d="M27 485q0 88 48.5 141.5t129.5 53.5t129.5 -53.5t48.5 -141.5q0 -92 -48.5 -148.5t-129.5 -56.5t-129.5 56.5t-48.5 148.5zM604 670h115l-428 -670h-115zM276 483q0 45 -19.5 72.5t-51.5 27.5t-51 -27t-19 -73q0 -48 19 -77t51 -29t51.5 29t19.5 77zM510 194
q0 88 48.5 142t129.5 54t129.5 -54t48.5 -142q0 -92 -48.5 -148t-129.5 -56t-129.5 56t-48.5 148zM759 192q0 46 -19.5 73.5t-51.5 27.5t-51 -27.5t-19 -73.5q0 -47 19 -76t51 -29t51.5 29t19.5 76z" />
    <glyph glyph-name="ampersand" unicode="&#x26;" horiz-adv-x="747" 
d="M674 305q-48 0 -75.5 -30t-53.5 -93q65 -62 132 -62q25 0 48 9v-130q-34 -10 -60 -10q-66 0 -109.5 19.5t-94.5 61.5q-68 -82 -207 -82q-104 0 -166.5 47.5t-62.5 126.5q0 133 154 197q-62 82 -62 150q0 71 62.5 122t163.5 51q91 0 145.5 -45.5t54.5 -110.5
q0 -64 -37 -106.5t-118 -81.5q20 -22 74 -78q43 91 90.5 133t126.5 42q27 0 47 -6v-130q-22 6 -52 6zM341 569q-35 0 -55 -16.5t-20 -43.5q0 -35 52 -96q88 40 88 95q0 28 -18 44.5t-47 16.5zM275 103q61 0 102 43q-64 61 -131 134q-37 -20 -52 -42.5t-15 -54.5
q0 -38 27 -59t69 -21z" />
    <glyph glyph-name="quotesingle" unicode="'" horiz-adv-x="222" 
d="M49 590v80h124v-80l-12 -176h-100z" />
    <glyph glyph-name="parenleft" unicode="(" horiz-adv-x="328" 
d="M50 291q0 259 147 509h120q-69 -140 -104.5 -255.5t-35.5 -253.5t35.5 -254t104.5 -257h-120q-147 250 -147 511z" />
    <glyph glyph-name="parenright" unicode=")" horiz-adv-x="328" 
d="M150 289q0 139 -35 255t-104 256h119q148 -248 148 -511q0 -261 -148 -509h-119q69 141 104 256.5t35 252.5z" />
    <glyph glyph-name="asterisk" unicode="*" horiz-adv-x="463" 
d="M60 380l30 41l82 75l-2 4l-107 11l-49 16l35 106l48 -15l96 -56l5 4l-24 107l1 50h112v-50l-23 -110l4 -3l98 57l49 16l34 -108l-47 -15l-116 -11l-1 -5l82 -73l30 -40l-91 -66l-30 41l-45 99h-6l-44 -100l-31 -40z" />
    <glyph glyph-name="plus" unicode="+" horiz-adv-x="530" 
d="M476 376v-102h-158v-167h-105v167h-158v102h158v166h105v-166h158z" />
    <glyph glyph-name="comma" unicode="," horiz-adv-x="247" 
d="M197 140l1 -123l-62 -142h-74l43 125h-56v140h148z" />
    <glyph glyph-name="hyphen" unicode="-" horiz-adv-x="321" 
d="M40 339h241v-122h-241v122z" />
    <glyph glyph-name="period" unicode="." horiz-adv-x="246" 
d="M49 140h148v-140h-148v140z" />
    <glyph glyph-name="slash" unicode="/" horiz-adv-x="420" 
d="M311 759h123l-337 -850h-123z" />
    <glyph glyph-name="zero" unicode="0" horiz-adv-x="635" 
d="M37 333q0 155 76 252t206 97q131 0 205 -94t74 -250q0 -155 -76 -252.5t-206 -97.5q-131 0 -205 94.5t-74 250.5zM445 337q0 100 -32 161t-95 61t-95.5 -62t-32.5 -163q0 -100 32.5 -161.5t95.5 -61.5t95 62.5t32 163.5z" />
    <glyph glyph-name="one" unicode="1" horiz-adv-x="385" 
d="M305 0h-149v521q-51 -45 -140 -55v129q91 13 145 75h144v-670z" />
    <glyph glyph-name="two" unicode="2" horiz-adv-x="577" 
d="M33 26q1 100 54 171.5t182 137.5q69 39 93.5 66t24.5 71q0 41 -24.5 64.5t-67.5 23.5q-49 0 -76 -27t-27 -79q0 -14 1 -22h-148q-1 8 -1 25q0 104 68 164.5t185 60.5t179.5 -53.5t62.5 -147.5q0 -75 -42.5 -126t-146.5 -105q-58 -31 -82 -45.5t-44 -34t-26 -40.5h340
v-130h-505v26z" />
    <glyph glyph-name="three" unicode="3" horiz-adv-x="590" 
d="M33 215h144q2 -50 31 -78t81 -28q50 0 80 25.5t30 69.5q0 43 -31 60.5t-96 17.5h-60v111h58q117 0 117 82q0 39 -24.5 62.5t-71.5 23.5t-74.5 -25t-27.5 -69q0 -8 1 -16h-141q-1 10 -1 19q0 95 67.5 153.5t180.5 58.5q114 0 176 -50t62 -135q0 -64 -33 -103t-91 -50v-3
q67 -8 103 -47.5t36 -105.5q0 -91 -70 -145.5t-187 -54.5q-132 0 -195.5 61t-63.5 166z" />
    <glyph glyph-name="four" unicode="4" horiz-adv-x="600" 
d="M343 128h-321v123l305 419h159v-419h95v-123h-95v-128h-143v128zM207 251h136v199l1 41h-3q-11 -19 -26 -38l-112 -154q-18 -25 -35 -46v-3q6 0 18 0.5t21 0.5z" />
    <glyph glyph-name="five" unicode="5" horiz-adv-x="582" 
d="M38 202h142q13 -93 104 -93q48 0 78.5 30t30.5 84q0 50 -27.5 77t-75.5 27q-66 0 -104 -53l-131 12l25 384h420l-7 -130h-291l-14 -151q53 56 136 56q99 0 160 -60t61 -159q0 -108 -72.5 -173t-189.5 -65q-118 0 -181 60.5t-64 153.5z" />
    <glyph glyph-name="six" unicode="6" horiz-adv-x="607" 
d="M356 428q93 0 154.5 -55t61.5 -150q0 -105 -73 -170t-185 -65q-126 0 -202 92t-76 250q0 155 79 253.5t208 98.5q106 0 168 -57t64 -149h-143q-8 41 -30 62t-65 21q-61 0 -95 -54.5t-35 -153.5q65 77 169 77zM318 110q44 0 73 28.5t29 75.5q0 42 -28 66t-75 24
q-72 0 -123 -72q24 -122 124 -122z" />
    <glyph glyph-name="seven" unicode="7" horiz-adv-x="529" 
d="M506 670v-119q-107 -128 -159.5 -255.5t-51.5 -295.5h-144q-1 285 195 542h-327l1 128h486z" />
    <glyph glyph-name="eight" unicode="8" horiz-adv-x="598" 
d="M33 180q0 65 32 108t94 58v3q-49 16 -76.5 54.5t-27.5 94.5q0 78 65.5 131t179.5 53q116 0 179.5 -52.5t63.5 -130.5q0 -54 -29 -94.5t-79 -54.5v-3q130 -32 130 -163q0 -88 -70.5 -142t-196.5 -54q-125 0 -195 53t-70 139zM403 489q0 39 -29 62.5t-74 23.5
q-47 0 -76 -23.5t-29 -62.5q0 -41 28.5 -64.5t76.5 -23.5q45 0 74 24.5t29 63.5zM420 198q0 44 -33 71t-89 27q-54 0 -87 -27t-33 -71q0 -42 33.5 -68.5t87.5 -26.5q55 0 88 26t33 69z" />
    <glyph glyph-name="nine" unicode="9" horiz-adv-x="605" 
d="M291 682q126 0 202 -92t76 -250q0 -155 -79 -253.5t-208 -98.5q-106 0 -168 57t-64 149h143q8 -41 30 -62t65 -21q61 0 95 54.5t35 153.5q-65 -77 -169 -77q-93 0 -154.5 55t-61.5 150q0 105 73 170t185 65zM288 366q72 0 123 72q-24 122 -124 122q-44 0 -73 -28.5
t-29 -75.5q0 -42 28 -66t75 -24z" />
    <glyph glyph-name="colon" unicode=":" horiz-adv-x="254" 
d="M53 484h148v-140h-148v140zM53 140h148v-140h-148v140z" />
    <glyph glyph-name="semicolon" unicode=";" horiz-adv-x="255" 
d="M201 484v-140h-148v140h148zM201 140l1 -123l-62 -142h-74l43 125h-56v140h148z" />
    <glyph glyph-name="less" unicode="&#x3c;" horiz-adv-x="530" 
d="M61 256v116l406 173v-117l-269 -113l269 -114v-119z" />
    <glyph glyph-name="equal" unicode="=" horiz-adv-x="530" 
d="M55 481h421v-102h-421v102zM55 268h421v-102h-421v102z" />
    <glyph glyph-name="greater" unicode="&#x3e;" horiz-adv-x="530" 
d="M63 199l270 113l-270 114v119l406 -175v-116l-406 -172v117z" />
    <glyph glyph-name="question" unicode="?" horiz-adv-x="557" 
d="M283 681q110 0 175 -55.5t65 -149.5q0 -84 -50.5 -138.5t-136.5 -69.5l-5 -73h-124l-9 162h38q68 1 103.5 31.5t35.5 80.5q0 41 -25.5 65.5t-70.5 24.5q-52 0 -79.5 -30.5t-23.5 -82.5h-145q-9 106 62 170.5t190 64.5zM193 0v140h148v-140h-148z" />
    <glyph glyph-name="at" unicode="@" horiz-adv-x="894" 
d="M39 219q0 197 135 329t323 132q159 0 259.5 -95t100.5 -246q0 -132 -66 -214t-159 -82q-53 0 -81 24t-28 70h-2q-44 -94 -130 -94q-65 0 -112 46.5t-47 136.5q0 105 59 176.5t148 71.5q46 0 74.5 -25t33.5 -57h3l15 72h103l-42 -278q-9 -62 29 -62q40 0 78 59.5t38 155.5
q0 121 -76 193.5t-204 72.5q-149 0 -256 -111.5t-107 -269.5q0 -147 82.5 -225.5t227.5 -78.5q63 0 124 16t97 40v-79q-83 -53 -233 -53q-169 0 -278 100.5t-109 274.5zM522 280q6 97 -68 97q-41 0 -69.5 -40.5t-28.5 -96.5q0 -52 20.5 -76t51.5 -24q33 0 61.5 38.5
t32.5 101.5z" />
    <glyph glyph-name="A" unicode="A" horiz-adv-x="666" 
d="M501 0l-48 139h-245l-48 -139h-150l242 670h164l240 -670h-155zM244 245h173l-54 157q-24 69 -31 96h-3q-6 -22 -31 -97z" />
    <glyph glyph-name="B" unicode="B" horiz-adv-x="633" 
d="M453 345q141 -27 141 -157q0 -89 -63 -138.5t-172 -49.5h-291v670h290q109 0 165.5 -45t56.5 -128q0 -117 -127 -148v-4zM337 553h-120v-156h120q42 0 67.5 22.5t25.5 59.5q0 74 -93 74zM343 117q45 0 71.5 23t26.5 63q0 39 -26.5 59.5t-71.5 20.5h-126v-166h126z" />
    <glyph glyph-name="C" unicode="C" horiz-adv-x="679" 
d="M38 332q0 153 85.5 251.5t227.5 98.5q132 0 210 -79.5t82 -195.5h-149q-5 62 -40.5 104.5t-101.5 42.5q-73 0 -117 -62.5t-44 -159.5q0 -99 41.5 -157.5t117.5 -58.5q120 0 145 149h148q-9 -121 -86 -199t-206 -78q-149 0 -231 93t-82 251z" />
    <glyph glyph-name="D" unicode="D" horiz-adv-x="689" 
d="M68 670h259q153 0 238 -92.5t85 -236.5q0 -149 -87.5 -245t-241.5 -96h-253v670zM312 128q93 0 139.5 57.5t46.5 153.5q0 91 -46.5 147t-140.5 56h-94v-414h95z" />
    <glyph glyph-name="E" unicode="E" horiz-adv-x="569" 
d="M530 541h-313v-140h278v-125h-278v-147h313v-129h-462v670h462v-129z" />
    <glyph glyph-name="F" unicode="F" horiz-adv-x="546" 
d="M520 541h-303v-167h270v-125h-270v-249h-149v670h452v-129z" />
    <glyph glyph-name="G" unicode="G" horiz-adv-x="715" 
d="M376 356h280v-356h-112l-8 116q-53 -128 -196 -128q-134 0 -218 95t-84 250q0 152 89 250.5t232 98.5q132 0 210.5 -72.5t85.5 -178.5h-148q-6 56 -42.5 89.5t-101.5 33.5q-79 0 -126 -61.5t-47 -160.5q0 -98 46 -157t129 -59q66 0 107 35.5t49 88.5h-145v116z" />
    <glyph glyph-name="H" unicode="H" horiz-adv-x="693" 
d="M68 670h149v-263h259v263h149v-670h-149v278h-259v-278h-149v670z" />
    <glyph glyph-name="I" unicode="I" horiz-adv-x="285" 
d="M68 670h149v-670h-149v670z" />
    <glyph glyph-name="J" unicode="J" horiz-adv-x="572" 
d="M30 254h142q-11 -141 91 -141q96 0 96 121v307h-237v129h386v-442q0 -113 -62.5 -176.5t-177.5 -63.5q-116 0 -182.5 61.5t-55.5 204.5z" />
    <glyph glyph-name="K" unicode="K" horiz-adv-x="672" 
d="M489 0l-177 282l-95 -114v-168h-149v670h149v-313h4q21 29 59 74l196 239h168l-227 -281l247 -389h-175z" />
    <glyph glyph-name="L" unicode="L" horiz-adv-x="522" 
d="M217 130h285v-130h-434v670h149v-540z" />
    <glyph glyph-name="M" unicode="M" horiz-adv-x="870" 
d="M245 379q-16 47 -33 110h-4v-489h-140v670h213l117 -354q25 -75 37 -123h3q12 44 38 124l114 353h212v-670h-140v489h-4q-19 -70 -35 -116l-125 -373h-127z" />
    <glyph glyph-name="N" unicode="N" horiz-adv-x="689" 
d="M68 670h147l264 -415h3v415h139v-670h-147l-264 423h-3v-423h-139v670z" />
    <glyph glyph-name="O" unicode="O" horiz-adv-x="705" 
d="M38 332q0 156 85.5 253t230.5 97q143 0 228 -96.5t85 -247.5q0 -157 -85.5 -253.5t-230.5 -96.5q-143 0 -228 97t-85 247zM514 335q0 97 -42.5 158t-117.5 61q-77 0 -120 -61.5t-43 -157.5t43 -157.5t118 -61.5q76 0 119 61.5t43 157.5z" />
    <glyph glyph-name="P" unicode="P" horiz-adv-x="611" 
d="M68 670h263q111 0 179 -62.5t68 -165.5q0 -114 -69.5 -176t-188.5 -62h-103v-204h-149v670zM317 333q50 0 79 28.5t29 76.5t-28 75.5t-79 27.5h-101v-208h100z" />
    <glyph glyph-name="Q" unicode="Q" horiz-adv-x="705" 
d="M504 24q21 -43 91 -43q28 0 50 8v-118q-24 -11 -77 -11q-160 0 -203 128h-14q-143 0 -228 97t-85 247q0 156 85.5 253t230.5 97q143 0 228 -96.5t85 -247.5q0 -109 -42.5 -191t-120.5 -123zM191 335q0 -96 43 -157.5t118 -61.5q76 0 119 61.5t43 157.5q0 97 -42.5 158
t-117.5 61q-77 0 -120 -61.5t-43 -157.5z" />
    <glyph glyph-name="R" unicode="R" horiz-adv-x="643" 
d="M618 0h-169l-122 224h-110v-224h-149v670h286q114 0 180.5 -57t66.5 -153q0 -71 -34 -124.5t-94 -81.5zM217 541v-194h124q52 0 80 26.5t28 74.5q0 45 -28 69t-80 24h-124z" />
    <glyph glyph-name="S" unicode="S" horiz-adv-x="610" 
d="M37 220h149q-2 -59 30 -86.5t94 -27.5q55 0 83 21t28 59t-31.5 56.5t-113.5 33.5q-110 19 -170 64t-60 139q0 98 71 150.5t183 52.5q117 0 190.5 -58t68.5 -163h-147q1 50 -29 76.5t-88 26.5q-47 0 -74 -20.5t-27 -54.5q0 -39 31.5 -58t106.5 -32q123 -21 181.5 -63
t58.5 -134q0 -100 -71 -157t-197 -57q-129 0 -201 61t-66 171z" />
    <glyph glyph-name="T" unicode="T" horiz-adv-x="583" 
d="M217 540h-202v130h553v-130h-202v-540h-149v540z" />
    <glyph glyph-name="U" unicode="U" horiz-adv-x="681" 
d="M64 250v420h149v-401q0 -150 129 -150q62 0 94 38.5t32 108.5v404h149v-422q0 -118 -72.5 -189t-202.5 -71q-138 0 -208 70t-70 192z" />
    <glyph glyph-name="V" unicode="V" horiz-adv-x="638" 
d="M5 670h156l124 -369q23 -70 35 -123h3q22 83 35 124l123 368h152l-231 -670h-165z" />
    <glyph glyph-name="W" unicode="W" horiz-adv-x="941" 
d="M15 670h148l85 -360q21 -85 28 -142h4q8 59 26 141l81 361h173l82 -362q18 -78 26 -141h3q8 55 28 140l84 363h143l-165 -670h-181l-78 341q-17 70 -27 139h-4q-10 -56 -30 -138l-81 -342h-181z" />
    <glyph glyph-name="X" unicode="X" horiz-adv-x="644" 
d="M229 341l-204 329h169l128 -214h4l131 214h163l-206 -321l218 -349h-169l-142 230h-4l-142 -230h-163z" />
    <glyph glyph-name="Y" unicode="Y" horiz-adv-x="617" 
d="M622 670l-238 -412v-258h-149v256l-240 414h167l148 -262h4l147 262h161z" />
    <glyph glyph-name="Z" unicode="Z" horiz-adv-x="581" 
d="M31 118l269 347q37 48 62 75v2q-29 -1 -87 -1h-236v129h505v-119l-270 -346q-28 -38 -60 -74v-3q12 0 38.5 0.5t39.5 0.5h258v-129h-519v118z" />
    <glyph glyph-name="bracketleft" unicode="[" horiz-adv-x="366" 
d="M323 701h-102v-822h102v-99h-225v1020h225v-99z" />
    <glyph glyph-name="backslash" unicode="\" horiz-adv-x="420" 
d="M-14 759h123l337 -850h-123z" />
    <glyph glyph-name="bracketright" unicode="]" horiz-adv-x="366" 
d="M268 800v-1020h-224v99h102v822h-102v99h224z" />
    <glyph glyph-name="asciicircum" unicode="^" horiz-adv-x="530" 
d="M210 670h110l176 -362h-123l-112 230l-109 -230h-118z" />
    <glyph glyph-name="underscore" unicode="_" horiz-adv-x="499" 
d="M42 -44h415v-107h-415v107z" />
    <glyph glyph-name="grave" unicode="`" horiz-adv-x="500" 
d="M84 716h117l113 -152h-106z" />
    <glyph glyph-name="a" unicode="a" horiz-adv-x="537" 
d="M28 132q0 50 24 84.5t69 52t95 24.5t117 8v34q0 83 -74 83q-34 0 -55 -18t-21 -50q0 -15 2 -27h-136q-1 10 -1 29q0 76 60 123.5t156 47.5q102 0 156 -50t54 -143v-166q0 -33 5.5 -45.5t20.5 -12.5q11 0 20 6v-104q-22 -16 -75 -16q-56 0 -78.5 18t-28.5 60h-2
q-43 -80 -150 -80q-76 0 -117 37t-41 105zM333 165v50q-84 -3 -122.5 -18t-38.5 -51q0 -51 63 -51q32 0 59 19t39 51z" />
    <glyph glyph-name="b" unicode="b" horiz-adv-x="594" 
d="M185 79h-3l-15 -79h-110v720h144v-213q0 -52 -1 -80h3q11 39 50.5 67.5t102.5 28.5q91 0 147.5 -67t56.5 -193t-59.5 -199.5t-158.5 -73.5q-63 0 -103 26.5t-54 62.5zM413 256q0 71 -29 111t-77 40q-46 0 -76 -38.5t-30 -104.5v-30q0 -61 28.5 -96t73.5 -35q51 0 80.5 41
t29.5 112z" />
    <glyph glyph-name="c" unicode="c" horiz-adv-x="549" 
d="M34 253q0 126 70.5 198t178.5 72q104 0 166.5 -62t64.5 -158h-142q-2 45 -24.5 74t-64.5 29q-46 0 -74 -39.5t-28 -111.5q0 -70 27.5 -109t72.5 -39q78 0 90 103h143q-8 -101 -69.5 -160.5t-164.5 -59.5q-110 0 -178 69t-68 194z" />
    <glyph glyph-name="d" unicode="d" horiz-adv-x="594" 
d="M393 720h144v-720h-142v86h-3q-10 -39 -48.5 -67.5t-102.5 -28.5q-90 0 -148.5 68.5t-58.5 194.5q0 125 60 197.5t159 72.5q58 0 91.5 -22t45.5 -51h3v270zM393 248v29q0 62 -29 97.5t-73 35.5q-51 0 -80.5 -41t-29.5 -111q0 -73 29 -113t77 -40q47 0 76.5 38t29.5 105z
" />
    <glyph glyph-name="e" unicode="e" horiz-adv-x="544" 
d="M511 271q0 -15 -2 -45h-329q3 -59 30 -88.5t72 -29.5q42 0 64 21t26 54h134q-5 -81 -66 -137t-160 -56q-113 0 -179.5 69t-66.5 196q0 125 69.5 196.5t175.5 71.5q105 0 168.5 -67t63.5 -185zM279 414q-38 0 -63.5 -26t-32.5 -76h189q-3 51 -28 76.5t-65 25.5z" />
    <glyph glyph-name="f" unicode="f" horiz-adv-x="338" 
d="M84 396h-64v117h64v47q0 170 174 170q49 0 85 -9v-117q-29 9 -54 9q-61 0 -61 -64v-36h101v-117h-101v-396h-144v396z" />
    <glyph glyph-name="g" unicode="g" horiz-adv-x="549" 
d="M360 109q91 0 135.5 -38.5t44.5 -108.5q0 -89 -76 -140t-202 -51q-118 0 -186 34t-68 99q0 44 30 69.5t66 33.5v3q-35 14 -51.5 33t-16.5 54q0 71 90 101q-81 48 -81 143q0 85 60.5 134t165.5 49q83 0 137 -31q36 99 111 95q12 0 14 -1v-116q-48 4 -82 -13
q40 -46 40 -112q0 -83 -60 -131.5t-164 -48.5q-40 0 -77 8q-22 -15 -22 -35q0 -30 44 -30h148zM271 429q-39 0 -62.5 -23t-23.5 -62q0 -38 22.5 -60t60.5 -22t61 22.5t23 59.5q0 39 -22 62t-59 23zM260 -132q70 0 105.5 20t35.5 53q0 44 -66 44h-152q-36 -15 -36 -56
q0 -61 113 -61z" />
    <glyph glyph-name="h" unicode="h" horiz-adv-x="565" 
d="M352 523q75 0 119 -44t44 -129v-350h-144v314q0 41 -19.5 63.5t-55.5 22.5q-42 0 -68.5 -36t-26.5 -94v-270h-144v720h144v-207q0 -29 -2 -87h3q35 97 150 97z" />
    <glyph glyph-name="i" unicode="i" 
d="M56 720h146v-138h-146v138zM57 513h144v-513h-144v513z" />
    <glyph glyph-name="j" unicode="j" 
d="M56 720h146v-138h-146v138zM-28 -218v117q15 -4 33 -4q52 0 52 68v550h144v-558q0 -178 -170 -178q-39 0 -59 5z" />
    <glyph glyph-name="k" unicode="k" horiz-adv-x="553" 
d="M379 0l-113 210l-65 -68v-142h-144v720h144v-416h3q21 26 44 53l133 156h158l-167 -205l173 -308h-166z" />
    <glyph glyph-name="l" unicode="l" 
d="M57 720h144v-720h-144v720z" />
    <glyph glyph-name="m" unicode="m" horiz-adv-x="848" 
d="M643 523q76 0 115.5 -46.5t39.5 -127.5v-349h-144v315q0 85 -66 85q-38 0 -63 -35.5t-25 -91.5v-273h-144v315q0 40 -17 62.5t-50 22.5q-38 0 -63 -35t-25 -91v-274h-144v513h142v-86h3q15 41 51.5 68.5t91.5 27.5q113 0 143 -101h3q17 45 55.5 73t96.5 28z" />
    <glyph glyph-name="n" unicode="n" horiz-adv-x="565" 
d="M57 513h142v-87h3q35 97 150 97q75 0 119 -44t44 -129v-350h-144v314q0 41 -19.5 63.5t-55.5 22.5q-42 0 -68.5 -36t-26.5 -94v-270h-144v513z" />
    <glyph glyph-name="o" unicode="o" horiz-adv-x="573" 
d="M34 255q0 125 71.5 196.5t181.5 71.5q112 0 182 -69t70 -195q0 -125 -72.5 -197t-180.5 -72q-113 0 -182.5 69t-69.5 196zM392 258q0 70 -28.5 109t-76.5 39t-77 -38.5t-29 -109.5t28.5 -111t76.5 -40t77 40t29 111z" />
    <glyph glyph-name="p" unicode="p" horiz-adv-x="591" 
d="M353 523q92 0 148 -67.5t56 -194.5q0 -124 -59 -197.5t-156 -73.5q-58 0 -93.5 23t-44.5 49h-3v-277h-144v728h142v-84h3q14 39 51.5 66.5t99.5 27.5zM303 103q51 0 80.5 41t29.5 111q0 73 -29 112.5t-77 39.5q-47 0 -76.5 -37.5t-29.5 -105.5v-29q0 -63 28.5 -97.5
t73.5 -34.5z" />
    <glyph glyph-name="q" unicode="q" horiz-adv-x="592" 
d="M393 513h142v-728h-144v247q0 18 2 54h-3q-11 -39 -48.5 -67.5t-96.5 -28.5q-93 0 -152 68.5t-59 196.5q0 124 60 196t160 72q58 0 91.5 -24t44.5 -58h3v72zM391 248v30q0 61 -29 96.5t-73 35.5q-51 0 -80.5 -41t-29.5 -111q0 -73 29 -113t77 -40q47 0 76.5 38t29.5 105z
" />
    <glyph glyph-name="r" unicode="r" horiz-adv-x="400" 
d="M57 513h141v-104h3q16 52 50 82t85 30q29 0 50 -5v-148q-33 9 -62 9q-53 0 -88 -37t-35 -113v-227h-144v513z" />
    <glyph glyph-name="s" unicode="s" horiz-adv-x="494" 
d="M29 160h139q3 -68 80 -68q36 0 56.5 13t20.5 33q0 27 -17 38t-70 25q-40 11 -58 16t-47.5 15.5t-42.5 21t-28.5 26.5t-21 37t-5.5 48q0 71 59.5 114.5t152.5 43.5q103 0 158.5 -43.5t50.5 -123.5h-133q0 67 -73 67q-33 0 -54 -12.5t-21 -32.5q0 -26 18.5 -37.5
t65.5 -23.5q55 -13 86.5 -23t62 -28t44 -44.5t13.5 -64.5q0 -77 -61 -122t-161 -45q-101 0 -157.5 43.5t-56.5 126.5z" />
    <glyph glyph-name="t" unicode="t" horiz-adv-x="364" 
d="M79 157v239h-64v111h21q31 0 41.5 14t10.5 57v92h135v-157h121v-117h-121v-214q0 -40 14 -55.5t46 -15.5q35 0 61 14v-118q-42 -18 -99 -18q-89 0 -127.5 39t-38.5 129z" />
    <glyph glyph-name="u" unicode="u" horiz-adv-x="555" 
d="M50 163v350h144v-315q0 -85 68 -85q40 0 66 36t26 94v270h144v-513h-142v88h-3q-45 -98 -138 -98q-165 0 -165 173z" />
    <glyph glyph-name="v" unicode="v" horiz-adv-x="529" 
d="M8 513h152l79 -260q17 -55 28 -103h4q8 47 25 103l78 260h147l-173 -513h-166z" />
    <glyph glyph-name="w" unicode="w" horiz-adv-x="820" 
d="M805 513l-143 -513h-165l-65 242q-15 59 -22 104h-3q-11 -56 -23 -103l-61 -243h-165l-143 513h141l65 -259q11 -43 22 -103h3q7 43 23 102l66 260h155l65 -259q11 -43 22 -103h3q7 43 23 102l66 260h136z" />
    <glyph glyph-name="x" unicode="x" horiz-adv-x="550" 
d="M187 259l-163 254h163l94 -156h3l94 156h153l-163 -245l170 -268h-162l-103 169h-3l-106 -169h-152z" />
    <glyph glyph-name="y" unicode="y" horiz-adv-x="538" 
d="M23 -214v118q36 -12 69 -12q38 0 56.5 15t33.5 54l11 29l-185 523h155l79 -258q25 -84 30 -105h3q11 48 27 105l75 258h153l-199 -539q-38 -102 -85.5 -152t-130.5 -50q-50 0 -92 14z" />
    <glyph glyph-name="z" unicode="z" horiz-adv-x="468" 
d="M24 100l183 235q34 44 51 60v2q-22 -1 -60 -1h-165v117h401v-100l-182 -234q-31 -40 -52 -61v-2q22 1 61 1h183v-117h-420v100z" />
    <glyph glyph-name="braceleft" unicode="{" horiz-adv-x="396" 
d="M123 -68q0 44 20.5 109t20.5 99q0 45 -24 72.5t-70 23.5l-28 -2v118l28 -3q46 -5 70 22.5t24 72.5q0 33 -20.5 97.5t-20.5 107.5q0 148 230 152v-98q-59 -5 -82 -24t-23 -64q0 -28 20.5 -85.5t20.5 -93.5q0 -59 -34 -96t-96 -45v-4q61 -7 95.5 -45t34.5 -99
q0 -34 -20.5 -91.5t-20.5 -90.5q0 -46 23 -64t82 -23v-98q-230 4 -230 152z" />
    <glyph glyph-name="bar" unicode="|" horiz-adv-x="309" 
d="M97 760h115v-890h-115v890z" />
    <glyph glyph-name="braceright" unicode="}" horiz-adv-x="396" 
d="M43 -121q59 5 82 24t23 64q0 28 -20.5 85.5t-20.5 93.5q0 59 34 96t96 45v4q-61 7 -95.5 45t-34.5 99q0 34 20.5 91.5t20.5 90.5q0 46 -23 64t-82 23v98q230 -4 230 -152q0 -44 -20.5 -109t-20.5 -99q0 -45 24 -72.5t70 -23.5l28 2v-118l-28 3q-46 5 -70 -22.5t-24 -72.5
q0 -33 20.5 -97.5t20.5 -107.5q0 -148 -230 -152v98z" />
    <glyph glyph-name="asciitilde" unicode="~" horiz-adv-x="530" 
d="M156 326q-57 0 -98 -43v105q39 41 98 41q48 0 111 -34.5t107 -34.5q59 0 98 43v-106q-42 -40 -98 -40q-47 0 -110.5 34.5t-107.5 34.5z" />
    <glyph glyph-name="exclamdown" unicode="&#xa1;" horiz-adv-x="271" 
d="M210 373h-148v140h148v-140zM213 -157h-155l16 475h124z" />
    <glyph glyph-name="cent" unicode="&#xa2;" horiz-adv-x="549" 
d="M297 177q64 11 74 102h143q-8 -99 -68 -159t-161 -61l-11 -115h-74l12 123q-82 19 -130 85t-48 170q0 120 64 191t164 78l11 113h75l-11 -117q81 -16 128 -74.5t49 -140.5h-142q-3 68 -47 93zM181 324q0 -89 43 -127l26 272q-69 -26 -69 -145z" />
    <glyph glyph-name="sterling" unicode="&#xa3;" horiz-adv-x="650" 
d="M609 221q14 -37 11 -78t-16.5 -75t-52.5 -56t-98 -22q-75 0 -152 60q-60 -60 -142 -60q-67 0 -103 31.5t-36 85.5q0 57 35 92.5t95 35.5q36 0 77 -18q-5 36 -38 84h-136v88h72q-30 55 -30 110q0 82 65.5 132.5t175.5 50.5q123 0 185 -58.5t61 -162.5h-147q-3 102 -97 102
q-44 0 -67 -21t-23 -54q0 -43 30 -99h180v-88h-131q30 -62 30 -118q0 -19 -5 -42q49 -28 81 -28q76 0 58 108h118zM157 78q43 0 61 43q-35 27 -64 27q-17 0 -27 -9.5t-10 -26.5q0 -34 40 -34z" />
    <glyph glyph-name="currency" unicode="&#xa4;" horiz-adv-x="569" 
d="M495 290q0 -59 -31 -107l61 -61l-67 -67l-60 60q-54 -35 -116 -35q-61 0 -113 33l-58 -58l-67 67l58 58q-32 51 -32 110q0 57 31 105l-59 59l67 67l59 -60q52 33 114 33q63 0 117 -35l61 61l67 -66l-62 -62q30 -47 30 -102zM282 187q42 0 70.5 29.5t28.5 72.5
q0 41 -28.5 69.5t-70.5 28.5q-41 0 -70 -28.5t-29 -69.5q0 -43 29 -72.5t70 -29.5z" />
    <glyph glyph-name="yen" unicode="&#xa5;" horiz-adv-x="638" 
d="M633 670l-198 -333h120v-90h-161v-64h161v-91h-161v-92h-149v92h-162v91h162v64h-162v90h121l-199 333h167l149 -262h3l147 262h162z" />
    <glyph glyph-name="brokenbar" unicode="&#xa6;" horiz-adv-x="309" 
d="M97 760h115v-390h-115v390zM97 263h115v-393h-115v393z" />
    <glyph glyph-name="section" unicode="&#xa7;" horiz-adv-x="606" 
d="M580 222q0 -59 -40.5 -104t-117.5 -60q-18 -39 -60 -60.5t-100 -21.5q-83 0 -134.5 42.5t-51.5 115.5h114q1 -70 67 -70q29 0 45.5 13.5t16.5 37.5q0 25 -23.5 46.5t-107.5 68.5q-104 60 -137.5 108t-33.5 109q0 59 40.5 104t117.5 60q18 39 60 60.5t100 21.5
q83 0 134.5 -42.5t51.5 -115.5h-114q-1 70 -67 70q-29 0 -45.5 -13.5t-16.5 -37.5q0 -25 23.5 -46.5t107.5 -68.5q104 -60 137.5 -108t33.5 -109zM430 152q46 19 46 63q0 29 -23.5 55.5t-102.5 69.5q-96 52 -135.5 93t-47.5 84q-46 -19 -46 -63q0 -29 23.5 -55.5
t102.5 -69.5q96 -52 135.5 -93t47.5 -84z" />
    <glyph glyph-name="dieresis" unicode="&#xa8;" horiz-adv-x="500" 
d="M106 706h112v-117h-112v117zM282 706h112v-117h-112v117z" />
    <glyph glyph-name="copyright" unicode="&#xa9;" horiz-adv-x="737" 
d="M37 335q0 157 91 251t241 94t240.5 -94t90.5 -251t-90 -251t-240 -94q-151 0 -242 94t-91 251zM624 335q0 127 -69.5 203t-185.5 76t-185.5 -76t-69.5 -203t69.5 -203t185.5 -76t185.5 76t69.5 203zM189 333q0 95 49.5 151t130.5 56q76 0 121 -46t47 -115h-80
q-2 34 -24.5 58.5t-63.5 24.5q-43 0 -70 -34t-27 -92q0 -55 26.5 -87.5t67.5 -32.5q80 0 94 80h80q-9 -70 -54 -114t-119 -44q-80 0 -129 52.5t-49 142.5z" />
    <glyph glyph-name="ordfeminine" unicode="&#xaa;" horiz-adv-x="425" 
d="M40 415q0 34 17 56.5t48.5 34t67 16t82.5 4.5v25q0 55 -53 55q-24 0 -39.5 -12t-15.5 -33q0 -10 1 -17h-96v20q0 52 43 84t113 32q72 0 109.5 -34t37.5 -97v-115q0 -34 19 -34q7 0 11 2v-75q-14 -10 -48 -10q-77 0 -77 58v1h-2q-10 -26 -37.5 -42.5t-67.5 -16.5
q-53 0 -83 25.5t-30 72.5zM255 439v36q-112 -3 -112 -54q0 -34 43 -34q46 0 69 52z" />
    <glyph glyph-name="guillemotleft" unicode="&#xab;" horiz-adv-x="555" 
d="M46 229v105l224 154v-119l-115 -86v-3l115 -84v-121zM278 229v105l224 154v-119l-115 -86v-3l115 -84v-121z" />
    <glyph glyph-name="logicalnot" unicode="&#xac;" horiz-adv-x="530" 
d="M65 376h411v-269h-105v167h-306v102z" />
    <glyph glyph-name="uni00AD" unicode="&#xad;" horiz-adv-x="0" 
 />
    <glyph glyph-name="registered" unicode="&#xae;" horiz-adv-x="532" 
d="M264 680q103 0 172 -68.5t69 -169.5q0 -100 -68.5 -167.5t-169.5 -67.5q-103 0 -172 68t-69 169q0 100 68.5 168t169.5 68zM267 259q77 0 128 52.5t51 131.5q0 80 -51.5 132t-129.5 52q-79 0 -129.5 -51.5t-50.5 -132.5q0 -80 51.5 -132t130.5 -52zM371 491
q0 -61 -55 -76l57 -84h-63l-47 76h-35v-76h-54v235h109q41 0 64.5 -20t23.5 -55zM227 448h48q40 0 40 38q0 35 -40 35h-48v-73z" />
    <glyph glyph-name="macron" unicode="&#xaf;" horiz-adv-x="500" 
d="M114 674h271v-90h-271v90z" />
    <glyph glyph-name="degree" unicode="&#xb0;" horiz-adv-x="446" 
d="M33 502q0 78 54 129t136 51t136 -51.5t54 -128.5q0 -79 -54 -130.5t-136 -51.5t-136 52t-54 130zM307 502q0 37 -24 60.5t-60 23.5q-37 0 -60.5 -23.5t-23.5 -60.5q0 -38 23.5 -62t60.5 -24t60.5 24t23.5 62z" />
    <glyph glyph-name="plusminus" unicode="&#xb1;" horiz-adv-x="530" 
d="M318 411h158v-102h-158v-145h-105v145h-158v102h158v144h105v-144zM55 0v102h421v-102h-421z" />
    <glyph glyph-name="uni00B2" unicode="&#xb2;" horiz-adv-x="349" 
d="M26 335q1 60 29 99t105 73q30 14 40 24t10 27q0 15 -9.5 24t-24.5 9q-36 0 -36 -41v-10h-109v12q0 56 39 90t108 34q70 0 107 -29.5t37 -82.5q0 -39 -24 -65.5t-79 -50.5q-12 -6 -27.5 -12t-21.5 -8.5t-12 -7t-9 -9.5h171v-91h-294v15z" />
    <glyph glyph-name="uni00B3" unicode="&#xb3;" horiz-adv-x="355" 
d="M26 435h107q-1 -19 10 -29.5t31 -10.5q18 0 29.5 10t11.5 28q0 19 -11 25.5t-36 6.5h-39v61h38q43 0 43 35t-36 35q-17 0 -27.5 -9.5t-10.5 -25.5q0 -4 1 -8h-104q-1 6 -1 10q0 50 39.5 81.5t106.5 31.5t103.5 -27t36.5 -72q0 -65 -72 -76v-2q40 -4 60 -24.5t20 -53.5
q0 -49 -40.5 -78t-108.5 -29q-80 0 -116.5 32t-34.5 89z" />
    <glyph glyph-name="acute" unicode="&#xb4;" horiz-adv-x="500" 
d="M192 564l113 152h117l-125 -152h-105z" />
    <glyph glyph-name="uni00B5" unicode="&#xb5;" horiz-adv-x="566" 
d="M55 549h144v-351q0 -40 19 -62.5t54 -22.5q42 0 68.5 36t26.5 94v306h144v-549h-129v118h-4q-14 -56 -44.5 -86t-73.5 -30q-51 0 -77 38l-4 -1q15 -41 15 -112v-136h-139v758z" />
    <glyph glyph-name="paragraph" unicode="&#xb6;" horiz-adv-x="712" 
d="M369 -115v305q-45 -13 -104 -13q-113 0 -176 70t-63 167q0 111 71 183t210 73l165 1v-786h-103zM541 670h103v-785h-103v785z" />
    <glyph glyph-name="periodcentered" unicode="&#xb7;" horiz-adv-x="246" 
d="M49 354h148v-140h-148v140z" />
    <glyph glyph-name="cedilla" unicode="&#xb8;" horiz-adv-x="500" 
d="M169 -185l9 67q25 -16 56 -16q35 0 35 30q0 35 -73 32l33 87h61l-23 -54h15q82 -5 82 -69q0 -45 -33 -68.5t-79 -23.5q-48 0 -83 15z" />
    <glyph glyph-name="uni00B9" unicode="&#xb9;" horiz-adv-x="249" 
d="M194 320h-110v247q-29 -21 -64 -24v90q39 6 67 37h107v-350z" />
    <glyph glyph-name="ordmasculine" unicode="&#xba;" horiz-adv-x="405" 
d="M26 498q0 84 50.5 133t126.5 49q77 0 126.5 -47.5t49.5 -132.5t-50.5 -134t-126.5 -49q-78 0 -127 47.5t-49 133.5zM273 499q0 49 -19 76t-51 27t-51.5 -27t-19.5 -76t19 -76.5t51 -27.5q33 0 52 27.5t19 76.5z" />
    <glyph glyph-name="guillemotright" unicode="&#xbb;" horiz-adv-x="555" 
d="M54 195l115 86v3l-115 84v120l223 -153v-105l-223 -154v119zM286 195l115 86v3l-115 84v120l223 -153v-105l-223 -154v119z" />
    <glyph glyph-name="onequarter" unicode="&#xbc;" horiz-adv-x="797" 
d="M194 320h-110v247q-29 -21 -64 -24v90q39 6 67 37h107v-350zM70 0l434 670h101l-434 -670h-101zM621 53h-171v86l158 211h118v-211h48v-86h-48v-53h-105v53zM577 139h44v62v25h-2q-3 -5 -16 -23l-26 -36q-18 -24 -21 -27v-2q3 0 9.5 0.5t11.5 0.5z" />
    <glyph glyph-name="onehalf" unicode="&#xbd;" horiz-adv-x="775" 
d="M194 320h-110v247q-29 -21 -64 -24v90q39 6 67 37h107v-350zM70 0l434 670h101l-434 -670h-101zM452 15q1 60 29 99t105 73q30 14 40 24t10 27q0 15 -9.5 24t-24.5 9q-36 0 -36 -41v-10h-109v12q0 56 39 90t108 34q70 0 107 -29.5t37 -82.5q0 -39 -24 -65.5t-79 -50.5
q-12 -6 -27.5 -12t-21.5 -8.5t-12 -7t-9 -9.5h171v-91h-294v15z" />
    <glyph glyph-name="threequarters" unicode="&#xbe;" horiz-adv-x="903" 
d="M26 435h107q-1 -19 10 -29.5t31 -10.5q18 0 29.5 10t11.5 28q0 19 -11 25.5t-36 6.5h-39v61h38q43 0 43 35t-36 35q-17 0 -27.5 -9.5t-10.5 -25.5q0 -4 1 -8h-104q-1 6 -1 10q0 50 39.5 81.5t106.5 31.5t103.5 -27t36.5 -72q0 -65 -72 -76v-2q40 -4 60 -24.5t20 -53.5
q0 -49 -40.5 -78t-108.5 -29q-80 0 -116.5 32t-34.5 89zM176 0l434 670h101l-434 -670h-101zM727 53h-171v86l158 211h118v-211h48v-86h-48v-53h-105v53zM683 139h44v62v25h-2q-3 -5 -16 -23l-26 -36q-18 -24 -21 -27v-2q3 0 9.5 0.5t11.5 0.5z" />
    <glyph glyph-name="questiondown" unicode="&#xbf;" horiz-adv-x="557" 
d="M364 513v-140h-148v140h148zM526 67q9 -106 -62 -170.5t-190 -64.5q-110 0 -175 55.5t-65 149.5q0 84 50.5 138.5t136.5 69.5l5 73h124l9 -162h-38q-68 -1 -103.5 -31.5t-35.5 -80.5q0 -41 25.5 -65.5t70.5 -24.5q52 0 79.5 30.5t23.5 82.5h145z" />
    <glyph glyph-name="Agrave" unicode="&#xc0;" horiz-adv-x="666" 
d="M399 722h-106l-124 152h117zM501 0l-48 139h-245l-48 -139h-150l242 670h164l240 -670h-155zM244 245h173l-54 157q-24 69 -31 96h-3q-6 -22 -31 -97z" />
    <glyph glyph-name="Aacute" unicode="&#xc1;" horiz-adv-x="666" 
d="M507 874l-125 -152h-105l113 152h117zM501 0l-48 139h-245l-48 -139h-150l242 670h164l240 -670h-155zM244 245h173l-54 157q-24 69 -31 96h-3q-6 -22 -31 -97z" />
    <glyph glyph-name="Acircumflex" unicode="&#xc2;" horiz-adv-x="666" 
d="M336 802l-58 -80h-103l115 152h97l111 -152h-103zM501 0l-48 139h-245l-48 -139h-150l242 670h164l240 -670h-155zM244 245h173l-54 157q-24 69 -31 96h-3q-6 -22 -31 -97z" />
    <glyph glyph-name="Atilde" unicode="&#xc3;" horiz-adv-x="666" 
d="M247 728h-77q-2 63 25.5 100t76.5 37q36 0 71 -29q28 -24 46 -24q16 0 24.5 10.5t9.5 40.5h77q2 -63 -25.5 -100t-76.5 -37q-36 0 -71 29q-28 24 -46 24q-16 0 -24.5 -10.5t-9.5 -40.5zM501 0l-48 139h-245l-48 -139h-150l242 670h164l240 -670h-155zM244 245h173
l-54 157q-24 69 -31 96h-3q-6 -22 -31 -97z" />
    <glyph glyph-name="Adieresis" unicode="&#xc4;" horiz-adv-x="666" 
d="M303 864v-117h-112v117h112zM479 864v-117h-112v117h112zM501 0l-48 139h-245l-48 -139h-150l242 670h164l240 -670h-155zM244 245h173l-54 157q-24 69 -31 96h-3q-6 -22 -31 -97z" />
    <glyph glyph-name="Aring" unicode="&#xc5;" horiz-adv-x="666" 
d="M335 704q-50 0 -83.5 29.5t-33.5 74.5t33.5 74.5t83.5 29.5t83.5 -30t33.5 -74q0 -46 -33 -75t-84 -29zM335 851q-19 0 -31 -12t-12 -31t12 -31t31 -12t31 12t12 31t-12 31t-31 12zM501 0l-48 139h-245l-48 -139h-150l242 670h164l240 -670h-155zM244 245h173l-54 157
q-24 69 -31 96h-3q-6 -22 -31 -97z" />
    <glyph glyph-name="AE" unicode="&#xc6;" horiz-adv-x="931" 
d="M892 541h-313v-140h278v-125h-278v-147h313v-129h-462v139h-201l-67 -139h-154l331 670h553v-129zM280 245h150v296h-9q-11 -26 -56 -120z" />
    <glyph glyph-name="Ccedilla" unicode="&#xc7;" horiz-adv-x="679" 
d="M350 116q120 0 145 149h148q-8 -114 -78 -191t-188 -85l-12 -28h15q82 -5 82 -69q0 -45 -33 -68.5t-79 -23.5q-48 0 -83 15l9 67q25 -16 56 -16q35 0 35 30q0 35 -73 32l23 61q-133 11 -206 103t-73 240q0 153 85.5 251.5t227.5 98.5q132 0 210 -79.5t82 -195.5h-149
q-5 62 -40.5 104.5t-101.5 42.5q-73 0 -117 -62.5t-44 -159.5q0 -99 41.5 -157.5t117.5 -58.5z" />
    <glyph glyph-name="Egrave" unicode="&#xc8;" horiz-adv-x="569" 
d="M375 722h-106l-124 152h117zM530 541h-313v-140h278v-125h-278v-147h313v-129h-462v670h462v-129z" />
    <glyph glyph-name="Eacute" unicode="&#xc9;" horiz-adv-x="569" 
d="M483 874l-125 -152h-105l113 152h117zM530 541h-313v-140h278v-125h-278v-147h313v-129h-462v670h462v-129z" />
    <glyph glyph-name="Ecircumflex" unicode="&#xca;" horiz-adv-x="569" 
d="M312 802l-58 -80h-103l115 152h97l111 -152h-103zM530 541h-313v-140h278v-125h-278v-147h313v-129h-462v670h462v-129z" />
    <glyph glyph-name="Edieresis" unicode="&#xcb;" horiz-adv-x="569" 
d="M279 864v-117h-112v117h112zM455 864v-117h-112v117h112zM530 541h-313v-140h278v-125h-278v-147h313v-129h-462v670h462v-129z" />
    <glyph glyph-name="Igrave" unicode="&#xcc;" horiz-adv-x="285" 
d="M-23 874h117l113 -152h-106zM68 670h149v-670h-149v670z" />
    <glyph glyph-name="Iacute" unicode="&#xcd;" horiz-adv-x="285" 
d="M85 722l113 152h117l-125 -152h-105zM68 670h149v-670h-149v670z" />
    <glyph glyph-name="Icircumflex" unicode="&#xce;" horiz-adv-x="285" 
d="M-17 722l115 152h97l111 -152h-103l-59 80l-58 -80h-103zM68 670h149v-670h-149v670z" />
    <glyph glyph-name="Idieresis" unicode="&#xcf;" horiz-adv-x="285" 
d="M-1 864h112v-117h-112v117zM175 864h112v-117h-112v117zM68 670h149v-670h-149v670z" />
    <glyph glyph-name="Eth" unicode="&#xd0;" horiz-adv-x="693" 
d="M331 670q153 0 238 -92.5t85 -236.5q0 -149 -87.5 -245t-241.5 -96h-253v293h-59v101h59v276h259zM316 128q93 0 139.5 57.5t46.5 153.5q0 91 -46.5 147t-140.5 56h-94v-148h112v-101h-112v-165h95z" />
    <glyph glyph-name="Ntilde" unicode="&#xd1;" horiz-adv-x="689" 
d="M293 865q36 0 71 -29q28 -24 46 -24q16 0 24.5 10.5t9.5 40.5h77q2 -63 -25.5 -100t-76.5 -37q-36 0 -71 29q-28 24 -46 24q-16 0 -24.5 -10.5t-9.5 -40.5h-77q-2 63 25.5 100t76.5 37zM68 670h147l264 -415h3v415h139v-670h-147l-264 423h-3v-423h-139v670z" />
    <glyph glyph-name="Ograve" unicode="&#xd2;" horiz-adv-x="705" 
d="M189 874h117l113 -152h-106zM38 332q0 156 85.5 253t230.5 97q143 0 228 -96.5t85 -247.5q0 -157 -85.5 -253.5t-230.5 -96.5q-143 0 -228 97t-85 247zM514 335q0 97 -42.5 158t-117.5 61q-77 0 -120 -61.5t-43 -157.5t43 -157.5t118 -61.5q76 0 119 61.5t43 157.5z" />
    <glyph glyph-name="Oacute" unicode="&#xd3;" horiz-adv-x="705" 
d="M297 722l113 152h117l-125 -152h-105zM38 332q0 156 85.5 253t230.5 97q143 0 228 -96.5t85 -247.5q0 -157 -85.5 -253.5t-230.5 -96.5q-143 0 -228 97t-85 247zM514 335q0 97 -42.5 158t-117.5 61q-77 0 -120 -61.5t-43 -157.5t43 -157.5t118 -61.5q76 0 119 61.5
t43 157.5z" />
    <glyph glyph-name="Ocircumflex" unicode="&#xd4;" horiz-adv-x="705" 
d="M195 722l115 152h97l111 -152h-103l-59 80l-58 -80h-103zM38 332q0 156 85.5 253t230.5 97q143 0 228 -96.5t85 -247.5q0 -157 -85.5 -253.5t-230.5 -96.5q-143 0 -228 97t-85 247zM514 335q0 97 -42.5 158t-117.5 61q-77 0 -120 -61.5t-43 -157.5t43 -157.5t118 -61.5
q76 0 119 61.5t43 157.5z" />
    <glyph glyph-name="Otilde" unicode="&#xd5;" horiz-adv-x="705" 
d="M292 865q36 0 71 -29q28 -24 46 -24q16 0 24.5 10.5t9.5 40.5h77q2 -63 -25.5 -100t-76.5 -37q-36 0 -71 29q-28 24 -46 24q-16 0 -24.5 -10.5t-9.5 -40.5h-77q-2 63 25.5 100t76.5 37zM38 332q0 156 85.5 253t230.5 97q143 0 228 -96.5t85 -247.5q0 -157 -85.5 -253.5
t-230.5 -96.5q-143 0 -228 97t-85 247zM514 335q0 97 -42.5 158t-117.5 61q-77 0 -120 -61.5t-43 -157.5t43 -157.5t118 -61.5q76 0 119 61.5t43 157.5z" />
    <glyph glyph-name="Odieresis" unicode="&#xd6;" horiz-adv-x="705" 
d="M211 864h112v-117h-112v117zM387 864h112v-117h-112v117zM38 332q0 156 85.5 253t230.5 97q143 0 228 -96.5t85 -247.5q0 -157 -85.5 -253.5t-230.5 -96.5q-143 0 -228 97t-85 247zM514 335q0 97 -42.5 158t-117.5 61q-77 0 -120 -61.5t-43 -157.5t43 -157.5t118 -61.5
q76 0 119 61.5t43 157.5z" />
    <glyph glyph-name="multiply" unicode="&#xd7;" horiz-adv-x="530" 
d="M464 452l-126 -125l126 -126l-75 -74l-125 125l-126 -125l-72 72l126 126l-126 125l75 74l125 -125l126 126z" />
    <glyph glyph-name="Oslash" unicode="&#xd8;" horiz-adv-x="714" 
d="M689 679l-88 -110q71 -93 71 -231q0 -157 -85.5 -253.5t-230.5 -96.5q-101 0 -177 52l-38 -48h-116l88 111q-70 93 -70 229q0 156 85.5 253t230.5 97q102 0 176 -51l38 48h116zM193 335q0 -63 18 -109l238 298q-38 30 -90 30q-78 0 -122 -61.5t-44 -157.5zM521 335
q0 61 -18 111l-238 -299q39 -31 92 -31q77 0 120.5 61.5t43.5 157.5z" />
    <glyph glyph-name="Ugrave" unicode="&#xd9;" horiz-adv-x="681" 
d="M176 874h117l113 -152h-106zM64 250v420h149v-401q0 -150 129 -150q62 0 94 38.5t32 108.5v404h149v-422q0 -118 -72.5 -189t-202.5 -71q-138 0 -208 70t-70 192z" />
    <glyph glyph-name="Uacute" unicode="&#xda;" horiz-adv-x="681" 
d="M284 722l113 152h117l-125 -152h-105zM64 250v420h149v-401q0 -150 129 -150q62 0 94 38.5t32 108.5v404h149v-422q0 -118 -72.5 -189t-202.5 -71q-138 0 -208 70t-70 192z" />
    <glyph glyph-name="Ucircumflex" unicode="&#xdb;" horiz-adv-x="681" 
d="M182 722l115 152h97l111 -152h-103l-59 80l-58 -80h-103zM64 250v420h149v-401q0 -150 129 -150q62 0 94 38.5t32 108.5v404h149v-422q0 -118 -72.5 -189t-202.5 -71q-138 0 -208 70t-70 192z" />
    <glyph glyph-name="Udieresis" unicode="&#xdc;" horiz-adv-x="681" 
d="M198 864h112v-117h-112v117zM374 864h112v-117h-112v117zM64 250v420h149v-401q0 -150 129 -150q62 0 94 38.5t32 108.5v404h149v-422q0 -118 -72.5 -189t-202.5 -71q-138 0 -208 70t-70 192z" />
    <glyph glyph-name="Yacute" unicode="&#xdd;" horiz-adv-x="617" 
d="M482 874l-125 -152h-105l113 152h117zM622 670l-238 -412v-258h-149v256l-240 414h167l148 -262h4l147 262h161z" />
    <glyph glyph-name="Thorn" unicode="&#xde;" horiz-adv-x="611" 
d="M68 670h149v-102h120q108 0 174.5 -62t66.5 -164q0 -110 -68.5 -173.5t-183.5 -63.5h-109v-105h-149v670zM323 229q50 0 79 29.5t29 79.5q0 49 -28 77t-79 28h-107v-214h106z" />
    <glyph glyph-name="germandbls" unicode="&#xdf;" horiz-adv-x="597" 
d="M258 4v116q27 -13 67 -13q96 2 96 104q0 50 -32 73.5t-83 23.5h-24v122h19q40 0 61 24.5t21 68.5q0 43 -23.5 66.5t-65.5 23.5q-43 0 -68 -28.5t-25 -87.5v-497h-144v505q0 105 61 165t175 60q111 0 172.5 -51.5t61.5 -140.5q0 -127 -127 -153v-4q78 -9 123.5 -55
t45.5 -127q0 -100 -59.5 -154.5t-154.5 -54.5q-60 0 -97 14z" />
    <glyph glyph-name="agrave" unicode="&#xe0;" horiz-adv-x="537" 
d="M96 716h117l113 -152h-106zM28 132q0 50 24 84.5t69 52t95 24.5t117 8v34q0 83 -74 83q-34 0 -55 -18t-21 -50q0 -15 2 -27h-136q-1 10 -1 29q0 76 60 123.5t156 47.5q102 0 156 -50t54 -143v-166q0 -33 5.5 -45.5t20.5 -12.5q11 0 20 6v-104q-22 -16 -75 -16
q-56 0 -78.5 18t-28.5 60h-2q-43 -80 -150 -80q-76 0 -117 37t-41 105zM333 165v50q-84 -3 -122.5 -18t-38.5 -51q0 -51 63 -51q32 0 59 19t39 51z" />
    <glyph glyph-name="aacute" unicode="&#xe1;" horiz-adv-x="537" 
d="M204 564l113 152h117l-125 -152h-105zM28 132q0 50 24 84.5t69 52t95 24.5t117 8v34q0 83 -74 83q-34 0 -55 -18t-21 -50q0 -15 2 -27h-136q-1 10 -1 29q0 76 60 123.5t156 47.5q102 0 156 -50t54 -143v-166q0 -33 5.5 -45.5t20.5 -12.5q11 0 20 6v-104q-22 -16 -75 -16
q-56 0 -78.5 18t-28.5 60h-2q-43 -80 -150 -80q-76 0 -117 37t-41 105zM333 165v50q-84 -3 -122.5 -18t-38.5 -51q0 -51 63 -51q32 0 59 19t39 51z" />
    <glyph glyph-name="acircumflex" unicode="&#xe2;" horiz-adv-x="537" 
d="M102 564l115 152h97l111 -152h-103l-59 80l-58 -80h-103zM28 132q0 50 24 84.5t69 52t95 24.5t117 8v34q0 83 -74 83q-34 0 -55 -18t-21 -50q0 -15 2 -27h-136q-1 10 -1 29q0 76 60 123.5t156 47.5q102 0 156 -50t54 -143v-166q0 -33 5.5 -45.5t20.5 -12.5q11 0 20 6
v-104q-22 -16 -75 -16q-56 0 -78.5 18t-28.5 60h-2q-43 -80 -150 -80q-76 0 -117 37t-41 105zM333 165v50q-84 -3 -122.5 -18t-38.5 -51q0 -51 63 -51q32 0 59 19t39 51z" />
    <glyph glyph-name="atilde" unicode="&#xe3;" horiz-adv-x="537" 
d="M199 707q36 0 71 -29q28 -24 46 -24q16 0 24.5 10.5t9.5 40.5h77q2 -63 -25.5 -100t-76.5 -37q-36 0 -71 29q-28 24 -46 24q-16 0 -24.5 -10.5t-9.5 -40.5h-77q-2 63 25.5 100t76.5 37zM28 132q0 50 24 84.5t69 52t95 24.5t117 8v34q0 83 -74 83q-34 0 -55 -18t-21 -50
q0 -15 2 -27h-136q-1 10 -1 29q0 76 60 123.5t156 47.5q102 0 156 -50t54 -143v-166q0 -33 5.5 -45.5t20.5 -12.5q11 0 20 6v-104q-22 -16 -75 -16q-56 0 -78.5 18t-28.5 60h-2q-43 -80 -150 -80q-76 0 -117 37t-41 105zM333 165v50q-84 -3 -122.5 -18t-38.5 -51
q0 -51 63 -51q32 0 59 19t39 51z" />
    <glyph glyph-name="adieresis" unicode="&#xe4;" horiz-adv-x="537" 
d="M118 706h112v-117h-112v117zM294 706h112v-117h-112v117zM28 132q0 50 24 84.5t69 52t95 24.5t117 8v34q0 83 -74 83q-34 0 -55 -18t-21 -50q0 -15 2 -27h-136q-1 10 -1 29q0 76 60 123.5t156 47.5q102 0 156 -50t54 -143v-166q0 -33 5.5 -45.5t20.5 -12.5q11 0 20 6
v-104q-22 -16 -75 -16q-56 0 -78.5 18t-28.5 60h-2q-43 -80 -150 -80q-76 0 -117 37t-41 105zM333 165v50q-84 -3 -122.5 -18t-38.5 -51q0 -51 63 -51q32 0 59 19t39 51z" />
    <glyph glyph-name="aring" unicode="&#xe5;" horiz-adv-x="537" 
d="M145 650q0 45 33.5 74.5t83.5 29.5t83.5 -30t33.5 -74q0 -46 -33 -75t-84 -29q-50 0 -83.5 29.5t-33.5 74.5zM305 650q0 19 -12 31t-31 12t-31 -12t-12 -31t12 -31t31 -12t31 12t12 31zM28 132q0 50 24 84.5t69 52t95 24.5t117 8v34q0 83 -74 83q-34 0 -55 -18t-21 -50
q0 -15 2 -27h-136q-1 10 -1 29q0 76 60 123.5t156 47.5q102 0 156 -50t54 -143v-166q0 -33 5.5 -45.5t20.5 -12.5q11 0 20 6v-104q-22 -16 -75 -16q-56 0 -78.5 18t-28.5 60h-2q-43 -80 -150 -80q-76 0 -117 37t-41 105zM333 165v50q-84 -3 -122.5 -18t-38.5 -51
q0 -51 63 -51q32 0 59 19t39 51z" />
    <glyph glyph-name="ae" unicode="&#xe6;" horiz-adv-x="832" 
d="M799 271q0 -15 -2 -45h-329q3 -59 30 -88.5t72 -29.5q42 0 64 21t26 54h134q-5 -81 -66 -137t-160 -56q-127 0 -188 88h-4q-58 -88 -178 -88q-79 0 -124.5 39t-45.5 105q0 49 24 82.5t69 50.5t95 24.5t117 8.5v34q0 84 -74 84q-34 0 -55 -18.5t-21 -49.5q0 -13 2 -27
h-136q-1 10 -1 29q0 76 60 123.5t156 47.5q99 0 151 -55q60 55 152 55q105 0 168.5 -67t63.5 -185zM567 414q-38 0 -63.5 -26t-32.5 -76h189q-3 51 -28 76.5t-65 25.5zM333 156v60q-81 -3 -121 -18.5t-40 -51.5q0 -52 68 -52q65 0 93 62z" />
    <glyph glyph-name="ccedilla" unicode="&#xe7;" horiz-adv-x="549" 
d="M281 107q78 0 90 103h143q-7 -94 -61 -152.5t-145 -66.5l-13 -30h15q82 -5 82 -69q0 -45 -33 -68.5t-79 -23.5q-48 0 -83 15l9 67q25 -16 56 -16q35 0 35 30q0 35 -73 32l24 64q-97 9 -155.5 77t-58.5 184q0 126 70.5 198t178.5 72q104 0 166.5 -62t64.5 -158h-142
q-2 45 -24.5 74t-64.5 29q-46 0 -74 -39.5t-28 -111.5q0 -70 27.5 -109t72.5 -39z" />
    <glyph glyph-name="egrave" unicode="&#xe8;" horiz-adv-x="544" 
d="M344 564h-106l-124 152h117zM511 271q0 -15 -2 -45h-329q3 -59 30 -88.5t72 -29.5q42 0 64 21t26 54h134q-5 -81 -66 -137t-160 -56q-113 0 -179.5 69t-66.5 196q0 125 69.5 196.5t175.5 71.5q105 0 168.5 -67t63.5 -185zM279 414q-38 0 -63.5 -26t-32.5 -76h189
q-3 51 -28 76.5t-65 25.5z" />
    <glyph glyph-name="eacute" unicode="&#xe9;" horiz-adv-x="544" 
d="M452 716l-125 -152h-105l113 152h117zM511 271q0 -15 -2 -45h-329q3 -59 30 -88.5t72 -29.5q42 0 64 21t26 54h134q-5 -81 -66 -137t-160 -56q-113 0 -179.5 69t-66.5 196q0 125 69.5 196.5t175.5 71.5q105 0 168.5 -67t63.5 -185zM279 414q-38 0 -63.5 -26t-32.5 -76
h189q-3 51 -28 76.5t-65 25.5z" />
    <glyph glyph-name="ecircumflex" unicode="&#xea;" horiz-adv-x="544" 
d="M281 644l-58 -80h-103l115 152h97l111 -152h-103zM511 271q0 -15 -2 -45h-329q3 -59 30 -88.5t72 -29.5q42 0 64 21t26 54h134q-5 -81 -66 -137t-160 -56q-113 0 -179.5 69t-66.5 196q0 125 69.5 196.5t175.5 71.5q105 0 168.5 -67t63.5 -185zM279 414q-38 0 -63.5 -26
t-32.5 -76h189q-3 51 -28 76.5t-65 25.5z" />
    <glyph glyph-name="edieresis" unicode="&#xeb;" horiz-adv-x="544" 
d="M248 706v-117h-112v117h112zM424 706v-117h-112v117h112zM511 271q0 -15 -2 -45h-329q3 -59 30 -88.5t72 -29.5q42 0 64 21t26 54h134q-5 -81 -66 -137t-160 -56q-113 0 -179.5 69t-66.5 196q0 125 69.5 196.5t175.5 71.5q105 0 168.5 -67t63.5 -185zM279 414
q-38 0 -63.5 -26t-32.5 -76h189q-3 51 -28 76.5t-65 25.5z" />
    <glyph glyph-name="igrave" unicode="&#xec;" 
d="M-35 716h117l113 -152h-106zM57 513h144v-513h-144v513z" />
    <glyph glyph-name="iacute" unicode="&#xed;" 
d="M73 564l113 152h117l-125 -152h-105zM57 513h144v-513h-144v513z" />
    <glyph glyph-name="icircumflex" unicode="&#xee;" 
d="M-29 564l115 152h97l111 -152h-103l-59 80l-58 -80h-103zM57 513h144v-513h-144v513z" />
    <glyph glyph-name="idieresis" unicode="&#xef;" 
d="M-13 706h112v-117h-112v117zM163 706h112v-117h-112v117zM57 513h144v-513h-144v513z" />
    <glyph glyph-name="eth" unicode="&#xf0;" horiz-adv-x="564" 
d="M426 606q108 -127 108 -318q0 -137 -69.5 -217.5t-182.5 -80.5q-111 0 -180 62.5t-69 176.5q0 111 62.5 174t159.5 63q105 0 147 -87h2q-10 94 -77 176l-136 -70v92l76 39q-61 53 -148 104h166q45 -26 79 -54l129 67v-92zM283 95q48 0 78.5 36t30.5 99q0 61 -30.5 95
t-78.5 34t-78 -34.5t-30 -96.5q0 -63 30 -98t78 -35z" />
    <glyph glyph-name="ntilde" unicode="&#xf1;" horiz-adv-x="565" 
d="M234 707q36 0 71 -29q28 -24 46 -24q16 0 24.5 10.5t9.5 40.5h77q2 -63 -25.5 -100t-76.5 -37q-36 0 -71 29q-28 24 -46 24q-16 0 -24.5 -10.5t-9.5 -40.5h-77q-2 63 25.5 100t76.5 37zM57 513h142v-87h3q35 97 150 97q75 0 119 -44t44 -129v-350h-144v314
q0 41 -19.5 63.5t-55.5 22.5q-42 0 -68.5 -36t-26.5 -94v-270h-144v513z" />
    <glyph glyph-name="ograve" unicode="&#xf2;" horiz-adv-x="573" 
d="M122 716h117l113 -152h-106zM34 255q0 125 71.5 196.5t181.5 71.5q112 0 182 -69t70 -195q0 -125 -72.5 -197t-180.5 -72q-113 0 -182.5 69t-69.5 196zM392 258q0 70 -28.5 109t-76.5 39t-77 -38.5t-29 -109.5t28.5 -111t76.5 -40t77 40t29 111z" />
    <glyph glyph-name="oacute" unicode="&#xf3;" horiz-adv-x="573" 
d="M230 564l113 152h117l-125 -152h-105zM34 255q0 125 71.5 196.5t181.5 71.5q112 0 182 -69t70 -195q0 -125 -72.5 -197t-180.5 -72q-113 0 -182.5 69t-69.5 196zM392 258q0 70 -28.5 109t-76.5 39t-77 -38.5t-29 -109.5t28.5 -111t76.5 -40t77 40t29 111z" />
    <glyph glyph-name="ocircumflex" unicode="&#xf4;" horiz-adv-x="573" 
d="M128 564l115 152h97l111 -152h-103l-59 80l-58 -80h-103zM34 255q0 125 71.5 196.5t181.5 71.5q112 0 182 -69t70 -195q0 -125 -72.5 -197t-180.5 -72q-113 0 -182.5 69t-69.5 196zM392 258q0 70 -28.5 109t-76.5 39t-77 -38.5t-29 -109.5t28.5 -111t76.5 -40t77 40
t29 111z" />
    <glyph glyph-name="otilde" unicode="&#xf5;" horiz-adv-x="573" 
d="M225 707q36 0 71 -29q28 -24 46 -24q16 0 24.5 10.5t9.5 40.5h77q2 -63 -25.5 -100t-76.5 -37q-36 0 -71 29q-28 24 -46 24q-16 0 -24.5 -10.5t-9.5 -40.5h-77q-2 63 25.5 100t76.5 37zM34 255q0 125 71.5 196.5t181.5 71.5q112 0 182 -69t70 -195q0 -125 -72.5 -197
t-180.5 -72q-113 0 -182.5 69t-69.5 196zM392 258q0 70 -28.5 109t-76.5 39t-77 -38.5t-29 -109.5t28.5 -111t76.5 -40t77 40t29 111z" />
    <glyph glyph-name="odieresis" unicode="&#xf6;" horiz-adv-x="573" 
d="M144 706h112v-117h-112v117zM320 706h112v-117h-112v117zM34 255q0 125 71.5 196.5t181.5 71.5q112 0 182 -69t70 -195q0 -125 -72.5 -197t-180.5 -72q-113 0 -182.5 69t-69.5 196zM392 258q0 70 -28.5 109t-76.5 39t-77 -38.5t-29 -109.5t28.5 -111t76.5 -40t77 40
t29 111z" />
    <glyph glyph-name="divide" unicode="&#xf7;" horiz-adv-x="530" 
d="M186 506q0 31 20.5 51.5t52.5 20.5t52.5 -20.5t20.5 -51.5t-20.5 -51t-52.5 -20t-52.5 20t-20.5 51zM55 376h421v-102h-421v102zM186 142q0 31 21 51.5t52 20.5t52 -20.5t21 -51.5t-20.5 -51t-52.5 -20t-52.5 20t-20.5 51z" />
    <glyph glyph-name="oslash" unicode="&#xf8;" horiz-adv-x="573" 
d="M556 521l-71 -87q54 -68 54 -175q0 -125 -72.5 -197t-180.5 -72q-79 0 -135 34l-27 -33h-108l71 88q-53 69 -53 176q0 125 71.5 196.5t181.5 71.5q79 0 135 -34l26 32h108zM176 258q0 -37 7 -62l162 199q-24 18 -58 18q-51 0 -81 -40.5t-30 -114.5zM397 258q0 33 -6 60
l-163 -200q25 -19 58 -19q50 0 80.5 42t30.5 117z" />
    <glyph glyph-name="ugrave" unicode="&#xf9;" horiz-adv-x="555" 
d="M107 716h117l113 -152h-106zM50 163v350h144v-315q0 -85 68 -85q40 0 66 36t26 94v270h144v-513h-142v88h-3q-45 -98 -138 -98q-165 0 -165 173z" />
    <glyph glyph-name="uacute" unicode="&#xfa;" horiz-adv-x="555" 
d="M215 564l113 152h117l-125 -152h-105zM50 163v350h144v-315q0 -85 68 -85q40 0 66 36t26 94v270h144v-513h-142v88h-3q-45 -98 -138 -98q-165 0 -165 173z" />
    <glyph glyph-name="ucircumflex" unicode="&#xfb;" horiz-adv-x="555" 
d="M113 564l115 152h97l111 -152h-103l-59 80l-58 -80h-103zM50 163v350h144v-315q0 -85 68 -85q40 0 66 36t26 94v270h144v-513h-142v88h-3q-45 -98 -138 -98q-165 0 -165 173z" />
    <glyph glyph-name="udieresis" unicode="&#xfc;" horiz-adv-x="555" 
d="M129 706h112v-117h-112v117zM305 706h112v-117h-112v117zM50 163v350h144v-315q0 -85 68 -85q40 0 66 36t26 94v270h144v-513h-142v88h-3q-45 -98 -138 -98q-165 0 -165 173z" />
    <glyph glyph-name="yacute" unicode="&#xfd;" horiz-adv-x="538" 
d="M218 564l113 152h117l-125 -152h-105zM23 -214v118q36 -12 69 -12q38 0 56.5 15t33.5 54l11 29l-185 523h155l79 -258q25 -84 30 -105h3q11 48 27 105l75 258h153l-199 -539q-38 -102 -85.5 -152t-130.5 -50q-50 0 -92 14z" />
    <glyph glyph-name="thorn" unicode="&#xfe;" horiz-adv-x="594" 
d="M356 523q91 0 147.5 -67t56.5 -193t-59.5 -199.5t-158.5 -73.5q-54 0 -88.5 26.5t-48.5 62.5h-3v-294h-145v935h144v-213q0 -52 -1 -80h3q11 39 50.5 67.5t102.5 28.5zM303 103q51 0 80.5 41t29.5 112t-29 111t-77 40q-46 0 -76 -38.5t-30 -104.5v-30q0 -61 28.5 -96
t73.5 -35z" />
    <glyph glyph-name="ydieresis" unicode="&#xff;" horiz-adv-x="538" 
d="M132 706h112v-117h-112v117zM308 706h112v-117h-112v117zM23 -214v118q36 -12 69 -12q38 0 56.5 15t33.5 54l11 29l-185 523h155l79 -258q25 -84 30 -105h3q11 48 27 105l75 258h153l-199 -539q-38 -102 -85.5 -152t-130.5 -50q-50 0 -92 14z" />
    <glyph glyph-name="Amacron" unicode="&#x100;" horiz-adv-x="666" 
d="M470 832v-90h-271v90h271zM501 0l-48 139h-245l-48 -139h-150l242 670h164l240 -670h-155zM244 245h173l-54 157q-24 69 -31 96h-3q-6 -22 -31 -97z" />
    <glyph glyph-name="amacron" unicode="&#x101;" horiz-adv-x="537" 
d="M126 674h271v-90h-271v90zM28 132q0 50 24 84.5t69 52t95 24.5t117 8v34q0 83 -74 83q-34 0 -55 -18t-21 -50q0 -15 2 -27h-136q-1 10 -1 29q0 76 60 123.5t156 47.5q102 0 156 -50t54 -143v-166q0 -33 5.5 -45.5t20.5 -12.5q11 0 20 6v-104q-22 -16 -75 -16
q-56 0 -78.5 18t-28.5 60h-2q-43 -80 -150 -80q-76 0 -117 37t-41 105zM333 165v50q-84 -3 -122.5 -18t-38.5 -51q0 -51 63 -51q32 0 59 19t39 51z" />
    <glyph glyph-name="Abreve" unicode="&#x102;" horiz-adv-x="666" 
d="M335 718q-66 0 -102 38.5t-41 111.5h88q5 -34 18 -48.5t37 -14.5q47 0 57 63h87q-5 -73 -41.5 -111.5t-102.5 -38.5zM501 0l-48 139h-245l-48 -139h-150l242 670h164l240 -670h-155zM244 245h173l-54 157q-24 69 -31 96h-3q-6 -22 -31 -97z" />
    <glyph glyph-name="abreve" unicode="&#x103;" horiz-adv-x="537" 
d="M119 710h88q5 -34 18 -48.5t37 -14.5q47 0 57 63h87q-5 -73 -41.5 -111.5t-102.5 -38.5t-102 38.5t-41 111.5zM28 132q0 50 24 84.5t69 52t95 24.5t117 8v34q0 83 -74 83q-34 0 -55 -18t-21 -50q0 -15 2 -27h-136q-1 10 -1 29q0 76 60 123.5t156 47.5q102 0 156 -50
t54 -143v-166q0 -33 5.5 -45.5t20.5 -12.5q11 0 20 6v-104q-22 -16 -75 -16q-56 0 -78.5 18t-28.5 60h-2q-43 -80 -150 -80q-76 0 -117 37t-41 105zM333 165v50q-84 -3 -122.5 -18t-38.5 -51q0 -51 63 -51q32 0 59 19t39 51z" />
    <glyph glyph-name="Aogonek" unicode="&#x104;" horiz-adv-x="666" 
d="M617 -135q26 0 47 12v-81q-29 -13 -74 -13q-47 0 -81 25t-34 71q0 70 108 121h-82l-48 139h-245l-48 -139h-150l242 670h164l240 -670q-50 -31 -66 -52t-16 -42q0 -41 43 -41zM244 245h173l-54 157q-24 69 -31 96h-3q-6 -22 -31 -97z" />
    <glyph glyph-name="aogonek" unicode="&#x105;" horiz-adv-x="537" 
d="M481 -127q26 0 47 12v-81q-29 -13 -74 -13q-47 0 -81 25t-34 71q0 61 79 106q-40 4 -57 22t-23 55h-2q-43 -80 -150 -80q-76 0 -117 37t-41 105q0 50 24 84.5t69 52t95 24.5t117 8v34q0 83 -74 83q-34 0 -55 -18t-21 -50q0 -15 2 -27h-136q-1 10 -1 29q0 76 60 123.5
t156 47.5q102 0 156 -50t54 -143v-166q0 -33 5.5 -45.5t20.5 -12.5q11 0 20 6v-104l-3 -2q-48 -30 -63.5 -50.5t-15.5 -41.5q0 -41 43 -41zM333 165v50q-84 -3 -122.5 -18t-38.5 -51q0 -51 63 -51q32 0 59 19t39 51z" />
    <glyph glyph-name="Cacute" unicode="&#x106;" horiz-adv-x="679" 
d="M291 722l113 152h117l-125 -152h-105zM38 332q0 153 85.5 251.5t227.5 98.5q132 0 210 -79.5t82 -195.5h-149q-5 62 -40.5 104.5t-101.5 42.5q-73 0 -117 -62.5t-44 -159.5q0 -99 41.5 -157.5t117.5 -58.5q120 0 145 149h148q-9 -121 -86 -199t-206 -78q-149 0 -231 93
t-82 251z" />
    <glyph glyph-name="cacute" unicode="&#x107;" horiz-adv-x="549" 
d="M226 564l113 152h117l-125 -152h-105zM34 253q0 126 70.5 198t178.5 72q104 0 166.5 -62t64.5 -158h-142q-2 45 -24.5 74t-64.5 29q-46 0 -74 -39.5t-28 -111.5q0 -70 27.5 -109t72.5 -39q78 0 90 103h143q-8 -101 -69.5 -160.5t-164.5 -59.5q-110 0 -178 69t-68 194z
" />
    <glyph glyph-name="Ccircumflex" unicode="&#x108;" horiz-adv-x="679" 
d="M189 722l115 152h97l111 -152h-103l-59 80l-58 -80h-103zM38 332q0 153 85.5 251.5t227.5 98.5q132 0 210 -79.5t82 -195.5h-149q-5 62 -40.5 104.5t-101.5 42.5q-73 0 -117 -62.5t-44 -159.5q0 -99 41.5 -157.5t117.5 -58.5q120 0 145 149h148q-9 -121 -86 -199
t-206 -78q-149 0 -231 93t-82 251z" />
    <glyph glyph-name="ccircumflex" unicode="&#x109;" horiz-adv-x="549" 
d="M124 564l115 152h97l111 -152h-103l-59 80l-58 -80h-103zM34 253q0 126 70.5 198t178.5 72q104 0 166.5 -62t64.5 -158h-142q-2 45 -24.5 74t-64.5 29q-46 0 -74 -39.5t-28 -111.5q0 -70 27.5 -109t72.5 -39q78 0 90 103h143q-8 -101 -69.5 -160.5t-164.5 -59.5
q-110 0 -178 69t-68 194z" />
    <glyph glyph-name="Cdotaccent" unicode="&#x10a;" horiz-adv-x="679" 
d="M282 874h133v-127h-133v127zM38 332q0 153 85.5 251.5t227.5 98.5q132 0 210 -79.5t82 -195.5h-149q-5 62 -40.5 104.5t-101.5 42.5q-73 0 -117 -62.5t-44 -159.5q0 -99 41.5 -157.5t117.5 -58.5q120 0 145 149h148q-9 -121 -86 -199t-206 -78q-149 0 -231 93t-82 251z
" />
    <glyph glyph-name="cdotaccent" unicode="&#x10b;" horiz-adv-x="549" 
d="M217 716h133v-127h-133v127zM34 253q0 126 70.5 198t178.5 72q104 0 166.5 -62t64.5 -158h-142q-2 45 -24.5 74t-64.5 29q-46 0 -74 -39.5t-28 -111.5q0 -70 27.5 -109t72.5 -39q78 0 90 103h143q-8 -101 -69.5 -160.5t-164.5 -59.5q-110 0 -178 69t-68 194z" />
    <glyph glyph-name="Ccaron" unicode="&#x10c;" horiz-adv-x="679" 
d="M512 871l-114 -152h-97l-112 152h103l59 -80l58 80h103zM38 332q0 153 85.5 251.5t227.5 98.5q132 0 210 -79.5t82 -195.5h-149q-5 62 -40.5 104.5t-101.5 42.5q-73 0 -117 -62.5t-44 -159.5q0 -99 41.5 -157.5t117.5 -58.5q120 0 145 149h148q-9 -121 -86 -199t-206 -78
q-149 0 -231 93t-82 251z" />
    <glyph glyph-name="ccaron" unicode="&#x10d;" horiz-adv-x="549" 
d="M447 713l-114 -152h-97l-112 152h103l59 -80l58 80h103zM34 253q0 126 70.5 198t178.5 72q104 0 166.5 -62t64.5 -158h-142q-2 45 -24.5 74t-64.5 29q-46 0 -74 -39.5t-28 -111.5q0 -70 27.5 -109t72.5 -39q78 0 90 103h143q-8 -101 -69.5 -160.5t-164.5 -59.5
q-110 0 -178 69t-68 194z" />
    <glyph glyph-name="Dcaron" unicode="&#x10e;" horiz-adv-x="689" 
d="M480 871l-114 -152h-97l-112 152h103l59 -80l58 80h103zM68 670h259q153 0 238 -92.5t85 -236.5q0 -149 -87.5 -245t-241.5 -96h-253v670zM312 128q93 0 139.5 57.5t46.5 153.5q0 91 -46.5 147t-140.5 56h-94v-414h95z" />
    <glyph glyph-name="dcaron" unicode="&#x10f;" horiz-adv-x="660" 
d="M393 450v270h144v-720h-142v86h-3q-10 -39 -48.5 -67.5t-102.5 -28.5q-90 0 -148.5 68.5t-58.5 194.5q0 125 60 197.5t159 72.5q58 0 91.5 -22t45.5 -51h3zM599 720h104l-33 -196h-82zM393 248v29q0 62 -29 97.5t-73 35.5q-51 0 -80.5 -41t-29.5 -111q0 -73 29 -113
t77 -40q47 0 76.5 38t29.5 105z" />
    <glyph glyph-name="Dcroat" unicode="&#x110;" horiz-adv-x="693" 
d="M331 670q153 0 238 -92.5t85 -236.5q0 -149 -87.5 -245t-241.5 -96h-253v293h-59v101h59v276h259zM316 128q93 0 139.5 57.5t46.5 153.5q0 91 -46.5 147t-140.5 56h-94v-148h112v-101h-112v-165h95z" />
    <glyph glyph-name="dcroat" unicode="&#x111;" horiz-adv-x="597" 
d="M587 646v-88h-50v-558h-142v86h-3q-10 -39 -48.5 -67.5t-102.5 -28.5q-90 0 -148.5 68.5t-58.5 194.5q0 125 60 197.5t159 72.5q58 0 91.5 -22t45.5 -51h3v108h-156v88h156v74h144v-74h50zM393 248v29q0 62 -29 97.5t-73 35.5q-51 0 -80.5 -41t-29.5 -111q0 -73 29 -113
t77 -40q47 0 76.5 38t29.5 105z" />
    <glyph glyph-name="Emacron" unicode="&#x112;" horiz-adv-x="569" 
d="M446 832v-90h-271v90h271zM530 541h-313v-140h278v-125h-278v-147h313v-129h-462v670h462v-129z" />
    <glyph glyph-name="emacron" unicode="&#x113;" horiz-adv-x="544" 
d="M415 674v-90h-271v90h271zM511 271q0 -15 -2 -45h-329q3 -59 30 -88.5t72 -29.5q42 0 64 21t26 54h134q-5 -81 -66 -137t-160 -56q-113 0 -179.5 69t-66.5 196q0 125 69.5 196.5t175.5 71.5q105 0 168.5 -67t63.5 -185zM279 414q-38 0 -63.5 -26t-32.5 -76h189
q-3 51 -28 76.5t-65 25.5z" />
    <glyph glyph-name="Ebreve" unicode="&#x114;" horiz-adv-x="569" 
d="M311 718q-66 0 -102 38.5t-41 111.5h88q5 -34 18 -48.5t37 -14.5q47 0 57 63h87q-5 -73 -41.5 -111.5t-102.5 -38.5zM530 541h-313v-140h278v-125h-278v-147h313v-129h-462v670h462v-129z" />
    <glyph glyph-name="ebreve" unicode="&#x115;" horiz-adv-x="544" 
d="M280 560q-66 0 -102 38.5t-41 111.5h88q5 -34 18 -48.5t37 -14.5q47 0 57 63h87q-5 -73 -41.5 -111.5t-102.5 -38.5zM511 271q0 -15 -2 -45h-329q3 -59 30 -88.5t72 -29.5q42 0 64 21t26 54h134q-5 -81 -66 -137t-160 -56q-113 0 -179.5 69t-66.5 196q0 125 69.5 196.5
t175.5 71.5q105 0 168.5 -67t63.5 -185zM279 414q-38 0 -63.5 -26t-32.5 -76h189q-3 51 -28 76.5t-65 25.5z" />
    <glyph glyph-name="Edotaccent" unicode="&#x116;" horiz-adv-x="569" 
d="M377 874v-127h-133v127h133zM530 541h-313v-140h278v-125h-278v-147h313v-129h-462v670h462v-129z" />
    <glyph glyph-name="edotaccent" unicode="&#x117;" horiz-adv-x="544" 
d="M346 716v-127h-133v127h133zM511 271q0 -15 -2 -45h-329q3 -59 30 -88.5t72 -29.5q42 0 64 21t26 54h134q-5 -81 -66 -137t-160 -56q-113 0 -179.5 69t-66.5 196q0 125 69.5 196.5t175.5 71.5q105 0 168.5 -67t63.5 -185zM279 414q-38 0 -63.5 -26t-32.5 -76h189
q-3 51 -28 76.5t-65 25.5z" />
    <glyph glyph-name="Eogonek" unicode="&#x118;" horiz-adv-x="569" 
d="M491 -135q26 0 47 12v-81q-29 -13 -74 -13q-47 0 -81 25t-34 71q0 70 108 121h-389v670h462v-129h-313v-140h278v-125h-278v-147h313v-129q-50 -31 -66 -52t-16 -42q0 -41 43 -41z" />
    <glyph glyph-name="eogonek" unicode="&#x119;" horiz-adv-x="544" 
d="M511 271q0 -15 -2 -45h-329q3 -59 30 -88.5t72 -29.5q42 0 64 21t26 54h134q-3 -53 -32.5 -98t-79.5 -70q-58 -36 -76.5 -60.5t-18.5 -48.5q0 -41 43 -41q26 0 47 12v-81q-29 -13 -74 -13q-47 0 -81 25t-34 71q0 63 80 111q-113 0 -179.5 69t-66.5 196q0 125 69.5 196.5
t175.5 71.5q105 0 168.5 -67t63.5 -185zM279 414q-38 0 -63.5 -26t-32.5 -76h189q-3 51 -28 76.5t-65 25.5z" />
    <glyph glyph-name="Ecaron" unicode="&#x11a;" horiz-adv-x="569" 
d="M360 719h-97l-112 152h103l59 -80l58 80h103zM530 541h-313v-140h278v-125h-278v-147h313v-129h-462v670h462v-129z" />
    <glyph glyph-name="ecaron" unicode="&#x11b;" horiz-adv-x="544" 
d="M329 561h-97l-112 152h103l59 -80l58 80h103zM511 271q0 -15 -2 -45h-329q3 -59 30 -88.5t72 -29.5q42 0 64 21t26 54h134q-5 -81 -66 -137t-160 -56q-113 0 -179.5 69t-66.5 196q0 125 69.5 196.5t175.5 71.5q105 0 168.5 -67t63.5 -185zM279 414q-38 0 -63.5 -26
t-32.5 -76h189q-3 51 -28 76.5t-65 25.5z" />
    <glyph glyph-name="Gcircumflex" unicode="&#x11c;" horiz-adv-x="715" 
d="M361 802l-58 -80h-103l115 152h97l111 -152h-103zM376 356h280v-356h-112l-8 116q-53 -128 -196 -128q-134 0 -218 95t-84 250q0 152 89 250.5t232 98.5q132 0 210.5 -72.5t85.5 -178.5h-148q-6 56 -42.5 89.5t-101.5 33.5q-79 0 -126 -61.5t-47 -160.5q0 -98 46 -157
t129 -59q66 0 107 35.5t49 88.5h-145v116z" />
    <glyph glyph-name="gcircumflex" unicode="&#x11d;" horiz-adv-x="549" 
d="M273 644l-58 -80h-103l115 152h97l111 -152h-103zM360 109q91 0 135.5 -38.5t44.5 -108.5q0 -89 -76 -140t-202 -51q-118 0 -186 34t-68 99q0 44 30 69.5t66 33.5v3q-35 14 -51.5 33t-16.5 54q0 71 90 101q-81 48 -81 143q0 85 60.5 134t165.5 49q83 0 137 -31
q36 99 111 95q12 0 14 -1v-116q-48 4 -82 -13q40 -46 40 -112q0 -83 -60 -131.5t-164 -48.5q-40 0 -77 8q-22 -15 -22 -35q0 -30 44 -30h148zM271 429q-39 0 -62.5 -23t-23.5 -62q0 -38 22.5 -60t60.5 -22t61 22.5t23 59.5q0 39 -22 62t-59 23zM260 -132q70 0 105.5 20
t35.5 53q0 44 -66 44h-152q-36 -15 -36 -56q0 -61 113 -61z" />
    <glyph glyph-name="Gbreve" unicode="&#x11e;" horiz-adv-x="715" 
d="M360 718q-66 0 -102 38.5t-41 111.5h88q5 -34 18 -48.5t37 -14.5q47 0 57 63h87q-5 -73 -41.5 -111.5t-102.5 -38.5zM376 356h280v-356h-112l-8 116q-53 -128 -196 -128q-134 0 -218 95t-84 250q0 152 89 250.5t232 98.5q132 0 210.5 -72.5t85.5 -178.5h-148
q-6 56 -42.5 89.5t-101.5 33.5q-79 0 -126 -61.5t-47 -160.5q0 -98 46 -157t129 -59q66 0 107 35.5t49 88.5h-145v116z" />
    <glyph glyph-name="gbreve" unicode="&#x11f;" horiz-adv-x="549" 
d="M272 560q-66 0 -102 38.5t-41 111.5h88q5 -34 18 -48.5t37 -14.5q47 0 57 63h87q-5 -73 -41.5 -111.5t-102.5 -38.5zM360 109q91 0 135.5 -38.5t44.5 -108.5q0 -89 -76 -140t-202 -51q-118 0 -186 34t-68 99q0 44 30 69.5t66 33.5v3q-35 14 -51.5 33t-16.5 54
q0 71 90 101q-81 48 -81 143q0 85 60.5 134t165.5 49q83 0 137 -31q36 99 111 95q12 0 14 -1v-116q-48 4 -82 -13q40 -46 40 -112q0 -83 -60 -131.5t-164 -48.5q-40 0 -77 8q-22 -15 -22 -35q0 -30 44 -30h148zM271 429q-39 0 -62.5 -23t-23.5 -62q0 -38 22.5 -60t60.5 -22
t61 22.5t23 59.5q0 39 -22 62t-59 23zM260 -132q70 0 105.5 20t35.5 53q0 44 -66 44h-152q-36 -15 -36 -56q0 -61 113 -61z" />
    <glyph glyph-name="Gdotaccent" unicode="&#x120;" horiz-adv-x="715" 
d="M426 874v-127h-133v127h133zM376 356h280v-356h-112l-8 116q-53 -128 -196 -128q-134 0 -218 95t-84 250q0 152 89 250.5t232 98.5q132 0 210.5 -72.5t85.5 -178.5h-148q-6 56 -42.5 89.5t-101.5 33.5q-79 0 -126 -61.5t-47 -160.5q0 -98 46 -157t129 -59q66 0 107 35.5
t49 88.5h-145v116z" />
    <glyph glyph-name="gdotaccent" unicode="&#x121;" horiz-adv-x="549" 
d="M338 716v-127h-133v127h133zM360 109q91 0 135.5 -38.5t44.5 -108.5q0 -89 -76 -140t-202 -51q-118 0 -186 34t-68 99q0 44 30 69.5t66 33.5v3q-35 14 -51.5 33t-16.5 54q0 71 90 101q-81 48 -81 143q0 85 60.5 134t165.5 49q83 0 137 -31q36 99 111 95q12 0 14 -1v-116
q-48 4 -82 -13q40 -46 40 -112q0 -83 -60 -131.5t-164 -48.5q-40 0 -77 8q-22 -15 -22 -35q0 -30 44 -30h148zM271 429q-39 0 -62.5 -23t-23.5 -62q0 -38 22.5 -60t60.5 -22t61 22.5t23 59.5q0 39 -22 62t-59 23zM260 -132q70 0 105.5 20t35.5 53q0 44 -66 44h-152
q-36 -15 -36 -56q0 -61 113 -61z" />
    <glyph glyph-name="Gcommaaccent" unicode="&#x122;" horiz-adv-x="715" 
d="M376 356h280v-356h-112l-8 116q-53 -128 -196 -128q-134 0 -218 95t-84 250q0 152 89 250.5t232 98.5q132 0 210.5 -72.5t85.5 -178.5h-148q-6 56 -42.5 89.5t-101.5 33.5q-79 0 -126 -61.5t-47 -160.5q0 -98 46 -157t129 -59q66 0 107 35.5t49 88.5h-145v116zM306 -151
v97h116v-86l-51 -101h-64l38 90h-39z" />
    <glyph glyph-name="gcommaaccent" unicode="&#x123;" horiz-adv-x="549" 
d="M329 675v-97h-116v86l51 101h64l-37 -90h38zM360 109q91 0 135.5 -38.5t44.5 -108.5q0 -89 -76 -140t-202 -51q-118 0 -186 34t-68 99q0 44 30 69.5t66 33.5v3q-35 14 -51.5 33t-16.5 54q0 71 90 101q-81 48 -81 143q0 85 60.5 134t165.5 49q83 0 137 -31q36 99 111 95
q12 0 14 -1v-116q-48 4 -82 -13q40 -46 40 -112q0 -83 -60 -131.5t-164 -48.5q-40 0 -77 8q-22 -15 -22 -35q0 -30 44 -30h148zM271 429q-39 0 -62.5 -23t-23.5 -62q0 -38 22.5 -60t60.5 -22t61 22.5t23 59.5q0 39 -22 62t-59 23zM260 -132q70 0 105.5 20t35.5 53
q0 44 -66 44h-152q-36 -15 -36 -56q0 -61 113 -61z" />
    <glyph glyph-name="Hcircumflex" unicode="&#x124;" horiz-adv-x="693" 
d="M188 722l115 152h97l111 -152h-103l-59 80l-58 -80h-103zM68 670h149v-263h259v263h149v-670h-149v278h-259v-278h-149v670z" />
    <glyph glyph-name="hcircumflex" unicode="&#x125;" horiz-adv-x="565" 
d="M131 838l-58 -80h-103l115 152h97l111 -152h-103zM352 523q75 0 119 -44t44 -129v-350h-144v314q0 41 -19.5 63.5t-55.5 22.5q-42 0 -68.5 -36t-26.5 -94v-270h-144v720h144v-207q0 -29 -2 -87h3q35 97 150 97z" />
    <glyph glyph-name="Hbar" unicode="&#x126;" horiz-adv-x="701" 
d="M685 558v-100h-56v-458h-149v252h-259v-252h-149v458h-56v100h56v112h149v-112h259v112h149v-112h56zM480 372v86h-259v-86h259z" />
    <glyph glyph-name="hbar" unicode="&#x127;" horiz-adv-x="568" 
d="M355 523q75 0 119 -44t44 -129v-350h-144v314q0 41 -19.5 63.5t-55.5 22.5q-42 0 -68.5 -36t-26.5 -94v-270h-144v558h-50v88h50v74h144v-74h156v-88h-156v-45q0 -29 -2 -87h3q35 97 150 97z" />
    <glyph glyph-name="Itilde" unicode="&#x128;" horiz-adv-x="285" 
d="M80 865q36 0 71 -29q28 -24 46 -24q16 0 24.5 10.5t9.5 40.5h77q2 -63 -25.5 -100t-76.5 -37q-36 0 -71 29q-28 24 -46 24q-16 0 -24.5 -10.5t-9.5 -40.5h-77q-2 63 25.5 100t76.5 37zM68 670h149v-670h-149v670z" />
    <glyph glyph-name="itilde" unicode="&#x129;" 
d="M68 707q36 0 71 -29q28 -24 46 -24q16 0 24.5 10.5t9.5 40.5h77q2 -63 -25.5 -100t-76.5 -37q-36 0 -71 29q-28 24 -46 24q-16 0 -24.5 -10.5t-9.5 -40.5h-77q-2 63 25.5 100t76.5 37zM57 513h144v-513h-144v513z" />
    <glyph glyph-name="Imacron" unicode="&#x12a;" horiz-adv-x="285" 
d="M7 832h271v-90h-271v90zM68 670h149v-670h-149v670z" />
    <glyph glyph-name="imacron" unicode="&#x12b;" 
d="M-5 674h271v-90h-271v90zM57 513h144v-513h-144v513z" />
    <glyph glyph-name="Ibreve" unicode="&#x12c;" horiz-adv-x="285" 
d="M0 868h88q5 -34 18 -48.5t37 -14.5q47 0 57 63h87q-5 -73 -41.5 -111.5t-102.5 -38.5t-102 38.5t-41 111.5zM68 670h149v-670h-149v670z" />
    <glyph glyph-name="ibreve" unicode="&#x12d;" 
d="M-12 710h88q5 -34 18 -48.5t37 -14.5q47 0 57 63h87q-5 -73 -41.5 -111.5t-102.5 -38.5t-102 38.5t-41 111.5zM57 513h144v-513h-144v513z" />
    <glyph glyph-name="Iogonek" unicode="&#x12e;" horiz-adv-x="285" 
d="M178 -135q26 0 47 12v-81q-29 -13 -74 -13q-47 0 -81 25t-34 71q0 70 108 121h-76v670h149v-670q-50 -31 -66 -52t-16 -42q0 -41 43 -41z" />
    <glyph glyph-name="iogonek" unicode="&#x12f;" 
d="M202 720v-138h-146v138h146zM162 -135q26 0 47 12v-81q-29 -13 -74 -13q-47 0 -81 25t-34 71q0 70 108 121h-71v513h144v-513q-50 -31 -66 -52t-16 -42q0 -41 43 -41z" />
    <glyph glyph-name="Idotaccent" unicode="&#x130;" horiz-adv-x="285" 
d="M76 874h133v-127h-133v127zM68 670h149v-670h-149v670z" />
    <glyph glyph-name="dotlessi" unicode="&#x131;" 
d="M57 513h144v-513h-144v513z" />
    <glyph glyph-name="IJ" unicode="&#x132;" horiz-adv-x="670" 
d="M65 226h149q4 -113 114 -113q128 0 128 143v414h149v-429q0 -123 -73 -188t-200 -65q-271 0 -267 238zM65 670h149v-352h-149v352z" />
    <glyph glyph-name="ij" unicode="&#x133;" horiz-adv-x="516" 
d="M56 720h146v-138h-146v138zM314 720h146v-138h-146v138zM57 513h144v-513h-144v513zM230 -218v117q15 -4 33 -4q52 0 52 68v550h144v-558q0 -178 -170 -178q-39 0 -59 5z" />
    <glyph glyph-name="Jcircumflex" unicode="&#x134;" horiz-adv-x="572" 
d="M161 722l115 152h97l111 -152h-103l-59 80l-58 -80h-103zM30 254h142q-11 -141 91 -141q96 0 96 121v307h-237v129h386v-442q0 -113 -62.5 -176.5t-177.5 -63.5q-116 0 -182.5 61.5t-55.5 204.5z" />
    <glyph glyph-name="jcircumflex" unicode="&#x135;" 
d="M-30 564l115 152h97l111 -152h-103l-59 80l-58 -80h-103zM-28 -218v117q15 -4 33 -4q52 0 52 68v550h144v-556q0 -96 -44 -138t-126 -42q-39 0 -59 5z" />
    <glyph glyph-name="Kcommaaccent" unicode="&#x136;" horiz-adv-x="672" 
d="M417 389l247 -389h-175l-177 282l-95 -114v-168h-149v670h149v-313h4q21 29 59 74l196 239h168zM293 -151v97h116v-86l-51 -101h-64l38 90h-39z" />
    <glyph glyph-name="kcommaaccent" unicode="&#x137;" horiz-adv-x="553" 
d="M372 308l173 -308h-166l-113 210l-65 -68v-142h-144v720h144v-416h3q21 26 44 53l133 156h158zM227 -151v97h116v-86l-51 -101h-64l38 90h-39z" />
    <glyph glyph-name="Lacute" unicode="&#x139;" horiz-adv-x="522" 
d="M316 874l-125 -152h-105l113 152h117zM217 130h285v-130h-434v670h149v-540z" />
    <glyph glyph-name="lacute" unicode="&#x13a;" 
d="M71 758l113 152h117l-125 -152h-105zM57 720h144v-720h-144v720z" />
    <glyph glyph-name="Lcommaaccent" unicode="&#x13b;" horiz-adv-x="522" 
d="M217 130h285v-130h-434v670h149v-540zM232 -151v97h116v-86l-51 -101h-64l38 90h-39z" />
    <glyph glyph-name="lcommaaccent" unicode="&#x13c;" 
d="M57 720h144v-720h-144v720zM72 -151v97h116v-86l-51 -101h-64l38 90h-39z" />
    <glyph glyph-name="Lcaron" unicode="&#x13d;" horiz-adv-x="522" 
d="M416 671l-33 -196h-82l11 196h104zM217 130h285v-130h-434v670h149v-540z" />
    <glyph glyph-name="lcaron" unicode="&#x13e;" horiz-adv-x="324" 
d="M57 720h144v-720h-144v720zM263 720h104l-33 -196h-82z" />
    <glyph glyph-name="Ldot" unicode="&#x13f;" horiz-adv-x="522" 
d="M217 130h285v-130h-434v670h149v-540zM470 437v-127h-133v127h133z" />
    <glyph glyph-name="ldot" unicode="&#x140;" horiz-adv-x="407" 
d="M57 720h144v-720h-144v720zM266 429h133v-127h-133v127z" />
    <glyph glyph-name="Lslash" unicode="&#x141;" horiz-adv-x="526" 
d="M221 130h285v-130h-434v263l-63 -30v103l63 30v304h149v-232l121 59v-104l-121 -58v-205z" />
    <glyph glyph-name="lslash" unicode="&#x142;" horiz-adv-x="274" 
d="M269 501v-100l-60 -36v-365h-144v278l-60 -36v100l60 36v342h144v-255z" />
    <glyph glyph-name="Nacute" unicode="&#x143;" horiz-adv-x="689" 
d="M298 722l113 152h117l-125 -152h-105zM68 670h147l264 -415h3v415h139v-670h-147l-264 423h-3v-423h-139v670z" />
    <glyph glyph-name="nacute" unicode="&#x144;" horiz-adv-x="565" 
d="M239 564l113 152h117l-125 -152h-105zM57 513h142v-87h3q35 97 150 97q75 0 119 -44t44 -129v-350h-144v314q0 41 -19.5 63.5t-55.5 22.5q-42 0 -68.5 -36t-26.5 -94v-270h-144v513z" />
    <glyph glyph-name="Ncommaaccent" unicode="&#x145;" horiz-adv-x="689" 
d="M482 670h139v-670h-147l-264 423h-3v-423h-139v670h147l264 -415h3v415zM284 -151v97h116v-86l-51 -101h-64l38 90h-39z" />
    <glyph glyph-name="ncommaaccent" unicode="&#x146;" horiz-adv-x="565" 
d="M352 523q75 0 119 -44t44 -129v-350h-144v314q0 41 -19.5 63.5t-55.5 22.5q-42 0 -68.5 -36t-26.5 -94v-270h-144v513h142v-87h3q35 97 150 97zM228 -151v97h116v-86l-51 -101h-64l38 90h-39z" />
    <glyph glyph-name="Ncaron" unicode="&#x147;" horiz-adv-x="689" 
d="M519 871l-114 -152h-97l-112 152h103l59 -80l58 80h103zM68 670h147l264 -415h3v415h139v-670h-147l-264 423h-3v-423h-139v670z" />
    <glyph glyph-name="ncaron" unicode="&#x148;" horiz-adv-x="565" 
d="M460 713l-114 -152h-97l-112 152h103l59 -80l58 80h103zM57 513h142v-87h3q35 97 150 97q75 0 119 -44t44 -129v-350h-144v314q0 41 -19.5 63.5t-55.5 22.5q-42 0 -68.5 -36t-26.5 -94v-270h-144v513z" />
    <glyph glyph-name="Eng" unicode="&#x14a;" horiz-adv-x="689" 
d="M482 670h139v-707q0 -100 -47 -143t-138 -43q-21 0 -44 5v116q18 -4 32 -4q52 0 52 52v30q0 19 -8 33l-258 414h-3v-423h-139v670h147l264 -415h3v415z" />
    <glyph glyph-name="eng" unicode="&#x14b;" horiz-adv-x="572" 
d="M352 523q75 0 119 -44t44 -129v-395q0 -178 -170 -178q-39 0 -59 5v117q15 -4 33 -4q52 0 52 68v351q0 41 -19.5 63.5t-55.5 22.5q-42 0 -68.5 -36t-26.5 -94v-270h-144v513h142v-87h3q35 97 150 97z" />
    <glyph glyph-name="Omacron" unicode="&#x14c;" horiz-adv-x="705" 
d="M219 832h271v-90h-271v90zM38 332q0 156 85.5 253t230.5 97q143 0 228 -96.5t85 -247.5q0 -157 -85.5 -253.5t-230.5 -96.5q-143 0 -228 97t-85 247zM514 335q0 97 -42.5 158t-117.5 61q-77 0 -120 -61.5t-43 -157.5t43 -157.5t118 -61.5q76 0 119 61.5t43 157.5z" />
    <glyph glyph-name="omacron" unicode="&#x14d;" horiz-adv-x="573" 
d="M152 674h271v-90h-271v90zM34 255q0 125 71.5 196.5t181.5 71.5q112 0 182 -69t70 -195q0 -125 -72.5 -197t-180.5 -72q-113 0 -182.5 69t-69.5 196zM392 258q0 70 -28.5 109t-76.5 39t-77 -38.5t-29 -109.5t28.5 -111t76.5 -40t77 40t29 111z" />
    <glyph glyph-name="Obreve" unicode="&#x14e;" horiz-adv-x="705" 
d="M212 868h88q5 -34 18 -48.5t37 -14.5q47 0 57 63h87q-5 -73 -41.5 -111.5t-102.5 -38.5t-102 38.5t-41 111.5zM38 332q0 156 85.5 253t230.5 97q143 0 228 -96.5t85 -247.5q0 -157 -85.5 -253.5t-230.5 -96.5q-143 0 -228 97t-85 247zM514 335q0 97 -42.5 158t-117.5 61
q-77 0 -120 -61.5t-43 -157.5t43 -157.5t118 -61.5q76 0 119 61.5t43 157.5z" />
    <glyph glyph-name="obreve" unicode="&#x14f;" horiz-adv-x="573" 
d="M145 710h88q5 -34 18 -48.5t37 -14.5q47 0 57 63h87q-5 -73 -41.5 -111.5t-102.5 -38.5t-102 38.5t-41 111.5zM34 255q0 125 71.5 196.5t181.5 71.5q112 0 182 -69t70 -195q0 -125 -72.5 -197t-180.5 -72q-113 0 -182.5 69t-69.5 196zM392 258q0 70 -28.5 109t-76.5 39
t-77 -38.5t-29 -109.5t28.5 -111t76.5 -40t77 40t29 111z" />
    <glyph glyph-name="Ohungarumlaut" unicode="&#x150;" horiz-adv-x="705" 
d="M217 722l108 152h108l-120 -152h-96zM385 722l108 152h107l-119 -152h-96zM38 332q0 156 85.5 253t230.5 97q143 0 228 -96.5t85 -247.5q0 -157 -85.5 -253.5t-230.5 -96.5q-143 0 -228 97t-85 247zM514 335q0 97 -42.5 158t-117.5 61q-77 0 -120 -61.5t-43 -157.5
t43 -157.5t118 -61.5q76 0 119 61.5t43 157.5z" />
    <glyph glyph-name="ohungarumlaut" unicode="&#x151;" horiz-adv-x="573" 
d="M150 564l108 152h108l-120 -152h-96zM318 564l108 152h107l-119 -152h-96zM34 255q0 125 71.5 196.5t181.5 71.5q112 0 182 -69t70 -195q0 -125 -72.5 -197t-180.5 -72q-113 0 -182.5 69t-69.5 196zM392 258q0 70 -28.5 109t-76.5 39t-77 -38.5t-29 -109.5t28.5 -111
t76.5 -40t77 40t29 111z" />
    <glyph glyph-name="OE" unicode="&#x152;" horiz-adv-x="957" 
d="M918 541h-313v-140h278v-125h-278v-147h313v-129h-420q-65 -12 -119 -12q-158 0 -249.5 94t-91.5 247q0 157 94 255t254 98q42 0 118 -12h414v-129zM190 332q0 -98 49.5 -157t139.5 -59q42 0 77 8v422q-28 8 -72 8q-91 0 -142.5 -62.5t-51.5 -159.5z" />
    <glyph glyph-name="oe" unicode="&#x153;" horiz-adv-x="890" 
d="M857 271q0 -15 -2 -45h-329q3 -59 30 -88.5t72 -29.5q42 0 64 21t26 54h134q-5 -81 -66 -137t-160 -56q-114 0 -171 71q-63 -71 -169 -71q-112 0 -182 69.5t-70 195.5q0 125 71.5 196.5t181.5 71.5q113 0 173 -71q60 71 165 71t168.5 -67t63.5 -185zM625 414
q-37 0 -62 -24t-33 -71h188q-5 48 -30 71.5t-63 23.5zM286 107q48 0 77 40t29 111q0 70 -28.5 109t-76.5 39t-77 -38.5t-29 -109.5t28.5 -111t76.5 -40z" />
    <glyph glyph-name="Racute" unicode="&#x154;" horiz-adv-x="643" 
d="M474 874l-125 -152h-105l113 152h117zM618 0h-169l-122 224h-110v-224h-149v670h286q114 0 180.5 -57t66.5 -153q0 -71 -34 -124.5t-94 -81.5zM217 541v-194h124q52 0 80 26.5t28 74.5q0 45 -28 69t-80 24h-124z" />
    <glyph glyph-name="racute" unicode="&#x155;" horiz-adv-x="400" 
d="M196 564l113 152h117l-125 -152h-105zM57 513h141v-104h3q16 52 50 82t85 30q29 0 50 -5v-148q-33 9 -62 9q-53 0 -88 -37t-35 -113v-227h-144v513z" />
    <glyph glyph-name="Rcommaaccent" unicode="&#x156;" horiz-adv-x="643" 
d="M473 254l145 -254h-169l-122 224h-110v-224h-149v670h286q114 0 180.5 -57t66.5 -153q0 -71 -34 -124.5t-94 -81.5zM217 541v-194h124q52 0 80 26.5t28 74.5q0 45 -28 69t-80 24h-124zM264 -151v97h116v-86l-51 -101h-64l38 90h-39z" />
    <glyph glyph-name="rcommaaccent" unicode="&#x157;" horiz-adv-x="400" 
d="M336 521q29 0 50 -5v-148q-33 9 -62 9q-53 0 -88 -37t-35 -113v-227h-144v513h141v-104h3q16 52 50 82t85 30zM72 -151v97h116v-86l-51 -101h-64l38 90h-39z" />
    <glyph glyph-name="Rcaron" unicode="&#x158;" horiz-adv-x="643" 
d="M351 719h-97l-112 152h103l59 -80l58 80h103zM618 0h-169l-122 224h-110v-224h-149v670h286q114 0 180.5 -57t66.5 -153q0 -71 -34 -124.5t-94 -81.5zM217 541v-194h124q52 0 80 26.5t28 74.5q0 45 -28 69t-80 24h-124z" />
    <glyph glyph-name="rcaron" unicode="&#x159;" horiz-adv-x="400" 
d="M417 713l-114 -152h-97l-112 152h103l59 -80l58 80h103zM57 513h141v-104h3q16 52 50 82t85 30q29 0 50 -5v-148q-33 9 -62 9q-53 0 -88 -37t-35 -113v-227h-144v513z" />
    <glyph glyph-name="Sacute" unicode="&#x15a;" horiz-adv-x="610" 
d="M242 722l113 152h117l-125 -152h-105zM37 220h149q-2 -59 30 -86.5t94 -27.5q55 0 83 21t28 59t-31.5 56.5t-113.5 33.5q-110 19 -170 64t-60 139q0 98 71 150.5t183 52.5q117 0 190.5 -58t68.5 -163h-147q1 50 -29 76.5t-88 26.5q-47 0 -74 -20.5t-27 -54.5
q0 -39 31.5 -58t106.5 -32q123 -21 181.5 -63t58.5 -134q0 -100 -71 -157t-197 -57q-129 0 -201 61t-66 171z" />
    <glyph glyph-name="sacute" unicode="&#x15b;" horiz-adv-x="494" 
d="M190 564l113 152h117l-125 -152h-105zM29 160h139q3 -68 80 -68q36 0 56.5 13t20.5 33q0 27 -17 38t-70 25q-40 11 -58 16t-47.5 15.5t-42.5 21t-28.5 26.5t-21 37t-5.5 48q0 71 59.5 114.5t152.5 43.5q103 0 158.5 -43.5t50.5 -123.5h-133q0 67 -73 67q-33 0 -54 -12.5
t-21 -32.5q0 -26 18.5 -37.5t65.5 -23.5q55 -13 86.5 -23t62 -28t44 -44.5t13.5 -64.5q0 -77 -61 -122t-161 -45q-101 0 -157.5 43.5t-56.5 126.5z" />
    <glyph glyph-name="Scircumflex" unicode="&#x15c;" horiz-adv-x="610" 
d="M140 722l115 152h97l111 -152h-103l-59 80l-58 -80h-103zM37 220h149q-2 -59 30 -86.5t94 -27.5q55 0 83 21t28 59t-31.5 56.5t-113.5 33.5q-110 19 -170 64t-60 139q0 98 71 150.5t183 52.5q117 0 190.5 -58t68.5 -163h-147q1 50 -29 76.5t-88 26.5q-47 0 -74 -20.5
t-27 -54.5q0 -39 31.5 -58t106.5 -32q123 -21 181.5 -63t58.5 -134q0 -100 -71 -157t-197 -57q-129 0 -201 61t-66 171z" />
    <glyph glyph-name="scircumflex" unicode="&#x15d;" horiz-adv-x="494" 
d="M88 564l115 152h97l111 -152h-103l-59 80l-58 -80h-103zM29 160h139q3 -68 80 -68q36 0 56.5 13t20.5 33q0 27 -17 38t-70 25q-40 11 -58 16t-47.5 15.5t-42.5 21t-28.5 26.5t-21 37t-5.5 48q0 71 59.5 114.5t152.5 43.5q103 0 158.5 -43.5t50.5 -123.5h-133q0 67 -73 67
q-33 0 -54 -12.5t-21 -32.5q0 -26 18.5 -37.5t65.5 -23.5q55 -13 86.5 -23t62 -28t44 -44.5t13.5 -64.5q0 -77 -61 -122t-161 -45q-101 0 -157.5 43.5t-56.5 126.5z" />
    <glyph glyph-name="Scedilla" unicode="&#x15e;" horiz-adv-x="610" 
d="M572 202q0 -94 -63.5 -150.5t-176.5 -62.5l-12 -28h15q82 -5 82 -69q0 -45 -33 -68.5t-79 -23.5q-48 0 -83 15l9 67q25 -16 56 -16q35 0 35 30q0 35 -73 32l23 61q-114 8 -177 68t-58 163h149q-2 -59 30 -86.5t94 -27.5q55 0 83 21t28 59t-31.5 56.5t-113.5 33.5
q-110 19 -170 64t-60 139q0 98 71 150.5t183 52.5q117 0 190.5 -58t68.5 -163h-147q1 50 -29 76.5t-88 26.5q-47 0 -74 -20.5t-27 -54.5q0 -39 31.5 -58t106.5 -32q123 -21 181.5 -63t58.5 -134z" />
    <glyph glyph-name="scedilla" unicode="&#x15f;" horiz-adv-x="494" 
d="M465 157q0 -71 -52 -115t-140 -51l-13 -30h15q82 -5 82 -69q0 -45 -33 -68.5t-79 -23.5q-48 0 -83 15l9 67q25 -16 56 -16q35 0 35 30q0 35 -73 32l24 63q-87 6 -135.5 49.5t-48.5 119.5h139q3 -68 80 -68q36 0 56.5 13t20.5 33q0 27 -17 38t-70 25q-40 11 -58 16
t-47.5 15.5t-42.5 21t-28.5 26.5t-21 37t-5.5 48q0 71 59.5 114.5t152.5 43.5q103 0 158.5 -43.5t50.5 -123.5h-133q0 67 -73 67q-33 0 -54 -12.5t-21 -32.5q0 -26 18.5 -37.5t65.5 -23.5q55 -13 86.5 -23t62 -28t44 -44.5t13.5 -64.5z" />
    <glyph glyph-name="Scaron" unicode="&#x160;" horiz-adv-x="610" 
d="M463 871l-114 -152h-97l-112 152h103l59 -80l58 80h103zM37 220h149q-2 -59 30 -86.5t94 -27.5q55 0 83 21t28 59t-31.5 56.5t-113.5 33.5q-110 19 -170 64t-60 139q0 98 71 150.5t183 52.5q117 0 190.5 -58t68.5 -163h-147q1 50 -29 76.5t-88 26.5q-47 0 -74 -20.5
t-27 -54.5q0 -39 31.5 -58t106.5 -32q123 -21 181.5 -63t58.5 -134q0 -100 -71 -157t-197 -57q-129 0 -201 61t-66 171z" />
    <glyph glyph-name="scaron" unicode="&#x161;" horiz-adv-x="494" 
d="M411 713l-114 -152h-97l-112 152h103l59 -80l58 80h103zM29 160h139q3 -68 80 -68q36 0 56.5 13t20.5 33q0 27 -17 38t-70 25q-40 11 -58 16t-47.5 15.5t-42.5 21t-28.5 26.5t-21 37t-5.5 48q0 71 59.5 114.5t152.5 43.5q103 0 158.5 -43.5t50.5 -123.5h-133q0 67 -73 67
q-33 0 -54 -12.5t-21 -32.5q0 -26 18.5 -37.5t65.5 -23.5q55 -13 86.5 -23t62 -28t44 -44.5t13.5 -64.5q0 -77 -61 -122t-161 -45q-101 0 -157.5 43.5t-56.5 126.5z" />
    <glyph glyph-name="uni0162" unicode="&#x162;" horiz-adv-x="583" 
d="M15 670h553v-130h-202v-540h-149v540h-202v130zM234 -151v97h116v-86l-51 -101h-64l38 90h-39z" />
    <glyph glyph-name="uni0163" unicode="&#x163;" horiz-adv-x="364" 
d="M344 396h-121v-214q0 -40 14 -55.5t46 -15.5q35 0 61 14v-118q-42 -18 -99 -18q-89 0 -127.5 39t-38.5 129v239h-64v111h21q31 0 41.5 14t10.5 57v92h135v-157h121v-117zM173 -151v97h116v-86l-51 -101h-64l38 90h-39z" />
    <glyph glyph-name="Tcaron" unicode="&#x164;" horiz-adv-x="583" 
d="M455 871l-114 -152h-97l-112 152h103l59 -80l58 80h103zM217 540h-202v130h553v-130h-202v-540h-149v540z" />
    <glyph glyph-name="tcaron" unicode="&#x165;" horiz-adv-x="364" 
d="M297 752h104l-33 -196h-82zM79 157v239h-64v111h21q31 0 41.5 14t10.5 57v92h135v-157h121v-117h-121v-214q0 -40 14 -55.5t46 -15.5q35 0 61 14v-118q-42 -18 -99 -18q-89 0 -127.5 39t-38.5 129z" />
    <glyph glyph-name="Tbar" unicode="&#x166;" horiz-adv-x="583" 
d="M568 540h-202v-174h105v-101h-105v-265h-149v265h-105v101h105v174h-202v130h553v-130z" />
    <glyph glyph-name="tbar" unicode="&#x167;" horiz-adv-x="374" 
d="M349 396h-121v-76h112v-88h-112v-50q0 -40 14 -55.5t46 -15.5q35 0 61 14v-118q-42 -18 -99 -18q-89 0 -127.5 39t-38.5 129v75h-61v88h61v76h-64v111h21q31 0 41.5 14t10.5 57v92h135v-157h121v-117z" />
    <glyph glyph-name="Utilde" unicode="&#x168;" horiz-adv-x="681" 
d="M279 865q36 0 71 -29q28 -24 46 -24q16 0 24.5 10.5t9.5 40.5h77q2 -63 -25.5 -100t-76.5 -37q-36 0 -71 29q-28 24 -46 24q-16 0 -24.5 -10.5t-9.5 -40.5h-77q-2 63 25.5 100t76.5 37zM64 250v420h149v-401q0 -150 129 -150q62 0 94 38.5t32 108.5v404h149v-422
q0 -118 -72.5 -189t-202.5 -71q-138 0 -208 70t-70 192z" />
    <glyph glyph-name="utilde" unicode="&#x169;" horiz-adv-x="555" 
d="M210 707q36 0 71 -29q28 -24 46 -24q16 0 24.5 10.5t9.5 40.5h77q2 -63 -25.5 -100t-76.5 -37q-36 0 -71 29q-28 24 -46 24q-16 0 -24.5 -10.5t-9.5 -40.5h-77q-2 63 25.5 100t76.5 37zM50 163v350h144v-315q0 -85 68 -85q40 0 66 36t26 94v270h144v-513h-142v88h-3
q-45 -98 -138 -98q-165 0 -165 173z" />
    <glyph glyph-name="Umacron" unicode="&#x16a;" horiz-adv-x="681" 
d="M206 832h271v-90h-271v90zM64 250v420h149v-401q0 -150 129 -150q62 0 94 38.5t32 108.5v404h149v-422q0 -118 -72.5 -189t-202.5 -71q-138 0 -208 70t-70 192z" />
    <glyph glyph-name="umacron" unicode="&#x16b;" horiz-adv-x="555" 
d="M137 674h271v-90h-271v90zM50 163v350h144v-315q0 -85 68 -85q40 0 66 36t26 94v270h144v-513h-142v88h-3q-45 -98 -138 -98q-165 0 -165 173z" />
    <glyph glyph-name="Ubreve" unicode="&#x16c;" horiz-adv-x="681" 
d="M199 868h88q5 -34 18 -48.5t37 -14.5q47 0 57 63h87q-5 -73 -41.5 -111.5t-102.5 -38.5t-102 38.5t-41 111.5zM64 250v420h149v-401q0 -150 129 -150q62 0 94 38.5t32 108.5v404h149v-422q0 -118 -72.5 -189t-202.5 -71q-138 0 -208 70t-70 192z" />
    <glyph glyph-name="ubreve" unicode="&#x16d;" horiz-adv-x="555" 
d="M130 710h88q5 -34 18 -48.5t37 -14.5q47 0 57 63h87q-5 -73 -41.5 -111.5t-102.5 -38.5t-102 38.5t-41 111.5zM50 163v350h144v-315q0 -85 68 -85q40 0 66 36t26 94v270h144v-513h-142v88h-3q-45 -98 -138 -98q-165 0 -165 173z" />
    <glyph glyph-name="Uring" unicode="&#x16e;" horiz-adv-x="681" 
d="M225 808q0 45 33.5 74.5t83.5 29.5t83.5 -30t33.5 -74q0 -46 -33 -75t-84 -29q-50 0 -83.5 29.5t-33.5 74.5zM385 808q0 19 -12 31t-31 12t-31 -12t-12 -31t12 -31t31 -12t31 12t12 31zM64 250v420h149v-401q0 -150 129 -150q62 0 94 38.5t32 108.5v404h149v-422
q0 -118 -72.5 -189t-202.5 -71q-138 0 -208 70t-70 192z" />
    <glyph glyph-name="uring" unicode="&#x16f;" horiz-adv-x="555" 
d="M156 650q0 45 33.5 74.5t83.5 29.5t83.5 -30t33.5 -74q0 -46 -33 -75t-84 -29q-50 0 -83.5 29.5t-33.5 74.5zM316 650q0 19 -12 31t-31 12t-31 -12t-12 -31t12 -31t31 -12t31 12t12 31zM50 163v350h144v-315q0 -85 68 -85q40 0 66 36t26 94v270h144v-513h-142v88h-3
q-45 -98 -138 -98q-165 0 -165 173z" />
    <glyph glyph-name="Uhungarumlaut" unicode="&#x170;" horiz-adv-x="681" 
d="M204 722l108 152h108l-120 -152h-96zM372 722l108 152h107l-119 -152h-96zM64 250v420h149v-401q0 -150 129 -150q62 0 94 38.5t32 108.5v404h149v-422q0 -118 -72.5 -189t-202.5 -71q-138 0 -208 70t-70 192z" />
    <glyph glyph-name="uhungarumlaut" unicode="&#x171;" horiz-adv-x="555" 
d="M135 564l108 152h108l-120 -152h-96zM303 564l108 152h107l-119 -152h-96zM50 163v350h144v-315q0 -85 68 -85q40 0 66 36t26 94v270h144v-513h-142v88h-3q-45 -98 -138 -98q-165 0 -165 173z" />
    <glyph glyph-name="Uogonek" unicode="&#x172;" horiz-adv-x="681" 
d="M468 670h149v-422q0 -79 -33 -138.5t-96 -90.5q-62 -36 -83 -62t-21 -51q0 -41 43 -41q26 0 47 12v-81q-29 -13 -74 -13q-47 0 -81 25t-34 71q0 60 79 110q-7 -1 -22 -1q-138 0 -208 70t-70 192v420h149v-401q0 -150 129 -150q62 0 94 38.5t32 108.5v404z" />
    <glyph glyph-name="uogonek" unicode="&#x173;" horiz-adv-x="555" 
d="M459 -135q26 0 47 12v-81q-29 -13 -74 -13q-47 0 -81 25t-34 71q0 70 108 121h-69v88h-3q-45 -98 -138 -98q-165 0 -165 173v350h144v-315q0 -85 68 -85q40 0 66 36t26 94v270h144v-513q-50 -31 -66 -52t-16 -42q0 -41 43 -41z" />
    <glyph glyph-name="Wcircumflex" unicode="&#x174;" horiz-adv-x="941" 
d="M307 722l115 152h97l111 -152h-103l-59 80l-58 -80h-103zM15 670h148l85 -360q21 -85 28 -142h4q8 59 26 141l81 361h173l82 -362q18 -78 26 -141h3q8 55 28 140l84 363h143l-165 -670h-181l-78 341q-17 70 -27 139h-4q-10 -56 -30 -138l-81 -342h-181z" />
    <glyph glyph-name="wcircumflex" unicode="&#x175;" horiz-adv-x="820" 
d="M249 564l115 152h97l111 -152h-103l-59 80l-58 -80h-103zM805 513l-143 -513h-165l-65 242q-15 59 -22 104h-3q-11 -56 -23 -103l-61 -243h-165l-143 513h141l65 -259q11 -43 22 -103h3q7 43 23 102l66 260h155l65 -259q11 -43 22 -103h3q7 43 23 102l66 260h136z" />
    <glyph glyph-name="Ycircumflex" unicode="&#x176;" horiz-adv-x="617" 
d="M311 802l-58 -80h-103l115 152h97l111 -152h-103zM622 670l-238 -412v-258h-149v256l-240 414h167l148 -262h4l147 262h161z" />
    <glyph glyph-name="ycircumflex" unicode="&#x177;" horiz-adv-x="538" 
d="M116 564l115 152h97l111 -152h-103l-59 80l-58 -80h-103zM23 -214v118q36 -12 69 -12q38 0 56.5 15t33.5 54l11 29l-185 523h155l79 -258q25 -84 30 -105h3q11 48 27 105l75 258h153l-199 -539q-38 -102 -85.5 -152t-130.5 -50q-50 0 -92 14z" />
    <glyph glyph-name="Ydieresis" unicode="&#x178;" horiz-adv-x="617" 
d="M278 864v-117h-112v117h112zM454 864v-117h-112v117h112zM622 670l-238 -412v-258h-149v256l-240 414h167l148 -262h4l147 262h161z" />
    <glyph glyph-name="Zacute" unicode="&#x179;" horiz-adv-x="581" 
d="M232 722l113 152h117l-125 -152h-105zM31 118l269 347q37 48 62 75v2q-29 -1 -87 -1h-236v129h505v-119l-270 -346q-28 -38 -60 -74v-3q12 0 38.5 0.5t39.5 0.5h258v-129h-519v118z" />
    <glyph glyph-name="zacute" unicode="&#x17a;" horiz-adv-x="468" 
d="M183 564l113 152h117l-125 -152h-105zM24 100l183 235q34 44 51 60v2q-22 -1 -60 -1h-165v117h401v-100l-182 -234q-31 -40 -52 -61v-2q22 1 61 1h183v-117h-420v100z" />
    <glyph glyph-name="Zdotaccent" unicode="&#x17b;" horiz-adv-x="581" 
d="M223 874h133v-127h-133v127zM31 118l269 347q37 48 62 75v2q-29 -1 -87 -1h-236v129h505v-119l-270 -346q-28 -38 -60 -74v-3q12 0 38.5 0.5t39.5 0.5h258v-129h-519v118z" />
    <glyph glyph-name="zdotaccent" unicode="&#x17c;" horiz-adv-x="468" 
d="M174 716h133v-127h-133v127zM24 100l183 235q34 44 51 60v2q-22 -1 -60 -1h-165v117h401v-100l-182 -234q-31 -40 -52 -61v-2q22 1 61 1h183v-117h-420v100z" />
    <glyph glyph-name="Zcaron" unicode="&#x17d;" horiz-adv-x="581" 
d="M453 871l-114 -152h-97l-112 152h103l59 -80l58 80h103zM31 118l269 347q37 48 62 75v2q-29 -1 -87 -1h-236v129h505v-119l-270 -346q-28 -38 -60 -74v-3q12 0 38.5 0.5t39.5 0.5h258v-129h-519v118z" />
    <glyph glyph-name="zcaron" unicode="&#x17e;" horiz-adv-x="468" 
d="M404 713l-114 -152h-97l-112 152h103l59 -80l58 80h103zM24 100l183 235q34 44 51 60v2q-22 -1 -60 -1h-165v117h401v-100l-182 -234q-31 -40 -52 -61v-2q22 1 61 1h183v-117h-420v100z" />
    <glyph glyph-name="florin" unicode="&#x192;" horiz-adv-x="505" 
d="M432 565q-35 0 -55 -17t-26 -58l-16 -115h121v-95h-135l-26 -183q-13 -91 -63 -134t-142 -43q-32 0 -60 5v119q26 -7 43 -7q35 0 55 17t26 58l24 168h-111v95h124l18 130q13 90 63.5 133.5t142.5 43.5q33 0 60 -5v-119q-26 7 -43 7z" />
    <glyph glyph-name="Scommaaccent" unicode="&#x218;" horiz-adv-x="610" 
d="M332 399q123 -21 181.5 -63t58.5 -134q0 -100 -71 -157t-197 -57q-129 0 -201 61t-66 171h149q-2 -59 30 -86.5t94 -27.5q55 0 83 21t28 59t-31.5 56.5t-113.5 33.5q-110 19 -170 64t-60 139q0 98 71 150.5t183 52.5q117 0 190.5 -58t68.5 -163h-147q1 50 -29 76.5
t-88 26.5q-47 0 -74 -20.5t-27 -54.5q0 -39 31.5 -58t106.5 -32zM246 -151v97h116v-86l-51 -101h-64l38 90h-39z" />
    <glyph glyph-name="scommaaccent" unicode="&#x219;" horiz-adv-x="494" 
d="M259 317q55 -13 86.5 -23t62 -28t44 -44.5t13.5 -64.5q0 -77 -61 -122t-161 -45q-101 0 -157.5 43.5t-56.5 126.5h139q3 -68 80 -68q36 0 56.5 13t20.5 33q0 27 -17 38t-70 25q-40 11 -58 16t-47.5 15.5t-42.5 21t-28.5 26.5t-21 37t-5.5 48q0 71 59.5 114.5t152.5 43.5
q103 0 158.5 -43.5t50.5 -123.5h-133q0 67 -73 67q-33 0 -54 -12.5t-21 -32.5q0 -26 18.5 -37.5t65.5 -23.5zM186 -151v97h116v-86l-51 -101h-64l38 90h-39z" />
    <glyph glyph-name="uni021A" unicode="&#x21a;" horiz-adv-x="583" 
d="M15 670h553v-130h-202v-540h-149v540h-202v130zM234 -151v97h116v-86l-51 -101h-64l38 90h-39z" />
    <glyph glyph-name="uni021B" unicode="&#x21b;" horiz-adv-x="364" 
d="M344 396h-121v-214q0 -40 14 -55.5t46 -15.5q35 0 61 14v-118q-42 -18 -99 -18q-89 0 -127.5 39t-38.5 129v239h-64v111h21q31 0 41.5 14t10.5 57v92h135v-157h121v-117zM173 -151v97h116v-86l-51 -101h-64l38 90h-39z" />
    <glyph glyph-name="uni0237" unicode="&#x237;" 
d="M-28 -218v117q15 -4 33 -4q52 0 52 68v550h144v-556q0 -96 -44 -138t-126 -42q-39 0 -59 5z" />
    <glyph glyph-name="uni02BB" unicode="&#x2bb;" horiz-adv-x="500" 
d="M268 675h38v-97h-116v86l51 101h64z" />
    <glyph glyph-name="uni02BC" unicode="&#x2bc;" horiz-adv-x="500" 
d="M266 720h104l-33 -196h-82z" />
    <glyph glyph-name="circumflex" unicode="&#x2c6;" horiz-adv-x="500" 
d="M90 564l115 152h97l111 -152h-103l-59 80l-58 -80h-103z" />
    <glyph glyph-name="caron" unicode="&#x2c7;" horiz-adv-x="500" 
d="M413 713l-114 -152h-97l-112 152h103l59 -80l58 80h103z" />
    <glyph glyph-name="breve" unicode="&#x2d8;" horiz-adv-x="500" 
d="M107 710h88q5 -34 18 -48.5t37 -14.5q47 0 57 63h87q-5 -73 -41.5 -111.5t-102.5 -38.5t-102 38.5t-41 111.5z" />
    <glyph glyph-name="dotaccent" unicode="&#x2d9;" horiz-adv-x="500" 
d="M183 716h133v-127h-133v127z" />
    <glyph glyph-name="ring" unicode="&#x2da;" horiz-adv-x="500" 
d="M133 650q0 45 33.5 74.5t83.5 29.5t83.5 -30t33.5 -74q0 -46 -33 -75t-84 -29q-50 0 -83.5 29.5t-33.5 74.5zM293 650q0 19 -12 31t-31 12t-31 -12t-12 -31t12 -31t31 -12t31 12t12 31z" />
    <glyph glyph-name="ogonek" unicode="&#x2db;" horiz-adv-x="500" 
d="M165 -121q0 39 33.5 73.5t121.5 67.5l26 -20q-50 -31 -66 -52t-16 -42q0 -41 43 -41q26 0 47 12v-81q-29 -13 -74 -13q-47 0 -81 25t-34 71z" />
    <glyph glyph-name="tilde" unicode="&#x2dc;" horiz-adv-x="500" 
d="M187 707q36 0 71 -29q28 -24 46 -24q16 0 24.5 10.5t9.5 40.5h77q2 -63 -25.5 -100t-76.5 -37q-36 0 -71 29q-28 24 -46 24q-16 0 -24.5 -10.5t-9.5 -40.5h-77q-2 63 25.5 100t76.5 37z" />
    <glyph glyph-name="hungarumlaut" unicode="&#x2dd;" horiz-adv-x="500" 
d="M112 564l108 152h108l-120 -152h-96zM280 564l108 152h107l-119 -152h-96z" />
    <glyph glyph-name="uni0326" unicode="&#x326;" horiz-adv-x="0" 
d="M-307 -54h116v-86l-51 -101h-64l38 90h-39v97z" />
    <glyph glyph-name="pi" unicode="&#x3c0;" horiz-adv-x="617" 
d="M597 549v-119h-70v-430h-144v430h-145v-430h-144v430h-74v119h577z" />
    <glyph glyph-name="Wgrave" unicode="&#x1e80;" horiz-adv-x="941" 
d="M301 874h117l113 -152h-106zM15 670h148l85 -360q21 -85 28 -142h4q8 59 26 141l81 361h173l82 -362q18 -78 26 -141h3q8 55 28 140l84 363h143l-165 -670h-181l-78 341q-17 70 -27 139h-4q-10 -56 -30 -138l-81 -342h-181z" />
    <glyph glyph-name="wgrave" unicode="&#x1e81;" horiz-adv-x="820" 
d="M243 716h117l113 -152h-106zM805 513l-143 -513h-165l-65 242q-15 59 -22 104h-3q-11 -56 -23 -103l-61 -243h-165l-143 513h141l65 -259q11 -43 22 -103h3q7 43 23 102l66 260h155l65 -259q11 -43 22 -103h3q7 43 23 102l66 260h136z" />
    <glyph glyph-name="Wacute" unicode="&#x1e82;" horiz-adv-x="941" 
d="M409 722l113 152h117l-125 -152h-105zM15 670h148l85 -360q21 -85 28 -142h4q8 59 26 141l81 361h173l82 -362q18 -78 26 -141h3q8 55 28 140l84 363h143l-165 -670h-181l-78 341q-17 70 -27 139h-4q-10 -56 -30 -138l-81 -342h-181z" />
    <glyph glyph-name="wacute" unicode="&#x1e83;" horiz-adv-x="820" 
d="M351 564l113 152h117l-125 -152h-105zM805 513l-143 -513h-165l-65 242q-15 59 -22 104h-3q-11 -56 -23 -103l-61 -243h-165l-143 513h141l65 -259q11 -43 22 -103h3q7 43 23 102l66 260h155l65 -259q11 -43 22 -103h3q7 43 23 102l66 260h136z" />
    <glyph glyph-name="Wdieresis" unicode="&#x1e84;" horiz-adv-x="941" 
d="M323 864h112v-117h-112v117zM499 864h112v-117h-112v117zM15 670h148l85 -360q21 -85 28 -142h4q8 59 26 141l81 361h173l82 -362q18 -78 26 -141h3q8 55 28 140l84 363h143l-165 -670h-181l-78 341q-17 70 -27 139h-4q-10 -56 -30 -138l-81 -342h-181z" />
    <glyph glyph-name="wdieresis" unicode="&#x1e85;" horiz-adv-x="820" 
d="M265 706h112v-117h-112v117zM441 706h112v-117h-112v117zM805 513l-143 -513h-165l-65 242q-15 59 -22 104h-3q-11 -56 -23 -103l-61 -243h-165l-143 513h141l65 -259q11 -43 22 -103h3q7 43 23 102l66 260h155l65 -259q11 -43 22 -103h3q7 43 23 102l66 260h136z" />
    <glyph glyph-name="Ygrave" unicode="&#x1ef2;" horiz-adv-x="617" 
d="M374 722h-106l-124 152h117zM622 670l-238 -412v-258h-149v256l-240 414h167l148 -262h4l147 262h161z" />
    <glyph glyph-name="ygrave" unicode="&#x1ef3;" horiz-adv-x="538" 
d="M110 716h117l113 -152h-106zM23 -214v118q36 -12 69 -12q38 0 56.5 15t33.5 54l11 29l-185 523h155l79 -258q25 -84 30 -105h3q11 48 27 105l75 258h153l-199 -539q-38 -102 -85.5 -152t-130.5 -50q-50 0 -92 14z" />
    <glyph glyph-name="endash" unicode="&#x2013;" horiz-adv-x="529" 
d="M42 352h445v-107h-445v107z" />
    <glyph glyph-name="emdash" unicode="&#x2014;" horiz-adv-x="1108" 
d="M42 352h1024v-107h-1024v107z" />
    <glyph glyph-name="quoteleft" unicode="&#x2018;" horiz-adv-x="247" 
d="M140 595h56v-140h-148l-1 123l62 142h74z" />
    <glyph glyph-name="quoteright" unicode="&#x2019;" horiz-adv-x="247" 
d="M199 720l1 -123l-62 -142h-74l43 125h-56v140h148z" />
    <glyph glyph-name="quotesinglbase" unicode="&#x201a;" horiz-adv-x="247" 
d="M197 140l1 -123l-62 -142h-74l43 125h-56v140h148z" />
    <glyph glyph-name="quotedblleft" unicode="&#x201c;" horiz-adv-x="454" 
d="M183 720l-43 -125h56v-140h-148l-1 123l62 142h74zM347 595h56v-140h-148l-1 123l62 142h74z" />
    <glyph glyph-name="quotedblright" unicode="&#x201d;" horiz-adv-x="454" 
d="M51 720h148l1 -123l-62 -142h-74l43 125h-56v140zM406 720l1 -123l-62 -142h-74l43 125h-56v140h148z" />
    <glyph glyph-name="quotedblbase" unicode="&#x201e;" horiz-adv-x="452" 
d="M49 140h148l1 -123l-62 -142h-74l43 125h-56v140zM402 140l1 -123l-62 -142h-74l43 125h-56v140h148z" />
    <glyph glyph-name="dagger" unicode="&#x2020;" horiz-adv-x="504" 
d="M455 487v-101h-146v-324h-114v324h-146v101h146v183h114v-183h146z" />
    <glyph glyph-name="daggerdbl" unicode="&#x2021;" horiz-adv-x="504" 
d="M455 422h-146v-111h146v-102h-146v-147h-114v147h-146v102h146v111h-146v101h146v147h114v-147h146v-101z" />
    <glyph glyph-name="bullet" unicode="&#x2022;" horiz-adv-x="300" 
d="M28 278q0 49 36 84t86 35t86 -35t36 -84t-36 -84t-86 -35t-86 35t-36 84z" />
    <glyph glyph-name="ellipsis" unicode="&#x2026;" horiz-adv-x="731" 
d="M49 140h148v-140h-148v140zM291 140h148v-140h-148v140zM533 140h148v-140h-148v140z" />
    <glyph glyph-name="perthousand" unicode="&#x2030;" horiz-adv-x="1290" 
d="M27 485q0 88 48.5 141.5t129.5 53.5t129.5 -53.5t48.5 -141.5q0 -92 -48.5 -148.5t-129.5 -56.5t-129.5 56.5t-48.5 148.5zM604 670h115l-428 -670h-115zM276 483q0 45 -19.5 72.5t-51.5 27.5t-51 -27t-19 -73q0 -48 19 -77t51 -29t51.5 29t19.5 77zM510 194
q0 88 48.5 142t129.5 54t129.5 -54t48.5 -142q0 -92 -48.5 -148t-129.5 -56t-129.5 56t-48.5 148zM908 194q0 88 48.5 142t128.5 54q81 0 129.5 -54t48.5 -142q0 -92 -48.5 -148t-129.5 -56q-80 0 -128.5 56t-48.5 148zM759 192q0 46 -19.5 73.5t-51.5 27.5t-51 -27.5
t-19 -73.5q0 -47 19 -76t51 -29t51.5 29t19.5 76zM1156 192q0 46 -19.5 73.5t-51.5 27.5t-51 -27.5t-19 -73.5q0 -47 19.5 -76t50.5 -29q32 0 51.5 29t19.5 76z" />
    <glyph glyph-name="guilsinglleft" unicode="&#x2039;" horiz-adv-x="324" 
d="M46 229v105l224 154v-119l-115 -86v-3l115 -84v-121z" />
    <glyph glyph-name="guilsinglright" unicode="&#x203a;" horiz-adv-x="324" 
d="M54 195l115 86v3l-115 84v120l223 -153v-105l-223 -154v119z" />
    <glyph glyph-name="fraction" unicode="&#x2044;" horiz-adv-x="177" 
d="M-179 0l434 670h101l-434 -670h-101z" />
    <glyph glyph-name="uni2070" unicode="&#x2070;" horiz-adv-x="387" 
d="M29 494q0 81 45 131.5t121 50.5q77 0 120 -48.5t43 -131.5q0 -81 -44.5 -131.5t-120.5 -50.5q-77 0 -120.5 49t-43.5 131zM245 496q0 94 -51 94q-52 0 -52 -95t52 -95q51 0 51 96z" />
    <glyph glyph-name="uni2074" unicode="&#x2074;" horiz-adv-x="371" 
d="M195 373h-171v86l158 211h118v-211h48v-86h-48v-53h-105v53zM151 459h44v62v25h-2q-3 -5 -16 -23l-26 -36q-18 -24 -21 -27v-2q3 0 9.5 0.5t11.5 0.5z" />
    <glyph glyph-name="uni2075" unicode="&#x2075;" horiz-adv-x="354" 
d="M30 429h104q6 -31 39 -31q18 0 29.5 10.5t11.5 29.5q0 37 -39 37q-25 0 -41 -18l-96 8l14 205h259l-6 -91h-163l-7 -49q26 23 64 23q57 0 92 -30.5t35 -82.5q0 -57 -42 -91.5t-112 -34.5t-107 33t-35 82z" />
    <glyph glyph-name="uni2076" unicode="&#x2076;" horiz-adv-x="371" 
d="M221 549q50 0 86.5 -29t36.5 -80q0 -56 -43.5 -91t-109.5 -35q-74 0 -118.5 49.5t-44.5 130.5q0 79 46 130.5t120 51.5q62 0 98 -31t37 -82h-106q-2 27 -33 27q-46 0 -51 -73q32 32 82 32zM191 398q18 0 29.5 10.5t11.5 27.5q0 15 -10.5 23t-24.5 8q-31 0 -55 -22
q11 -47 49 -47z" />
    <glyph glyph-name="uni2077" unicode="&#x2077;" horiz-adv-x="319" 
d="M296 670v-83q-55 -58 -81 -120t-25 -147h-106q-1 144 94 260h-160l1 90h277z" />
    <glyph glyph-name="uni2078" unicode="&#x2078;" horiz-adv-x="361" 
d="M27 416q0 68 69 84v2q-58 19 -58 79q0 39 38 67t105 28q69 0 106 -28.5t37 -68.5q0 -62 -62 -76v-2q72 -18 72 -82q0 -47 -40 -76t-114 -29q-73 0 -113 28t-40 74zM221 569q0 15 -11.5 24t-28.5 9t-28.5 -9t-11.5 -24q0 -16 11 -25t29 -9q17 0 28.5 9.5t11.5 24.5z
M228 430q0 18 -13 28.5t-35 10.5q-21 0 -33.5 -11t-12.5 -28q0 -16 13 -26t34 -10t34 10t13 26z" />
    <glyph glyph-name="uni2079" unicode="&#x2079;" horiz-adv-x="372" 
d="M178 676q75 0 119.5 -49.5t44.5 -131.5q0 -78 -46 -129.5t-121 -51.5q-63 0 -100 31.5t-38 82.5h106q7 -28 37 -28q49 0 51 75q-32 -32 -83 -32q-49 0 -85 28.5t-36 78.5q0 57 42.5 91.5t108.5 34.5zM139 558q0 -31 39 -31q28 0 49 19q-9 45 -49 45q-17 0 -28 -9t-11 -24
z" />
    <glyph glyph-name="uni2080" unicode="&#x2080;" horiz-adv-x="387" 
d="M29 174q0 81 45 131.5t121 50.5q77 0 120 -48.5t43 -131.5q0 -81 -44.5 -131.5t-120.5 -50.5q-77 0 -120.5 49t-43.5 131zM245 176q0 94 -51 94q-52 0 -52 -95t52 -95q51 0 51 96z" />
    <glyph glyph-name="uni2081" unicode="&#x2081;" horiz-adv-x="249" 
d="M194 0h-110v247q-29 -21 -64 -24v90q39 6 67 37h107v-350z" />
    <glyph glyph-name="uni2082" unicode="&#x2082;" horiz-adv-x="349" 
d="M26 15q1 60 29 99t105 73q30 14 40 24t10 27q0 15 -9.5 24t-24.5 9q-36 0 -36 -41v-10h-109v12q0 56 39 90t108 34q70 0 107 -29.5t37 -82.5q0 -39 -24 -65.5t-79 -50.5q-12 -6 -27.5 -12t-21.5 -8.5t-12 -7t-9 -9.5h171v-91h-294v15z" />
    <glyph glyph-name="uni2083" unicode="&#x2083;" horiz-adv-x="353" 
d="M26 115h107q-1 -19 10 -29.5t31 -10.5q18 0 29.5 10t11.5 28q0 19 -11 25.5t-36 6.5h-39v61h38q43 0 43 35t-36 35q-17 0 -27.5 -9.5t-10.5 -25.5q0 -4 1 -8h-104q-1 6 -1 10q0 50 39.5 81.5t106.5 31.5t103.5 -27t36.5 -72q0 -65 -72 -76v-2q40 -4 60 -24.5t20 -53.5
q0 -49 -40.5 -78t-108.5 -29q-80 0 -116.5 32t-34.5 89z" />
    <glyph glyph-name="uni2084" unicode="&#x2084;" horiz-adv-x="371" 
d="M195 53h-171v86l158 211h118v-211h48v-86h-48v-53h-105v53zM151 139h44v62v25h-2q-3 -5 -16 -23l-26 -36q-18 -24 -21 -27v-2q3 0 9.5 0.5t11.5 0.5z" />
    <glyph glyph-name="uni2085" unicode="&#x2085;" horiz-adv-x="354" 
d="M30 109h104q6 -31 39 -31q18 0 29.5 10.5t11.5 29.5q0 37 -39 37q-25 0 -41 -18l-96 8l14 205h259l-6 -91h-163l-7 -49q26 23 64 23q57 0 92 -30.5t35 -82.5q0 -57 -42 -91.5t-112 -34.5t-107 33t-35 82z" />
    <glyph glyph-name="uni2086" unicode="&#x2086;" horiz-adv-x="371" 
d="M221 229q50 0 86.5 -29t36.5 -80q0 -56 -43.5 -91t-109.5 -35q-74 0 -118.5 49.5t-44.5 130.5q0 79 46 130.5t120 51.5q62 0 98 -31t37 -82h-106q-2 27 -33 27q-46 0 -51 -73q32 32 82 32zM191 78q18 0 29.5 10.5t11.5 27.5q0 15 -10.5 23t-24.5 8q-31 0 -55 -22
q11 -47 49 -47z" />
    <glyph glyph-name="uni2087" unicode="&#x2087;" horiz-adv-x="319" 
d="M296 350v-83q-55 -58 -81 -120t-25 -147h-106q-1 144 94 260h-160l1 90h277z" />
    <glyph glyph-name="uni2088" unicode="&#x2088;" horiz-adv-x="361" 
d="M27 96q0 68 69 84v2q-58 19 -58 79q0 39 38 67t105 28q69 0 106 -28.5t37 -68.5q0 -62 -62 -76v-2q72 -18 72 -82q0 -47 -40 -76t-114 -29q-73 0 -113 28t-40 74zM221 249q0 15 -11.5 24t-28.5 9t-28.5 -9t-11.5 -24q0 -16 11 -25t29 -9q17 0 28.5 9.5t11.5 24.5z
M228 110q0 18 -13 28.5t-35 10.5q-21 0 -33.5 -11t-12.5 -28q0 -16 13 -26t34 -10t34 10t13 26z" />
    <glyph glyph-name="uni2089" unicode="&#x2089;" horiz-adv-x="372" 
d="M178 356q75 0 119.5 -49.5t44.5 -131.5q0 -78 -46 -129.5t-121 -51.5q-63 0 -100 31.5t-38 82.5h106q7 -28 37 -28q49 0 51 75q-32 -32 -83 -32q-49 0 -85 28.5t-36 78.5q0 57 42.5 91.5t108.5 34.5zM139 238q0 -31 39 -31q28 0 49 19q-9 45 -49 45q-17 0 -28 -9t-11 -24
z" />
    <glyph glyph-name="Euro" unicode="&#x20ac;" horiz-adv-x="663" 
d="M367 110q55 0 84.5 36.5t35.5 91.5h140q-3 -97 -73.5 -173.5t-188.5 -76.5q-110 0 -175.5 65.5t-86.5 175.5h-83v88h74v14v22h-74v88h85q23 110 91 175t176 65q119 0 186 -76.5t69 -173.5h-140q-4 52 -33.5 90t-84.5 38q-95 0 -122 -118h138v-88h-148v-19v-17h148v-88
h-139q25 -119 121 -119z" />
    <glyph glyph-name="uni2113" unicode="&#x2113;" horiz-adv-x="532" 
d="M303 106q53 0 63 95h116q-13 -211 -200 -211q-91 0 -136 46t-47 141l-48 -22l-31 103l79 37v161q0 224 213 224q79 0 126.5 -43.5t47.5 -117.5q0 -83 -56 -147.5t-190 -131.5v-28q0 -60 14 -83t49 -23zM301 564q-61 0 -61 -88v-115q63 34 87.5 66.5t24.5 72.5
q0 64 -51 64z" />
    <glyph glyph-name="trademark" unicode="&#x2122;" horiz-adv-x="825" 
d="M134 601h-98v69h276v-69h-98v-266h-80v266zM362 670h105l98 -243h3l99 243h104v-335h-74v223h-2l-91 -223h-75l-90 222h-3v-222h-74v335z" />
    <glyph glyph-name="uni2126" unicode="&#x2126;" horiz-adv-x="725" 
d="M61 122h167v17q-89 45 -131 106t-42 151q0 128 87.5 206.5t218.5 78.5q132 0 220.5 -78.5t88.5 -206.5q0 -90 -41 -150t-132 -107v-17h166v-122h-256l-10 172q77 45 107 95.5t30 117.5q0 76 -48 125.5t-125 49.5q-76 0 -123.5 -49.5t-47.5 -125.5q0 -66 30.5 -116
t107.5 -96l-10 -173h-257v122z" />
    <glyph glyph-name="estimated" unicode="&#x212e;" horiz-adv-x="870" 
d="M50 337q0 143 112.5 243.5t272.5 100.5t272.5 -100.5t112.5 -243.5v-10h-623q-5 0 -5 -4v-192q0 -12 9 -21q91 -91 235 -91q162 0 259 106h45q-54 -62 -134 -98.5t-171 -36.5q-159 0 -272 101.5t-113 245.5zM675 356q4 0 4 5v188q0 15 -10 22q-97 81 -233 81
q-144 0 -234 -83q-10 -10 -10 -23v-185q0 -5 5 -5h478z" />
    <glyph glyph-name="uni2150" unicode="&#x2150;" horiz-adv-x="745" 
d="M84 320v247q-29 -21 -64 -24v90q39 6 67 37h107v-350h-110zM504 670h101l-434 -670h-101zM722 350v-83q-55 -58 -81 -120t-25 -147h-106q-1 144 94 260h-160l1 90h277z" />
    <glyph glyph-name="uni2151" unicode="&#x2151;" horiz-adv-x="798" 
d="M84 320v247q-29 -21 -64 -24v90q39 6 67 37h107v-350h-110zM504 670h101l-434 -670h-101zM604 356q75 0 119.5 -49.5t44.5 -131.5q0 -78 -46 -129.5t-121 -51.5q-63 0 -100 31.5t-38 82.5h106q7 -28 37 -28q49 0 51 75q-32 -32 -83 -32q-49 0 -85 28.5t-36 78.5
q0 57 42.5 91.5t108.5 34.5zM565 238q0 -31 39 -31q28 0 49 19q-9 45 -49 45q-17 0 -28 -9t-11 -24z" />
    <glyph glyph-name="uni2153" unicode="&#x2153;" horiz-adv-x="779" 
d="M194 320h-110v247q-29 -21 -64 -24v90q39 6 67 37h107v-350zM70 0l434 670h101l-434 -670h-101zM452 115h107q-1 -19 10 -29.5t31 -10.5q18 0 29.5 10t11.5 28q0 19 -11 25.5t-36 6.5h-39v61h38q43 0 43 35t-36 35q-17 0 -27.5 -9.5t-10.5 -25.5q0 -4 1 -8h-104
q-1 6 -1 10q0 50 39.5 81.5t106.5 31.5t103.5 -27t36.5 -72q0 -65 -72 -76v-2q40 -4 60 -24.5t20 -53.5q0 -49 -40.5 -78t-108.5 -29q-80 0 -116.5 32t-34.5 89z" />
    <glyph glyph-name="uni2154" unicode="&#x2154;" horiz-adv-x="879" 
d="M26 335q1 60 29 99t105 73q30 14 40 24t10 27q0 15 -9.5 24t-24.5 9q-36 0 -36 -41v-10h-109v12q0 56 39 90t108 34q70 0 107 -29.5t37 -82.5q0 -39 -24 -65.5t-79 -50.5q-12 -6 -27.5 -12t-21.5 -8.5t-12 -7t-9 -9.5h171v-91h-294v15zM170 0l434 670h101l-434 -670h-101
zM552 115h107q-1 -19 10 -29.5t31 -10.5q18 0 29.5 10t11.5 28q0 19 -11 25.5t-36 6.5h-39v61h38q43 0 43 35t-36 35q-17 0 -27.5 -9.5t-10.5 -25.5q0 -4 1 -8h-104q-1 6 -1 10q0 50 39.5 81.5t106.5 31.5t103.5 -27t36.5 -72q0 -65 -72 -76v-2q40 -4 60 -24.5t20 -53.5
q0 -49 -40.5 -78t-108.5 -29q-80 0 -116.5 32t-34.5 89z" />
    <glyph glyph-name="uni2155" unicode="&#x2155;" horiz-adv-x="780" 
d="M194 320h-110v247q-29 -21 -64 -24v90q39 6 67 37h107v-350zM70 0l434 670h101l-434 -670h-101zM456 109h104q6 -31 39 -31q18 0 29.5 10.5t11.5 29.5q0 37 -39 37q-25 0 -41 -18l-96 8l14 205h259l-6 -91h-163l-7 -49q26 23 64 23q57 0 92 -30.5t35 -82.5
q0 -57 -42 -91.5t-112 -34.5t-107 33t-35 82z" />
    <glyph glyph-name="uni2156" unicode="&#x2156;" horiz-adv-x="880" 
d="M26 335q1 60 29 99t105 73q30 14 40 24t10 27q0 15 -9.5 24t-24.5 9q-36 0 -36 -41v-10h-109v12q0 56 39 90t108 34q70 0 107 -29.5t37 -82.5q0 -39 -24 -65.5t-79 -50.5q-12 -6 -27.5 -12t-21.5 -8.5t-12 -7t-9 -9.5h171v-91h-294v15zM170 0l434 670h101l-434 -670h-101
zM556 109h104q6 -31 39 -31q18 0 29.5 10.5t11.5 29.5q0 37 -39 37q-25 0 -41 -18l-96 8l14 205h259l-6 -91h-163l-7 -49q26 23 64 23q57 0 92 -30.5t35 -82.5q0 -57 -42 -91.5t-112 -34.5t-107 33t-35 82z" />
    <glyph glyph-name="uni2157" unicode="&#x2157;" horiz-adv-x="886" 
d="M26 435h107q-1 -19 10 -29.5t31 -10.5q18 0 29.5 10t11.5 28q0 19 -11 25.5t-36 6.5h-39v61h38q43 0 43 35t-36 35q-17 0 -27.5 -9.5t-10.5 -25.5q0 -4 1 -8h-104q-1 6 -1 10q0 50 39.5 81.5t106.5 31.5t103.5 -27t36.5 -72q0 -65 -72 -76v-2q40 -4 60 -24.5t20 -53.5
q0 -49 -40.5 -78t-108.5 -29q-80 0 -116.5 32t-34.5 89zM176 0l434 670h101l-434 -670h-101zM562 109h104q6 -31 39 -31q18 0 29.5 10.5t11.5 29.5q0 37 -39 37q-25 0 -41 -18l-96 8l14 205h259l-6 -91h-163l-7 -49q26 23 64 23q57 0 92 -30.5t35 -82.5q0 -57 -42 -91.5
t-112 -34.5t-107 33t-35 82z" />
    <glyph glyph-name="uni2158" unicode="&#x2158;" horiz-adv-x="902" 
d="M195 373h-171v86l158 211h118v-211h48v-86h-48v-53h-105v53zM192 0l434 670h101l-434 -670h-101zM151 459h44v62v25h-2q-3 -5 -16 -23l-26 -36q-18 -24 -21 -27v-2q3 0 9.5 0.5t11.5 0.5zM578 109h104q6 -31 39 -31q18 0 29.5 10.5t11.5 29.5q0 37 -39 37q-25 0 -41 -18
l-96 8l14 205h259l-6 -91h-163l-7 -49q26 23 64 23q57 0 92 -30.5t35 -82.5q0 -57 -42 -91.5t-112 -34.5t-107 33t-35 82z" />
    <glyph glyph-name="uni2159" unicode="&#x2159;" horiz-adv-x="797" 
d="M84 320v247q-29 -21 -64 -24v90q39 6 67 37h107v-350h-110zM504 670h101l-434 -670h-101zM647 229q50 0 86.5 -29t36.5 -80q0 -56 -43.5 -91t-109.5 -35q-74 0 -118.5 49.5t-44.5 130.5q0 79 46 130.5t120 51.5q62 0 98 -31t37 -82h-106q-2 27 -33 27q-46 0 -51 -73
q32 32 82 32zM617 78q18 0 29.5 10.5t11.5 27.5q0 15 -10.5 23t-24.5 8q-31 0 -55 -22q11 -47 49 -47z" />
    <glyph glyph-name="uni215A" unicode="&#x215a;" horiz-adv-x="902" 
d="M326 440q0 -57 -42 -91.5t-112 -34.5t-107 33t-35 82h104q6 -31 39 -31q18 0 29.5 10.5t11.5 29.5q0 37 -39 37q-25 0 -41 -18l-96 8l14 205h259l-6 -91h-163l-7 -49q26 23 64 23q57 0 92 -30.5t35 -82.5zM609 670h101l-434 -670h-101zM752 229q50 0 86.5 -29t36.5 -80
q0 -56 -43.5 -91t-109.5 -35q-74 0 -118.5 49.5t-44.5 130.5q0 79 46 130.5t120 51.5q62 0 98 -31t37 -82h-106q-2 27 -33 27q-46 0 -51 -73q32 32 82 32zM722 78q18 0 29.5 10.5t11.5 27.5q0 15 -10.5 23t-24.5 8q-31 0 -55 -22q11 -47 49 -47z" />
    <glyph glyph-name="uni215B" unicode="&#x215b;" horiz-adv-x="787" 
d="M194 320h-110v247q-29 -21 -64 -24v90q39 6 67 37h107v-350zM70 0l434 670h101l-434 -670h-101zM453 96q0 68 69 84v2q-58 19 -58 79q0 39 38 67t105 28q69 0 106 -28.5t37 -68.5q0 -62 -62 -76v-2q72 -18 72 -82q0 -47 -40 -76t-114 -29q-73 0 -113 28t-40 74zM647 249
q0 15 -11.5 24t-28.5 9t-28.5 -9t-11.5 -24q0 -16 11 -25t29 -9q17 0 28.5 9.5t11.5 24.5zM654 110q0 18 -13 28.5t-35 10.5q-21 0 -33.5 -11t-12.5 -28q0 -16 13 -26t34 -10t34 10t13 26z" />
    <glyph glyph-name="uni215C" unicode="&#x215c;" horiz-adv-x="893" 
d="M26 435h107q-1 -19 10 -29.5t31 -10.5q18 0 29.5 10t11.5 28q0 19 -11 25.5t-36 6.5h-39v61h38q43 0 43 35t-36 35q-17 0 -27.5 -9.5t-10.5 -25.5q0 -4 1 -8h-104q-1 6 -1 10q0 50 39.5 81.5t106.5 31.5t103.5 -27t36.5 -72q0 -65 -72 -76v-2q40 -4 60 -24.5t20 -53.5
q0 -49 -40.5 -78t-108.5 -29q-80 0 -116.5 32t-34.5 89zM176 0l434 670h101l-434 -670h-101zM559 96q0 68 69 84v2q-58 19 -58 79q0 39 38 67t105 28q69 0 106 -28.5t37 -68.5q0 -62 -62 -76v-2q72 -18 72 -82q0 -47 -40 -76t-114 -29q-73 0 -113 28t-40 74zM753 249
q0 15 -11.5 24t-28.5 9t-28.5 -9t-11.5 -24q0 -16 11 -25t29 -9q17 0 28.5 9.5t11.5 24.5zM760 110q0 18 -13 28.5t-35 10.5q-21 0 -33.5 -11t-12.5 -28q0 -16 13 -26t34 -10t34 10t13 26z" />
    <glyph glyph-name="uni215D" unicode="&#x215d;" horiz-adv-x="892" 
d="M30 429h104q6 -31 39 -31q18 0 29.5 10.5t11.5 29.5q0 37 -39 37q-25 0 -41 -18l-96 8l14 205h259l-6 -91h-163l-7 -49q26 23 64 23q57 0 92 -30.5t35 -82.5q0 -57 -42 -91.5t-112 -34.5t-107 33t-35 82zM175 0l434 670h101l-434 -670h-101zM558 96q0 68 69 84v2
q-58 19 -58 79q0 39 38 67t105 28q69 0 106 -28.5t37 -68.5q0 -62 -62 -76v-2q72 -18 72 -82q0 -47 -40 -76t-114 -29q-73 0 -113 28t-40 74zM752 249q0 15 -11.5 24t-28.5 9t-28.5 -9t-11.5 -24q0 -16 11 -25t29 -9q17 0 28.5 9.5t11.5 24.5zM759 110q0 18 -13 28.5
t-35 10.5q-21 0 -33.5 -11t-12.5 -28q0 -16 13 -26t34 -10t34 10t13 26z" />
    <glyph glyph-name="uni215E" unicode="&#x215e;" horiz-adv-x="857" 
d="M296 587q-55 -58 -81 -120t-25 -147h-106q-1 144 94 260h-160l1 90h277v-83zM574 670h101l-434 -670h-101zM758 181q72 -18 72 -82q0 -47 -40 -76t-114 -29q-73 0 -113 28t-40 74q0 68 69 84v2q-58 19 -58 79q0 39 38 67t105 28q69 0 106 -28.5t37 -68.5q0 -62 -62 -76
v-2zM677 282q-17 0 -28.5 -9t-11.5 -24q0 -16 11 -25t29 -9q17 0 28.5 9.5t11.5 24.5t-11.5 24t-28.5 9zM677 74q21 0 34 10t13 26q0 18 -13 28.5t-35 10.5q-21 0 -33.5 -11t-12.5 -28q0 -16 13 -26t34 -10z" />
    <glyph glyph-name="partialdiff" unicode="&#x2202;" horiz-adv-x="570" 
d="M284 -10q-111 0 -180.5 66t-69.5 183t61.5 182.5t161.5 65.5q105 0 151 -93h5q-16 92 -89 152t-206 71l9 107q209 -7 309 -122t100 -306q0 -142 -69 -224t-183 -82zM393 243q0 65 -29 101t-79 36q-49 0 -78.5 -36.5t-29.5 -101.5q0 -66 29 -103t79 -37q49 0 78.5 37
t29.5 104z" />
    <glyph glyph-name="uni2206" unicode="&#x2206;" horiz-adv-x="710" 
d="M40 115l246 555h140l244 -555v-115h-630v115zM521 121l-166 390l-168 -390h334z" />
    <glyph glyph-name="product" unicode="&#x220f;" horiz-adv-x="689" 
d="M662 738v-124h-68v-614h-149v614h-201v-614h-149v614h-68v124h635z" />
    <glyph glyph-name="summation" unicode="&#x2211;" horiz-adv-x="590" 
d="M35 -33l238 327l-226 331v113h495v-119h-325l197 -279v-82l-214 -285h350v-134h-515v128z" />
    <glyph glyph-name="minus" unicode="&#x2212;" horiz-adv-x="530" 
d="M55 376h421v-102h-421v102z" />
    <glyph glyph-name="radical" unicode="&#x221a;" horiz-adv-x="598" 
d="M103 349l-56 -26l-40 87l162 74l132 -309h3l158 572h118l-219 -747h-106z" />
    <glyph glyph-name="infinity" unicode="&#x221e;" horiz-adv-x="822" 
d="M604 500q84 0 133 -55t49 -147q0 -87 -51 -148t-138 -61q-54 0 -96.5 25.5t-92.5 90.5q-82 -116 -190 -116q-84 0 -133 54.5t-49 147.5q0 87 50.5 148t137.5 61q54 0 97.5 -25.5t94.5 -89.5q81 115 188 115zM587 208q36 0 57.5 24.5t21.5 65.5q0 40 -22 64.5t-61 24.5
q-55 0 -111 -80q39 -56 62.5 -77.5t52.5 -21.5zM238 202q56 0 114 82q-38 55 -63 76t-54 21q-36 0 -57.5 -24.5t-21.5 -65.5q0 -40 22 -64.5t60 -24.5z" />
    <glyph glyph-name="integral" unicode="&#x222b;" horiz-adv-x="417" 
d="M324 752q39 0 69 -10v-123q-18 8 -51 8q-61 0 -61 -75v-524q0 -187 -187 -187q-38 0 -70 10v123q22 -8 52 -8q61 0 61 75v524q0 187 187 187z" />
    <glyph glyph-name="approxequal" unicode="&#x2248;" horiz-adv-x="530" 
d="M156 409q-57 0 -98 -43v105q39 41 98 41q48 0 111 -34.5t107 -34.5q59 0 98 43v-106q-42 -40 -98 -40q-47 0 -110.5 34.5t-107.5 34.5zM156 200q-57 0 -98 -43v105q39 41 98 41q48 0 111 -34.5t107 -34.5q59 0 98 43v-106q-42 -40 -98 -40q-47 0 -110.5 34.5t-107.5 34.5
z" />
    <glyph glyph-name="notequal" unicode="&#x2260;" horiz-adv-x="530" 
d="M476 379h-147l-38 -111h185v-102h-220l-41 -118h-89l40 118h-111v102h146l38 111h-184v102h219l44 127h90l-44 -127h112v-102z" />
    <glyph glyph-name="lessequal" unicode="&#x2264;" horiz-adv-x="536" 
d="M61 288v111l412 179v-117l-276 -117l276 -118v-119zM61 103h412v-102h-412v102z" />
    <glyph glyph-name="greaterequal" unicode="&#x2265;" horiz-adv-x="537" 
d="M64 224l275 117l-275 118v119l412 -181v-111l-412 -179v117zM63 103h412v-102h-412v102z" />
    <glyph glyph-name="lozenge" unicode="&#x25ca;" horiz-adv-x="575" 
d="M24 335l213 335h101l213 -335l-213 -335h-100zM419 335l-133 206l-132 -206l134 -204z" />
    <glyph glyph-name="a.alt01" horiz-adv-x="593" 
d="M36 253q0 125 60 197.5t159 72.5q58 0 92.5 -23t46.5 -53h3v66h142v-513h-142v86h-3q-10 -39 -48.5 -67.5t-102.5 -28.5q-90 0 -148.5 68.5t-58.5 194.5zM395 248v29q0 62 -29 97.5t-73 35.5q-51 0 -80.5 -41t-29.5 -111q0 -73 29 -113t77 -40q47 0 76.5 38t29.5 105z
" />
    <glyph glyph-name="a.alt02" horiz-adv-x="527" 
d="M34 132q0 50 24 84t69 51t95 24t117 8v36q0 83 -74 83q-34 0 -55 -18t-21 -50q0 -4 0.5 -7t1 -9t0.5 -11h-136q-1 10 -1 29q0 76 60 123.5t156 47.5q102 0 154.5 -50t52.5 -143v-330h-133v70h-2q-14 -36 -55 -58t-103 -22q-70 0 -110 37t-40 105zM245 95q32 0 57 19
t37 51v51q-84 -3 -122.5 -18t-38.5 -52q0 -51 67 -51z" />
    <glyph glyph-name="g.alt01" horiz-adv-x="591" 
d="M395 513h142v-511q0 -114 -70 -172.5t-181 -58.5q-109 0 -174 51.5t-59 147.5h143q-3 -42 20.5 -65.5t70.5 -23.5q106 0 106 114v47q0 9 0.5 24t0.5 22h-3q-33 -93 -141 -93q-95 0 -155.5 68t-60.5 194q0 124 63.5 195t159.5 71q58 0 92.5 -25t42.5 -53h3v68zM288 109
q46 0 76 37.5t30 103.5v28q0 62 -29 97.5t-74 35.5q-50 0 -80 -41t-30 -111q0 -71 29.5 -110.5t77.5 -39.5z" />
    <glyph glyph-name="r.alt01" horiz-adv-x="478" 
d="M57 513h142v-95h3q17 51 47.5 78t86.5 27q60 0 93 -38t33 -109q0 -40 -8 -69h-133q3 15 3 32q0 58 -49 58q-32 0 -53 -34.5t-21 -93.5v-269h-144v513z" />
    <glyph glyph-name="zero.osf" horiz-adv-x="561" 
d="M31 272q0 132 68.5 209.5t181.5 77.5q115 0 182 -75t67 -207q0 -131 -69 -209t-182 -78q-115 0 -181.5 75.5t-66.5 206.5zM385 276q0 79 -26.5 122.5t-77.5 43.5t-77.5 -44.5t-27.5 -123.5q1 -77 27.5 -122t76.5 -45q51 0 78 45.5t27 123.5z" />
    <glyph glyph-name="one.osf" horiz-adv-x="355" 
d="M294 0h-148v400q-45 -40 -126 -48v129q81 11 131 68h143v-549z" />
    <glyph glyph-name="two.osf" horiz-adv-x="548" 
d="M23 28q0 66 43 129t145 103q93 36 123.5 60t30.5 60q0 32 -22.5 50.5t-65.5 18.5q-44 0 -69.5 -22.5t-25.5 -65.5q0 -11 1 -17h-144q-1 7 -1 20q0 89 66 142t179 53q109 0 169 -46.5t60 -125.5q0 -74 -40 -113t-143 -79q-73 -28 -102 -43.5t-36 -31.5h316v-120h-484v28z
" />
    <glyph glyph-name="three.osf" horiz-adv-x="562" 
d="M27 81h140q5 -95 109 -95q47 0 75.5 24t28.5 68q0 84 -119 84h-63v110h57q54 0 82 23.5t28 66.5q0 38 -23.5 61t-67.5 23q-46 0 -72.5 -25t-26.5 -68q0 -9 1 -15h-138q-1 7 -1 17q0 91 67 147.5t177 56.5t170.5 -50.5t60.5 -134.5q0 -128 -124 -150v-3q66 -6 102.5 -46.5
t36.5 -107.5q0 -90 -67.5 -142t-183.5 -52q-125 0 -187 56t-62 152z" />
    <glyph glyph-name="four.osf" horiz-adv-x="571" 
d="M329 32h-313v116l298 401h153v-397h88v-120h-88v-149h-138v149zM204 152h125v183q0 29 1 42h-4q-6 -10 -26 -38l-104 -140q-32 -42 -34 -45v-3q6 0 18.5 0.5t23.5 0.5z" />
    <glyph glyph-name="five.osf" horiz-adv-x="558" 
d="M35 76h143q8 -86 98 -86q48 0 77.5 31.5t29.5 86.5q0 50 -27.5 78.5t-73.5 28.5q-65 0 -100 -54l-131 17l26 371h409l-6 -123h-294l-10 -145q47 47 131 47q100 0 161.5 -59t61.5 -160q0 -108 -69.5 -172t-184.5 -64q-117 0 -179 57.5t-62 145.5z" />
    <glyph glyph-name="six.osf" horiz-adv-x="577" 
d="M336 423q94 0 151.5 -54t57.5 -147q0 -102 -69 -167t-180 -65q-122 0 -193.5 90.5t-71.5 247.5q0 155 76 250.5t204 95.5q100 0 159 -55.5t61 -144.5h-139q-3 39 -26 62.5t-62 23.5q-60 0 -95 -54t-35 -155q63 72 162 72zM297 105q43 0 72.5 30.5t29.5 77.5
q0 45 -24.5 71.5t-72.5 26.5q-71 0 -123 -67q20 -139 118 -139z" />
    <glyph glyph-name="seven.osf" horiz-adv-x="500" 
d="M482 549v-112q-100 -123 -152.5 -256.5t-51.5 -297.5h-144q-1 288 186 543h-305v123h467z" />
    <glyph glyph-name="eight.osf" horiz-adv-x="597" 
d="M34 182q0 132 131 164v3q-54 14 -83 53.5t-29 95.5q0 75 64.5 125.5t181.5 50.5q114 0 180 -50.5t66 -124.5q0 -56 -28.5 -95.5t-81.5 -55.5v-3q62 -16 95 -58.5t33 -105.5q0 -86 -69.5 -138.5t-193.5 -52.5q-125 0 -195.5 52.5t-70.5 139.5zM401 484q0 40 -28 64t-73 24
q-46 0 -74.5 -24t-28.5 -64q0 -42 28.5 -66t74.5 -24q45 0 73 25t28 65zM299 99q53 0 85 27t32 72q0 43 -32 69t-85 26t-85.5 -26t-32.5 -69q0 -45 32.5 -72t85.5 -27z" />
    <glyph glyph-name="nine.osf" horiz-adv-x="581" 
d="M282 559q122 0 193.5 -90.5t71.5 -248.5q0 -155 -75 -251t-201 -96q-102 0 -161.5 54.5t-61.5 141.5h136q3 -38 26 -60t66 -22q58 0 92.5 54t35.5 154q-61 -63 -152 -63q-99 0 -159 53t-60 143q0 101 68.5 166t180.5 65zM283 244q66 0 117 59q-18 142 -119 142
q-44 0 -73 -28.5t-29 -74.5q0 -45 26 -71.5t78 -26.5z" />
    <glyph glyph-name="zero.tf" horiz-adv-x="620" 
d="M30 333q0 155 76 252t206 97q131 0 205 -94t74 -250q0 -155 -76 -252.5t-206 -97.5q-131 0 -205 94.5t-74 250.5zM438 337q0 100 -32 161t-95 61t-95.5 -62t-32.5 -163q0 -100 32.5 -161.5t95.5 -61.5t95 62.5t32 163.5z" />
    <glyph glyph-name="one.tf" horiz-adv-x="620" 
d="M396 129h146v-129h-464v129h169v392q-50 -45 -144 -55v129q97 13 149 75h144v-541z" />
    <glyph glyph-name="two.tf" horiz-adv-x="620" 
d="M57 26q1 100 54 171.5t182 137.5q69 39 93.5 66t24.5 71q0 41 -24.5 64.5t-67.5 23.5q-49 0 -76 -27t-27 -79q0 -14 1 -22h-148q-1 8 -1 25q0 104 68 164.5t185 60.5t179.5 -53.5t62.5 -147.5q0 -75 -42.5 -126t-146.5 -105q-58 -31 -82 -45.5t-44 -34t-26 -40.5h340
v-130h-505v26z" />
    <glyph glyph-name="three.tf" horiz-adv-x="620" 
d="M52 215h144q2 -50 31 -78t81 -28q50 0 80 25.5t30 69.5q0 43 -31 60.5t-96 17.5h-60v111h58q117 0 117 82q0 39 -24.5 62.5t-71.5 23.5t-74.5 -25t-27.5 -69q0 -8 1 -16h-141q-1 10 -1 19q0 95 67.5 153.5t180.5 58.5q114 0 176 -50t62 -135q0 -64 -33 -103t-91 -50v-3
q67 -8 103 -47.5t36 -105.5q0 -91 -70 -145.5t-187 -54.5q-132 0 -195.5 61t-63.5 166z" />
    <glyph glyph-name="four.tf" horiz-adv-x="620" 
d="M354 127h-323v124l307 419h157v-419h95v-124h-95v-127h-141v127zM216 251h138v199l1 41h-3q-11 -19 -26 -38l-114 -154q-30 -40 -35 -46v-3q5 0 18 0.5t21 0.5z" />
    <glyph glyph-name="five.tf" horiz-adv-x="620" 
d="M57 202h142q13 -93 104 -93q48 0 78.5 30t30.5 84q0 50 -27.5 77t-75.5 27q-66 0 -104 -53l-131 12l25 384h420l-7 -130h-291l-14 -151q53 56 136 56q99 0 160 -60t61 -159q0 -108 -72.5 -173t-189.5 -65q-118 0 -181 60.5t-64 153.5z" />
    <glyph glyph-name="six.tf" horiz-adv-x="620" 
d="M361 431q94 0 156 -55t62 -151q0 -105 -73.5 -171t-186.5 -66q-126 0 -202 92t-76 250q0 155 79 253.5t208 98.5q104 0 165 -57t63 -149h-143q-2 37 -26 60t-65 23q-60 0 -94.5 -55t-35.5 -151q66 78 169 78zM320 109q46 0 76.5 30t30.5 79q0 45 -26 70.5t-71 25.5
q-82 0 -134 -67q21 -138 124 -138z" />
    <glyph glyph-name="seven.tf" horiz-adv-x="620" 
d="M559 670v-119q-112 -135 -167 -260.5t-54 -290.5h-144q-1 153 52.5 284.5t152.5 257.5h-337v128h497z" />
    <glyph glyph-name="eight.tf" horiz-adv-x="620" 
d="M44 180q0 65 32 108t94 58v3q-49 16 -76.5 54.5t-27.5 94.5q0 78 65.5 131t179.5 53q116 0 179.5 -52.5t63.5 -130.5q0 -54 -29 -94.5t-79 -54.5v-3q130 -32 130 -163q0 -88 -70.5 -142t-196.5 -54q-125 0 -195 53t-70 139zM414 489q0 39 -29 62.5t-74 23.5
q-47 0 -76 -23.5t-29 -62.5q0 -41 28.5 -64.5t76.5 -23.5q45 0 74 24.5t29 63.5zM431 198q0 44 -33 71t-89 27q-54 0 -87 -27t-33 -71q0 -42 33.5 -68.5t87.5 -26.5q55 0 88 26t33 69z" />
    <glyph glyph-name="nine.tf" horiz-adv-x="620" 
d="M300 682q126 0 202 -92t76 -250q0 -155 -79 -253.5t-208 -98.5q-106 0 -168 57t-64 149h143q8 -41 30 -62t65 -21q61 0 95 54.5t35 153.5q-65 -77 -169 -77q-93 0 -154.5 55t-61.5 150q0 105 73 170t185 65zM297 363q76 0 125 61q-20 136 -126 136q-44 0 -73 -29.5
t-29 -76.5q0 -43 27.5 -67t75.5 -24z" />
    <glyph glyph-name="zero.tosf" horiz-adv-x="570" 
d="M36 272q0 132 68.5 209.5t181.5 77.5q115 0 182 -75t67 -207q0 -131 -69 -209t-182 -78q-115 0 -181.5 75.5t-66.5 206.5zM388 276q0 79 -26 122.5t-76 43.5q-51 0 -76.5 -44.5t-26.5 -123.5q1 -77 26.5 -122t75.5 -45t76.5 45.5t26.5 123.5z" />
    <glyph glyph-name="one.tosf" horiz-adv-x="570" 
d="M370 117h128v-117h-425v117h153v283q-45 -40 -124 -48v129q79 11 129 68h139v-432z" />
    <glyph glyph-name="two.tosf" horiz-adv-x="570" 
d="M41 28q0 66 43 129t145 103q93 36 123.5 60t30.5 60q0 32 -22.5 50.5t-65.5 18.5q-44 0 -69.5 -22.5t-25.5 -65.5q0 -11 1 -17h-144q-1 7 -1 20q0 89 66 142t179 53q109 0 169 -46.5t60 -125.5q0 -74 -40 -113t-143 -79q-73 -28 -102 -43.5t-36 -31.5h316v-120h-484v28z
" />
    <glyph glyph-name="three.tosf" horiz-adv-x="570" 
d="M35 81h140q5 -95 109 -95q47 0 75.5 24t28.5 68q0 84 -119 84h-63v110h57q54 0 82 23.5t28 66.5q0 38 -23.5 61t-67.5 23q-46 0 -72.5 -25t-26.5 -68q0 -9 1 -15h-138q-1 7 -1 17q0 91 67 147.5t177 56.5t170.5 -50.5t60.5 -134.5q0 -128 -124 -150v-3q66 -6 102.5 -46.5
t36.5 -107.5q0 -90 -67.5 -142t-183.5 -52q-125 0 -187 56t-62 152z" />
    <glyph glyph-name="four.tosf" horiz-adv-x="570" 
d="M330 32h-315v113l300 404h151v-400h88v-117h-88v-149h-136v149zM203 149h127v186q0 29 1 42h-4q-6 -10 -26 -38l-106 -143q-32 -42 -34 -45v-3q6 0 18.5 0.5t23.5 0.5z" />
    <glyph glyph-name="five.tosf" horiz-adv-x="570" 
d="M38 76h143q8 -86 98 -86q48 0 77.5 31.5t29.5 86.5q0 50 -27.5 78.5t-73.5 28.5q-65 0 -100 -54l-131 17l26 371h409l-6 -123h-294l-10 -145q47 47 131 47q100 0 161.5 -59t61.5 -160q0 -108 -69.5 -172t-184.5 -64q-117 0 -179 57.5t-62 145.5z" />
    <glyph glyph-name="six.tosf" horiz-adv-x="570" 
d="M333 423q94 0 151.5 -54t57.5 -147q0 -102 -69 -167t-180 -65q-122 0 -193.5 90.5t-71.5 247.5q0 155 76 250.5t204 95.5q100 0 159 -55.5t61 -144.5h-139q-3 39 -26 62.5t-62 23.5q-60 0 -95 -54t-35 -155q63 72 162 72zM294 105q43 0 72.5 30.5t29.5 77.5
q0 45 -24.5 71.5t-72.5 26.5q-71 0 -123 -67q20 -139 118 -139z" />
    <glyph glyph-name="seven.tosf" horiz-adv-x="570" 
d="M520 549v-112q-102 -125 -155 -257.5t-52 -296.5h-144q-1 285 189 543h-308v123h470z" />
    <glyph glyph-name="eight.tosf" horiz-adv-x="570" 
d="M20 182q0 132 131 164v3q-54 14 -83 53.5t-29 95.5q0 75 64.5 125.5t181.5 50.5q114 0 180 -50.5t66 -124.5q0 -56 -28.5 -95.5t-81.5 -55.5v-3q62 -16 95 -58.5t33 -105.5q0 -86 -69.5 -138.5t-193.5 -52.5q-125 0 -195.5 52.5t-70.5 139.5zM387 484q0 40 -28 64t-73 24
q-46 0 -74.5 -24t-28.5 -64q0 -42 28.5 -66t74.5 -24q45 0 73 25t28 65zM285 99q53 0 85 27t32 72q0 43 -32 69t-85 26t-85.5 -26t-32.5 -69q0 -45 32.5 -72t85.5 -27z" />
    <glyph glyph-name="nine.tosf" horiz-adv-x="570" 
d="M277 559q122 0 193.5 -90.5t71.5 -248.5q0 -155 -75 -251t-201 -96q-102 0 -161.5 54.5t-61.5 141.5h136q3 -38 26 -60t66 -22q58 0 92.5 54t35.5 154q-61 -63 -152 -63q-99 0 -159 53t-60 143q0 101 68.5 166t180.5 65zM278 244q66 0 117 59q-18 142 -119 142
q-44 0 -73 -28.5t-29 -74.5q0 -45 26 -71.5t78 -26.5z" />
    <glyph glyph-name="indianrupee" horiz-adv-x="599" 
d="M576 671v-92h-144q39 -36 53 -93h91v-92h-89q-10 -62 -48 -104.5t-97 -59.5l161 -230h-164l-147 211h-147v109h179q50 0 83.5 19.5t43.5 54.5h-306v92h307q-22 74 -129 74h-178v111h531z" />
    <glyph glyph-name="aacute.alt01" horiz-adv-x="593" 
d="M247 564l113 152h117l-125 -152h-105zM36 253q0 125 60 197.5t159 72.5q58 0 92.5 -23t46.5 -53h3v66h142v-513h-142v86h-3q-10 -39 -48.5 -67.5t-102.5 -28.5q-90 0 -148.5 68.5t-58.5 194.5zM395 248v29q0 62 -29 97.5t-73 35.5q-51 0 -80.5 -41t-29.5 -111
q0 -73 29 -113t77 -40q47 0 76.5 38t29.5 105z" />
    <glyph glyph-name="acircumflex.alt01" horiz-adv-x="593" 
d="M145 564l115 152h97l111 -152h-103l-59 80l-58 -80h-103zM36 253q0 125 60 197.5t159 72.5q58 0 92.5 -23t46.5 -53h3v66h142v-513h-142v86h-3q-10 -39 -48.5 -67.5t-102.5 -28.5q-90 0 -148.5 68.5t-58.5 194.5zM395 248v29q0 62 -29 97.5t-73 35.5q-51 0 -80.5 -41
t-29.5 -111q0 -73 29 -113t77 -40q47 0 76.5 38t29.5 105z" />
    <glyph glyph-name="adieresis.alt01" horiz-adv-x="593" 
d="M161 706h112v-117h-112v117zM337 706h112v-117h-112v117zM36 253q0 125 60 197.5t159 72.5q58 0 92.5 -23t46.5 -53h3v66h142v-513h-142v86h-3q-10 -39 -48.5 -67.5t-102.5 -28.5q-90 0 -148.5 68.5t-58.5 194.5zM395 248v29q0 62 -29 97.5t-73 35.5q-51 0 -80.5 -41
t-29.5 -111q0 -73 29 -113t77 -40q47 0 76.5 38t29.5 105z" />
    <glyph glyph-name="agrave.alt01" horiz-adv-x="593" 
d="M139 716h117l113 -152h-106zM36 253q0 125 60 197.5t159 72.5q58 0 92.5 -23t46.5 -53h3v66h142v-513h-142v86h-3q-10 -39 -48.5 -67.5t-102.5 -28.5q-90 0 -148.5 68.5t-58.5 194.5zM395 248v29q0 62 -29 97.5t-73 35.5q-51 0 -80.5 -41t-29.5 -111q0 -73 29 -113
t77 -40q47 0 76.5 38t29.5 105z" />
    <glyph glyph-name="aring.alt01" horiz-adv-x="593" 
d="M188 650q0 45 33.5 74.5t83.5 29.5t83.5 -30t33.5 -74q0 -46 -33 -75t-84 -29q-50 0 -83.5 29.5t-33.5 74.5zM348 650q0 19 -12 31t-31 12t-31 -12t-12 -31t12 -31t31 -12t31 12t12 31zM36 253q0 125 60 197.5t159 72.5q58 0 92.5 -23t46.5 -53h3v66h142v-513h-142v86h-3
q-10 -39 -48.5 -67.5t-102.5 -28.5q-90 0 -148.5 68.5t-58.5 194.5zM395 248v29q0 62 -29 97.5t-73 35.5q-51 0 -80.5 -41t-29.5 -111q0 -73 29 -113t77 -40q47 0 76.5 38t29.5 105z" />
    <glyph glyph-name="atilde.alt01" horiz-adv-x="593" 
d="M242 707q36 0 71 -29q28 -24 46 -24q16 0 24.5 10.5t9.5 40.5h77q2 -63 -25.5 -100t-76.5 -37q-36 0 -71 29q-28 24 -46 24q-16 0 -24.5 -10.5t-9.5 -40.5h-77q-2 63 25.5 100t76.5 37zM36 253q0 125 60 197.5t159 72.5q58 0 92.5 -23t46.5 -53h3v66h142v-513h-142v86h-3
q-10 -39 -48.5 -67.5t-102.5 -28.5q-90 0 -148.5 68.5t-58.5 194.5zM395 248v29q0 62 -29 97.5t-73 35.5q-51 0 -80.5 -41t-29.5 -111q0 -73 29 -113t77 -40q47 0 76.5 38t29.5 105z" />
    <glyph glyph-name="abreve.alt01" horiz-adv-x="593" 
d="M162 710h88q5 -34 18 -48.5t37 -14.5q47 0 57 63h87q-5 -73 -41.5 -111.5t-102.5 -38.5t-102 38.5t-41 111.5zM36 253q0 125 60 197.5t159 72.5q58 0 92.5 -23t46.5 -53h3v66h142v-513h-142v86h-3q-10 -39 -48.5 -67.5t-102.5 -28.5q-90 0 -148.5 68.5t-58.5 194.5z
M395 248v29q0 62 -29 97.5t-73 35.5q-51 0 -80.5 -41t-29.5 -111q0 -73 29 -113t77 -40q47 0 76.5 38t29.5 105z" />
    <glyph glyph-name="amacron.alt01" horiz-adv-x="593" 
d="M169 674h271v-90h-271v90zM36 253q0 125 60 197.5t159 72.5q58 0 92.5 -23t46.5 -53h3v66h142v-513h-142v86h-3q-10 -39 -48.5 -67.5t-102.5 -28.5q-90 0 -148.5 68.5t-58.5 194.5zM395 248v29q0 62 -29 97.5t-73 35.5q-51 0 -80.5 -41t-29.5 -111q0 -73 29 -113t77 -40
q47 0 76.5 38t29.5 105z" />
    <glyph glyph-name="aogonek.alt01" horiz-adv-x="593" 
d="M500 -135q26 0 47 12v-81q-29 -13 -74 -13q-47 0 -81 25t-34 71q0 70 108 121h-69v86h-3q-10 -39 -48.5 -67.5t-102.5 -28.5q-90 0 -148.5 68.5t-58.5 194.5q0 125 60 197.5t159 72.5q58 0 92.5 -23t46.5 -53h3v66h142v-513q-50 -31 -66 -52t-16 -42q0 -41 43 -41z
M395 248v29q0 62 -29 97.5t-73 35.5q-51 0 -80.5 -41t-29.5 -111q0 -73 29 -113t77 -40q47 0 76.5 38t29.5 105z" />
    <glyph glyph-name="aacute.alt02" horiz-adv-x="527" 
d="M214 564l113 152h117l-125 -152h-105zM34 132q0 50 24 84t69 51t95 24t117 8v36q0 83 -74 83q-34 0 -55 -18t-21 -50q0 -4 0.5 -7t1 -9t0.5 -11h-136q-1 10 -1 29q0 76 60 123.5t156 47.5q102 0 154.5 -50t52.5 -143v-330h-133v70h-2q-14 -36 -55 -58t-103 -22
q-70 0 -110 37t-40 105zM245 95q32 0 57 19t37 51v51q-84 -3 -122.5 -18t-38.5 -52q0 -51 67 -51z" />
    <glyph glyph-name="acircumflex.alt02" horiz-adv-x="527" 
d="M112 564l115 152h97l111 -152h-103l-59 80l-58 -80h-103zM34 132q0 50 24 84t69 51t95 24t117 8v36q0 83 -74 83q-34 0 -55 -18t-21 -50q0 -4 0.5 -7t1 -9t0.5 -11h-136q-1 10 -1 29q0 76 60 123.5t156 47.5q102 0 154.5 -50t52.5 -143v-330h-133v70h-2q-14 -36 -55 -58
t-103 -22q-70 0 -110 37t-40 105zM245 95q32 0 57 19t37 51v51q-84 -3 -122.5 -18t-38.5 -52q0 -51 67 -51z" />
    <glyph glyph-name="adieresis.alt02" horiz-adv-x="527" 
d="M128 706h112v-117h-112v117zM304 706h112v-117h-112v117zM34 132q0 50 24 84t69 51t95 24t117 8v36q0 83 -74 83q-34 0 -55 -18t-21 -50q0 -4 0.5 -7t1 -9t0.5 -11h-136q-1 10 -1 29q0 76 60 123.5t156 47.5q102 0 154.5 -50t52.5 -143v-330h-133v70h-2q-14 -36 -55 -58
t-103 -22q-70 0 -110 37t-40 105zM245 95q32 0 57 19t37 51v51q-84 -3 -122.5 -18t-38.5 -52q0 -51 67 -51z" />
    <glyph glyph-name="agrave.alt02" horiz-adv-x="527" 
d="M106 716h117l113 -152h-106zM34 132q0 50 24 84t69 51t95 24t117 8v36q0 83 -74 83q-34 0 -55 -18t-21 -50q0 -4 0.5 -7t1 -9t0.5 -11h-136q-1 10 -1 29q0 76 60 123.5t156 47.5q102 0 154.5 -50t52.5 -143v-330h-133v70h-2q-14 -36 -55 -58t-103 -22q-70 0 -110 37
t-40 105zM245 95q32 0 57 19t37 51v51q-84 -3 -122.5 -18t-38.5 -52q0 -51 67 -51z" />
    <glyph glyph-name="aring.alt02" horiz-adv-x="527" 
d="M155 650q0 45 33.5 74.5t83.5 29.5t83.5 -30t33.5 -74q0 -46 -33 -75t-84 -29q-50 0 -83.5 29.5t-33.5 74.5zM315 650q0 19 -12 31t-31 12t-31 -12t-12 -31t12 -31t31 -12t31 12t12 31zM34 132q0 50 24 84t69 51t95 24t117 8v36q0 83 -74 83q-34 0 -55 -18t-21 -50
q0 -4 0.5 -7t1 -9t0.5 -11h-136q-1 10 -1 29q0 76 60 123.5t156 47.5q102 0 154.5 -50t52.5 -143v-330h-133v70h-2q-14 -36 -55 -58t-103 -22q-70 0 -110 37t-40 105zM245 95q32 0 57 19t37 51v51q-84 -3 -122.5 -18t-38.5 -52q0 -51 67 -51z" />
    <glyph glyph-name="atilde.alt02" horiz-adv-x="527" 
d="M209 707q36 0 71 -29q28 -24 46 -24q16 0 24.5 10.5t9.5 40.5h77q2 -63 -25.5 -100t-76.5 -37q-36 0 -71 29q-28 24 -46 24q-16 0 -24.5 -10.5t-9.5 -40.5h-77q-2 63 25.5 100t76.5 37zM34 132q0 50 24 84t69 51t95 24t117 8v36q0 83 -74 83q-34 0 -55 -18t-21 -50
q0 -4 0.5 -7t1 -9t0.5 -11h-136q-1 10 -1 29q0 76 60 123.5t156 47.5q102 0 154.5 -50t52.5 -143v-330h-133v70h-2q-14 -36 -55 -58t-103 -22q-70 0 -110 37t-40 105zM245 95q32 0 57 19t37 51v51q-84 -3 -122.5 -18t-38.5 -52q0 -51 67 -51z" />
    <glyph glyph-name="abreve.alt02" horiz-adv-x="527" 
d="M129 710h88q5 -34 18 -48.5t37 -14.5q47 0 57 63h87q-5 -73 -41.5 -111.5t-102.5 -38.5t-102 38.5t-41 111.5zM34 132q0 50 24 84t69 51t95 24t117 8v36q0 83 -74 83q-34 0 -55 -18t-21 -50q0 -4 0.5 -7t1 -9t0.5 -11h-136q-1 10 -1 29q0 76 60 123.5t156 47.5
q102 0 154.5 -50t52.5 -143v-330h-133v70h-2q-14 -36 -55 -58t-103 -22q-70 0 -110 37t-40 105zM245 95q32 0 57 19t37 51v51q-84 -3 -122.5 -18t-38.5 -52q0 -51 67 -51z" />
    <glyph glyph-name="amacron.alt02" horiz-adv-x="527" 
d="M136 674h271v-90h-271v90zM34 132q0 50 24 84t69 51t95 24t117 8v36q0 83 -74 83q-34 0 -55 -18t-21 -50q0 -4 0.5 -7t1 -9t0.5 -11h-136q-1 10 -1 29q0 76 60 123.5t156 47.5q102 0 154.5 -50t52.5 -143v-330h-133v70h-2q-14 -36 -55 -58t-103 -22q-70 0 -110 37
t-40 105zM245 95q32 0 57 19t37 51v51q-84 -3 -122.5 -18t-38.5 -52q0 -51 67 -51z" />
    <glyph glyph-name="aogonek.alt02" horiz-adv-x="527" 
d="M438 -135q26 0 47 12v-81q-29 -13 -74 -13q-47 0 -81 25t-34 71q0 70 108 121h-60v70h-2q-14 -36 -55 -58t-103 -22q-70 0 -110 37t-40 105q0 50 24 84t69 51t95 24t117 8v36q0 83 -74 83q-34 0 -55 -18t-21 -50q0 -4 0.5 -7t1 -9t0.5 -11h-136q-1 10 -1 29
q0 76 60 123.5t156 47.5q102 0 154.5 -50t52.5 -143v-330q-50 -31 -66 -52t-16 -42q0 -41 43 -41zM339 165v51q-84 -3 -122.5 -18t-38.5 -52q0 -51 67 -51q32 0 57 19t37 51z" />
    <glyph glyph-name="gbreve.alt01" horiz-adv-x="591" 
d="M296 560q-66 0 -102 38.5t-41 111.5h88q5 -34 18 -48.5t37 -14.5q47 0 57 63h87q-5 -73 -41.5 -111.5t-102.5 -38.5zM395 513h142v-511q0 -114 -70 -172.5t-181 -58.5q-109 0 -174 51.5t-59 147.5h143q-3 -42 20.5 -65.5t70.5 -23.5q106 0 106 114v47q0 9 0.5 24t0.5 22
h-3q-33 -93 -141 -93q-95 0 -155.5 68t-60.5 194q0 124 63.5 195t159.5 71q58 0 92.5 -25t42.5 -53h3v68zM288 109q46 0 76 37.5t30 103.5v28q0 62 -29 97.5t-74 35.5q-50 0 -80 -41t-30 -111q0 -71 29.5 -110.5t77.5 -39.5z" />
    <glyph glyph-name="gcircumflex.alt01" horiz-adv-x="591" 
d="M297 644l-58 -80h-103l115 152h97l111 -152h-103zM395 513h142v-511q0 -114 -70 -172.5t-181 -58.5q-109 0 -174 51.5t-59 147.5h143q-3 -42 20.5 -65.5t70.5 -23.5q106 0 106 114v47q0 9 0.5 24t0.5 22h-3q-33 -93 -141 -93q-95 0 -155.5 68t-60.5 194q0 124 63.5 195
t159.5 71q58 0 92.5 -25t42.5 -53h3v68zM288 109q46 0 76 37.5t30 103.5v28q0 62 -29 97.5t-74 35.5q-50 0 -80 -41t-30 -111q0 -71 29.5 -110.5t77.5 -39.5z" />
    <glyph glyph-name="gcommaaccent.alt01" horiz-adv-x="591" 
d="M353 675v-97h-116v86l51 101h64l-37 -90h38zM395 513h142v-511q0 -114 -70 -172.5t-181 -58.5q-109 0 -174 51.5t-59 147.5h143q-3 -42 20.5 -65.5t70.5 -23.5q106 0 106 114v47q0 9 0.5 24t0.5 22h-3q-33 -93 -141 -93q-95 0 -155.5 68t-60.5 194q0 124 63.5 195
t159.5 71q58 0 92.5 -25t42.5 -53h3v68zM288 109q46 0 76 37.5t30 103.5v28q0 62 -29 97.5t-74 35.5q-50 0 -80 -41t-30 -111q0 -71 29.5 -110.5t77.5 -39.5z" />
    <glyph glyph-name="gdotaccent.alt01" horiz-adv-x="591" 
d="M362 716v-127h-133v127h133zM395 513h142v-511q0 -114 -70 -172.5t-181 -58.5q-109 0 -174 51.5t-59 147.5h143q-3 -42 20.5 -65.5t70.5 -23.5q106 0 106 114v47q0 9 0.5 24t0.5 22h-3q-33 -93 -141 -93q-95 0 -155.5 68t-60.5 194q0 124 63.5 195t159.5 71
q58 0 92.5 -25t42.5 -53h3v68zM288 109q46 0 76 37.5t30 103.5v28q0 62 -29 97.5t-74 35.5q-50 0 -80 -41t-30 -111q0 -71 29.5 -110.5t77.5 -39.5z" />
    <glyph glyph-name="i.dot" 
d="M56 720h146v-138h-146v138zM57 513h144v-513h-144v513z" />
    <glyph glyph-name="racute.alt01" horiz-adv-x="478" 
d="M215 564l113 152h117l-125 -152h-105zM57 513h142v-95h3q17 51 47.5 78t86.5 27q60 0 93 -38t33 -109q0 -40 -8 -69h-133q3 15 3 32q0 58 -49 58q-32 0 -53 -34.5t-21 -93.5v-269h-144v513z" />
    <glyph glyph-name="rcaron.alt01" horiz-adv-x="478" 
d="M436 713l-114 -152h-97l-112 152h103l59 -80l58 80h103zM57 513h142v-95h3q17 51 47.5 78t86.5 27q60 0 93 -38t33 -109q0 -40 -8 -69h-133q3 15 3 32q0 58 -49 58q-32 0 -53 -34.5t-21 -93.5v-269h-144v513z" />
    <glyph glyph-name="rcommaaccent.alt01" horiz-adv-x="478" 
d="M336 523q60 0 93 -38t33 -109q0 -40 -8 -69h-133q3 15 3 32q0 58 -49 58q-32 0 -53 -34.5t-21 -93.5v-269h-144v513h142v-95h3q17 51 47.5 78t86.5 27zM73 -151v97h116v-86l-51 -101h-64l38 90h-39z" />
    <glyph glyph-name="dot.catalan" horiz-adv-x="158" 
d="M10 429h138v-130h-138v130z" />
    </font>
</defs>
</svg>
