<svg width="82" height="82" viewBox="0 0 82 82" fill="none" xmlns="http://www.w3.org/2000/svg">
<path d="M41 45.9961C35.3479 45.9961 30.75 51.2529 30.75 57.7104C30.75 64.1679 35.3479 69.4247 41 69.4247C46.6521 69.4247 51.25 64.1679 51.25 57.7104C51.25 51.2529 46.6521 45.9961 41 45.9961ZM41 66.4961C36.9586 66.4961 33.6786 62.5572 33.6786 57.7104C33.6786 52.8636 36.9586 48.9247 41 48.9247C45.0414 48.9247 48.3214 52.8636 48.3214 57.7104C48.3214 62.5572 45.0414 66.4961 41 66.4961Z" fill="url(#paint0_linear_7473_3092)"/>
<path d="M77.2411 34.7803L65.5268 14.4706C64.5559 12.7891 62.9568 11.5621 61.0812 11.0596C59.2057 10.557 57.2073 10.8201 55.5257 11.791C54.8521 12.1863 57.1804 13.2553 35.8311 0.98454C34.1513 0.012482 32.1542 -0.252842 30.2789 0.246883C28.4036 0.746609 26.8034 1.97049 25.83 3.64954C6.19393 37.6795 8.5075 34.2824 7.32143 34.2824C5.37966 34.2824 3.51743 35.0538 2.1444 36.4268C0.771363 37.7998 0 39.6621 0 41.6038V73.8181C0 75.7599 0.771363 77.6221 2.1444 78.9951C3.51743 80.3682 5.37966 81.1395 7.32143 81.1395H74.6786C76.6203 81.1395 78.4826 80.3682 79.8556 78.9951C81.2286 77.6221 82 75.7599 82 73.8181V41.6038C81.9929 40.1179 81.5339 38.6693 80.6839 37.4505C79.8338 36.2316 78.633 35.3003 77.2411 34.7803ZM62.9643 15.9349L73.5657 34.2824H70.1979L63.3889 22.4803C63.2933 22.3125 63.1654 22.1653 63.0126 22.0471C62.8598 21.929 62.6851 21.8422 62.4986 21.7919C62.3122 21.7415 62.1176 21.7285 61.9261 21.7537C61.7346 21.7789 61.55 21.8417 61.3829 21.9385C60.883 22.2272 60.3311 22.4146 59.7587 22.49C59.1864 22.5653 58.6048 22.5271 58.0472 22.3775C57.4896 22.2279 56.967 21.9699 56.5093 21.6181C56.0515 21.2664 55.6675 20.828 55.3793 20.3278C55.2836 20.16 55.1557 20.0128 55.0029 19.8946C54.8501 19.7765 54.6755 19.6897 54.489 19.6394C54.3025 19.589 54.108 19.576 53.9165 19.6012C53.725 19.6264 53.5403 19.6892 53.3732 19.786L28.2754 34.2824H22.4182L56.9754 14.3388C57.9818 13.7591 59.1769 13.6015 60.2993 13.9006C61.4216 14.1997 62.3798 14.9311 62.9643 15.9349ZM53.6807 22.9928C54.6338 24.072 55.8839 24.8462 57.2747 25.2186C58.6654 25.5911 60.1352 25.5452 61.5 25.0867L66.8154 34.2824H34.1325L53.6807 22.9928ZM19.1529 32.8181L29.8568 14.2803C31.221 14.7339 32.6886 14.7758 34.0765 14.4009C35.4644 14.0259 36.7113 13.2506 37.6614 12.1717L46.2714 17.1503L19.1529 32.8181ZM28.3779 5.12847C28.9623 4.12471 29.9205 3.39327 31.0429 3.09417C32.1652 2.79506 33.3603 2.95262 34.3668 3.5324L52.1286 13.7824L49.2 15.481L37.9836 8.99418C37.6473 8.80328 37.2493 8.7531 36.8762 8.8546C36.5031 8.9561 36.1853 9.20104 35.9921 9.53597C35.7039 10.0381 35.3193 10.4783 34.8604 10.8313C34.4014 11.1843 33.8773 11.4431 33.318 11.5927C32.7587 11.7424 32.1753 11.7801 31.6014 11.7035C31.0275 11.627 30.4744 11.4377 29.9739 11.1467C29.8068 11.0499 29.6222 10.9871 29.4307 10.9619C29.2392 10.9367 29.0446 10.9497 28.8581 11.0001C28.6717 11.0504 28.497 11.1372 28.3442 11.2553C28.1914 11.3735 28.0635 11.5207 27.9679 11.6885L14.9064 34.2824H11.5239L28.3779 5.12847ZM79.0714 73.8181C79.0714 74.9832 78.6086 76.1005 77.7848 76.9243C76.961 77.7481 75.8436 78.211 74.6786 78.211H7.32143C6.15637 78.211 5.03903 77.7481 4.21521 76.9243C3.39139 76.1005 2.92857 74.9832 2.92857 73.8181V41.6038C2.92857 40.4388 3.39139 39.3214 4.21521 38.4976C5.03903 37.6738 6.15637 37.211 7.32143 37.211H74.6786C75.8436 37.211 76.961 37.6738 77.7848 38.4976C78.6086 39.3214 79.0714 40.4388 79.0714 41.6038V73.8181Z" fill="url(#paint1_linear_7473_3092)"/>
<path d="M74.6785 45.9958C73.5134 45.9958 72.3961 45.533 71.5723 44.7092C70.7485 43.8854 70.2856 42.768 70.2856 41.603C70.2856 41.2146 70.1314 40.8422 69.8568 40.5676C69.5821 40.2929 69.2097 40.1387 68.8213 40.1387H13.1785C12.7901 40.1387 12.4177 40.2929 12.1431 40.5676C11.8685 40.8422 11.7142 41.2146 11.7142 41.603C11.7142 42.768 11.2514 43.8854 10.4276 44.7092C9.60374 45.533 8.4864 45.9958 7.32134 45.9958C6.93299 45.9958 6.56054 46.1501 6.28594 46.4247C6.01133 46.6993 5.85706 47.0717 5.85706 47.4601V67.9601C5.85706 68.3485 6.01133 68.7209 6.28594 68.9955C6.56054 69.2701 6.93299 69.4244 7.32134 69.4244C8.4864 69.4244 9.60374 69.8872 10.4276 70.711C11.2514 71.5348 11.7142 72.6522 11.7142 73.8172C11.7142 74.2056 11.8685 74.578 12.1431 74.8526C12.4177 75.1273 12.7901 75.2815 13.1785 75.2815H68.8213C69.2097 75.2815 69.5821 75.1273 69.8568 74.8526C70.1314 74.578 70.2856 74.2056 70.2856 73.8172C70.2856 72.6522 70.7485 71.5348 71.5723 70.711C72.3961 69.8872 73.5134 69.4244 74.6785 69.4244C75.0668 69.4244 75.4393 69.2701 75.7139 68.9955C75.9885 68.7209 76.1428 68.3485 76.1428 67.9601V47.4601C76.1428 47.0717 75.9885 46.6993 75.7139 46.4247C75.4393 46.1501 75.0668 45.9958 74.6785 45.9958ZM73.2142 66.6422C71.8072 66.9292 70.5156 67.6236 69.5002 68.639C68.4848 69.6544 67.7904 70.9459 67.5035 72.353H14.4963C14.2094 70.9459 13.515 69.6544 12.4996 68.639C11.4842 67.6236 10.1926 66.9292 8.78563 66.6422V48.778C10.1926 48.491 11.4842 47.7966 12.4996 46.7812C13.515 45.7658 14.2094 44.4743 14.4963 43.0672H67.5035C67.7904 44.4743 68.4848 45.7658 69.5002 46.7812C70.5156 47.7966 71.8072 48.491 73.2142 48.778V66.6422Z" fill="url(#paint2_linear_7473_3092)"/>
<defs>
<linearGradient id="paint0_linear_7473_3092" x1="41" y1="45.4716" x2="41" y2="69.5064" gradientUnits="userSpaceOnUse">
<stop stop-color="#00EFD1"/>
<stop offset="1" stop-color="#00ACEA"/>
</linearGradient>
<linearGradient id="paint1_linear_7473_3092" x1="40.9998" y1="-1.81664" x2="40.9998" y2="81.4225" gradientUnits="userSpaceOnUse">
<stop stop-color="#00EFD1"/>
<stop offset="1" stop-color="#00ACEA"/>
</linearGradient>
<linearGradient id="paint2_linear_7473_3092" x1="40.9998" y1="39.3519" x2="40.9998" y2="75.4041" gradientUnits="userSpaceOnUse">
<stop stop-color="#00EFD1"/>
<stop offset="1" stop-color="#00ACEA"/>
</linearGradient>
</defs>
</svg>
