<svg width="210" height="192" viewBox="0 0 210 192" fill="none" xmlns="http://www.w3.org/2000/svg">
<ellipse cx="100.085" cy="95.4961" rx="93.939" ry="95.2559" fill="#C8D9FF"/>
<path d="M67.863 55.8164H15.5593V168.901H67.863V55.8164Z" fill="#407BFF"/>
<path opacity="0.4" d="M67.8632 55.5488H28.8612V168.91H67.8632V55.5488Z" fill="black"/>
<path d="M35.9197 169.055C35.8484 170.743 41.1801 172.335 47.8033 172.621C54.4264 172.906 59.9008 171.765 59.9721 170.077C60.0434 168.39 54.7116 166.805 48.0885 166.52C41.4653 166.235 35.991 167.376 35.9197 169.055Z" fill="#407BFF"/>
<path d="M36.0414 165.996L35.9121 169.043L59.9904 170.065L60.1197 167.017L36.0414 165.996Z" fill="#407BFF"/>
<path d="M36.0466 166.005C35.9753 167.692 41.3071 169.285 47.9302 169.57C54.5533 169.855 60.0277 168.714 60.099 167.027C60.1703 165.339 54.8385 163.755 48.2154 163.469C41.5923 163.184 36.1179 164.325 36.0466 166.005Z" fill="#407BFF"/>
<path opacity="0.4" d="M36.0466 166.005C35.9753 167.692 41.3071 169.285 47.9302 169.57C54.5533 169.855 60.0277 168.714 60.099 167.027C60.1703 165.339 54.8385 163.755 48.2154 163.469C41.5923 163.184 36.1179 164.325 36.0466 166.005Z" fill="white"/>
<path d="M37.5831 165.956C37.5831 166.065 37.6193 166.171 37.6861 166.257C38.4784 165.267 42.8911 164.673 48.1516 164.903C53.4121 165.132 57.7615 166.083 58.4507 167.137C58.5292 167.059 58.5747 166.954 58.5775 166.844C58.625 165.703 53.9667 164.562 48.1595 164.316C42.3524 164.071 37.6307 164.816 37.5831 165.956Z" fill="#407BFF"/>
<path opacity="0.4" d="M37.5831 165.956C37.5831 166.065 37.6193 166.171 37.6861 166.257C38.4784 165.267 42.8911 164.673 48.1516 164.903C53.4121 165.132 57.7615 166.083 58.4507 167.137C58.5292 167.059 58.5747 166.954 58.5775 166.844C58.625 165.703 53.9667 164.562 48.1595 164.316C42.3524 164.071 37.6307 164.816 37.5831 165.956Z" fill="#407BFF"/>
<path opacity="0.4" d="M37.686 166.256C38.407 167.309 42.7405 168.26 47.9852 168.482C53.2298 168.704 57.6584 168.125 58.4506 167.135C57.7456 166.081 53.412 165.131 48.1515 164.901C42.891 164.671 38.4941 165.265 37.686 166.256Z" fill="#407BFF"/>
<path d="M33.3604 164.44C33.2891 166.128 38.6209 167.72 45.2441 168.005C51.8672 168.291 57.3416 167.15 57.4129 165.47C57.4842 163.791 52.1524 162.19 45.5293 161.905C38.9061 161.62 33.4634 162.761 33.3604 164.44Z" fill="#407BFF"/>
<path d="M33.5225 161.392L33.3932 164.439L57.4715 165.461L57.6008 162.414L33.5225 161.392Z" fill="#407BFF"/>
<path d="M33.5191 161.395C33.4478 163.075 38.7796 164.667 45.4027 164.953C52.0259 165.238 57.5003 164.097 57.5716 162.417C57.6429 160.738 52.3111 159.138 45.688 158.852C39.0648 158.567 33.5904 159.708 33.5191 161.395Z" fill="#407BFF"/>
<path opacity="0.4" d="M33.5191 161.395C33.4478 163.075 38.7796 164.667 45.4027 164.953C52.0259 165.238 57.5003 164.097 57.5716 162.417C57.6429 160.738 52.3111 159.138 45.688 158.852C39.0648 158.567 33.5904 159.708 33.5191 161.395Z" fill="white"/>
<path d="M35.0559 161.333C35.0525 161.443 35.0892 161.55 35.1589 161.634C35.9511 160.644 40.3639 160.05 45.6244 160.288C50.8848 160.525 55.2342 161.46 55.9235 162.514C55.9956 162.435 56.0401 162.335 56.0502 162.229C56.0978 161.088 51.4394 159.939 45.6323 159.693C39.8252 159.448 35.1034 160.192 35.0559 161.333Z" fill="#407BFF"/>
<path opacity="0.4" d="M35.0559 161.333C35.0525 161.443 35.0892 161.55 35.1589 161.634C35.9511 160.644 40.3639 160.05 45.6244 160.288C50.8848 160.525 55.2342 161.46 55.9235 162.514C55.9956 162.435 56.0401 162.335 56.0502 162.229C56.0978 161.088 51.4394 159.939 45.6323 159.693C39.8252 159.448 35.1034 160.192 35.0559 161.333Z" fill="#407BFF"/>
<path opacity="0.4" d="M35.1594 161.636C35.8724 162.69 40.2139 163.641 45.4585 163.862C50.7032 164.084 55.1318 163.506 55.924 162.516C55.2189 161.462 50.8854 160.511 45.6249 160.289C40.3644 160.068 35.9596 160.646 35.1594 161.636Z" fill="#407BFF"/>
<path d="M33.7171 158.87C33.6458 160.557 38.9776 162.15 45.6007 162.435C52.2239 162.72 57.6982 161.579 57.7696 159.892C57.8409 158.204 52.5091 156.62 45.8859 156.335C39.2628 156.05 33.7884 157.19 33.7171 158.87Z" fill="#407BFF"/>
<path d="M33.8423 155.83L33.713 158.877L57.7913 159.899L57.9206 156.851L33.8423 155.83Z" fill="#407BFF"/>
<path d="M33.8441 155.825C33.7728 157.512 39.1046 159.105 45.7277 159.39C52.3508 159.675 57.8173 158.534 57.8886 156.855C57.9599 155.175 52.6281 153.575 46.005 153.29C39.3819 153.005 33.9154 154.145 33.8441 155.825Z" fill="#407BFF"/>
<path opacity="0.4" d="M33.8441 155.825C33.7728 157.512 39.1046 159.105 45.7277 159.39C52.3508 159.675 57.8173 158.534 57.8886 156.855C57.9599 155.175 52.6281 153.575 46.005 153.29C39.3819 153.005 33.9154 154.145 33.8441 155.825Z" fill="white"/>
<path d="M35.3815 155.777C35.3814 155.886 35.4177 155.992 35.4845 156.078C36.2767 155.087 40.6895 154.493 45.95 154.731C51.2104 154.969 55.5598 155.903 56.2491 156.957C56.3271 156.882 56.3726 156.78 56.3758 156.672C56.4234 155.531 51.765 154.382 45.9579 154.137C40.1507 153.891 35.429 154.636 35.3815 155.777Z" fill="#407BFF"/>
<path opacity="0.4" d="M35.3815 155.777C35.3814 155.886 35.4177 155.992 35.4845 156.078C36.2767 155.087 40.6895 154.493 45.95 154.731C51.2104 154.969 55.5598 155.903 56.2491 156.957C56.3271 156.882 56.3726 156.78 56.3758 156.672C56.4234 155.531 51.765 154.382 45.9579 154.137C40.1507 153.891 35.429 154.636 35.3815 155.777Z" fill="#407BFF"/>
<path opacity="0.4" d="M35.4844 156.081C36.2053 157.134 40.5389 158.085 45.7835 158.307C51.0281 158.529 55.4568 157.95 56.249 156.96C55.5439 155.906 51.2103 154.956 45.9499 154.734C40.6894 154.512 36.2925 155.106 35.4844 156.081Z" fill="#407BFF"/>
<path d="M31.1905 154.263C31.1192 155.942 36.451 157.535 43.0741 157.82C49.6973 158.105 55.1716 156.964 55.2429 155.285C55.3142 153.605 49.9825 152.005 43.3593 151.719C36.7362 151.434 31.2618 152.575 31.1905 154.263Z" fill="#407BFF"/>
<path d="M31.3063 151.193L31.177 154.24L55.2553 155.262L55.3846 152.215L31.3063 151.193Z" fill="#407BFF"/>
<path d="M31.3174 151.209C31.2461 152.888 36.5778 154.481 43.201 154.766C49.8241 155.051 55.2985 153.91 55.3698 152.231C55.4411 150.551 50.1093 148.951 43.4862 148.666C36.863 148.381 31.3887 149.553 31.3174 151.209Z" fill="#407BFF"/>
<path opacity="0.4" d="M31.3174 151.209C31.2461 152.888 36.5778 154.481 43.201 154.766C49.8241 155.051 55.2985 153.91 55.3698 152.231C55.4411 150.551 50.1093 148.951 43.4862 148.666C36.863 148.381 31.3887 149.553 31.3174 151.209Z" fill="white"/>
<path d="M32.8536 151.139C32.8487 151.249 32.8855 151.357 32.9566 151.44C33.7488 150.45 38.1616 149.856 43.4221 150.094C48.6825 150.331 53.0319 151.266 53.7212 152.32C53.7933 152.241 53.8378 152.141 53.8479 152.035C53.8955 150.894 49.2371 149.745 43.43 149.499C37.6229 149.254 32.9011 150.014 32.8536 151.139Z" fill="#407BFF"/>
<path opacity="0.4" d="M32.8536 151.139C32.8487 151.249 32.8855 151.357 32.9566 151.44C33.7488 150.45 38.1616 149.856 43.4221 150.094C48.6825 150.331 53.0319 151.266 53.7212 152.32C53.7933 152.241 53.8378 152.141 53.8479 152.035C53.8955 150.894 49.2371 149.745 43.43 149.499C37.6229 149.254 32.9011 150.014 32.8536 151.139Z" fill="#407BFF"/>
<path opacity="0.4" d="M32.9568 151.458C33.6698 152.512 38.0113 153.463 43.2559 153.685C48.5005 153.906 52.9292 153.328 53.7214 152.338C53.0163 151.284 48.6827 150.333 43.4223 150.112C38.1618 149.89 33.7569 150.468 32.9568 151.458Z" fill="#407BFF"/>
<path d="M35.0487 150.347C34.9774 152.026 40.3092 153.618 46.9323 153.904C53.5554 154.189 59.0298 153.048 59.1011 151.369C59.1724 149.689 53.8406 148.089 47.2175 147.803C40.5944 147.518 35.12 148.659 35.0487 150.347Z" fill="#407BFF"/>
<path d="M35.1739 147.298L35.0446 150.346L59.1228 151.368L59.2521 148.32L35.1739 147.298Z" fill="#407BFF"/>
<path d="M35.1832 147.302C35.1119 148.982 40.4437 150.574 47.0668 150.859C53.6899 151.144 59.1643 150.004 59.2356 148.324C59.3069 146.645 53.9751 145.044 47.352 144.759C40.7289 144.474 35.2545 145.599 35.1832 147.302Z" fill="#407BFF"/>
<path opacity="0.4" d="M35.1832 147.302C35.1119 148.982 40.4437 150.574 47.0668 150.859C53.6899 151.144 59.1643 150.004 59.2356 148.324C59.3069 146.645 53.9751 145.044 47.352 144.759C40.7289 144.474 35.2545 145.599 35.1832 147.302Z" fill="white"/>
<path d="M36.712 147.245C36.7148 147.354 36.7507 147.459 36.815 147.546C37.6073 146.556 42.028 145.962 47.2805 146.2C52.5331 146.437 56.8983 147.372 57.5797 148.426C57.6568 148.35 57.7045 148.249 57.7143 148.141C57.7619 147 53.1035 145.851 47.2964 145.605C41.4892 145.36 36.7675 146.105 36.712 147.245Z" fill="#407BFF"/>
<path opacity="0.4" d="M36.712 147.245C36.7148 147.354 36.7507 147.459 36.815 147.546C37.6073 146.556 42.028 145.962 47.2805 146.2C52.5331 146.437 56.8983 147.372 57.5797 148.426C57.6568 148.35 57.7045 148.249 57.7143 148.141C57.7619 147 53.1035 145.851 47.2964 145.605C41.4892 145.36 36.7675 146.105 36.712 147.245Z" fill="#407BFF"/>
<path opacity="0.4" d="M36.8149 147.542C37.5359 148.596 41.8694 149.547 47.1141 149.769C52.3587 149.99 56.7952 149.412 57.5796 148.422C56.8824 147.368 52.5409 146.417 47.2804 146.196C42.02 145.974 37.623 146.552 36.8149 147.542Z" fill="#407BFF"/>
<path d="M32.5211 145.73C32.4498 147.41 37.7816 149.01 44.4047 149.287C51.0278 149.565 56.5022 148.432 56.5735 146.752C56.6448 145.073 51.313 143.472 44.6899 143.187C38.0668 142.902 32.5686 144.011 32.5211 145.73Z" fill="#407BFF"/>
<path d="M32.6471 142.667L32.5178 145.715L56.5961 146.737L56.7254 143.689L32.6471 142.667Z" fill="#407BFF"/>
<path d="M32.648 142.679C32.5767 144.358 37.9085 145.958 44.5316 146.236C51.1548 146.513 56.6292 145.388 56.7005 143.701C56.7718 142.013 51.44 140.421 44.8169 140.136C38.1937 139.85 32.7193 140.991 32.648 142.679Z" fill="#407BFF"/>
<path opacity="0.4" d="M32.648 142.679C32.5767 144.358 37.9085 145.958 44.5316 146.236C51.1548 146.513 56.6292 145.388 56.7005 143.701C56.7718 142.013 51.44 140.421 44.8169 140.136C38.1937 139.85 32.7193 140.991 32.648 142.679Z" fill="white"/>
<path d="M34.153 142.625C34.1503 142.734 34.1869 142.841 34.256 142.926C35.0482 141.935 39.461 141.341 44.7214 141.579C49.9819 141.817 54.3313 142.751 55.0206 143.813C55.0977 143.734 55.1429 143.63 55.1473 143.52C55.1949 142.379 50.5365 141.238 44.7294 140.985C38.9223 140.731 34.2322 141.484 34.153 142.625Z" fill="#407BFF"/>
<path opacity="0.4" d="M34.153 142.625C34.1503 142.734 34.1869 142.841 34.256 142.926C35.0482 141.935 39.461 141.341 44.7214 141.579C49.9819 141.817 54.3313 142.751 55.0206 143.813C55.0977 143.734 55.1429 143.63 55.1473 143.52C55.1949 142.379 50.5365 141.238 44.7294 140.985C38.9223 140.731 34.2322 141.484 34.153 142.625Z" fill="#407BFF"/>
<path opacity="0.4" d="M34.2875 142.925C35.0084 143.979 39.342 144.93 44.5866 145.159C49.8312 145.389 54.2599 144.803 55.0521 143.813C54.347 142.751 50.0134 141.8 44.753 141.578C39.4925 141.357 35.0956 141.935 34.2875 142.925Z" fill="#407BFF"/>
<path d="M0.0153979 167.579C-0.0638261 169.267 5.26795 170.859 11.899 171.136C18.5301 171.414 23.9886 170.289 24.0599 168.601C24.1312 166.914 18.8073 165.321 12.1763 165.044C5.54523 164.767 0.0866996 165.892 0.0153979 167.579Z" fill="#407BFF"/>
<path d="M0.129322 164.521L0 167.568L24.0783 168.59L24.2076 165.543L0.129322 164.521Z" fill="#407BFF"/>
<path d="M0.142186 164.528C0.0708848 166.216 5.40266 167.808 12.0258 168.093C18.6489 168.379 24.1233 167.238 24.1946 165.55C24.2659 163.863 18.9341 162.27 12.311 161.993C5.68787 161.716 0.213488 162.841 0.142186 164.528Z" fill="#407BFF"/>
<path opacity="0.4" d="M0.142186 164.528C0.0708848 166.216 5.40266 167.808 12.0258 168.093C18.6489 168.379 24.1233 167.238 24.1946 165.55C24.2659 163.863 18.9341 162.27 12.311 161.993C5.68787 161.716 0.213488 162.841 0.142186 164.528Z" fill="white"/>
<path d="M1.6709 164.474C1.6644 164.584 1.70139 164.692 1.77389 164.775C2.56613 163.785 6.9789 163.191 12.2394 163.428C17.4999 163.666 21.8492 164.609 22.5385 165.663C22.6107 165.581 22.6551 165.478 22.6653 165.369C22.7128 164.229 18.0544 163.088 12.2473 162.842C6.44018 162.597 1.72635 163.333 1.6709 164.474Z" fill="#407BFF"/>
<path opacity="0.4" d="M1.6709 164.474C1.6644 164.584 1.70139 164.692 1.77389 164.775C2.56613 163.785 6.9789 163.191 12.2394 163.428C17.4999 163.666 21.8492 164.609 22.5385 165.663C22.6107 165.581 22.6551 165.478 22.6653 165.369C22.7128 164.229 18.0544 163.088 12.2473 162.842C6.44018 162.597 1.72635 163.333 1.6709 164.474Z" fill="#407BFF"/>
<path opacity="0.4" d="M1.78247 164.777C2.49549 165.831 6.83696 166.789 12.0816 167.011C17.3262 167.233 21.7549 166.655 22.5471 165.664C21.842 164.611 17.5084 163.652 12.248 163.43C6.98749 163.209 2.58263 163.819 1.78247 164.777Z" fill="#407BFF"/>
<path d="M10.4889 164.613C10.0928 166.253 15.0285 168.827 21.5011 170.364C27.9737 171.901 33.5431 171.822 33.9313 170.182C34.3195 168.542 29.3839 165.967 22.9113 164.43C16.4387 162.893 10.8771 162.973 10.4889 164.613Z" fill="#407BFF"/>
<path d="M11.1845 161.658L10.4786 164.625L33.9244 170.202L34.6303 167.235L11.1845 161.658Z" fill="#407BFF"/>
<path d="M11.1782 161.636C10.782 163.276 15.7177 165.85 22.1903 167.395C28.6629 168.94 34.2323 168.853 34.6205 167.213C35.0087 165.573 30.0968 163.022 23.6163 161.438C17.1358 159.853 11.5822 159.996 11.1782 161.636Z" fill="#407BFF"/>
<path opacity="0.4" d="M11.1782 161.636C10.782 163.276 15.7177 165.85 22.1903 167.395C28.6629 168.94 34.2323 168.853 34.6205 167.213C35.0087 165.573 30.0968 163.022 23.6163 161.438C17.1358 159.853 11.5822 159.996 11.1782 161.636Z" fill="white"/>
<path d="M12.7069 161.88C12.6835 161.988 12.7004 162.1 12.7545 162.197C13.7289 161.404 18.1655 161.642 23.2833 162.862C28.4012 164.082 32.4971 165.841 32.9883 167.006C33.0778 166.942 33.1423 166.85 33.1705 166.744C33.4319 165.635 29.0746 163.631 23.418 162.284C17.7614 160.937 12.9763 160.771 12.7069 161.88Z" fill="#407BFF"/>
<path opacity="0.4" d="M12.7069 161.88C12.6835 161.988 12.7004 162.1 12.7545 162.197C13.7289 161.404 18.1655 161.642 23.2833 162.862C28.4012 164.082 32.4971 165.841 32.9883 167.006C33.0778 166.942 33.1423 166.85 33.1705 166.744C33.4319 165.635 29.0746 163.631 23.418 162.284C17.7614 160.937 12.9763 160.771 12.7069 161.88Z" fill="#407BFF"/>
<path opacity="0.4" d="M12.7626 162.235C13.2696 163.408 17.3417 165.166 22.4675 166.378C27.5933 167.591 32.0298 167.868 32.9964 167.044C32.5052 165.879 28.4252 164.121 23.2914 162.901C18.1577 161.68 13.7291 161.372 12.7626 162.235Z" fill="#407BFF"/>
<path d="M41.0378 144.719C47.0321 144.719 51.8915 139.86 51.8915 133.865C51.8915 127.871 47.0321 123.012 41.0378 123.012C35.0434 123.012 30.1841 127.871 30.1841 133.865C30.1841 139.86 35.0434 144.719 41.0378 144.719Z" fill="#407BFF"/>
<path d="M42.3453 144.719C48.3396 144.719 53.199 139.86 53.199 133.865C53.199 127.871 48.3396 123.012 42.3453 123.012C36.3509 123.012 31.4916 127.871 31.4916 133.865C31.4916 139.86 36.3509 144.719 42.3453 144.719Z" fill="#407BFF"/>
<path opacity="0.5" d="M42.3453 144.719C48.3396 144.719 53.199 139.86 53.199 133.865C53.199 127.871 48.3396 123.012 42.3453 123.012C36.3509 123.012 31.4916 127.871 31.4916 133.865C31.4916 139.86 36.3509 144.719 42.3453 144.719Z" fill="white"/>
<path d="M48.0855 139.619C51.2599 136.444 51.2599 131.298 48.0856 128.123C44.9112 124.949 39.7646 124.949 36.5903 128.123C33.416 131.298 33.416 136.444 36.5903 139.619C39.7646 142.793 44.9112 142.793 48.0855 139.619Z" fill="#407BFF"/>
<path d="M150.306 149.85H144.221V150.025H150.306V149.85Z" fill="#EBEBEB"/>
<path d="M209.524 141.445H196.085V141.62H209.524V141.445Z" fill="#EBEBEB"/>
<path d="M177.093 80.332H130.859V160.51H177.093V80.332Z" fill="#407BFF"/>
<path opacity="0.3" d="M177.093 80.1309H142.617V160.505H177.093V80.1309Z" fill="black"/>
<path d="M167.857 161.948C167.801 163.433 162.996 164.469 157.114 164.259C151.231 164.049 146.518 162.669 146.567 161.185C146.616 159.7 151.434 158.657 157.31 158.867C163.186 159.077 167.913 160.456 167.857 161.948Z" fill="#407BFF"/>
<path d="M146.648 158.468L146.552 161.162L167.841 161.924L167.938 159.23L146.648 158.468Z" fill="#407BFF"/>
<path d="M167.954 159.251C167.898 160.736 163.094 161.772 157.211 161.562C151.328 161.352 146.615 159.972 146.664 158.488C146.713 157.003 151.525 155.959 157.407 156.169C163.29 156.38 168.01 157.759 167.954 159.251Z" fill="#407BFF"/>
<path opacity="0.4" d="M167.954 159.251C167.898 160.736 163.094 161.772 157.211 161.562C151.328 161.352 146.615 159.972 146.664 158.488C146.713 157.003 151.525 155.959 157.407 156.169C163.29 156.38 168.01 157.759 167.954 159.251Z" fill="white"/>
<path d="M166.603 159.102C166.599 159.199 166.559 159.291 166.491 159.361C165.854 158.429 162.016 157.61 157.387 157.449C152.758 157.288 148.836 157.82 148.143 158.696C148.081 158.623 148.047 158.532 148.045 158.436C148.087 157.428 152.247 156.742 157.401 156.924C162.555 157.106 166.638 158.107 166.603 159.102Z" fill="#407BFF"/>
<path opacity="0.4" d="M166.603 159.102C166.599 159.199 166.559 159.291 166.491 159.361C165.854 158.429 162.016 157.61 157.387 157.449C152.758 157.288 148.836 157.82 148.143 158.696C148.081 158.623 148.047 158.532 148.045 158.436C148.087 157.428 152.247 156.742 157.401 156.924C162.555 157.106 166.638 158.107 166.603 159.102Z" fill="#407BFF"/>
<path opacity="0.4" d="M166.491 159.36C165.79 160.236 161.897 160.761 157.247 160.607C152.597 160.453 148.745 159.627 148.143 158.695C148.843 157.82 152.723 157.295 157.387 157.449C162.051 157.603 165.853 158.429 166.491 159.36Z" fill="#407BFF"/>
<path d="M170.405 158.056C170.349 159.54 165.545 160.577 159.663 160.367C153.78 160.157 149.067 158.777 149.116 157.285C149.165 155.794 153.983 154.764 159.859 154.974C165.734 155.185 170.468 156.564 170.405 158.056Z" fill="#407BFF"/>
<path d="M149.226 154.612L149.129 157.307L170.419 158.072L170.516 155.378L149.226 154.612Z" fill="#407BFF"/>
<path d="M170.503 155.359C170.447 156.843 165.643 157.88 159.761 157.67C153.878 157.459 149.158 156.08 149.214 154.588C149.27 153.097 154.074 152.067 159.957 152.277C165.839 152.487 170.552 153.902 170.503 155.359Z" fill="#407BFF"/>
<path opacity="0.4" d="M170.503 155.359C170.447 156.843 165.643 157.88 159.761 157.67C153.878 157.459 149.158 156.08 149.214 154.588C149.27 153.097 154.074 152.067 159.957 152.277C165.839 152.487 170.552 153.902 170.503 155.359Z" fill="white"/>
<path d="M169.152 155.203C169.149 155.299 169.109 155.389 169.04 155.455C168.402 154.531 164.565 153.712 159.936 153.551C155.307 153.39 151.378 153.922 150.692 154.797C150.63 154.725 150.595 154.633 150.594 154.538C150.636 153.53 154.795 152.843 159.95 153.025C165.104 153.207 169.187 154.195 169.152 155.203Z" fill="#407BFF"/>
<path opacity="0.4" d="M169.152 155.203C169.149 155.299 169.109 155.389 169.04 155.455C168.402 154.531 164.565 153.712 159.936 153.551C155.307 153.39 151.378 153.922 150.692 154.797C150.63 154.725 150.595 154.633 150.594 154.538C150.636 153.53 154.795 152.843 159.95 153.025C165.104 153.207 169.187 154.195 169.152 155.203Z" fill="#407BFF"/>
<path opacity="0.4" d="M169.068 155.461C168.368 156.343 164.474 156.861 159.824 156.714C155.174 156.567 151.322 155.734 150.72 154.803C151.42 153.927 155.3 153.402 159.964 153.556C164.628 153.71 168.403 154.536 169.068 155.461Z" fill="#407BFF"/>
<path d="M170.503 153.127C170.447 154.619 165.636 155.655 159.761 155.445C153.885 155.235 149.158 153.855 149.214 152.364C149.27 150.872 154.074 149.842 159.957 150.053C165.839 150.263 170.552 151.642 170.503 153.127Z" fill="#407BFF"/>
<path d="M149.316 149.683L149.219 152.377L170.509 153.143L170.606 150.448L149.316 149.683Z" fill="#407BFF"/>
<path d="M170.602 150.404C170.546 151.896 165.735 152.932 159.859 152.722C153.984 152.512 149.256 151.133 149.313 149.641C149.369 148.149 154.173 147.12 160.048 147.33C165.924 147.54 170.651 148.948 170.602 150.404Z" fill="#407BFF"/>
<path opacity="0.4" d="M170.602 150.404C170.546 151.896 165.735 152.932 159.859 152.722C153.984 152.512 149.256 151.133 149.313 149.641C149.369 148.149 154.173 147.12 160.048 147.33C165.924 147.54 170.651 148.948 170.602 150.404Z" fill="white"/>
<path d="M169.25 150.28C169.241 150.374 169.202 150.462 169.138 150.532C168.494 149.607 164.656 148.788 160.034 148.62C155.412 148.452 151.483 148.991 150.79 149.874C150.729 149.799 150.697 149.704 150.699 149.607C150.699 148.599 154.901 147.92 160.055 148.102C165.209 148.284 169.285 149.271 169.25 150.28Z" fill="#407BFF"/>
<path opacity="0.4" d="M169.25 150.28C169.241 150.374 169.202 150.462 169.138 150.532C168.494 149.607 164.656 148.788 160.034 148.62C155.412 148.452 151.483 148.991 150.79 149.874C150.729 149.799 150.697 149.704 150.699 149.607C150.699 148.599 154.901 147.92 160.055 148.102C165.209 148.284 169.285 149.271 169.25 150.28Z" fill="#407BFF"/>
<path opacity="0.4" d="M169.138 150.536C168.438 151.419 164.544 151.937 159.894 151.79C155.244 151.643 151.392 150.809 150.79 149.878C151.49 148.996 155.37 148.477 160.034 148.624C164.698 148.771 168.494 149.612 169.138 150.536Z" fill="#407BFF"/>
<path d="M173.053 149.234C172.997 150.726 168.186 151.762 162.31 151.552C156.434 151.342 151.707 149.963 151.763 148.471C151.819 146.979 156.624 145.95 162.506 146.16C168.389 146.37 173.102 147.75 173.053 149.234Z" fill="#407BFF"/>
<path d="M151.834 145.759L151.738 148.453L173.028 149.215L173.124 146.521L151.834 145.759Z" fill="#407BFF"/>
<path d="M173.144 146.537C173.095 148.029 168.283 149.065 162.408 148.855C156.532 148.645 151.805 147.265 151.861 145.774C151.917 144.282 156.721 143.253 162.597 143.463C168.473 143.673 173.2 145.052 173.144 146.537Z" fill="#407BFF"/>
<path opacity="0.4" d="M173.144 146.537C173.095 148.029 168.283 149.065 162.408 148.855C156.532 148.645 151.805 147.265 151.861 145.774C151.917 144.282 156.721 143.253 162.597 143.463C168.473 143.673 173.2 145.052 173.144 146.537Z" fill="white"/>
<path d="M171.799 146.389C171.79 146.483 171.751 146.572 171.687 146.641C171.042 145.717 167.205 144.897 162.583 144.729C157.961 144.561 154.032 145.101 153.339 145.983C153.278 145.908 153.245 145.814 153.248 145.717C153.283 144.708 157.45 144.029 162.604 144.211C167.758 144.393 171.869 145.381 171.799 146.389Z" fill="#407BFF"/>
<path opacity="0.4" d="M171.799 146.389C171.79 146.483 171.751 146.572 171.687 146.641C171.042 145.717 167.205 144.897 162.583 144.729C157.961 144.561 154.032 145.101 153.339 145.983C153.278 145.908 153.245 145.814 153.248 145.717C153.283 144.708 157.45 144.029 162.604 144.211C167.758 144.393 171.869 145.381 171.799 146.389Z" fill="#407BFF"/>
<path opacity="0.4" d="M171.687 146.638C170.986 147.52 167.093 148.038 162.442 147.891C157.792 147.744 153.941 146.911 153.339 145.98C154.039 145.097 157.918 144.579 162.583 144.726C167.247 144.873 171.042 145.713 171.687 146.638Z" fill="#407BFF"/>
<path d="M191.267 157.561C191.05 158.436 188.081 158.443 184.635 157.561C181.19 156.678 178.57 155.285 178.787 154.416C179.005 153.548 181.981 153.534 185.426 154.416C188.872 155.299 191.477 156.706 191.267 157.561Z" fill="#407BFF"/>
<path d="M179.192 152.862L178.796 154.445L191.275 157.571L191.672 155.988L179.192 152.862Z" fill="#407BFF"/>
<path d="M191.667 156.005C191.443 156.88 188.474 156.887 185.028 156.005C181.583 155.122 178.971 153.736 179.188 152.86C179.405 151.985 182.374 151.978 185.82 152.86C189.265 153.743 191.884 155.108 191.667 156.005Z" fill="#407BFF"/>
<path opacity="0.4" d="M191.667 156.005C191.443 156.88 188.474 156.887 185.028 156.005C181.583 155.122 178.971 153.736 179.188 152.86C179.405 151.985 182.374 151.978 185.82 152.86C189.265 153.743 191.884 155.108 191.667 156.005Z" fill="white"/>
<path d="M190.882 155.713C190.876 155.742 190.864 155.769 190.847 155.793C190.83 155.817 190.809 155.838 190.784 155.853C190.525 155.223 188.361 154.256 185.636 153.577C182.912 152.898 180.538 152.723 180.034 153.157C180.02 153.102 180.02 153.044 180.034 152.989C180.188 152.394 182.744 152.52 185.756 153.269C188.767 154.018 191.036 155.125 190.882 155.713Z" fill="#407BFF"/>
<path opacity="0.4" d="M190.882 155.713C190.876 155.742 190.864 155.769 190.847 155.793C190.83 155.817 190.809 155.838 190.784 155.853C190.525 155.223 188.361 154.256 185.636 153.577C182.912 152.898 180.538 152.723 180.034 153.157C180.02 153.102 180.02 153.044 180.034 152.989C180.188 152.394 182.744 152.52 185.756 153.269C188.767 154.018 191.036 155.125 190.882 155.713Z" fill="#407BFF"/>
<path opacity="0.4" d="M190.777 155.857C190.252 156.284 187.892 156.116 185.175 155.437C182.458 154.757 180.273 153.784 180.021 153.161C180.546 152.727 182.906 152.895 185.623 153.581C188.34 154.267 190.525 155.227 190.777 155.857Z" fill="#407BFF"/>
<path d="M197.262 160.428C197.304 161.324 194.461 162.179 190.903 162.326C187.346 162.473 184.446 161.871 184.411 160.974C184.376 160.078 187.213 159.223 190.77 159.069C194.328 158.915 197.227 159.504 197.262 160.428Z" fill="#407BFF"/>
<path d="M197.172 158.822L184.319 159.367L184.388 160.997L197.241 160.452L197.172 158.822Z" fill="#407BFF"/>
<path d="M197.192 158.802C197.234 159.705 194.391 160.552 190.84 160.706C187.289 160.861 184.383 160.251 184.341 159.348C184.299 158.444 187.142 157.597 190.7 157.45C194.258 157.303 197.157 157.898 197.192 158.802Z" fill="#407BFF"/>
<path opacity="0.4" d="M197.192 158.802C197.234 159.705 194.391 160.552 190.84 160.706C187.289 160.861 184.383 160.251 184.341 159.348C184.299 158.444 187.142 157.597 190.7 157.45C194.258 157.303 197.157 157.898 197.192 158.802Z" fill="white"/>
<path d="M196.379 158.807C196.382 158.836 196.379 158.865 196.369 158.893C196.359 158.921 196.344 158.946 196.323 158.968C195.896 158.442 193.522 158.127 190.721 158.267C187.92 158.407 185.588 158.898 185.209 159.458C185.171 159.416 185.148 159.361 185.146 159.304C185.146 158.695 187.604 158.085 190.707 157.952C193.809 157.819 196.379 158.162 196.379 158.807Z" fill="#407BFF"/>
<path opacity="0.4" d="M196.379 158.807C196.382 158.836 196.379 158.865 196.369 158.893C196.359 158.921 196.344 158.946 196.323 158.968C195.896 158.442 193.522 158.127 190.721 158.267C187.92 158.407 185.588 158.898 185.209 159.458C185.171 159.416 185.148 159.361 185.146 159.304C185.146 158.695 187.604 158.085 190.707 157.952C193.809 157.819 196.379 158.162 196.379 158.807Z" fill="#407BFF"/>
<path opacity="0.4" d="M196.317 158.93C195.939 159.49 193.621 160.001 190.812 160.12C188.004 160.239 185.651 159.931 185.21 159.42C185.588 158.86 187.906 158.348 190.721 158.229C193.537 158.11 195.89 158.405 196.317 158.93Z" fill="#407BFF"/>
<path d="M190.499 157.231C193.406 152.801 192.172 146.853 187.742 143.946C183.313 141.038 177.365 142.272 174.457 146.702C171.549 151.132 172.783 157.08 177.213 159.987C181.643 162.895 187.591 161.661 190.499 157.231Z" fill="#407BFF"/>
<path d="M190.511 159.145C189.248 160.562 187.594 161.573 185.757 162.049C183.92 162.526 181.983 162.447 180.191 161.822C178.399 161.198 176.833 160.056 175.69 158.541C174.547 157.026 173.878 155.207 173.77 153.312C173.661 151.417 174.116 149.533 175.079 147.897C176.041 146.262 177.467 144.948 179.175 144.123C180.884 143.298 182.799 142.998 184.679 143.261C186.558 143.524 188.317 144.338 189.733 145.601C191.632 147.295 192.781 149.673 192.927 152.212C193.072 154.752 192.203 157.246 190.511 159.145Z" fill="#407BFF"/>
<path opacity="0.4" d="M190.511 159.145C189.248 160.562 187.594 161.573 185.757 162.049C183.92 162.526 181.983 162.447 180.191 161.822C178.399 161.198 176.833 160.056 175.69 158.541C174.547 157.026 173.878 155.207 173.77 153.312C173.661 151.417 174.116 149.533 175.079 147.897C176.041 146.262 177.467 144.948 179.175 144.123C180.884 143.298 182.799 142.998 184.679 143.261C186.558 143.524 188.317 144.338 189.733 145.601C191.632 147.295 192.781 149.673 192.927 152.212C193.072 154.752 192.203 157.246 190.511 159.145Z" fill="white"/>
<path d="M188.676 157.539C187.731 158.6 186.492 159.357 185.116 159.714C183.74 160.071 182.29 160.012 180.947 159.545C179.605 159.077 178.432 158.222 177.576 157.087C176.72 155.953 176.219 154.59 176.138 153.171C176.057 151.752 176.398 150.34 177.119 149.115C177.84 147.89 178.908 146.907 180.188 146.289C181.468 145.671 182.902 145.446 184.31 145.644C185.717 145.841 187.035 146.452 188.095 147.398C188.8 148.026 189.373 148.786 189.784 149.635C190.194 150.484 190.434 151.406 190.488 152.348C190.542 153.29 190.409 154.233 190.099 155.124C189.788 156.014 189.305 156.835 188.676 157.539Z" fill="#407BFF"/>
<path d="M127.265 50.2812H74.9614V187.917H127.265V50.2812Z" fill="#407BFF"/>
<path opacity="0.5" d="M127.439 50.2812H88.4374V187.917H127.439V50.2812Z" fill="black"/>
<path d="M95.4093 186.161C95.338 187.848 100.662 189.441 107.293 189.726C113.924 190.011 119.382 188.87 119.454 187.183C119.525 185.495 114.201 183.903 107.57 183.626C100.939 183.348 95.4568 184.481 95.4093 186.161Z" fill="#407BFF"/>
<path d="M95.4993 183.095L95.37 186.143L119.448 187.164L119.578 184.117L95.4993 183.095Z" fill="#407BFF"/>
<path d="M95.513 183.108C95.4417 184.796 100.774 186.388 107.397 186.673C114.02 186.958 119.494 185.818 119.565 184.13C119.637 182.443 114.305 180.85 107.682 180.573C101.059 180.296 95.5843 181.429 95.513 183.108Z" fill="#407BFF"/>
<path opacity="0.4" d="M95.513 183.108C95.4417 184.796 100.774 186.388 107.397 186.673C114.02 186.958 119.494 185.818 119.565 184.13C119.637 182.443 114.305 180.85 107.682 180.573C101.059 180.296 95.5843 181.429 95.513 183.108Z" fill="white"/>
<path d="M97.0491 183.062C97.0446 183.169 97.0815 183.274 97.152 183.355C97.9443 182.365 102.357 181.77 107.618 182.008C112.878 182.246 117.227 183.189 117.917 184.242C117.989 184.16 118.033 184.058 118.043 183.949C118.091 182.808 113.433 181.667 107.625 181.422C101.818 181.176 97.0966 181.921 97.0491 183.062Z" fill="#407BFF"/>
<path opacity="0.4" d="M97.0491 183.062C97.0446 183.169 97.0815 183.274 97.152 183.355C97.9443 182.365 102.357 181.77 107.618 182.008C112.878 182.246 117.227 183.189 117.917 184.242C117.989 184.16 118.033 184.058 118.043 183.949C118.091 182.808 113.433 181.667 107.625 181.422C101.818 181.176 97.0966 181.921 97.0491 183.062Z" fill="#407BFF"/>
<path opacity="0.4" d="M97.1525 183.354C97.8655 184.415 102.207 185.366 107.452 185.588C112.696 185.81 117.125 185.231 117.917 184.241C117.212 183.187 112.878 182.237 107.618 182.007C102.357 181.777 97.9526 182.363 97.1525 183.354Z" fill="#407BFF"/>
<path d="M92.8501 181.544C92.7788 183.231 98.1105 184.824 104.734 185.109C111.357 185.394 116.831 184.253 116.902 182.566C116.974 180.878 111.642 179.286 105.019 179.009C98.3958 178.731 92.9214 179.864 92.8501 181.544Z" fill="#407BFF"/>
<path d="M92.9787 178.505L92.8494 181.553L116.928 182.575L117.057 179.527L92.9787 178.505Z" fill="#407BFF"/>
<path d="M92.9847 178.495C92.9134 180.182 98.2452 181.775 104.868 182.06C111.491 182.345 116.966 181.204 117.037 179.517C117.108 177.829 111.777 176.245 105.154 175.96C98.5304 175.675 93.0323 176.815 92.9847 178.495Z" fill="#407BFF"/>
<path opacity="0.4" d="M92.9847 178.495C92.9134 180.182 98.2452 181.775 104.868 182.06C111.491 182.345 116.966 181.204 117.037 179.517C117.108 177.829 111.777 176.245 105.154 175.96C98.5304 175.675 93.0323 176.815 92.9847 178.495Z" fill="white"/>
<path d="M94.5135 178.44C94.5177 178.548 94.5535 178.653 94.6165 178.741C95.4088 177.751 99.8295 177.156 105.082 177.386C110.335 177.616 114.7 178.567 115.381 179.62C115.459 179.541 115.506 179.438 115.516 179.327C115.563 178.186 110.905 177.045 105.098 176.8C99.2908 176.554 94.569 177.275 94.5135 178.44Z" fill="#407BFF"/>
<path opacity="0.4" d="M94.5135 178.44C94.5177 178.548 94.5535 178.653 94.6165 178.741C95.4088 177.751 99.8295 177.156 105.082 177.386C110.335 177.616 114.7 178.567 115.381 179.62C115.459 179.541 115.506 179.438 115.516 179.327C115.563 178.186 110.905 177.045 105.098 176.8C99.2908 176.554 94.569 177.275 94.5135 178.44Z" fill="#407BFF"/>
<path opacity="0.4" d="M94.6173 178.738C95.3382 179.792 99.6718 180.742 104.916 180.964C110.161 181.186 114.598 180.608 115.382 179.617C114.685 178.564 110.343 177.613 105.083 177.383C99.8223 177.154 95.4095 177.748 94.6173 178.738Z" fill="#407BFF"/>
<path d="M93.1827 175.975C93.1114 177.663 98.4432 179.255 105.066 179.54C111.689 179.826 117.164 178.685 117.235 176.997C117.306 175.31 111.975 173.717 105.352 173.44C98.7284 173.163 93.254 174.296 93.1827 175.975Z" fill="#407BFF"/>
<path d="M93.2994 172.929L93.17 175.977L117.248 176.998L117.378 173.951L93.2994 172.929Z" fill="#407BFF"/>
<path d="M93.3097 172.923C93.2384 174.61 98.5701 176.203 105.193 176.488C111.816 176.773 117.291 175.632 117.362 173.945C117.433 172.257 112.102 170.665 105.478 170.387C98.8553 170.11 93.381 171.243 93.3097 172.923Z" fill="#407BFF"/>
<path opacity="0.4" d="M93.3097 172.923C93.2384 174.61 98.5701 176.203 105.193 176.488C111.816 176.773 117.291 175.632 117.362 173.945C117.433 172.257 112.102 170.665 105.478 170.387C98.8553 170.11 93.381 171.243 93.3097 172.923Z" fill="white"/>
<path d="M94.8474 172.877C94.843 172.984 94.8798 173.089 94.9504 173.17C95.7426 172.187 100.155 171.585 105.416 171.823C110.676 172.061 115.026 173.003 115.715 174.057C115.787 173.975 115.832 173.873 115.842 173.764C115.889 172.623 111.231 171.482 105.424 171.237C99.6167 170.991 94.8949 171.728 94.8474 172.877Z" fill="#407BFF"/>
<path opacity="0.4" d="M94.8474 172.877C94.843 172.984 94.8798 173.089 94.9504 173.17C95.7426 172.187 100.155 171.585 105.416 171.823C110.676 172.061 115.026 173.003 115.715 174.057C115.787 173.975 115.832 173.873 115.842 173.764C115.889 172.623 111.231 171.482 105.424 171.237C99.6167 170.991 94.8949 171.728 94.8474 172.877Z" fill="#407BFF"/>
<path opacity="0.4" d="M94.95 173.175C95.663 174.237 100.004 175.188 105.249 175.41C110.494 175.631 114.922 175.053 115.715 174.063C115.009 173.009 110.676 172.058 105.415 171.829C100.155 171.599 95.7501 172.193 94.95 173.175Z" fill="#407BFF"/>
<path d="M90.6552 171.36C90.5839 173.048 95.9157 174.64 102.539 174.925C109.162 175.21 114.636 174.07 114.708 172.382C114.779 170.695 109.447 169.11 102.824 168.825C96.2009 168.54 90.7186 169.681 90.6552 171.36Z" fill="#407BFF"/>
<path d="M90.7642 168.3L90.6349 171.348L114.713 172.369L114.842 169.322L90.7642 168.3Z" fill="#407BFF"/>
<path d="M90.7822 168.309C90.7109 169.997 96.0427 171.589 102.666 171.874C109.289 172.16 114.763 171.019 114.835 169.331C114.906 167.644 109.574 166.059 102.951 165.774C96.3279 165.489 90.8535 166.63 90.7822 168.309Z" fill="#407BFF"/>
<path opacity="0.4" d="M90.7822 168.309C90.7109 169.997 96.0427 171.589 102.666 171.874C109.289 172.16 114.763 171.019 114.835 169.331C114.906 167.644 109.574 166.059 102.951 165.774C96.3279 165.489 90.8535 166.63 90.7822 168.309Z" fill="white"/>
<path d="M92.3198 168.261C92.3168 168.369 92.3503 168.475 92.4148 168.562C93.2071 167.572 97.6278 166.978 102.888 167.215C108.149 167.453 112.498 168.388 113.187 169.441C113.261 169.361 113.306 169.257 113.314 169.148C113.362 168.015 108.703 166.867 102.896 166.621C97.089 166.376 92.3673 167.12 92.3198 168.261Z" fill="#407BFF"/>
<path opacity="0.4" d="M92.3198 168.261C92.3168 168.369 92.3503 168.475 92.4148 168.562C93.2071 167.572 97.6278 166.978 102.888 167.215C108.149 167.453 112.498 168.388 113.187 169.441C113.261 169.361 113.306 169.257 113.314 169.148C113.362 168.015 108.703 166.867 102.896 166.621C97.089 166.376 92.3673 167.12 92.3198 168.261Z" fill="#407BFF"/>
<path opacity="0.4" d="M92.4147 168.564C93.1356 169.618 97.4692 170.568 102.714 170.79C107.958 171.012 112.395 170.434 113.187 169.443C112.482 168.39 108.141 167.439 102.888 167.217C97.6355 166.995 93.2228 167.574 92.4147 168.564Z" fill="#407BFF"/>
<path d="M94.5134 167.444C94.4421 169.132 99.7739 170.724 106.397 171.009C113.02 171.294 118.495 170.154 118.566 168.466C118.637 166.779 113.305 165.194 106.682 164.909C100.059 164.624 94.6164 165.765 94.5134 167.444Z" fill="#407BFF"/>
<path d="M94.6395 164.398L94.5101 167.445L118.588 168.467L118.718 165.42L94.6395 164.398Z" fill="#407BFF"/>
<path d="M94.618 164.391C94.5467 166.079 99.8785 167.671 106.502 167.956C113.125 168.242 118.599 167.101 118.67 165.413C118.742 163.726 113.41 162.141 106.787 161.856C100.164 161.571 94.7131 162.712 94.618 164.391Z" fill="#407BFF"/>
<path opacity="0.4" d="M94.618 164.391C94.5467 166.079 99.8785 167.671 106.502 167.956C113.125 168.242 118.599 167.101 118.67 165.413C118.742 163.726 113.41 162.141 106.787 161.856C100.164 161.571 94.7131 162.712 94.618 164.391Z" fill="white"/>
<path d="M96.2017 164.351C96.2016 164.46 96.2379 164.566 96.3047 164.652C97.0969 163.662 101.51 163.067 106.77 163.305C112.031 163.543 116.38 164.478 117.069 165.531C117.109 165.493 117.14 165.448 117.162 165.398C117.184 165.347 117.195 165.293 117.196 165.238C117.244 164.105 112.585 162.957 106.778 162.711C100.971 162.465 96.2017 163.21 96.2017 164.351Z" fill="#407BFF"/>
<path opacity="0.4" d="M96.2017 164.351C96.2016 164.46 96.2379 164.566 96.3047 164.652C97.0969 163.662 101.51 163.067 106.77 163.305C112.031 163.543 116.38 164.478 117.069 165.531C117.109 165.493 117.14 165.448 117.162 165.398C117.184 165.347 117.195 165.293 117.196 165.238C117.244 164.105 112.585 162.957 106.778 162.711C100.971 162.465 96.2017 163.21 96.2017 164.351Z" fill="#407BFF"/>
<path opacity="0.4" d="M96.2805 164.648C97.0015 165.702 101.335 166.652 106.58 166.874C111.824 167.096 116.253 166.518 117.045 165.527C116.34 164.474 112.006 163.523 106.746 163.301C101.486 163.079 97.0886 163.658 96.2805 164.648Z" fill="#407BFF"/>
<path d="M91.9868 162.837C91.9155 164.516 97.2473 166.109 103.87 166.394C110.494 166.679 115.96 165.538 116.039 163.859C116.118 162.179 110.779 160.579 104.156 160.294C97.5325 160.008 92.0581 161.149 91.9868 162.837Z" fill="#407BFF"/>
<path d="M92.1042 159.775L91.9749 162.822L116.053 163.844L116.182 160.797L92.1042 159.775Z" fill="#407BFF"/>
<path d="M92.1136 159.784C92.0423 161.464 97.3741 163.056 103.997 163.341C110.62 163.626 116.095 162.486 116.166 160.806C116.237 159.127 110.906 157.526 104.282 157.241C97.6593 156.956 92.1849 158.097 92.1136 159.784Z" fill="#407BFF"/>
<path opacity="0.4" d="M92.1136 159.784C92.0423 161.464 97.3741 163.056 103.997 163.341C110.62 163.626 116.095 162.486 116.166 160.806C116.237 159.127 110.906 157.526 104.282 157.241C97.6593 156.956 92.1849 158.097 92.1136 159.784Z" fill="white"/>
<path d="M93.6506 159.734C93.6457 159.843 93.6825 159.951 93.7536 160.035C94.5458 159.044 98.9586 158.45 104.219 158.688C109.48 158.926 113.829 159.86 114.518 160.914C114.59 160.835 114.635 160.735 114.645 160.629C114.692 159.488 110.034 158.339 104.227 158.094C98.4199 157.848 93.6981 158.593 93.6506 159.734Z" fill="#407BFF"/>
<path opacity="0.4" d="M93.6506 159.734C93.6457 159.843 93.6825 159.951 93.7536 160.035C94.5458 159.044 98.9586 158.45 104.219 158.688C109.48 158.926 113.829 159.86 114.518 160.914C114.59 160.835 114.635 160.735 114.645 160.629C114.692 159.488 110.034 158.339 104.227 158.094C98.4199 157.848 93.6981 158.593 93.6506 159.734Z" fill="#407BFF"/>
<path opacity="0.4" d="M93.7531 160.03C94.4661 161.084 98.8075 162.034 104.052 162.256C109.297 162.478 113.725 161.9 114.518 160.909C113.813 159.856 109.479 158.905 104.219 158.683C98.9581 158.461 94.5532 159.055 93.7531 160.03Z" fill="#407BFF"/>
<path d="M118.583 159.557C118.654 161.237 113.322 162.837 106.699 163.115C100.076 163.392 94.6176 162.227 94.5067 160.579C94.3958 158.932 99.7592 157.3 106.39 157.014C113.021 156.729 118.504 157.87 118.583 159.557Z" fill="#407BFF"/>
<path d="M117.915 157.296L93.8148 158.26L93.9368 161.31L118.037 160.346L117.915 157.296Z" fill="#407BFF"/>
<path d="M118.448 156.505C118.519 158.184 113.187 159.785 106.564 160.062C99.9408 160.339 94.4664 159.214 94.3951 157.527C94.3238 155.839 99.6556 154.247 106.279 153.962C112.902 153.676 118.384 154.817 118.448 156.505Z" fill="#407BFF"/>
<path opacity="0.4" d="M118.448 156.505C118.519 158.184 113.187 159.785 106.564 160.062C99.9408 160.339 94.4664 159.214 94.3951 157.527C94.3238 155.839 99.6556 154.247 106.279 153.962C112.902 153.676 118.384 154.817 118.448 156.505Z" fill="white"/>
<path d="M116.91 156.449C116.917 156.559 116.88 156.667 116.807 156.75C116.015 155.76 111.602 155.165 106.342 155.403C101.081 155.641 96.7317 156.576 96.0424 157.637C95.9715 157.554 95.9273 157.452 95.9156 157.344C95.8681 156.203 100.526 155.062 106.334 154.817C112.141 154.571 116.862 155.308 116.91 156.449Z" fill="#407BFF"/>
<path opacity="0.4" d="M116.91 156.449C116.917 156.559 116.88 156.667 116.807 156.75C116.015 155.76 111.602 155.165 106.342 155.403C101.081 155.641 96.7317 156.576 96.0424 157.637C95.9715 157.554 95.9273 157.452 95.9156 157.344C95.8681 156.203 100.526 155.062 106.334 154.817C112.141 154.571 116.862 155.308 116.91 156.449Z" fill="#407BFF"/>
<path opacity="0.4" d="M116.8 156.753C116.087 157.807 111.745 158.758 106.501 158.988C101.256 159.217 96.8275 158.631 96.0353 157.641C96.7404 156.579 101.074 155.628 106.334 155.407C111.595 155.185 116.008 155.763 116.8 156.753Z" fill="#407BFF"/>
<path d="M121.11 154.933C121.181 156.62 115.849 158.212 109.226 158.49C102.603 158.767 97.1284 157.642 97.0571 155.955C96.9858 154.267 102.318 152.675 108.941 152.397C115.564 152.12 121.038 153.245 121.11 154.933Z" fill="#407BFF"/>
<path d="M120.98 151.882L96.9021 152.904L97.0314 155.952L121.11 154.93L120.98 151.882Z" fill="#407BFF"/>
<path d="M120.976 151.93C121.047 153.617 115.723 155.21 109.092 155.495C102.461 155.78 97.0024 154.639 96.9311 152.952C96.8598 151.264 102.184 149.672 108.815 149.395C115.446 149.117 120.904 150.203 120.976 151.93Z" fill="#407BFF"/>
<path opacity="0.4" d="M120.976 151.93C121.047 153.617 115.723 155.21 109.092 155.495C102.461 155.78 97.0024 154.639 96.9311 152.952C96.8598 151.264 102.184 149.672 108.815 149.395C115.446 149.117 120.904 150.203 120.976 151.93Z" fill="white"/>
<path d="M119.446 151.832C119.445 151.94 119.409 152.046 119.343 152.133C118.551 151.142 114.13 150.548 108.878 150.786C103.625 151.024 99.26 151.966 98.5787 153.02C98.5002 152.942 98.4547 152.837 98.4519 152.727C98.3964 151.586 103.063 150.445 108.862 150.2C114.661 149.954 119.391 150.691 119.446 151.832Z" fill="#407BFF"/>
<path opacity="0.4" d="M119.446 151.832C119.445 151.94 119.409 152.046 119.343 152.133C118.551 151.142 114.13 150.548 108.878 150.786C103.625 151.024 99.26 151.966 98.5787 153.02C98.5002 152.942 98.4547 152.837 98.4519 152.727C98.3964 151.586 103.063 150.445 108.862 150.2C114.661 149.954 119.391 150.691 119.446 151.832Z" fill="#407BFF"/>
<path opacity="0.4" d="M119.343 152.131C118.622 153.184 114.288 154.143 109.044 154.365C103.799 154.587 99.3626 154.008 98.5782 153.018C99.2754 151.964 103.617 151.006 108.877 150.784C114.138 150.562 118.535 151.133 119.343 152.131Z" fill="#407BFF"/>
<path d="M120.761 149.372C120.833 151.051 115.509 152.652 108.878 152.929C102.247 153.206 96.7881 152.081 96.7168 150.394C96.6455 148.706 101.969 147.114 108.6 146.829C115.231 146.544 120.706 147.684 120.761 149.372Z" fill="#407BFF"/>
<path d="M120.65 146.326L96.572 147.348L96.7013 150.395L120.78 149.373L120.65 146.326Z" fill="#407BFF"/>
<path d="M120.651 146.323C120.722 148.011 115.39 149.603 108.767 149.88C102.144 150.158 96.6698 149.033 96.5985 147.345C96.5272 145.658 101.859 144.065 108.482 143.788C115.105 143.511 120.58 144.636 120.651 146.323Z" fill="#407BFF"/>
<path opacity="0.4" d="M120.651 146.323C120.722 148.011 115.39 149.603 108.767 149.88C102.144 150.158 96.6698 149.033 96.5985 147.345C96.5272 145.658 101.859 144.065 108.482 143.788C115.105 143.511 120.58 144.636 120.651 146.323Z" fill="white"/>
<path d="M119.114 146.269C119.12 146.379 119.083 146.487 119.011 146.57C118.218 145.58 113.805 144.986 108.545 145.223C103.285 145.461 98.9351 146.404 98.2459 147.457C98.175 147.375 98.1308 147.273 98.1191 147.164C98.0716 146.024 102.73 144.883 108.537 144.637C114.344 144.391 119.066 145.128 119.114 146.269Z" fill="#407BFF"/>
<path opacity="0.4" d="M119.114 146.269C119.12 146.379 119.083 146.487 119.011 146.57C118.218 145.58 113.805 144.986 108.545 145.223C103.285 145.461 98.9351 146.404 98.2459 147.457C98.175 147.375 98.1308 147.273 98.1191 147.164C98.0716 146.024 102.73 144.883 108.537 144.637C114.344 144.391 119.066 145.128 119.114 146.269Z" fill="#407BFF"/>
<path opacity="0.4" d="M119.01 146.567C118.297 147.621 113.956 148.58 108.711 148.802C103.466 149.023 99.0378 148.445 98.2456 147.455C98.9507 146.401 103.284 145.442 108.545 145.221C113.805 144.999 118.21 145.585 119.01 146.567Z" fill="#407BFF"/>
<path d="M123.312 144.795C123.383 146.483 118.052 148.075 111.429 148.36C104.805 148.645 99.331 147.505 99.2597 145.817C99.1884 144.13 104.52 142.537 111.143 142.26C117.766 141.983 123.241 143.068 123.312 144.795Z" fill="#407BFF"/>
<path d="M123.162 141.716L99.0833 142.738L99.2126 145.786L123.291 144.764L123.162 141.716Z" fill="#407BFF"/>
<path d="M123.177 141.707C123.249 143.395 117.917 144.987 111.294 145.272C104.671 145.558 99.1964 144.417 99.1251 142.729C99.0538 141.042 104.386 139.449 111.009 139.172C117.632 138.895 123.138 140.044 123.177 141.707Z" fill="#407BFF"/>
<path opacity="0.4" d="M123.177 141.707C123.249 143.395 117.917 144.987 111.294 145.272C104.671 145.558 99.1964 144.417 99.1251 142.729C99.0538 141.042 104.386 139.449 111.009 139.172C117.632 138.895 123.138 140.044 123.177 141.707Z" fill="white"/>
<path d="M121.649 141.625C121.646 141.731 121.61 141.834 121.546 141.918C120.754 140.928 116.333 140.334 111.08 140.571C105.828 140.809 101.463 141.752 100.781 142.805C100.704 142.726 100.656 142.623 100.647 142.512C100.599 141.371 105.257 140.231 111.065 139.985C116.872 139.739 121.593 140.516 121.649 141.625Z" fill="#407BFF"/>
<path opacity="0.4" d="M121.649 141.625C121.646 141.731 121.61 141.834 121.546 141.918C120.754 140.928 116.333 140.334 111.08 140.571C105.828 140.809 101.463 141.752 100.781 142.805C100.704 142.726 100.656 142.623 100.647 142.512C100.599 141.371 105.257 140.231 111.065 139.985C116.872 139.739 121.593 140.516 121.649 141.625Z" fill="#407BFF"/>
<path opacity="0.4" d="M121.553 141.953C120.832 143.014 116.499 143.965 111.254 144.187C106.009 144.409 101.573 143.83 100.789 142.84C101.486 141.786 105.827 140.828 111.088 140.606C116.348 140.384 120.761 140.962 121.553 141.953Z" fill="#407BFF"/>
<path d="M119.446 140.829C119.517 142.516 114.186 144.109 107.562 144.394C100.939 144.679 95.4094 143.546 95.4094 141.859C95.4094 140.171 100.67 138.579 107.293 138.302C113.916 138.024 119.375 139.157 119.446 140.829Z" fill="#407BFF"/>
<path d="M119.323 137.787L95.2449 138.809L95.3742 141.856L119.452 140.834L119.323 137.787Z" fill="#407BFF"/>
<path d="M119.318 137.793C119.39 139.48 114.058 141.073 107.435 141.358C100.812 141.643 95.3374 140.502 95.2661 138.815C95.1948 137.127 100.527 135.535 107.15 135.257C113.773 134.98 119.247 136.081 119.318 137.793Z" fill="#407BFF"/>
<path opacity="0.4" d="M119.318 137.793C119.39 139.48 114.058 141.073 107.435 141.358C100.812 141.643 95.3374 140.502 95.2661 138.815C95.1948 137.127 100.527 135.535 107.15 135.257C113.773 134.98 119.247 136.081 119.318 137.793Z" fill="white"/>
<path d="M117.783 137.745C117.787 137.853 117.75 137.958 117.68 138.039C116.888 137.048 112.475 136.454 107.214 136.692C101.954 136.929 97.6044 137.872 96.9152 138.926C96.8398 138.846 96.795 138.742 96.7884 138.633C96.7409 137.492 101.399 136.351 107.206 136.105C113.014 135.86 117.735 136.605 117.783 137.745Z" fill="#407BFF"/>
<path opacity="0.4" d="M117.783 137.745C117.787 137.853 117.75 137.958 117.68 138.039C116.888 137.048 112.475 136.454 107.214 136.692C101.954 136.929 97.6044 137.872 96.9152 138.926C96.8398 138.846 96.795 138.742 96.7884 138.633C96.7409 137.492 101.399 136.351 107.206 136.105C113.014 135.86 117.735 136.605 117.783 137.745Z" fill="#407BFF"/>
<path opacity="0.4" d="M117.68 138.037C116.959 139.099 112.625 140.049 107.381 140.271C102.136 140.493 97.7073 139.915 96.915 138.924C97.6201 137.871 101.954 136.92 107.214 136.69C112.475 136.461 116.872 137.047 117.68 138.037Z" fill="#407BFF"/>
<path d="M121.981 136.221C122.053 137.909 116.721 139.501 110.098 139.787C103.475 140.072 98.0082 138.931 97.9369 137.243C97.8656 135.556 103.189 133.964 109.82 133.686C116.452 133.409 121.902 134.542 121.981 136.221Z" fill="#407BFF"/>
<path d="M121.834 133.185L97.7561 134.207L97.8854 137.254L121.964 136.233L121.834 133.185Z" fill="#407BFF"/>
<path d="M121.847 133.171C121.918 134.858 116.586 136.451 109.963 136.736C103.34 137.021 97.8658 135.88 97.7945 134.193C97.7232 132.505 103.055 130.921 109.678 130.636C116.301 130.35 121.776 131.491 121.847 133.171Z" fill="#407BFF"/>
<path opacity="0.4" d="M121.847 133.171C121.918 134.858 116.586 136.451 109.963 136.736C103.34 137.021 97.8658 135.88 97.7945 134.193C97.7232 132.505 103.055 130.921 109.678 130.636C116.301 130.35 121.776 131.491 121.847 133.171Z" fill="white"/>
<path d="M120.309 133.122C120.313 133.232 120.276 133.339 120.206 133.423C119.414 132.433 115.001 131.839 109.741 132.069C104.48 132.298 100.131 133.249 99.4418 134.303C99.3696 134.221 99.3252 134.118 99.3151 134.01C99.2675 132.869 103.926 131.728 109.733 131.482C115.54 131.237 120.262 131.982 120.309 133.122Z" fill="#407BFF"/>
<path opacity="0.4" d="M120.309 133.122C120.313 133.232 120.276 133.339 120.206 133.423C119.414 132.433 115.001 131.839 109.741 132.069C104.48 132.298 100.131 133.249 99.4418 134.303C99.3696 134.221 99.3252 134.118 99.3151 134.01C99.2675 132.869 103.926 131.728 109.733 131.482C115.54 131.237 120.262 131.982 120.309 133.122Z" fill="#407BFF"/>
<path opacity="0.4" d="M120.207 133.429C119.494 134.483 115.153 135.434 109.908 135.656C104.663 135.877 100.235 135.299 99.4425 134.309C100.148 133.255 104.481 132.304 109.742 132.075C115.002 131.845 119.407 132.439 120.207 133.429Z" fill="#407BFF"/>
<path d="M111.947 132.772C117.56 130.668 120.405 124.412 118.301 118.799C116.196 113.186 109.94 110.342 104.328 112.446C98.7147 114.55 95.8703 120.806 97.9745 126.419C100.079 132.032 106.335 134.876 111.947 132.772Z" fill="#407BFF"/>
<path d="M117.599 130.18C121.484 125.616 120.933 118.765 116.368 114.88C111.803 110.995 104.953 111.547 101.068 116.111C97.1829 120.676 97.734 127.526 102.299 131.411C106.864 135.296 113.714 134.745 117.599 130.18Z" fill="#407BFF"/>
<path opacity="0.4" d="M117.599 130.18C121.484 125.616 120.933 118.765 116.368 114.88C111.803 110.995 104.953 111.547 101.068 116.111C97.1829 120.676 97.734 127.526 102.299 131.411C106.864 135.296 113.714 134.745 117.599 130.18Z" fill="white"/>
<path d="M116.729 126.487C116.064 127.949 114.98 129.18 113.615 130.026C112.25 130.871 110.665 131.293 109.06 131.238C107.455 131.183 105.903 130.653 104.599 129.716C103.295 128.779 102.298 127.476 101.735 125.972C101.171 124.469 101.066 122.832 101.432 121.269C101.799 119.705 102.621 118.286 103.794 117.189C104.967 116.093 106.439 115.369 108.024 115.109C109.608 114.849 111.234 115.065 112.696 115.729C114.657 116.622 116.183 118.256 116.939 120.274C117.695 122.291 117.62 124.526 116.729 126.487Z" fill="#407BFF"/>
<path d="M68.2993 188.837C68.2597 189.851 71.4683 190.818 75.4929 190.984C79.5174 191.151 82.7973 190.469 82.8369 189.455C82.8765 188.441 79.668 187.475 75.6513 187.3C71.6346 187.126 68.3468 187.815 68.2993 188.837Z" fill="#407BFF"/>
<path d="M68.3747 186.999L68.2964 188.844L82.8367 189.461L82.915 187.617L68.3747 186.999Z" fill="#407BFF"/>
<path d="M68.3783 186.995C68.3308 188.017 71.5473 188.976 75.5719 189.15C79.5964 189.324 82.8763 188.635 82.9159 187.613C82.9555 186.591 79.747 185.632 75.7224 185.466C71.6978 185.3 68.4179 185.997 68.3783 186.995Z" fill="#407BFF"/>
<path opacity="0.4" d="M68.3783 186.995C68.3308 188.017 71.5473 188.976 75.5719 189.15C79.5964 189.324 82.8763 188.635 82.9159 187.613C82.9555 186.591 79.747 185.632 75.7224 185.466C71.6978 185.3 68.4179 185.997 68.3783 186.995Z" fill="white"/>
<path d="M69.3055 186.957C69.3061 187.023 69.3284 187.088 69.3689 187.14C69.8522 186.545 72.5379 186.189 75.7068 186.347C78.8758 186.506 81.506 187.06 81.9339 187.702C81.9791 187.651 82.0069 187.588 82.0131 187.52C82.0131 186.831 79.2244 186.141 75.7227 185.999C72.221 185.856 69.3372 186.268 69.3055 186.957Z" fill="#407BFF"/>
<path opacity="0.4" d="M69.3055 186.957C69.3061 187.023 69.3284 187.088 69.3689 187.14C69.8522 186.545 72.5379 186.189 75.7068 186.347C78.8758 186.506 81.506 187.06 81.9339 187.702C81.9791 187.651 82.0069 187.588 82.0131 187.52C82.0131 186.831 79.2244 186.141 75.7227 185.999C72.221 185.856 69.3372 186.268 69.3055 186.957Z" fill="#407BFF"/>
<path opacity="0.4" d="M69.3689 187.145C69.8046 187.786 72.419 188.357 75.5959 188.491C78.7728 188.626 81.4426 188.277 81.9338 187.699C81.506 187.057 78.8916 186.487 75.7068 186.344C72.522 186.202 69.8522 186.55 69.3689 187.145Z" fill="#407BFF"/>
<path d="M66.7703 186.052C66.7703 187.066 69.9392 188.033 73.9638 188.199C77.9884 188.365 81.2683 187.684 81.3079 186.67C81.3475 185.656 78.1389 184.689 74.1223 184.515C70.1056 184.341 66.8178 185.038 66.7703 186.052Z" fill="#407BFF"/>
<path d="M66.8314 184.181L66.7532 186.025L81.2936 186.642L81.3718 184.798L66.8314 184.181Z" fill="#407BFF"/>
<path d="M66.8885 184.204C66.8885 185.226 70.0575 186.185 74.0821 186.359C78.1067 186.534 81.3865 185.844 81.4262 184.822C81.4658 183.8 78.2572 182.842 74.2405 182.675C70.2239 182.509 66.8885 183.19 66.8885 184.204Z" fill="#407BFF"/>
<path opacity="0.4" d="M66.8885 184.204C66.8885 185.226 70.0575 186.185 74.0821 186.359C78.1067 186.534 81.3865 185.844 81.4262 184.822C81.4658 183.8 78.2572 182.842 74.2405 182.675C70.2239 182.509 66.8885 183.19 66.8885 184.204Z" fill="white"/>
<path d="M67.776 184.166C67.7766 184.232 67.7988 184.296 67.8394 184.348C68.3226 183.754 71.0083 183.406 74.1773 183.556C77.3463 183.707 79.9765 184.261 80.4043 184.903C80.4496 184.852 80.4773 184.788 80.4835 184.721C80.4835 184.039 77.6949 183.342 74.1932 183.2C70.6914 183.057 67.8077 183.477 67.776 184.166Z" fill="#407BFF"/>
<path opacity="0.4" d="M67.776 184.166C67.7766 184.232 67.7988 184.296 67.8394 184.348C68.3226 183.754 71.0083 183.406 74.1773 183.556C77.3463 183.707 79.9765 184.261 80.4043 184.903C80.4496 184.852 80.4773 184.788 80.4835 184.721C80.4835 184.039 77.6949 183.342 74.1932 183.2C70.6914 183.057 67.8077 183.477 67.776 184.166Z" fill="#407BFF"/>
<path opacity="0.4" d="M67.8394 184.357C68.2751 184.999 70.8895 185.569 74.0664 185.704C77.2432 185.839 79.9131 185.49 80.4043 184.912C79.9765 184.27 77.3621 183.7 74.1773 183.565C70.9925 183.43 68.3226 183.763 67.8394 184.357Z" fill="#407BFF"/>
<path d="M66.9684 182.691C66.9684 183.705 70.1373 184.671 74.1619 184.838C78.1865 185.004 81.4664 184.323 81.506 183.309C81.5456 182.294 78.337 181.328 74.3204 181.154C70.3037 180.979 67.0159 181.677 66.9684 182.691Z" fill="#407BFF"/>
<path d="M67.032 180.828L66.9537 182.672L81.4941 183.289L81.5724 181.445L67.032 180.828Z" fill="#407BFF"/>
<path d="M67.0472 180.843C67.0472 181.865 70.2162 182.824 74.2408 182.998C78.2654 183.172 81.5452 182.483 81.5849 181.461C81.6245 180.439 78.4159 179.48 74.3992 179.314C70.3826 179.148 67.0948 179.829 67.0472 180.843Z" fill="#407BFF"/>
<path opacity="0.4" d="M67.0472 180.843C67.0472 181.865 70.2162 182.824 74.2408 182.998C78.2654 183.172 81.5452 182.483 81.5849 181.461C81.6245 180.439 78.4159 179.48 74.3992 179.314C70.3826 179.148 67.0948 179.829 67.0472 180.843Z" fill="white"/>
<path d="M67.974 180.812C67.9746 180.878 67.9968 180.942 68.0374 180.995C68.5206 180.4 71.2063 180.052 74.3753 180.202C77.5443 180.353 80.1745 180.907 80.6023 181.549C80.6476 181.498 80.6753 181.435 80.6815 181.367C80.6815 180.686 77.8929 179.988 74.3911 179.846C70.8894 179.703 68.0057 180.131 67.974 180.812Z" fill="#407BFF"/>
<path opacity="0.4" d="M67.974 180.812C67.9746 180.878 67.9968 180.942 68.0374 180.995C68.5206 180.4 71.2063 180.052 74.3753 180.202C77.5443 180.353 80.1745 180.907 80.6023 181.549C80.6476 181.498 80.6753 181.435 80.6815 181.367C80.6815 180.686 77.8929 179.988 74.3911 179.846C70.8894 179.703 68.0057 180.131 67.974 180.812Z" fill="#407BFF"/>
<path opacity="0.4" d="M68.0375 180.996C68.4732 181.638 71.0876 182.208 74.2645 182.343C77.4414 182.477 80.1112 182.129 80.6024 181.55C80.1746 180.909 77.5602 180.338 74.3754 180.204C71.1906 180.069 68.5207 180.402 68.0375 180.996Z" fill="#407BFF"/>
<path d="M65.4388 179.9C65.4388 180.914 68.6078 181.881 72.6324 182.047C76.657 182.214 79.9368 181.532 79.9844 180.518C80.0319 179.504 76.8154 178.538 72.7908 178.363C68.7663 178.189 65.4864 178.862 65.4388 179.9Z" fill="#407BFF"/>
<path d="M65.5128 178.042L65.4346 179.887L79.9749 180.504L80.0532 178.66L65.5128 178.042Z" fill="#407BFF"/>
<path d="M65.5181 178.068C65.4785 179.09 68.687 180.049 72.7116 180.223C76.7362 180.397 80.0161 179.708 80.0557 178.686C80.0953 177.664 76.8867 176.713 72.8701 176.539C68.8534 176.365 65.5656 177.038 65.5181 178.068Z" fill="#407BFF"/>
<path opacity="0.4" d="M65.5181 178.068C65.4785 179.09 68.687 180.049 72.7116 180.223C76.7362 180.397 80.0161 179.708 80.0557 178.686C80.0953 177.664 76.8867 176.713 72.8701 176.539C68.8534 176.365 65.5656 177.038 65.5181 178.068Z" fill="white"/>
<path d="M66.4453 178.019C66.4459 178.085 66.4682 178.149 66.5087 178.202C66.9999 177.607 69.6777 177.259 72.8466 177.409C76.0156 177.56 78.6537 178.114 79.0736 178.756C79.1205 178.71 79.1487 178.648 79.1528 178.582C79.1528 177.893 76.3642 177.195 72.8625 177.053C69.3607 176.91 66.477 177.338 66.4453 178.019Z" fill="#407BFF"/>
<path opacity="0.4" d="M66.4453 178.019C66.4459 178.085 66.4682 178.149 66.5087 178.202C66.9999 177.607 69.6777 177.259 72.8466 177.409C76.0156 177.56 78.6537 178.114 79.0736 178.756C79.1205 178.71 79.1487 178.648 79.1528 178.582C79.1528 177.893 76.3642 177.195 72.8625 177.053C69.3607 176.91 66.477 177.338 66.4453 178.019Z" fill="#407BFF"/>
<path opacity="0.4" d="M66.5088 178.205C66.9445 178.847 69.5589 179.417 72.7358 179.552C75.9127 179.686 78.5825 179.338 79.0737 178.759C78.6538 178.118 76.0315 177.547 72.8467 177.413C69.6619 177.278 67 177.611 66.5088 178.205Z" fill="#407BFF"/>
<path d="M67.7765 177.541C67.729 178.555 70.9455 179.522 74.9701 179.688C78.9946 179.855 82.2745 179.173 82.3141 178.159C82.3537 177.145 79.1452 176.179 75.1206 176.004C71.096 175.83 67.8161 176.488 67.7765 177.541Z" fill="#407BFF"/>
<path d="M67.8396 175.669L67.7614 177.514L82.3017 178.131L82.38 176.286L67.8396 175.669Z" fill="#407BFF"/>
<path d="M67.8554 175.693C67.8078 176.715 71.0243 177.673 75.041 177.848C79.0576 178.022 82.3455 177.333 82.393 176.311C82.4405 175.289 79.224 174.33 75.1994 174.164C71.1749 173.997 67.895 174.679 67.8554 175.693Z" fill="#407BFF"/>
<path opacity="0.4" d="M67.8554 175.693C67.8078 176.715 71.0243 177.673 75.041 177.848C79.0576 178.022 82.3455 177.333 82.393 176.311C82.4405 175.289 79.224 174.33 75.1994 174.164C71.1749 173.997 67.895 174.679 67.8554 175.693Z" fill="white"/>
<path d="M68.7819 175.692C68.7786 175.725 68.7826 175.758 68.7935 175.79C68.8045 175.821 68.8221 175.85 68.8453 175.874C69.3285 175.28 72.0142 174.923 75.1832 175.082C78.3521 175.24 80.9903 175.795 81.4181 176.428C81.4621 176.381 81.4874 176.319 81.4894 176.254C81.4894 175.565 78.7087 174.876 75.199 174.725C71.6894 174.575 68.8056 174.971 68.7819 175.692Z" fill="#407BFF"/>
<path opacity="0.4" d="M68.7819 175.692C68.7786 175.725 68.7826 175.758 68.7935 175.79C68.8045 175.821 68.8221 175.85 68.8453 175.874C69.3285 175.28 72.0142 174.923 75.1832 175.082C78.3521 175.24 80.9903 175.795 81.4181 176.428C81.4621 176.381 81.4874 176.319 81.4894 176.254C81.4894 175.565 78.7087 174.876 75.199 174.725C71.6894 174.575 68.8056 174.971 68.7819 175.692Z" fill="#407BFF"/>
<path opacity="0.4" d="M68.8459 175.845C69.2738 176.479 71.8961 177.058 75.073 177.192C78.2498 177.327 80.9118 176.978 81.4109 176.4C80.9831 175.766 78.3608 175.188 75.176 175.053C71.9911 174.919 69.3292 175.251 68.8459 175.845Z" fill="#407BFF"/>
<path d="M57.5242 188.668C57.7698 189.658 61.1369 189.666 65.0347 188.668C68.9325 187.67 71.8876 186.101 71.642 185.111C71.3964 184.121 68.0373 184.113 64.1394 185.111C60.2416 186.109 57.2786 187.686 57.5242 188.668Z" fill="#407BFF"/>
<path d="M71.1971 183.347L57.0796 186.883L57.528 188.673L71.6455 185.138L71.1971 183.347Z" fill="#407BFF"/>
<path d="M57.0809 186.888C57.3265 187.87 60.6856 187.886 64.5834 186.888C68.4813 185.889 71.4442 184.321 71.1907 183.338C70.9372 182.356 67.586 182.34 63.6882 183.338C59.7904 184.337 56.8274 185.897 57.0809 186.888Z" fill="#407BFF"/>
<path opacity="0.4" d="M57.0809 186.888C57.3265 187.87 60.6856 187.886 64.5834 186.888C68.4813 185.889 71.4442 184.321 71.1907 183.338C70.9372 182.356 67.586 182.34 63.6882 183.338C59.7904 184.337 56.8274 185.897 57.0809 186.888Z" fill="white"/>
<path d="M57.96 186.593C57.9771 186.655 58.0166 186.709 58.0709 186.743C58.364 186.038 60.8121 184.945 63.9018 184.169C66.9915 183.392 69.6614 183.202 70.2397 183.693C70.2636 183.632 70.2636 183.564 70.2397 183.503C70.0734 182.838 67.1738 182.972 63.7751 183.828C60.3763 184.683 57.7936 185.919 57.96 186.593Z" fill="#407BFF"/>
<path opacity="0.4" d="M57.96 186.593C57.9771 186.655 58.0166 186.709 58.0709 186.743C58.364 186.038 60.8121 184.945 63.9018 184.169C66.9915 183.392 69.6614 183.202 70.2397 183.693C70.2636 183.632 70.2636 183.564 70.2397 183.503C70.0734 182.838 67.1738 182.972 63.7751 183.828C60.3763 184.683 57.7936 185.919 57.96 186.593Z" fill="#407BFF"/>
<path opacity="0.4" d="M58.0707 186.785C58.6649 187.276 61.3426 187.086 64.4086 186.31C67.4746 185.533 69.9543 184.448 70.2395 183.735C69.6453 183.244 66.9755 183.442 63.9016 184.21C60.8277 184.979 58.3638 186.04 58.0707 186.785Z" fill="#407BFF"/>
<path d="M125.879 188.749C125.831 189.795 129.143 190.785 133.27 190.96C137.398 191.134 140.781 190.429 140.828 189.375C140.876 188.322 137.556 187.347 133.429 187.165C129.301 186.983 125.918 187.704 125.879 188.749Z" fill="#407BFF"/>
<path d="M125.942 186.843L125.862 188.734L140.814 189.369L140.894 187.477L125.942 186.843Z" fill="#407BFF"/>
<path d="M125.958 186.855C125.91 187.901 129.222 188.891 133.349 189.065C137.477 189.24 140.86 188.534 140.907 187.481C140.955 186.427 137.643 185.453 133.508 185.27C129.372 185.088 125.997 185.809 125.958 186.855Z" fill="#407BFF"/>
<path opacity="0.4" d="M125.958 186.855C125.91 187.901 129.222 188.891 133.349 189.065C137.477 189.24 140.86 188.534 140.907 187.481C140.955 186.427 137.643 185.453 133.508 185.27C129.372 185.088 125.997 185.809 125.958 186.855Z" fill="white"/>
<path d="M126.909 186.82C126.91 186.889 126.932 186.955 126.972 187.01C127.471 186.392 130.205 186.036 133.476 186.171C136.748 186.305 139.442 186.899 139.878 187.557C139.926 187.509 139.955 187.443 139.957 187.375C139.957 186.67 137.097 185.957 133.492 185.79C129.888 185.624 126.941 186.115 126.909 186.82Z" fill="#407BFF"/>
<path opacity="0.4" d="M126.909 186.82C126.91 186.889 126.932 186.955 126.972 187.01C127.471 186.392 130.205 186.036 133.476 186.171C136.748 186.305 139.442 186.899 139.878 187.557C139.926 187.509 139.955 187.443 139.957 187.375C139.957 186.67 137.097 185.957 133.492 185.79C129.888 185.624 126.941 186.115 126.909 186.82Z" fill="#407BFF"/>
<path opacity="0.4" d="M126.972 187.013C127.424 187.663 130.141 188.257 133.382 188.4C136.622 188.542 139.387 188.178 139.878 187.56C139.442 186.902 136.749 186.316 133.477 186.173C130.205 186.031 127.471 186.395 126.972 187.013Z" fill="#407BFF"/>
<path d="M124.302 185.882C124.262 186.928 127.574 187.918 131.701 188.1C135.829 188.283 139.212 187.57 139.251 186.516C139.291 185.462 135.987 184.48 131.86 184.298C127.732 184.116 124.349 184.836 124.302 185.882Z" fill="#407BFF"/>
<path d="M124.381 183.989L124.301 185.881L139.253 186.515L139.333 184.624L124.381 183.989Z" fill="#407BFF"/>
<path d="M124.39 183.99C124.342 185.035 127.654 186.026 131.781 186.208C135.909 186.39 139.292 185.677 139.339 184.623C139.387 183.57 136.067 182.587 131.94 182.405C127.812 182.223 124.429 182.944 124.39 183.99Z" fill="#407BFF"/>
<path opacity="0.4" d="M124.39 183.99C124.342 185.035 127.654 186.026 131.781 186.208C135.909 186.39 139.292 185.677 139.339 184.623C139.387 183.57 136.067 182.587 131.94 182.405C127.812 182.223 124.429 182.944 124.39 183.99Z" fill="white"/>
<path d="M125.34 183.959C125.341 184.027 125.363 184.093 125.403 184.149C125.902 183.531 128.636 183.175 131.9 183.309C135.164 183.444 137.873 184.038 138.309 184.696C138.354 184.645 138.382 184.581 138.388 184.513C138.388 183.808 135.52 183.095 131.915 182.929C128.311 182.763 125.372 183.254 125.34 183.959Z" fill="#407BFF"/>
<path opacity="0.4" d="M125.34 183.959C125.341 184.027 125.363 184.093 125.403 184.149C125.902 183.531 128.636 183.175 131.9 183.309C135.164 183.444 137.873 184.038 138.309 184.696C138.354 184.645 138.382 184.581 138.388 184.513C138.388 183.808 135.52 183.095 131.915 182.929C128.311 182.763 125.372 183.254 125.34 183.959Z" fill="#407BFF"/>
<path opacity="0.4" d="M125.403 184.146C125.847 184.796 128.572 185.39 131.805 185.532C135.037 185.675 137.818 185.311 138.309 184.693C137.873 184.035 135.179 183.449 131.9 183.306C128.62 183.164 125.902 183.528 125.403 184.146Z" fill="#407BFF"/>
<path d="M127.678 183.761C127.63 184.799 130.942 185.789 135.069 185.971C139.197 186.154 142.58 185.441 142.627 184.387C142.675 183.333 139.355 182.351 135.228 182.177C131.1 182.002 127.717 182.715 127.678 183.761Z" fill="#407BFF"/>
<path d="M127.734 181.848L127.654 183.74L142.606 184.375L142.686 182.483L127.734 181.848Z" fill="#407BFF"/>
<path d="M127.756 181.866C127.709 182.912 131.02 183.903 135.148 184.085C139.276 184.267 142.658 183.554 142.706 182.5C142.753 181.447 139.434 180.464 135.306 180.29C131.179 180.116 127.796 180.829 127.756 181.866Z" fill="#407BFF"/>
<path opacity="0.4" d="M127.756 181.866C127.709 182.912 131.02 183.903 135.148 184.085C139.276 184.267 142.658 183.554 142.706 182.5C142.753 181.447 139.434 180.464 135.306 180.29C131.179 180.116 127.796 180.829 127.756 181.866Z" fill="white"/>
<path d="M128.683 181.834C128.685 181.902 128.707 181.968 128.747 182.024C129.246 181.406 131.979 181.05 135.243 181.184C138.507 181.319 141.217 181.913 141.652 182.571C141.698 182.52 141.725 182.456 141.732 182.388C141.732 181.683 138.864 180.97 135.259 180.804C131.654 180.638 128.739 181.129 128.683 181.834Z" fill="#407BFF"/>
<path opacity="0.4" d="M128.683 181.834C128.685 181.902 128.707 181.968 128.747 182.024C129.246 181.406 131.979 181.05 135.243 181.184C138.507 181.319 141.217 181.913 141.652 182.571C141.698 182.52 141.725 182.456 141.732 182.388C141.732 181.683 138.864 180.97 135.259 180.804C131.654 180.638 128.739 181.129 128.683 181.834Z" fill="#407BFF"/>
<path opacity="0.4" d="M128.771 182.033C129.215 182.691 131.94 183.277 135.172 183.42C138.405 183.562 141.185 183.198 141.677 182.58C141.241 181.922 138.547 181.336 135.267 181.193C131.988 181.051 129.27 181.407 128.771 182.033Z" fill="#407BFF"/>
<path d="M127.717 180.9C127.669 181.946 130.981 182.936 135.109 183.11C139.236 183.284 142.619 182.579 142.667 181.526C142.714 180.472 139.395 179.49 135.267 179.315C131.139 179.141 127.757 179.854 127.717 180.9Z" fill="#407BFF"/>
<path d="M127.509 178.026L127.433 179.92L142.399 180.519L142.475 178.625L127.509 178.026Z" fill="#407BFF"/>
<path d="M127.796 179.001C127.748 180.047 131.06 181.037 135.187 181.212C139.315 181.386 142.698 180.681 142.745 179.627C142.793 178.574 139.473 177.591 135.346 177.417C131.218 177.243 127.835 177.956 127.796 179.001Z" fill="#407BFF"/>
<path opacity="0.4" d="M127.796 179.001C127.748 180.047 131.06 181.037 135.187 181.212C139.315 181.386 142.698 180.681 142.745 179.627C142.793 178.574 139.473 177.591 135.346 177.417C131.218 177.243 127.835 177.956 127.796 179.001Z" fill="white"/>
<path d="M128.747 178.967C128.749 179.033 128.771 179.096 128.81 179.149C129.309 178.531 132.043 178.175 135.307 178.309C138.571 178.444 141.28 179.046 141.716 179.696C141.765 179.647 141.793 179.582 141.795 179.513C141.795 178.808 138.935 178.095 135.323 177.929C131.71 177.763 128.779 178.254 128.747 178.967Z" fill="#407BFF"/>
<path opacity="0.4" d="M128.747 178.967C128.749 179.033 128.771 179.096 128.81 179.149C129.309 178.531 132.043 178.175 135.307 178.309C138.571 178.444 141.28 179.046 141.716 179.696C141.765 179.647 141.793 179.582 141.795 179.513C141.795 178.808 138.935 178.095 135.323 177.929C131.71 177.763 128.779 178.254 128.747 178.967Z" fill="#407BFF"/>
<path opacity="0.4" d="M128.81 179.152C129.254 179.809 131.979 180.396 135.22 180.538C138.46 180.681 141.225 180.316 141.716 179.698C141.28 179.049 138.587 178.455 135.307 178.312C132.027 178.169 129.31 178.534 128.81 179.152Z" fill="#407BFF"/>
<path d="M124.642 178.554C124.595 179.6 127.907 180.59 132.034 180.764C136.162 180.939 139.545 180.234 139.592 179.18C139.64 178.126 136.328 177.144 132.2 176.97C128.073 176.795 124.722 177.508 124.642 178.554Z" fill="#407BFF"/>
<path d="M124.733 176.679L124.652 178.57L139.604 179.207L139.685 177.316L124.733 176.679Z" fill="#407BFF"/>
<path d="M124.722 176.656C124.675 177.701 127.986 178.692 132.114 178.866C136.241 179.04 139.624 178.335 139.672 177.282C139.719 176.228 136.408 175.245 132.28 175.071C128.153 174.897 124.77 175.61 124.722 176.656Z" fill="#407BFF"/>
<path opacity="0.4" d="M124.722 176.656C124.675 177.701 127.986 178.692 132.114 178.866C136.241 179.04 139.624 178.335 139.672 177.282C139.719 176.228 136.408 175.245 132.28 175.071C128.153 174.897 124.77 175.61 124.722 176.656Z" fill="white"/>
<path d="M125.672 176.627C125.674 176.693 125.696 176.757 125.736 176.809C126.243 176.199 128.976 175.835 132.24 175.978C135.504 176.12 138.206 176.706 138.641 177.356C138.69 177.311 138.718 177.248 138.721 177.182C138.721 176.469 135.861 175.764 132.256 175.597C128.651 175.431 125.704 175.914 125.672 176.627Z" fill="#407BFF"/>
<path opacity="0.4" d="M125.672 176.627C125.674 176.693 125.696 176.757 125.736 176.809C126.243 176.199 128.976 175.835 132.24 175.978C135.504 176.12 138.206 176.706 138.641 177.356C138.69 177.311 138.718 177.248 138.721 177.182C138.721 176.469 135.861 175.764 132.256 175.597C128.651 175.431 125.704 175.914 125.672 176.627Z" fill="#407BFF"/>
<path opacity="0.4" d="M125.736 176.809C126.188 177.467 128.905 178.061 132.145 178.196C135.385 178.331 138.15 177.974 138.642 177.356C138.206 176.706 135.512 176.112 132.24 175.978C128.968 175.843 126.243 176.199 125.736 176.809Z" fill="#407BFF"/>
<path d="M155.131 23.0664C153.447 23.0664 151.8 23.5659 150.4 24.5016C149 25.4374 147.908 26.7674 147.263 28.3235C146.619 29.8795 146.45 31.5918 146.779 33.2438C147.107 34.8957 147.919 36.4131 149.109 37.6041C150.3 38.795 151.818 39.6061 153.47 39.9347C155.122 40.2633 156.834 40.0947 158.39 39.4501C159.946 38.8055 161.276 37.714 162.212 36.3136C163.148 34.9131 163.647 33.2667 163.647 31.5824C163.647 29.3238 162.75 27.1577 161.153 25.5607C159.556 23.9636 157.39 23.0664 155.131 23.0664ZM155.131 35.8316C154.289 35.8316 153.465 35.5816 152.765 35.1134C152.064 34.6451 151.519 33.9796 151.196 33.201C150.874 32.4225 150.791 31.5659 150.956 30.7397C151.121 29.9135 151.527 29.1548 152.123 28.5596C152.72 27.9645 153.479 27.5597 154.306 27.3964C155.132 27.2331 155.989 27.3186 156.767 27.6423C157.545 27.9659 158.209 28.513 158.676 29.2144C159.143 29.9157 159.391 30.7398 159.389 31.5824C159.387 32.7101 158.937 33.7909 158.139 34.5875C157.341 35.3842 156.259 35.8316 155.131 35.8316Z" fill="#407BFF"/>
<path d="M176.605 48.043C174.921 48.043 173.275 48.5424 171.874 49.4782C170.474 50.4139 169.382 51.7439 168.738 53.3C168.093 54.8561 167.925 56.5684 168.253 58.2203C168.582 59.8722 169.393 61.3896 170.584 62.5806C171.775 63.7716 173.292 64.5827 174.944 64.9113C176.596 65.2399 178.308 65.0712 179.864 64.4266C181.42 63.7821 182.75 62.6906 183.686 61.2901C184.622 59.8897 185.121 58.2432 185.121 56.5589C185.121 54.3004 184.224 52.1343 182.627 50.5372C181.03 48.9402 178.864 48.043 176.605 48.043ZM176.605 60.8169C175.763 60.8169 174.94 60.5672 174.24 60.0993C173.54 59.6314 172.994 58.9664 172.672 58.1884C172.349 57.4104 172.265 56.5542 172.429 55.7282C172.594 54.9023 172.999 54.1436 173.595 53.5481C174.19 52.9526 174.949 52.5471 175.775 52.3828C176.601 52.2185 177.457 52.3028 178.235 52.6251C179.013 52.9473 179.678 53.4931 180.146 54.1933C180.614 54.8936 180.863 55.7168 180.863 56.5589C180.863 57.6882 180.415 58.7712 179.616 59.5698C178.818 60.3683 177.735 60.8169 176.605 60.8169Z" fill="#407BFF"/>
<path d="M158.327 65.0843H152.673L172.347 23.0664H178.001L158.327 65.0843Z" fill="#407BFF"/>
<g opacity="0.5">
<path d="M155.131 23.0664C153.447 23.0664 151.8 23.5659 150.4 24.5016C149 25.4374 147.908 26.7674 147.263 28.3235C146.619 29.8795 146.45 31.5918 146.779 33.2438C147.107 34.8957 147.919 36.4131 149.109 37.6041C150.3 38.795 151.818 39.6061 153.47 39.9347C155.122 40.2633 156.834 40.0947 158.39 39.4501C159.946 38.8055 161.276 37.714 162.212 36.3136C163.148 34.9131 163.647 33.2667 163.647 31.5824C163.647 29.3238 162.75 27.1577 161.153 25.5607C159.556 23.9636 157.39 23.0664 155.131 23.0664ZM155.131 35.8316C154.289 35.8316 153.465 35.5816 152.765 35.1134C152.064 34.6451 151.519 33.9796 151.196 33.201C150.874 32.4225 150.791 31.5659 150.956 30.7397C151.121 29.9135 151.527 29.1548 152.123 28.5596C152.72 27.9645 153.479 27.5597 154.306 27.3964C155.132 27.2331 155.989 27.3186 156.767 27.6423C157.545 27.9659 158.209 28.513 158.676 29.2144C159.143 29.9157 159.391 30.7398 159.389 31.5824C159.387 32.7101 158.937 33.7909 158.139 34.5875C157.341 35.3842 156.259 35.8316 155.131 35.8316Z" fill="white"/>
<path d="M176.605 48.043C174.921 48.043 173.275 48.5424 171.874 49.4782C170.474 50.4139 169.382 51.7439 168.738 53.3C168.093 54.8561 167.925 56.5684 168.253 58.2203C168.582 59.8722 169.393 61.3896 170.584 62.5806C171.775 63.7716 173.292 64.5827 174.944 64.9113C176.596 65.2399 178.308 65.0712 179.864 64.4266C181.42 63.7821 182.75 62.6906 183.686 61.2901C184.622 59.8897 185.121 58.2432 185.121 56.5589C185.121 54.3004 184.224 52.1343 182.627 50.5372C181.03 48.9402 178.864 48.043 176.605 48.043ZM176.605 60.8169C175.763 60.8169 174.94 60.5672 174.24 60.0993C173.54 59.6314 172.994 58.9664 172.672 58.1884C172.349 57.4104 172.265 56.5542 172.429 55.7282C172.594 54.9023 172.999 54.1436 173.595 53.5481C174.19 52.9526 174.949 52.5471 175.775 52.3828C176.601 52.2185 177.457 52.3028 178.235 52.6251C179.013 52.9473 179.678 53.4931 180.146 54.1933C180.614 54.8936 180.863 55.7168 180.863 56.5589C180.863 57.6882 180.415 58.7712 179.616 59.5698C178.818 60.3683 177.735 60.8169 176.605 60.8169Z" fill="white"/>
<path d="M158.327 65.0843H152.673L172.347 23.0664H178.001L158.327 65.0843Z" fill="white"/>
</g>
</svg>
