<svg width="67" height="89" viewBox="0 0 67 89" fill="none" xmlns="http://www.w3.org/2000/svg">
<path d="M37.6483 35.3036C37.4083 35.2008 37.1792 35.0743 36.9644 34.9259C37.4786 34.3658 37.7661 33.6344 37.7708 32.8741V31.8532C37.7692 31.3271 37.6321 30.8103 37.3727 30.3526C37.8073 30.0762 38.1652 29.6946 38.4133 29.2431C38.6613 28.7917 38.7914 28.285 38.7917 27.7699V26.7491C38.7901 26.223 38.6529 25.7061 38.3935 25.2484C38.8282 24.972 39.1861 24.5904 39.4341 24.139C39.6821 23.6875 39.8123 23.1808 39.8125 22.6657V21.6449C39.8123 21.1298 39.6821 20.6231 39.4341 20.1716C39.1861 19.7202 38.8282 19.3386 38.3935 19.0622C38.6529 18.6045 38.7901 18.0877 38.7917 17.5616V16.5407C38.7927 15.7543 38.4911 14.9977 37.9495 14.4276C37.4079 13.8575 36.6677 13.5175 35.8823 13.4782L36.4438 10.9159C36.6203 10.3801 36.9505 9.90799 37.3931 9.55823L37.9444 9.11927C38.5266 8.65405 38.9968 8.06388 39.3202 7.39241C39.6435 6.72095 39.8118 5.98537 39.8125 5.2401V4.35198C39.8101 3.80023 39.6692 3.25792 39.4028 2.77473C39.1364 2.29155 38.7531 1.88293 38.2878 1.58631C37.8226 1.2897 37.2904 1.11457 36.7399 1.07698C36.1894 1.03939 35.6383 1.14053 35.1371 1.37114L34.7696 1.54468C34.6091 1.6168 34.4351 1.65408 34.2592 1.65408C34.0832 1.65408 33.9093 1.6168 33.7488 1.54468L30.9925 0.278851C30.5742 0.0949583 30.1223 0 29.6654 0C29.2085 0 28.7566 0.0949583 28.3383 0.278851L25.2758 1.58552C25.1155 1.65827 24.9415 1.69591 24.7654 1.69591C24.5894 1.69591 24.4153 1.65827 24.255 1.58552C23.7849 1.34358 23.2626 1.22088 22.734 1.22823C21.8629 1.21729 21.023 1.55148 20.3975 2.1578C19.7721 2.76413 19.4119 3.59332 19.3958 4.46427V5.22989C19.3958 5.97676 19.5636 6.71409 19.887 7.38733C20.2103 8.06056 20.6809 8.65247 21.264 9.11927L21.6621 9.43573L21.5498 9.49698L18.9875 11.3753L18.865 11.4774C17.9596 12.3979 17.171 13.4265 16.5171 14.5399L15.3125 16.5407C15.1344 16.8493 14.8786 17.1059 14.5705 17.285C14.2625 17.4641 13.913 17.5594 13.5567 17.5616H11.2292V16.5407C11.2292 16.27 11.1216 16.0103 10.9302 15.8189C10.7387 15.6274 10.4791 15.5199 10.2083 15.5199H1.02083C0.750091 15.5199 0.490438 15.6274 0.298994 15.8189C0.107551 16.0103 0 16.27 0 16.5407V34.9157C0 35.1865 0.107551 35.4461 0.298994 35.6376C0.490438 35.829 0.750091 35.9366 1.02083 35.9366H10.2083C10.4791 35.9366 10.7387 35.829 10.9302 35.6376C11.1216 35.4461 11.2292 35.1865 11.2292 34.9157V32.8741H13.1483C13.7006 32.8733 14.2475 32.982 14.7574 33.194C15.2673 33.4061 15.7301 33.7171 16.119 34.1093C16.844 34.8373 17.7385 35.374 18.7221 35.6711C12.3215 38.652 8.4525 44.3278 8.83021 50.3609C9.33042 58.3949 17.4562 65.0201 27.3379 65.5407C27.7599 65.5407 28.1818 65.5407 28.6038 65.5407C34.1532 65.6531 39.5359 63.641 43.6508 59.9159C45.1043 58.6021 46.2721 57.0034 47.0817 55.2191C47.8912 53.4349 48.3253 51.5033 48.3569 49.5443C48.3569 43.5213 44.2531 38.0599 37.6483 35.3036ZM9.1875 33.8949H2.04167V17.5616H9.1875V33.8949ZM21.4375 5.2401V4.46427C21.4411 4.25268 21.4976 4.04537 21.602 3.86128C21.7064 3.6772 21.8553 3.52222 22.035 3.41052C22.2147 3.29882 22.4196 3.23396 22.6309 3.22188C22.8421 3.20979 23.0531 3.25087 23.2444 3.34135C23.6732 3.55683 24.144 3.6758 24.6237 3.68991C25.1034 3.70402 25.5803 3.61292 26.021 3.42302L29.0835 2.11635C29.2442 2.04487 29.4181 2.00793 29.594 2.00793C29.7698 2.00793 29.9437 2.04487 30.1044 2.11635L32.8606 3.38218C33.2928 3.58103 33.763 3.684 34.2388 3.684C34.7145 3.684 35.1847 3.58103 35.6169 3.38218L35.9946 3.26989C36.1813 3.18455 36.386 3.14628 36.5909 3.15842C36.7958 3.17056 36.9946 3.23274 37.1699 3.33953C37.3452 3.44632 37.4916 3.59445 37.5964 3.77095C37.7011 3.94746 37.761 4.14695 37.7708 4.35198V5.22989C37.7711 5.67092 37.6722 6.10636 37.4813 6.50396C37.2905 6.90156 37.0126 7.25112 36.6683 7.52677L36.1171 7.96573C35.3455 8.58026 34.7765 9.41251 34.4837 10.3545V10.4464L33.8202 13.5089H24.5V9.63989C24.5154 9.53839 24.5154 9.43514 24.5 9.33364C24.4462 9.06145 24.3244 8.80731 24.1459 8.59489C23.9674 8.38248 23.738 8.21871 23.4792 8.11885C23.3815 8.08571 23.2913 8.03368 23.2138 7.96573L22.6727 7.53698C22.304 7.27495 22.0007 6.93137 21.7865 6.53299C21.5722 6.13461 21.4528 5.69217 21.4375 5.2401ZM13.1483 30.8324H11.2292V19.6032H13.5771C14.282 19.6034 14.975 19.4212 15.5886 19.0741C16.2022 18.7271 16.7155 18.2271 17.0785 17.6228L18.375 15.5199C18.9503 14.587 19.6358 13.7267 20.4167 12.9576L22.4583 11.4366V14.4991C22.4583 14.7698 22.5659 15.0295 22.7573 15.2209C22.9488 15.4123 23.2084 15.5199 23.4792 15.5199H35.7292C35.9999 15.5199 36.2596 15.6274 36.451 15.8189C36.6425 16.0103 36.75 16.27 36.75 16.5407V17.5616C36.75 17.8323 36.6425 18.092 36.451 18.2834C36.2596 18.4748 35.9999 18.5824 35.7292 18.5824H29.6042C29.3334 18.5824 29.0738 18.6899 28.8823 18.8814C28.6909 19.0728 28.5833 19.3325 28.5833 19.6032C28.5833 19.874 28.6909 20.1336 28.8823 20.3251C29.0738 20.5165 29.3334 20.6241 29.6042 20.6241H36.75C37.0207 20.6241 37.2804 20.7316 37.4718 20.9231C37.6633 21.1145 37.7708 21.3741 37.7708 21.6449V22.6657C37.7708 22.9365 37.6633 23.1961 37.4718 23.3876C37.2804 23.579 37.0207 23.6866 36.75 23.6866H29.6042C29.3334 23.6866 29.0738 23.7941 28.8823 23.9856C28.6909 24.177 28.5833 24.4366 28.5833 24.7074C28.5833 24.9781 28.6909 25.2378 28.8823 25.4292C29.0738 25.6207 29.3334 25.7282 29.6042 25.7282H35.7292C35.9999 25.7282 36.2596 25.8358 36.451 26.0272C36.6425 26.2187 36.75 26.4783 36.75 26.7491V27.7699C36.75 28.0406 36.6425 28.3003 36.451 28.4917C36.2596 28.6832 35.9999 28.7907 35.7292 28.7907H29.6042C29.3334 28.7907 29.0738 28.8983 28.8823 29.0897C28.6909 29.2812 28.5833 29.5408 28.5833 29.8116C28.5833 30.0823 28.6909 30.342 28.8823 30.5334C29.0738 30.7248 29.3334 30.8324 29.6042 30.8324H34.7083C34.9791 30.8324 35.2387 30.9399 35.4302 31.1314C35.6216 31.3228 35.7292 31.5825 35.7292 31.8532V32.8741C35.7292 33.1448 35.6216 33.4045 35.4302 33.5959C35.2387 33.7873 34.9791 33.8949 34.7083 33.8949H20.5392C19.9869 33.8957 19.44 33.7869 18.9301 33.5749C18.4202 33.3629 17.9574 33.0518 17.5685 32.6597C16.9892 32.0779 16.3003 31.6168 15.5415 31.3031C14.7828 30.9895 13.9693 30.8295 13.1483 30.8324ZM42.2421 58.3949C40.245 60.1976 37.9047 61.5788 35.3613 62.4558C32.8179 63.3329 30.1237 63.6877 27.44 63.4991C18.5792 63.0601 11.3006 57.2516 10.8719 50.2282C10.535 44.828 14.2917 39.7136 20.3248 37.182C21.0157 36.8962 21.6409 36.4724 22.1623 35.9366H34.7083H34.9942C35.5235 36.4847 36.1592 36.9189 36.8623 37.2126C42.7015 39.6524 46.3254 44.3584 46.3254 49.5647C46.2798 51.2366 45.8942 52.8817 45.1922 54.3998C44.4901 55.918 43.4864 57.2772 42.2421 58.3949Z" fill="url(#paint0_linear_7473_3085)"/>
<path d="M65.3332 67.5816H56.1457C55.875 67.5816 55.6153 67.6891 55.4239 67.8806C55.2325 68.072 55.1249 68.3317 55.1249 68.6024V69.6232H52.2972C51.5835 69.6236 50.8753 69.4992 50.2045 69.2557L47.6218 68.3166C42.5885 66.4721 37.0307 66.6885 32.1561 68.9189L20.5391 74.1966C19.8122 74.5236 19.2258 75.0991 18.8853 75.8197L7.32948 74.0435C6.51291 73.9123 5.6769 74.0937 4.98818 74.5516C4.29946 75.0095 3.80865 75.7101 3.61365 76.5139C3.41639 77.3223 3.52919 78.1753 3.92979 78.9047C4.33039 79.6342 4.98974 80.187 5.77781 80.4543L24.5816 86.7222C29.1881 88.2605 34.1215 88.5424 38.8732 87.5389L49.9493 85.2114C50.7613 85.036 51.589 84.9436 52.4197 84.9357H55.1249V86.9774C55.1249 87.2482 55.2325 87.5078 55.4239 87.6992C55.6153 87.8907 55.875 87.9982 56.1457 87.9982H65.3332C65.604 87.9982 65.8636 87.8907 66.0551 87.6992C66.2465 87.5078 66.3541 87.2482 66.3541 86.9774V68.6024C66.3541 68.3317 66.2465 68.072 66.0551 67.8806C65.8636 67.6891 65.604 67.5816 65.3332 67.5816ZM52.4197 82.8941C51.4317 82.8943 50.4465 82.9969 49.4797 83.2003L38.4036 85.5278C34.0213 86.4479 29.4732 86.1872 25.2247 84.7724L6.42094 78.5147C6.13316 78.4218 5.88815 78.2289 5.73026 77.971C5.57236 77.7131 5.512 77.4072 5.56012 77.1087C5.60823 76.8101 5.76163 76.5387 5.99256 76.3434C6.22348 76.1482 6.51667 76.0421 6.81906 76.0443H7.02323L18.6199 77.841C18.7004 78.3011 18.8757 78.7394 19.1347 79.1281C19.3937 79.5168 19.7307 79.8474 20.1243 80.0989C20.5178 80.3505 20.9594 80.5174 21.421 80.5891C21.8825 80.6608 22.354 80.6358 22.8053 80.5155L37.0153 76.7691C37.1494 76.7342 37.2753 76.6733 37.3858 76.5898C37.4963 76.5063 37.5893 76.4018 37.6594 76.2824C37.7296 76.163 37.7755 76.0309 37.7946 75.8937C37.8137 75.7565 37.8056 75.6169 37.7707 75.4828C37.7359 75.3488 37.675 75.2229 37.5915 75.1124C37.508 75.0019 37.4035 74.9089 37.2841 74.8387C37.1646 74.7686 37.0325 74.7226 36.8953 74.7035C36.7582 74.6844 36.6185 74.6926 36.4845 74.7274L22.2745 78.5555C22.0794 78.6075 21.875 78.6144 21.6769 78.5754C21.4787 78.5365 21.2921 78.4529 21.1311 78.331C20.9527 78.2013 20.8103 78.0282 20.7174 77.8281C20.6245 77.6281 20.5842 77.4076 20.6003 77.1876V77.1264C20.6028 77.0856 20.6028 77.0447 20.6003 77.0039C20.6393 76.796 20.7284 76.6008 20.8601 76.4354C20.9918 76.2699 21.1619 76.1391 21.3557 76.0545L32.9728 70.7768C37.3807 68.7586 42.4076 68.5641 46.9582 70.2357L49.5409 71.1749C50.4375 71.5003 51.3842 71.6662 52.338 71.6649H55.1249V82.8941H52.4197ZM64.3124 85.9566H57.1666V69.6232H64.3124V85.9566Z" fill="url(#paint1_linear_7473_3085)"/>
<path d="M33.5 44.9737H31.57C31.3715 44.6043 31.1112 44.2707 30.8 43.9869H33.5C33.6326 43.9869 33.7598 43.9349 33.8536 43.8423C33.9473 43.7498 34 43.6243 34 43.4934C34 43.3626 33.9473 43.2371 33.8536 43.1445C33.7598 43.052 33.6326 43 33.5 43H24.5C24.3674 43 24.2402 43.052 24.1464 43.1445C24.0527 43.2371 24 43.3626 24 43.4934C24 43.6243 24.0527 43.7498 24.1464 43.8423C24.2402 43.9349 24.3674 43.9869 24.5 43.9869H28.275C28.6773 43.9872 29.0745 44.076 29.4377 44.2467C29.801 44.4173 30.1211 44.6657 30.375 44.9737H24.5C24.3674 44.9737 24.2402 45.0257 24.1464 45.1182C24.0527 45.2108 24 45.3363 24 45.4672C24 45.598 24.0527 45.7235 24.1464 45.8161C24.2402 45.9086 24.3674 45.9606 24.5 45.9606H30.895C30.9646 46.203 31 46.4537 31 46.7057C31.0013 47.4211 30.7153 48.1079 30.2045 48.6157C29.6938 49.1234 29 49.4107 28.275 49.4146H25.07C24.9739 49.4147 24.8799 49.4422 24.7992 49.4937C24.7185 49.5451 24.6545 49.6185 24.615 49.7049C24.5754 49.7913 24.5619 49.8871 24.5761 49.9809C24.5903 50.0747 24.6316 50.1625 24.695 50.2337L30.53 56.8161C30.5723 56.868 30.6249 56.9108 30.6845 56.9421C30.744 56.9734 30.8094 56.9925 30.8767 56.9982C30.9439 57.0039 31.0116 56.9961 31.0758 56.9753C31.1399 56.9544 31.199 56.921 31.2497 56.877C31.3004 56.833 31.3415 56.7793 31.3706 56.7192C31.3997 56.6591 31.4161 56.5938 31.419 56.5273C31.4218 56.4607 31.4109 56.3943 31.3871 56.332C31.3632 56.2697 31.3268 56.2128 31.28 56.1648L26.175 50.4015H28.28C28.8337 50.3971 29.3796 50.2718 29.8786 50.0348C30.3775 49.7977 30.8171 49.4547 31.166 49.0303C31.5148 48.6059 31.7642 48.1106 31.8963 47.5799C32.0284 47.0492 32.0399 46.4962 31.93 45.9606H33.5C33.6326 45.9606 33.7598 45.9086 33.8536 45.8161C33.9473 45.7235 34 45.598 34 45.4672C34 45.3363 33.9473 45.2108 33.8536 45.1182C33.7598 45.0257 33.6326 44.9737 33.5 44.9737Z" fill="url(#paint2_linear_7473_3085)"/>
<defs>
<linearGradient id="paint0_linear_7473_3085" x1="24.1783" y1="-1.46749" x2="24.1783" y2="65.7738" gradientUnits="userSpaceOnUse">
<stop stop-color="#00EFD1"/>
<stop offset="1" stop-color="#00ACEA"/>
</linearGradient>
<linearGradient id="paint1_linear_7473_3085" x1="34.9363" y1="66.6028" x2="34.9363" y2="88.2016" gradientUnits="userSpaceOnUse">
<stop stop-color="#00EFD1"/>
<stop offset="1" stop-color="#00ACEA"/>
</linearGradient>
<linearGradient id="paint2_linear_7473_3085" x1="29" y1="42.6866" x2="29" y2="57.0488" gradientUnits="userSpaceOnUse">
<stop stop-color="#00EFD1"/>
<stop offset="1" stop-color="#00ACEA"/>
</linearGradient>
</defs>
</svg>
