<svg width="84" height="84" viewBox="0 0 84 84" fill="none" xmlns="http://www.w3.org/2000/svg">
<path d="M36.7136 0.0699665C16.1907 1.3689 0.162472 18.3101 0.0012262 38.8734C-0.16002 59.4367 15.6006 76.6271 36.1005 78.2477C36.2083 78.2561 36.3147 78.2603 36.421 78.2603C37.4725 78.2588 38.4848 77.8615 39.2566 77.1476C40.1197 76.3486 40.6111 75.2264 40.6129 74.0503V41.9797C40.6129 41.2068 41.2395 40.5801 42.0125 40.5801H74.083C75.259 40.5777 76.381 40.0864 77.1803 39.2239C77.9701 38.3702 78.3687 37.2261 78.2804 36.0664C76.4826 14.779 58.0395 -1.19258 36.7136 0.0699665ZM75.1257 37.3232C74.8587 37.6167 74.4797 37.783 74.083 37.7809H42.0125C39.6935 37.7809 37.8137 39.6608 37.8137 41.9797V74.0503C37.8154 74.4465 37.6491 74.8249 37.356 75.0916C37.078 75.3544 36.7016 75.4871 36.3203 75.4569C17.2855 73.9516 2.65142 57.9899 2.80052 38.8963C2.94961 19.8026 17.8311 4.07148 36.8871 2.86358C37.6457 2.81739 38.3973 2.7908 39.1461 2.7908C58.1106 2.84709 73.8877 17.3866 75.4896 36.2833C75.5204 36.6658 75.3882 37.0434 75.1257 37.3232Z" fill="url(#paint0_linear_7473_3189)"/>
<path d="M43.4121 47.5861V79.7476C43.4113 82.0741 45.2942 83.962 47.6207 83.9674C47.7285 83.9674 47.8377 83.9674 47.9454 83.9548C67.2205 82.5087 82.5419 67.1873 83.9881 47.9122C84.0761 46.7418 83.6723 45.5876 82.8739 44.7273C82.0755 43.867 80.9546 43.3783 79.7808 43.3789H47.6193C45.297 43.382 43.4152 45.2638 43.4121 47.5861ZM80.8277 46.6372C81.0939 46.9207 81.2281 47.3034 81.1972 47.6911C79.8577 65.5937 65.6281 79.8257 47.7257 81.1682C47.338 81.1996 46.9551 81.0654 46.6718 80.7987C46.376 80.5297 46.2086 80.1475 46.2113 79.7476V47.5861C46.2121 46.8088 46.842 46.1789 47.6193 46.1781H79.7808C80.179 46.1764 80.5593 46.3432 80.8277 46.6372Z" fill="url(#paint1_linear_7473_3189)"/>
<path fill-rule="evenodd" clip-rule="evenodd" d="M32.2152 41.9785H8.42194C7.64896 41.9785 7.02234 42.6051 7.02234 43.3781C7.02234 44.1511 7.64896 44.7777 8.42194 44.7777H32.2152C32.9882 44.7777 33.6148 44.1511 33.6148 43.3781C33.6148 42.6051 32.9882 41.9785 32.2152 41.9785Z" fill="url(#paint2_linear_7473_3189)"/>
<path fill-rule="evenodd" clip-rule="evenodd" d="M40.6129 6.98828C39.8399 6.98828 39.2133 7.61491 39.2133 8.38789V32.1812C39.2133 32.9541 39.8399 33.5808 40.6129 33.5808C41.3858 33.5808 42.0125 32.9541 42.0125 32.1812V8.38789C42.0125 7.61491 41.3858 6.98828 40.6129 6.98828Z" fill="url(#paint3_linear_7473_3189)"/>
<path d="M53.2093 57.3761C55.5283 57.3761 57.4081 55.4963 57.4081 53.1773C57.4081 50.8584 55.5283 48.9785 53.2093 48.9785C50.8904 48.9785 49.0105 50.8584 49.0105 53.1773C49.0105 55.4963 50.8904 57.3761 53.2093 57.3761ZM53.2093 51.7777C53.9823 51.7777 54.6089 52.4043 54.6089 53.1773C54.6089 53.9503 53.9823 54.5769 53.2093 54.5769C52.4363 54.5769 51.8097 53.9503 51.8097 53.1773C51.8097 52.4043 52.4363 51.7777 53.2093 51.7777Z" fill="url(#paint4_linear_7473_3189)"/>
<path d="M61.6069 65.773C61.6069 68.092 63.4868 69.9718 65.8057 69.9718C68.1247 69.9718 70.0046 68.092 70.0046 65.773C70.0046 63.4541 68.1247 61.5742 65.8057 61.5742C63.4868 61.5742 61.6069 63.4541 61.6069 65.773ZM67.2054 65.773C67.2054 66.546 66.5787 67.1726 65.8057 67.1726C65.0328 67.1726 64.4061 66.546 64.4061 65.773C64.4061 65.0001 65.0328 64.3734 65.8057 64.3734C66.5787 64.3734 67.2054 65.0001 67.2054 65.773Z" fill="url(#paint5_linear_7473_3189)"/>
<path fill-rule="evenodd" clip-rule="evenodd" d="M50.8202 68.1621C51.3667 68.7085 52.2527 68.7085 52.7992 68.1621L68.1949 52.7665C68.7253 52.2173 68.7177 51.3443 68.1778 50.8045C67.638 50.2646 66.765 50.257 66.2158 50.7874L50.8202 66.1831C50.2738 66.7296 50.2738 67.6156 50.8202 68.1621Z" fill="url(#paint6_linear_7473_3189)"/>
<path d="M30.73 18.359H27.7578C27.4521 17.8049 27.0512 17.3044 26.572 16.8787H30.73C30.9342 16.8787 31.13 16.8008 31.2744 16.6619C31.4188 16.5231 31.5 16.3349 31.5 16.1386C31.5 15.9423 31.4188 15.754 31.2744 15.6152C31.13 15.4764 30.9342 15.3984 30.73 15.3984H16.87C16.6658 15.3984 16.4699 15.4764 16.3255 15.6152C16.1811 15.754 16.1 15.9423 16.1 16.1386C16.1 16.3349 16.1811 16.5231 16.3255 16.6619C16.4699 16.8008 16.6658 16.8787 16.87 16.8787H22.6835C23.303 16.8793 23.9147 17.0124 24.4741 17.2684C25.0335 17.5245 25.5265 17.897 25.9175 18.359H16.87C16.6658 18.359 16.4699 18.437 16.3255 18.5758C16.1811 18.7146 16.1 18.9029 16.1 19.0992C16.1 19.2955 16.1811 19.4837 16.3255 19.6225C16.4699 19.7613 16.6658 19.8393 16.87 19.8393H26.7183C26.8255 20.2029 26.8799 20.579 26.88 20.9569C26.882 22.0301 26.4415 23.0603 25.655 23.8219C24.8684 24.5835 23.7999 25.0145 22.6835 25.0203H17.7478C17.5998 25.0205 17.455 25.0617 17.3307 25.1389C17.2065 25.2161 17.108 25.3261 17.047 25.4557C16.9861 25.5854 16.9653 25.7291 16.9872 25.8698C17.009 26.0105 17.0726 26.1421 17.1703 26.249L26.1562 36.1226C26.2214 36.2004 26.3023 36.2647 26.394 36.3116C26.4858 36.3586 26.5865 36.3872 26.69 36.3957C26.7936 36.4042 26.8979 36.3925 26.9966 36.3613C27.0954 36.3301 27.1865 36.2799 27.2645 36.2139C27.3426 36.1479 27.4059 36.0674 27.4507 35.9772C27.4955 35.8871 27.5208 35.7891 27.5252 35.6893C27.5295 35.5895 27.5128 35.4898 27.476 35.3964C27.4392 35.3029 27.3832 35.2176 27.3112 35.1456L19.4495 26.5006H22.6912C23.5439 26.494 24.3846 26.3062 25.1529 25.9506C25.9213 25.595 26.5983 25.0805 27.1355 24.4439C27.6727 23.8072 28.0568 23.0643 28.2602 22.2682C28.4636 21.4722 28.4814 20.6427 28.3122 19.8393H30.73C30.9342 19.8393 31.13 19.7613 31.2744 19.6225C31.4188 19.4837 31.5 19.2955 31.5 19.0992C31.5 18.9029 31.4188 18.7146 31.2744 18.5758C31.13 18.437 30.9342 18.359 30.73 18.359Z" fill="url(#paint7_linear_7473_3189)"/>
<defs>
<linearGradient id="paint0_linear_7473_3189" x1="39.1461" y1="-1.75217" x2="39.1461" y2="78.5333" gradientUnits="userSpaceOnUse">
<stop stop-color="#00EFD1"/>
<stop offset="1" stop-color="#00ACEA"/>
</linearGradient>
<linearGradient id="paint1_linear_7473_3189" x1="63.7059" y1="42.4702" x2="63.7059" y2="84.109" gradientUnits="userSpaceOnUse">
<stop stop-color="#00EFD1"/>
<stop offset="1" stop-color="#00ACEA"/>
</linearGradient>
<linearGradient id="paint2_linear_7473_3189" x1="20.3185" y1="41.9158" x2="20.3185" y2="44.7875" gradientUnits="userSpaceOnUse">
<stop stop-color="#00EFD1"/>
<stop offset="1" stop-color="#00ACEA"/>
</linearGradient>
<linearGradient id="paint3_linear_7473_3189" x1="40.6129" y1="6.3929" x2="40.6129" y2="33.6735" gradientUnits="userSpaceOnUse">
<stop stop-color="#00EFD1"/>
<stop offset="1" stop-color="#00ACEA"/>
</linearGradient>
<linearGradient id="paint4_linear_7473_3189" x1="53.2093" y1="48.7905" x2="53.2093" y2="57.4054" gradientUnits="userSpaceOnUse">
<stop stop-color="#00EFD1"/>
<stop offset="1" stop-color="#00ACEA"/>
</linearGradient>
<linearGradient id="paint5_linear_7473_3189" x1="65.8057" y1="61.3862" x2="65.8057" y2="70.0011" gradientUnits="userSpaceOnUse">
<stop stop-color="#00EFD1"/>
<stop offset="1" stop-color="#00ACEA"/>
</linearGradient>
<linearGradient id="paint6_linear_7473_3189" x1="59.499" y1="49.9876" x2="59.499" y2="68.6353" gradientUnits="userSpaceOnUse">
<stop stop-color="#00EFD1"/>
<stop offset="1" stop-color="#00ACEA"/>
</linearGradient>
<linearGradient id="paint7_linear_7473_3189" x1="23.7999" y1="14.9283" x2="23.7999" y2="36.4717" gradientUnits="userSpaceOnUse">
<stop stop-color="#00EFD1"/>
<stop offset="1" stop-color="#00ACEA"/>
</linearGradient>
</defs>
</svg>
