<svg width="85" height="85" viewBox="0 0 85 85" fill="none" xmlns="http://www.w3.org/2000/svg">
<circle cx="42.5" cy="43.5" r="20.5" stroke="#FFCE02" stroke-width="6"/>
<circle cx="42.5" cy="42.5" r="39.5" stroke="#FF6B6B" stroke-width="6"/>
<path fill-rule="evenodd" clip-rule="evenodd" d="M48.8163 46.9091C49.7997 45.5869 50.3311 43.9829 50.3316 42.335C50.3316 41.273 50.117 40.2647 49.726 39.3446L56.3186 32.7506H68.5456C69.3077 32.7499 70.0384 32.4465 70.577 31.9072L80.1593 22.3228C80.5608 21.9207 80.8342 21.4086 80.9449 20.8512C81.0556 20.2937 80.9987 19.716 80.7813 19.1909C80.564 18.6658 80.1959 18.217 79.7236 17.901C79.2513 17.585 78.696 17.4161 78.1279 17.4156H67.5874V6.87278C67.5869 6.30447 67.418 5.74905 67.1021 5.27667C66.7862 4.80429 66.3374 4.43615 65.8124 4.21873C65.2875 4.00131 64.7099 3.94438 64.1526 4.05511C63.5953 4.16585 63.0833 4.43929 62.6812 4.8409L53.099 14.4253C52.5597 14.964 52.2564 15.6948 52.2557 16.4572L52.2596 28.683L45.667 35.277C44.1509 34.6319 42.4673 34.4924 40.8658 34.8794C39.2642 35.2664 37.8299 36.1591 36.7755 37.4254C35.721 38.6917 35.1026 40.2641 35.0117 41.9096C34.9208 43.5551 35.3624 45.186 36.271 46.5608C37.1795 47.9355 38.5068 48.9809 40.056 49.542C41.6052 50.103 43.2938 50.1499 44.8718 49.6757C46.4497 49.2014 47.8329 48.2313 48.8163 46.9091ZM71.1865 23.1662L67.3536 27V27.0038H58.2312C58.1605 26.9227 58.085 26.8459 58.0051 26.7738V17.6456L61.8342 13.8119V20.2909C61.8342 21.0535 62.137 21.7848 62.6761 22.3241C63.2153 22.8633 63.9464 23.1662 64.7089 23.1662H71.1865Z" fill="#00EFD1"/>
<circle cx="42.5" cy="42.5" r="6.5" fill="#FFCE02"/>
<mask id="path-5-inside-1_7399_3084" fill="white">
<path d="M50.9504 38.1594C51.9861 40.1758 52.2667 42.4961 51.7415 44.7012C51.2162 46.9063 49.9198 48.851 48.0864 50.1839C46.2529 51.5169 44.0032 52.1503 41.7436 51.9698C39.484 51.7893 37.3634 50.8068 35.7647 49.1997C34.1661 47.5926 33.1948 45.4668 33.0263 43.2063C32.8578 40.9457 33.5031 38.6994 34.8458 36.873C36.1884 35.0466 38.1399 33.7606 40.3478 33.247C42.5557 32.7335 44.8744 33.0263 46.8852 34.0727L45.491 36.7521C44.1195 36.0384 42.538 35.8387 41.0321 36.1889C39.5262 36.5392 38.1951 37.4164 37.2794 38.6621C36.3636 39.9078 35.9234 41.4399 36.0384 42.9817C36.1533 44.5235 36.8158 45.9734 37.9062 47.0696C38.9965 48.1657 40.4429 48.8359 41.9841 48.959C43.5253 49.0821 45.0597 48.65 46.3102 47.7409C47.5608 46.8317 48.445 45.5054 48.8032 44.0013C49.1615 42.4973 48.9701 40.9148 48.2637 39.5395L50.9504 38.1594Z"/>
</mask>
<path d="M50.9504 38.1594C51.9861 40.1758 52.2667 42.4961 51.7415 44.7012C51.2162 46.9063 49.9198 48.851 48.0864 50.1839C46.2529 51.5169 44.0032 52.1503 41.7436 51.9698C39.484 51.7893 37.3634 50.8068 35.7647 49.1997C34.1661 47.5926 33.1948 45.4668 33.0263 43.2063C32.8578 40.9457 33.5031 38.6994 34.8458 36.873C36.1884 35.0466 38.1399 33.7606 40.3478 33.247C42.5557 32.7335 44.8744 33.0263 46.8852 34.0727L45.491 36.7521C44.1195 36.0384 42.538 35.8387 41.0321 36.1889C39.5262 36.5392 38.1951 37.4164 37.2794 38.6621C36.3636 39.9078 35.9234 41.4399 36.0384 42.9817C36.1533 44.5235 36.8158 45.9734 37.9062 47.0696C38.9965 48.1657 40.4429 48.8359 41.9841 48.959C43.5253 49.0821 45.0597 48.65 46.3102 47.7409C47.5608 46.8317 48.445 45.5054 48.8032 44.0013C49.1615 42.4973 48.9701 40.9148 48.2637 39.5395L50.9504 38.1594Z" stroke="#FF6B6B" stroke-width="6" mask="url(#path-5-inside-1_7399_3084)"/>
</svg>
