<svg width="86" height="86" viewBox="0 0 86 86" fill="none" xmlns="http://www.w3.org/2000/svg">
<path d="M85.9987 70.2333C85.9947 69.2908 85.6811 68.3757 85.1062 67.6288C84.5313 66.8819 83.7269 66.3447 82.8168 66.0996C83.2372 65.0746 83.2372 63.9254 82.8168 62.9004C83.7292 62.6593 84.5362 62.1231 85.112 61.3754C85.6878 60.6276 86 59.7104 86 58.7667C86 57.8229 85.6878 56.9057 85.112 56.158C84.5362 55.4103 83.7292 54.874 82.8168 54.6329C83.0818 53.9811 83.1822 53.2741 83.1092 52.5742C83.0361 51.8744 82.792 51.2033 82.3981 50.6203C82.0043 50.0372 81.473 49.56 80.8511 49.2309C80.2292 48.9018 79.5358 48.7309 78.8322 48.7333H70.357C68.2386 38.27 63.4183 30.4827 55.9909 25.5133C56.9347 25.1602 57.7241 24.4862 58.221 23.6096C58.7179 22.7329 58.8905 21.7094 58.7087 20.7182C58.5269 19.727 58.0022 18.8314 57.2265 18.1882C56.4508 17.545 55.4735 17.1952 54.4659 17.2H53.9613L56.6961 11.7648C57.1671 10.8288 57.3906 9.78774 57.3454 8.74086C57.3002 7.69399 56.9878 6.67611 56.4379 5.78413C55.8881 4.89215 55.119 4.15577 54.2041 3.64509C53.2891 3.13441 52.2587 2.86643 51.2108 2.86667H47.0542C46.7567 2.02887 46.2073 1.30363 45.4813 0.790402C44.7554 0.277172 43.8884 0.00108467 42.9994 0L34.3995 0C33.5105 0.00108467 32.6435 0.277172 31.9176 0.790402C31.1916 1.30363 30.6422 2.02887 30.3447 2.86667H26.2081C25.1584 2.86708 24.1262 3.13606 23.2097 3.64802C22.2933 4.15998 21.523 4.89789 20.9723 5.79156C20.4215 6.68524 20.1085 7.70496 20.0631 8.75374C20.0177 9.80253 20.2414 10.8455 20.7128 11.7834L23.4375 17.2H22.933C21.9289 17.1984 20.9561 17.5488 20.1837 18.1903C19.4112 18.8318 18.8881 19.7237 18.7052 20.711C18.5224 21.6983 18.6914 22.7184 19.1828 23.594C19.6742 24.4696 20.457 25.1452 21.3951 25.5033C10.8745 32.4894 5.73325 44.8289 5.73325 63.0667C5.73445 66.4295 6.02216 69.786 6.59324 73.1H6.44991C4.73987 73.1019 3.10041 73.7821 1.89123 74.9913C0.682048 76.2005 0.00189688 77.8399 0 79.55C0.0248043 81.2529 0.712309 82.8791 1.91657 84.0834C3.12082 85.2877 4.74701 85.9752 6.44991 86H81.6988C82.7402 86.0018 83.7467 85.6248 84.5306 84.9392C85.3145 84.2536 85.8223 83.3062 85.9591 82.2738C86.096 81.2414 85.8526 80.1945 85.2744 79.3283C84.6962 78.4621 83.8227 77.8358 82.8168 77.5663C83.2372 76.5413 83.2372 75.392 82.8168 74.3671C83.7269 74.122 84.5313 73.5847 85.1062 72.8378C85.6811 72.091 85.9947 71.1759 85.9987 70.2333ZM80.2655 75.9667C80.2655 76.3468 80.1145 76.7114 79.8457 76.9802C79.5769 77.249 79.2123 77.4 78.8322 77.4H58.7658C58.3857 77.4 58.0211 77.249 57.7523 76.9802C57.4835 76.7114 57.3325 76.3468 57.3325 75.9667C57.3325 75.5865 57.4835 75.2219 57.7523 74.9531C58.0211 74.6843 58.3857 74.5333 58.7658 74.5333H78.8322C79.2123 74.5333 79.5769 74.6843 79.8457 74.9531C80.1145 75.2219 80.2655 75.5865 80.2655 75.9667ZM58.7658 65.9333C58.3857 65.9333 58.0211 65.7823 57.7523 65.5135C57.4835 65.2447 57.3325 64.8801 57.3325 64.5C57.3325 64.1199 57.4835 63.7553 57.7523 63.4865C58.0211 63.2177 58.3857 63.0667 58.7658 63.0667H78.8322C79.2123 63.0667 79.5769 63.2177 79.8457 63.4865C80.1145 63.7553 80.2655 64.1199 80.2655 64.5C80.2655 64.8801 80.1145 65.2447 79.8457 65.5135C79.5769 65.7823 79.2123 65.9333 78.8322 65.9333H58.7658ZM81.6988 60.2H61.6324C61.2523 60.2 60.8877 60.049 60.6189 59.7802C60.3501 59.5114 60.1991 59.1468 60.1991 58.7667C60.1991 58.3865 60.3501 58.0219 60.6189 57.7531C60.8877 57.4843 61.2523 57.3333 61.6324 57.3333H81.6988C82.0789 57.3333 82.4435 57.4843 82.7123 57.7531C82.9811 58.0219 83.1321 58.3865 83.1321 58.7667C83.1321 59.1468 82.9811 59.5114 82.7123 59.7802C82.4435 60.049 82.0789 60.2 81.6988 60.2ZM80.2655 53.0333C80.2655 53.4135 80.1145 53.778 79.8457 54.0469C79.5769 54.3157 79.2123 54.4667 78.8322 54.4667H58.7658C58.3857 54.4667 58.0211 54.3157 57.7523 54.0469C57.4835 53.778 57.3325 53.4135 57.3325 53.0333C57.3325 52.6532 57.4835 52.2886 57.7523 52.0198C58.0211 51.751 58.3857 51.6 58.7658 51.6H78.8322C79.2123 51.6 79.5769 51.751 79.8457 52.0198C80.1145 52.2886 80.2655 52.6532 80.2655 53.0333ZM23.2741 10.4949C23.0316 9.9931 22.9194 9.43835 22.9479 8.88179C22.9763 8.32524 23.1444 7.78481 23.4368 7.31036C23.7291 6.83592 24.1363 6.44275 24.6206 6.16713C25.105 5.89152 25.6509 5.74233 26.2081 5.73333H30.0996V11.4667C30.0996 11.8468 30.2506 12.2114 30.5194 12.4802C30.7882 12.749 31.1527 12.9 31.5329 12.9C31.913 12.9 32.2776 12.749 32.5464 12.4802C32.8152 12.2114 32.9662 11.8468 32.9662 11.4667V4.3C32.9662 3.91986 33.1172 3.55528 33.386 3.28648C33.6548 3.01768 34.0194 2.86667 34.3995 2.86667H42.9994C43.3795 2.86667 43.7441 3.01768 44.0129 3.28648C44.2817 3.55528 44.4327 3.91986 44.4327 4.3V11.4667C44.4327 11.8468 44.5837 12.2114 44.8525 12.4802C45.1213 12.749 45.4859 12.9 45.866 12.9C46.2461 12.9 46.6107 12.749 46.8795 12.4802C47.1483 12.2114 47.2993 11.8468 47.2993 11.4667V5.73333H51.2108C51.7657 5.74308 52.3092 5.89222 52.7914 6.16703C53.2736 6.44184 53.6789 6.83349 53.9701 7.30595C54.2613 7.77842 54.429 8.31652 54.4577 8.87076C54.4865 9.425 54.3755 9.97758 54.1348 10.4777L50.7522 17.2H26.6467L23.2741 10.4949ZM22.933 20.0667H54.4659C54.846 20.0667 55.2106 20.2177 55.4794 20.4865C55.7482 20.7553 55.8992 21.1199 55.8992 21.5C55.8992 21.8801 55.7482 22.2447 55.4794 22.5135C55.2106 22.7823 54.846 22.9333 54.4659 22.9333H22.933C22.5529 22.9333 22.1883 22.7823 21.9195 22.5135C21.6507 22.2447 21.4997 21.8801 21.4997 21.5C21.4997 21.1199 21.6507 20.7553 21.9195 20.4865C22.1883 20.2177 22.5529 20.0667 22.933 20.0667ZM3.92011 82.0626C3.41806 81.5638 3.07576 80.927 2.9368 80.233C2.79783 79.5391 2.86847 78.8195 3.13974 78.1658C3.411 77.5122 3.87062 76.954 4.46008 76.5624C5.04955 76.1708 5.74221 75.9634 6.44991 75.9667H14.3331C14.7133 75.9667 15.0778 75.8157 15.3466 75.5469C15.6154 75.278 15.7664 74.9135 15.7664 74.5333C15.7664 74.1532 15.6154 73.7886 15.3466 73.5198C15.0778 73.251 14.7133 73.1 14.3331 73.1H9.51433C8.90978 69.7897 8.60374 66.4317 8.59987 63.0667C8.59987 43.8672 14.4965 31.6767 26.6252 25.8H50.7737C59.6029 30.0742 65.0623 37.5949 67.4345 48.7333H58.7658C57.7244 48.7315 56.7179 49.1085 55.934 49.7941C55.1501 50.4798 54.6424 51.4271 54.5055 52.4595C54.3686 53.4919 54.612 54.5389 55.1902 55.405C55.7684 56.2712 56.6419 56.8975 57.6478 57.1671C57.2275 58.192 57.2275 59.3413 57.6478 60.3663C56.7354 60.6074 55.9284 61.1436 55.3526 61.8913C54.7768 62.639 54.4646 63.5563 54.4646 64.5C54.4646 65.4437 54.7768 66.361 55.3526 67.1087C55.9284 67.8564 56.7354 68.3926 57.6478 68.6337C57.2275 69.6587 57.2275 70.808 57.6478 71.8329C56.7354 72.074 55.9284 72.6103 55.3526 73.358C54.7768 74.1057 54.4646 75.0229 54.4646 75.9667C54.4646 76.9104 54.7768 77.8276 55.3526 78.5753C55.9284 79.3231 56.7354 79.8593 57.6478 80.1004C57.2459 81.0681 57.2275 82.1525 57.5962 83.1333H6.44991C5.97845 83.1306 5.51219 83.0346 5.07801 82.8508C4.64382 82.667 4.2503 82.3992 3.92011 82.0626ZM81.6988 83.1333H61.6324C61.2523 83.1333 60.8877 82.9823 60.6189 82.7135C60.3501 82.4447 60.1991 82.0801 60.1991 81.7C60.1991 81.3199 60.3501 80.9553 60.6189 80.6865C60.8877 80.4177 61.2523 80.2667 61.6324 80.2667H81.6988C82.0789 80.2667 82.4435 80.4177 82.7123 80.6865C82.9811 80.9553 83.1321 81.3199 83.1321 81.7C83.1321 82.0801 82.9811 82.4447 82.7123 82.7135C82.4435 82.9823 82.0789 83.1333 81.6988 83.1333ZM81.6988 71.6667H61.6324C61.2523 71.6667 60.8877 71.5156 60.6189 71.2468C60.3501 70.9781 60.1991 70.6135 60.1991 70.2333C60.1991 69.8532 60.3501 69.4886 60.6189 69.2198C60.8877 68.951 61.2523 68.8 61.6324 68.8H81.6988C82.0789 68.8 82.4435 68.951 82.7123 69.2198C82.9811 69.4886 83.1321 69.8532 83.1321 70.2333C83.1321 70.6135 82.9811 70.9781 82.7123 71.2468C82.4435 71.5156 82.0789 71.6667 81.6988 71.6667Z" fill="url(#paint0_linear_7473_3097)"/>
<path d="M47.1 45.3835H43.626C43.2687 44.7502 42.8001 44.1783 42.24 43.6918H47.1C47.3387 43.6918 47.5676 43.6026 47.7364 43.444C47.9052 43.2854 48 43.0702 48 42.8459C48 42.6215 47.9052 42.4064 47.7364 42.2478C47.5676 42.0891 47.3387 42 47.1 42H30.9C30.6613 42 30.4324 42.0891 30.2636 42.2478C30.0948 42.4064 30 42.6215 30 42.8459C30 43.0702 30.0948 43.2854 30.2636 43.444C30.4324 43.6026 30.6613 43.6918 30.9 43.6918H37.695C38.4192 43.6924 39.1341 43.8445 39.7879 44.1371C40.4418 44.4297 41.0181 44.8555 41.475 45.3835H30.9C30.6613 45.3835 30.4324 45.4727 30.2636 45.6313C30.0948 45.7899 30 46.0051 30 46.2294C30 46.4538 30.0948 46.6689 30.2636 46.8275C30.4324 46.9862 30.6613 47.0753 30.9 47.0753H42.411C42.5363 47.4908 42.5999 47.9207 42.6 48.3526C42.6024 49.5791 42.0875 50.7564 41.1682 51.6269C40.2488 52.4973 38.9999 52.9898 37.695 52.9965H31.926C31.753 52.9967 31.5838 53.0437 31.4386 53.132C31.2933 53.2202 31.1782 53.3459 31.107 53.4941C31.0358 53.6422 31.0115 53.8065 31.037 53.9673C31.0626 54.1281 31.1368 54.2785 31.251 54.4006L41.754 65.6847C41.8302 65.7737 41.9248 65.8472 42.032 65.9008C42.1393 65.9545 42.257 65.9872 42.378 65.9969C42.4991 66.0067 42.621 65.9933 42.7364 65.9576C42.8518 65.9219 42.9583 65.8646 43.0495 65.7891C43.1407 65.7137 43.2147 65.6217 43.2671 65.5187C43.3194 65.4156 43.349 65.3037 43.3541 65.1896C43.3592 65.0755 43.3397 64.9616 43.2967 64.8548C43.2537 64.748 43.1882 64.6505 43.104 64.5682L33.915 54.6882H37.704C38.7007 54.6807 39.6833 54.466 40.5814 54.0596C41.4795 53.6532 42.2708 53.0652 42.8987 52.3376C43.5266 51.6101 43.9755 50.761 44.2133 49.8512C44.4511 48.9414 44.4718 47.9935 44.274 47.0753H47.1C47.3387 47.0753 47.5676 46.9862 47.7364 46.8275C47.9052 46.6689 48 46.4538 48 46.2294C48 46.0051 47.9052 45.7899 47.7364 45.6313C47.5676 45.4727 47.3387 45.3835 47.1 45.3835Z" fill="url(#paint1_linear_7473_3097)"/>
<defs>
<linearGradient id="paint0_linear_7473_3097" x1="42.9998" y1="-1.92546" x2="42.9998" y2="86.3" gradientUnits="userSpaceOnUse">
<stop stop-color="#00EFD1"/>
<stop offset="1" stop-color="#00ACEA"/>
</linearGradient>
<linearGradient id="paint1_linear_7473_3097" x1="39" y1="41.4627" x2="39" y2="66.0837" gradientUnits="userSpaceOnUse">
<stop stop-color="#00EFD1"/>
<stop offset="1" stop-color="#00ACEA"/>
</linearGradient>
</defs>
</svg>
