<svg width="86" height="83" viewBox="0 0 86 83" fill="none" xmlns="http://www.w3.org/2000/svg">
<path d="M81.0787 31.7442H81.0472L72.7168 8.85162C73.3732 8.31439 73.8475 7.5873 74.0746 6.77C74.3016 5.9527 74.2704 5.08517 73.9852 4.2863C73.7 3.48743 73.1747 2.7963 72.4813 2.30763C71.788 1.81895 70.9605 1.55664 70.1122 1.55664C69.2639 1.55664 68.4364 1.81895 67.7431 2.30763C67.0497 2.7963 66.5244 3.48743 66.2392 4.2863C65.954 5.08517 65.9228 5.9527 66.1499 6.77C66.3769 7.5873 66.8512 8.31439 67.5077 8.85162L59.1772 31.7442H59.1457H59.1142L50.7837 8.85162C51.4402 8.31439 51.9144 7.5873 52.1415 6.77C52.3686 5.9527 52.3374 5.08517 52.0522 4.2863C51.7669 3.48743 51.2417 2.7963 50.5483 2.30763C49.8549 1.81895 49.0274 1.55664 48.1792 1.55664C47.3309 1.55664 46.5034 1.81895 45.81 2.30763C45.1167 2.7963 44.5914 3.48743 44.3062 4.2863C44.0209 5.08517 43.9897 5.9527 44.2168 6.77C44.4439 7.5873 44.9182 8.31439 45.5746 8.85162L43.395 14.8202L45.9708 15.7605L48.1476 9.81119H48.1792H48.2107L56.5411 32.7038C55.8847 33.241 55.4104 33.9681 55.1833 34.7854C54.9563 35.6027 54.9875 36.4703 55.2727 37.2691C55.5579 38.068 56.0832 38.7591 56.7766 39.2478C57.4699 39.7365 58.2974 39.9988 59.1457 39.9988C59.9939 39.9988 60.8215 39.7365 61.5148 39.2478C62.2082 38.7591 62.7335 38.068 63.0187 37.2691C63.3039 36.4703 63.3351 35.6027 63.108 34.7854C62.881 33.9681 62.4067 33.241 61.7502 32.7038L70.0807 9.81119H70.1122H70.1437L78.4742 32.7038C77.7377 33.3232 77.2432 34.1826 77.0779 35.1306C76.9125 36.0786 77.0868 37.0546 77.5701 37.8868C78.0533 38.719 78.8147 39.3541 79.72 39.6803C80.6254 40.0065 81.6168 40.003 82.5198 39.6703C83.4228 39.3376 84.1796 38.6971 84.6569 37.8615C85.1342 37.0258 85.3015 36.0486 85.1294 35.1018C84.9572 34.155 84.4566 33.2992 83.7157 32.6851C82.9748 32.0709 82.0411 31.7378 81.0787 31.7442ZM48.1792 7.06956C47.908 7.06956 47.643 6.98917 47.4176 6.83854C47.1922 6.68791 47.0165 6.47382 46.9127 6.22334C46.8089 5.97285 46.7818 5.69723 46.8347 5.43131C46.8876 5.1654 47.0181 4.92115 47.2099 4.72944C47.4016 4.53772 47.6458 4.40717 47.9117 4.35427C48.1776 4.30138 48.4533 4.32853 48.7038 4.43228C48.9542 4.53603 49.1683 4.71173 49.319 4.93716C49.4696 5.16259 49.55 5.42763 49.55 5.69875C49.55 6.06231 49.4056 6.41098 49.1485 6.66806C48.8914 6.92514 48.5427 7.06956 48.1792 7.06956ZM59.1457 37.2275C58.8746 37.2275 58.6095 37.1471 58.3841 36.9965C58.1587 36.8459 57.983 36.6318 57.8792 36.3813C57.7755 36.1308 57.7483 35.8552 57.8012 35.5893C57.8541 35.3233 57.9847 35.0791 58.1764 34.8874C58.3681 34.6957 58.6123 34.5651 58.8783 34.5122C59.1442 34.4593 59.4198 34.4865 59.6703 34.5902C59.9208 34.694 60.1349 34.8697 60.2855 35.0951C60.4361 35.3205 60.5165 35.5856 60.5165 35.8567C60.5165 36.2202 60.3721 36.5689 60.115 36.826C59.8579 37.0831 59.5093 37.2275 59.1457 37.2275ZM70.1122 7.06956C69.8411 7.06956 69.5761 6.98917 69.3506 6.83854C69.1252 6.68791 68.9495 6.47382 68.8457 6.22334C68.742 5.97285 68.7148 5.69723 68.7677 5.43131C68.8206 5.1654 68.9512 4.92115 69.1429 4.72944C69.3346 4.53772 69.5789 4.40717 69.8448 4.35427C70.1107 4.30138 70.3863 4.32853 70.6368 4.43228C70.8873 4.53603 71.1014 4.71173 71.252 4.93716C71.4026 5.16259 71.483 5.42763 71.483 5.69875C71.483 6.06231 71.3386 6.41098 71.0815 6.66806C70.8244 6.92514 70.4758 7.06956 70.1122 7.06956ZM81.0787 37.2275C80.8076 37.2275 80.5426 37.1471 80.3172 36.9965C80.0917 36.8459 79.916 36.6318 79.8123 36.3813C79.7085 36.1308 79.6814 35.8552 79.7343 35.5893C79.7871 35.3233 79.9177 35.0791 80.1094 34.8874C80.3011 34.6957 80.5454 34.5651 80.8113 34.5122C81.0772 34.4593 81.3528 34.4865 81.6033 34.5902C81.8538 34.694 82.0679 34.8697 82.2185 35.0951C82.3691 35.3205 82.4495 35.5856 82.4495 35.8567C82.4495 36.2202 82.3051 36.5689 82.048 36.826C81.791 37.0831 81.4423 37.2275 81.0787 37.2275Z" fill="url(#paint0_linear_7473_3166)"/>
<path d="M40.6521 25.9629C41.8292 21.5188 41.4911 16.8092 39.6914 12.5787C37.8917 8.3483 34.7331 4.83856 30.715 2.60458C26.6969 0.370589 22.0488 -0.460144 17.5057 0.243754C12.9626 0.947653 8.78374 3.14601 5.6301 6.49116C2.47645 9.8363 0.527985 14.1373 0.0928308 18.714C-0.342323 23.2907 0.760676 27.8819 3.22739 31.7614C5.6941 35.6409 9.38375 38.5874 13.7128 40.1349C18.0419 41.6824 22.7633 41.7425 27.1304 40.3058C27.2015 40.9712 27.518 41.5862 28.018 42.031C28.518 42.4758 29.1658 42.7184 29.835 42.7115H44.5904C45.0579 42.7116 45.5176 42.5922 45.9259 42.3646C46.3342 42.137 46.6775 41.8088 46.9233 41.4111C47.169 41.0135 47.309 40.5596 47.3299 40.0926C47.3508 39.6256 47.252 39.1611 47.0428 38.743L40.6521 25.9629ZM28.3024 36.9075C24.8091 38.5369 20.8815 38.989 17.1094 38.1959C13.3373 37.4028 9.92436 35.4073 7.38306 32.5091C4.84177 29.6109 3.30934 25.9664 3.01593 22.1231C2.72251 18.2797 3.68395 14.4448 5.75584 11.1944C7.82774 7.94402 10.8982 5.45356 14.5062 4.09704C18.1142 2.74052 22.065 2.59117 25.7651 3.67142C29.4652 4.75168 32.715 7.00322 35.0263 10.0879C37.3377 13.1726 38.5859 16.9239 38.5835 20.7785C38.5804 21.4524 38.5392 22.1257 38.4601 22.795C38.1403 22.6226 37.789 22.5166 37.4272 22.4835C37.0654 22.4504 36.7006 22.4909 36.3548 22.6024C36.0091 22.714 35.6894 22.8943 35.4152 23.1326C35.1409 23.3709 34.9177 23.6622 34.7589 23.9889L28.3024 36.9075ZM29.835 39.9699L37.2127 25.2145L44.5973 39.9699H29.835Z" fill="url(#paint1_linear_7473_3166)"/>
<path d="M35.8418 29.0039H38.5834V34.4872H35.8418V29.0039Z" fill="url(#paint2_linear_7473_3166)"/>
<path d="M35.8418 35.8574H38.5834V38.5991H35.8418V35.8574Z" fill="url(#paint3_linear_7473_3166)"/>
<path d="M0.200684 70.127H2.94231V82.4643H0.200684V70.127Z" fill="url(#paint4_linear_7473_3166)"/>
<path d="M5.68384 72.8691H8.42547V82.4648H5.68384V72.8691Z" fill="url(#paint5_linear_7473_3166)"/>
<path d="M11.1672 67.3867H13.9089V82.4657H11.1672V67.3867Z" fill="url(#paint6_linear_7473_3166)"/>
<path d="M16.6506 59.1621H19.3923V82.466H16.6506V59.1621Z" fill="url(#paint7_linear_7473_3166)"/>
<path d="M22.1338 64.6445H24.8754V82.4651H22.1338V64.6445Z" fill="url(#paint8_linear_7473_3166)"/>
<path d="M27.6169 72.8691H30.3586V82.4648H27.6169V72.8691Z" fill="url(#paint9_linear_7473_3166)"/>
<path d="M33.1003 75.6113H35.842V82.4654H33.1003V75.6113Z" fill="url(#paint10_linear_7473_3166)"/>
<path d="M38.5835 67.3867H41.3251V82.4657H38.5835V67.3867Z" fill="url(#paint11_linear_7473_3166)"/>
<path d="M44.0667 59.1621H46.8083V82.466H44.0667V59.1621Z" fill="url(#paint12_linear_7473_3166)"/>
<path d="M49.55 61.9023H52.2917V82.4646H49.55V61.9023Z" fill="url(#paint13_linear_7473_3166)"/>
<path d="M55.0332 74.2402H57.7748V82.4651H55.0332V74.2402Z" fill="url(#paint14_linear_7473_3166)"/>
<path d="M60.5166 75.6113H63.2582V82.4654H60.5166V75.6113Z" fill="url(#paint15_linear_7473_3166)"/>
<path d="M65.9998 70.127H68.7414V82.4643H65.9998V70.127Z" fill="url(#paint16_linear_7473_3166)"/>
<path d="M71.4829 61.9023H74.2245V82.4646H71.4829V61.9023Z" fill="url(#paint17_linear_7473_3166)"/>
<path d="M76.9663 67.3867H79.7079V82.4657H76.9663V67.3867Z" fill="url(#paint18_linear_7473_3166)"/>
<path d="M82.4497 72.8691H85.1913V82.4648H82.4497V72.8691Z" fill="url(#paint19_linear_7473_3166)"/>
<path d="M28.2 13.1016H25.112C24.7944 12.5211 24.3779 11.9967 23.88 11.5508H28.2C28.4122 11.5508 28.6157 11.4691 28.7657 11.3237C28.9157 11.1783 29 10.981 29 10.7754C29 10.5697 28.9157 10.3725 28.7657 10.2271C28.6157 10.0817 28.4122 10 28.2 10H13.8C13.5878 10 13.3843 10.0817 13.2343 10.2271C13.0843 10.3725 13 10.5697 13 10.7754C13 10.981 13.0843 11.1783 13.2343 11.3237C13.3843 11.4691 13.5878 11.5508 13.8 11.5508H19.84C20.4837 11.5513 21.1192 11.6908 21.7004 11.959C22.2816 12.2273 22.7938 12.6176 23.2 13.1016H13.8C13.5878 13.1016 13.3843 13.1833 13.2343 13.3287C13.0843 13.4741 13 13.6713 13 13.877C13 14.0826 13.0843 14.2798 13.2343 14.4252C13.3843 14.5707 13.5878 14.6524 13.8 14.6524H24.032C24.1434 15.0333 24.1999 15.4273 24.2 15.8232C24.2021 16.9475 23.7445 18.0267 22.9273 18.8246C22.1101 19.6225 20.9999 20.074 19.84 20.0801H14.712C14.5583 20.0803 14.4078 20.1234 14.2787 20.2043C14.1496 20.2852 14.0473 20.4004 13.984 20.5362C13.9207 20.672 13.8991 20.8226 13.9218 20.97C13.9445 21.1174 14.0105 21.2553 14.112 21.3673L23.448 31.711C23.5157 31.7925 23.5998 31.8599 23.6951 31.9091C23.7905 31.9583 23.8951 31.9882 24.0027 31.9972C24.1103 32.0061 24.2186 31.9938 24.3212 31.9611C24.4238 31.9284 24.5185 31.8759 24.5995 31.8067C24.6806 31.7376 24.7464 31.6532 24.7929 31.5588C24.8395 31.4643 24.8658 31.3617 24.8703 31.2571C24.8749 31.1525 24.8575 31.0482 24.8193 30.9503C24.7811 30.8524 24.7228 30.763 24.648 30.6875L16.48 21.6309H19.848C20.734 21.624 21.6074 21.4272 22.4057 21.0547C23.204 20.6821 23.9074 20.1431 24.4655 19.4762C25.0237 18.8092 25.4227 18.0309 25.634 17.1969C25.8454 16.363 25.8638 15.494 25.688 14.6524H28.2C28.4122 14.6524 28.6157 14.5707 28.7657 14.4252C28.9157 14.2798 29 14.0826 29 13.877C29 13.6713 28.9157 13.4741 28.7657 13.3287C28.6157 13.1833 28.4122 13.1016 28.2 13.1016Z" fill="url(#paint20_linear_7473_3166)"/>
<defs>
<linearGradient id="paint0_linear_7473_3166" x1="64.2951" y1="0.695958" x2="64.2951" y2="40.1329" gradientUnits="userSpaceOnUse">
<stop stop-color="#00EFD1"/>
<stop offset="1" stop-color="#00ACEA"/>
</linearGradient>
<linearGradient id="paint1_linear_7473_3166" x1="23.6662" y1="-0.956273" x2="23.6662" y2="42.8607" gradientUnits="userSpaceOnUse">
<stop stop-color="#00EFD1"/>
<stop offset="1" stop-color="#00ACEA"/>
</linearGradient>
<linearGradient id="paint2_linear_7473_3166" x1="37.2126" y1="28.8811" x2="37.2126" y2="34.5063" gradientUnits="userSpaceOnUse">
<stop stop-color="#00EFD1"/>
<stop offset="1" stop-color="#00ACEA"/>
</linearGradient>
<linearGradient id="paint3_linear_7473_3166" x1="37.2126" y1="35.796" x2="37.2126" y2="38.6086" gradientUnits="userSpaceOnUse">
<stop stop-color="#00EFD1"/>
<stop offset="1" stop-color="#00ACEA"/>
</linearGradient>
<linearGradient id="paint4_linear_7473_3166" x1="1.57149" y1="69.8507" x2="1.57149" y2="82.5073" gradientUnits="userSpaceOnUse">
<stop stop-color="#00EFD1"/>
<stop offset="1" stop-color="#00ACEA"/>
</linearGradient>
<linearGradient id="paint5_linear_7473_3166" x1="7.05465" y1="72.6543" x2="7.05465" y2="82.4983" gradientUnits="userSpaceOnUse">
<stop stop-color="#00EFD1"/>
<stop offset="1" stop-color="#00ACEA"/>
</linearGradient>
<linearGradient id="paint6_linear_7473_3166" x1="12.538" y1="67.0491" x2="12.538" y2="82.5183" gradientUnits="userSpaceOnUse">
<stop stop-color="#00EFD1"/>
<stop offset="1" stop-color="#00ACEA"/>
</linearGradient>
<linearGradient id="paint7_linear_7473_3166" x1="18.0214" y1="58.6404" x2="18.0214" y2="82.5472" gradientUnits="userSpaceOnUse">
<stop stop-color="#00EFD1"/>
<stop offset="1" stop-color="#00ACEA"/>
</linearGradient>
<linearGradient id="paint8_linear_7473_3166" x1="23.5046" y1="64.2455" x2="23.5046" y2="82.5273" gradientUnits="userSpaceOnUse">
<stop stop-color="#00EFD1"/>
<stop offset="1" stop-color="#00ACEA"/>
</linearGradient>
<linearGradient id="paint9_linear_7473_3166" x1="28.9878" y1="72.6543" x2="28.9878" y2="82.4983" gradientUnits="userSpaceOnUse">
<stop stop-color="#00EFD1"/>
<stop offset="1" stop-color="#00ACEA"/>
</linearGradient>
<linearGradient id="paint10_linear_7473_3166" x1="34.4712" y1="75.4579" x2="34.4712" y2="82.4893" gradientUnits="userSpaceOnUse">
<stop stop-color="#00EFD1"/>
<stop offset="1" stop-color="#00ACEA"/>
</linearGradient>
<linearGradient id="paint11_linear_7473_3166" x1="39.9543" y1="67.0491" x2="39.9543" y2="82.5183" gradientUnits="userSpaceOnUse">
<stop stop-color="#00EFD1"/>
<stop offset="1" stop-color="#00ACEA"/>
</linearGradient>
<linearGradient id="paint12_linear_7473_3166" x1="45.4375" y1="58.6404" x2="45.4375" y2="82.5472" gradientUnits="userSpaceOnUse">
<stop stop-color="#00EFD1"/>
<stop offset="1" stop-color="#00ACEA"/>
</linearGradient>
<linearGradient id="paint13_linear_7473_3166" x1="50.9209" y1="61.442" x2="50.9209" y2="82.5363" gradientUnits="userSpaceOnUse">
<stop stop-color="#00EFD1"/>
<stop offset="1" stop-color="#00ACEA"/>
</linearGradient>
<linearGradient id="paint14_linear_7473_3166" x1="56.404" y1="74.0561" x2="56.404" y2="82.4938" gradientUnits="userSpaceOnUse">
<stop stop-color="#00EFD1"/>
<stop offset="1" stop-color="#00ACEA"/>
</linearGradient>
<linearGradient id="paint15_linear_7473_3166" x1="61.8874" y1="75.4579" x2="61.8874" y2="82.4893" gradientUnits="userSpaceOnUse">
<stop stop-color="#00EFD1"/>
<stop offset="1" stop-color="#00ACEA"/>
</linearGradient>
<linearGradient id="paint16_linear_7473_3166" x1="67.3706" y1="69.8507" x2="67.3706" y2="82.5073" gradientUnits="userSpaceOnUse">
<stop stop-color="#00EFD1"/>
<stop offset="1" stop-color="#00ACEA"/>
</linearGradient>
<linearGradient id="paint17_linear_7473_3166" x1="72.8537" y1="61.442" x2="72.8537" y2="82.5363" gradientUnits="userSpaceOnUse">
<stop stop-color="#00EFD1"/>
<stop offset="1" stop-color="#00ACEA"/>
</linearGradient>
<linearGradient id="paint18_linear_7473_3166" x1="78.3371" y1="67.0491" x2="78.3371" y2="82.5183" gradientUnits="userSpaceOnUse">
<stop stop-color="#00EFD1"/>
<stop offset="1" stop-color="#00ACEA"/>
</linearGradient>
<linearGradient id="paint19_linear_7473_3166" x1="83.8205" y1="72.6543" x2="83.8205" y2="82.4983" gradientUnits="userSpaceOnUse">
<stop stop-color="#00EFD1"/>
<stop offset="1" stop-color="#00ACEA"/>
</linearGradient>
<linearGradient id="paint20_linear_7473_3166" x1="21" y1="9.50744" x2="21" y2="32.0767" gradientUnits="userSpaceOnUse">
<stop stop-color="#00EFD1"/>
<stop offset="1" stop-color="#00ACEA"/>
</linearGradient>
</defs>
</svg>
