<svg width="91" height="78" viewBox="0 0 91 78" fill="none" xmlns="http://www.w3.org/2000/svg">
<path d="M90.3395 44.0085C90.3393 44.008 90.3393 44.0078 90.3391 44.0074L73.2586 1.11984C72.8961 0.20859 71.8632 -0.236269 70.952 0.126233C70.9513 0.126455 70.9507 0.126677 70.95 0.127121L1.6569 27.719C1.37431 27.8411 1.12924 28.036 0.946545 28.2837C0.370271 28.5832 0.00621558 29.1759 0 29.8252V75.9981C0 76.9788 0.795151 77.774 1.77588 77.774H76.3629C77.3436 77.774 78.1388 76.9788 78.1388 75.9981V50.7806L89.3481 46.316C90.2592 45.9526 90.7029 44.9195 90.3395 44.0085ZM74.587 74.2222H3.55176V31.6011H74.587V74.2222ZM29.6306 28.0582L59.3659 16.2095C62.0198 18.999 65.6969 20.5844 69.5471 20.5995L72.5128 28.0582H29.6306ZM78.1388 46.966V29.8252C78.1388 28.8444 77.3436 28.0493 76.3629 28.0493H76.3345L72.5714 18.5981C72.5296 18.5193 72.481 18.4442 72.4258 18.3743C72.2353 17.519 71.4433 16.9354 70.57 17.0069C66.9876 17.3334 63.4831 15.8244 61.259 12.9969C60.7056 12.3139 59.7329 12.1441 58.9806 12.5991C58.8962 12.6091 58.8125 12.6247 58.7302 12.6453L22.4276 27.101C21.9883 27.2732 21.6369 27.6149 21.4526 28.0493H10.428L70.6161 4.08378L86.3842 43.6771L78.1388 46.966Z" fill="url(#paint0_linear_7473_3100)"/>
<path d="M8.3715 62.2328C11.8194 63.2519 14.5174 65.9466 15.5407 69.3931C15.7652 70.1454 16.4571 70.6609 17.242 70.6611C17.3341 70.6553 17.4256 70.6416 17.5155 70.6202C17.5952 70.6429 17.6767 70.6595 17.7588 70.67H60.3799C60.4532 70.6604 60.5256 70.6455 60.5966 70.6256C61.4839 70.8413 62.378 70.2973 62.594 69.41C62.5947 69.4066 62.5956 69.4035 62.5962 69.4002C63.6169 65.9501 66.3154 63.2517 69.7655 62.231C70.6021 61.9752 71.122 61.1415 70.9837 60.2775C71.0075 60.1914 71.0246 60.1035 71.0352 60.0147V45.8076C71.0248 45.7186 71.007 45.6307 70.982 45.5448C71.1211 44.6806 70.601 43.8464 69.7637 43.5913C66.3136 42.5709 63.6158 39.8713 62.598 36.4203C62.341 35.5779 61.499 35.0567 60.6303 35.2021C60.5482 35.1792 60.4645 35.1626 60.3799 35.1523H17.7588C17.6693 35.163 17.5808 35.1808 17.4942 35.2056C16.6305 35.068 15.7971 35.5877 15.5407 36.4239C14.5194 39.8733 11.8211 42.5709 8.3715 43.5913C7.53483 43.8471 7.01494 44.6808 7.15324 45.5448C7.13015 45.6312 7.1135 45.7188 7.10352 45.8076V60.0147C7.11373 60.0981 7.13038 60.1807 7.15324 60.2615C7.00762 61.131 7.52862 61.9741 8.3715 62.2328ZM10.6553 46.5286C14.2212 45.0964 17.0476 42.2701 18.4798 38.7041H59.6572C61.0901 42.2701 63.9171 45.0964 67.4835 46.5286V59.2937C63.9186 60.7275 61.0927 63.5533 59.6589 67.1182H18.4798C17.046 63.5533 14.2201 60.7275 10.6553 59.2937V46.5286Z" fill="url(#paint1_linear_7473_3100)"/>
<path d="M39.0693 63.5664C44.9542 63.5664 49.7246 58.796 49.7246 52.9111C49.7246 47.0263 44.9542 42.2559 39.0693 42.2559C33.1845 42.2559 28.4141 47.0263 28.4141 52.9111C28.4198 58.7935 33.187 63.5607 39.0693 63.5664ZM39.0693 45.8076C42.9925 45.8076 46.1729 48.988 46.1729 52.9111C46.1729 56.8343 42.9925 60.0147 39.0693 60.0147C35.1462 60.0147 31.9658 56.8343 31.9658 52.9111C31.9658 48.988 35.1462 45.8076 39.0693 45.8076Z" fill="url(#paint2_linear_7473_3100)"/>
<path d="M19.5347 55.5757C21.0058 55.5757 22.1985 54.383 22.1985 52.9119C22.1985 51.4408 21.0058 50.248 19.5347 50.248C18.0636 50.248 16.8708 51.4408 16.8708 52.9119C16.8708 54.3832 18.0636 55.5757 19.5347 55.5757ZM19.5347 52.0239C20.025 52.0239 20.4226 52.4215 20.4226 52.9119C20.4226 53.4022 20.025 53.7998 19.5347 53.7998C19.0443 53.7998 18.6467 53.4022 18.6467 52.9119C18.6467 52.4215 19.0443 52.0239 19.5347 52.0239Z" fill="url(#paint3_linear_7473_3100)"/>
<path d="M58.604 55.5757C60.0751 55.5757 61.2678 54.383 61.2678 52.9119C61.2678 51.4408 60.0751 50.248 58.604 50.248C57.1329 50.248 55.9402 51.4408 55.9402 52.9119C55.9402 54.3832 57.1329 55.5757 58.604 55.5757ZM58.604 52.0239C59.0944 52.0239 59.4919 52.4215 59.4919 52.9119C59.4919 53.4022 59.0944 53.7998 58.604 53.7998C58.1136 53.7998 57.7161 53.4022 57.7161 52.9119C57.7161 52.4215 58.1136 52.0239 58.604 52.0239Z" fill="url(#paint4_linear_7473_3100)"/>
<defs>
<linearGradient id="paint0_linear_7473_3100" x1="45.233" y1="-1.74128" x2="45.233" y2="78.0452" gradientUnits="userSpaceOnUse">
<stop stop-color="#00EFD1"/>
<stop offset="1" stop-color="#00ACEA"/>
</linearGradient>
<linearGradient id="paint1_linear_7473_3100" x1="39.0692" y1="34.3571" x2="39.0692" y2="70.7967" gradientUnits="userSpaceOnUse">
<stop stop-color="#00EFD1"/>
<stop offset="1" stop-color="#00ACEA"/>
</linearGradient>
<linearGradient id="paint2_linear_7473_3100" x1="39.0693" y1="41.7787" x2="39.0693" y2="63.6408" gradientUnits="userSpaceOnUse">
<stop stop-color="#00EFD1"/>
<stop offset="1" stop-color="#00ACEA"/>
</linearGradient>
<linearGradient id="paint3_linear_7473_3100" x1="19.5347" y1="50.1288" x2="19.5347" y2="55.5943" gradientUnits="userSpaceOnUse">
<stop stop-color="#00EFD1"/>
<stop offset="1" stop-color="#00ACEA"/>
</linearGradient>
<linearGradient id="paint4_linear_7473_3100" x1="58.604" y1="50.1288" x2="58.604" y2="55.5943" gradientUnits="userSpaceOnUse">
<stop stop-color="#00EFD1"/>
<stop offset="1" stop-color="#00ACEA"/>
</linearGradient>
</defs>
</svg>
