<svg width="85" height="159" viewBox="0 0 85 159" fill="none" xmlns="http://www.w3.org/2000/svg">
<path d="M35.4854 111.315C35.4854 111.315 48.8126 106.636 40.1313 80.3031C31.4501 53.9705 42.5574 54.5481 47.5087 41.2292C52.46 27.9102 45.1486 18.8906 45.1486 18.8906" stroke="#263238" stroke-width="3" stroke-linecap="round" stroke-linejoin="round"/>
<path d="M42.0683 104.801H3.2832C3.2832 104.801 8.51506 144.213 10.0252 155.617C10.2975 157.689 11.948 158.712 13.945 158.712H67.7159C69.713 158.712 71.3634 157.689 71.6357 155.617C73.1459 144.213 78.3777 104.801 78.3777 104.801H42.0683Z" fill="#263238"/>
<path d="M1.84848 101.515H79.8147C80.3028 101.515 80.7708 101.708 81.116 102.054C81.4611 102.399 81.6549 102.867 81.6549 103.355V106.268C81.6549 106.756 81.4611 107.224 81.116 107.569C80.7708 107.914 80.3028 108.108 79.8147 108.108H1.84848C1.35823 108.108 0.888066 107.913 0.541408 107.567C0.194751 107.22 0 106.75 0 106.26V103.347C0 102.856 0.194751 102.386 0.541408 102.039C0.888066 101.693 1.35823 101.498 1.84848 101.498V101.515Z" fill="#263238"/>
<path d="M34.6516 121.02H38.7777" stroke="white" stroke-linecap="round" stroke-linejoin="round"/>
<path d="M55.3379 130.161C55.3395 132.963 54.5099 135.704 52.954 138.035C51.3981 140.366 49.1858 142.183 46.5969 143.257C44.008 144.331 41.1588 144.612 38.4098 144.067C35.6607 143.521 33.1353 142.172 31.1529 140.191C29.1705 138.21 27.8202 135.685 27.2729 132.936C26.7255 130.187 27.0056 127.338 28.0778 124.749C29.1499 122.159 30.966 119.946 33.2962 118.388C35.6265 116.831 38.3662 116 41.1689 116C44.9253 116 48.528 117.492 51.185 120.147C53.8419 122.802 55.3357 126.404 55.3379 130.161V130.161Z" fill="#92E3A9" stroke="#263238" stroke-linecap="round" stroke-linejoin="round"/>
<path d="M39.7258 123.588V122.639H41.9373V123.588C43.8518 123.885 44.8256 124.974 44.8256 126.707V127.111H42.2757V126.624C42.2757 125.708 41.7888 125.362 40.9306 125.362C40.0723 125.362 39.5855 125.708 39.5855 126.624C39.5855 127.54 40.0723 128.168 41.8878 129.249C44.0911 130.561 44.8503 131.559 44.8503 133.02C44.8503 134.753 43.8518 135.867 41.9373 136.156V137.088H39.7258V136.114C37.7948 135.826 36.8127 134.712 36.8127 132.979V132.104H39.3627V133.111C39.3627 134.018 39.8991 134.348 40.7573 134.348C41.6155 134.348 42.1601 134.018 42.1601 133.111C42.1601 132.203 41.665 131.543 39.8495 130.478C37.6462 129.191 36.887 128.168 36.887 126.707C36.887 124.974 37.8443 123.901 39.7258 123.588Z" fill="white" stroke="#263238" stroke-linecap="round" stroke-linejoin="round"/>
<path d="M52.5901 130.113C52.595 132.44 51.9095 134.716 50.6204 136.653C49.3312 138.59 47.4964 140.101 45.3481 140.995C43.1998 141.889 40.8346 142.125 38.5519 141.675C36.2692 141.224 34.1716 140.106 32.5245 138.462C30.8775 136.818 29.7551 134.723 29.2993 132.441C28.8436 130.16 29.075 127.794 29.9643 125.644C30.8536 123.494 32.3608 121.656 34.2951 120.362C36.2295 119.069 38.504 118.379 40.8308 118.379C43.9446 118.381 46.9306 119.617 49.1348 121.817C51.3389 124.016 52.5814 127 52.5901 130.113V130.113Z" stroke="#263238" stroke-linecap="round" stroke-linejoin="round"/>
<path d="M39.0649 76.8863C39.0649 76.8863 41.8954 62.2223 53.7455 61.0752C65.5956 59.9282 66.9489 50.6445 66.9489 50.6445" stroke="#263238" stroke-width="3" stroke-linecap="round" stroke-linejoin="round"/>
<path d="M40.2707 51.4596C40.2707 51.4596 37.3906 50.0732 26.7124 43.5705C16.0341 37.0678 16.4467 26.7031 16.4467 26.7031" stroke="#263238" stroke-width="3" stroke-linecap="round" stroke-linejoin="round"/>
<path d="M42.5558 90.0493C42.5558 90.0493 21.6531 89.2241 18.5503 72.0762" stroke="#263238" stroke-width="3" stroke-linecap="round" stroke-linejoin="round"/>
<path d="M55.7679 11.5664C55.542 13.4166 54.7724 15.1582 53.5566 16.571C52.3408 17.9838 50.7333 19.0044 48.9375 19.5036C47.1417 20.0028 45.2381 19.9583 43.4676 19.3756C41.6971 18.793 40.1391 17.6984 38.9907 16.2303C37.8423 14.7621 37.155 12.9865 37.0158 11.1277C36.8766 9.269 37.2917 7.41073 38.2087 5.78794C39.1256 4.16514 40.5032 2.85071 42.1672 2.01086C43.8312 1.17101 45.7069 0.843468 47.557 1.06965C50.0377 1.37292 52.2964 2.64915 53.8362 4.61763C55.376 6.58611 56.0709 9.08562 55.7679 11.5664V11.5664Z" fill="white"/>
<path d="M55.7679 11.5664C55.542 13.4166 54.7724 15.1582 53.5566 16.571C52.3408 17.9838 50.7333 19.0044 48.9375 19.5036C47.1417 20.0028 45.2381 19.9583 43.4676 19.3756C41.6971 18.793 40.1391 17.6984 38.9907 16.2303C37.8423 14.7621 37.155 12.9865 37.0158 11.1277C36.8766 9.269 37.2917 7.41073 38.2087 5.78794C39.1256 4.16514 40.5032 2.85071 42.1672 2.01086C43.8312 1.17101 45.7069 0.843468 47.557 1.06965C50.0377 1.37292 52.2964 2.64915 53.8362 4.61763C55.376 6.58611 56.0709 9.08562 55.7679 11.5664V11.5664Z" stroke="#263238" stroke-linecap="round" stroke-linejoin="round"/>
<path d="M53.97 11.349C53.7867 12.8436 53.164 14.2503 52.1808 15.3908C51.1975 16.5314 49.898 17.3545 48.4466 17.756C46.9953 18.1575 45.4574 18.1193 44.0278 17.6462C42.5982 17.1731 41.3411 16.2865 40.4158 15.0985C39.4904 13.9106 38.9383 12.4747 38.8295 10.9728C38.7206 9.47091 39.0599 7.97046 39.8044 6.6615C40.5488 5.35254 41.665 4.29394 43.0114 3.61971C44.3579 2.94548 45.8742 2.68596 47.3682 2.87403C49.3671 3.12343 51.1852 4.15614 52.423 5.74525C53.6609 7.33436 54.2173 9.34986 53.97 11.349Z" stroke="#263238" stroke-linecap="round" stroke-linejoin="round"/>
<path d="M45.2793 6.64099C45.5664 6.31655 45.9695 6.11795 46.4016 6.08808L46.4759 5.46094L47.5652 5.59295L47.4827 6.22012C47.6931 6.28517 47.8885 6.3917 48.0571 6.53343C48.2258 6.67516 48.3643 6.84921 48.4647 7.04534C48.6697 7.49434 48.7358 7.99436 48.6545 8.4812V8.74527L47.4002 8.59674L47.4414 8.24191C47.4922 8.02082 47.4599 7.78878 47.3506 7.58998C47.2968 7.51441 47.2265 7.4521 47.145 7.40778C47.0635 7.36345 46.9729 7.33827 46.8803 7.33417C46.79 7.31565 46.6966 7.3187 46.6077 7.34308C46.5187 7.36746 46.4369 7.41245 46.3686 7.47444C46.2145 7.64108 46.1265 7.85822 46.1211 8.08511C46.0876 8.31541 46.1102 8.55038 46.1871 8.77003C46.2642 8.96948 46.3668 9.15809 46.4924 9.33117C46.6162 9.49621 46.806 9.70252 47.0371 9.95834C47.2829 10.1955 47.5092 10.4522 47.7137 10.7258C47.8947 10.9757 48.0315 11.2548 48.1181 11.551C48.2195 11.9019 48.2448 12.2705 48.1924 12.632C48.1532 13.1267 47.9664 13.5982 47.656 13.9854C47.5102 14.1474 47.3338 14.279 47.1369 14.3724C46.94 14.4659 46.7266 14.5195 46.5089 14.53L46.4346 15.1407L45.3454 15.0086L45.4279 14.398C45.2159 14.3339 45.019 14.2278 44.8489 14.0861C44.6787 13.9443 44.5389 13.7697 44.4376 13.5728C44.2281 13.1251 44.1618 12.6237 44.2478 12.1369L44.3138 11.5593L45.5682 11.7078L45.4856 12.368C45.4196 12.9126 45.6177 13.1932 46.0716 13.2757C46.5254 13.3582 46.7895 13.0859 46.8555 12.5413C46.8884 12.3082 46.8658 12.0707 46.7895 11.8481C46.7161 11.647 46.6132 11.4578 46.4842 11.2869C46.3151 11.07 46.1332 10.8634 45.9395 10.668C45.6956 10.4261 45.4695 10.1668 45.2628 9.89234C45.0846 9.64191 44.9507 9.3628 44.8667 9.06712C44.7527 8.65805 44.7335 8.22833 44.8108 7.81074C44.888 7.39315 45.0595 6.9987 45.3123 6.65748L45.2793 6.64099Z" fill="#263238"/>
<path d="M26.1093 19.0458C26.3598 20.8924 26.0572 22.7719 25.2397 24.4466C24.4222 26.1213 23.1265 27.5161 21.5165 28.4545C19.9064 29.3929 18.0543 29.833 16.1942 29.7189C14.3341 29.6049 12.5496 28.9419 11.0662 27.8138C9.58288 26.6857 8.46728 25.1432 7.86049 23.3812C7.25369 21.6191 7.18293 19.7167 7.65715 17.9145C8.13138 16.1123 9.1293 14.4911 10.5248 13.256C11.9202 12.0208 13.6505 11.2271 15.497 10.9752C16.7238 10.8078 17.9716 10.8838 19.169 11.1989C20.3664 11.514 21.49 12.0619 22.4755 12.8114C23.4611 13.5609 24.2892 14.4973 24.9127 15.567C25.5362 16.6367 25.9428 17.8189 26.1093 19.0458V19.0458Z" fill="white"/>
<path d="M26.1093 19.0458C26.3598 20.8924 26.0572 22.7719 25.2397 24.4466C24.4222 26.1213 23.1265 27.5161 21.5165 28.4545C19.9064 29.3929 18.0543 29.833 16.1942 29.7189C14.3341 29.6049 12.5496 28.9419 11.0662 27.8138C9.58288 26.6857 8.46728 25.1432 7.86049 23.3812C7.25369 21.6191 7.18293 19.7167 7.65715 17.9145C8.13138 16.1123 9.1293 14.4911 10.5248 13.256C11.9202 12.0208 13.6505 11.2271 15.497 10.9752C16.7238 10.8078 17.9716 10.8838 19.169 11.1989C20.3664 11.514 21.49 12.0619 22.4755 12.8114C23.4611 13.5609 24.2892 14.4973 24.9127 15.567C25.5362 16.6367 25.9428 17.8189 26.1093 19.0458V19.0458Z" stroke="#263238" stroke-linecap="round" stroke-linejoin="round"/>
<path d="M24.3284 19.2832C24.5246 20.7732 24.2751 22.2879 23.6114 23.6363C22.9478 24.9847 21.8997 26.1063 20.5993 26.8597C19.299 27.6132 17.8046 27.9646 16.3048 27.8697C14.8049 27.7749 13.3667 27.238 12.1716 26.3267C10.9766 25.4155 10.0781 24.1707 9.58964 22.7495C9.10116 21.3282 9.04452 19.7941 9.42687 18.3407C9.80922 16.8873 10.6134 15.5797 11.7381 14.5828C12.8627 13.5859 14.2573 12.9444 15.7461 12.7392C16.7398 12.6023 17.7507 12.6631 18.7207 12.9183C19.6907 13.1735 20.6007 13.618 21.3983 14.2262C22.196 14.8343 22.8654 15.5942 23.3683 16.4621C23.8711 17.33 24.1974 18.2887 24.3284 19.2832V19.2832Z" stroke="#263238" stroke-linecap="round" stroke-linejoin="round"/>
<path d="M14.7219 16.9271C14.9169 16.5376 15.2581 16.2409 15.6709 16.1019L15.5801 15.4747L16.6612 15.3262L16.7519 15.9533C17.1892 15.9704 17.6018 16.1603 17.899 16.4815C18.2123 16.8621 18.4048 17.3276 18.4519 17.8183V18.0824L17.1975 18.2474L17.1563 17.9008C17.1444 17.6762 17.0539 17.4629 16.9005 17.2984C16.7519 17.188 16.5661 17.14 16.3826 17.1647C16.1992 17.1894 16.0326 17.2847 15.9185 17.4305C15.8128 17.6306 15.7834 17.8623 15.8359 18.0824C15.8601 18.3137 15.9424 18.5351 16.0753 18.7261C16.1968 18.9037 16.3442 19.0623 16.5126 19.1964C16.6777 19.3202 16.9005 19.477 17.1975 19.6585C17.4859 19.8314 17.7617 20.0244 18.0228 20.2362C18.26 20.4273 18.4612 20.6593 18.6169 20.9211C18.8079 21.2318 18.9264 21.5816 18.9635 21.9444C19.0581 22.432 18.9975 22.9371 18.7902 23.3885C18.6908 23.5838 18.5535 23.7574 18.3863 23.8991C18.2192 24.0407 18.0254 24.1477 17.8165 24.2137L17.899 24.8326L16.818 24.9729L16.7354 24.3623C16.5161 24.356 16.3003 24.306 16.1005 24.2154C15.9007 24.1247 15.721 23.9951 15.5719 23.8341C15.2555 23.4529 15.0652 22.983 15.0272 22.489L14.9447 21.9196L16.199 21.7463L16.2898 22.4065C16.3558 22.9511 16.6282 23.2317 17.115 23.1327C17.6019 23.0337 17.7587 22.7614 17.6844 22.2167C17.6602 21.9854 17.5779 21.764 17.4451 21.573C17.3236 21.3954 17.1761 21.2368 17.0077 21.1027C16.8427 20.9789 16.6199 20.8221 16.3228 20.6406C16.0348 20.4702 15.7591 20.28 15.4976 20.0712C15.2622 19.875 15.0613 19.6406 14.9035 19.378C14.6899 19.0052 14.5628 18.5892 14.5314 18.1608C14.5 17.7323 14.5651 17.3023 14.7219 16.9023V16.9271Z" fill="#263238"/>
<path d="M25.5642 64.118C25.7117 65.976 25.305 67.836 24.3955 69.4628C23.486 71.0896 22.1145 72.4103 20.4544 73.2576C18.7944 74.105 16.9203 74.4412 15.0693 74.2235C13.2182 74.0059 11.4733 73.2442 10.055 72.0349C8.63684 70.8255 7.60909 69.2228 7.10173 67.4294C6.59437 65.6359 6.6302 63.7323 7.20469 61.9593C7.77918 60.1862 8.86653 58.6233 10.3292 57.4682C11.792 56.3131 13.5643 55.6176 15.4223 55.4698C16.6563 55.3705 17.8978 55.5155 19.0757 55.8966C20.2536 56.2777 21.3448 56.8873 22.2868 57.6906C23.2288 58.4939 24.0031 59.4751 24.5655 60.578C25.1279 61.6809 25.4673 62.8838 25.5642 64.118V64.118Z" fill="white"/>
<path d="M25.5642 64.118C25.7117 65.976 25.305 67.836 24.3955 69.4628C23.486 71.0896 22.1145 72.4103 20.4544 73.2576C18.7944 74.105 16.9203 74.4412 15.0693 74.2235C13.2182 74.0059 11.4733 73.2442 10.055 72.0349C8.63684 70.8255 7.60909 69.2228 7.10173 67.4294C6.59437 65.6359 6.6302 63.7323 7.20469 61.9593C7.77918 60.1862 8.86653 58.6233 10.3292 57.4682C11.792 56.3131 13.5643 55.6176 15.4223 55.4698C16.6563 55.3705 17.8978 55.5155 19.0757 55.8966C20.2536 56.2777 21.3448 56.8873 22.2868 57.6906C23.2288 58.4939 24.0031 59.4751 24.5655 60.578C25.1279 61.6809 25.4673 62.8838 25.5642 64.118V64.118Z" stroke="#263238" stroke-linecap="round" stroke-linejoin="round"/>
<path d="M23.7572 64.2618C23.8813 65.7622 23.5576 67.2656 22.8269 68.5819C22.0962 69.8982 20.9914 70.9681 19.6524 71.6562C18.3134 72.3444 16.8004 72.6198 15.3048 72.4477C13.8092 72.2756 12.3983 71.6637 11.2506 70.6893C10.1029 69.715 9.27006 68.4221 8.85747 66.9743C8.44488 65.5265 8.47108 63.9888 8.93277 62.5558C9.39445 61.1229 10.2709 59.8591 11.4511 58.9245C12.6313 57.9898 14.0622 57.4263 15.5628 57.3053C17.571 57.1455 19.5607 57.7877 21.0965 59.0915C22.6322 60.3953 23.5889 62.2543 23.7572 64.2618V64.2618Z" stroke="#263238" stroke-linecap="round" stroke-linejoin="round"/>
<path d="M14.293 61.4326C14.5094 61.0566 14.8652 60.7809 15.2833 60.6652L15.2338 60.038L16.3231 59.9473L16.3726 60.5744C16.8067 60.6149 17.2072 60.8255 17.4866 61.1603C17.7794 61.5589 17.9461 62.036 17.9652 62.5302V62.7942L16.7109 62.8933V62.5467C16.7166 62.3212 16.6404 62.1013 16.4964 61.9278C16.3544 61.8082 16.1712 61.749 15.9861 61.7628C15.801 61.7767 15.6287 61.8626 15.5061 62.002C15.3877 62.1974 15.3438 62.4288 15.3823 62.654C15.3995 62.8844 15.4701 63.1076 15.5886 63.3059C15.7011 63.4903 15.8401 63.6572 16.0012 63.801C16.2105 63.9825 16.431 64.1506 16.6614 64.3044C16.9495 64.4928 17.2251 64.6995 17.4866 64.9233C17.7091 65.1306 17.896 65.3731 18.0395 65.6412C18.21 65.9658 18.3085 66.3232 18.3283 66.6893C18.3917 67.1801 18.3024 67.6786 18.0725 68.1169C17.9617 68.3041 17.815 68.4675 17.6408 68.5978C17.4666 68.7281 17.2684 68.8227 17.0575 68.8761L17.107 69.495L16.0177 69.5858L15.9682 68.9669C15.7498 68.9479 15.5373 68.8856 15.3431 68.7836C15.149 68.6816 14.9772 68.5419 14.8377 68.3727C14.5478 67.9732 14.384 67.4961 14.3673 67.0028L14.3178 66.4252L15.5804 66.3179L15.6299 66.9863C15.6299 67.5392 15.927 67.8116 16.3808 67.7538C16.8347 67.696 17.0493 67.4237 17.008 66.8791C16.9909 66.6461 16.9203 66.4201 16.8017 66.2189C16.6893 66.0344 16.5502 65.8676 16.3891 65.7238C16.2323 65.5917 16.0177 65.4267 15.7289 65.2286C15.4387 65.0403 15.1628 64.8307 14.9037 64.6015C14.6784 64.3946 14.4889 64.1521 14.3426 63.8835C14.1748 63.5609 14.0764 63.2067 14.0537 62.8438C13.9844 62.3599 14.0681 61.8666 14.293 61.4326V61.4326Z" fill="#263238"/>
<path d="M80.4998 47.931C79.7165 49.6225 78.4492 51.0436 76.8581 52.0148C75.2671 52.9859 73.4237 53.4634 71.5613 53.3868C69.6988 53.3103 67.9009 52.6831 66.3949 51.5846C64.8889 50.4862 63.7425 48.9658 63.1007 47.2157C62.4589 45.4657 62.3504 43.5646 62.7891 41.753C63.2278 39.9413 64.1939 38.3004 65.5652 37.0378C66.9365 35.7753 68.6515 34.9478 70.4931 34.6599C72.3348 34.3721 74.2205 34.6369 75.9116 35.4208C78.1787 36.4717 79.9356 38.3799 80.796 40.7259C81.6564 43.0719 81.5499 45.6636 80.4998 47.931V47.931Z" fill="white"/>
<path d="M80.4998 47.931C79.7165 49.6225 78.4492 51.0436 76.8581 52.0148C75.2671 52.9859 73.4237 53.4634 71.5613 53.3868C69.6988 53.3103 67.9009 52.6831 66.3949 51.5846C64.8889 50.4862 63.7425 48.9658 63.1007 47.2157C62.4589 45.4657 62.3504 43.5646 62.7891 41.753C63.2278 39.9413 64.1939 38.3004 65.5652 37.0378C66.9365 35.7753 68.6515 34.9478 70.4931 34.6599C72.3348 34.3721 74.2205 34.6369 75.9116 35.4208C78.1787 36.4717 79.9356 38.3799 80.796 40.7259C81.6564 43.0719 81.5499 45.6636 80.4998 47.931V47.931Z" stroke="#263238" stroke-linecap="round" stroke-linejoin="round"/>
<path d="M78.8585 47.17C78.225 48.5345 77.2012 49.6806 75.9164 50.4634C74.6317 51.2461 73.1437 51.6305 71.6406 51.5678C70.1375 51.5051 68.6867 50.9982 67.4716 50.1112C66.2565 49.2242 65.3316 47.9968 64.8139 46.5843C64.2961 45.1718 64.2088 43.6375 64.5628 42.1753C64.9169 40.7131 65.6965 39.3888 66.803 38.3695C67.9096 37.3503 69.2935 36.682 70.7798 36.4491C72.2661 36.2163 73.788 36.4292 75.1533 37.0611C76.0615 37.4802 76.878 38.0745 77.5561 38.8099C78.2341 39.5452 78.7603 40.4072 79.1045 41.3463C79.4488 42.2855 79.6042 43.2833 79.562 44.2827C79.5198 45.282 79.2807 46.2632 78.8585 47.17V47.17Z" stroke="#263238" stroke-linecap="round" stroke-linejoin="round"/>
<path d="M72.0086 40.0263C72.3814 39.8057 72.8259 39.7405 73.2464 39.8448L73.5105 39.2754L74.5007 39.7375L74.2366 40.3069C74.5955 40.5547 74.8418 40.9344 74.9216 41.3632C74.9807 41.8539 74.8916 42.3511 74.6658 42.7908L74.5502 43.0301L73.4114 42.502L73.5517 42.1802C73.6665 41.9835 73.7075 41.7524 73.6672 41.5282C73.641 41.4398 73.5945 41.3588 73.5315 41.2915C73.4684 41.2241 73.3906 41.1724 73.3042 41.1404C73.2205 41.1001 73.1288 41.0793 73.036 41.0793C72.9431 41.0793 72.8514 41.1001 72.7678 41.1404C72.5739 41.255 72.4253 41.4327 72.3469 41.6438C72.2438 41.8541 72.1929 42.0862 72.1984 42.3204C72.2065 42.534 72.2454 42.7452 72.3139 42.9476C72.3882 43.1457 72.4954 43.4015 72.644 43.7068C72.7992 44.0112 72.9342 44.3255 73.0483 44.6475C73.1413 44.941 73.1859 45.2475 73.1804 45.5553C73.1693 45.9187 73.0822 46.2757 72.9246 46.6033C72.7335 47.0626 72.4086 47.4537 71.9921 47.7256C71.8041 47.8343 71.5966 47.9047 71.3813 47.9331C71.1661 47.9614 70.9474 47.947 70.7377 47.8906L70.4737 48.4518L69.4834 47.9897L69.7145 47.4038C69.5343 47.2809 69.3803 47.1236 69.2614 46.9409C69.1424 46.7581 69.0608 46.5537 69.0213 46.3392C68.9604 45.8458 69.0496 45.3454 69.2771 44.9034L69.5247 44.3752L70.6717 44.9116L70.3912 45.514C70.1601 46.0091 70.2509 46.3392 70.6717 46.5538C71.0926 46.7683 71.4144 46.5538 71.6455 46.0917C71.7429 45.8826 71.791 45.6539 71.7858 45.4232C71.7817 45.2066 71.7427 44.992 71.6702 44.7878C71.5762 44.5281 71.466 44.2745 71.3401 44.0286C71.1821 43.7256 71.0469 43.4111 70.9358 43.0879C70.8417 42.7977 70.7998 42.4932 70.812 42.1884C70.817 41.8242 70.9044 41.4659 71.0678 41.1404C71.2625 40.683 71.5903 40.2948 72.0086 40.0263V40.0263Z" fill="#263238"/>
<path d="M66.5441 52.2193C66.5441 52.8052 75.3327 46.4428 83.8736 50.4946C83.8736 50.4946 74.9448 58.6064 66.3048 53.5644C57.6648 48.5223 58.8779 36.1523 58.8779 36.1523C58.8779 36.1523 67.2373 41.9866 66.5441 52.2193Z" fill="#92E3A9" stroke="#263238" stroke-linecap="round" stroke-linejoin="round"/>
<path d="M46.4267 20.0692C46.7073 20.5809 50.6683 10.439 60.0758 9.20117C60.0758 9.20117 56.973 20.8614 46.9796 21.3071C36.9863 21.7527 31.3005 10.703 31.3005 10.703C31.3005 10.703 41.4507 11.0992 46.4267 20.0692Z" fill="#92E3A9" stroke="#263238" stroke-linecap="round" stroke-linejoin="round"/>
<path d="M17.8328 30.7082C18.1959 31.1703 20.5065 20.5251 29.5921 17.8184C29.5921 17.8184 28.3708 29.8252 18.5837 31.847C8.7967 33.8688 1.43579 23.8507 1.43579 23.8507C1.43579 23.8507 11.5034 22.6541 17.8328 30.7082Z" fill="#92E3A9" stroke="#263238" stroke-linecap="round" stroke-linejoin="round"/>
<path d="M19.7387 75.6257C20.176 76.0135 20.6299 65.129 29.1214 60.9121C29.1214 60.9121 29.9466 72.952 20.6712 76.5912C11.3958 80.2304 2.40918 71.6399 2.40918 71.6399C2.40918 71.6399 12.1302 68.7434 19.7387 75.6257Z" fill="#92E3A9" stroke="#263238" stroke-linecap="round" stroke-linejoin="round"/>
</svg>
