<svg width="86" height="86" viewBox="0 0 86 86" fill="none" xmlns="http://www.w3.org/2000/svg">
<path d="M85.9993 42.738C85.9989 42.3471 85.8937 41.9635 85.6949 41.627C85.496 41.2904 85.2107 41.0133 84.8685 40.8243L71.6035 33.5757L84.8685 26.3271C85.2102 26.1396 85.4952 25.8637 85.6937 25.5283C85.8922 25.1929 85.9969 24.8104 85.9969 24.4207C85.9969 24.0309 85.8922 23.6484 85.6937 23.313C85.4952 22.9776 85.2102 22.7018 84.8685 22.5143L44.2762 0.260951C43.9549 0.0896202 43.5964 0 43.2324 0C42.8683 0 42.5098 0.0896202 42.1885 0.260951L1.59617 22.4418C1.25452 22.6293 0.969526 22.9051 0.771017 23.2405C0.572507 23.5759 0.467773 23.9585 0.467773 24.3482C0.467773 24.7379 0.572507 25.1205 0.771017 25.4558C0.969526 25.7912 1.25452 26.0671 1.59617 26.2546L14.8612 33.5032L1.59617 40.7518C1.25489 40.9414 0.970524 41.2188 0.772535 41.5553C0.574545 41.8918 0.470141 42.2751 0.470141 42.6655C0.470141 43.0559 0.574545 43.4392 0.772535 43.7757C0.970524 44.1121 1.25489 44.3895 1.59617 44.5791L14.8612 51.8278L1.59617 59.0764C1.25489 59.266 0.970524 59.5434 0.772535 59.8799C0.574545 60.2163 0.470141 60.5996 0.470141 60.99C0.470141 61.3804 0.574545 61.7637 0.772535 62.1002C0.970524 62.4367 1.25489 62.7141 1.59617 62.9037L42.1885 85.1425C42.5098 85.3138 42.8683 85.4035 43.2324 85.4035C43.5964 85.4035 43.9549 85.3138 44.2762 85.1425L84.8685 63.0342C85.2098 62.8446 85.4942 62.5672 85.6922 62.2307C85.8902 61.8942 85.9946 61.5109 85.9946 61.1205C85.9946 60.7301 85.8902 60.3468 85.6922 60.0103C85.4942 59.6739 85.2098 59.3965 84.8685 59.2069L71.6035 51.9582L84.8685 44.7096C85.2195 44.516 85.5105 44.2297 85.7099 43.882C85.9093 43.5344 86.0094 43.1386 85.9993 42.738ZM43.2324 4.62463L79.3016 24.3844L43.2324 44.1877L7.16313 24.3844L43.2324 4.62463ZM79.3016 61.0915L43.2324 80.8513L7.16313 61.0915L19.3843 54.3358L42.1885 66.8324C42.5098 67.0038 42.8683 67.0934 43.2324 67.0934C43.5964 67.0934 43.9549 67.0038 44.2762 66.8324L67.0804 54.3358L79.3016 61.0915ZM43.2324 62.4978L7.16313 42.738L19.3843 36.0402L42.1885 48.5369C42.5068 48.7173 42.8665 48.8122 43.2324 48.8122C43.5982 48.8122 43.9579 48.7173 44.2762 48.5369L67.0804 36.0402L79.3016 42.738L43.2324 62.4978Z" fill="url(#paint0_linear_7473_3139)"/>
<defs>
<linearGradient id="paint0_linear_7473_3139" x1="43.2337" y1="-1.9121" x2="43.2337" y2="85.7013" gradientUnits="userSpaceOnUse">
<stop stop-color="#00EFD1"/>
<stop offset="1" stop-color="#00ACEA"/>
</linearGradient>
</defs>
</svg>
