<svg width="98" height="97" viewBox="0 0 98 97" fill="none" xmlns="http://www.w3.org/2000/svg">
<path d="M35.0857 79.2266H24.9902C21.9621 79.2182 19.0396 78.1128 16.764 76.1152C14.4883 74.1175 13.0136 71.3629 12.6129 68.3615L9.08178 40.0487C9.01924 39.5699 9.05969 39.0833 9.20042 38.6214C9.34115 38.1594 9.57891 37.7329 9.89779 37.3703C10.2167 37.0077 10.6093 36.7174 11.0495 36.5188C11.4896 36.3202 11.9671 36.2179 12.45 36.2188H84.8842C85.3662 36.2181 85.8428 36.3202 86.2823 36.5182C86.7217 36.7163 87.1139 37.0058 87.4326 37.3673C87.7513 37.7289 87.9893 38.1543 88.1307 38.6151C88.272 39.0759 88.3135 39.5615 88.2524 40.0397L86.7369 56.439C86.6872 56.8865 86.549 57.3196 86.3304 57.7131C86.1118 58.1067 85.8171 58.4528 85.4634 58.7314C85.1098 59.01 84.2705 59.3359 84.2705 59.3359C84.2705 59.3359 83.3833 59.4893 82.9367 59.4329C82.49 59.3765 82.0591 59.2318 81.6688 59.0072C81.2786 58.7827 80.937 58.4828 80.6638 58.125C80.3905 57.7672 80.1912 57.3586 80.0773 56.9231C79.9634 56.4875 79.9373 56.0337 80.0005 55.5879L81.0316 43.0095H16.298L19.3493 67.4877C19.5331 68.8548 20.2056 70.1091 21.2426 71.0187C22.2795 71.9284 23.6108 72.4318 24.9902 72.4359H35.0857C35.9862 72.4359 36.8498 72.7936 37.4866 73.4304C38.1233 74.0671 38.481 74.9307 38.481 75.8312C38.481 76.7317 38.1233 77.5954 37.4866 78.2321C36.8498 78.8689 35.9862 79.2266 35.0857 79.2266Z" fill="#1ED0CB"/>
<path d="M84.8839 43.0087H12.4496C9.14779 43.0087 5.98117 41.697 3.64641 39.3622C1.31165 37.0275 0 33.8609 0 30.559C0 27.2572 1.31165 24.0905 3.64641 21.7558C5.98117 19.421 9.14779 18.1094 12.4496 18.1094H84.8839C88.1857 18.1094 91.3524 19.421 93.6871 21.7558C96.0219 24.0905 97.3335 27.2572 97.3335 30.559C97.3335 33.8609 96.0219 37.0275 93.6871 39.3622C91.3524 41.697 88.1857 43.0087 84.8839 43.0087ZM12.4496 24.9001C10.9488 24.9001 9.50943 25.4963 8.44817 26.5575C7.38692 27.6188 6.79071 29.0582 6.79071 30.559C6.79071 32.0599 7.38692 33.4992 8.44817 34.5605C9.50943 35.6217 10.9488 36.2179 12.4496 36.2179H84.8839C86.3847 36.2179 87.8241 35.6217 88.8854 34.5605C89.9466 33.4992 90.5428 32.0599 90.5428 30.559C90.5428 29.0582 89.9466 27.6188 88.8854 26.5575C87.8241 25.4963 86.3847 24.9001 84.8839 24.9001H12.4496Z" fill="#1ED0CB"/>
<path d="M12.4496 24.8993C11.819 24.8993 11.2009 24.7237 10.6645 24.3922C10.1281 24.0607 9.69465 23.5864 9.41266 23.0224C9.13066 22.4584 9.01129 21.827 9.06792 21.199C9.12455 20.571 9.35494 19.9712 9.73327 19.4667L23.3147 1.35814C23.5822 1.00143 23.9174 0.700915 24.3011 0.473739C24.6847 0.246564 25.1094 0.0971828 25.5508 0.0341252C25.9922 -0.0289324 26.4417 -0.00443183 26.8736 0.106228C27.3056 0.216888 27.7115 0.411541 28.0682 0.679071C28.4249 0.946602 28.7254 1.28177 28.9526 1.66544C29.1798 2.04912 29.3292 2.47378 29.3922 2.91518C29.4553 3.35658 29.4308 3.80608 29.3201 4.23802C29.2094 4.66995 29.0148 5.07586 28.7473 5.43257L15.1658 23.5411C14.8498 23.9631 14.4398 24.3055 13.9682 24.5413C13.4967 24.7771 12.9767 24.8996 12.4496 24.8993Z" fill="#1ED0CB"/>
<path d="M48.6668 67.9112C47.7663 67.9112 46.9027 67.5535 46.266 66.9167C45.6292 66.28 45.2715 65.4163 45.2715 64.5158V50.9344C45.2715 50.0339 45.6292 49.1703 46.266 48.5335C46.9027 47.8968 47.7663 47.5391 48.6668 47.5391C49.5673 47.5391 50.431 47.8968 51.0677 48.5335C51.7045 49.1703 52.0622 50.0339 52.0622 50.9344V64.5158C52.0622 65.4163 51.7045 66.28 51.0677 66.9167C50.431 67.5535 49.5673 67.9112 48.6668 67.9112Z" fill="#1ED0CB"/>
<path d="M62.2484 65.6497C61.3479 65.6497 60.4843 65.292 59.8475 64.6552C59.2108 64.0184 58.853 63.1548 58.853 62.2543V53.2C58.853 52.2995 59.2108 51.4359 59.8475 50.7992C60.4843 50.1624 61.3479 49.8047 62.2484 49.8047C63.1489 49.8047 64.0125 50.1624 64.6493 50.7992C65.286 51.4359 65.6437 52.2995 65.6437 53.2V62.2543C65.6437 63.1548 65.286 64.0184 64.6493 64.6552C64.0125 65.292 63.1489 65.6497 62.2484 65.6497Z" fill="#1ED0CB"/>
<path d="M84.8838 24.8993C84.3566 24.8996 83.8366 24.7771 83.3651 24.5413C82.8936 24.3055 82.4835 23.9631 82.1675 23.5411L68.5861 5.43257C68.3185 5.07586 68.1239 4.66995 68.0132 4.23802C67.9025 3.80608 67.8781 3.35658 67.9411 2.91518C68.0042 2.47378 68.1535 2.04912 68.3807 1.66544C68.6079 1.28177 68.9084 0.946602 69.2651 0.679071C69.6218 0.411541 70.0277 0.216888 70.4597 0.106228C70.8916 -0.00443182 71.3411 -0.0289324 71.7825 0.0341252C72.2239 0.0971828 72.6486 0.246564 73.0323 0.473739C73.4159 0.700915 73.7511 1.00143 74.0186 1.35814L87.6 19.4667C87.9784 19.9712 88.2088 20.571 88.2654 21.199C88.322 21.827 88.2027 22.4584 87.9207 23.0224C87.6387 23.5864 87.2052 24.0607 86.6688 24.3922C86.1324 24.7237 85.5143 24.8993 84.8838 24.8993Z" fill="#1ED0CB"/>
<path d="M35.0853 65.6497C34.1848 65.6497 33.3212 65.292 32.6844 64.6552C32.0477 64.0184 31.6899 63.1548 31.6899 62.2543V53.2C31.6899 52.2995 32.0477 51.4359 32.6844 50.7992C33.3212 50.1624 34.1848 49.8047 35.0853 49.8047C35.9858 49.8047 36.8494 50.1624 37.4862 50.7992C38.1229 51.4359 38.4807 52.2995 38.4807 53.2V62.2543C38.4807 63.1548 38.1229 64.0184 37.4862 64.6552C36.8494 65.292 35.9858 65.6497 35.0853 65.6497Z" fill="#1ED0CB"/>
<path d="M48.6666 79.2282H29.1395C28.239 79.2282 27.3754 78.8705 26.7386 78.2337C26.1019 77.597 25.7441 76.7334 25.7441 75.8329C25.7441 74.9324 26.1019 74.0687 26.7386 73.432C27.3754 72.7952 28.239 72.4375 29.1395 72.4375H48.6666C49.5671 72.4375 50.4308 72.7952 51.0675 73.432C51.7043 74.0687 52.062 74.9324 52.062 75.8329C52.062 76.7334 51.7043 77.597 51.0675 78.2337C50.4308 78.8705 49.5671 79.2282 48.6666 79.2282Z" fill="#1ED0CB"/>
<path d="M75.8335 96.3359C71.5812 96.3359 67.4244 95.075 63.8887 92.7125C60.3531 90.3501 57.5974 86.9922 55.9701 83.0636C54.3428 79.135 53.917 74.8121 54.7466 70.6415C55.5762 66.4709 57.6239 62.64 60.6307 59.6332C63.6375 56.6263 67.4685 54.5786 71.6391 53.7491C75.8096 52.9195 80.1326 53.3453 84.0612 54.9725C87.9898 56.5998 91.3476 59.3555 93.7101 62.8912C96.0725 66.4268 97.3335 70.5836 97.3335 74.8359C97.3263 80.5359 95.0588 86.0003 91.0284 90.0308C86.9979 94.0613 81.5334 96.3288 75.8335 96.3359ZM75.8335 60.1254C72.924 60.1254 70.0799 60.9882 67.6608 62.6046C65.2416 64.221 63.3562 66.5185 62.2428 69.2065C61.1293 71.8945 60.838 74.8523 61.4056 77.7058C61.9732 80.5594 63.3743 83.1805 65.4316 85.2379C67.4889 87.2952 70.1101 88.6962 72.9636 89.2638C75.8172 89.8314 78.775 89.5401 81.463 88.4267C84.151 87.3133 86.4484 85.4278 88.0648 83.0087C89.6813 80.5895 90.544 77.7454 90.544 74.8359C90.5392 70.9359 88.9878 67.197 86.2301 64.4393C83.4724 61.6816 79.7335 60.1302 75.8335 60.1254Z" fill="#00EFD1"/>
<path d="M75.7 84.8359C74.9043 84.8359 74.1412 84.4848 73.5786 83.8596C73.016 83.2345 72.7 82.3867 72.7 81.5026V68.1693C72.7 67.2852 73.016 66.4374 73.5786 65.8122C74.1412 65.1871 74.9043 64.8359 75.7 64.8359C76.4956 64.8359 77.2587 65.1871 77.8213 65.8122C78.3839 66.4374 78.7 67.2852 78.7 68.1693V81.5026C78.7 82.3867 78.3839 83.2345 77.8213 83.8596C77.2587 84.4848 76.4956 84.8359 75.7 84.8359Z" fill="#FFCE02"/>
<path d="M82.3666 77.8359H69.0333C68.1492 77.8359 67.3014 77.5199 66.6763 76.9573C66.0511 76.3947 65.7 75.6316 65.7 74.8359C65.7 74.0403 66.0511 73.2772 66.6763 72.7146C67.3014 72.152 68.1492 71.8359 69.0333 71.8359H82.3666C83.2507 71.8359 84.0985 72.152 84.7236 72.7146C85.3488 73.2772 85.7 74.0403 85.7 74.8359C85.7 75.6316 85.3488 76.3947 84.7236 76.9573C84.0985 77.5199 83.2507 77.8359 82.3666 77.8359Z" fill="#FFCE02"/>
</svg>
