<svg width="93" height="93" viewBox="0 0 93 93" fill="none" xmlns="http://www.w3.org/2000/svg">
<path d="M19.375 17.8405V53.4324C19.375 55.9841 20.005 58.4958 21.2089 60.7457C22.4128 62.9951 24.1535 64.9128 26.2764 66.3284L46.5 79.8134L66.7236 66.3284C68.846 64.9132 70.5862 62.9963 71.7902 60.7472C72.9942 58.4986 73.6242 55.9872 73.625 53.4362V17.8405L46.5 11.8187L19.375 17.8405ZM14.6591 10.9507L46.5 3.875L78.3409 10.9507C79.2015 11.142 79.9711 11.621 80.5225 12.3085C81.0743 12.9961 81.375 13.8513 81.375 14.7327V53.4324C81.3746 57.2597 80.4295 61.0282 78.6234 64.4025C76.8172 67.7769 74.2059 70.6533 71.021 72.7764L46.5 89.125L21.979 72.7764C18.7948 70.6536 16.1838 67.778 14.3776 64.4044C12.5714 61.0305 11.6259 57.2632 11.625 53.4362V14.7327C11.6252 13.8513 11.9259 12.9961 12.4775 12.3085C13.0291 11.621 13.7986 11.142 14.6591 10.9507Z" fill="#24A8A4"/>
<path d="M35.1115 58.2994L46.5001 52.3125L57.8848 58.2994L55.7148 45.6204L64.9257 36.6381L52.1963 34.7859L46.5001 23.25L40.8077 34.7859L28.0745 36.6381L37.2853 45.6204L35.1115 58.2994Z" fill="#FFCE02"/>
</svg>
