<svg width="189" height="191" viewBox="0 0 189 191" fill="none" xmlns="http://www.w3.org/2000/svg">
<ellipse cx="94.2722" cy="95.6406" rx="93.939" ry="95.2559" fill="#DEF7E5"/>
<path d="M41.404 148.689H24.5837C24.5837 148.689 26.8527 165.782 27.5076 170.728C27.6257 171.626 28.3415 172.07 29.2075 172.07H52.5269C53.3929 172.07 54.1087 171.626 54.2268 170.728C54.8853 165.782 57.1507 148.689 57.1507 148.689H41.404Z" fill="#263238"/>
<path d="M23.9613 147.26H57.7737C57.9863 147.26 58.1902 147.344 58.3405 147.495C58.4909 147.645 58.5753 147.849 58.5753 148.061V149.325C58.5753 149.536 58.4912 149.739 58.3416 149.889C58.1919 150.039 57.9889 150.123 57.7772 150.123H23.9613C23.7487 150.123 23.5448 150.038 23.3945 149.888C23.2441 149.738 23.1597 149.534 23.1597 149.321V148.058C23.1597 147.953 23.1804 147.849 23.2208 147.752C23.2611 147.655 23.3202 147.566 23.3947 147.492C23.4692 147.418 23.5576 147.359 23.6548 147.319C23.752 147.28 23.8562 147.259 23.9613 147.26Z" fill="#263238"/>
<path d="M38.1877 155.719H39.9771" stroke="white" stroke-linecap="round" stroke-linejoin="round"/>
<path d="M47.0117 159.661C47.0124 160.876 46.6526 162.065 45.9779 163.076C45.3031 164.087 44.3437 164.875 43.2209 165.34C42.0982 165.806 40.8626 165.928 39.6704 165.691C38.4781 165.455 37.3829 164.87 36.5232 164.011C35.6635 163.151 35.0779 162.056 34.8405 160.864C34.6031 159.672 34.7246 158.437 35.1896 157.314C35.6546 156.191 36.4421 155.231 37.4527 154.555C38.4633 153.88 39.6515 153.52 40.8669 153.52C42.496 153.52 44.0584 154.166 45.2107 155.318C46.363 156.47 47.0108 158.032 47.0117 159.661Z" fill="#92E3A9" stroke="#263238" stroke-linecap="round" stroke-linejoin="round"/>
<path d="M45.9673 159.667C45.9695 160.676 45.6722 161.663 45.1131 162.503C44.554 163.343 43.7583 163.999 42.8266 164.386C41.895 164.774 40.8692 164.877 39.8793 164.681C38.8893 164.485 37.9796 164.001 37.2653 163.288C36.551 162.575 36.0643 161.666 35.8666 160.677C35.669 159.687 35.7693 158.661 36.155 157.729C36.5407 156.796 37.1943 155.999 38.0332 155.438C38.8721 154.877 39.8585 154.578 40.8676 154.578C42.218 154.579 43.513 155.115 44.4688 156.069C45.4247 157.023 45.9636 158.317 45.9673 159.667V159.667Z" stroke="#263238" stroke-linecap="round" stroke-linejoin="round"/>
<path d="M40.8678 156.783L39.3647 158.272V157.259H38.8887V158.748L38.0728 159.553H38.7885V162.012H42.9471V159.553H43.6592L40.8678 156.783Z" fill="white" stroke="#263238" stroke-linecap="round" stroke-linejoin="round"/>
<path d="M41.1858 150.459C41.1858 150.459 43.3331 146.343 38.1868 142.765C33.0405 139.186 31.924 135.478 32.7507 132.68" stroke="#263238" stroke-width="3" stroke-linecap="round" stroke-linejoin="round"/>
<path d="M40.3345 144.75C40.3345 144.75 39.7332 142.069 44.4393 140.18C49.1454 138.29 49.8469 132.664 49.8469 132.664" stroke="#263238" stroke-width="3" stroke-linecap="round" stroke-linejoin="round"/>
<path d="M35.3707 128.18C36.1258 128.18 35.9934 132.918 32.5076 133.813C32.5076 133.813 30.8113 133.28 30.5429 130.996C30.4399 130.379 30.5094 129.746 30.7438 129.166C30.9781 128.587 31.368 128.083 31.8706 127.711C32.0879 128.456 32.3842 129.176 32.7546 129.858C32.7546 129.858 33.9391 128.187 35.3707 128.18Z" fill="#92E3A9" stroke="#263238" stroke-linecap="round" stroke-linejoin="round"/>
<path d="M32.7509 129.852C32.7509 129.852 31.7846 130.653 32.486 132.11L32.7509 129.852Z" fill="#92E3A9"/>
<path d="M32.7509 129.852C32.7509 129.852 31.7846 130.653 32.486 132.11" stroke="#263238" stroke-linecap="round" stroke-linejoin="round"/>
<path d="M49.6037 133.815C49.6037 133.815 47.0986 131.536 47.8501 129.857C48.3592 128.806 49.1904 127.945 50.2229 127.398C50.2229 127.398 50.7597 128.44 51.071 128.937L52.3558 128.182C52.3558 128.182 54.9826 133.278 49.6037 133.815Z" fill="#92E3A9" stroke="#263238" stroke-linecap="round" stroke-linejoin="round"/>
<path d="M51.0712 128.938C51.0712 128.938 52.6387 131.443 50.6704 132.677L51.0712 128.938Z" fill="#92E3A9"/>
<path d="M51.0712 128.938C51.0712 128.938 52.6387 131.443 50.6704 132.677" stroke="#263238" stroke-linecap="round" stroke-linejoin="round"/>
<path d="M41.9978 141.542C41.9978 141.542 39.575 135.458 41.5827 128.637" stroke="#263238" stroke-width="3" stroke-linecap="round" stroke-linejoin="round"/>
<path d="M41.6986 128.674C41.6986 128.674 44.9195 127.639 44.9195 125.811C44.8941 124.644 44.4966 123.515 43.785 122.59C43.785 122.59 42.8617 123.306 42.3714 123.638L41.516 122.418C41.516 122.418 37.0282 125.939 41.6986 128.674Z" fill="#92E3A9" stroke="#263238" stroke-linecap="round" stroke-linejoin="round"/>
<path d="M42.3854 123.633C42.3854 123.633 39.9197 125.268 41.2009 127.212L42.3854 123.633Z" fill="#92E3A9"/>
<path d="M42.3854 123.633C42.3854 123.633 39.9197 125.268 41.2009 127.212" stroke="#263238" stroke-linecap="round" stroke-linejoin="round"/>
<path d="M154.754 147.457H133.797C133.797 147.457 136.62 168.753 137.44 174.915C137.587 176.034 138.479 176.587 139.558 176.587H168.613C169.692 176.587 170.584 176.034 170.731 174.915C171.551 168.753 174.374 147.457 174.374 147.457H154.754Z" fill="#263238"/>
<path d="M133.022 145.678H175.15C175.414 145.678 175.667 145.782 175.853 145.969C176.04 146.155 176.145 146.408 176.145 146.672V148.246C176.145 148.51 176.04 148.763 175.853 148.949C175.667 149.136 175.414 149.24 175.15 149.24H133.022C132.757 149.24 132.503 149.135 132.316 148.948C132.129 148.761 132.023 148.507 132.023 148.242V146.668C132.024 146.537 132.05 146.408 132.101 146.287C132.151 146.167 132.225 146.058 132.318 145.966C132.411 145.874 132.521 145.801 132.641 145.752C132.762 145.702 132.892 145.677 133.022 145.678Z" fill="#263238"/>
<path d="M150.747 156.219H152.977" stroke="white" stroke-linecap="round" stroke-linejoin="round"/>
<path d="M161.742 161.132C161.743 162.646 161.294 164.127 160.454 165.387C159.613 166.646 158.417 167.628 157.019 168.208C155.62 168.789 154.08 168.941 152.595 168.646C151.109 168.351 149.745 167.622 148.674 166.552C147.603 165.481 146.873 164.117 146.577 162.632C146.281 161.146 146.433 159.607 147.012 158.208C147.591 156.808 148.573 155.613 149.832 154.771C151.091 153.93 152.571 153.48 154.086 153.48C156.115 153.48 158.062 154.286 159.498 155.721C160.933 157.156 161.74 159.102 161.742 161.132Z" fill="#92E3A9" stroke="#263238" stroke-linecap="round" stroke-linejoin="round"/>
<path d="M157.011 160.297V162.972C157.011 162.972 156.449 163.909 154.086 163.909C151.723 163.909 151.161 162.972 151.161 162.972V160.297" fill="white"/>
<path d="M157.011 160.297V162.972C157.011 162.972 156.449 163.909 154.086 163.909C151.723 163.909 151.161 162.972 151.161 162.972V160.297" stroke="#263238" stroke-linecap="round" stroke-linejoin="round"/>
<path d="M153.882 158.107L157.94 159.615L153.882 161.122L149.824 159.615L153.882 158.107Z" fill="white" stroke="#263238" stroke-linecap="round" stroke-linejoin="round"/>
<path d="M154.086 159.869L155.78 160.748V164.792" stroke="#263238" stroke-linecap="round" stroke-linejoin="round"/>
<path d="M160.442 161.143C160.445 162.401 160.074 163.63 159.378 164.677C158.681 165.724 157.69 166.54 156.529 167.023C155.368 167.506 154.09 167.634 152.857 167.39C151.623 167.147 150.49 166.542 149.6 165.654C148.71 164.766 148.103 163.634 147.857 162.401C147.611 161.168 147.736 159.89 148.217 158.728C148.697 157.566 149.511 156.573 150.557 155.875C151.602 155.176 152.831 154.803 154.088 154.803C155.771 154.804 157.384 155.472 158.575 156.66C159.766 157.849 160.437 159.461 160.442 161.143V161.143Z" stroke="#263238" stroke-linecap="round" stroke-linejoin="round"/>
<path d="M154.087 151.362C154.087 151.362 152.058 146.163 154.087 139.475" stroke="#263238" stroke-width="3" stroke-linecap="round" stroke-linejoin="round"/>
<path d="M154.087 133.832C154.087 133.832 160.44 138.144 153.195 142.451C153.195 142.451 145.994 138.144 154.087 133.832Z" fill="#92E3A9" stroke="#263238" stroke-linecap="round" stroke-linejoin="round"/>
<path d="M154.086 133.832C154.086 133.832 155.179 135.468 154.086 136.953C153.763 137.445 153.541 137.995 153.431 138.573C153.322 139.151 153.328 139.744 153.449 140.32" stroke="#263238" stroke-linecap="round" stroke-linejoin="round"/>
<path d="M89.241 139.916C89.241 139.916 101.749 135.525 93.6015 110.81C85.4536 86.0948 95.8786 86.6369 100.526 74.1362C105.173 61.6354 98.3106 53.1699 98.3106 53.1699" stroke="#263238" stroke-width="3" stroke-linecap="round" stroke-linejoin="round"/>
<path d="M95.4198 133.805H59.0173C59.0173 133.805 63.9278 170.796 65.3452 181.5C65.6008 183.444 67.1498 184.404 69.0241 184.404H119.492C121.366 184.404 122.915 183.444 123.171 181.5C124.588 170.796 129.499 133.805 129.499 133.805H95.4198Z" fill="#263238"/>
<path d="M57.6705 130.717H130.847C131.305 130.717 131.745 130.899 132.068 131.223C132.392 131.546 132.574 131.986 132.574 132.444V135.178C132.574 135.636 132.392 136.075 132.068 136.399C131.745 136.723 131.305 136.905 130.847 136.905H57.6705C57.2103 136.905 56.7691 136.722 56.4437 136.397C56.1183 136.072 55.9355 135.63 55.9355 135.17V132.436C55.9355 131.976 56.1183 131.535 56.4437 131.209C56.7691 130.884 57.2103 130.701 57.6705 130.701V130.717Z" fill="#263238"/>
<path d="M88.4583 149.023H92.3309" stroke="white" stroke-linecap="round" stroke-linejoin="round"/>
<path d="M107.557 157.56C107.558 160.191 106.779 162.763 105.319 164.951C103.859 167.139 101.782 168.844 99.3525 169.852C96.9226 170.86 94.2485 171.124 91.6683 170.612C89.0882 170.1 86.7179 168.834 84.8573 166.974C82.9967 165.115 81.7293 162.745 81.2156 160.165C80.7018 157.585 80.9647 154.911 81.971 152.481C82.9773 150.05 84.6818 147.973 86.8689 146.511C89.056 145.05 91.6275 144.27 94.258 144.27C97.7836 144.27 101.165 145.67 103.659 148.162C106.152 150.654 107.554 154.035 107.557 157.56Z" fill="#92E3A9" stroke="#263238" stroke-linecap="round" stroke-linejoin="round"/>
<path d="M105.295 157.563C105.3 159.746 104.656 161.883 103.447 163.701C102.237 165.519 100.514 166.937 98.4981 167.776C96.4818 168.615 94.2619 168.837 92.1194 168.413C89.9769 167.99 88.0082 166.941 86.4623 165.398C84.9164 163.856 83.863 161.889 83.4352 159.747C83.0075 157.606 83.2247 155.386 84.0593 153.367C84.894 151.349 86.3086 149.624 88.1241 148.411C89.9397 147.197 92.0745 146.549 94.2583 146.549C97.1809 146.551 99.9835 147.711 102.052 149.776C104.121 151.84 105.287 154.64 105.295 157.563V157.563Z" stroke="#263238" stroke-linecap="round" stroke-linejoin="round"/>
<path d="M92.6006 107.602C92.6006 107.602 95.2572 93.8392 106.379 92.7626C117.501 91.686 118.772 82.9727 118.772 82.9727" stroke="#263238" stroke-width="3" stroke-linecap="round" stroke-linejoin="round"/>
<path d="M93.732 83.7376C93.732 83.7376 91.029 82.4364 81.0067 76.3332C70.9844 70.2299 71.3716 60.502 71.3716 60.502" stroke="#263238" stroke-width="3" stroke-linecap="round" stroke-linejoin="round"/>
<path d="M95.8772 119.959C95.8772 119.959 76.2586 119.184 73.3464 103.09" stroke="#263238" stroke-width="3" stroke-linecap="round" stroke-linejoin="round"/>
<path d="M108.278 46.2962C108.066 48.0327 107.344 49.6673 106.202 50.9934C105.061 52.3194 103.553 53.2773 101.867 53.7458C100.182 54.2144 98.395 54.1726 96.7332 53.6257C95.0715 53.0789 93.6092 52.0515 92.5313 50.6736C91.4535 49.2956 90.8084 47.629 90.6778 45.8845C90.5471 44.1399 90.9367 42.3958 91.7974 40.8727C92.658 39.3496 93.9509 38.1159 95.5127 37.3277C97.0745 36.5394 98.8349 36.232 100.571 36.4443C102.9 36.7289 105.02 37.9267 106.465 39.7743C107.91 41.6219 108.562 43.9678 108.278 46.2962Z" fill="white"/>
<path d="M108.278 46.2962C108.066 48.0327 107.344 49.6673 106.202 50.9934C105.061 52.3194 103.553 53.2773 101.867 53.7458C100.182 54.2144 98.395 54.1726 96.7332 53.6257C95.0715 53.0789 93.6092 52.0515 92.5313 50.6736C91.4535 49.2956 90.8084 47.629 90.6778 45.8845C90.5471 44.1399 90.9367 42.3958 91.7974 40.8727C92.658 39.3496 93.9509 38.1159 95.5127 37.3277C97.0745 36.5394 98.8349 36.232 100.571 36.4443C102.9 36.7289 105.02 37.9267 106.465 39.7743C107.91 41.6219 108.562 43.9678 108.278 46.2962V46.2962Z" stroke="#263238" stroke-linecap="round" stroke-linejoin="round"/>
<path d="M106.59 46.0884C106.418 47.4912 105.834 48.8114 104.911 49.8819C103.988 50.9524 102.768 51.725 101.406 52.1018C100.044 52.4786 98.6006 52.4428 97.2588 51.9988C95.917 51.5548 94.7371 50.7226 93.8686 49.6076C93.0001 48.4926 92.4819 47.145 92.3798 45.7353C92.2776 44.3257 92.5961 42.9174 93.2948 41.6888C93.9935 40.4603 95.0411 39.4667 96.3048 38.8339C97.5686 38.2011 98.9917 37.9575 100.394 38.134C102.27 38.3681 103.976 39.3374 105.138 40.8289C106.3 42.3204 106.822 44.2121 106.59 46.0884Z" stroke="#263238" stroke-linecap="round" stroke-linejoin="round"/>
<path d="M80.4411 53.3162C80.6762 55.0494 80.3922 56.8134 79.6249 58.3852C78.8576 59.9571 77.6416 61.2661 76.1304 62.1469C74.6193 63.0277 72.8809 63.4407 71.1351 63.3336C69.3893 63.2266 67.7144 62.6044 66.3221 61.5456C64.9299 60.4868 63.8828 59.039 63.3133 57.3852C62.7438 55.7314 62.6774 53.9459 63.1225 52.2544C63.5676 50.5629 64.5042 49.0413 65.8139 47.882C67.1236 46.7227 68.7477 45.9778 70.4807 45.7413C71.6322 45.5842 72.8033 45.6556 73.9271 45.9513C75.051 46.2471 76.1055 46.7613 77.0305 47.4648C77.9555 48.1683 78.7328 49.0471 79.318 50.0511C79.9032 51.0551 80.2849 52.1646 80.4411 53.3162Z" fill="white"/>
<path d="M80.4411 53.3162C80.6762 55.0494 80.3922 56.8134 79.6249 58.3852C78.8576 59.9571 77.6416 61.2661 76.1304 62.1469C74.6193 63.0277 72.8809 63.4407 71.1351 63.3336C69.3893 63.2266 67.7144 62.6044 66.3221 61.5456C64.9299 60.4868 63.8828 59.039 63.3133 57.3852C62.7438 55.7314 62.6774 53.9459 63.1225 52.2544C63.5676 50.5629 64.5042 49.0413 65.8139 47.882C67.1236 46.7227 68.7477 45.9778 70.4807 45.7413C71.6322 45.5842 72.8033 45.6556 73.9271 45.9513C75.051 46.2471 76.1055 46.7613 77.0305 47.4648C77.9555 48.1683 78.7328 49.0471 79.318 50.0511C79.9032 51.0551 80.2849 52.1646 80.4411 53.3162V53.3162Z" stroke="#263238" stroke-linecap="round" stroke-linejoin="round"/>
<path d="M78.7694 53.5369C78.9535 54.9354 78.7194 56.3571 78.0965 57.6226C77.4736 58.8882 76.4899 59.9409 75.2694 60.6481C74.049 61.3552 72.6464 61.6851 71.2387 61.596C69.831 61.507 68.4811 61.0031 67.3595 60.1478C66.2378 59.2925 65.3946 58.1243 64.9361 56.7903C64.4776 55.4564 64.4245 54.0165 64.7833 52.6524C65.1422 51.2883 65.897 50.061 66.9525 49.1253C68.0081 48.1897 69.3171 47.5876 70.7144 47.395C71.647 47.2665 72.5958 47.3236 73.5062 47.5631C74.4167 47.8026 75.2708 48.2198 76.0194 48.7906C76.768 49.3614 77.3963 50.0746 77.8683 50.8892C78.3403 51.7038 78.6465 52.6036 78.7694 53.5369V53.5369Z" stroke="#263238" stroke-linecap="round" stroke-linejoin="round"/>
<path d="M79.9296 95.622C80.0681 97.3658 79.6864 99.1116 78.8327 100.638C77.9791 102.165 76.6918 103.405 75.1338 104.2C73.5757 104.996 71.8168 105.311 70.0795 105.107C68.3421 104.902 66.7043 104.188 65.3732 103.053C64.0422 101.917 63.0775 100.413 62.6014 98.7299C62.1252 97.0467 62.1588 95.26 62.698 93.5958C63.2372 91.9317 64.2577 90.4648 65.6306 89.3807C67.0035 88.2965 68.667 87.6438 70.4108 87.505C71.569 87.4118 72.7342 87.548 73.8397 87.9056C74.9453 88.2633 75.9694 88.8355 76.8536 89.5894C77.7377 90.3434 78.4645 91.2643 78.9923 92.2994C79.5202 93.3346 79.8387 94.4636 79.9296 95.622Z" fill="white"/>
<path d="M79.9296 95.622C80.0681 97.3658 79.6864 99.1116 78.8327 100.638C77.9791 102.165 76.6918 103.405 75.1338 104.2C73.5757 104.996 71.8168 105.311 70.0795 105.107C68.3421 104.902 66.7043 104.188 65.3732 103.053C64.0422 101.917 63.0775 100.413 62.6014 98.7299C62.1252 97.0467 62.1588 95.26 62.698 93.5958C63.2372 91.9317 64.2577 90.4648 65.6306 89.3807C67.0035 88.2965 68.667 87.6438 70.4108 87.505C71.569 87.4118 72.7342 87.548 73.8397 87.9056C74.9453 88.2633 75.9694 88.8355 76.8536 89.5894C77.7377 90.3434 78.4645 91.2643 78.9923 92.2994C79.5202 93.3346 79.8387 94.4636 79.9296 95.622V95.622Z" stroke="#263238" stroke-linecap="round" stroke-linejoin="round"/>
<path d="M78.2332 95.7529C78.3497 97.1611 78.0458 98.5722 77.36 99.8076C76.6742 101.043 75.6373 102.047 74.3806 102.693C73.1238 103.339 71.7037 103.597 70.3 103.436C68.8963 103.274 67.572 102.7 66.4949 101.786C65.4177 100.871 64.636 99.6577 64.2488 98.2988C63.8615 96.9399 63.8861 95.4967 64.3194 94.1517C64.7527 92.8068 65.5753 91.6207 66.683 90.7435C67.7907 89.8662 69.1338 89.3373 70.5422 89.2237C72.427 89.0737 74.2945 89.6765 75.7359 90.9002C77.1773 92.1239 78.0753 93.8687 78.2332 95.7529V95.7529Z" stroke="#263238" stroke-linecap="round" stroke-linejoin="round"/>
<path d="M131.491 80.4292C130.755 82.0167 129.566 83.3506 128.073 84.262C126.579 85.1735 124.849 85.6217 123.101 85.5498C121.353 85.4779 119.666 84.8893 118.252 83.8583C116.839 82.8273 115.763 81.4003 115.16 79.7578C114.558 78.1153 114.456 76.331 114.868 74.6306C115.28 72.9302 116.186 71.3901 117.473 70.2051C118.76 69.0201 120.37 68.2434 122.099 67.9733C123.827 67.7031 125.597 67.9516 127.184 68.6874C129.312 69.6737 130.961 71.4648 131.769 73.6666C132.576 75.8685 132.476 78.301 131.491 80.4292Z" fill="white"/>
<path d="M131.491 80.4292C130.755 82.0167 129.566 83.3506 128.073 84.262C126.579 85.1735 124.849 85.6217 123.101 85.5498C121.353 85.4779 119.666 84.8893 118.252 83.8583C116.839 82.8273 115.763 81.4003 115.16 79.7578C114.558 78.1153 114.456 76.331 114.868 74.6306C115.28 72.9302 116.186 71.3901 117.473 70.2051C118.76 69.0201 120.37 68.2434 122.099 67.9733C123.827 67.7031 125.597 67.9516 127.184 68.6874C129.312 69.6737 130.961 71.4648 131.769 73.6666C132.576 75.8685 132.476 78.301 131.491 80.4292V80.4292Z" stroke="#263238" stroke-linecap="round" stroke-linejoin="round"/>
<path d="M129.95 79.7147C129.355 80.9954 128.394 82.0711 127.188 82.8058C125.982 83.5405 124.586 83.9012 123.175 83.8424C121.764 83.7836 120.403 83.3078 119.262 82.4753C118.122 81.6427 117.254 80.4908 116.768 79.1651C116.282 77.8393 116.2 76.3992 116.532 75.0269C116.864 73.6545 117.596 72.4115 118.635 71.4549C119.673 70.4983 120.972 69.8711 122.367 69.6525C123.762 69.4339 125.191 69.6338 126.472 70.2269C127.324 70.6202 128.091 71.178 128.727 71.8682C129.364 72.5584 129.857 73.3674 130.181 74.2488C130.504 75.1303 130.65 76.0669 130.61 77.0048C130.57 77.9428 130.346 78.8637 129.95 79.7147V79.7147Z" stroke="#263238" stroke-linecap="round" stroke-linejoin="round"/>
<path d="M118.392 84.451C118.392 85.0009 126.641 79.0294 134.657 82.8323C134.657 82.8323 126.276 90.4458 118.167 85.7135C110.058 80.9812 111.197 69.3711 111.197 69.3711C111.197 69.3711 119.042 74.847 118.392 84.451Z" fill="#92E3A9" stroke="#263238" stroke-linecap="round" stroke-linejoin="round"/>
<path d="M99.5102 54.2727C99.7735 54.7529 103.491 45.234 112.321 44.0723C112.321 44.0723 109.409 55.0162 100.029 55.4345C90.6497 55.8527 85.3132 45.4819 85.3132 45.4819C85.3132 45.4819 94.8398 45.8537 99.5102 54.2727Z" fill="#92E3A9" stroke="#263238" stroke-linecap="round" stroke-linejoin="round"/>
<path d="M72.6729 64.2601C73.0137 64.6939 75.1824 54.7025 83.7099 52.1621C83.7099 52.1621 82.5636 63.4314 73.3777 65.329C64.1919 67.2265 57.2832 57.8239 57.2832 57.8239C57.2832 57.8239 66.7324 56.7008 72.6729 64.2601Z" fill="#92E3A9" stroke="#263238" stroke-linecap="round" stroke-linejoin="round"/>
<path d="M74.4615 106.417C74.872 106.781 75.298 96.5652 83.2678 92.6074C83.2678 92.6074 84.0423 103.908 75.3367 107.323C66.6311 110.739 58.1965 102.676 58.1965 102.676C58.1965 102.676 67.3204 99.9576 74.4615 106.417Z" fill="#92E3A9" stroke="#263238" stroke-linecap="round" stroke-linejoin="round"/>
<path d="M97.6 153.692H96.056C95.8972 153.375 95.6889 153.089 95.44 152.846H97.6C97.7061 152.846 97.8078 152.801 97.8828 152.722C97.9579 152.643 98 152.535 98 152.423C98 152.311 97.9579 152.203 97.8828 152.124C97.8078 152.045 97.7061 152 97.6 152H90.4C90.2939 152 90.1922 152.045 90.1172 152.124C90.0421 152.203 90 152.311 90 152.423C90 152.535 90.0421 152.643 90.1172 152.722C90.1922 152.801 90.2939 152.846 90.4 152.846H93.42C93.7419 152.846 94.0596 152.922 94.3502 153.069C94.6408 153.215 94.8969 153.428 95.1 153.692H90.4C90.2939 153.692 90.1922 153.736 90.1172 153.816C90.0421 153.895 90 154.003 90 154.115C90 154.227 90.0421 154.334 90.1172 154.414C90.1922 154.493 90.2939 154.538 90.4 154.538H95.516C95.5717 154.745 95.6 154.96 95.6 155.176C95.6011 155.79 95.3722 156.378 94.9636 156.813C94.555 157.249 94 157.495 93.42 157.498H90.856C90.7791 157.498 90.7039 157.522 90.6394 157.566C90.5748 157.61 90.5236 157.673 90.492 157.747C90.4603 157.821 90.4495 157.903 90.4609 157.984C90.4722 158.064 90.5053 158.139 90.556 158.2L95.224 163.842C95.2579 163.887 95.2999 163.924 95.3476 163.95C95.3952 163.977 95.4475 163.994 95.5013 163.998C95.5551 164.003 95.6093 163.997 95.6606 163.979C95.7119 163.961 95.7592 163.932 95.7998 163.895C95.8403 163.857 95.8732 163.811 95.8965 163.759C95.9197 163.708 95.9329 163.652 95.9352 163.595C95.9374 163.538 95.9287 163.481 95.9096 163.427C95.8905 163.374 95.8614 163.325 95.824 163.284L91.74 158.344H93.424C93.867 158.34 94.3037 158.233 94.7028 158.03C95.102 157.827 95.4537 157.533 95.7328 157.169C96.0118 156.805 96.2113 156.38 96.317 155.926C96.4227 155.471 96.4319 154.997 96.344 154.538H97.6C97.7061 154.538 97.8078 154.493 97.8828 154.414C97.9579 154.334 98 154.227 98 154.115C98 154.003 97.9579 153.895 97.8828 153.816C97.8078 153.736 97.7061 153.692 97.6 153.692Z" fill="#263238"/>
<path d="M72.0951 93.4162L71.3565 93.6408C71.2344 93.5125 71.0932 93.406 70.9387 93.3259L71.972 93.0115C72.0227 92.9961 72.0649 92.96 72.0892 92.9111C72.1136 92.8622 72.1181 92.8047 72.1018 92.751C72.0854 92.6973 72.0496 92.652 72.0022 92.625C71.9548 92.598 71.8996 92.5915 71.8489 92.6069L68.4047 93.6547C68.354 93.6701 68.3118 93.7062 68.2874 93.7551C68.2631 93.804 68.2586 93.8615 68.2749 93.9152C68.2913 93.9689 68.3271 94.0142 68.3745 94.0412C68.4219 94.0682 68.4771 94.0747 68.5278 94.0593L69.9724 93.6198C70.1264 93.5731 70.2895 93.5633 70.4498 93.591C70.6101 93.6187 70.7636 93.6832 70.8992 93.78L68.6509 94.4639C68.6002 94.4794 68.558 94.5155 68.5336 94.5644C68.5093 94.6132 68.5048 94.6708 68.5211 94.7245C68.5374 94.7781 68.5733 94.8235 68.6207 94.8505C68.6681 94.8775 68.7233 94.884 68.774 94.8686L71.2213 94.1241C71.2782 94.2153 71.323 94.314 71.3544 94.4173C71.4441 94.7105 71.4204 95.0254 71.2882 95.2931C71.1561 95.5607 70.9264 95.7593 70.6495 95.8453L69.423 96.2184C69.3862 96.2297 69.3537 96.2519 69.3292 96.2824C69.3048 96.3129 69.2894 96.3504 69.2851 96.3904C69.2807 96.4304 69.2875 96.4713 69.3046 96.5081C69.3218 96.5449 69.3485 96.5761 69.3817 96.5979L72.4357 98.6175C72.4583 98.6338 72.4838 98.6453 72.5105 98.6512C72.5372 98.6571 72.5646 98.6573 72.5911 98.6518C72.6175 98.6463 72.6424 98.6352 72.6644 98.6192C72.6863 98.6032 72.7048 98.5826 72.7187 98.5587C72.7326 98.5347 72.7416 98.5079 72.7453 98.4799C72.7489 98.4519 72.7471 98.4232 72.7398 98.3956C72.7326 98.368 72.7202 98.342 72.7033 98.3192C72.6864 98.2965 72.6653 98.2774 72.6414 98.2631L69.969 96.4944L70.7745 96.2493C70.9859 96.1831 71.1791 96.0682 71.3405 95.9129C71.5019 95.7576 71.6273 95.5658 71.7079 95.3511C71.7884 95.1365 71.8221 94.9044 71.8064 94.6714C71.7908 94.4384 71.7262 94.2104 71.6173 94.0036L72.2182 93.8208C72.2689 93.8053 72.3111 93.7692 72.3354 93.7204C72.3598 93.6715 72.3643 93.6139 72.348 93.5603C72.3316 93.5066 72.2958 93.4613 72.2484 93.4342C72.201 93.4072 72.1458 93.4007 72.0951 93.4162Z" fill="#263238"/>
<path d="M126.143 75.9709L125.528 75.5043C125.56 75.3301 125.564 75.1533 125.538 74.9812L126.398 75.634C126.441 75.6661 126.495 75.6791 126.548 75.6702C126.602 75.6612 126.652 75.6311 126.686 75.5865C126.719 75.5418 126.735 75.4862 126.729 75.4319C126.723 75.3777 126.696 75.3292 126.654 75.2971L123.786 73.1209C123.744 73.0888 123.69 73.0758 123.636 73.0848C123.582 73.0937 123.533 73.1238 123.499 73.1685C123.465 73.2131 123.449 73.2687 123.455 73.323C123.461 73.3773 123.488 73.4258 123.531 73.4578L124.733 74.3706C124.862 74.468 124.965 74.5944 125.037 74.7405C125.108 74.8866 125.146 75.0488 125.147 75.2153L123.275 73.7947C123.233 73.7627 123.179 73.7497 123.125 73.7586C123.071 73.7675 123.022 73.7976 122.988 73.8423C122.954 73.887 122.938 73.9426 122.944 73.9968C122.95 74.0511 122.977 74.0996 123.019 74.1317L125.057 75.678C125.016 75.7776 124.963 75.8717 124.897 75.9577C124.712 76.2023 124.443 76.3676 124.149 76.4175C123.855 76.4673 123.559 76.3976 123.327 76.2237L122.306 75.4487C122.275 75.4255 122.238 75.4121 122.199 75.4102C122.16 75.4083 122.121 75.4178 122.086 75.4378C122.051 75.4577 122.022 75.4872 122.002 75.5226C121.982 75.5581 121.973 75.598 121.974 75.6377L122.128 79.2958C122.128 79.3237 122.134 79.3511 122.145 79.3762C122.156 79.4013 122.172 79.4236 122.192 79.4418C122.212 79.46 122.235 79.4737 122.261 79.4821C122.287 79.4905 122.314 79.4934 122.342 79.4906C122.369 79.4878 122.396 79.4795 122.421 79.466C122.446 79.4525 122.468 79.4342 122.486 79.4121C122.505 79.3901 122.518 79.3648 122.527 79.3378C122.535 79.3107 122.539 79.2825 122.536 79.2548L122.402 76.0528L123.073 76.5618C123.251 76.6942 123.457 76.7834 123.678 76.8231C123.898 76.8628 124.127 76.852 124.348 76.7915C124.569 76.7309 124.777 76.6221 124.957 76.4729C125.136 76.3237 125.283 76.1377 125.387 75.9282L125.887 76.3079C125.929 76.3399 125.983 76.3529 126.037 76.344C126.091 76.3351 126.14 76.305 126.174 76.2603C126.208 76.2156 126.224 76.16 126.218 76.1058C126.212 76.0515 126.185 76.003 126.143 75.9709Z" fill="#263238"/>
<path d="M73.2331 52.4671L72.4611 52.4575C72.3837 52.2982 72.2814 52.154 72.1584 52.0308L73.2383 52.0442C73.2914 52.0448 73.3425 52.0232 73.3805 51.984C73.4185 51.9448 73.4402 51.8913 73.4409 51.8352C73.4416 51.7791 73.4212 51.7251 73.3842 51.685C73.3472 51.6448 73.2966 51.6219 73.2436 51.6213L69.6438 51.5767C69.5908 51.576 69.5397 51.5977 69.5017 51.6369C69.4637 51.6761 69.4419 51.7296 69.4412 51.7857C69.4405 51.8418 69.4609 51.8958 69.498 51.9359C69.535 51.976 69.5856 51.9989 69.6386 51.9996L71.1485 52.0183C71.3094 52.0204 71.4678 52.0604 71.6122 52.1354C71.7565 52.2103 71.8833 52.3184 71.9832 52.4516L69.6334 52.4225C69.5803 52.4219 69.5292 52.4435 69.4912 52.4827C69.4532 52.5219 69.4315 52.5754 69.4308 52.6315C69.4301 52.6876 69.4505 52.7416 69.4875 52.7817C69.5245 52.8219 69.5751 52.8448 69.6281 52.8454L72.1859 52.8771C72.2125 52.9813 72.2253 53.0889 72.224 53.1969C72.2207 53.5035 72.1027 53.7964 71.8957 54.0115C71.6887 54.2265 71.4097 54.3462 71.1197 54.3443L69.8378 54.3284C69.7993 54.328 69.7616 54.3393 69.729 54.361C69.6965 54.3826 69.6705 54.4137 69.6542 54.4506C69.638 54.4874 69.6321 54.5284 69.6372 54.5687C69.6424 54.6089 69.6585 54.6467 69.6834 54.6776L71.9823 57.5273C71.999 57.5497 72.0198 57.5684 72.0434 57.5821C72.0671 57.5958 72.0932 57.6043 72.12 57.607C72.1469 57.6098 72.174 57.6068 72.1998 57.5982C72.2255 57.5896 72.2494 57.5756 72.2699 57.5569C72.2904 57.5383 72.3071 57.5155 72.3191 57.4899C72.331 57.4643 72.3379 57.4364 72.3394 57.4079C72.3409 57.3794 72.3369 57.3509 72.3277 57.3241C72.3185 57.2973 72.3042 57.2727 72.2858 57.2519L70.2745 54.7568L71.1164 54.7672C71.3379 54.7681 71.5569 54.7171 71.7578 54.618C71.9586 54.5189 72.1362 54.3741 72.278 54.1939C72.4198 54.0138 72.5222 53.8027 72.5778 53.576C72.6335 53.3492 72.641 53.1123 72.5999 52.8822L73.2278 52.89C73.2809 52.8907 73.332 52.869 73.37 52.8298C73.408 52.7906 73.4298 52.7371 73.4305 52.681C73.4311 52.6249 73.4107 52.5709 73.3737 52.5308C73.3367 52.4906 73.2861 52.4677 73.2331 52.4671Z" fill="#263238"/>
<path d="M100.863 42.8929L100.092 42.8833C100.014 42.724 99.9117 42.5797 99.7888 42.4566L100.869 42.47C100.922 42.4706 100.973 42.449 101.011 42.4098C101.049 42.3706 101.071 42.3171 101.071 42.261C101.072 42.2049 101.052 42.1509 101.015 42.1107C100.978 42.0706 100.927 42.0477 100.874 42.047L97.2742 42.0025C97.2212 42.0018 97.17 42.0235 97.132 42.0627C97.094 42.1018 97.0723 42.1554 97.0716 42.2115C97.0709 42.2675 97.0913 42.3216 97.1283 42.3617C97.1653 42.4018 97.2159 42.4247 97.269 42.4254L98.7789 42.4441C98.9398 42.4462 99.0982 42.4862 99.2425 42.5612C99.3869 42.6361 99.5136 42.7441 99.6136 42.8774L97.2637 42.8483C97.2107 42.8476 97.1595 42.8693 97.1216 42.9085C97.0836 42.9477 97.0618 43.0012 97.0611 43.0573C97.0604 43.1134 97.0808 43.1674 97.1179 43.2075C97.1549 43.2476 97.2055 43.2705 97.2585 43.2712L99.8163 43.3029C99.8429 43.4071 99.8557 43.5147 99.8543 43.6227C99.8511 43.9293 99.733 44.2222 99.5261 44.4373C99.3191 44.6523 99.04 44.772 98.7501 44.7701L97.4681 44.7542C97.4297 44.7538 97.392 44.7651 97.3594 44.7867C97.3269 44.8084 97.3009 44.8395 97.2846 44.8763C97.2683 44.9132 97.2624 44.9542 97.2676 44.9944C97.2728 45.0347 97.2888 45.0725 97.3138 45.1034L99.6127 47.9531C99.6294 47.9755 99.6502 47.9941 99.6738 48.0078C99.6975 48.0216 99.7235 48.0301 99.7504 48.0328C99.7773 48.0356 99.8044 48.0326 99.8302 48.024C99.8559 48.0154 99.8797 48.0013 99.9002 47.9827C99.9207 47.9641 99.9375 47.9413 99.9494 47.9157C99.9614 47.8901 99.9683 47.8622 99.9698 47.8337C99.9713 47.8052 99.9673 47.7767 99.9581 47.7499C99.9489 47.723 99.9346 47.6985 99.9161 47.6777L97.9049 45.1826L98.7468 45.193C98.9683 45.1939 99.1873 45.1429 99.3881 45.0438C99.589 44.9447 99.7666 44.7998 99.9084 44.6197C100.05 44.4395 100.153 44.2285 100.208 44.0018C100.264 43.775 100.271 43.5381 100.23 43.308L100.858 43.3158C100.911 43.3164 100.962 43.2948 101 43.2556C101.038 43.2164 101.06 43.1629 101.061 43.1068C101.062 43.0507 101.041 42.9967 101.004 42.9566C100.967 42.9164 100.916 42.8935 100.863 42.8929Z" fill="#263238"/>
</svg>
