<svg width="74" height="74" viewBox="0 0 74 74" fill="none" xmlns="http://www.w3.org/2000/svg">
<path d="M52.4167 74.0007C41.9519 74.0007 30.8334 70.757 30.8334 64.7507C30.8334 63.8997 31.524 63.209 32.375 63.209C33.226 63.209 33.9167 63.8997 33.9167 64.7507C33.9167 67.3252 40.9529 70.9173 52.4167 70.9173C63.8805 70.9173 70.9167 67.3252 70.9167 64.7507C70.9167 63.8997 71.6074 63.209 72.4584 63.209C73.3094 63.209 74 63.8997 74 64.7507C74 70.757 62.8815 74.0007 52.4167 74.0007Z" fill="url(#paint0_linear_7473_3137)"/>
<path d="M52.4167 64.7507C41.9519 64.7507 30.8334 61.507 30.8334 55.5007C30.8334 54.6497 31.524 53.959 32.375 53.959C33.226 53.959 33.9167 54.6497 33.9167 55.5007C33.9167 58.0752 40.9529 61.6673 52.4167 61.6673C63.8805 61.6673 70.9167 58.0752 70.9167 55.5007C70.9167 54.6497 71.6074 53.959 72.4584 53.959C73.3094 53.959 74 54.6497 74 55.5007C74 61.507 62.8815 64.7507 52.4167 64.7507Z" fill="url(#paint1_linear_7473_3137)"/>
<path d="M52.4167 55.5C41.9519 55.5 30.8334 52.2563 30.8334 46.25C30.8334 40.2437 41.9519 37 52.4167 37C62.8815 37 74 40.2437 74 46.25C74 52.2563 62.8815 55.5 52.4167 55.5ZM52.4167 40.0833C40.9529 40.0833 33.9167 43.6754 33.9167 46.25C33.9167 48.8246 40.9529 52.4167 52.4167 52.4167C63.8805 52.4167 70.9167 48.8246 70.9167 46.25C70.9167 43.6754 63.8805 40.0833 52.4167 40.0833Z" fill="url(#paint2_linear_7473_3137)"/>
<path d="M72.4584 66.2923C71.6074 66.2923 70.9167 65.6017 70.9167 64.7507V46.2507C70.9167 45.3997 71.6074 44.709 72.4584 44.709C73.3094 44.709 74.0001 45.3997 74.0001 46.2507V64.7507C74.0001 65.6017 73.3094 66.2923 72.4584 66.2923Z" fill="url(#paint3_linear_7473_3137)"/>
<path d="M32.375 66.2923C31.524 66.2923 30.8334 65.6017 30.8334 64.7507V46.2507C30.8334 45.3997 31.524 44.709 32.375 44.709C33.226 44.709 33.9167 45.3997 33.9167 46.2507V64.7507C33.9167 65.6017 33.226 66.2923 32.375 66.2923Z" fill="url(#paint4_linear_7473_3137)"/>
<path d="M21.5833 37.0007C11.1185 37.0007 0 33.757 0 27.7507C0 26.8997 0.690667 26.209 1.54167 26.209C2.39267 26.209 3.08333 26.8997 3.08333 27.7507C3.08333 30.3252 10.1195 33.9173 21.5833 33.9173C33.0472 33.9173 40.0833 30.3252 40.0833 27.7507C40.0833 26.8997 40.774 26.209 41.625 26.209C42.476 26.209 43.1667 26.8997 43.1667 27.7507C43.1667 33.757 32.0482 37.0007 21.5833 37.0007Z" fill="url(#paint5_linear_7473_3137)"/>
<path d="M21.5833 27.7507C11.1185 27.7507 0 24.507 0 18.5007C0 17.6497 0.690667 16.959 1.54167 16.959C2.39267 16.959 3.08333 17.6497 3.08333 18.5007C3.08333 21.0752 10.1195 24.6673 21.5833 24.6673C33.0472 24.6673 40.0833 21.0752 40.0833 18.5007C40.0833 17.6497 40.774 16.959 41.625 16.959C42.476 16.959 43.1667 17.6497 43.1667 18.5007C43.1667 24.507 32.0482 27.7507 21.5833 27.7507Z" fill="url(#paint6_linear_7473_3137)"/>
<path d="M21.5833 55.5007C11.1185 55.5007 0 52.257 0 46.2507C0 45.3997 0.690667 44.709 1.54167 44.709C2.39267 44.709 3.08333 45.3997 3.08333 46.2507C3.08333 48.8252 10.1195 52.4173 21.5833 52.4173C23.2607 52.4173 24.7222 52.3495 26.0449 52.2107C26.8805 52.1182 27.6513 52.7349 27.7408 53.5797C27.8302 54.4246 27.2166 55.1862 26.3718 55.2756C24.9349 55.4297 23.3686 55.5007 21.5833 55.5007Z" fill="url(#paint7_linear_7473_3137)"/>
<path d="M21.5833 64.7507C11.1185 64.7507 0 61.507 0 55.5007C0 54.6497 0.690667 53.959 1.54167 53.959C2.39267 53.959 3.08333 54.6497 3.08333 55.5007C3.08333 58.0752 10.1195 61.6673 21.5833 61.6673C23.2607 61.6673 24.7222 61.5995 26.0449 61.4607C26.8805 61.3528 27.6513 61.9849 27.7408 62.8297C27.8302 63.6746 27.2166 64.4362 26.3718 64.5256C24.9349 64.6797 23.3686 64.7507 21.5833 64.7507Z" fill="url(#paint8_linear_7473_3137)"/>
<path d="M21.5833 46.2507C11.1185 46.2507 0 43.007 0 37.0007C0 36.1497 0.690667 35.459 1.54167 35.459C2.39267 35.459 3.08333 36.1497 3.08333 37.0007C3.08333 39.5752 10.1195 43.1673 21.5833 43.1673C23.2607 43.1673 24.7222 43.0995 26.0449 42.9607C26.8805 42.8621 27.6513 43.4818 27.7408 44.3297C27.8302 45.1746 27.2166 45.9362 26.3718 46.0256C24.9349 46.1797 23.3686 46.2507 21.5833 46.2507Z" fill="url(#paint9_linear_7473_3137)"/>
<path d="M21.5833 18.5C11.1185 18.5 0 15.2563 0 9.25C0 3.24367 11.1185 0 21.5833 0C32.0482 0 43.1667 3.24367 43.1667 9.25C43.1667 15.2563 32.0482 18.5 21.5833 18.5ZM21.5833 3.08333C10.1195 3.08333 3.08333 6.67542 3.08333 9.25C3.08333 11.8246 10.1195 15.4167 21.5833 15.4167C33.0472 15.4167 40.0833 11.8246 40.0833 9.25C40.0833 6.67542 33.0472 3.08333 21.5833 3.08333Z" fill="url(#paint10_linear_7473_3137)"/>
<path d="M1.54167 57.0423C0.690667 57.0423 0 56.3517 0 55.5007V9.25065C0 8.39965 0.690667 7.70898 1.54167 7.70898C2.39267 7.70898 3.08333 8.39965 3.08333 9.25065V55.5007C3.08333 56.3517 2.39267 57.0423 1.54167 57.0423Z" fill="url(#paint11_linear_7473_3137)"/>
<path d="M41.625 29.2923C40.774 29.2923 40.0834 28.6017 40.0834 27.7507V9.25065C40.0834 8.39965 40.774 7.70898 41.625 7.70898C42.476 7.70898 43.1667 8.39965 43.1667 9.25065V27.7507C43.1667 28.6017 42.476 29.2923 41.625 29.2923Z" fill="url(#paint12_linear_7473_3137)"/>
<defs>
<linearGradient id="paint0_linear_7473_3137" x1="52.4166" y1="62.9674" x2="52.4166" y2="74.0383" gradientUnits="userSpaceOnUse">
<stop stop-color="#00EFD1"/>
<stop offset="1" stop-color="#00ACEA"/>
</linearGradient>
<linearGradient id="paint1_linear_7473_3137" x1="52.4166" y1="53.7174" x2="52.4166" y2="64.7883" gradientUnits="userSpaceOnUse">
<stop stop-color="#00EFD1"/>
<stop offset="1" stop-color="#00ACEA"/>
</linearGradient>
<linearGradient id="paint2_linear_7473_3137" x1="52.4166" y1="36.5858" x2="52.4166" y2="55.5645" gradientUnits="userSpaceOnUse">
<stop stop-color="#00EFD1"/>
<stop offset="1" stop-color="#00ACEA"/>
</linearGradient>
<linearGradient id="paint3_linear_7473_3137" x1="72.4584" y1="44.2258" x2="72.4584" y2="66.3676" gradientUnits="userSpaceOnUse">
<stop stop-color="#00EFD1"/>
<stop offset="1" stop-color="#00ACEA"/>
</linearGradient>
<linearGradient id="paint4_linear_7473_3137" x1="32.375" y1="44.2258" x2="32.375" y2="66.3676" gradientUnits="userSpaceOnUse">
<stop stop-color="#00EFD1"/>
<stop offset="1" stop-color="#00ACEA"/>
</linearGradient>
<linearGradient id="paint5_linear_7473_3137" x1="21.5832" y1="25.9674" x2="21.5832" y2="37.0383" gradientUnits="userSpaceOnUse">
<stop stop-color="#00EFD1"/>
<stop offset="1" stop-color="#00ACEA"/>
</linearGradient>
<linearGradient id="paint6_linear_7473_3137" x1="21.5832" y1="16.7174" x2="21.5832" y2="27.7883" gradientUnits="userSpaceOnUse">
<stop stop-color="#00EFD1"/>
<stop offset="1" stop-color="#00ACEA"/>
</linearGradient>
<linearGradient id="paint7_linear_7473_3137" x1="13.8746" y1="44.4674" x2="13.8746" y2="55.5383" gradientUnits="userSpaceOnUse">
<stop stop-color="#00EFD1"/>
<stop offset="1" stop-color="#00ACEA"/>
</linearGradient>
<linearGradient id="paint8_linear_7473_3137" x1="13.8746" y1="53.7174" x2="13.8746" y2="64.7883" gradientUnits="userSpaceOnUse">
<stop stop-color="#00EFD1"/>
<stop offset="1" stop-color="#00ACEA"/>
</linearGradient>
<linearGradient id="paint9_linear_7473_3137" x1="13.8746" y1="35.2174" x2="13.8746" y2="46.2883" gradientUnits="userSpaceOnUse">
<stop stop-color="#00EFD1"/>
<stop offset="1" stop-color="#00ACEA"/>
</linearGradient>
<linearGradient id="paint10_linear_7473_3137" x1="21.5832" y1="-0.414197" x2="21.5832" y2="18.5645" gradientUnits="userSpaceOnUse">
<stop stop-color="#00EFD1"/>
<stop offset="1" stop-color="#00ACEA"/>
</linearGradient>
<linearGradient id="paint11_linear_7473_3137" x1="1.54166" y1="6.60446" x2="1.54166" y2="57.2144" gradientUnits="userSpaceOnUse">
<stop stop-color="#00EFD1"/>
<stop offset="1" stop-color="#00ACEA"/>
</linearGradient>
<linearGradient id="paint12_linear_7473_3137" x1="41.625" y1="7.22575" x2="41.625" y2="29.3676" gradientUnits="userSpaceOnUse">
<stop stop-color="#00EFD1"/>
<stop offset="1" stop-color="#00ACEA"/>
</linearGradient>
</defs>
</svg>
