<svg width="94" height="94" viewBox="0 0 94 94" fill="none" xmlns="http://www.w3.org/2000/svg">
<path d="M93.9593 52.7553C93.803 51.2338 92.9085 49.8865 91.567 49.1519C89.4032 47.9861 86.7147 48.5431 85.1922 50.4726C83.8883 52.3141 83.8733 54.7739 85.1546 56.6312C84.3713 56.7722 83.6067 56.8693 82.9331 56.9445C82.4443 51.149 80.0861 45.669 76.2136 41.3296C80.2507 39.3474 82.3182 34.7834 81.1458 30.4414C79.9735 26.0994 75.8898 23.1962 71.4037 23.5154C66.9176 23.8346 63.2861 27.2867 62.7403 31.751C61.0392 31.0305 59.2934 30.4204 57.5139 29.9242C58.8158 25.2124 57.2594 20.1736 53.527 17.0167C49.7946 13.8599 44.5674 13.1612 40.1369 15.227C35.7064 17.2927 32.8813 21.7459 32.9 26.6342C32.9029 27.6676 33.0324 28.6967 33.2854 29.6986C31.6799 30.1012 30.0987 30.595 28.5494 31.1776L17.7268 25.2556C16.6649 24.6796 15.3668 24.7636 14.388 25.4717C13.4092 26.1798 12.9232 27.3865 13.1381 28.5753L15.1152 39.401C12.7601 41.6135 10.7774 44.1914 9.24333 47.0354C8.55507 48.4269 7.22187 49.3869 5.68387 49.5984L2.7542 49.9776C1.18511 50.1688 0.0041935 51.4989 0 53.0796V64.4222C0.0036008 65.9998 1.17944 67.3286 2.7448 67.5242L5.6964 67.8987C7.23267 68.1127 8.56355 69.0729 9.25117 70.4633C12.0363 75.4841 16.1005 79.6785 21.0309 82.6206L21.8143 91.148C21.952 92.7639 23.3055 94.0043 24.9272 94.0009H32.9C34.6305 94.0009 36.0333 92.5981 36.0333 90.8676V88.3985C39.1311 88.9958 42.2785 89.298 45.4333 89.3009C49.6642 89.2983 53.8769 88.7485 57.9667 87.6653V90.8676C57.9667 92.5981 59.3695 94.0009 61.1 94.0009H69.0696C70.6924 94.0078 72.0494 92.7694 72.1904 91.1527L73.2871 79.1035C78.9319 74.3187 82.413 67.4632 82.9456 60.0826C84.4372 59.9508 85.9171 59.7089 87.373 59.3588C88.65 60.5299 90.0468 61.5634 91.5403 62.442C92.2806 62.8902 93.244 62.6534 93.6922 61.9132C94.1404 61.173 93.9036 60.2096 93.1634 59.7614C92.3358 59.2655 91.5366 58.7236 90.7695 58.1383C91.3585 57.8373 91.9058 57.4608 92.3973 57.0182C93.577 55.9336 94.159 54.3452 93.9593 52.7553V52.7553ZM72.0667 26.6342C75.5277 26.6342 78.3333 29.4399 78.3333 32.9009C78.3333 36.3619 75.5277 39.1676 72.0667 39.1676C68.6057 39.1676 65.8 36.3619 65.8 32.9009C65.8 29.4399 68.6057 26.6342 72.0667 26.6342ZM45.4333 17.2342C50.6223 17.2403 54.8273 21.4452 54.8333 26.6342C54.8409 27.9238 54.5739 29.2002 54.05 30.3786C53.2278 32.2511 51.8161 33.8036 50.0299 34.7997C48.3431 34.5857 46.6448 34.4748 44.9445 34.4676C43.514 34.4744 42.0848 34.5565 40.6628 34.7135C38.8962 33.6755 37.5141 32.0922 36.7242 30.2015C36.2609 29.0696 36.0261 27.8572 36.0333 26.6342C36.0385 21.4449 40.244 17.2394 45.4333 17.2342V17.2342ZM73.7258 74.2155L74.0469 70.6811C74.1252 69.8193 73.4901 69.0572 72.6283 68.9789C71.7665 68.9006 71.0044 69.5357 70.9261 70.3975L69.0665 90.8676H61.1V76.7676C61.1 75.9023 60.3986 75.2009 59.5333 75.2009C58.6681 75.2009 57.9667 75.9023 57.9667 76.7676V84.4223C53.8898 85.5815 49.6718 86.1688 45.4333 86.1676C42.2754 86.165 39.1259 85.8417 36.0333 85.2025V76.7676C36.0333 75.9023 35.3319 75.2009 34.4667 75.2009C33.6014 75.2009 32.9 75.9023 32.9 76.7676V90.8676H24.9272L23.066 70.3975C23.0154 69.84 22.6712 69.3519 22.163 69.117C21.6549 68.8822 21.0601 68.9362 20.6026 69.2588C20.1452 69.5814 19.8946 70.1236 19.9452 70.6811L20.6659 78.6162C17.0858 76.1141 14.1278 72.8237 12.0195 68.9985C10.8451 66.7131 8.63033 65.1439 6.08493 64.7935L3.13333 64.4222V53.0827L6.07083 52.7083C8.62075 52.3626 10.8411 50.7933 12.0179 48.5049C13.5216 45.7253 15.4986 43.2293 17.86 41.129C18.2632 40.7653 18.4494 40.2188 18.3519 39.6846L16.2291 28.0082L27.683 34.2749C28.1008 34.5006 28.5972 34.5293 29.0382 34.3532C30.8045 33.6511 32.6186 33.0757 34.4667 32.6314C35.0097 33.6291 35.6859 34.5483 36.4767 35.3637C35.6526 35.5423 34.8364 35.7397 34.0311 35.97C33.2194 36.224 32.7586 37.0793 32.993 37.8969C33.2274 38.7145 34.0713 39.1958 34.8944 38.9811C41.7867 37.0675 49.0815 37.1561 55.9253 39.2365C56.0775 39.284 56.2359 39.3082 56.3953 39.3086C57.1689 39.3087 57.8267 38.7442 57.9441 37.9796C58.0615 37.215 57.6033 36.4792 56.8653 36.2473C55.9974 35.9731 55.1122 35.7381 54.2176 35.5282C55.0194 34.7279 55.7087 33.8224 56.2668 32.8367C58.5744 33.453 60.8213 34.2773 62.98 35.2995C64.0717 39.4232 67.8009 42.2966 72.0667 42.3009C72.3189 42.3009 72.568 42.2821 72.8171 42.2633C77.2097 46.5931 79.7492 52.4595 79.9 58.6256C79.8256 64.404 77.628 69.953 73.7258 74.2155V74.2155ZM90.2854 54.7026C89.7145 55.1834 89.0581 55.5523 88.3506 55.7899C87.3103 54.4222 87.0503 53.1861 87.6691 52.3902C88.039 51.9354 88.5964 51.6746 89.1825 51.6821C89.4914 51.6805 89.7958 51.7564 90.0677 51.903C90.5127 52.1572 90.8052 52.613 90.851 53.1234C90.9264 53.71 90.7161 54.2973 90.2854 54.7026V54.7026Z" fill="url(#paint0_linear_7473_3069)"/>
<path d="M32.9 48.5664H20.3667C19.5015 48.5664 18.8 49.2678 18.8 50.1331C18.8 50.9983 19.5015 51.6997 20.3667 51.6997H25.0667V64.2331C25.0667 65.0983 25.7681 65.7997 26.6334 65.7997C27.4986 65.7997 28.2 65.0983 28.2 64.2331V51.6997H32.9C33.7653 51.6997 34.4667 50.9983 34.4667 50.1331C34.4667 49.2678 33.7653 48.5664 32.9 48.5664Z" fill="url(#paint1_linear_7473_3069)"/>
<path d="M66.6648 48.83C65.9452 48.3507 64.9735 48.5449 64.4934 49.2639L61.1 54.3634L57.7003 49.2639C57.2201 48.544 56.2472 48.3498 55.5274 48.83C54.8075 49.3102 54.6132 50.2831 55.0934 51.0029L59.22 57.1834L55.0997 63.3639C54.6194 64.0838 54.8137 65.0567 55.5336 65.5369C56.2535 66.0171 57.2264 65.8228 57.7066 65.1029L61.1 60.0034L64.4965 65.0982C64.9767 65.8181 65.9496 66.0124 66.6695 65.5322C67.3894 65.052 67.5837 64.0791 67.1035 63.3592L62.98 57.1834L67.1003 51.0029C67.3308 50.6571 67.4144 50.2338 67.3328 49.8262C67.2511 49.4187 67.0108 49.0603 66.6648 48.83Z" fill="url(#paint2_linear_7473_3069)"/>
<path d="M49.494 58.9448L49.4752 58.9072L45.2954 49.5072C45.0441 48.9411 44.4828 48.5762 43.8634 48.5762C43.2441 48.5762 42.6828 48.9411 42.4315 49.5072L38.2516 58.9072L38.2328 58.9495L36.1648 63.6025C35.8136 64.3934 36.1699 65.3192 36.9607 65.6705C37.7515 66.0218 38.6774 65.6655 39.0287 64.8747L40.7035 61.1006H47.0218L48.6982 64.87C48.9254 65.3815 49.4083 65.733 49.965 65.792C50.5217 65.851 51.0675 65.6085 51.3969 65.1559C51.7264 64.7034 51.7893 64.1094 51.562 63.5978L49.494 58.9448ZM42.0962 57.9672L43.8666 53.991L45.6306 57.9672H42.0962Z" fill="url(#paint3_linear_7473_3069)"/>
<path d="M40.7334 26.6341C41.1488 26.634 41.5473 26.4689 41.841 26.1751L44.9743 23.0418C45.5681 22.427 45.5596 21.4499 44.9553 20.8456C44.3509 20.2413 43.3738 20.2328 42.7591 20.8265L39.6257 23.9598C39.1778 24.4079 39.0438 25.0816 39.2863 25.667C39.5287 26.2523 40.0998 26.634 40.7334 26.6341Z" fill="url(#paint4_linear_7473_3069)"/>
<path d="M41.1892 32.4415C41.801 33.0531 42.7927 33.0531 43.4044 32.4415L51.2378 24.6082C51.8315 23.9934 51.823 23.0163 51.2187 22.412C50.6144 21.8077 49.6372 21.7992 49.0225 22.3929L41.1892 30.2262C40.5776 30.838 40.5776 31.8297 41.1892 32.4415Z" fill="url(#paint5_linear_7473_3069)"/>
<path d="M62.6666 18.8C67.8581 18.8 72.0666 14.5915 72.0666 9.4C72.0666 4.20852 67.8581 0 62.6666 0C57.4751 0 53.2666 4.20852 53.2666 9.4C53.2726 14.589 57.4776 18.794 62.6666 18.8ZM62.6666 3.13333C66.1276 3.13333 68.9333 5.93902 68.9333 9.4C68.9333 12.861 66.1276 15.6667 62.6666 15.6667C59.2056 15.6667 56.3999 12.861 56.3999 9.4C56.3999 5.93902 59.2056 3.13333 62.6666 3.13333Z" fill="url(#paint6_linear_7473_3069)"/>
<defs>
<linearGradient id="paint0_linear_7473_3069" x1="46.9988" y1="12.2628" x2="46.9988" y2="94.2798" gradientUnits="userSpaceOnUse">
<stop stop-color="#00EFD1"/>
<stop offset="1" stop-color="#00ACEA"/>
</linearGradient>
<linearGradient id="paint1_linear_7473_3069" x1="26.6333" y1="48.1806" x2="26.6333" y2="65.8598" gradientUnits="userSpaceOnUse">
<stop stop-color="#00EFD1"/>
<stop offset="1" stop-color="#00ACEA"/>
</linearGradient>
<linearGradient id="paint2_linear_7473_3069" x1="61.0984" y1="48.1806" x2="61.0984" y2="65.8606" gradientUnits="userSpaceOnUse">
<stop stop-color="#00EFD1"/>
<stop offset="1" stop-color="#00ACEA"/>
</linearGradient>
<linearGradient id="paint3_linear_7473_3069" x1="43.8632" y1="48.1904" x2="43.8632" y2="65.8659" gradientUnits="userSpaceOnUse">
<stop stop-color="#00EFD1"/>
<stop offset="1" stop-color="#00ACEA"/>
</linearGradient>
<linearGradient id="paint4_linear_7473_3069" x1="42.2905" y1="20.2468" x2="42.2905" y2="26.6559" gradientUnits="userSpaceOnUse">
<stop stop-color="#00EFD1"/>
<stop offset="1" stop-color="#00ACEA"/>
</linearGradient>
<linearGradient id="paint5_linear_7473_3069" x1="46.204" y1="21.708" x2="46.204" y2="32.9384" gradientUnits="userSpaceOnUse">
<stop stop-color="#00EFD1"/>
<stop offset="1" stop-color="#00ACEA"/>
</linearGradient>
<linearGradient id="paint6_linear_7473_3069" x1="62.6666" y1="-0.420914" x2="62.6666" y2="18.8656" gradientUnits="userSpaceOnUse">
<stop stop-color="#00EFD1"/>
<stop offset="1" stop-color="#00ACEA"/>
</linearGradient>
</defs>
</svg>
