<svg width="89" height="90" viewBox="0 0 89 90" fill="none" xmlns="http://www.w3.org/2000/svg">
<path d="M25.6667 0H14.6667C10.7769 0 7.04632 1.54524 4.29578 4.29578C1.54524 7.04632 0 10.7769 0 14.6667L0 25.6667C0 29.5566 1.54524 33.2871 4.29578 36.0377C7.04632 38.7882 10.7769 40.3334 14.6667 40.3334H25.6667C29.5566 40.3334 33.2871 38.7882 36.0377 36.0377C38.7882 33.2871 40.3334 29.5566 40.3334 25.6667V14.6667C40.3334 10.7769 38.7882 7.04632 36.0377 4.29578C33.2871 1.54524 29.5566 0 25.6667 0V0ZM33.0001 25.6667C33.0001 27.6117 32.2275 29.4769 30.8522 30.8522C29.4769 32.2275 27.6117 33.0001 25.6667 33.0001H14.6667C12.7218 33.0001 10.8565 32.2275 9.48124 30.8522C8.10597 29.4769 7.33335 27.6117 7.33335 25.6667V14.6667C7.33335 12.7218 8.10597 10.8565 9.48124 9.48124C10.8565 8.10597 12.7218 7.33335 14.6667 7.33335H25.6667C27.6117 7.33335 29.4769 8.10597 30.8522 9.48124C32.2275 10.8565 33.0001 12.7218 33.0001 14.6667V25.6667Z" fill="#00EFD1"/>
<path d="M25.6667 49H14.6667C10.7769 49 7.04632 50.5452 4.29578 53.2958C1.54524 56.0463 0 59.7769 0 63.6667L0 74.6667C0 78.5566 1.54524 82.2871 4.29578 85.0377C7.04632 87.7882 10.7769 89.3334 14.6667 89.3334H25.6667C29.5566 89.3334 33.2871 87.7882 36.0377 85.0377C38.7882 82.2871 40.3334 78.5566 40.3334 74.6667V63.6667C40.3334 59.7769 38.7882 56.0463 36.0377 53.2958C33.2871 50.5452 29.5566 49 25.6667 49ZM33.0001 74.6667C33.0001 76.6117 32.2275 78.4769 30.8522 79.8522C29.4769 81.2275 27.6117 82.0001 25.6667 82.0001H14.6667C12.7218 82.0001 10.8565 81.2275 9.48124 79.8522C8.10597 78.4769 7.33335 76.6117 7.33335 74.6667V63.6667C7.33335 61.7218 8.10597 59.8565 9.48124 58.4812C10.8565 57.106 12.7218 56.3334 14.6667 56.3334H25.6667C27.6117 56.3334 29.4769 57.106 30.8522 58.4812C32.2275 59.8565 33.0001 61.7218 33.0001 63.6667V74.6667Z" fill="#00EFD1"/>
<path d="M73.6667 49H62.6667C58.7769 49 55.0463 50.5452 52.2958 53.2958C49.5452 56.0463 48 59.7769 48 63.6667V74.6667C48 78.5566 49.5452 82.2871 52.2958 85.0377C55.0463 87.7882 58.7769 89.3334 62.6667 89.3334H73.6667C77.5566 89.3334 81.2871 87.7882 84.0377 85.0377C86.7882 82.2871 88.3334 78.5566 88.3334 74.6667V63.6667C88.3334 59.7769 86.7882 56.0463 84.0377 53.2958C81.2871 50.5452 77.5566 49 73.6667 49ZM81.0001 74.6667C81.0001 76.6117 80.2275 78.4769 78.8522 79.8522C77.4769 81.2275 75.6117 82.0001 73.6667 82.0001H62.6667C60.7218 82.0001 58.8565 81.2275 57.4812 79.8522C56.106 78.4769 55.3334 76.6117 55.3334 74.6667V63.6667C55.3334 61.7218 56.106 59.8565 57.4812 58.4812C58.8565 57.106 60.7218 56.3334 62.6667 56.3334H73.6667C75.6117 56.3334 77.4769 57.106 78.8522 58.4812C80.2275 59.8565 81.0001 61.7218 81.0001 63.6667V74.6667Z" fill="#00EFD1"/>
<path d="M51.6667 24.0001H62.6667V35.0001C62.6667 35.9725 63.053 36.9052 63.7406 37.5928C64.4283 38.2804 65.3609 38.6668 66.3334 38.6668C67.3058 38.6668 68.2385 38.2804 68.9261 37.5928C69.6138 36.9052 70.0001 35.9725 70.0001 35.0001V24.0001H81.0001C81.9725 24.0001 82.9052 23.6137 83.5928 22.9261C84.2805 22.2385 84.6668 21.3058 84.6668 20.3334C84.6668 19.3609 84.2805 18.4283 83.5928 17.7406C82.9052 17.053 81.9725 16.6667 81.0001 16.6667H70.0001V5.66668C70.0001 4.69421 69.6138 3.76158 68.9261 3.07394C68.2385 2.38631 67.3058 2 66.3334 2C65.3609 2 64.4283 2.38631 63.7406 3.07394C63.053 3.76158 62.6667 4.69421 62.6667 5.66668V16.6667H51.6667C50.6942 16.6667 49.7616 17.053 49.0739 17.7406C48.3863 18.4283 48 19.3609 48 20.3334C48 21.3058 48.3863 22.2385 49.0739 22.9261C49.7616 23.6137 50.6942 24.0001 51.6667 24.0001Z" fill="#FFCE02"/>
</svg>
