<svg width="11" height="14" viewBox="0 0 11 14" fill="none" xmlns="http://www.w3.org/2000/svg">
<path d="M5.49882 9.14087C4.638 10.0624 3.80737 10.9522 2.97616 11.8419C2.39596 12.4628 1.81755 13.0854 1.23498 13.7046C0.972121 13.9844 0.719322 14.0604 0.430409 13.9533C0.0982777 13.8303 0 13.5811 0 13.2739C0.00118407 9.09168 0 4.90944 0.0017761 0.727208C0.0017761 0.225471 0.255759 0.00138372 0.808127 0.000837162C3.93821 0.000290607 7.06889 0.000290607 10.199 0.000837162C10.7454 0.000837162 10.9988 0.229297 10.9988 0.732674C11.0006 4.91491 11 9.09715 10.9988 13.2799C10.9988 13.6417 10.8567 13.8538 10.5637 13.956C10.2748 14.0571 10.0249 13.9823 9.76028 13.6997C8.4436 12.2929 7.12987 10.8844 5.81496 9.47646C5.71965 9.3737 5.62314 9.27259 5.49882 9.14087Z" fill="#959595"/>
</svg>
