<svg id="tooltip-ico" xmlns="http://www.w3.org/2000/svg" width="16" height="16" viewBox="0 0 16 16">
  <path id="Path_298" data-name="Path 298" d="M0,0H16V16H0Z" fill="none"/>
  <path id="Path_299" data-name="Path 299" d="M8,12.667H9.333V11.333H8ZM8.667,2a6.667,6.667,0,1,0,6.667,6.667A6.667,6.667,0,0,0,8.667,2Zm0,12A5.333,5.333,0,1,1,14,8.667,5.333,5.333,0,0,1,8.667,14Zm0-9.333A2.666,2.666,0,0,0,6,7.333H7.333a1.333,1.333,0,0,1,2.667,0C10,8.667,8,8.5,8,10.667H9.333c0-1.5,2-1.667,2-3.333A2.666,2.666,0,0,0,8.667,4.667Z" transform="translate(-0.667 -0.667)" fill="#797979"/>
</svg>
