<svg id="Group_21977" data-name="Group 21977" xmlns="http://www.w3.org/2000/svg" xmlns:xlink="http://www.w3.org/1999/xlink" width="77.197" height="76.999" viewBox="0 0 77.197 76.999">
  <defs>
    <linearGradient id="linear-gradient" x1="0.5" x2="0.5" y2="1" gradientUnits="objectBoundingBox">
      <stop offset="0" stop-color="#00efd1"/>
      <stop offset="1" stop-color="#00acea"/>
    </linearGradient>
  </defs>
  <g id="Group_21981" data-name="Group 21981">
    <path id="Union_5" data-name="Union 5" d="M-2365.038-1570a39.8,39.8,0,0,1-10.5-1.425,37.6,37.6,0,0,1-24.475-20.222c-6.3-13.558-5.132-26.866,3.462-39.559.886-1.309,2.107-3.1,4.048-2.94s2.846,2.133,3.505,3.575q1.723,3.769,3.414,7.547l1.006,2.237q.624,1.381,1.243,2.766c1.152,2.57,2.3,5.138,3.473,7.64a4.478,4.478,0,0,1,.32,3.632,4.433,4.433,0,0,1-2.664,2.43c-.968.388-1.941.843-2.973,1.324-.49.231-.917.432-1.348.627l-.2.094a4.148,4.148,0,0,0-1.033.551c.029.13.029.324,1.205.77q3.276,1.239,6.544,2.511,3.1,1.2,6.2,2.379c5.727,2.169,10.87,4.093,15.722,5.882a4.233,4.233,0,0,0,1.179.349,4.338,4.338,0,0,0,.506-1.109c3.368-8.839,6.753-17.849,10.028-26.556l.814-2.165a2.984,2.984,0,0,0,.282-.988c-.161-.109-.3-.234-1.242.2-.56.259-1.126.506-1.693.751-.991.43-1.958.849-2.868,1.324a4.482,4.482,0,0,1-3.593.456,4.717,4.717,0,0,1-2.689-2.793c-1.5-3.379-3.039-6.785-4.584-10.184q-2.362-5.215-4.7-10.437c-.447-1-1.275-2.863-.2-4.368,1.084-1.521,3.079-1.34,4.271-1.232,13.368,1.2,23.487,7.4,30.074,18.441,10.824,18.133,5.891,40.068-11.729,52.155a36.5,36.5,0,0,1-20.6,6.334Zm-30.976-23.511a33.211,33.211,0,0,0,21.637,17.826,33.123,33.123,0,0,0,27.645-4.3c15.639-10.724,20.029-30.176,10.432-46.249-5.719-9.578-14.476-15.04-26.034-16.242q2.183,4.884,4.395,9.755,2.318,5.122,4.617,10.247a2.382,2.382,0,0,0,.109.232c.023-.013.049-.024.073-.039,1.027-.536,2.064-.986,3.067-1.423.625-.271,1.163-.5,1.694-.75a5.258,5.258,0,0,1,6.021.54c2.321,2.093,1.3,4.791.919,5.807l-1.11,2.954c-3.183,8.464-6.464,17.194-9.736,25.779-1.413,3.706-3.608,4.7-7.335,3.326-5.141-1.9-10.3-3.828-15.76-5.9q-3.116-1.179-6.224-2.389l-.155-.06c-2.116-.818-4.234-1.637-6.356-2.438-.988-.375-3.984-1.509-4.03-4.871-.042-2.953,2.323-4.019,3.594-4.594l.2-.09c.412-.188.827-.383,1.242-.578,1.154-.539,2.2-1.022,3.291-1.464h0a.784.784,0,0,0-.035-.074c-1.133-2.428-2.241-4.893-3.316-7.287l-2.44-5.426q-1.67-3.715-3.354-7.422C-2400.675-1617.188-2401.673-1605.7-2396.014-1593.511Zm29.485-5.5-8-7.107a2.041,2.041,0,0,1-.674-1.386,2.056,2.056,0,0,1,1.908-2.187l3.792-.225a2.992,2.992,0,0,0,2.144-1.091l-5.987.354a2.043,2.043,0,0,1-2.163-1.921,2.05,2.05,0,0,1,1.923-2.164l5.986-.355a3.025,3.025,0,0,0-2.085-.838h0l-3.948.234a2.024,2.024,0,0,1-1.482-.511,2.037,2.037,0,0,1-.687-1.41,2.031,2.031,0,0,1,.511-1.483,2.038,2.038,0,0,1,1.41-.687l14.378-.849,0,.061a2.049,2.049,0,0,1,1.666,1.889,2.049,2.049,0,0,1-1.922,2.165l-3.4.2a7.23,7.23,0,0,1,.422.94l3.036-.177v0a2.043,2.043,0,0,1,1.477.513,2.026,2.026,0,0,1,.684,1.408,2.027,2.027,0,0,1-.513,1.479,2.025,2.025,0,0,1-1.408.684l-3.034.178a7.134,7.134,0,0,1-5.656,5.354l4.37,3.885a1.529,1.529,0,0,1,.146.13,2.051,2.051,0,0,1,.013,2.9,2.044,2.044,0,0,1-1.455.607A2.041,2.041,0,0,1-2366.529-1599.009Z" transform="translate(2404 1647)" fill="url(#linear-gradient)"/>
  </g>
</svg>
