<svg width="61" height="61" viewBox="0 0 61 61" fill="none" xmlns="http://www.w3.org/2000/svg">
<path d="M26.5361 14.3926C24.1388 14.3924 21.7953 15.1032 19.8019 16.435C17.8086 17.7667 16.2549 19.6597 15.3374 21.8745C14.4199 24.0893 14.1798 26.5264 14.6474 28.8776C15.115 31.2289 16.2693 33.3887 17.9644 35.0839C19.6595 36.7791 21.8192 37.9335 24.1705 38.4013C26.5217 38.869 28.9588 38.629 31.1737 37.7116C33.3885 36.7943 35.2815 35.2407 36.6134 33.2474C37.9453 31.2542 38.6562 28.9107 38.6562 26.5134C38.6526 23.3 37.3745 20.2192 35.1023 17.9469C32.8302 15.6747 29.7495 14.3964 26.5361 14.3926ZM26.5361 36.2904C24.6023 36.2904 22.712 35.717 21.1042 34.6427C19.4963 33.5684 18.2431 32.0415 17.5031 30.2549C16.763 28.4684 16.5694 26.5026 16.9466 24.606C17.3239 22.7094 18.255 20.9673 19.6224 19.5999C20.9897 18.2325 22.7318 17.3013 24.6284 16.9241C26.525 16.5468 28.4909 16.7404 30.2774 17.4805C32.0639 18.2205 33.5909 19.4736 34.6652 21.0815C35.7395 22.6893 36.3129 24.5797 36.3129 26.5134C36.31 29.1055 35.279 31.5906 33.4461 33.4235C31.6132 35.2563 29.1282 36.2874 26.5361 36.2904Z" fill="url(#paint0_linear_795_6197)"/>
<path d="M53.832 18.7617H51.3828V15.9014C51.3828 13.3726 49.3257 11.2617 46.8008 11.2617H6.27793C3.75266 11.2617 1.69531 13.3726 1.69531 15.9014V37.1175C1.69547 38.3356 2.17737 39.5043 3.03588 40.3685C3.89438 41.2327 5.05982 41.7223 6.27793 41.7305H8.72656V44.5908C8.72656 47.1196 10.7837 49.2305 13.3086 49.2305H53.832C56.3567 49.2305 58.4141 47.1196 58.4141 44.5908V23.3747C58.4139 22.1566 57.9321 20.9881 57.0737 20.1239C56.2153 19.2597 55.05 18.7701 53.832 18.7617ZM6.27793 39.3867C5.68122 39.3792 5.11152 39.1368 4.69239 38.712C4.27327 38.2872 4.03852 37.7143 4.03906 37.1175V15.9014C4.03906 14.6651 5.045 13.6055 6.27793 13.6055H46.8008C48.0338 13.6055 49.0391 14.6651 49.0391 15.9014V37.1175C49.0397 37.7142 48.805 38.287 48.386 38.7118C47.967 39.1366 47.3974 39.3791 46.8008 39.3867H6.27793ZM56.0703 44.5908C56.0703 45.8271 55.0644 46.8867 53.832 46.8867H13.3086C12.0755 46.8867 11.0703 45.8271 11.0703 44.5908V41.7305H46.8008C48.0188 41.7222 49.1841 41.2325 50.0425 40.3683C50.9009 39.5041 51.3827 38.3356 51.3828 37.1175V21.1055H53.832C54.4286 21.1131 54.9982 21.3556 55.4172 21.7804C55.8362 22.2052 56.0709 22.778 56.0703 23.3747V44.5908Z" fill="url(#paint1_linear_795_6197)"/>
<path d="M31.4841 20.7539C31.4841 20.4431 31.3606 20.145 31.1409 19.9253C30.9211 19.7055 30.623 19.582 30.3122 19.582H22.7654C22.4546 19.582 22.1565 19.7055 21.9367 19.9253C21.7169 20.145 21.5935 20.4431 21.5935 20.7539C21.5935 21.0647 21.7169 21.3628 21.9367 21.5825C22.1565 21.8023 22.4546 21.9258 22.7654 21.9258H24.9268C25.2528 21.928 25.5743 22.0028 25.8679 22.1447C26.1615 22.2866 26.4198 22.492 26.6241 22.7461H22.7654C22.4546 22.7461 22.1565 22.8696 21.9367 23.0893C21.7169 23.3091 21.5935 23.6072 21.5935 23.918C21.5935 24.2288 21.7169 24.5268 21.9367 24.7466C22.1565 24.9664 22.4546 25.0898 22.7654 25.0898H26.6303C26.5623 25.204 26.4812 25.3099 26.3887 25.4054C26.0021 25.7968 25.4769 26.0202 24.9269 26.0273H22.7654C22.5306 26.0272 22.3012 26.0976 22.1068 26.2294C21.9125 26.3612 21.7623 26.5483 21.6756 26.7665C21.5889 26.9847 21.5697 27.2239 21.6206 27.4531C21.6715 27.6823 21.79 27.8909 21.9609 28.052L27.3591 33.1491C27.5855 33.3599 27.8861 33.4727 28.1954 33.4628C28.5046 33.4529 28.7974 33.321 29.0098 33.0961C29.2222 32.8711 29.3371 32.5713 29.3293 32.262C29.3215 31.9527 29.1917 31.659 28.9682 31.445L25.6518 28.3132C26.5568 28.1634 27.3925 27.7349 28.0424 27.0875C28.0454 27.0847 28.0483 27.0618 28.0511 27.0588C28.6077 26.5242 28.999 25.8408 29.1783 25.0901H30.3122C30.623 25.0901 30.9211 24.9666 31.1409 24.7468C31.3606 24.5271 31.4841 24.229 31.4841 23.9182C31.4841 23.6074 31.3606 23.3093 31.1409 23.0896C30.9211 22.8698 30.623 22.7463 30.3122 22.7463H29.1755C29.084 22.462 28.965 22.1873 28.8202 21.926H30.3122C30.4661 21.926 30.6185 21.8957 30.7607 21.8368C30.9029 21.7779 31.0321 21.6915 31.141 21.5827C31.2498 21.4739 31.3361 21.3446 31.395 21.2024C31.4538 21.0602 31.4841 20.9078 31.4841 20.7539Z" fill="url(#paint2_linear_795_6197)"/>
<path d="M9.03475 14.8457C8.31718 14.8457 7.61573 15.0585 7.0191 15.4572C6.42247 15.8559 5.95747 16.4225 5.68288 17.0855C5.40829 17.7484 5.33646 18.4779 5.47647 19.1817C5.61647 19.8855 5.96203 20.5319 6.46943 21.0393C6.97684 21.5467 7.62331 21.8923 8.3271 22.0322C9.03088 22.1722 9.76037 22.1004 10.4233 21.8258C11.0863 21.5512 11.6529 21.0861 12.0515 20.4895C12.4502 19.8928 12.663 19.1914 12.663 18.4738C12.6618 17.5119 12.2791 16.5898 11.5989 15.9097C10.9188 15.2295 9.99663 14.8469 9.03475 14.8457ZM9.03475 19.7582C8.78073 19.7582 8.53242 19.6828 8.32122 19.5417C8.11002 19.4005 7.94542 19.1999 7.84822 18.9653C7.75103 18.7306 7.72561 18.4723 7.77518 18.2232C7.82475 17.974 7.94709 17.7452 8.12672 17.5656C8.30634 17.386 8.5352 17.2637 8.78434 17.2141C9.03348 17.1646 9.29172 17.19 9.5264 17.2872C9.76108 17.3844 9.96167 17.5491 10.1028 17.7603C10.2439 17.9715 10.3192 18.2198 10.3192 18.4738C10.3189 18.8144 10.1834 19.1409 9.9426 19.3816C9.70179 19.6224 9.37529 19.7579 9.03475 19.7582Z" fill="url(#paint3_linear_795_6197)"/>
<path d="M44.0375 30.8125C43.3199 30.8125 42.6184 31.0252 42.0218 31.4239C41.4251 31.8226 40.96 32.3892 40.6854 33.0522C40.4108 33.7152 40.3389 34.4447 40.4789 35.1485C40.6189 35.8523 40.9644 36.4988 41.4718 37.0062C41.9792 37.5137 42.6257 37.8592 43.3295 37.9992C44.0334 38.1393 44.7629 38.0674 45.4259 37.7928C46.0888 37.5182 46.6555 37.0532 47.0542 36.4565C47.4529 35.8598 47.6657 35.1583 47.6657 34.4407C47.6645 33.4789 47.2818 32.5567 46.6017 31.8766C45.9215 31.1964 44.9994 30.8137 44.0375 30.8125ZM44.0375 35.7251C43.7835 35.7251 43.5351 35.6498 43.3239 35.5087C43.1126 35.3676 42.948 35.1669 42.8507 34.9322C42.7535 34.6975 42.728 34.4392 42.7776 34.1901C42.8272 33.9409 42.9495 33.712 43.1291 33.5323C43.3088 33.3527 43.5377 33.2304 43.7869 33.1808C44.036 33.1312 44.2943 33.1567 44.529 33.2539C44.7637 33.3512 44.9644 33.5158 45.1055 33.7271C45.2466 33.9383 45.3219 34.1867 45.3219 34.4407C45.3215 34.7813 45.1861 35.1077 44.9453 35.3485C44.7045 35.5893 44.3781 35.7247 44.0375 35.7251Z" fill="url(#paint4_linear_795_6197)"/>
<defs>
<linearGradient id="paint0_linear_795_6197" x1="26.536" y1="1.97738" x2="26.536" y2="57.601" gradientUnits="userSpaceOnUse">
<stop stop-color="#00EFD1"/>
<stop offset="1" stop-color="#00ACEA"/>
</linearGradient>
<linearGradient id="paint1_linear_795_6197" x1="30.0547" y1="1.9766" x2="30.0547" y2="57.6002" gradientUnits="userSpaceOnUse">
<stop stop-color="#00EFD1"/>
<stop offset="1" stop-color="#00ACEA"/>
</linearGradient>
<linearGradient id="paint2_linear_795_6197" x1="26.5389" y1="1.97661" x2="26.5389" y2="57.6002" gradientUnits="userSpaceOnUse">
<stop stop-color="#00EFD1"/>
<stop offset="1" stop-color="#00ACEA"/>
</linearGradient>
<linearGradient id="paint3_linear_795_6197" x1="9.03475" y1="1.97607" x2="9.03475" y2="57.5996" gradientUnits="userSpaceOnUse">
<stop stop-color="#00EFD1"/>
<stop offset="1" stop-color="#00ACEA"/>
</linearGradient>
<linearGradient id="paint4_linear_795_6197" x1="44.0375" y1="1.97716" x2="44.0375" y2="57.6007" gradientUnits="userSpaceOnUse">
<stop stop-color="#00EFD1"/>
<stop offset="1" stop-color="#00ACEA"/>
</linearGradient>
</defs>
</svg>
