<svg width="21" height="12" viewBox="0 0 21 12" fill="none" xmlns="http://www.w3.org/2000/svg">
<path d="M1.09908 0.638229C1.37896 0.370887 1.7585 0.220703 2.15425 0.220703C2.55 0.220703 2.92954 0.370887 3.20942 0.638229L10.5971 7.69713L17.9848 0.638229C18.2663 0.378464 18.6433 0.234726 19.0346 0.237976C19.4259 0.241225 19.8002 0.3912 20.077 0.6556C20.3537 0.919999 20.5106 1.27767 20.514 1.65157C20.5174 2.02547 20.367 2.3857 20.0951 2.65465L11.6523 10.7218C11.3724 10.9891 10.9929 11.1393 10.5971 11.1393C10.2014 11.1393 9.82182 10.9891 9.54194 10.7218L1.09908 2.65465C0.819289 2.38723 0.662109 2.02457 0.662109 1.64644C0.662109 1.2683 0.819289 0.905651 1.09908 0.638229Z" fill="white"/>
</svg>
