<svg width="61" height="61" viewBox="0 0 61 61" fill="none" xmlns="http://www.w3.org/2000/svg">
<path d="M49.5757 3.89023L10.5614 3.73438H10.5356C9.12478 3.73438 7.77238 4.29635 6.77687 5.29643C5.78187 6.29651 5.2265 7.65195 5.2331 9.06272V45.1397C5.21736 47.0368 6.20627 48.8015 7.83229 49.7792V53.4572C7.83229 55.2893 9.37911 56.7579 11.2112 56.7579H15.5649C16.4426 56.7615 17.2858 56.4153 17.9077 55.7959C18.5296 55.1766 18.8794 54.3349 18.8789 53.4572V50.5199H41.2319V53.4572C41.236 55.2832 42.7199 56.761 44.5459 56.7579H48.8995C50.7322 56.7579 52.2785 55.2893 52.2785 53.4572V49.7792C53.905 48.8015 54.8934 47.0368 54.8777 45.1397V9.21857C54.8817 6.28433 52.5095 3.90089 49.5757 3.89023ZM7.83229 28.5435V13.0397L28.7558 13.1306V28.6349L7.83229 28.5435ZM31.355 13.1433L52.2785 13.2346V28.7384L31.355 28.6475V13.1433ZM8.61205 7.12653C9.11564 6.6143 9.80503 6.32849 10.5229 6.33357H10.5356L49.5625 6.48942C51.0652 6.495 52.2805 7.71591 52.2785 9.21857V10.6222L7.83229 10.4405V9.06272C7.8196 8.3383 8.10135 7.63977 8.61205 7.12653ZM16.2797 53.4572C16.2797 53.6455 16.204 53.8257 16.0695 53.9577C15.9355 54.0897 15.7532 54.1623 15.5649 54.1587H11.2112C10.8087 54.1587 10.4315 53.8597 10.4315 53.4572V50.4808C10.5614 50.4808 10.5097 50.5199 10.5356 50.5199H16.2797V53.4572ZM49.6793 53.4572C49.6793 53.8597 49.3026 54.1587 48.8995 54.1587H44.5459C44.357 54.1643 44.1738 54.0927 44.0392 53.9602C43.9042 53.8277 43.8291 53.646 43.8311 53.4572V50.5199H49.5757C49.5884 50.5199 49.5493 50.4808 49.6793 50.4808V53.4572ZM49.5757 47.9207H10.5356C9.02832 47.9207 7.83229 46.647 7.83229 45.1397V31.1427L29.7305 31.2341C29.8406 31.266 29.9544 31.2833 30.0686 31.2858C30.1696 31.2863 30.2701 31.2736 30.3676 31.2467L52.2785 31.3376V45.1397C52.2785 46.647 51.0962 47.9207 49.5757 47.9207Z" fill="url(#paint0_linear_795_6211)"/>
<path d="M50.5892 37.6531C50.5872 36.9363 50.0069 36.3555 49.2896 36.3535H42.2718C41.555 36.3555 40.9742 36.9363 40.9722 37.6531V42.4616C40.9742 43.1784 41.555 43.7592 42.2718 43.7612H49.2896C50.0069 43.7592 50.5872 43.1784 50.5892 42.4616V37.6531ZM47.99 41.162H43.5714V38.9527H47.99V41.162Z" fill="url(#paint1_linear_795_6211)"/>
<path d="M19.138 37.6531C19.136 36.9363 18.5557 36.3555 17.8384 36.3535H10.8206C10.1038 36.3555 9.52303 36.9363 9.521 37.6531V42.4616C9.52303 43.1784 10.1038 43.7592 10.8206 43.7612H17.8384C18.5557 43.7592 19.136 43.1784 19.138 42.4616V37.6531ZM16.5388 41.162H12.1202V38.9527H16.5388V41.162Z" fill="url(#paint2_linear_795_6211)"/>
<path d="M36.6829 41.4219H23.427C22.7097 41.4219 22.1274 42.0036 22.1274 42.7215C22.1274 43.4393 22.7097 44.0211 23.427 44.0211H36.6829C37.4007 44.0211 37.9825 43.4393 37.9825 42.7215C37.9825 42.0036 37.4007 41.4219 36.6829 41.4219Z" fill="url(#paint3_linear_795_6211)"/>
<path d="M36.6829 36.7441H23.427C22.7097 36.7441 22.1274 37.3259 22.1274 38.0437C22.1274 38.7616 22.7097 39.3433 23.427 39.3433H36.6829C37.4007 39.3433 37.9825 38.7616 37.9825 38.0437C37.9825 37.3259 37.4007 36.7441 36.6829 36.7441Z" fill="url(#paint4_linear_795_6211)"/>
<defs>
<linearGradient id="paint0_linear_795_6211" x1="30.0556" y1="-1.98385" x2="30.0556" y2="61.6938" gradientUnits="userSpaceOnUse">
<stop stop-color="#00EFD1"/>
<stop offset="1" stop-color="#00ACEA"/>
</linearGradient>
<linearGradient id="paint1_linear_795_6211" x1="45.7809" y1="-1.98454" x2="45.7809" y2="61.693" gradientUnits="userSpaceOnUse">
<stop stop-color="#00EFD1"/>
<stop offset="1" stop-color="#00ACEA"/>
</linearGradient>
<linearGradient id="paint2_linear_795_6211" x1="14.3297" y1="-1.98454" x2="14.3297" y2="61.693" gradientUnits="userSpaceOnUse">
<stop stop-color="#00EFD1"/>
<stop offset="1" stop-color="#00ACEA"/>
</linearGradient>
<linearGradient id="paint3_linear_795_6211" x1="30.0552" y1="-1.98467" x2="30.0552" y2="61.693" gradientUnits="userSpaceOnUse">
<stop stop-color="#00EFD1"/>
<stop offset="1" stop-color="#00ACEA"/>
</linearGradient>
<linearGradient id="paint4_linear_795_6211" x1="30.0552" y1="-1.98406" x2="30.0552" y2="61.6939" gradientUnits="userSpaceOnUse">
<stop stop-color="#00EFD1"/>
<stop offset="1" stop-color="#00ACEA"/>
</linearGradient>
</defs>
</svg>
