<svg width="61" height="61" viewBox="0 0 61 61" fill="none" xmlns="http://www.w3.org/2000/svg">
<g clip-path="url(#clip0_795_6233)">
<path d="M59.4599 21.3439C51.6739 13.6298 41.2201 9.44841 30.0457 9.52045C18.8711 9.66465 8.48969 13.9903 0.703491 21.7765C-0.16158 22.6415 -0.16158 24.0114 0.703491 24.8044C1.1361 25.237 1.71276 25.4533 2.2174 25.4533C2.72204 25.4533 3.29884 25.237 3.73131 24.8044C18.1501 10.3857 42.2294 10.2415 56.4318 24.3718C57.2969 25.2369 58.6667 25.2369 59.4598 24.3718C60.253 23.5788 60.253 22.2089 59.4599 21.3439Z" fill="url(#paint0_linear_795_6233)"/>
<path d="M30.5509 26.4629C30.5509 26.4629 30.4787 26.4629 30.5509 26.4629C23.0531 26.4629 15.9879 29.4187 10.5809 34.7537C9.71586 35.6188 9.71586 36.9886 10.5809 37.7817C11.0135 38.2143 11.5902 38.4305 12.0948 38.4305C12.5995 38.4305 13.1763 38.2143 13.6088 37.7817C18.1506 33.2398 24.1345 30.7165 30.4787 30.7165C36.5346 30.7165 42.1579 33.0956 46.3393 37.3491C47.2044 38.2141 48.5743 38.2141 49.3673 37.3491C50.2324 36.484 50.2324 35.1142 49.3673 34.3211C44.465 29.2745 37.7602 26.4629 30.5509 26.4629Z" fill="url(#paint1_linear_795_6233)"/>
<path d="M20.0966 47.2983C19.2315 48.1634 19.2315 49.5333 20.0966 50.3263C20.5292 50.7589 21.1058 50.9751 21.6105 50.9751C22.1873 50.9751 22.6919 50.7589 23.1244 50.3263C27.0174 46.4333 33.2896 46.2891 36.9664 49.8937C37.8314 50.7588 39.2013 50.7588 39.9943 49.8937C40.8594 49.0286 40.8594 47.6588 39.9943 46.8657C34.6595 41.5308 25.7199 41.7471 20.0966 47.2983Z" fill="url(#paint2_linear_795_6233)"/>
</g>
<defs>
<linearGradient id="paint0_linear_795_6233" x1="30.0546" y1="4.14869" x2="30.0546" y2="52.6679" gradientUnits="userSpaceOnUse">
<stop stop-color="#00EFD1"/>
<stop offset="1" stop-color="#00ACEA"/>
</linearGradient>
<linearGradient id="paint1_linear_795_6233" x1="29.9741" y1="4.14905" x2="29.9741" y2="52.6682" gradientUnits="userSpaceOnUse">
<stop stop-color="#00EFD1"/>
<stop offset="1" stop-color="#00ACEA"/>
</linearGradient>
<linearGradient id="paint2_linear_795_6233" x1="30.0454" y1="4.14932" x2="30.0454" y2="52.6686" gradientUnits="userSpaceOnUse">
<stop stop-color="#00EFD1"/>
<stop offset="1" stop-color="#00ACEA"/>
</linearGradient>
<clipPath id="clip0_795_6233">
<rect width="60" height="60" fill="white" transform="translate(0.0546875 0.246094)"/>
</clipPath>
</defs>
</svg>
