<svg width="61" height="61" viewBox="0 0 61 61" fill="none" xmlns="http://www.w3.org/2000/svg">
<path d="M56.5134 18.7561L17.9843 18.4577V9.25852C17.9876 9.1377 17.9665 9.01747 17.9224 8.90495C17.8783 8.79242 17.812 8.68992 17.7275 8.6035C17.643 8.51709 17.542 8.44853 17.4305 8.4019C17.319 8.35527 17.1992 8.33151 17.0784 8.33204H14.0738C11.1153 8.33204 8.32399 9.29298 6.21414 11.0473C4.04418 12.852 2.8491 15.2725 2.84922 17.8609L2.66852 40.6773C2.66852 40.713 2.66699 40.7476 2.66699 40.7837C2.66699 40.7926 2.66699 40.7747 2.66699 40.7837V40.7938H2.66793C2.70309 47.1219 7.97758 52.161 14.4563 52.161H56.5048C56.756 52.1646 56.9987 52.0695 57.1804 51.896C57.3622 51.7225 57.4685 51.4846 57.4765 51.2334V19.6936C57.4691 19.4429 57.3644 19.2049 57.1847 19.0299C57.0049 18.855 56.7642 18.7568 56.5134 18.7561ZM55.6015 20.6238V46.6523H14.4563C11.0227 46.6523 8.23012 44.0051 8.23012 40.793C8.23012 37.5809 11.0232 34.9336 14.4563 34.9336H17.087C17.2068 34.9355 17.3257 34.913 17.4365 34.8675C17.5474 34.822 17.6478 34.7545 17.7317 34.669C17.8156 34.5835 17.8813 34.4819 17.9247 34.3702C17.9682 34.2586 17.9884 34.1393 17.9843 34.0195V20.3329L55.6015 20.6238ZM4.7241 17.8711C4.7241 13.6422 8.91836 10.207 14.0738 10.207H16.1093V29.4258H14.4563C10.3341 29.4258 6.7 31.4674 4.59191 34.5718L4.7241 17.8711ZM55.6015 50.2852H14.4563C8.99535 50.2852 4.55172 46.0312 4.54223 40.793V40.7648C4.56004 35.5336 9.00016 31.3008 14.4563 31.3008H16.1093V32.1211V33.0586H14.4563C9.98922 33.0586 6.35512 36.547 6.35512 40.793C6.35512 45.0389 9.98922 48.5273 14.4563 48.5273H55.6015V50.2852Z" fill="url(#paint0_linear_795_6207)"/>
<defs>
<linearGradient id="paint0_linear_795_6207" x1="30.0718" y1="3.07349" x2="30.0718" y2="57.2606" gradientUnits="userSpaceOnUse">
<stop stop-color="#00EFD1"/>
<stop offset="1" stop-color="#00ACEA"/>
</linearGradient>
</defs>
</svg>
