<svg width="61" height="61" viewBox="0 0 61 61" fill="none" xmlns="http://www.w3.org/2000/svg">
<path d="M48.2382 23.6954H48.1157V23.5729C48.1157 13.5934 40.0341 5.51172 30.0545 5.51172C20.0749 5.51172 11.9933 13.5934 11.9933 23.5729V23.6954H11.8708C8.68715 23.6954 6.11572 26.2668 6.11572 29.4505V37.8383C6.11572 41.0219 8.68715 43.5934 11.8708 43.5934H16.4014C17.4423 43.5934 18.2382 42.7974 18.2382 41.7566V25.5321C18.2382 24.4913 17.4423 23.6954 16.4014 23.6954H15.6667V23.5729C15.6667 15.6138 22.0953 9.18519 30.0545 9.18519C38.0137 9.18519 44.4423 15.6138 44.4423 23.5729V23.6954H43.7076C42.6667 23.6954 41.8708 24.4913 41.8708 25.5321V41.7566C41.8708 42.7974 42.6667 43.5934 43.7076 43.5934H45.3606C44.6259 45.2464 42.9729 46.4097 41.0749 46.4097H37.7076C36.9116 43.5934 34.3402 41.5729 31.279 41.5729C27.6055 41.5729 24.6055 44.5729 24.6055 48.2464C24.6055 51.9199 27.6055 54.9199 31.3402 54.9199C33.1769 54.9199 34.9525 54.1852 36.1769 52.8383C36.9116 52.0423 37.4627 51.0627 37.7688 50.0832H41.0749C45.0545 50.0832 48.4219 47.2668 49.2178 43.5321C51.9116 43.0423 53.9933 40.7158 53.9933 37.8383V29.5117C53.9933 26.328 51.4218 23.6954 48.2382 23.6954ZM14.5647 39.9811H11.8708C10.7076 39.9811 9.78919 39.0627 9.78919 37.8995V29.5117C9.78919 28.3485 10.7076 27.4301 11.8708 27.4301H14.5647V39.9811ZM33.5443 50.3893C32.9933 51.0015 32.1974 51.3076 31.3402 51.3076C29.6872 51.3076 28.279 49.9607 28.279 48.3076C28.279 46.6546 29.6259 45.3076 31.279 45.3076C32.9321 45.3076 34.279 46.6546 34.279 48.3076V48.3689C34.3402 49.1648 34.0341 49.8995 33.5443 50.3893ZM50.3198 37.8995C50.3198 39.0627 49.4014 39.9811 48.2382 39.9811H45.5443V27.3689H48.2382C49.4014 27.3689 50.3198 28.2872 50.3198 29.4505V37.8995Z" fill="url(#paint0_linear_795_6205)"/>
<defs>
<linearGradient id="paint0_linear_795_6205" x1="30.0545" y1="5.54233" x2="30.0545" y2="54.9505" gradientUnits="userSpaceOnUse">
<stop stop-color="#00EFD1"/>
<stop offset="1" stop-color="#00ACEA"/>
</linearGradient>
</defs>
</svg>
