<svg width="53" height="47" viewBox="0 0 53 47" fill="none" xmlns="http://www.w3.org/2000/svg">
<path d="M49.0382 7.79719H37.2735V4.7599C37.2723 3.65637 36.8334 2.59837 36.0531 1.81806C35.2728 1.03774 34.2148 0.59884 33.1113 0.597656H20.0992C18.9957 0.598839 17.9376 1.03772 17.1572 1.81802C16.3768 2.59832 15.9378 3.65631 15.9364 4.7599V7.79719H4.27793C3.29761 7.79823 2.35773 8.18808 1.66449 8.88121C0.971255 9.57435 0.581264 10.5142 0.58008 11.4945V22.5852C0.579622 22.8034 0.652157 23.0154 0.786138 23.1876C0.920119 23.3597 1.10784 23.4821 1.31943 23.5352L2.42314 23.8147V42.8242C2.42417 43.8028 2.81339 44.7411 3.50539 45.4331C4.19739 46.1251 5.13564 46.5143 6.11427 46.5153H47.2019C48.1806 46.5143 49.1189 46.1251 49.811 45.4331C50.503 44.7411 50.8924 43.8029 50.8936 42.8242V23.8119L51.9967 23.5325C52.2083 23.4793 52.396 23.3569 52.53 23.1848C52.664 23.0126 52.7365 22.8006 52.7361 22.5824V11.4967C52.7355 10.516 52.3457 9.57562 51.6524 8.882C50.9591 8.18839 50.0189 7.79823 49.0382 7.79719ZM17.8924 4.7599C17.8931 4.17488 18.1259 3.61404 18.5396 3.20043C18.9533 2.78681 19.5142 2.55419 20.0992 2.5536H33.1113C33.6962 2.55419 34.2571 2.78683 34.6707 3.20046C35.0844 3.61409 35.317 4.17493 35.3176 4.7599V7.79719H17.8924V4.7599ZM2.53602 11.4967C2.53602 11.0346 2.71949 10.5913 3.04611 10.2644C3.37273 9.93747 3.81579 9.75358 4.27793 9.75313H49.041C49.5028 9.75358 49.9455 9.93716 50.272 10.2636C50.5986 10.5901 50.7823 11.0327 50.7829 11.4945V21.8241L49.6915 22.1007C49.687 22.1007 49.6826 22.1007 49.6781 22.1007L30.0567 27.0733V26.4172C30.0561 25.7946 29.8087 25.1976 29.3688 24.757C28.9288 24.3164 28.3322 24.0682 27.7095 24.0667H25.5016C24.8783 24.0673 24.2808 24.3151 23.8402 24.7558C23.3995 25.1965 23.1517 25.794 23.1511 26.4172V27.0414L3.63973 22.1035L2.53602 21.8241V11.4967ZM25.107 28.2977V26.4172C25.1072 26.3126 25.1488 26.2123 25.2227 26.1384C25.2967 26.0644 25.397 26.0228 25.5016 26.0226H27.7095C27.8141 26.0228 27.9144 26.0644 27.9884 26.1384C28.0623 26.2123 28.1039 26.3126 28.1041 26.4172V31.2718C28.1039 31.3764 28.0623 31.4767 27.9884 31.5506C27.9144 31.6246 27.8141 31.6662 27.7095 31.6664H25.5016C25.397 31.6662 25.2967 31.6246 25.2227 31.5506C25.1488 31.4767 25.1072 31.3764 25.107 31.2718V28.2977ZM47.2019 44.5599H6.11427C5.65425 44.5593 5.21324 44.3763 4.88796 44.0511C4.56267 43.7258 4.37967 43.2848 4.37908 42.8247V24.3081L22.4615 28.8845L23.1511 29.0594V31.2718C23.1509 31.3381 23.1577 31.4042 23.1712 31.4691C23.2197 32.0545 23.486 32.6005 23.9174 32.9991C24.3489 33.3977 24.9141 33.6201 25.5016 33.6223H27.7095C28.297 33.6201 28.8622 33.3977 29.2936 32.9991C29.7251 32.6005 29.9914 32.0545 30.0399 31.4691C30.0523 31.4041 30.0579 31.338 30.0567 31.2718V29.089L47.5081 24.6663L48.9371 24.3042V42.8242C48.9365 43.2842 48.7535 43.7252 48.4282 44.0505C48.1029 44.3758 47.6619 44.5588 47.2019 44.5594V44.5599Z" fill="url(#paint0_linear_10738_4183)"/>
<defs>
<linearGradient id="paint0_linear_10738_4183" x1="26.658" y1="-0.430396" x2="26.658" y2="46.6755" gradientUnits="userSpaceOnUse">
<stop stop-color="#00EFD1"/>
<stop offset="1" stop-color="#00ACEA"/>
</linearGradient>
</defs>
</svg>
