<svg width="61" height="61" viewBox="0 0 61 61" fill="none" xmlns="http://www.w3.org/2000/svg">
<g clip-path="url(#clip0_795_6226)">
<path d="M56.6862 0.246989H3.47694C3.21827 0.235721 2.96647 0.33125 2.77982 0.511041C2.59366 0.690831 2.48882 0.938717 2.49078 1.19787V39.4041C2.48784 39.6657 2.59121 39.917 2.77737 40.1007C2.96304 40.2845 3.21582 40.3849 3.47694 40.379H28.4061L28.0749 40.6411C27.8065 40.8444 27.6487 41.1614 27.6487 41.4979C27.6482 41.8345 27.806 42.1519 28.074 42.3552L29.7278 43.5996L28.774 45.4367C28.6202 45.7345 28.6158 46.0872 28.7618 46.389C28.9083 46.6908 29.1875 46.9058 29.5167 46.9705L31.5404 47.3644L31.4758 49.4322C31.4591 49.9569 31.829 50.4154 32.3458 50.509L30.0678 56.0399C29.8278 56.6214 29.9483 57.2896 30.3755 57.7516C30.8032 58.2135 31.4601 58.385 32.0588 58.191L34.084 57.5355L34.9638 59.3388C35.2347 59.8934 35.7981 60.2456 36.4154 60.2461C36.433 60.2461 36.4511 60.2461 36.4688 60.2451C37.1051 60.2241 37.67 59.8312 37.911 59.2418L38.9207 56.7689L39.8574 59.0581C40.0945 59.6509 40.6613 60.0457 41.2996 60.0614C41.3187 60.0614 41.3373 60.0629 41.3559 60.0629C41.9737 60.0663 42.538 59.7131 42.8046 59.1556L43.6844 57.3518L45.7096 58.0078C46.3083 58.2018 46.9652 58.0303 47.3929 57.5684C47.8201 57.1064 47.9406 56.4382 47.7005 55.8562L45.4921 50.4928C45.9761 50.3723 46.3097 49.9295 46.2926 49.4307L46.2279 47.3644L48.2522 46.9705C48.5819 46.9058 48.8616 46.6903 49.0071 46.388C49.1531 46.0858 49.1477 45.7325 48.9934 45.4347L48.04 43.601L49.6949 42.3582C49.9619 42.1563 50.1191 41.8413 50.1196 41.5062C50.1187 41.1677 49.9614 40.8483 49.6929 40.6411L49.3613 40.379H56.6862C56.9473 40.3849 57.2001 40.2845 57.3857 40.1007C57.5719 39.917 57.6752 39.6657 57.6723 39.4041V1.19787C57.6743 0.938717 57.5694 0.690831 57.3833 0.511041C57.1966 0.33125 56.9448 0.235721 56.6862 0.246989ZM36.3835 57.6732L35.7378 56.3505C35.3827 55.6299 34.5538 55.2776 33.7886 55.5221L32.2444 56.0218L34.7287 49.9912L34.8075 49.9706L35.6477 51.8621C35.7677 52.132 35.9941 52.3392 36.2728 52.4353C36.5521 52.5313 36.8582 52.5068 37.1184 52.3681L37.8346 54.1176L36.3835 57.6732ZM43.9778 55.3384C43.2126 55.0944 42.3837 55.4466 42.0291 56.1673L41.3834 57.4905L38.7375 51.0253L38.8834 50.9009L40.456 52.2393C40.649 52.4034 40.8945 52.4936 41.1482 52.4931C41.2271 52.4931 41.306 52.4843 41.3829 52.4671C41.7096 52.3917 41.9825 52.1673 42.1192 51.8611L42.9594 49.9706L43.123 50.0132L45.522 55.8385L43.9778 55.3384ZM45.8909 43.8352L46.6306 45.2505L45.0556 45.5528C44.5437 45.6507 44.1792 46.1073 44.1963 46.6286L44.2463 48.2344L42.6938 47.8273C42.1892 47.6931 41.6616 47.9464 41.4505 48.4245L40.7975 49.8947L39.5722 48.8522C39.1754 48.5132 38.5905 48.5137 38.1942 48.8532L36.9704 49.8942L36.3174 48.4245C36.1484 48.0395 35.7677 47.7911 35.3469 47.7906C35.2553 47.7906 35.1637 47.8028 35.0745 47.8259L33.5211 48.233L33.5711 46.6276C33.5902 46.1049 33.2247 45.6463 32.7108 45.5479L31.1368 45.2417L31.876 43.8195C32.1185 43.358 31.9897 42.7883 31.5713 42.4762L30.2834 41.5087L31.5693 40.5456C31.9877 40.234 32.118 39.6647 31.877 39.2023L31.1368 37.7787L32.7098 37.4725C33.2237 37.375 33.5897 36.9164 33.5711 36.3937L33.5211 34.7864L35.0745 35.1935C35.5791 35.3272 36.1062 35.0735 36.3164 34.5958L36.9699 33.1252L38.1917 34.1652C38.5885 34.5067 39.1754 34.5076 39.5732 34.1667L40.797 33.1256L41.451 34.5978C41.6616 35.0749 42.1883 35.3277 42.6924 35.1935L44.2458 34.7869L44.1954 36.3967C44.1792 36.9184 44.5442 37.374 45.0561 37.472L46.6301 37.7787L45.8909 39.2013C45.6484 39.6638 45.7782 40.2335 46.1971 40.5451L47.484 41.5263L46.1961 42.511C45.7772 42.7618 45.6494 43.3732 45.8909 43.8352ZM55.6657 38.3724H48.5672L48.9909 37.5714C49.1452 37.275 49.1501 36.9228 49.0041 36.622C48.8582 36.3217 48.5784 36.1076 48.2497 36.0459L46.226 35.654L46.2906 33.5871C46.3004 33.2516 46.152 32.9317 45.8894 32.7225C45.6268 32.5138 45.2814 32.4408 44.9571 32.526L42.9584 33.0497L42.1192 31.1602C41.983 30.853 41.7101 30.6282 41.3829 30.5532C41.0551 30.4788 40.7117 30.563 40.456 30.7805L38.883 32.1189L37.3089 30.78C37.0532 30.5625 36.7103 30.4788 36.383 30.5532C36.0563 30.6282 35.7834 30.8525 35.6472 31.1592L34.8071 33.0497L32.8098 32.5265C32.485 32.4408 32.1386 32.5138 31.8755 32.723C31.613 32.9321 31.464 33.2535 31.4748 33.5891L31.5395 35.6555L29.5172 36.0493C29.1885 36.114 28.9087 36.3291 28.7623 36.6303C28.6168 36.9282 28.6217 37.2775 28.7755 37.5709L29.1992 38.3724H4.49738V2.25359H55.6657V38.3724Z" fill="url(#paint0_linear_795_6226)"/>
<path d="M9.13709 18.8074H50.8995C51.4535 18.8074 51.9028 18.3582 51.9028 17.8041C51.9028 17.25 51.4535 16.8008 50.8995 16.8008H9.13709C8.58302 16.8008 8.13379 17.25 8.13379 17.8041C8.13379 18.3582 8.58302 18.8074 9.13709 18.8074Z" fill="url(#paint1_linear_795_6226)"/>
<path d="M9.13709 13.5418H30.8335C31.3875 13.5418 31.8368 13.0925 31.8368 12.5385C31.8368 11.9844 31.3875 11.5352 30.8335 11.5352H9.13709C8.58302 11.5352 8.13379 11.9844 8.13379 12.5385C8.13379 13.0925 8.58302 13.5418 9.13709 13.5418Z" fill="url(#paint2_linear_795_6226)"/>
<path d="M9.13709 24.2H50.8995C51.4535 24.2 51.9028 23.7507 51.9028 23.1967C51.9028 22.6426 51.4535 22.1934 50.8995 22.1934H9.13709C8.58302 22.1934 8.13379 22.6426 8.13379 23.1967C8.13379 23.7507 8.58302 24.2 9.13709 24.2Z" fill="url(#paint3_linear_795_6226)"/>
<path d="M9.13709 29.4675H50.8995C51.4535 29.4675 51.9028 29.0183 51.9028 28.4642C51.9028 27.9102 51.4535 27.4609 50.8995 27.4609H9.13709C8.58302 27.4609 8.13379 27.9102 8.13379 28.4642C8.13379 29.0183 8.58302 29.4675 9.13709 29.4675Z" fill="url(#paint4_linear_795_6226)"/>
<path d="M38.8826 35.793C35.7247 35.793 33.165 38.3527 33.165 41.5105C33.165 44.6679 35.7247 47.228 38.8826 47.228C42.0399 47.228 44.6001 44.6684 44.6001 41.5105C44.5962 38.3541 42.039 35.7964 38.8826 35.793ZM38.8826 45.2214C36.8334 45.2214 35.1716 43.5602 35.1716 41.5105C35.1716 39.4613 36.8329 37.7996 38.8826 37.7996C40.9318 37.7996 42.5935 39.4608 42.5935 41.5105C42.5911 43.5587 40.9313 45.219 38.8826 45.2214Z" fill="url(#paint5_linear_795_6226)"/>
</g>
<defs>
<linearGradient id="paint0_linear_795_6226" x1="30.0815" y1="0.121476" x2="30.0815" y2="60.1866" gradientUnits="userSpaceOnUse">
<stop stop-color="#00EFD1"/>
<stop offset="1" stop-color="#00ACEA"/>
</linearGradient>
<linearGradient id="paint1_linear_795_6226" x1="30.0183" y1="0.120776" x2="30.0183" y2="60.186" gradientUnits="userSpaceOnUse">
<stop stop-color="#00EFD1"/>
<stop offset="1" stop-color="#00ACEA"/>
</linearGradient>
<linearGradient id="paint2_linear_795_6226" x1="19.9853" y1="0.122533" x2="19.9853" y2="60.1875" gradientUnits="userSpaceOnUse">
<stop stop-color="#00EFD1"/>
<stop offset="1" stop-color="#00ACEA"/>
</linearGradient>
<linearGradient id="paint3_linear_795_6226" x1="30.0183" y1="0.120624" x2="30.0183" y2="60.1858" gradientUnits="userSpaceOnUse">
<stop stop-color="#00EFD1"/>
<stop offset="1" stop-color="#00ACEA"/>
</linearGradient>
<linearGradient id="paint4_linear_795_6226" x1="30.0183" y1="0.120869" x2="30.0183" y2="60.186" gradientUnits="userSpaceOnUse">
<stop stop-color="#00EFD1"/>
<stop offset="1" stop-color="#00ACEA"/>
</linearGradient>
<linearGradient id="paint5_linear_795_6226" x1="38.8826" y1="0.121838" x2="38.8826" y2="60.1869" gradientUnits="userSpaceOnUse">
<stop stop-color="#00EFD1"/>
<stop offset="1" stop-color="#00ACEA"/>
</linearGradient>
<clipPath id="clip0_795_6226">
<rect width="60" height="60" fill="white" transform="translate(0.0546875 0.246094)"/>
</clipPath>
</defs>
</svg>
