<svg width="61" height="61" viewBox="0 0 61 61" fill="none" xmlns="http://www.w3.org/2000/svg">
<g clip-path="url(#clip0_795_6193)">
<path d="M53.6094 31.0472H29.2518V6.60797C29.2482 5.72068 28.5278 5.00358 27.6405 5.00406C20.314 4.97968 13.2823 7.88805 8.11337 13.0805C2.91783 18.3672 0.0546875 25.2937 0.0546875 32.5841C0.0546875 47.7919 12.4263 60.1644 27.6339 60.1644C34.9593 60.1888 41.9897 57.2803 47.1569 52.0879C52.3524 46.8011 55.2136 39.908 55.2136 32.6176C55.2107 31.7472 54.5026 31.044 53.6323 31.0469C53.6246 31.047 53.6171 31.047 53.6094 31.0472ZM44.8783 49.863C40.3107 54.442 34.1006 57.0025 27.6329 56.9734C14.194 56.9734 3.26058 46.0317 3.26058 32.5927C3.26058 26.1484 5.80262 20.0162 10.3951 15.3432C14.5691 11.1475 20.1369 8.62841 26.044 8.2632V32.5842C26.044 33.4701 26.7473 34.255 27.6329 34.255H51.953C51.5379 40.1366 49.0278 45.6742 44.8783 49.863Z" fill="url(#paint0_linear_795_6193)"/>
<path d="M51.9785 8.38293C46.6917 3.18755 39.7577 0.326172 32.4672 0.326172C31.58 0.325691 30.8595 1.0428 30.856 1.93008V27.9065C30.856 28.7922 31.5889 29.4435 32.4748 29.4435H58.451C59.3212 29.4591 60.0392 28.7662 60.0548 27.8961C60.055 27.8884 60.055 27.8807 60.055 27.873C60.055 20.5824 57.1936 13.6726 51.998 8.38549C51.9916 8.3794 51.9851 8.3895 51.9785 8.38293ZM34.0638 26.2357V3.5866C39.9982 3.97041 45.4211 6.41477 49.7125 10.6278C53.9255 14.919 56.4107 20.4616 56.7947 26.2357H34.0638Z" fill="url(#paint1_linear_795_6193)"/>
</g>
<defs>
<linearGradient id="paint0_linear_795_6193" x1="27.6342" y1="-9.85247" x2="27.6342" y2="69.934" gradientUnits="userSpaceOnUse">
<stop stop-color="#00EFD1"/>
<stop offset="1" stop-color="#00ACEA"/>
</linearGradient>
<linearGradient id="paint1_linear_795_6193" x1="45.4555" y1="-9.85223" x2="45.4555" y2="69.9342" gradientUnits="userSpaceOnUse">
<stop stop-color="#00EFD1"/>
<stop offset="1" stop-color="#00ACEA"/>
</linearGradient>
<clipPath id="clip0_795_6193">
<rect width="60" height="60" fill="white" transform="translate(0.0546875 0.246094)"/>
</clipPath>
</defs>
</svg>
