<svg width="61" height="61" viewBox="0 0 61 61" fill="none" xmlns="http://www.w3.org/2000/svg">
<g clip-path="url(#clip0_795_6219)">
<path d="M53.5771 11.6292L30.648 0.369543C30.3117 0.204944 29.9188 0.204944 29.5826 0.369543L6.64916 11.5981C6.23366 11.7995 5.96813 12.2192 5.96436 12.6809V34.1627C5.96436 36.817 6.81612 39.8769 8.34985 42.7803C9.88547 45.6869 11.9455 48.1134 14.1443 49.6123L29.4298 60.0362C29.8405 60.3159 30.381 60.3159 30.7918 60.0362L46.0825 49.6127C50.6634 46.4891 54.2591 39.7029 54.2591 34.1627V12.713C54.2563 12.2513 53.9917 11.8315 53.5771 11.6292ZM51.8444 34.1627C51.8444 38.9077 48.6448 44.9427 44.7223 47.6178L30.1155 57.5771L15.5026 47.6173C11.6465 44.988 8.37909 38.8266 8.37909 34.1627V13.4341L30.1113 2.79701L51.8444 13.4653V34.1627Z" fill="url(#paint0_linear_795_6219)"/>
<path d="M11.6821 30.2467C11.6821 40.4094 19.9498 48.677 30.1119 48.677C40.2746 48.677 48.5422 40.4094 48.5422 30.2467C48.5422 20.0841 40.2746 11.8164 30.1119 11.8164C19.9498 11.8164 11.6821 20.0841 11.6821 30.2467ZM30.1119 14.2311C38.9432 14.2311 46.1275 21.4155 46.1275 30.2467C46.1275 39.0779 38.9432 46.2623 30.1119 46.2623C21.2812 46.2623 14.0969 39.0779 14.0969 30.2467C14.0969 21.4155 21.2812 14.2311 30.1119 14.2311Z" fill="url(#paint1_linear_795_6219)"/>
<path d="M21.4183 33.989H26.2478V38.9392C26.2478 39.6061 26.7887 40.1466 27.4552 40.1466H32.6468C33.3137 40.1466 33.8542 39.6061 33.8542 38.9392V33.989H38.8044C39.4713 33.989 40.0118 33.4485 40.0118 32.7816V27.5899C40.0118 26.923 39.4713 26.3825 38.8044 26.3825H33.8542V21.5531C33.8542 20.8862 33.3137 20.3457 32.6468 20.3457H27.4552C26.7887 20.3457 26.2478 20.8862 26.2478 21.5531V26.3825H21.4183C20.7519 26.3825 20.2109 26.923 20.2109 27.5899V32.7816C20.2109 33.4485 20.7519 33.989 21.4183 33.989ZM22.6257 28.7973H27.4552C28.122 28.7973 28.6625 28.2568 28.6625 27.5899V22.7604H31.4395V27.5899C31.4395 28.2568 31.9804 28.7973 32.6468 28.7973H37.597V31.5742H32.6468C31.9804 31.5742 31.4395 32.1147 31.4395 32.7816V37.7318H28.6625V32.7816C28.6625 32.1147 28.122 31.5742 27.4552 31.5742H22.6257V28.7973Z" fill="url(#paint2_linear_795_6219)"/>
</g>
<defs>
<linearGradient id="paint0_linear_795_6219" x1="30.1119" y1="0.0615542" x2="30.1119" y2="59.8013" gradientUnits="userSpaceOnUse">
<stop stop-color="#00EFD1"/>
<stop offset="1" stop-color="#00ACEA"/>
</linearGradient>
<linearGradient id="paint1_linear_795_6219" x1="30.1121" y1="0.0624666" x2="30.1121" y2="59.8022" gradientUnits="userSpaceOnUse">
<stop stop-color="#00EFD1"/>
<stop offset="1" stop-color="#00ACEA"/>
</linearGradient>
<linearGradient id="paint2_linear_795_6219" x1="30.1116" y1="0.0618825" x2="30.1116" y2="59.8017" gradientUnits="userSpaceOnUse">
<stop stop-color="#00EFD1"/>
<stop offset="1" stop-color="#00ACEA"/>
</linearGradient>
<clipPath id="clip0_795_6219">
<rect width="60" height="60" fill="white" transform="translate(0.0546875 0.246094)"/>
</clipPath>
</defs>
</svg>
