<svg width="109" height="103" viewBox="0 0 109 103" fill="none" xmlns="http://www.w3.org/2000/svg">
<path d="M34.4258 0C21.614 0 11.1982 10.4371 11.1982 23.2751C11.1982 35.8682 21.0272 46.0603 33.839 46.5013C34.2302 46.4523 34.6214 46.4523 34.9148 46.5013H35.1593H35.2571C47.7753 46.0603 57.6042 35.8682 57.6531 23.2751C57.6531 10.4371 47.2374 0 34.4258 0Z" fill="url(#paint0_linear_7071_3404)"/>
<path d="M88.1663 26.1672C88.9487 35.6732 82.2005 44.0033 72.8606 45.1303C72.8117 45.1303 72.8117 45.1303 72.7628 45.1303H72.6161C72.3227 45.1303 72.0293 45.1303 71.7848 45.2283C67.0415 45.4733 62.6894 43.9543 59.4131 41.1613C64.4498 36.6532 67.3349 29.8912 66.7481 22.5411C66.4058 18.5721 65.0366 14.9461 62.9828 11.8591C64.841 10.9281 66.9926 10.3401 69.1931 10.1441C78.7775 9.31107 87.335 16.4651 88.1663 26.1672Z" fill="url(#paint1_linear_7071_3404)"/>
<path d="M65.1744 87.8428H57.5839V97.794H54.5548V87.8428H47V84.2954H54.5548V74.2981H57.5839V84.2954H65.1744V87.8428Z" fill="url(#paint2_linear_7071_3404)"/>
<path d="M70.0429 99.5447C73.06 96.4119 75.4239 93.8473 77.1344 91.8509C78.845 89.8238 80.2823 87.72 81.4464 85.5393C82.6343 83.3279 83.2282 81.1626 83.2282 79.0434C83.2282 77.047 82.8481 75.4806 82.0878 74.3442C81.3514 73.1771 80.1516 72.5935 78.4886 72.5935C76.8731 72.5935 75.614 73.2538 74.7112 74.5745C73.8322 75.8645 73.357 77.5998 73.2857 79.7805H70.1498C70.2448 76.3406 71.0526 73.6838 72.573 71.8103C74.0935 69.9368 76.0535 69 78.453 69C80.9 69 82.8362 69.8753 84.2616 71.626C85.7108 73.3767 86.4354 75.7877 86.4354 78.8591C86.4354 81.4083 85.8415 83.8961 84.6536 86.3225C83.4895 88.7182 82.1591 90.8374 80.6624 92.6802C79.1657 94.4923 77.2532 96.6116 74.925 99.0379H87.1838V102.539H70.0429V99.5447Z" fill="url(#paint3_linear_7071_3404)"/>
<path d="M107.361 73.2385H94.8525V83.7425C95.3989 82.7597 96.2067 81.9612 97.2758 81.3469C98.3448 80.7019 99.4971 80.3794 100.732 80.3794C102.704 80.3794 104.308 80.9169 105.543 81.9919C106.779 83.0361 107.658 84.4029 108.18 86.0921C108.727 87.7507 109 89.5167 109 91.3902C109 93.6016 108.679 95.5827 108.038 97.3333C107.396 99.084 106.41 100.466 105.08 101.48C103.773 102.493 102.146 103 100.198 103C97.7034 103 95.684 102.171 94.1398 100.512C92.5956 98.8537 91.6571 96.6423 91.3245 93.878H94.4961C94.805 95.6287 95.4583 96.9955 96.4561 97.9783C97.4539 98.9612 98.7131 99.4526 100.234 99.4526C102.11 99.4526 103.524 98.7308 104.474 97.2873C105.425 95.813 105.9 93.878 105.9 91.4824C105.9 89.0867 105.425 87.2439 104.474 85.9539C103.524 84.6332 102.122 83.9729 100.269 83.9729C99.01 83.9729 97.9053 84.3722 96.955 85.1707C96.0285 85.9386 95.3514 86.9982 94.9238 88.3496H91.8591V69.5528H107.361V73.2385Z" fill="url(#paint4_linear_7071_3404)"/>
<path d="M57.5839 84.7954H64.6744V87.3428H57.5839H57.0839V87.8428V97.294H55.0548V87.8428V87.3428H54.5548H47.5V84.7954H54.5548H55.0548V84.2954V74.7981H57.0839V84.2954V84.7954H57.5839ZM72.8087 79.2805H70.6695C70.8259 76.1603 71.6075 73.7935 72.9613 72.1254C74.3874 70.3681 76.2051 69.5 78.453 69.5C80.764 69.5 82.5522 70.3184 83.8739 71.9417L83.8765 71.9448C85.229 73.5787 85.9354 75.8632 85.9354 78.8591C85.9354 81.3276 85.361 83.7405 84.2046 86.1026L84.2039 86.104C83.0549 88.4685 81.7449 90.554 80.2757 92.3633C78.7896 94.1624 76.8865 96.2716 74.5642 98.6918L73.7523 99.5379H74.925H86.6838V102.039H70.5429V99.7463C73.4965 96.6761 75.8212 94.1521 77.5141 92.1763L77.5166 92.1734C79.2481 90.1214 80.7057 87.9886 81.8875 85.7748C83.1068 83.5044 83.7282 81.2588 83.7282 79.0434C83.7282 76.9942 83.3398 75.3196 82.5071 74.0717C81.6589 72.7318 80.2799 72.0935 78.4886 72.0935C76.7099 72.0935 75.2955 72.8338 74.2984 74.2924L74.298 74.293C73.4176 75.585 72.933 77.259 72.8087 79.2805ZM94.565 87.8496H92.3591V70.0528H106.861V72.7385H94.8525H94.3525V73.2385V83.7425V85.6709L95.2895 83.9855C95.7876 83.0896 96.5267 82.3539 97.5248 81.7804L97.5249 81.7805L97.534 81.775C98.5261 81.1765 99.5891 80.8794 100.732 80.8794C102.609 80.8794 104.088 81.3887 105.215 82.3691L105.215 82.3691L105.221 82.3737C106.376 83.3507 107.206 84.6331 107.703 86.2399L107.703 86.24L107.705 86.2486C108.234 87.8531 108.5 89.566 108.5 91.3902C108.5 93.5536 108.186 95.4749 107.568 97.1613C106.956 98.833 106.023 100.133 104.777 101.082L104.774 101.085C103.57 102.019 102.056 102.5 100.198 102.5C97.8266 102.5 95.9453 101.718 94.5057 100.171C93.1516 98.7172 92.2744 96.7964 91.898 94.378H94.0842C94.4338 96.0132 95.0991 97.3435 96.1053 98.3345C97.2051 99.4178 98.5941 99.9526 100.234 99.9526C102.261 99.9526 103.84 99.16 104.892 97.5622L104.894 97.5582C105.913 95.9786 106.4 93.9401 106.4 91.4824C106.4 89.0316 105.915 87.0686 104.879 85.6597C103.82 84.1904 102.256 83.4729 100.269 83.4729C98.8948 83.4729 97.6763 83.9121 96.6348 84.7867C95.7066 85.5564 95.0204 86.5847 94.565 87.8496Z" stroke="black" stroke-opacity="0.15"/>
<path fill-rule="evenodd" clip-rule="evenodd" d="M74.0902 63.0315C82.6675 62.9586 89.3389 62.904 96.3889 64.1946C95.3026 62.181 93.6846 60.2902 91.5892 58.6013C83.2273 51.8393 69.6331 49.7322 58.8262 52.8683C62.9827 54.3873 66.7969 56.4453 70.0732 59.0423C71.6237 60.2931 72.9659 61.6289 74.0902 63.0315Z" fill="url(#paint5_linear_7071_3404)"/>
<path fill-rule="evenodd" clip-rule="evenodd" d="M9.63332 59.5387C23.3742 50.4246 45.6236 50.4246 59.2667 59.5387C61.0044 60.6995 62.5203 61.9772 63.8025 63.3488C48.7134 65.8171 41.3792 84.0975 40.178 97.6878C38.2746 97.8985 36.3501 98.0039 34.4257 98.0039C25.428 98.0039 16.4304 95.7009 9.58442 91.0948C3.42301 86.9788 0 81.3928 0 75.3658C0 69.3387 3.42301 63.7037 9.63332 59.5387Z" fill="url(#paint6_linear_7071_3404)"/>
<defs>
<linearGradient id="paint0_linear_7071_3404" x1="34.4257" y1="46.5013" x2="34.4257" y2="0" gradientUnits="userSpaceOnUse">
<stop stop-color="#00B59C"/>
<stop offset="1" stop-color="#9CFFAC"/>
</linearGradient>
<linearGradient id="paint1_linear_7071_3404" x1="73.8205" y1="45.254" x2="73.8205" y2="10.0781" gradientUnits="userSpaceOnUse">
<stop stop-color="#00B59C"/>
<stop offset="1" stop-color="#9CFFAC"/>
</linearGradient>
<linearGradient id="paint2_linear_7071_3404" x1="78" y1="103" x2="78" y2="69" gradientUnits="userSpaceOnUse">
<stop stop-color="#00B59C"/>
<stop offset="1" stop-color="#9CFFAC"/>
</linearGradient>
<linearGradient id="paint3_linear_7071_3404" x1="78" y1="103" x2="78" y2="69" gradientUnits="userSpaceOnUse">
<stop stop-color="#00B59C"/>
<stop offset="1" stop-color="#9CFFAC"/>
</linearGradient>
<linearGradient id="paint4_linear_7071_3404" x1="78" y1="103" x2="78" y2="69" gradientUnits="userSpaceOnUse">
<stop stop-color="#00B59C"/>
<stop offset="1" stop-color="#9CFFAC"/>
</linearGradient>
<linearGradient id="paint5_linear_7071_3404" x1="77.6076" y1="64.1946" x2="77.6076" y2="51.4453" gradientUnits="userSpaceOnUse">
<stop stop-color="#00B59C"/>
<stop offset="1" stop-color="#9CFFAC"/>
</linearGradient>
<linearGradient id="paint6_linear_7071_3404" x1="31.9012" y1="98.0038" x2="31.9012" y2="52.7031" gradientUnits="userSpaceOnUse">
<stop stop-color="#00B59C"/>
<stop offset="1" stop-color="#9CFFAC"/>
</linearGradient>
</defs>
</svg>
