<svg width="98" height="99" viewBox="0 0 98 99" fill="none" xmlns="http://www.w3.org/2000/svg">
<path d="M89.3867 0H8.61328C3.84707 0 0 3.84707 0 8.61328V66.418L49 72.1602L98 66.418V8.61328C98 3.84707 94.1529 0 89.3867 0Z" fill="url(#paint0_linear_7071_3389)"/>
<path d="M0 66.4297V72.1719C0 76.9381 3.84707 80.7852 8.61328 80.7852H34.6445V83.6562C34.6445 88.4225 30.7975 92.2695 26.0312 92.2695H20.2891C18.7021 92.2695 17.418 93.5537 17.418 95.1406C17.418 96.7276 18.7021 98.0117 20.2891 98.0117H77.7109C79.2979 98.0117 80.582 96.7276 80.582 95.1406C80.582 93.5537 79.2979 92.2695 77.7109 92.2695H71.9688C67.2025 92.2695 63.3555 88.4225 63.3555 83.6562V80.7852H89.3867C94.1529 80.7852 98 76.9381 98 72.1719V66.4297H0ZM34.6445 20.3008C34.6445 15.5512 30.7808 11.6875 26.0312 11.6875C21.2817 11.6875 17.418 15.5512 17.418 20.3008C17.418 25.0503 21.2817 28.9141 26.0312 28.9141C30.7808 28.9141 34.6445 25.0503 34.6445 20.3008ZM14.5469 51.8828H37.5156C39.1026 51.8828 40.3867 50.5987 40.3867 49.0117V37.5273C40.3867 32.7778 36.523 28.9141 31.7734 28.9141H26.0312H20.2891C15.5395 28.9141 11.6758 32.7778 11.6758 37.5273V49.0117C11.6758 50.5987 12.9599 51.8828 14.5469 51.8828ZM48.3944 21.2569L50.0973 21.8102L49.0448 23.2588C48.1111 24.5429 48.3971 26.3374 49.6785 27.2682C50.9728 28.2068 52.7642 27.9092 53.6879 26.6344L54.7422 25.1836L55.7965 26.6346C56.7198 27.909 58.5112 28.2072 59.8058 27.2684C61.0871 26.3375 61.3731 24.5431 60.4396 23.259L59.387 21.8104L61.09 21.257C62.5985 20.7665 63.4255 19.1458 62.935 17.6402C62.4415 16.1289 60.8264 15.3047 59.3181 15.7953L57.6133 16.3492V14.5586C57.6133 12.9716 56.3291 11.6875 54.7422 11.6875C53.1552 11.6875 51.8711 12.9716 51.8711 14.5586V16.3492L50.1664 15.7951C48.6551 15.3072 47.0402 16.1287 46.5496 17.64C46.0588 19.1456 46.8859 20.7663 48.3944 21.2569ZM71.3631 21.2569L73.0661 21.8102L72.0135 23.2588C71.0799 24.5429 71.3658 26.3374 72.6473 27.2682C73.9416 28.2068 75.7329 27.9092 76.6567 26.6344L77.7109 25.1836L78.7652 26.6346C79.6885 27.909 81.4799 28.2072 82.7746 27.2684C84.0559 26.3375 84.3418 24.5431 83.4083 23.259L82.3558 21.8104L84.0587 21.257C85.5672 20.7665 86.3943 19.1458 85.9037 17.6402C85.4103 16.1289 83.7841 15.3047 82.2869 15.7953L80.582 16.3492V14.5586C80.582 12.9716 79.2979 11.6875 77.7109 11.6875C76.124 11.6875 74.8398 12.9716 74.8398 14.5586V16.3492L73.1352 15.7951C71.6267 15.3072 70.0089 16.1287 69.5184 17.64C69.0276 19.1456 69.8547 20.7663 71.3631 21.2569ZM49 40.3984H83.4531C85.0401 40.3984 86.3242 39.1143 86.3242 37.5273C86.3242 35.9404 85.0401 34.6562 83.4531 34.6562H49C47.4131 34.6562 46.1289 35.9404 46.1289 37.5273C46.1289 39.1143 47.4131 40.3984 49 40.3984ZM49 51.8828H83.4531C85.0401 51.8828 86.3242 50.5987 86.3242 49.0117C86.3242 47.4248 85.0401 46.1406 83.4531 46.1406H49C47.4131 46.1406 46.1289 47.4248 46.1289 49.0117C46.1289 50.5987 47.4131 51.8828 49 51.8828Z" fill="url(#paint1_linear_7071_3389)"/>
<defs>
<linearGradient id="paint0_linear_7071_3389" x1="49" y1="72.1602" x2="49" y2="0" gradientUnits="userSpaceOnUse">
<stop stop-color="#C3FFE8"/>
<stop offset="0.9973" stop-color="#F0FFF4"/>
</linearGradient>
<linearGradient id="paint1_linear_7071_3389" x1="49" y1="98.0117" x2="49" y2="11.6875" gradientUnits="userSpaceOnUse">
<stop stop-color="#00B59C"/>
<stop offset="1" stop-color="#9CFFAC"/>
</linearGradient>
</defs>
</svg>
