<svg width="98" height="98" viewBox="0 0 98 98" fill="none" xmlns="http://www.w3.org/2000/svg">
<path d="M95.129 92.2579H2.8711C1.28549 92.2579 0 90.9724 0 89.3868C0 87.8012 1.28549 86.5157 2.8711 86.5157H95.129C96.7146 86.5157 98.0001 87.8012 98.0001 89.3868C98.0001 90.9724 96.7146 92.2579 95.129 92.2579ZM98.0001 56.4649V10.5274C98.0001 4.72257 93.2775 0 87.4727 0H10.5274C4.72257 0 0 4.72257 0 10.5274V56.4649C0 62.2697 4.72257 66.9922 10.5274 66.9922H87.4727C93.2775 66.9922 98.0001 62.2697 98.0001 56.4649Z" fill="url(#paint0_linear_7071_3399)"/>
<path d="M73.8828 97.9971C69.1335 97.9971 65.2696 94.1331 65.2696 89.3838C65.2696 84.6344 69.1335 80.7705 73.8828 80.7705C78.6322 80.7705 82.4961 84.6344 82.4961 89.3838C82.4961 94.1331 78.6322 97.9971 73.8828 97.9971ZM36.5586 48.8056V18.1806C36.5586 15.8875 39.1143 14.5198 41.0222 15.7916L63.991 31.1042C65.6956 32.2405 65.6956 34.7455 63.991 35.882L41.0222 51.1946C39.1143 52.4664 36.5586 51.0987 36.5586 48.8056Z" fill="url(#paint1_linear_7071_3399)"/>
<defs>
<linearGradient id="paint0_linear_7071_3399" x1="49" y1="92.2579" x2="49" y2="0" gradientUnits="userSpaceOnUse">
<stop stop-color="#00B59C"/>
<stop offset="1" stop-color="#9CFFAC"/>
</linearGradient>
<linearGradient id="paint1_linear_7071_3399" x1="59.5274" y1="97.9971" x2="59.5274" y2="15.3047" gradientUnits="userSpaceOnUse">
<stop stop-color="#C3FFE8"/>
<stop offset="0.9973" stop-color="#F0FFF4"/>
</linearGradient>
</defs>
</svg>
