<svg width="64" height="62" viewBox="0 0 64 62" fill="none" xmlns="http://www.w3.org/2000/svg">
<path fill-rule="evenodd" clip-rule="evenodd" d="M1.66951 60.1753H62.3313V23.7592H1.66951V60.1753ZM63.166 61.8448H0.834751C0.373969 61.8448 0 61.4709 0 61.01V22.9246C0 22.4623 0.373823 22.0898 0.834751 22.0898H63.166C63.6267 22.0898 64.0006 22.4623 64.0006 22.9246L64.0008 61.01C64.0008 61.4709 63.6267 61.8448 63.166 61.8448Z" fill="url(#paint0_linear_7071_3373)"/>
<path fill-rule="evenodd" clip-rule="evenodd" d="M58.2967 56.9772H45.1897C44.7291 56.9772 44.355 56.6032 44.355 56.1425C44.355 55.6817 44.7288 55.3077 45.1897 55.3077H57.462V28.6304H45.1897C44.7291 28.6304 44.355 28.2565 44.355 27.7957C44.355 27.3348 44.7288 26.9609 45.1897 26.9609H58.2967C58.7574 26.9609 59.1312 27.3348 59.1312 27.7957L59.1315 56.1425C59.1315 56.6032 58.7574 56.9772 58.2967 56.9772L58.2967 56.9772Z" fill="url(#paint1_linear_7071_3373)"/>
<path fill-rule="evenodd" clip-rule="evenodd" d="M18.8098 56.9772H5.70321C5.24213 56.9772 4.86816 56.6032 4.86816 56.1425L4.86846 27.7957C4.86846 27.3348 5.24213 26.9609 5.70292 26.9609H18.8098C19.2708 26.9609 19.6445 27.3348 19.6445 27.7957C19.6445 28.2565 19.2705 28.6304 18.8098 28.6304H6.53798V55.3077H18.8098C19.2708 55.3077 19.6445 55.6817 19.6445 56.1425C19.6445 56.6032 19.2705 56.9772 18.8098 56.9772L18.8098 56.9772Z" fill="url(#paint2_linear_7071_3373)"/>
<path fill-rule="evenodd" clip-rule="evenodd" d="M31.9997 31.3414C26.1392 31.3414 21.3697 36.1092 21.3697 41.9714C21.3697 47.832 26.139 52.6015 31.9997 52.6015C37.8619 52.6015 42.6296 47.832 42.6296 41.9714C42.6298 36.1092 37.8618 31.3414 31.9997 31.3414ZM31.9997 54.2709C25.2173 54.2709 19.7002 48.7537 19.7002 41.9714C19.7002 35.189 25.2173 29.6719 31.9997 29.6719C38.7821 29.6719 44.2991 35.189 44.2991 41.9714C44.2993 48.7537 38.782 54.2709 31.9997 54.2709Z" fill="url(#paint3_linear_7071_3373)"/>
<path fill-rule="evenodd" clip-rule="evenodd" d="M20.0767 23.7667C19.6147 23.7667 19.2419 23.3929 19.2419 22.932V15.8961H10.7829V22.932C10.7829 23.3929 10.409 23.7667 9.94803 23.7667C9.4874 23.7667 9.11328 23.3929 9.11328 22.932L9.11343 15.0613C9.11343 14.6004 9.48725 14.2266 9.94803 14.2266H20.0767C20.5377 14.2266 20.9114 14.6004 20.9114 15.0613V22.932C20.9114 23.3929 20.5376 23.7667 20.0767 23.7667H20.0767Z" fill="url(#paint4_linear_7071_3373)"/>
<path fill-rule="evenodd" clip-rule="evenodd" d="M37.0644 23.7723C36.6037 23.7723 36.2297 23.3984 36.2297 22.9375V11.6871H27.772V22.9375C27.772 23.3984 27.3981 23.7723 26.9373 23.7723C26.4765 23.7723 26.1025 23.3984 26.1025 22.9375V10.8523C26.1025 10.3915 26.4764 10.0177 26.9373 10.0177L37.0645 10.0176C37.5252 10.0176 37.8992 10.3915 37.8992 10.8525V22.9375C37.8992 23.3984 37.5252 23.7723 37.0645 23.7723L37.0644 23.7723Z" fill="url(#paint5_linear_7071_3373)"/>
<path fill-rule="evenodd" clip-rule="evenodd" d="M54.0542 23.7664C53.5934 23.7664 53.2195 23.3926 53.2195 22.9317V1.82366H44.7605V22.9317C44.7605 23.3926 44.3878 23.7664 43.9256 23.7664C43.4649 23.7664 43.0908 23.3926 43.0908 22.9317L43.091 0.988902C43.091 0.52812 43.4648 0.154297 43.9256 0.154297H54.0542C54.5153 0.154297 54.889 0.52812 54.889 0.989048V22.9317C54.889 23.3926 54.515 23.7664 54.0542 23.7664L54.0542 23.7664Z" fill="url(#paint6_linear_7071_3373)"/>
<path d="M34.7363 38.6506H33.3417C33.1982 38.3782 33.0101 38.1322 32.7853 37.923H34.7363C34.8321 37.923 34.924 37.8846 34.9917 37.8164C35.0595 37.7482 35.0976 37.6556 35.0976 37.5591C35.0976 37.4626 35.0595 37.3701 34.9917 37.3019C34.924 37.2336 34.8321 37.1953 34.7363 37.1953H28.2329C28.1371 37.1953 28.0452 37.2336 27.9774 37.3019C27.9096 37.3701 27.8716 37.4626 27.8716 37.5591C27.8716 37.6556 27.9096 37.7482 27.9774 37.8164C28.0452 37.8846 28.1371 37.923 28.2329 37.923H30.9607C31.2514 37.9232 31.5384 37.9887 31.8009 38.1145C32.0634 38.2404 32.2947 38.4235 32.4781 38.6506H28.2329C28.1371 38.6506 28.0452 38.689 27.9774 38.7572C27.9096 38.8254 27.8716 38.918 27.8716 39.0145C27.8716 39.111 27.9096 39.2035 27.9774 39.2717C28.0452 39.34 28.1371 39.3783 28.2329 39.3783H32.8539C32.9042 39.557 32.9297 39.7419 32.9298 39.9277C32.9307 40.4552 32.7241 40.9616 32.355 41.336C31.9859 41.7104 31.4845 41.9222 30.9607 41.9251H28.6448C28.5753 41.9252 28.5074 41.9454 28.4491 41.9834C28.3908 42.0213 28.3446 42.0754 28.316 42.1391C28.2874 42.2028 28.2776 42.2735 28.2879 42.3427C28.2981 42.4118 28.328 42.4765 28.3738 42.5291L32.5902 47.3825C32.6207 47.4208 32.6587 47.4524 32.7018 47.4755C32.7448 47.4986 32.7921 47.5126 32.8407 47.5168C32.8893 47.521 32.9382 47.5153 32.9845 47.4999C33.0308 47.4845 33.0736 47.4599 33.1102 47.4275C33.1468 47.395 33.1765 47.3554 33.1976 47.3111C33.2186 47.2668 33.2305 47.2187 33.2325 47.1696C33.2346 47.1205 33.2267 47.0715 33.2095 47.0256C33.1922 46.9797 33.1659 46.9377 33.1321 46.9023L29.4432 42.6528H30.9643C31.3644 42.6495 31.7589 42.5572 32.1194 42.3824C32.48 42.2076 32.7976 41.9547 33.0497 41.6417C33.3018 41.3288 33.482 40.9636 33.5774 40.5723C33.6729 40.1809 33.6812 39.7732 33.6018 39.3783H34.7363C34.8321 39.3783 34.924 39.34 34.9917 39.2717C35.0595 39.2035 35.0976 39.111 35.0976 39.0145C35.0976 38.918 35.0595 38.8254 34.9917 38.7572C34.924 38.689 34.8321 38.6506 34.7363 38.6506Z" fill="url(#paint7_linear_7071_3373)"/>
<defs>
<linearGradient id="paint0_linear_7071_3373" x1="32.0003" y1="21.1998" x2="32.0003" y2="61.9834" gradientUnits="userSpaceOnUse">
<stop stop-color="#00EFD1"/>
<stop offset="1" stop-color="#00ACEA"/>
</linearGradient>
<linearGradient id="paint1_linear_7071_3373" x1="51.7432" y1="26.2889" x2="51.7432" y2="57.0819" gradientUnits="userSpaceOnUse">
<stop stop-color="#00EFD1"/>
<stop offset="1" stop-color="#00ACEA"/>
</linearGradient>
<linearGradient id="paint2_linear_7071_3373" x1="12.2563" y1="26.2889" x2="12.2563" y2="57.0819" gradientUnits="userSpaceOnUse">
<stop stop-color="#00EFD1"/>
<stop offset="1" stop-color="#00ACEA"/>
</linearGradient>
<linearGradient id="paint3_linear_7071_3373" x1="31.9996" y1="29.1211" x2="31.9996" y2="54.3567" gradientUnits="userSpaceOnUse">
<stop stop-color="#00EFD1"/>
<stop offset="1" stop-color="#00ACEA"/>
</linearGradient>
<linearGradient id="paint4_linear_7071_3373" x1="15.0123" y1="14.013" x2="15.0123" y2="23.8" gradientUnits="userSpaceOnUse">
<stop stop-color="#00EFD1"/>
<stop offset="1" stop-color="#00ACEA"/>
</linearGradient>
<linearGradient id="paint5_linear_7071_3373" x1="32.0009" y1="9.70962" x2="32.0009" y2="23.8202" gradientUnits="userSpaceOnUse">
<stop stop-color="#00EFD1"/>
<stop offset="1" stop-color="#00ACEA"/>
</linearGradient>
<linearGradient id="paint6_linear_7071_3373" x1="48.9899" y1="-0.374356" x2="48.9899" y2="23.8488" gradientUnits="userSpaceOnUse">
<stop stop-color="#00EFD1"/>
<stop offset="1" stop-color="#00ACEA"/>
</linearGradient>
<linearGradient id="paint7_linear_7071_3373" x1="31.4846" y1="36.9642" x2="31.4846" y2="47.5542" gradientUnits="userSpaceOnUse">
<stop stop-color="#00EFD1"/>
<stop offset="1" stop-color="#00ACEA"/>
</linearGradient>
</defs>
</svg>
