<svg width="65" height="65" viewBox="0 0 65 65" fill="none" xmlns="http://www.w3.org/2000/svg">
<path d="M64.6945 14.7771L49.1967 0.26127C48.8247 -0.08709 48.2462 -0.08709 47.8742 0.26127L32.3764 14.7771C32.0865 15.0484 31.9922 15.4694 32.1381 15.8386C32.2839 16.2076 32.6407 16.4504 33.0377 16.4504H39.1356V19.0574C39.1356 19.5916 39.5686 20.0246 40.1029 20.0246C40.6371 20.0246 41.0701 19.5916 41.0701 19.0574V15.4832C41.0701 14.949 40.6371 14.516 40.1029 14.516H35.4852L48.5355 2.29265L61.5857 14.5159H56.9681C56.4339 14.5159 56.0009 14.9489 56.0009 15.4831V48.5905C56.0009 49.1247 56.4339 49.5578 56.9681 49.5578C57.5023 49.5578 57.9354 49.1247 57.9354 48.5905V16.4504H64.0333C64.4303 16.4504 64.7871 16.2078 64.9329 15.8386C65.0788 15.4693 64.9843 15.0484 64.6945 14.7771Z" fill="url(#paint0_linear_7071_3356)"/>
<path d="M56.9687 51.5039C56.4345 51.5039 56.0015 51.9369 56.0015 52.4712V62.8375H41.0707V62.0148C41.0707 61.4805 40.6377 61.0475 40.1035 61.0475C39.5693 61.0475 39.1362 61.4805 39.1362 62.0148V63.8048C39.1362 64.339 39.5693 64.7721 40.1035 64.7721H56.9689C57.5031 64.7721 57.9361 64.339 57.9361 63.8048V52.4713C57.936 51.9371 57.503 51.5039 56.9687 51.5039Z" fill="url(#paint1_linear_7071_3356)"/>
<path d="M24.3024 16.1621C23.7682 16.1621 23.3352 16.5951 23.3352 17.1294C23.3352 17.6636 23.7682 18.0966 24.3024 18.0966C36.6361 18.0966 46.6704 28.1309 46.6704 40.4645C46.6704 52.7982 36.6361 62.8325 24.3024 62.8325C11.9688 62.8325 1.93452 52.7982 1.93452 40.4645C1.93452 29.8233 9.49726 20.5968 19.9171 18.5261C20.441 18.422 20.7814 17.9129 20.6772 17.3889C20.5731 16.8649 20.0642 16.5243 19.5399 16.6288C8.21769 18.8788 0 28.9032 0 40.4645C0 53.865 10.902 64.767 24.3024 64.767C37.7029 64.767 48.6049 53.865 48.6049 40.4645C48.6049 27.0641 37.7029 16.1621 24.3024 16.1621Z" fill="url(#paint2_linear_7071_3356)"/>
<path d="M38.2519 26.5145C30.5607 18.8232 18.0464 18.8234 10.3553 26.5145C2.66411 34.2055 2.66411 46.7199 10.3553 54.4111C14.2009 58.2566 19.2522 60.1795 24.3037 60.1795C29.355 60.1795 34.4064 58.2567 38.2519 54.4111C45.9432 46.7199 45.9432 34.2055 38.2519 26.5145ZM36.884 53.043C29.9472 59.9799 18.66 59.98 11.7231 53.043C4.78626 46.1062 4.78626 34.819 11.7231 27.8821C15.1915 24.4138 19.7476 22.6795 24.3036 22.6795C28.8595 22.6795 33.4155 24.4136 36.884 27.8821C43.8209 34.8191 43.8209 46.1063 36.884 53.043Z" fill="url(#paint3_linear_7071_3356)"/>
<path d="M30.3 33.8196H27.598C27.3201 33.2919 26.9556 32.8152 26.52 32.4098H30.3C30.4857 32.4098 30.6637 32.3355 30.795 32.2033C30.9263 32.0711 31 31.8919 31 31.7049C31 31.518 30.9263 31.3387 30.795 31.2065C30.6637 31.0743 30.4857 31 30.3 31H17.7C17.5143 31 17.3363 31.0743 17.205 31.2065C17.0737 31.3387 17 31.518 17 31.7049C17 31.8919 17.0737 32.0711 17.205 32.2033C17.3363 32.3355 17.5143 32.4098 17.7 32.4098H22.985C23.5482 32.4103 24.1043 32.5371 24.6128 32.7809C25.1214 33.0248 25.5696 33.3796 25.925 33.8196H17.7C17.5143 33.8196 17.3363 33.8939 17.205 34.0261C17.0737 34.1583 17 34.3376 17 34.5245C17 34.7115 17.0737 34.8908 17.205 35.023C17.3363 35.1551 17.5143 35.2294 17.7 35.2294H26.653C26.7505 35.5757 26.7999 35.9339 26.8 36.2938C26.8019 37.3159 26.4014 38.297 25.6864 39.0224C24.9713 39.7477 23.9999 40.1581 22.985 40.1637H18.498C18.3635 40.1639 18.2319 40.2031 18.1189 40.2766C18.0059 40.3502 17.9164 40.4549 17.861 40.5784C17.8056 40.7019 17.7867 40.8388 17.8066 40.9727C17.8264 41.1067 17.8842 41.2321 17.973 41.3339L26.142 50.7373C26.2013 50.8114 26.2748 50.8726 26.3582 50.9173C26.4417 50.9621 26.5332 50.9893 26.6273 50.9974C26.7215 51.0056 26.8163 50.9944 26.9061 50.9646C26.9958 50.9349 27.0787 50.8871 27.1496 50.8243C27.2205 50.7614 27.2781 50.6847 27.3188 50.5989C27.3595 50.513 27.3826 50.4197 27.3865 50.3247C27.3905 50.2296 27.3753 50.1347 27.3419 50.0457C27.3084 49.9567 27.2575 49.8754 27.192 49.8068L20.045 41.5735H22.992C23.7672 41.5672 24.5315 41.3883 25.23 41.0497C25.9285 40.711 26.544 40.221 27.0323 39.6147C27.5207 39.0084 27.8699 38.3008 28.0548 37.5427C28.2397 36.7845 28.2558 35.9946 28.102 35.2294H30.3C30.4857 35.2294 30.6637 35.1551 30.795 35.023C30.9263 34.8908 31 34.7115 31 34.5245C31 34.3376 30.9263 34.1583 30.795 34.0261C30.6637 33.8939 30.4857 33.8196 30.3 33.8196Z" fill="url(#paint4_linear_7071_3356)"/>
<defs>
<linearGradient id="paint0_linear_7071_3356" x1="48.5354" y1="-1.10955" x2="48.5354" y2="49.7306" gradientUnits="userSpaceOnUse">
<stop stop-color="#00EFD1"/>
<stop offset="1" stop-color="#00ACEA"/>
</linearGradient>
<linearGradient id="paint1_linear_7071_3356" x1="48.5361" y1="51.2068" x2="48.5361" y2="64.8183" gradientUnits="userSpaceOnUse">
<stop stop-color="#00EFD1"/>
<stop offset="1" stop-color="#00ACEA"/>
</linearGradient>
<linearGradient id="paint2_linear_7071_3356" x1="24.3023" y1="15.0739" x2="24.3023" y2="64.9365" gradientUnits="userSpaceOnUse">
<stop stop-color="#00EFD1"/>
<stop offset="1" stop-color="#00ACEA"/>
</linearGradient>
<linearGradient id="paint3_linear_7071_3356" x1="24.3035" y1="19.8632" x2="24.3035" y2="60.317" gradientUnits="userSpaceOnUse">
<stop stop-color="#00EFD1"/>
<stop offset="1" stop-color="#00ACEA"/>
</linearGradient>
<linearGradient id="paint4_linear_7071_3356" x1="24" y1="30.5522" x2="24" y2="51.0698" gradientUnits="userSpaceOnUse">
<stop stop-color="#00EFD1"/>
<stop offset="1" stop-color="#00ACEA"/>
</linearGradient>
</defs>
</svg>
