<svg version="1.2" xmlns="http://www.w3.org/2000/svg" viewBox="0 0 1184 328" width="1184" height="328">
	<title>tag-list-svg</title>
	<defs>
		<clipPath clipPathUnits="userSpaceOnUse" id="cp1">
			<path d="m415.08 64h-225.03q-0.02-0.5-0.05-1h225.08c13.81 0 25 11.19 25 25v119q-0.5 0-1 0.01v-119.01c0-13.25-10.74-24-24-24z"/>
		</clipPath>
		<linearGradient id="g1" x1="135.5" y1="63" x2="433" y2="271" gradientUnits="userSpaceOnUse">
			<stop offset="0" stop-color="#1ed0cb"/>
			<stop offset="1" stop-color="#089e9a"/>
		</linearGradient>
		<clipPath clipPathUnits="userSpaceOnUse" id="cp2">
			<path d="m1023.08 64h-225.03q-0.02-0.5-0.05-1h225.08c13.81 0 25 11.19 25 25v119q-0.5 0-1 0.01v-119.01c0-13.25-10.74-24-24-24z"/>
		</clipPath>
		<linearGradient id="g2" x1="770.5" y1="63" x2="1048" y2="270" gradientUnits="userSpaceOnUse">
			<stop offset="0" stop-color="#ffce02"/>
			<stop offset="1" stop-color="#e88832"/>
		</linearGradient>
		<clipPath clipPathUnits="userSpaceOnUse" id="cp3">
			<path d="m743.08 240.01v-119.01q0.5 0.01 1 0.01v119c0 13.81-11.19 25-25 25h-225.08q0.03-0.5 0.05-1h225.03c13.26 0 24-10.75 24-24z"/>
		</clipPath>
		<linearGradient id="g3" x1="441.5" y1="265" x2="744" y2="53.5" gradientUnits="userSpaceOnUse">
			<stop offset="0" stop-color="#089e9a"/>
			<stop offset="1" stop-color="#ffce02"/>
		</linearGradient>
	</defs>
	<style>
		.s0 { fill: #1ed0cb } 
		.s1 { fill: #ffce02 } 
		.s2 { fill: #089e9a } 
		.s3 { fill: #e88832 } 
		.s4 { fill: #000000 } 
		.s5 { fill: none;stroke: #1ed0cb } 
		.s6 { fill: #e2fffe } 
		.s7 { fill: #d6fffe } 
		.s8 { fill: #fff8d9 } 
		.s9 { fill: #ffe1c6 } 
		.s10 { fill: none;stroke: #ffce02 } 
		.s11 { fill: none;stroke: #089e9a } 
		.s12 { fill: none;stroke: #e88832 } 
		.s13 { fill: url(#g1) } 
		.s14 { fill: url(#g2) } 
		.s15 { fill: url(#g3) } 
		.s16 { fill: #0cbcb7 } 
	</style>
	<path id="Layer" fill-rule="evenodd" class="s0" d="m3.4-128.9q0-11.1 4-17.4 4-6.3 13.3-6.3 9.3 0 13.2 6.3 4.1 6.3 4.1 17.4 0 11.1-4.1 17.4-3.9 6.4-13.2 6.4-9.3 0-13.3-6.4-4-6.3-4-17.4zm25.7 0q0-4.8-0.6-8-0.6-3.2-2.5-5.3-1.7-2-5.3-2-3.6 0-5.5 2-1.8 2.1-2.4 5.3-0.6 3.2-0.6 8 0 4.8 0.6 8.2 0.6 3.2 2.4 5.3 1.9 2 5.5 2 3.6 0 5.4-2 1.9-2.1 2.4-5.3 0.6-3.4 0.6-8.2zm14.6-14.5v-8.3h15.4v46.7h-9.2v-38.4z"/>
	<path id="Layer" fill-rule="evenodd" class="s1" d="m633.4-99.9q0-11.1 4-17.4 4-6.3 13.3-6.3 9.3 0 13.2 6.3 4.1 6.3 4.1 17.4 0 11.1-4.1 17.4-3.9 6.4-13.2 6.4-9.3 0-13.3-6.4-4-6.3-4-17.4zm25.7 0q0-4.8-0.6-8-0.6-3.2-2.5-5.3-1.7-2-5.3-2-3.6 0-5.5 2-1.8 2.1-2.4 5.3-0.6 3.2-0.6 8 0 4.8 0.6 8.2 0.6 3.2 2.4 5.3 1.9 2 5.5 2 3.6 0 5.4-2 1.9-2.1 2.4-5.3 0.6-3.4 0.6-8.2zm15.8-10.5q0.3-6.4 4.5-9.8 4.2-3.5 11-3.5 4.7 0 8 1.6 3.4 1.6 5 4.4 1.8 2.8 1.8 6.3 0 4-2.1 6.9-2.1 2.7-5 3.7v0.2q3.7 1.2 5.8 4.1 2.1 3 2.1 7.6 0 3.8-1.8 6.8-1.7 3-5.2 4.8-3.4 1.6-8.2 1.6-7.2 0-11.7-3.6-4.6-3.7-4.8-10.8h8.7q0.1 3.2 2.1 5.1 2 1.8 5.5 1.8 3.3 0 5-1.8 1.8-1.8 1.8-4.7 0-3.8-2.4-5.5-2.4-1.7-7.6-1.7h-1.8v-7.3h1.8q9.1 0 9.1-6.1 0-2.8-1.6-4.3-1.6-1.5-4.7-1.5-3 0-4.7 1.6-1.6 1.6-1.8 4.1z"/>
	<path id="Layer" fill-rule="evenodd" class="s2" d="m304.4 361.1q0-11.1 4-17.4 4-6.3 13.3-6.3 9.3 0 13.2 6.3 4.1 6.3 4.1 17.4 0 11.1-4.1 17.4-3.9 6.4-13.2 6.4-9.3 0-13.3-6.4-4-6.3-4-17.4zm25.7 0q0-4.8-0.6-8-0.6-3.2-2.5-5.3-1.7-2-5.3-2-3.6 0-5.5 2-1.8 2.1-2.4 5.3-0.6 3.2-0.6 8 0 4.8 0.6 8.2 0.6 3.2 2.4 5.3 1.9 2 5.5 2 3.6 0 5.4-2 1.9-2.1 2.4-5.3 0.6-3.4 0.6-8.2zm18.5 13.8q6.1-5.1 9.8-8.5 3.6-3.5 6.1-7.2 2.4-3.7 2.4-7.3 0-3.3-1.5-5.1-1.6-1.9-4.8-1.9-3.2 0-4.9 2.2-1.7 2.1-1.8 5.8h-8.7q0.2-7.6 4.5-11.6 4.4-4 11-4 7.3 0 11.2 3.9 3.9 3.9 3.9 10.2 0 5-2.6 9.5-2.7 4.6-6.2 8-3.4 3.3-9 8h18.9v7.5h-31.6v-6.7z"/>
	<path id="Layer" fill-rule="evenodd" class="s3" d="m914.4 361.1q0-11.1 4-17.4 4-6.3 13.3-6.3 9.3 0 13.2 6.3 4.1 6.3 4.1 17.4 0 11.1-4.1 17.4-3.9 6.4-13.2 6.4-9.3 0-13.3-6.4-4-6.3-4-17.4zm25.7 0q0-4.8-0.6-8-0.6-3.2-2.5-5.3-1.7-2-5.3-2-3.6 0-5.5 2-1.8 2.1-2.4 5.3-0.6 3.2-0.6 8 0 4.8 0.6 8.2 0.6 3.2 2.4 5.3 1.9 2 5.5 2 3.6 0 5.4-2 1.9-2.1 2.4-5.3 0.6-3.4 0.6-8.2zm15.3 14.8v-7l20.9-30h10.4v29.2h5.7v7.8h-5.7v9.1h-8.9v-9.1zm23-27.4l-13.2 19.6h13.2z"/>
	<path id="Layer" fill-rule="evenodd" class="s4" d="m10.2-54.8q-2.5 0-4.7-1.2-2.1-1.2-3.3-3.3-1.3-2.1-1.3-4.8 0-2.7 1.3-4.8 1.2-2.1 3.3-3.3 2.2-1.2 4.7-1.2 2.6 0 4.7 1.2 2.1 1.2 3.4 3.3 1.2 2.1 1.2 4.8 0 2.7-1.2 4.8-1.3 2.1-3.4 3.3-2.1 1.2-4.7 1.2zm0-3.3q1.7 0 2.9-0.7 1.3-0.8 2-2.1 0.7-1.4 0.7-3.2 0-1.8-0.7-3.2-0.7-1.4-2-2.1-1.2-0.7-2.9-0.7-1.6 0-2.9 0.7-1.2 0.7-1.9 2.1-0.7 1.4-0.7 3.2 0 1.8 0.7 3.2 0.7 1.3 1.9 2.1 1.3 0.7 2.9 0.7zm15.6-9.2q0.8-1 2-1.7 1.2-0.6 2.8-0.6 1.9 0 3.3 0.9 1.5 0.9 2.4 2.6 0.9 1.6 0.9 3.8 0 2.3-0.9 4-0.9 1.7-2.4 2.6-1.4 0.9-3.3 0.9-1.6 0-2.8-0.6-1.2-0.7-2-1.7v9h-3.6v-21.3h3.6zm7.7 5.1q0-1.3-0.6-2.3-0.5-0.9-1.4-1.4-0.8-0.5-1.9-0.5-0.9 0-1.8 0.5-0.9 0.5-1.4 1.5-0.6 0.9-0.6 2.2 0 1.3 0.6 2.3 0.5 0.9 1.4 1.5 0.9 0.5 1.8 0.5 1.1 0 1.9-0.6 0.9-0.5 1.4-1.4 0.6-1 0.6-2.3zm19.7-0.3q0 0.8-0.1 1.4h-10.5q0.1 1.6 1.1 2.5 0.9 0.8 2.3 0.8 2.1 0 2.9-1.7h4q-0.7 2.1-2.4 3.4-1.8 1.4-4.4 1.4-2.1 0-3.7-1-1.7-0.9-2.6-2.6-0.9-1.7-0.9-3.9 0-2.2 0.9-3.9 0.9-1.7 2.6-2.6 1.6-0.9 3.7-0.9 2.1 0 3.7 0.9 1.6 0.8 2.5 2.5 0.9 1.6 0.9 3.7zm-3.8-1q0-1.4-1-2.3-1-0.8-2.4-0.8-1.3 0-2.3 0.8-0.9 0.8-1.1 2.3zm14.4-6.1q2.6 0 4.2 1.6 1.6 1.7 1.6 4.6v8.4h-3.7v-7.9q0-1.8-0.8-2.7-0.9-0.9-2.4-0.9-1.5 0-2.4 0.9-0.8 0.9-0.8 2.7v7.9h-3.7v-14.4h3.7v1.8q0.7-0.9 1.8-1.4 1.2-0.6 2.5-0.6zm21.8-3.5q2.8 0 5 1.1 2.2 1.1 3.3 3.2 1.2 2 1.2 4.8 0 2.7-1.2 4.8-1.1 2-3.3 3.1-2.2 1.1-5 1.1h-6.4v-18.1zm-0.1 15q2.9 0 4.4-1.5 1.6-1.6 1.6-4.4 0-2.9-1.6-4.4-1.5-1.7-4.4-1.7h-2.6v12zm25.8-4.4q0 0.8-0.1 1.4h-10.5q0.1 1.6 1.1 2.5 1 0.8 2.4 0.8 2 0 2.8-1.7h4q-0.7 2.1-2.4 3.4-1.8 1.4-4.4 1.4-2 0-3.7-1-1.6-0.9-2.6-2.6-0.9-1.7-0.9-3.9 0-2.2 0.9-3.9 0.9-1.7 2.6-2.6 1.6-0.9 3.7-0.9 2.1 0 3.7 0.9 1.6 0.8 2.5 2.5 0.9 1.6 0.9 3.7zm-3.7-1q-0.1-1.4-1.1-2.3-0.9-0.8-2.4-0.8-1.3 0-2.3 0.8-0.9 0.8-1.1 2.3zm24.3-6.1q2.7 0 4.3 1.6 1.6 1.7 1.6 4.6v8.4h-3.6v-7.9q0-1.7-0.9-2.6-0.8-0.9-2.3-0.9-1.5 0-2.4 0.9-0.8 0.9-0.8 2.6v7.9h-3.7v-7.9q0-1.7-0.8-2.6-0.9-0.9-2.4-0.9-1.5 0-2.4 0.9-0.8 0.9-0.8 2.6v7.9h-3.6v-14.4h3.6v1.8q0.7-1 1.8-1.5 1.1-0.5 2.4-0.5 1.7 0 3 0.7 1.4 0.7 2.1 2.1 0.7-1.3 2-2 1.4-0.8 2.9-0.8zm8.5 7.4q0-2.2 0.8-3.9 0.9-1.7 2.4-2.6 1.5-0.9 3.3-0.9 1.6 0 2.8 0.6 1.3 0.7 2 1.7v-2.1h3.7v14.4h-3.7v-2.1q-0.7 1-2 1.7-1.2 0.7-2.8 0.7-1.8 0-3.3-1-1.5-0.9-2.4-2.6-0.8-1.7-0.8-3.9zm11.3 0q0-1.3-0.5-2.2-0.5-1-1.4-1.5-0.9-0.5-1.9-0.5-1 0-1.9 0.5-0.9 0.5-1.4 1.4-0.5 1-0.5 2.3 0 1.3 0.5 2.3 0.5 0.9 1.4 1.4 0.9 0.6 1.9 0.6 1 0 1.9-0.5 0.9-0.6 1.4-1.5 0.5-1 0.5-2.3zm11.5-4.2v7q0 0.7 0.3 1 0.4 0.4 1.2 0.4h1.7v3h-2.3q-4.6 0-4.6-4.5v-6.9h-1.7v-3h1.7v-3.5h3.7v3.5h3.2v3zm-150.1 47h-7.3l-1.2 3.4h-3.8l6.5-18.2h4.3l6.5 18.2h-3.9zm-0.9-2.9l-2.7-7.6-2.6 7.6zm7.5-0.8q0-2.3 1-3.9 0.9-1.7 2.5-2.6 1.6-1 3.7-1 2.6 0 4.4 1.4 1.8 1.3 2.4 3.7h-4q-0.3-0.9-1-1.4-0.8-0.6-1.9-0.6-1.5 0-2.4 1.2-0.9 1.1-0.9 3.2 0 2 0.9 3.2 0.9 1.1 2.4 1.1 2.3 0 2.9-2h4q-0.6 2.4-2.4 3.7-1.8 1.4-4.4 1.4-2.1 0-3.7-0.9-1.6-0.9-2.5-2.6-1-1.7-1-3.9zm15.7 0q0-2.3 0.9-3.9 0.9-1.7 2.5-2.6 1.6-1 3.7-1 2.7 0 4.4 1.4 1.8 1.3 2.4 3.7h-3.9q-0.3-0.9-1.1-1.4-0.7-0.6-1.8-0.6-1.6 0-2.5 1.2-0.9 1.1-0.9 3.2 0 2 0.9 3.2 0.9 1.1 2.5 1.1 2.2 0 2.9-2h3.9q-0.6 2.4-2.4 3.7-1.7 1.4-4.4 1.4-2.1 0-3.7-0.9-1.6-0.9-2.5-2.6-0.9-1.7-0.9-3.9zm23 7.4q-2.1 0-3.8-0.9-1.7-0.9-2.6-2.6-0.9-1.7-0.9-3.9 0-2.2 0.9-3.9 1-1.7 2.7-2.6 1.7-1 3.8-1 2 0 3.7 1 1.7 0.9 2.7 2.6 1 1.7 1 3.9 0 2.2-1 3.9-1 1.7-2.7 2.6-1.7 0.9-3.8 0.9zm0-3.2q0.9 0 1.8-0.4 0.9-0.5 1.4-1.5 0.5-0.9 0.5-2.3 0-2.1-1.1-3.2-1-1.1-2.6-1.1-1.6 0-2.6 1.1-1.1 1.1-1.1 3.2 0 2 1.1 3.1 1 1.1 2.6 1.1zm23.7-11.4v14.4h-3.6v-1.8q-0.7 0.9-1.9 1.4-1.1 0.6-2.4 0.6-1.7 0-3-0.7-1.3-0.8-2.1-2.1-0.7-1.5-0.7-3.4v-8.4h3.7v7.9q0 1.7 0.8 2.7 0.9 0.9 2.3 0.9 1.6 0 2.4-0.9 0.9-1 0.9-2.7v-7.9zm11.5-0.2q2.6 0 4.2 1.6 1.6 1.6 1.6 4.5v8.5h-3.6v-8q0-1.7-0.9-2.6-0.9-0.9-2.3-0.9-1.6 0-2.4 0.9-0.9 0.9-0.9 2.6v8h-3.6v-14.4h3.6v1.8q0.7-1 1.9-1.5 1.1-0.5 2.4-0.5zm13.5 3.2v6.9q0 0.8 0.3 1.1 0.4 0.3 1.2 0.3h1.7v3.1h-2.3q-4.6 0-4.6-4.5v-6.9h-1.7v-3h1.7v-3.6h3.7v3.6h3.2v3z"/>
	<path id="Layer" fill-rule="evenodd" class="s4" d="m635.4-44.1v18.1h-3.6v-18.1zm16.8 5.6q0 1.4-0.7 2.7-0.7 1.3-2.1 2.1-1.5 0.7-3.7 0.7h-3.1v7h-3.6v-18.1h6.7q2.1 0 3.6 0.7 1.4 0.7 2.2 2 0.7 1.3 0.7 2.9zm-6.7 2.6q1.5 0 2.3-0.7 0.7-0.7 0.7-1.9 0-2.7-3-2.7h-2.9v5.3zm17.7 10.1q-2.5 0-4.6-1.2-2.2-1.2-3.4-3.3-1.3-2.1-1.3-4.8 0-2.7 1.3-4.8 1.2-2.1 3.4-3.3 2.1-1.2 4.6-1.2 2.6 0 4.7 1.2 2.2 1.2 3.4 3.3 1.2 2.1 1.2 4.8 0 2.7-1.2 4.8-1.2 2.1-3.4 3.3-2.1 1.2-4.7 1.2zm0-3.3q1.7 0 2.9-0.7 1.3-0.7 2-2.1 0.7-1.4 0.7-3.2 0-1.8-0.7-3.2-0.7-1.4-2-2.1-1.2-0.7-2.9-0.7-1.6 0-2.9 0.7-1.2 0.7-1.9 2.1-0.7 1.4-0.7 3.2 0 1.8 0.7 3.2 0.7 1.4 1.9 2.1 1.3 0.7 2.9 0.7zm29.4-0.4h-7.3l-1.2 3.5h-3.8l6.5-18.2h4.3l6.5 18.2h-3.8zm-1-2.9l-2.7-7.6-2.6 7.6zm12.1-12.9v19.3h-3.6v-19.3zm7.2 0v19.3h-3.6v-19.3zm10 19.5q-2.1 0-3.8-0.9-1.6-1-2.6-2.6-0.9-1.7-0.9-3.9 0-2.3 0.9-3.9 1-1.7 2.7-2.6 1.7-1 3.8-1 2.1 0 3.8 1 1.6 0.9 2.6 2.6 1 1.6 1 3.9 0 2.2-1 3.9-1 1.6-2.7 2.6-1.7 0.9-3.8 0.9zm0-3.2q1 0 1.8-0.4 0.9-0.5 1.4-1.5 0.5-1 0.5-2.3 0-2.1-1-3.2-1.1-1.1-2.7-1.1-1.5 0-2.6 1.1-1 1.1-1 3.2 0 2 1 3.1 1 1.1 2.6 1.1zm14.4-8.5v7q0 0.7 0.3 1.1 0.4 0.3 1.2 0.3h1.7v3.1h-2.3q-4.6 0-4.6-4.5v-7h-1.7v-2.9h1.7v-3.6h3.7v3.6h3.2v2.9zm23.8-3.2q2.6 0 4.2 1.7 1.7 1.6 1.7 4.5v8.5h-3.7v-8q0-1.7-0.8-2.6-0.9-0.9-2.4-0.9-1.5 0-2.3 0.9-0.9 0.9-0.9 2.6v8h-3.6v-8q0-1.7-0.9-2.6-0.9-0.9-2.3-0.9-1.6 0-2.4 0.9-0.9 0.9-0.9 2.6v8h-3.6v-14.4h3.6v1.7q0.7-0.9 1.8-1.4 1.1-0.6 2.4-0.6 1.7 0 3.1 0.8 1.3 0.7 2 2 0.7-1.2 2-2 1.4-0.8 3-0.8zm22.7 7.1q0 0.8-0.1 1.4h-10.5q0.1 1.6 1.1 2.5 0.9 0.9 2.3 0.9 2.1 0 2.9-1.8h3.9q-0.6 2.1-2.4 3.5-1.7 1.3-4.3 1.3-2.1 0-3.7-0.9-1.7-1-2.6-2.6-0.9-1.7-0.9-3.9 0-2.3 0.9-4 0.9-1.7 2.5-2.6 1.7-0.9 3.8-0.9 2.1 0 3.7 0.9 1.6 0.9 2.5 2.5 0.9 1.6 0.9 3.7zm-3.8-1q0-1.4-1-2.2-1-0.9-2.4-0.9-1.4 0-2.3 0.8-0.9 0.8-1.1 2.3zm14.4-6.1q2.6 0 4.2 1.7 1.5 1.6 1.5 4.5v8.5h-3.6v-8q0-1.7-0.9-2.6-0.8-1-2.3-1-1.5 0-2.4 1-0.8 0.9-0.8 2.6v8h-3.7v-14.4h3.7v1.7q0.7-0.9 1.8-1.4 1.1-0.6 2.5-0.6zm13.4 3.2v7q0 0.7 0.4 1.1 0.3 0.3 1.2 0.3h1.7v3.1h-2.3q-4.6 0-4.6-4.5v-7h-1.7v-2.9h1.7v-3.6h3.6v3.6h3.3v2.9z"/>
	<path id="Layer" fill-rule="evenodd" class="s4" d="m313.1 435.7q1.5 0.3 2.5 1.5 1 1.3 1 2.9 0 1.4-0.7 2.6-0.7 1.1-2.1 1.7-1.3 0.6-3.2 0.6h-7.8v-18.1h7.5q1.8 0 3.2 0.6 1.3 0.5 2 1.6 0.7 1.1 0.7 2.4 0 1.6-0.9 2.7-0.8 1.1-2.2 1.5zm-6.7-1.4h3.4q1.3 0 2-0.5 0.7-0.6 0.7-1.7 0-1.1-0.7-1.7-0.7-0.6-2-0.6h-3.4zm3.7 7.7q1.3 0 2.1-0.6 0.7-0.7 0.7-1.8 0-1.2-0.8-1.8-0.8-0.7-2.1-0.7h-3.6v4.9zm11.3-13.2q-1 0-1.6-0.6-0.7-0.6-0.7-1.5 0-0.9 0.7-1.5 0.6-0.6 1.6-0.6 0.9 0 1.6 0.6 0.6 0.6 0.6 1.5 0 0.9-0.6 1.5-0.7 0.6-1.6 0.6zm1.8 1.7v14.4h-3.7v-14.4zm2.7 7.2q0-2.2 0.9-3.9 0.8-1.7 2.3-2.6 1.6-0.9 3.4-0.9 1.4 0 2.7 0.6 1.3 0.6 2 1.6v-6.8h3.7v19.2h-3.7v-2.1q-0.7 1.1-1.9 1.7-1.2 0.7-2.8 0.7-1.8 0-3.4-1-1.5-0.9-2.3-2.6-0.9-1.7-0.9-3.9zm11.3 0q0-1.3-0.5-2.2-0.5-1-1.4-1.5-0.9-0.5-1.9-0.5-1 0-1.9 0.5-0.8 0.5-1.4 1.5-0.5 0.9-0.5 2.2 0 1.3 0.5 2.3 0.6 0.9 1.4 1.5 0.9 0.5 1.9 0.5 1 0 1.9-0.5 0.9-0.5 1.4-1.5 0.5-0.9 0.5-2.3zm24.7-10.9v2.9h-7.6v4.7h5.8v2.9h-5.8v7.6h-3.7v-18.1zm9 18.4q-2.1 0-3.7-0.9-1.7-1-2.6-2.7-1-1.6-1-3.9 0-2.2 1-3.9 1-1.6 2.7-2.6 1.6-0.9 3.7-0.9 2.1 0 3.8 0.9 1.7 1 2.7 2.6 0.9 1.7 0.9 3.9 0 2.3-1 3.9-1 1.7-2.7 2.7-1.7 0.9-3.8 0.9zm0-3.2q1 0 1.9-0.5 0.9-0.5 1.4-1.4 0.5-1 0.5-2.4 0-2-1.1-3.1-1.1-1.1-2.6-1.1-1.6 0-2.6 1.1-1.1 1.1-1.1 3.1 0 2.1 1 3.2 1.1 1.1 2.6 1.1zm13.8-9.2q0.8-1.2 1.9-1.8 1.1-0.7 2.6-0.7v3.9h-1q-1.7 0-2.6 0.8-0.9 0.8-0.9 2.8v7.1h-3.6v-14.4h3.6zm16.8-5.9v18.1h-3.7v-18.1zm16.8 5.6q0 1.4-0.7 2.7-0.6 1.3-2.1 2.1-1.5 0.7-3.7 0.7h-3v7h-3.7v-18.1h6.7q2.1 0 3.6 0.7 1.5 0.7 2.2 2 0.7 1.3 0.7 2.9zm-6.7 2.6q1.5 0 2.3-0.7 0.7-0.7 0.7-1.9 0-2.7-3-2.7h-2.8v5.3zm17.7 10.1q-2.6 0-4.7-1.2-2.1-1.2-3.4-3.3-1.2-2.1-1.2-4.8 0-2.7 1.2-4.8 1.3-2.1 3.4-3.3 2.1-1.2 4.7-1.2 2.5 0 4.6 1.2 2.2 1.2 3.4 3.3 1.3 2.1 1.3 4.8 0 2.7-1.3 4.8-1.2 2.1-3.4 3.3-2.1 1.2-4.6 1.2zm0-3.3q1.6 0 2.9-0.7 1.2-0.7 1.9-2.1 0.7-1.4 0.7-3.2 0-1.8-0.7-3.2-0.7-1.4-1.9-2.1-1.3-0.7-2.9-0.7-1.7 0-2.9 0.7-1.3 0.7-2 2.1-0.7 1.4-0.7 3.2 0 1.8 0.7 3.2 0.7 1.4 2 2.1 1.2 0.7 2.9 0.7z"/>
	<path id="Layer" fill-rule="evenodd" class="s4" d="m919.1 445.2q-1.9 0-3.5-0.7-1.5-0.6-2.4-1.8-0.8-1.3-0.9-2.9h3.9q0.1 1.1 0.8 1.7 0.7 0.7 2 0.7 1.3 0 2-0.6 0.7-0.6 0.7-1.6 0-0.8-0.5-1.3-0.5-0.6-1.2-0.8-0.8-0.4-2.1-0.7-1.7-0.5-2.8-1-1.1-0.6-1.9-1.6-0.8-1-0.8-2.7 0-1.6 0.8-2.8 0.8-1.2 2.2-1.9 1.5-0.6 3.4-0.6 2.8 0 4.5 1.4 1.8 1.3 2 3.8h-4q-0.1-1-0.8-1.6-0.8-0.6-2-0.6-1.1 0-1.7 0.6-0.6 0.5-0.6 1.5 0 0.8 0.4 1.3 0.5 0.4 1.2 0.7 0.8 0.3 2.1 0.7 1.7 0.5 2.9 1.1 1.1 0.5 1.9 1.5 0.8 1.1 0.8 2.7 0 1.5-0.8 2.8-0.7 1.2-2.2 2-1.4 0.7-3.4 0.7zm17.6-14.8q1.7 0 3 0.7 1.2 0.7 1.9 2.1 0.8 1.4 0.8 3.3v8.5h-3.7v-8q0-1.7-0.8-2.6-0.9-0.9-2.4-0.9-1.5 0-2.4 0.9-0.8 0.9-0.8 2.6v8h-3.7v-19.2h3.7v6.6q0.7-0.9 1.8-1.5 1.2-0.5 2.6-0.5zm8.2 7.3q0-2.1 0.8-3.8 0.9-1.7 2.4-2.6 1.5-0.9 3.4-0.9 1.6 0 2.8 0.6 1.2 0.7 1.9 1.6v-2h3.7v14.4h-3.7v-2.1q-0.7 1-1.9 1.7-1.2 0.6-2.9 0.6-1.8 0-3.3-0.9-1.5-0.9-2.4-2.6-0.8-1.7-0.8-4zm11.3 0.1q0-1.3-0.5-2.3-0.5-0.9-1.4-1.4-0.9-0.5-1.9-0.5-1 0-1.9 0.5-0.8 0.4-1.4 1.4-0.5 0.9-0.5 2.2 0 1.3 0.5 2.3 0.6 1 1.4 1.5 0.9 0.5 1.9 0.5 1 0 1.9-0.5 0.9-0.5 1.4-1.4 0.5-1 0.5-2.3zm10.9-5q0.7-1.1 1.8-1.8 1.2-0.6 2.6-0.6v3.8h-1q-1.7 0-2.6 0.8-0.8 0.8-0.8 2.8v7.2h-3.7v-14.4h3.7zm20.2 4.7q0 0.7-0.1 1.4h-10.5q0.1 1.5 1.1 2.4 1 0.9 2.4 0.9 2 0 2.9-1.8h3.9q-0.6 2.1-2.4 3.5-1.8 1.3-4.3 1.3-2.1 0-3.8-0.9-1.6-0.9-2.6-2.6-0.9-1.7-0.9-3.9 0-2.3 0.9-4 0.9-1.7 2.6-2.6 1.6-0.9 3.8-0.9 2 0 3.6 0.9 1.7 0.9 2.5 2.5 1 1.6 0.9 3.8zm-3.7-1.1q0-1.4-1-2.2-1-0.9-2.5-0.9-1.3 0-2.2 0.8-0.9 0.9-1.2 2.3zm12 8.8q-1.8 0-3.2-0.6-1.4-0.7-2.2-1.8-0.8-1.1-0.9-2.4h3.7q0.1 0.8 0.8 1.4 0.7 0.5 1.8 0.5 1 0 1.6-0.4 0.6-0.4 0.6-1 0-0.7-0.8-1.1-0.7-0.3-2.2-0.8-1.6-0.4-2.7-0.8-1-0.4-1.7-1.2-0.8-0.9-0.8-2.4 0-1.2 0.7-2.1 0.7-1 2-1.6 1.3-0.6 3-0.6 2.6 0 4.1 1.3 1.6 1.3 1.7 3.5h-3.5q0-0.9-0.7-1.4-0.6-0.5-1.7-0.5-1 0-1.5 0.4-0.5 0.3-0.5 1 0 0.7 0.7 1.1 0.7 0.4 2.3 0.8 1.5 0.4 2.5 0.8 1 0.4 1.8 1.3 0.7 0.8 0.8 2.3-0.1 1.2-0.8 2.2-0.6 1-1.9 1.6-1.3 0.5-3 0.5zm14-9.3q-0.1-2.7 1.1-4.8 1.3-2.2 3.3-3.3 2.2-1.2 4.8-1.2 3 0 5.3 1.5 2.3 1.6 3.2 4.4h-4.2q-0.6-1.3-1.8-2-1.1-0.6-2.6-0.6-1.6 0-2.8 0.7-1.2 0.7-1.9 2.1-0.7 1.3-0.7 3.2 0 1.8 0.7 3.1 0.7 1.4 1.9 2.1 1.2 0.8 2.8 0.8 1.5 0 2.6-0.7 1.2-0.7 1.8-2h4.2q-0.9 2.8-3.2 4.4-2.3 1.5-5.3 1.5-2.6 0-4.8-1.1-2-1.2-3.3-3.4-1.2-2.1-1.1-4.7zm24.4-3.1q0.7-1.1 1.9-1.8 1.1-0.6 2.6-0.6v3.8h-1q-1.7 0-2.6 0.8-0.9 0.8-0.9 2.8v7.2h-3.6v-14.4h3.6zm20.3 4.6q0 0.8-0.1 1.4h-10.5q0.1 1.6 1.1 2.5 0.9 0.8 2.3 0.8 2 0 2.9-1.7h3.9q-0.6 2.1-2.4 3.4-1.7 1.4-4.3 1.4-2.1 0-3.7-0.9-1.7-1-2.6-2.7-0.9-1.7-0.9-3.9 0-2.2 0.9-3.9 0.9-1.7 2.5-2.6 1.7-0.9 3.8-0.9 2 0 3.7 0.9 1.6 0.9 2.5 2.5 0.9 1.6 0.9 3.7zm-3.8-1q0-1.4-1-2.3-1-0.8-2.4-0.8-1.4 0-2.3 0.8-0.9 0.8-1.1 2.3zm5.5 1.3q0-2.2 0.8-3.9 0.9-1.7 2.4-2.6 1.5-0.9 3.4-0.9 1.4 0 2.7 0.6 1.2 0.6 2 1.6v-6.8h3.7v19.2h-3.7v-2.1q-0.7 1.1-1.9 1.7-1.2 0.7-2.8 0.7-1.9 0-3.4-1-1.5-0.9-2.4-2.6-0.8-1.7-0.8-3.9zm11.3 0q0-1.3-0.5-2.2-0.5-1-1.4-1.5-0.9-0.5-1.9-0.5-1 0-1.9 0.5-0.8 0.5-1.4 1.4-0.5 1-0.5 2.3 0 1.3 0.5 2.3 0.6 0.9 1.4 1.4 0.9 0.6 1.9 0.6 1 0 1.9-0.5 0.9-0.6 1.4-1.5 0.5-0.9 0.5-2.3zm9.1-8.9q-1 0-1.6-0.6-0.7-0.6-0.7-1.5 0-0.9 0.7-1.5 0.6-0.7 1.6-0.7 0.9 0 1.6 0.7 0.6 0.6 0.6 1.5 0 0.9-0.6 1.5-0.7 0.6-1.6 0.6zm1.8 1.7v14.4h-3.7v-14.4zm7.9 3v7q0 0.7 0.3 1 0.4 0.4 1.2 0.4h1.7v3h-2.3q-4.6 0-4.6-4.4v-7h-1.7v-3h1.7v-3.5h3.7v3.5h3.2v3zm19.2 3.9q0 0.8-0.1 1.4h-10.5q0.1 1.6 1.1 2.5 0.9 0.8 2.4 0.8 2 0 2.8-1.7h4q-0.7 2.1-2.4 3.4-1.8 1.4-4.4 1.4-2.1 0-3.7-0.9-1.7-1-2.6-2.7-0.9-1.7-0.9-3.9 0-2.2 0.9-3.9 0.9-1.7 2.6-2.6 1.6-0.9 3.7-0.9 2.1 0 3.7 0.9 1.6 0.9 2.5 2.5 0.9 1.6 0.9 3.7zm-3.7-1q-0.1-1.4-1.1-2.3-1-0.8-2.4-0.8-1.3 0-2.3 0.8-0.9 0.8-1.1 2.3zm5.5 1.3q0-2.2 0.9-3.9 0.9-1.7 2.4-2.6 1.5-0.9 3.3-0.9 1.4 0 2.7 0.6 1.3 0.6 2 1.6v-6.8h3.7v19.2h-3.7v-2.1q-0.7 1.1-1.9 1.7-1.2 0.7-2.8 0.7-1.8 0-3.3-1-1.5-0.9-2.4-2.6-0.9-1.7-0.9-3.9zm11.4 0q0-1.3-0.6-2.2-0.5-1-1.4-1.5-0.9-0.5-1.9-0.5-1 0-1.8 0.5-0.9 0.5-1.4 1.4-0.6 1-0.6 2.3 0 1.3 0.6 2.3 0.5 0.9 1.4 1.4 0.8 0.6 1.8 0.6 1 0 1.9-0.5 0.9-0.6 1.4-1.5 0.6-0.9 0.6-2.3zm15.2-8.9q-1 0-1.6-0.6-0.6-0.6-0.6-1.5 0-0.9 0.6-1.5 0.6-0.7 1.6-0.7 1 0 1.6 0.7 0.6 0.6 0.7 1.5-0.1 0.9-0.7 1.5-0.6 0.6-1.6 0.6zm1.8 1.7v14.4h-3.6v-14.4zm11.5-0.2q2.6 0 4.2 1.7 1.6 1.6 1.6 4.5v8.4h-3.6v-7.9q-0.1-1.7-0.9-2.7-0.9-0.9-2.3-0.9-1.6 0-2.4 0.9-0.9 1-0.9 2.7v7.9h-3.6v-14.4h3.6v1.8q0.7-0.9 1.9-1.4 1.1-0.6 2.4-0.6zm-227.7 35.5q2.8 0 5 1.1 2.2 1.1 3.4 3.2 1.1 2 1.1 4.8 0 2.7-1.1 4.8-1.2 2-3.4 3.1-2.2 1.1-5 1.1h-6.4v-18.1zm-0.1 15q2.9 0 4.4-1.5 1.6-1.6 1.6-4.4 0-2.9-1.6-4.4-1.5-1.7-4.4-1.7h-2.6v12zm25.8-4.4q0 0.8-0.1 1.4h-10.5q0.1 1.6 1.1 2.5 1 0.8 2.4 0.8 2 0 2.9-1.7h3.9q-0.6 2.1-2.4 3.4-1.8 1.4-4.4 1.4-2 0-3.7-0.9-1.6-1-2.6-2.7-0.9-1.7-0.9-3.9 0-2.2 0.9-3.9 0.9-1.7 2.6-2.6 1.6-0.9 3.7-0.9 2.1 0 3.7 0.9 1.7 0.9 2.5 2.5 0.9 1.6 0.9 3.7zm-3.7-1q-0.1-1.4-1-2.3-1-0.8-2.5-0.8-1.3 0-2.2 0.8-1 0.8-1.2 2.3zm24.4-6.1q2.6 0 4.2 1.7 1.7 1.6 1.7 4.5v8.4h-3.7v-7.9q0-1.7-0.8-2.6-0.9-0.9-2.4-0.9-1.5 0-2.4 0.9-0.8 0.9-0.8 2.6v7.9h-3.6v-7.9q0-1.7-0.9-2.6-0.9-0.9-2.3-0.9-1.6 0-2.4 0.9-0.9 0.9-0.9 2.6v7.9h-3.6v-14.4h3.6v1.8q0.7-0.9 1.8-1.5 1.1-0.5 2.4-0.5 1.7 0 3.1 0.7 1.3 0.7 2 2.1 0.7-1.3 2-2 1.4-0.8 3-0.8zm8.4 7.4q0-2.2 0.8-3.9 0.9-1.7 2.4-2.6 1.5-0.9 3.3-0.9 1.7 0 2.9 0.6 1.2 0.7 1.9 1.7v-2.1h3.7v14.4h-3.7v-2.1q-0.7 1-1.9 1.7-1.3 0.7-2.9 0.7-1.8 0-3.3-1-1.5-0.9-2.4-2.6-0.8-1.7-0.8-3.9zm11.3 0q0-1.3-0.5-2.2-0.5-1-1.4-1.5-0.9-0.5-1.9-0.5-1 0-1.9 0.5-0.8 0.5-1.4 1.4-0.5 1-0.5 2.3 0 1.3 0.5 2.3 0.6 0.9 1.4 1.4 0.9 0.6 1.9 0.6 1 0 1.9-0.5 0.9-0.6 1.4-1.5 0.5-0.9 0.5-2.3zm11.5-4.2v7q0 0.7 0.3 1 0.4 0.4 1.2 0.4h1.7v3h-2.3q-4.6 0-4.6-4.4v-7h-1.7v-3h1.7v-3.5h3.7v3.5h3.2v3zm23.2 8h-7.3l-1.2 3.4h-3.8l6.5-18.1h4.3l6.5 18.1h-3.9zm-0.9-2.9l-2.7-7.6-2.6 7.6zm7.5-0.8q0-2.3 0.9-3.9 1-1.7 2.6-2.6 1.6-1 3.7-1 2.6 0 4.4 1.4 1.8 1.3 2.3 3.7h-3.9q-0.3-0.9-1-1.4-0.8-0.6-1.9-0.6-1.5 0-2.4 1.2-0.9 1.1-0.9 3.2 0 2 0.9 3.2 0.9 1.1 2.4 1.1 2.2 0 2.9-2h3.9q-0.5 2.4-2.3 3.7-1.8 1.4-4.4 1.4-2.1 0-3.7-0.9-1.6-0.9-2.6-2.6-0.9-1.7-0.9-3.9zm15.7 0q0-2.3 0.9-3.9 0.9-1.7 2.5-2.6 1.6-1 3.7-1 2.7 0 4.4 1.4 1.8 1.3 2.4 3.7h-3.9q-0.3-0.9-1.1-1.4-0.7-0.6-1.8-0.6-1.6 0-2.5 1.2-0.9 1.1-0.9 3.2 0 2 0.9 3.2 0.9 1.1 2.5 1.1 2.2 0 2.9-2h3.9q-0.6 2.4-2.4 3.7-1.7 1.4-4.4 1.4-2.1 0-3.7-0.9-1.6-0.9-2.5-2.6-0.9-1.7-0.9-3.9zm23 7.4q-2.1 0-3.8-0.9-1.7-0.9-2.6-2.6-1-1.7-1-3.9 0-2.2 1-3.9 1-1.7 2.7-2.6 1.7-1 3.8-1 2 0 3.7 1 1.7 0.9 2.7 2.6 1 1.7 1 3.9 0 2.2-1 3.9-1 1.7-2.8 2.6-1.6 0.9-3.7 0.9zm0-3.2q0.9 0 1.8-0.4 0.9-0.5 1.4-1.5 0.5-0.9 0.5-2.3 0-2.1-1.1-3.2-1-1.1-2.6-1.1-1.6 0-2.6 1.1-1.1 1.1-1.1 3.2 0 2 1.1 3.2 1 1 2.6 1zm23.7-11.4v14.4h-3.6v-1.8q-0.7 0.9-1.9 1.4-1.1 0.6-2.4 0.6-1.7 0-3-0.7-1.3-0.8-2.1-2.1-0.7-1.4-0.7-3.4v-8.4h3.6v7.9q0.1 1.7 0.9 2.7 0.9 0.9 2.3 0.9 1.6 0 2.4-0.9 0.9-1 0.9-2.7v-7.9zm11.5-0.2q2.6 0 4.2 1.6 1.6 1.6 1.6 4.5v8.5h-3.7v-8q0-1.7-0.8-2.6-0.9-0.9-2.4-0.9-1.5 0-2.3 0.9-0.9 0.9-0.9 2.6v8h-3.6v-14.4h3.6v1.8q0.7-1 1.8-1.5 1.2-0.5 2.5-0.5zm13.5 3.2v6.9q0 0.8 0.3 1.1 0.4 0.3 1.2 0.3h1.7v3.1h-2.3q-4.6 0-4.6-4.5v-6.9h-1.7v-3h1.7v-3.6h3.7v3.6h3.2v3z"/>
	<path id="Layer" class="s5" d="m136 119.5c-29.6 0-53.5-23.9-53.5-53.5 0-29.6 23.9-53.5 53.5-53.5 29.6 0 53.5 23.9 53.5 53.5 0 29.6-23.9 53.5-53.5 53.5z"/>
	<path id="Layer" class="s6" d="m136 115c-27.1 0-49-21.9-49-49 0-27.1 21.9-49 49-49 27.1 0 49 21.9 49 49 0 27.1-21.9 49-49 49z"/>
	<path id="Layer" class="s7" d="m440 310c-27.1 0-49-21.9-49-49 0-27.1 21.9-49 49-49 27.1 0 49 21.9 49 49 0 27.1-21.9 49-49 49z"/>
	<path id="Layer" class="s8" d="m744 115c-27.1 0-49-21.9-49-49 0-27.1 21.9-49 49-49 27.1 0 49 21.9 49 49 0 27.1-21.9 49-49 49z"/>
	<path id="Layer" class="s9" d="m1050 310c-27.1 0-49-21.9-49-49 0-27.1 21.9-49 49-49 27.1 0 49 21.9 49 49 0 27.1-21.9 49-49 49z"/>
	<path id="Layer" class="s10" d="m744 119.5c-29.6 0-53.5-23.9-53.5-53.5 0-29.6 23.9-53.5 53.5-53.5 29.6 0 53.5 23.9 53.5 53.5 0 29.6-23.9 53.5-53.5 53.5z"/>
	<path id="Layer" class="s11" d="m440 314.5c-29.6 0-53.5-23.9-53.5-53.5 0-29.6 23.9-53.5 53.5-53.5 29.6 0 53.5 23.9 53.5 53.5 0 29.6-23.9 53.5-53.5 53.5z"/>
	<path id="Layer" class="s12" d="m1050 314.5c-29.6 0-53.5-23.9-53.5-53.5 0-29.6 23.9-53.5 53.5-53.5 29.6 0 53.5 23.9 53.5 53.5 0 29.6-23.9 53.5-53.5 53.5z"/>
	<g id="Clip-Path" clip-path="url(#cp1)">
		<path id="Layer" fill-rule="evenodd" class="s13" d="m189.3 65.3h-1.2v-1.2h-0.1 0.1l-0.1-0.3v-0.2-0.3-0.2-1.3h1.3l0.7-0.8h9v1h0.1v4h-9.1zm252.1 142.5v1.2h-1.3-0.2-0.3-0.2-0.2-1.3v-1.2l-0.8-0.8v-9.4h1 4v9.4zm-232.2-142.7v-4h18v1h0.1v4h-18.1v-1zm28.2 0v-4h18v1h0.1v4h-18.1v-1zm28.1 0v-4h18.1v1 4h-18v-1zm28.1 0v-4h18.1v1 4h-18.1v-1zm28.2 0v-4h18v1 4h-18v-1zm28.1 0v-4h18.1v1 4h-18.1v-1zm28.2 0v-4h18v1 4h-18v-1zm28.1 0v-4h9c3.7 0 7.2 0.7 10.4 2l1.8 0.8-0.4 0.9-1.5 3.7-1.8-0.8c-2.6-1-5.5-1.6-8.5-1.6h-9v-1zm28.6 12.7l3.7-1.5 0.9-0.4 0.8 1.8c1.3 3.2 2 6.7 2 10.4v9.4h-5v-9.4c0-3-0.6-5.9-1.6-8.4zm3.4 30.5h4v18.9h-1-4v-18.9h1zm0 29.8h4v18.9h-1-4v-18.9h1zm0 29.7h4v18.9h-1-4v-18.9h1zm-248.1-103.5v-0.3l-0.9 0.1 0.2 0.2zm249.6 143.8h0.3q0 0 0 0v1q0.1 0 0.2 0v-1h0.3v-0.3l0.7-0.7v-8.5h-2-1v8.5l0.8 0.7v0.3h0.2v1q0.2 0 0.3 0v-1q0 0 0 0zm-0.5 0l-0.2-0.3-0.1-0.7h0.3v1zm-241-143v-2-1h-8.1v1h-1q0 0.1 0 0.3l1-0.1v0.8h0.1v1zm-0.1-2v1h-0.9v-1zm12-1v2h0.1v1h16v-2-1zm0 2v-1h16.1v1zm28.1-2v2 1h16.1v-2h-0.1v-1zm0.1 2v-1h16v1zm28.1-2v2 1h16.1v-2-1zm0 2v-1h16v1zm28.1-2v2h0.1v1h16v-2-1zm0 2v-1h16.1v1zm28.1-2v2 1h16.1v-2-1zm0 2v-1h16v1zm28.1-2v2h0.1v1h16v-2-1zm0 2v-1h16.1v1zm28.1-2v2 1h16.1v-2-1zm0 2v-1h16v1zm28.2-2v2 1h8c3.1 0 6.1 0.6 8.8 1.7l0.9 0.4 0.8-1.9 0.4-0.9-1-0.4c-3-1.2-6.4-1.9-9.9-1.9zm0 2v-1h8c3.4 0 6.7 0.6 9.6 1.9l0.9 0.3-0.4 1-0.9-0.4c-2.8-1.2-5.9-1.8-9.2-1.8zm31.7 13.1l-0.9 0.4-1.9 0.7 0.4 1c1.1 2.7 1.8 5.6 1.8 8.8v8.4h1v-8.4c0-3.3-0.7-6.4-1.9-9.2l-0.3-0.9 0.9-0.4 0.4 0.9c1.2 2.9 1.9 6.2 1.9 9.6v8.4h1v-8.4c0-3.6-0.7-6.9-2-10zm2.3 32.2h-2-1v16.9h2 1zm-2 0h1v16.9h-1zm2 29.7h-2-1v16.9h2 1zm-2 0h1v16.9h-1zm2 29.7h-2-1v16.9h2 1zm-2 0h1v16.9h-1zm-249-105.6v-0.3h1q0 0 0 0h-1v0.3z"/>
	</g>
	<g id="Clip-Path" clip-path="url(#cp2)">
		<path id="Layer" fill-rule="evenodd" class="s14" d="m796.1 66l-0.1-1.9h0.1l-0.1-0.3v-0.2-0.3-0.2l-0.1-2.1h11.1v1h0.1v4zm253.9 143h-2-0.2-0.3-0.2-0.2q0.1 0 0.2 0v-1q0 0 0 0h0.2 0.3v1h0.2v-1h1v-9.4h-2-1v9.4h1.1q0 0 0 0v1h-2.1v-11.4h1 4zm-2-10.5h-1v1h1v5.5q-0.1 0-0.2 0v1h-0.8q0.2 0 0.3 0v1h0.5v-1q0.1 0 0.2 0v1h-0.2 0.2v1q-0.1 0-0.2 0h-0.3-0.2q-0.1 0-0.2 0l-0.3-1v1h0.3l-0.3-1v-1h0.2v-6.5h1zm-230.9-133.5v-4h18v1h0.1v4h-18.1v-1zm28.1 0v-4h18.1v1 4h-18v-1zm28.1 0v-4h18.1v1 4h-18.1v-1zm28.2 0v-4h18v1h0.1v4h-18.1v-1zm28.1 0v-4h18.1v1 4h-18v-1zm28.1 0v-4h18.1v1 4h-18.1v-1zm28.1 0v-4h18.1v5h-18.1v-1zm28.2-4h9c3.7 0 7.2 0.7 10.4 2l1.8 0.8-1.1 2.7-0.8 1.9-1.9-0.8c-2.6-1.1-5.4-1.6-8.4-1.6h-9zm28.6 16.7l0.9-0.4 0.9-0.4 1.9-0.7 0.9-0.4 0.8 1.8c1.3 3.2 2 6.7 2 10.4v9.4h-5v-9.4c0-3-0.6-5.9-1.7-8.5zm3.5 30.6h4v18.9h-1-4v-18.9h1zm0 29.8h4v18.8h-1-4v-18.8h1zm0 29.7h4v18.9h-1-4v-18.9h1zm-240-102.8v-2h-0.1v-1h-9.1l0.1 1.1h-1q0 0.1 0 0.3l2-0.1v0.7h-1q0-0.1 0-0.2h-1q0 0.2 0 0.3l1-0.1 0.1 1zm-8.1-1zm1 0q0-0.2 0-0.3h1q0 0.1 0 0.2l-1 0.1q0 0 0 0h-1 7.1v-1h0.9v1h-0.9v-1h-5.1q0 0.1 0 0.2l-2 0.1v0.7zm-1 0.1h-1zm0-0.8h0.1zm1 0q0-0.1 0-0.2h-1v0.2zm0-0.2h-1 1q0 0 0 0l1-0.1q0 0.1 0 0.1h-1q0 0 0 0zm-1 0.3h-1q0-0.1 0-0.2l1-0.1zm20.1-1.2v2h0.1v1h16v-2-1zm0 2v-1h16v1zm28.1-2v2h0.1v1h16v-2-1zm0 2v-1h16.1v1zm28.1-2v2 1h16.1v-2h-0.1v-1zm0.1 2v-1h16v1zm28.1-2v2 1h16.1v-2-1zm0 2v-1h16.1v1zm28.1-2v2 1h16v-2-1zm0 2v-1h16.1v1zm28.1-2v2 1h16.1v-2-1zm0 2v-1h16v1zm28.2-2v2 1h15v-1h-15v-1h16v-1zm28.2 1h8c3.4 0 6.6 0.7 9.6 1.9l0.9 0.4-0.4 0.9-0.9-0.4c-2.8-1.2-5.9-1.8-9.2-1.8h-7v1h7c3.1 0 6.1 0.6 8.8 1.7l0.9 0.4 0.8-1.8 0.4-1-0.9-0.3c-3.1-1.3-6.5-2-10-2h-8zm31.7 14.1l-1 0.4-1.8 0.8 0.4 0.9c1.1 2.7 1.7 5.7 1.7 8.8v8.4h1v-8.4h1v8.4h1v-8.4c0-3.5-0.7-6.9-2-10zm-1.8 0.8l0.9-0.4 0.4 0.9-0.9 0.4zm2.2 10.1l-1.9-9.2c1.2 2.9 1.9 6 1.9 9.2zm2 21.3h-2-1v16.9h2 1zm-2 0h1v16.9h-1zm2 29.7h-2-1v16.9h2 1zm-2 0h1v16.9h-1zm2 29.7h-2-1v16.9h2 1zm-2 0h1v16.9h-1z"/>
	</g>
	<g id="Clip-Path" clip-path="url(#cp3)">
		<path id="Layer" fill-rule="evenodd" class="s15" d="m492.1 262h11v4h-0.1v1h-11.1l0.1-2.1 1 0.1q0 0 0 0l-0.1 1h9.1v-1h0.1v-2h-9l-0.1 1q0 0 0 0l-0.9-0.1-0.1 0.3h1v0.2 0.3h-1q0 0.1 0 0.2v-0.2-0.3-0.2-0.3zm2 2h-0.1 0.1-0.1-0.9l0.9 0.3v0.5l-1-0.1 0.1-0.3v-0.2q0-0.1 0-0.2h0.9 0.1l1 0.1q0 0 0 0h1q0 0.1 0 0.3l-1-0.1q0-0.1 0-0.2l-1-0.1v0.8l1.9 0.1q0 0.1 0 0.1h5.1v-1zm-0.1 1v0.3l-1-0.1 0.1-0.2zm0 0h1q0 0 0 0h1q0 0 0 0.1zm1-0.2l-1-0.1v0.3h1q0-0.1 0-0.2zm-1-0.1zm-1 0.2q0-0.1 0-0.2v0.2l1 0.1-1-0.1zm0.1-0.9zm0-0.3h0.9v0.3h-0.9zm216.9 3.3v-4-1h9.1c3 0 5.8-0.6 8.4-1.7l1.8-0.8 1.6 3.7 0.4 0.9-1.9 0.8c-3.2 1.3-6.7 2.1-10.3 2.1zm31-36.5h5v9.5c0 3.6-0.7 7.1-2 10.3l-0.8 1.8-0.9-0.3-3.7-1.6 0.7-1.8c1.1-2.6 1.7-5.5 1.7-8.4zm5-111.6v11.4h-4-1v-11.5l2 0.1h0.3 0.2 0.3 0.2zm-233 148v-4h0.1v-1h18v4 1zm28.1 0v-4h0.1v-1h18v4 1zm28.1 0v-4h0.1v-1h18v4 1zm28.1 0v-4h0.1v-1h18v4 1zm28.1 0v-4h0.1v-1h18v4 1zm28.1 0v-4h0.1v-1h18v4 1zm28.1 0v-4h0.1v-1h18v4 1zm64.2-47.3h-4-1v-18.9h4 1zm0-29.7h-4-1v-18.9h4 1zm0-29.8h-4-1v-18.9h4v0.1h1zm-1.8-40.2h-0.2v1h0.2zm-0.5 0.9v-0.9 0.9h-0.5v-1q-0.1 0-0.2 0v2q0 0 0 0v-0.9h0.7v0.9q0 0 0 0v-0.9h0.3v-0.1zm0-0.9h0.2q-0.1 0-0.2-0.1zm0 2v1q0.1 0 0.2 0v-1q-0.1 0-0.2 0zm1.2 109.6h-2v8.4h1v-8.4h-2v8.4c0 3.2-0.6 6.1-1.7 8.9l-0.4 0.9 1.8 0.7 1 0.4 0.3-0.9c1.3-3.1 2-6.4 2-10zm-34 31.5v1 2h8c3.5 0 6.9-0.7 10-2l0.9-0.4-0.4-0.9-0.7-1.8-1 0.3c-2.7 1.2-5.7 1.8-8.8 1.8zm8.1 2h-8.1v-1h8.1c3.2 0 6.3-0.7 9.1-1.8l1-0.4 0.3 0.9-0.9 0.4c-2.9 1.2-6.2 1.9-9.5 1.9zm-205 0v-1h1v1zm-0.1-1v2h16.1v-1-2h-16v1zm16 0h-0.9v1h-14.1v-1h14.1v1h0.9zm12.1 1v-1h1v1zm0-1v2h16v-1h0.1v-2h-16.1v1zm16.1 0h-1v1h-14.1v-1h14.1v1h1zm12.1 1v-1h0.9v1zm0-1v2h16.1v-1-2h-16.1v1zm16.1 0h-1v1h-14v-1h14v1h1zm12.1 1v-1h1v1zm0-1v2h16v-1-2h-16v1zm16 0h-0.9v1h-14.1v-1h14.1v1h0.9zm12.1 1v-1h1v1zm0-1v2h16.1v-1-2h-16.1v1zm16.1 0h-1v1h-14.1v-1h14.1v1h1zm12.1 1v-1h1v1zm-0.1-1v2h16.1v-1-2h-16v1zm16 0h-1v1h-14v-1h14v1h1zm12.1 1v-1h1v1zm0-1v2h16v-1h0.1v-2h-16.1v1zm16.1 0h-1v1h-14.1v-1h14.1v1h1zm45.1-45.3h-1v-1h1zm-1 0h2v-16.9h-1-2v16.9h1zm0-16.9v1h1v14.9h-1v-14.9h1v-1zm1-12.9h-1v-1h1zm-1 0h2v-16.8h-1v-0.1h-2v16.9h1zm0-16.9v1h1v14.9h-1v-14.9h1v-1zm1-12.8h-1v-1h1zm-1 0h2v-16.9h-1-2v16.9h1zm0-16.9v1h1v14.9h-1v-14.9h1v-1zm1-13.9h-1v1h1zm-3.2 121.7l0.9 0.4 0.4-1q0 0 0 0l-1-0.3c1.2-2.9 1.9-6 1.9-9.2h1c0 3.4-0.7 6.6-1.9 9.5l-1-0.3zm-239.8 13.9h1v1h-1zm218 1v2zm25-25h-2zm-25 25v1zm24-25h-2zm1 0h-1zm-1 0h-1z"/>
	</g>
	<path id="Layer" class="s0" d="m128.3 62.3c-2-2.1-3-4.7-3-7.6 0-2.9 1-5.5 3-7.6 2-2 4.5-3.1 7.3-3.1 2.8 0 5.3 1.1 7.3 3.1 2 2.1 3 4.7 3 7.6 0 2.9-1 5.5-3 7.6-2 2-4.5 3.1-7.3 3.1-2.8 0-5.3-1.1-7.3-3.1z"/>
	<path id="Layer" class="s0" d="m153.7 80.8q0 3.5-2.1 5.6-2.1 2-5.4 2h-20.6q-3.4 0-5.5-2-2.1-2.1-2.1-5.6 0-1.4 0.1-2.6 0.1-1.3 0.3-2.8 0.3-1.6 0.7-2.9 0.4-1.3 1.1-2.6 0.7-1.3 1.7-2.3 1-1 2.4-1.6 1.4-0.5 3.1-0.5c0.5 0 0.9 0.1 1.7 0.7q0.8 0.5 1.7 1.2 0.9 0.5 2.3 1 1.4 0.5 2.8 0.5 1.3 0 2.7-0.5 1.4-0.5 2.3-1 1-0.7 1.7-1.2c0.8-0.6 1.3-0.7 1.7-0.7q1.7 0 3.1 0.5 1.4 0.6 2.4 1.6 1 1 1.7 2.3 0.7 1.3 1.1 2.6 0.4 1.3 0.7 2.9 0.2 1.5 0.3 2.8 0.1 1.2 0.1 2.6z"/>
	<path id="Layer" class="s16" d="m446 287.3c0 1-0.7 1.7-1.7 1.7h-25.5c-0.5 0-1.2-0.4-1.5-0.9-0.4-0.5-0.4-1.2 0-1.7l3.4-6.7c0.3-0.5 0.8-1 1.5-1h18.7q1 0 1.5 1l3.2 6.4c0.2 0.3 0.4 0.7 0.4 1.2z"/>
	<path id="Layer" class="s16" d="m446.6 244l-1.8 3.2c-0.5 1-1.7 1.5-2.7 1.5-0.6 0-1.1-0.1-1.6-0.3l-6.1 10.3c0.7 0.3 1.2 1 1.4 1.8 0.1 0.9 0.1 1.7-0.4 2.4l-1.7 2.8c-0.5 1-1.7 1.7-2.7 1.7-0.5 0-1.2-0.2-1.7-0.5l-10.5-6c-1.5-0.9-2.1-2.9-1.2-4.4l1.7-2.9c0.8-1.5 2.9-2 4.2-1.2l6-10.2c-1.5-0.9-2.1-2.9-1-4.4l1.8-3.2c0.9-1.5 2.9-2 4.4-1.2l10.7 6.1c0.7 0.5 1.4 1.1 1.6 2 0.1 0.8 0 1.8-0.4 2.5z"/>
	<path id="Layer" class="s16" d="m461.4 267.2c-0.7 1.4-2.2 2.2-3.7 2.2-0.7 0-1.5-0.1-2.2-0.5l-16.5-9.6q-0.3-0.5-0.5-1l3.6-6c0.3 0 0.6 0 1.1-0.2l16.7 9.6c2 1 2.7 3.5 1.5 5.5z"/>
	<path id="Layer" class="s1" d="m754.5 58.6c0 5.3-4.9 9.6-11 9.6-6.1 0-11-4.3-11-9.6 0-5.3 4.9-9.6 11-9.6 6.1 0 11 4.3 11 9.6z"/>
	<path id="Layer" class="s1" d="m742.5 82.9l-6 11.1-5.3-5.4-8.1-0.1 5.2-9.8 1.7-0.1 0.5-0.1 2.2-0.2 3.6-0.3 3.3 2.6 1.4 1.1z"/>
	<path id="Layer" class="s1" d="m763.9 88.5l-8.1 0.1-5.3 5.4-6-11.1 1.5-1.2 1.4-1.1 3.3-2.6 3.6 0.3 2.2 0.2 0.5 0.1 1.7 0.1z"/>
	<path id="Layer" fill-rule="evenodd" class="s1" d="m766 65l-6.9 3.5-1.7 6.8-0.6-0.1-2.2-0.2-0.9-0.1h-0.4l-3.9-0.4-2.2 1.8-1.5 1.2-0.5 0.4-0.9 0.7-0.8 0.6-0.8-0.6-0.9-0.7-0.5-0.4-1.9-1.5-1.8-1.5-2.4 0.3h-0.6l-4.4 0.4-0.6 0.1-1.7-6.8-6.9-3.5 3.3-6.4-3.3-6.4 6.9-3.4 1.7-6.9 8 0.8 5.9-4.7 5.9 4.7 8-0.8 1.7 6.9 6.9 3.4-3.3 6.4zm-7.7-6.4c0-7-6.6-12.8-14.8-12.8-8.1 0-14.7 5.8-14.7 12.8 0 7.1 6.6 12.9 14.7 12.9 8.2 0 14.8-5.8 14.8-12.9z"/>
	<path id="Layer" class="s3" d="m1035.8 262.4c0.9 0.5 1.4 1.7 1.2 2.9l-4.2 18.2c-0.1 0.5-0.5 0.8-0.9 0.8h-4.4c-0.3 0-0.5-0.3-0.5-0.6v-21.5c0-0.7 0.4-1.2 0.9-1.2 3.6-0.1 6.2 0.7 7.9 1.4z"/>
	<path id="Layer" class="s3" d="m1072 277.3c0 2.3-15 11.7-20.6 11.7-3.9 0-11.2-3.9-15.5-6.3l3.8-16.5q0.1-0.5 0.1-1c4.6 0.5 6 2 8.8 3.9 2.8 0.6 8.4 1.2 8.4 5.3 0 1.7-0.8 2.9-3.7 2.9-3 0-8-1.2-8-1.2 0 0 4.2 3.6 8 3.6 3.7 0 11.2-5.9 15-5.9 1.8 0 3.7 1.2 3.7 3.5z"/>
	<path id="Layer" fill-rule="evenodd" class="s3" d="m1072 237.7v16.3c0 2.6-1.7 4.7-3.8 4.7h-16.8c-2.1 0-3.8-2.1-3.8-4.7v-16.3c0-2.6 1.7-4.7 3.8-4.7h16.9c2 0 3.7 2.1 3.7 4.7zm-3.7 14v-9.4h-16.9v9.4c0 1.2 0.8 2.3 1.9 2.3h13.1c1 0 1.9-1.1 1.9-2.3z"/>
</svg>