<svg width="70" height="70" viewBox="0 0 70 70" fill="none" xmlns="http://www.w3.org/2000/svg">
<g clip-path="url(#clip0_2905_27409)">
<path d="M58.6321 12.5757C55.7995 9.74313 51.5503 8.76845 47.5425 10.0324L35 13.9873L22.458 10.0324C18.4497 8.76845 14.2005 9.74313 11.3679 12.5757L3.08007 20.863C-1.21096 25.1546 -0.991666 32.3647 3.57045 36.9351C8.5783 41.9529 13.9796 47.3629 18.4827 51.865C18.059 53.4617 18.5097 55.1637 19.669 56.3411L19.7296 56.4017C20.599 57.2657 21.7776 57.7472 23.0035 57.7395C23.4123 57.739 23.8189 57.6877 24.2151 57.5875L24.6945 58.0646C25.4041 58.7748 26.3066 59.2619 27.2896 59.4663C28.1353 60.2096 29.2246 60.6162 30.3508 60.6074C30.4076 60.6074 30.4649 60.6063 30.5227 60.6041C31.8197 60.5545 33.0495 60.0129 33.9619 59.0889L35 58.0497L36.0391 59.0889C36.9515 60.0129 38.1813 60.5545 39.4789 60.6041C39.5362 60.6063 39.5935 60.6074 39.6502 60.6074C40.7737 60.6151 41.8608 60.2107 42.7054 59.4702C43.69 59.263 44.5931 58.7748 45.3061 58.0646L45.7882 57.5847C47.3866 58.009 49.0902 57.5594 50.2709 56.4017L50.3304 56.3422C51.4858 55.1631 51.936 53.4634 51.5156 51.8672C55.9769 47.407 61.3104 42.0647 66.4301 36.9351C70.9916 32.3653 71.2115 25.1551 66.9193 20.863L58.6321 12.5757ZM21.3258 54.8067L21.2652 54.7461C21.1324 54.6127 21.0161 54.4634 20.9202 54.3009L21.7726 55.1521C21.6095 55.0563 21.4597 54.94 21.3258 54.8061V54.8067ZM32.3652 57.4932C32.223 57.6343 32.0682 57.761 31.9013 57.8718C32.3757 57.3043 32.7029 56.6293 32.8561 55.9059L33.4043 56.4541L32.3652 57.4932ZM48.7343 54.7466L48.6747 54.8061C47.7078 55.7731 46.0526 55.6915 44.9854 54.6243L27.6554 37.2943C27.3717 37.004 26.9535 36.8888 26.5612 36.9924C26.1683 37.096 25.8614 37.4029 25.7578 37.7957C25.6543 38.188 25.7694 38.6062 26.0598 38.8905L41.1412 53.9714L41.1489 53.9796C41.6679 54.4876 41.9737 55.1747 42.0046 55.9004C42.0415 56.5604 41.7952 57.2051 41.328 57.6723C40.8602 58.1395 40.2161 58.3858 39.556 58.3489C38.8304 58.3186 38.1433 58.0123 37.6348 57.4932L22.5462 42.4047C22.1054 41.9639 21.3908 41.9639 20.95 42.4047C20.5092 42.8454 20.5092 43.5601 20.95 44.0003L29.845 52.8953C30.364 53.4039 30.6698 54.0904 30.7007 54.8166C30.7332 55.4744 30.4891 56.1158 30.0268 56.5847L29.9701 56.6414C29.0053 57.6056 27.3529 57.5268 26.2862 56.4651C25.9749 56.1555 25.6493 55.8309 25.3088 55.4921L25.3027 55.486C23.9732 54.1609 22.4316 52.622 20.7494 50.941C20.6558 50.7845 20.5246 50.6539 20.3687 50.5597C15.8094 46.002 10.2836 40.4674 5.16718 35.3405C1.48389 31.6501 1.26404 25.8714 4.67626 22.4586L12.9635 14.1719C15.1989 11.9366 18.5769 11.1751 21.7792 12.1851L31.2484 15.1708L25.959 16.8386C25.4521 16.9984 25.1253 17.4905 25.1744 18.0194L25.3033 19.4046C25.3683 21.1424 26.149 22.7766 27.4609 23.9193C28.8053 25.0808 30.5718 25.6306 32.3382 25.4378L33.0897 25.364L34.2027 26.4786L49.6946 41.9925C50.7608 43.0598 50.8418 44.7149 49.8748 45.6808L49.8693 45.6868C48.9249 46.6246 47.3315 46.5684 46.2653 45.5767C44.5071 43.8185 42.5897 41.9027 40.7693 40.0828C36.6865 36.0023 33.1608 32.4782 32.8203 32.135C32.3806 31.6964 31.6693 31.6958 31.2285 32.1333C30.7877 32.5708 30.7833 33.2821 31.2192 33.7251C31.5624 34.0716 35.0898 37.5968 39.1742 41.679L44.5429 47.0461C44.5578 47.0626 44.5733 47.0792 44.5898 47.0951C44.6245 47.1299 44.6603 47.164 44.695 47.1976C46.1336 48.6368 47.4664 49.9691 48.5546 51.0567C49.6208 52.1239 49.7018 53.7791 48.7343 54.7466ZM64.8322 35.3405C59.9065 40.2762 54.7818 45.4092 50.4274 49.7635C50.3387 49.6605 50.2472 49.5591 50.1497 49.4616C49.8494 49.1608 49.5299 48.8418 49.1949 48.5068C50.0566 48.3266 50.8473 47.899 51.4699 47.277L51.4787 47.2687C53.3162 45.4224 53.233 42.3424 51.2913 40.398L36.594 25.6802L37.6094 24.6626C37.9461 24.3259 38.0348 23.8135 37.8309 23.3826C37.6276 22.9523 37.1753 22.6961 36.7009 22.7424L32.1167 23.192C30.9685 23.3215 29.8175 22.9677 28.9403 22.2157C28.0912 21.4718 27.5899 20.4079 27.5557 19.2795C27.5557 19.2608 27.554 19.2415 27.5524 19.2222L27.505 18.7169L35.3179 16.253L35.3223 16.2519L48.2202 12.1845C51.4219 11.1746 54.8 11.936 57.0359 14.1719L65.3226 22.4586C68.7359 25.8714 68.5161 31.6501 64.8322 35.3405Z" fill="url(#paint0_linear_2905_27409)"/>
</g>
<defs>
<linearGradient id="paint0_linear_2905_27409" x1="34.9999" y1="8.34377" x2="34.9999" y2="60.7858" gradientUnits="userSpaceOnUse">
<stop stop-color="#00EFD1"/>
<stop offset="1" stop-color="#00ACEA"/>
</linearGradient>
<clipPath id="clip0_2905_27409">
<rect width="70" height="70" fill="white"/>
</clipPath>
</defs>
</svg>
