<svg width="70" height="70" viewBox="0 0 70 70" fill="none" xmlns="http://www.w3.org/2000/svg">
<path d="M30.0001 6.11694C24.2876 6.11694 18.7033 7.81091 13.9535 10.9846C9.20368 14.1583 5.50165 18.6693 3.31555 23.947C1.12946 29.2247 0.557475 35.0321 1.67194 40.6349C2.7864 46.2377 5.53725 51.3842 9.57663 55.4235C13.616 59.4629 18.7625 62.2138 24.3653 63.3282C29.9681 64.4427 35.7755 63.8707 41.0532 61.6846C46.3309 59.4985 50.8418 55.7965 54.0156 51.0467C57.1893 46.2969 58.8832 40.7126 58.8832 35.0001C58.8746 27.3425 55.8288 20.0009 50.414 14.5862C44.9992 9.17143 37.6577 6.12561 30.0001 6.11694ZM30.0001 61.9577C24.6684 61.9577 19.4564 60.3766 15.0233 57.4145C10.5901 54.4524 7.13488 50.2422 5.09452 45.3163C3.05417 40.3905 2.52032 34.9702 3.56048 29.7409C4.60065 24.5117 7.16811 19.7083 10.9382 15.9382C14.7083 12.1681 19.5117 9.60063 24.7409 8.56047C29.9702 7.5203 35.3905 8.05415 40.3163 10.0945C45.2422 12.1349 49.4524 15.5901 52.4145 20.0232C55.3767 24.4564 56.9577 29.6684 56.9577 35.0001C56.9497 42.1472 54.107 48.9993 49.0532 54.0531C43.9994 59.1069 37.1472 61.9497 30.0001 61.9577ZM29.7425 46.8063L22.0135 39.1304C21.8774 38.9994 21.7061 38.9111 21.5205 38.8762C21.3349 38.8413 21.1432 38.8614 20.9688 38.9341C20.7945 39.0067 20.6452 39.1286 20.5392 39.2849C20.4333 39.4413 20.3753 39.6251 20.3724 39.8139V43.2663C19.1366 43.2244 17.9456 42.7937 16.9688 42.0356C14.208 40.1524 11.6962 36.4912 11.4842 34.0411C11.4618 33.8274 11.3689 33.6273 11.2201 33.4723C11.0713 33.3173 10.8752 33.2163 10.6626 33.1851C10.4501 33.154 10.2332 33.1945 10.0462 33.3003C9.85925 33.4061 9.71283 33.5711 9.63007 33.7694C8.37847 36.9331 7.37401 41.5439 9.69496 45.5441C11.5531 48.7474 15.143 50.8225 20.3721 51.7203V55.2183C20.3749 55.4074 20.4329 55.5916 20.5392 55.7482C20.6454 55.9047 20.7952 56.0267 20.97 56.0991C21.1448 56.1715 21.3369 56.1911 21.5227 56.1555C21.7085 56.12 21.8798 56.0308 22.0155 55.899L29.7449 48.1708C29.9246 47.989 30.0251 47.7436 30.0247 47.488C30.0242 47.2324 29.9228 46.9874 29.7425 46.8063ZM22.2979 52.8941V50.898C22.2977 50.6664 22.2141 50.4427 22.0625 50.2676C21.9108 50.0926 21.7012 49.978 21.472 49.9449C16.4061 49.2171 13.004 47.4119 11.3605 44.5781C10.1949 42.3668 9.89891 39.7994 10.5307 37.3809C11.7713 39.8733 13.6105 42.0193 15.8837 43.6267C17.9386 45.0275 19.9178 45.5052 21.6077 45.005C21.807 44.9462 21.9819 44.8244 22.1063 44.658C22.2307 44.4915 22.2979 44.2893 22.2979 44.0815V42.1271L27.7003 47.4919L22.2979 52.8941ZM43.0596 34.2933C42.9692 34.2039 42.8621 34.1332 42.7444 34.0852C42.6267 34.0372 42.5007 34.0128 42.3736 34.0135C42.2465 34.0142 42.1207 34.04 42.0035 34.0892C41.8864 34.1385 41.78 34.2104 41.6906 34.3008L34.1258 42.0294C33.9963 42.1659 33.9094 42.3372 33.8756 42.5224C33.8419 42.7075 33.8628 42.8985 33.9358 43.0719C34.0087 43.2454 34.1307 43.3938 34.2866 43.4991C34.4426 43.6045 34.6258 43.6621 34.814 43.665H38.1554C38.1075 44.8996 37.6774 46.0889 36.9247 47.0686C35.0415 49.8299 31.3803 52.3412 28.9297 52.5537C28.7163 52.5766 28.5166 52.6698 28.3619 52.8186C28.2073 52.9674 28.1065 53.1634 28.0755 53.3758C28.0445 53.5881 28.085 53.8048 28.1906 53.9916C28.2962 54.1785 28.4609 54.3249 28.6589 54.4078C30.673 55.2399 32.8242 55.6907 35.0029 55.7373C36.9055 55.7651 38.7809 55.2834 40.4345 54.3422C43.6369 52.484 45.7119 48.8946 46.6098 43.665H50.1074C50.2965 43.6622 50.4807 43.604 50.6371 43.4978C50.7936 43.3915 50.9155 43.2418 50.9879 43.067C51.0603 42.8923 51.0799 42.7002 51.0444 42.5144C51.0089 42.3286 50.9198 42.1573 50.7881 42.0216L43.0596 34.2933ZM45.7871 41.7395C45.5556 41.7396 45.3318 41.8231 45.1568 41.9747C44.9818 42.1263 44.8672 42.3358 44.834 42.565C44.1063 47.6308 42.3011 51.0324 39.4683 52.6769C37.2564 53.8418 34.689 54.1379 32.27 53.5071C34.7623 52.2661 36.9082 50.4267 38.5158 48.1536C39.9167 46.0992 40.3932 44.1201 39.8942 42.4296C39.8353 42.2303 39.7135 42.0555 39.5471 41.9311C39.3806 41.8067 39.1784 41.7395 38.9706 41.7395H37.1028L42.3859 36.3427L47.7832 41.7395H45.7871ZM30.2493 22.9927L37.9777 30.8613C38.1129 30.9947 38.2843 31.0854 38.4706 31.1222C38.6568 31.159 38.8498 31.1403 39.0256 31.0684C39.2013 30.9965 39.3521 30.8746 39.4592 30.7177C39.5662 30.5609 39.6249 30.3761 39.6278 30.1862V26.5411C40.8634 26.5822 42.0544 27.013 43.0304 27.7718C45.7918 29.655 48.304 33.3162 48.5165 35.7663C48.5391 35.9799 48.6322 36.1798 48.7809 36.3346C48.9297 36.4894 49.1257 36.5903 49.3382 36.6214C49.5506 36.6526 49.7673 36.6121 49.9543 36.5065C50.1412 36.4009 50.2877 36.2361 50.3706 36.038C51.6222 32.8743 52.6262 28.2626 50.3048 24.2634C48.4466 21.06 44.8572 18.985 39.6276 18.0871V14.7819C39.6248 14.5938 39.5673 14.4105 39.4621 14.2545C39.3569 14.0985 39.2085 13.9766 39.0351 13.9035C38.8618 13.8304 38.6709 13.8094 38.4857 13.843C38.3006 13.8766 38.1293 13.9634 37.9926 14.0927L30.2636 21.6284C30.0817 21.8079 29.9782 22.0521 29.9755 22.3076C29.9728 22.5631 30.0712 22.8094 30.2493 22.9927ZM37.7023 17.0657V18.9094C37.7024 19.1409 37.7858 19.3647 37.9374 19.5397C38.089 19.7148 38.2986 19.8294 38.5277 19.8625C43.5936 20.5903 46.9952 22.3955 48.6397 25.2283C49.805 27.4401 50.1012 30.0076 49.4699 32.4265C48.2287 29.9341 46.389 27.7883 44.1154 26.1811C42.8508 25.2327 41.3308 24.6855 39.7519 24.61C39.2918 24.6084 38.8339 24.6733 38.3924 24.8026C38.1932 24.8615 38.0183 24.9832 37.894 25.1496C37.7696 25.316 37.7024 25.5182 37.7023 25.7259V27.832L32.2999 22.3327L37.7023 17.0657ZM16.4988 35.6933C16.6768 35.8767 16.9201 35.9822 17.1757 35.987C17.4312 35.9918 17.6783 35.8953 17.863 35.7187L25.8557 27.9902C25.9906 27.8557 26.0829 27.6844 26.121 27.4978C26.1591 27.3111 26.1413 27.1173 26.0699 26.9407C25.9985 26.764 25.8765 26.6124 25.7194 26.5047C25.5622 26.397 25.3767 26.338 25.1862 26.3351H21.4165C21.4649 25.1006 21.895 23.9114 22.6477 22.9316C24.5309 20.1702 28.1926 17.6589 30.6432 17.4465C30.8567 17.4236 31.0565 17.3305 31.2111 17.1817C31.3658 17.0328 31.4666 16.8368 31.4976 16.6244C31.5286 16.412 31.4881 16.1953 31.3824 16.0085C31.2768 15.8216 31.112 15.6752 30.914 15.5923C27.7502 14.3407 23.1389 13.3358 19.1393 15.6582C15.9364 17.5163 13.8609 21.1058 12.963 26.3353H9.7819C9.59442 26.3381 9.41178 26.3953 9.25612 26.4998C9.10046 26.6043 8.97846 26.7517 8.90491 26.9242C8.83136 27.0967 8.80943 27.2868 8.84176 27.4715C8.87409 27.6562 8.9593 27.8275 9.08707 27.9647L16.4988 35.6933ZM13.7858 28.2607C14.0174 28.2607 14.2412 28.1773 14.4163 28.0257C14.5913 27.8741 14.7059 27.6644 14.7389 27.4352C15.4667 22.3694 17.2724 18.9677 20.1052 17.3232C22.3169 16.1579 24.8845 15.8617 27.3034 16.493C24.8109 17.734 22.6648 19.5733 21.0571 21.8466C19.6558 23.901 19.1797 25.88 19.6788 27.5706C19.7376 27.7698 19.8593 27.9447 20.0258 28.0691C20.1922 28.1935 20.3943 28.2607 20.6021 28.2607H22.8059L17.2197 33.6618L12.0393 28.2607H13.7858Z" fill="url(#paint0_linear_813_457)"/>
<defs>
<linearGradient id="paint0_linear_813_457" x1="30" y1="4.82361" x2="30" y2="64.0847" gradientUnits="userSpaceOnUse">
<stop stop-color="#00EFD1"/>
<stop offset="1" stop-color="#00ACEA"/>
</linearGradient>
</defs>
</svg>
