<svg width="70" height="70" viewBox="0 0 70 70" fill="none" xmlns="http://www.w3.org/2000/svg">
<path d="M44.5082 28.6292C43.6321 28.6292 42.8368 28.9466 42.2007 29.4556C41.4386 28.314 40.1404 27.5596 38.6679 27.5596C37.7865 27.5596 36.9675 27.8301 36.2882 28.2915C35.7063 26.6387 34.1459 25.4438 32.2966 25.4438C31.0885 25.4438 30.0033 25.9564 29.2292 26.7687C28.4619 25.8202 27.3034 25.2006 25.9912 25.2006H25.7714C23.4656 25.2006 21.5898 27.0764 21.5898 29.3823V31.2775L17.7938 33.6261C17.6247 33.7309 17.4886 33.8812 17.4004 34.0596L14.682 39.5712C13.8275 41.305 13.5625 43.304 13.9363 45.2005C14.279 46.938 15.1222 48.5101 16.3545 49.7286L24.8635 58.5886V65.795C24.8635 66.3814 25.339 66.8568 25.9254 66.8568H46.101C46.6874 66.8568 47.1629 66.3814 47.1629 65.795V61.4718C47.1629 60.6266 47.2199 59.7763 47.333 58.9432L47.9075 54.6811C48.118 53.1149 48.2247 51.5221 48.2247 49.9462V37.646V32.346V31.815C48.2247 31.6048 48.1477 31.42 48.0424 31.2552C47.5727 29.7401 46.175 28.6292 44.5082 28.6292ZM44.5082 30.7529C45.3866 30.7529 46.101 31.4673 46.101 32.3457V37.6458C46.101 38.5242 45.3866 39.2386 44.5082 39.2386C43.6297 39.2386 42.9154 38.5242 42.9154 37.6458V37.1241V32.3457C42.9154 31.4675 43.6297 30.7529 44.5082 30.7529ZM38.6679 29.6833C39.8391 29.6833 40.7916 30.6358 40.7916 31.8071V32.3457V37.1241C40.7916 38.2954 39.8391 39.2479 38.6679 39.2479C37.4966 39.2479 36.5441 38.2954 36.5441 37.1241V31.8071C36.5441 30.6358 37.4966 29.6833 38.6679 29.6833ZM32.2966 27.5673C33.4679 27.5673 34.4204 28.5198 34.4204 29.691V31.8071V37.1241C34.4204 38.0283 33.8502 38.7968 33.0524 39.1027L33.1268 38.9606C33.3917 38.4552 33.2093 37.8303 32.714 37.5468L30.1729 36.0912V29.691C30.1729 28.5198 31.1254 27.5673 32.2966 27.5673ZM25.7714 27.3241H25.9912C27.1261 27.3241 28.0491 28.2471 28.0491 29.382V29.691V34.8746L23.7135 32.3911V32.1909C23.8054 31.9525 23.8067 31.6942 23.7135 31.4463V29.382C23.7135 28.2471 24.6363 27.3241 25.7714 27.3241ZM45.8023 54.3974L45.2279 58.6584C45.1028 59.5854 45.0391 60.5318 45.0391 61.4718V64.7331H26.9873V58.1612C26.9873 57.8869 26.8811 57.6236 26.6913 57.4256L17.8671 48.238C16.9189 47.3006 16.2799 46.1081 16.0197 44.7895C15.7357 43.348 15.9372 41.8285 16.587 40.511L19.1663 35.2815C19.2422 35.2584 19.3203 35.2475 19.3922 35.2061L21.8722 33.784L30.7715 38.8818L30.7232 38.9737C29.5732 41.1691 27.0263 42.2801 24.8003 41.5609C23.876 41.2623 23.2256 40.7334 22.8125 39.9453C22.5404 39.4252 21.899 39.2245 21.3795 39.4972C20.86 39.7687 20.6593 40.4106 20.9314 40.9302C21.6054 42.2177 22.6875 43.1099 24.1465 43.5811C24.8134 43.7972 25.4988 43.8999 26.181 43.8999C27.4909 43.8999 28.7877 43.5177 29.9172 42.8251C29.9539 42.8344 29.9836 42.8569 30.0221 42.8622C32.5295 43.2225 34.4204 45.2814 34.4204 47.6515V53.5593C34.4204 54.1457 34.8958 54.6211 35.4823 54.6211C36.0687 54.6211 36.5441 54.1457 36.5441 53.5593V47.6515C36.5441 44.9286 34.8459 42.5001 32.3646 41.3647C33.6112 41.3445 34.7172 40.7794 35.4823 39.9036C36.2614 40.7956 37.3934 41.3716 38.6679 41.3716C39.8646 41.3716 40.9427 40.8702 41.7152 40.0711C42.3972 40.8553 43.3898 41.3623 44.5082 41.3623C45.0803 41.3623 45.6162 41.2216 46.101 40.9896V49.946C46.101 51.4273 46.0004 52.9253 45.8023 54.3974ZM14.0415 33.5016C13.8341 33.7872 13.51 33.9385 13.1819 33.9385C12.9658 33.9385 12.7468 33.8727 12.558 33.7352L0.877419 25.2402C0.403559 24.8953 0.298168 24.2311 0.643542 23.7567C0.987854 23.2829 1.65259 23.1775 2.12698 23.5229L13.8076 32.0179C14.2814 32.363 14.3868 33.0272 14.0415 33.5016ZM5.97016 14.4107C5.61231 13.9456 5.69938 13.2787 6.16395 12.9217C6.62905 12.5633 7.29591 12.6506 7.65296 13.1155L18.2717 26.9198C18.6295 27.3849 18.5425 28.0518 18.0779 28.4088C17.8849 28.5577 17.6569 28.6292 17.4307 28.6292C17.1124 28.6292 16.7975 28.4866 16.5886 28.2148L5.97016 14.4107ZM17.0893 5.61226C16.9348 5.04655 17.2682 4.46278 17.8339 4.30775C18.4023 4.15112 18.9839 4.48667 19.1384 5.05239L23.7645 21.9781C23.919 22.5438 23.5856 23.1276 23.0199 23.2826C22.9259 23.3081 22.8316 23.3206 22.7393 23.3206C22.272 23.3206 21.8444 23.01 21.7153 22.5382L17.0893 5.61226ZM29.1131 21.1297L30.175 4.13971C30.2119 3.55488 30.7147 3.10385 31.3011 3.14633C31.8865 3.18323 32.3314 3.68708 32.2945 4.27244L31.2326 21.2624C31.1973 21.8249 30.7301 22.2579 30.174 22.2579C30.1517 22.2579 30.1294 22.2574 30.1065 22.2558C29.5212 22.2192 29.0762 21.715 29.1131 21.1297ZM36.6426 21.8117L43.3956 7.22949C43.6419 6.69802 44.273 6.4668 44.8055 6.71263C45.3375 6.95898 45.5692 7.59 45.3224 8.12253L38.5694 22.7047C38.3899 23.092 38.0063 23.3201 37.6055 23.3201C37.4563 23.3201 37.3042 23.2885 37.1595 23.2216C36.6275 22.9749 36.3957 22.3442 36.6426 21.8117ZM55.3467 14.0741C55.7614 14.4887 55.7614 15.1609 55.3467 15.5755L45.7899 25.1324C45.5825 25.3397 45.3107 25.4435 45.0391 25.4435C44.7675 25.4435 44.4957 25.3397 44.2884 25.1324C43.8737 24.7177 43.8737 24.0456 44.2884 23.6309L53.8452 14.0741C54.2599 13.6594 54.9318 13.6594 55.3467 14.0741Z" fill="url(#paint0_linear_808_33082)"/>
<defs>
<linearGradient id="paint0_linear_808_33082" x1="28.0488" y1="1.71708" x2="28.0488" y2="67.0791" gradientUnits="userSpaceOnUse">
<stop stop-color="#00EFD1"/>
<stop offset="1" stop-color="#00ACEA"/>
</linearGradient>
</defs>
</svg>
