<svg width="70" height="70" viewBox="0 0 70 70" fill="none" xmlns="http://www.w3.org/2000/svg">
<path d="M64.6051 41.4537L56.1046 26.5114C56.8412 26.2554 57.4616 25.7429 57.8516 25.0678C58.3125 24.2706 58.4089 23.314 58.1164 22.4412C55.8444 15.6945 50.2968 11.5039 43.6032 11.5039C41.2947 11.5039 38.8725 12.032 36.4701 13.0497V8.45559C36.4701 6.56623 34.8894 5.0293 33 5.0293C31.1107 5.0293 29.53 6.56623 29.53 8.45559V12.9616C27.1276 11.9173 24.7164 11.3887 22.3375 11.3887C15.5912 11.3887 10.0404 15.6351 7.83358 22.471C7.5531 23.3484 7.66362 24.304 8.13596 25.0954C8.53323 25.7622 9.15624 26.2658 9.89186 26.514L1.39442 41.4537C0.826156 41.4813 0.379883 41.95 0.379883 42.5188C0.379883 45.4399 1.47732 47.8965 3.55228 49.6237C5.42652 51.1836 8.03586 52.0428 10.8986 52.0428C17.1313 52.0428 21.4845 48.1358 21.4845 42.5282C21.484 42.2462 21.3709 41.9756 21.1707 41.7769C20.97 41.5783 20.6989 41.4678 20.4168 41.4699H20.4001L11.9116 26.539C12.9078 26.222 13.6899 25.4447 14.0131 24.4505C15.366 20.2688 18.3867 17.8685 22.3375 17.8685C24.5735 17.8685 27.1281 18.699 29.5305 20.2839V54.416H25.195C24.6053 54.416 24.1919 54.9582 24.1919 55.5478V58.4199H19.6671C19.078 58.4199 18.5864 58.8417 18.5864 59.4313V64.0301C18.5931 64.6213 19.0759 65.0963 19.6671 65.0931H46.3335C46.9247 65.0963 47.4075 64.6213 47.4148 64.0301V59.4313C47.4148 58.8417 46.9226 58.4199 46.3335 58.4199H41.8092V55.5478C41.8092 54.9582 41.3953 54.416 40.8062 54.416H36.4706V20.3141C38.873 18.7845 41.3937 17.9811 43.6037 17.9811C47.5394 17.9811 50.5872 20.3532 51.9833 24.4896C52.3139 25.4744 53.0959 26.2413 54.0864 26.5536L45.6005 41.4699H45.5843C45.3023 41.4678 45.0306 41.5783 44.8304 41.7769C44.6297 41.9756 44.5171 42.2462 44.5166 42.5282C44.5166 45.4493 45.6135 47.9012 47.689 49.6284C49.5632 51.1883 52.1715 52.0449 55.0342 52.0449C61.2669 52.0449 65.6197 48.1275 65.6197 42.5204C65.6197 41.9511 65.1734 41.4819 64.6051 41.4537V41.4537ZM31.6659 8.45559C31.6883 7.73509 32.2795 7.16265 33.0006 7.16265C33.7216 7.16265 34.3123 7.73509 34.3352 8.45559V14.0731C33.9348 14.3009 33.4479 14.5418 33.0277 14.7988C32.5934 14.5048 32.1383 14.2425 31.6659 14.0147V8.45559ZM10.8986 49.9167C8.53427 49.9167 6.41082 49.2374 4.91925 47.9961C3.60129 46.8997 2.80415 45.3403 2.58101 43.6053H19.2834C18.7329 47.8762 14.7993 49.9167 10.8986 49.9167ZM3.85362 41.4699L10.8986 29.0863L17.9435 41.4699H3.85362ZM45.2793 62.9577H20.7218V60.5553H45.2793V62.9577ZM39.6738 58.4199H26.3273V56.5514H39.6738V58.4199ZM31.6659 54.416V21.6816C32.4667 22.0419 33.401 22.0414 34.3352 21.6795V54.416H31.6659ZM43.5818 15.8457C40.4704 15.8457 37.0347 17.1454 33.6476 19.6041C33.2571 19.8892 32.7258 19.8856 32.3395 19.5952C28.9507 17.0672 25.4994 15.7305 22.3593 15.7305C17.4936 15.7305 13.6138 18.7428 11.9809 23.7884C11.8099 24.3144 11.2755 24.6325 10.7317 24.5324L10.7271 24.5313C10.4132 24.4714 10.1405 24.28 9.97736 24.0053C9.81783 23.7415 9.78081 23.4208 9.87674 23.1268C10.8209 20.2015 12.4715 17.7679 14.6502 16.0891C16.8284 14.4109 19.494 13.5241 22.3593 13.5241C25.6308 13.5241 29.0175 14.6784 32.425 16.9541C32.779 17.1908 33.2404 17.1944 33.598 16.9629C36.9618 14.7884 40.4146 13.6399 43.5818 13.6399C46.3538 13.6154 49.056 14.5058 51.2696 16.1736C53.4525 17.831 55.1203 20.2344 56.0931 23.1232C56.1927 23.4146 56.1598 23.7352 56.0034 24.0006C55.7871 24.378 55.37 24.5939 54.9373 24.5522C54.5046 24.5105 54.136 24.2185 53.9962 23.8066C52.3128 18.8215 48.4199 15.8457 43.5818 15.8457ZM55.102 29.0863L62.147 41.4699H48.0571L55.102 29.0863ZM55.0342 49.9167C52.6694 49.9167 50.546 49.2374 49.0549 47.9961C47.737 46.8997 46.9398 45.3403 46.7167 43.6053H63.4185C62.868 47.8762 58.935 49.9167 55.0342 49.9167Z" fill="url(#paint0_linear_795_8295)"/>
<defs>
<linearGradient id="paint0_linear_795_8295" x1="32.9996" y1="3.68453" x2="32.9996" y2="65.3026" gradientUnits="userSpaceOnUse">
<stop stop-color="#00EFD1"/>
<stop offset="1" stop-color="#00ACEA"/>
</linearGradient>
</defs>
</svg>
