<svg width="70" height="70" viewBox="0 0 70 70" fill="none" xmlns="http://www.w3.org/2000/svg">
<path d="M5.58983 44.8067C4.68426 46.2313 4.15234 47.9154 4.15234 49.7247C4.15234 54.7991 8.28075 58.9275 13.3552 58.9275C13.6322 58.9275 13.9138 58.9128 14.2046 58.8843C15.5823 61.6893 18.4821 63.529 21.6378 63.529C26.2043 63.529 29.9204 59.8129 29.9204 55.2464V45.1232H36.3624V43.2827H29.9204V39.6015H44.645V37.7609H29.9204V32.2392H31.7609V30.3986H29.9204V26.7175H40.9638V24.8769H29.9204V14.7538C29.9204 10.1873 26.2043 6.47119 21.6378 6.47119C18.3183 6.47119 15.4562 8.43876 14.1356 11.2659L14.0924 11.2751C9.39889 12.2276 5.99291 16.4002 5.99291 21.1958C5.99291 22.3553 6.18985 23.4901 6.58006 24.5788C2.84277 26.6844 0.471191 30.6849 0.471191 35.0001C0.471191 38.9141 2.41116 42.5814 5.58983 44.8067ZM8.13994 25.8441L8.96452 25.4567L8.58536 24.6284C8.08656 23.5361 7.83349 22.382 7.83349 21.1958C7.83349 17.6168 10.1544 14.4694 13.484 13.3494C13.4049 13.8068 13.3552 14.2743 13.3552 14.7538C13.3552 16.2097 13.739 17.6416 14.4642 18.8951L16.0572 17.9739C15.494 17.0002 15.1958 15.8857 15.1958 14.7538C15.1958 11.2015 18.0855 8.31176 21.6378 8.31176C25.1901 8.31176 28.0798 11.2015 28.0798 14.7538V55.2464C28.0798 58.7987 25.1901 61.6884 21.6378 61.6884C18.992 61.6884 16.5771 60.0245 15.6274 57.548L15.3568 56.8412L14.6114 56.9701C14.1605 57.0492 13.7491 57.087 13.3552 57.087C9.29582 57.087 5.99291 53.7841 5.99291 49.7247C5.99291 45.6653 9.29582 42.3624 13.3552 42.3624V40.5218C10.7582 40.5218 8.41419 41.6077 6.73926 43.3434C3.99957 41.466 2.31176 38.3462 2.31176 35.0001C2.31176 31.1027 4.5996 27.5089 8.13994 25.8441ZM24.3986 55.2464H26.2392C26.2392 57.7836 24.175 59.8478 21.6378 59.8478V58.0073C23.1599 58.0073 24.3986 56.7685 24.3986 55.2464ZM13.3552 53.4058V55.2464C10.31 55.2464 7.83349 52.7699 7.83349 49.7247H9.67406C9.67406 51.7548 11.3251 53.4058 13.3552 53.4058ZM48.3261 54.3261C48.3261 55.8483 49.5648 57.087 51.087 57.087C52.6091 57.087 53.8478 55.8483 53.8478 54.3261C53.8478 53.1279 53.0757 52.1156 52.0073 51.7346V47.8841C52.0073 45.3469 49.943 43.2827 47.4058 43.2827H38.2029V45.1232H47.4058C48.928 45.1232 50.1667 46.3619 50.1667 47.8841V51.7346C49.0982 52.1156 48.3261 53.1279 48.3261 54.3261ZM51.087 55.2464C50.5799 55.2464 50.1667 54.8332 50.1667 54.3261C50.1667 53.819 50.5799 53.4058 51.087 53.4058C51.594 53.4058 52.0073 53.819 52.0073 54.3261C52.0073 54.8332 51.594 55.2464 51.087 55.2464ZM57.529 38.6812C57.529 37.1591 56.2903 35.9204 54.7681 35.9204C53.5699 35.9204 52.5576 36.6925 52.1766 37.7609H46.4855V39.6015H52.1766C52.5576 40.67 53.5699 41.4421 54.7681 41.4421C56.2903 41.4421 57.529 40.2034 57.529 38.6812ZM53.8478 38.6812C53.8478 38.1742 54.261 37.7609 54.7681 37.7609C55.2752 37.7609 55.6884 38.1742 55.6884 38.6812C55.6884 39.1883 55.2752 39.6015 54.7681 39.6015C54.261 39.6015 53.8478 39.1883 53.8478 38.6812ZM52.1766 30.3986H33.6015V32.2392H52.1766C52.5576 33.3077 53.5699 34.0798 54.7681 34.0798C56.2903 34.0798 57.529 32.8411 57.529 31.3189C57.529 29.7968 56.2903 28.5581 54.7681 28.5581C53.5699 28.5581 52.5576 29.3302 52.1766 30.3986ZM54.7681 30.3986C55.2752 30.3986 55.6884 30.8119 55.6884 31.3189C55.6884 31.826 55.2752 32.2392 54.7681 32.2392C54.261 32.2392 53.8478 31.826 53.8478 31.3189C53.8478 30.8119 54.261 30.3986 54.7681 30.3986ZM52.0073 22.1161V18.2656C53.0757 17.8846 53.8478 16.8723 53.8478 15.6741C53.8478 14.1519 52.6091 12.9132 51.087 12.9132C49.5648 12.9132 48.3261 14.1519 48.3261 15.6741C48.3261 16.8723 49.0982 17.8846 50.1667 18.2656V22.1161C50.1667 23.6382 48.928 24.8769 47.4058 24.8769H42.8044V26.7175H47.4058C49.943 26.7175 52.0073 24.6533 52.0073 22.1161ZM51.087 14.7538C51.594 14.7538 52.0073 15.167 52.0073 15.6741C52.0073 16.1811 51.594 16.5943 51.087 16.5943C50.5799 16.5943 50.1667 16.1811 50.1667 15.6741C50.1667 15.167 50.5799 14.7538 51.087 14.7538ZM10.483 36.7946C8.68843 35.001 8.68843 32.0809 10.483 30.2873C12.2766 28.4927 15.1967 28.4937 16.9903 30.2873L15.6891 31.5886C14.6123 30.5118 12.861 30.5109 11.7843 31.5886C10.7085 32.6653 10.7085 34.4166 11.7843 35.4934L10.483 36.7946ZM18.8769 14.7538H17.0364C17.0364 12.2165 19.1006 10.1523 21.6378 10.1523C24.175 10.1523 26.2392 12.2165 26.2392 14.7538H24.3986C24.3986 13.2316 23.1599 11.9929 21.6378 11.9929C20.1156 11.9929 18.8769 13.2316 18.8769 14.7538ZM20.7175 32.2392V30.3986C22.2397 30.3986 23.4784 29.1599 23.4784 27.6378C23.4784 26.1156 22.2397 24.8769 20.7175 24.8769V23.0364C23.2547 23.0364 25.3189 25.1006 25.3189 27.6378C25.3189 30.175 23.2547 32.2392 20.7175 32.2392ZM20.7175 42.3624V44.2029C19.1953 44.2029 17.9566 45.4417 17.9566 46.9638C17.9566 48.486 19.1953 49.7247 20.7175 49.7247V51.5652C18.1803 51.5652 16.1161 49.501 16.1161 46.9638C16.1161 44.4266 18.1803 42.3624 20.7175 42.3624Z" fill="url(#paint0_linear_813_465)"/>
<defs>
<linearGradient id="paint0_linear_813_465" x1="29" y1="5.19372" x2="29" y2="63.728" gradientUnits="userSpaceOnUse">
<stop stop-color="#00EFD1"/>
<stop offset="1" stop-color="#00ACEA"/>
</linearGradient>
</defs>
</svg>
