<svg width="70" height="70" viewBox="0 0 70 70" fill="none" xmlns="http://www.w3.org/2000/svg">
<path d="M44.0802 12.6453C34.1462 7.68748 22.0724 11.6307 16.9787 21.4961C11.8857 31.3616 15.6631 43.4887 25.4575 48.7163V61.8274C25.4557 63.5879 26.1551 65.2762 27.4022 66.519C28.6493 67.7612 30.3407 68.4551 32.1012 68.4466H37.9261C39.686 68.4551 41.3773 67.7612 42.6244 66.519C43.8715 65.2762 44.5715 63.5879 44.5691 61.8274V48.7126C48.292 46.7453 51.3009 43.6551 53.1697 39.8814C58.1685 29.863 54.0986 17.6447 44.0802 12.6453V12.6453ZM35.0133 39.4861C31.488 39.4861 28.6303 36.6278 28.6303 33.1025C28.6303 29.5772 31.488 26.7195 35.0133 26.7195C38.5386 26.7195 41.3969 29.5772 41.3969 33.1025C41.3926 36.6266 38.5374 39.4818 35.0133 39.4861V39.4861ZM35.0133 41.9925C35.6454 41.9919 36.2757 41.9246 36.8931 41.7906V52.3114H33.1335V41.7906C33.7515 41.9246 34.3812 41.9919 35.0133 41.9925ZM42.0627 54.8178V58.8908H27.964V54.8178H42.0627ZM37.9261 65.9401H32.1012C31.0052 65.9493 29.9515 65.5197 29.1737 64.7475C28.3966 63.9746 27.9609 62.9233 27.964 61.8274V61.3972H42.0627V61.8274C42.0657 62.9233 41.63 63.9746 40.8529 64.7475C40.0757 65.5197 39.0214 65.9493 37.9261 65.9401V65.9401ZM50.9398 38.7622C49.2099 42.2122 46.411 45.0111 42.961 46.741C42.9322 46.7557 42.8906 46.7728 42.8624 46.7888C42.3845 46.9778 42.0688 47.4374 42.0627 47.9514V52.3114H39.3996V40.8299C42.9102 38.8387 44.6389 34.732 43.609 30.8298C42.5791 26.927 39.0496 24.2082 35.0133 24.2082C30.9771 24.2082 27.4475 26.927 26.4182 30.8298C25.3884 34.732 27.1164 38.8387 30.627 40.8299V52.3114H27.964V47.9514C27.9584 47.4374 27.6421 46.9778 27.1642 46.7888C27.1366 46.7722 27.1018 46.7557 27.0724 46.741C18.2754 42.3542 14.7005 31.6657 19.0886 22.8687C23.4767 14.0723 34.1658 10.4987 42.9622 14.888C51.7586 19.2773 55.3304 29.9664 50.9398 38.7622V38.7622Z" fill="url(#paint0_linear_795_8297)"/>
<path d="M35.0134 9.45369C35.6709 9.45369 36.204 8.92057 36.204 8.26304V1.19065C36.204 0.533118 35.6709 0 35.0134 0C34.3559 0 33.8228 0.533118 33.8228 1.19065V8.26304C33.8228 8.92057 34.3559 9.45369 35.0134 9.45369Z" fill="url(#paint1_linear_795_8297)"/>
<path d="M67.5967 32.6436H60.6086C59.9511 32.6436 59.418 33.1767 59.418 33.8342C59.418 34.4917 59.9511 35.0248 60.6086 35.0248H67.5967C68.2543 35.0248 68.7874 34.4917 68.7874 33.8342C68.7874 33.1767 68.2543 32.6436 67.5967 32.6436Z" fill="url(#paint2_linear_795_8297)"/>
<path d="M9.41848 32.6436H2.4304C1.77286 32.6436 1.23975 33.1767 1.23975 33.8342C1.23975 34.4917 1.77286 35.0248 2.4304 35.0248H9.41848C10.076 35.0248 10.6091 34.4917 10.6091 33.8342C10.6091 33.1767 10.076 32.6436 9.41848 32.6436Z" fill="url(#paint3_linear_795_8297)"/>
<path d="M56.904 9.8623L52.0211 14.7458C51.5606 15.2115 51.5629 15.9615 52.0263 16.4242C52.4891 16.8876 53.239 16.8899 53.7047 16.4295L58.5888 11.5465C59.0533 11.0814 59.0533 10.3274 58.5888 9.8623C58.1237 9.39779 57.3697 9.39779 56.9046 9.8623H56.904Z" fill="url(#paint4_linear_795_8297)"/>
<path d="M17.164 16.7777C17.646 16.7777 18.0797 16.4876 18.264 16.0428C18.4483 15.5981 18.3465 15.0859 18.0064 14.7452L13.1229 9.86227C12.6578 9.39659 11.9038 9.39659 11.4387 9.86169C10.9736 10.3268 10.9736 11.0814 11.4387 11.5465L16.3216 16.4295C16.5449 16.6533 16.8483 16.7783 17.164 16.7777Z" fill="url(#paint5_linear_795_8297)"/>
<defs>
<linearGradient id="paint0_linear_795_8297" x1="35.0097" y1="9.20762" x2="35.0097" y2="68.6487" gradientUnits="userSpaceOnUse">
<stop stop-color="#00EFD1"/>
<stop offset="1" stop-color="#00ACEA"/>
</linearGradient>
<linearGradient id="paint1_linear_795_8297" x1="35.0134" y1="-0.211659" x2="35.0134" y2="9.48666" gradientUnits="userSpaceOnUse">
<stop stop-color="#00EFD1"/>
<stop offset="1" stop-color="#00ACEA"/>
</linearGradient>
<linearGradient id="paint2_linear_795_8297" x1="64.1027" y1="32.5902" x2="64.1027" y2="35.0332" gradientUnits="userSpaceOnUse">
<stop stop-color="#00EFD1"/>
<stop offset="1" stop-color="#00ACEA"/>
</linearGradient>
<linearGradient id="paint3_linear_795_8297" x1="5.92442" y1="32.5902" x2="5.92442" y2="35.0332" gradientUnits="userSpaceOnUse">
<stop stop-color="#00EFD1"/>
<stop offset="1" stop-color="#00ACEA"/>
</linearGradient>
<linearGradient id="paint4_linear_795_8297" x1="55.3072" y1="9.35139" x2="55.3072" y2="16.7986" gradientUnits="userSpaceOnUse">
<stop stop-color="#00EFD1"/>
<stop offset="1" stop-color="#00ACEA"/>
</linearGradient>
<linearGradient id="paint5_linear_795_8297" x1="14.7223" y1="9.35029" x2="14.7223" y2="16.803" gradientUnits="userSpaceOnUse">
<stop stop-color="#00EFD1"/>
<stop offset="1" stop-color="#00ACEA"/>
</linearGradient>
</defs>
</svg>
