<svg id="Group_21995" data-name="Group 21995" xmlns="http://www.w3.org/2000/svg" xmlns:xlink="http://www.w3.org/1999/xlink" width="68.289" height="76" viewBox="0 0 68.289 76">
  <defs>
    <clipPath id="clip-path">
      <rect id="Rectangle_1696" data-name="Rectangle 1696" width="68.289" height="76" fill="#ffca05" stroke="#ffca05" stroke-width="1"/>
    </clipPath>
  </defs>
  <g id="Group_21994" data-name="Group 21994" clip-path="url(#clip-path)">
    <path id="Path_14073" data-name="Path 14073" d="M54.492,19.578a8.6,8.6,0,0,1,2.927-.175,7.51,7.51,0,0,1,5.748,4.6,15.074,15.074,0,0,1,.947,8.956c-.016.107-.035.213-.047.32,0,.022.02.048.037.084.269.13.452-.1.655-.2a4.376,4.376,0,0,1,2.141-.438,1.329,1.329,0,0,1,1.383,1.4c.01.19.005.381.005.572q0,19.652,0,39.3c0,1.657-.341,1.993-2.025,1.993H2.073C.35,76,.029,75.679.029,73.945q0-19.612,0-39.223c0-1.687.427-2.119,2.1-1.951.622.062.619-.143.5-.6A73.969,73.969,0,0,1,.455,20.136C0,15.392-.388,10.633.711,5.915A9.366,9.366,0,0,1,2.718,1.587,4.409,4.409,0,0,1,8.148.494a14.157,14.157,0,0,1,5.32,4.968,59.552,59.552,0,0,1,6.4,12.2c.107.26.1.68.454.7.281.017.373-.362.527-.575a12.178,12.178,0,0,1,4.711-3.954,1.017,1.017,0,0,0,.686-1.14,6.724,6.724,0,0,1,0-1.143.967.967,0,0,0-.643-1.147,1.2,1.2,0,0,1-.672-1.215c.006-1.716-.014-3.432.009-5.148a1.274,1.274,0,0,1,1.383-1.384q5.2-.026,10.4,0A1.294,1.294,0,0,1,38.143,4.1c.02,1.689,0,3.378.008,5.066a1.341,1.341,0,0,1-.859,1.357.656.656,0,0,0-.451.76.679.679,0,0,1,0,.163,2.351,2.351,0,0,0,1.578,2.915,8.877,8.877,0,0,1,3.384,2.9.705.705,0,0,0,1.033.226,7,7,0,0,1,8.206,1.043c.466.41.588.288.836-.191a6.745,6.745,0,0,1,7.016-3.916c1.18.091,1.8.679,1.684,1.633-.106.868-.794,1.275-1.908,1.128a3.9,3.9,0,0,0-4.177,2.393M2.771,36.065v.856q0,17.648,0,35.295c0,1.052,0,1.054,1.1,1.054H51.351c1.089,0,1.091,0,1.091-1.065q0-17.647-.005-35.295c0-.255.1-.539-.122-.79a10.719,10.719,0,0,0-1.46,1.428,5.282,5.282,0,0,1-7.546-.337,11.536,11.536,0,0,0-1.075-1.118,2.215,2.215,0,0,0-3.11.041,5.354,5.354,0,0,0-.687.7,5.387,5.387,0,0,1-8.558.027c-1.522-1.905-2.906-1.839-4.542-.035-.073.081-.142.165-.214.247a5.261,5.261,0,0,1-8.053.082c-.2-.221-.4-.449-.608-.662-1.336-1.347-2.559-1.354-3.884-.024-.25.251-.485.516-.733.77a5.284,5.284,0,0,1-7.9-.11,4.213,4.213,0,0,0-1.173-1.063m52.485-.179c-.05.39-.07.47-.07.55q0,18.02-.016,36.04c0,.7.292.807.885.8,2.866-.02,5.732-.032,8.6.007.74.01.915-.245.913-.943q-.028-17.775-.019-35.549c0-.216.124-.484-.219-.714-1.255,1.62-2.75,2.91-4.942,2.917-2.215.007-3.735-1.287-5.13-3.109M18.381,34.357c0-.5,0-.791,0-1.084,0-2.94-.143-5.891.074-8.815a9.609,9.609,0,0,0-.659-4.414,57.448,57.448,0,0,0-7.04-13.5A12.025,12.025,0,0,0,7.464,3.287c-1.371-.832-2.337-.578-3.12.812A11.546,11.546,0,0,0,3.1,8.384a52.391,52.391,0,0,0,.211,12.043A81.654,81.654,0,0,0,6.067,34.334c.59,2.086,2.156,2.495,3.733.943.272-.267.525-.553.788-.829a5.392,5.392,0,0,1,7.793-.091m2.737-4.409c0,2.083.016,3.8-.008,5.514-.01.7.272.81.846.534A5.477,5.477,0,0,0,23.542,34.6a5.287,5.287,0,0,1,8.124-.016A14.459,14.459,0,0,0,32.7,35.63a2.139,2.139,0,0,0,2.063.458c.57-.145.819-.424.669-1.055a11.781,11.781,0,0,1-.326-2.586,17.7,17.7,0,0,1,4.428-12.384.742.742,0,0,0,.016-1.173,10.1,10.1,0,0,0-4.237-2.972A1.631,1.631,0,0,1,34.1,14.128c.043-.924-.007-1.851.015-2.777.012-.5-.123-.758-.686-.746q-1.882.04-3.765,0c-.56-.012-.7.243-.688.744.024.762.006,1.525.006,2.287,0,1.737-.047,1.74-1.661,2.464a9.785,9.785,0,0,0-6.078,8.176c-.252,2.009-.046,4.026-.123,5.67m16.844,1.528c0,.408.007.817,0,1.225-.011.49.081.694.657.461a5.286,5.286,0,0,1,6.054,1.33,14.812,14.812,0,0,0,1.154,1.155,2.139,2.139,0,0,0,2.85.016,9.543,9.543,0,0,0,.987-.975,5.294,5.294,0,0,1,8.289-.008,5.586,5.586,0,0,0,1.323,1.207c.757.425.947.354,1.271-.447a14.14,14.14,0,0,0,1.016-5.423,9.955,9.955,0,0,0-1.584-5.9,4.167,4.167,0,0,0-4.229-1.894,5.732,5.732,0,0,0-2.666,1.164,1.442,1.442,0,0,1-2.47-.666c-1.558-3.51-4.805-4.334-7.781-1.893-3.342,2.742-4.639,6.464-4.868,10.646M31.624,5.381c-.764,0-1.529-.01-2.293,0-1.882.029-1.624-.307-1.672,1.718-.015.618.217.8.812.79,1.746-.029,3.494.008,5.241-.015,1.925-.025,1.679.39,1.708-1.838.007-.5-.2-.672-.684-.663-1.037.02-2.074.006-3.112,0" transform="translate(-0.001 0)" fill="#ffca05" stroke="#ffca05" stroke-width="1"/>
    <path id="Path_14074" data-name="Path 14074" d="M41.382,103.033a6.918,6.918,0,0,1,.177-.738q1.392-4.131,2.8-8.258a1.5,1.5,0,0,1,1.06-1.136,1.38,1.38,0,0,1,1.629,1.889c-.745,2.3-1.537,4.584-2.315,6.873-.236.694-.45,1.4-.743,2.069a1.257,1.257,0,0,1-1.531.786,1.345,1.345,0,0,1-1.075-1.486" transform="translate(-32.345 -72.578)" fill="#ffca05" stroke="#ffca05" stroke-width="1"/>
    <path id="Path_14075" data-name="Path 14075" d="M33.071,42.293c-.047.187-.1.455-.183.71q-1.4,4.133-2.806,8.261c-.348,1.014-1,1.42-1.825,1.189a1.324,1.324,0,0,1-.942-1.661q1.5-4.569,3.1-9.109a1.224,1.224,0,0,1,1.519-.8,1.425,1.425,0,0,1,1.138,1.413" transform="translate(-21.301 -31.92)" fill="#ffca05" stroke="#ffca05" stroke-width="1"/>
  </g>
</svg>
