<svg width="70" height="70" viewBox="0 0 70 70" fill="none" xmlns="http://www.w3.org/2000/svg">
<path d="M69.1992 11.7385L58.2617 0.801008C57.4795 0.019115 56.3036 -0.215084 55.2818 0.208197C54.2599 0.631477 53.5937 1.62843 53.5937 2.73448V5.46885H40.4687C32.9301 5.46885 26.7969 11.6021 26.7969 19.1407V48.125H16.4063V45.3907C16.4063 44.2848 15.74 43.2877 14.7183 42.8644C13.6968 42.4412 12.5206 42.675 11.7384 43.4571L0.800931 54.3946C-0.266977 55.4625 -0.266977 57.1937 0.800931 58.2615L11.7384 69.199C12.522 69.9825 13.6986 70.2141 14.7183 69.7917C15.74 69.3685 16.4063 68.3714 16.4063 67.2654V64.531H29.5312C37.0699 64.531 43.2031 58.3978 43.2031 50.8591V21.8748H53.5937V24.6092C53.5937 25.7151 54.2599 26.7122 55.2818 27.1355C56.3033 27.5586 57.4795 27.3248 58.2617 26.5428L69.1992 15.6053C70.2669 14.5377 70.2669 12.8063 69.1992 11.7385ZM37.7345 50.8594C37.7345 55.3826 34.0546 59.0625 29.5314 59.0625H13.672C12.4995 59.0625 11.4993 59.8005 11.1107 60.8374L6.60149 56.3282L11.1107 51.8189C11.4993 52.8558 12.4995 53.5938 13.672 53.5938H29.5314C32.6065 53.5938 35.448 52.5731 37.7345 50.853V50.8594ZM37.7345 39.9219C37.7345 43.4866 35.4483 46.5259 32.2658 47.6547V30.0782C32.2658 26.5135 34.552 23.4741 37.7345 22.3454V39.9219ZM58.8895 18.1812C58.5008 17.1443 57.5007 16.4063 56.3282 16.4063H40.4689C37.3938 16.4063 34.5522 17.4271 32.2658 19.1471V19.1407C32.2658 14.6175 35.9457 10.9376 40.4689 10.9376H56.3282C57.5007 10.9376 58.5009 10.1996 58.8895 9.16272L63.3986 13.672L58.8895 18.1812Z" fill="url(#paint0_linear_889_2771)"/>
<defs>
<linearGradient id="paint0_linear_889_2771" x1="34.9998" y1="-1.56723" x2="34.9998" y2="70.244" gradientUnits="userSpaceOnUse">
<stop stop-color="#00EFD1"/>
<stop offset="1" stop-color="#00ACEA"/>
</linearGradient>
</defs>
</svg>
