<svg width="71" height="41" viewBox="0 0 71 41" fill="none" xmlns="http://www.w3.org/2000/svg">
<path d="M48.6182 9.99744L42.3599 3.73971C40.3951 1.76355 37.7217 0.65613 34.9355 0.664105H20.2678C19.3626 0.665245 18.47 0.876589 17.6593 1.27991L15.0446 2.58785C14.5205 2.85161 13.9383 2.9775 13.3521 2.95414L12.1667 2.91256V0.664105H0.5V26.3308H12.1667V22.8308H14.1502L14.856 23.2973C16.8311 24.6087 19.1308 25.3492 21.5 25.4358V40.3308H70.5V9.99744H48.6182ZM9.83333 23.9974H2.83333V2.99744H9.83333V23.9974ZM16.1475 21.3559L14.8498 20.4974H12.1667V5.24703L13.2667 5.28634C14.2437 5.32109 15.2132 5.11088 16.0876 4.67509L18.7001 3.36715C19.1866 3.1239 19.7238 2.99744 20.2678 2.99744H34.9355C37.1025 2.99117 39.1823 3.8525 40.7101 5.38888L45.3187 9.99744H35.6914L32.8596 7.16622L31.2104 8.81539L39.4517 17.0573C40.3672 17.9687 40.37 19.4498 39.4586 20.3658C38.5465 21.2813 37.0654 21.2841 36.15 20.3727L29.2668 13.4895L28.4499 14.1896C26.1946 16.1048 22.8979 16.1538 20.5863 14.3058L19.9101 13.7578L18.4398 15.5704L19.1234 16.1247C19.8383 16.6961 20.6409 17.1484 21.5 17.464V23.1014C19.5905 23.0165 17.7397 22.4132 16.1475 21.3559ZM32.7434 20.2639L34.5037 22.0247C36.3311 23.8248 39.2649 23.8277 41.0952 22.0304C39.3828 24.6822 40.0584 28.2112 42.6293 30.0427C45.2002 31.8741 48.7566 31.3597 50.7031 28.8754C52.6497 26.3906 52.2982 22.8143 49.9045 20.7566C47.5113 18.699 43.9224 18.8876 41.7583 21.1844C42.5553 19.9329 42.6977 18.3732 42.1405 16.9974H57.7635C58.2654 19.9329 60.5645 22.2321 63.5 22.7339V27.5943C60.5645 28.0962 58.2654 30.3953 57.7635 33.3308H34.2365C33.7346 30.3953 31.4355 28.0962 28.5 27.5943V22.7339C30.1674 22.4531 31.6753 21.5752 32.7434 20.2639ZM42.5 25.1641C42.5 23.2312 44.0671 21.6641 46 21.6641C47.9329 21.6641 49.5 23.2312 49.5 25.1641C49.5 27.097 47.9329 28.6641 46 28.6641C44.0671 28.6641 42.5 27.097 42.5 25.1641ZM68.1667 37.9974H23.8333V17.9528C25.683 18.0918 27.527 17.6201 29.0833 16.6112L31.0737 18.6016C30.1982 19.7911 28.8105 20.4946 27.3333 20.4974H26.1667V29.8308H27.3333C29.9105 29.8308 32 31.9203 32 34.4974V35.6641H60V34.4974C60 31.9203 62.0895 29.8308 64.6667 29.8308H65.8333V20.4974H64.6667C62.0895 20.4974 60 18.4079 60 15.8308V14.6641H40.3581L38.0247 12.3308H68.1667V37.9974Z" fill="url(#paint0_linear_578_3174)"/>
<defs>
<linearGradient id="paint0_linear_578_3174" x1="37.5277" y1="74.9423" x2="34.9085" y2="1.60681" gradientUnits="userSpaceOnUse">
<stop stop-color="#006DF0"/>
<stop offset="1" stop-color="#00E7F0"/>
</linearGradient>
</defs>
</svg>
