<svg width="65" height="70" viewBox="0 0 88 53" fill="none" xmlns="http://www.w3.org/2000/svg">
<path d="M60.4914 12.2791L52.6238 4.04636C50.1538 1.4465 46.793 -0.0104361 43.2903 5.62813e-05H24.851C23.713 0.00155519 22.5908 0.279603 21.5717 0.810216L18.2846 2.53096C17.6258 2.87796 16.8939 3.04359 16.157 3.01286L14.6667 2.95815V5.62813e-05H0V33.7675H14.6667V29.1628H17.1603L18.0476 29.7766C20.5305 31.5019 23.4216 32.4762 26.4 32.5901V52.186H88V12.2791H60.4914ZM11.7333 30.6977H2.93333V3.06982H11.7333V30.6977ZM19.6711 27.2225L18.0397 26.093H14.6667V6.02941L16.0495 6.08113C17.2777 6.12684 18.4966 5.8503 19.5959 5.27696L22.8801 3.55622C23.4917 3.2362 24.1671 3.06982 24.851 3.06982H43.2903C46.0145 3.06158 48.6292 4.19475 50.5499 6.21603L56.3435 12.2791H44.2406L40.6807 8.55433L38.6074 10.724L48.9679 21.5671C50.1188 22.7662 50.1223 24.7148 48.9765 25.9199C47.8299 27.1243 45.968 27.128 44.8171 25.9289L36.1639 16.8733L35.137 17.7943C32.3018 20.314 28.1574 20.3785 25.2513 17.9472L24.4012 17.2263L22.5529 19.611L23.4122 20.3402C24.311 21.0919 25.3201 21.687 26.4 22.1022V29.5188C23.9995 29.4071 21.6727 28.6135 19.6711 27.2225ZM40.5346 25.7858L42.7475 28.1023C45.0449 30.4706 48.733 30.4744 51.034 28.1098C48.8813 31.5985 49.7306 36.2414 52.9626 38.6509C56.1945 41.0604 60.6654 40.3836 63.1125 37.1153C65.5596 33.8461 65.1177 29.1411 62.1085 26.434C59.0999 23.727 54.5882 23.9751 51.8676 26.9969C52.8695 25.3503 53.0485 23.2983 52.3481 21.4884H71.9884C72.6193 25.3503 75.5097 28.3751 79.2 29.0354V35.4297C75.5097 36.09 72.6193 39.1148 71.9884 42.9767H42.4116C41.7807 39.1148 38.8903 36.09 35.2 35.4297V29.0354C37.2962 28.6659 39.1918 27.511 40.5346 25.7858ZM52.8 32.2326C52.8 29.6897 54.7701 27.6279 57.2 27.6279C59.6299 27.6279 61.6 29.6897 61.6 32.2326C61.6 34.7755 59.6299 36.8372 57.2 36.8372C54.7701 36.8372 52.8 34.7755 52.8 32.2326ZM85.0667 49.1163H29.3333V22.7452C31.6587 22.9281 33.9768 22.3076 35.9333 20.9803L38.4355 23.5989C37.3348 25.1637 35.5903 26.0893 33.7333 26.093H32.2667V38.3721H33.7333C36.9732 38.3721 39.6 41.1211 39.6 44.5116V46.0465H74.8V44.5116C74.8 41.1211 77.4268 38.3721 80.6667 38.3721H82.1333V26.093H80.6667C77.4268 26.093 74.8 23.3441 74.8 19.9535V18.4186H50.1073L47.174 15.3489H85.0667V49.1163Z" fill="url(#paint0_linear_976_2889)"/>
<defs>
<linearGradient id="paint0_linear_976_2889" x1="46.5491" y1="97.7214" x2="42.9435" y2="1.25199" gradientUnits="userSpaceOnUse">
<stop stop-color="#006DF0"/>
<stop offset="1" stop-color="#00E7F0"/>
</linearGradient>
</defs>
</svg>
