<svg width="304" height="255" viewBox="0 0 304 255" fill="none" xmlns="http://www.w3.org/2000/svg">
<path d="M292.263 1.55469L303.85 20.9269V233.033L123.281 231.228L113.398 220.976L292.263 1.55469Z" fill="#E0E0E0"/>
<path d="M292.263 0.617188H113.398V220.971H292.263V0.617188Z" fill="#F3F3F3"/>
<path d="M292.265 220.974C292.265 219.601 292.203 131.675 292.108 0.619715L292.265 0.77755H113.414L113.592 0.599129C113.592 82.116 113.592 157.93 113.592 220.953L113.448 220.802L292.313 220.953L113.401 221.152H113.25V221.001C113.25 157.978 113.25 82.164 113.25 0.647165V0.46875H113.442H292.292H292.45V0.626579C292.333 131.675 292.265 219.581 292.265 220.974Z" fill="#263238"/>
<path d="M251.613 36.6562H142.07V45.09H251.613V36.6562Z" fill="#FF725E"/>
<path d="M251.61 113.977H140.586V122.41H251.61V113.977Z" fill="#FF725E"/>
<path d="M197.088 72.4375H142.07V80.8712H197.088V72.4375Z" fill="#E0E0E0"/>
<path d="M221.784 52.5534C221.784 52.6495 204.086 52.725 182.247 52.725C160.408 52.725 142.703 52.6495 142.703 52.5534C142.703 52.4573 160.408 52.375 182.247 52.375C204.086 52.375 221.784 52.4505 221.784 52.5534Z" fill="#263238"/>
<path d="M196.617 86.0144C196.617 86.1104 184.298 86.1928 169.126 86.1928C153.953 86.1928 141.641 86.1104 141.641 86.0144C141.641 85.9183 153.96 85.8359 169.126 85.8359C184.292 85.8359 196.617 85.9183 196.617 86.0144Z" fill="#263238"/>
<path d="M196.613 92.4909C196.613 92.587 184.507 92.6693 169.58 92.6693C154.654 92.6693 142.547 92.587 142.547 92.4909C142.547 92.3948 154.647 92.3125 169.58 92.3125C184.513 92.3125 196.613 92.3948 196.613 92.4909Z" fill="#263238"/>
<path d="M196.392 99.0847C196.392 99.1807 184.183 99.2631 169.126 99.2631C154.07 99.2631 141.867 99.1807 141.867 99.0847C141.867 98.9886 154.07 98.9062 169.126 98.9062C184.183 98.9062 196.392 99.0092 196.392 99.0847Z" fill="#263238"/>
<path d="M196.392 105.467C196.392 105.564 184.183 105.646 169.126 105.646C154.07 105.646 141.867 105.564 141.867 105.467C141.867 105.371 154.07 105.289 169.126 105.289C184.183 105.289 196.392 105.371 196.392 105.467Z" fill="#263238"/>
<path d="M251.489 169.002C251.489 169.002 251.489 168.769 251.489 168.316C251.489 167.863 251.489 167.204 251.489 166.34C251.489 164.597 251.489 162.023 251.489 158.681C251.489 152.004 251.461 142.246 251.439 129.915L251.522 130.025L141.667 130.093L141.806 129.915C141.806 143.358 141.806 156.465 141.806 168.988L141.673 168.817L220.133 168.892L243.181 168.947H249.375H250.985H249.391H243.225L220.21 168.995L141.656 169.071H141.523V169.002C141.523 156.479 141.523 143.372 141.523 129.928V129.75H141.667L251.522 129.819H251.611V129.928C251.611 142.281 251.572 152.066 251.561 158.75C251.561 162.078 251.561 164.645 251.561 166.381C251.561 167.239 251.561 167.89 251.561 168.337C251.561 168.783 251.489 169.002 251.489 169.002Z" fill="#263238"/>
<path d="M251.946 139.772C251.946 139.868 227.336 139.951 196.961 139.951C166.586 139.951 141.977 139.868 141.977 139.772C141.977 139.676 166.586 139.594 196.961 139.594C227.336 139.594 251.946 139.676 251.946 139.772Z" fill="#263238"/>
<path d="M251.946 149.475C251.946 149.571 227.336 149.654 196.961 149.654C166.586 149.654 141.977 149.571 141.977 149.475C141.977 149.379 166.586 149.297 196.961 149.297C227.336 149.297 251.946 149.379 251.946 149.475Z" fill="#263238"/>
<path d="M251.946 159.288C251.946 159.391 227.336 159.466 196.961 159.466C166.586 159.466 141.977 159.391 141.977 159.288C141.977 159.185 166.586 159.109 196.961 159.109C227.336 159.109 251.946 159.192 251.946 159.288Z" fill="#263238"/>
<path d="M157.437 169.354C157.341 169.354 157.266 160.515 157.266 149.618C157.266 138.72 157.341 129.875 157.437 129.875C157.533 129.875 157.609 138.714 157.609 149.618C157.609 160.522 157.533 169.354 157.437 169.354Z" fill="#263238"/>
<path d="M203.359 168.162C203.263 168.162 203.188 159.722 203.188 149.312C203.188 138.902 203.263 130.461 203.359 130.461C203.455 130.461 203.531 138.902 203.531 149.312C203.531 159.722 203.455 168.162 203.359 168.162Z" fill="#263238"/>
<path d="M251.766 169.944C251.677 169.944 251.602 161.243 251.602 150.503C251.602 139.764 251.677 131.062 251.766 131.062C251.855 131.062 251.938 139.764 251.938 150.503C251.938 161.243 251.862 169.944 251.766 169.944Z" fill="#263238"/>
<path d="M190.504 189.061C190.504 189.164 179.711 189.24 166.4 189.24C153.089 189.24 142.289 189.164 142.289 189.061C142.289 188.958 153.082 188.883 166.4 188.883C179.718 188.883 190.504 188.965 190.504 189.061Z" fill="#263238"/>
<path d="M118.539 226.293C118.539 226.293 118.847 226.293 119.449 226.293H122.132H132.466L170.682 226.485L298.663 227.261L298.485 227.439V209.878C298.485 155.145 298.519 105.606 298.533 69.7442C298.533 51.8131 298.581 37.3062 298.594 27.2736C298.594 22.2641 298.594 18.3527 298.594 15.7313C298.594 14.4137 298.594 13.405 298.594 12.7256C298.594 12.0462 298.594 11.7031 298.594 11.7031C298.594 11.7031 298.594 12.0462 298.594 12.7256C298.594 13.405 298.594 14.4137 298.594 15.7313C298.594 18.3732 298.594 22.2641 298.629 27.2736C298.629 37.3062 298.663 51.8131 298.683 69.7442C298.683 105.606 298.718 155.145 298.738 209.878V227.638H298.56L170.614 226.753L132.391 226.444L122.064 226.348L119.381 226.314L118.539 226.293Z" fill="#263238"/>
<path d="M115.578 223.383H116.488H129.492L167.626 223.472L295.38 223.891L295.202 224.069C295.202 218.168 295.202 211.889 295.202 205.541C295.284 150.643 295.353 100.94 295.401 64.9538C295.442 46.9747 295.476 32.4198 295.503 22.3529C295.503 17.3297 295.538 13.4319 295.544 10.7694C295.544 9.45183 295.544 8.44308 295.544 7.75685C295.544 7.07062 295.544 6.73438 295.544 6.73438C295.544 6.73438 295.544 7.07749 295.544 7.75685C295.544 8.43622 295.544 9.45183 295.544 10.7694C295.544 13.4251 295.544 17.3297 295.544 22.3529C295.544 32.4198 295.544 46.9747 295.544 64.9538C295.544 100.94 295.49 150.636 295.455 205.541C295.455 211.889 295.455 218.168 295.455 224.069V224.248H295.278L167.523 223.712L129.389 223.52L119.082 223.445H116.406L115.578 223.383Z" fill="#263238"/>
<path d="M121.188 229.091H124.781L135.101 229.125L173.262 229.317L300.901 230.072L300.723 230.251C300.723 225.083 300.764 219.573 300.784 214.014C301.01 159.755 301.215 110.648 301.366 75.0948C301.462 57.3215 301.537 42.9382 301.585 32.9948C301.585 28.0265 301.647 24.1699 301.66 21.5485C301.66 20.2447 301.66 19.2497 301.694 18.5703C301.729 17.8909 301.694 17.5547 301.694 17.5547C301.694 17.5547 301.694 17.9047 301.694 18.5703C301.694 19.2359 301.694 20.2447 301.694 21.5485C301.694 24.1699 301.694 28.0265 301.694 32.9948C301.694 42.9382 301.633 57.3215 301.592 75.0948C301.469 110.648 301.298 159.755 301.113 214.014C301.113 219.573 301.072 225.083 301.051 230.251V230.429H300.873L173.235 229.551L135.074 229.249L124.753 229.153L122.07 229.118L121.188 229.091Z" fill="#263238"/>
<path d="M93.9124 82.5781L85.0156 89.159C85.9281 91.8079 86.8406 94.459 87.7531 97.1124C89.746 95.264 91.3254 93.0128 92.3871 90.5075C93.4488 88.0022 93.9687 85.2997 93.9124 82.5781Z" fill="#263238"/>
<path d="M73.2608 66.7564C75.6771 65.5397 78.4406 65.2048 81.0764 65.8094C83.6923 66.4219 86.191 67.458 88.4744 68.8768C89.8123 69.5624 91.0101 70.4934 92.0058 71.6217C93.7167 73.7696 95.4276 77.3105 95.5645 80.0554C95.7014 82.2788 94.8801 87.8372 93.9152 89.8547C93.0597 91.7007 89.0356 93.1143 87.0714 93.5672L68.8672 72.3354C69.195 71.1602 69.7522 70.062 70.5064 69.1044C71.2606 68.1467 72.1968 67.3486 73.2608 66.7564Z" fill="#263238"/>
<path d="M70.1273 69.6182L74.4936 68.8359C72.1051 74.5316 71.4618 87.563 70.0931 93.5881C68.4848 91.2481 64.7481 84.1182 64.9534 81.2841C65.1588 78.45 64.9329 69.1379 70.1273 69.6182Z" fill="#263238"/>
<path d="M90.812 79.0941C90.7317 77.4988 90.1433 75.9713 89.1332 74.7362C88.1231 73.501 86.7446 72.6232 85.2002 72.2318L75.1878 69.6379C70.8421 69.1712 67.9403 74.5307 67.6598 78.9019C67.3381 83.7604 67.1465 88.8796 67.7145 92.5098C68.8506 99.7975 74.4213 100.745 74.4213 100.745V106.344L77.7884 120.302L88.9984 108.176L90.8736 79.1901C90.8394 79.0597 90.8257 79.2588 90.812 79.0941Z" fill="#FFBF9D"/>
<path d="M69.8126 84.4115C69.8089 84.6555 69.9006 84.8913 70.0682 85.0683C70.2358 85.2453 70.4659 85.3495 70.7091 85.3584C70.8277 85.3678 70.9469 85.3532 71.0597 85.3155C71.1725 85.2779 71.2766 85.2179 71.3659 85.1393C71.4552 85.0606 71.5279 84.9647 71.5797 84.8574C71.6314 84.7501 71.6612 84.6334 71.6673 84.5144C71.6693 84.2727 71.5776 84.0396 71.4117 83.8642C71.2458 83.6889 71.0184 83.5849 70.7776 83.5743C70.6589 83.563 70.5391 83.5759 70.4255 83.6124C70.3119 83.6488 70.2069 83.7079 70.1167 83.7861C70.0265 83.8644 69.9531 83.9601 69.9008 84.0676C69.8486 84.175 69.8186 84.292 69.8126 84.4115Z" fill="#263238"/>
<path d="M68.7172 81.7626C68.8335 81.8861 69.5384 81.3646 70.5444 81.3646C71.5505 81.3646 72.2827 81.8724 72.3922 81.7557C72.5017 81.639 72.3238 81.4812 72.009 81.241C71.5744 80.9405 71.0587 80.7801 70.5307 80.7813C70.0082 80.7805 69.4985 80.9437 69.073 81.2479C68.7651 81.4881 68.6624 81.7283 68.7172 81.7626Z" fill="#263238"/>
<path d="M78.5547 84.4108C78.5527 84.6544 78.645 84.8892 78.8123 85.0658C78.9795 85.2425 79.2086 85.3472 79.4512 85.3578C79.5701 85.3672 79.6897 85.3526 79.8029 85.315C79.9161 85.2775 80.0207 85.2176 80.1105 85.139C80.2004 85.0604 80.2737 84.9647 80.3262 84.8573C80.3787 84.7499 80.4093 84.6331 80.4162 84.5138C80.4182 84.2709 80.3256 84.0368 80.1582 83.8613C79.9908 83.6857 79.7617 83.5826 79.5197 83.5736C79.4012 83.5633 79.2818 83.577 79.1686 83.6138C79.0554 83.6506 78.9507 83.7097 78.8608 83.7878C78.7708 83.8658 78.6974 83.9612 78.6448 84.0682C78.5922 84.1752 78.5616 84.2917 78.5547 84.4108Z" fill="#263238"/>
<path d="M78.2406 81.7626C78.3569 81.8861 79.0618 81.3646 80.0679 81.3646C81.0739 81.3646 81.8062 81.8792 81.9157 81.7557C82.0252 81.6322 81.8472 81.4812 81.5324 81.241C81.0978 80.9405 80.5821 80.7801 80.0542 80.7813C79.5316 80.7805 79.0219 80.9437 78.5965 81.2479C78.2885 81.4881 78.1859 81.7283 78.2406 81.7626Z" fill="#263238"/>
<path d="M75.1102 89.6684C74.5809 89.5053 74.0341 89.4063 73.4814 89.3734C73.2213 89.3734 72.9818 89.291 72.9407 89.1195C72.9179 88.8539 72.9777 88.5878 73.1118 88.3577C73.3536 87.7356 73.6068 87.0837 73.8715 86.402C74.9322 83.6159 75.6987 81.3308 75.5892 81.2896C75.4797 81.2485 74.5284 83.4718 73.4677 86.251C73.2144 86.9373 72.9681 87.5892 72.7354 88.2136C72.5764 88.5245 72.5305 88.8812 72.6054 89.2224C72.641 89.3134 72.6973 89.3949 72.7698 89.4604C72.8422 89.5259 72.9288 89.5736 73.0228 89.5998C73.1628 89.6411 73.3081 89.6619 73.454 89.6616C74.0035 89.735 74.5601 89.7373 75.1102 89.6684Z" fill="#263238"/>
<path d="M84.0266 98.1484C84.0266 98.1484 81.6655 103.158 74.3906 102.458V100.742C77.7803 100.79 81.1165 99.892 84.0266 98.1484Z" fill="#FF9A6C"/>
<path d="M78.5596 78.1279C78.6554 78.4024 79.6614 78.2788 80.8385 78.4229C82.0156 78.567 82.9669 78.8896 83.1175 78.6425C83.1928 78.5259 83.0285 78.272 82.6453 78.0043C82.1331 77.6796 81.5541 77.4756 80.9518 77.4078C80.3496 77.3401 79.7399 77.4103 79.1687 77.6132C78.7375 77.7848 78.5185 77.9975 78.5596 78.1279Z" fill="#263238"/>
<path d="M69.0414 78.6879C69.2193 78.9144 69.9105 78.6879 70.7386 78.6879C71.5667 78.6879 72.2716 78.8458 72.4358 78.6056C72.5043 78.4889 72.3948 78.2625 72.0868 78.0429C71.6794 77.7805 71.202 77.6488 70.7181 77.6655C70.2251 77.6712 69.7463 77.832 69.3493 78.1252C69.0756 78.338 68.9798 78.5713 69.0414 78.6879Z" fill="#263238"/>
<path d="M69.6031 72.2474C69.8602 71.7117 70.2606 71.258 70.7596 70.937C71.2586 70.6159 71.8368 70.44 72.4296 70.4289C73.6174 70.432 74.78 70.7722 75.783 71.4102C80.1082 73.9218 82.3324 79.9812 86.6097 82.5751C87.6637 83.2133 89.0324 82.63 89.9289 83.4741C90.8255 84.3182 91.4003 85.67 90.9076 86.8023C91.5197 86.038 92.0198 85.19 92.3927 84.2838C92.5759 83.829 92.6597 83.34 92.6384 82.85C92.6172 82.3599 92.4914 81.8801 92.2695 81.4429C91.8999 80.7978 91.2498 80.3106 91.0718 79.5901C91.0241 78.9401 91.0448 78.2868 91.1334 77.6412C91.0535 76.9761 90.8191 76.3392 90.449 75.7815C88.8385 72.7504 86.4347 70.2167 83.4959 68.4526C81.5589 67.3309 79.3539 66.7592 77.1175 66.7988C74.8711 66.8503 72.7175 67.7073 71.0471 69.2143C70.0959 70.1064 69.0898 71.0328 69.5826 72.2474" fill="#263238"/>
<path d="M89.8281 84.3794C89.9034 84.1667 93.6948 82.7942 93.7427 86.8361C93.7906 90.7613 89.8418 89.9928 89.835 89.8761C89.8281 89.7594 89.8281 84.3794 89.8281 84.3794Z" fill="#FFBF9D"/>
<path d="M91.0193 88.3863C91.0193 88.3863 91.0877 88.4344 91.2041 88.4824C91.3687 88.5492 91.5527 88.5492 91.7174 88.4824C91.968 88.3191 92.1711 88.0921 92.3057 87.8245C92.4404 87.5568 92.5018 87.2582 92.4839 86.959C92.4894 86.6206 92.4192 86.2853 92.2785 85.9777C92.2415 85.8563 92.1754 85.7459 92.0859 85.6562C91.9964 85.5665 91.8863 85.5001 91.7653 85.463C91.687 85.4421 91.6039 85.4492 91.5302 85.483C91.4565 85.5168 91.3969 85.5752 91.3615 85.6483C91.3136 85.765 91.3615 85.8404 91.3136 85.8473C91.2657 85.8542 91.2315 85.7787 91.2588 85.6208C91.281 85.5226 91.3367 85.4353 91.4162 85.3738C91.4685 85.3315 91.5289 85.3005 91.5937 85.2828C91.6585 85.2651 91.7262 85.261 91.7926 85.2709C91.9532 85.3007 92.1036 85.3712 92.2293 85.4757C92.3551 85.5802 92.4521 85.7152 92.5112 85.8679C92.6807 86.2085 92.7652 86.5853 92.7576 86.9659C92.7785 87.3144 92.6969 87.6615 92.5229 87.964C92.3489 88.2665 92.0903 88.5112 91.779 88.6677C91.6734 88.6993 91.5623 88.707 91.4534 88.6904C91.3445 88.6738 91.2407 88.6332 91.1493 88.5716C91.0261 88.4824 91.0056 88.3932 91.0193 88.3863Z" fill="#FF9A6C"/>
<path d="M91.3862 82.3648C91.3047 82.3262 91.2268 82.2803 91.1535 82.2276C90.9181 82.1004 90.6897 81.9607 90.4692 81.809C89.6961 81.2456 88.9869 80.599 88.3545 79.8807C87.4309 78.8086 86.5672 77.686 85.7675 76.5182C84.8053 75.0849 83.7247 73.7352 82.5373 72.4831C81.9169 71.8565 81.2282 71.3018 80.4842 70.8293C79.7781 70.3976 79.0219 70.0542 78.2326 69.8069C76.895 69.3744 75.4878 69.1998 74.0853 69.2922C73.1388 69.3493 72.2042 69.5339 71.3068 69.8412C70.9851 69.9372 70.7456 70.047 70.5813 70.1088C70.5009 70.1489 70.4159 70.1789 70.3281 70.198L70.5677 70.0745C70.7319 70.0059 70.9646 69.8823 71.252 69.7725C72.1499 69.4407 73.0898 69.2374 74.0443 69.1687C75.465 69.0534 76.8946 69.2166 78.2531 69.649C79.0554 69.8997 79.825 70.2452 80.5458 70.6784C81.3093 71.1577 82.0184 71.7192 82.6605 72.3528C83.8576 73.6121 84.9431 74.9737 85.9044 76.4221C86.6915 77.5929 87.5413 78.7199 88.4503 79.7983C89.0688 80.5164 89.7565 81.1715 90.5034 81.7541C90.7703 81.9599 90.9893 82.0972 91.133 82.2001C91.2248 82.2425 91.3101 82.298 91.3862 82.3648Z" fill="#455A64"/>
<path d="M91.4677 89.0745C91.6598 89.0401 91.8579 89.0805 92.0213 89.1874C92.1848 89.2944 92.3014 89.4599 92.3474 89.6502C92.3933 89.8404 92.3652 90.0411 92.2686 90.2112C92.1721 90.3813 92.0144 90.5081 91.8279 90.5657C91.6413 90.6232 91.4398 90.6072 91.2646 90.521C91.0893 90.4347 90.9536 90.2846 90.8849 90.1014C90.8162 89.9181 90.8199 89.7155 90.8951 89.5349C90.9704 89.3543 91.1115 89.2092 91.2897 89.1294" fill="white"/>
<path d="M91.282 89.1293C91.1123 89.2648 90.988 89.4492 90.9261 89.6577C90.8996 89.7652 90.8995 89.8775 90.9257 89.985C90.952 90.0926 91.0037 90.1922 91.0767 90.2753C91.164 90.3788 91.2799 90.4541 91.4099 90.4917C91.5398 90.5292 91.6779 90.5273 91.8068 90.4862C91.9357 90.4451 92.0495 90.3666 92.1339 90.2607C92.2183 90.1547 92.2696 90.0261 92.2812 89.891C92.2934 89.7817 92.2793 89.671 92.24 89.5683C92.2007 89.4656 92.1374 89.3739 92.0553 89.3008C91.8834 89.1682 91.6763 89.0895 91.4599 89.0744C91.5151 89.0401 91.5802 89.0256 91.6447 89.0332C91.7559 89.0348 91.8656 89.0591 91.967 89.1048C92.0684 89.1505 92.1594 89.2165 92.2345 89.2988C92.3095 89.3811 92.3669 89.4779 92.4032 89.5833C92.4395 89.6887 92.4538 89.8004 92.4454 89.9116C92.4353 90.0805 92.3745 90.2423 92.2709 90.3758C92.1673 90.5093 92.0257 90.6082 91.865 90.6595C91.7042 90.7108 91.5317 90.712 91.3702 90.663C91.2087 90.614 91.0658 90.5171 90.9603 90.3851C90.8873 90.3003 90.8328 90.2012 90.8003 90.0941C90.7678 89.9869 90.758 89.8742 90.7715 89.763C90.7851 89.6519 90.8216 89.5448 90.8789 89.4486C90.9362 89.3525 91.0128 89.2694 91.104 89.2048C91.2067 89.1361 91.2751 89.1224 91.282 89.1293Z" fill="#263238"/>
<path d="M90.3954 83.4746C90.5502 84.5423 90.4179 85.632 90.0122 86.6312C89.5194 87.5851 88.2739 88.2302 87.3431 87.6949C86.5835 87.2626 86.3576 86.3224 86.2276 85.4235C85.8581 82.9188 85.687 80.3935 85.2969 77.875L90.3954 83.4746Z" fill="#263238"/>
<path d="M70.5703 70.3902C70.5703 70.3902 70.9125 70.3216 71.5421 70.301C72.4291 70.2888 73.3101 70.4496 74.1359 70.7745C74.7042 70.9959 75.2479 71.2765 75.7578 71.6117C76.3406 72.0072 76.9004 72.4356 77.4346 72.8949C78.6643 73.9424 79.7648 75.1334 80.7127 76.4427C81.2054 77.1289 81.6503 77.8632 82.1225 78.5014C82.578 79.1499 83.1061 79.744 83.6965 80.2719C84.7112 81.1337 85.8202 81.8773 87.0021 82.4884C88.0081 83.0236 88.843 83.3942 89.4179 83.6481L90.1023 83.9363C90.1789 83.9724 90.2592 84 90.3418 84.0187C90.2749 83.9674 90.2012 83.9258 90.1228 83.8951L89.4726 83.5726C88.9046 83.2913 88.1039 82.8864 87.091 82.3511C85.9305 81.7272 84.8406 80.9795 83.8403 80.1209C83.2673 79.5997 82.7553 79.015 82.3141 78.3779C81.8487 77.6916 81.4039 77.0054 80.9043 76.2849C79.9476 74.9616 78.8303 73.763 77.5783 72.7165C77.0411 72.2541 76.4741 71.8277 75.881 71.4401C75.3584 71.1036 74.8008 70.8252 74.218 70.6098C73.3741 70.2864 72.4714 70.1461 71.5695 70.1981C71.3257 70.2126 71.0833 70.2447 70.8441 70.2941C70.749 70.314 70.657 70.3463 70.5703 70.3902Z" fill="#455A64"/>
<path d="M90.5 81.0447C90.6049 81.1385 90.7224 81.217 90.849 81.278L91.8345 81.8613L92.1699 82.0535C92.3017 82.1318 92.4487 82.1809 92.601 82.1976C92.6945 82.2094 92.7891 82.1875 92.8679 82.1358C92.9095 82.1056 92.944 82.0666 92.9688 82.0215C92.9937 81.9765 93.0083 81.9264 93.0116 81.8751C93.002 81.6953 92.9375 81.5228 92.8269 81.381L91.6771 79.535L91.5197 79.6791C91.8996 79.9599 92.3258 80.1713 92.779 80.3036C93.2326 80.4445 93.7078 80.5026 94.1819 80.4751C94.3027 80.4704 94.4224 80.4496 94.5378 80.4134C94.6037 80.3921 94.6646 80.3574 94.7164 80.3113C94.7683 80.2652 94.81 80.2089 94.8389 80.1458C94.8633 80.0792 94.8697 80.0074 94.8577 79.9376C94.8457 79.8677 94.8156 79.8023 94.7705 79.7477C94.7044 79.6595 94.6312 79.5768 94.5515 79.5007C94.0349 79.0015 93.5862 78.4362 93.217 77.8194C92.8909 77.2369 92.6073 76.6314 92.3683 76.0078C92.3842 76.1889 92.4256 76.3668 92.4915 76.5362C92.6438 77.0114 92.8409 77.4709 93.0801 77.9087C93.441 78.552 93.8877 79.143 94.4078 79.6654C94.5515 79.8026 94.702 79.9605 94.6404 80.084C94.5789 80.2075 94.3735 80.2693 94.1682 80.2693C93.72 80.2906 93.2714 80.2373 92.8405 80.1114C92.4118 79.984 92.0087 79.7819 91.6497 79.5144L91.1844 79.1782L91.4923 79.6654L92.6695 81.4976C92.7614 81.6036 92.8188 81.7353 92.8337 81.8751C92.8313 81.9017 92.8234 81.9275 92.8104 81.9509C92.7975 81.9743 92.7798 81.9947 92.7586 82.0108C92.7373 82.027 92.7129 82.0385 92.687 82.0447C92.661 82.0508 92.6341 82.0515 92.6079 82.0466C92.3645 81.992 92.1327 81.8944 91.9235 81.7584L90.9038 81.23C90.7768 81.1527 90.6413 81.0905 90.5 81.0447Z" fill="#455A64"/>
<path d="M78.9249 91.5149C78.8525 91.2126 78.6748 90.9463 78.4238 90.7639C78.1728 90.5814 77.8651 90.4949 77.5562 90.5198C77.3327 90.5479 77.1195 90.6309 76.9357 90.7614C76.7519 90.8919 76.603 91.0658 76.5022 91.2678C76.4043 91.472 76.3484 91.694 76.3378 91.9203C76.3272 92.1467 76.3622 92.3729 76.4406 92.5854V92.6746C76.6483 92.9017 76.921 93.0586 77.2213 93.1238C77.5216 93.1889 77.8347 93.159 78.1173 93.0383C78.4054 92.9153 78.6427 92.697 78.7897 92.4197C78.9367 92.1425 78.9844 91.8231 78.9249 91.5149Z" fill="#FF9A6C"/>
<path d="M75.7501 92.7123C75.7501 92.5545 76.763 92.6025 77.5295 91.7722C78.296 90.9418 78.2139 89.8507 78.3713 89.8439C78.5287 89.837 78.5561 90.0978 78.5492 90.5301C78.527 91.1253 78.2969 91.6936 77.8991 92.1359C77.5162 92.5604 76.9836 92.8188 76.414 92.8564C75.9897 92.8976 75.7433 92.7741 75.7501 92.7123Z" fill="#263238"/>
<path d="M60.2955 170.659C61.2057 165.931 64.128 150.018 64.128 146.799C64.128 146.271 63.3068 144.617 63.1562 144.102C62.3007 141.234 59.3305 130.666 59.9943 125.094C60.5281 120.64 64.2854 114.945 65.4147 111.898C65.9416 110.464 70.1643 108.988 71.5741 108.398L74.5649 104.164C74.5649 104.164 73.8805 106.134 76.5565 107.904C77.9793 108.825 79.656 109.272 81.3472 109.18C83.0334 109.103 84.6856 108.677 86.2001 107.93C87.7146 107.182 89.0588 106.129 90.1484 104.837L90.6412 105.221C100.305 108.343 100.223 108.364 102.057 109.146C104.445 110.155 96.8759 134.735 96.8759 134.735C96.8759 134.735 92.4069 151.335 94.8228 156.482C96.1915 159.378 100.75 164.161 101.906 166.851C101.906 166.851 103.918 169.671 103.959 170.378C104 171.085 92.0578 176.273 82.6338 176.801C65.223 177.803 60.2955 170.659 60.2955 170.659Z" fill="#F5F5F5"/>
<path d="M132.896 213.812H61.4327C60.0115 213.812 58.8594 214.968 58.8594 216.393V231.236C58.8594 232.661 60.0115 233.816 61.4327 233.816H132.896C134.318 233.816 135.47 232.661 135.47 231.236V216.393C135.47 214.968 134.318 213.812 132.896 213.812Z" fill="#263238"/>
<path d="M126.814 218.578H93.814C93.5457 218.578 93.3281 218.796 93.3281 219.065V229.386C93.3281 229.655 93.5457 229.873 93.814 229.873H126.814C127.083 229.873 127.3 229.655 127.3 229.386V219.065C127.3 218.796 127.083 218.578 126.814 218.578Z" fill="white"/>
<path d="M76.3132 228.32C78.5659 228.32 80.3921 226.489 80.3921 224.231C80.3921 221.972 78.5659 220.141 76.3132 220.141C74.0605 220.141 72.2344 221.972 72.2344 224.231C72.2344 226.489 74.0605 228.32 76.3132 228.32Z" fill="#263238"/>
<path d="M76.3218 229.013C75.3744 229.013 74.4481 228.732 73.6603 228.204C72.8725 227.676 72.2585 226.926 71.8959 226.048C71.5333 225.17 71.4385 224.205 71.6233 223.273C71.8081 222.341 72.2644 221.485 72.9344 220.813C73.6044 220.141 74.458 219.684 75.3872 219.499C76.3165 219.313 77.2798 219.408 78.1551 219.772C79.0305 220.135 79.7787 220.751 80.3051 221.541C80.8315 222.331 81.1124 223.26 81.1124 224.21C81.1124 225.484 80.6077 226.706 79.7093 227.606C78.8109 228.507 77.5924 229.013 76.3218 229.013ZM76.3218 220.834C75.6451 220.834 74.9835 221.035 74.4208 221.412C73.858 221.789 73.4195 222.325 73.1605 222.952C72.9015 223.579 72.8337 224.269 72.9657 224.934C73.0978 225.6 73.4237 226.211 73.9022 226.691C74.3808 227.171 74.9905 227.498 75.6543 227.63C76.318 227.762 77.0061 227.694 77.6313 227.435C78.2566 227.175 78.791 226.735 79.167 226.171C79.543 225.607 79.7437 224.943 79.7437 224.265C79.7437 223.355 79.3832 222.482 78.7415 221.839C78.0997 221.195 77.2294 220.834 76.3218 220.834Z" fill="#E0E0E0"/>
<path d="M96.8959 220.516C97.132 223.026 97.132 225.553 96.8959 228.064C96.6597 225.553 96.6597 223.026 96.8959 220.516Z" fill="#E0E0E0"/>
<path d="M100.201 220.516C100.437 223.026 100.437 225.553 100.201 228.064C99.9644 225.553 99.9644 223.026 100.201 220.516Z" fill="#E0E0E0"/>
<path d="M103.497 220.516C103.734 223.026 103.734 225.553 103.497 228.064C103.261 225.553 103.261 223.026 103.497 220.516Z" fill="#E0E0E0"/>
<path d="M106.802 220.516C107.038 223.026 107.038 225.553 106.802 228.064C106.566 225.553 106.566 223.026 106.802 220.516Z" fill="#E0E0E0"/>
<path d="M110.099 220.516C110.335 223.026 110.335 225.553 110.099 228.064C109.863 225.553 109.863 223.026 110.099 220.516Z" fill="#E0E0E0"/>
<path d="M113.419 220.516C113.655 223.026 113.655 225.553 113.419 228.064C113.183 225.553 113.183 223.026 113.419 220.516Z" fill="#E0E0E0"/>
<path d="M116.724 220.516C116.96 223.026 116.96 225.553 116.724 228.064C116.488 225.553 116.488 223.026 116.724 220.516Z" fill="#E0E0E0"/>
<path d="M120.021 220.516C120.257 223.026 120.257 225.553 120.021 228.064C119.785 225.553 119.785 223.026 120.021 220.516Z" fill="#E0E0E0"/>
<path d="M123.326 220.516C123.562 223.026 123.562 225.553 123.326 228.064C123.089 225.553 123.089 223.026 123.326 220.516Z" fill="#E0E0E0"/>
<path d="M132.896 194.555H61.4327C60.0115 194.555 58.8594 195.71 58.8594 197.135V211.978C58.8594 213.403 60.0115 214.558 61.4327 214.558H132.896C134.318 214.558 135.47 213.403 135.47 211.978V197.135C135.47 195.71 134.318 194.555 132.896 194.555Z" fill="#455A64"/>
<path d="M126.814 199.312H93.814C93.5457 199.312 93.3281 199.531 93.3281 199.8V210.121C93.3281 210.39 93.5457 210.608 93.814 210.608H126.814C127.083 210.608 127.3 210.39 127.3 210.121V199.8C127.3 199.531 127.083 199.312 126.814 199.312Z" fill="white"/>
<path d="M76.3132 209.07C78.5659 209.07 80.3921 207.239 80.3921 204.981C80.3921 202.722 78.5659 200.891 76.3132 200.891C74.0605 200.891 72.2344 202.722 72.2344 204.981C72.2344 207.239 74.0605 209.07 76.3132 209.07Z" fill="#263238"/>
<path d="M76.3218 209.748C75.3744 209.748 74.4481 209.466 73.6603 208.938C72.8725 208.41 72.2585 207.66 71.8959 206.782C71.5333 205.905 71.4385 204.939 71.6233 204.007C71.8081 203.075 72.2644 202.219 72.9344 201.548C73.6044 200.876 74.458 200.418 75.3872 200.233C76.3165 200.048 77.2798 200.143 78.1551 200.506C79.0305 200.87 79.7787 201.486 80.3051 202.275C80.8315 203.065 81.1124 203.994 81.1124 204.944C81.1124 206.218 80.6077 207.44 79.7093 208.341C78.8109 209.242 77.5924 209.748 76.3218 209.748ZM76.3218 201.575C75.6436 201.575 74.9807 201.777 74.4173 202.156C73.8538 202.534 73.4153 203.072 73.1573 203.701C72.8994 204.33 72.8336 205.022 72.9685 205.688C73.1033 206.355 73.4326 206.966 73.9146 207.444C74.3966 207.923 75.0095 208.247 75.6755 208.375C76.3415 208.504 77.0306 208.431 77.6552 208.166C78.2798 207.901 78.8119 207.456 79.1837 206.887C79.5556 206.318 79.7505 205.652 79.7437 204.972C79.7347 204.068 79.3702 203.204 78.7294 202.568C78.0887 201.932 77.2235 201.575 76.3218 201.575Z" fill="#E0E0E0"/>
<path d="M96.8962 201.25C97.1328 203.761 97.1328 206.288 96.8962 208.798C96.6596 206.288 96.6596 203.761 96.8962 201.25Z" fill="#E0E0E0"/>
<path d="M100.201 201.25C100.437 203.761 100.437 206.288 100.201 208.798C99.9643 206.288 99.9643 203.761 100.201 201.25Z" fill="#E0E0E0"/>
<path d="M103.498 201.25C103.734 203.761 103.734 206.288 103.498 208.798C103.261 206.288 103.261 203.761 103.498 201.25Z" fill="#E0E0E0"/>
<path d="M106.802 201.25C107.039 203.761 107.039 206.288 106.802 208.798C106.566 206.288 106.566 203.761 106.802 201.25Z" fill="#E0E0E0"/>
<path d="M110.099 201.25C110.336 203.761 110.336 206.288 110.099 208.798C109.863 206.288 109.863 203.761 110.099 201.25Z" fill="#E0E0E0"/>
<path d="M113.42 201.25C113.656 203.761 113.656 206.288 113.42 208.798C113.183 206.288 113.183 203.761 113.42 201.25Z" fill="#E0E0E0"/>
<path d="M116.724 201.25C116.961 203.761 116.961 206.288 116.724 208.798C116.488 206.288 116.488 203.761 116.724 201.25Z" fill="#E0E0E0"/>
<path d="M120.021 201.25C120.258 203.761 120.258 206.288 120.021 208.798C119.785 206.288 119.785 203.761 120.021 201.25Z" fill="#E0E0E0"/>
<path d="M123.326 201.25C123.562 203.761 123.562 206.288 123.326 208.798C123.089 206.288 123.089 203.761 123.326 201.25Z" fill="#E0E0E0"/>
<path d="M132.896 233.914H61.4327C60.0115 233.914 58.8594 235.069 58.8594 236.494V251.337C58.8594 252.762 60.0115 253.918 61.4327 253.918H132.896C134.318 253.918 135.47 252.762 135.47 251.337V236.494C135.47 235.069 134.318 233.914 132.896 233.914Z" fill="#E0E0E0"/>
<path d="M126.814 238.695H93.814C93.5457 238.695 93.3281 238.913 93.3281 239.183V249.503C93.3281 249.772 93.5457 249.991 93.814 249.991H126.814C127.083 249.991 127.3 249.772 127.3 249.503V239.183C127.3 238.913 127.083 238.695 126.814 238.695Z" fill="white"/>
<path d="M80.3921 244.367C80.3921 243.553 80.1513 242.757 79.7001 242.08C79.2489 241.403 78.6076 240.875 77.8573 240.563C77.107 240.252 76.2814 240.17 75.4848 240.329C74.6883 240.488 73.9566 240.88 73.3824 241.456C72.8081 242.032 72.417 242.765 72.2586 243.564C72.1001 244.363 72.1815 245.191 72.4923 245.943C72.8031 246.695 73.3294 247.338 74.0046 247.791C74.6799 248.243 75.4738 248.485 76.2859 248.485C77.375 248.485 78.4194 248.051 79.1895 247.279C79.9595 246.507 80.3921 245.459 80.3921 244.367Z" fill="#263238"/>
<path d="M76.3218 249.123C75.3744 249.123 74.4481 248.841 73.6603 248.313C72.8725 247.785 72.2585 247.035 71.8959 246.157C71.5333 245.28 71.4385 244.314 71.6233 243.382C71.8081 242.45 72.2644 241.594 72.9344 240.923C73.6044 240.251 74.458 239.793 75.3872 239.608C76.3165 239.423 77.2798 239.518 78.1551 239.881C79.0305 240.245 79.7787 240.861 80.3051 241.65C80.8315 242.44 81.1124 243.369 81.1124 244.319C81.1124 245.593 80.6077 246.815 79.7093 247.716C78.8109 248.617 77.5924 249.123 76.3218 249.123ZM76.3218 240.943C75.6451 240.943 74.9835 241.144 74.4208 241.521C73.858 241.898 73.4195 242.434 73.1605 243.061C72.9015 243.688 72.8337 244.378 72.9657 245.043C73.0978 245.709 73.4237 246.32 73.9022 246.8C74.3808 247.28 74.9905 247.607 75.6543 247.739C76.318 247.872 77.0061 247.804 77.6313 247.544C78.2566 247.284 78.791 246.845 79.167 246.28C79.543 245.716 79.7437 245.053 79.7437 244.374C79.7446 243.923 79.6568 243.476 79.4852 243.059C79.3136 242.642 79.0617 242.263 78.7439 241.943C78.426 241.624 78.0485 241.371 77.6329 241.198C77.2173 241.025 76.7718 240.936 76.3218 240.936V240.943Z" fill="#F5F5F5"/>
<path d="M96.8962 240.625C97.1328 243.136 97.1328 245.663 96.8962 248.173C96.6596 245.663 96.6596 243.136 96.8962 240.625Z" fill="#E0E0E0"/>
<path d="M100.201 240.625C100.437 243.136 100.437 245.663 100.201 248.173C99.9643 245.663 99.9643 243.136 100.201 240.625Z" fill="#E0E0E0"/>
<path d="M103.498 240.625C103.734 243.136 103.734 245.663 103.498 248.173C103.261 245.663 103.261 243.136 103.498 240.625Z" fill="#E0E0E0"/>
<path d="M106.802 240.625C107.039 243.136 107.039 245.663 106.802 248.173C106.566 245.663 106.566 243.136 106.802 240.625Z" fill="#E0E0E0"/>
<path d="M110.099 240.625C110.336 243.136 110.336 245.663 110.099 248.173C109.863 245.663 109.863 243.136 110.099 240.625Z" fill="#E0E0E0"/>
<path d="M113.42 240.625C113.656 243.136 113.656 245.663 113.42 248.173C113.183 245.663 113.183 243.136 113.42 240.625Z" fill="#E0E0E0"/>
<path d="M116.724 240.625C116.961 243.136 116.961 245.663 116.724 248.173C116.488 245.663 116.488 243.136 116.724 240.625Z" fill="#E0E0E0"/>
<path d="M120.021 240.625C120.258 243.136 120.258 245.663 120.021 248.173C119.785 245.663 119.785 243.136 120.021 240.625Z" fill="#E0E0E0"/>
<path d="M123.326 240.625C123.562 243.136 123.562 245.663 123.326 248.173C123.089 245.663 123.089 243.136 123.326 240.625Z" fill="#E0E0E0"/>
<path d="M22.105 213.562L16.4316 225.832C16.4316 225.832 2.26512 223.952 0.992188 226.12L24.1581 238.225L33.7804 219.457L22.105 213.562Z" fill="#455A64"/>
<path d="M23.9883 228.463C24.1787 228.649 24.2949 228.897 24.3151 229.163C24.3352 229.428 24.258 229.692 24.0978 229.904C23.9202 230.102 23.6738 230.224 23.4091 230.246C23.1445 230.268 22.8816 230.187 22.6743 230.021C22.4721 229.825 22.3497 229.56 22.3307 229.279C22.3117 228.997 22.3976 228.719 22.5716 228.497C22.7768 228.311 23.0457 228.211 23.3224 228.219C23.5991 228.227 23.8621 228.341 24.0567 228.539" fill="#E0E0E0"/>
<path d="M24.1603 238.244L24.9268 236.748L2.21249 225.453C1.94581 225.479 1.68705 225.558 1.45182 225.687C1.21658 225.815 1.00974 225.99 0.84375 226.201L24.1603 238.244Z" fill="#263238"/>
<path d="M16.1835 225.841C16.1287 225.958 16.6762 226.308 17.0526 226.96C17.4291 227.612 17.4906 228.257 17.6138 228.264C17.737 228.27 17.9081 227.522 17.4427 226.733C16.9774 225.944 16.2109 225.704 16.1835 225.841Z" fill="#263238"/>
<path d="M13.1986 225.584C13.1164 225.687 13.5134 226.133 13.6571 226.82C13.8008 227.506 13.6571 228.075 13.7666 228.13C13.8761 228.185 14.2867 227.568 14.0951 226.758C13.9035 225.948 13.2533 225.482 13.1986 225.584Z" fill="#263238"/>
<path d="M10.3002 227.827C10.396 227.903 10.8477 227.409 10.8682 226.626C10.8888 225.844 10.485 225.322 10.3892 225.398C10.2934 225.473 10.4508 225.974 10.4234 226.613C10.396 227.251 10.1839 227.758 10.3002 227.827Z" fill="#263238"/>
<path d="M17.7971 223.148C17.7971 223.279 18.3993 223.382 19.0289 223.759C19.6586 224.137 20.0555 224.596 20.165 224.528C20.2745 224.459 19.9939 223.8 19.2479 223.368C18.502 222.936 17.7834 223.025 17.7971 223.148Z" fill="#263238"/>
<path d="M18.6956 220.347C18.6956 220.395 19.0857 220.697 19.8796 220.944C20.3434 221.08 20.8209 221.162 21.3031 221.191C21.5879 221.211 21.8738 221.211 22.1586 221.191C22.329 221.185 22.4975 221.152 22.6582 221.095C22.7737 221.051 22.8717 220.97 22.9372 220.864C23.0026 220.759 23.032 220.635 23.0209 220.512C23.002 220.403 22.9591 220.299 22.8951 220.209C22.8312 220.119 22.7478 220.044 22.6513 219.99C22.4997 219.914 22.3386 219.859 22.1723 219.825C21.8912 219.761 21.6049 219.721 21.3168 219.709C20.8279 219.685 20.3383 219.738 19.8659 219.867C19.0652 220.1 18.6614 220.436 18.6888 220.477C18.7162 220.518 19.1679 220.313 19.9344 220.182C20.3861 220.103 20.8461 220.082 21.3031 220.12C21.5666 220.144 21.8276 220.19 22.0833 220.258C22.3639 220.319 22.576 220.422 22.5897 220.567C22.6034 220.711 22.5897 220.642 22.4939 220.683C22.3772 220.724 22.2549 220.748 22.1312 220.752C21.8657 220.785 21.598 220.799 21.3305 220.793C20.8709 220.792 20.4124 220.746 19.9617 220.656C19.5474 220.523 19.1243 220.42 18.6956 220.347Z" fill="#263238"/>
<path d="M44.1404 233.292L44.859 246.804C44.859 246.804 31.4659 251.793 31.3906 254.304L57.5062 254.133L57.253 233.031L44.1404 233.292Z" fill="#455A64"/>
<path d="M52.7722 245.59C53.0267 245.662 53.2456 245.826 53.387 246.05C53.5284 246.274 53.5824 246.543 53.5387 246.805C53.4766 247.063 53.3176 247.288 53.0946 247.433C52.8716 247.577 52.6018 247.63 52.3411 247.58C52.07 247.503 51.8373 247.327 51.688 247.088C51.5388 246.848 51.4837 246.561 51.5335 246.283C51.5776 246.147 51.6481 246.022 51.741 245.913C51.8339 245.805 51.9473 245.717 52.0747 245.653C52.2021 245.589 52.3408 245.551 52.4829 245.542C52.6249 245.532 52.7675 245.551 52.9022 245.597" fill="#E0E0E0"/>
<path d="M57.4711 254.15V252.469L32.1494 253.155C31.9207 253.302 31.7248 253.495 31.5741 253.722C31.4233 253.949 31.321 254.204 31.2734 254.473L57.4711 254.15Z" fill="#263238"/>
<path d="M44.6257 246.912C44.6257 247.035 45.3101 247.083 45.9192 247.488C46.5283 247.893 46.9115 248.428 47.0278 248.38C47.1442 248.332 46.9389 247.584 46.1519 247.104C45.3648 246.624 44.5983 246.788 44.6257 246.912Z" fill="#263238"/>
<path d="M41.8828 248.109C41.8828 248.233 42.4166 248.445 42.8683 248.981C43.32 249.516 43.45 250.092 43.5527 250.085C43.6553 250.079 43.7511 249.344 43.1831 248.713C42.6151 248.082 41.8828 247.986 41.8828 248.109Z" fill="#263238"/>
<path d="M40.3707 251.449C40.4871 251.449 40.6582 250.831 40.316 250.124C39.9738 249.417 39.3647 249.157 39.31 249.266C39.2552 249.376 39.6385 249.74 39.9122 250.323C40.186 250.906 40.2407 251.442 40.3707 251.449Z" fill="#263238"/>
<path d="M44.8103 243.794C44.8651 243.911 45.4536 243.718 46.1791 243.76C46.9045 243.801 47.4794 244.014 47.5478 243.904C47.6162 243.794 47.0551 243.341 46.1791 243.307C45.3031 243.272 44.7419 243.684 44.8103 243.794Z" fill="#263238"/>
<path d="M44.2812 240.882C44.7128 241.007 45.1705 241.007 45.6021 240.882C46.0746 240.79 46.5342 240.64 46.9708 240.436C47.2323 240.317 47.484 240.177 47.7236 240.018C47.8707 239.933 48.0044 239.826 48.1206 239.702C48.2001 239.608 48.2475 239.49 48.2562 239.367C48.2648 239.243 48.2341 239.121 48.1685 239.016C48.1008 238.928 48.0137 238.856 47.914 238.807C47.8142 238.759 47.7046 238.734 47.5936 238.735C47.4263 238.732 47.2598 238.758 47.1009 238.81C46.8214 238.884 46.5489 238.983 46.2865 239.105C45.8446 239.315 45.4382 239.593 45.082 239.929C44.4797 240.505 44.2813 240.992 44.3223 241.02C44.3634 241.047 44.6713 240.649 45.2873 240.169C45.6457 239.889 46.0391 239.659 46.4575 239.482C46.7025 239.383 46.954 239.3 47.2104 239.235C47.4841 239.16 47.7236 239.153 47.7989 239.277C47.8742 239.4 47.7989 239.338 47.7989 239.428C47.7141 239.516 47.6173 239.592 47.5115 239.654C47.2916 239.805 47.0631 239.942 46.8271 240.066C46.4225 240.278 45.9985 240.45 45.561 240.58C45.1281 240.652 44.7006 240.753 44.2812 240.882Z" fill="#263238"/>
<path d="M103.88 168.417C103.88 168.417 50.3951 162.062 47.3154 162.062C40.0746 162.062 36.68 167.381 35.5987 171.67C34.798 174.826 18.6875 220.46 18.6875 220.46L30.5753 226.636L48.0477 195.495L56.9447 179.959L102.847 187.069L103.88 168.417Z" fill="#263238"/>
<path d="M54.7956 178.487C54.7956 178.487 47.6233 178.487 43.7496 184.237C41.4706 187.62 42.2714 193.666 42.2234 198.229C42.1619 204.44 43.6607 242.278 43.6607 242.278L58.3339 242.518L61.4068 203.088L61.222 195.793L90.5138 193.405C90.5138 193.405 93.1829 184.484 86.6264 177.478C85.7778 176.593 54.7956 178.487 54.7956 178.487Z" fill="#263238"/>
<path d="M103.856 169.16C103.856 169.16 108.421 179.735 102.255 188.786C98.1485 194.756 90.3672 193.391 90.3672 193.391L79.9922 180.352L88.2731 167.383L103.856 169.16Z" fill="#263238"/>
<path d="M43.6641 242.305C43.7504 242.295 43.8378 242.295 43.9241 242.305H44.6838H47.6061L58.3373 242.422L58.2073 242.545C58.7753 234.626 59.535 223.976 60.3768 212.276C60.6574 208.467 60.9311 204.769 61.1912 201.255C61.141 199.389 61.0977 197.577 61.0612 195.82V195.642H61.2186C69.5476 194.956 76.6447 194.372 81.6544 193.912C84.1661 193.679 86.1508 193.494 87.5059 193.343C88.1903 193.274 88.7036 193.192 89.0594 193.151C89.2333 193.11 89.4092 193.078 89.5864 193.055C89.4166 193.117 89.2428 193.167 89.0663 193.206C88.7172 193.267 88.1971 193.363 87.5196 193.446C86.1508 193.638 84.1798 193.858 81.6749 194.132C76.6652 194.654 69.5681 195.299 61.246 195.999L61.3965 195.827C61.4467 197.584 61.4946 199.395 61.5402 201.262C61.287 204.775 61.0133 208.474 60.7395 212.283C59.8635 223.949 59.0628 234.626 58.4742 242.545V242.669H58.351L47.6267 242.429L44.7043 242.346L43.9241 242.305H43.6641Z" fill="#455A64"/>
<path d="M90.3729 193.383C90.3729 193.383 90.3113 193.342 90.1813 193.28L89.5995 193.005L87.3411 191.983L79.0121 188.264L66.6521 182.774L59.3497 179.549C58.7132 179.274 58.0972 178.965 57.4128 178.732C56.7457 178.493 56.0586 178.313 55.3597 178.197C53.9108 177.98 52.4391 177.967 50.9864 178.156C49.5286 178.328 48.1077 178.734 46.7775 179.356C46.1076 179.657 45.4869 180.057 44.9365 180.544C44.407 181.024 43.9586 181.587 43.6088 182.211C42.9167 183.413 42.4983 184.753 42.3837 186.136C42.329 186.823 42.3837 187.474 42.3837 188.126C42.3837 188.778 42.3837 189.43 42.3837 190.068C42.4453 195.16 42.4932 199.758 42.5411 203.615C42.589 207.471 42.6369 210.58 42.6712 212.755C42.6712 213.819 42.6712 214.649 42.7191 215.239V215.884C42.7103 215.957 42.7103 216.031 42.7191 216.104C42.7191 216.104 42.7191 216.028 42.7191 215.884C42.7191 215.74 42.7191 215.507 42.7191 215.232C42.7191 214.649 42.7191 213.819 42.7191 212.748C42.7191 210.58 42.7191 207.457 42.678 203.615C42.6369 199.772 42.6232 195.16 42.589 190.062C42.589 189.43 42.589 188.785 42.589 188.126C42.589 187.468 42.589 186.809 42.589 186.164C42.7031 184.822 43.1096 183.522 43.7799 182.355C44.1201 181.758 44.552 181.219 45.0597 180.756C45.5816 180.295 46.1671 179.911 46.798 179.617C48.0975 179.015 49.4831 178.622 50.9043 178.451C52.3294 178.263 53.7735 178.274 55.1954 178.485C55.8947 178.593 56.5822 178.768 57.2486 179.006C57.933 179.226 58.5352 179.549 59.1717 179.816L66.481 183.021L78.8615 188.449L87.2247 192.079L89.5037 193.054L90.0991 193.301L90.3729 193.383Z" fill="#455A64"/>
<path d="M63.8991 140.586C63.8873 140.297 63.8483 140.01 63.7828 139.728C63.6869 139.186 63.5706 138.39 63.4611 137.402C63.3516 136.414 63.2763 135.24 63.2558 133.93C63.225 131.084 63.5538 128.245 64.2344 125.482C64.5082 124.354 64.8418 123.24 65.2336 122.147C65.5621 121.214 65.8632 120.466 66.0822 119.958C66.2111 119.699 66.3143 119.428 66.3902 119.148C66.2328 119.391 66.0955 119.645 65.9796 119.91C65.7264 120.404 65.3979 121.145 65.0352 122.079C64.6192 123.17 64.2628 124.283 63.9675 125.414C63.251 128.194 62.9171 131.059 62.9752 133.93C62.9986 135.101 63.09 136.269 63.2489 137.43C63.3485 138.212 63.4878 138.988 63.6664 139.756C63.7153 140.04 63.7933 140.318 63.8991 140.586Z" fill="#263238"/>
<path d="M74.5573 104.161V101.992L72.0251 106.11L66.8513 108.024C65.2293 109.898 59.9665 131.033 61.0341 134.526L62.8682 155.216L57.6328 163.121L66.9745 164.13C66.9745 164.13 68.9934 162.126 68.4938 156.835C67.214 143.433 68.5348 128.137 68.7265 124.754C69.0276 119.656 74.5573 104.161 74.5573 104.161Z" fill="#FF725E"/>
<path d="M71.9998 106.133C71.9998 106.133 63.5136 108.919 62.4186 110.518C59.3937 114.875 41.2031 144.671 50.1 153.565C55.9513 159.384 64.1706 147.101 64.1706 147.101L71.9998 106.133Z" fill="#FF725E"/>
<path d="M51.2422 141.723C51.5035 141.701 51.7623 141.655 52.0155 141.586L54.1302 141.133C55.9233 140.749 58.4418 140.214 61.3298 139.761L61.1792 139.672C61.453 140.358 61.7473 141.133 62.0416 141.895C62.7807 143.782 63.4856 145.566 64.0947 147.131V147L60.8987 151.035L60.0158 152.175C59.9009 152.304 59.8021 152.447 59.7215 152.6C59.8527 152.489 59.972 152.365 60.0774 152.229L61.0218 151.132L64.2931 147.206L64.341 147.151V147.076C63.7388 145.504 63.0476 143.72 62.2879 141.833C61.9868 141.071 61.6994 140.323 61.4188 139.61L61.3777 139.5H61.2614C58.3596 139.953 55.848 140.522 54.0618 140.955C53.1653 141.168 52.4535 141.36 51.9608 141.497C51.7152 141.552 51.4748 141.627 51.2422 141.723Z" fill="#263238"/>
<path d="M59.9373 139.371C59.9282 139.053 59.8985 138.737 59.8484 138.424C59.7662 137.738 59.6636 136.893 59.5335 135.844C59.1451 133.02 59.051 130.164 59.253 127.321C59.5341 124.485 60.3296 121.724 61.6003 119.175C62.0794 118.187 62.5106 117.412 62.8117 116.883C62.9835 116.614 63.1345 116.332 63.2634 116.039C63.2054 116.097 63.1549 116.161 63.1128 116.231C63.017 116.368 62.8801 116.561 62.7159 116.821C62.3805 117.336 61.922 118.098 61.4156 119.079C60.073 121.639 59.2386 124.435 58.9587 127.314C58.7484 130.178 58.8724 133.056 59.3282 135.892C59.4788 136.976 59.6294 137.854 59.732 138.458C59.7733 138.768 59.842 139.073 59.9373 139.371Z" fill="#263238"/>
<path d="M67.5664 135.794C67.5845 135.68 67.5845 135.564 67.5664 135.451C67.5664 135.197 67.5185 134.874 67.4911 134.476C67.4159 133.598 67.3064 132.383 67.1763 130.901C67.0463 129.419 66.8547 127.586 66.6631 125.596C66.5672 124.601 66.4646 123.538 66.3551 122.467C66.2942 121.927 66.2736 121.384 66.2935 120.841C66.3007 120.293 66.4544 119.758 66.7383 119.29C66.8933 119.029 67.1125 118.813 67.3749 118.661C67.6374 118.51 67.9343 118.429 68.2371 118.425H68.7709L68.3261 118.13L66.095 116.621L66.1361 116.806L70.4955 109.312L71.7342 107.123L72.0559 106.533C72.0967 106.466 72.1288 106.395 72.1517 106.32C72.0987 106.379 72.0527 106.443 72.0148 106.512C71.9122 106.663 71.7958 106.849 71.6521 107.075L70.3381 109.223L65.8966 116.662L65.8281 116.778L65.9376 116.854L68.1618 118.37L68.2508 118.103C67.8963 118.103 67.548 118.196 67.2398 118.371C66.9316 118.547 66.6739 118.8 66.492 119.105C66.1782 119.615 66.008 120.2 65.9992 120.8C65.9924 121.362 66.0244 121.923 66.095 122.481C66.2114 123.565 66.3209 124.615 66.4235 125.61C66.6357 127.593 66.8341 129.391 66.9984 130.908C67.1626 132.424 67.3064 133.598 67.409 134.476C67.4569 134.874 67.498 135.162 67.5322 135.444C67.5349 135.561 67.5463 135.678 67.5664 135.794Z" fill="#263238"/>
<path d="M89.2586 102.5L91.7908 105.245L101.201 108.223C100.886 115.152 100.143 122.055 98.9767 128.892C96.9235 140.558 95.7875 152.396 95.7259 152.581C95.2742 151.716 100.462 158.86 103.322 165.873C105.581 171.363 106.813 182.891 106.813 182.891L83.1198 190.152L79.1094 147.084L80.1496 127.184L89.2586 102.5Z" fill="#FF725E"/>
<path d="M80.1484 137.848C80.2186 137.735 80.2782 137.615 80.3264 137.491L80.7849 136.455C81.1818 135.556 81.7635 134.245 82.5095 132.653C84.4469 128.493 86.5941 124.434 88.9426 120.493L89.627 119.416L89.7159 119.272L89.5585 119.203L86.8895 118.098V118.345C87.7492 117.624 88.7633 117.112 89.8528 116.849H89.9486V116.726C90.1158 115.134 90.3948 113.557 90.7836 112.004C91.112 110.598 91.3995 109.356 91.5637 108.313C91.6997 107.502 91.7798 106.684 91.8033 105.863C91.8033 105.575 91.8033 105.355 91.8033 105.211C91.8122 105.136 91.8122 105.06 91.8033 104.984C91.7657 105.276 91.7451 105.569 91.7417 105.863C91.6855 106.676 91.5804 107.485 91.4269 108.285C91.2421 109.314 90.941 110.55 90.5919 111.956C90.1765 113.514 89.8813 115.102 89.7091 116.705L89.8117 116.582C88.6806 116.849 87.6266 117.375 86.7321 118.119L86.5473 118.277L86.7663 118.366L89.4354 119.477L89.3601 119.265L88.6757 120.342C86.3205 124.29 84.1932 128.371 82.3042 132.564C81.6198 134.176 81.0313 135.494 80.6686 136.407L80.2579 137.47C80.2113 137.593 80.1747 137.719 80.1484 137.848Z" fill="#263238"/>
<path d="M99.6059 167.384C99.6669 167.489 99.738 167.588 99.818 167.679L100.441 168.469L102.761 171.31L102.822 171.138L91.5645 173.258L91.7151 173.32C91.6535 173.245 91.5919 173.155 91.5372 173.073L88.3959 168.688L88.3001 168.908L96.4099 167.858L98.7641 167.528L99.3937 167.432L99.6196 167.384C99.6196 167.384 99.5512 167.384 99.4074 167.384L98.7915 167.439L96.4509 167.686L88.2796 168.633H88.0469L88.1837 168.825L91.3113 173.217C91.3729 173.3 91.4277 173.389 91.4893 173.464L91.544 173.54H91.633L102.87 171.33H103.048L102.932 171.193L100.516 168.366L99.8317 167.618C99.688 167.453 99.6059 167.371 99.6059 167.384Z" fill="#263238"/>
<g opacity="0.3">
<path d="M101.409 171.52L102.155 172.975L91.5948 175.253L88.9531 169.688L91.6085 173.407L101.409 171.52Z" fill="black"/>
</g>
<path d="M22.7253 137.208L28.5084 165.652H78.6602C78.9252 165.652 79.1794 165.547 79.3668 165.359C79.5541 165.171 79.6594 164.916 79.6594 164.651C79.6603 164.518 79.6351 164.387 79.5853 164.265C79.5355 164.143 79.4621 164.031 79.3692 163.938C79.2763 163.844 79.1659 163.77 79.0442 163.719C78.9225 163.668 78.792 163.642 78.6602 163.642H68.5655L63.2068 137.195C63.1569 136.948 63.0246 136.726 62.8317 136.565C62.6388 136.404 62.3969 136.314 62.146 136.309L23.8203 135.891C23.6561 135.888 23.4932 135.921 23.3437 135.99C23.1943 136.058 23.0621 136.159 22.9569 136.286C22.8518 136.412 22.7763 136.561 22.7362 136.721C22.6962 136.88 22.6924 137.047 22.7253 137.208Z" fill="#E0E0E0"/>
<path d="M22.7203 137.213C22.7189 137.185 22.7189 137.158 22.7203 137.13C22.7126 137.044 22.7126 136.956 22.7203 136.87C22.7394 136.699 22.7976 136.536 22.8902 136.392C22.9828 136.248 23.1073 136.127 23.2541 136.039C23.355 135.977 23.4663 135.933 23.5826 135.909C23.7146 135.895 23.8476 135.895 23.9796 135.909H24.883H27.1415L41.6299 136.046L51.7383 136.149L57.3982 136.204L60.3684 136.238H61.8809C62.011 136.238 62.1341 136.238 62.271 136.238C62.4067 136.251 62.5389 136.288 62.6611 136.348C62.9047 136.471 63.0982 136.675 63.2086 136.925C63.2579 137.051 63.2924 137.182 63.3113 137.316L63.3934 137.693C63.4413 137.954 63.4961 138.208 63.5508 138.462C63.6535 138.976 63.7561 139.498 63.8656 140.019C64.071 141.063 64.29 142.078 64.5021 143.183C64.9401 145.317 65.3781 147.499 65.8709 149.73C66.7743 154.19 67.7119 158.829 68.6837 163.605L68.6153 163.55H78.5457C78.6753 163.534 78.8063 163.534 78.9358 163.55C79.15 163.595 79.3452 163.705 79.495 163.865C79.6448 164.025 79.742 164.227 79.7733 164.444C79.8047 164.662 79.7687 164.883 79.6704 165.079C79.572 165.275 79.4159 165.436 79.2233 165.54C79.0782 165.62 78.9164 165.665 78.751 165.671H52.0531H28.5034H28.4555V165.629C26.6829 156.928 25.232 149.812 24.2533 144.864C23.7606 142.401 23.3705 140.486 23.1104 139.182C22.9804 138.53 22.8846 138.036 22.8161 137.7C22.7477 137.364 22.7203 137.192 22.7203 137.192C22.7203 137.192 22.7614 137.364 22.8367 137.7C22.9119 138.036 23.0078 138.53 23.1446 139.175C23.4115 140.479 23.829 142.394 24.3081 144.851L28.5513 165.629L28.5034 165.581H78.6895C78.8324 165.573 78.9721 165.536 79.1001 165.472C79.2271 165.402 79.3363 165.304 79.4194 165.185C79.5025 165.066 79.5571 164.929 79.5792 164.785C79.6181 164.545 79.5616 164.299 79.4217 164.099C79.3554 164.001 79.2705 163.918 79.1718 163.853C79.0732 163.788 78.9627 163.744 78.8469 163.722C78.7286 163.708 78.6092 163.708 78.491 163.722H68.5058V163.667L65.6998 149.791C65.2435 147.563 64.801 145.379 64.3721 143.238C64.1599 142.174 63.9478 141.117 63.7356 140.074C63.6261 139.553 63.5234 139.038 63.4208 138.524L63.2634 137.755L63.1881 137.371C63.1675 137.247 63.1354 137.125 63.0923 137.007C63.018 136.839 62.9012 136.694 62.7535 136.586C62.6058 136.477 62.4324 136.41 62.2505 136.389H61.8741H60.3547L57.3913 136.355L51.7315 136.293L41.6231 136.17L27.1209 135.943H24.8624H23.9591C23.8296 135.926 23.6984 135.926 23.569 135.943C23.4564 135.969 23.3481 136.01 23.2473 136.067C23.1037 136.153 22.9812 136.271 22.8888 136.411C22.7965 136.551 22.7365 136.71 22.7135 136.877C22.7085 136.989 22.7108 137.101 22.7203 137.213Z" fill="#263238"/>
<path d="M44.1874 151.892C45.1021 151.892 45.8436 151.148 45.8436 150.231C45.8436 149.314 45.1021 148.57 44.1874 148.57C43.2727 148.57 42.5312 149.314 42.5312 150.231C42.5312 151.148 43.2727 151.892 44.1874 151.892Z" fill="white"/>
<path d="M22.7734 137.445H25.4083L32.5739 137.48L56.2331 137.644H59.655H60.4968C60.6403 137.631 60.7846 137.631 60.928 137.644C61.0713 137.675 61.2081 137.73 61.3318 137.809C61.5822 137.966 61.7653 138.21 61.8451 138.495C61.9067 138.777 61.9546 139.037 62.0093 139.305C62.4337 141.453 62.8374 143.518 63.2275 145.481C64.0077 149.413 64.7058 152.961 65.2807 155.939C65.8556 158.917 66.3278 161.326 66.6495 163C66.8069 163.831 66.9369 164.476 67.019 164.915C67.0601 165.135 67.0875 165.299 67.108 165.416C67.1285 165.533 67.108 165.587 67.108 165.587L67.0669 165.423C67.0669 165.306 67.0122 165.141 66.9643 164.922C66.8753 164.483 66.7384 163.838 66.5673 163.007C66.232 161.34 65.7461 158.931 65.1507 155.96C64.5552 152.988 63.8435 149.441 63.0564 145.502C62.6663 143.532 62.2557 141.467 61.8245 139.326C61.7698 139.065 61.7219 138.783 61.6603 138.523C61.5947 138.27 61.4356 138.052 61.2154 137.912C61.1039 137.843 60.9811 137.794 60.8527 137.768C60.7183 137.757 60.5833 137.757 60.4489 137.768H59.6071H56.1852L32.5259 137.555L25.3536 137.48H23.4099H22.8966L22.7734 137.445Z" fill="#263238"/>
<path d="M74.5625 150.047L74.6444 150.095L74.5625 150.047Z" fill="#FFBF9D"/>
<path d="M64.6533 157.148C65.584 155.776 71.9761 152.702 71.9761 152.702L70.4088 152.139L68.5474 152.681C68.3404 153.269 68.0116 153.807 67.5824 154.259C66.8227 155.11 65.8236 154.012 65.8236 154.012L67.0007 150.499L70.7716 148.797C72.0411 149.131 73.2909 149.537 74.5151 150.011L75.7743 151.473C76.3355 152.029 77.8959 154.163 78.3749 154.28C78.5255 154.28 82.9671 152.859 82.9671 152.859L84.8012 161.025L78.0259 161.609L73.9197 162.24C72.7958 162.559 71.6529 162.807 70.4978 162.981C69.1291 163.105 68.2941 162.569 68.3489 161.828C68.4036 161.087 69.437 161.142 69.437 161.142C70.3679 160.933 71.2827 160.658 72.1745 160.319C72.8257 159.984 73.3868 159.497 73.8102 158.898H72.3251C72.3251 158.898 69.0538 160.641 67.8425 161.128C66.6311 161.616 66.5422 160.442 66.4737 160.092C66.4053 159.742 70.313 156.73 70.313 156.73C70.313 156.73 66.7543 158.383 66.0973 158.83C65.4403 159.276 64.5369 159.33 64.3864 158.96C64.2358 158.589 63.7225 158.5 64.6533 157.148Z" fill="#FFBF9D"/>
<path d="M80.9688 159.42C80.9688 159.42 80.9688 159.338 81.0167 159.187C81.0244 159.095 81.0244 159.004 81.0167 158.912C81.0263 158.791 81.0263 158.67 81.0167 158.549C80.9066 157.843 80.6527 157.168 80.2707 156.565C79.9004 155.966 79.4742 155.403 78.9978 154.884C78.8128 154.659 78.604 154.454 78.375 154.273C78.5458 154.511 78.7285 154.74 78.9225 154.96C79.3744 155.489 79.784 156.054 80.1475 156.648C80.5222 157.234 80.7823 157.886 80.914 158.569C80.9472 158.852 80.9655 159.136 80.9688 159.42Z" fill="#FF9A6C"/>
<path d="M72.1172 152.599C72.4514 152.704 72.8096 152.704 73.1437 152.599C73.4897 152.552 73.8125 152.399 74.0676 152.16C74.0676 152.125 73.6502 152.352 73.1164 152.462C72.5826 152.571 72.124 152.558 72.1172 152.599Z" fill="#FF9A6C"/>
<path d="M70.6719 156.434C71.2095 156.362 71.7389 156.238 72.2528 156.063C72.7791 155.94 73.2942 155.772 73.7926 155.562C73.2565 155.643 72.7278 155.767 72.2117 155.933C71.6861 156.059 71.1712 156.227 70.6719 156.434Z" fill="#FF9A6C"/>
<path d="M73.6094 158.824C74.153 158.725 74.6884 158.585 75.2108 158.405C74.9307 158.382 74.6488 158.417 74.3827 158.508C74.1061 158.559 73.8429 158.667 73.6094 158.824Z" fill="#FF9A6C"/>
<path d="M71.1328 156.754C71.3348 156.923 71.5122 157.119 71.6598 157.337C71.7746 157.573 71.8597 157.822 71.913 158.078C71.913 158.078 71.9609 157.989 71.9541 157.838C71.9426 157.636 71.8833 157.44 71.7809 157.266C71.6785 157.091 71.5361 156.944 71.3655 156.836C71.2355 156.761 71.1397 156.74 71.1328 156.754Z" fill="#FF9A6C"/>
<path d="M69.9922 154.39C69.9922 154.425 70.2112 154.596 70.3481 154.919C70.413 155.12 70.4611 155.327 70.4918 155.536C70.5518 155.432 70.5835 155.314 70.5835 155.193C70.5835 155.073 70.5518 154.954 70.4918 154.85C70.3138 154.473 69.999 154.349 69.9922 154.39Z" fill="#FF9A6C"/>
<path d="M70.9308 150.499C70.9308 150.499 71.0061 150.451 71.0609 150.327C71.136 150.162 71.1621 149.979 71.1362 149.799C71.1162 149.621 71.0475 149.453 70.9377 149.312C70.8556 149.202 70.7803 149.161 70.7734 149.174C70.8733 149.38 70.9491 149.596 70.9993 149.819C71.0015 150.048 70.9785 150.276 70.9308 150.499Z" fill="#FF9A6C"/>
<path d="M101.195 108.211C102.567 108.822 103.785 109.735 104.756 110.883C105.728 112.03 106.429 113.383 106.807 114.84C106.807 114.84 107.806 117.955 108.559 121.441C110.372 129.909 113.63 144.341 113.781 148.554C114.068 156.178 108.566 158.347 105.479 159.012C102.393 159.678 83.244 162.052 83.244 162.052L79.8906 152.569L99.4157 144.046C99.4157 144.046 95.6927 131.227 94.8304 127.219" fill="#FF725E"/>
<path d="M94.855 127.225C94.855 127.225 94.855 127.328 94.944 127.52C95.033 127.713 95.0672 128.021 95.163 128.385C95.3683 129.167 95.6694 130.286 96.0527 131.72C96.8466 134.616 98.0374 138.816 99.5567 144.017V144.12L99.4608 144.161L79.9973 152.725L80.0863 152.52C81.1585 155.562 82.2763 158.723 83.4397 162.003L83.2549 161.887C88.2372 161.262 93.5205 160.583 98.9955 159.828C101.199 159.512 103.396 159.231 105.511 158.826C107.588 158.424 109.512 157.444 111.061 155.999C112.5 154.54 113.384 152.622 113.559 150.578C113.559 150.331 113.62 150.084 113.634 149.836V149.089C113.641 148.596 113.621 148.103 113.573 147.613C113.463 146.632 113.333 145.664 113.176 144.704C112.553 140.888 111.807 137.279 111.123 133.909C110.438 130.54 109.754 127.397 109.138 124.528C108.83 123.101 108.536 121.736 108.255 120.445C107.974 119.155 107.653 117.954 107.338 116.836C107.023 115.717 106.722 114.674 106.4 113.741C106.086 112.895 105.65 112.1 105.107 111.38C104.356 110.375 103.428 109.514 102.369 108.841C102.007 108.615 101.685 108.457 101.521 108.354C101.419 108.312 101.32 108.262 101.227 108.203C101.333 108.235 101.436 108.276 101.534 108.327C101.833 108.459 102.124 108.611 102.404 108.78C103.486 109.435 104.438 110.287 105.21 111.291C105.78 112.016 106.241 112.82 106.578 113.679C106.92 114.626 107.222 115.662 107.55 116.781C107.879 117.9 108.193 119.107 108.501 120.391C108.809 121.674 109.083 123.046 109.405 124.508C110.021 127.369 110.705 130.505 111.458 133.875C112.211 137.244 112.847 140.84 113.532 144.669C113.689 145.623 113.833 146.597 113.942 147.593C113.99 148.094 114.011 148.598 114.004 149.102V149.864C114.004 150.118 113.956 150.379 113.928 150.633C113.75 152.754 112.835 154.746 111.342 156.26C109.749 157.758 107.765 158.771 105.62 159.183C103.464 159.595 101.288 159.869 99.0776 160.192C93.6026 160.94 88.3056 161.612 83.3371 162.25H83.1934L83.1523 162.12L79.8126 152.629L79.7578 152.485L79.9015 152.424L99.4403 143.942L99.3719 144.086C97.8868 138.871 96.7302 134.664 95.95 131.734C95.5805 130.279 95.2657 129.154 95.1219 128.385C95.033 128.001 94.9782 127.699 94.9372 127.507C94.8961 127.315 94.855 127.225 94.855 127.225Z" fill="#263238"/>
<path d="M94.0398 123.593C93.9721 123.394 93.9352 123.185 93.9303 122.975C93.8668 122.413 93.8417 121.846 93.8551 121.28C93.9132 117.494 95.1609 113.822 97.4206 110.788C97.7579 110.331 98.126 109.897 98.5225 109.491C98.8031 109.203 98.9605 109.052 98.981 109.072C99.0015 109.093 98.4335 109.758 97.6123 110.932C96.5736 112.459 95.7427 114.118 95.1417 115.866C94.5486 117.617 94.1941 119.441 94.0878 121.287C94.0262 122.728 94.1014 123.593 94.0398 123.593Z" fill="#263238"/>
</svg>
