<svg width="71" height="71" viewBox="0 0 71 71" fill="none" xmlns="http://www.w3.org/2000/svg">
<path d="M69.371 68.24H55.8226V55.8206C57.6413 54.3377 59.224 52.5862 60.5146 50.627C62.6602 51.5404 63.7258 52.965 63.7258 54.9816C63.7258 55.5367 63.6437 56.0885 63.4821 56.6194C63.3614 57.018 63.4695 57.4508 63.7638 57.7452C64.0588 58.0401 64.4915 58.1482 64.8896 58.0274C68.2298 57.0312 70.5143 53.9534 70.5 50.4676C70.5469 46.274 67.7193 42.592 63.6558 41.555C63.6977 41.0456 63.7258 40.5335 63.7258 40.0142C63.7258 29.8187 57.5161 21.8174 47.1288 18.6122C46.5329 18.4281 45.9005 18.7621 45.7164 19.3581C45.5328 19.9546 45.8669 20.5869 46.4629 20.7705C55.8562 23.668 61.4677 30.8617 61.4677 40.0142C61.4677 51.4103 50.0644 60.3368 35.5 60.3368C22.794 60.3368 15.1829 56.0588 12.8797 47.6203C12.7457 47.1291 12.2997 46.7878 11.7903 46.7884H2.75806V33.24H11.7903C12.2997 33.24 12.7457 32.8987 12.8797 32.4075C14.5567 26.2613 17.7266 23.1046 24.5757 20.7594C25.159 20.5527 25.4672 19.9149 25.2665 19.3294C25.0664 18.7439 24.4313 18.4286 23.8436 18.6232C23.2874 18.8128 22.7598 19.0119 22.2449 19.2147C22.2157 19.1387 22.1782 19.0659 22.1324 18.9981C18.0584 13.7311 8.59287 15.4098 8.19208 15.4836C7.81666 15.5531 7.50132 15.8083 7.35523 16.1612C7.20914 16.514 7.25104 16.917 7.46714 17.2323L13.3383 25.7861C12.2837 27.3881 11.4755 29.1395 10.9413 30.9819H1.62903C1.00553 30.9819 0.5 31.4869 0.5 32.111V47.9174C0.5 48.5409 1.00553 49.0464 1.62903 49.0464H10.948C11.9221 52.1854 13.7827 54.9766 16.3064 57.0825V68.24H1.62903C1.00553 68.24 0.5 68.745 0.5 69.369C0.5 69.9925 1.00553 70.498 1.62903 70.498H69.371C69.9945 70.498 70.5 69.9925 70.5 69.369C70.5 68.745 69.9945 68.24 69.371 68.24ZM63.3421 43.7938C66.2838 44.6731 68.2844 47.3975 68.2419 50.4676C68.2491 52.2483 67.4111 53.9264 65.9839 54.9904V54.9838C65.9899 52.1805 64.2644 49.665 61.6475 48.6611C62.4275 47.1219 62.997 45.4846 63.3421 43.7938ZM10.3939 17.4975C12.9905 17.3056 17.7448 17.3927 20.1362 20.1348C18.1439 21.0671 16.3406 22.3587 14.8174 23.9453L10.3939 17.4975ZM26.4677 68.24H18.5645V58.6846C21.0084 60.1372 23.6804 61.1648 26.4677 61.7243V68.24ZM43.4032 68.24H28.7258V62.1262C30.9695 62.4471 33.2337 62.6036 35.5 62.5948C38.1583 62.5981 40.8089 62.3065 43.4032 61.7254V68.24ZM53.5645 68.24H45.6613V61.1345C48.458 60.3097 51.1201 59.0826 53.5645 57.4927V68.24Z" fill="url(#paint0_linear_889_2754)"/>
<path d="M44.5333 16.2979C44.5333 11.3093 40.4896 7.26562 35.501 7.26562C30.5124 7.26562 26.4688 11.3093 26.4688 16.2979C26.4688 21.2859 30.5124 25.3301 35.501 25.3301C40.4868 25.3241 44.5278 21.2837 44.5333 16.2979ZM35.501 23.0721C31.76 23.0721 28.7268 20.0389 28.7268 16.2979C28.7268 12.5563 31.76 9.52369 35.501 9.52369C39.242 9.52369 42.2752 12.5563 42.2752 16.2979C42.2713 20.0372 39.2409 23.0682 35.501 23.0721Z" fill="url(#paint1_linear_889_2754)"/>
<path d="M17.4375 32.1058C17.4375 33.9764 18.9541 35.4929 20.8246 35.4929C22.6951 35.4929 24.2117 33.9764 24.2117 32.1058C24.2117 30.2348 22.6951 28.7188 20.8246 28.7188C18.9541 28.7188 17.4375 30.2348 17.4375 32.1058ZM21.9536 32.1058C21.9536 32.7293 21.4481 33.2349 20.8246 33.2349C20.2011 33.2349 19.6956 32.7293 19.6956 32.1058C19.6956 31.4818 20.2011 30.9768 20.8246 30.9768C21.4481 30.9768 21.9536 31.4818 21.9536 32.1058Z" fill="url(#paint2_linear_889_2754)"/>
<path d="M26.4728 27.6018H44.5373C45.1608 27.6018 45.6663 27.0963 45.6663 26.4728C45.6663 25.8487 45.1608 25.3438 44.5373 25.3438H26.4728C25.8493 25.3438 25.3438 25.8487 25.3438 26.4728C25.3438 27.0963 25.8493 27.6018 26.4728 27.6018Z" fill="url(#paint3_linear_889_2754)"/>
<path d="M35.4962 6.14516C36.1197 6.14516 36.6253 5.63963 36.6253 5.01613V1.62903C36.6253 1.00498 36.1197 0.5 35.4962 0.5C34.8727 0.5 34.3672 1.00498 34.3672 1.62903V5.01613C34.3672 5.63963 34.8727 6.14516 35.4962 6.14516Z" fill="url(#paint4_linear_889_2754)"/>
<path d="M27.5978 9.53335C28.2213 9.53335 28.7268 9.02782 28.7268 8.40432V2.82987C28.7268 2.20581 28.2213 3.83553 27.5978 3.83553C26.9743 3.83553 26.4688 2.20581 26.4688 2.82987V8.40432C26.4688 9.02782 26.9743 9.53335 27.5978 9.53335Z" fill="url(#paint5_linear_889_2754)"/>
<path d="M27.5978 3.8871C28.2213 3.8871 28.7268 3.38157 28.7268 2.75806V1.62903C28.7268 1.00498 28.2213 0.5 27.5978 0.5C26.9743 0.5 26.4688 1.00498 26.4688 1.62903V2.75806C26.4688 3.38157 26.9743 3.8871 27.5978 3.8871Z" fill="url(#paint6_linear_889_2754)"/>
<path d="M43.4337 9.1408C44.0572 9.1408 44.5628 8.63527 44.5628 8.01177V3.17785C44.5628 2.5538 44.0572 4.23653 43.4337 4.23653C42.8102 4.23653 42.3047 2.5538 42.3047 3.17785V8.01177C42.3047 8.63527 42.8102 9.1408 43.4337 9.1408Z" fill="url(#paint7_linear_889_2754)"/>
<path d="M43.4103 5.01613C44.0338 5.01613 44.5393 4.5106 44.5393 3.8871V1.62903C44.5393 1.00498 44.0338 0.5 43.4103 0.5C42.7868 0.5 42.2812 1.00498 42.2812 1.62903V3.8871C42.2812 4.5106 42.7868 5.01613 43.4103 5.01613Z" fill="url(#paint8_linear_889_2754)"/>
<defs>
<linearGradient id="paint0_linear_889_2754" x1="35.5001" y1="13.9332" x2="35.5001" y2="70.691" gradientUnits="userSpaceOnUse">
<stop stop-color="#00EFD1"/>
<stop offset="1" stop-color="#00ACEA"/>
</linearGradient>
<linearGradient id="paint1_linear_889_2754" x1="35.501" y1="6.86118" x2="35.501" y2="25.3931" gradientUnits="userSpaceOnUse">
<stop stop-color="#00EFD1"/>
<stop offset="1" stop-color="#00ACEA"/>
</linearGradient>
<linearGradient id="paint2_linear_889_2754" x1="20.8246" y1="28.5671" x2="20.8246" y2="35.5166" gradientUnits="userSpaceOnUse">
<stop stop-color="#00EFD1"/>
<stop offset="1" stop-color="#00ACEA"/>
</linearGradient>
<linearGradient id="paint3_linear_889_2754" x1="35.505" y1="25.2932" x2="35.505" y2="27.6097" gradientUnits="userSpaceOnUse">
<stop stop-color="#00EFD1"/>
<stop offset="1" stop-color="#00ACEA"/>
</linearGradient>
<linearGradient id="paint4_linear_889_2754" x1="35.4962" y1="0.37361" x2="35.4962" y2="6.16485" gradientUnits="userSpaceOnUse">
<stop stop-color="#00EFD1"/>
<stop offset="1" stop-color="#00ACEA"/>
</linearGradient>
<linearGradient id="paint5_linear_889_2754" x1="27.5978" y1="2.53423" x2="27.5978" y2="9.55723" gradientUnits="userSpaceOnUse">
<stop stop-color="#00EFD1"/>
<stop offset="1" stop-color="#00ACEA"/>
</linearGradient>
<linearGradient id="paint6_linear_889_2754" x1="27.5978" y1="0.424166" x2="27.5978" y2="3.89891" gradientUnits="userSpaceOnUse">
<stop stop-color="#00EFD1"/>
<stop offset="1" stop-color="#00ACEA"/>
</linearGradient>
<linearGradient id="paint7_linear_889_2754" x1="43.4337" y1="2.90245" x2="43.4337" y2="9.16208" gradientUnits="userSpaceOnUse">
<stop stop-color="#00EFD1"/>
<stop offset="1" stop-color="#00ACEA"/>
</linearGradient>
<linearGradient id="paint8_linear_889_2754" x1="43.4103" y1="0.398888" x2="43.4103" y2="5.03188" gradientUnits="userSpaceOnUse">
<stop stop-color="#00EFD1"/>
<stop offset="1" stop-color="#00ACEA"/>
</linearGradient>
</defs>
</svg>
