<svg width="59" height="67" viewBox="0 0 59 67" fill="none" xmlns="http://www.w3.org/2000/svg">
<path d="M23.5428 25.9138C25.6462 25.9138 27.3513 24.2087 27.3513 22.1053C27.3513 20.002 25.6462 18.2969 23.5428 18.2969C21.4395 18.2969 19.7344 20.002 19.7344 22.1053C19.7344 24.2087 21.4395 25.9138 23.5428 25.9138Z" fill="url(#paint0_linear_1398_3285)"/>
<path d="M35.4647 39.2028C37.568 39.2028 39.2731 37.4977 39.2731 35.3944C39.2731 33.291 37.568 31.5859 35.4647 31.5859C33.3613 31.5859 31.6562 33.291 31.6562 35.3944C31.6562 37.4977 33.3613 39.2028 35.4647 39.2028Z" fill="url(#paint1_linear_1398_3285)"/>
<path fill-rule="evenodd" clip-rule="evenodd" d="M37.9686 18.9783C37.5445 18.5827 36.9806 18.3718 36.401 18.3919C35.8213 18.412 35.2734 18.6615 34.8777 19.0855L20.6589 34.3214C20.4629 34.5314 20.3101 34.7779 20.2093 35.047C20.1085 35.316 20.0617 35.6023 20.0716 35.8894C20.0815 36.1765 20.1478 36.4589 20.2667 36.7204C20.3857 36.9819 20.555 37.2174 20.765 37.4134C20.975 37.6095 21.2216 37.7623 21.4906 37.863C21.7596 37.9638 22.0459 38.0106 22.333 38.0008C22.6201 37.9909 22.9025 37.9246 23.164 37.8056C23.4255 37.6866 23.661 37.5173 23.8571 37.3073L38.0758 22.0692C38.4713 21.645 38.6822 21.0812 38.6621 20.5015C38.642 19.9219 38.3926 19.374 37.9686 18.9783Z" fill="url(#paint2_linear_1398_3285)"/>
<path fill-rule="evenodd" clip-rule="evenodd" d="M58.6247 39.2109C58.313 38.3673 57.7502 37.6395 57.0122 37.1256C56.2741 36.6116 55.3963 36.3363 54.4969 36.3366H49.4088H49.3913V36.3191V5.32875C49.3907 4.16185 48.9268 3.04293 48.1014 2.21801C47.2761 1.39309 46.157 0.929687 44.9901 0.929688H14.0151C12.8481 0.929687 11.729 1.39309 10.9037 2.21801C10.0783 3.04293 9.61438 4.16185 9.6138 5.32875V36.3059V36.3234H9.5963H4.50818C3.60928 36.3239 2.73209 36.5997 1.99456 37.1135C1.25703 37.6274 0.694533 38.3548 0.382698 39.1979C0.0708634 40.0409 0.0246492 40.9593 0.250269 41.8294C0.47589 42.6995 0.962525 43.4797 1.64474 44.065L26.6391 65.4894C27.4369 66.1722 28.4524 66.5475 29.5026 66.5475C30.5527 66.5475 31.5682 66.1722 32.366 65.4894L57.3604 44.065C58.0403 43.4809 58.5258 42.7032 58.7517 41.8357C58.9777 40.9683 58.9334 40.0525 58.6247 39.2109ZM54.5144 40.7553L29.5179 62.1797C29.5134 62.1838 29.5075 62.1862 29.5015 62.1862C29.4954 62.1862 29.4895 62.1838 29.4851 62.1797L4.49068 40.7422C4.48813 40.7383 4.48678 40.7337 4.48678 40.7291C4.48678 40.7244 4.48813 40.7198 4.49068 40.7159C4.49214 40.7108 4.49531 40.7062 4.49968 40.703C4.50404 40.6999 4.50935 40.6982 4.51474 40.6984H9.5963C10.763 40.6984 11.8819 40.235 12.7069 39.41C13.5319 38.585 13.9954 37.4661 13.9954 36.2994V5.32875C13.9953 5.32306 13.9972 5.31752 14.0008 5.31311C14.0044 5.30871 14.0095 5.30572 14.0151 5.30469H44.9901C44.9964 5.30469 45.0026 5.30722 45.0071 5.31174C45.0116 5.31625 45.0141 5.32237 45.0141 5.32875V36.3059C45.0141 37.4719 45.477 38.5901 46.301 39.415C47.1251 40.2399 48.2429 40.7038 49.4088 40.705H54.4904C54.4958 40.7048 54.5011 40.7064 54.5054 40.7096C54.5098 40.7128 54.513 40.7173 54.5144 40.7225C54.5155 40.7258 54.5158 40.7292 54.5155 40.7326C54.5151 40.736 54.514 40.7393 54.5122 40.7422L54.5144 40.7553Z" fill="url(#paint3_linear_1398_3285)"/>
<defs>
<linearGradient id="paint0_linear_1398_3285" x1="23.5428" y1="-0.441251" x2="23.5428" y2="69.0119" gradientUnits="userSpaceOnUse">
<stop stop-color="#1FEDD8"/>
<stop offset="1" stop-color="#00AFE9"/>
</linearGradient>
<linearGradient id="paint1_linear_1398_3285" x1="35.4647" y1="-0.439056" x2="35.4647" y2="69.0141" gradientUnits="userSpaceOnUse">
<stop stop-color="#1FEED8"/>
<stop offset="1" stop-color="#01B2E8"/>
</linearGradient>
<linearGradient id="paint2_linear_1398_3285" x1="29.3652" y1="-0.43798" x2="29.3652" y2="69.0151" gradientUnits="userSpaceOnUse">
<stop stop-color="#1FEDD8"/>
<stop offset="1" stop-color="#02B4E8"/>
</linearGradient>
<linearGradient id="paint3_linear_1398_3285" x1="29.5026" y1="-0.4375" x2="29.5026" y2="69.0156" gradientUnits="userSpaceOnUse">
<stop stop-color="#20F0D7"/>
<stop offset="1" stop-color="#00AFE9"/>
</linearGradient>
</defs>
</svg>
