<svg width="63" height="70" viewBox="0 0 63 70" fill="none" xmlns="http://www.w3.org/2000/svg">
<path fill-rule="evenodd" clip-rule="evenodd" d="M40.5311 19.2519C40.0786 18.8299 39.4771 18.605 38.8588 18.6264C38.2404 18.6478 37.6559 18.914 37.2338 19.3662L22.0654 35.6197C21.8563 35.8437 21.6933 36.1067 21.5858 36.3937C21.4783 36.6807 21.4284 36.9861 21.4389 37.2924C21.4494 37.5987 21.5201 37.8999 21.647 38.1789C21.774 38.4578 21.9546 38.709 22.1786 38.9182C22.4026 39.1274 22.6656 39.2903 22.9526 39.3978C23.2396 39.5053 23.545 39.5553 23.8513 39.5448C24.1576 39.5342 24.4588 39.4635 24.7378 39.3366C25.0168 39.2097 25.268 39.029 25.4771 38.805L40.6455 22.5492C41.0674 22.0968 41.2924 21.4952 41.2709 20.8769C41.2495 20.2586 40.9834 19.6741 40.5311 19.2519Z" fill="url(#paint0_linear_889_2745)"/>
<path fill-rule="evenodd" clip-rule="evenodd" d="M62.5716 40.8378C62.2391 39.9378 61.6387 39.1614 60.8514 38.6132C60.064 38.0649 59.1276 37.7711 58.1682 37.7715H52.7402H52.7216V37.7528V4.69285C52.7209 3.44801 52.226 2.25437 51.3456 1.37436C50.4651 0.494349 49.2712 -1.53754e-07 48.0264 0H14.9828C13.7379 -1.53754e-07 12.5441 0.494349 11.6636 1.37436C10.7832 2.25437 10.2882 3.44801 10.2876 4.69285V37.7388V37.7575H10.2689H4.841C3.88208 37.758 2.94631 38.0521 2.15952 38.6003C1.37274 39.1485 0.772674 39.9245 0.440014 40.8238C0.107354 41.7232 0.0580535 42.7029 0.298741 43.6311C0.539429 44.5593 1.05856 45.3916 1.78634 46.016L28.4499 68.8712C29.301 69.5997 30.3843 70 31.5046 70C32.6248 70 33.7082 69.5997 34.5592 68.8712L61.2228 46.016C61.9482 45.3929 62.4661 44.5632 62.7071 43.6379C62.9481 42.7125 62.9009 41.7356 62.5716 40.8378ZM58.1868 42.4853L31.5209 65.3405C31.5162 65.3449 31.5099 65.3474 31.5034 65.3474C31.4969 65.3474 31.4907 65.3449 31.4859 65.3405L4.82234 42.4713C4.81962 42.4671 4.81818 42.4623 4.81818 42.4573C4.81818 42.4523 4.81962 42.4475 4.82234 42.4433C4.8239 42.4378 4.82728 42.4329 4.83194 42.4295C4.83659 42.4261 4.84225 42.4244 4.84801 42.4246H10.2689C11.5136 42.4246 12.7072 41.9302 13.5873 41.0501C14.4674 40.1701 14.9618 38.9764 14.9618 37.7318V4.69285C14.9617 4.68677 14.9637 4.68086 14.9676 4.67616C14.9714 4.67146 14.9768 4.66828 14.9828 4.66718H48.0264C48.0332 4.66718 48.0397 4.66988 48.0445 4.67469C48.0494 4.67951 48.0521 4.68604 48.0521 4.69285V37.7388C48.0521 38.9826 48.5458 40.1755 49.4249 41.0555C50.304 41.9354 51.4964 42.4304 52.7402 42.4316H58.1612C58.1669 42.4314 58.1726 42.4331 58.1772 42.4365C58.1819 42.4399 58.1853 42.4448 58.1868 42.4503C58.188 42.4538 58.1883 42.4574 58.1879 42.4611C58.1875 42.4647 58.1864 42.4682 58.1845 42.4713L58.1868 42.4853Z" fill="url(#paint1_linear_889_2745)"/>
<defs>
<linearGradient id="paint0_linear_889_2745" x1="31.3531" y1="-1.46104" x2="31.3531" y2="72.6304" gradientUnits="userSpaceOnUse">
<stop stop-color="#1FEDD8"/>
<stop offset="1" stop-color="#02B4E8"/>
</linearGradient>
<linearGradient id="paint1_linear_889_2745" x1="31.5046" y1="-1.45849" x2="31.5046" y2="72.6329" gradientUnits="userSpaceOnUse">
<stop stop-color="#20F0D7"/>
<stop offset="1" stop-color="#00AFE9"/>
</linearGradient>
</defs>
</svg>
