<svg width="71" height="71" viewBox="0 0 71 71" fill="none" xmlns="http://www.w3.org/2000/svg">
<path d="M47.2578 26.8018V25.1676C47.2578 22.4968 45.0917 20.3242 42.4299 20.3242H28.2966C25.6349 20.3242 23.4688 22.4968 23.4688 25.1676V26.8018C23.4688 30.294 26.8643 33.1688 29.3439 35.2682C29.4342 35.3446 29.5228 35.4199 29.6093 35.4931C29.518 35.571 29.424 35.6506 29.3279 35.7318C26.8488 37.8312 23.4533 40.706 23.4533 44.1982V45.8324C23.4533 45.9836 23.465 46.131 23.4885 46.2746C23.7123 48.7388 25.7834 50.6758 28.2966 50.6758H42.4299C45.0917 50.6758 47.2578 48.5032 47.2578 45.8324V44.1982C47.2578 40.7055 43.8617 37.8306 41.3826 35.7318C41.2892 35.6527 41.1979 35.5753 41.1092 35.5C41.1979 35.4242 41.2892 35.3473 41.3826 35.2682C43.8617 33.1694 47.2578 30.2945 47.2578 26.8018ZM41.7891 44.1982V45.207H28.922V44.2035C28.922 44.1987 28.9669 43.6999 29.9901 42.5597C30.8243 41.6304 31.9069 40.7145 32.8618 39.906C33.1096 39.6961 33.3467 39.4953 33.5704 39.302C33.6367 39.2539 33.7008 39.2026 33.7632 39.1481C34.6199 38.3973 35.1806 37.382 35.3633 36.2851C35.5459 37.382 36.1067 38.3967 36.9639 39.1481C37.2373 39.3879 37.5342 39.6395 37.8488 39.9054C38.8037 40.714 39.8862 41.6304 40.7204 42.5597C41.7442 43.6999 41.7885 44.1982 41.7891 44.1982ZM40.7204 28.4403C39.8862 29.3696 38.8037 30.286 37.8488 31.0946C37.5342 31.3605 37.2373 31.6121 36.9633 31.8524C36.1067 32.6033 35.5459 33.618 35.3633 34.7149C35.1806 33.6174 34.6199 32.6027 33.7632 31.8519C33.4893 31.6121 33.1918 31.3605 32.8772 31.094C31.9223 30.2855 30.8398 29.3696 30.0061 28.4403C28.9824 27.3001 28.938 26.8018 28.9375 26.8018V25.793H41.7891V26.7965C41.7885 26.8013 41.7442 27.2995 40.7204 28.4403ZM0.5 18.8203V12.2578C0.5 10.7475 1.72406 9.52344 3.23438 9.52344C4.74469 9.52344 5.96875 10.7475 5.96875 12.2578V16.706C8.65933 12.4827 12.2322 8.87029 16.4747 6.11775C22.14 2.4429 28.7185 0.5 35.5 0.5C44.8487 0.5 53.6382 4.14067 60.2488 10.7512C66.8593 17.3618 70.5 26.1513 70.5 35.5C70.5 37.0103 69.2759 38.2344 67.7656 38.2344C66.2553 38.2344 65.0312 37.0103 65.0312 35.5C65.0312 19.2166 51.7834 5.96875 35.5 5.96875C25.1548 5.96875 15.5567 11.4589 10.2444 20.1875H13.8984C15.4088 20.1875 16.6328 21.4116 16.6328 22.9219C16.6328 24.4322 15.4088 25.6562 13.8984 25.6562H7.33594C3.56656 25.6562 0.5 22.5897 0.5 18.8203ZM70.5 52.1797V58.6055C70.5 60.1158 69.2759 61.3398 67.7656 61.3398C66.2553 61.3398 65.0312 60.1158 65.0312 58.6055V54.0793C62.3257 58.3956 58.7027 62.0833 54.3885 64.8822C48.7233 68.5571 42.1447 70.5 35.3633 70.5C26.0199 70.5 17.2529 66.8572 10.677 60.2429C4.1145 53.6414 0.5 44.8546 0.5 35.5C0.5 33.9897 1.72406 32.7656 3.23438 32.7656C4.74469 32.7656 5.96875 33.9897 5.96875 35.5C5.96875 51.7834 19.1552 65.0312 35.3633 65.0312C45.708 65.0312 55.3066 59.5411 60.6189 50.8125H56.9648C55.4545 50.8125 54.2305 49.5884 54.2305 48.0781C54.2305 46.5678 55.4545 45.3438 56.9648 45.3438H63.6641C67.4334 45.3438 70.5 48.4103 70.5 52.1797Z" fill="url(#paint0_linear_578_3191)"/>
<defs>
<linearGradient id="paint0_linear_578_3191" x1="0.5" y1="35.5" x2="70.5" y2="35.5" gradientUnits="userSpaceOnUse">
<stop stop-color="#00F2FE"/>
<stop offset="0.0208" stop-color="#03EFFE"/>
<stop offset="0.2931" stop-color="#24D2FE"/>
<stop offset="0.5538" stop-color="#3CBDFE"/>
<stop offset="0.7956" stop-color="#4AB0FE"/>
<stop offset="1" stop-color="#4FACFE"/>
</linearGradient>
</defs>
</svg>
