<svg width="65" height="70" viewBox="0 0 65 70" fill="none" xmlns="http://www.w3.org/2000/svg">
<path d="M53.1023 25.3584L27.5394 21.761C27.2362 21.7121 26.9643 21.5462 26.782 21.299C26.5998 21.0517 26.5217 20.7429 26.5646 20.4388C26.6075 20.1347 26.768 19.8595 27.0115 19.6723C27.255 19.4852 27.5622 19.401 27.8672 19.4378L53.43 23.0352C53.7333 23.0841 54.0052 23.25 54.1875 23.4973C54.3697 23.7445 54.4478 24.0533 54.4049 24.3574C54.362 24.6616 54.2015 24.9367 53.958 25.1239C53.7145 25.311 53.4073 25.3953 53.1023 25.3584ZM52.612 28.8441L27.0501 25.2467C26.7452 25.2099 26.438 25.2941 26.1945 25.4813C25.9509 25.6684 25.7905 25.9436 25.7476 26.2477C25.7047 26.5519 25.7828 26.8607 25.965 27.1079C26.1473 27.3551 26.4192 27.521 26.7224 27.57L52.2843 31.168C52.5924 31.2114 52.9052 31.1307 53.1539 30.9435C53.4025 30.7563 53.5666 30.4781 53.61 30.1699C53.6535 29.8617 53.5728 29.5489 53.3856 29.3003C53.1984 29.0517 52.9201 28.8876 52.612 28.8441ZM50.9768 40.4632L25.415 36.8657C25.1101 36.829 24.803 36.9132 24.5595 37.1004C24.3161 37.2876 24.1557 37.5627 24.1129 37.8668C24.07 38.1708 24.148 38.4796 24.3302 38.7268C24.5124 38.974 24.7842 39.1399 25.0874 39.1889L50.6491 42.7863C50.9536 42.8224 51.2602 42.7378 51.5031 42.5506C51.746 42.3635 51.9061 42.0886 51.9489 41.785C51.9917 41.4813 51.914 41.173 51.7323 40.9259C51.5506 40.6789 51.2794 40.5128 50.9768 40.4632ZM51.795 34.6537L26.232 31.0563C25.927 31.0194 25.6198 31.1036 25.3763 31.2908C25.1328 31.4779 24.9723 31.7531 24.9294 32.0573C24.8865 32.3614 24.9646 32.6702 25.1468 32.9174C25.3291 33.1646 25.601 33.3305 25.9042 33.3795L51.4673 36.9769C51.7722 37.0137 52.0794 36.9295 52.3229 36.7424C52.5665 36.5552 52.7269 36.28 52.7698 35.9759C52.8127 35.6718 52.7346 35.3629 52.5524 35.1157C52.3701 34.8685 52.0982 34.7026 51.795 34.6537ZM50.1598 46.2726L24.5969 42.6752C24.292 42.6384 23.9848 42.7226 23.7412 42.9097C23.4977 43.0969 23.3373 43.3721 23.2943 43.6762C23.2514 43.9803 23.3295 44.2891 23.5118 44.5364C23.694 44.7836 23.966 44.9495 24.2692 44.9984L49.8319 48.5964C49.9845 48.618 50.1399 48.6092 50.2891 48.5707C50.4383 48.5322 50.5784 48.4647 50.7016 48.372C50.8247 48.2793 50.9283 48.1633 51.0066 48.0306C51.0849 47.8979 51.1363 47.751 51.1578 47.5984C51.1793 47.4458 51.1706 47.2905 51.1321 47.1413C51.0936 46.9921 51.026 46.8519 50.9334 46.7288C50.8407 46.6057 50.7247 46.502 50.592 46.4238C50.4592 46.3455 50.3124 46.2941 50.1598 46.2726ZM49.3416 52.0821L23.7799 48.4853C23.475 48.4485 23.1677 48.5327 22.9242 48.7198C22.6807 48.907 22.5202 49.1822 22.4773 49.4863C22.4344 49.7904 22.5125 50.0993 22.6948 50.3465C22.877 50.5937 23.1489 50.7596 23.4522 50.8086L49.014 54.4061C49.3222 54.4495 49.635 54.3688 49.8836 54.1816C50.1322 53.9944 50.2963 53.7161 50.3398 53.4079C50.3832 53.0997 50.3025 52.7869 50.1153 52.5383C49.9281 52.2896 49.6498 52.1256 49.3416 52.0821ZM63.9474 15.6735L57.5644 61.0121C57.426 61.9327 56.9316 62.7622 56.1876 63.3218C55.4436 63.8814 54.5096 64.1265 53.5867 64.0041L52.5659 63.8633C52.3871 64.1943 52.1574 64.4953 51.8853 64.7551C51.5399 65.0856 51.1308 65.3424 50.683 65.5098C50.2352 65.6772 49.758 65.7518 49.2805 65.729L46.7108 65.5999V65.6586C46.7103 66.5768 46.3501 67.4582 45.7075 68.114C45.0648 68.7698 44.1909 69.1478 43.2729 69.1669L5.73716 70H5.65502C4.73622 69.9913 3.85647 69.6272 3.20022 68.9841C2.54397 68.341 2.1622 67.4688 2.13495 66.5503L0.985057 14.289C0.966701 13.3544 1.3194 12.4506 1.96595 11.7754C2.61249 11.1003 3.5002 10.7088 4.43473 10.6868L10.9586 10.546L11.0877 7.91764C11.1399 6.98707 11.5576 6.11481 12.2498 5.49071C12.942 4.86661 13.8528 4.5412 14.7837 4.5853L20.4393 4.86691L20.6975 3.02473C20.8321 2.10234 21.3256 1.27044 22.0705 0.710082C22.8155 0.149725 23.7516 -0.0937395 24.6752 0.0326717L51.3221 3.78742C52.1115 3.899 55.5454 4.33889 56.2737 4.52663C60.8146 5.71595 64.5857 10.9863 63.9474 15.6735ZM53.3638 6.43921C53.5325 7.36721 53.5864 8.31245 53.5243 9.25362L53.528 9.25526C53.4487 10.6239 53.2682 11.9848 52.9883 13.3268C52.9278 13.842 53.0704 14.3605 53.3858 14.7724C53.7013 15.1842 54.1647 15.4569 54.6779 15.5327L54.6757 15.5353C56.9713 15.6735 59.2339 16.1511 61.3895 16.9525C61.4224 16.6865 61.6585 15.2191 61.6594 14.9813C61.902 11.3664 58.5148 7.06109 54.9295 6.66132C54.946 6.66742 53.3638 6.43921 53.3638 6.43921ZM50.665 12.9396C50.7982 12.2669 50.8949 11.6496 50.9746 11.0612L32.4193 8.44565C32.1114 8.40293 31.799 8.48386 31.5506 8.67075C31.3021 8.85764 31.1378 9.13528 31.0934 9.443L30.9291 10.6398C30.8859 10.9479 30.9666 11.2605 31.1536 11.5091C31.3405 11.7577 31.6185 11.9219 31.9265 11.9657L50.7589 14.6175L50.7706 14.6193C50.6243 14.0719 50.5884 13.501 50.665 12.9396ZM44.3641 65.4826L11.7799 63.8281C10.8485 63.7782 9.97489 63.3612 9.35031 62.6684C8.72573 61.9757 8.40114 61.0636 8.44761 60.1321L10.8413 12.8927L4.48166 13.0335C4.17077 13.0406 3.87534 13.1705 3.65989 13.3947C3.44444 13.619 3.32648 13.9194 3.33177 14.2303L4.48166 66.5034C4.49469 66.8123 4.6264 67.1043 4.84935 67.3185C5.0723 67.5327 5.36931 67.6526 5.67849 67.6533L43.2259 66.8202C43.3796 66.8174 43.5312 66.7842 43.6718 66.7223C43.8125 66.6604 43.9395 66.5712 44.0454 66.4599C44.1513 66.3485 44.234 66.2172 44.2887 66.0736C44.3434 65.93 44.369 65.777 44.3641 65.6234V65.4826ZM49.0341 63.3588L16.403 58.771C15.4798 58.6379 14.6469 58.1448 14.0862 57.3995C13.5255 56.6541 13.2828 55.7171 13.4109 54.7933L20.1108 7.20189L14.6664 6.92028C14.356 6.90778 14.0531 7.01753 13.8227 7.22596C13.5923 7.43439 13.4529 7.72486 13.4344 8.03497L10.7943 60.2494C10.7796 60.5604 10.8886 60.8645 11.0975 61.0954C11.3064 61.3262 11.5981 61.465 11.909 61.4814L49.0341 63.3588ZM61.0492 19.4635C60.8498 19.1936 59.8407 18.4544 54.7131 17.9029C53.8754 17.8411 53.0735 17.538 52.4043 17.0303L52.3899 17.0346H52.3781C52.0107 17.107 51.6336 17.115 51.2634 17.0581L31.598 14.289C30.6738 14.1581 29.8394 13.6656 29.2783 12.9197C28.7172 12.1737 28.4753 11.2355 28.6059 10.3113L28.7702 9.12619C28.9004 8.2009 29.3923 7.36503 30.138 6.80192C30.8837 6.23881 31.8222 5.99444 32.7479 6.1224L51.1696 8.71552H51.1726C51.2635 7.82058 51.1293 6.91713 50.7824 6.0872L24.3466 2.35592C24.0387 2.3132 23.7263 2.39413 23.4779 2.58102C23.2294 2.76791 23.0651 3.04556 23.0207 3.35327L15.7342 55.1218C15.6914 55.4298 15.7724 55.7421 15.9593 55.9906C16.1462 56.239 16.4238 56.4034 16.7315 56.4477L53.9152 61.6809C54.2232 61.7236 54.5355 61.6427 54.784 61.4558C55.0324 61.2689 55.1968 60.9913 55.2411 60.6835L61.0492 19.4635Z" fill="url(#paint0_linear_578_4077)"/>
<defs>
<linearGradient id="paint0_linear_578_4077" x1="0.985057" y1="34.9964" x2="64.0178" y2="34.9964" gradientUnits="userSpaceOnUse">
<stop stop-color="#0FDCDD"/>
<stop offset="1" stop-color="#46A1E8"/>
</linearGradient>
</defs>
</svg>
