<svg width="59" height="58" viewBox="0 0 59 58" fill="none" xmlns="http://www.w3.org/2000/svg">
<path d="M29.4995 0C21.9084 0.00851486 14.6306 3.02786 9.26281 8.39562C3.89505 13.7634 0.875702 21.0412 0.867188 28.6323C2.43966 66.6171 56.5652 66.606 58.1319 28.6321C58.1233 21.041 55.1039 13.7632 49.7362 8.39553C44.3684 3.02782 37.0906 0.00850933 29.4995 0ZM29.4995 55.2195C22.4506 55.2116 15.6926 52.4079 10.7083 47.4236C5.72392 42.4392 2.92025 35.6813 2.91235 28.6323C4.37249 -6.63923 54.6319 -6.62897 56.0867 28.6325C56.0788 35.6814 53.2751 42.4393 48.2907 47.4237C43.3064 52.408 36.5484 55.2116 29.4995 55.2195ZM29.4995 5.0515C16.7792 4.87977 5.72989 15.8839 5.91936 28.6325C6.62284 55.8845 43.7868 61.1737 52.1192 35.2805L52.6994 33.17L51.8285 31.9913L50.782 32.3071L50.1558 34.7055C49.4655 37.037 48.3787 39.2322 46.9432 41.1949L39.4959 33.7529L45.2836 27.9553C45.3173 27.9292 45.3493 27.901 45.3795 27.8709L47.6294 25.611C47.8215 25.4223 47.9742 25.1974 48.0788 24.9493C48.1834 24.7012 48.2377 24.4348 48.2387 24.1656C48.2396 23.8963 48.1871 23.6295 48.0842 23.3807C47.9813 23.1319 47.8301 22.906 47.6393 22.716C46.2495 21.3292 37.1836 12.2507 35.581 10.6477C35.192 10.2762 34.6748 10.0689 34.1369 10.069C33.599 10.0691 33.0819 10.2766 32.693 10.6482L24.5438 18.7969L20.0475 14.2987C19.8545 14.1133 20.6009 15.0149 20.3333 15.0176C20.0656 15.0203 20.2231 15.5416 20.0338 15.7309C19.8445 15.9201 19.4042 15.4632 19.4015 15.7309C19.3988 15.9985 18.4162 15.5517 18.6016 15.7447C24.7886 21.9494 39.17 36.3149 45.6568 42.8004C45.0385 43.5068 44.3739 44.1713 43.6673 44.7894C43.6673 44.7894 13.433 14.5158 13.3435 14.456C13.9625 13.753 14.6267 13.0911 15.3318 12.4745L18.6016 15.7447C18.6016 15.7447 19.8444 15.9202 20.0338 15.7309C20.2232 15.5415 20.3307 15.2854 20.3333 15.0176C20.6158 14.9553 20.2332 14.4917 20.0475 14.2987L16.9341 11.1849C30.913 0.87711 51.1723 11.2775 51.0345 28.6326C51.0345 28.6326 51.0769 29.7827 50.9099 30.8692C50.8706 31.1242 50.782 32.3071 50.782 32.3071L51.8285 31.9913L52.6994 33.17L52.952 31.0815C53.2854 27.798 52.9276 24.4811 51.9017 21.3443C50.8758 18.2074 49.2045 15.3201 46.9954 12.8682C44.7862 10.4162 42.0882 8.454 39.0749 7.10774C36.0616 5.76149 32.7998 5.06105 29.4995 5.0515ZM44.4337 25.9218C44.1469 25.7319 43.9131 25.4723 43.7542 25.1673C43.5953 24.8623 43.5164 24.5219 43.5251 24.1781C43.5337 23.8343 43.6296 23.4983 43.8036 23.2017C43.9777 22.9051 44.2242 22.6575 44.5202 22.4823L46.1894 24.158L44.4337 25.9218ZM34.1331 12.0922L35.8161 13.7771C35.6586 14.0435 35.4423 14.2704 35.1839 14.4407C34.9255 14.611 34.6316 14.7202 34.3247 14.7599C34.0178 14.7996 33.7058 14.7689 33.4126 14.67C33.1193 14.5712 32.8524 14.4068 32.6322 14.1893C32.5337 14.0876 32.4462 13.9758 32.3711 13.8557L34.1331 12.0922ZM30.9075 15.3205C31.2952 15.7949 31.7847 16.1758 32.3398 16.4351C32.8948 16.6944 33.5011 16.8253 34.1137 16.8182C34.7262 16.8111 35.3293 16.6662 35.8782 16.3942C36.4271 16.1221 36.9077 15.73 37.2843 15.2468L43.0473 21.0159C42.9121 21.1202 42.7836 21.2328 42.6623 21.3529C42.261 21.7556 41.9484 22.2378 41.7446 22.7686C41.5408 23.2993 41.4503 23.8668 41.479 24.4346C41.5077 25.0023 41.6549 25.5578 41.9112 26.0653C42.1674 26.5728 42.527 27.021 42.9668 27.3812L38.0491 32.3071L36.3593 30.5796C36.6408 29.3853 36.6117 28.1388 36.2749 26.9589C35.9382 25.779 35.3049 24.705 34.4354 23.8392C33.5659 22.9734 32.4892 22.3447 31.3079 22.0129C30.1266 21.6811 28.88 21.6574 27.6869 21.9439L25.9887 20.2435L30.9075 15.3205ZM29.5311 23.7904C30.8277 23.8441 32.0573 24.3811 32.9779 25.2958C33.8985 26.2104 34.4434 27.4365 34.5055 28.7327L29.5311 23.7904ZM7.96435 28.6323C7.97345 24.1151 9.40297 19.7152 12.0506 16.0552L19.6658 23.6749L11.0231 32.3172C10.6412 32.7007 10.4268 33.22 10.427 33.7612C10.4272 34.3024 10.6419 34.8215 11.0241 35.2047L23.0904 47.2705C23.4746 47.6519 23.9941 47.8659 24.5356 47.8657C25.077 47.8655 25.5964 47.6512 25.9804 47.2695L34.6206 38.6293L42.0654 46.0793C28.0855 56.3886 7.82697 45.9864 7.96435 28.6323ZM22.5494 26.5602C22.1037 27.8441 22.0287 29.2275 22.3329 30.552C22.6371 31.8766 23.3082 33.0886 24.2694 34.0494C25.2306 35.0101 26.443 35.6806 27.7677 35.9842C29.0924 36.2878 30.4758 36.2121 31.7594 35.7657L33.1751 37.1827L27.84 42.5206C27.4461 42.0397 26.9474 41.6552 26.3821 41.3964C25.8168 41.1377 25.1998 41.0117 24.5783 41.0279C23.9568 41.0441 23.3473 41.2022 22.7962 41.4901C22.2452 41.7779 21.7672 42.188 21.3989 42.6888L15.6057 36.8999C15.7768 36.7763 15.9381 36.6395 16.0881 36.4909C16.4919 36.0899 16.8064 35.6079 17.0106 35.0767C17.2149 34.5454 17.3044 33.977 17.2733 33.4087C17.2422 32.8404 17.0912 32.2851 16.8301 31.7794C16.5691 31.2736 16.204 30.8289 15.7587 30.4743L21.1119 25.1218L22.5494 26.5602ZM30.0547 34.0897C29.2597 34.2024 28.4494 34.1282 27.6881 33.8731C26.9267 33.6181 26.2353 33.1891 25.6687 32.6202C25.1021 32.0513 24.6758 31.3582 24.4237 30.5959C24.1716 29.8335 24.1007 29.0229 24.2165 28.2284L30.0547 34.0897ZM26.3771 43.9842L24.5374 45.825L22.8858 44.1746C23.0467 43.8593 23.2876 43.5917 23.5843 43.3987C23.881 43.2057 24.2232 43.0939 24.5767 43.0747C24.9302 43.0554 25.2825 43.1293 25.5985 43.2889C25.9144 43.4485 26.1829 43.6883 26.3771 43.9842ZM14.3125 31.9206C14.6089 32.1149 14.8489 32.3836 15.0085 32.7C15.1682 33.0163 15.2418 33.3691 15.2221 33.7229C15.2023 34.0767 15.0898 34.4191 14.8959 34.7157C14.702 35.0123 14.4335 35.2527 14.1173 35.4127L12.4681 33.7647L14.3125 31.9206ZM19.8888 36.9588L21.3957 35.4524C21.5887 35.2668 21.8468 35.1643 22.1145 35.167C22.3823 35.1696 22.6383 35.2771 22.8277 35.4664C23.017 35.6557 23.1245 35.9118 23.1272 36.1795C23.1298 36.4472 23.0273 36.7053 22.8417 36.8984L21.3348 38.4048C21.2399 38.4997 21.1272 38.575 21.0031 38.6264C20.8791 38.6778 20.7461 38.7042 20.6118 38.7042C20.4776 38.7042 20.3446 38.6778 20.2205 38.6264C20.0965 38.575 19.9838 38.4997 19.8888 38.4048C19.7939 38.3098 19.7186 38.1971 19.6672 38.0731C19.6158 37.949 19.5894 37.816 19.5894 37.6818C19.5894 37.5475 19.6158 37.4145 19.6672 37.2905C19.7186 37.1664 19.7939 37.0537 19.8888 36.9588ZM35.8278 21.0204L37.3337 19.514C37.5254 19.3222 37.7855 19.2145 38.0567 19.2145C38.3278 19.2145 38.5879 19.3222 38.7797 19.5139C38.9714 19.7057 39.0791 19.9658 39.0791 20.2369C39.0791 20.5081 38.9714 20.7682 38.7797 20.9599L37.2737 22.4664C37.1788 22.5613 37.0661 22.6366 36.942 22.688C36.818 22.7394 36.685 22.7658 36.5508 22.7658C36.4165 22.7658 36.2835 22.7394 36.1595 22.688C36.0354 22.6366 35.9227 22.5613 35.8278 22.4664C35.7328 22.3714 35.6575 22.2587 35.6061 22.1346C35.5547 22.0106 35.5283 21.8776 35.5283 21.7434C35.5283 21.6091 35.5547 21.4761 35.6061 21.3521C35.6575 21.228 35.7328 21.1153 35.8278 21.0204Z" fill="url(#paint0_linear_889_2776)"/>
<defs>
<linearGradient id="paint0_linear_889_2776" x1="29.4994" y1="-1.27879" x2="29.4994" y2="57.3159" gradientUnits="userSpaceOnUse">
<stop stop-color="#00EFD1"/>
<stop offset="1" stop-color="#00ACEA"/>
</linearGradient>
</defs>
</svg>
