<svg width="71" height="71" viewBox="0 0 71 71" fill="none" xmlns="http://www.w3.org/2000/svg">
<path d="M53.7316 62.3579C54.468 63.6764 53.9959 65.3421 52.6772 66.0782C51.8164 66.5588 50.9253 67.0079 50.028 67.4132C49.6628 67.578 49.2804 67.6561 48.9042 67.6561C47.8624 67.6561 46.8672 67.0577 46.4106 66.0465C45.789 64.6702 46.4009 63.0506 47.7772 62.4291C48.5335 62.0874 49.2852 61.7087 50.0112 61.3035C51.3298 60.5674 52.9956 61.0395 53.7316 62.3579ZM63.1727 52.5462C61.961 51.6448 60.2481 51.8965 59.3468 53.108C58.851 53.7744 58.3205 54.428 57.77 55.0508C56.7699 56.1821 56.8761 57.9103 58.0075 58.9105C58.5278 59.3704 59.1738 59.5963 59.8175 59.5963C60.5738 59.5963 61.3269 59.2841 61.8672 58.6729C62.5192 57.9354 63.1474 57.1613 63.7345 56.372C64.6359 55.1606 64.3844 53.4475 63.1727 52.5462ZM67.7457 39.7227C66.271 39.4015 64.8135 40.3374 64.4923 41.8129C64.3155 42.6246 64.102 43.4378 63.8571 44.2302C63.4113 45.6731 64.2196 47.2041 65.6623 47.6499C65.9313 47.7329 66.2031 47.7724 66.4705 47.7724C67.6381 47.7724 68.7192 47.0186 69.0821 45.8444C69.3728 44.9041 69.6262 43.939 69.836 42.9761C70.1571 41.5006 69.2213 40.044 67.7457 39.7227ZM32.7656 13.625V34.3674L22.7388 44.3941C21.671 45.462 21.671 47.1933 22.7388 48.2611C23.2728 48.7951 23.9724 49.062 24.6724 49.062C25.3721 49.062 26.072 48.7949 26.606 48.2611L37.4336 37.4335C37.9463 36.9208 38.2344 36.2252 38.2344 35.5V13.625C38.2344 12.1148 37.0102 10.8906 35.5 10.8906C33.9898 10.8906 32.7656 12.1148 32.7656 13.625ZM67.7656 6.37891C66.2554 6.37891 65.0312 7.60309 65.0312 9.11328V16.7061C58.6667 6.72453 47.5519 0.5 35.5 0.5C26.1512 0.5 17.3619 4.14068 10.7512 10.7512C4.14068 17.3619 0.5 26.1512 0.5 35.5C0.5 44.8488 4.14068 53.6381 10.7512 60.2488C17.3619 66.8593 26.1512 70.5 35.5 70.5C35.5231 70.5 35.5454 70.4971 35.5684 70.4966C35.5913 70.4971 35.6136 70.5 35.6367 70.5C36.6222 70.5 37.6174 70.4584 38.5949 70.3767C40.0998 70.2506 41.2176 68.9286 41.0917 67.4237C40.9655 65.9188 39.6452 64.8005 38.1385 64.9271C37.3122 64.9961 36.4706 65.0312 35.6367 65.0312C35.6136 65.0312 35.5913 65.0341 35.5684 65.0347C35.5454 65.0341 35.5231 65.0312 35.5 65.0312C19.2164 65.0312 5.96875 51.7836 5.96875 35.5C5.96875 19.2164 19.2164 5.96875 35.5 5.96875C45.9943 5.96875 55.6465 11.5623 60.9209 20.4609H53.4024C51.8922 20.4609 50.668 21.6851 50.668 23.1953C50.668 24.7055 51.8922 25.9297 53.4024 25.9297H61.75C63.4152 25.9297 64.9731 25.4617 66.2996 24.651C66.3849 24.6023 66.4669 24.5499 66.5451 24.4935C68.9249 22.9279 70.5 20.2349 70.5 17.1797V9.11328C70.5 7.60309 69.2758 6.37891 67.7656 6.37891Z" fill="url(#paint0_linear_578_3166)"/>
<defs>
<linearGradient id="paint0_linear_578_3166" x1="0.5" y1="35.5" x2="70.5" y2="35.5" gradientUnits="userSpaceOnUse">
<stop stop-color="#00F2FE"/>
<stop offset="0.021" stop-color="#03EFFE"/>
<stop offset="0.293" stop-color="#24D2FE"/>
<stop offset="0.554" stop-color="#3CBDFE"/>
<stop offset="0.796" stop-color="#4AB0FE"/>
<stop offset="1" stop-color="#4FACFE"/>
</linearGradient>
</defs>
</svg>
