<svg id="Group_21993" data-name="Group 21993" xmlns="http://www.w3.org/2000/svg" xmlns:xlink="http://www.w3.org/1999/xlink" width="84.287" height="76" viewBox="0 0 84.287 76">
  <defs>
    <clipPath id="clip-path">
      <rect id="Rectangle_1695" data-name="Rectangle 1695" width="84.287" height="76" fill="#ffca05"/>
    </clipPath>
  </defs>
  <g id="Group_21992" data-name="Group 21992" clip-path="url(#clip-path)">
    <path id="Path_14072" data-name="Path 14072" d="M84.287,43.442c-.6,1.4-1.873,1.548-3.153,1.666-.82.075-1.64.154-2.462.2a.929.929,0,0,0-.968.714,21.715,21.715,0,0,1-1.693,3.929.856.856,0,0,0,.111,1.109c.756.871,1.488,1.764,2.21,2.664a2.349,2.349,0,0,1-.189,3.578q-2.579,2.608-5.187,5.188a2.312,2.312,0,0,1-3.57.178c-.9-.72-1.793-1.453-2.667-2.207a.8.8,0,0,0-1.039-.109,18.519,18.519,0,0,1-3.8,1.567,1.117,1.117,0,0,0-.9,1.1c-.069.93-.171,1.858-.238,2.788-.132,1.825-.727,3.049-3.089,2.948-1.783-.076-3.572.013-5.357-.029-.7-.017-.985.172-.954.92.054,1.317.024,2.637.011,3.956a2.233,2.233,0,0,1-2,2.4,2.186,2.186,0,0,1-2.419-2.136,11.252,11.252,0,0,1-.07-1.315q-.007-7.625,0-15.249c0-1.111-.024-1.137-1.082-1.138-4.424,0-8.848.011-13.271-.014a1.119,1.119,0,0,0-1.251.878,11.229,11.229,0,0,1-21.055.14,1.306,1.306,0,0,0-1.4-1.032A9,9,0,0,1,.024,49.334c-.071-.23.038-9.777.038-10.041,0-4.207,3.154-5.528,6.514-6.467q6.864-1.918,13.75-3.759a2.423,2.423,0,0,0,1.392-.932c2.562-3.4,5.195-6.755,7.7-10.2a11.95,11.95,0,0,1,10.387-5.174c2.034.022,4.068-.017,6.1.014.72.011.963-.257.956-.965-.026-2.8-.015-5.607-.006-8.411a11.187,11.187,0,0,1,.1-1.478,2.2,2.2,0,0,1,4.381.2c.038,1.758.052,3.519,0,5.276-.024.818.2,1.123,1.059,1.094,1.73-.058,3.463-.031,5.194-.013,2.208.023,3.017.821,3.154,3.012.06.958.189,1.911.267,2.868a.913.913,0,0,0,.7.891,20.114,20.114,0,0,1,4.012,1.706c.425.256.717.068,1.027-.194.841-.708,1.682-1.416,2.533-2.111a2.38,2.38,0,0,1,3.7.179q2.538,2.534,5.054,5.091c1.244,1.266,1.286,2.306.163,3.7-.688.857-1.379,1.713-2.1,2.539a.887.887,0,0,0-.11,1.18,17.072,17.072,0,0,1,1.55,3.631A1.244,1.244,0,0,0,78.811,32c.822.045,1.641.14,2.463.189a3.354,3.354,0,0,1,3.014,1.519ZM46.855,34.508c0-5.414-.01-10.829.012-16.244,0-.725-.181-1.027-.974-1.01-2.225.049-4.452,0-6.678.021a6.985,6.985,0,0,0-5.824,2.886c-2.884,3.814-5.811,7.6-8.689,11.415a4.073,4.073,0,0,1-2.325,1.564c-4.83,1.287-9.649,2.616-14.47,3.935a4.6,4.6,0,0,0-3.717,4.542c-.043,1.813-.049,3.629,0,5.442A4.533,4.533,0,0,0,8.5,51.631c.687.066,1.054-.108,1.186-.854A9.93,9.93,0,0,1,12.113,45.8c3.048-3.387,6.827-4.786,11.283-3.656A10.83,10.83,0,0,1,31.7,50.717c.161.684.4.943,1.134.937,4.287-.035,8.575-.016,12.863-.017,1.148,0,1.152,0,1.153-1.132q0-8,0-16m4.5,23.7c0,1.732.017,3.464-.009,5.2-.009.6.2.846.809.831,1.126-.027,2.255-.038,3.381,0,.646.024.893-.268.94-.854.069-.848.163-1.694.222-2.543a2.428,2.428,0,0,1,2.119-2.637,22.189,22.189,0,0,0,6.194-2.634,2.266,2.266,0,0,1,3.031.189c.8.625,1.6,1.261,2.363,1.929.386.337.658.375,1.028-.026.633-.686,1.3-1.342,1.981-1.983.325-.306.363-.533.055-.889-.72-.83-1.406-1.69-2.092-2.549a2.138,2.138,0,0,1-.308-2.6,25.618,25.618,0,0,0,2.95-6.953,2.1,2.1,0,0,1,1.97-1.618c1.037-.111,2.073-.251,3.113-.3.64-.032.875-.278.849-.908-.035-.878-.022-1.759,0-2.639.009-.434-.137-.657-.6-.7-.984-.082-1.964-.217-2.949-.3a2.449,2.449,0,0,1-2.585-2.09,21.549,21.549,0,0,0-2.674-6.265,2.33,2.33,0,0,1,.2-2.969c.66-.809,1.3-1.637,1.99-2.42.359-.407.311-.683-.062-1.033-.641-.6-1.259-1.229-1.864-1.868a.641.641,0,0,0-1.049-.035c-.7.622-1.428,1.205-2.147,1.8a2.4,2.4,0,0,1-3.307.276,22.385,22.385,0,0,0-6.134-2.567A2.463,2.463,0,0,1,56.7,16.538c-.085-.984-.219-1.964-.3-2.949-.038-.454-.244-.614-.685-.609q-1.855.024-3.711,0c-.445,0-.653.153-.652.621q.012,5.361,0,10.721c0,.483.2.629.666.536a11.939,11.939,0,0,1,4.826.053,13.447,13.447,0,0,1,10.615,9.214,13.262,13.262,0,0,1-2.931,13.949,13.337,13.337,0,0,1-12.3,4.327c-.685-.1-.912.054-.889.779.052,1.675.016,3.353.017,5.03m0-19.621c0,2.747.017,5.494-.013,8.241-.007.61.193.895.786,1.016a9.707,9.707,0,0,0,4.086.042,9.384,9.384,0,0,0,7.413-10.944,9.534,9.534,0,0,0-11.432-7.571c-.6.149-.86.4-.852,1.059.032,2.719.013,5.439.013,8.158M20.682,59.9a6.8,6.8,0,1,0-6.789-6.826A6.785,6.785,0,0,0,20.682,59.9" transform="translate(0 0)" fill="#ffca05"/>
  </g>
</svg>
