<svg xmlns="http://www.w3.org/2000/svg" width="76.646" height="76.598" viewBox="0 0 76.646 76.598">
  <g id="Group_21988" data-name="Group 21988" transform="translate(0.3 0.3)">
    <g id="Group_21996" data-name="Group 21996">
      <path id="Path_14069" data-name="Path 14069" d="M204.9,166.667a1.629,1.629,0,0,0,1.152-2.78l-5.2-5.2h.045a6.95,6.95,0,0,0,7.044-5.315h3.6a1.626,1.626,0,0,0,0-3.252h-3.6a6.866,6.866,0,0,0-.864-2.063h4.47a1.626,1.626,0,0,0,0-3.252v.3l-.006-.006v-.3H196.927a1.629,1.629,0,0,0,.006,3.257h4.188a3.7,3.7,0,0,1,3.1,2.063h-7.3a1.626,1.626,0,1,0,0,3.252h7.294a3.692,3.692,0,0,1-3.308,2.063h-3.988a1.632,1.632,0,0,0-1.15,2.777l7.978,7.978a1.617,1.617,0,0,0,1.152.477" transform="translate(-156.624 -116.124)" fill="#ffca05" stroke="#ffca05" stroke-width="0.6"/>
      <path id="Path_14070" data-name="Path 14070" d="M74.753,41.423A45.525,45.525,0,0,0,63.182,20.615c-.86-.873-1.794-1.673-2.737-2.547a2.266,2.266,0,0,1,1.354.05c2.45.419,4.765,1.119,6.543,3.014a1.317,1.317,0,0,0,1.875.063,1.3,1.3,0,0,0,.133-1.81,8.157,8.157,0,0,0-2.632-2.133,14.653,14.653,0,0,0-3.506-1.4c-.4-.108-.6-.174-.217-.589,3.286-3.557.931-8.227-2.375-9.5a1.033,1.033,0,0,1-.763-1.385,7.094,7.094,0,0,0,.056-1.846A2.594,2.594,0,0,0,57.334.341a8.358,8.358,0,0,0-2.1,1.371,3.121,3.121,0,0,1-4.033.02A8.623,8.623,0,0,0,48.123,0H45.6a9.35,9.35,0,0,0-3.13,1.784A3.065,3.065,0,0,1,38.5,1.7,9.154,9.154,0,0,0,36.665.458a2.581,2.581,0,0,0-3.838,2.248c0,4.4.949,8.534,3.956,11.956.41.467.455.695-.125,1.042a26.687,26.687,0,0,0-3.868,2.867c-.271.238-.553.463-.842.7a1.213,1.213,0,0,1-.143-.855c-.007-2.494-.065-4.991.015-7.482a4.55,4.55,0,0,0-2.606-4.379,12.542,12.542,0,0,0-5.166-1.486,15.73,15.73,0,0,0-8.543,1.3,6.738,6.738,0,0,0-1.591,1.079,3.875,3.875,0,0,0-1.335,3.012c.023,3.729.008,7.458.008,11.187,0,1.123,0,1.1-1.088,1.291a10.852,10.852,0,0,0-4.668,1.79,4.137,4.137,0,0,0-1.846,3.581c.035,10.2.01,20.4.033,30.6,0,.719-.155,1.087-.9,1.322A6.184,6.184,0,0,0,0,63.594v8.153a6,6,0,0,0,3.623,3.193,16.689,16.689,0,0,0,9.707.624c2.181-.46,4.253-1.23,5.433-3.364.187-.338.442-.231.7-.106a15.774,15.774,0,0,0,9.285,1.146A10.3,10.3,0,0,0,34,71.188a3.881,3.881,0,0,0,1.557-3.2c-.032-5.113-.077-10.227.018-15.339a4.515,4.515,0,0,0-2.663-4.393,14.824,14.824,0,0,0-7.692-1.525c-1.02.031-1.021.091-1.021-.961,0-5.731-.025-11.461.013-17.192a4.486,4.486,0,0,0-2.354-4.153,12.188,12.188,0,0,0-5.642-1.636c-.646-.041-.919-.248-.91-.932.031-2.445.02-4.891.006-7.336,0-.544.1-.692.676-.459a15.931,15.931,0,0,0,12.353.013c.537-.216.742-.211.735.449-.026,2.371-.017,4.743,0,7.114a1.561,1.561,0,0,1-.413,1.068c-.7.833-1.393,1.671-2.031,2.55a1.246,1.246,0,0,0,.135,1.7,1.29,1.29,0,0,0,1.573.232,1.9,1.9,0,0,0,.679-.67,37.268,37.268,0,0,1,9.389-8.758,2.515,2.515,0,0,1,3.02-.081c-.352.333-.69.651-1.027.97-.7.664-1.422,1.305-2.088,2a1.262,1.262,0,0,0,.008,1.749,1.294,1.294,0,0,0,1.747.2,5.438,5.438,0,0,0,.616-.533q2.093-1.942,4.186-3.885c.151-.14.292-.4.553-.253.2.113.13.356.132.545.008.914,0,1.828.007,2.742.011.985.544,1.624,1.341,1.635s1.35-.618,1.379-1.609c.025-.839,0-1.68.015-2.519.006-.279-.146-.67.185-.8.278-.112.443.248.65.41.078.061.143.137.215.2,1.377,1.279,2.746,2.566,4.133,3.833a1.348,1.348,0,1,0,1.834-1.953c-.861-.817-1.736-1.619-2.6-2.437-.115-.11-.391-.216-.147-.454a2.464,2.464,0,0,1,2.075-.207A33.993,33.993,0,0,1,63.1,24.476a43.15,43.15,0,0,1,8.985,17.438A30.1,30.1,0,0,1,73.17,54.145a12.155,12.155,0,0,1-6.294,9.437,17.333,17.333,0,0,1-8.554,2.082q-8.427-.017-16.854,0c-.272,0-.546-.01-.816.015a1.437,1.437,0,0,0-1.443,1.4,1.419,1.419,0,0,0,1.525,1.3c.173.006.347,0,.52,0,5.643,0,11.286-.01,16.928.007a21.009,21.009,0,0,0,4.64-.463c6.381-1.419,10.85-4.962,12.618-11.443.278-1.019.408-2.078.606-3.118v-5.04a57.487,57.487,0,0,0-1.293-6.9M4.168,63.107a13.963,13.963,0,0,1,10.677,0c.638.254,1.458.548,1.447,1.4-.011.839-.819,1.117-1.452,1.414A13.069,13.069,0,0,1,9.5,66.973a13.2,13.2,0,0,1-5.336-1.046c-.64-.3-1.436-.581-1.446-1.418-.01-.856.811-1.148,1.449-1.4m10.338,9.314a14.426,14.426,0,0,1-5.754.82,11.605,11.605,0,0,1-4.81-1.089,2.124,2.124,0,0,1-1.377-2.206c.074-1.7.012-1.688,1.572-1.16a16.062,16.062,0,0,0,11.527-.306c.745-.3.755-.3.764.534a3.4,3.4,0,0,0,0,.518c.262,1.566-.578,2.371-1.925,2.89m18.335-4.554a1.618,1.618,0,0,1-.87,1.511,9.042,9.042,0,0,1-3.787,1.21,14.6,14.6,0,0,1-6.951-.623,9.357,9.357,0,0,1-1.33-.648,1.625,1.625,0,0,1-.846-1.534c.022-1.926.008-3.852.008-5.779s.013-3.853-.009-5.779c-.006-.546.088-.693.657-.458a16.051,16.051,0,0,0,12.353.083c.628-.244.777-.084.774.535q-.021,5.742,0,11.484m-5.647-18.4a11.875,11.875,0,0,1,3.4.687,6.789,6.789,0,0,1,1.082.479c.5.3,1.123.554,1.107,1.266-.015.673-.609.924-1.1,1.191a10.221,10.221,0,0,1-4.041,1.127c-.27.024-.543,0-.815,0a12.384,12.384,0,0,1-6.36-1.027c-.591-.3-1.335-.585-1.312-1.357.021-.715.73-1.025,1.3-1.3a13.128,13.128,0,0,1,6.73-1.072M21.5,32.227q-.026,7.151,0,14.3a.893.893,0,0,1-.747.99A7.633,7.633,0,0,0,17.4,49.5a3.377,3.377,0,0,0-.979,2.4c.01,2.717,0,5.435,0,8.152,0,.817-.009.824-.771.488a15.2,15.2,0,0,0-6.889-1.154c-1.036.044-1.041.014-1.041-1q0-6.484,0-12.969t0-12.969c0-.944,0-.931.849-.6a16,16,0,0,0,12.217-.1c.589-.241.708-.133.706.474m-1.722-5.873c.711.273,1.6.633,1.619,1.461.017.9-.948,1.174-1.651,1.5a12.785,12.785,0,0,1-5.494.917,11.366,11.366,0,0,1-5-.985c-.634-.291-1.454-.557-1.464-1.405s.8-1.157,1.439-1.418a13.886,13.886,0,0,1,10.55-.074m7.934-14.92A13.515,13.515,0,0,1,21.4,12.56a11.807,11.807,0,0,1-4.58-1.038c-.631-.294-1.459-.572-1.438-1.419.02-.784.786-1.121,1.413-1.37A13.879,13.879,0,0,1,27.685,8.8c.61.257,1.33.593,1.326,1.351,0,.727-.741.991-1.3,1.287m26.2,2.429a5.094,5.094,0,0,1-2.469,1.123c-.165.027-.363.15-.482-.022s.043-.326.122-.473a27.937,27.937,0,0,0,2.1-4.975,1.5,1.5,0,0,0,0-1.221,1.339,1.339,0,0,0-2.5.232,28.342,28.342,0,0,1-1.258,3.244,23.239,23.239,0,0,1-1.547,2.784,1.094,1.094,0,0,1-1.926,0A22.263,22.263,0,0,1,43.4,9.3a9.608,9.608,0,0,0-.32-.908,1.345,1.345,0,0,0-1.628-.82,1.323,1.323,0,0,0-.9,1.643,15.785,15.785,0,0,0,.55,1.69,28.366,28.366,0,0,0,1.621,3.574c.083.158.3.335.116.525-.128.133-.327.025-.495,0a6.817,6.817,0,0,1-4.568-3.5,15.752,15.752,0,0,1-2.231-8.187,1.949,1.949,0,0,1,.062-.341,4.186,4.186,0,0,1,1.178.806,5.9,5.9,0,0,0,7.527-.009c1.9-1.56,3.232-1.554,5.135.02a5.925,5.925,0,0,0,7.413.066,4.4,4.4,0,0,1,1.282-.874,11.36,11.36,0,0,1-.268,3.451A12.072,12.072,0,0,1,53.9,13.863m3.054,1.022c-.156-.326.3-.571.5-.834a15.352,15.352,0,0,0,2.6-5.111c.232-.812.345-.868,1.043-.419,1.854,1.193,2.782,3.775.171,5.584a6.026,6.026,0,0,1-3.269.991c-.371-.079-.871.156-1.047-.211" fill="#ffca05" stroke="#ffca05" stroke-width="0.6"/>
      <path id="Path_14071" data-name="Path 14071" d="M290.3,267.89c.1,0,.2,0,.452,0a18.333,18.333,0,0,0,3.063-.465c5.792-1.4,8.423-5.333,8.746-10.67a1.422,1.422,0,0,0-1.341-1.7c-.822-.012-1.374.636-1.411,1.658a7.888,7.888,0,0,1-6.4,8,13.752,13.752,0,0,1-3.143.437,1.384,1.384,0,1,0,.035,2.742" transform="translate(-231.534 -204.546)" fill="#ffca05" stroke="#ffca05" stroke-width="0.6"/>
    </g>
  </g>
</svg>
