<svg id="Group_21998" data-name="Group 21998" xmlns="http://www.w3.org/2000/svg" xmlns:xlink="http://www.w3.org/1999/xlink" width="98.164" height="76" viewBox="0 0 98.164 76">
  <defs>
    <clipPath id="clip-path">
      <rect id="Rectangle_1697" data-name="Rectangle 1697" width="98.164" height="76" fill="#ffca05"/>
    </clipPath>
  </defs>
  <g id="Group_21997" data-name="Group 21997" clip-path="url(#clip-path)">
    <path id="Path_14076" data-name="Path 14076" d="M242.076,160.053c-.037-.1-.074-.2-.11-.3-.082-.226-.167-.46-.263-.692a6.967,6.967,0,0,0-6.645-4.391h-.084a6.726,6.726,0,0,0-6.343,4.38c-.223.639-.416.763-1.208.763h-.015c-12.576-.021-25.363-.02-37.728-.018H182.27c-.346,0-.7.007-1.063.021a1.117,1.117,0,0,0-1.1,1.028,2.521,2.521,0,0,0,.212,2.144,2.449,2.449,0,0,0,2,.59h8.019c12.166,0,24.746,0,37.119-.018h.012c.75,0,.922.11,1.141.721a6.9,6.9,0,0,0,7.325,4.413c3.083-.391,5.155-2.211,6.159-5.412l.027-.088v-3.04Zm-6.967-1.594a3.261,3.261,0,0,1,3.279,3.208,3.189,3.189,0,0,1-.942,2.284,3.222,3.222,0,0,1-2.3.963h0a3.138,3.138,0,0,1-3.212-3.239,3.172,3.172,0,0,1,3.16-3.216Z" transform="translate(-143.95 -123.703)" fill="#ffca05"/>
    <path id="Path_14077" data-name="Path 14077" d="M34.184,82.87a15.245,15.245,0,0,0-2.361.069c-.311.039-.357.025-.472-.313-.187-.548-.395-1.094-.6-1.622-.175-.459-.355-.933-.518-1.4a2.292,2.292,0,0,0-1.758-1.611A24.346,24.346,0,0,1,21.123,75.1a2.256,2.256,0,0,0-2.28-.073c-.4.2-.8.4-1.2.591-.583.283-1.186.576-1.773.884-.29.153-.318.125-.469-.026-1.412-1.406-2.882-2.832-4.493-4.359-.206-.2-.2-.24-.1-.464.232-.483.449-.978.658-1.456s.434-.991.667-1.472a2.451,2.451,0,0,0-.153-2.543,26.282,26.282,0,0,1-3.06-7.012,2.569,2.569,0,0,0-1.833-1.882c-.5-.155-1-.327-1.486-.494-.451-.155-.918-.314-1.384-.462-.256-.081-.295-.132-.3-.389-.027-1.931-.079-3.945-.158-6.16-.011-.3.032-.366.309-.46.54-.184,1.077-.388,1.6-.586.467-.178.949-.362,1.424-.527a2.356,2.356,0,0,0,1.641-1.83,23.6,23.6,0,0,1,2.83-7.177,2.455,2.455,0,0,0,.062-2.556c-.246-.471-.485-.961-.717-1.433s-.472-.964-.722-1.443c-.121-.233-.1-.257.037-.394,1.421-1.437,2.887-2.947,4.358-4.489.208-.218.3-.235.564-.106.545.264,1.1.514,1.644.756.4.18.8.36,1.2.546a2.459,2.459,0,0,0,2.462-.1,27.891,27.891,0,0,1,7.193-3.135A2.417,2.417,0,0,0,29.4,25.128c.146-.46.311-.929.471-1.381.181-.514.368-1.045.534-1.579.1-.309.158-.335.43-.328,1.153.03,2.292.006,3.155-.018a2.551,2.551,0,0,0,1.821-.713,1.733,1.733,0,0,0,.471-1.278c-.045-1.149-.957-1.886-2.33-1.886H33.9c-1.063.012-2.14.049-3.182.085q-.731.025-1.461.048A2.054,2.054,0,0,0,27.237,19.6c-.164.5-.333,1-.5,1.494-.2.6-.414,1.214-.611,1.827a.7.7,0,0,1-.527.563A29.272,29.272,0,0,0,19.41,26.17a.707.707,0,0,1-.774.016c-.671-.319-1.359-.62-2.024-.911-.395-.173-.789-.346-1.182-.523a2.185,2.185,0,0,0-2.647.522c-2.105,2.184-4.192,4.327-6.2,6.369A2.114,2.114,0,0,0,6.2,34.314c.265.512.524,1.04.775,1.552s.518,1.055.789,1.58a.618.618,0,0,1,.01.682A26.978,26.978,0,0,0,5.262,44.5a.6.6,0,0,1-.456.49c-.87.3-1.742.629-2.585.948l-.715.269A1.989,1.989,0,0,0,0,48.03c.013,3.337.044,6.434.1,9.469a2.091,2.091,0,0,0,1.571,2.009c.495.16,1,.332,1.484.5.6.205,1.222.418,1.841.612a.708.708,0,0,1,.536.558,28.009,28.009,0,0,0,2.716,6.18.589.589,0,0,1,0,.671c-.272.576-.532,1.166-.782,1.737-.224.509-.455,1.036-.692,1.545A2.036,2.036,0,0,0,7.2,73.8q3.286,3.205,6.574,6.407a2.021,2.021,0,0,0,2.508.347c.445-.228.908-.448,1.355-.661.563-.268,1.144-.545,1.709-.844a.91.91,0,0,1,1.017,0,15.937,15.937,0,0,0,4.613,1.922,3.169,3.169,0,0,1,2.693,2.557l.079.252c.8,2.555,1.015,2.986,3.193,2.986q.234,0,.5-.006c.227,0,.477-.01.753-.013h1.8c.082,0,.165,0,.246-.012a2.394,2.394,0,0,0,1.653-.806,1.657,1.657,0,0,0,.374-1.244,1.963,1.963,0,0,0-2.075-1.816" transform="translate(0 -14.352)" fill="#ffca05"/>
    <path id="Path_14078" data-name="Path 14078" d="M212.436,73.372c-.19.521-.348.627-.956.616-2.733-.038-5.524-.04-8.531-.008-4.221.045-7.323,2.878-7.544,6.89-.135,2.461-1.407,3.659-3.888,3.663q-2.944.005-5.888,0h-3.005c-1.921,0-2.189.252-2.211,2.068v.113a1.64,1.64,0,0,0,.4,1.225,1.611,1.611,0,0,0,1.179.39h.1c1.218-.027,2.461-.022,3.663-.017.509,0,1.02.005,1.528,0,.525,0,1.051,0,1.577,0,1.1,0,2.232.006,3.35-.006a7.071,7.071,0,0,0,6.61-4.753,8.049,8.049,0,0,0,.372-1.941c.028-.268.055-.521.093-.773a3.206,3.206,0,0,1,3.417-2.964c1.108-.005,2.216,0,3.324,0,1.8,0,3.653.007,5.482-.021.581-.008.74.1.937.636a7.038,7.038,0,0,0,13.6-2.575,7.079,7.079,0,0,0-5.89-6.952,7,7,0,0,0-7.717,4.4m3.357,2.495a3.07,3.07,0,0,1,3.186-3.126h.006a3.289,3.289,0,0,1,2.353.978,3.1,3.1,0,0,1,.909,2.221,3.163,3.163,0,0,1-3.261,3.171h-.029a3.188,3.188,0,0,1-2.278-.915,3.238,3.238,0,0,1-.886-2.329" transform="translate(-144.293 -55.069)" fill="#ffca05"/>
    <path id="Path_14079" data-name="Path 14079" d="M218.6,218.715a6.751,6.751,0,0,0-6.158,4.612c-.177.462-.277.486-.576.48-1.523-.013-3.07-.013-4.568-.011-1.574,0-3.2,0-4.8-.014a3.091,3.091,0,0,1-2.992-2.192,7.743,7.743,0,0,1-.256-1.639,7.118,7.118,0,0,0-7.058-6.6c-1.1-.011-2.207-.009-3.283-.006l-1.549,0h-1.3q-1.856,0-3.713,0c-1.569,0-1.845.284-1.847,1.872,0,1.622.268,1.907,1.805,1.909q1.68,0,3.36,0c2.062,0,4.193-.006,6.287.011a3.384,3.384,0,0,1,3.515,3.275,7.247,7.247,0,0,0,7.64,7.279l1.532.006c2.261.009,4.6.02,6.9-.024.591-.01.763.108,1,.709a6.656,6.656,0,0,0,5.79,4.387,8.376,8.376,0,0,0,.861.045,6.593,6.593,0,0,0,5.657-3.061,7.054,7.054,0,0,0-6.249-11.04m3.716,7.04a3.211,3.211,0,0,1-.981,2.291,3.237,3.237,0,0,1-4.562-4.592,3.239,3.239,0,0,1,2.294-.889h.055a3.22,3.22,0,0,1,3.194,3.19" transform="translate(-144.357 -170.633)" fill="#ffca05"/>
    <path id="Path_14080" data-name="Path 14080" d="M208.492,260.488a6.993,6.993,0,0,0-7.354,5.129c-.141.508-.25.581-.8.575a4.642,4.642,0,0,1-4.6-3.176c-.906-2.422-1.868-5.017-3.118-8.416a9.865,9.865,0,0,0-1.848-3.316,8.79,8.79,0,0,0-7.279-2.931h-.793c-1.041,0-1.614,0-2.008.408s-.373.963-.339,1.977l0,.072a1.305,1.305,0,0,0,1.435,1.425h.021c.716-.006,1.432,0,2.164.006a4.69,4.69,0,0,1,4.963,3.455c.711,1.891,1.423,3.818,2.113,5.682q.522,1.411,1.045,2.821a8.656,8.656,0,0,0,8.37,5.864h.008a1.047,1.047,0,0,1,1.181.716,6.861,6.861,0,0,0,6.2,3.843,7.224,7.224,0,0,0,2.108-.317,7.121,7.121,0,0,0,5-7.365,7.194,7.194,0,0,0-6.478-6.45m2.6,7.109a3.075,3.075,0,0,1-3.184,3.135H207.9a3.051,3.051,0,0,1-3.178-3.231,3.044,3.044,0,0,1,3.176-3.138h.015a3.061,3.061,0,0,1,3.178,3.234" transform="translate(-144.238 -198.62)" fill="#ffca05"/>
    <path id="Path_14081" data-name="Path 14081" d="M180.329,24.18c0,.865,0,1.349.351,1.7s.811.351,1.58.354h1.611A8.628,8.628,0,0,0,192.51,20.2q.4-1.082.8-2.165c.8-2.168,1.618-4.409,2.47-6.593A4.524,4.524,0,0,1,200.03,8.4c.7-.053.927.046,1.161.832a6.989,6.989,0,0,0,7.667,4.8,7.138,7.138,0,0,0,6.065-7.045A7.146,7.146,0,0,0,209.534.2,6.988,6.988,0,0,0,201.561,3.9c-.258.525-.4.632-.856.634-4.374.022-7.247,2.061-8.783,6.234l-.5,1.364c-.861,2.343-1.752,4.766-2.66,7.134a4.568,4.568,0,0,1-3.8,3.073,13.232,13.232,0,0,1-2.8.092,1.9,1.9,0,0,0-1.591.493,1.443,1.443,0,0,0-.248,1.26M204.616,7.066a3.1,3.1,0,0,1,.9-2.231,3.276,3.276,0,0,1,2.345-.975h.011A3.071,3.071,0,0,1,211.05,7a3.263,3.263,0,0,1-3.164,3.32h-.049a3.154,3.154,0,0,1-2.2-.92,3.339,3.339,0,0,1-1.021-2.33" transform="translate(-144.194 0)" fill="#ffca05"/>
    <path id="Path_14082" data-name="Path 14082" d="M99.852,132.05a17.122,17.122,0,0,1-1.724-.16,14.2,14.2,0,0,1-.991-27.913,16.07,16.07,0,0,1,2.979-.363,1.965,1.965,0,0,0,2.035-1.924,1.892,1.892,0,0,0-2.071-1.84,15.643,15.643,0,0,0-2.546.183,18.034,18.034,0,0,0,1.82,35.807l.019,0c.065.009.176.024.287.032s.192.011.285.011a1.977,1.977,0,0,0,2.2-1.734,1.7,1.7,0,0,0-.4-1.307,2.618,2.618,0,0,0-1.886-.8" transform="translate(-65.871 -79.859)" fill="#ffca05"/>
  </g>
</svg>
