<svg xmlns="http://www.w3.org/2000/svg" xmlns:xlink="http://www.w3.org/1999/xlink" width="66.421" height="76" viewBox="0 0 66.421 76">
  <defs>
    <linearGradient id="linear-gradient" x1="0.5" x2="0.5" y2="1" gradientUnits="objectBoundingBox">
      <stop offset="0" stop-color="#00efd1"/>
      <stop offset="1" stop-color="#00acea"/>
    </linearGradient>
  </defs>
  <g id="Group_21979" data-name="Group 21979" transform="translate(0 0)">
    <g id="Group_21980" data-name="Group 21980">
      <path id="Union_4" data-name="Union 4" d="M-2772.453-1574.7a4.754,4.754,0,0,0-3.108-1c-10.69.031-21.5.019-31.029.009-2.99,0-3.4-.417-3.406-3.4q-.008-10.944,0-21.888v-16.679q0-9.755,0-19.508c.007-6.33,3.481-9.818,9.782-9.823,12.29-.01,25.5-.009,40.374,0,5.564,0,8.3,2.687,8.371,8.207.014,1.189.006,2.4,0,3.564-.012,1.7-.023,3.454.035,5.172a3.338,3.338,0,0,1-.745,2.578,2.909,2.909,0,0,1-2.384.572,20.122,20.122,0,0,0-2.441-.038c-.552.014-1.123.027-1.692.011a1.148,1.148,0,0,0-.753.167,1.166,1.166,0,0,0-.187.759c.021,5.83.033,12.082-.006,18.3,0,.7.2.773,1.068.954l.263.056c8.321,1.849,13.654,7.732,14.629,16.138,1.044,9-5.983,18.036-15.038,19.336a20.451,20.451,0,0,1-2.928.215A17.336,17.336,0,0,1-2772.453-1574.7Zm10.811-28.276a14.145,14.145,0,0,0-13.922,13.863,13.706,13.706,0,0,0,4.021,9.821,14.034,14.034,0,0,0,9.834,4.266h.094a14.089,14.089,0,0,0,14.018-13.839,13.9,13.9,0,0,0-4.1-9.914,13.987,13.987,0,0,0-9.833-4.2Zm-38.869-39.88c-3.79,0-5.338,1.548-5.342,5.332q-.009,9.457,0,18.913v15.6c0,7.069,0,14.378-.014,21.568,0,.67.015,1.2.244,1.427a1.414,1.414,0,0,0,1,.239c9.439-.068,18.872-.044,26.854-.01a3.4,3.4,0,0,0,.634-.042,4.173,4.173,0,0,0-.29-.662,18.268,18.268,0,0,1-.45-16.191,18.149,18.149,0,0,1,12.689-9.9c1.343-.3,1.7-.575,1.694-1.967-.085-10.915-.085-21.892,0-32.623a2.054,2.054,0,0,0-.316-1.406c-.224-.224-.67-.327-1.5-.318-8.193.044-16.522.04-24.577.037l-7.514,0Zm41.053.175a1.158,1.158,0,0,0-.183.762c.028,2.217.024,4.469.02,6.647q0,1.631,0,3.263c0,.695.109.823.5.936,1.335.378,2.28.369,2.807-.03a3.061,3.061,0,0,0,.758-2.479v-1.581h-.06v-.6c0-.454.011-.909.022-1.364a24.646,24.646,0,0,0-.045-2.932,2.784,2.784,0,0,0-2.9-2.8l-.155,0A1.141,1.141,0,0,0-2759.458-1642.679Zm1.694,60.7-.592-.6c-.909-.921-1.849-1.872-2.736-2.854-.316-.35-.447-.381-.456-.382s-.134.033-.431.368c-.67.754-1.4,1.458-2.106,2.137-.518.5-1.054,1.015-1.551,1.538a2.266,2.266,0,0,1-1.62.836h-.013a2.4,2.4,0,0,1-1.666-.848,2.092,2.092,0,0,1-.7-1.5,2.366,2.366,0,0,1,.869-1.623c.4-.385.8-.8,1.182-1.2a25.452,25.452,0,0,1,2.114-2.041c.585-.485.648-.75.648-.841,0-.118-.092-.391-.713-.9-.729-.6-1.4-1.266-2.055-1.91-.382-.376-.762-.752-1.155-1.117a2.458,2.458,0,0,1-.939-1.7,2.207,2.207,0,0,1,.752-1.6,2.31,2.31,0,0,1,1.629-.823h.021a2.356,2.356,0,0,1,1.638.875c.473.506.987,1,1.482,1.487.628.61,1.278,1.242,1.879,1.916.449.5.657.544.711.544h0c.1,0,.329-.13.646-.49.838-.951,1.757-1.837,2.646-2.694.3-.288.6-.576.895-.867l.105-.106a1.678,1.678,0,0,1,2.225-.484,3.4,3.4,0,0,1,1.6,1.9l.034.122,0,.126a2.336,2.336,0,0,1-.928,1.686c-.058.053-.115.105-.17.159-.344.338-.687.677-1.03,1.016-.823.815-1.673,1.659-2.543,2.462-.3.276-.313.4-.313.4s.012.124.31.4c.678.636,1.338,1.3,1.977,1.949.516.521,1.031,1.042,1.557,1.55a2.636,2.636,0,0,1,1.036,1.827,2.231,2.231,0,0,1-.794,1.6,2.22,2.22,0,0,1-1.545.751A2.844,2.844,0,0,1-2757.765-1581.98Zm-26.191-23.39-9.167-9.167a1.865,1.865,0,0,1-.541-1.3,1.861,1.861,0,0,1,.54-1.329,1.861,1.861,0,0,1,1.321-.559h4.583a4.243,4.243,0,0,0,3.8-2.371h-8.381a1.871,1.871,0,0,1-1.868-1.868,1.87,1.87,0,0,1,1.868-1.868h8.385a4.245,4.245,0,0,0-3.567-2.371h-4.812a1.864,1.864,0,0,1-1.317-.544,1.865,1.865,0,0,1-.558-1.33,1.87,1.87,0,0,1,1.868-1.868h16.8v.341l.007.007v-.341a1.869,1.869,0,0,1,1.868,1.867,1.87,1.87,0,0,1-1.868,1.868h-5.136a7.9,7.9,0,0,1,.993,2.371H-2775a1.87,1.87,0,0,1,1.867,1.868A1.87,1.87,0,0,1-2775-1620.1h-4.134a7.925,7.925,0,0,1-2.358,4.005,7.929,7.929,0,0,1-5.737,2.1h-.052l5.97,5.975a1.86,1.86,0,0,1,.549,1.323,1.861,1.861,0,0,1-.549,1.324,1.857,1.857,0,0,1-1.323.548A1.857,1.857,0,0,1-2783.956-1605.37Z" transform="translate(2810 1647)" fill="url(#linear-gradient)"/>
    </g>
  </g>
</svg>
