<svg xmlns="http://www.w3.org/2000/svg" xmlns:xlink="http://www.w3.org/1999/xlink" width="72.279" height="76" viewBox="0 0 72.279 76">
  <defs>
    <linearGradient id="linear-gradient" x1="0.5" x2="0.5" y2="1" gradientUnits="objectBoundingBox">
      <stop offset="0" stop-color="#00efd1"/>
      <stop offset="1" stop-color="#00acea"/>
    </linearGradient>
  </defs>
  <g id="Group_21973" data-name="Group 21973" transform="translate(0 0)">
    <g id="Group_21974" data-name="Group 21974">
      <path id="Union_3" data-name="Union 3" d="M-2569.806-988.006l-.2,0c-1.009-.014-2.184-.025-3.346,0a1.6,1.6,0,0,1-1.794-1.538c-.015-.134-.035-.268-.054-.4s-.039-.266-.055-.4c-.235-2.009-.315-2.1-2.159-2.538a1.324,1.324,0,0,0-.722.31l-.553.412c-2.139,1.6-2.4,1.592-4.056-.094-.207-.211-.444-.453-.719-.724-.256-.254-.51-.511-.764-.769-.416-.422-.846-.859-1.281-1.266a1.7,1.7,0,0,1-.207-2.56c.053-.065.1-.137.147-.208a2.1,2.1,0,0,1,.415-.5c1.122-.911.89-1.887.154-3.167a1.209,1.209,0,0,0-.693-.314c-.411-.067-.77-.118-1.079-.162-2.294-.329-2.452-.515-2.429-2.839,0-.291.006-.622,0-1,0-.351,0-.7,0-1.054.006-.639.012-1.3-.014-1.944a1.623,1.623,0,0,1,1.6-1.867c.136-.014.272-.038.407-.06s.257-.044.387-.06c1.916-.241,2.1-.406,2.489-2.2a1.33,1.33,0,0,0-.324-.722c-.145-.194-.279-.371-.4-.534-1.595-2.106-1.585-2.372.146-4.066.191-.187.405-.4.643-.636l.146-.147q.827-.832,1.656-1.661c1.293-1.292,1.714-1.318,3.223-.2a.289.289,0,0,0,.032.021.842.842,0,0,1,.241.2c.787,1.007,1.615,1.062,3.168.207a.783.783,0,0,0,.313-.387,3.44,3.44,0,0,0,.2-1.2,2.664,2.664,0,0,1,.487-2.114c.536-.558,1.4-.588,2.575-.566l.851.016c1.005.02,2.044.04,3.062.032a1.618,1.618,0,0,1,1.75,1.583c.019.148.035.3.051.445q.019.182.041.365c.231,1.867.438,2.1,2.209,2.513a1.329,1.329,0,0,0,.712-.32c.267-.2.5-.374.714-.532,1.954-1.47,2.209-1.451,3.914.288.179.182.378.386.6.612q.29.29.583.579c.513.508,1.044,1.032,1.551,1.569a4.109,4.109,0,0,1,.506.713c.071.117.146.241.234.373l.174.262-.178.258c-.145.209-.284.414-.422.617-.309.454-.6.881-.912,1.307a2.372,2.372,0,0,0,.127,2.934,2.642,2.642,0,0,0,1.239.316c.13.014.26.028.384.045l.046.006c2.269.308,2.452.516,2.451,2.778,0,.392,0,.785-.007,1.178-.007.94-.015,1.912.021,2.861a1.667,1.667,0,0,1-1.665,1.934c-.3.027-.551.056-.781.089-1.833.266-2.037.446-2.419,2.152a1.291,1.291,0,0,0,.307.729q.239.323.439.589c1.556,2.08,1.545,2.343-.166,4.018-.21.207-.452.443-.722.716-.218.219-.437.436-.657.652-.431.425-.876.864-1.286,1.313a1.775,1.775,0,0,1-2.758.172,2.325,2.325,0,0,0-.231-.167,2.327,2.327,0,0,1-.451-.361,1.8,1.8,0,0,0-2.506-.349,1.4,1.4,0,0,0-.93,1.255c-.066.428-.109.787-.146,1.1-.223,1.88-.5,2.113-2.593,2.113C-2569.3-988-2569.543-988-2569.806-988.006Zm-5.3-7.072a.21.21,0,0,0,.08.033c1.179.113,2.568.746,2.483,3.12a1.181,1.181,0,0,0,.194.857c.166.164.511.229,1.088.2l.225-.009a3.53,3.53,0,0,0,1.592-.227c.187-.171.263-.727.365-1.622a2.277,2.277,0,0,1,1.924-2.21,9.112,9.112,0,0,0,2.117-.908,1.889,1.889,0,0,1,2.318.2c.447.364.931.708,1.358,1.013l.212.151,2.245-2.1c-.024-.036-.049-.071-.074-.106a5.644,5.644,0,0,0-.586-.754,2.678,2.678,0,0,1-.374-3.879,3.971,3.971,0,0,0,.543-1.439,2.1,2.1,0,0,1,2.066-1.8c.969-.106,1.571-.182,1.746-.383a3.958,3.958,0,0,0,.175-1.791v-.027a3.223,3.223,0,0,0-.084-1.089,3.388,3.388,0,0,0-1.117-.185c-1.359-.111-2.654-.474-2.928-2.37a3.02,3.02,0,0,0-.391-.934,4.6,4.6,0,0,1-.454-1.025,2.855,2.855,0,0,1,.142-1.9,10.22,10.22,0,0,1,1.1-1.6l.221-.282-2.124-2.165-.309.223c-.467.337-.908.654-1.326,1a1.979,1.979,0,0,1-2.42.2,11.716,11.716,0,0,0-1.263-.548,12.348,12.348,0,0,1-1.385-.607,2.706,2.706,0,0,1-1.191-1.345,5.61,5.61,0,0,1-.242-1.191c-.058-.441-.129-.99-.315-1.131a2.748,2.748,0,0,0-1.525-.108c-.3.025-.606.051-.9.049a3.333,3.333,0,0,0-.479.046c-.175,1.751-.485,3.377-2.973,4.4-2.515,1.038-3.947.084-5.259-.992l-2.181,2.188c1.182,1.369,1.983,2.775,1.018,5.167-1,2.477-2.615,2.927-4.488,3.074,0,.163,0,.323.007.482a18.951,18.951,0,0,1-.027,1.9.9.9,0,0,0,.1.638.861.861,0,0,0,.576.135c2.178-.031,3.364.894,3.62,2.83a3.355,3.355,0,0,0,.533,1.157l.078.128a1.922,1.922,0,0,1-.2,2.443c-.349.418-.678.869-1,1.307-.063.087-.127.175-.191.261l2.138,2.2a.438.438,0,0,0,.076-.056,4.4,4.4,0,0,1,3.079-1.557A3.869,3.869,0,0,1-2575.107-995.078Zm21.316-.607a1.389,1.389,0,0,1-.374-1.022,1.406,1.406,0,0,1,.378-1.038,1.986,1.986,0,0,1,1.46-.442h.375q2.949,0,5.894,0c5.111-.013,8.409-3.3,8.4-8.372q-.008-6.465-.029-12.929-.016-5.886-.027-11.772c0-1.143.012-2.3.024-3.425.015-1.27.031-2.584.023-3.874a7.789,7.789,0,0,0-7.885-7.967c-16.436-.028-33.452-.029-50.578,0a7.842,7.842,0,0,0-7.938,8.039c-.008,2.426.009,4.9.025,7.283.014,2.016.029,4.1.028,6.152,0,3.277-.015,6.608-.029,9.829q-.019,4.305-.028,8.61c-.006,5.1,3.273,8.406,8.357,8.42q3.13.009,6.262,0c.511,0,1.851,0,1.9,1.4a1.412,1.412,0,0,1-.355,1.078,2.074,2.074,0,0,1-1.56.439c-1.349-.008-2.7-.006-4.047,0q-1.223,0-2.447,0a10.7,10.7,0,0,1-11.032-11c-.014-2.471-.011-4.982-.007-7.411q0-1.632,0-3.263v-6.211q0-7.487,0-14.972c.006-6.768,4.552-11.32,11.311-11.328q2.6,0,5.208,0h3.33c.017-.191.035-.377.052-.56.062-.659.122-1.281.165-1.9l.074-1.038c.148-2.085.3-4.242.42-6.362.169-3,1.912-4.659,4.908-4.677,2.268-.013,4.573-.011,6.8-.009l2.714,0,3.3,0c2.8,0,5.689,0,8.533.005a4.47,4.47,0,0,1,4.882,4.582q.1,1.511.212,3.02c.148,2.083.3,4.236.417,6.359.029.541.086.594.642.589,2.417-.031,5-.034,8.361-.009a10.79,10.79,0,0,1,10.933,11c.01,10.292.01,20.8,0,32.12A10.711,10.711,0,0,1-2545.8-995.27h-.009l-1.485,0c-1.641,0-3.339,0-5.009,0h-.055A1.948,1.948,0,0,1-2553.792-995.685Zm-8.58-62.172c1.9,0,2.52.6,2.643,2.557.091,1.451.187,2.9.284,4.363l.094,1.433h1.808q-.088-1.3-.17-2.581c-.17-2.6-.331-5.054-.539-7.552-.081-.974-.677-1.469-1.772-1.472-7.86-.023-14.953-.022-21.683,0-1.136,0-1.69.532-1.793,1.711-.122,1.4-.214,2.818-.3,4.195l-.035.536c-.084,1.309-.164,2.617-.243,3.938l-.073,1.211h1.8q.046-.733.093-1.459c.088-1.394.18-2.835.258-4.245.113-2.019.742-2.635,2.7-2.637q4.755,0,9.509,0Zm-17.049,8.307h17.127l-.338-5.292h-16.461Zm32.532,50.08c-1.433-.043-1.432-1.36-1.431-1.993q0-7.935,0-15.87v-7.7q0-2.642,0-5.286c0-2.226.123-2.648,1.979-3.043l-4.324-3.84-4.352,3.87c1.651.157,1.815.525,1.815,2.52q0,1.187,0,2.373c0,2.335.008,4.749-.015,7.125,0,.117.007.252.017.4a2.012,2.012,0,0,1-.34,1.59,1.479,1.479,0,0,1-1.148.386,1.467,1.467,0,0,1-1.1-.431,2.046,2.046,0,0,1-.31-1.584c.012-.153.023-.3.022-.419-.026-2.3-.022-4.643-.018-6.907q0-1.046,0-2.094c-.178-.006-.352-.011-.522-.015a18.119,18.119,0,0,1-1.957-.122,1.513,1.513,0,0,1-1.312-.928,1.478,1.478,0,0,1,.417-1.512c2.915-3.1,5.352-5.622,7.666-7.926a1.9,1.9,0,0,1,2.133.029c2.822,2.806,5.533,5.667,7.58,7.847a1.737,1.737,0,0,1,.329,1.632,1.77,1.77,0,0,1-1.372.849,15.809,15.809,0,0,1-1.867.039l-.333-.006v.477c0,.609,0,1.167,0,1.724l-.015,6.568q-.023,10.163-.042,20.326a2.115,2.115,0,0,1-.452,1.573,1.366,1.366,0,0,1-.991.355Zm-48.023-1.048a1.434,1.434,0,0,1-1.405-1.443c0-2.7.025-16.512.046-23.614,0-1.175,0-2.352,0-3.588v-1.332l-.411.006a17.343,17.343,0,0,1-1.871-.035c-.385-.035-1.238-.287-1.415-.841a1.923,1.923,0,0,1,.378-1.69c1.9-2.034,3.866-4.073,5.765-6.043q.834-.865,1.668-1.732a1.621,1.621,0,0,1,1.177-.5,1.625,1.625,0,0,1,1.179.5q.83.865,1.663,1.729c1.9,1.972,3.864,4.01,5.767,6.045a1.9,1.9,0,0,1,.372,1.687c-.179.548-.981.8-1.379.864a16.861,16.861,0,0,1-1.78.131l-.374.014v.034c0,.311,0,.59,0,.871-.018,2.064-.075,5.989-.106,8.143a1.4,1.4,0,0,1-.449,1.016,1.4,1.4,0,0,1-1.045.384l-.028,0a1.4,1.4,0,0,1-1.328-1.372c-.044-2.935-.038-5.919-.032-8.8l0-1.786a1.48,1.48,0,0,1,.476-1.092,1.426,1.426,0,0,1,1.1-.371l.059,0-4.221-3.732-4.185,3.719c1.522.079,1.876.478,1.877,2.032,0,8.481-.014,24.615-.019,29.358a1.427,1.427,0,0,1-.435,1.03,1.432,1.432,0,0,1-1.006.409Zm21.706-1.114q-.636-.634-1.274-1.265c-1.31-1.3-2.663-2.638-3.943-4.011a1.991,1.991,0,0,1-.212-2.049,1.21,1.21,0,0,1,.906-.6,1.757,1.757,0,0,1,1.378.634c1.076,1.106,2.151,2.215,3.265,3.364l1.008,1.04,5.975-6.033c.051-.051.1-.1.153-.158a4.071,4.071,0,0,1,.572-.526l.083-.058a1.39,1.39,0,0,1,1.848-.041,1.2,1.2,0,0,1,.593.9,1.658,1.658,0,0,1-.544,1.31c-2.392,2.408-4.925,4.943-7.527,7.532a1.573,1.573,0,0,1-1.107.513A1.673,1.673,0,0,1-2573.2-1001.632Zm6.926-23.209a1.4,1.4,0,0,1-1.017-.381,1.8,1.8,0,0,1-.467-1.333q0-1.966,0-3.93v-2.088c0-2.605.177-2.93,2.531-3.163l-5.624-5.857-5.572,5.8c1.046,0,1.63.094,2.021.48.466.46.463,1.14.458,2.375,0,.181,0,.374,0,.581,0,1.75.024,3.6.059,5.655.019,1.116-.544,1.808-1.508,1.851a1.409,1.409,0,0,1-1.093-.365,1.873,1.873,0,0,1-.466-1.422c.019-1.532.015-3.056.011-4.671q0-.751,0-1.525l-.377.007a15.892,15.892,0,0,1-2.067-.044,2.507,2.507,0,0,1-1.762-.872c-.364-.561.248-1.592.563-1.929,2.753-2.927,5.594-5.863,8.34-8.7a2.086,2.086,0,0,1,1.4-.8h0a2.076,2.076,0,0,1,1.408.8l.932.967c2.415,2.5,4.912,5.09,7.332,7.672a2.22,2.22,0,0,1,.638,1.943c-.275.736-1.639.9-1.794.919a16.058,16.058,0,0,1-2.028.042c-.156,0-.316-.007-.478-.009v.768c0,.916,0,1.792,0,2.668,0,.317,0,.635-.005.952,0,.635-.01,1.29,0,1.93a1.73,1.73,0,0,1-.409,1.281,1.351,1.351,0,0,1-.987.4Z" transform="translate(2607 1064)" fill="url(#linear-gradient)"/>
    </g>
  </g>
</svg>
