<svg id="Group_21975" data-name="Group 21975" xmlns="http://www.w3.org/2000/svg" xmlns:xlink="http://www.w3.org/1999/xlink" width="75.851" height="76" viewBox="0 0 75.851 76">
  <defs>
    <linearGradient id="linear-gradient" x1="0.5" x2="0.5" y2="1" gradientUnits="objectBoundingBox">
      <stop offset="0" stop-color="#00efd1"/>
      <stop offset="1" stop-color="#00acea"/>
    </linearGradient>
    <clipPath id="clip-path">
      <rect id="Rectangle_1667" data-name="Rectangle 1667" width="75.851" height="76" fill="url(#linear-gradient)"/>
    </clipPath>
  </defs>
  <g id="Group_21946" data-name="Group 21946" clip-path="url(#clip-path)">
    <path id="Path_14038" data-name="Path 14038" d="M74.124,37.094c-.462-.008-.929-.007-1.381-.005-.626,0-1.272,0-1.9-.02a.543.543,0,0,1-.216-.114c-1.21-4.579-2.375-9.072-3.607-13.829l-.439-1.693h1.264l1.016,0c.748,0,1.521,0,2.283-.007a4.683,4.683,0,1,0-.03-9.366c-2.962-.017-5.974-.014-8.886-.01l-3.641,0-1.253,0c-1,0-2.043-.008-3.066.014-.267.005-.3,0-.394-.276-2.319-6.7-7.029-10.626-14-11.667a1.4,1.4,0,0,1-.212-.06c-.049-.016-.1-.032-.147-.047L39.455,0H36.262l-.053.013c-.408.1-.83.193-1.238.282a19.9,19.9,0,0,0-2.75.737A16.387,16.387,0,0,0,22,11.709c-.112.339-.163.36-.479.36-4.125-.016-8.319-.014-12.374-.013H5.635c-3.217,0-4.421.811-5.6,3.774L0,15.91v1.643l.035.083c.064.152.123.308.185.473a6.074,6.074,0,0,0,.51,1.121,4.492,4.492,0,0,0,3.906,2.2c1.185.016,2.351.012,3.584.008l1.051,0L7.438,28.487C6.731,31.2,6,34.013,5.3,36.78c-.086.338-.118.336-.372.322-.482-.026-.965-.019-1.433-.014-.444.005-.9.011-1.346-.011a2.148,2.148,0,0,0-2.074.973L0,38.161v2.823l.011.049c.042.186.082.373.123.56.087.4.177.822.286,1.232A12.347,12.347,0,0,0,20.754,48.8a12.44,12.44,0,0,0,3.873-7.427,19.076,19.076,0,0,0,.13-2.394,1.649,1.649,0,0,0-1.85-1.89c-.83-.008-1.652-.006-2.522,0h-.82L15.5,21.461h6.352A16.966,16.966,0,0,0,33.2,32.835V56.8H30.067q-3.333,0-6.666,0a3.59,3.59,0,0,0-3.944,3.929c0,.985,0,1.97,0,3V64.73H18.213c-.263,0-.526,0-.789,0-.583,0-1.187-.006-1.783.007a3.623,3.623,0,0,0-3.761,3.832c0,.685,0,1.37,0,2.054,0,1.081.007,2.2-.013,3.294a2.071,2.071,0,0,0,1.1,2.031l.1.055H62.785l.1-.055a2.074,2.074,0,0,0,1.1-2.03c-.02-1.084-.016-2.189-.013-3.258,0-.7,0-1.393,0-2.09a3.614,3.614,0,0,0-3.762-3.83c-.957-.017-1.9-.013-2.9-.009l-.917,0c0-.3-.008-.6-.012-.893-.016-.963-.031-1.872.029-2.783a3.961,3.961,0,0,0-1-3.108,4.267,4.267,0,0,0-3.261-1.174c-2.3.07-4.646.054-6.92.039-.837-.005-1.7-.011-2.558-.013V32.815A16.848,16.848,0,0,0,53.975,21.457h6.371l-.328,1.278c-.344,1.342-.685,2.671-1.03,4q-.389,1.5-.781,2.994c-.6,2.293-1.22,4.663-1.806,7-.092.368-.142.387-.487.372-1.045-.047-2.09-.027-3.1-.007a1.607,1.607,0,0,0-1.72,1.7A12.473,12.473,0,0,0,61.2,51.859a12.391,12.391,0,0,0,14.51-10.434,21.934,21.934,0,0,0,.134-2.612,1.6,1.6,0,0,0-1.719-1.719M67,18.129l-1.625,0H54.616V15.389h3.138c4.329,0,8.806,0,13.209,0,.942,0,1.509.462,1.557,1.264A1.321,1.321,0,0,1,72.2,17.66a1.642,1.642,0,0,1-1.217.458c-1.324.018-2.673.015-3.977.011M59.719,37.064l3.749-14.44,3.75,14.44Zm12.738,3.362a8.568,8.568,0,0,1-2.324,5.4,9.054,9.054,0,0,1-13.065.27,8.649,8.649,0,0,1-2.6-5.668ZM53.111,63.833v.836H22.757q0-.363,0-.725c-.005-1.213-.01-2.361.031-3.528a1.676,1.676,0,0,1,.422-.309,1.516,1.516,0,0,1,.2.009c.074.006.157.014.241.014H52.2a2.7,2.7,0,0,1,.836.077,2.814,2.814,0,0,1,.079.863c0,.911,0,1.821,0,2.762m7.532,8.792H15.216q0-.473,0-.941c0-1.15,0-2.235.008-3.342,0-.187,0-.281.522-.278,2.195.012,4.362.012,6,.012l25.328-.006,12.663,0a3.573,3.573,0,0,1,.841.053,3.274,3.274,0,0,1,.063.877v3.628ZM37.925,30.193H37.9A13.467,13.467,0,0,1,24.51,16.7,13.475,13.475,0,0,1,37.918,3.322h.015A13.443,13.443,0,0,1,51.342,16.763a13.455,13.455,0,0,1-13.416,13.43m1.29,26.548h-2.6V33.486h2.6ZM3.35,40.415H21.412a8.666,8.666,0,0,1-3.437,6.38,8.583,8.583,0,0,1-9.82.884,8.748,8.748,0,0,1-4.8-7.264M21.23,15.4v2.72a.9.9,0,0,1-.1.006H20.093c-4.953,0-10.075.007-15.112,0a1.8,1.8,0,0,1-1.3-.438,1.274,1.274,0,0,1-.347-.941,1.313,1.313,0,0,1,1.2-1.338,4.824,4.824,0,0,1,.5-.017h.039q7.97,0,15.94,0c.071,0,.145,0,.221.008M8.641,37.039l3.743-14.413,3.744,14.413Z" fill="url(#linear-gradient)"/>
    <path id="Path_14039" data-name="Path 14039" d="M211.115,83.734c.6.626,1.232,1.247,1.838,1.847l.486.482a2.185,2.185,0,0,0,3.616,0q2.738-2.73,5.467-5.468a4.639,4.639,0,0,0,.566-.66,2.033,2.033,0,0,0-.252-2.619,2,2,0,0,0-2.552-.187,6.113,6.113,0,0,0-.805.711l-.016.016c-1.138,1.133-2.274,2.269-3.439,3.436l-.8.8-.155-.162c-.363-.379-.706-.737-1.071-1.086a2.054,2.054,0,1,0-2.885,2.9" transform="translate(-179.14 -65.359)" fill="url(#linear-gradient)"/>
  </g>
</svg>
