<svg xmlns="http://www.w3.org/2000/svg" width="44.04" height="44" viewBox="0 0 44.04 44"><defs><style>.a{fill:#fff;}</style></defs><g transform="translate(277.53 -375.58)"><g transform="translate(-277.53 375.58)"><path class="a" d="M-233.551,410.436c-.848,2.053-1.791,4.273-2.933,6.9a2.926,2.926,0,0,1-1.487,1.288,8.151,8.151,0,0,1-3.833.953h-.241a16.9,16.9,0,0,1-6.284-1.372,45.5,45.5,0,0,1-12.254-7.719,62.105,62.105,0,0,1-11.951-13.312,29.693,29.693,0,0,1-4.682-10.369,9.9,9.9,0,0,1,.283-5.865,11.556,11.556,0,0,1,.869-1.623,2.023,2.023,0,0,1,1.037-.838c1.32-.555,2.629-1.121,3.949-1.686l2.5-1.058.136-.073a.563.563,0,0,1,.293-.084.612.612,0,0,1,.136.021.691.691,0,0,1,.4.335l1.508,2.566c1.341,2.252,2.681,4.514,4.074,6.818a1.046,1.046,0,0,1-.01,1.152c-.786,1.414-1.55,2.849-2.315,4.284l-.922,1.707a2.782,2.782,0,0,0,.534,3.729l10.6,10.6a2.816,2.816,0,0,0,3.823.545l1.822-.974c1.393-.744,2.786-1.487,4.221-2.283a.974.974,0,0,1,1.068.063q3.111,1.87,6.242,3.718l3.215,1.906A.482.482,0,0,1-233.551,410.436Z" transform="translate(277.53 -375.58)"/></g><g transform="translate(-252.588 375.69)"><path class="a" d="M-235.58,375.69l-3.97,14.82c-.48-.48-.97-.97-1.46-1.47l-1.44-1.45-.88.84c-.11.1-.19.19-.28.28l-5.83,5.85c-.05.05-.1.09-.13.12-.04-.03-.08-.07-.14-.12l-4.79-4.8a.592.592,0,0,1-.08-.08.5.5,0,0,1,.07-.08c1.96-1.96,3.93-3.91,5.84-5.81a2.358,2.358,0,0,1,.36-.26l.98-.63-.92-1.05c-.11-.13-.19-.22-.28-.31l-1.87-1.88Z" transform="translate(254.58 -375.69)"/></g></g></svg>