<svg xmlns="http://www.w3.org/2000/svg" width="52.216" height="44" viewBox="0 0 52.216 44"><defs><style>.a{fill:#fff;}</style></defs><g transform="translate(-237.911 -569.484)"><g transform="translate(237.911 578.122)"><path class="a" d="M280.976,608.994a4.854,4.854,0,0,0-3.452-4.118,7.259,7.259,0,0,1-3.111-1.889,12.836,12.836,0,0,0-9.821-4.38c-2.824-.1-3.775-1.536-2.889-4.233a22.235,22.235,0,0,1,1.1-2.2c.874-1.908.129-3.37-1.406-4.5a3.17,3.17,0,0,0-4.452.455c-1.658,1.6-1.349,3.246-.294,5.118,1.877,3.332.858,5.187-2.8,5.383a12.454,12.454,0,0,0-9.166,4.151,7.633,7.633,0,0,1-3.28,2.072,4.818,4.818,0,0,0-3.471,4.1,4.734,4.734,0,0,0,2.79,4.815,6.493,6.493,0,0,1,2.625,2.5,11.98,11.98,0,0,0,10.41,6.008c1.887.081,3.78.014,5.671.011,1.972,0,3.948.074,5.916-.019a11.782,11.782,0,0,0,9.78-5.342,9.608,9.608,0,0,1,3.265-3.24A4.718,4.718,0,0,0,280.976,608.994Zm-14.99,9.305c-2.126.136-4.268.024-6.4.024v.009c-2.053,0-4.111.1-6.158-.019a7.793,7.793,0,0,1-7.746-7.932,7.674,7.674,0,0,1,7.654-7.729c4.181-.163,8.379-.158,12.561,0a7.843,7.843,0,0,1,.092,15.649Z" transform="translate(-237.911 -586.966)"/><path class="a" d="M267.562,627.233c-1.346-.032-1.772.989-1.949,2.12-.076.484-.069.981-.106,1.568a16.229,16.229,0,0,0,.15,1.623c.193,1.045.666,1.938,1.883,1.9s1.684-.964,1.785-2.005a17.282,17.282,0,0,0,.009-3.19C269.241,628.2,268.764,627.262,267.562,627.233Z" transform="translate(-251.871 -607.335)"/><path class="a" d="M291.443,627.271c-1.328.049-1.712,1.145-1.794,2.268a16.3,16.3,0,0,0,.041,2.943c.115,1.049.61,1.95,1.811,1.979,1.217.029,1.678-.872,1.864-1.915a15.62,15.62,0,0,0,.14-1.579c-.029-.546-.026-.958-.076-1.364C293.281,628.389,292.94,627.215,291.443,627.271Z" transform="translate(-264.059 -607.353)"/></g><g transform="translate(274.857 569.484)"><path class="a" d="M318.051,583.025h-.98V577.87a.9.9,0,1,0-1.8,0v5.155h-.981a1.608,1.608,0,0,0-1.608,1.608v6.029a1.608,1.608,0,0,0,1.608,1.608h.981v4.646a.9.9,0,1,0,1.8,0V592.27h.98a1.608,1.608,0,0,0,1.608-1.608v-6.029A1.608,1.608,0,0,0,318.051,583.025Z" transform="translate(-312.678 -573.27)"/><path class="a" d="M334.825,572.736h-.98v-2.35a.9.9,0,0,0-1.8,0v2.35h-.981a1.608,1.608,0,0,0-1.608,1.608v10.811a1.608,1.608,0,0,0,1.608,1.608h.981v3.88a.9.9,0,0,0,1.8,0v-3.88h.98a1.608,1.608,0,0,0,1.608-1.608V574.344A1.608,1.608,0,0,0,334.825,572.736Z" transform="translate(-321.163 -569.484)"/></g></g></svg>