<svg xmlns="http://www.w3.org/2000/svg" width="51.792" height="44" viewBox="0 0 51.792 44"><defs><style>.a{fill:#fff;}</style></defs><g transform="translate(2148.804 -1288.182)"><path class="a" d="M-1958.484,1304.141c.472.312.9.6,1.335.882.8.529,1.591,1.061,2.39,1.587a.381.381,0,0,1,.188.269,12.5,12.5,0,0,0,5.308,8.139,12.155,12.155,0,0,0,5.643,2.105,12.318,12.318,0,0,0,8.247-1.865,12.317,12.317,0,0,0,5.742-8.728,12.633,12.633,0,0,0-6.541-13.154,12.688,12.688,0,0,0-14.343,1.69,12.456,12.456,0,0,0-3.32,4.668c-.05.122-.077.176-.219.081q-1.419-.955-2.852-1.891c-.132-.086-.125-.156-.064-.28a16.045,16.045,0,0,1,11.13-9.016,16.252,16.252,0,0,1,16.445,5.641,15.858,15.858,0,0,1,3.476,8.124,16.223,16.223,0,0,1-2.579,11.213c-.115.177-.087.238.074.354.706.506,1.331,1.111,2,1.661q5.3,4.349,10.588,8.714a3.589,3.589,0,0,1,1.211,2.176,5.867,5.867,0,0,1-.487,3.772,3.008,3.008,0,0,1-1.84,1.528,5.724,5.724,0,0,1-4.087-.011,4.04,4.04,0,0,1-1.618-1.311q-4.36-5.318-8.736-10.622a19.419,19.419,0,0,1-1.419-1.723c-.078-.12-.135-.037-.2,0a16.306,16.306,0,0,1-2.906,1.548,16.07,16.07,0,0,1-4.862,1.159,16.043,16.043,0,0,1-11.037-3.105,16,16,0,0,1-6.217-9.336,15.867,15.867,0,0,1-.455-4.081C-1958.483,1304.285-1958.484,1304.238-1958.484,1304.141Z" transform="translate(-182.507)"/><g transform="translate(-2148.804 1294.199)"><path class="a" d="M-1131.279,1724.026a3.412,3.412,0,0,0-1.635-2.767,3.452,3.452,0,0,0-3.606-.138c-.114.058-.21.1-.339.02-.8-.526-1.6-1.046-2.4-1.567q-.9-.587-1.8-1.172c-.074-.048-.172-.145-.186.052a16.667,16.667,0,0,1-.463,2.889.278.278,0,0,0,.153.348c.925.6,1.839,1.208,2.771,1.791.3.188.522.372.4.7a3.567,3.567,0,0,0,4.126,3.6A3.557,3.557,0,0,0-1131.279,1724.026Zm-3.553,2.268a2.036,2.036,0,0,1-2.033-2.037,2.022,2.022,0,0,1,2.035-2.029,2.018,2.018,0,0,1,2.029,2.032A2.023,2.023,0,0,1-1134.831,1726.294Z" transform="translate(1183.061 -1706.698)"/><path class="a" d="M-2113.671,1442.148a.384.384,0,0,0-.2-.267c-.746-.482-1.488-.971-2.236-1.45a.248.248,0,0,1-.127-.267,3.547,3.547,0,0,0-3.6-3.849,3.556,3.556,0,0,0-3.042,5.321.254.254,0,0,1,.005.3q-1.524,2.528-3.038,5.062a.28.28,0,0,1-.28.158,3.5,3.5,0,0,0-1.909.454.293.293,0,0,1-.355-.019c-.348-.241-.7-.475-1.055-.709l-6.014-3.988c-1.919-1.273-3.834-2.552-5.76-3.814a.765.765,0,0,1-.412-.745,3.513,3.513,0,0,0-3.319-3.555,3.567,3.567,0,0,0-3.778,3.88,3.562,3.562,0,0,0,5.262,2.8.334.334,0,0,1,.405.017c.879.591,1.763,1.174,2.646,1.759q2.179,1.444,4.358,2.886c1.93,1.281,3.854,2.57,5.791,3.842.29.191.537.356.406.687a3.569,3.569,0,0,0,4.407,3.527,3.559,3.559,0,0,0,2.2-5.3.283.283,0,0,1,0-.335q1.481-2.458,2.952-4.922a.34.34,0,0,1,.357-.2,3.341,3.341,0,0,0,1.986-.457.247.247,0,0,1,.3.027q2.078,1.355,4.159,2.7c.055.036.109.113.176.081s.033-.123.037-.188A14.393,14.393,0,0,0-2113.671,1442.148Zm-31.544-1.771a2.029,2.029,0,0,1-2.055-2.05,2.04,2.04,0,0,1,2.038-2.029,2.043,2.043,0,0,1,2.027,2.022A2.043,2.043,0,0,1-2145.215,1440.377Zm18.862,12.384a2.057,2.057,0,0,1-2.046-1.987,2.047,2.047,0,0,1,2.014-2.1,2.044,2.044,0,0,1,2.051,2.037A2.039,2.039,0,0,1-2126.353,1452.76Zm6.579-10.856a2.006,2.006,0,0,1-2.036-2.043,2.015,2.015,0,0,1,2.018-2.021,2.043,2.043,0,0,1,2.048,2.024A2.035,2.035,0,0,1-2119.773,1441.9Z" transform="translate(2148.804 -1434.771)"/></g></g></svg>