<svg xmlns="http://www.w3.org/2000/svg" width="52.216" height="31.668" viewBox="0 0 52.216 31.668"><defs><style>.a{fill:#fff;}</style></defs><g transform="translate(-149.12 -65.44)"><path class="a" d="M178.4,81.638a5.925,5.925,0,0,1-6.436-.156c0,.407-.018.716,0,1.023a16.79,16.79,0,0,1-.321,4.558,13.283,13.283,0,0,1-3.4,6.683,10.737,10.737,0,0,1-13.394,1.779,11.344,11.344,0,0,1-5.315-7.216,14.288,14.288,0,0,1-.41-3.962,11.248,11.248,0,0,1,2.851-7.29c1.66-1.841,3.357-3.649,5.072-5.439a11.9,11.9,0,0,1,3.3-2.5,5.881,5.881,0,0,1,2.707-.668.651.651,0,0,0,.582-.273A7.6,7.6,0,0,1,166.189,66a3.75,3.75,0,0,1,5.5,2.438,12.056,12.056,0,0,1,.15,1.846c0,.054-.006.109,0,.163a.782.782,0,0,0,.075.153,5.843,5.843,0,0,1,6.574-.133,4.26,4.26,0,0,0,.037-.427,5.345,5.345,0,0,1,.39-2.4,3.743,3.743,0,0,1,4.123-2.12,6.068,6.068,0,0,1,3.228,2.057c.2.22.356.473.564.681a.644.644,0,0,0,.428.21,5.338,5.338,0,0,1,3.293.893A16.034,16.034,0,0,1,194.1,72.4c.634.692,1.216,1.434,1.869,2.108.407.42.915.74,1.352,1.134a12,12,0,0,1,3.337,5.132,12.351,12.351,0,0,1-5.874,14.905,11.248,11.248,0,0,1-4.33,1.173,10.527,10.527,0,0,1-5.387-.919,10.294,10.294,0,0,1-4.271-3.764A14,14,0,0,1,178.472,85c-.047-.97-.032-1.943-.046-2.915C178.423,81.959,178.414,81.833,178.4,81.638Zm11.14,12.385a8.5,8.5,0,0,0,5.312-1.637A9.226,9.226,0,0,0,198.084,82.2a8.592,8.592,0,0,0-6.458-6.064,7.348,7.348,0,0,0-4.834.473,8.816,8.816,0,0,0-5.384,8.1,8.585,8.585,0,0,0,1.223,4.922A8.278,8.278,0,0,0,189.545,94.023Zm-29.37-18.141a16.4,16.4,0,0,0-2.007.371,8.258,8.258,0,0,0-4.819,3.712,9.14,9.14,0,0,0-.777,8.412,8.524,8.524,0,0,0,8.314,5.578,7.823,7.823,0,0,0,3.524-1,8.927,8.927,0,0,0,4.614-7.572,8.71,8.71,0,0,0-1.287-5.2A8.583,8.583,0,0,0,160.175,75.882Zm15.165-2.51a2.654,2.654,0,1,0,2.493,2.7A2.592,2.592,0,0,0,175.34,73.371Z" transform="translate(0 0)"/><path class="a" d="M333.086,133.736a10.846,10.846,0,0,0-4.36,1,3.052,3.052,0,0,1-.612.223c-.51.117-.846-.215-.718-.717a4.987,4.987,0,0,1,3.048-3.57,5.631,5.631,0,0,1,5.437.51,4.484,4.484,0,0,1,1.887,2.591.624.624,0,0,1-.151.666.659.659,0,0,1-.7.117c-.881-.242-1.76-.494-2.65-.7A8.347,8.347,0,0,0,333.086,133.736Z" transform="translate(-142.707 -51.844)"/><path class="a" d="M185.09,134.062a11.348,11.348,0,0,0-4.542,1.025,2.336,2.336,0,0,1-.4.142.655.655,0,0,1-.813-.867,5.254,5.254,0,0,1,4.512-3.791,5.508,5.508,0,0,1,4.548,1.375,4.293,4.293,0,0,1,1.268,2.1.648.648,0,0,1-.175.694.61.61,0,0,1-.675.076A10.8,10.8,0,0,0,185.09,134.062Z" transform="translate(-24.157 -52.104)"/></g></svg>