<svg xmlns="http://www.w3.org/2000/svg" width="46" height="46" viewBox="0 0 46 46"><defs><style>.a{fill:#fff;}.b{fill:#db4437;}.c{fill:#3cba54;}</style></defs><g transform="translate(-335 -176)"><circle class="a" cx="23" cy="23" r="23" transform="translate(335 176)"/><g transform="translate(323.357 149)"><path class="b" d="M34.748,52.5a.049.049,0,0,1,.024-.049,1.779,1.779,0,0,0,.1-.183,2.552,2.552,0,0,0,.256-1.111,2.521,2.521,0,0,0-.562-1.6h0a1.526,1.526,0,0,1,.128-2.045l-3.028,2.946h0L28.453,53.6V41a3.709,3.709,0,0,0-3.709,3.718V53.6l-3.55-3.462h0l-.418-.409a2.118,2.118,0,0,0-1.493,3.636l4.768,4.649h0l.418.409a3.053,3.053,0,0,0,4.274,0l5.8-5.663c.024-.024.043-.052.067-.079l.052-.052.027-.04a.2.2,0,0,0,.031-.04Z"/><path class="c" d="M85.33,46.935l-4.768-4.646h0l-.421-.415a3.053,3.053,0,0,0-4.274,0l-5.8,5.644a1.526,1.526,0,0,0-.183.217c-.018.024-.031.049-.046.073a1.687,1.687,0,0,0-.092.162l-.037.085a1.141,1.141,0,0,0-.052.165.391.391,0,0,0-.021.085,1.279,1.279,0,0,0-.027.214v.046a1.477,1.477,0,0,0,0,.232l.018.092a1.188,1.188,0,0,0,.037.15.914.914,0,0,0,.031.1,1.621,1.621,0,0,0,.235.427h0a2.521,2.521,0,0,1,.562,1.6,2.552,2.552,0,0,1-.256,1.111,1.779,1.779,0,0,1-.1.183.062.062,0,0,1-.024.049l-.034.043a.2.2,0,0,1-.031.04l-.027.04,2.558-2.488h0l3.578-3.44V59.286a3.709,3.709,0,0,0,3.709-3.709V46.7l.424.409h0l3.559,3.462a2.118,2.118,0,0,0,1.481-3.633Z" transform="translate(-35.405 -0.001)"/></g></g></svg>