<svg width="16" height="16" viewBox="0 0 16 16" fill="none" xmlns="http://www.w3.org/2000/svg">
<path d="M4.60814 15.0912C5.01205 15.0912 5.28743 14.8801 5.78313 14.4303L8.24327 12.2272H12.5577C14.8158 12.2272 16 11.0063 16 8.78485V3.44235C16 1.22089 14.8158 0 12.5577 0H3.44235C1.18418 0 0 1.22089 0 3.44235V8.78485C0 11.0063 1.18418 12.2272 3.44235 12.2272H3.70855V14.0539C3.70855 14.6873 4.02984 15.0912 4.60814 15.0912ZM4.9478 13.5858V11.5204C4.9478 11.0706 4.78257 10.9053 4.33276 10.9053H3.44235C1.96442 10.9053 1.32186 10.1985 1.32186 8.78485V3.44235C1.32186 2.03788 1.96442 1.33104 3.44235 1.33104H12.5577C14.0356 1.33104 14.6781 2.03788 14.6781 3.44235V8.78485C14.6781 10.1985 14.0356 10.9053 12.5577 10.9053H8.16983C7.72921 10.9053 7.49972 10.9696 7.20597 11.2817L4.9478 13.5858Z" fill="#004393"/>
<path d="M4.35742 6.53746H11.6093C11.8663 6.53746 12.0774 6.33551 12.0774 6.06931C12.0774 5.82145 11.8663 5.60116 11.6093 5.60116H4.35742C4.10038 5.60116 3.89844 5.82145 3.89844 6.06931C3.89844 6.33551 4.10038 6.53746 4.35742 6.53746ZM4.35742 4.19668H11.6093C11.8663 4.19668 12.0774 3.99471 12.0774 3.72851C12.0774 3.48067 11.8663 3.26953 11.6093 3.26953H4.35742C4.10038 3.26953 3.89844 3.48067 3.89844 3.72851C3.89844 3.99471 4.10038 4.19668 4.35742 4.19668ZM4.35742 8.87826H9.04819C9.3052 8.87826 9.51634 8.67631 9.51634 8.41928C9.51634 8.15307 9.3052 7.94193 9.04819 7.94193H4.35742C4.10038 7.94193 3.89844 8.15307 3.89844 8.41928C3.89844 8.67631 4.10038 8.87826 4.35742 8.87826Z" fill="#004393"/>
</svg>
