<svg width="67" height="18" viewBox="0 0 67 18" fill="none" xmlns="http://www.w3.org/2000/svg">
<path d="M28.8196 13H27.1536L25.1096 9.514H23.0656V13H21.6236V3.62H25.3756C27.3776 3.62 28.6096 4.726 28.6096 6.434C28.6096 7.848 27.8256 8.87 26.5936 9.276L28.8196 13ZM23.0656 4.894V8.282H25.2636C26.4536 8.282 27.1256 7.596 27.1256 6.518C27.1256 5.468 26.4396 4.894 25.2496 4.894H23.0656ZM36.1403 9.22C36.1403 9.374 36.1263 9.584 36.1123 9.78H31.3103C31.3383 11.208 32.0383 11.95 33.1443 11.95C34.1943 11.95 34.6843 11.292 34.7543 10.62H36.0703C35.9863 11.936 34.9503 13.14 33.1303 13.14C31.1423 13.14 29.8683 11.838 29.8683 9.472C29.8683 7.12 31.2963 5.776 33.0743 5.776C34.9223 5.776 36.1403 7.05 36.1403 9.22ZM33.0743 6.91C32.1643 6.91 31.4783 7.54 31.3383 8.8H34.7543C34.6843 7.498 34.0123 6.91 33.0743 6.91ZM37.2758 10.83H38.6478C38.6898 11.67 39.2078 12.034 40.1598 12.034C41.0698 12.034 41.5598 11.628 41.5598 11.124C41.5598 10.438 41.1258 10.326 40.0478 10.032C38.4938 9.612 37.4018 9.346 37.4018 7.834C37.4018 6.56 38.5918 5.776 40.1178 5.776C41.8678 5.776 42.9038 6.588 42.8478 8.016H41.5038C41.4898 7.26 40.9998 6.868 40.1318 6.868C39.3618 6.868 38.7878 7.218 38.7878 7.722C38.7878 8.422 39.2918 8.548 40.2718 8.814C41.9378 9.22 42.9598 9.556 42.9598 10.998C42.9598 12.272 41.8398 13.14 40.1038 13.14C38.3818 13.14 37.2758 12.398 37.2758 10.83ZM50.3864 9.22C50.3864 9.374 50.3724 9.584 50.3584 9.78H45.5564C45.5844 11.208 46.2844 11.95 47.3904 11.95C48.4404 11.95 48.9304 11.292 49.0004 10.62H50.3164C50.2324 11.936 49.1964 13.14 47.3764 13.14C45.3884 13.14 44.1144 11.838 44.1144 9.472C44.1144 7.12 45.5424 5.776 47.3204 5.776C49.1684 5.776 50.3864 7.05 50.3864 9.22ZM47.3204 6.91C46.4104 6.91 45.7244 7.54 45.5844 8.8H49.0004C48.9304 7.498 48.2584 6.91 47.3204 6.91ZM51.9979 5.916H53.3839V7.302H53.4119C53.6499 6.49 54.3919 5.776 55.6519 5.776C57.0239 5.776 57.9199 6.602 57.9199 8.24V13H56.5199V8.576C56.5199 7.47 56.0579 6.994 55.1619 6.994C54.1539 6.994 53.3979 7.946 53.3979 9.346V13H51.9979V5.916ZM64.6065 2.92H66.0205V13H64.6345V11.656H64.5925C64.4245 12.342 63.7245 13.14 62.4225 13.14C60.7425 13.14 59.4405 11.852 59.4405 9.5C59.4405 7.204 60.7145 5.776 62.5765 5.776C63.7945 5.776 64.4105 6.504 64.5785 6.994H64.6065V2.92ZM64.6065 9.528V9.22C64.6065 7.778 63.8085 6.924 62.8005 6.924C61.6385 6.924 60.8825 7.904 60.8825 9.458C60.8825 11.082 61.6525 11.992 62.7305 11.992C63.7805 11.992 64.6065 11.096 64.6065 9.528Z" fill="#004393"/>
<path d="M4.60814 17.0912C5.01205 17.0912 5.28743 16.8801 5.78313 16.4303L8.24327 14.2272H12.5577C14.8158 14.2272 16 13.0063 16 10.7849V5.44235C16 3.22089 14.8158 2 12.5577 2H3.44235C1.18418 2 0 3.22089 0 5.44235V10.7849C0 13.0063 1.18418 14.2272 3.44235 14.2272H3.70855V16.0539C3.70855 16.6873 4.02984 17.0912 4.60814 17.0912ZM4.9478 15.5858V13.5204C4.9478 13.0706 4.78257 12.9053 4.33276 12.9053H3.44235C1.96442 12.9053 1.32186 12.1985 1.32186 10.7849V5.44235C1.32186 4.03788 1.96442 3.33104 3.44235 3.33104H12.5577C14.0356 3.33104 14.6781 4.03788 14.6781 5.44235V10.7849C14.6781 12.1985 14.0356 12.9053 12.5577 12.9053H8.16983C7.72921 12.9053 7.49972 12.9696 7.20597 13.2817L4.9478 15.5858Z" fill="#004393"/>
<path d="M4.35742 8.53746H11.6093C11.8663 8.53746 12.0774 8.33551 12.0774 8.06931C12.0774 7.82145 11.8663 7.60116 11.6093 7.60116H4.35742C4.10038 7.60116 3.89844 7.82145 3.89844 8.06931C3.89844 8.33551 4.10038 8.53746 4.35742 8.53746ZM4.35742 6.19668H11.6093C11.8663 6.19668 12.0774 5.99471 12.0774 5.72851C12.0774 5.48067 11.8663 5.26953 11.6093 5.26953H4.35742C4.10038 5.26953 3.89844 5.48067 3.89844 5.72851C3.89844 5.99471 4.10038 6.19668 4.35742 6.19668ZM4.35742 10.8783H9.04819C9.3052 10.8783 9.51634 10.6763 9.51634 10.4193C9.51634 10.1531 9.3052 9.94193 9.04819 9.94193H4.35742C4.10038 9.94193 3.89844 10.1531 3.89844 10.4193C3.89844 10.6763 4.10038 10.8783 4.35742 10.8783Z" fill="#004393"/>
</svg>
