<svg width="56" height="56" viewBox="0 0 56 56" fill="none" xmlns="http://www.w3.org/2000/svg">
<g clip-path="url(#clip0_44_1398)">
<path d="M42.0683 44.8176C41.292 44.0413 40.6089 43.3582 39.9103 42.6596C34.1349 47.3637 27.5366 49.3044 20.1155 48.0624C13.8123 46.9911 8.71999 43.8084 4.8542 38.7162C-2.66003 28.811 -1.30933 14.8072 7.9282 6.31492C17.0726 -2.08425 31.1074 -2.1153 40.4692 6.28387C49.7999 14.6675 51.4766 29.4476 42.7048 39.8495C43.4034 40.5481 44.0866 41.2313 44.8628 41.992C45.1733 41.6504 45.5615 41.1847 45.9962 40.781C46.8035 40.0048 47.8592 39.9737 48.651 40.75C50.6227 42.6906 52.6255 44.6158 54.504 46.6496C57.4538 49.8322 55.7926 54.909 51.5387 55.8561C49.7222 56.2597 48.0765 55.8095 46.7414 54.5675C44.6765 52.6423 42.7048 50.6085 40.7176 48.5902C39.9879 47.8605 40.0345 46.7738 40.7486 46.0286C41.1678 45.5783 41.6491 45.1902 42.0683 44.8176ZM24.2297 44.7089C35.5321 44.7089 44.661 35.5956 44.7231 24.2621C44.7852 12.9597 35.5942 3.73773 24.2608 3.7222C12.9429 3.70668 3.7519 12.8821 3.73638 24.2C3.73638 35.518 12.8963 44.7089 24.2297 44.7089ZM47.409 44.8642C46.5706 45.7025 45.7012 46.5719 44.8318 47.4414C46.229 48.8386 47.6574 50.298 49.1167 51.7263C49.893 52.4871 50.8711 52.4405 51.6474 51.6953C52.4081 50.9656 52.5168 49.9409 51.8181 49.2112C50.3588 47.7053 48.8373 46.2459 47.409 44.8486V44.8642Z" fill="url(#paint0_linear_44_1398)"/>
<path d="M33.3748 21.3683C32.6141 22.1446 31.8689 22.9209 31.0926 23.6816C29.3072 25.4825 27.5063 27.2679 25.7054 29.0533C24.7273 30.0314 23.6871 30.0314 22.709 29.0533C21.9793 28.3237 21.2651 27.594 20.5199 26.8332C20.3336 27.004 20.1939 27.1437 20.0386 27.2835C18.1601 29.162 16.2815 31.0406 14.403 32.9036C13.7043 33.6023 13.0057 33.7575 12.245 33.4004C10.9719 32.8105 10.708 31.3356 11.7171 30.3264C13.4249 28.6031 15.1327 26.8953 16.856 25.1876C17.6012 24.4423 18.3309 23.6971 19.0761 22.9674C19.961 22.1136 21.0323 22.1136 21.9017 22.9674C22.6469 23.6971 23.3766 24.4423 24.1218 25.172C24.1218 25.172 24.1528 25.1876 24.1063 25.172C26.3108 22.9674 28.4844 20.7939 30.6579 18.6204C30.6113 18.6204 30.4716 18.5893 30.3319 18.5893C29.5246 18.5893 28.7017 18.5893 27.8944 18.5893C26.8387 18.5583 26.0624 17.8131 26.0314 16.835C25.9848 15.8103 26.73 14.9098 27.7857 14.8943C30.3629 14.8477 32.9401 14.8477 35.5173 14.8943C36.5886 14.9098 37.2562 15.7637 37.2717 16.9592C37.2717 19.0861 37.2717 21.2131 37.2717 23.3556C37.2717 23.6195 37.2717 23.899 37.2717 24.1629C37.2251 25.3118 36.4333 26.1191 35.3931 26.1191C34.3529 26.1191 33.5767 25.2807 33.5456 24.1318C33.5301 23.2314 33.5456 22.3309 33.5456 21.4149C33.499 21.3994 33.4369 21.3839 33.3904 21.3528L33.3748 21.3683Z" fill="url(#paint1_linear_44_1398)"/>
</g>
<defs>
<linearGradient id="paint0_linear_44_1398" x1="27.9967" y1="0" x2="27.9967" y2="56" gradientUnits="userSpaceOnUse">
<stop stop-color="#8EF8AA"/>
<stop offset="1" stop-color="#00EFD1"/>
</linearGradient>
<linearGradient id="paint1_linear_44_1398" x1="24.1856" y1="14.8594" x2="24.1856" y2="33.5858" gradientUnits="userSpaceOnUse">
<stop stop-color="#8EF8AA"/>
<stop offset="1" stop-color="#00EFD1"/>
</linearGradient>
<clipPath id="clip0_44_1398">
<rect width="56" height="56" fill="white"/>
</clipPath>
</defs>
</svg>
