<svg width="57" height="58" viewBox="0 0 57 58" fill="none" xmlns="http://www.w3.org/2000/svg">
<path d="M36.7874 39.3486C47.3782 39.3486 55.9617 30.7651 55.9617 20.1743C55.9617 9.58344 47.3782 1 36.7874 1C26.1965 1 17.6131 9.58344 17.6131 20.1743C17.6131 22.1125 17.9592 24.0507 18.513 25.9197H17.1978V5.63782C17.1978 5.2225 17.0593 4.87639 16.7824 4.59951C16.5056 4.32262 16.1595 4.18418 15.7441 4.18418H9.09889C8.68356 4.18418 8.33745 4.32262 8.06057 4.59951C7.78368 4.87639 7.64524 5.2225 7.64524 5.63782V25.9197H2.45365C2.17676 25.9197 1.89988 25.9889 1.69221 26.1273C1.48455 26.2658 1.27689 26.4734 1.13844 26.7503C1 27.0272 1 27.3041 1 27.581C1 27.8578 1.13844 28.1347 1.34611 28.3424L11.314 39.4178C11.4524 39.5562 11.5909 39.6947 11.7985 39.7639C12.0062 39.8331 12.2138 39.9023 12.4215 39.9023C12.6292 39.9023 12.8368 39.9023 13.0445 39.7639C13.2522 39.6947 13.3906 39.5562 13.529 39.4178L21.0742 31.042C21.4203 31.5266 21.7664 31.9419 22.1125 32.3572V43.0173H16.9209C16.644 43.0173 16.3671 43.0865 16.1595 43.225C15.9518 43.3634 15.7441 43.5711 15.6057 43.848C15.4672 44.1248 15.4672 44.4017 15.4672 44.6786C15.4672 44.9555 15.6057 45.2324 15.8133 45.44L25.7812 56.5154C25.9197 56.6539 26.0581 56.7923 26.2658 56.8616C26.4734 56.9308 26.6811 57 26.8888 57C27.0964 57 27.3041 57 27.5117 56.8616C27.7194 56.7923 27.8578 56.6539 27.9963 56.5154L37.9641 45.44C38.1718 45.2324 38.241 44.9555 38.3103 44.6786C38.3103 44.4017 38.3103 44.1248 38.1718 43.848C38.0334 43.5711 37.8949 43.3634 37.618 43.225C37.4104 43.0865 37.1335 43.0173 36.8566 43.0173H31.665V38.5871C33.3263 39.0717 35.0569 39.2794 36.8566 39.2794L36.7874 39.3486ZM24.9506 44.5402V35.2645C26.1273 36.1644 27.3733 36.9258 28.6885 37.5488V44.5402C28.6885 44.9555 28.8269 45.3016 29.1038 45.5785C29.3807 45.8554 29.7268 45.9938 30.1421 45.9938H33.534L26.8195 53.4697L20.1051 45.9938H23.4969C23.9122 45.9938 24.2583 45.8554 24.5352 45.5785C24.8121 45.3016 24.9506 44.9555 24.9506 44.5402ZM23.4969 28.3424C23.7046 28.1347 23.7738 27.8578 23.843 27.581C23.843 27.3041 23.843 27.0272 23.7046 26.7503C23.5661 26.4734 23.4277 26.2658 23.1508 26.1273C22.9431 25.9889 22.6663 25.9197 22.3894 25.9197H21.5587C20.8665 24.1199 20.5204 22.1817 20.5204 20.1743C20.5204 16.9209 21.4895 13.8059 23.2892 11.1063C25.089 8.40667 27.581 6.33004 30.5575 5.08405C33.534 3.83807 36.7874 3.56119 39.9716 4.18418C43.1557 4.80717 45.9938 6.33004 48.2781 8.61434C50.5624 10.8986 52.0853 13.8059 52.7083 16.9209C53.3313 20.1051 52.9852 23.3585 51.8084 26.335C50.5624 29.3115 48.4858 31.8727 45.7861 33.6032C43.0865 35.403 39.9716 36.3721 36.7182 36.3721C32.3572 36.3721 28.2732 34.6415 25.2274 31.5958C24.3276 30.6959 23.6353 29.796 22.9431 28.7577L23.3585 28.2732L23.4969 28.3424ZM14.775 28.3424C15.0519 28.6193 15.398 28.7577 15.8133 28.7577H19.2052L12.4907 36.2336L5.77627 28.7577H9.16811C9.58344 28.7577 9.92954 28.6193 10.2064 28.3424C10.4833 28.0655 10.6218 27.7194 10.6218 27.3041V7.09147H14.3597V27.3733C14.3597 27.7886 14.4981 28.1347 14.775 28.4116V28.3424Z" fill="url(#paint0_linear_44_1404)" stroke="#221F20" stroke-width="0.1"/>
<path d="M31.3194 16.16C31.0425 16.4369 30.9041 16.783 30.9041 17.1983C30.9041 17.6136 31.0425 17.9597 31.3194 18.2366C31.5963 18.5135 32.0116 18.652 32.3577 18.652H36.7187C36.7187 18.652 36.6494 18.7212 36.5802 18.7904C36.3725 18.9981 36.0957 19.2057 35.8188 19.275C35.5419 19.4134 35.265 19.4826 34.9189 19.4134H32.3577C32.0808 19.4134 31.8039 19.4826 31.5271 19.6903C31.2502 19.8287 31.1117 20.1056 30.9733 20.3825C30.8348 20.6594 30.8348 20.9363 30.9041 21.2824C30.9041 21.5593 31.1117 21.8361 31.3194 22.0438L37.6878 28.1353C37.9646 28.4122 38.3107 28.5506 38.7261 28.5506C39.1414 28.5506 39.4875 28.3429 39.7644 28.0661C40.0413 27.7892 40.1797 27.3738 40.1797 27.0277C40.1797 26.6124 39.9721 26.2663 39.6952 25.9894L35.888 22.3899C36.9263 22.1822 37.8262 21.6977 38.5876 20.9363C39.2106 20.3133 39.6259 19.5518 39.9028 18.652H41.1488C41.5641 18.652 41.9102 18.5135 42.1871 18.2366C42.464 17.9597 42.6025 17.6136 42.6025 17.1983C42.6025 16.783 42.464 16.4369 42.1871 16.16C41.9102 15.8831 41.4949 15.7447 41.1488 15.7447H39.9028C39.8336 15.3986 39.6952 15.1217 39.5567 14.8448H41.1488C41.5641 14.8448 41.9102 14.7063 42.1871 14.4295C42.464 14.1526 42.6025 13.8065 42.6025 13.3911C42.6025 12.9758 42.464 12.6297 42.1871 12.3528C41.9102 12.0759 41.5641 11.9375 41.1488 11.9375H32.2193C31.8039 11.9375 31.4578 12.0759 31.181 12.3528C30.9041 12.6297 30.7656 12.9758 30.7656 13.3911C30.7656 13.8065 30.9041 14.1526 31.181 14.4295C31.4578 14.7063 31.8732 14.8448 32.2193 14.8448H34.7805C35.4727 14.8448 36.1649 15.1909 36.5802 15.7447H32.2193C31.8039 15.7447 31.4578 15.8831 31.181 16.16H31.3194Z" fill="url(#paint1_linear_44_1404)" stroke="#221F20" stroke-width="0.1"/>
<defs>
<linearGradient id="paint0_linear_44_1404" x1="28.4808" y1="1" x2="28.4808" y2="57" gradientUnits="userSpaceOnUse">
<stop stop-color="#8EF8AA"/>
<stop offset="1" stop-color="#00EFD1"/>
</linearGradient>
<linearGradient id="paint1_linear_44_1404" x1="36.684" y1="11.9375" x2="36.684" y2="28.5506" gradientUnits="userSpaceOnUse">
<stop stop-color="#8EF8AA"/>
<stop offset="1" stop-color="#00EFD1"/>
</linearGradient>
</defs>
</svg>
