<svg width="56" height="56" viewBox="0 0 56 56" fill="none" xmlns="http://www.w3.org/2000/svg">
<path d="M9.3281 25.0263C9.3281 27.9781 9.29386 30.9298 9.33554 33.8801C9.40252 38.697 11.549 42.3513 15.5903 44.9458C16.0309 45.2286 16.4433 45.7184 16.6219 46.2036C16.8586 46.8452 16.5817 47.4793 15.9833 47.8872C15.3953 48.2876 14.7821 48.2831 14.1614 47.9393C11.93 46.6993 10.1185 45.0054 8.71333 42.8812C7.05064 40.3641 6.06673 37.6044 6.04737 34.5782C6.00718 28.2043 5.96104 21.8304 6.05035 15.458C6.15306 8.22378 11.5654 1.80672 18.6195 0.358384C27.6757 -1.50228 36.0651 4.04994 37.8662 13.1196C38.0344 13.965 38.0999 14.8403 38.1148 15.7036C38.1505 17.7608 38.1312 19.8209 38.1252 21.8781C38.1222 23.0153 37.4658 23.7625 36.4848 23.7625C35.4875 23.7625 34.8251 23.0421 34.8147 21.884C34.7983 19.9995 34.8117 18.1151 34.8102 16.2291C34.8013 9.7391 30.4057 4.53818 23.9961 3.4322C17.3751 2.2905 10.5591 7.16692 9.52905 13.8058C9.39657 14.6587 9.34447 15.531 9.33703 16.3958C9.31321 19.2731 9.3281 22.149 9.3281 25.0263Z" fill="url(#paint0_linear_44_1409)"/>
<path d="M49.9999 49.5037C50.0148 53.1421 47.1802 55.9836 43.5171 55.9999C39.9388 56.0163 37.0149 53.1421 37.0001 49.5912C36.9837 45.9321 39.8764 43 43.5022 43C47.1222 43 49.9866 45.8683 49.9999 49.5037ZM46.6998 49.5111C46.6983 47.7498 45.2378 46.2882 43.4948 46.303C41.7592 46.3179 40.2943 47.8076 40.3077 49.5437C40.3211 51.2442 41.7771 52.6925 43.4889 52.7073C45.2393 52.7221 46.7013 51.268 46.6998 49.5111Z" fill="url(#paint1_linear_44_1409)"/>
<path d="M33.5168 33.124C33.5198 36.753 30.6291 39.6482 27.006 39.6422C23.3948 39.6363 20.4952 36.7292 20.4922 33.1121C20.4907 29.5128 23.4246 26.5819 27.0179 26.5938C30.6455 26.6057 33.5139 29.489 33.5168 33.124ZM30.2004 33.0882C30.19 31.3288 28.7059 29.8686 26.9628 29.9028C25.2585 29.9355 23.8071 31.4107 23.8042 33.1106C23.8012 34.8492 25.2838 36.3318 27.0224 36.3303C28.7714 36.3288 30.2108 34.8611 30.1989 33.0882H30.2004Z" fill="url(#paint2_linear_44_1409)"/>
<path d="M46.4985 31.9378C46.3586 32.167 46.1621 32.688 45.8034 33.0482C40.2616 38.6213 34.6975 44.1735 29.1393 49.7302C28.3861 50.4834 27.6403 51.247 26.8767 51.9898C26.0655 52.7802 25.0488 52.8234 24.3656 52.1193C23.6942 51.4286 23.7553 50.3956 24.5412 49.6081C30.8496 43.2953 37.164 36.9869 43.4724 30.6726C44.0454 30.0995 44.6736 29.7988 45.4759 30.1292C46.1383 30.4031 46.4688 30.9167 46.5015 31.9378H46.4985Z" fill="url(#paint3_linear_44_1409)"/>
<defs>
<linearGradient id="paint0_linear_44_1409" x1="22.0674" y1="0" x2="22.0674" y2="48.1926" gradientUnits="userSpaceOnUse">
<stop stop-color="#8EF8AA"/>
<stop offset="1" stop-color="#00EFD1"/>
</linearGradient>
<linearGradient id="paint1_linear_44_1409" x1="43.5" y1="43" x2="43.5" y2="56" gradientUnits="userSpaceOnUse">
<stop stop-color="#8EF8AA"/>
<stop offset="1" stop-color="#00EFD1"/>
</linearGradient>
<linearGradient id="paint2_linear_44_1409" x1="27.0045" y1="26.5938" x2="27.0045" y2="39.6423" gradientUnits="userSpaceOnUse">
<stop stop-color="#8EF8AA"/>
<stop offset="1" stop-color="#00EFD1"/>
</linearGradient>
<linearGradient id="paint3_linear_44_1409" x1="35.2024" y1="29.9922" x2="35.2024" y2="52.6168" gradientUnits="userSpaceOnUse">
<stop stop-color="#8EF8AA"/>
<stop offset="1" stop-color="#00EFD1"/>
</linearGradient>
</defs>
</svg>
