<svg width="33" height="39" viewBox="0 0 33 39" fill="none" xmlns="http://www.w3.org/2000/svg">
<path d="M7.08371 35.4929L7.08319 35.4913L3.93414 25.4238H3.13302C1.64751 25.4238 0.385937 24.3791 0.385937 23.0337C0.385937 21.6884 1.64751 20.6436 3.13302 20.6436H9.74302C8.38154 19.7018 7.49655 18.25 7.49655 16.6115V16.0984C7.49655 15.759 7.80563 15.5334 8.12107 15.5334H10.9465C12.8594 15.5334 14.5722 16.3157 15.6685 17.5391V11.5532H8.46042C7.31444 11.5532 6.32914 10.746 6.32914 9.69271V2.79334C6.32914 1.74 7.31444 0.932812 8.46042 0.932812H24.1255C25.2715 0.932812 26.2568 1.74 26.2568 2.79334V9.69271C26.2568 10.746 25.2715 11.5532 24.1255 11.5532H16.9175V17.5391C18.0137 16.3157 19.7266 15.5334 21.6395 15.5334H24.4649C24.7803 15.5334 25.0894 15.759 25.0894 16.0984V16.6115C25.0894 18.25 24.2044 19.7018 22.8429 20.6436H29.4529C30.9384 20.6436 32.2 21.6884 32.2 23.0337C32.2 24.3791 30.9384 25.4238 29.4529 25.4238H28.6518L25.5029 35.4906C25.5028 35.4907 25.5028 35.4908 25.5028 35.491L25.5027 35.4913L7.08371 35.4929ZM7.08371 35.4929C7.08522 35.4976 7.08774 35.5054 7.09086 35.5139C7.75916 37.3528 9.70061 38.5643 11.8959 38.5643H20.6899C22.8852 38.5643 24.8267 37.3528 25.495 35.5139L25.307 35.4456L7.08371 35.4929ZM7.57817 9.69271V2.79334C7.57817 2.41801 7.94468 2.06284 8.46042 2.06284H24.1256C24.6412 2.06284 25.0078 2.418 25.0078 2.79334V9.69271C25.0078 10.068 24.6413 10.4232 24.1255 10.4232H8.46042C7.94468 10.4232 7.57817 10.068 7.57817 9.69271ZM21.6395 16.6635H23.84C23.8073 18.8363 21.7305 20.6436 19.1184 20.6436H16.9179C16.9505 18.4708 19.0273 16.6635 21.6395 16.6635ZM15.6681 20.6436H13.4676C10.8554 20.6436 8.77861 18.8363 8.74597 16.6635H10.9465C13.5586 16.6635 15.6354 18.4708 15.6681 20.6436ZM25.2984 31.9941L24.3048 35.1704C23.8118 36.5108 22.3711 37.4343 20.69 37.4343H11.8959C10.2148 37.4343 8.77418 36.5108 8.28112 35.1704L7.28766 31.9941H12.3258C12.641 33.6679 14.3199 34.9142 16.293 34.9142C18.2661 34.9142 19.945 33.6679 20.2602 31.9941H25.2984ZM13.5214 31.4291C13.5214 30.1579 14.7355 29.074 16.293 29.074C17.8505 29.074 19.0646 30.1579 19.0646 31.4291C19.0646 32.7002 17.8505 33.7842 16.293 33.7842C14.7355 33.7842 13.5214 32.7002 13.5214 31.4291ZM6.95365 30.8641C6.94716 30.8641 6.9407 30.8641 6.93427 30.8643L5.23242 25.4238H27.3534L25.6517 30.8643C25.6452 30.8642 25.6388 30.8641 25.6323 30.8641H20.2602C19.9451 29.1902 18.2661 27.9439 16.293 27.9439C14.3198 27.9439 12.641 29.1902 12.3258 30.8641H6.95365ZM29.4529 24.2938H28.1794H4.40657H3.13302C2.27777 24.2938 1.63497 23.7011 1.63497 23.0337C1.63497 22.3664 2.27777 21.7737 3.13302 21.7737H13.4676H16.293H19.1184H29.4529C30.3082 21.7737 30.951 22.3664 30.951 23.0337C30.951 23.7011 30.3082 24.2938 29.4529 24.2938Z" fill="white" stroke="white" stroke-width="0.4"/>
<path d="M21.9647 8.58333C21.9647 8.27585 22.2275 8.01217 22.5667 8.01217C22.9089 8.01217 23.2 7.74347 23.2 7.3955V5.6045C23.2 5.25653 22.9089 4.98783 22.5667 4.98783C22.2274 4.98783 21.9647 4.72417 21.9647 4.41667C21.9647 4.0687 21.6737 3.8 21.3314 3.8H11.6686C11.3263 3.8 11.0353 4.0687 11.0353 4.41667C11.0353 4.72415 10.7725 4.98783 10.4333 4.98783C10.0911 4.98783 9.8 5.25653 9.8 5.6045V7.3955C9.8 7.74347 10.0911 8.01217 10.4333 8.01217C10.7725 8.01217 11.0353 8.27585 11.0353 8.58333C11.0353 8.9313 11.3263 9.2 11.6686 9.2H21.3313C21.6736 9.2 21.9647 8.93133 21.9647 8.58333ZM20.8104 7.96667H12.1896C11.9995 7.46312 11.5849 7.06638 11.0667 6.88552V6.1145C11.5849 5.93369 11.9995 5.53694 12.1896 5.03333H20.8104C21.0005 5.53688 21.4151 5.93362 21.9333 6.11448V6.8855C21.4151 7.06631 21.0005 7.46306 20.8104 7.96667Z" fill="white" stroke="white" stroke-width="0.4"/>
</svg>
