<svg width="38" height="32" viewBox="0 0 38 32" fill="none" xmlns="http://www.w3.org/2000/svg">
<path d="M31.3888 9.06817V17.8076C31.3888 23.0343 28.4021 25.2742 23.9221 25.2742H9.00572C8.24208 25.2742 7.51239 25.2064 6.8336 25.0537C6.40936 24.9858 6.0021 24.867 5.62877 24.7313C3.08331 23.781 1.53906 21.5749 1.53906 17.8076V9.06817C1.53906 3.8415 4.52572 1.60156 9.00572 1.60156H23.9221C27.7233 1.60156 30.4554 3.21368 31.1851 6.8961C31.3039 7.57489 31.3888 8.27059 31.3888 9.06817Z" stroke="white" stroke-width="2" stroke-miterlimit="10" stroke-linecap="round" stroke-linejoin="round"/>
<path d="M36.482 14.1614V22.9008C36.482 28.1275 33.4953 30.3675 29.0153 30.3675H14.099C12.8432 30.3675 11.7063 30.1978 10.722 29.8245C8.70262 29.0778 7.32806 27.5336 6.83594 25.056C7.51473 25.2088 8.24442 25.2765 9.00806 25.2765H23.9244C28.4044 25.2765 31.3911 23.0366 31.3911 17.8099V9.0705C31.3911 8.27293 31.3232 7.56026 31.1875 6.89844C34.4117 7.57723 36.482 9.85111 36.482 14.1614Z" stroke="white" stroke-width="2" stroke-miterlimit="10" stroke-linecap="round" stroke-linejoin="round"/>
<path d="M16.4527 17.921C18.9269 17.921 20.9327 15.9152 20.9327 13.441C20.9327 10.9667 18.9269 8.96094 16.4527 8.96094C13.9784 8.96094 11.9727 10.9667 11.9727 13.441C11.9727 15.9152 13.9784 17.921 16.4527 17.921Z" stroke="white" stroke-width="2" stroke-miterlimit="10" stroke-linecap="round" stroke-linejoin="round"/>
<path d="M6.74805 9.71875V17.1855" stroke="white" stroke-width="2" stroke-miterlimit="10" stroke-linecap="round" stroke-linejoin="round"/>
<path d="M26.1641 9.71875V17.1855" stroke="white" stroke-width="2" stroke-miterlimit="10" stroke-linecap="round" stroke-linejoin="round"/>
</svg>
