<svg width="37" height="37" viewBox="0 0 37 37" fill="none" xmlns="http://www.w3.org/2000/svg">
<path d="M27.6119 2.92969L33.8714 9.45469V34.2677H10.4883V34.3487H33.9513V9.53681L27.6119 2.92969Z" fill="#909090"/>
<path d="M27.5341 2.85156H10.4082V34.2706H33.8712V9.45869L27.5341 2.85156Z" fill="#EEEEEE"/>
<path d="M10.2376 4.53906H3.04883V12.2194H25.6613V4.53906H10.2376Z" fill="#7A7B7C"/>
<path d="M25.7819 12.0923H3.19531V4.40625H25.7819V12.0923Z" fill="#DD2025"/>
<path d="M10.6833 5.70451H9.21289V11.1045H10.3694V9.28314L10.6248 9.29776C10.873 9.29434 11.1189 9.24986 11.3526 9.16614C11.5581 9.09638 11.7469 8.98492 11.9073 8.83876C12.0717 8.70088 12.2009 8.52579 12.2841 8.32801C12.398 8.00031 12.4384 7.65155 12.4023 7.30651C12.3959 7.05997 12.3526 6.81577 12.274 6.58201C12.2032 6.41305 12.0978 6.26073 11.9648 6.13481C11.8317 6.00889 11.6738 5.91215 11.5011 5.85076C11.3523 5.79564 11.1981 5.75642 11.041 5.73376C10.9224 5.71444 10.8024 5.70466 10.6821 5.70451M10.4695 8.28526H10.3694V6.62026H10.5865C10.6823 6.61335 10.7785 6.62806 10.8679 6.66331C10.9573 6.69855 11.0376 6.75343 11.1029 6.82389C11.2382 7.00503 11.3106 7.22551 11.3088 7.45164C11.3088 7.72839 11.3088 7.97926 11.059 8.15589C10.8791 8.25497 10.6743 8.30066 10.4695 8.28526ZM14.5994 5.68989C14.4745 5.68989 14.353 5.69889 14.2675 5.70226L13.9998 5.70901H13.1223V11.109H14.155C14.5496 11.1192 14.9425 11.0523 15.3115 10.9121C15.6086 10.7948 15.8717 10.6049 16.0765 10.3598C16.2773 10.1136 16.4206 9.8257 16.4961 9.51714C16.5849 9.1683 16.628 8.80943 16.6244 8.44951C16.6464 8.02444 16.6135 7.59829 16.5265 7.18164C16.4432 6.87529 16.2891 6.59281 16.0765 6.35701C15.9098 6.16633 15.7047 6.01299 15.4746 5.90701C15.2776 5.81566 15.0702 5.74842 14.857 5.70676C14.7722 5.69286 14.6864 5.68647 14.6005 5.68764M14.3958 10.1168H14.2833V6.66976H14.2979C14.5298 6.64294 14.7645 6.6848 14.9729 6.79014C15.1255 6.912 15.2499 7.06554 15.3374 7.24014C15.4318 7.42389 15.4863 7.62557 15.4971 7.83189C15.5073 8.07939 15.4971 8.28189 15.4971 8.44951C15.5013 8.64259 15.4889 8.83568 15.46 9.02664C15.4246 9.22246 15.3606 9.412 15.2699 9.58914C15.1675 9.75433 15.0276 9.89308 14.8615 9.99414C14.7228 10.0841 14.5584 10.126 14.3935 10.1134M20.1085 5.70901H17.3748V11.109H18.5313V8.96701H19.9938V7.96351H18.5313V6.71251H20.1063V5.70901" fill="#464648"/>
<path d="M25.0028 23.3917C25.0028 23.3917 28.5893 22.7414 28.5893 23.9666C28.5893 25.1917 26.3674 24.6933 25.0028 23.3917ZM22.3512 23.4851C21.7813 23.6106 21.2259 23.795 20.694 24.0352L21.144 23.0227C21.594 22.0102 22.0609 20.6298 22.0609 20.6298C22.5966 21.5344 23.2214 22.3832 23.9262 23.1633C23.3956 23.2423 22.8698 23.3505 22.3512 23.4873V23.4851ZM20.9314 16.1726C20.9314 15.1049 21.2768 14.8136 21.5457 14.8136C21.8145 14.8136 22.1172 14.9429 22.1273 15.8699C22.0396 16.802 21.8444 17.7209 21.5457 18.6082C21.1351 17.8637 20.9231 17.0261 20.9303 16.1759L20.9314 16.1726ZM15.7013 28.0031C14.601 27.3449 18.0087 25.3188 18.6263 25.2536C18.6229 25.2547 16.8533 28.6916 15.7013 28.0031ZM29.6367 24.1117C29.6254 23.9992 29.5242 22.7538 27.3079 22.8067C26.3841 22.7905 25.4607 22.8556 24.5483 23.0013C23.6639 22.1111 22.9026 21.1066 22.2848 20.0144C22.6738 18.8886 22.9096 17.7156 22.9857 16.5269C22.953 15.1769 22.6302 14.4029 21.5952 14.4142C20.5602 14.4254 20.4094 15.3311 20.5455 16.6788C20.6788 17.5845 20.9303 18.4688 21.2937 19.3091C21.2937 19.3091 20.8155 20.7974 20.1833 22.2779C19.551 23.7584 19.119 24.5347 19.119 24.5347C18.0194 24.8922 16.9844 25.424 16.0534 26.1097C15.1264 26.9726 14.7495 27.6352 15.2378 28.2978C15.6585 28.8693 17.1312 28.9987 18.4474 27.2741C19.1456 26.3824 19.7845 25.4459 20.3599 24.4706C20.3599 24.4706 22.3669 23.9204 22.9913 23.7697C23.6157 23.6189 24.3705 23.4997 24.3705 23.4997C24.3705 23.4997 26.2032 25.3436 27.9705 25.2783C29.7379 25.2131 29.6524 24.2219 29.6412 24.1139" fill="#DD2025"/>
<path d="M27.4492 2.9375V9.54463H33.7863L27.4492 2.9375Z" fill="#909090"/>
<path d="M27.5352 2.85156V9.45869H33.8723L27.5352 2.85156Z" fill="#F4F4F4"/>
<path d="M10.5973 5.61857H9.12695V11.0186H10.288V9.19832L10.5445 9.21295C10.7927 9.20953 11.0386 9.16505 11.2723 9.08132C11.4778 9.01157 11.6666 8.90011 11.827 8.75395C11.9902 8.61569 12.1182 8.44063 12.2005 8.2432C12.3144 7.9155 12.3547 7.56674 12.3186 7.2217C12.3122 6.97516 12.2689 6.73096 12.1903 6.4972C12.1195 6.32823 12.0142 6.17592 11.8811 6.05C11.748 5.92408 11.5901 5.82733 11.4175 5.76595C11.268 5.71029 11.113 5.6707 10.9551 5.64782C10.8364 5.6285 10.7164 5.61872 10.5962 5.61857M10.3836 8.19932H10.2835V6.53432H10.5017C10.5975 6.52741 10.6937 6.54212 10.7831 6.57737C10.8724 6.61261 10.9528 6.66749 11.0181 6.73795C11.1534 6.91909 11.2257 7.13958 11.224 7.3657C11.224 7.64245 11.224 7.89332 10.9742 8.06995C10.7943 8.16903 10.5895 8.21359 10.3847 8.1982M14.5135 5.60395C14.3886 5.60395 14.2671 5.61295 14.1816 5.61632L13.9172 5.62307H13.0397V11.0231H14.0725C14.4671 11.0332 14.8599 10.9664 15.229 10.8262C15.5261 10.7089 15.7891 10.519 15.994 10.2738C16.1947 10.0276 16.3381 9.73977 16.4136 9.4312C16.5023 9.08237 16.5454 8.7235 16.5418 8.36357C16.5638 7.9385 16.531 7.51236 16.444 7.0957C16.3607 6.78935 16.2065 6.50687 15.994 6.27107C15.8272 6.0804 15.6221 5.92706 15.3921 5.82107C15.195 5.72972 14.9876 5.66249 14.7745 5.62082C14.6897 5.60693 14.6038 5.60053 14.518 5.6017M14.3132 10.0308H14.2007V6.58382H14.2153C14.4473 6.557 14.682 6.59886 14.8903 6.7042C15.0429 6.82607 15.1673 6.9796 15.2548 7.1542C15.3493 7.33795 15.4037 7.53963 15.4146 7.74595C15.4247 7.99345 15.4146 8.19595 15.4146 8.36357C15.4187 8.55666 15.4063 8.74974 15.3775 8.9407C15.3421 9.13652 15.278 9.32606 15.1873 9.5032C15.0849 9.6684 14.945 9.80714 14.779 9.9082C14.6403 9.9982 14.4758 10.0401 14.311 10.0274M20.0226 5.62307H17.2888V11.0231H18.4453V8.88107H19.9078V7.87757H18.4453V6.62657H20.0203V5.62307" fill="white"/>
</svg>
