<svg width="40" height="40" viewBox="0 0 40 40" fill="none" xmlns="http://www.w3.org/2000/svg">
<path d="M15.5156 24.5026L18.0156 27.0026L24.6823 20.3359" stroke="white" stroke-width="2" stroke-linecap="round" stroke-linejoin="round"/>
<path d="M16.6654 10.0026H23.332C26.6654 10.0026 26.6654 8.33594 26.6654 6.66927C26.6654 3.33594 24.9987 3.33594 23.332 3.33594H16.6654C14.9987 3.33594 13.332 3.33594 13.332 6.66927C13.332 10.0026 14.9987 10.0026 16.6654 10.0026Z" stroke="white" stroke-width="2" stroke-miterlimit="10" stroke-linecap="round" stroke-linejoin="round"/>
<path d="M26.6667 6.70312C32.2167 7.00313 35 9.05312 35 16.6698V26.6698C35 33.3365 33.3333 36.6698 25 36.6698H15C6.66667 36.6698 5 33.3365 5 26.6698V16.6698C5 9.06979 7.78333 7.00313 13.3333 6.70312" stroke="white" stroke-width="2" stroke-miterlimit="10" stroke-linecap="round" stroke-linejoin="round"/>
</svg>
