<svg width="40" height="40" viewBox="0 0 40 40" fill="none" xmlns="http://www.w3.org/2000/svg">
<path d="M28.332 35H11.6654C4.9987 35 3.33203 33.3333 3.33203 26.6667V13.3333C3.33203 6.66667 4.9987 5 11.6654 5H28.332C34.9987 5 36.6654 6.66667 36.6654 13.3333V26.6667C36.6654 33.3333 34.9987 35 28.332 35Z" stroke="white" stroke-width="2" stroke-linecap="round" stroke-linejoin="round"/>
<path d="M23.332 13.3359H31.6654" stroke="white" stroke-width="2" stroke-linecap="round" stroke-linejoin="round"/>
<path d="M25 20H31.6667" stroke="white" stroke-width="2" stroke-linecap="round" stroke-linejoin="round"/>
<path d="M28.332 26.6641H31.6654" stroke="white" stroke-width="2" stroke-linecap="round" stroke-linejoin="round"/>
<path d="M14.1671 18.8146C15.8331 18.8146 17.1837 17.464 17.1837 15.7979C17.1837 14.1319 15.8331 12.7812 14.1671 12.7812C12.501 12.7812 11.1504 14.1319 11.1504 15.7979C11.1504 17.464 12.501 18.8146 14.1671 18.8146Z" stroke="white" stroke-width="2" stroke-linecap="round" stroke-linejoin="round"/>
<path d="M19.9987 27.213C19.7654 24.7964 17.8487 22.8964 15.432 22.6797C14.5987 22.5964 13.7487 22.5964 12.8987 22.6797C10.482 22.913 8.56536 24.7964 8.33203 27.213" stroke="white" stroke-width="2" stroke-linecap="round" stroke-linejoin="round"/>
</svg>
