<svg width="40" height="40" viewBox="0 0 40 40" fill="none" xmlns="http://www.w3.org/2000/svg">
<path d="M15.0013 31.6667C15.0013 32.9167 14.6513 34.1 14.0346 35.1C12.8846 37.0333 10.768 38.3333 8.33464 38.3333C5.9013 38.3333 3.78464 37.0333 2.63464 35.1C2.01797 34.1 1.66797 32.9167 1.66797 31.6667C1.66797 27.9833 4.6513 25 8.33464 25C12.018 25 15.0013 27.9833 15.0013 31.6667Z" stroke="white" stroke-width="2" stroke-miterlimit="10" stroke-linecap="round" stroke-linejoin="round"/>
<path d="M5.73828 31.6646L7.38828 33.3145L10.9383 30.0312" stroke="white" stroke-width="2" stroke-linecap="round" stroke-linejoin="round"/>
<path d="M29.587 11.7526C29.187 11.6859 28.7703 11.6692 28.337 11.6692H11.6703C11.2036 11.6692 10.7536 11.7026 10.3203 11.7692C10.5536 11.3026 10.887 10.8693 11.287 10.4693L16.7036 5.03594C18.987 2.76927 22.687 2.76927 24.9703 5.03594L27.887 7.98587C28.9536 9.03587 29.5203 10.3692 29.587 11.7526Z" stroke="white" stroke-width="2" stroke-linecap="round" stroke-linejoin="round"/>
<path d="M36.6654 19.9974V28.3307C36.6654 33.3307 33.332 36.6641 28.332 36.6641H12.7154C13.232 36.2307 13.682 35.6974 14.032 35.0974C14.6487 34.0974 14.9987 32.9141 14.9987 31.6641C14.9987 27.9807 12.0154 24.9974 8.33203 24.9974C6.33203 24.9974 4.5487 25.8807 3.33203 27.264V19.9974C3.33203 15.4641 6.06536 12.2974 10.3154 11.7641C10.7487 11.6974 11.1987 11.6641 11.6654 11.6641H28.332C28.7654 11.6641 29.182 11.6807 29.582 11.7474C33.882 12.2474 36.6654 15.4307 36.6654 19.9974Z" stroke="white" stroke-width="2" stroke-linecap="round" stroke-linejoin="round"/>
<path d="M36.6654 20.8359H31.6654C29.832 20.8359 28.332 22.3359 28.332 24.1693C28.332 26.0026 29.832 27.5026 31.6654 27.5026H36.6654" stroke="white" stroke-width="2" stroke-linecap="round" stroke-linejoin="round"/>
</svg>
