<svg width="40" height="40" viewBox="0 0 40 40" fill="none" xmlns="http://www.w3.org/2000/svg">
<path d="M33.3346 13.7526V30.0026C33.3346 35.0026 30.3513 36.6693 26.668 36.6693H13.3346C9.6513 36.6693 6.66797 35.0026 6.66797 30.0026V13.7526C6.66797 8.33594 9.6513 7.08594 13.3346 7.08594C13.3346 8.11927 13.7513 9.0526 14.4346 9.73593C15.1179 10.4193 16.0513 10.8359 17.0846 10.8359H22.918C24.9846 10.8359 26.668 9.1526 26.668 7.08594C30.3513 7.08594 33.3346 8.33594 33.3346 13.7526Z" stroke="white" stroke-width="2" stroke-linecap="round" stroke-linejoin="round"/>
<path d="M26.6654 7.08594C26.6654 9.1526 24.982 10.8359 22.9154 10.8359H17.082C16.0487 10.8359 15.1153 10.4193 14.432 9.73593C13.7487 9.0526 13.332 8.11927 13.332 7.08594C13.332 5.01927 15.0154 3.33594 17.082 3.33594H22.9154C23.9487 3.33594 24.8821 3.75261 25.5654 4.43594C26.2487 5.11928 26.6654 6.0526 26.6654 7.08594Z" stroke="white" stroke-width="2" stroke-linecap="round" stroke-linejoin="round"/>
<path d="M13.332 21.6641H19.9987" stroke="white" stroke-width="2" stroke-linecap="round" stroke-linejoin="round"/>
<path d="M13.332 28.3359H26.6654" stroke="white" stroke-width="2" stroke-linecap="round" stroke-linejoin="round"/>
</svg>
