<svg width="303" height="97" viewBox="0 0 303 97" fill="none" xmlns="http://www.w3.org/2000/svg">
<path d="M159.995 60.0227L160.353 61.4792L160.353 61.4792L159.995 60.0227ZM161.425 6.17078L161.009 7.61178L161.009 7.61178L161.425 6.17078ZM79.225 18.7755L78.2737 17.6158L79.225 18.7755ZM188.032 91.7608L188.281 93.24L188.032 91.7608ZM302.783 87.5614L289.584 76.3458L286.47 93.3841L302.783 87.5614ZM1.48474 24.5714C0.686182 25.8412 0.686227 25.8412 0.686276 25.8412C0.6863 25.8412 0.686354 25.8413 0.686399 25.8413C0.686491 25.8414 0.686602 25.8414 0.686732 25.8415C0.68699 25.8417 0.687325 25.8419 0.687735 25.8422C0.688555 25.8427 0.689676 25.8434 0.691099 25.8443C0.693943 25.8461 0.697993 25.8486 0.703241 25.8519C0.713738 25.8584 0.729031 25.868 0.74908 25.8805C0.789177 25.9055 0.848296 25.9422 0.926104 25.9902C1.08172 26.0863 1.3121 26.2276 1.61459 26.4107C2.21957 26.7769 3.11305 27.3104 4.27382 27.9837L5.77907 25.3887C4.63525 24.7252 3.75788 24.2013 3.16815 23.8443C2.87329 23.6658 2.65036 23.5291 2.502 23.4375C2.42782 23.3917 2.37228 23.3572 2.33572 23.3344C2.31744 23.323 2.3039 23.3146 2.29515 23.3091C2.29078 23.3063 2.2876 23.3043 2.28562 23.3031C2.28463 23.3025 2.28395 23.3021 2.28356 23.3018C2.28336 23.3017 2.28325 23.3016 2.2832 23.3016C2.28318 23.3016 2.28318 23.3016 2.2832 23.3016C2.2832 23.3016 2.28323 23.3016 2.28323 23.3016C2.28326 23.3016 2.2833 23.3016 1.48474 24.5714ZM11.5827 32.0544C13.7714 33.2289 16.2574 34.5266 19.0102 35.9081L20.3558 33.2268C17.6289 31.8583 15.1673 30.5733 13.0012 29.411L11.5827 32.0544ZM26.51 39.5513C28.9058 40.6773 31.4388 41.8324 34.0959 42.9996L35.3024 40.2529C32.6697 39.0964 30.16 37.952 27.7861 36.8362L26.51 39.5513ZM41.8108 46.2699C44.3124 47.292 46.8989 48.3116 49.5619 49.3176L50.6221 46.5111C47.9851 45.515 45.4235 44.5052 42.9455 43.4928L41.8108 46.2699ZM57.4256 52.1642C60.0156 53.0608 62.6642 53.9367 65.3646 54.7833L66.2621 51.9207C63.591 51.0833 60.9704 50.2166 58.4069 49.3293L57.4256 52.1642ZM73.3704 57.1583C76.0279 57.9014 78.7266 58.6103 81.4605 59.2775L82.1718 56.3631C79.4715 55.7041 76.8051 55.0037 74.1783 54.2692L73.3704 57.1583ZM89.6259 61.1183C92.3419 61.6792 95.0859 62.1939 97.8528 62.6554L98.3464 59.6963C95.619 59.2414 92.9127 58.7338 90.2327 58.1803L89.6259 61.1183ZM106.136 63.8634C108.898 64.2072 111.678 64.4929 114.47 64.7138L114.707 61.7232C111.962 61.506 109.226 61.2249 106.506 60.8864L106.136 63.8634ZM122.842 65.1743C125.633 65.259 128.432 65.2732 131.232 65.2105L131.165 62.2112C128.419 62.2727 125.674 62.2588 122.933 62.1757L122.842 65.1743ZM139.617 64.7863C142.405 64.5644 145.19 64.2597 147.967 63.8658L147.546 60.8955C144.832 61.2805 142.108 61.5785 139.379 61.7957L139.617 64.7863ZM156.248 62.4146C157.62 62.1267 158.989 61.8152 160.353 61.4792L159.636 58.5662C158.306 58.8938 156.971 59.1977 155.632 59.4785L156.248 62.4146ZM160.353 61.4792C161.736 61.1389 163.067 60.7608 164.346 60.3473L163.423 57.4928C162.214 57.8836 160.952 58.2424 159.636 58.5662L160.353 61.4792ZM172.014 57.1447C174.648 55.7533 176.963 54.174 178.958 52.4459L176.994 50.1783C175.183 51.7467 173.06 53.1995 170.613 54.4921L172.014 57.1447ZM184.51 46.0517C186.094 43.5368 187.171 40.8697 187.744 38.1376L184.807 37.5218C184.31 39.8954 183.371 42.2309 181.971 44.4529L184.51 46.0517ZM187.909 29.5694C187.445 26.8142 186.488 24.106 185.059 21.5316L182.436 22.9883C183.707 25.2775 184.546 27.6627 184.95 30.0668L187.909 29.5694ZM179.91 14.8155C178.009 12.9387 175.794 11.2094 173.278 9.67348L171.715 12.2342C174.045 13.6563 176.075 15.2448 177.803 16.9505L179.91 14.8155ZM165.792 6.04242C164.526 5.56355 163.209 5.12494 161.842 4.72979L161.009 7.61178C162.301 7.98521 163.541 8.39864 164.731 8.84848L165.792 6.04242ZM161.842 4.72979C160.443 4.32545 159.033 3.94497 157.614 3.58949L156.885 6.49964C158.269 6.84629 159.645 7.21737 161.009 7.61178L161.842 4.72979ZM149.042 1.77431C146.167 1.27627 143.267 0.885201 140.353 0.610179L140.071 3.5969C142.906 3.86444 145.729 4.24506 148.53 4.73028L149.042 1.77431ZM131.592 0.142367C128.662 0.108313 125.732 0.199612 122.814 0.425517L123.045 3.41657C125.872 3.19778 128.713 3.1091 131.557 3.14216L131.592 0.142367ZM114.089 1.51965C111.198 2.02624 108.333 2.67767 105.506 3.48335L106.328 6.36849C109.051 5.59241 111.815 4.9639 114.607 4.4746L114.089 1.51965ZM97.1746 6.36317C94.4685 7.47279 91.8128 8.74209 89.2206 10.18L90.6758 12.8034C93.1628 11.4239 95.7123 10.2052 98.3128 9.13889L97.1746 6.36317ZM81.773 14.9171C80.5881 15.7752 79.4212 16.6744 78.2737 17.6158L80.1764 19.9352C81.2771 19.0322 82.3963 18.1698 83.5326 17.3469L81.773 14.9171ZM78.2737 17.6158C77.1321 18.5522 76.0451 19.492 75.0119 20.4345L77.0338 22.6508C78.0265 21.7452 79.0737 20.8398 80.1764 19.9352L78.2737 17.6158ZM69.0747 26.5609C67.1049 28.8912 65.4472 31.2322 64.0939 33.5746L66.6915 35.0754C67.9473 32.9018 69.4994 30.7056 71.3658 28.4976L69.0747 26.5609ZM60.6428 41.5716C59.8012 44.5057 59.4306 47.4162 59.5118 50.2779L62.5106 50.1928C62.4385 47.6516 62.7665 45.0485 63.5266 42.3988L60.6428 41.5716ZM61.1742 58.9195C62.1419 61.5908 63.5151 64.1688 65.2581 66.634L67.7077 64.9021C66.1052 62.6356 64.863 60.2944 63.9948 57.8977L61.1742 58.9195ZM70.9708 73.1287C72.9767 75.009 75.2225 76.8014 77.6906 78.4957L79.3885 76.0224C77.0335 74.4057 74.9077 72.7072 73.0225 70.94L70.9708 73.1287ZM84.9797 82.877C87.403 84.1551 89.9773 85.3578 92.6928 86.4787L93.8375 83.7057C91.2031 82.6183 88.7143 81.455 86.3792 80.2235L84.9797 82.877ZM100.635 89.3909C103.249 90.2388 105.968 91.0192 108.784 91.7274L109.516 88.818C106.762 88.1255 104.108 87.3635 101.56 86.5372L100.635 89.3909ZM117.038 93.5411C119.737 94.0527 122.51 94.5024 125.355 94.8869L125.756 91.914C122.963 91.5364 120.242 91.0951 117.597 90.5936L117.038 93.5411ZM133.732 95.8106C136.48 96.0473 139.285 96.2256 142.143 96.3429L142.266 93.3455C139.452 93.23 136.692 93.0545 133.989 92.8217L133.732 95.8106ZM150.565 96.5096C153.329 96.5068 156.136 96.4484 158.984 96.3323L158.862 93.3348C156.053 93.4493 153.286 93.5068 150.562 93.5096L150.565 96.5096ZM167.386 95.8294C170.144 95.6123 172.936 95.342 175.76 95.0165L175.417 92.0362C172.628 92.3576 169.872 92.6244 167.15 92.8386L167.386 95.8294ZM184.098 93.9071C185.486 93.698 186.88 93.4757 188.281 93.24L187.783 90.2816C186.399 90.5144 185.022 90.7341 183.651 90.9406L184.098 93.9071ZM188.281 93.24C189.687 93.0035 191.068 92.7719 192.424 92.5453L191.93 89.5863C190.572 89.8131 189.19 90.0449 187.783 90.2816L188.281 93.24ZM200.578 91.1946C203.405 90.7308 206.115 90.291 208.716 89.8746L208.242 86.9124C205.637 87.3295 202.923 87.7698 200.093 88.2342L200.578 91.1946ZM216.895 88.5864C219.769 88.1421 222.492 87.7308 225.078 87.3512L224.642 84.383C222.048 84.7639 219.317 85.1763 216.436 85.6216L216.895 88.5864ZM233.254 86.194C236.171 85.7986 238.886 85.4519 241.427 85.1507L241.073 82.1716C238.514 82.475 235.782 82.8239 232.851 83.2211L233.254 86.194ZM249.625 84.2792C252.604 84.0054 255.304 83.8111 257.794 83.6884L257.646 80.6921C255.108 80.8172 252.364 81.0147 249.351 81.2918L249.625 84.2792ZM265.966 83.5418C268.866 83.5939 271.517 83.7662 274.099 84.0381L274.413 81.0546C271.746 80.7737 269.009 80.596 266.02 80.5423L265.966 83.5418ZM282.182 85.1954C284.716 85.6364 287.36 86.15 290.283 86.7215L290.859 83.7772C287.939 83.2064 285.266 82.6869 282.696 82.2398L282.182 85.1954Z" fill="white"/>
</svg>
