<svg width="75" height="64" viewBox="0 0 75 64" fill="none" xmlns="http://www.w3.org/2000/svg">
<path d="M74.257 28.0817C73.7013 27.1688 72.729 26.7918 71.6971 27.0696C71.1414 27.2284 70.6651 27.6054 70.3675 27.8832C69.6531 28.5778 68.9585 29.2723 68.2838 29.9471C68.2838 29.7883 68.2441 29.6097 68.2441 29.4509C68.1052 27.9229 67.9663 26.3155 67.6488 24.7875C66.3192 18.219 62.9854 12.3649 58.0243 7.89995C53.0632 3.39527 46.9313 0.716282 40.2834 0.140795C29.0515 -0.83158 19.7643 3.23652 12.6799 12.226C11.1519 14.1509 9.88181 16.3933 8.77053 19.0326C8.45302 19.7867 8.43318 20.5408 8.69115 21.1758C8.92928 21.7315 9.36586 22.1681 9.94135 22.4062C11.2312 22.9221 12.5211 22.3268 13.1561 20.898C13.1958 20.7988 13.2355 20.7194 13.2752 20.6202C13.295 20.5607 13.3347 20.4813 13.3546 20.4218C18.4347 8.69372 31.5717 2.32368 43.9149 5.57816C54.2737 8.31668 61.8939 16.9093 63.3029 27.4863C63.4021 28.2801 63.4616 29.0937 63.5013 29.9074C62.8465 29.2525 62.1717 28.5778 61.497 27.9229C61.1994 27.6253 60.7231 27.2482 60.1278 27.0696C59.1157 26.772 58.0441 27.2284 57.4885 28.1809C56.9328 29.1533 57.1313 30.2844 58.0044 31.1576C59.7904 32.9634 61.755 34.928 63.9974 37.1704C64.6126 37.7856 65.2476 38.1031 65.9025 38.1031C66.5574 38.1031 67.1924 37.7856 67.8274 37.1704C68.9982 36.0194 70.169 34.8288 71.32 33.6778L72.0344 32.9634C72.213 32.7848 72.3916 32.6062 72.5504 32.4474C73.0465 31.9513 73.5624 31.4552 74.0387 30.9194C74.7531 30.1058 74.8325 29.0541 74.257 28.1214V28.0817Z" fill="#0CBCB7"/>
<path d="M64.7316 41.6552C63.5409 41.1393 62.2113 41.6552 61.5962 42.8856C61.5168 43.0642 61.4374 43.2229 61.358 43.4015L61.2985 43.5404C55.9008 56.0622 41.7121 62.3728 28.972 57.9078C19.3673 54.5342 13.4736 47.6482 11.4693 37.4284C11.2708 36.3568 11.1915 35.2852 11.1319 34.1342C11.251 34.2533 11.37 34.3723 11.4891 34.4914C12.0646 35.0669 12.6401 35.6424 13.2156 36.198C13.7911 36.7537 14.4856 37.0712 15.1603 37.0513C15.7557 37.0513 16.3311 36.7934 16.7677 36.3369C17.7004 35.3646 17.6409 33.8961 16.5891 32.8443C14.2872 30.5225 12.3623 28.5976 10.5366 26.7918C9.38561 25.6607 8.03619 25.6805 6.88522 26.7918C4.54358 29.1136 2.61868 31.0385 0.832684 32.8642C0.475486 33.2214 0.197664 33.6976 0.078598 34.1541C-0.199223 35.1661 0.277042 36.2377 1.22957 36.7537C2.16226 37.2696 3.29339 37.1109 4.08716 36.3171C4.86109 35.563 5.59534 34.8089 6.36927 33.9953C6.4288 35.1463 6.50818 36.2179 6.64709 37.3093C7.54008 44.1358 10.8144 50.5654 15.8747 55.4272C20.9549 60.3089 27.5234 63.3054 34.3895 63.8611C35.4413 63.9405 36.4732 64 37.5051 64C47.7448 64 56.139 59.6342 62.4892 50.9821C63.5608 49.5136 64.3942 47.8467 65.1682 46.2591C65.4063 45.7829 65.6444 45.3066 65.8826 44.8502C66.1802 44.2548 66.2398 43.6 66.0215 43.0046C65.8032 42.3895 65.3269 41.8934 64.7316 41.6354V41.6552Z" fill="#0CBCB7"/>
<path d="M35.2378 32.0744C35.2378 32.1715 35.2378 32.2685 35.2378 32.3656C35.2378 33.2716 35.6981 33.9512 36.4995 34.2586C36.7724 34.3718 37.0452 34.4203 37.301 34.4203C37.8466 34.4203 38.3581 34.1938 38.8185 33.7732L39.9951 32.6568C43.9851 28.871 47.9751 25.0851 51.9821 21.283C52.1526 21.1212 52.3743 20.9109 52.5277 20.6682C53.0222 19.924 52.9029 18.9371 52.2379 18.3061C51.5558 17.6428 50.4645 17.5457 49.6631 18.0634C49.4074 18.2252 49.1857 18.4355 48.9981 18.6135L48.947 18.662C45.7413 21.7037 42.5357 24.7453 39.3301 27.787V26.3956C39.3301 24.2761 39.3301 22.1405 39.3301 20.0211V19.9725C39.3301 19.746 39.3301 19.5033 39.2789 19.2445C39.1084 18.2737 38.307 17.6266 37.301 17.6104C36.2438 17.6104 35.4253 18.2576 35.2548 19.2607C35.2207 19.5033 35.2207 19.746 35.2207 19.9564V20.0211C35.2207 23.6937 35.2207 27.3825 35.2207 31.0551V32.0582L35.2378 32.0744Z" fill="#0CBCB7"/>
<path d="M37.2219 15.1922C37.2219 15.1922 37.2386 15.1922 37.2552 15.1922C38.3392 15.1922 39.2231 14.2881 39.2231 13.2166C39.2231 12.6808 39.0063 12.1618 38.6227 11.7935C38.2392 11.4084 37.7222 11.1908 37.1885 11.2075C36.1212 11.2242 35.2374 12.1116 35.2207 13.1999C35.2207 13.7356 35.4208 14.2379 35.8044 14.623C36.1879 15.0081 36.6882 15.209 37.2219 15.209V15.1922Z" fill="#0CBCB7"/>
<path d="M22.9851 46.6393C23.3551 47.0261 23.8596 47.2279 24.4145 47.2279C25.5076 47.2279 26.3989 46.3702 26.4157 45.2772C26.4157 44.739 26.2307 44.2177 25.8439 43.8309C25.4571 43.4441 24.9526 43.2255 24.4145 43.2255C23.3382 43.2255 22.4301 44.1 22.4133 45.1931C22.4133 45.748 22.5983 46.2693 22.9851 46.6561V46.6393Z" fill="#0CBCB7"/>
<path d="M37.2219 48.8456C37.2219 48.8456 37.2052 48.8456 37.1885 48.8456C36.1046 48.8456 35.2207 49.7499 35.2207 50.8217C35.2207 51.3575 35.4375 51.8767 35.8211 52.2451C36.2046 52.6135 36.7049 52.8312 37.2219 52.8312C37.7389 52.8312 37.2386 52.8312 37.2552 52.8312C38.3225 52.8145 39.2064 51.9102 39.2231 50.8384C39.2231 50.3025 39.0229 49.8001 38.6394 49.415C38.2558 49.0298 37.7555 48.8289 37.2219 48.8289V48.8456Z" fill="#0CBCB7"/>
<path d="M50.8379 43.2255C50.8379 43.2255 50.8212 43.2255 50.8044 43.2255C49.7329 43.2423 48.8456 44.1298 48.8289 45.2183C48.8289 45.7542 49.0298 46.2733 49.4148 46.6418C49.7999 47.0102 50.3022 47.2279 50.8379 47.2279C51.3737 47.2279 50.8547 47.2279 50.8714 47.2279C51.4239 47.2279 51.9262 47.0102 52.2778 46.625C52.6461 46.2399 52.847 45.7207 52.8303 45.1681C52.7968 44.0796 51.9262 43.2423 50.8379 43.2423V43.2255Z" fill="#0CBCB7"/>
<path d="M24.415 20.8123C24.953 20.8123 25.4574 20.6113 25.8273 20.2262C26.2139 19.841 26.4157 19.3386 26.4157 18.786C26.4157 17.6975 25.5414 16.8267 24.4318 16.8099H24.415C23.3222 16.8099 22.4479 17.6473 22.4143 18.7358C22.3975 19.2884 22.5992 19.8075 22.9691 20.1927C23.339 20.5779 23.8434 20.7956 24.3814 20.7956C24.3814 20.7956 24.3814 20.7956 24.3982 20.7956L24.415 20.8123Z" fill="#0CBCB7"/>
</svg>
