<svg width="63" height="64" viewBox="0 0 63 64" fill="none" xmlns="http://www.w3.org/2000/svg">
<path d="M40.8494 43.7728C52.9383 43.7728 62.7358 33.9753 62.7358 21.8864C62.7358 9.79753 52.9383 0 40.8494 0C28.7605 0 18.963 9.79753 18.963 21.8864C18.963 24.0988 19.358 26.3111 19.9901 28.4444H18.4889V5.29383C18.4889 4.81975 18.3309 4.42469 18.0148 4.10864C17.6988 3.79259 17.3037 3.63457 16.8296 3.63457H9.24444C8.77037 3.63457 8.37531 3.79259 8.05926 4.10864C7.74321 4.42469 7.58519 4.81975 7.58519 5.29383V28.4444H1.65926C1.34321 28.4444 1.02716 28.5235 0.790123 28.6815C0.553086 28.8395 0.316049 29.0765 0.158025 29.3926C0 29.7086 0 30.0247 0 30.3407C0 30.6568 0.158025 30.9728 0.395062 31.2099L11.7728 43.8519C11.9309 44.0099 12.0889 44.1679 12.3259 44.2469C12.563 44.3259 12.8 44.4049 13.037 44.4049C13.2741 44.4049 13.5111 44.4049 13.7481 44.2469C13.9852 44.1679 14.1432 44.0099 14.3012 43.8519L22.9136 34.2914C23.3086 34.8444 23.7037 35.3185 24.0988 35.7926V47.9605H18.1728C17.8568 47.9605 17.5407 48.0395 17.3037 48.1975C17.0667 48.3556 16.8296 48.5926 16.6716 48.9086C16.5136 49.2247 16.5136 49.5407 16.5136 49.8568C16.5136 50.1728 16.6716 50.4889 16.9086 50.7259L28.2864 63.3679C28.4444 63.5259 28.6025 63.6839 28.8395 63.763C29.0765 63.842 29.3136 63.921 29.5506 63.921C29.7877 63.921 30.0247 63.921 30.2617 63.763C30.4988 63.6839 30.6568 63.5259 30.8148 63.3679L42.1926 50.7259C42.4296 50.4889 42.5086 50.1728 42.5877 49.8568C42.5877 49.5407 42.5877 49.2247 42.4296 48.9086C42.2716 48.5926 42.1136 48.3556 41.7975 48.1975C41.5605 48.0395 41.2444 47.9605 40.9284 47.9605H35.0025V42.9037C36.8988 43.4568 38.8741 43.6938 40.9284 43.6938L40.8494 43.7728ZM27.3383 49.6988V39.1111C28.6815 40.1383 30.1037 41.0074 31.6049 41.7185V49.6988C31.6049 50.1728 31.763 50.5679 32.079 50.884C32.3951 51.2 32.7901 51.358 33.2642 51.358H37.1358L29.4716 59.8914L21.8074 51.358H25.679C26.1531 51.358 26.5481 51.2 26.8642 50.884C27.1802 50.5679 27.3383 50.1728 27.3383 49.6988ZM25.679 31.2099C25.916 30.9728 25.9951 30.6568 26.0741 30.3407C26.0741 30.0247 26.0741 29.7086 25.916 29.3926C25.758 29.0765 25.6 28.8395 25.284 28.6815C25.0469 28.5235 24.7309 28.4444 24.4148 28.4444H23.4667C22.6765 26.3901 22.2815 24.1778 22.2815 21.8864C22.2815 18.1728 23.3877 14.6173 25.442 11.5358C27.4963 8.45432 30.3407 6.08395 33.7383 4.66173C37.1358 3.23951 40.8494 2.92346 44.484 3.63457C48.1185 4.34568 51.358 6.08395 53.9654 8.69136C56.5728 11.2988 58.3111 14.6173 59.0222 18.1728C59.7333 21.8074 59.3383 25.521 57.9951 28.9185C56.5728 32.316 54.2025 35.2395 51.121 37.2148C48.0395 39.2691 44.4839 40.3753 40.7704 40.3753C35.7926 40.3753 31.1309 38.4 27.6543 34.9235C26.6272 33.8963 25.837 32.8691 25.0469 31.6839L25.521 31.1309L25.679 31.2099ZM15.7235 31.2099C16.0395 31.5259 16.4346 31.6839 16.9086 31.6839H20.7802L13.116 40.2173L5.45185 31.6839H9.32346C9.79753 31.6839 10.1926 31.5259 10.5086 31.2099C10.8247 30.8938 10.9827 30.4988 10.9827 30.0247V6.95309H15.2494V30.1037C15.2494 30.5778 15.4074 30.9728 15.7235 31.2889V31.2099Z" fill="#0CBCB7"/>
<path d="M34.6074 17.3036C34.2914 17.6197 34.1334 18.0148 34.1334 18.4888C34.1334 18.9629 34.2914 19.358 34.6074 19.674C34.9235 19.9901 35.3976 20.1481 35.7926 20.1481H40.7704C40.7704 20.1481 40.6914 20.2271 40.6124 20.3061C40.3753 20.5431 40.0593 20.7802 39.7432 20.8592C39.4272 21.0172 39.1111 21.0962 38.7161 21.0172H35.7926C35.4766 21.0172 35.1605 21.0962 34.8445 21.3333C34.5284 21.4913 34.3704 21.8073 34.2124 22.1234C34.0544 22.4394 34.0544 22.7555 34.1334 23.1506C34.1334 23.4666 34.3704 23.7827 34.6074 24.0197L41.8766 30.9728C42.1926 31.2888 42.5877 31.4468 43.0618 31.4468C43.5358 31.4468 43.9309 31.2098 44.2469 30.8938C44.563 30.5777 44.721 30.1036 44.721 29.7086C44.721 29.2345 44.484 28.8394 44.1679 28.5234L39.8223 24.4148C41.0074 24.1777 42.0346 23.6246 42.9037 22.7555C43.6148 22.0444 44.0889 21.1752 44.405 20.1481H45.8272C46.3013 20.1481 46.6963 19.9901 47.0124 19.674C47.3284 19.358 47.4865 18.9629 47.4865 18.4888C47.4865 18.0148 47.3284 17.6197 47.0124 17.3036C46.6963 16.9876 46.2223 16.8296 45.8272 16.8296H44.405C44.326 16.4345 44.1679 16.1185 44.0099 15.8024H45.8272C46.3013 15.8024 46.6963 15.6444 47.0124 15.3283C47.3284 15.0123 47.4865 14.6172 47.4865 14.1431C47.4865 13.6691 47.3284 13.274 47.0124 12.958C46.6963 12.6419 46.3013 12.4839 45.8272 12.4839H35.6346C35.1605 12.4839 34.7655 12.6419 34.4494 12.958C34.1334 13.274 33.9753 13.6691 33.9753 14.1431C33.9753 14.6172 34.1334 15.0123 34.4494 15.3283C34.7655 15.6444 35.2395 15.8024 35.6346 15.8024H38.5581C39.3482 15.8024 40.1383 16.1975 40.6124 16.8296H35.6346C35.1605 16.8296 34.7655 16.9876 34.4494 17.3036H34.6074Z" fill="#0CBCB7"/>
</svg>
