<svg width="102" height="100" viewBox="0 0 102 100" fill="none" xmlns="http://www.w3.org/2000/svg">
<path d="M35.5061 83.1466C35.1419 83.1206 34.8038 83.1466 34.4396 83.1466C26.61 83.1466 18.8065 83.1466 10.977 83.1466C6.71104 83.1466 4.13587 80.5455 4.13587 76.2795C4.13587 54.5337 4.13587 32.7878 4.13587 11.068C4.13587 6.80208 6.71104 4.2009 10.977 4.2009C25.8037 4.2009 40.6304 4.2009 55.4831 4.2009C59.7491 4.2009 62.3242 6.77607 62.3242 11.042C62.3242 19.0536 62.3242 27.0653 62.3242 35.0769C62.3242 36.4815 63.1566 37.4179 64.3792 37.444C65.5757 37.444 66.4601 36.5596 66.4601 35.233C66.4601 26.8311 66.5381 18.4293 66.4341 10.0275C66.33 4.51304 61.804 0.0650294 56.2895 0.0390177C40.9165 -0.0130059 25.5176 -0.0130059 10.1446 0.0390177C5.69658 0.0650294 1.69077 3.16043 0.4422 7.42636C0.28613 7.9466 0.156071 8.46683 0 8.98707V78.3084C0.0520236 78.3865 0.130059 78.4645 0.156071 78.5426C0.754342 82.9385 4.83819 87.3605 10.951 87.2825C18.8585 87.1785 26.7921 87.2825 34.6997 87.2825C35.0119 87.2825 35.35 87.2825 35.6622 87.2565C36.7026 87.0744 37.457 86.138 37.3789 85.0975C37.3269 84.0831 36.5466 83.2767 35.5061 83.1727V83.1466Z" fill="url(#paint0_linear_8_523)"/>
<path d="M45.7286 33.3601C45.7286 34.6867 46.639 35.5971 47.8096 35.5711C48.9801 35.5711 49.8645 34.6347 49.8645 33.3081C49.8645 29.2242 49.8645 25.1404 49.8645 21.0565C49.8645 19.834 49.0061 18.9235 47.8096 18.9235C43.6997 18.9235 39.5638 18.9235 35.454 18.9496C34.1534 18.9496 33.321 19.8079 33.295 20.9785C33.295 22.201 34.1014 23.0854 35.454 23.1114C37.5089 23.1635 39.5378 23.1114 41.5928 23.1114C41.9049 23.1114 42.217 23.1375 42.6592 23.1635C42.5032 23.3716 42.4251 23.4756 42.3471 23.5536C39.3557 26.571 36.3384 29.5624 33.347 32.5797C32.9829 32.9439 32.6967 32.9439 32.2545 32.7358C30.2516 31.7213 28.2487 30.7329 26.2458 29.7444C24.9192 29.0942 24.2429 29.1982 23.2024 30.2647C20.5492 32.9179 17.87 35.5711 15.2168 38.2503C14.4885 38.9786 13.7081 39.6809 13.0318 40.4613C12.0174 41.6318 12.5636 43.4527 14.0463 43.7908C14.9567 43.9989 15.685 43.6607 16.3093 43.0105C19.0926 40.2012 21.9278 37.4179 24.6851 34.6087C25.2053 34.0624 25.5955 34.0104 26.2458 34.3745C28.0146 35.311 29.8354 36.1954 31.6302 37.0798C33.373 37.9642 33.9193 37.8601 35.3239 36.4555C38.5234 33.256 41.6968 30.0826 44.8963 26.8832C45.1304 26.649 45.3905 26.441 45.7546 26.1028C45.7546 28.678 45.7546 31.019 45.7546 33.3341L45.7286 33.3601Z" fill="url(#paint1_linear_8_523)"/>
<path d="M101.472 65.2505C99.0268 52.4527 88.7262 42.8284 75.7983 41.4237C67.6046 40.5393 60.2953 42.7763 53.8964 48.0047C53.4022 48.3949 52.96 48.8111 52.4658 49.2533C52.4397 49.1492 52.4137 49.1232 52.4137 49.0972C52.4137 47.1463 52.4137 45.1954 52.4137 43.2446C52.4137 42.074 51.6334 41.2417 50.5669 41.2417C49.5264 41.2417 48.7461 42.074 48.7461 43.1925C48.7461 46.7822 48.7461 50.3718 48.7461 53.9354C48.7461 55.158 49.5004 55.9123 50.723 55.9123C54.2866 55.9123 57.8502 55.9123 61.4138 55.9123C61.6479 55.9123 61.908 55.9123 62.1161 55.8343C63.0005 55.5741 63.5208 54.7158 63.3907 53.8053C63.2606 52.947 62.5063 52.2967 61.5439 52.2706C60.2433 52.2706 58.9427 52.2706 57.6681 52.2706C56.7317 52.2706 55.8213 52.2706 54.7808 52.2706C54.8849 52.1146 54.8849 52.0886 54.9109 52.0626C55.0149 51.9585 55.145 51.8284 55.249 51.7244C61.4138 46.2359 68.5931 43.9729 76.7347 45.2995C91.7175 47.7186 101.29 62.4412 97.4921 77.0859C93.8765 91.0542 79.414 99.378 65.5497 95.3201C56.7577 92.745 50.9311 86.8923 48.0438 78.1784C47.2374 75.7853 46.9253 73.2882 46.8992 70.765C46.8992 69.5425 46.0669 68.7361 44.8963 68.8141C43.9079 68.8922 43.2056 69.6985 43.2056 70.8431C43.2316 74.2506 43.8298 77.5801 45.0264 80.7796C50.801 96.2306 67.8387 103.93 83.2377 97.9994C96.2956 92.9791 104.099 78.9847 101.472 65.3025V65.2505Z" fill="url(#paint2_linear_8_523)"/>
<path d="M71.3762 70.5569C70.6218 71.1552 69.6854 71.4413 68.5669 71.4413C67.4484 71.4413 67.7085 71.4153 67.2403 71.3373C66.7461 71.2853 66.3039 71.2332 65.8617 71.2332C65.4195 71.2332 65.5756 71.2593 65.4195 71.3373C65.2634 71.4153 65.1073 71.5194 64.9513 71.6494C64.7952 71.7795 64.6912 71.9356 64.5871 72.1177C64.4831 72.2997 64.4571 72.5078 64.4571 72.7419C64.4571 72.976 64.4571 73.0281 64.5091 73.2101C64.5351 73.3922 64.5871 73.5483 64.6651 73.7044C64.7432 73.8604 64.8472 74.0165 64.9773 74.1466C65.1073 74.2766 65.2634 74.3547 65.4715 74.4067C65.6796 74.4587 65.8617 74.5107 66.0958 74.5367C66.3039 74.5628 66.59 74.5888 66.9542 74.5888C67.3183 74.5888 67.4744 74.5888 67.7345 74.5888C67.9947 74.5888 68.2027 74.5888 68.3588 74.5888H68.697C68.801 74.5888 68.9051 74.5888 69.0091 74.5888C69.6854 74.6148 70.2837 74.7708 70.8559 75.031C71.4282 75.2911 71.9484 75.6553 72.4687 76.1495C72.9889 76.6177 73.5092 77.1899 74.0294 77.8923C74.5496 78.5686 75.0959 79.3489 75.7202 80.2333C75.9282 80.5455 76.1623 80.8836 76.4225 81.2478C76.6826 81.6119 76.9167 81.9761 77.1768 82.3403C77.4369 82.7044 77.671 83.0686 77.8791 83.4328C78.1132 83.7969 78.2953 84.1091 78.4514 84.3952C78.7895 85.0715 79.2838 85.4097 79.9341 85.4097C80.5844 85.4097 80.8185 85.2536 81.1826 84.9154C81.5468 84.5773 81.7289 84.1871 81.7289 83.7189C81.7289 83.2507 81.4688 82.8085 80.9745 82.0541C80.4803 81.2998 79.856 80.2853 79.0757 79.0108C78.6855 78.3865 78.2953 77.7622 77.8531 77.1639C77.4109 76.5397 76.9687 75.9674 76.4745 75.4211C76.0063 74.8749 75.5121 74.3807 74.9918 73.9385C74.4716 73.4963 73.9774 73.1321 73.4571 72.846C74.1855 72.2737 74.8097 71.5714 75.33 70.765C75.8502 69.9587 76.2404 69.0483 76.4745 68.0598C76.9947 68.0598 77.4369 68.0598 77.8271 68.0598C78.2173 68.0598 78.5554 68.0338 78.8676 68.0078C79.1797 67.9818 79.4658 67.9818 79.752 67.9558C80.0381 67.9558 80.3503 67.9558 80.6884 67.9558C81.3387 67.9558 81.8329 67.8257 82.1971 67.5916C82.5613 67.3575 82.7433 66.9933 82.7433 66.5251C82.7433 66.0569 82.7173 66.0569 82.6393 65.8488C82.5873 65.6407 82.4832 65.4326 82.3532 65.2765C82.2231 65.1205 82.067 64.9644 81.8849 64.8864C81.7029 64.7823 81.4948 64.7303 81.2346 64.7303C80.9745 64.7303 80.9745 64.7303 80.7144 64.7303C80.4543 64.7303 80.1161 64.7563 79.726 64.7823C79.3358 64.7823 78.8676 64.8343 78.3473 64.8604C77.8271 64.8604 77.2809 64.9124 76.6826 64.9384C76.6566 64.3921 76.5785 63.8719 76.4485 63.3517C76.3444 62.8575 76.1884 62.3892 76.0063 61.921C76.5785 61.921 77.0728 61.921 77.489 61.921C77.9051 61.921 78.2693 61.921 78.6075 61.869C78.9456 61.869 79.2578 61.843 79.5439 61.817C79.83 61.817 80.1422 61.817 80.5063 61.817C81.1566 61.817 81.6769 61.6609 82.093 61.3748C82.5092 61.0626 82.7173 60.6985 82.7173 60.2043C82.7173 59.71 82.6653 59.736 82.5873 59.5279C82.5092 59.3199 82.4052 59.1118 82.2491 58.9557C82.093 58.7996 81.937 58.6435 81.7289 58.5655C81.5208 58.4615 81.3127 58.4094 81.0526 58.4094C80.7924 58.4094 80.7664 58.4094 80.4803 58.4094C80.1942 58.4094 79.83 58.4355 79.3878 58.4615C78.9456 58.4615 78.4514 58.5135 77.8791 58.5395C77.3069 58.5395 76.7346 58.5915 76.0843 58.6175C75.6941 58.6175 75.304 58.6175 74.8878 58.6175C74.4716 58.6175 74.0554 58.6175 73.6392 58.6175C73.223 58.6175 72.8068 58.6175 72.3906 58.6175C71.9745 58.6175 71.6103 58.6175 71.2721 58.6175C70.4398 58.6435 69.6854 58.6696 69.0351 58.6696C68.3848 58.6696 67.8126 58.6696 67.3183 58.6696C66.8501 58.6696 66.46 58.6696 66.1478 58.6696C65.6536 58.6696 65.2374 58.7736 64.8993 59.0077C64.5611 59.2418 64.405 59.606 64.405 60.1262C64.405 60.6465 64.5611 61.0366 64.8993 61.3488C65.2374 61.6609 65.6276 61.843 66.1478 61.895C66.2519 61.895 66.3819 61.895 66.538 61.921C66.6941 61.921 66.8501 61.921 67.0062 61.947C67.1623 61.947 67.3183 61.947 67.4744 61.9731C67.6305 61.9731 67.7605 61.9731 67.8906 61.9731C68.2808 61.9731 68.6189 61.9731 68.9571 61.9731C69.2952 61.9731 69.6074 61.9731 69.9455 61.921C70.2837 61.921 70.6218 61.895 70.986 61.869C71.3502 61.869 71.7404 61.869 72.2086 61.869C72.5207 62.2852 72.7548 62.7274 72.9369 63.2476C73.119 63.7679 73.249 64.3401 73.275 64.9644C72.9369 64.9644 72.6248 64.9644 72.3126 64.9644C72.0005 64.9644 71.7143 64.9644 71.4282 64.9644C70.5958 64.9904 69.8415 65.0164 69.1912 65.0164C68.5409 65.0164 67.9426 65.0164 67.4224 65.0164C66.9022 65.0164 66.486 65.0164 66.1738 65.0164C65.6796 65.0164 65.2634 65.1205 64.9253 65.3546C64.5871 65.5887 64.431 65.9529 64.431 66.4731C64.431 66.9933 64.5871 67.3575 64.9253 67.6176C65.2634 67.8777 65.6796 68.0338 66.1738 68.0598C66.2779 68.0598 66.4079 68.0598 66.59 68.0858C66.7461 68.0858 66.9282 68.0858 67.1103 68.1118C67.2923 68.1118 67.4744 68.1118 67.6305 68.1378C67.7866 68.1378 67.9426 68.1378 68.0727 68.1378C68.4629 68.1378 68.827 68.1378 69.1652 68.1378C69.5033 68.1378 69.8415 68.1378 70.1796 68.0858C70.5178 68.0858 70.882 68.0598 71.2461 68.0338C71.6103 68.0338 72.0265 68.0338 72.5207 68.0338H72.9889C72.6768 69.1523 72.1305 70.0107 71.3762 70.5829V70.5569Z" fill="url(#paint3_linear_8_523)"/>
<defs>
<linearGradient id="paint0_linear_8_523" x1="33.2439" y1="-1.95419" x2="33.2439" y2="87.588" gradientUnits="userSpaceOnUse">
<stop stop-color="#00EFD1"/>
<stop offset="1" stop-color="#00ACEA"/>
</linearGradient>
<linearGradient id="paint1_linear_8_523" x1="31.1889" y1="18.3654" x2="31.1889" y2="43.9389" gradientUnits="userSpaceOnUse">
<stop stop-color="#00EFD1"/>
<stop offset="1" stop-color="#00ACEA"/>
</linearGradient>
<linearGradient id="paint2_linear_8_523" x1="72.5922" y1="39.9197" x2="72.5922" y2="100.205" gradientUnits="userSpaceOnUse">
<stop stop-color="#00EFD1"/>
<stop offset="1" stop-color="#00ACEA"/>
</linearGradient>
<linearGradient id="paint3_linear_8_523" x1="73.5741" y1="57.8049" x2="73.5741" y2="85.5038" gradientUnits="userSpaceOnUse">
<stop stop-color="#00EFD1"/>
<stop offset="1" stop-color="#00ACEA"/>
</linearGradient>
</defs>
</svg>
