<svg width="65" height="64" viewBox="0 0 65 64" fill="none" xmlns="http://www.w3.org/2000/svg">
<path d="M27.3913 50.2174C25.9905 50.2174 24.8551 50.4253 24.8551 51.8261C24.8551 53.2268 25.9905 53.4348 27.3913 53.4348H37.5362C38.937 53.4348 40.0725 53.2268 40.0725 51.8261C40.0725 50.4253 38.937 50.2174 37.5362 50.2174H34.0725V32.4638C34.0725 31.063 32.937 29.9275 32.4638 29.9275H27.3913C26.8986 29.9275 25.7826 30.6087 25.7826 31.5362C25.7826 32.4638 26.8986 33.1449 27.3913 33.1449H30.8551V50.2174H27.3913ZM62.3913 4.14493H54.3623V1.6087C54.3623 0.207935 53.2268 0 52.7536 0C52.2804 0 51.1449 0.207935 51.1449 1.6087V4.14493H34.0725V1.6087C34.0725 0.207935 32.937 0 32.4638 0C31.9905 0 30.8551 0.207935 30.8551 1.6087V4.14493H13.7826V1.6087C13.7826 0.207935 12.6471 0 12.1739 0C11.7007 0 10.5652 0.207935 10.5652 1.6087V4.14493H2.53623C1.13547 4.14493 0 5.2804 0 6.68116V61.4638C0 62.8645 1.13547 64 2.53623 64H62.3913C63.7921 64 64.9275 62.8645 64.9275 61.4638V6.68116C64.9275 5.2804 63.7921 4.14493 62.3913 4.14493ZM60.7826 59.8551H4.14493V24.4348H60.7826V59.8551ZM60.7826 19.3623H4.14493V9.21739H10.5652V11.7536C10.5652 12.2268 10.7732 13.3623 12.1739 13.3623C13.5747 13.3623 13.7826 12.2268 13.7826 11.7536V9.21739H30.8551V11.7536C30.8551 12.2268 31.063 13.3623 32.4638 13.3623C33.8645 13.3623 34.0725 12.2268 34.0725 11.7536V9.21739H51.1449V11.7536C51.1449 12.2268 51.3529 13.3623 52.7536 13.3623C54.1544 13.3623 54.3623 12.2268 54.3623 11.7536V9.21739H60.7826V19.3623Z" fill="#0CBCB7"/>
</svg>
