<svg width="107" height="92" viewBox="0 0 107 92" fill="none" xmlns="http://www.w3.org/2000/svg">
<path d="M98.6406 29.271H86.282L67.2709 3.10204C65.5631 0.173865 61.8014 -0.868352 58.8136 0.78727C55.785 2.47066 54.6959 6.28749 56.3792 9.31858C56.4274 9.40434 56.4805 9.48684 56.5401 9.56525L71.4514 29.271H35.5486L50.4599 9.56525C50.5187 9.48684 50.5726 9.40434 50.6208 9.31858C52.3 6.29485 51.2232 2.47475 48.184 0.785636C45.2027 -0.866718 41.4409 0.174682 39.7299 3.1004L20.718 29.271H8.35938C3.75029 29.271 0 33.0233 0 37.6349C0 41.272 2.35924 44.4387 5.68258 45.5593C6.03687 45.8337 6.47933 45.9987 6.96098 45.9987C7.0573 45.9987 7.14792 46.0044 7.24261 46.0175C8.14223 46.1384 8.8549 46.8212 9.01817 47.7148L16.1277 86.8502C16.6706 89.8339 19.2649 92 22.2968 92H84.7032C87.7351 92 90.3294 89.8339 90.8723 86.8494L97.9818 47.7156C98.1451 46.8212 98.8586 46.1384 99.7615 46.0175C99.8529 46.0044 99.9435 45.9987 100.039 45.9987C100.524 45.9987 100.97 45.8321 101.324 45.5544C104.65 44.4264 107 41.2655 107 37.6349C107 33.0233 103.25 29.271 98.6406 29.271ZM59.9761 7.17779C59.4985 6.18866 59.8691 4.98391 60.8406 4.44483C61.852 3.8837 63.1272 4.24553 63.6847 5.25099C63.7255 5.32614 63.7721 5.39802 63.8219 5.46663L81.1145 29.271H76.6932L59.9761 7.17779ZM43.1781 5.46744C43.2279 5.39883 43.2728 5.32777 43.3145 5.25426C43.8737 4.24798 45.1496 3.88533 46.157 4.4432C47.1301 4.98391 47.5023 6.18703 47.0239 7.17779L30.3068 29.271H25.8855L43.1781 5.46744ZM98.6406 41.8168H55.7988C54.6445 41.8168 53.709 42.7528 53.709 43.9078C53.709 45.0627 54.6445 45.9775 55.7988 45.9775H94.1262C94.0168 46.2895 93.9303 46.6129 93.8699 46.9462L86.7595 86.1012C86.5791 87.096 85.7138 87.8181 84.7032 87.8181H22.2968C21.2854 87.8181 20.4209 87.096 20.2396 86.102L13.1301 46.9666C13.0697 46.6334 12.9832 46.3099 12.8738 45.9987H57.2617C58.416 45.9987 59.3516 45.0627 59.3516 43.9078C59.3516 42.7528 58.416 41.8168 57.2617 41.8168H8.35938C6.03524 41.8168 4.17969 39.9218 4.17969 37.6349C4.17969 35.3291 6.05483 33.4529 8.35938 33.4529H98.6406C100.945 33.4529 102.82 35.3291 102.82 37.6349C102.82 39.957 100.921 41.8168 98.6406 41.8168Z" fill="url(#paint0_linear_6744_2217)"/>
<path d="M53.5 52.2715C50.0428 52.2715 47.2305 55.0853 47.2305 58.5444V75.2721C47.2305 78.7312 50.0428 81.545 53.5 81.545C56.9572 81.545 59.7695 78.7312 59.7695 75.2721V58.5444C59.7695 55.0788 56.9638 52.2715 53.5 52.2715ZM55.5898 75.2721C55.5898 76.4254 54.6527 77.3631 53.5 77.3631C52.3473 77.3631 51.4102 76.4254 51.4102 75.2721V58.5444C51.4102 57.3911 52.3473 56.4534 53.5 56.4534C54.6535 56.4534 55.5898 57.3903 55.5898 58.5444V75.2721Z" fill="url(#paint1_linear_6744_2217)"/>
<path d="M74.3984 81.545C77.8557 81.545 80.668 78.7312 80.668 75.2721V58.5444C80.668 55.0788 77.8622 52.2715 74.3984 52.2715C70.9412 52.2715 68.1289 55.0853 68.1289 58.5444V75.2721C68.1289 78.7312 70.9412 81.545 74.3984 81.545ZM72.3086 58.5444C72.3086 57.3911 73.2458 56.4534 74.3984 56.4534C75.5519 56.4534 76.4883 57.3903 76.4883 58.5444V75.2721C76.4883 76.4254 75.5511 77.3631 74.3984 77.3631C73.2458 77.3631 72.3086 76.4254 72.3086 75.2721V58.5444Z" fill="url(#paint2_linear_6744_2217)"/>
<path d="M32.6016 52.2715C29.1443 52.2715 26.332 55.0853 26.332 58.5444V75.2721C26.332 78.7312 29.1443 81.545 32.6016 81.545C36.0588 81.545 38.8711 78.7312 38.8711 75.2721V58.5444C38.8711 55.0788 36.0653 52.2715 32.6016 52.2715ZM34.6914 75.2721C34.6914 76.4254 33.7542 77.3631 32.6016 77.3631C31.4489 77.3631 30.5117 76.4254 30.5117 75.2721V58.5444C30.5117 57.3911 31.4489 56.4534 32.6016 56.4534C33.7551 56.4534 34.6914 57.3895 34.6914 58.5444V75.2721Z" fill="url(#paint3_linear_6744_2217)"/>
<defs>
<linearGradient id="paint0_linear_6744_2217" x1="53.4998" y1="-2.05979" x2="53.4998" y2="92.3209" gradientUnits="userSpaceOnUse">
<stop stop-color="#00EFD1"/>
<stop offset="1" stop-color="#00ACEA"/>
</linearGradient>
<linearGradient id="paint1_linear_6744_2217" x1="53.5" y1="51.6161" x2="53.5" y2="81.6471" gradientUnits="userSpaceOnUse">
<stop stop-color="#00EFD1"/>
<stop offset="1" stop-color="#00ACEA"/>
</linearGradient>
<linearGradient id="paint2_linear_6744_2217" x1="74.3984" y1="51.6161" x2="74.3984" y2="81.6471" gradientUnits="userSpaceOnUse">
<stop stop-color="#00EFD1"/>
<stop offset="1" stop-color="#00ACEA"/>
</linearGradient>
<linearGradient id="paint3_linear_6744_2217" x1="32.6015" y1="51.6161" x2="32.6015" y2="81.6471" gradientUnits="userSpaceOnUse">
<stop stop-color="#00EFD1"/>
<stop offset="1" stop-color="#00ACEA"/>
</linearGradient>
</defs>
</svg>
