<svg width="80" height="98" viewBox="0 0 80 98" fill="none" xmlns="http://www.w3.org/2000/svg">
<path d="M73.6219 44.1139L72.9483 42.739C70.2363 37.1713 68.8043 30.9926 68.801 24.9618C68.9642 21.9911 70.0603 18.1768 70.8602 15.393C71.0969 14.5659 71.3146 13.8084 71.4873 13.1536C72.156 10.6072 72.1657 8.34319 71.5161 6.42405C69.5083 0.492371 66.0587 0 62.3995 0C58.7403 0 55.2908 0.492371 53.2827 6.42405C52.6331 8.34338 52.6428 10.6072 53.3115 13.1554C53.4842 13.8086 53.7019 14.5661 53.9387 15.3932C54.7387 18.177 55.8346 21.9911 55.9948 24.871C55.9948 30.9928 54.5628 37.1715 51.8508 42.7392L51.2076 44.0508C51.2048 44.0566 51.2019 44.0624 51.1992 44.068L50.5484 42.7383C47.8364 37.1721 46.4045 30.9936 46.4012 24.961C46.5644 21.9919 47.6605 18.1778 48.4604 15.394C48.6971 14.5651 48.9148 13.8094 49.0875 13.1546C49.7562 10.6079 49.7659 8.34416 49.1163 6.42502C47.1083 0.491789 43.6587 0.00096809 39.9995 0.00096809C36.3403 0.00096809 32.8908 0.491789 30.8828 6.42502C30.2331 8.34435 30.2428 10.6081 30.9115 13.1546C31.0842 13.8096 31.3019 14.5651 31.5387 15.394C32.3387 18.1778 33.4346 21.9919 33.5948 24.8718C33.5948 30.9936 32.1628 37.1723 29.4508 42.7384L28.8 44.0682C28.7971 44.0624 28.7943 44.0566 28.7916 44.051L28.1485 42.7394C25.4364 37.1717 24.0045 30.993 24.0012 24.9622C24.1644 21.9915 25.2605 18.1772 26.0604 15.3934C26.2971 14.5663 26.5148 13.8088 26.6875 13.154C27.3562 10.6076 27.3659 8.34358 26.7163 6.42444C24.7086 0.49237 21.2591 0 17.5999 0C13.9407 0 10.4912 0.492371 8.48314 6.42405C7.83349 8.34338 7.84321 10.6072 8.51192 13.1554C8.68463 13.8086 8.90232 14.5661 9.13907 15.3932C9.93912 18.177 11.035 21.9911 11.1951 24.871C11.1951 30.9928 9.76317 37.1715 7.05117 42.7392L6.37751 44.1141C3.61442 49.7402 0.177471 56.7413 0 63.3799V71.5054C0 77.0665 1.55206 82.0444 3.14243 86.6678C5.5889 93.7761 8.92805 97.5335 12.8 97.5335H22.4C24.7775 97.5335 26.9241 96.1615 28.8051 93.4495C30.6856 96.1404 32.8439 97.5342 35.2 97.5342H44.8C47.1561 97.5342 49.3144 96.1404 51.1949 93.4495C53.0759 96.1615 55.2225 97.5335 57.6 97.5335H67.2C71.0719 97.5335 74.4111 93.7761 76.8576 86.6678C78.4479 82.0444 80 77.0667 80 71.5054V63.3359C79.8218 56.7411 76.385 49.7401 73.6219 44.1139ZM56.3083 7.48198C57.6762 3.43865 59.3372 3.25007 62.3995 3.25007C65.4619 3.25007 67.1226 3.43865 68.4907 7.48198C68.9292 8.77883 68.8971 10.4056 68.3946 12.3151C68.2282 12.9488 68.017 13.6818 67.7883 14.483C67.3651 15.9535 66.8643 17.6965 66.4467 19.5016H58.3549C57.9368 17.704 57.4349 15.9566 57.0108 14.483C56.782 13.6818 56.5708 12.949 56.4044 12.3151C55.9021 10.4056 55.8701 8.77883 56.3083 7.48198ZM58.9822 22.7518H65.8233C65.7189 23.4727 65.6415 24.1838 65.6045 24.8708C65.6045 26.8744 65.7486 28.8831 66.0275 30.8774H58.7674C59.0489 28.8597 59.1938 26.8213 59.1932 24.7798C59.1572 24.1256 59.0831 23.445 58.9822 22.7518ZM33.9085 7.48275C35.2764 3.43943 36.9373 3.25084 39.9997 3.25084C43.0621 3.25084 44.7228 3.43943 46.0909 7.48275C46.5293 8.77806 46.4973 10.4046 45.9948 12.3158C45.8284 12.948 45.6172 13.6808 45.3885 14.4838C44.9653 15.9541 44.4647 17.6969 44.0468 19.5016H35.9549C35.5368 17.7042 35.0351 15.9572 34.611 14.4838C34.3822 13.681 34.171 12.948 34.0046 12.3158C33.5021 10.4046 33.4701 8.77786 33.9085 7.48275ZM36.5822 22.7518H43.4235C43.319 23.4729 43.2416 24.1842 43.2045 24.8716C43.2045 26.8747 43.3486 28.8833 43.6275 30.8776H36.3672C36.6487 28.8599 36.7936 26.8219 36.7932 24.7806C36.7574 24.1261 36.6831 23.4452 36.5822 22.7518ZM11.5087 7.48198C12.8766 3.43865 14.5375 3.25007 17.5999 3.25007C20.6623 3.25007 22.323 3.43865 23.6911 7.48198C24.1295 8.77883 24.0975 10.4056 23.595 12.3151C23.4286 12.9488 23.2174 13.6818 22.9886 14.483C22.5655 15.9535 22.0647 17.6965 21.647 19.5016H13.5553C13.1372 17.704 12.6353 15.9566 12.2112 14.483C11.9824 13.6818 11.7712 12.949 11.6048 12.3151C11.1023 10.4056 11.0703 8.77883 11.5087 7.48198ZM14.1826 22.7518H21.0237C20.9192 23.4727 20.842 24.1838 20.8049 24.8708C20.8049 26.8744 20.949 28.8831 21.2279 30.8774H13.9678C14.2493 28.8597 14.3942 26.8213 14.3936 24.7798C14.3574 24.1256 14.2832 23.445 14.1826 22.7518ZM22.3998 94.283H12.7998C10.4814 94.283 8.06376 91.1174 6.16305 85.5967C4.6638 81.2365 3.19981 76.5579 3.19981 71.5052V63.4252C3.35669 57.5487 6.61903 50.9037 9.24144 45.5635L9.91987 44.179C11.4754 40.9852 12.637 37.6025 13.3879 34.1277H21.8085C22.5596 37.5936 23.7222 40.981 25.2798 44.179L25.9262 45.5002C26.2841 46.2286 26.6515 46.9793 27.0211 47.7458C24.7384 52.6052 22.5409 58.1073 22.3998 63.3804V71.506C22.3998 77.0655 23.9519 82.045 25.5422 86.6684C25.9965 87.9885 26.4818 89.1924 26.9954 90.2786C25.8917 92.2456 24.2925 94.283 22.3998 94.283ZM44.7996 94.2836H35.1996C32.8813 94.2836 30.4636 91.1162 28.5629 85.5958C27.0636 81.2355 25.5996 76.5569 25.5996 71.506V63.4242C25.7565 57.5477 29.0188 50.9043 31.6412 45.5641L32.3197 44.1795C33.8752 40.9852 35.0366 37.6021 35.7875 34.1277H44.2083C44.9594 37.5934 46.1218 40.981 47.6794 44.1795L48.3578 45.5641C50.9802 50.9043 54.2425 57.5477 54.3994 63.3802V71.5058C54.3994 76.5567 52.9354 81.2355 51.4362 85.5956C49.5357 91.1162 47.1182 94.2836 44.7996 94.2836ZM76.7994 71.5052C76.7994 76.5577 75.3354 81.2365 73.8362 85.595C71.9355 91.1172 69.5178 94.2828 67.1994 94.2828H57.5996C55.7069 94.2828 54.108 92.2454 53.0042 90.2784C53.5178 89.192 54.0031 87.9881 54.4574 86.6682C56.0478 82.0448 57.5998 77.0653 57.5998 71.5058V63.3363C57.4587 58.0982 55.2612 52.6033 52.9785 47.7454C53.3481 46.9791 53.7155 46.2284 54.0735 45.5L54.7199 44.1788C56.2754 40.985 57.437 37.6023 58.1879 34.1275H66.6085C67.3596 37.5934 68.5222 40.9808 70.0798 44.1788L70.7582 45.5633C73.3806 50.9035 76.6429 57.5487 76.7998 63.3795V71.5052H76.7994Z" fill="url(#paint0_linear_6689_2228)"/>
<defs>
<linearGradient id="paint0_linear_6689_2228" x1="39.9998" y1="-2.1837" x2="39.9998" y2="97.8744" gradientUnits="userSpaceOnUse">
<stop stop-color="#00EFD1"/>
<stop offset="1" stop-color="#00ACEA"/>
</linearGradient>
</defs>
</svg>
