<svg width="100" height="100" viewBox="0 0 100 100" fill="none" xmlns="http://www.w3.org/2000/svg">
<g clip-path="url(#clip0_5414_3203)">
<path d="M90.379 4.92188C86.9685 4.92009 83.813 6.72423 82.084 9.66403C80.3559 12.6038 80.3139 16.239 81.9749 19.2181L71.5858 27.9239C69.6984 25.462 66.7371 24.0632 63.6363 24.167C60.5354 24.2717 57.6761 25.8674 55.9588 28.451L44.2247 20.8889C44.2488 20.6088 44.264 20.326 44.264 20.0388C44.2685 15.9991 41.7475 12.3864 37.9549 10.9957C34.1613 9.60586 29.9033 10.7335 27.2956 13.8191C24.6878 16.9048 24.286 21.2908 26.2888 24.7997L14.2656 36.5526C9.82414 34.1319 4.26761 35.5521 1.53186 39.8074C-1.203 44.0619 -0.188171 49.707 3.85774 52.7425C7.90454 55.7781 13.6078 55.174 16.928 51.3572C20.2481 47.5413 20.0575 41.8085 16.4913 38.2216L27.9918 26.9797C30.2837 29.1812 33.5152 30.1084 36.625 29.4542C39.7358 28.8009 42.3212 26.6522 43.5329 23.7142L54.7668 30.9541C53.5255 34.9767 55.0433 39.3394 58.5129 41.7226C61.9834 44.1057 66.6002 43.9572 69.9087 41.3547C73.2181 38.7523 74.4513 34.301 72.9532 30.367L83.6448 21.4062C86.7439 24.448 91.4967 25.0351 95.2438 22.8408C98.9899 20.6455 100.801 16.2121 99.6637 12.0221C98.5263 7.83124 94.7211 4.92277 90.379 4.92367V4.92188ZM9.67648 51.8763C5.88114 51.8763 2.80442 48.7995 2.80442 45.0051C2.80442 41.2098 5.88114 38.1331 9.67648 38.1331C13.4718 38.1331 16.5476 41.2098 16.5476 45.0051C16.5432 48.7978 13.47 51.8718 9.67648 51.8763ZM34.6437 26.9099C30.8484 26.9099 27.7717 23.8332 27.7717 20.0379C27.7717 16.2434 30.8484 13.1667 34.6428 13.1667C38.4381 13.1667 41.5149 16.2425 41.5149 20.0379C41.5104 23.8314 38.4364 26.9055 34.6437 26.9099ZM63.9611 40.6531C60.1667 40.6531 57.09 37.5773 57.09 33.782C57.09 29.9875 60.1667 26.9108 63.9611 26.9108C67.7564 26.9108 70.8332 29.9875 70.8332 33.782C70.8287 37.5755 67.7547 40.6487 63.9611 40.6531ZM90.379 21.4143C86.5837 21.4143 83.5078 18.3375 83.5078 14.5422C83.5078 10.7478 86.5837 7.67105 90.379 7.67105C94.1743 7.67105 97.2502 10.7478 97.2502 14.5422C97.2457 18.3358 94.1725 21.4098 90.379 21.4143Z" fill="url(#paint0_linear_5414_3203)"/>
<path d="M45.9035 47.0465C45.9035 46.2867 45.2886 45.6719 44.5289 45.6719H30.3248C29.5659 45.6719 28.9502 46.2867 28.9502 47.0465V93.7825C28.9502 94.5414 29.5659 95.1571 30.3248 95.1571H44.5289C45.2886 95.1571 45.9035 94.5414 45.9035 93.7825V47.0465ZM43.1543 92.4079H31.6994V48.4211H43.1543V92.4079Z" fill="url(#paint1_linear_5414_3203)"/>
<path d="M19.5578 68.3433C19.5578 67.5836 18.943 66.9688 18.1832 66.9688H3.97908C3.22019 66.9688 2.60449 67.5836 2.60449 68.3433V93.7733C2.60449 94.5322 3.22019 95.1479 3.97908 95.1479H18.1832C18.943 95.1479 19.5578 94.5322 19.5578 93.7733V68.3433ZM16.5795 92.3987H5.35367V69.7179H16.5795V92.3987Z" fill="url(#paint2_linear_5414_3203)"/>
<path d="M72.2502 60.3277C72.2502 59.5679 71.6353 58.9531 70.8756 58.9531H56.6715C55.9126 58.9531 55.2969 59.5679 55.2969 60.3277V93.7761C55.2969 94.535 55.9126 95.1507 56.6715 95.1507H70.8756C71.6353 95.1507 72.2502 94.535 72.2502 93.7761V60.3277ZM69.501 92.4015H58.0461V61.7023H69.501V92.4015Z" fill="url(#paint3_linear_5414_3203)"/>
<path d="M98.8254 47.0465C98.8254 46.2867 98.2106 45.6719 97.4508 45.6719H83.2467C82.4878 45.6719 81.8721 46.2867 81.8721 47.0465V93.7825C81.8721 94.5414 82.4878 95.1571 83.2467 95.1571H97.4508C98.2106 95.1571 98.8254 94.5414 98.8254 93.7825V47.0465ZM95.8471 92.4079H84.6213V48.4211H95.8471V92.4079Z" fill="url(#paint4_linear_5414_3203)"/>
</g>
<defs>
<linearGradient id="paint0_linear_5414_3203" x1="50.0277" y1="-0.909149" x2="50.0277" y2="101.342" gradientUnits="userSpaceOnUse">
<stop stop-color="#00EFD1"/>
<stop offset="1" stop-color="#00ACEA"/>
</linearGradient>
<linearGradient id="paint1_linear_5414_3203" x1="37.4273" y1="-0.901063" x2="37.4273" y2="101.35" gradientUnits="userSpaceOnUse">
<stop stop-color="#00EFD1"/>
<stop offset="1" stop-color="#00ACEA"/>
</linearGradient>
<linearGradient id="paint2_linear_5414_3203" x1="11.0816" y1="-0.91037" x2="11.0816" y2="101.341" gradientUnits="userSpaceOnUse">
<stop stop-color="#00EFD1"/>
<stop offset="1" stop-color="#00ACEA"/>
</linearGradient>
<linearGradient id="paint3_linear_5414_3203" x1="63.774" y1="-0.907535" x2="63.774" y2="101.343" gradientUnits="userSpaceOnUse">
<stop stop-color="#00EFD1"/>
<stop offset="1" stop-color="#00ACEA"/>
</linearGradient>
<linearGradient id="paint4_linear_5414_3203" x1="90.3492" y1="-0.901063" x2="90.3492" y2="101.35" gradientUnits="userSpaceOnUse">
<stop stop-color="#00EFD1"/>
<stop offset="1" stop-color="#00ACEA"/>
</linearGradient>
<clipPath id="clip0_5414_3203">
<rect width="100" height="100" fill="white"/>
</clipPath>
</defs>
</svg>
