<svg width="100" height="112" viewBox="0 0 100 112" fill="none" xmlns="http://www.w3.org/2000/svg">
<path d="M18.54 81.7129H22.3504V85.7851H18.54V81.7129Z" fill="url(#paint0_linear_6756_2213)"/>
<path d="M34.5439 81.7129H38.8624V85.7851H34.5439V81.7129Z" fill="url(#paint1_linear_6756_2213)"/>
<path d="M18.54 89.6025H22.3504V93.9293H18.54V89.6025Z" fill="url(#paint2_linear_6756_2213)"/>
<path d="M22.3506 97.7471H26.669V102.074H22.3506V97.7471Z" fill="url(#paint3_linear_6756_2213)"/>
<path d="M30.7334 97.7471H34.5438V102.074H30.7334V97.7471Z" fill="url(#paint4_linear_6756_2213)"/>
<path d="M26.6689 89.6025H30.7333V93.9293H26.6689V89.6025Z" fill="url(#paint5_linear_6756_2213)"/>
<path d="M26.6689 81.7129H30.7333V85.7851H26.6689V81.7129Z" fill="url(#paint6_linear_6756_2213)"/>
<path d="M34.5439 89.6025H38.8624V93.9293H34.5439V89.6025Z" fill="url(#paint7_linear_6756_2213)"/>
<path d="M51.0549 73.5071C51.055 73.2217 50.9945 72.9396 50.8775 72.6791C50.7605 72.4187 50.5897 72.1858 50.3762 71.9958C47.1495 69.2471 43.1004 67.6414 38.8615 67.4293C36.1003 67.4897 33.3956 68.2213 30.9825 69.5606C30.9866 68.5781 31.205 67.6082 31.6226 66.7183C32.0402 65.8283 32.647 65.0395 33.4009 64.4067L30.7325 61.3516C29.5245 62.4065 28.5533 63.7037 27.8827 65.1584C27.2121 66.6132 26.857 68.1927 26.8408 69.7936C24.3206 68.3137 21.4631 67.4999 18.5391 67.4293C14.3002 67.6414 10.2511 69.2471 7.02442 71.9958C6.8112 72.1858 6.64063 72.4186 6.52384 72.6788C6.40705 72.9391 6.34668 73.221 6.34668 73.5061C6.34668 73.7912 6.40705 74.0731 6.52384 74.3334C6.64063 74.5936 6.8112 74.8264 7.02442 75.0164C8.68546 76.3948 10.5491 77.5106 12.5501 78.3248C11.0867 80.6301 10.342 83.3162 10.4101 86.0435C10.4101 95.1602 17.9518 112 28.7003 112C39.4488 112 46.9905 95.1602 46.9905 86.0435C47.0575 83.3167 46.3121 80.6313 44.8485 78.3268C46.8502 77.5129 48.7145 76.3971 50.3762 75.0184C50.5897 74.8284 50.7605 74.5955 50.8775 74.3351C50.9945 74.0746 51.055 73.7925 51.0549 73.5071ZM18.5391 71.4812C20.8925 71.5658 23.1825 72.2644 25.1805 73.5071C23.1825 74.7497 20.8925 75.4483 18.5391 75.533C16.1857 75.4484 13.8957 74.7498 11.8977 73.5071C13.8957 72.2645 16.1857 71.5659 18.5391 71.4812ZM42.926 86.0435C42.926 94.283 36.0347 107.948 28.7003 107.948C21.3659 107.948 14.4746 94.283 14.4746 86.0435C14.381 83.62 15.2366 81.2552 16.8605 79.4491C21.0944 79.8361 25.3198 78.6244 28.7003 76.0537C32.0813 78.6231 36.3065 79.8341 40.5401 79.4471C42.1643 81.2538 43.0199 83.6193 42.926 86.0435ZM38.8615 75.533C36.5081 75.4484 34.2181 74.7498 32.2201 73.5071C34.2181 72.2645 36.5081 71.5659 38.8615 71.4812C41.2149 71.5658 43.5049 72.2644 45.5029 73.5071C43.5049 74.7497 41.2149 75.4483 38.8615 75.533Z" fill="url(#paint8_linear_6756_2213)"/>
<path d="M25.0566 58.6975C28.3474 45.4436 27.8308 45.207 29.0121 44.1463L40.3125 39.3498C40.7954 39.147 41.3266 39.0887 41.8419 39.1821C42.3572 39.2754 42.8344 39.5163 43.2159 39.8757L44.618 41.1967C45.0658 41.6157 45.3587 42.1743 45.4488 42.7815C45.539 43.3886 45.4211 44.0085 45.1144 44.5399L38.2942 56.2596C37.2398 57.7557 36.7619 59.5838 36.9489 61.4057C37.1359 63.2276 37.9753 64.9199 39.3116 66.1696C40.6479 67.4193 42.3908 68.1417 44.2178 68.2032C46.0447 68.2647 47.8321 67.6611 49.2491 66.5041C64.8009 53.428 64.3059 54.0531 64.7303 53.3636L74.6322 37.2482L78.7912 35.7375C79.0121 36.3557 79.4516 36.8713 80.0266 37.1865C80.6015 37.5018 81.2719 37.5947 81.9107 37.4478L92.4683 34.9923C93.1684 34.8295 93.7751 34.3947 94.1552 33.7837C94.5353 33.1726 94.6575 32.4353 94.4951 31.7339L87.7554 2.64452C87.5929 1.94316 87.159 1.33519 86.5491 0.954381C85.9392 0.573567 85.2033 0.451093 84.5033 0.613903L73.9456 3.0694C73.2456 3.23221 72.6388 3.66697 72.2588 4.27803C71.8787 4.88909 71.7564 5.6264 71.9189 6.32777L52.8809 10.7556C52.6169 10.817 31.1779 18.6767 30.6372 19.1285L14.0945 32.9702C12.9732 33.9017 12.0473 35.0466 11.3703 36.3387C10.6933 37.6309 10.2786 39.0446 10.1502 40.4983L8.74262 55.9256C7.81982 66.0257 22.6887 68.7797 25.0566 58.6975ZM83.0893 6.51676L88.6035 30.3172L83.3247 31.5449L77.8104 7.74451L83.0893 6.51676ZM14.1429 56.4226L15.5519 40.9894C15.6191 40.2445 15.8333 39.5204 16.1819 38.859C16.5305 38.1976 17.0066 37.6121 17.5827 37.1365L33.7509 23.5993L54.2725 16.006L73.1443 11.6167L77.5037 30.4323L71.9076 32.464C71.3328 32.6735 70.8457 33.0716 70.5254 33.5937L60.3487 50.1436L45.7779 62.3394C45.3709 62.6638 44.8599 62.8287 44.3404 62.8031C43.8208 62.7776 43.3284 62.5634 42.955 62.2006C42.5816 61.8377 42.3529 61.3511 42.3115 60.8316C42.2701 60.3121 42.4189 59.7953 42.7302 59.3778C42.8889 59.1625 43.0506 58.8518 49.796 47.2776C50.7292 45.6878 51.0938 43.8268 50.8296 42.0015C50.5655 40.1762 49.6885 38.4956 48.3431 37.2368L46.941 35.9158C45.7909 34.8362 44.3532 34.1136 42.8019 33.8354C41.2506 33.5571 39.652 33.7352 38.1995 34.3481C26.095 39.5156 26.4726 39.2605 25.9948 39.6113C24.4173 40.7836 23.3041 42.4768 22.852 44.3918L19.7859 57.4512C19.5986 58.1501 19.1559 58.7528 18.5457 59.1398C17.9354 59.5268 17.2023 59.6697 16.4917 59.5402C15.7812 59.4107 15.1452 59.0182 14.7101 58.4406C14.275 57.8631 14.0725 57.1428 14.1429 56.4226Z" fill="url(#paint9_linear_6756_2213)"/>
<defs>
<linearGradient id="paint0_linear_6756_2213" x1="20.4452" y1="81.6217" x2="20.4452" y2="85.7993" gradientUnits="userSpaceOnUse">
<stop stop-color="#00EFD1"/>
<stop offset="1" stop-color="#00ACEA"/>
</linearGradient>
<linearGradient id="paint1_linear_6756_2213" x1="36.7031" y1="81.6217" x2="36.7031" y2="85.7993" gradientUnits="userSpaceOnUse">
<stop stop-color="#00EFD1"/>
<stop offset="1" stop-color="#00ACEA"/>
</linearGradient>
<linearGradient id="paint2_linear_6756_2213" x1="20.4452" y1="89.5057" x2="20.4452" y2="93.9444" gradientUnits="userSpaceOnUse">
<stop stop-color="#00EFD1"/>
<stop offset="1" stop-color="#00ACEA"/>
</linearGradient>
<linearGradient id="paint3_linear_6756_2213" x1="24.5098" y1="97.6502" x2="24.5098" y2="102.089" gradientUnits="userSpaceOnUse">
<stop stop-color="#00EFD1"/>
<stop offset="1" stop-color="#00ACEA"/>
</linearGradient>
<linearGradient id="paint4_linear_6756_2213" x1="32.6386" y1="97.6502" x2="32.6386" y2="102.089" gradientUnits="userSpaceOnUse">
<stop stop-color="#00EFD1"/>
<stop offset="1" stop-color="#00ACEA"/>
</linearGradient>
<linearGradient id="paint5_linear_6756_2213" x1="28.7011" y1="89.5057" x2="28.7011" y2="93.9444" gradientUnits="userSpaceOnUse">
<stop stop-color="#00EFD1"/>
<stop offset="1" stop-color="#00ACEA"/>
</linearGradient>
<linearGradient id="paint6_linear_6756_2213" x1="28.7011" y1="81.6217" x2="28.7011" y2="85.7993" gradientUnits="userSpaceOnUse">
<stop stop-color="#00EFD1"/>
<stop offset="1" stop-color="#00ACEA"/>
</linearGradient>
<linearGradient id="paint7_linear_6756_2213" x1="36.7031" y1="89.5057" x2="36.7031" y2="93.9444" gradientUnits="userSpaceOnUse">
<stop stop-color="#00EFD1"/>
<stop offset="1" stop-color="#00ACEA"/>
</linearGradient>
<linearGradient id="paint8_linear_6756_2213" x1="28.7007" y1="60.2176" x2="28.7007" y2="112.176" gradientUnits="userSpaceOnUse">
<stop stop-color="#00EFD1"/>
<stop offset="1" stop-color="#00ACEA"/>
</linearGradient>
<linearGradient id="paint9_linear_6756_2213" x1="56.7167" y1="66.8704" x2="43.4785" y2="9.95147" gradientUnits="userSpaceOnUse">
<stop stop-color="#00EFD1"/>
<stop offset="1" stop-color="#00ACEA"/>
</linearGradient>
</defs>
</svg>
