<svg width="56" height="64" viewBox="0 0 56 64" fill="none" xmlns="http://www.w3.org/2000/svg">
<path d="M50.0873 0.00216763C44.5023 0.00216763 38.9186 0.00216763 33.3336 0.00216763H27.7486C25.5924 -0.000478032 23.4375 0.00216763 21.2826 0.00216763C15.9648 -0.000478032 10.4645 -0.00180087 5.05539 0.0048133C2.17955 0.0087818 0.0101046 2.16897 0.0087818 5.03026C0.000844801 15.7359 0.000844801 29.0926 0.00349047 40.8764V46.2378C0.00349047 46.2484 0.0048133 46.2577 0.0048133 46.2683C-0.00180087 47.3384 -0.000478032 48.4232 0.00216763 49.4735V50.2143C0.00745897 53.4962 2.04859 55.536 5.32922 55.5387C7.03435 55.5387 8.74081 55.5387 10.4459 55.5387C11.6801 55.5387 12.9157 55.5387 14.1499 55.5387H24.0261C24.8265 55.5387 25.3834 55.3667 25.7313 55.0148C25.9892 54.7529 26.1175 54.405 26.1123 53.9804C26.0977 52.9737 25.3873 52.4644 23.9984 52.4644H17.4609C13.6697 52.4644 10.9605 52.4644 5.23001 52.4644C3.80399 52.4644 3.07776 51.7369 3.07379 50.3016C3.07246 49.7248 3.07379 49.1494 3.07379 48.5726C3.07379 47.8133 3.07511 47.0554 3.07114 46.296C3.07114 46.2828 3.07246 46.2696 3.07246 46.255C3.07379 46.1228 3.07246 45.9891 3.07246 45.8569V45.6796V5.47076C3.07246 3.70346 3.70478 3.07643 5.4906 3.07643H49.9537C51.7157 3.07643 52.3705 3.72727 52.3705 5.47738C52.3705 20.3249 52.3705 35.1723 52.3705 50.0198C52.3705 51.721 51.9803 52.1813 50.2844 52.4816C49.4708 52.6258 48.9153 53.3031 48.9629 54.0902C49.0105 54.8839 49.6428 55.4897 50.4669 55.5294C50.5159 55.5321 50.5662 55.5334 50.6164 55.5334C50.8228 55.5334 51.0397 55.5135 51.2633 55.4739C53.8005 55.0241 55.4408 53.0081 55.4408 50.3399C55.4434 35.3496 55.4434 20.3606 55.4408 5.37022C55.4408 2.0605 53.3891 0.00349047 50.086 0.00349047L50.0873 0.00216763Z" fill="url(#paint0_linear_13543_1840)"/>
<path d="M44.1818 53.2471L43.1195 52.1822L43.8259 51.4758C44.6395 50.6609 45.4305 49.8712 46.2229 49.0828L46.2348 49.0709C46.67 48.6383 47.2124 48.0999 46.9703 47.2216C46.7269 46.3366 45.9464 46.1421 45.3776 45.9993L42.343 45.2426C37.5464 44.0454 32.7512 42.8496 27.9533 41.6564C27.2111 41.4725 26.5868 41.585 26.1952 41.9765C25.8076 42.3628 25.6925 42.9766 25.8711 43.7028C26.4968 46.248 27.1199 48.7468 27.7562 51.2972C28.6147 54.7366 29.4547 58.1006 30.2973 61.4394C30.4441 62.0201 30.7259 62.4487 31.1148 62.6762C31.4138 62.8522 31.7564 62.8958 32.107 62.8019C32.5501 62.6828 32.9258 62.3826 33.1639 62.1497C34.0237 61.3084 34.8889 60.4354 35.7249 59.5914C35.9418 59.3718 36.1601 59.1522 36.3797 58.9313C36.4802 59.0239 36.5702 59.1072 36.6549 59.1919C37.1972 59.7342 37.7396 60.2779 38.2819 60.8216C39.114 61.655 39.9461 62.4897 40.7808 63.3205C41.2371 63.7742 41.6605 64.0017 42.0838 64.0017C42.5071 64.0017 42.9383 63.7715 43.4013 63.3112C44.572 62.1471 45.7559 60.9579 46.9015 59.807L47.3751 59.3308C48.4611 58.2408 48.4598 57.541 47.3724 56.4497C46.3168 55.3901 45.2612 54.3318 44.1805 53.2484L44.1818 53.2471ZM40.335 53.7511L44.3802 57.7989L41.9885 60.1933L41.425 59.6258C40.6538 58.8479 39.8627 58.0529 39.073 57.2566L38.991 57.1746C38.5822 56.7632 38.1748 56.3531 37.7634 55.9443C37.2594 55.4443 36.8229 55.1956 36.389 55.1956C35.9551 55.1956 35.5291 55.4417 35.0397 55.9324C34.4007 56.5727 33.7671 57.2182 33.0951 57.9008C32.9575 58.0397 32.8186 58.1812 32.6784 58.3241L29.3938 45.1738L42.5057 48.4611L42.1446 48.8222C41.5282 49.436 40.9342 50.0286 40.3403 50.6226C39.0809 51.8819 39.0809 52.4957 40.3363 53.7524L40.335 53.7511Z" fill="url(#paint1_linear_13543_1840)"/>
<path d="M44.7351 12.2029C44.7986 12.2042 44.8647 12.2068 44.9335 12.2068C45.0063 12.2068 45.0804 12.2042 45.1558 12.1976C45.9614 12.2029 46.7842 12.2055 47.6202 12.2055C48.5144 12.2055 49.4245 12.2029 50.3439 12.1962C51.3255 12.1896 52.0146 11.5626 52.0213 10.671C52.0266 9.77811 51.344 9.14447 50.3611 9.1286C49.7301 9.11802 49.0912 9.12066 48.4721 9.12331C48.2009 9.12331 47.9311 9.12463 47.6599 9.12463H47.6519C47.3794 9.12463 47.1069 9.12463 46.8344 9.12331C46.2802 9.12198 45.71 9.11934 45.1438 9.12595C45.0182 9.11801 44.8965 9.11934 44.7854 9.12198C44.7324 9.12331 44.6795 9.12463 44.6279 9.12463C32.8177 9.12463 17.2625 9.12463 5.45224 9.12463C5.39932 9.12463 5.34773 9.12331 5.29482 9.12198C5.1255 9.11801 4.93501 9.11272 4.74055 9.14844C3.92172 9.30057 3.43359 9.86542 3.43359 10.6604C3.43359 11.4568 3.92304 12.0216 4.74188 12.1724C4.95221 12.2108 5.16121 12.2055 5.34509 12.2002C5.40462 12.1989 5.46414 12.1976 5.52367 12.1976C10.6007 12.1976 15.6777 12.1976 20.7548 12.1976H25.4932C31.3745 12.1976 39.3961 12.1976 44.5578 12.1976C44.6174 12.1976 44.6769 12.1989 44.7364 12.2002L44.7351 12.2029Z" fill="url(#paint2_linear_13543_1840)"/>
<path d="M7.68086 7.64225C7.80653 7.64225 7.92956 7.64093 8.05258 7.63829C8.17825 7.63696 8.30259 7.63432 8.42826 7.63432C8.53409 7.63432 8.64124 7.63564 8.74707 7.63829C8.9984 7.64225 9.25768 7.64622 9.5196 7.63035C10.4046 7.57743 11.029 6.95438 11.0382 6.11703C11.0488 5.27174 10.4019 4.609 9.5368 4.57328C8.80792 4.54418 8.03141 4.54286 7.2311 4.57196C6.35538 4.60238 5.71249 5.23734 5.70323 6.08263C5.69397 6.92131 6.32099 7.57214 7.19406 7.62903C7.35809 7.63961 7.5208 7.64225 7.68086 7.64225Z" fill="url(#paint3_linear_13543_1840)"/>
<path d="M14.7977 7.63709C14.9154 7.63444 15.0331 7.63312 15.1509 7.63312C15.2712 7.63312 15.3916 7.63577 15.5107 7.63709C15.6403 7.63973 15.7713 7.64238 15.9035 7.64238C16.0636 7.64238 16.225 7.63841 16.3864 7.62783C17.2621 7.5683 17.8851 6.91218 17.8666 6.06821C17.8481 5.25467 17.2184 4.61441 16.4009 4.5787C15.6284 4.5443 14.8281 4.5443 14.0212 4.57737C13.1534 4.61177 12.5131 5.28112 12.5316 6.13435C12.5488 6.93599 13.16 7.56301 13.9828 7.62783C14.2593 7.64899 14.5318 7.6437 14.7963 7.63973L14.7977 7.63709Z" fill="url(#paint4_linear_13543_1840)"/>
<path d="M22.0184 7.64996C22.4179 7.64996 22.8266 7.6407 23.242 7.62218C24.0608 7.58646 24.6879 6.94092 24.6998 6.12076C24.7117 5.28076 24.086 4.62993 23.2102 4.57172C22.9338 4.55321 22.6586 4.5585 22.3941 4.56246C22.2777 4.56511 22.1626 4.56643 22.0462 4.56643H21.8742C21.8094 4.56643 21.7445 4.56643 21.6784 4.56379C21.3953 4.5585 21.1017 4.5532 20.8067 4.57569C19.9825 4.63919 19.3754 5.2715 19.3634 6.07843C19.3515 6.90123 19.9772 7.5772 20.7868 7.61953C21.185 7.63938 21.5964 7.64996 22.0184 7.64996Z" fill="url(#paint5_linear_13543_1840)"/>
<path d="M27.2323 40.0324C27.2508 40.0324 27.2706 40.0324 27.2891 40.0324C28.0987 40.0324 28.7469 39.4107 28.8091 38.5654C28.8302 38.2704 28.825 37.9794 28.8197 37.6963C28.817 37.5733 28.8157 37.4489 28.8157 37.3259C28.8157 37.2108 28.8183 37.0957 28.8197 36.9806C28.825 36.7134 28.8302 36.437 28.8091 36.1578C28.7443 35.2808 28.0855 34.6644 27.2389 34.6882C26.4174 34.7133 25.797 35.335 25.7626 36.1658C25.7308 36.9489 25.7295 37.7505 25.7626 38.5482C25.7957 39.3789 26.4147 40.0033 27.2323 40.0324Z" fill="url(#paint6_linear_13543_1840)"/>
<path d="M21.9092 44.6008C22.0375 44.6035 22.1685 44.6061 22.3008 44.6061C22.4608 44.6061 22.6222 44.6021 22.7849 44.5916C23.662 44.5307 24.2824 43.8733 24.2612 43.028C24.2414 42.2025 23.6236 41.5768 22.7929 41.5411C22.0124 41.508 21.2108 41.5067 20.4131 41.5398C19.5453 41.5755 18.9064 42.2462 18.9262 43.0994C18.9461 43.8997 19.5572 44.5267 20.3813 44.5889C20.6591 44.6101 20.933 44.6048 21.1975 44.5995C21.31 44.5968 21.4237 44.5955 21.5362 44.5955C21.6605 44.5968 21.7849 44.5982 21.9092 44.5995V44.6008Z" fill="url(#paint7_linear_13543_1840)"/>
<path d="M25.6446 39.8366C25.6089 39.7295 25.5851 39.6316 25.5626 39.5456C25.5124 39.3459 25.4661 39.158 25.3192 39.0046C25.2041 38.8842 25.0904 38.7625 24.9753 38.6421C24.4263 38.0614 23.8588 37.4595 23.2278 36.937C22.6418 36.4515 21.8428 36.5719 21.2833 37.2293C20.7581 37.8458 20.7541 38.5918 21.274 39.1765C21.864 39.8393 22.45 40.4782 23.1418 41.0139C23.3852 41.2031 23.745 41.2878 24.085 41.2878C24.3139 41.2878 24.5348 41.2494 24.7054 41.1793C25.0494 41.0378 25.257 40.707 25.4237 40.4425C25.4793 40.3539 25.5322 40.2692 25.5811 40.2083L25.7121 40.0417L25.646 39.8393L25.6446 39.8366Z" fill="url(#paint8_linear_13543_1840)"/>
<path d="M21.8664 49.3223C21.9855 49.4057 22.2064 49.5287 22.4829 49.5287C22.7144 49.5287 22.9842 49.4427 23.2647 49.1742C23.393 49.0512 23.5213 48.9294 23.6496 48.8077C24.2224 48.2654 24.8164 47.7045 25.3257 47.0748C25.8019 46.4875 25.6696 45.67 25.0108 45.1303C24.3931 44.625 23.6496 44.6316 23.0689 45.1475C22.4577 45.6912 21.8162 46.2811 21.2857 46.9717C20.8942 47.4823 20.7857 48.022 20.996 48.4162C21.1825 48.7654 21.4431 49.0366 21.8664 49.3223Z" fill="url(#paint9_linear_13543_1840)"/>
<path d="M31.1688 37.0472C30.5722 37.571 29.8883 38.1901 29.3287 38.9137C29.0139 39.3212 28.9927 40.0527 29.17 40.4813C29.3129 40.8265 29.6423 41.0316 29.9068 41.1956C29.9915 41.2485 30.0708 41.2975 30.1251 41.3398L30.2838 41.4641L30.4783 41.4086C30.5841 41.3782 30.678 41.3596 30.76 41.3424C30.9505 41.3028 31.1304 41.2657 31.2799 41.1229C31.4162 40.9919 31.5524 40.8636 31.69 40.7326C32.2694 40.1836 32.87 39.6161 33.3938 38.9878C33.8528 38.4375 33.7377 37.6636 33.1134 37.1041C32.5009 36.5538 31.7548 36.5326 31.1688 37.0472Z" fill="url(#paint10_linear_13543_1840)"/>
<path d="M17.304 26.2423C17.304 27.0095 17.1069 27.6987 16.7113 28.3099C16.3158 28.921 15.7377 29.3999 14.9758 29.7465C14.2138 30.0931 13.3117 30.265 12.2679 30.265C11.0165 30.265 9.98341 30.0282 9.16987 29.556C8.59311 29.216 8.12483 28.761 7.7637 28.1935C7.40256 27.626 7.22266 27.073 7.22266 26.536C7.22266 26.2251 7.33113 25.9579 7.54675 25.7356C7.7637 25.5134 8.03884 25.4023 8.37352 25.4023C8.6447 25.4023 8.87355 25.4883 9.06139 25.6616C9.24924 25.8349 9.4093 26.0915 9.54158 26.4315C9.70297 26.8349 9.87758 27.1722 10.0654 27.4434C10.2533 27.7146 10.5165 27.9382 10.8578 28.1141C11.1978 28.29 11.6449 28.3773 12.1992 28.3773C12.9611 28.3773 13.5789 28.2001 14.0551 27.8456C14.5313 27.491 14.7694 27.0479 14.7694 26.5174C14.7694 26.0968 14.6411 25.7542 14.3845 25.4922C14.1278 25.2303 13.7958 25.0292 13.3897 24.8904C12.9836 24.7515 12.4399 24.6046 11.7587 24.4485C10.8472 24.2355 10.0839 23.9855 9.47015 23.6998C8.85636 23.4141 8.36823 23.0252 8.00842 22.5317C7.64729 22.0383 7.46738 21.4258 7.46738 20.693C7.46738 19.9602 7.65787 19.3755 8.03884 18.8331C8.41982 18.2907 8.97012 17.874 9.69106 17.583C10.412 17.292 11.2599 17.1465 12.2349 17.1465C13.014 17.1465 13.6873 17.2431 14.2548 17.4362C14.8223 17.6293 15.2946 17.8859 15.6689 18.2061C16.0433 18.5262 16.3185 18.8622 16.4904 19.2141C16.6637 19.5659 16.7497 19.9099 16.7497 20.2432C16.7497 20.5488 16.6412 20.824 16.4256 21.07C16.2087 21.3147 15.9401 21.4378 15.616 21.4378C15.3224 21.4378 15.0988 21.3637 14.9454 21.2168C14.7919 21.07 14.6266 20.8293 14.448 20.4946C14.2178 20.0157 13.94 19.6427 13.6172 19.3741C13.2945 19.1056 12.7746 18.972 12.0603 18.972C11.3962 18.972 10.8618 19.1175 10.4557 19.4085C10.0496 19.6996 9.84583 20.0501 9.84583 20.4602C9.84583 20.7142 9.91462 20.9338 10.0535 21.1176C10.1924 21.3028 10.3829 21.4602 10.625 21.5939C10.8671 21.7261 11.1118 21.8306 11.3605 21.9047C11.6078 21.9801 12.0179 22.0899 12.5894 22.2341C13.305 22.4021 13.9519 22.586 14.5313 22.7884C15.1107 22.9908 15.6041 23.2355 16.0116 23.5239C16.4177 23.8122 16.7352 24.1773 16.964 24.6178C17.1915 25.0597 17.3053 25.5994 17.3053 26.2396L17.304 26.2423Z" fill="url(#paint11_linear_13543_1840)"/>
<path d="M27.8434 19.3468H22.0546V22.462H27.3843C27.7759 22.462 28.0696 22.5507 28.2627 22.7266C28.4558 22.9026 28.5524 23.1354 28.5524 23.4237C28.5524 23.7121 28.4572 23.9476 28.2667 24.1288C28.0762 24.31 27.7825 24.4013 27.3843 24.4013H22.0546V28.01H28.0418C28.4452 28.01 28.7495 28.1039 28.9545 28.2918C29.1596 28.4796 29.2614 28.7283 29.2614 29.0405C29.2614 29.3527 29.1596 29.5842 28.9545 29.772C28.7495 29.9599 28.4452 30.0538 28.0418 30.0538H21.0585C20.499 30.0538 20.0968 29.9294 19.8521 29.6821C19.6074 29.4347 19.4844 29.0326 19.4844 28.4796V18.9446C19.4844 18.5756 19.5386 18.274 19.6484 18.0398C19.7582 17.8057 19.9302 17.6364 20.163 17.5292C20.3971 17.4221 20.6948 17.3691 21.0585 17.3691H27.842C28.2521 17.3691 28.5564 17.4604 28.7548 17.6416C28.9532 17.8229 29.0538 18.061 29.0538 18.356C29.0538 18.651 28.9545 18.897 28.7548 19.0782C28.555 19.2595 28.2508 19.3507 27.842 19.3507L27.8434 19.3468Z" fill="url(#paint12_linear_13543_1840)"/>
<path d="M36.7219 30.0499H32.846C32.2865 30.0499 31.887 29.9242 31.6476 29.6729C31.4081 29.4215 31.2891 29.022 31.2891 28.4744V18.9394C31.2891 18.3798 31.4121 17.9777 31.6568 17.733C31.9015 17.4883 32.2984 17.3652 32.846 17.3652H36.9561C37.5619 17.3652 38.0871 17.4023 38.5303 17.4777C38.9747 17.5531 39.3729 17.6973 39.7248 17.9102C40.0251 18.0888 40.2896 18.315 40.5211 18.5889C40.7513 18.8627 40.9272 19.1656 41.0489 19.4976C41.1706 19.8297 41.2302 20.1802 41.2302 20.5493C41.2302 21.8179 40.5952 22.7465 39.3266 23.3352C40.9934 23.8656 41.8268 24.8988 41.8268 26.4333C41.8268 27.1423 41.6455 27.7812 41.2817 28.35C40.918 28.9189 40.4285 29.3382 39.8108 29.6094C39.4245 29.7708 38.98 29.8845 38.4787 29.9507C37.9773 30.0168 37.3913 30.0499 36.7219 30.0499ZM33.858 19.2939V22.5732H36.2113C36.8516 22.5732 37.3463 22.5124 37.6955 22.392C38.0448 22.2703 38.3107 22.0401 38.4959 21.7002C38.64 21.4581 38.7128 21.1869 38.7128 20.8866C38.7128 20.2464 38.4853 19.8204 38.0289 19.6101C37.5725 19.3998 36.878 19.2939 35.9441 19.2939H33.8593H33.858ZM36.5315 24.4159H33.858V28.1199H36.6188C38.3543 28.1199 39.2234 27.4942 39.2234 26.2428C39.2234 25.6025 38.9985 25.1382 38.5488 24.8498C38.099 24.5614 37.427 24.4173 36.5328 24.4173L36.5315 24.4159Z" fill="url(#paint13_linear_13543_1840)"/>
<path d="M44.1523 28.6994V18.7054C44.1523 18.1869 44.2701 17.7966 44.5069 17.5374C44.7437 17.2781 45.0492 17.1484 45.4236 17.1484C45.798 17.1484 46.1234 17.2768 46.3628 17.5334C46.6022 17.79 46.7213 18.1816 46.7213 18.7054V28.6994C46.7213 29.2246 46.6009 29.6161 46.3628 29.8767C46.1234 30.136 45.8099 30.2657 45.4236 30.2657C45.0373 30.2657 44.7503 30.1347 44.5108 29.8714C44.2714 29.6095 44.1523 29.218 44.1523 28.6994Z" fill="url(#paint14_linear_13543_1840)"/>
<defs>
<linearGradient id="paint0_linear_13543_1840" x1="27.7213" y1="-1.24346" x2="27.7213" y2="55.7324" gradientUnits="userSpaceOnUse">
<stop stop-color="#00EFD1"/>
<stop offset="1" stop-color="#00ACEA"/>
</linearGradient>
<linearGradient id="paint1_linear_13543_1840" x1="36.9889" y1="41.0681" x2="36.9889" y2="64.0799" gradientUnits="userSpaceOnUse">
<stop stop-color="#00EFD1"/>
<stop offset="1" stop-color="#00ACEA"/>
</linearGradient>
<linearGradient id="paint2_linear_13543_1840" x1="27.7273" y1="9.05001" x2="27.7273" y2="12.2176" gradientUnits="userSpaceOnUse">
<stop stop-color="#00EFD1"/>
<stop offset="1" stop-color="#00ACEA"/>
</linearGradient>
<linearGradient id="paint3_linear_13543_1840" x1="8.37072" y1="4.48157" x2="8.37072" y2="7.65304" gradientUnits="userSpaceOnUse">
<stop stop-color="#00EFD1"/>
<stop offset="1" stop-color="#00ACEA"/>
</linearGradient>
<linearGradient id="paint4_linear_13543_1840" x1="15.1991" y1="4.48354" x2="15.1991" y2="7.65416" gradientUnits="userSpaceOnUse">
<stop stop-color="#00EFD1"/>
<stop offset="1" stop-color="#00ACEA"/>
</linearGradient>
<linearGradient id="paint5_linear_13543_1840" x1="22.0316" y1="4.48938" x2="22.0316" y2="7.66074" gradientUnits="userSpaceOnUse">
<stop stop-color="#00EFD1"/>
<stop offset="1" stop-color="#00ACEA"/>
</linearGradient>
<linearGradient id="paint6_linear_13543_1840" x1="27.2813" y1="34.5678" x2="27.2813" y2="40.0511" gradientUnits="userSpaceOnUse">
<stop stop-color="#00EFD1"/>
<stop offset="1" stop-color="#00ACEA"/>
</linearGradient>
<linearGradient id="paint7_linear_13543_1840" x1="21.5938" y1="41.4464" x2="21.5938" y2="44.6169" gradientUnits="userSpaceOnUse">
<stop stop-color="#00EFD1"/>
<stop offset="1" stop-color="#00ACEA"/>
</linearGradient>
<linearGradient id="paint8_linear_13543_1840" x1="23.2994" y1="36.5366" x2="23.2994" y2="41.304" gradientUnits="userSpaceOnUse">
<stop stop-color="#00EFD1"/>
<stop offset="1" stop-color="#00ACEA"/>
</linearGradient>
<linearGradient id="paint9_linear_13543_1840" x1="23.2504" y1="44.649" x2="23.2504" y2="49.5453" gradientUnits="userSpaceOnUse">
<stop stop-color="#00EFD1"/>
<stop offset="1" stop-color="#00ACEA"/>
</linearGradient>
<linearGradient id="paint10_linear_13543_1840" x1="31.366" y1="36.5686" x2="31.366" y2="41.4808" gradientUnits="userSpaceOnUse">
<stop stop-color="#00EFD1"/>
<stop offset="1" stop-color="#00ACEA"/>
</linearGradient>
<linearGradient id="paint11_linear_13543_1840" x1="12.264" y1="16.8528" x2="12.264" y2="30.3108" gradientUnits="userSpaceOnUse">
<stop stop-color="#00EFD1"/>
<stop offset="1" stop-color="#00ACEA"/>
</linearGradient>
<linearGradient id="paint12_linear_13543_1840" x1="24.3729" y1="17.0851" x2="24.3729" y2="30.098" gradientUnits="userSpaceOnUse">
<stop stop-color="#00EFD1"/>
<stop offset="1" stop-color="#00ACEA"/>
</linearGradient>
<linearGradient id="paint13_linear_13543_1840" x1="36.5579" y1="17.0812" x2="36.5579" y2="30.0941" gradientUnits="userSpaceOnUse">
<stop stop-color="#00EFD1"/>
<stop offset="1" stop-color="#00ACEA"/>
</linearGradient>
<linearGradient id="paint14_linear_13543_1840" x1="45.4368" y1="16.8548" x2="45.4368" y2="30.3114" gradientUnits="userSpaceOnUse">
<stop stop-color="#00EFD1"/>
<stop offset="1" stop-color="#00ACEA"/>
</linearGradient>
</defs>
</svg>
