<svg width="72" height="64" viewBox="0 0 72 64" fill="none" xmlns="http://www.w3.org/2000/svg">
<path d="M69.6262 1.927C68.3758 0.675007 66.6245 0.0134606 64.5626 0.011915C49.9298 0.00882363 35.2969 0.0103693 20.6641 0.011915H19.4213C16.7875 0.00264095 8.2276 -0.0128157 6.60774 0.0196433C3.65242 0.0783788 1.25199 1.78789 0.343139 4.48199C0.261218 4.72312 0.188572 4.96733 0.119017 5.20382C0.0865575 5.31356 0.0540984 5.4233 0.0200937 5.53305L0 5.59951V23.2526L0.0200937 23.3191C0.0540984 23.4273 0.0865575 23.537 0.119017 23.6452C0.190117 23.8817 0.262764 24.1259 0.344684 24.3686C1.29063 27.1662 3.76371 28.8371 6.96479 28.8387C14.1522 28.8433 21.3411 28.8417 28.5284 28.8417H37.2321C37.2321 28.8665 37.2336 28.8912 37.2336 28.9144V30.5837C37.2367 34.6457 37.2383 38.8469 37.2213 42.9784C37.2213 42.9985 37.2166 43.0217 37.2089 43.0495C37.1888 43.0279 37.1734 43.0078 37.1656 42.9893C36.6865 41.9969 36.2104 40.9799 35.7498 39.9968C35.215 38.8546 34.6616 37.6722 34.099 36.5191C33.0897 34.451 30.7681 33.6148 28.7015 34.5762C26.6489 35.5299 25.74 37.9473 26.6736 39.9644C27.2471 41.204 27.8174 42.4467 28.3878 43.6879C30.343 47.9462 32.3663 52.3498 34.5163 56.6035C36.3619 60.2544 39.7855 62.8388 43.9109 63.6951C44.8878 63.8975 45.8677 63.998 46.8384 63.998C50.0395 63.998 53.1231 62.9099 55.5977 60.8557C56.4247 60.1678 56.5932 59.3316 56.046 58.616C55.7894 58.2806 55.4555 58.0812 55.0784 58.0364C54.6456 57.9854 54.1881 58.1461 53.7553 58.5001C51.0736 60.6903 47.6221 61.4909 44.2896 60.698C40.8953 59.8912 38.1193 57.5696 36.6757 54.3283C35.572 51.8537 34.3927 49.3652 33.2504 46.9601C32.7187 45.8379 32.1855 44.7173 31.6584 43.5921C31.4575 43.1624 31.2534 42.7327 31.051 42.3014C30.5192 41.1746 29.9705 40.0092 29.4512 38.8561C29.2812 38.4775 29.2781 38.0941 29.4419 37.7742C29.5949 37.4774 29.8763 37.2749 30.2333 37.2023C30.7449 37.0987 31.1993 37.38 31.4807 37.972C31.8408 38.7309 32.1963 39.4914 32.5518 40.2534C33.1964 41.6322 33.8625 43.0588 34.5457 44.4499C34.8301 45.0311 35.2629 45.5473 35.7312 45.8688C36.6293 46.484 37.7082 46.4995 38.7669 45.9121C39.7407 45.3727 40.2338 44.4855 40.2322 43.2752C40.2276 37.7742 40.2291 32.2731 40.2291 26.7705V23.2789C40.2291 23.2155 40.2291 23.1537 40.2291 23.0903C40.2261 22.9079 40.2245 22.7364 40.2446 22.5787C40.3126 22.0423 40.767 21.6204 41.2817 21.6173H41.2864C41.7872 21.6173 42.2895 22.0964 42.339 22.6251C42.3529 22.7719 42.3513 22.9265 42.3498 23.0919C42.3498 23.1506 42.3498 23.2109 42.3498 23.2696V27.8231C42.3498 31.5235 42.3498 35.2223 42.3529 38.9226C42.3529 39.9768 42.9387 40.6615 43.8445 40.6677H43.8568C44.7657 40.6677 45.336 40.0077 45.3453 38.9427C45.3484 38.5748 45.3469 38.207 45.3453 37.8391C45.3438 37.4712 45.3438 37.1034 45.3453 36.7355C45.353 35.9225 45.7503 35.4062 46.3856 35.3892C46.6313 35.3799 46.8709 35.4727 47.0548 35.652C47.3099 35.8993 47.4582 36.2981 47.4613 36.7463C47.4629 37.0462 47.4613 37.346 47.4613 37.6443C47.4582 38.1668 47.4552 38.7047 47.4737 39.2395C47.4892 39.697 47.6453 40.0865 47.925 40.3647C48.2048 40.6445 48.5974 40.7913 49.0256 40.7759C49.8726 40.748 50.4213 40.1576 50.4553 39.2333C50.4646 39.003 50.4615 38.7758 50.4615 38.5532C50.4615 38.4079 50.4599 38.2626 50.4615 38.1189C50.4677 37.6459 50.6068 37.2533 50.8541 37.0137C51.0349 36.8375 51.2652 36.7478 51.5357 36.754C52.1401 36.7633 52.5698 37.3136 52.5837 38.0941C52.5868 38.2394 52.5837 38.3832 52.5837 38.5285C52.5806 38.8731 52.576 39.2302 52.6223 39.5903C52.7274 40.4157 53.2978 40.9181 54.1247 40.8933C54.9362 40.8732 55.4617 40.3833 55.5668 39.5501C55.5746 39.4837 55.5823 39.4157 55.5885 39.3492C55.6024 39.2178 55.6147 39.0942 55.6395 38.9844C55.7477 38.5269 56.0213 38.2688 56.502 38.1745C56.9038 38.0957 57.2331 38.241 57.4263 38.581C57.5886 38.8685 57.689 39.2688 57.6921 39.6522C57.7045 41.0448 57.7014 42.4606 57.6983 43.8317C57.6952 45.5582 57.6921 47.3434 57.7169 49.1008C57.754 51.6898 57.2872 53.7409 56.2485 55.5571C56.0135 55.9667 55.9502 56.3918 56.0614 56.7875C56.1665 57.16 56.4262 57.4737 56.7941 57.6747C57.5577 58.092 58.3892 57.8169 58.8637 56.9899C59.9967 55.0161 60.5686 53.1984 60.6103 51.4333C60.717 46.991 60.7 42.66 60.6691 39.0092C60.6521 37.074 59.2378 35.4943 57.3057 35.2532C56.6828 35.1759 56.0738 35.2702 55.4293 35.3707C55.2391 35.4 55.0444 35.4309 54.8481 35.4557C54.3071 34.7153 53.5049 34.1666 52.559 33.8945C51.4971 33.59 50.5357 33.8404 49.7675 34.1604C48.6438 32.6889 47.1738 32.1387 45.387 32.5189V28.8356H45.843C47.6932 28.8356 49.5434 28.8356 51.3935 28.8356C55.7214 28.8371 60.1961 28.8387 64.5982 28.8309C68.7467 28.8232 71.5351 26.0302 71.5382 21.8816C71.5413 16.9169 71.5398 11.9522 71.5382 6.98752C71.5382 4.92405 70.8767 3.17126 69.6278 1.92082L69.6262 1.927ZM17.0781 3.00588C17.6917 3.00588 18.2497 3.00588 18.7212 3.00588H37.3619C46.4056 3.00588 55.4509 3.00588 64.4946 3.00588C67.1408 3.00588 68.5396 4.41244 68.5412 7.07563C68.5412 11.9939 68.5412 16.9123 68.5412 21.8306C68.5412 24.4165 67.1068 25.8416 64.5054 25.8431C60.0477 25.8462 55.59 25.8447 51.1308 25.8447H45.3422C45.3422 25.6005 45.3438 25.3609 45.3453 25.1229C45.3499 24.2434 45.353 23.4118 45.336 22.5694C45.3098 21.2309 44.7023 20.1164 43.5786 19.3482C42.2942 18.4703 40.8907 18.3683 39.5197 19.0515C38.0899 19.764 37.3047 20.9882 37.2491 22.588C37.2197 23.435 37.2275 24.2959 37.2336 25.129C37.2352 25.3655 37.2383 25.602 37.2383 25.8401C34.7528 25.8401 32.2674 25.8416 29.7804 25.8431C22.2097 25.8462 14.3809 25.8509 6.68193 25.8308C4.44689 25.8246 3.00014 24.333 2.9986 22.0284C2.99396 17.4703 2.99396 12.5087 2.9986 6.86078C3.00014 4.49745 4.47471 3.01979 6.84577 3.00742C7.33111 3.00433 8.51355 3.00433 9.96802 3.00433C11.0237 3.00433 12.2247 3.00433 13.4087 3.00433C14.5989 3.00433 15.8014 2.99969 16.8679 3.00433C16.939 3.00433 17.0101 3.00433 17.0797 3.00433L17.0781 3.00588Z" fill="url(#paint0_linear_13535_1821)"/>
<path d="M14.5095 6.93164C13.7227 6.93473 13.1261 7.36597 12.8324 8.14345C12.3038 9.54073 11.7736 10.938 11.2419 12.3353C10.2991 14.8207 9.35621 17.3062 8.41799 19.7932C8.24951 20.2399 8.25106 20.6958 8.42417 21.0761C8.57874 21.4192 8.86624 21.682 9.23256 21.8195C9.41495 21.8875 9.59734 21.9215 9.77509 21.9215C10.381 21.9215 10.9266 21.5398 11.2002 20.8767C11.3099 20.6108 11.4104 20.3403 11.5078 20.0791C11.6345 19.736 11.7551 19.4114 11.8973 19.0945C11.9112 19.0651 11.9591 19.0126 11.9947 18.9863C13.4028 18.9662 14.8387 18.9678 16.2283 18.9693H17.0645C17.1093 19.0883 17.1526 19.2058 17.1958 19.3217C17.3829 19.821 17.5591 20.2924 17.7477 20.7716C18.1109 21.6897 18.8837 22.1055 19.7184 21.8304C20.094 21.7067 20.3907 21.4517 20.5515 21.1147C20.7385 20.7237 20.7401 20.2352 20.5561 19.7406C19.2794 16.3231 17.9718 12.8531 16.709 9.49591L16.1989 8.1419C15.9052 7.36288 15.3101 6.93473 14.5203 6.93473H14.511L14.5095 6.93164ZM14.5064 12.1668L15.933 15.9522H13.0766L14.5064 12.1668Z" fill="url(#paint1_linear_13535_1821)"/>
<path d="M35.5038 21.9179C35.5223 21.9179 35.5424 21.9179 35.5609 21.9179C35.9505 21.9179 36.292 21.7865 36.5502 21.5376C36.8748 21.2238 37.0494 20.7431 37.051 20.1481C37.0556 19.2763 37.0541 18.4061 37.0525 17.4725V16.6471C37.2133 16.6502 37.374 16.6548 37.5301 16.6579C38.2195 16.6765 38.8687 16.6935 39.5318 16.6224C41.9847 16.3596 43.8272 14.2792 43.8179 11.7814C43.8102 9.27582 41.943 7.2139 39.4777 6.98514C38.4467 6.88931 37.4003 6.89858 36.3879 6.90785C36.1869 6.9094 35.9845 6.91095 35.7835 6.91249C34.6073 6.91867 34.0586 7.48748 34.057 8.70392C34.0539 12.5186 34.0539 16.3333 34.057 20.1481C34.057 21.2254 34.598 21.8869 35.5022 21.9163L35.5038 21.9179ZM37.1066 13.7397V9.97755C37.2442 9.97446 37.3802 9.97137 37.5147 9.96673C38.1484 9.94819 38.7481 9.93118 39.3339 10.0023C40.1516 10.1012 40.8054 10.8756 40.8239 11.7643C40.8425 12.6732 40.1979 13.4847 39.3587 13.613C38.7713 13.7026 38.1654 13.7165 37.5239 13.7304C37.3879 13.7335 37.2488 13.7366 37.1082 13.7397H37.1066Z" fill="url(#paint2_linear_13535_1821)"/>
<path d="M23.9766 21.9209C23.9766 21.9209 23.9905 21.9209 23.9982 21.9209C24.397 21.9209 24.7433 21.788 24.9998 21.5361C25.3198 21.2207 25.4836 20.7478 25.4852 20.128C25.4883 19.2531 25.4867 18.3767 25.4867 17.4539V16.6734C25.6351 16.6765 25.7804 16.6796 25.9241 16.6827C26.5656 16.6981 27.1715 16.712 27.7851 16.6533C30.3927 16.4029 32.2738 14.3456 32.2552 11.7643C32.2382 9.2449 30.3077 7.18143 27.7635 6.96658C26.8206 6.88621 25.8639 6.89702 24.9411 6.90784C24.7201 6.91094 24.499 6.91248 24.278 6.91403C23.06 6.92021 22.4928 7.49674 22.4912 8.7271C22.4866 12.5186 22.4881 16.3102 22.4912 20.1017C22.4912 21.431 23.2594 21.9132 23.9766 21.9225V21.9209ZM25.513 13.6392V9.88326C25.6645 9.8879 25.8159 9.89099 25.9643 9.89408C26.6475 9.90799 27.2936 9.9219 27.9181 10.0332C28.7063 10.1723 29.2952 10.9977 29.2566 11.9096C29.2211 12.7706 28.5703 13.5187 27.7759 13.6161C27.1931 13.6872 26.5888 13.6701 25.9504 13.6516C25.8067 13.647 25.6598 13.6439 25.513 13.6408V13.6392Z" fill="url(#paint3_linear_13535_1821)"/>
<path d="M54.0418 10.984C54.7698 12.0984 55.5225 13.2515 56.2397 14.3969C56.3773 14.6163 56.4654 14.9147 56.4685 15.1759C56.4824 16.196 56.4762 17.2378 56.47 18.244C56.4654 18.8747 56.4623 19.5053 56.4638 20.1344C56.4638 20.7356 56.6338 21.2179 56.9553 21.5301C57.2135 21.7821 57.5597 21.915 57.9569 21.915C57.9708 21.915 57.9848 21.915 57.9987 21.915C58.8998 21.8949 59.4439 21.2364 59.4547 20.156C59.4593 19.6058 59.4609 19.0555 59.4609 18.5052C59.4609 17.4666 59.4609 16.3923 59.4964 15.3413C59.5088 14.9641 59.634 14.5406 59.8226 14.2346C60.5815 13.0057 61.3868 11.7739 62.1658 10.5837C62.4286 10.1818 62.6898 9.78148 62.951 9.37961C63.4101 8.67324 63.3869 7.97923 62.8892 7.52326C62.529 7.19403 61.9386 6.99464 61.4532 7.04101C60.9911 7.08429 60.6062 7.52017 60.3666 7.87876C59.685 8.89427 59.0296 9.91132 58.3341 10.9871C58.2166 11.1695 58.0976 11.3534 57.977 11.5389L55.8193 8.22809C55.4591 7.67474 54.6167 6.37946 53.3648 7.15539C53.0092 7.37642 52.7898 7.66082 52.714 8.00242C52.6058 8.48776 52.7836 9.05193 53.289 9.83094C53.5394 10.2158 53.7898 10.5991 54.0402 10.984H54.0418Z" fill="url(#paint4_linear_13535_1821)"/>
<path d="M47.0553 21.9178C47.7339 21.9317 48.4078 21.9379 49.0709 21.9379C49.8437 21.9379 50.6042 21.9286 51.343 21.91C52.1777 21.8899 52.7836 21.2639 52.7836 20.4231C52.7836 19.6101 52.2256 19.0335 51.3631 18.9532C51.1313 18.9315 50.9056 18.9331 50.6877 18.9346C50.6243 18.9346 50.5609 18.9346 50.496 18.9346C49.9581 18.9346 49.4202 18.9346 48.8514 18.9346H48.618V15.9499C48.618 13.5495 48.618 11.1475 48.6165 8.74711C48.6149 7.42401 47.8483 6.93867 47.1311 6.92785C46.7246 6.92322 46.366 7.05305 46.1063 7.30963C45.7863 7.62341 45.6241 8.09638 45.6241 8.71619C45.621 11.2542 45.6225 13.7906 45.6225 16.3286V18.2854C45.6225 18.4756 45.6225 18.6657 45.6225 18.8558C45.621 19.3705 45.6179 19.9038 45.6318 20.4324C45.6565 21.3165 46.2145 21.8992 47.0553 21.9162V21.9178Z" fill="url(#paint5_linear_13535_1821)"/>
<defs>
<linearGradient id="paint0_linear_13535_1821" x1="35.7699" y1="-1.43285" x2="35.7699" y2="64.2212" gradientUnits="userSpaceOnUse">
<stop stop-color="#00EFD1"/>
<stop offset="1" stop-color="#00ACEA"/>
</linearGradient>
<linearGradient id="paint1_linear_13535_1821" x1="14.4929" y1="6.59603" x2="14.4929" y2="21.9738" gradientUnits="userSpaceOnUse">
<stop stop-color="#00EFD1"/>
<stop offset="1" stop-color="#00ACEA"/>
</linearGradient>
<linearGradient id="paint2_linear_13535_1821" x1="38.9363" y1="6.56616" x2="38.9363" y2="21.9702" gradientUnits="userSpaceOnUse">
<stop stop-color="#00EFD1"/>
<stop offset="1" stop-color="#00ACEA"/>
</linearGradient>
<linearGradient id="paint3_linear_13535_1821" x1="27.3718" y1="6.56406" x2="27.3718" y2="21.9749" gradientUnits="userSpaceOnUse">
<stop stop-color="#00EFD1"/>
<stop offset="1" stop-color="#00ACEA"/>
</linearGradient>
<linearGradient id="paint4_linear_13535_1821" x1="57.9816" y1="6.57821" x2="57.9816" y2="21.9673" gradientUnits="userSpaceOnUse">
<stop stop-color="#00EFD1"/>
<stop offset="1" stop-color="#00ACEA"/>
</linearGradient>
<linearGradient id="paint5_linear_13535_1821" x1="49.2023" y1="6.59167" x2="49.2023" y2="21.9902" gradientUnits="userSpaceOnUse">
<stop stop-color="#00EFD1"/>
<stop offset="1" stop-color="#00ACEA"/>
</linearGradient>
</defs>
</svg>
