<svg width="64" height="64" viewBox="0 0 64 64" fill="none" xmlns="http://www.w3.org/2000/svg">
<path d="M61.774 48.6622C57.3808 45.7185 53.375 43.0418 49.5282 40.4808C47.3949 39.0607 45.1705 39.4219 43.5805 41.4487C42.9738 42.2221 42.3718 42.9985 41.7713 43.775C41.2527 44.445 40.7325 45.1149 40.2107 45.7833C39.6287 46.5258 39.0869 46.6555 38.3383 46.2294L37.8566 45.9562C36.702 45.3017 35.5087 44.6271 34.4096 43.8692C30.5783 41.2295 27.3582 37.9384 24.3898 34.7925C21.5556 31.7901 19.4115 28.8432 17.837 25.7852C17.3167 24.7772 17.4109 24.3172 18.2707 23.6442C18.6983 23.3108 19.1259 22.9773 19.5535 22.6439C20.5198 21.8906 21.5201 21.1126 22.4972 20.3392C22.772 20.1216 23.124 19.8267 23.4065 19.4748C24.6043 17.9759 24.6321 16.1204 23.4806 14.3869C22.6068 13.0701 21.7301 11.7565 20.8533 10.4428C19.1583 7.90198 17.4047 5.27622 15.7067 2.6767C15.0028 1.59768 14.0627 0.438398 12.4357 0.0123493L12.3878 0H11.0032L10.9137 0.0509407C10.1773 0.473903 9.42094 0.896864 8.68924 1.30439C6.99894 2.24911 5.24998 3.22624 3.59363 4.296C1.13613 5.88751 0.509407 8.56421 0.251616 10.4413C0.197588 10.8365 0.140473 11.2332 0.0833575 11.6284L0.00308731 12.1903L0 15.1278L0.049397 15.3409C0.0771828 15.4582 0.103425 15.5755 0.128123 15.6928C0.250072 16.2763 0.358128 16.8753 0.464641 17.4557C0.697733 18.7338 0.936999 20.0536 1.33063 21.3179C2.88664 26.3178 5.58341 31.1139 10.077 36.8671C13.0424 40.6645 16.4955 44.4125 20.631 48.3211C25.4997 52.9227 29.8806 56.3064 34.4174 58.9692C38.2765 61.2338 41.8748 62.6987 45.419 63.4489C46.1831 63.611 46.9627 63.7268 47.7175 63.8395C48.0664 63.8919 48.4152 63.9429 48.7626 64L51.8113 64.0046L51.8406 64C52.0135 63.9738 52.1848 63.946 52.3577 63.9182C52.722 63.8595 53.0971 63.7993 53.4661 63.7515C56.7232 63.3347 59.0202 61.8034 60.4897 59.0696C61.0223 58.077 61.6274 57.0952 62.2124 56.1474C62.5057 55.672 62.8083 55.1795 63.1 54.6902C64.4708 52.3917 63.9753 50.1395 61.774 48.6638V48.6622ZM15.2791 27.139C17.8431 32.1266 21.5849 36.1771 24.9084 39.4806C27.6114 42.1681 30.5876 44.9513 34.0469 47.0985C34.8743 47.6125 35.7696 48.125 36.952 48.7626C38.9603 49.8462 41.0057 49.4171 42.4228 47.6172C43.0742 46.7898 43.7287 45.9454 44.3616 45.1273C44.8386 44.5113 45.314 43.897 45.7926 43.2841C46.5026 42.3749 47.0337 42.2854 47.9768 42.9152C52.0413 45.6274 56.1042 48.3442 60.1656 51.0626C61.064 51.6631 61.2013 52.2528 60.6564 53.1666C60.3492 53.6822 60.0313 54.2024 59.7225 54.7072C59.1112 55.7059 58.4814 56.7386 57.9041 57.7837C56.9223 59.562 55.408 60.5715 53.2716 60.871C52.631 60.9605 51.995 61.0238 51.484 61.0748C51.3019 61.0933 51.1398 61.1087 51.004 61.1242C47.6419 61.1458 44.5098 60.5144 41.1462 59.1298C36.4627 57.2017 31.9568 54.3336 26.9646 50.104C20.1648 44.3431 14.6786 38.4972 10.1928 32.2331C7.09928 27.9139 5.0987 24.0347 3.8931 20.0243C2.98389 16.9987 2.68596 14.302 2.9808 11.7796C3.08423 10.8874 3.22933 10.094 3.42383 9.34993C3.76961 8.02547 4.60627 6.9588 5.90912 6.17771C6.60222 5.76247 7.29532 5.34414 7.98842 4.92735C8.94858 4.35002 9.90873 3.77115 10.8704 3.19691C11.1977 3.00241 11.4894 2.90362 11.758 2.90362C12.1841 2.90362 12.5484 3.15215 12.8849 3.65692C15.9413 8.24467 18.6196 12.2752 21.0755 15.9784C21.656 16.8536 21.5603 17.4233 20.722 18.0839C19.7634 18.8388 18.7832 19.6013 17.8354 20.3377C17.3893 20.685 16.9416 21.0323 16.4955 21.3812C14.5181 22.9233 14.1075 24.8606 15.2791 27.139Z" fill="url(#paint0_linear_13535_1808)"/>
<path d="M35.8544 11.2614C36.1415 11.3201 36.4534 11.3525 36.8393 11.3649C39.448 11.4405 41.9287 12.0996 44.2118 13.3238C48.6359 15.6948 51.5534 19.2699 52.884 23.9488C53.1989 25.0556 53.3317 26.2519 53.4598 27.4081C53.5092 27.8496 53.5602 28.305 53.6204 28.7526C53.7469 29.6973 54.3027 30.2808 55.0714 30.2808C55.0776 30.2808 55.0822 30.2808 55.0884 30.2808C55.4944 30.2762 55.8602 30.1157 56.118 29.8301C56.3928 29.526 56.5224 29.1046 56.4808 28.6446C56.4545 28.3559 56.4314 28.0657 56.4067 27.777C56.3125 26.6162 56.2137 25.4152 55.9513 24.2575C53.9306 15.3645 46.183 8.88576 37.1094 8.50293H37.0924C36.9967 8.50293 36.8933 8.4983 36.7837 8.49212C36.4919 8.47977 36.1616 8.46434 35.8266 8.52145C35.1243 8.64186 34.709 9.18986 34.7399 9.94934C34.7692 10.644 35.1752 11.1225 35.8529 11.2614H35.8544Z" fill="url(#paint1_linear_13535_1808)"/>
<path d="M35.9188 17.5911C36.0763 17.622 36.2276 17.6328 36.3758 17.6436C36.4977 17.6528 36.6135 17.6606 36.7184 17.6791C37.0225 17.7331 37.3328 17.7794 37.6338 17.8227C38.3516 17.9276 39.0293 18.0264 39.6684 18.2456C44.2515 19.8124 47.0393 23.6067 47.3187 28.6545C47.3728 29.644 47.9362 30.28 48.7559 30.28C48.7621 30.28 48.7682 30.28 48.7744 30.28C49.1557 30.2753 49.4891 30.1364 49.7392 29.8786C50.0433 29.5652 50.1977 29.1037 50.1868 28.5449C50.0387 21.1786 44.1697 15.1336 36.8234 14.7832H36.8049C36.737 14.7832 36.6675 14.7816 36.5996 14.7801C36.439 14.777 36.2723 14.7739 36.101 14.7863C35.3245 14.8419 34.775 15.3744 34.7333 16.1107C34.6901 16.8733 35.1439 17.4398 35.9173 17.5911H35.9188Z" fill="url(#paint2_linear_13535_1808)"/>
<path d="M36.5208 21.1043C36.4838 21.1043 36.4467 21.1043 36.4097 21.1043C36.3201 21.1043 36.226 21.1012 36.1272 21.1074C35.3399 21.1552 34.795 21.6646 34.7394 22.4071C34.6823 23.1697 35.1115 23.7331 35.8864 23.9137C36.0747 23.957 36.2599 23.9739 36.4375 23.9894C36.493 23.994 36.5486 23.9986 36.6042 24.0048C37.5751 24.1052 38.4103 24.4448 39.1574 25.0406C40.2904 25.9467 40.9033 27.1894 41.0314 28.838C41.0978 29.6886 41.6828 30.2798 42.4392 30.2798C42.4716 30.2798 42.504 30.2798 42.5364 30.2767C43.353 30.2227 43.898 29.5589 43.8887 28.625C43.8532 24.6748 40.4834 21.2309 36.5316 21.1058H36.5193L36.5208 21.1043Z" fill="url(#paint3_linear_13535_1808)"/>
<defs>
<linearGradient id="paint0_linear_13535_1808" x1="31.9315" y1="-1.433" x2="31.9315" y2="64.2279" gradientUnits="userSpaceOnUse">
<stop stop-color="#00EFD1"/>
<stop offset="1" stop-color="#00ACEA"/>
</linearGradient>
<linearGradient id="paint1_linear_13535_1808" x1="45.6133" y1="7.99238" x2="45.6133" y2="30.3569" gradientUnits="userSpaceOnUse">
<stop stop-color="#00EFD1"/>
<stop offset="1" stop-color="#00ACEA"/>
</linearGradient>
<linearGradient id="paint2_linear_13535_1808" x1="42.4589" y1="14.4303" x2="42.4589" y2="30.334" gradientUnits="userSpaceOnUse">
<stop stop-color="#00EFD1"/>
<stop offset="1" stop-color="#00ACEA"/>
</linearGradient>
<linearGradient id="paint3_linear_13535_1808" x1="39.3116" y1="20.8981" x2="39.3116" y2="30.3118" gradientUnits="userSpaceOnUse">
<stop stop-color="#00EFD1"/>
<stop offset="1" stop-color="#00ACEA"/>
</linearGradient>
</defs>
</svg>
