<svg width="64" height="64" viewBox="0 0 64 64" fill="none" xmlns="http://www.w3.org/2000/svg">
<path d="M0.301432 50.3174C1.66953 57.3442 7.10498 62.6235 14.1486 63.765C15.0601 63.9127 16.0387 63.9882 17.0593 63.9899C29.7516 64.0034 42.6587 64.0017 55.1377 63.9983H57.9578C61.4276 63.9983 63.7592 61.6516 63.7609 58.1617V46.5488C63.7609 36.106 63.7609 25.3072 63.771 14.6865C63.771 13.9076 63.5326 13.3234 62.9988 12.7913C60.9676 10.7702 58.9415 8.74574 56.9154 6.71961C54.9279 4.73378 52.9404 2.74626 50.9478 0.763783C50.743 0.558989 50.4996 0.394481 50.2411 0.218224C50.1353 0.146042 50.0296 0.0738604 49.9272 0H19.856C19.6142 0.0956827 19.3641 0.181294 19.1224 0.265226C18.5835 0.451555 18.0246 0.642921 17.5596 0.943398C15.9195 2.00262 15.0886 3.60237 15.0886 5.69732C15.092 11.4702 15.0903 17.2447 15.0903 23.0176V30.4859L14.9426 30.5043C12.4481 30.8149 10.2373 31.5635 8.18435 32.7974C2.13787 36.435 -1.03141 43.4752 0.301432 50.3174ZM51.2181 6.15055L57.5869 12.5193H51.2181V6.15055ZM18.5248 23.7159C18.5248 17.7483 18.5248 11.7807 18.5248 5.81315C18.5248 4.23522 19.3171 3.43619 20.8783 3.43619C27.482 3.43619 34.0858 3.43619 40.6896 3.43619H47.7601V7.16613C47.7601 9.43566 47.7601 11.7035 47.7601 13.973C47.7601 15.3562 48.4063 16.0008 49.7912 16.0008C52.0708 16.0008 54.3504 16.0008 56.63 16.0008H60.3247V58.0257C60.3247 59.8067 59.576 60.5672 57.8185 60.5672H27.0103L27.3595 60.2717C29.1708 58.7358 30.5456 57.084 31.5595 55.2207C32.5851 53.3356 33.2197 51.3246 33.5033 49.0701L33.5218 48.9224H37.3877C42.5462 48.9224 47.703 48.9224 52.8598 48.9191C53.1502 48.9191 53.4305 48.9123 53.6857 48.8452C54.5049 48.627 55.0387 47.8699 54.9564 47.044C54.8708 46.1896 54.1658 45.5248 53.3181 45.498C52.6248 45.4762 51.9181 45.4812 51.2349 45.4846C50.9478 45.4862 50.6591 45.4879 50.372 45.4879H33.6561L33.6225 45.362C33.5134 44.9507 33.4144 44.5361 33.317 44.1366C33.0921 43.21 32.8806 42.3337 32.5717 41.4793C32.2679 40.64 31.8717 39.8409 31.4537 38.9966C31.2707 38.6256 31.0794 38.2429 30.8964 37.8518L30.7839 37.6117H34.6784C40.7316 37.6117 46.7848 37.6117 52.8396 37.61H52.9185C53.1536 37.61 53.397 37.61 53.6135 37.5613C54.4545 37.3717 55.0336 36.5944 54.9598 35.7551C54.8809 34.8537 54.1507 34.1923 53.2207 34.1822C52.0658 34.1705 50.8907 34.1722 49.7543 34.1755C49.2776 34.1755 48.7991 34.1772 48.3224 34.1772H44.6831C39.246 34.1772 33.6242 34.1789 28.0947 34.1604C27.6919 34.1604 27.2118 33.9959 26.871 33.7475C24.4202 31.9496 21.7377 30.8887 18.6725 30.506L18.5248 30.4875V23.7142V23.7159ZM16.8143 33.8448H16.8361C24.1936 33.8566 30.1746 39.8561 30.1696 47.2169C30.1628 54.5761 24.1718 60.5655 16.8109 60.5655H16.8092C13.2421 60.5655 9.88649 59.1705 7.36013 56.6375C4.82874 54.101 3.4405 50.7353 3.44889 47.1598C3.46736 39.8124 9.46179 33.8448 16.8159 33.8448H16.8143Z" fill="url(#paint0_linear_13535_1813)"/>
<path d="M53.1201 22.874C49.84 22.8673 46.5583 22.869 43.2765 22.8706H39.4358H35.721C32.3771 22.8706 29.0332 22.8706 25.6894 22.874C24.7426 22.874 24.0057 23.5001 23.8983 24.3932C23.7959 25.2426 24.3851 26.0617 25.2412 26.2548C25.4577 26.3035 25.6961 26.3018 25.9328 26.3018H26.015C31.8769 26.3035 37.7387 26.3035 43.6005 26.3035H53.1335C53.9477 26.3035 54.5167 25.9476 54.8239 25.2442C55.0539 24.7172 55.0119 24.1481 54.7098 23.6848C54.3791 23.1778 53.7849 22.8757 53.1218 22.874H53.1201Z" fill="url(#paint1_linear_13535_1813)"/>
<path d="M17.8025 46.5465C17.0605 47.2901 16.3185 48.0338 15.5531 48.7992L14.1481 50.2076L14.0289 50.0867C13.7821 49.8349 13.5404 49.5865 13.302 49.3448C12.7447 48.774 12.2193 48.2352 11.6821 47.698C11.3011 47.317 10.8814 47.1256 10.4299 47.1256C10.2939 47.1256 10.1546 47.1424 10.0135 47.1777C9.39245 47.3304 8.92243 47.7669 8.75624 48.3443C8.58167 48.952 8.76464 49.6117 9.24473 50.1086C10.1294 51.0201 11.0459 51.9299 11.9339 52.8112C12.2042 53.0798 12.4761 53.3484 12.7447 53.6169C13.7032 54.5704 14.6281 54.5771 15.5715 53.6371C18.3161 50.9009 21.153 48.064 24.005 45.2036C24.8326 44.3726 24.9014 43.3268 24.1746 42.6017C23.4511 41.8782 22.4053 41.9487 21.5744 42.7746C20.6058 43.7364 19.6423 44.7033 18.677 45.6686L17.8008 46.5465H17.8025Z" fill="url(#paint2_linear_13535_1813)"/>
<defs>
<linearGradient id="paint0_linear_13535_1813" x1="31.8854" y1="-1.43291" x2="31.8854" y2="64.2239" gradientUnits="userSpaceOnUse">
<stop stop-color="#00EFD1"/>
<stop offset="1" stop-color="#00ACEA"/>
</linearGradient>
<linearGradient id="paint1_linear_13535_1813" x1="39.4286" y1="22.7922" x2="39.4286" y2="26.3154" gradientUnits="userSpaceOnUse">
<stop stop-color="#00EFD1"/>
<stop offset="1" stop-color="#00ACEA"/>
</linearGradient>
<linearGradient id="paint2_linear_13535_1813" x1="16.6837" y1="41.8296" x2="16.6837" y2="54.3798" gradientUnits="userSpaceOnUse">
<stop stop-color="#00EFD1"/>
<stop offset="1" stop-color="#00ACEA"/>
</linearGradient>
</defs>
</svg>
