<svg width="56" height="56" viewBox="0 0 56 56" fill="none" xmlns="http://www.w3.org/2000/svg">
<circle cx="28" cy="28" r="28" fill="url(#paint0_linear_332_2)"/>
<path d="M25.9837 35.9701C25.3709 35.9701 24.8741 36.0611 24.8741 36.6739C24.8741 37.2867 25.3709 37.3777 25.9837 37.3777H30.4221C31.0349 37.3777 31.5317 37.2867 31.5317 36.6739C31.5317 36.0611 31.0349 35.9701 30.4221 35.9701H28.9067V28.2029C28.9067 27.5901 28.4099 27.0933 28.2029 27.0933H25.9837C25.7681 27.0933 25.2799 27.3913 25.2799 27.7971C25.2799 28.2029 25.7681 28.5009 25.9837 28.5009H27.4991V35.9701H25.9837ZM41.2962 15.8134H37.7835V14.7038C37.7835 14.091 37.2867 14 37.0797 14C36.8727 14 36.3759 14.091 36.3759 14.7038V15.8134H28.9067V14.7038C28.9067 14.091 28.4099 14 28.2029 14C27.9959 14 27.4991 14.091 27.4991 14.7038V15.8134H20.0299V14.7038C20.0299 14.091 19.5331 14 19.3261 14C19.1191 14 18.6223 14.091 18.6223 14.7038V15.8134H15.1096C14.4968 15.8134 14 16.3102 14 16.923V40.8904C14 41.5032 14.4968 42 15.1096 42H41.2962C41.909 42 42.4058 41.5032 42.4058 40.8904V16.923C42.4058 16.3102 41.909 15.8134 41.2962 15.8134ZM40.5924 40.1866H15.8134V24.6902H40.5924V40.1866ZM40.5924 22.471H15.8134V18.0326H18.6223V19.1422C18.6223 19.3492 18.7133 19.846 19.3261 19.846C19.9389 19.846 20.0299 19.3492 20.0299 19.1422V18.0326H27.4991V19.1422C27.4991 19.3492 27.5901 19.846 28.2029 19.846C28.8157 19.846 28.9067 19.3492 28.9067 19.1422V18.0326H36.3759V19.1422C36.3759 19.3492 36.4669 19.846 37.0797 19.846C37.6925 19.846 37.7835 19.3492 37.7835 19.1422V18.0326H40.5924V22.471Z" fill="#221F20" stroke="#221F20" stroke-width="0.5"/>
<defs>
<linearGradient id="paint0_linear_332_2" x1="27.9997" y1="-1.2539" x2="27.9997" y2="56.1952" gradientUnits="userSpaceOnUse">
<stop stop-color="#00EFD1"/>
<stop offset="1" stop-color="#00ACEA"/>
</linearGradient>
</defs>
</svg>
