<svg width="56" height="56" viewBox="0 0 56 56" fill="none" xmlns="http://www.w3.org/2000/svg">
<circle cx="28" cy="28" r="27" stroke="url(#paint0_linear_583_1736)" stroke-width="2"/>
<path d="M35.0341 36.4088C34.646 36.0207 34.3044 35.6791 33.9551 35.3298C31.0674 37.6819 27.7683 38.6522 24.0578 38.0312C20.9061 37.4956 18.36 35.9042 16.4271 33.3581C12.67 28.4055 13.3453 21.4036 17.9641 17.1575C22.5363 12.9579 29.5537 12.9424 34.2346 17.1419C38.8999 21.3338 39.7383 28.7238 35.3524 33.9248C35.7017 34.2741 36.0433 34.6156 36.4314 34.996C36.5867 34.8252 36.7807 34.5923 36.9981 34.3905C37.4017 34.0024 37.9296 33.9869 38.3255 34.375C39.3113 35.3453 40.3127 36.3079 41.252 37.3248C42.7269 38.9161 41.8963 41.4545 39.7693 41.928C38.8611 42.1299 38.0383 41.9047 37.3707 41.2837C36.3383 40.3212 35.3524 39.3043 34.3588 38.2951C33.9939 37.9303 34.0172 37.3869 34.3743 37.0143C34.5839 36.7892 34.8245 36.5951 35.0341 36.4088ZM26.1149 36.3545C31.7661 36.3545 36.3305 31.7978 36.3615 26.1311C36.3926 20.4799 31.7971 15.8689 26.1304 15.8611C20.4714 15.8533 15.876 20.4411 15.8682 26.1C15.8682 31.759 20.4481 36.3545 26.1149 36.3545ZM37.7045 36.4321C37.2853 36.8513 36.8506 37.286 36.4159 37.7207C37.1145 38.4193 37.8287 39.149 38.5584 39.8632C38.9465 40.2435 39.4355 40.2202 39.8237 39.8476C40.204 39.4828 40.2584 38.9705 39.9091 38.6056C39.1794 37.8526 38.4186 37.123 37.7045 36.4243V36.4321Z" fill="url(#paint1_linear_583_1736)" stroke="url(#paint2_linear_583_1736)" stroke-width="0.6"/>
<path d="M30.6864 24.6842C30.3061 25.0723 29.9335 25.4604 29.5453 25.8408C28.6526 26.7413 27.7522 27.634 26.8517 28.5267C26.3627 29.0157 25.8426 29.0157 25.3535 28.5267C24.9887 28.1618 24.6316 27.797 24.259 27.4166C24.1658 27.502 24.096 27.5719 24.0183 27.6417C23.0791 28.581 22.1398 29.5203 21.2005 30.4518C20.8512 30.8011 20.5019 30.8788 20.1215 30.7002C19.485 30.4052 19.353 29.6678 19.8576 29.1632C20.7115 28.3016 21.5653 27.4477 22.427 26.5938C22.7996 26.2212 23.1645 25.8486 23.5371 25.4837C23.9795 25.0568 24.5152 25.0568 24.9499 25.4837C25.3225 25.8486 25.6873 26.2212 26.0599 26.586C26.0599 26.586 26.0754 26.5938 26.0522 26.586C27.1544 25.4837 28.2412 24.397 29.328 23.3102C29.3047 23.3102 29.2348 23.2947 29.165 23.2947C28.7613 23.2947 28.3499 23.2947 27.9462 23.2947C27.4184 23.2791 27.0302 22.9065 27.0147 22.4175C26.9914 21.9051 27.364 21.4549 27.8919 21.4472C29.1805 21.4239 30.4691 21.4239 31.7577 21.4472C32.2933 21.4549 32.6271 21.8819 32.6349 22.4796C32.6349 23.5431 32.6349 24.6065 32.6349 25.6778C32.6349 25.8098 32.6349 25.9495 32.6349 26.0814C32.6116 26.6559 32.2157 27.0595 31.6956 27.0595C31.1755 27.0595 30.7874 26.6404 30.7718 26.0659C30.7641 25.6157 30.7718 25.1655 30.7718 24.7075C30.7485 24.6997 30.7175 24.6919 30.6942 24.6764L30.6864 24.6842Z" fill="url(#paint3_linear_583_1736)" stroke="url(#paint4_linear_583_1736)" stroke-width="0.6"/>
<defs>
<linearGradient id="paint0_linear_583_1736" x1="28" y1="0" x2="28" y2="56" gradientUnits="userSpaceOnUse">
<stop stop-color="#8EF8AA"/>
<stop offset="1" stop-color="#00EFD1"/>
</linearGradient>
<linearGradient id="paint1_linear_583_1736" x1="27.9984" y1="14" x2="27.9984" y2="42" gradientUnits="userSpaceOnUse">
<stop stop-color="#8EF8AA"/>
<stop offset="1" stop-color="#00EFD1"/>
</linearGradient>
<linearGradient id="paint2_linear_583_1736" x1="27.9984" y1="14" x2="27.9984" y2="42" gradientUnits="userSpaceOnUse">
<stop stop-color="#8EF8AA"/>
<stop offset="1" stop-color="#00EFD1"/>
</linearGradient>
<linearGradient id="paint3_linear_583_1736" x1="26.0918" y1="21.4297" x2="26.0918" y2="30.7929" gradientUnits="userSpaceOnUse">
<stop stop-color="#8EF8AA"/>
<stop offset="1" stop-color="#00EFD1"/>
</linearGradient>
<linearGradient id="paint4_linear_583_1736" x1="26.0918" y1="21.4297" x2="26.0918" y2="30.7929" gradientUnits="userSpaceOnUse">
<stop stop-color="#8EF8AA"/>
<stop offset="1" stop-color="#00EFD1"/>
</linearGradient>
</defs>
</svg>
