<svg width="56" height="56" viewBox="0 0 56 56" fill="none" xmlns="http://www.w3.org/2000/svg">
<circle cx="28" cy="28" r="28" fill="url(#paint0_linear_151_1230)"/>
<path d="M31.8937 33.1743C37.1891 33.1743 41.4808 28.8826 41.4808 23.5871C41.4808 18.2917 37.1891 14 31.8937 14C26.5983 14 22.3066 18.2917 22.3066 23.5871C22.3066 24.5562 22.4796 25.5253 22.7565 26.4598H22.0989V16.3189C22.0989 16.1112 22.0297 15.9382 21.8912 15.7998C21.7528 15.6613 21.5797 15.5921 21.3721 15.5921H18.0494C17.8418 15.5921 17.6687 15.6613 17.5303 15.7998C17.3918 15.9382 17.3226 16.1112 17.3226 16.3189V26.4598H14.7268C14.5884 26.4598 14.4499 26.4944 14.3461 26.5637C14.2423 26.6329 14.1384 26.7367 14.0692 26.8752C14 27.0136 14 27.152 14 27.2905C14 27.4289 14.0692 27.5674 14.1731 27.6712L19.157 33.2089C19.2262 33.2781 19.2954 33.3473 19.3993 33.382C19.5031 33.4166 19.6069 33.4512 19.7108 33.4512C19.8146 33.4512 19.9184 33.4512 20.0222 33.382C20.1261 33.3473 20.1953 33.2781 20.2645 33.2089L24.0371 29.021C24.2101 29.2633 24.3832 29.471 24.5562 29.6786V35.0087H21.9604C21.822 35.0087 21.6836 35.0433 21.5797 35.1125C21.4759 35.1817 21.3721 35.2855 21.3028 35.424C21.2336 35.5624 21.2336 35.7009 21.2336 35.8393C21.2336 35.9777 21.3028 36.1162 21.4067 36.22L26.3906 41.7577C26.4598 41.8269 26.529 41.8962 26.6329 41.9308C26.7367 41.9654 26.8405 42 26.9444 42C27.0482 42 27.152 42 27.2559 41.9308C27.3597 41.8962 27.4289 41.8269 27.4981 41.7577L32.4821 36.22C32.5859 36.1162 32.6205 35.9777 32.6551 35.8393C32.6551 35.7009 32.6551 35.5624 32.5859 35.424C32.5167 35.2855 32.4475 35.1817 32.309 35.1125C32.2052 35.0433 32.0667 35.0087 31.9283 35.0087H29.3325V32.7936C30.1632 33.0358 31.0284 33.1397 31.9283 33.1397L31.8937 33.1743ZM25.9753 35.7701V31.1323C26.5637 31.5822 27.1866 31.9629 27.8443 32.2744V35.7701C27.8443 35.9778 27.9135 36.1508 28.0519 36.2892C28.1904 36.4277 28.3634 36.4969 28.5711 36.4969H30.267L26.9098 40.2349L23.5525 36.4969H25.2485C25.4561 36.4969 25.6292 36.4277 25.7676 36.2892C25.9061 36.1508 25.9753 35.9778 25.9753 35.7701ZM25.2485 27.6712C25.3523 27.5674 25.3869 27.4289 25.4215 27.2905C25.4215 27.152 25.4215 27.0136 25.3523 26.8752C25.2831 26.7367 25.2138 26.6329 25.0754 26.5637C24.9716 26.4944 24.8331 26.4598 24.6947 26.4598H24.2794C23.9333 25.5599 23.7602 24.5909 23.7602 23.5871C23.7602 21.9604 24.2447 20.403 25.1446 19.0532C26.0445 17.7033 27.2905 16.665 28.7787 16.042C30.267 15.419 31.8937 15.2806 33.4858 15.5921C35.0779 15.9036 36.4969 16.665 37.6391 17.8072C38.7812 18.9493 39.5426 20.403 39.8541 21.9604C40.1656 23.5525 39.9926 25.1792 39.4042 26.6675C38.7812 28.1557 37.7429 29.4363 36.3931 30.3016C35.0433 31.2015 33.4858 31.686 31.8591 31.686C29.6786 31.686 27.6366 30.8208 26.1137 29.2979C25.6638 28.848 25.3177 28.398 24.9716 27.8789L25.1792 27.6366L25.2485 27.6712ZM20.8875 27.6712C21.026 27.8096 21.199 27.8789 21.4067 27.8789H23.1026L19.7454 31.6168L16.3881 27.8789H18.0841C18.2917 27.8789 18.4648 27.8096 18.6032 27.6712C18.7417 27.5328 18.8109 27.3597 18.8109 27.152V17.0457H20.6799V27.1866C20.6799 27.3943 20.7491 27.5674 20.8875 27.7058V27.6712Z" fill="#221F20" stroke="#221F20" stroke-width="0.5" stroke-linejoin="round"/>
<path d="M29.1593 21.5794C29.0208 21.7179 28.9516 21.8909 28.9516 22.0986C28.9516 22.3063 29.0208 22.4793 29.1593 22.6177C29.2977 22.7562 29.5054 22.8254 29.6784 22.8254H31.8589C31.8589 22.8254 31.8243 22.86 31.7897 22.8946C31.6858 22.9985 31.5474 23.1023 31.409 23.1369C31.2705 23.2061 31.1321 23.2407 30.959 23.2061H29.6784C29.54 23.2061 29.4015 23.2407 29.2631 23.3446C29.1247 23.4138 29.0554 23.5522 28.9862 23.6907C28.917 23.8291 28.917 23.9676 28.9516 24.1406C28.9516 24.2791 29.0554 24.4175 29.1593 24.5213L32.3434 27.5671C32.4819 27.7055 32.6549 27.7747 32.8626 27.7747C33.0703 27.7747 33.2433 27.6709 33.3818 27.5325C33.5202 27.394 33.5894 27.1863 33.5894 27.0133C33.5894 26.8056 33.4856 26.6326 33.3472 26.4941L31.4436 24.6944C31.9627 24.5906 32.4127 24.3483 32.7934 23.9676C33.1049 23.6561 33.3125 23.2753 33.451 22.8254H34.074C34.2816 22.8254 34.4547 22.7562 34.5931 22.6177C34.7316 22.4793 34.8008 22.3063 34.8008 22.0986C34.8008 21.8909 34.7316 21.7179 34.5931 21.5794C34.4547 21.441 34.247 21.3718 34.074 21.3718H33.451C33.4164 21.1987 33.3472 21.0603 33.2779 20.9218H34.074C34.2816 20.9218 34.4547 20.8526 34.5931 20.7142C34.7316 20.5757 34.8008 20.4027 34.8008 20.195C34.8008 19.9873 34.7316 19.8143 34.5931 19.6758C34.4547 19.5374 34.2816 19.4682 34.074 19.4682H29.6092C29.4015 19.4682 29.2285 19.5374 29.09 19.6758C28.9516 19.8143 28.8824 19.9873 28.8824 20.195C28.8824 20.4027 28.9516 20.5757 29.09 20.7142C29.2285 20.8526 29.4362 20.9218 29.6092 20.9218H30.8898C31.2359 20.9218 31.582 21.0949 31.7897 21.3718H29.6092C29.4015 21.3718 29.2285 21.441 29.09 21.5794H29.1593Z" fill="#221F20" stroke="#221F20" stroke-width="0.5" stroke-linejoin="round"/>
<defs>
<linearGradient id="paint0_linear_151_1230" x1="27.9997" y1="-1.2539" x2="27.9997" y2="56.1952" gradientUnits="userSpaceOnUse">
<stop stop-color="#00EFD1"/>
<stop offset="1" stop-color="#00ACEA"/>
</linearGradient>
</defs>
</svg>
