<svg width="56" height="56" viewBox="0 0 56 56" fill="none" xmlns="http://www.w3.org/2000/svg">
<circle cx="28" cy="28" r="27" stroke="url(#paint0_linear_583_1716)" stroke-width="2"/>
<path d="M31.8937 33.1743C37.1891 33.1743 41.4808 28.8826 41.4808 23.5871C41.4808 18.2917 37.1891 14 31.8937 14C26.5983 14 22.3066 18.2917 22.3066 23.5871C22.3066 24.5562 22.4796 25.5253 22.7565 26.4598H22.0989V16.3189C22.0989 16.1112 22.0297 15.9382 21.8912 15.7998C21.7528 15.6613 21.5797 15.5921 21.3721 15.5921H18.0494C17.8418 15.5921 17.6687 15.6613 17.5303 15.7998C17.3918 15.9382 17.3226 16.1112 17.3226 16.3189V26.4598H14.7268C14.5884 26.4598 14.4499 26.4944 14.3461 26.5637C14.2423 26.6329 14.1384 26.7367 14.0692 26.8752C14 27.0136 14 27.152 14 27.2905C14 27.4289 14.0692 27.5674 14.1731 27.6712L19.157 33.2089C19.2262 33.2781 19.2954 33.3473 19.3993 33.382C19.5031 33.4166 19.6069 33.4512 19.7108 33.4512C19.8146 33.4512 19.9184 33.4512 20.0222 33.382C20.1261 33.3473 20.1953 33.2781 20.2645 33.2089L24.0371 29.021C24.2101 29.2633 24.3832 29.471 24.5562 29.6786V35.0087H21.9604C21.822 35.0087 21.6836 35.0433 21.5797 35.1125C21.4759 35.1817 21.3721 35.2855 21.3028 35.424C21.2336 35.5624 21.2336 35.7009 21.2336 35.8393C21.2336 35.9777 21.3028 36.1162 21.4067 36.22L26.3906 41.7577C26.4598 41.8269 26.529 41.8962 26.6329 41.9308C26.7367 41.9654 26.8405 42 26.9444 42C27.0482 42 27.152 42 27.2559 41.9308C27.3597 41.8962 27.4289 41.8269 27.4981 41.7577L32.4821 36.22C32.5859 36.1162 32.6205 35.9777 32.6551 35.8393C32.6551 35.7009 32.6551 35.5624 32.5859 35.424C32.5167 35.2855 32.4475 35.1817 32.309 35.1125C32.2052 35.0433 32.0667 35.0087 31.9283 35.0087H29.3325V32.7936C30.1632 33.0358 31.0284 33.1397 31.9283 33.1397L31.8937 33.1743ZM25.9753 35.7701V31.1323C26.5637 31.5822 27.1866 31.9629 27.8443 32.2744V35.7701C27.8443 35.9778 27.9135 36.1508 28.0519 36.2892C28.1904 36.4277 28.3634 36.4969 28.5711 36.4969H30.267L26.9098 40.2349L23.5525 36.4969H25.2485C25.4561 36.4969 25.6292 36.4277 25.7676 36.2892C25.9061 36.1508 25.9753 35.9778 25.9753 35.7701ZM25.2485 27.6712C25.3523 27.5674 25.3869 27.4289 25.4215 27.2905C25.4215 27.152 25.4215 27.0136 25.3523 26.8752C25.2831 26.7367 25.2138 26.6329 25.0754 26.5637C24.9716 26.4944 24.8331 26.4598 24.6947 26.4598H24.2794C23.9333 25.5599 23.7602 24.5909 23.7602 23.5871C23.7602 21.9604 24.2447 20.403 25.1446 19.0532C26.0445 17.7033 27.2905 16.665 28.7787 16.042C30.267 15.419 31.8937 15.2806 33.4858 15.5921C35.0779 15.9036 36.4969 16.665 37.6391 17.8072C38.7812 18.9493 39.5426 20.403 39.8541 21.9604C40.1656 23.5525 39.9926 25.1792 39.4042 26.6675C38.7812 28.1557 37.7429 29.4363 36.3931 30.3016C35.0433 31.2015 33.4858 31.686 31.8591 31.686C29.6786 31.686 27.6366 30.8208 26.1137 29.2979C25.6638 28.848 25.3177 28.398 24.9716 27.8789L25.1792 27.6366L25.2485 27.6712ZM20.8875 27.6712C21.026 27.8096 21.199 27.8789 21.4067 27.8789H23.1026L19.7454 31.6168L16.3881 27.8789H18.0841C18.2917 27.8789 18.4648 27.8096 18.6032 27.6712C18.7417 27.5328 18.8109 27.3597 18.8109 27.152V17.0457H20.6799V27.1866C20.6799 27.3943 20.7491 27.5674 20.8875 27.7058V27.6712Z" fill="url(#paint1_linear_583_1716)" stroke="url(#paint2_linear_583_1716)" stroke-width="0.5" stroke-linejoin="round"/>
<path d="M29.1597 21.58C29.0213 21.7184 28.952 21.8915 28.952 22.0992C28.952 22.3068 29.0213 22.4799 29.1597 22.6183C29.2981 22.7568 29.5058 22.826 29.6789 22.826H31.8593C31.8593 22.826 31.8247 22.8606 31.7901 22.8952C31.6863 22.999 31.5478 23.1029 31.4094 23.1375C31.2709 23.2067 31.1325 23.2413 30.9595 23.2067H29.6789C29.5404 23.2067 29.402 23.2413 29.2635 23.3451C29.1251 23.4144 29.0559 23.5528 28.9866 23.6912C28.9174 23.8297 28.9174 23.9681 28.952 24.1412C28.952 24.2796 29.0559 24.4181 29.1597 24.5219L32.3439 27.5676C32.4823 27.7061 32.6554 27.7753 32.863 27.7753C33.0707 27.7753 33.2438 27.6715 33.3822 27.533C33.5206 27.3946 33.5899 27.1869 33.5899 27.0139C33.5899 26.8062 33.486 26.6332 33.3476 26.4947L31.444 24.695C31.9632 24.5911 32.4131 24.3488 32.7938 23.9681C33.1053 23.6566 33.313 23.2759 33.4514 22.826H34.0744C34.2821 22.826 34.4551 22.7568 34.5936 22.6183C34.732 22.4799 34.8012 22.3068 34.8012 22.0992C34.8012 21.8915 34.732 21.7184 34.5936 21.58C34.4551 21.4416 34.2475 21.3723 34.0744 21.3723H33.4514C33.4168 21.1993 33.3476 21.0608 33.2784 20.9224H34.0744C34.2821 20.9224 34.4551 20.8532 34.5936 20.7147C34.732 20.5763 34.8012 20.4032 34.8012 20.1956C34.8012 19.9879 34.732 19.8149 34.5936 19.6764C34.4551 19.538 34.2821 19.4688 34.0744 19.4688H29.6096C29.402 19.4688 29.2289 19.538 29.0905 19.6764C28.952 19.8149 28.8828 19.9879 28.8828 20.1956C28.8828 20.4032 28.952 20.5763 29.0905 20.7147C29.2289 20.8532 29.4366 20.9224 29.6096 20.9224H30.8902C31.2363 20.9224 31.5824 21.0954 31.7901 21.3723H29.6096C29.402 21.3723 29.2289 21.4416 29.0905 21.58H29.1597Z" fill="url(#paint3_linear_583_1716)" stroke="url(#paint4_linear_583_1716)" stroke-width="0.5" stroke-linejoin="round"/>
<defs>
<linearGradient id="paint0_linear_583_1716" x1="28" y1="0" x2="28" y2="56" gradientUnits="userSpaceOnUse">
<stop stop-color="#8EF8AA"/>
<stop offset="1" stop-color="#00EFD1"/>
</linearGradient>
<linearGradient id="paint1_linear_583_1716" x1="27.7404" y1="14" x2="27.7404" y2="42" gradientUnits="userSpaceOnUse">
<stop stop-color="#8EF8AA"/>
<stop offset="1" stop-color="#00EFD1"/>
</linearGradient>
<linearGradient id="paint2_linear_583_1716" x1="27.7404" y1="14" x2="27.7404" y2="42" gradientUnits="userSpaceOnUse">
<stop stop-color="#8EF8AA"/>
<stop offset="1" stop-color="#00EFD1"/>
</linearGradient>
<linearGradient id="paint3_linear_583_1716" x1="31.842" y1="19.4688" x2="31.842" y2="27.7753" gradientUnits="userSpaceOnUse">
<stop stop-color="#8EF8AA"/>
<stop offset="1" stop-color="#00EFD1"/>
</linearGradient>
<linearGradient id="paint4_linear_583_1716" x1="31.842" y1="19.4688" x2="31.842" y2="27.7753" gradientUnits="userSpaceOnUse">
<stop stop-color="#8EF8AA"/>
<stop offset="1" stop-color="#00EFD1"/>
</linearGradient>
</defs>
</svg>
