<svg width="56" height="56" viewBox="0 0 56 56" fill="none" xmlns="http://www.w3.org/2000/svg">
<circle cx="28" cy="28" r="27" stroke="url(#paint0_linear_583_1723)" stroke-width="2"/>
<path d="M44.4874 26.2857C44.2443 25.8864 43.8189 25.7214 43.3674 25.843C43.1244 25.9124 42.916 26.0774 42.7858 26.1989C42.4732 26.5028 42.1693 26.8067 41.8742 27.1018C41.8742 27.0324 41.8568 26.9542 41.8568 26.8848C41.796 26.2163 41.7352 25.513 41.5963 24.8445C41.0146 21.9708 39.5561 19.4097 37.3856 17.4562C35.2151 15.4854 32.5324 14.3134 29.624 14.0616C24.71 13.6362 20.6469 15.416 17.5474 19.3489C16.8789 20.191 16.3233 21.1721 15.8371 22.3268C15.6982 22.6567 15.6895 22.9866 15.8024 23.2644C15.9065 23.5075 16.0975 23.6985 16.3493 23.8027C16.9136 24.0284 17.478 23.768 17.7558 23.1429C17.7732 23.0995 17.7905 23.0647 17.8079 23.0213C17.8166 22.9953 17.8339 22.9606 17.8426 22.9345C20.0652 17.8035 25.8126 15.0166 31.2128 16.4404C35.7447 17.6385 39.0786 21.3978 39.695 26.0253C39.7384 26.3726 39.7645 26.7285 39.7818 27.0845C39.4953 26.798 39.2001 26.5028 38.9049 26.2163C38.7747 26.0861 38.5663 25.9211 38.3059 25.843C37.8631 25.7127 37.3943 25.9124 37.1512 26.3291C36.9081 26.7546 36.9949 27.2494 37.3769 27.6314C38.1583 28.4215 39.0178 29.281 39.9989 30.2621C40.268 30.5312 40.5458 30.6701 40.8323 30.6701C41.1188 30.6701 41.3967 30.5312 41.6745 30.2621C42.1867 29.7585 42.6989 29.2376 43.2025 28.734L43.515 28.4215C43.5932 28.3434 43.6713 28.2652 43.7408 28.1958C43.9578 27.9787 44.1835 27.7617 44.3919 27.5273C44.7045 27.1713 44.7392 26.7111 44.4874 26.3031V26.2857Z" fill="url(#paint1_linear_583_1723)" stroke="url(#paint2_linear_583_1723)" stroke-width="0.5" stroke-linejoin="round"/>
<path d="M40.3201 32.2222C39.7992 31.9965 39.2175 32.2222 38.9483 32.7605C38.9136 32.8386 38.8789 32.9081 38.8441 32.9862L38.8181 33.047C36.4566 38.5253 30.249 41.2861 24.6753 39.3327C20.4732 37.8568 17.8947 34.8442 17.0178 30.373C16.931 29.9042 16.8963 29.4353 16.8702 28.9318C16.9223 28.9839 16.9744 29.036 17.0265 29.088C17.2783 29.3398 17.53 29.5916 17.7818 29.8347C18.0336 30.0778 18.3375 30.2167 18.6326 30.208C18.8931 30.208 19.1449 30.0952 19.3359 29.8955C19.7439 29.4701 19.7179 28.8276 19.2577 28.3675C18.2506 27.3517 17.4085 26.5095 16.6098 25.7195C16.1062 25.2246 15.5158 25.2333 15.0123 25.7195C13.9878 26.7353 13.1457 27.5774 12.3643 28.3761C12.208 28.5324 12.0865 28.7408 12.0344 28.9405C11.9128 29.3832 12.1212 29.8521 12.5379 30.0778C12.946 30.3035 13.4409 30.2341 13.7881 29.8868C14.1267 29.5569 14.448 29.227 14.7866 28.871C14.8126 29.3746 14.8473 29.8434 14.9081 30.3209C15.2988 33.3075 16.7313 36.1204 18.9452 38.2475C21.1678 40.3832 24.0415 41.6942 27.0454 41.9373C27.5056 41.972 27.957 41.9981 28.4085 41.9981C32.8883 41.9981 36.5608 40.088 39.339 36.3027C39.8078 35.6603 40.1725 34.931 40.5111 34.2364C40.6152 34.0281 40.7194 33.8197 40.8236 33.62C40.9538 33.3596 40.9799 33.073 40.8844 32.8126C40.7889 32.5435 40.5805 32.3264 40.3201 32.2135V32.2222Z" fill="url(#paint3_linear_583_1723)" stroke="url(#paint4_linear_583_1723)" stroke-width="0.5" stroke-linejoin="round"/>
<path d="M27.4166 28.0311C27.4166 28.0736 27.4166 28.1161 27.4166 28.1585C27.4166 28.5549 27.6181 28.8522 27.9687 28.9867C28.088 29.0362 28.2074 29.0575 28.3193 29.0575C28.558 29.0575 28.7818 28.9584 28.9832 28.7743L29.498 28.2859C31.2436 26.6296 32.9892 24.9733 34.7423 23.3099C34.8169 23.2391 34.9139 23.1471 34.981 23.0409C35.1973 22.7153 35.1451 22.2835 34.8542 22.0075C34.5558 21.7173 34.0784 21.6748 33.7277 21.9013C33.6158 21.9721 33.5189 22.0641 33.4368 22.142L33.4144 22.1632C32.012 23.4939 30.6095 24.8247 29.207 26.1554V25.5466C29.207 24.6194 29.207 23.685 29.207 22.7578V22.7366C29.207 22.6375 29.207 22.5313 29.1846 22.418C29.11 21.9933 28.7594 21.7102 28.3193 21.7031C27.8568 21.7031 27.4987 21.9863 27.4241 22.4251C27.4092 22.5313 27.4092 22.6375 27.4092 22.7295V22.7578C27.4092 24.3646 27.4092 25.9784 27.4092 27.5852V28.024L27.4166 28.0311Z" fill="url(#paint5_linear_583_1723)" stroke="url(#paint6_linear_583_1723)" stroke-width="0.5" stroke-linejoin="round"/>
<path d="M28.2847 20.65C28.2847 20.65 28.292 20.65 28.2993 20.65C28.7735 20.65 29.1602 20.2544 29.1602 19.7856C29.1602 19.5512 29.0654 19.3242 28.8976 19.163C28.7298 18.9945 28.5036 18.8993 28.2701 18.9066C27.8032 18.914 27.4165 19.3022 27.4092 19.7783C27.4092 20.0127 27.4967 20.2324 27.6645 20.4009C27.8323 20.5694 28.0512 20.6573 28.2847 20.6573V20.65Z" fill="url(#paint7_linear_583_1723)" stroke="url(#paint8_linear_583_1723)" stroke-width="0.5" stroke-linejoin="round"/>
<path d="M22.0558 34.4076C22.2177 34.5768 22.4384 34.6651 22.6812 34.6651C23.1594 34.6651 23.5493 34.2899 23.5567 33.8117C23.5567 33.5762 23.4758 33.3481 23.3066 33.1789C23.1373 33.0097 22.9166 32.9141 22.6812 32.9141C22.2103 32.9141 21.813 33.2966 21.8057 33.7749C21.8057 34.0177 21.8866 34.2457 22.0558 34.4149V34.4076Z" fill="url(#paint9_linear_583_1723)" stroke="url(#paint10_linear_583_1723)" stroke-width="0.5" stroke-linejoin="round"/>
<path d="M28.2847 35.3667C28.2847 35.3667 28.2774 35.3667 28.2701 35.3667C27.7959 35.3667 27.4092 35.7623 27.4092 36.2312C27.4092 36.4657 27.504 36.6928 27.6718 36.854C27.8396 37.0152 28.0585 37.1104 28.2847 37.1104C28.5109 37.1104 28.292 37.1104 28.2993 37.1104C28.7662 37.1031 29.1529 36.7075 29.1602 36.2386C29.1602 36.0041 29.0727 35.7843 28.9049 35.6158C28.737 35.4473 28.5182 35.3594 28.2847 35.3594V35.3667Z" fill="url(#paint11_linear_583_1723)" stroke="url(#paint12_linear_583_1723)" stroke-width="0.5" stroke-linejoin="round"/>
<path d="M34.2422 32.9141C34.2422 32.9141 34.2349 32.9141 34.2276 32.9141C33.7588 32.9214 33.3706 33.3097 33.3633 33.7859C33.3633 34.0204 33.4512 34.2475 33.6196 34.4087C33.7881 34.5699 34.0079 34.6651 34.2422 34.6651C34.4766 34.6651 34.2496 34.6651 34.2569 34.6651C34.4986 34.6651 34.7184 34.5699 34.8722 34.4013C35.0333 34.2328 35.1212 34.0057 35.1139 33.7639C35.0992 33.2877 34.7184 32.9214 34.2422 32.9214V32.9141Z" fill="url(#paint13_linear_583_1723)" stroke="url(#paint14_linear_583_1723)" stroke-width="0.5" stroke-linejoin="round"/>
<path d="M22.6814 23.1026C22.9168 23.1026 23.1374 23.0147 23.2993 22.8462C23.4684 22.6777 23.5567 22.4579 23.5567 22.2161C23.5567 21.7399 23.1742 21.3589 22.6887 21.3516H22.6814C22.2033 21.3516 21.8208 21.7179 21.8061 22.1941C21.7987 22.4359 21.887 22.663 22.0488 22.8315C22.2106 23 22.4313 23.0953 22.6667 23.0953C22.6667 23.0953 22.6667 23.0953 22.674 23.0953L22.6814 23.1026Z" fill="url(#paint15_linear_583_1723)" stroke="url(#paint16_linear_583_1723)" stroke-width="0.5" stroke-linejoin="round"/>
<defs>
<linearGradient id="paint0_linear_583_1723" x1="28" y1="0" x2="28" y2="56" gradientUnits="userSpaceOnUse">
<stop stop-color="#8EF8AA"/>
<stop offset="1" stop-color="#00EFD1"/>
</linearGradient>
<linearGradient id="paint1_linear_583_1723" x1="30.1894" y1="14" x2="30.1894" y2="30.6701" gradientUnits="userSpaceOnUse">
<stop stop-color="#8EF8AA"/>
<stop offset="1" stop-color="#00EFD1"/>
</linearGradient>
<linearGradient id="paint2_linear_583_1723" x1="30.1894" y1="14" x2="30.1894" y2="30.6701" gradientUnits="userSpaceOnUse">
<stop stop-color="#8EF8AA"/>
<stop offset="1" stop-color="#00EFD1"/>
</linearGradient>
<linearGradient id="paint3_linear_583_1723" x1="26.4709" y1="25.3516" x2="26.4709" y2="41.9981" gradientUnits="userSpaceOnUse">
<stop stop-color="#8EF8AA"/>
<stop offset="1" stop-color="#00EFD1"/>
</linearGradient>
<linearGradient id="paint4_linear_583_1723" x1="26.4709" y1="25.3516" x2="26.4709" y2="41.9981" gradientUnits="userSpaceOnUse">
<stop stop-color="#8EF8AA"/>
<stop offset="1" stop-color="#00EFD1"/>
</linearGradient>
<linearGradient id="paint5_linear_583_1723" x1="31.2615" y1="21.7031" x2="31.2615" y2="29.0575" gradientUnits="userSpaceOnUse">
<stop stop-color="#8EF8AA"/>
<stop offset="1" stop-color="#00EFD1"/>
</linearGradient>
<linearGradient id="paint6_linear_583_1723" x1="31.2615" y1="21.7031" x2="31.2615" y2="29.0575" gradientUnits="userSpaceOnUse">
<stop stop-color="#8EF8AA"/>
<stop offset="1" stop-color="#00EFD1"/>
</linearGradient>
<linearGradient id="paint7_linear_583_1723" x1="28.2847" y1="18.9062" x2="28.2847" y2="20.6573" gradientUnits="userSpaceOnUse">
<stop stop-color="#8EF8AA"/>
<stop offset="1" stop-color="#00EFD1"/>
</linearGradient>
<linearGradient id="paint8_linear_583_1723" x1="28.2847" y1="18.9062" x2="28.2847" y2="20.6573" gradientUnits="userSpaceOnUse">
<stop stop-color="#8EF8AA"/>
<stop offset="1" stop-color="#00EFD1"/>
</linearGradient>
<linearGradient id="paint9_linear_583_1723" x1="22.6812" y1="32.9141" x2="22.6812" y2="34.6651" gradientUnits="userSpaceOnUse">
<stop stop-color="#8EF8AA"/>
<stop offset="1" stop-color="#00EFD1"/>
</linearGradient>
<linearGradient id="paint10_linear_583_1723" x1="22.6812" y1="32.9141" x2="22.6812" y2="34.6651" gradientUnits="userSpaceOnUse">
<stop stop-color="#8EF8AA"/>
<stop offset="1" stop-color="#00EFD1"/>
</linearGradient>
<linearGradient id="paint11_linear_583_1723" x1="28.2847" y1="35.3594" x2="28.2847" y2="37.1104" gradientUnits="userSpaceOnUse">
<stop stop-color="#8EF8AA"/>
<stop offset="1" stop-color="#00EFD1"/>
</linearGradient>
<linearGradient id="paint12_linear_583_1723" x1="28.2847" y1="35.3594" x2="28.2847" y2="37.1104" gradientUnits="userSpaceOnUse">
<stop stop-color="#8EF8AA"/>
<stop offset="1" stop-color="#00EFD1"/>
</linearGradient>
<linearGradient id="paint13_linear_583_1723" x1="34.2388" y1="32.9141" x2="34.2388" y2="34.6651" gradientUnits="userSpaceOnUse">
<stop stop-color="#8EF8AA"/>
<stop offset="1" stop-color="#00EFD1"/>
</linearGradient>
<linearGradient id="paint14_linear_583_1723" x1="34.2388" y1="32.9141" x2="34.2388" y2="34.6651" gradientUnits="userSpaceOnUse">
<stop stop-color="#8EF8AA"/>
<stop offset="1" stop-color="#00EFD1"/>
</linearGradient>
<linearGradient id="paint15_linear_583_1723" x1="22.6812" y1="21.3516" x2="22.6812" y2="23.1026" gradientUnits="userSpaceOnUse">
<stop stop-color="#8EF8AA"/>
<stop offset="1" stop-color="#00EFD1"/>
</linearGradient>
<linearGradient id="paint16_linear_583_1723" x1="22.6812" y1="21.3516" x2="22.6812" y2="23.1026" gradientUnits="userSpaceOnUse">
<stop stop-color="#8EF8AA"/>
<stop offset="1" stop-color="#00EFD1"/>
</linearGradient>
</defs>
</svg>
