<svg width="56" height="56" viewBox="0 0 56 56" fill="none" xmlns="http://www.w3.org/2000/svg">
<circle cx="28" cy="28" r="28" fill="url(#paint0_linear_332_4)"/>
<path d="M35.0341 36.4088C34.646 36.0207 34.3044 35.6791 33.9551 35.3298C31.0674 37.6819 27.7683 38.6522 24.0578 38.0312C20.9061 37.4956 18.36 35.9042 16.4271 33.3581C12.67 28.4055 13.3453 21.4036 17.9641 17.1575C22.5363 12.9579 29.5537 12.9424 34.2346 17.1419C38.8999 21.3338 39.7383 28.7238 35.3524 33.9248C35.7017 34.2741 36.0433 34.6156 36.4314 34.996C36.5867 34.8252 36.7807 34.5923 36.9981 34.3905C37.4017 34.0024 37.9296 33.9869 38.3255 34.375C39.3113 35.3453 40.3127 36.3079 41.252 37.3248C42.7269 38.9161 41.8963 41.4545 39.7693 41.928C38.8611 42.1299 38.0383 41.9047 37.3707 41.2837C36.3383 40.3212 35.3524 39.3043 34.3588 38.2951C33.9939 37.9303 34.0172 37.3869 34.3743 37.0143C34.5839 36.7892 34.8245 36.5951 35.0341 36.4088ZM26.1149 36.3545C31.7661 36.3545 36.3305 31.7978 36.3615 26.1311C36.3926 20.4799 31.7971 15.8689 26.1304 15.8611C20.4714 15.8533 15.876 20.4411 15.8682 26.1C15.8682 31.759 20.4481 36.3545 26.1149 36.3545ZM37.7045 36.4321C37.2853 36.8513 36.8506 37.286 36.4159 37.7207C37.1145 38.4193 37.8287 39.149 38.5584 39.8632C38.9465 40.2435 39.4355 40.2202 39.8237 39.8476C40.204 39.4828 40.2584 38.9705 39.9091 38.6056C39.1794 37.8526 38.4186 37.123 37.7045 36.4243V36.4321Z" fill="#221F20" stroke="#221F20" stroke-width="0.6"/>
<path d="M30.6867 24.6869C30.3063 25.075 29.9337 25.4631 29.5456 25.8435C28.6529 26.744 27.7524 27.6367 26.8519 28.5294C26.3629 29.0184 25.8428 29.0184 25.3538 28.5294C24.9889 28.1645 24.6318 27.7997 24.2592 27.4193C24.1661 27.5047 24.0962 27.5746 24.0186 27.6444C23.0793 28.5837 22.14 29.523 21.2008 30.4545C20.8514 30.8038 20.5021 30.8814 20.1217 30.7029C19.4852 30.4079 19.3532 29.6705 19.8578 29.1659C20.7117 28.3042 21.5656 27.4504 22.4272 26.5965C22.7999 26.2239 23.1647 25.8513 23.5373 25.4864C23.9798 25.0595 24.5154 25.0595 24.9501 25.4864C25.3227 25.8513 25.6876 26.2239 26.0602 26.5887C26.0602 26.5887 26.0757 26.5965 26.0524 26.5887C27.1547 25.4864 28.2415 24.3996 29.3282 23.3129C29.3049 23.3129 29.2351 23.2973 29.1652 23.2973C28.7616 23.2973 28.3501 23.2973 27.9465 23.2973C27.4186 23.2818 27.0305 22.9092 27.015 22.4202C26.9917 21.9078 27.3643 21.4576 27.8921 21.4498C29.1807 21.4266 30.4693 21.4266 31.7579 21.4498C32.2936 21.4576 32.6273 21.8845 32.6351 22.4823C32.6351 23.5458 32.6351 24.6092 32.6351 25.6805C32.6351 25.8124 32.6351 25.9522 32.6351 26.0841C32.6118 26.6586 32.2159 27.0622 31.6958 27.0622C31.1757 27.0622 30.7876 26.643 30.7721 26.0686C30.7643 25.6184 30.7721 25.1681 30.7721 24.7101C30.7488 24.7024 30.7177 24.6946 30.6945 24.6791L30.6867 24.6869Z" fill="#221F20" stroke="#221F20" stroke-width="0.6"/>
<defs>
<linearGradient id="paint0_linear_332_4" x1="27.9997" y1="-1.2539" x2="27.9997" y2="56.1952" gradientUnits="userSpaceOnUse">
<stop stop-color="#00EFD1"/>
<stop offset="1" stop-color="#00ACEA"/>
</linearGradient>
</defs>
</svg>
