<svg width="56" height="56" viewBox="0 0 56 56" fill="none" xmlns="http://www.w3.org/2000/svg">
<circle cx="28" cy="28" r="28" fill="url(#paint0_linear_332_3)"/>
<path d="M44.4872 26.2857C44.2441 25.8864 43.8187 25.7214 43.3673 25.843C43.1242 25.9124 42.9158 26.0774 42.7856 26.1989C42.473 26.5028 42.1692 26.8067 41.874 27.1018C41.874 27.0324 41.8566 26.9542 41.8566 26.8848C41.7958 26.2163 41.7351 25.513 41.5962 24.8445C41.0145 21.9708 39.5559 19.4097 37.3854 17.4562C35.2149 15.4854 32.5322 14.3134 29.6238 14.0616C24.7098 13.6362 20.6467 15.416 17.5472 19.3489C16.8787 20.191 16.3231 21.1721 15.8369 22.3268C15.698 22.6567 15.6893 22.9866 15.8022 23.2644C15.9064 23.5075 16.0974 23.6985 16.3491 23.8027C16.9135 24.0284 17.4778 23.768 17.7556 23.1429C17.773 23.0995 17.7903 23.0647 17.8077 23.0213C17.8164 22.9953 17.8337 22.9606 17.8424 22.9345C20.065 17.8035 25.8124 15.0166 31.2126 16.4404C35.7445 17.6385 39.0784 21.3978 39.6948 26.0253C39.7382 26.3726 39.7643 26.7285 39.7816 27.0845C39.4951 26.798 39.1999 26.5028 38.9048 26.2163C38.7745 26.0861 38.5662 25.9211 38.3057 25.843C37.8629 25.7127 37.3941 25.9124 37.151 26.3291C36.9079 26.7546 36.9947 27.2494 37.3767 27.6314C38.1581 28.4215 39.0176 29.281 39.9987 30.2621C40.2678 30.5312 40.5456 30.6701 40.8321 30.6701C41.1186 30.6701 41.3965 30.5312 41.6743 30.2621C42.1865 29.7585 42.6988 29.2376 43.2023 28.734L43.5149 28.4215C43.593 28.3434 43.6711 28.2652 43.7406 28.1958C43.9576 27.9787 44.1834 27.7617 44.3917 27.5273C44.7043 27.1713 44.739 26.7111 44.4872 26.3031V26.2857Z" fill="#221F20" stroke="#221F20" stroke-width="0.5" stroke-linejoin="round"/>
<path d="M40.3201 32.224C39.7992 31.9983 39.2175 32.224 38.9483 32.7623C38.9136 32.8404 38.8789 32.9099 38.8441 32.988L38.8181 33.0488C36.4566 38.5271 30.249 41.2879 24.6753 39.3345C20.4732 37.8586 17.8947 34.846 17.0178 30.3748C16.931 29.9059 16.8963 29.4371 16.8702 28.9336C16.9223 28.9857 16.9744 29.0378 17.0265 29.0898C17.2783 29.3416 17.53 29.5934 17.7818 29.8365C18.0336 30.0796 18.3375 30.2185 18.6326 30.2098C18.8931 30.2098 19.1449 30.0969 19.3359 29.8973C19.7439 29.4718 19.7179 28.8294 19.2577 28.3692C18.2506 27.3535 17.4085 26.5113 16.6098 25.7213C16.1062 25.2264 15.5158 25.2351 15.0123 25.7213C13.9878 26.737 13.1457 27.5792 12.3643 28.3779C12.208 28.5342 12.0865 28.7426 12.0344 28.9423C11.9128 29.385 12.1212 29.8539 12.5379 30.0796C12.946 30.3053 13.4409 30.2359 13.7881 29.8886C14.1267 29.5587 14.448 29.2288 14.7866 28.8728C14.8126 29.3763 14.8473 29.8452 14.9081 30.3227C15.2988 33.3093 16.7313 36.1222 18.9452 38.2493C21.1678 40.385 24.0415 41.696 27.0454 41.9391C27.5056 41.9738 27.957 41.9999 28.4085 41.9999C32.8883 41.9999 36.5608 40.0898 39.339 36.3045C39.8078 35.6621 40.1725 34.9328 40.5111 34.2382C40.6152 34.0299 40.7194 33.8215 40.8236 33.6218C40.9538 33.3613 40.9799 33.0748 40.8844 32.8144C40.7889 32.5452 40.5805 32.3282 40.3201 32.2153V32.224Z" fill="#221F20" stroke="#221F20" stroke-width="0.5" stroke-linejoin="round"/>
<path d="M27.4162 28.0327C27.4162 28.0751 27.4162 28.1176 27.4162 28.1601C27.4162 28.5565 27.6176 28.8537 27.9682 28.9882C28.0876 29.0378 28.207 29.059 28.3189 29.059C28.5576 29.059 28.7814 28.9599 28.9828 28.7759L29.4975 28.2875C31.2432 26.6312 32.9888 24.9748 34.7419 23.3114C34.8165 23.2407 34.9134 23.1486 34.9806 23.0425C35.1969 22.7169 35.1447 22.2851 34.8538 22.009C34.5554 21.7188 34.0779 21.6764 33.7273 21.9029C33.6154 21.9736 33.5184 22.0657 33.4364 22.1435L33.414 22.1648C32.0115 23.4955 30.6091 24.8262 29.2066 26.1569V25.5482C29.2066 24.6209 29.2066 23.6866 29.2066 22.7593V22.7381C29.2066 22.639 29.2066 22.5328 29.1842 22.4196C29.1096 21.9949 28.759 21.7118 28.3189 21.7047C27.8563 21.7047 27.4983 21.9878 27.4237 22.4267C27.4088 22.5328 27.4088 22.639 27.4088 22.731V22.7593C27.4088 24.3661 27.4088 25.98 27.4088 27.5867V28.0256L27.4162 28.0327Z" fill="#221F20" stroke="#221F20" stroke-width="0.5" stroke-linejoin="round"/>
<path d="M28.2843 20.6468C28.2843 20.6468 28.2916 20.6468 28.2989 20.6468C28.7731 20.6468 29.1598 20.2512 29.1598 19.7825C29.1598 19.5481 29.0649 19.321 28.8971 19.1598C28.7293 18.9914 28.5031 18.8961 28.2697 18.9035C27.8027 18.9108 27.416 19.299 27.4088 19.7751C27.4088 20.0095 27.4963 20.2293 27.6641 20.3977C27.8319 20.5662 28.0508 20.6541 28.2843 20.6541V20.6468Z" fill="#221F20" stroke="#221F20" stroke-width="0.5" stroke-linejoin="round"/>
<path d="M22.0558 34.4046C22.2176 34.5738 22.4383 34.6621 22.6811 34.6621C23.1593 34.6621 23.5493 34.2869 23.5566 33.8086C23.5566 33.5732 23.4757 33.3451 23.3065 33.1759C23.1373 33.0067 22.9166 32.911 22.6811 32.911C22.2103 32.911 21.813 33.2936 21.8056 33.7719C21.8056 34.0146 21.8865 34.2427 22.0558 34.4119V34.4046Z" fill="#221F20" stroke="#221F20" stroke-width="0.5" stroke-linejoin="round"/>
<path d="M28.2843 35.3702C28.2843 35.3702 28.277 35.3702 28.2697 35.3702C27.7954 35.3702 27.4088 35.7658 27.4088 36.2347C27.4088 36.4692 27.5036 36.6963 27.6714 36.8575C27.8392 37.0187 28.0581 37.1139 28.2843 37.1139C28.5104 37.1139 28.2916 37.1139 28.2989 37.1139C28.7658 37.1066 29.1525 36.711 29.1598 36.2421C29.1598 36.0076 29.0722 35.7878 28.9044 35.6193C28.7366 35.4508 28.5177 35.3629 28.2843 35.3629V35.3702Z" fill="#221F20" stroke="#221F20" stroke-width="0.5" stroke-linejoin="round"/>
<path d="M34.2418 32.911C34.2418 32.911 34.2345 32.911 34.2272 32.911C33.7584 32.9184 33.3702 33.3067 33.3629 33.7829C33.3629 34.0174 33.4508 34.2445 33.6192 34.4057C33.7877 34.5668 34.0074 34.6621 34.2418 34.6621C34.4762 34.6621 34.2491 34.6621 34.2565 34.6621C34.4982 34.6621 34.7179 34.5668 34.8717 34.3983C35.0329 34.2298 35.1208 34.0027 35.1135 33.7609C35.0988 33.2847 34.7179 32.9184 34.2418 32.9184V32.911Z" fill="#221F20" stroke="#221F20" stroke-width="0.5" stroke-linejoin="round"/>
<path d="M22.6813 23.1054C22.9167 23.1054 23.1374 23.0174 23.2992 22.8489C23.4684 22.6804 23.5566 22.4606 23.5566 22.2189C23.5566 21.7426 23.1742 21.3617 22.6887 21.3543H22.6813C22.2032 21.3543 21.8207 21.7207 21.806 22.1969C21.7987 22.4387 21.8869 22.6658 22.0488 22.8343C22.2106 23.0028 22.4312 23.098 22.6666 23.098C22.6666 23.098 22.6666 23.098 22.674 23.098L22.6813 23.1054Z" fill="#221F20" stroke="#221F20" stroke-width="0.5" stroke-linejoin="round"/>
<defs>
<linearGradient id="paint0_linear_332_3" x1="27.9997" y1="-1.2539" x2="27.9997" y2="56.1952" gradientUnits="userSpaceOnUse">
<stop stop-color="#00EFD1"/>
<stop offset="1" stop-color="#00ACEA"/>
</linearGradient>
</defs>
</svg>
