<svg width="22" height="22" viewBox="0 0 22 22" fill="none" xmlns="http://www.w3.org/2000/svg">
<path d="M15.5066 0.0708542C16.4303 0.0831795 17.3449 0.25639 18.2093 0.582739C18.9385 0.865742 19.6007 1.29799 20.1537 1.85186C20.7066 2.40573 21.1381 3.06904 21.4207 3.79942C21.741 4.65418 21.9142 5.5572 21.9329 6.47001C21.9854 7.64527 22 8.01788 22 11.0012C22 13.9846 22 14.3669 21.9329 15.5337C21.9141 16.4461 21.7409 17.3486 21.4207 18.203C21.1383 18.9335 20.7069 19.5969 20.1539 20.1508C19.6009 20.7047 18.9386 21.1369 18.2093 21.4197C17.3566 21.7412 16.4553 21.9143 15.5444 21.9316C14.3699 21.9841 13.9979 22 11.0195 22C8.04113 22 7.6606 22 6.49462 21.9316C5.58232 21.9133 4.68222 21.741 3.82725 21.4197C3.09819 21.1364 2.43615 20.7039 1.88341 20.1498C1.33067 19.5958 0.899393 18.9323 0.617138 18.2018C0.283934 17.3498 0.0983257 16.447 0.0683002 15.5324C0.0158558 14.356 0 13.9833 0 11C0 8.01666 0 7.63427 0.0683002 6.46757C0.0862427 5.55479 0.25905 4.65171 0.57933 3.79698C0.86219 3.06679 1.29383 2.40364 1.84674 1.84982C2.39964 1.29599 3.06169 0.863626 3.79066 0.580296C4.64442 0.258993 5.54452 0.0867386 6.45803 0.0684128C7.63133 0.0158806 8.00332 0 10.9829 0C13.9613 0.00244331 14.3394 0.00244141 15.5066 0.0708542ZM5.38718 11.0086C5.38718 14.1287 7.91063 16.6564 11.0256 16.6564C14.1406 16.6564 16.664 14.1287 16.664 11.0086C16.664 9.51065 16.07 8.07411 15.0126 7.01494C13.9552 5.95576 12.521 5.36073 11.0256 5.36073C9.53021 5.36073 8.09605 5.95576 7.03864 7.01494C5.98123 8.07411 5.38718 9.51065 5.38718 11.0086ZM15.5578 5.13594C15.5577 5.30893 15.5916 5.48026 15.6576 5.64011C15.7236 5.79997 15.8204 5.94521 15.9426 6.06753C16.0647 6.18986 16.2097 6.28686 16.3693 6.35299C16.5289 6.41912 16.6999 6.45307 16.8726 6.45291C17.0452 6.45291 17.2161 6.41886 17.3755 6.35271C17.535 6.28655 17.6798 6.18959 17.8019 6.06736C17.9239 5.94512 18.0207 5.8 18.0867 5.6403C18.1528 5.48059 18.1868 5.30941 18.1868 5.13655C18.1868 4.96368 18.1528 4.79251 18.0867 4.6328C18.0207 4.47309 17.9239 4.32798 17.8019 4.20574C17.6798 4.08351 17.535 3.98654 17.3755 3.92039C17.2161 3.85424 17.0452 3.82019 16.8726 3.82019C16.1457 3.82019 15.5578 4.40904 15.5578 5.13594Z" fill="#221F20"/>
</svg>
