<svg width="22" height="22" viewBox="0 0 22 22" fill="none" xmlns="http://www.w3.org/2000/svg">
<path fill-rule="evenodd" clip-rule="evenodd" d="M11 0C4.9247 0 0 4.9247 0 11C0 13.079 0.5775 15.026 1.5818 16.6848L0.6006 20.02C0.544263 20.2115 0.540556 20.4146 0.589869 20.608C0.639181 20.8014 0.739692 20.978 0.880835 21.1192C1.02198 21.2603 1.19854 21.3608 1.39196 21.4101C1.58538 21.4594 1.78851 21.4557 1.98 21.3994L5.3152 20.4182C7.02974 21.4556 8.99604 22.0027 11 22C17.0753 22 22 17.0753 22 11C22 4.9247 17.0753 0 11 0ZM8.5118 13.4893C10.7371 15.7135 12.8612 16.0072 13.6114 16.0347C14.7521 16.0765 15.8631 15.2053 16.2954 14.1944C16.35 14.0686 16.3698 13.9305 16.3528 13.7945C16.3357 13.6585 16.2825 13.5295 16.1986 13.4211C15.5958 12.6511 14.7807 12.0978 13.9843 11.5478C13.818 11.4328 13.6137 11.3867 13.4141 11.4191C13.2146 11.4515 13.0353 11.5599 12.914 11.7216L12.254 12.7281C12.2193 12.7822 12.1652 12.821 12.1029 12.8365C12.0405 12.8521 11.9745 12.8432 11.9185 12.8117C11.4708 12.5554 10.8185 12.1198 10.3499 11.6512C9.8813 11.1826 9.4721 10.56 9.2422 10.1409C9.21369 10.0876 9.20545 10.0259 9.219 9.96702C9.23255 9.90816 9.26698 9.85622 9.3159 9.8208L10.3323 9.06619C10.4773 8.94007 10.571 8.76501 10.5953 8.57434C10.6196 8.38368 10.573 8.19071 10.4643 8.0322C9.9715 7.3106 9.3973 6.3932 8.5646 5.7849C8.45713 5.70702 8.33125 5.65846 8.19932 5.644C8.0674 5.62953 7.93398 5.64966 7.8122 5.7024C6.8002 6.1358 5.9246 7.2468 5.9664 8.3897C5.9939 9.1399 6.2876 11.264 8.5118 13.4893Z" fill="black"/>
</svg>
