<svg xmlns="http://www.w3.org/2000/svg" width="54.341" height="60.001" viewBox="0 0 54.341 60.001">
  <g id="Group_26660" data-name="Group 26660" transform="translate(87.001 -2508)">
    <path id="Path_19796" data-name="Path 19796" d="M76.724,0c.335.085.674.163,1.006.258a7.584,7.584,0,0,1,5.287,4.806.7.7,0,0,0,.789.541Q94.851,5.587,105.9,5.6a4.063,4.063,0,0,1,4.274,3.177,20.008,20.008,0,0,1,.138,3.673.82.82,0,0,1-.923.784.842.842,0,0,1-.82-.9c-.015-.762,0-1.523-.01-2.285a2.444,2.444,0,0,0-2.7-2.677q-10.868,0-21.737,0h-.6c.192,2.288,1.572,3.778,3.173,5.2a2.882,2.882,0,0,1,3.82-.686,2.773,2.773,0,0,1,1.273,3.026,2.891,2.891,0,0,1,2.083,2.928c.183.063.363.12.541.184a2.747,2.747,0,0,1,1.9,3c-.035.3-.015.484.314.627a2.753,2.753,0,0,1,1.612,2.09,1.983,1.983,0,0,0,.44.837c.423.484.915.908,1.351,1.381a4.213,4.213,0,0,1-5.991,5.923c-.385-.36-.734-.76-1.132-1.1a.605.605,0,0,0-.526-.1,42.734,42.734,0,0,0-3.946,1.9,16.171,16.171,0,0,0-2.312,1.935c-.061.055-.05.26,0,.363a2.671,2.671,0,0,1-2.813,3.726.645.645,0,0,0-.447.182c-.491.445-.961.915-1.537,1.47h27.232v-23.1c0-.215-.008-.43.011-.644a.843.843,0,0,1,.858-.853.875.875,0,0,1,.9.822,4.075,4.075,0,0,1,.013.526q0,13.389,0,26.776a4.25,4.25,0,0,1-4.564,4.579q-8.175,0-16.347,0h-.812c.383,1.488.748,2.908,1.112,4.319.985.049,1.948.018,2.885.158a5.115,5.115,0,0,1,4.291,4.8A2.04,2.04,0,0,1,94.656,60H73.8c-.762,0-1.524.008-2.286,0a2.015,2.015,0,0,1-2.086-2.172,5.209,5.209,0,0,1,5.107-5.084c.662-.014,1.326,0,2.059,0,.373-1.429.743-2.85,1.138-4.371h-.754q-8.173,0-16.347,0A4.261,4.261,0,0,1,56,43.735Q56,26.919,56,10.1a4.227,4.227,0,0,1,3.336-4.415A5.939,5.939,0,0,1,60.561,5.6c2.46-.009,4.922,0,7.382-.018a1.1,1.1,0,0,0,.7-.286,1.636,1.636,0,0,1,2.444-.064,1.254,1.254,0,0,0,.986.37C73.3,5.584,74.525,5.6,75.9,5.6c-.211-.231-.339-.383-.477-.522-.647-.651-1.29-1.307-1.95-1.946A1.7,1.7,0,0,1,74.464.112,2.686,2.686,0,0,0,74.849,0ZM68.018,7.374h-.543q-3.455,0-6.91,0a2.463,2.463,0,0,0-2.78,2.769q0,14.759,0,29.519v.654c.792,0,1.5.031,2.194-.015a1.359,1.359,0,0,0,.8-.331c1.7-1.666,3.376-3.36,5.061-5.042.577-.576,1.108-.655,1.513-.233s.312.916-.24,1.47q-1.385,1.391-2.775,2.776c-.422.42-.848.838-1.314,1.3a1.156,1.156,0,0,0,.242.072q7.614.006,15.227,0a.661.661,0,0,0,.424-.128c.878-.853,1.74-1.72,2.525-2.5l-7.968-7.988a3.484,3.484,0,0,1-.321.428c-.906.917-1.805,1.842-2.741,2.725a1.225,1.225,0,0,1-.859.355.991.991,0,0,1-.687-.587,1.158,1.158,0,0,1,.251-.928c.972-1.041,2.007-2.022,3-3.047A.823.823,0,0,0,72.34,28a2.63,2.63,0,0,1,.866-2.9,2.6,2.6,0,0,1,3.016-.252.6.6,0,0,0,.528-.075,2.654,2.654,0,0,0,.857-2.754,6.7,6.7,0,0,1,.97-5.314c.016-.024,0-.073-.006-.135a6.531,6.531,0,0,0-3.352-1.209,7.633,7.633,0,0,1-6.8-5.632c-.2-.745-.261-1.528-.4-2.351M57.783,42.107c0,.558,0,1.061,0,1.564,0,2,.893,2.9,2.889,2.9h45c.233,0,.469,0,.7-.021a2.243,2.243,0,0,0,1.972-1.447,7.386,7.386,0,0,0,.178-3Zm27-8.85a.544.544,0,0,0,.124-.06,2.213,2.213,0,0,0,.252-.245,8.772,8.772,0,0,1,3.883-2.611,12.333,12.333,0,0,0,4.348-2.691c.9-.862,1.784-1.75,2.681-2.621a1.054,1.054,0,0,0,.33-1.214,1.028,1.028,0,0,0-1.074-.639,1.133,1.133,0,0,1-1-1.859.972.972,0,0,0,.064-1.192,1.043,1.043,0,0,0-1.245-.408,1.018,1.018,0,0,1-1.228-.226c-.355-.43-.174-.842,0-1.306a1.382,1.382,0,0,0-.049-1.079c-.153-.248-.6-.332-.933-.447-.1-.036-.26.056-.386.107a.869.869,0,0,1-1.134-.322.914.914,0,0,1,.128-1.226,2.237,2.237,0,0,0,.39-.506,1.012,1.012,0,0,0-1.523-1.258,3.762,3.762,0,0,0-.428.4c-1.48,1.474-2.949,2.96-4.445,4.419a2.079,2.079,0,0,1-3.123,0c-.137-.129-.279-.256-.453-.415a4.063,4.063,0,0,0-.7,2.934c.356,2.026.325,3.944-1.4,5.431-.023.02-.02.068-.024.082l6.943,6.952M70.012,6.661a5.919,5.919,0,0,0,5.367,6.929A7.831,7.831,0,0,1,79.6,15.138a26.508,26.508,0,0,1,1.995,1.8c.228.215.434.327.7.061,1.026-1.043,2.054-2.083,3.172-3.215-.317-.276-.647-.549-.962-.839a8.934,8.934,0,0,1-2.858-5.914,5.78,5.78,0,0,0-4.673-5.116,16.125,16.125,0,0,0-2.081-.143c-.009.065-.019.129-.029.194.146.153.29.307.438.458.881.886,1.793,1.743,2.638,2.661a3.344,3.344,0,0,1-1.5,5.509,3.293,3.293,0,0,1-3.427-.933c-.981-.975-1.953-1.956-3-3M83.139,58.226H94.327c.851,0,.936-.112.749-.965a3.471,3.471,0,0,0-3.53-2.753c-2.479-.014-4.959,0-7.438,0-3.105,0-6.21-.01-9.314.005a3.484,3.484,0,0,0-3.557,2.863c-.128.759-.051.852.714.853H83.139m3.627-9.857c-2.337,0-4.6,0-6.864.01a.481.481,0,0,0-.375.238c-.374,1.349-.72,2.7-1.079,4.079H87.89c-.38-1.46-.745-2.869-1.124-4.327M84.573,35.834a3.213,3.213,0,0,0-.42-.637q-4.249-4.274-8.52-8.529a1.557,1.557,0,0,0-.314-.261.812.812,0,0,0-1.066.143.82.82,0,0,0-.109,1.071,2.091,2.091,0,0,0,.344.4q4.176,4.181,8.358,8.359a2.124,2.124,0,0,0,.4.339.9.9,0,0,0,1.329-.881m9.676-6.277c.335.335.736.79,1.191,1.182a2.371,2.371,0,0,0,2.732.232,2.428,2.428,0,0,0,1.206-2.413c-.13-1.176-1.066-1.741-1.828-2.551l-3.3,3.549M77.058,7.431H73.311c.424.423.768.794,1.143,1.13a1.574,1.574,0,0,0,2.6-1.13" transform="translate(-143 2508)"/>
  </g>
</svg>
