<svg id="Group_26663" data-name="Group 26663" xmlns="http://www.w3.org/2000/svg" xmlns:xlink="http://www.w3.org/1999/xlink" width="59.998" height="60.001" viewBox="0 0 59.998 60.001">
  <defs>
    <clipPath id="clip-path">
      <rect id="Rectangle_3683" data-name="Rectangle 3683" width="59.998" height="60.001" fill="#231f20"/>
    </clipPath>
  </defs>
  <g id="Group_26663-2" data-name="Group 26663" clip-path="url(#clip-path)">
    <path id="Path_19849" data-name="Path 19849" d="M0,239.991c.141-.543.25-1.1.428-1.627a8.407,8.407,0,0,1,4.692-5.1,7.672,7.672,0,0,1-.845-6.612,7.494,7.494,0,0,1,2.995-3.932,7.665,7.665,0,0,1,10.69,10.551,8.574,8.574,0,0,1,3.753,3.158,8.241,8.241,0,0,1,1.356,4.532c.012,1.406-.025,2.812.015,4.217a1.615,1.615,0,0,1-.824,1.6H0v-6.794m20.707,4.422c0-1.356.084-2.668-.018-3.964a5.852,5.852,0,0,0-4.129-5.161.946.946,0,0,0-.691.082,7.6,7.6,0,0,1-8.65.017.925.925,0,0,0-.685-.107,5.525,5.525,0,0,0-4.028,4.51,30.223,30.223,0,0,0-.044,4.624ZM11.5,234.368a5.3,5.3,0,1,0-5.278-5.306,5.333,5.333,0,0,0,5.278,5.306" transform="translate(0 -186.784)" fill="#231f20"/>
    <path id="Path_19850" data-name="Path 19850" d="M236.648,246.792a1.6,1.6,0,0,1-.825-1.6c.061-1.753-.067-3.523.121-5.26a7.979,7.979,0,0,1,4.68-6.488c.069-.035.141-.067.209-.1a.723.723,0,0,0,.092-.071,7.67,7.67,0,1,1,12.876-.013c.161.089.321.179.482.267a8.231,8.231,0,0,1,4.618,7.461c.036,1.4-.024,2.811.019,4.215a1.572,1.572,0,0,1-.832,1.593Zm19.9-2.363c0-1.366.069-2.675-.015-3.974a5.872,5.872,0,0,0-4.071-5.14,1.079,1.079,0,0,0-.793.092,7.617,7.617,0,0,1-8.6,0,1.06,1.06,0,0,0-.793-.089,5.744,5.744,0,0,0-3.839,3.94c-.514,1.688-.184,3.432-.265,5.173ZM247.3,223.774a5.3,5.3,0,1,0,5.381,5.2,5.322,5.322,0,0,0-5.381-5.2" transform="translate(-198.924 -186.791)" fill="#231f20"/>
    <path id="Path_19851" data-name="Path 19851" d="M41.11,20.771c-.828,0-1.666-.021-2.5.015a1.207,1.207,0,0,0-.6.318q-3.857,3.053-7.7,6.119c-.107.085-.215.168-.323.253a1.134,1.134,0,0,1-1.311.155,1.174,1.174,0,0,1-.635-1.1c-.03-1.8-.082-3.591-.1-5.387,0-.386-.08-.565-.5-.672A10.356,10.356,0,0,1,27.981.212,8.707,8.707,0,0,1,29.607.039C32.3.02,35,.028,37.691.03a1.861,1.861,0,0,1,.52.058,1.17,1.17,0,0,1,.827,1.261,1.2,1.2,0,0,1-1.3,1.019c-2.656.006-5.311-.027-7.966.012a7.719,7.719,0,0,0-6.225,3.1,8.034,8.034,0,0,0,5.389,12.907c1,.152,1.305.491,1.323,1.5.021,1.191.035,2.382.056,3.572,0,.209.026.417.046.728l3.1-2.46c1.192-.948,2.363-1.922,3.586-2.828a2.544,2.544,0,0,1,1.273-.449c.93-.067,1.868-.02,2.823-.02a7.175,7.175,0,0,1,2.241-4.051,6.591,6.591,0,0,1,4.452-1.816q7.79-.042,15.581-.005c.594,0,.779-.175.885-.749a8.044,8.044,0,0,0-7.643-9.424c-2.694-.046-5.389-.008-8.083-.014a1.191,1.191,0,0,1-1.315-.917A1.12,1.12,0,0,1,48.3.047c3.142,0,6.3-.165,9.421.125a10.173,10.173,0,0,1,9.017,10.67c-.028.583-.11,1.164-.173,1.807l.676.214A7.052,7.052,0,0,1,67.351,26.3a.676.676,0,0,0-.563.774c.013.917-.051,1.834-.056,2.751a1.2,1.2,0,0,1-1.975,1.044c-2.017-1.3-4.034-2.6-6.069-3.871a2.067,2.067,0,0,0-1.028-.3c-2.987-.023-5.975-.013-8.962-.014-3.955,0-6.445-1.895-7.514-5.711-.015-.055-.039-.107-.074-.2M64.337,27.79c.048-.07.086-.1.087-.131.02-.6.041-1.208.051-1.812.019-1.094.3-1.413,1.378-1.571a4.773,4.773,0,0,0,4.005-4.934A4.66,4.66,0,0,0,65.333,14.9c-5.795-.038-11.59-.049-17.385,0a4.671,4.671,0,0,0-4.35,6.032,4.73,4.73,0,0,0,4.775,3.4c3.239.012,6.478-.015,9.717.022a3.065,3.065,0,0,1,1.468.422c1.455.87,2.866,1.814,4.3,2.727.158.1.323.189.483.281" transform="translate(-16.45 0)" fill="#231f20"/>
    <path id="Path_19852" data-name="Path 19852" d="M163.166,1.358A1.155,1.155,0,0,1,164.3.2a1.2,1.2,0,0,1,1.2,1.174,1.19,1.19,0,0,1-1.151,1.16,1.155,1.155,0,0,1-1.181-1.173" transform="translate(-137.636 -0.166)" fill="#231f20"/>
    <path id="Path_19853" data-name="Path 19853" d="M291.907,118.969a1.165,1.165,0,0,1,1.132-1.166,1.2,1.2,0,0,1,1.193,1.179,1.178,1.178,0,0,1-1.207,1.155,1.138,1.138,0,0,1-1.118-1.168" transform="translate(-246.234 -99.371)" fill="#231f20"/>
    <path id="Path_19854" data-name="Path 19854" d="M209.154,118.994a1.142,1.142,0,0,1-1.2,1.15,1.177,1.177,0,0,1-1.132-1.171,1.2,1.2,0,0,1,1.154-1.161,1.163,1.163,0,0,1,1.175,1.182" transform="translate(-174.465 -99.378)" fill="#231f20"/>
    <path id="Path_19855" data-name="Path 19855" d="M251.691,118.971a1.167,1.167,0,0,1-2.334.021,1.167,1.167,0,1,1,2.334-.021" transform="translate(-210.341 -99.376)" fill="#231f20"/>
  </g>
</svg>
