<svg xmlns="http://www.w3.org/2000/svg" xmlns:xlink="http://www.w3.org/1999/xlink" width="32.867" height="60.004" viewBox="0 0 32.867 60.004">
  <defs>
    <clipPath id="clip-path">
      <rect id="Rectangle_3682" data-name="Rectangle 3682" width="32.867" height="60.004" fill="#231f20"/>
    </clipPath>
  </defs>
  <g id="Group_26661" data-name="Group 26661" transform="translate(-831 -2605.008)">
    <g id="Group_26662" data-name="Group 26662" transform="translate(831 2605.008)">
      <g id="Mask_Group_26661" data-name="Mask Group 26661" clip-path="url(#clip-path)">
        <path id="Path_19845" data-name="Path 19845" d="M15.828,60a5.524,5.524,0,0,1-2.208-1.469Q7.348,52.589,1.056,46.663a3.1,3.1,0,0,1,2.1-5.42c.486-.006.971,0,1.507,0,.012-.224.03-.412.03-.6,0-4.082.009-8.165-.015-12.247a1.483,1.483,0,0,0-.365-.913A16.414,16.414,0,0,1,1.4,9.793c.367-.826.982-1.132,1.66-.826.639.288.816.936.492,1.744-2.195,5.462-1.53,10.562,2.363,14.974A13.21,13.21,0,0,0,20.2,29.906,13.327,13.327,0,0,0,30.232,18.824,13.98,13.98,0,0,0,18.453,2.485a13.819,13.819,0,0,0-7.513.966c-.126.053-.249.113-.377.161a1.183,1.183,0,0,1-1.585-.56,1.162,1.162,0,0,1,.662-1.59A15.63,15.63,0,0,1,14.291.131a16.259,16.259,0,0,1,17.4,10.363c2.326,6.2,1.177,11.893-3.143,16.921a1.528,1.528,0,0,0-.419,1.087c.015,4,.009,8.009.009,12.013v.727c.51,0,.989,0,1.469,0A3.1,3.1,0,0,1,32.6,43.188a3.056,3.056,0,0,1-.826,3.473q-6.551,6.206-13.132,12.381A8.515,8.515,0,0,1,17,60ZM7.038,29.87V30.5q0,5.831,0,11.661c0,.993-.433,1.42-1.433,1.426-.762,0-1.524.01-2.285,0-.4-.006-.741.065-.906.483s.05.7.338.971q6.5,6.131,13,12.267c.522.493.816.49,1.355-.012.715-.665,1.422-1.339,2.132-2.01q5.41-5.111,10.806-10.235A1.293,1.293,0,0,0,30.4,44.1c-.055-.452-.5-.524-.921-.516-.722.014-1.445.005-2.168,0-1.124,0-1.521-.4-1.522-1.515q0-5.743,0-11.486v-.713a16.43,16.43,0,0,1-18.753,0" transform="translate(0 0)" fill="#231f20"/>
        <path id="Path_19846" data-name="Path 19846" d="M41.712,29.91A11.72,11.72,0,1,1,29.978,41.586,11.735,11.735,0,0,1,41.712,29.91m0,2.344a9.376,9.376,0,1,0,9.365,9.415,9.392,9.392,0,0,0-9.365-9.415" transform="translate(-25.284 -25.227)" fill="#231f20"/>
        <path id="Path_19847" data-name="Path 19847" d="M30.873,29.623a1.163,1.163,0,0,1-1.118,1.18,1.181,1.181,0,0,1-1.216-1.148,1.2,1.2,0,0,1,1.184-1.187,1.179,1.179,0,0,1,1.151,1.155" transform="translate(-24.07 -24.01)" fill="#231f20"/>
        <path id="Path_19848" data-name="Path 19848" d="M90.495,78.344H88.116a2.011,2.011,0,0,1,.719,1.3h1.66v.787H88.852c-.188,1.352-1.387,2.174-3.184,2.259,1.147,1.027,2.4,2.362,3.629,3.7H87.619c-1.1-1.13-2.191-2.345-3.56-3.595V81.733h.856c1.506,0,2.311-.514,2.448-1.3h-3.3v-.787h3.252c-.24-.633-.976-1.01-2.191-1.01H84.059V77.557h6.436Z" transform="translate(-70.897 -65.413)" fill="#231f20"/>
      </g>
    </g>
  </g>
</svg>
