<svg xmlns="http://www.w3.org/2000/svg" xmlns:xlink="http://www.w3.org/1999/xlink" width="38.76" height="27.266" viewBox="0 0 38.76 27.266">
  <defs>
    <clipPath id="clip-path">
      <rect id="Rectangle_3622" data-name="Rectangle 3622" width="38.76" height="27.266" fill="#00b16b"/>
    </clipPath>
  </defs>
  <g id="Group_26651" data-name="Group 26651" transform="translate(0)">
    <g id="Group_26622" data-name="Group 26622" transform="translate(0 0)">
      <g id="Group_26621" data-name="Group 26621" clip-path="url(#clip-path)">
        <path id="Path_19799" data-name="Path 19799" d="M2.767,18.944c-.611,0-1.112.019-1.61,0A1.085,1.085,0,0,1,.014,17.793q-.027-4.234,0-8.468a1.086,1.086,0,0,1,1.152-1.14c.5-.022,1,0,1.6,0V7.167c0-1.915-.006-3.831,0-5.746,0-.909.406-1.4,1.116-1.419C4.624-.017,5.037.487,5.04,1.439c.006,1.941,0,3.881,0,5.822V8.18c.534,0,1-.007,1.473,0,.847.016,1.311.4,1.318,1.216q.035,4.158,0,8.316c-.006.829-.453,1.211-1.3,1.231-.452.01-.9,0-1.49,0,0,.531.012,1.023,0,1.514-.023.788-.44,1.25-1.109,1.257a1.159,1.159,0,0,1-1.157-1.231c-.016-.251,0-.5,0-.756,0-.225,0-.449,0-.786" transform="translate(0 -0.001)" fill="#00b16b"/>
        <path id="Path_19800" data-name="Path 19800" d="M207.135,13.323c-.547,0-1.045.019-1.542,0a1.133,1.133,0,0,1-1.209-1.182q-.037-4.083,0-8.166a1.147,1.147,0,0,1,1.259-1.211c.475-.018.952,0,1.533,0,0-.553-.014-1.049,0-1.544A1.1,1.1,0,0,1,208.255,0a1.134,1.134,0,0,1,1.185,1.2c.019.251.006.5.006.756,0,.226,0,.452,0,.8.451,0,.867,0,1.284,0,1.076.01,1.475.393,1.477,1.445q.008,3.856,0,7.713c0,1-.413,1.4-1.437,1.41-.4.005-.8,0-1.324,0,0,.76,0,1.478,0,2.2s.02,1.463-.008,2.193a1.133,1.133,0,0,1-1.15,1.231,1.113,1.113,0,0,1-1.111-1.252c-.016-1.184,0-2.369-.007-3.554,0-.246-.02-.493-.035-.815" transform="translate(-173.452 -0.003)" fill="#00b16b"/>
        <path id="Path_19801" data-name="Path 19801" d="M141.292,65.341V67q0,2.494,0,4.988c0,1.231-.354,1.763-1.16,1.752-.786-.011-1.115-.512-1.116-1.71q0-2.872,0-5.744v-.939c-.511,0-.954.011-1.4,0-.973-.028-1.388-.43-1.394-1.389q-.018-2.532,0-5.064c.007-.966.421-1.357,1.4-1.369.427-.005.853,0,1.4,0,0-.541-.016-1.037,0-1.531.031-.782.463-1.24,1.133-1.235s1.094.465,1.13,1.248c.022.473,0,.949,0,1.519.544,0,1.015-.009,1.486,0,.838.02,1.277.421,1.286,1.244q.029,2.645,0,5.29a1.163,1.163,0,0,1-1.264,1.282c-.47.024-.943,0-1.506,0" transform="translate(-115.612 -46.47)" fill="#00b16b"/>
        <path id="Path_19802" data-name="Path 19802" d="M70.866,94.1c0-.588-.018-1.064,0-1.537a1.182,1.182,0,0,1,1.143-1.253,1.17,1.17,0,0,1,1.121,1.265c.018.472,0,.945,0,1.524.555,0,1.026-.012,1.5,0,.849.027,1.282.418,1.292,1.245q.033,2.647,0,5.295a1.139,1.139,0,0,1-1.277,1.255c-.452.012-.905,0-1.511,0,0,.549.013,1.063,0,1.576-.026.839-.454,1.306-1.156,1.289-.666-.016-1.07-.473-1.111-1.27-.013-.251,0-.5,0-.756s0-.495,0-.839c-.575,0-1.073.015-1.569,0a1.106,1.106,0,0,1-1.2-1.175q-.035-2.723,0-5.446a1.108,1.108,0,0,1,1.208-1.169c.475-.021.951,0,1.561,0" transform="translate(-57.782 -77.5)" fill="#00b16b"/>
      </g>
    </g>
  </g>
</svg>
