<svg id="Group_26650" data-name="Group 26650" xmlns="http://www.w3.org/2000/svg" xmlns:xlink="http://www.w3.org/1999/xlink" width="23.672" height="23.94" viewBox="0 0 23.672 23.94">
  <defs>
    <clipPath id="clip-path">
      <rect id="Rectangle_3621" data-name="Rectangle 3621" width="23.672" height="23.94" fill="#00b16b"/>
    </clipPath>
  </defs>
  <g id="Group_26619" data-name="Group 26619" clip-path="url(#clip-path)">
    <path id="Path_19797" data-name="Path 19797" d="M105.786,7.671H103.04L108.533,0l5.481,7.656h-2.707c-.012.284-.03.5-.03.719,0,2.238.006,4.476-.011,6.714a1.472,1.472,0,0,1-.213.8c-1.655,2.348-3.333,4.681-5.007,7.016a2.668,2.668,0,0,1-.26.246Z" transform="translate(-90.341)" fill="#00b16b"/>
    <path id="Path_19798" data-name="Path 19798" d="M5.47,29.718,0,22.083H2.686c.014-.284.035-.5.035-.715,0-2.259,0-4.517.01-6.776a1.364,1.364,0,0,1,.2-.74C4.6,11.489,6.287,9.139,7.973,6.787a2.014,2.014,0,0,1,.216-.2V22.026h2.784l-5.5,7.692" transform="translate(0 -5.778)" fill="#00b16b"/>
  </g>
</svg>
