<svg xmlns="http://www.w3.org/2000/svg" width="42.214" height="60.001" viewBox="0 0 42.214 60.001">
  <g id="Group_26626" data-name="Group 26626" transform="translate(143 -2508)">
    <path id="Path_19793" data-name="Path 19793" d="M23.452,0c1.061.142,2.13.241,3.182.432,6.544,1.186,10.81,5.05,13.133,11.2a35.956,35.956,0,0,1,1.958,8.948,80.881,80.881,0,0,1,.353,13.512,41.87,41.87,0,0,1-2.819,14.043c-2.129,5.034-5.55,8.776-10.791,10.643a24.542,24.542,0,0,1-9.7,1.169,21.288,21.288,0,0,1-6.575-1.3,16.316,16.316,0,0,1-9.236-9.125A32.467,32.467,0,0,1,.6,40.316a78.666,78.666,0,0,1-.458-14.5A41.75,41.75,0,0,1,3.036,11.787a18.153,18.153,0,0,1,10.4-10.436A20.548,20.548,0,0,1,19.19.107C19.4.09,19.61.036,19.819,0ZM39.976,29.44c-.2-2.94-.335-5.885-.612-8.817a29.656,29.656,0,0,0-2.2-9.18,13.7,13.7,0,0,0-8.853-8.184,22.67,22.67,0,0,0-13.162,0c-4.9,1.475-8.036,4.9-9.989,9.519A39.567,39.567,0,0,0,2.488,25.96a76.159,76.159,0,0,0,.46,14.206,29.915,29.915,0,0,0,2.129,8.361A13.926,13.926,0,0,0,15.37,57.143a24.683,24.683,0,0,0,10.235.01,14.943,14.943,0,0,0,9.107-5.736,21.5,21.5,0,0,0,3.509-7.411A60.41,60.41,0,0,0,39.976,29.44" transform="translate(-143 2508)" fill="#231f20"/>
    <path id="Path_19794" data-name="Path 19794" d="M28.374,28.622A52.039,52.039,0,0,1,27.8,39.359a17.886,17.886,0,0,1-1.884,5.751,8.619,8.619,0,0,1-12.468,2.457A9.368,9.368,0,0,1,10.575,42.9a33.077,33.077,0,0,1-1.29-7.657c-.048-.642-.1-1.285-.114-1.928a1.2,1.2,0,0,1,1.152-1.342,1.209,1.209,0,0,1,1.187,1.262,37.78,37.78,0,0,0,1.066,8.107,16.656,16.656,0,0,0,1.056,2.778,4.743,4.743,0,0,0,4.165,2.7c3.4.287,5.505-1.048,6.715-4.229a24.611,24.611,0,0,0,1.405-6.973,97.724,97.724,0,0,0-.005-14.162,26.728,26.728,0,0,0-1.538-8.072,9.562,9.562,0,0,0-1.055-1.945A3.7,3.7,0,0,0,20.842,9.8a13.615,13.615,0,0,0-3.075-.178,5.013,5.013,0,0,0-4.05,2.733,15.207,15.207,0,0,0-1.728,5.612c-.211,1.546-.315,3.105-.468,4.658a1.168,1.168,0,1,1-2.331-.135,34.14,34.14,0,0,1,1.39-8.817,9.6,9.6,0,0,1,3.494-5.133,8.334,8.334,0,0,1,12.35,3.63,27.189,27.189,0,0,1,1.711,7.74c.107,1.048.207,2.1.228,3.153.036,1.854.01,3.709.01,5.563" transform="translate(-140.665 2509.806)" fill="#231f20"/>
    <path id="Path_19795" data-name="Path 19795" d="M10.24,25.048a1.157,1.157,0,0,1-1.164-1.132,1.168,1.168,0,1,1,2.336-.049,1.151,1.151,0,0,1-1.172,1.181" transform="translate(-140.689 2513.785)" fill="#231f20"/>
  </g>
</svg>
