<svg width="40" height="42" viewBox="0 0 40 42" fill="none" xmlns="http://www.w3.org/2000/svg">
<g clip-path="url(#clip0_126_4188)">
<path d="M5.61523 21.8895C5.64727 14.0207 11.9149 7.70316 19.6538 7.73938C27.3557 7.77431 33.5758 14.1125 33.5694 21.9179C33.5617 29.691 27.2172 36.0602 19.5218 36.0201C11.8341 35.98 5.58446 29.6301 5.61523 21.8895ZM21.1278 20.685C21.1278 20.4534 21.1278 20.28 21.1278 20.1066C21.1278 17.9939 21.1304 15.8811 21.1265 13.7671C21.124 12.8071 20.4523 12.0852 19.5795 12.0865C18.6938 12.0878 18.0581 12.7864 18.0568 13.7749C18.0543 16.5487 18.053 19.3239 18.0568 22.0978C18.0581 23.1198 18.6772 23.7719 19.691 23.7797C21.6251 23.7952 23.5592 23.7965 25.4921 23.7797C26.4187 23.7706 27.1096 23.0707 27.1032 22.2103C27.0968 21.3215 26.4392 20.6966 25.4715 20.6888C24.2091 20.6785 22.9466 20.6862 21.6841 20.6862C21.5123 20.6862 21.3419 20.6862 21.1265 20.6862L21.1278 20.685Z" fill="#221F20"/>
<path d="M22.1072 5.34207C22.0559 5.62023 22.0405 5.86476 21.9636 6.08858C21.6035 7.12878 20.1923 7.46128 19.4515 6.64879C18.7491 5.87899 18.0865 5.0665 17.4584 4.2333C16.9111 3.5062 17.0637 2.68077 17.7583 2.09856C18.4351 1.53059 19.0824 0.928987 19.7745 0.381718C20.7588 -0.395845 22.0431 0.0712103 22.2482 1.27443C22.2943 1.54741 22.2238 1.8411 22.2085 2.10633C23.23 2.36379 24.272 2.55009 25.2628 2.88906C32.7941 5.46627 37.5852 10.6065 39.0169 18.5516C40.7305 28.0634 35.164 39.5859 23.007 41.7102C12.3482 43.5733 2.15731 36.2725 0.291138 25.4552C-1.23026 16.6368 3.33521 7.80802 11.3703 4.01724C11.8496 3.79083 12.3277 3.64722 12.8468 3.83482C13.4056 4.03665 13.7927 4.5865 13.7991 5.21916C13.8068 5.86735 13.553 6.34734 12.9365 6.6475C8.81069 8.65544 5.86147 11.8006 4.1773 16.0973C0.460324 25.5755 6.36262 36.4458 16.2895 38.4564C24.9449 40.2095 33.5119 34.9166 35.7882 26.41C38.2619 17.1621 32.6839 7.77438 23.4261 5.60988C22.9954 5.50897 22.5596 5.43264 22.1072 5.34078V5.34207Z" fill="#221F20"/>
</g>
<defs>
<clipPath id="clip0_126_4188">
<rect width="39.3191" height="42" fill="white"/>
</clipPath>
</defs>
</svg>
