<svg width="20" height="20" viewBox="0 0 20 20" fill="none" xmlns="http://www.w3.org/2000/svg">
<g clip-path="url(#clip0_4270_1679)">
<path d="M9.74219 0.925781C12.2617 0.925781 14.6781 1.92667 16.4597 3.70827C18.2413 5.48986 19.2422 7.90622 19.2422 10.4258C19.2422 12.9453 18.2413 15.3617 16.4597 17.1433C14.6781 18.9249 12.2617 19.9258 9.74219 19.9258C7.22263 19.9258 4.80627 18.9249 3.02467 17.1433C1.24308 15.3617 0.242188 12.9453 0.242188 10.4258C0.242188 7.90622 1.24308 5.48986 3.02467 3.70827C4.80627 1.92667 7.22263 0.925781 9.74219 0.925781V0.925781ZM5.58594 9.83203C5.42846 9.83203 5.27744 9.89459 5.16609 10.0059C5.05474 10.1173 4.99219 10.2683 4.99219 10.4258C4.99219 10.5833 5.05474 10.7343 5.16609 10.8456C5.27744 10.957 5.42846 11.0195 5.58594 11.0195H12.4651L9.91556 13.5679C9.86036 13.6231 9.81657 13.6886 9.78669 13.7608C9.75681 13.8329 9.74144 13.9102 9.74144 13.9883C9.74144 14.0664 9.75681 14.1437 9.78669 14.2158C9.81657 14.2879 9.86036 14.3535 9.91556 14.4087C9.97077 14.4639 10.0363 14.5077 10.1084 14.5375C10.1806 14.5674 10.2579 14.5828 10.3359 14.5828C10.414 14.5828 10.4913 14.5674 10.5634 14.5375C10.6356 14.5077 10.7011 14.4639 10.7563 14.4087L14.3188 10.8462C14.3741 10.791 14.418 10.7255 14.4479 10.6533C14.4778 10.5812 14.4932 10.5039 14.4932 10.4258C14.4932 10.3477 14.4778 10.2704 14.4479 10.1982C14.418 10.1261 14.3741 10.0606 14.3188 10.0054L10.7563 6.44291C10.6448 6.33142 10.4936 6.26878 10.3359 6.26878C10.1783 6.26878 10.0271 6.33142 9.91556 6.44291C9.80407 6.5544 9.74144 6.70561 9.74144 6.86328C9.74144 7.02095 9.80407 7.17217 9.91556 7.28366L12.4651 9.83203H5.58594Z" fill="#0066B3"/>
</g>
<defs>
<clipPath id="clip0_4270_1679">
<rect width="19" height="19" fill="white" transform="matrix(-1 0 0 1 19.2422 0.925781)"/>
</clipPath>
</defs>
</svg>
