<svg width="254" height="255" viewBox="0 0 254 255" fill="none" xmlns="http://www.w3.org/2000/svg">
<path d="M253.73 0.554688H69.5781V225.952H253.73V0.554688Z" fill="#F3F3F3"/>
<path d="M211.868 116.508H97.5625V125.135H211.868V116.508Z" fill="#FF725E"/>
<path d="M155.738 74.0156H99.0938V82.6424H155.738V74.0156Z" fill="#E0E0E0"/>
<path d="M181.168 53.6747C181.168 53.773 162.947 53.8502 140.463 53.8502C117.978 53.8502 99.75 53.773 99.75 53.6747C99.75 53.5764 117.978 53.4922 140.463 53.4922C162.947 53.4922 181.168 53.5694 181.168 53.6747Z" fill="#263238"/>
<path d="M212.22 142.886C212.22 142.984 186.883 143.068 155.61 143.068C124.337 143.068 99 142.984 99 142.886C99 142.787 124.337 142.703 155.61 142.703C186.883 142.703 212.22 142.787 212.22 142.886Z" fill="#263238"/>
<path d="M212.22 152.815C212.22 152.914 186.883 152.998 155.61 152.998C124.337 152.998 99 152.914 99 152.815C99 152.717 124.337 152.633 155.61 152.633C186.883 152.633 212.22 152.717 212.22 152.815Z" fill="#263238"/>
<path d="M212.22 162.854C212.22 162.96 186.883 163.037 155.61 163.037C124.337 163.037 99 162.96 99 162.854C99 162.749 124.337 162.672 155.61 162.672C186.883 162.672 212.22 162.756 212.22 162.854Z" fill="#263238"/>
<path d="M148.961 193.315C148.961 193.421 137.849 193.498 124.144 193.498C110.439 193.498 99.3203 193.421 99.3203 193.315C99.3203 193.21 110.432 193.133 124.144 193.133C137.856 193.133 148.961 193.217 148.961 193.315Z" fill="#263238"/>
<path d="M0.734375 252.339L5.32299 252.269L15.4581 163.601L10.939 163.078L0.734375 252.339Z" fill="#455A64"/>
<path d="M27.6328 252.339L32.2214 252.269L42.3566 163.601L37.8375 163.078L27.6328 252.339Z" fill="#455A64"/>
<path d="M108.708 252.5L104.119 252.43L93.9844 164.578L98.5035 164.062L108.708 252.5Z" fill="#455A64"/>
<path d="M79.13 252.5L74.5414 252.43L64.4062 164.578L68.9253 164.062L79.13 252.5Z" fill="#455A64"/>
<path d="M7.8852 178.281H100.461V168.723H7.8852V178.281Z" fill="#455A64"/>
<path d="M67.2722 62.2109L8.62441 62.9343L7.88281 168.74L75.2289 169.656L67.2722 62.2109Z" fill="#455A64"/>
<path d="M93.5306 103.601C93.2293 101.562 87.088 94.7974 87.088 94.7974C87.088 94.7974 83.998 82.4845 83.1019 78.9061C82.7919 77.8633 82.3424 76.8667 81.7655 75.9433C79.5909 72.3376 76.4999 69.3673 72.8046 67.332L64.3071 62.5762L62.2755 58.0743L40.4448 54.2266L36.0493 59.2671C36.0493 59.2671 19.5643 65.4928 17.4013 67.3859C14.7516 69.6946 22.0363 108.434 22.0363 108.434C22.0363 108.434 16.4125 131.936 15.2306 136.8C14.0487 141.663 15.7481 148.489 15.7481 148.489L26.9184 137.854C30.0084 134.006 35.5549 129.273 40.4602 129.343L82.3681 129.527L80.6995 117.83L114.581 124.394C114.581 124.394 120.413 113.074 120.877 112.851C121.34 112.628 93.5306 103.601 93.5306 103.601Z" fill="#FF725E"/>
<path d="M40.7705 60.2176C40.4769 59.9174 43.3815 69.8601 46.7187 78.9793C48.5162 83.9127 49.4313 89.122 49.4224 94.3703V127.4L69.5073 126.045L66.51 104.236C66.51 104.236 64.0612 90.207 63.42 84.8663C62.7866 79.9797 60.6236 65.1042 60.6236 65.1042C60.6236 65.1042 49.1829 68.7211 40.7705 60.2176Z" fill="white"/>
<path d="M85.5962 111.783C85.5617 111.615 85.5617 111.443 85.5962 111.275C85.638 110.818 85.7261 110.367 85.8589 109.928C86.287 108.468 87.0775 107.138 88.1576 106.062C89.2377 104.986 90.5726 104.198 92.0388 103.772C92.4813 103.647 92.9335 103.56 93.3907 103.51C93.5589 103.476 93.7323 103.476 93.9005 103.51C93.9005 103.572 93.1976 103.649 92.1238 104.018C90.7287 104.504 89.4595 105.292 88.4081 106.327C87.3658 107.374 86.5737 108.642 86.0906 110.036C85.7353 111.113 85.658 111.821 85.5962 111.783Z" fill="#263238"/>
<path d="M86.6641 103.889C87.6172 103.391 88.6609 103.09 89.7332 103.003C90.8054 102.916 91.8843 103.044 92.9058 103.381C92.9058 103.488 91.4844 103.219 89.7618 103.381C88.0391 103.542 86.6641 103.989 86.6641 103.889Z" fill="#263238"/>
<g opacity="0.3">
<path d="M19.988 121.906L18.2422 123.876C20.0666 126.119 22.5399 127.747 25.326 128.54C28.1176 129.132 30.9703 129.39 33.8234 129.309C34.9843 129.362 36.1469 129.251 37.2764 128.978C38.4197 128.655 39.4781 128.009 40.66 127.94C41.4443 127.947 42.2239 128.061 42.9775 128.278C43.7342 128.486 44.5316 128.5 45.2949 128.317C45.6787 128.212 46.0186 127.987 46.2646 127.675C46.5107 127.363 46.6501 126.981 46.6623 126.585C37.9692 124.059 29.0243 122.49 19.988 121.906Z" fill="black"/>
</g>
<path d="M77.3407 124.437L72.4122 119.219L62.2694 116.664C62.2694 116.664 52.9994 119.442 52.7522 119.427C52.5051 119.411 44.6642 117.287 44.6642 117.287L41.9219 127.338L56.0817 128.3L72.2577 127.653C72.2577 127.653 73.0997 126.884 72.6053 126.337C72.1109 125.791 75.3091 127.245 75.6953 127.261C76.0816 127.276 76.8 127.569 77.3021 126.961C77.6343 126.553 78.0978 125.237 77.3407 124.437Z" fill="#FFBE9D"/>
<path d="M72.6014 126.349C72.0493 126.251 71.5084 126.099 70.9869 125.894C70.0058 125.579 68.6694 125.163 67.1244 124.779C65.5795 124.394 64.2044 124.101 63.1925 123.901C62.639 123.824 62.0935 123.698 61.5625 123.524C62.1242 123.496 62.6873 123.537 63.2388 123.647C64.5778 123.832 65.9059 124.089 67.2171 124.417C68.5265 124.753 69.816 125.161 71.0796 125.641C71.6137 125.814 72.1247 126.052 72.6014 126.349Z" fill="#EB996E"/>
<path d="M77.3397 124.43C76.5769 124.233 75.8263 123.991 75.0918 123.707C73.709 123.245 71.7855 122.676 69.638 122.083C67.8541 121.451 66.0117 120.998 64.1378 120.729C63.3641 120.691 62.5885 120.721 61.8203 120.821C62.0064 120.715 62.2108 120.644 62.4229 120.613C62.9964 120.492 63.5829 120.443 64.1687 120.467C66.0739 120.667 67.9486 121.09 69.7538 121.729C71.8936 122.329 73.8249 122.937 75.1613 123.468C75.8488 123.73 76.3896 123.961 76.7604 124.13C76.9686 124.198 77.1643 124.299 77.3397 124.43Z" fill="#EB996E"/>
<path d="M17.4128 67.3594C17.4128 67.3594 13.8207 69.7142 12.0053 77.0096C10.19 84.3049 2.52683 114.079 4.10272 118.565C5.67861 123.052 36.4548 127.361 36.4548 127.361L40.101 112.055L24.4888 107.799C24.4888 107.799 24.682 93.6165 24.8828 87.7448C25.0837 81.8731 17.4128 67.3594 17.4128 67.3594Z" fill="#FF725E"/>
<path d="M39.8886 114.344L44.9176 115.575L41.8971 127.134L36.9531 126.341L39.8886 114.344Z" fill="white"/>
<path d="M4.0078 116.953C4.0078 116.953 4.00781 117.215 4.08505 117.677C4.25244 118.354 4.62783 118.962 5.15882 119.416C6.49524 120.655 9.02129 121.686 12.2812 122.271C13.7567 122.756 15.4407 123.14 17.2406 123.548C19.0405 123.956 20.9795 124.364 23.0266 124.78C27.1208 125.611 31.6399 126.488 36.4371 127.381L36.2285 127.511C36.5762 126.096 36.947 124.595 37.3178 123.071C38.1752 119.554 39.0172 116.145 39.8052 112.928L39.9288 113.136L26.0239 109.188C24.1155 108.38 22.0459 108.019 19.9753 108.134C18.3998 108.216 16.8514 108.575 15.4021 109.196C14.4868 109.598 13.6102 110.082 12.7833 110.643L12.1499 111.105C12.0774 111.163 11.9999 111.214 11.9181 111.259L12.119 111.074C12.258 110.966 12.4589 110.789 12.7293 110.581C13.5428 109.978 14.418 109.462 15.3403 109.042C16.8034 108.385 18.3736 107.997 19.9753 107.896C22.0868 107.76 24.2013 108.11 26.1552 108.919L40.0601 112.767L40.2301 112.813L40.1837 112.982C39.4112 116.207 38.5692 119.608 37.7117 123.125C37.3332 124.664 36.9392 126.149 36.6225 127.565L36.5762 127.735H36.4139C31.6167 126.834 27.0899 125.942 23.0034 125.095C20.9563 124.664 19.0174 124.241 17.2175 123.833C15.4175 123.425 13.7335 123.017 12.2349 122.502C8.95948 121.886 6.40253 120.809 5.05839 119.508C4.52235 119.027 4.15432 118.388 4.0078 117.684C3.96615 117.442 3.96615 117.195 4.0078 116.953Z" fill="#263238"/>
<path d="M25.3289 108.82C25.2826 108.866 24.765 108.389 23.8303 107.765C22.607 106.955 21.2685 106.333 19.8596 105.918C18.4462 105.515 16.9805 105.323 15.5105 105.349C14.3827 105.349 13.6874 105.503 13.6797 105.441C14.2635 105.225 14.8799 105.108 15.5028 105.095C18.5396 104.878 21.5539 105.752 24.0002 107.557C24.5091 107.903 24.9579 108.33 25.3289 108.82Z" fill="#263238"/>
<path d="M27.3701 83.8594C27.4031 84.1715 27.4031 84.4861 27.3701 84.7982C27.3701 85.3985 27.3083 86.2681 27.2234 87.3377C27.0534 89.4771 26.729 92.4245 26.1728 95.6566C25.7219 98.4207 25.0739 101.149 24.2338 103.822C24.0639 104.337 23.8862 104.791 23.7317 105.191L23.2836 106.192C23.154 106.478 22.9934 106.749 22.8047 107C22.8972 106.703 23.0161 106.414 23.16 106.138L23.5463 105.122C23.6776 104.714 23.8321 104.26 23.9866 103.745C24.7557 101.074 25.3671 98.3603 25.8174 95.6181C26.3813 92.4014 26.7367 89.4617 26.9762 87.3377C27.0843 86.3219 27.1693 85.4754 27.2388 84.8136C27.2518 84.4921 27.2957 84.1725 27.3701 83.8594Z" fill="#263238"/>
<path d="M45.2066 76.0202C45.2066 76.0202 45.1293 75.8432 44.9594 75.543C44.707 75.1067 44.3449 74.7434 43.9088 74.4887C43.5343 74.2559 43.1097 74.1148 42.6699 74.0768C42.2301 74.0388 41.7875 74.1051 41.3783 74.2702C40.9692 74.4354 40.6051 74.6947 40.3158 75.0269C40.0266 75.3592 39.8204 75.7549 39.7141 76.1818L39.6215 76.6358L39.4052 76.2126C38.5893 74.6038 37.8746 72.9461 37.2653 71.2489C36.2097 68.4478 35.6858 65.4756 35.7204 62.4837C35.7332 61.9688 35.7744 61.455 35.844 60.9446C35.9289 60.4906 35.9907 60.1058 36.068 59.798C36.1367 59.4699 36.2403 59.15 36.377 58.8438C36.131 60.0422 35.9965 61.2607 35.9753 62.4837C36.0284 65.4461 36.5928 68.3772 37.6439 71.1489C38.2492 72.8331 38.9481 74.4825 39.7373 76.0894H39.4283C39.5488 75.6202 39.78 75.1864 40.1028 74.8242C40.4256 74.462 40.8306 74.1819 41.2841 74.0073C41.7376 73.8326 42.2264 73.7684 42.7098 73.82C43.1932 73.8716 43.6573 74.0376 44.0633 74.3041C44.5128 74.5882 44.8718 74.9939 45.0984 75.4738C45.1558 75.5944 45.1998 75.7208 45.2298 75.8509C45.2066 75.974 45.2143 76.0202 45.2066 76.0202Z" fill="#263238"/>
<path d="M62.2508 77.5478C62.1754 77.2757 62.1237 76.9977 62.0964 76.7167C61.941 75.9575 61.8891 75.181 61.9419 74.408C62.103 73.2085 62.706 72.1114 63.6336 71.3298C64.2065 70.861 64.9239 70.6029 65.6653 70.5988C66.0704 70.5914 66.4722 70.6732 66.842 70.8381C67.2119 71.003 67.5407 71.2471 67.8051 71.553L67.4961 71.73C67.2875 71.1913 67.0635 70.6372 66.8317 70.0678C65.5262 66.7818 64.3675 63.8036 63.5409 61.6027L62.583 59.0324C62.4531 58.7243 62.3522 58.4048 62.2818 58.0781C62.4543 58.3666 62.5991 58.6706 62.7143 58.9862C62.9924 59.648 63.3555 60.5253 63.7804 61.5103C64.6688 63.6497 65.8661 66.6125 67.1716 69.8985C67.4034 70.4679 67.6197 71.0297 67.836 71.5684L68.2609 72.6381L67.527 71.7377C67.2946 71.4744 67.008 71.2639 66.6868 71.1205C66.3656 70.9771 66.0173 70.9041 65.6653 70.9066C64.9982 70.9021 64.3495 71.1247 63.8267 71.5376C62.9514 72.2677 62.3676 73.286 62.1813 74.408C62.1062 75.1766 62.1192 75.9511 62.2199 76.7167C62.2663 76.9912 62.2767 77.2706 62.2508 77.5478Z" fill="#263238"/>
<path d="M75.2238 79.2656C75.3242 79.2656 76.9001 89.8393 78.7541 102.922C80.6081 116.004 82.0217 126.616 81.9213 126.632C81.8209 126.647 80.245 116.058 78.391 102.976C76.537 89.8931 75.1234 79.2733 75.2238 79.2656Z" fill="#263238"/>
<g opacity="0.3">
<path d="M37.4922 70.9062C37.5769 73.6158 38.169 76.2858 39.238 78.7788C40.0105 77.8399 40.8448 76.8472 42.0036 76.5702C43.4481 76.2239 44.9081 77.1165 45.951 78.1939C45.7673 77.1107 45.3365 76.0839 44.6918 75.1927C44.3711 74.7566 43.9545 74.3994 43.4738 74.1487C42.993 73.8979 42.461 73.7601 41.9186 73.7459C41.3761 73.7642 40.8548 73.9605 40.4358 74.3042C40.0167 74.6479 39.7233 75.1198 39.6011 75.6467L37.6003 70.9524" fill="black"/>
</g>
<path d="M25.6421 78.5665C25.5726 78.5665 25.5957 77.7969 25.3872 76.6965C25.1004 75.2182 24.5228 73.8111 23.6877 72.5563C23.2191 71.8739 22.6834 71.2397 22.0886 70.6632C21.5922 70.1998 21.0543 69.7825 20.4818 69.4165C19.5008 68.8008 18.8055 68.5623 18.8287 68.5007C18.8519 68.4391 19.0141 68.5007 19.3308 68.6238C19.5246 68.6797 19.7132 68.7518 19.8947 68.8393C20.1425 68.9429 20.3825 69.0638 20.6132 69.201C21.223 69.5425 21.793 69.9503 22.3126 70.4169C22.945 70.9964 23.5075 71.6472 23.989 72.3562C24.8569 73.6485 25.4219 75.1187 25.6421 76.658C25.706 77.122 25.7292 77.5906 25.7116 78.0586C25.7171 78.2305 25.6936 78.4022 25.6421 78.5665Z" fill="#263238"/>
<path d="M61.9479 25.1353C61.1128 21.476 58.925 18.2643 55.8201 16.1395C52.7152 14.0146 48.9208 13.1326 45.1925 13.6689L44.42 13.7844C36.2007 15.4543 33.0412 23.3345 34.9415 31.4841L40.7661 60.2269L41.8863 63.2128C44.3332 65.577 47.5071 67.0529 50.8977 67.4033C54.2883 67.7536 57.6987 66.958 60.5806 65.1443L60.7583 63.459L59.0202 54.2244C59.0202 54.2244 66.8069 51.8465 65.7563 43.897C65.2465 40.0184 63.5625 32.1921 61.9479 25.1353Z" fill="#FFBE9D"/>
<path d="M59.0798 54.1485C55.3811 54.6842 51.6058 54.1499 48.2031 52.6094C48.2031 52.6094 51.4862 57.9962 59.327 56.1108L59.0798 54.1485Z" fill="#EB996E"/>
<path d="M60.6674 31.1786C60.7124 31.474 60.6399 31.7752 60.4653 32.0181C60.2907 32.261 60.0279 32.4264 59.7327 32.4792C59.5901 32.5106 59.4426 32.5134 59.2988 32.4873C59.1551 32.4612 59.0181 32.4068 58.8957 32.3273C58.7734 32.2477 58.6683 32.1446 58.5865 32.024C58.5047 31.9034 58.4479 31.7677 58.4195 31.6249C58.3743 31.3307 58.4458 31.0305 58.6188 30.7878C58.7918 30.5451 59.0527 30.3789 59.3465 30.3244C59.4897 30.2918 59.638 30.2881 59.7826 30.3136C59.9272 30.3392 60.0652 30.3934 60.1884 30.473C60.3116 30.5527 60.4175 30.6562 60.4998 30.7774C60.5821 30.8986 60.6391 31.035 60.6674 31.1786Z" fill="#263238"/>
<path d="M48.6909 32.6786C48.736 32.9729 48.6646 33.2731 48.4916 33.5158C48.3186 33.7585 48.0576 33.9246 47.7639 33.9791C47.6207 34.0118 47.4724 34.0154 47.3278 33.9899C47.1832 33.9644 47.0452 33.9102 46.922 33.8305C46.7988 33.7508 46.6929 33.6473 46.6106 33.5261C46.5283 33.4049 46.4713 33.2685 46.4429 33.1249C46.3978 32.8307 46.4692 32.5305 46.6422 32.2878C46.8152 32.0451 47.0762 31.8789 47.3699 31.8244C47.5131 31.7918 47.6614 31.7881 47.806 31.8136C47.9506 31.8392 48.0886 31.8934 48.2118 31.973C48.335 32.0527 48.4409 32.1562 48.5232 32.2774C48.6055 32.3986 48.6625 32.535 48.6909 32.6786Z" fill="#263238"/>
<path d="M48.3225 30.7178C48.1989 30.8871 47.2178 30.3869 45.9587 30.5793C44.6995 30.7717 43.8652 31.5105 43.703 31.3489C43.5408 31.1873 43.703 31.0103 44.097 30.664C44.5976 30.2207 45.2183 29.9343 45.8814 29.8406C46.5333 29.7423 47.1997 29.8471 47.7895 30.1407C48.2144 30.3946 48.3843 30.6409 48.3225 30.7178Z" fill="#263238"/>
<path d="M60.108 29.1732C59.9767 29.3425 58.9956 28.8499 57.7287 29.0346C56.4618 29.2193 55.6198 29.9735 55.4653 29.8427C55.3108 29.7118 55.4653 29.4964 55.8593 29.1578C56.362 28.7131 56.9856 28.4266 57.6515 28.3343C58.3051 28.2341 58.9738 28.3362 59.5673 28.6268C59.9921 28.8576 60.1698 29.1039 60.108 29.1732Z" fill="#263238"/>
<path d="M54.1169 39.6608C54.7335 39.3672 55.385 39.1526 56.0558 39.0221C56.3571 38.9451 56.6506 38.8374 56.6661 38.6219C56.6506 38.296 56.5316 37.9833 56.3262 37.7292L55.0593 35.4898C53.2903 32.2962 51.9693 29.6566 52.0852 29.5873C52.2011 29.5181 53.7615 32.0422 55.5305 35.2358C55.9631 36.0054 56.3725 36.775 56.7588 37.4906C57.0096 37.8389 57.1299 38.2637 57.0987 38.6911C57.0709 38.8084 57.0159 38.9176 56.9381 39.0098C56.8603 39.102 56.7618 39.1747 56.6506 39.2221C56.4844 39.2907 56.3107 39.3398 56.1331 39.3684C55.4763 39.5515 54.7987 39.6498 54.1169 39.6608Z" fill="#263238"/>
<path d="M47.632 26.0102C47.5316 26.3488 46.2878 26.2796 44.8587 26.5489C43.4296 26.8183 42.2786 27.3185 42.0623 27.0106C41.9696 26.8721 42.155 26.5412 42.6031 26.1872C43.2045 25.7457 43.8992 25.4468 44.6341 25.3135C45.3691 25.1801 46.125 25.2157 46.8441 25.4177C47.3848 25.5947 47.6706 25.8486 47.632 26.0102Z" fill="#263238"/>
<path d="M59.8459 24.8278C59.6141 25.1434 58.5172 24.9894 57.2503 25.1357C55.9834 25.2819 54.9328 25.6205 54.6547 25.3665C54.5311 25.2357 54.6547 24.9356 55.095 24.597C55.7053 24.1878 56.4095 23.939 57.1421 23.8736C57.8669 23.7868 58.6019 23.8902 59.2742 24.1737C59.7609 24.4354 59.9463 24.7047 59.8459 24.8278Z" fill="#263238"/>
<path d="M63.4505 17.8228C63.335 17.4685 63.0944 17.1679 62.7734 16.9769C62.4523 16.7858 62.0726 16.7173 61.7047 16.7839C62.0894 16.6216 62.4404 16.3893 62.7398 16.099C62.8868 15.9499 62.9882 15.7621 63.0319 15.5577C63.0757 15.3532 63.0601 15.1406 62.987 14.9447C62.7089 14.3521 61.9056 14.3214 61.2567 14.2136C60.406 14.0781 59.6197 13.6797 59.0087 13.0747C58.1358 12.2128 57.6955 10.9969 56.9152 10.0503C56.4105 9.43151 55.7726 8.93366 55.0486 8.59365C54.3246 8.25364 53.5332 8.08017 52.7328 8.08608C51.9324 8.092 51.1436 8.27714 50.4248 8.62781C49.7059 8.97848 49.0755 9.48569 48.58 10.1119C47.8921 9.55734 47.0813 9.17405 46.215 8.99382C45.3487 8.8136 44.4518 8.84162 43.5985 9.07556C42.7453 9.3095 41.9602 9.74264 41.3085 10.3391C40.6568 10.9355 40.1571 11.6781 39.8508 12.5052C38.7305 12.1835 37.544 12.1681 36.4156 12.4605C35.2872 12.753 34.2586 13.3425 33.4378 14.1674C32.6169 14.9922 32.0339 16.0219 31.7501 17.1485C31.4663 18.275 31.492 19.4569 31.8246 20.5701L37.1626 23.0173C37.1591 22.6362 37.2368 22.2587 37.3907 21.9098C37.5445 21.5609 37.7709 21.2484 38.0549 20.9931C38.3389 20.7378 38.6741 20.5455 39.0383 20.4288C39.4025 20.3121 39.7874 20.2737 40.1676 20.3162C41.7126 20.5701 42.879 22.1862 44.4549 22.1246C45.6832 22.0708 46.6024 21.0165 47.738 20.5855C49.1208 20.0391 50.6967 20.4316 52.064 21.0011C53.3832 21.6946 54.7883 22.2121 56.2432 22.5402C57.9938 22.6775 59.7431 22.26 61.2412 21.3474C61.91 21.013 62.5019 20.5439 62.9793 19.9699C63.2308 19.6792 63.4056 19.3307 63.4878 18.9558C63.5701 18.5809 63.5573 18.1915 63.4505 17.8228Z" fill="#263238"/>
<path d="M37.7743 20.5815L60.5397 17.7726C59.5512 16.3527 58.2239 15.1997 56.6772 14.4174C53.3937 12.5714 49.6084 11.8064 45.8623 12.2319C42.1466 12.7013 35.2714 18.2882 32.9617 21.2202C31.1154 23.5674 31.4167 25.3296 31.4167 25.3296C31.5017 28.3078 33.6415 31.4014 34.7152 34.1872C35.2714 35.6186 36.5847 40.0127 36.5847 40.0127C37.8284 39.828 38.1297 38.7737 37.782 37.5655L36.8396 32.7712C37.9481 31.6039 38.6444 30.1084 38.8228 28.5114C39.0012 26.9143 38.6521 25.3029 37.8284 23.9214C37.3803 23.5289 36.3993 21.6204 37.7743 20.5815Z" fill="#263238"/>
<path d="M36.3916 32.5176C34.7539 28.6698 33.178 24.4527 33.9428 20.3125L33.263 20.3664L33.0003 20.6049C32.333 20.4654 31.6385 20.5414 31.0175 20.822C30.3966 21.1026 29.8816 21.5731 29.5474 22.1651C29.2132 22.7572 29.0772 23.44 29.1591 24.1143C29.2411 24.7886 29.5367 25.4193 30.0031 25.9148C29.3241 25.9866 28.6954 26.3047 28.2367 26.8085C27.7779 27.3123 27.5213 27.9666 27.5156 28.6468C27.6217 29.5812 27.9853 30.4681 28.5662 31.2094C29.1428 31.9523 29.5441 32.815 29.7404 33.7335C29.8225 34.1942 29.7399 34.6689 29.5071 35.0753C29.2742 35.4816 28.9058 35.7938 28.4658 35.9575C28.7457 36.3994 29.1678 36.7337 29.6632 36.9056C30.1585 37.0775 30.6977 37.077 31.1927 36.9041C30.9642 37.7312 30.5032 38.4762 29.864 39.0511C31.4631 39.8822 33.4638 39.3051 34.9857 38.3277C35.9357 37.8117 36.6616 36.9652 37.025 35.9498C37.3263 34.7724 36.8474 33.5796 36.3916 32.5176Z" fill="#263238"/>
<path d="M36.5727 37.2169C36.4337 37.2169 30.8717 36.3935 31.8296 41.7881C32.7875 47.1826 38.0095 45.1202 38.0095 44.9586C38.0095 44.797 36.5727 37.2169 36.5727 37.2169Z" fill="#FFBE9D"/>
<path d="M36.4481 43.14C36.4481 43.14 36.3631 43.2246 36.2164 43.3247C36.0092 43.4605 35.7569 43.5102 35.5134 43.4632C35.1252 43.3044 34.7866 43.0452 34.5326 42.7124C34.2787 42.3795 34.1186 41.9852 34.0688 41.5701C33.96 41.1121 33.96 40.6352 34.0688 40.1772C34.0886 39.9997 34.1518 39.8297 34.2528 39.6821C34.3538 39.5345 34.4895 39.4139 34.6482 39.3307C34.7509 39.2822 34.8673 39.2711 34.9774 39.2992C35.0874 39.3273 35.1841 39.3929 35.2507 39.4846C35.3512 39.6231 35.3357 39.7385 35.3666 39.7462C35.3975 39.7539 35.467 39.6308 35.3666 39.4153C35.3134 39.2875 35.218 39.1817 35.0962 39.1152C34.9253 39.0332 34.7301 39.0168 34.5478 39.069C34.3337 39.154 34.1448 39.2918 33.9989 39.4695C33.8529 39.6472 33.7547 39.859 33.7135 40.0848C33.5678 40.5853 33.5465 41.1135 33.6517 41.6239C33.8757 42.7013 34.6173 43.6248 35.4439 43.7094C35.596 43.7251 35.7497 43.707 35.8939 43.6564C36.0382 43.6059 36.1694 43.5241 36.2782 43.417C36.4481 43.3016 36.4867 43.1477 36.4481 43.14Z" fill="#EB996E"/>
<path d="M30.373 33.3771C30.373 33.3771 30.1953 33.1924 30.1953 32.7615C30.2159 32.4579 30.3034 32.1626 30.4517 31.8966C30.5999 31.6306 30.8051 31.4004 31.0528 31.2224C31.7903 30.7602 32.6164 30.4562 33.4784 30.3297C33.9587 30.2718 34.4186 30.1023 34.8211 29.835C35.2236 29.5677 35.5575 29.2099 35.7959 28.7906C36.1452 27.8598 36.1778 26.8404 35.8886 25.8894C35.6491 24.989 35.3092 24.1886 35.1161 23.4883C34.819 22.7568 34.736 21.9563 34.8766 21.1797C34.9703 21.9461 35.149 22.6997 35.4096 23.4268C35.6414 24.104 36.0122 24.8735 36.2826 25.8201C36.6205 26.8579 36.5905 27.9799 36.1976 28.9983C35.9569 29.5303 35.5469 29.9685 35.0311 30.245C34.5687 30.4832 34.0745 30.6543 33.5634 30.7529C32.7493 30.8626 31.9632 31.1236 31.2459 31.5225C31.0204 31.6691 30.8273 31.8602 30.6786 32.0838C30.5298 32.3074 30.4284 32.559 30.3807 32.823C30.3674 33.0074 30.3648 33.1924 30.373 33.3771Z" fill="#455A64"/>
<path d="M28.7754 31.1526C28.7754 31.1526 28.6363 31.0141 28.5513 30.6832C28.4338 30.2067 28.4717 29.7054 28.6595 29.2518C28.7819 28.931 28.9715 28.6398 29.2157 28.3976C29.4991 28.1284 29.8359 27.9213 30.2045 27.7897C30.5629 27.6703 30.8957 27.485 31.1855 27.2433C31.3115 27.1043 31.4035 26.9383 31.4544 26.7581C31.5053 26.5779 31.5137 26.3884 31.4791 26.2044C31.4791 25.7888 31.3323 25.3579 31.2937 24.9193C31.1742 23.7954 31.361 22.6603 31.8344 21.6333C31.9328 21.4025 32.0862 21.1991 32.2814 21.0408C32.4767 20.8826 32.7077 20.7742 32.9546 20.7252C33.3176 20.6867 33.4876 20.8329 33.4721 20.8483C33.4567 20.8637 33.2867 20.8098 32.9855 20.8483C32.7823 20.9183 32.598 21.0338 32.4467 21.1859C32.2953 21.338 32.181 21.5226 32.1125 21.7256C31.8639 22.3444 31.7178 22.9994 31.6799 23.6649C31.6456 24.054 31.6456 24.4454 31.6799 24.8346C31.6799 25.2348 31.8344 25.658 31.8808 26.1274C31.9161 26.374 31.8963 26.6254 31.8228 26.8635C31.7494 27.1016 31.6241 27.3206 31.4559 27.5049C31.1224 27.7818 30.7361 27.9885 30.3204 28.1129C30.0129 28.2068 29.7285 28.3634 29.4851 28.5727C29.2417 28.782 29.0448 29.0395 28.9067 29.3288C28.6809 29.91 28.6351 30.5453 28.7754 31.1526Z" fill="#455A64"/>
<path d="M59.0126 13.0805C58.8483 13.1942 58.6567 13.2626 58.4573 13.2788C58.2579 13.295 58.0577 13.2585 57.877 13.1729C57.4481 12.9994 57.061 12.7371 56.7415 12.4033C56.3429 11.9928 55.868 11.6635 55.3432 11.4337C54.6614 11.1561 53.9134 11.0811 53.1896 11.2176C52.4659 11.3542 51.7973 11.6965 51.2645 12.2032C50.6465 12.7727 50.1289 13.5191 49.4105 14.181C49.0417 14.5278 48.6015 14.7904 48.1204 14.9505C47.6148 15.0887 47.0811 15.0887 46.5754 14.9505C45.548 14.7197 44.6983 14.181 43.8176 14.004C42.9632 13.7835 42.0741 13.7286 41.1989 13.8424C39.7028 14.0204 38.3087 14.6891 37.236 15.7432C36.511 16.4581 35.9383 17.3114 35.5519 18.2519C35.2893 18.9214 35.212 19.3216 35.1734 19.3139C35.1348 19.3062 35.1734 19.2061 35.1734 19.0138C35.2191 18.7346 35.2862 18.4593 35.3743 18.1903C35.7107 17.1965 36.2648 16.2896 36.9965 15.5354C38.0949 14.395 39.5492 13.6598 41.1216 13.4499C42.0468 13.3195 42.9887 13.3691 43.8949 13.5961C44.8528 13.8193 45.7102 14.3657 46.645 14.535C47.0845 14.6582 47.5496 14.6582 47.9891 14.535C48.4164 14.3901 48.8067 14.1536 49.1324 13.8424C49.8045 13.2344 50.3298 12.4802 50.9941 11.88C51.6299 11.2841 52.4436 10.9112 53.3116 10.818C54.0537 10.7305 54.8057 10.8421 55.49 11.1412C56.0371 11.4003 56.5278 11.7637 56.9346 12.2109C57.2218 12.5334 57.5712 12.7951 57.962 12.9805C58.2911 13.1301 58.661 13.1653 59.0126 13.0805Z" fill="#455A64"/>
<path d="M51.2552 41.4555C51.4251 41.394 51.765 42.5329 52.9778 43.0562C54.1907 43.5795 55.3726 43.1024 55.4266 43.2563C55.4807 43.4102 55.2258 43.5564 54.7082 43.718C54.0429 43.9237 53.3259 43.8883 52.6843 43.618C52.0671 43.3558 51.5766 42.8645 51.317 42.2482C51.1316 41.7556 51.1779 41.4709 51.2552 41.4555Z" fill="#263238"/>
<path d="M122.484 159.69C120.341 157.87 117.568 156.958 114.759 157.15L110.031 172.118C113.5 172.272 116.984 174.05 120.298 173.134C121.632 172.724 122.82 171.943 123.722 170.882C124.624 169.821 125.202 168.525 125.388 167.147C125.542 165.763 125.358 164.362 124.852 163.064C124.347 161.766 123.534 160.608 122.484 159.69Z" fill="#FF725E"/>
<path d="M114.847 156.802C114.847 156.679 115.357 156.587 116.276 156.594C117.595 156.617 118.901 156.861 120.139 157.318C122.031 158.053 123.668 159.32 124.851 160.965C125.567 161.941 126.091 163.043 126.396 164.213C126.74 165.494 126.78 166.838 126.512 168.137C126.254 169.454 125.664 170.683 124.797 171.708C123.972 172.654 122.923 173.378 121.745 173.817C119.84 174.494 117.781 174.624 115.805 174.194C114.531 173.948 113.287 173.563 112.097 173.047C111.263 172.693 110.83 172.432 110.861 172.278C110.892 172.124 111.409 172.193 112.298 172.339C113.186 172.485 114.445 172.755 115.983 172.893C117.724 173.101 119.489 172.873 121.12 172.231C122.019 171.863 122.814 171.282 123.437 170.538C124.09 169.722 124.535 168.762 124.735 167.737C124.925 166.727 124.911 165.689 124.692 164.685C124.473 163.68 124.054 162.729 123.46 161.889C122.491 160.435 121.16 159.255 119.598 158.464C118.494 157.946 117.34 157.543 116.153 157.264C115.326 157.071 114.832 156.925 114.847 156.802Z" fill="#F5F5F5"/>
<path d="M71.0397 212.938L60.7578 241.634L96.5398 254.563C97.5672 251.084 81.5456 237.555 81.5456 237.555L88.8921 219.44L71.0397 212.938Z" fill="#FF725E"/>
<g opacity="0.6">
<path d="M71.0421 232.014C70.6589 231.993 70.2813 232.114 69.9829 232.354C69.6844 232.595 69.4865 232.937 69.4276 233.315C69.3942 233.694 69.5076 234.071 69.7448 234.368C69.9819 234.666 70.3245 234.862 70.7022 234.916C71.1067 234.937 71.5048 234.808 71.819 234.554C72.1332 234.299 72.3409 233.937 72.4017 233.538C72.4017 232.769 71.6292 231.907 70.8567 231.999" fill="white"/>
</g>
<path d="M60.7578 241.628L61.8007 238.734L95.7904 252.24C95.7904 252.24 97.1346 253.502 96.5629 254.549L60.7578 241.628Z" fill="white"/>
<path d="M82.1912 237.578C82.1217 237.747 81.2179 237.517 80.1596 237.763C79.1012 238.009 78.3674 238.579 78.2361 238.448C78.1047 238.317 78.7227 237.417 80.0128 237.132C81.3029 236.847 82.2839 237.432 82.1912 237.578Z" fill="#263238"/>
<path d="M85.3872 240.481C85.3872 240.666 84.4988 240.689 83.6413 241.212C82.7839 241.735 82.3204 242.451 82.1504 242.382C81.9805 242.312 82.2277 241.281 83.3092 240.658C84.3906 240.035 85.4412 240.296 85.3872 240.481Z" fill="#263238"/>
<path d="M85.8883 245.738C85.7183 245.738 85.7878 244.761 86.5835 243.968C87.3792 243.176 88.3371 243.091 88.3525 243.26C88.368 243.429 87.6882 243.76 87.0393 244.422C86.3904 245.084 86.0582 245.784 85.8883 245.738Z" fill="#263238"/>
<path d="M83.4109 233.269C83.2796 233.408 82.5689 232.877 81.557 232.585C80.545 232.292 79.6566 232.331 79.6257 232.146C79.5948 231.961 80.5527 231.607 81.7424 231.969C82.932 232.331 83.5809 233.169 83.4109 233.269Z" fill="#263238"/>
<path d="M84.0945 228.759C83.4518 228.703 82.8357 228.477 82.31 228.105C81.7041 227.757 81.1437 227.335 80.6414 226.85C80.3421 226.565 80.0633 226.259 79.8071 225.935C79.6473 225.751 79.517 225.543 79.4209 225.319C79.3528 225.154 79.3409 224.972 79.3869 224.799C79.433 224.627 79.5344 224.474 79.6758 224.365C79.8079 224.276 79.9589 224.218 80.1171 224.197C80.2752 224.175 80.4362 224.191 80.5873 224.242C80.8165 224.323 81.0325 224.437 81.2285 224.58C81.5763 224.806 81.9022 225.064 82.2018 225.35C82.7103 225.837 83.1356 226.404 83.461 227.027C84.0172 228.089 84.0636 228.844 83.9863 228.851C83.9091 228.859 83.685 228.189 83.067 227.258C82.7099 226.714 82.2842 226.217 81.8002 225.781C81.5127 225.528 81.2053 225.299 80.8809 225.096C80.541 224.857 80.2165 224.734 80.062 224.873C79.9075 225.011 79.9848 224.942 80.0234 225.088C80.0976 225.249 80.1938 225.4 80.3092 225.535C80.5508 225.843 80.8087 226.138 81.0817 226.42C81.5377 226.893 82.0368 227.323 82.5727 227.705C83.4765 228.351 84.1331 228.644 84.0945 228.759Z" fill="#263238"/>
<path d="M83.7796 228.905C83.6279 228.271 83.6819 227.606 83.9341 227.004C84.2707 225.931 84.8959 224.971 85.7418 224.226C85.9212 224.023 86.1515 223.87 86.4092 223.784C86.6669 223.697 86.943 223.68 87.2095 223.734C87.3683 223.795 87.5064 223.9 87.6076 224.036C87.7089 224.172 87.7691 224.334 87.7811 224.503C87.7963 224.746 87.7781 224.989 87.7271 225.227C87.6413 225.647 87.4929 226.051 87.2867 226.427C86.9416 227.05 86.4482 227.578 85.8499 227.966C84.8148 228.636 84.0114 228.582 84.0191 228.513C84.552 228.238 85.0679 227.933 85.5641 227.597C86.0589 227.197 86.4619 226.696 86.746 226.127C86.909 225.796 87.0235 225.444 87.0859 225.081C87.1709 224.68 87.14 224.311 86.9777 224.311C86.8155 224.311 86.3984 224.419 86.1435 224.673C85.8613 224.903 85.6025 225.161 85.371 225.442C84.9581 225.944 84.6223 226.504 84.3744 227.104C83.9341 228.19 83.8801 228.913 83.7796 228.905Z" fill="#263238"/>
<path d="M36.3806 136.278C30.9732 136.401 25.8052 137.163 22.0663 141.088C17.1069 146.29 10.981 153.693 10.6257 158.834C10.1081 166.529 14.7585 168.8 18.1575 170.67C19.6655 171.489 21.3697 171.883 23.086 171.809L85.8125 171.331L87.7824 160.75L47.211 150.784L48.895 135.57L36.3806 136.278Z" fill="#263238"/>
<path d="M48.8872 135.564L68.6244 134.664C68.6244 134.664 102.715 136.549 109.984 143.191C117.253 149.832 116.349 157.374 113.923 164.623C111.498 171.872 90.1384 218.191 90.1384 218.191C90.1384 218.191 91.8688 221.139 90.9109 224.078C90.5195 225.364 89.8008 226.526 88.8248 227.452C87.8488 228.379 86.6487 229.038 85.3412 229.365L66.3687 222.439C66.3687 222.439 63.7963 221.539 65.5962 219.122C67.3961 216.706 68.6321 216.252 68.6321 216.252V211.427C68.6321 211.427 75.291 199.353 75.9013 197.69C76.5116 196.028 82.8924 171.464 82.8924 171.464L87.1411 164.192C87.1411 164.192 76.8746 159.39 67.9832 155.904L47.2031 150.802L48.8872 135.564Z" fill="#263238"/>
<path d="M80.905 221.551C80.8663 221.597 80.2638 221.12 79.2364 220.458C77.8982 219.598 76.4744 218.879 74.9877 218.311C73.4878 217.753 71.9348 217.348 70.3527 217.103C69.6917 217.041 69.0342 216.946 68.3828 216.818C69.0466 216.727 69.7198 216.727 70.3836 216.818C71.9932 216.993 73.574 217.37 75.0881 217.942C76.6037 218.524 78.037 219.3 79.3522 220.25C79.9265 220.612 80.4488 221.049 80.905 221.551Z" fill="#455A64"/>
<path d="M90.3879 218.227C89.9742 217.888 89.6032 217.5 89.2833 217.072C88.6498 216.303 87.7923 215.264 86.904 214.056C86.0156 212.848 85.2431 211.747 84.7178 210.893C84.4074 210.46 84.1482 209.992 83.9453 209.5C84.3248 209.876 84.6593 210.294 84.9418 210.747L87.2052 213.825L89.5227 216.903C89.8546 217.315 90.1444 217.758 90.3879 218.227Z" fill="#455A64"/>
<path d="M97.3397 157.547C96.7506 157.771 96.1498 157.964 95.5398 158.124C94.1104 158.6 92.7415 159.241 91.461 160.033C90.1822 160.83 89.0024 161.776 87.9461 162.849C87.1736 163.673 86.687 164.242 86.6406 164.204C86.9313 163.637 87.3063 163.119 87.753 162.664C88.7773 161.52 89.961 160.527 91.2679 159.717C92.5711 158.901 93.9868 158.279 95.4703 157.87C96.0744 157.673 96.7041 157.564 97.3397 157.547Z" fill="#455A64"/>
<path d="M77.9297 190.355C77.9373 190.214 77.9633 190.074 78.0069 189.939C78.0842 189.639 78.1769 189.262 78.3005 188.793C78.5786 187.746 78.9648 186.323 79.4361 184.576C80.4403 180.982 81.8076 176.111 83.2985 170.724C84.071 168.015 84.7585 165.437 85.5156 163.097C86.3189 161.06 87.5366 159.21 89.0922 157.664C90.1153 156.615 91.2527 155.684 92.4835 154.886C92.9161 154.609 93.256 154.394 93.5032 154.271C93.6214 154.199 93.7454 154.137 93.874 154.086C93.874 154.086 93.4028 154.409 92.5607 155.002C91.3752 155.841 90.2755 156.795 89.2776 157.849C87.7749 159.394 86.6027 161.226 85.8323 163.236C85.1062 165.545 84.4264 168.153 83.6461 170.847C82.1012 176.234 80.6952 181.105 79.6601 184.699L78.4086 188.885C78.2696 189.347 78.146 189.716 78.0533 190.016C78.0242 190.133 77.9828 190.247 77.9297 190.355Z" fill="#455A64"/>
<path d="M60.4738 154.961C60.3734 154.961 59.964 151.298 59.5546 146.758C59.1451 142.217 58.8902 138.523 58.9906 138.516C59.0911 138.508 59.5005 142.179 59.9099 146.727C60.3193 151.275 60.5743 154.953 60.4738 154.961Z" fill="#455A64"/>
<path d="M27.6315 164.783C27.5774 164.783 27.2684 164.214 26.6504 163.344C25.8472 162.21 24.8816 161.198 23.7845 160.343C22.6845 159.491 21.4669 158.801 20.1692 158.296C19.1727 157.911 18.5161 157.757 18.5315 157.703C19.1215 157.725 19.7038 157.844 20.2542 158.057C21.6139 158.499 22.8848 159.176 24.0085 160.058C25.1348 160.934 26.1016 161.996 26.8667 163.198C27.2031 163.683 27.4611 164.218 27.6315 164.783Z" fill="#455A64"/>
<path d="M39.7217 151.441C39.7217 151.495 38.8488 150.964 37.4042 150.302C35.5148 149.459 33.5188 148.876 31.4715 148.57C29.4215 148.284 27.3415 148.284 25.2915 148.57C23.7465 148.794 22.7654 149.071 22.75 149.009C22.9548 148.9 23.1729 148.817 23.3989 148.763C24.0062 148.573 24.6256 148.424 25.2529 148.317C29.4302 147.583 33.7334 148.198 37.5355 150.071C38.1062 150.351 38.6584 150.667 39.1887 151.018C39.3848 151.134 39.5642 151.276 39.7217 151.441Z" fill="#455A64"/>
<path d="M86.9643 160.741C86.7998 160.732 86.6366 160.706 86.4776 160.664L85.0871 160.363L79.9732 159.217C75.6549 158.255 69.6758 156.962 63.0556 155.654C56.4353 154.346 50.4176 153.276 46.0607 152.529L40.9004 151.644L39.4945 151.39C39.3285 151.374 39.1651 151.338 39.0078 151.283C39.1761 151.277 39.3446 151.289 39.5099 151.321L40.9236 151.506C42.1441 151.668 43.9209 151.929 46.107 152.275C50.4794 152.96 56.5048 153.992 63.1405 155.3C69.7763 156.608 75.7322 157.939 80.035 158.963C82.1903 159.478 83.8975 159.909 85.1257 160.225L86.5008 160.587C86.6592 160.625 86.8142 160.677 86.9643 160.741Z" fill="#455A64"/>
<path d="M47.2123 152.573C47.1428 152.573 46.996 151.749 46.3471 150.58C45.9514 149.902 45.4683 149.278 44.9103 148.725C44.219 148.052 43.4863 147.422 42.7164 146.84C41.2953 145.792 39.7918 144.861 38.2205 144.054C37.5545 143.742 36.914 143.379 36.3047 142.969C37.0067 143.194 37.6867 143.483 38.3363 143.831C39.9588 144.575 41.4992 145.485 42.9327 146.547C43.7185 147.141 44.4595 147.792 45.1497 148.494C45.7172 149.076 46.1961 149.737 46.5711 150.457C46.8202 150.945 47.0095 151.462 47.1351 151.996C47.1974 152.181 47.2237 152.377 47.2123 152.573Z" fill="#455A64"/>
<path d="M117.076 162.031C116.435 162.914 115.84 163.829 115.291 164.771C114.457 166.372 114.202 167.849 114.094 167.849C114.09 166.721 114.392 165.612 114.967 164.64C115.425 163.6 116.153 162.7 117.076 162.031Z" fill="#263238"/>
<g opacity="0.3">
<path d="M75.8594 83.6016L80.3476 115.115L80.5716 115.615C81.623 104.721 80.006 93.736 75.8594 83.6016Z" fill="black"/>
</g>
<path d="M99.9883 101.722L85.3882 127.187L49.4131 127.956L49.3281 129.58L84.1599 129.326L85.2646 129.288L122.051 129.357L129.482 116.59L138.976 103.031C139.118 102.83 139.203 102.595 139.219 102.35C139.236 102.105 139.184 101.861 139.069 101.643C138.955 101.426 138.783 101.244 138.571 101.118C138.36 100.992 138.118 100.927 137.871 100.93L101.155 101.068C100.92 101.066 100.689 101.126 100.484 101.24C100.279 101.355 100.108 101.521 99.9883 101.722Z" fill="#E0E0E0"/>
<path d="M129.488 116.562C129.488 116.562 131.38 118.286 131.079 119.748C130.778 121.211 130.878 122.311 129.488 122.411C129.508 122.946 129.324 123.468 128.973 123.872C128.622 124.277 128.129 124.533 127.595 124.589C127.595 124.589 128.02 126.898 125.339 127.282C125.339 127.282 124.513 129.745 122.821 129.145C121.85 128.813 120.915 128.382 120.032 127.86L119.538 126.967C119.538 126.967 117.043 126.036 117.661 124.658C118.032 123.804 119.322 123.581 119.322 123.581C119.175 123.231 119.113 122.851 119.141 122.473C119.169 122.094 119.287 121.728 119.484 121.403C120.079 120.633 122.025 121.264 122.025 121.264C121.983 120.578 122.204 119.901 122.643 119.371C123.3 118.602 126.398 120.71 126.398 120.71L128.09 118.702L129.488 116.562Z" fill="#FFBE9D"/>
<path d="M125.338 127.295C123.209 126.262 121.193 125.014 119.32 123.57C121.449 124.603 123.466 125.851 125.338 127.295Z" fill="#EB996E"/>
<path d="M127.609 124.59C125.63 123.689 123.762 122.566 122.039 121.242C123.053 121.648 124.02 122.164 124.92 122.781C125.882 123.282 126.783 123.889 127.609 124.59Z" fill="#EB996E"/>
<path d="M124.516 119.547C125.426 119.874 126.285 120.33 127.065 120.901C127.899 121.378 128.701 121.907 129.467 122.487C129.421 122.61 128.216 122.063 126.872 121.209C126.031 120.738 125.241 120.181 124.516 119.547Z" fill="#EB996E"/>
<path d="M138.987 101.862C138.929 101.874 138.868 101.874 138.81 101.862H138.292H136.307L128.999 101.924L104.905 101.978H103.151C102.891 101.954 102.629 101.999 102.393 102.11C102.156 102.221 101.954 102.393 101.807 102.609L100.177 105.625C99.0958 107.557 98.0606 109.419 97.0873 111.197L91.8189 120.632L88.2113 126.958L87.238 128.712L86.9676 129.151C86.9058 129.251 86.8749 129.305 86.8672 129.297L86.9367 129.135L87.1684 128.674C87.4002 128.25 87.7092 127.665 88.1032 126.927C88.9375 125.388 90.1194 123.21 91.5794 120.532L96.7783 111.012C97.7671 109.235 98.7945 107.365 99.8683 105.425L101.514 102.463C101.697 102.203 101.946 101.996 102.234 101.861C102.523 101.726 102.841 101.668 103.159 101.693H104.913L129.007 101.747L136.315 101.809H138.3H138.817C138.877 101.815 138.935 101.834 138.987 101.862Z" fill="#263238"/>
<path d="M113.102 114.656C112.935 114.9 112.843 115.187 112.836 115.482C112.829 115.777 112.908 116.068 113.062 116.32C113.216 116.572 113.44 116.774 113.706 116.903C113.973 117.032 114.271 117.082 114.565 117.047C114.859 117.011 115.137 116.893 115.365 116.705C115.594 116.517 115.763 116.267 115.853 115.986C115.943 115.705 115.95 115.404 115.873 115.119C115.796 114.834 115.638 114.577 115.419 114.378C115.074 114.112 114.637 113.991 114.203 114.043C113.769 114.095 113.374 114.315 113.102 114.656Z" fill="white"/>
<path d="M101.114 194.119C101.114 194.119 101.114 194.066 101.168 193.958L101.346 193.496L102.08 191.726C102.752 190.187 103.702 187.925 104.876 185.162C107.294 179.567 110.647 171.802 114.463 162.983C115.015 160.751 115.318 158.464 115.367 156.165C115.476 153.447 114.947 150.741 113.822 148.262C113.241 147.109 112.502 146.042 111.628 145.091C110.852 144.128 109.956 143.267 108.963 142.529C107.97 141.896 106.907 141.379 105.796 140.99C104.722 140.559 103.671 140.174 102.636 139.843C100.574 139.166 98.6115 138.642 96.8115 138.219C93.2117 137.373 90.2453 136.919 88.1982 136.626L85.8344 136.318L85.2164 136.234C85.1451 136.228 85.0749 136.212 85.0078 136.188H85.2241L85.8421 136.234C86.3829 136.28 87.1863 136.349 88.2137 136.472C91.1131 136.816 93.9931 137.307 96.8424 137.942C98.6501 138.35 100.62 138.858 102.698 139.527C103.741 139.858 104.807 140.235 105.888 140.659C107.029 141.06 108.12 141.589 109.141 142.236C110.163 142.991 111.084 143.873 111.883 144.86C112.777 145.835 113.536 146.924 114.139 148.1C115.305 150.631 115.861 153.398 115.761 156.18C115.714 158.516 115.406 160.839 114.842 163.106L105.131 185.231C103.903 187.978 102.922 190.195 102.227 191.749L101.454 193.496L101.238 193.942C101.145 194.119 101.122 194.119 101.114 194.119Z" fill="#455A64"/>
</svg>
