<svg width="53" height="54" viewBox="0 0 53 54" fill="none" xmlns="http://www.w3.org/2000/svg">
<path d="M47.1977 24.0271L47.1978 24.0271L47.196 24.0141C46.5492 19.3872 44.5919 15.434 41.329 12.171C38.066 8.90801 34.1127 6.95166 29.4857 6.30687L29.4857 6.30676L29.4751 6.30551C28.7602 6.2214 28.175 5.93209 27.6978 5.43498C27.2296 4.94732 26.9984 4.36792 27 3.66784V3.66667C27 2.97305 27.2386 2.41118 27.7213 1.94778C28.1995 1.48865 28.7309 1.31245 29.3534 1.39182L29.3534 1.39188L29.3615 1.39278C35.3745 2.06089 40.4947 4.51433 44.7402 8.7598C48.9857 13.0053 51.4391 18.1255 52.1072 24.1385L52.1072 24.1386L52.108 24.1454C52.1859 24.7682 52.0088 25.3001 51.5493 25.7787C51.0857 26.2617 50.5246 26.5 49.8333 26.5C49.1894 26.5 48.615 26.273 48.0923 25.7921C47.5726 25.3138 47.2775 24.7324 47.1977 24.0271ZM29.6656 13.2677L29.6682 13.2683C32.2997 13.8792 34.5622 15.1339 36.4656 17.0373C38.369 18.9407 39.6227 21.2022 40.2316 23.8316L40.232 23.8333C40.3843 24.4803 40.2273 25.0669 39.6961 25.6389C39.1637 26.2124 38.4968 26.5 37.6563 26.5C37.1525 26.5 36.7115 26.3301 36.3137 25.9721C35.9048 25.6041 35.5842 25.1033 35.3638 24.4476C34.9495 22.9549 34.1623 21.6323 33.0136 20.4835C31.8648 19.3348 30.5431 18.5485 29.0522 18.1362C28.3966 17.9158 27.8958 17.5952 27.5279 17.1864C27.1766 16.7961 27 16.3334 27 15.7708C27 14.9305 27.2872 14.2793 27.8541 13.7723C28.4235 13.2632 29.012 13.1124 29.6656 13.2677ZM0.750002 3.81266V3.8125C0.750002 3.06118 0.99512 2.46199 1.47856 1.97855C1.96199 1.49512 2.56118 1.25 3.3125 1.25H15.125C15.6882 1.25 16.1844 1.42761 16.6313 1.79323C17.0696 2.15182 17.3215 2.59822 17.4009 3.15404L17.4023 3.16437L17.4042 3.17463L19.2981 13.3725C19.387 14.0013 19.3722 14.5569 19.2653 15.0457C19.1648 15.5052 18.9363 15.9191 18.5631 16.2923L18.5631 16.2923L18.5595 16.2959L11.5595 23.4418L11.2926 23.7142L11.4848 24.0436C13.5495 27.5832 16.1286 30.8982 19.2194 33.989C22.3102 37.0798 25.7205 39.7541 29.4494 42.0111L29.7847 42.214L30.0619 41.9369L36.9161 35.0827C37.2858 34.713 37.7819 34.4224 38.4249 34.224C39.061 34.0278 39.6743 33.9742 40.27 34.0556L50.3119 36.0931C50.3128 36.0933 50.3136 36.0934 50.3145 36.0936C50.8906 36.2176 51.3507 36.4906 51.7138 36.915C52.0731 37.335 52.25 37.8145 52.25 38.375V50.1875C52.25 50.9388 52.0049 51.538 51.5215 52.0215C51.038 52.5049 50.4388 52.75 49.6875 52.75C43.4937 52.75 37.4527 51.3697 31.56 48.6032C25.6559 45.8314 20.4294 42.1703 15.8781 37.6189C11.3268 33.0676 7.66569 27.8412 4.89386 21.9371C2.12739 16.0444 0.748081 10.0044 0.750002 3.81266ZM8.68749 18.4498L8.98064 19.1223L9.49939 18.6036L14.3119 13.7911L14.4992 13.6037L14.4494 13.3435L13.1369 6.4893L13.0592 6.08333H12.6458H6.22917H5.66449L5.73285 6.64386C5.9779 8.65334 6.32101 10.6385 6.7622 12.5993C7.2069 14.5758 7.84893 16.526 8.68749 18.4498ZM46.8802 47.7695L47.4167 47.8088V47.2708V40.8542V40.4494L47.0207 40.3651L40.1666 38.9068L39.901 38.8503L39.709 39.0423L34.8965 43.8548L34.3777 44.3735L35.0502 44.6667C36.9673 45.5023 38.9099 46.1909 40.8778 46.7321C42.8534 47.2754 44.8543 47.6213 46.8802 47.7695Z" fill="url(#paint0_linear_2998_5538)" stroke="white"/>
<defs>
<linearGradient id="paint0_linear_2998_5538" x1="26.4999" y1="-0.425424" x2="26.4999" y2="53.4331" gradientUnits="userSpaceOnUse">
<stop stop-color="#00EFD1"/>
<stop offset="1" stop-color="#00ACEA"/>
</linearGradient>
</defs>
</svg>
