<svg width="53" height="59" viewBox="0 0 53 59" fill="none" xmlns="http://www.w3.org/2000/svg">
<path d="M0.75 30.5026L11.1555 38.3067L7.04228 42.4199L6.77295 42.6892L6.96108 43.0204C8.41644 45.5824 10.9191 47.855 13.8555 49.605C16.7957 51.3573 20.2041 52.6058 23.5098 53.0972L24.0833 53.1824V52.6026V26.5859V26.0859H23.5833H15.3333V21.2526H23.5833H24.0833V20.7526V17.3109V16.9602L23.7536 16.8408C20.5563 15.6832 18.25 12.6548 18.25 9.08594C18.25 4.54958 21.9636 0.835938 26.5 0.835938C31.0364 0.835938 34.75 4.54958 34.75 9.08594C34.75 12.6548 32.4437 15.6832 29.2464 16.8408L28.9167 16.9602V17.3109V20.7526V21.2526H29.4167H37.6667V26.0859H29.4167H28.9167V26.5859V52.6026V53.1824L29.4902 53.0972C32.7959 52.6058 36.2043 51.3573 39.1445 49.605C42.0809 47.855 44.5836 45.5824 46.0389 43.0204L46.227 42.6892L45.9577 42.4199L41.8445 38.3067L52.25 30.5026V38.2526C52.25 43.6906 48.7972 48.6625 43.7935 52.3003C38.7955 55.9338 32.3344 58.1693 26.5 58.1693C20.6656 58.1693 14.2045 55.9338 9.20652 52.3003C4.20278 48.6625 0.75 43.6906 0.75 38.2526V30.5026ZM29.9167 9.08594C29.9167 7.20563 28.3803 5.66927 26.5 5.66927C24.6197 5.66927 23.0833 7.20563 23.0833 9.08594C23.0833 10.9662 24.6197 12.5026 26.5 12.5026C28.3803 12.5026 29.9167 10.9662 29.9167 9.08594Z" fill="url(#paint0_linear_2998_5280)" stroke="white"/>
<defs>
<linearGradient id="paint0_linear_2998_5280" x1="26.4999" y1="-0.97009" x2="26.4999" y2="58.8727" gradientUnits="userSpaceOnUse">
<stop stop-color="#00EFD1"/>
<stop offset="1" stop-color="#00ACEA"/>
</linearGradient>
</defs>
</svg>
