<svg width="138" height="59" viewBox="0 0 138 59" fill="none" xmlns="http://www.w3.org/2000/svg">
<path d="M0.0122303 13.1473C0.0122303 5.62595 3.43876 1.31152 10.0152 0.137281C13.9325 -0.561033 18.7064 1.47164 20.6428 4.71413C21.1964 5.50721 21.5064 6.44377 21.5351 7.40954C21.5375 7.85579 21.4005 8.29172 21.1431 8.65678C20.8856 9.02184 20.5205 9.29792 20.0985 9.44666C19.1258 9.89145 18.3138 9.50893 17.7383 8.77503C17.2297 8.14788 16.9129 7.3784 16.4444 6.71567C13.6247 2.71259 8.00301 3.15738 6.0042 7.63193C5.30838 9.18645 4.93432 10.8649 4.90442 12.5669C4.87452 14.269 5.1894 15.9595 5.83019 17.5373C6.79391 20.0904 8.81948 21.1668 11.3537 21.2246C12.5138 21.3035 13.6692 21.0142 14.6543 20.3982C15.6393 19.7821 16.4034 18.8709 16.837 17.7953C17.5821 16.1096 18.1354 14.237 20.5669 15.2867C21.8653 15.8382 21.9054 17.9243 20.7722 20.0904C17.4617 26.5042 6.78944 27.0513 2.45274 21.02C0.7693 18.7466 -0.0910518 15.9712 0.0122303 13.1473Z" fill="#28679C"/>
<path d="M0 46.5076C0 41.526 1.48573 37.434 6.04105 35.1166C10.1859 33.0128 14.3129 33.2574 18.2258 35.8505C19.5327 36.7187 20.5478 37.9584 21.1392 39.4088C21.7192 40.7699 21.8843 42.1576 20.4878 42.9671C18.9842 43.8078 17.8108 43.0205 17.0836 41.5527C16.0217 39.48 14.5806 37.9099 12.0196 37.8165C8.24955 37.6786 5.77335 39.8314 5.13087 44.1236C4.78698 46.0975 4.87986 48.1226 5.40303 50.057C6.29536 53.1127 7.96401 54.6561 10.757 54.8296C14.0988 55.0342 15.7406 54.0067 17.1237 50.8265C17.7082 49.4921 18.3105 48.1133 20.1755 48.8161C21.9601 49.4877 21.7504 51.0089 21.3667 52.3744C20.8072 54.314 19.5675 55.9887 17.8733 57.0935C10.9578 61.8083 1.02618 57.2848 0.13385 49.0029C0.0446177 48.1133 0.0401547 47.2237 0 46.5076Z" fill="#28679C"/>
<path d="M30.0276 9.37225C32.361 7.25062 34.5829 6.17868 37.3937 7.03712C40.0127 7.83774 41.543 9.62133 41.5921 12.3167C41.659 15.7194 41.5921 19.122 41.6278 22.5246C41.6278 24.1614 40.8203 25.1622 39.2944 25.1399C37.8711 25.1399 37.1216 24.1036 37.1394 22.5824C37.1751 19.847 37.1796 17.1115 37.1394 14.3716C37.0903 11.7652 36.1311 10.4219 34.3241 10.2618C32.4324 10.0928 30.7057 11.5517 30.264 13.8779C29.7465 16.5822 30.0543 19.3355 30.0633 22.0665C30.0633 23.7878 29.577 25.18 27.7343 25.1355C26.021 25.1355 25.5303 23.8011 25.5392 22.1554C25.5838 15.795 25.5838 9.43452 25.5392 3.07408C25.5392 1.46395 26.03 0.111799 27.77 0.0940079C29.6483 0.0717686 30.1168 1.49064 30.0588 3.20751C29.9651 5.1023 30.0276 7.01933 30.0276 9.37225Z" fill="#28679C"/>
<path d="M50.1488 43.252C52.4644 41.028 54.8156 39.9339 57.6755 40.6455C60.4373 41.3305 61.9944 43.2875 62.0792 46.2854C62.1684 49.5368 62.1282 52.7882 62.0792 56.044C62.0792 57.494 61.633 58.7127 59.8483 58.7439C57.9343 58.7439 57.6175 57.4985 57.564 55.9195C57.5015 52.9661 57.8049 50.0083 57.3811 47.0682C57.1624 45.5248 56.7341 44.1237 54.8067 44.0259C52.8793 43.928 51.5988 44.8354 50.8715 46.6234C50.2335 48.2024 50.5592 49.8348 50.5012 51.4449C50.4432 53.055 50.528 54.7008 50.47 56.3376C50.4165 57.752 49.8097 58.7705 48.199 58.7572C46.5884 58.7439 46.0039 57.7876 46.0039 56.3109C46.0039 51.9475 46.0039 47.5886 46.0039 43.2253C46.0039 41.8464 46.2225 40.6144 47.8822 40.5121C49.4795 40.4053 50.1309 41.415 50.1488 43.252Z" fill="#28679C"/>
<path d="M70.719 43.1444C71.9058 42.1169 72.8339 41.2941 74.0653 40.8671C78.17 39.4393 81.9891 41.472 82.4263 45.7597C82.7877 49.278 82.6271 52.8763 82.5468 56.4079C82.5156 57.7423 81.8106 58.8454 80.1732 58.7653C78.5358 58.6852 78.0807 57.6133 78.0495 56.2033C77.9915 53.3211 77.987 50.4211 77.871 47.5567C77.7907 45.653 77.3089 43.9672 74.8505 44.0295C72.758 44.0784 71.1206 45.7775 71.0492 48.1349C70.9778 50.4923 71.0492 52.8719 71.0224 55.2515C71.0749 55.9896 70.9716 56.7306 70.719 57.4265C70.5563 57.8849 70.2355 58.2708 69.8138 58.5152C69.3921 58.7597 68.897 58.8467 68.4168 58.7608C67.2925 58.663 66.5742 58.0181 66.5653 56.9239C66.5147 52.0401 66.5147 47.1549 66.5653 42.2682C66.5653 41.1428 67.3416 40.489 68.457 40.489C70.0676 40.4757 70.5495 41.601 70.719 43.1444Z" fill="#28679C"/>
<path d="M114.713 58.7095C110.724 58.7095 107.922 56.8859 106.713 53.2209C105.343 49.0799 106.57 44.423 109.627 42.1501C112.683 39.8773 117.524 39.8417 120.687 42.0701C121.657 42.7551 122.421 43.6919 122.895 44.7788C123.107 45.2105 123.154 45.7043 123.027 46.1678C122.9 46.6313 122.607 47.0327 122.204 47.2968C121.802 47.5608 121.316 47.6694 120.839 47.6021C120.362 47.5349 119.925 47.2965 119.612 46.9316C119.412 46.7136 119.224 46.4849 119.05 46.2466C117.854 44.4675 116.239 43.529 114.11 44.1161C111.982 44.7032 111.202 46.5002 110.822 48.4617C109.975 52.8606 113.053 56.3255 116.703 55.1335C117.925 54.742 118.621 53.8258 119.29 52.825C120.004 51.7531 120.798 50.6011 122.311 51.5529C123.823 52.5048 123.467 53.8792 122.757 55.0712C121.044 57.9267 118.282 58.7852 114.713 58.7095Z" fill="#28679C"/>
<path d="M79.4902 16.0466C79.4902 20.3789 82.368 22.8385 85.674 21.3485C86.6706 20.843 87.48 20.0345 87.9852 19.04C88.6633 17.8969 89.636 17.1764 90.9209 17.9058C92.2862 18.6842 92.1791 19.9519 91.5009 21.1884C89.7787 24.333 86.8073 25.0802 83.5771 25.0847C79.2894 25.0847 76.3983 23.0298 75.2517 19.4048C73.9667 15.335 75.332 10.4868 78.3748 8.37407C81.6095 6.119 86.3254 6.15014 89.4263 8.44524C90.5015 9.2503 91.4563 10.1932 91.5991 11.6477C91.6839 12.5061 91.5991 13.329 90.6845 13.7071C89.7698 14.0851 88.9444 14.0762 88.2395 13.2934C88.1363 13.1889 88.0422 13.0758 87.9584 12.9554C86.6779 11.0472 85.1431 9.65061 82.6044 10.5046C80.4852 11.2207 79.4902 13.0532 79.4902 16.0466Z" fill="#28679C"/>
<path d="M127.997 50.1413C127.997 48.9626 127.997 47.7795 127.997 46.583C127.997 45.3865 128.314 43.9899 126.329 43.9143C125.704 43.9143 125.463 43.2293 125.436 42.5799C125.396 41.7838 125.815 41.0944 126.458 41.081C128.376 41.0365 127.975 39.7467 128.006 38.6169C128.028 37.8786 128.069 37.1402 128.095 36.393C128.083 35.8647 128.281 35.3529 128.645 34.969C129.009 34.5851 129.511 34.3599 130.041 34.3425C130.565 34.2806 131.093 34.4199 131.518 34.7322C131.943 35.0444 132.233 35.5062 132.329 36.0238C132.485 36.6645 132.563 37.3216 132.561 37.9809C132.588 39.5332 132.066 41.3701 134.819 40.9921C135.506 40.8942 136.131 41.6637 136.126 42.5177C136.122 43.3717 135.524 44.0299 134.743 43.9543C132.463 43.7408 132.512 45.1108 132.553 46.7076C132.628 48.7758 132.642 50.853 132.553 52.9346C132.481 54.6337 132.999 55.4254 134.855 55.1896C135.868 55.0562 137.282 54.6514 137.469 56.3416C137.657 58.0318 136.309 58.4499 135.056 58.6412C133.879 58.791 132.688 58.8029 131.509 58.6768C129.452 58.4988 128.269 57.2979 128.153 55.2475C128.055 53.5528 128.131 51.8493 128.131 50.1502L127.997 50.1413Z" fill="#28679C"/>
<path d="M71.0442 15.8137C71.0442 18.0376 71.013 20.2393 71.0442 22.4499C71.0799 24.0556 70.2946 25.1186 68.7777 25.1186C67.2607 25.1186 66.5469 23.9889 66.5469 22.401C66.5826 18.051 66.5826 13.698 66.5469 9.34205C66.5469 7.83423 67.292 6.80677 68.6929 6.76674C70.2188 6.72671 71.0486 7.76751 71.0308 9.37319C71.0263 11.5304 71.0442 13.6698 71.0442 15.8137Z" fill="#28679C"/>
<path d="M71.0733 2.79257C71.0584 3.07999 70.9841 3.36125 70.8552 3.61873C70.7262 3.87621 70.5453 4.10436 70.3237 4.28889C70.1022 4.47342 69.8448 4.61035 69.5677 4.69111C69.2907 4.77186 68.9998 4.7947 68.7135 4.75819C67.4689 4.67815 66.483 3.93548 66.5946 2.42791C66.7061 0.920344 67.5715 0.364456 68.9544 0.400033C70.3863 0.43561 71.0733 1.22719 71.0733 2.79257Z" fill="#28679C"/>
<path d="M102.511 52.971C101.954 52.5262 101.329 52.335 100.691 52.842C99.8834 53.487 99.1205 54.1764 98.2817 54.7946C95.2299 56.9563 91.732 55.5775 90.9289 52.0058C90.6969 50.9739 90.862 50.6715 91.8926 50.707C93.298 50.7515 94.7079 50.707 96.1178 50.707C97.0815 50.707 98.0497 50.6314 99.0045 50.707C103.39 51.1163 104.059 49.1058 102.636 44.9782C102.146 43.6434 101.198 42.5247 99.9592 41.8202C98.5244 40.8874 96.8572 40.3716 95.1447 40.3308C93.4321 40.2899 91.7421 40.7256 90.2641 41.5889C86.8733 43.4348 86.0702 46.6684 86.1817 50.2845C86.2977 53.9673 88.0869 57.0497 91.2814 58.0994C94.9488 59.3048 98.5895 59.2381 101.722 56.5471C102.227 56.0118 102.636 55.3934 102.931 54.719C103.098 54.4294 103.148 54.0869 103.07 53.7618C102.992 53.4367 102.792 53.1537 102.511 52.971ZM91.7632 45.2362C92.0411 44.8237 92.399 44.4709 92.8159 44.1986C93.2327 43.9262 93.7 43.7397 94.1902 43.6502C94.6804 43.5606 95.1836 43.5698 95.6702 43.6772C96.1568 43.7846 96.617 43.988 97.0235 44.2754C98.1211 45.0271 98.9598 46.1569 98.6475 47.4245C98.3352 48.6922 96.9298 47.8693 96.033 48.0828C95.5198 48.1363 95.0025 48.1363 94.4893 48.0828C94.044 48.1214 93.5961 48.1214 93.1508 48.0828C92.4102 47.9449 91.3215 48.581 90.9958 47.6692C90.7281 46.8997 91.2234 45.9745 91.7632 45.2362Z" fill="#28679C"/>
<path d="M53.9663 6.70326C48.5856 6.74774 45.1234 10.306 45.1055 15.8881C45.0877 21.4702 48.7462 25.3087 54.0645 25.2286C59.3827 25.1486 62.9877 21.4702 62.9877 16.0215C63.0145 10.4751 59.3337 6.67658 53.9663 6.70326ZM57.8346 19.1217C57.5622 19.9409 57.0252 20.6472 56.3076 21.13C55.59 21.6128 54.7322 21.8451 53.8682 21.7904C52.0389 21.7459 50.7897 20.7051 50.1472 19.0861C49.3903 17.2195 49.3506 15.1401 50.0356 13.2461C50.7183 11.2801 52.0077 10.1681 54.1626 10.2393C56.3176 10.3105 57.4999 11.6004 58.0889 13.5307C58.3209 14.3002 58.428 15.1097 58.6243 16.0749C58.4319 17.1075 58.168 18.1255 57.8346 19.1217Z" fill="#28679C"/>
<path d="M111.424 19.3257C111.096 19.0716 110.689 18.9397 110.274 18.9526C109.858 18.9656 109.46 19.1228 109.149 19.3969C108.448 19.944 107.837 20.6112 107.11 21.1182C104.433 22.9908 101.22 22.1857 100.069 19.3924C99.2128 17.3331 99.3957 17.0707 101.707 17.0573H105.049V16.9773C106.53 16.9773 108.016 16.9773 109.51 16.9773C111.317 16.9506 112.187 16.1144 112.125 14.2107C112.078 12.6175 111.533 11.0789 110.564 9.81055C109.596 8.54223 108.254 7.60788 106.726 7.13858C102.791 5.97324 98.5391 7.25423 96.5804 10.1943C92.3017 16.6259 96.103 24.6009 103.75 25.228C106.829 25.4771 110.536 23.7247 111.594 21.5363C111.955 20.7535 112.183 19.9173 111.424 19.3257ZM100.324 11.9868C100.568 11.5114 100.91 11.0925 101.327 10.7572C101.744 10.422 102.227 10.1779 102.745 10.0407C103.263 9.90359 103.804 9.87649 104.333 9.96117C104.862 10.0459 105.367 10.2404 105.816 10.5323C106.994 11.3107 107.842 12.516 107.538 13.8638C107.235 15.2115 105.816 14.3486 104.915 14.5487C104.47 14.5987 104.021 14.5987 103.576 14.5487H101.792C99.3645 14.5576 99.1191 14.1351 100.324 11.9868Z" fill="#28679C"/>
<path d="M33.5293 40.461C28.0861 40.461 24.6417 44.0192 24.6328 49.5657C24.6328 55.2946 28.0192 58.7906 33.5918 58.7728C39.1643 58.755 42.515 55.3168 42.515 49.7392C42.5195 44.1082 38.9948 40.4521 33.5293 40.461ZM32.1908 55.1878C29.8708 54.3694 28.5367 51.1848 29.2149 48.0713C29.8708 45.0689 31.41 43.7702 34.0602 43.997C36.523 44.2016 38.0311 46.4033 38.0132 49.7525C37.9998 53.8357 35.3809 56.3042 32.2042 55.1878H32.1908Z" fill="#28679C"/>
</svg>
