<svg width="43" height="43" viewBox="0 0 43 43" fill="none" xmlns="http://www.w3.org/2000/svg">
<path d="M35.8346 41.2057H7.16797C5.74243 41.2057 4.37528 40.6394 3.36727 39.6314C2.35926 38.6234 1.79297 37.2563 1.79297 35.8307V7.16406C1.79297 5.73852 2.35926 4.37137 3.36727 3.36336C4.37528 2.35536 5.74243 1.78906 7.16797 1.78906H17.918C18.3931 1.78906 18.8489 1.97783 19.1849 2.31383C19.5209 2.64983 19.7096 3.10555 19.7096 3.58073C19.7096 4.05591 19.5209 4.51163 19.1849 4.84763C18.8489 5.18363 18.3931 5.3724 17.918 5.3724H7.16797C6.69279 5.3724 6.23707 5.56116 5.90107 5.89716C5.56507 6.23317 5.3763 6.68888 5.3763 7.16406V35.8307C5.3763 36.3059 5.56507 36.7616 5.90107 37.0976C6.23707 37.4336 6.69279 37.6224 7.16797 37.6224H35.8346C36.3098 37.6224 36.7655 37.4336 37.1015 37.0976C37.4375 36.7616 37.6263 36.3059 37.6263 35.8307V25.0807C37.6263 24.6056 37.8151 24.1498 38.1511 23.8138C38.4871 23.4778 38.9428 23.2891 39.418 23.2891C39.8932 23.2891 40.3489 23.4778 40.6849 23.8138C41.0209 24.1498 41.2096 24.6056 41.2096 25.0807V35.8307C41.2096 37.2563 40.6433 38.6234 39.6353 39.6314C38.6273 40.6394 37.2602 41.2057 35.8346 41.2057ZM17.918 26.8724C17.6822 26.8738 17.4484 26.8286 17.2301 26.7394C17.0118 26.6502 16.8133 26.5189 16.6459 26.3528C16.478 26.1863 16.3447 25.9881 16.2537 25.7698C16.1627 25.5514 16.1159 25.3173 16.1159 25.0807C16.1159 24.8442 16.1627 24.61 16.2537 24.3917C16.3447 24.1734 16.478 23.9752 16.6459 23.8086L35.1001 5.3724H28.668C28.1928 5.3724 27.7371 5.18363 27.4011 4.84763C27.0651 4.51163 26.8763 4.05591 26.8763 3.58073C26.8763 3.10555 27.0651 2.64983 27.4011 2.31383C27.7371 1.97783 28.1928 1.78906 28.668 1.78906H39.418C39.8932 1.78906 40.3489 1.97783 40.6849 2.31383C41.0209 2.64983 41.2096 3.10555 41.2096 3.58073V14.3307C41.2096 14.8059 41.0209 15.2616 40.6849 15.5976C40.3489 15.9336 39.8932 16.1224 39.418 16.1224C38.9428 16.1224 38.4871 15.9336 38.1511 15.5976C37.8151 15.2616 37.6263 14.8059 37.6263 14.3307V7.89865L19.1901 26.3528C19.0226 26.5189 18.8241 26.6502 18.6058 26.7394C18.3875 26.8286 18.1538 26.8738 17.918 26.8724Z" fill="#0C71B9"/>
</svg>
