<svg width="48" height="48" viewBox="0 0 48 48" fill="none" xmlns="http://www.w3.org/2000/svg">
<path d="M35.7249 38.0121C35.078 37.3652 34.5087 36.7959 33.9265 36.2137C29.1137 40.1338 23.6151 41.7511 17.4309 40.716C12.1782 39.8233 7.93463 37.1711 4.71313 32.9275C-1.54873 24.6733 -0.423143 13.0034 7.2748 5.9265C14.8951 -1.07281 26.5908 -1.09868 34.3923 5.90062C42.1678 12.887 43.5651 25.2037 36.2553 33.872C36.8375 34.4542 37.4068 35.0234 38.0536 35.6574C38.3124 35.3728 38.6358 34.9846 38.9981 34.6482C39.6709 34.0014 40.5506 33.9755 41.2104 34.6224C42.8535 36.2396 44.5225 37.8439 46.088 39.5387C48.5461 42.1909 47.1618 46.4216 43.6169 47.2108C42.1032 47.5472 40.7318 47.172 39.6191 46.1369C37.8984 44.5327 36.2553 42.8378 34.5993 41.1559C33.9912 40.5478 34.03 39.6422 34.6251 39.0212C34.9745 38.646 35.3755 38.3226 35.7249 38.0121ZM20.8594 37.9215C30.2781 37.9215 37.8855 30.327 37.9372 20.8825C37.989 11.4638 30.3298 3.77884 20.8853 3.7659C11.4537 3.75296 3.79455 11.3992 3.78162 20.8308C3.78162 30.2624 11.4149 37.9215 20.8594 37.9215ZM40.1754 38.0509C39.4768 38.7495 38.7523 39.474 38.0278 40.1985C39.1922 41.3629 40.3824 42.5791 41.5986 43.7693C42.2455 44.4033 43.0605 44.3645 43.7074 43.7435C44.3414 43.1354 44.4319 42.2815 43.8497 41.6734C42.6336 40.4185 41.3657 39.2023 40.1754 38.0379V38.0509Z" fill="url(#paint0_linear_467_1009)"/>
<path d="M28.4807 18.471C27.8467 19.1179 27.2257 19.7648 26.5788 20.3987C25.091 21.8995 23.5902 23.3873 22.0894 24.8752C21.2744 25.6903 20.4075 25.6903 19.5924 24.8752C18.9844 24.2671 18.3892 23.659 17.7682 23.0251C17.613 23.1674 17.4965 23.2838 17.3672 23.4003C15.8017 24.9658 14.2362 26.5312 12.6708 28.0837C12.0886 28.6659 11.5064 28.7953 10.8724 28.4978C9.81153 28.0061 9.59159 26.777 10.4325 25.9361C11.8557 24.5 13.2788 23.0768 14.7149 21.6537C15.3359 21.0327 15.944 20.4117 16.565 19.8036C17.3025 19.092 18.1952 19.092 18.9197 19.8036C19.5407 20.4117 20.1488 21.0327 20.7698 21.6408C20.7698 21.6408 20.7957 21.6537 20.7568 21.6408C22.594 19.8036 24.4053 17.9923 26.2166 16.181C26.1777 16.181 26.0613 16.1552 25.9449 16.1552C25.2721 16.1552 24.5864 16.1552 23.9136 16.1552C23.0339 16.1293 22.387 15.5083 22.3611 14.6932C22.3223 13.8393 22.9433 13.0889 23.8231 13.076C25.9707 13.0372 28.1184 13.0372 30.2661 13.076C31.1588 13.0889 31.7151 13.8005 31.728 14.7967C31.728 16.5692 31.728 18.3416 31.728 20.127C31.728 20.347 31.728 20.5799 31.728 20.7998C31.6892 21.7572 31.0294 22.43 30.1626 22.43C29.2957 22.43 28.6489 21.7313 28.623 20.7739C28.61 20.0235 28.623 19.2732 28.623 18.5098C28.5842 18.4969 28.5324 18.484 28.4936 18.4581L28.4807 18.471Z" fill="url(#paint1_linear_467_1009)"/>
<defs>
<linearGradient id="paint0_linear_467_1009" x1="23.9986" y1="0.664062" x2="23.9986" y2="47.3307" gradientUnits="userSpaceOnUse">
<stop stop-color="#8EF8AA"/>
<stop offset="1" stop-color="#00EFD1"/>
</linearGradient>
<linearGradient id="paint1_linear_467_1009" x1="20.823" y1="13.0469" x2="20.823" y2="28.6522" gradientUnits="userSpaceOnUse">
<stop stop-color="#8EF8AA"/>
<stop offset="1" stop-color="#00EFD1"/>
</linearGradient>
</defs>
</svg>
