<svg width="56" height="56" viewBox="0 0 56 56" fill="none" xmlns="http://www.w3.org/2000/svg">
<path d="M9.32834 25.0263C9.32834 27.9781 9.2941 30.9298 9.33578 33.8801C9.40277 38.697 11.5492 42.3513 15.5906 44.9458C16.0312 45.2286 16.4435 45.7184 16.6221 46.2036C16.8588 46.8452 16.5819 47.4793 15.9836 47.8872C15.3956 48.2876 14.7823 48.2831 14.1616 47.9393C11.9303 46.6993 10.1187 45.0054 8.71358 42.8812C7.05089 40.3641 6.06697 37.6044 6.04762 34.5782C6.00743 28.2043 5.96128 21.8304 6.0506 15.458C6.1533 8.22378 11.5656 1.80672 18.6197 0.358384C27.676 -1.50228 36.0653 4.04994 37.8664 13.1196C38.0346 13.965 38.1001 14.8403 38.115 15.7036C38.1508 17.7608 38.1314 19.8209 38.1255 21.8781C38.1225 23.0153 37.466 23.7625 36.4851 23.7625C35.4878 23.7625 34.8254 23.0421 34.815 21.884C34.7986 19.9995 34.812 18.1151 34.8105 16.2291C34.8016 9.7391 30.4059 4.53818 23.9963 3.4322C17.3753 2.2905 10.5594 7.16692 9.52929 13.8058C9.39681 14.6587 9.34471 15.531 9.33727 16.3958C9.31345 19.2731 9.32834 22.149 9.32834 25.0263Z" fill="url(#paint0_linear_467_1025)"/>
<path d="M49.9999 49.5037C50.0148 53.1421 47.1802 55.9836 43.5171 55.9999C39.9388 56.0163 37.0149 53.1421 37.0001 49.5912C36.9837 45.9321 39.8764 43 43.5022 43C47.1222 43 49.9866 45.8683 49.9999 49.5037ZM46.6998 49.5111C46.6983 47.7498 45.2378 46.2882 43.4948 46.303C41.7592 46.3179 40.2943 47.8076 40.3077 49.5437C40.3211 51.2442 41.7771 52.6925 43.4889 52.7073C45.2393 52.7221 46.7013 51.268 46.6998 49.5111Z" fill="url(#paint1_linear_467_1025)"/>
<path d="M33.5169 33.124C33.5199 36.753 30.6292 39.6482 27.0061 39.6422C23.3949 39.6363 20.4953 36.7292 20.4923 33.1121C20.4908 29.5128 23.4247 26.5819 27.018 26.5938C30.6456 26.6057 33.514 29.489 33.5169 33.124ZM30.2005 33.0882C30.1901 31.3288 28.706 29.8686 26.963 29.9028C25.2586 29.9355 23.8073 31.4107 23.8043 33.1106C23.8013 34.8492 25.2839 36.3318 27.0225 36.3303C28.7715 36.3288 30.2109 34.8611 30.199 33.0882H30.2005Z" fill="url(#paint2_linear_467_1025)"/>
<path d="M46.4984 31.9378C46.3585 32.167 46.162 32.688 45.8033 33.0482C40.2615 38.6213 34.6973 44.1735 29.1392 49.7302C28.386 50.4834 27.6402 51.247 26.8766 51.9898C26.0654 52.7802 25.0487 52.8234 24.3655 52.1193C23.6941 51.4286 23.7552 50.3956 24.5411 49.6081C30.8495 43.2953 37.1638 36.9869 43.4722 30.6726C44.0453 30.0995 44.6735 29.7988 45.4758 30.1292C46.1382 30.4031 46.4686 30.9167 46.5014 31.9378H46.4984Z" fill="url(#paint3_linear_467_1025)"/>
<defs>
<linearGradient id="paint0_linear_467_1025" x1="22.0677" y1="0" x2="22.0677" y2="48.1926" gradientUnits="userSpaceOnUse">
<stop stop-color="#8EF8AA"/>
<stop offset="1" stop-color="#00EFD1"/>
</linearGradient>
<linearGradient id="paint1_linear_467_1025" x1="43.5" y1="43" x2="43.5" y2="56" gradientUnits="userSpaceOnUse">
<stop stop-color="#8EF8AA"/>
<stop offset="1" stop-color="#00EFD1"/>
</linearGradient>
<linearGradient id="paint2_linear_467_1025" x1="27.0046" y1="26.5938" x2="27.0046" y2="39.6423" gradientUnits="userSpaceOnUse">
<stop stop-color="#8EF8AA"/>
<stop offset="1" stop-color="#00EFD1"/>
</linearGradient>
<linearGradient id="paint3_linear_467_1025" x1="35.2023" y1="29.9922" x2="35.2023" y2="52.6168" gradientUnits="userSpaceOnUse">
<stop stop-color="#8EF8AA"/>
<stop offset="1" stop-color="#00EFD1"/>
</linearGradient>
</defs>
</svg>
