<svg width="76" height="76" viewBox="0 0 76 76" fill="none" xmlns="http://www.w3.org/2000/svg">
<path d="M0 74.3349V37.3855C0.594679 36.097 1.60563 35.7402 2.99322 35.7402C26.4038 35.7601 49.8143 35.7601 73.2447 35.7601C75.1873 35.7601 75.9802 36.5728 75.9802 38.5154C75.9802 50.0522 75.9802 61.6088 75.9802 73.1456C75.9802 75.1873 75.2071 75.9604 73.1654 75.9604C49.7747 75.9604 26.3839 75.9604 2.99322 75.9802C1.60563 75.9802 0.594679 75.6036 0 74.3349ZM62.3422 55.8404C62.3819 55.8404 62.4215 55.8404 62.4611 55.8404C62.4611 54.2348 62.5008 52.6291 62.4611 51.0235C62.3422 47.4752 59.3292 44.6406 55.7413 44.6604C52.2128 44.6802 49.2196 47.5545 49.1403 51.0631C49.0809 54.1951 49.0809 57.3469 49.1403 60.4789C49.1998 63.8289 51.9155 66.6239 55.2655 66.9014C58.6552 67.1591 61.8466 64.82 62.3026 61.4502C62.5404 59.6067 62.3422 57.7037 62.3422 55.8404ZM35.76 58.0011C36.6719 58.0011 37.4846 58.0209 38.2973 58.0011C41.6474 57.8821 44.4424 55.1466 44.6604 51.8164C44.8785 48.4267 42.5592 45.2947 39.229 44.8388C37.4053 44.5811 35.542 44.7001 33.6787 44.6802C32.2316 44.6802 31.3198 45.6119 31.3198 47.059C31.3198 48.2483 31.3198 49.4377 31.3198 50.627C31.3198 55.2457 31.3198 59.8644 31.3198 64.4831C31.3198 65.4544 31.6568 66.2275 32.5488 66.6834C34.0355 67.4565 35.76 66.4059 35.7799 64.6615C35.7997 62.481 35.7799 60.3203 35.7799 58.0407L35.76 58.0011ZM22.4591 62.4612V49.1007C23.1528 49.1007 23.7872 49.1007 24.4413 49.1007C25.8685 49.1007 26.8795 48.1492 26.8597 46.8607C26.8597 45.5921 25.8487 44.6604 24.4611 44.6604C21.6265 44.6604 18.772 44.6604 15.9374 44.6604C14.5102 44.6604 13.4992 45.5921 13.519 46.9004C13.519 48.1889 14.53 49.1007 15.977 49.1205C16.6312 49.1205 17.2853 49.1205 17.9197 49.1205V62.481C17.1862 62.481 16.5123 62.481 15.8185 62.481C14.4904 62.5008 13.519 63.4523 13.4992 64.6813C13.4992 65.9301 14.4705 66.9014 15.7788 66.9212C18.7126 66.9212 21.6661 66.9212 24.5999 66.9212C25.8685 66.9212 26.82 65.9301 26.8399 64.7209C26.8399 63.4721 25.8884 62.5008 24.5603 62.481C23.8665 62.481 23.1727 62.481 22.4392 62.481L22.4591 62.4612Z" fill="url(#paint0_linear_320_4)"/>
<path d="M69.7363 0C71.0247 0.594679 71.4014 1.60563 71.3816 2.99322C71.3419 12.072 71.3617 21.1309 71.3617 30.2097C71.3617 39.2885 71.3617 30.7846 71.3617 31.1215H58.0013V30.289C58.0013 21.1904 58.0013 12.0918 57.9814 2.99322C57.9814 1.60563 58.3581 0.594679 59.6267 0H69.7165L69.7363 0Z" fill="url(#paint1_linear_320_4)"/>
<path d="M53.5607 31.1216H40.2398C40.2398 30.8837 40.2002 30.6458 40.2002 30.408C40.2002 24.1044 40.2002 17.8008 40.2002 11.4972C40.2002 9.75276 41.0526 8.90039 42.7771 8.90039C45.5127 8.90039 48.268 8.90039 51.0035 8.90039C52.6488 8.90039 53.5408 9.77259 53.5408 11.398C53.5408 17.7809 53.5408 24.144 53.5408 30.5269C53.5408 30.7053 53.5408 30.8639 53.5408 31.1216H53.5607Z" fill="url(#paint2_linear_320_4)"/>
<path d="M22.4192 31.102C22.4192 27.3159 22.3994 23.5892 22.4192 19.8626C22.4192 18.7327 23.3905 17.8208 24.5601 17.801C27.5731 17.7812 30.5862 17.7812 33.5992 17.801C34.7489 17.801 35.7202 18.7128 35.7401 19.8626C35.7797 23.5892 35.7401 27.3159 35.7401 31.102H22.3994H22.4192Z" fill="url(#paint3_linear_320_4)"/>
<path d="M17.9394 31.1218H4.63843C4.63843 30.2298 4.55914 29.3576 4.65825 28.4854C4.79701 27.4745 5.68903 26.7212 6.73963 26.7014C9.75267 26.6816 12.7657 26.6816 15.7787 26.7014C16.9681 26.7014 17.8799 27.6331 17.9394 28.8224C17.9791 29.5559 17.9394 30.3091 17.9394 31.1218Z" fill="url(#paint4_linear_320_4)"/>
<path d="M58.2208 55.6893C58.2208 57.1165 58.2208 58.5438 58.2208 59.9908C58.2208 61.3586 57.2693 62.3497 56.0007 62.3695C54.732 62.3695 53.7806 61.3784 53.7607 60.0106C53.7607 57.1165 53.7607 54.2423 53.7607 51.3482C53.7607 49.9804 54.732 48.9893 56.0007 49.0091C57.2297 49.0091 58.1812 50.0002 58.201 51.3283C58.201 52.7754 58.201 54.2423 58.201 55.6893H58.2208Z" fill="url(#paint5_linear_320_4)"/>
<path d="M36 49.0088C36.7929 49.0088 37.5065 48.989 38.2201 49.0088C39.469 49.0485 40.4204 50.0396 40.4006 51.2488C40.4006 52.4183 39.4491 53.3896 38.24 53.4491C37.5065 53.4887 36.7731 53.4491 36 53.4491V49.0088Z" fill="url(#paint6_linear_320_4)"/>
<defs>
<linearGradient id="paint0_linear_320_4" x1="37.9901" y1="35.7402" x2="37.9901" y2="75.9802" gradientUnits="userSpaceOnUse">
<stop stop-color="#8EF8AA"/>
<stop offset="1" stop-color="#00EFD1"/>
</linearGradient>
<linearGradient id="paint1_linear_320_4" x1="64.6819" y1="0" x2="64.6819" y2="34.4137" gradientUnits="userSpaceOnUse">
<stop stop-color="#8EF8AA"/>
<stop offset="1" stop-color="#00EFD1"/>
</linearGradient>
<linearGradient id="paint2_linear_320_4" x1="46.8804" y1="8.90039" x2="46.8804" y2="31.1216" gradientUnits="userSpaceOnUse">
<stop stop-color="#8EF8AA"/>
<stop offset="1" stop-color="#00EFD1"/>
</linearGradient>
<linearGradient id="paint3_linear_320_4" x1="29.0785" y1="17.7861" x2="29.0785" y2="31.102" gradientUnits="userSpaceOnUse">
<stop stop-color="#8EF8AA"/>
<stop offset="1" stop-color="#00EFD1"/>
</linearGradient>
<linearGradient id="paint4_linear_320_4" x1="11.2827" y1="26.6865" x2="11.2827" y2="31.1218" gradientUnits="userSpaceOnUse">
<stop stop-color="#8EF8AA"/>
<stop offset="1" stop-color="#00EFD1"/>
</linearGradient>
<linearGradient id="paint5_linear_320_4" x1="55.9908" y1="49.0088" x2="55.9908" y2="62.3695" gradientUnits="userSpaceOnUse">
<stop stop-color="#8EF8AA"/>
<stop offset="1" stop-color="#00EFD1"/>
</linearGradient>
<linearGradient id="paint6_linear_320_4" x1="38.2005" y1="49" x2="38.2005" y2="53.4667" gradientUnits="userSpaceOnUse">
<stop stop-color="#8EF8AA"/>
<stop offset="1" stop-color="#00EFD1"/>
</linearGradient>
</defs>
</svg>
