<svg width="84" height="76" viewBox="0 0 84 76" fill="none" xmlns="http://www.w3.org/2000/svg">
<path d="M74.1099 44.6549C73.2043 44.6549 72.2988 44.6549 71.3933 44.6549C70.4878 44.6549 69.6171 44.6549 68.7115 44.6549C68.3633 44.6549 68.2588 44.7594 68.2588 45.1077C68.2588 46.8839 68.2588 48.6253 68.2588 50.4015C68.2588 50.8891 68.3284 50.9588 68.8509 50.9588C70.4878 50.9588 72.1595 50.9588 73.7964 50.9588C74.493 50.9588 74.5278 50.8891 74.5278 50.1577C74.5278 48.4512 74.5278 46.7446 74.5278 45.038C74.5278 44.6898 74.4233 44.6201 74.1099 44.6201V44.6549Z" fill="url(#paint0_linear_142_43)"/>
<path d="M14.9018 44.6553C13.9963 44.6553 13.1256 44.6553 12.2201 44.6553C11.2798 44.6553 10.3742 44.6553 9.43389 44.6553C9.15526 44.6553 9.05078 44.7249 9.05078 45.0384C9.05078 46.8146 9.05078 48.556 9.05078 50.3322C9.05078 50.9243 9.12044 50.9939 9.74734 50.9939C11.3842 50.9939 13.0211 50.9939 14.6232 50.9939C15.2501 50.9939 15.3198 50.9243 15.3198 50.2974C15.3198 48.556 15.3198 46.8494 15.3198 45.108C15.3198 44.7249 15.1805 44.6901 14.867 44.6901L14.9018 44.6553Z" fill="url(#paint1_linear_142_43)"/>
<path d="M83.5821 40.7539C83.5821 40.6494 83.5821 40.5797 83.5821 40.4752C83.5125 40.4404 83.4776 40.3708 83.408 40.3359C83.3383 40.4752 83.3035 40.6146 83.2338 40.719C81.7363 42.4604 79.8556 43.6097 77.6614 44.2018C77.2086 44.3411 77.139 44.5153 77.139 44.9332C77.139 46.7791 77.139 48.6249 77.139 50.4708C77.139 52.3167 75.8155 53.5357 73.9697 53.5357C72.2631 53.5357 70.5914 53.5357 68.8848 53.5357C66.9344 53.5357 65.6458 52.247 65.6458 50.2967C65.6458 48.5553 65.6458 46.8139 65.6458 45.1073C65.6458 44.7242 65.5762 44.6197 65.1582 44.6197C63.2427 44.6197 61.3272 44.6197 59.4465 44.6197C59.133 44.6197 59.0634 44.7242 59.0285 45.0028C58.9241 45.7342 58.8544 46.5004 58.6803 47.2318C57.0085 54.6153 50.5654 60.4664 42.2415 60.7102C38.5846 60.8147 35.2063 59.8395 32.1763 57.7846C27.6487 54.7198 25.1063 50.436 24.549 44.968C24.5142 44.6197 24.3749 44.5849 24.0614 44.5849C22.1807 44.5849 20.2652 44.5849 18.3845 44.5849C18.0014 44.5849 17.9318 44.6894 17.9318 45.0377C17.9318 46.8139 17.9318 48.5553 17.9318 50.3315C17.9318 52.2122 16.6431 53.5008 14.7624 53.5008C13.0559 53.5008 11.3145 53.5008 9.60791 53.5008C7.76204 53.5008 6.47341 52.247 6.47341 50.4012C6.47341 48.5205 6.47341 46.6049 6.47341 44.7242C6.47341 44.4108 6.40376 44.2366 6.05548 44.167C3.93098 43.5749 2.08511 42.4953 0.55269 40.8583C0.378551 40.6842 0.23924 40.5101 0.0302734 40.2314C0.0302734 40.4752 0.0302734 40.6146 0.0302734 40.7539C0.0302734 48.1722 0.0302734 55.6253 0.0302734 63.0436V72.064C0.0302734 73.074 0.378551 73.9447 1.07511 74.7109C2.01546 75.7558 3.26926 75.9996 4.62754 75.9996C16.9217 75.9996 29.216 75.9996 41.4753 75.9996C53.7347 75.9996 66.7603 75.9996 79.4028 75.9996C79.8903 75.9996 81.4228 75.7906 82.2587 75.0592C83.2687 74.1885 83.6518 73.0392 83.6518 71.7158C83.6518 61.3719 83.6518 51.0281 83.6518 40.6494L83.5821 40.7539ZM4.62754 72.7606C3.89616 72.7606 3.26926 72.1685 3.26926 71.472C3.26926 70.7406 3.89616 70.1485 4.59271 70.1485C5.28927 70.1485 5.88134 70.7406 5.88134 71.4371C5.88134 72.1685 5.3241 72.7258 4.59271 72.7258L4.62754 72.7606ZM78.9848 72.7606C78.2535 72.7606 77.6614 72.1685 77.6614 71.4371C77.6614 70.7058 78.2883 70.1137 79.0197 70.1485C79.7162 70.1485 80.3083 70.8102 80.3083 71.472C80.3083 72.1685 79.6814 72.7606 78.9848 72.7606Z" fill="url(#paint2_linear_142_43)"/>
<path d="M4.94168 41.0675C6.50893 41.9382 8.21549 42.0775 9.9917 42.0427C14.6935 42.0427 19.3952 42.0427 24.097 42.0427C24.4452 42.0427 24.5149 41.9382 24.5497 41.6248C24.6194 40.9979 24.689 40.4058 24.8283 39.7789C26.9528 30.1664 36.3215 24.2805 45.8643 26.5095C53.004 28.1812 58.4371 34.4502 59.0292 41.6944C59.0292 41.973 59.1337 42.0427 59.4123 42.0427C64.4623 42.0427 69.5124 42.0427 74.5276 42.0427C74.9455 42.0427 75.3286 42.0427 75.7466 41.973C80.0304 41.4506 83.5131 37.6544 83.548 33.3358C83.6176 27.5195 83.548 21.7033 83.548 15.887C83.548 15.086 83.2693 14.3894 82.8166 13.7625C81.9459 12.5436 80.7269 12.0908 79.2293 12.0908C71.2189 12.0908 63.1737 12.0908 55.1633 12.0908C55.1633 12.056 55.1633 11.9863 55.1633 11.9167C55.1633 9.26976 55.1633 6.65768 55.1633 4.01077C55.1633 3.69732 55.1633 3.38387 55.0937 3.07042C54.7106 1.18972 53.1433 0.00557245 51.0188 0.00557245C46.5957 0.00557245 42.1726 0.00557245 37.7843 0.00557245C35.8339 0.00557245 33.9184 -0.0292553 31.968 0.075228C30.0177 0.179711 28.4853 1.81662 28.4853 3.76697C28.4504 6.48354 28.4853 9.23493 28.4853 11.9515C28.4853 12.0212 28.4853 12.056 28.4853 12.0908H16.191C12.1162 12.0908 8.04135 12.0908 3.9665 12.0908C1.73752 12.0908 0.030958 13.8322 0.030958 16.0264C0.030958 21.7033 -0.0386975 27.3802 0.030958 33.0571C0.0657858 36.6444 1.842 39.3261 4.9765 41.0327L4.94168 41.0675ZM78.9855 16.897C79.6821 16.897 80.2742 17.5239 80.2742 18.2205C80.2742 18.9171 79.6473 19.5091 78.9507 19.5091C78.2542 19.5091 77.6621 18.9171 77.6621 18.2205C77.6621 17.4891 78.2542 16.897 78.9855 16.9319V16.897ZM31.7939 5.43871C31.7939 5.19491 31.7939 4.95112 31.8635 4.70732C32.0725 3.87146 32.8039 3.34904 33.7442 3.34904C39.1077 3.34904 44.4364 3.34904 49.7999 3.34904C50.984 3.34904 52.0288 4.08042 51.9592 5.50836C51.8895 7.59803 51.9592 9.68769 51.9592 11.8122V12.1256C48.6157 12.1256 45.2374 12.1256 41.8591 12.1256H31.7939C31.7939 12.056 31.7939 11.9863 31.7939 11.8818C31.7939 9.75735 31.7939 7.59803 31.7939 5.47353V5.43871ZM4.62823 16.8622C5.32478 16.8622 5.91685 17.4543 5.88203 18.1857C5.88203 18.9171 5.28995 19.4743 4.5934 19.4743C3.89684 19.4743 3.26994 18.8474 3.26994 18.1857C3.26994 17.4543 3.89684 16.8622 4.5934 16.8622H4.62823Z" fill="url(#paint3_linear_142_43)"/>
<path d="M27.0566 43.3656C27.0566 46.9529 28.3104 50.2267 30.4349 52.804L51.1923 32.0466C48.6499 29.9569 45.4109 28.7031 41.8584 28.7031C33.6739 28.7031 27.0566 35.2507 27.0566 43.4004V43.3656Z" fill="url(#paint4_linear_142_43)"/>
<path d="M56.5214 43.4706C56.5214 40.1271 55.4069 37.0275 53.5611 34.5547L32.9082 55.2076C35.381 57.0534 38.4458 58.1679 41.7893 58.1679C49.8693 58.1679 56.5214 51.5506 56.5214 43.4706Z" fill="url(#paint5_linear_142_43)"/>
<defs>
<linearGradient id="paint0_linear_142_43" x1="71.3933" y1="44.6201" x2="71.3933" y2="50.9588" gradientUnits="userSpaceOnUse">
<stop stop-color="#8EF8AA"/>
<stop offset="1" stop-color="#00EFD1"/>
</linearGradient>
<linearGradient id="paint1_linear_142_43" x1="12.1853" y1="44.6553" x2="12.1853" y2="50.9939" gradientUnits="userSpaceOnUse">
<stop stop-color="#8EF8AA"/>
<stop offset="1" stop-color="#00EFD1"/>
</linearGradient>
<linearGradient id="paint2_linear_142_43" x1="41.841" y1="40.2314" x2="41.841" y2="75.9996" gradientUnits="userSpaceOnUse">
<stop stop-color="#8EF8AA"/>
<stop offset="1" stop-color="#00EFD1"/>
</linearGradient>
<linearGradient id="paint3_linear_142_43" x1="41.7895" y1="0" x2="41.7895" y2="42.0475" gradientUnits="userSpaceOnUse">
<stop stop-color="#8EF8AA"/>
<stop offset="1" stop-color="#00EFD1"/>
</linearGradient>
<linearGradient id="paint4_linear_142_43" x1="39.1245" y1="28.7031" x2="39.1245" y2="52.804" gradientUnits="userSpaceOnUse">
<stop stop-color="#8EF8AA"/>
<stop offset="1" stop-color="#00EFD1"/>
</linearGradient>
<linearGradient id="paint5_linear_142_43" x1="44.7148" y1="34.5547" x2="44.7148" y2="58.1679" gradientUnits="userSpaceOnUse">
<stop stop-color="#8EF8AA"/>
<stop offset="1" stop-color="#00EFD1"/>
</linearGradient>
</defs>
</svg>
