<svg width="36" height="36" viewBox="0 0 36 36" fill="none" xmlns="http://www.w3.org/2000/svg">
<path d="M27.0439 28.8113C26.5449 28.3123 26.1057 27.8731 25.6566 27.424C21.9438 30.4481 17.7021 31.6957 12.9314 30.8972C8.87932 30.2086 5.60571 28.1626 3.12056 24.889C-1.71002 18.5214 -0.841715 9.51894 5.0967 4.05959C10.9752 -1.33987 19.9976 -1.35983 26.0159 4.03963C32.0142 9.42912 33.0921 18.9306 27.4531 25.6175C27.9022 26.0667 28.3414 26.5058 28.8404 26.9949C29.04 26.7753 29.2895 26.4759 29.569 26.2164C30.0879 25.7173 30.7666 25.6974 31.2756 26.1964C32.5432 27.444 33.8306 28.6816 35.0383 29.989C36.9346 32.035 35.8667 35.2986 33.132 35.9075C31.9643 36.167 30.9064 35.8775 30.048 35.0791C28.7206 33.8415 27.4531 32.534 26.1756 31.2366C25.7065 30.7675 25.7364 30.0689 26.1955 29.5898C26.465 29.3004 26.7744 29.0508 27.0439 28.8113ZM15.5763 28.7414C22.8421 28.7414 28.7106 22.8829 28.7506 15.5971C28.7905 8.33126 22.882 2.40283 15.5962 2.39285C8.32041 2.38287 2.41194 8.28136 2.40196 15.5572C2.40196 22.833 8.29047 28.7414 15.5763 28.7414ZM30.4772 28.8412C29.9382 29.3802 29.3793 29.9391 28.8204 30.498C29.7187 31.3963 30.6369 32.3344 31.575 33.2526C32.0741 33.7417 32.7028 33.7117 33.2019 33.2327C33.6909 32.7636 33.7608 32.1049 33.3117 31.6358C32.3735 30.6677 31.3954 29.7295 30.4772 28.8313V28.8412Z" fill="#FFCE02"/>
<path d="M21.4546 13.7405C20.9655 14.2395 20.4864 14.7385 19.9874 15.2276C18.8397 16.3853 17.6819 17.5331 16.5242 18.6809C15.8954 19.3096 15.2267 19.3096 14.5979 18.6809C14.1289 18.2118 13.6697 17.7427 13.1907 17.2536C13.0709 17.3634 12.9811 17.4532 12.8813 17.5431C11.6736 18.7507 10.466 19.9584 9.25835 21.156C8.80923 21.6051 8.3601 21.705 7.87106 21.4754C7.05265 21.0961 6.88299 20.148 7.53172 19.4993C8.62958 18.3914 9.72744 17.2936 10.8353 16.1957C11.3143 15.7166 11.7834 15.2376 12.2625 14.7685C12.8314 14.2196 13.52 14.2196 14.0789 14.7685C14.558 15.2376 15.0271 15.7166 15.5062 16.1857C15.5062 16.1857 15.5261 16.1957 15.4962 16.1857C16.9134 14.7685 18.3107 13.3712 19.708 11.9739C19.678 11.9739 19.5882 11.954 19.4984 11.954C18.9794 11.954 18.4504 11.954 17.9314 11.954C17.2528 11.934 16.7537 11.4549 16.7338 10.8262C16.7038 10.1675 17.1829 9.58859 17.8616 9.57861C19.5183 9.54867 21.1751 9.54867 22.8319 9.57861C23.5205 9.58859 23.9497 10.1375 23.9597 10.906C23.9597 12.2734 23.9597 13.6407 23.9597 15.018C23.9597 15.1877 23.9597 15.3673 23.9597 15.537C23.9297 16.2755 23.4207 16.7945 22.752 16.7945C22.0833 16.7945 21.5843 16.2556 21.5643 15.517C21.5544 14.9382 21.5643 14.3593 21.5643 13.7704C21.5344 13.7604 21.4945 13.7505 21.4645 13.7305L21.4546 13.7405Z" fill="#FFCE02"/>
</svg>
