<svg width="53" height="76" viewBox="0 0 53 76" fill="none" xmlns="http://www.w3.org/2000/svg">
<path d="M42.6045 58.8413C40.2658 58.8413 37.8933 58.8413 35.5546 58.8413H34.7073C34.7073 57.96 34.7073 57.1466 34.7073 56.367C34.6734 55.1129 33.9616 54.5368 32.7075 54.774C28.4708 55.5536 24.2002 55.5536 19.9635 54.774C18.6755 54.5368 17.9977 55.1129 17.9638 56.4348C17.9638 57.2144 17.9638 57.96 17.9638 58.8413H17.0486C14.71 58.8413 12.3374 58.8413 9.99876 58.8413C9.08363 58.8413 8.50744 59.1802 8.30407 59.8581C8.06682 60.6376 8.40575 61.1799 8.98195 61.6544C14.371 66.2301 19.7262 70.8396 25.1153 75.4153C26.0305 76.1948 26.6406 76.1948 27.5218 75.4153C32.9109 70.8396 38.2661 66.2301 43.6552 61.6544C44.4008 61.0104 44.6042 60.4681 44.3331 59.7903C44.028 59.0107 43.384 58.8074 42.6045 58.8074V58.8413Z" fill="url(#paint0_linear_142_54)"/>
<path d="M26.6068 0.00181379C11.9987 -0.167655 0.135864 11.5596 0.000289085 26.2694C-0.0674983 40.7759 11.7953 52.5709 26.0984 52.6726C40.6049 52.7743 52.4677 41.1487 52.6711 26.5067C52.8405 12.1358 41.0794 0.171282 26.6068 0.00181379ZM37.8934 23.0156C37.7579 23.0156 37.5884 23.0156 37.4528 23.0156H37.3172C36.8088 23.0156 36.3004 23.0156 35.8259 23.0156C34.5041 23.0156 33.1144 23.0156 31.7587 23.0156C31.657 23.0156 31.5892 23.0156 31.5553 23.0156C31.5553 23.0156 31.5553 23.0834 31.4875 23.1851C30.5724 27.0151 27.2508 29.6588 23.2175 29.6927C22.5057 29.6927 21.76 29.6927 21.0144 29.6927L24.641 33.3193C26.7085 35.3868 28.776 37.4543 30.8435 39.5219L30.9113 39.5896C31.0808 39.7591 31.3181 39.9625 31.4536 40.2336C31.9281 41.0132 31.8604 41.8605 31.2503 42.4706C30.8774 42.8773 30.4368 43.0807 29.9284 43.0807C29.42 43.0807 29.2505 42.979 28.9116 42.7756C28.6743 42.6401 28.471 42.4367 28.3015 42.2672L28.2337 42.1995L23.8614 37.8272C21.0822 35.0479 18.269 32.2347 15.4897 29.4554C15.1169 29.0826 14.3034 28.2691 14.7779 27.0829C15.2524 25.9305 16.3709 25.9305 16.9471 25.9305H17.4894C19.3875 25.9305 21.3872 25.9305 23.3191 25.9305C25.2511 25.9305 26.9458 24.6764 27.6236 22.9817H22.5396C20.5738 22.9817 18.6418 22.9817 16.676 22.9817C16.0659 22.9817 15.4897 22.7784 15.1169 22.3716C14.7779 22.0327 14.6085 21.5582 14.6085 21.0498C14.6424 19.9991 15.4558 19.2873 16.6421 19.2534C16.7777 19.2534 16.9132 19.2534 17.0149 19.2534H17.1505H27.5898C27.4203 18.8467 27.2508 18.5078 27.0136 18.2366C26.0645 16.9487 24.7427 16.2708 23.1158 16.2708C22.2684 16.2708 21.4211 16.2708 20.5738 16.2708C19.3536 16.2708 18.1673 16.2708 16.9471 16.2708C16.6082 16.2708 16.2354 16.2708 15.8625 16.1352C15.0152 15.8641 14.5068 15.1523 14.5746 14.2372C14.6424 13.322 15.2186 12.7119 16.0998 12.5764C16.3709 12.5425 16.6082 12.5425 16.8455 12.5425H16.9471C23.7598 12.5425 30.5385 12.5425 37.3511 12.5425H37.4528C37.5884 12.5425 37.7579 12.5425 37.9273 12.5425C38.9102 12.6442 39.5542 13.2881 39.622 14.2711C39.6898 15.2201 39.1475 15.9318 38.1985 16.1691C37.8256 16.2708 37.4528 16.2369 37.1139 16.2369H36.9444C35.1141 16.2369 33.3178 16.2369 31.4875 16.2369H30.1657C30.8097 17.1859 31.2164 18.1688 31.4536 19.1856C31.4536 19.1856 31.4536 19.1856 31.4875 19.1856C33.555 19.1856 35.6226 19.1856 37.724 19.1856C38.7747 19.1856 39.5881 19.9313 39.622 20.9481C39.6559 21.9649 38.8763 22.8123 37.7918 22.8801L37.8934 23.0156Z" fill="url(#paint1_linear_142_54)"/>
<defs>
<linearGradient id="paint0_linear_142_54" x1="26.3376" y1="54.7217" x2="26.3376" y2="75.9999" gradientUnits="userSpaceOnUse">
<stop stop-color="#8EF8AA"/>
<stop offset="1" stop-color="#00EFD1"/>
</linearGradient>
<linearGradient id="paint1_linear_142_54" x1="26.3364" y1="0" x2="26.3364" y2="52.6733" gradientUnits="userSpaceOnUse">
<stop stop-color="#8EF8AA"/>
<stop offset="1" stop-color="#00EFD1"/>
</linearGradient>
</defs>
</svg>
