<svg width="37" height="38" viewBox="0 0 37 38" fill="none" xmlns="http://www.w3.org/2000/svg">
<path d="M24.0062 25.6527C30.8146 25.6527 36.3325 20.1347 36.3325 13.3263C36.3325 6.51792 30.8146 1 24.0062 1C17.1978 1 11.6799 6.51792 11.6799 13.3263C11.6799 14.5723 11.9023 15.8183 12.2583 17.0198H11.4129V3.98146C11.4129 3.71446 11.3239 3.49197 11.1459 3.31397C10.9679 3.13597 10.7454 3.04697 10.4784 3.04697H6.20643C5.93943 3.04697 5.71693 3.13597 5.53894 3.31397C5.36094 3.49197 5.27194 3.71446 5.27194 3.98146V17.0198H1.93449C1.75649 17.0198 1.57849 17.0643 1.44499 17.1533C1.3115 17.2423 1.178 17.3758 1.089 17.5538C1 17.7318 1 17.9098 1 18.0878C1 18.2658 1.089 18.4438 1.2225 18.5773L7.63041 25.6972C7.71941 25.7862 7.80841 25.8752 7.9419 25.9197C8.0754 25.9642 8.2089 26.0087 8.3424 26.0087C8.4759 26.0087 8.60939 26.0087 8.74289 25.9197C8.87639 25.8752 8.96539 25.7862 9.05439 25.6972L13.9048 20.3127C14.1273 20.6242 14.3498 20.8912 14.5723 21.1582V28.0111H11.2349C11.0569 28.0111 10.8789 28.0556 10.7454 28.1446C10.6119 28.2336 10.4784 28.3671 10.3894 28.5451C10.3004 28.7231 10.3004 28.9011 10.3004 29.0791C10.3004 29.2571 10.3894 29.4351 10.5229 29.5686L16.9308 36.6885C17.0198 36.7775 17.1088 36.8665 17.2423 36.911C17.3758 36.9555 17.5093 37 17.6428 37C17.7763 37 17.9098 37 18.0433 36.911C18.1768 36.8665 18.2658 36.7775 18.3548 36.6885L24.7627 29.5686C24.8962 29.4351 24.9407 29.2571 24.9852 29.0791C24.9852 28.9011 24.9852 28.7231 24.8962 28.5451C24.8072 28.3671 24.7182 28.2336 24.5402 28.1446C24.4067 28.0556 24.2287 28.0111 24.0507 28.0111H20.7132V25.1632C21.7812 25.4747 22.8937 25.6082 24.0507 25.6082L24.0062 25.6527ZM16.3968 28.9901V23.0272C17.1533 23.6057 17.9543 24.0952 18.7998 24.4957V28.9901C18.7998 29.2571 18.8888 29.4796 19.0667 29.6576C19.2447 29.8356 19.4672 29.9246 19.7342 29.9246H21.9147L17.5983 34.7305L13.2818 29.9246H15.4623C15.7293 29.9246 15.9518 29.8356 16.1298 29.6576C16.3078 29.4796 16.3968 29.2571 16.3968 28.9901ZM15.4623 18.5773C15.5958 18.4438 15.6403 18.2658 15.6848 18.0878C15.6848 17.9098 15.6848 17.7318 15.5958 17.5538C15.5068 17.3758 15.4178 17.2423 15.2398 17.1533C15.1063 17.0643 14.9283 17.0198 14.7503 17.0198H14.2163C13.7713 15.8628 13.5488 14.6168 13.5488 13.3263C13.5488 11.2349 14.1718 9.23239 15.3288 7.49691C16.4858 5.76143 18.0878 4.42645 20.0012 3.62546C21.9147 2.82447 24.0062 2.64648 26.0532 3.04697C28.1001 3.44747 29.9246 4.42645 31.3931 5.89493C32.8616 7.36341 33.8405 9.23239 34.241 11.2349C34.6415 13.2818 34.419 15.3733 33.6625 17.2868C32.8616 19.2002 31.5266 20.8467 29.7911 21.9592C28.0556 23.1162 26.0532 23.7392 23.9617 23.7392C21.1582 23.7392 18.5328 22.6267 16.5748 20.6687C15.9963 20.0902 15.5513 19.5117 15.1063 18.8443L15.3733 18.5328L15.4623 18.5773ZM9.85538 18.5773C10.0334 18.7553 10.2559 18.8443 10.5229 18.8443H12.7033L8.3869 23.6502L4.07046 18.8443H6.25093C6.51792 18.8443 6.74042 18.7553 6.91842 18.5773C7.09642 18.3993 7.18541 18.1768 7.18541 17.9098V4.91595H9.58838V17.9543C9.58838 18.2213 9.67738 18.4438 9.85538 18.6218V18.5773Z" fill="#FFCE02" stroke="#221F20" stroke-width="0.1"/>
<path d="M20.4908 10.7447C20.3128 10.9227 20.2238 11.1452 20.2238 11.4122C20.2238 11.6792 20.3128 11.9017 20.4908 12.0797C20.6688 12.2577 20.9358 12.3467 21.1583 12.3467H23.9617C23.9617 12.3467 23.9172 12.3912 23.8727 12.4357C23.7392 12.5692 23.5612 12.7027 23.3832 12.7472C23.2052 12.8362 23.0272 12.8807 22.8047 12.8362H21.1583C20.9803 12.8362 20.8023 12.8807 20.6243 13.0142C20.4463 13.1032 20.3573 13.2812 20.2683 13.4592C20.1793 13.6372 20.1793 13.8152 20.2238 14.0377C20.2238 14.2157 20.3573 14.3937 20.4908 14.5272L24.5847 18.4431C24.7627 18.6211 24.9852 18.7101 25.2522 18.7101C25.5192 18.7101 25.7417 18.5766 25.9197 18.3986C26.0977 18.2206 26.1867 17.9536 26.1867 17.7311C26.1867 17.4641 26.0532 17.2416 25.8752 17.0636L23.4277 14.7497C24.0952 14.6162 24.6737 14.3047 25.1632 13.8152C25.5637 13.4147 25.8307 12.9252 26.0087 12.3467H26.8097C27.0767 12.3467 27.2992 12.2577 27.4772 12.0797C27.6552 11.9017 27.7442 11.6792 27.7442 11.4122C27.7442 11.1452 27.6552 10.9227 27.4772 10.7447C27.2992 10.5667 27.0322 10.4777 26.8097 10.4777H26.0087C25.9642 10.2552 25.8752 10.0772 25.7862 9.89925H26.8097C27.0767 9.89925 27.2992 9.81025 27.4772 9.63225C27.6552 9.45425 27.7442 9.23176 27.7442 8.96476C27.7442 8.69776 27.6552 8.47527 27.4772 8.29727C27.2992 8.11927 27.0767 8.03027 26.8097 8.03027H21.0693C20.8023 8.03027 20.5798 8.11927 20.4018 8.29727C20.2238 8.47527 20.1348 8.69776 20.1348 8.96476C20.1348 9.23176 20.2238 9.45425 20.4018 9.63225C20.5798 9.81025 20.8468 9.89925 21.0693 9.89925H22.7157C23.1607 9.89925 23.6057 10.1217 23.8727 10.4777H21.0693C20.8023 10.4777 20.5798 10.5667 20.4018 10.7447H20.4908Z" fill="#FFCE02" stroke="#221F20" stroke-width="0.1"/>
</svg>
