<svg width="37" height="36" viewBox="0 0 37 36" fill="none" xmlns="http://www.w3.org/2000/svg">
<path d="M15.4076 28.2473C14.6197 28.2473 13.981 28.3642 13.981 29.1522C13.981 29.9401 14.6197 30.0571 15.4076 30.0571H21.1141C21.9021 30.0571 22.5408 29.9401 22.5408 29.1522C22.5408 28.3642 21.9021 28.2473 21.1141 28.2473H19.1658V18.2609C19.1658 17.4729 18.5271 16.8342 18.2609 16.8342H15.4076C15.1304 16.8342 14.5027 17.2174 14.5027 17.7391C14.5027 18.2609 15.1304 18.644 15.4076 18.644H17.356V28.2473H15.4076ZM35.0951 2.33152H30.5788V0.904891C30.5788 0.116963 29.9401 0 29.6739 0C29.4077 0 28.769 0.116963 28.769 0.904891V2.33152H19.1658V0.904891C19.1658 0.116963 18.5271 0 18.2609 0C17.9947 0 17.356 0.116963 17.356 0.904891V2.33152H7.75272V0.904891C7.75272 0.116963 7.11401 0 6.84783 0C6.58164 0 5.94293 0.116963 5.94293 0.904891V2.33152H1.42663C0.638702 2.33152 0 2.97022 0 3.75815V34.5734C0 35.3613 0.638702 36 1.42663 36H35.0951C35.883 36 36.5217 35.3613 36.5217 34.5734V3.75815C36.5217 2.97022 35.883 2.33152 35.0951 2.33152ZM34.1902 33.6685H2.33152V13.7446H34.1902V33.6685ZM34.1902 10.8913H2.33152V5.18478H5.94293V6.61141C5.94293 6.8776 6.0599 7.5163 6.84783 7.5163C7.63575 7.5163 7.75272 6.8776 7.75272 6.61141V5.18478H17.356V6.61141C17.356 6.8776 17.4729 7.5163 18.2609 7.5163C19.0488 7.5163 19.1658 6.8776 19.1658 6.61141V5.18478H28.769V6.61141C28.769 6.8776 28.886 7.5163 29.6739 7.5163C30.4618 7.5163 30.5788 6.8776 30.5788 6.61141V5.18478H34.1902V10.8913Z" fill="#FFCE02"/>
</svg>
