<svg width="77" height="76" viewBox="0 0 77 76" fill="none" xmlns="http://www.w3.org/2000/svg">
<path d="M58.3709 5.23467C58.3709 4.39627 58.3936 3.55786 58.3709 2.71946C58.3256 1.15596 57.1246 -0.0223382 55.6064 0.000321342C54.1336 0.000321342 52.9779 1.20128 52.9326 2.71946C52.9326 3.55786 52.9326 4.39627 52.9326 5.23467H58.3482H58.3709Z" fill="url(#paint0_linear_145_20)"/>
<path d="M57.7363 55.1085C58.9826 55.1085 59.9796 54.7007 60.7274 53.8623C61.4752 53.0239 61.8377 51.9362 61.8377 50.5766C61.8377 49.2171 61.4752 48.1067 60.7274 47.291C59.9796 46.4753 58.9826 46.0674 57.7363 46.0674C56.4901 46.0674 55.4704 46.4753 54.7226 47.291C53.9749 48.1067 53.6123 49.1944 53.6123 50.5993C53.6123 52.0042 53.9749 53.0692 54.7226 53.8849C55.4704 54.7007 56.4674 55.1085 57.7363 55.1085Z" fill="url(#paint1_linear_145_20)"/>
<path d="M43.6418 49.3528C43.9817 49.0129 44.1629 48.5371 44.1629 47.9026C44.1629 47.2682 43.9817 46.8376 43.6418 46.4977C43.3019 46.1578 42.7807 45.9766 42.0783 45.9766H39.7217V49.8287H42.0783C42.7807 49.8287 43.3019 49.6701 43.6418 49.3302V49.3528Z" fill="url(#paint2_linear_145_20)"/>
<path d="M38.068 27.1016H0V27.9626C0 41.1278 0 54.3156 0 67.4808C0 72.4886 3.53488 75.9781 8.5653 75.9781C18.3995 75.9781 28.2338 75.9781 38.0453 75.9781C47.8795 75.9781 57.7138 75.9781 67.5253 75.9781C72.5784 75.9781 76.0906 72.4886 76.0906 67.4808C76.0906 54.3156 76.0906 41.1278 76.0906 27.9626V27.1016H38.0227H38.068ZM21.1413 46.1582L15.2952 54.5422C15.0686 54.8595 15.2952 55.3127 15.703 55.3127H19.9857C20.8014 55.3127 21.4586 55.9698 21.4586 56.7855V56.9441C21.4586 57.7599 20.8014 58.417 19.9857 58.417H12.5081C11.3751 58.417 10.446 57.488 10.446 56.355V55.9924C10.446 55.6979 10.5367 55.4033 10.6953 55.1767L16.5641 46.7247C16.7907 46.4075 16.5641 45.9543 16.1562 45.9543H11.8962C11.0805 45.9543 10.4234 45.2971 10.4234 44.4814V44.3228C10.4234 43.507 11.0805 42.8499 11.8962 42.8499H19.3059C20.4842 42.8499 21.4359 43.8016 21.4359 44.9799V45.2065C21.4359 45.5464 21.3226 45.8863 21.1413 46.1582ZM32.0179 45.8863H28.1884C27.9165 45.8863 27.6899 46.1129 27.6899 46.3848V48.5601C27.6899 48.832 27.9165 49.0586 28.1884 49.0586H31.4061C32.1765 49.0586 32.7883 49.6704 32.7883 50.4409V50.5995C32.7883 51.3699 32.1765 51.9817 31.4061 51.9817H28.1884C27.9165 51.9817 27.6899 52.2083 27.6899 52.4802V54.9274C27.6899 55.1994 27.9165 55.426 28.1884 55.426H32.0179C32.811 55.426 33.4454 56.0604 33.4454 56.8535V57.0121C33.4454 57.8052 32.811 58.4397 32.0179 58.4397H25.8092C24.7668 58.4397 23.9284 57.6013 23.9284 56.5589V44.7533C23.9284 43.711 24.7668 42.8726 25.8092 42.8726H32.0179C32.811 42.8726 33.4454 43.507 33.4454 44.3001V44.4587C33.4454 45.2518 32.811 45.8863 32.0179 45.8863ZM50.8026 46.4754C51.5277 45.2745 52.4794 44.3228 53.703 43.643C54.9267 42.9632 56.2636 42.6233 57.7364 42.6233C59.2093 42.6233 60.5462 42.9632 61.7698 43.643C62.9934 44.3228 63.9451 45.2745 64.6476 46.4754C65.35 47.6764 65.6899 49.0586 65.6899 50.5768C65.6899 52.095 65.3274 53.4772 64.6249 54.7008C63.9225 55.9245 62.9481 56.8762 61.7472 57.5559C60.5462 58.2357 59.1866 58.5756 57.7364 58.5756C56.2862 58.5756 54.9267 58.2357 53.703 57.5559C52.4794 56.8762 51.5051 55.9245 50.8026 54.7008C50.0775 53.4772 49.7376 52.1177 49.7376 50.5768C49.7376 49.036 50.1002 47.6764 50.8026 46.4754ZM45.4097 43.4844C46.2707 43.9149 46.9278 44.5041 47.3584 45.2518C47.7889 45.9996 47.9928 46.838 47.9928 47.7444C47.9928 48.6508 47.6983 49.6931 47.1091 50.5088C46.6333 51.1886 45.9535 51.7098 45.0698 52.0497C44.186 52.3896 44.6619 52.4802 44.8205 52.7521L46.588 55.7658C47.2677 56.9441 46.4293 58.3943 45.0698 58.3943H44.8658C44.2314 58.3943 43.6422 58.0545 43.325 57.488L40.7191 52.7748C40.6285 52.6162 40.4699 52.5255 40.2886 52.5255H40.1527C39.8807 52.5255 39.6541 52.7521 39.6541 53.024V56.6042C39.6541 57.6013 38.8384 58.417 37.8414 58.417H37.6828C36.6857 58.417 35.87 57.6013 35.87 56.6042V44.4814C35.87 43.575 36.5951 42.8499 37.5015 42.8499H42.2373C43.4609 42.8499 44.5033 43.0539 45.3643 43.4844H45.4097Z" fill="url(#paint3_linear_145_20)"/>
<path d="M76.1586 20.6663C76.1586 18.0378 76.1586 15.4093 76.1133 12.7808C76.1133 12.1463 75.9094 11.4892 75.7054 10.8774C74.5725 7.43313 71.5134 5.32579 67.6386 5.30313C64.5796 5.28047 61.5432 5.28047 58.4842 5.25781C58.4842 7.841 58.4842 10.4468 58.4842 13.03C58.4842 14.8201 57.3512 16.0664 55.7651 16.0664C54.1789 16.0664 53.0459 14.7975 53.0459 13.03C53.0459 10.4468 53.0459 7.841 53.0459 5.25781C52.6834 5.25781 52.3208 5.28047 51.9583 5.28047C42.7132 5.28047 33.4681 5.28047 24.223 5.28047C23.8605 5.28047 23.4979 5.28047 23.1354 5.25781C23.1354 7.841 23.1354 10.4468 23.1354 13.03C23.1354 14.8201 22.0024 16.0664 20.4162 16.0664C18.8301 16.0664 17.6971 14.7975 17.6971 13.03C17.6971 10.4468 17.6971 7.841 17.6971 5.25781C14.638 5.25781 11.6017 5.25781 8.54264 5.30313C3.46691 5.34845 0 8.83802 0 13.8911C0 15.9078 0 17.9018 0 19.9185V21.5953H76.1586C76.1586 21.2554 76.1586 20.9609 76.1586 20.6889V20.6663Z" fill="url(#paint4_linear_145_20)"/>
<path d="M22.9998 5.23435C22.9998 5.23435 22.9998 5.23435 22.9998 5.25701C22.9998 5.25701 22.9998 5.25701 22.9998 5.23435H23.0904C23.0904 4.39595 23.1131 3.55754 23.0904 2.71914C23.0678 1.15563 21.8668 0 20.3486 0C18.8758 0 17.7201 1.20095 17.6748 2.71914C17.6748 3.55754 17.6748 4.39595 17.6748 5.23435H22.9771H22.9998Z" fill="url(#paint5_linear_145_20)"/>
<defs>
<linearGradient id="paint0_linear_145_20" x1="55.6568" y1="0" x2="55.6568" y2="5.23467" gradientUnits="userSpaceOnUse">
<stop stop-color="#8EF8AA"/>
<stop offset="1" stop-color="#00EFD1"/>
</linearGradient>
<linearGradient id="paint1_linear_145_20" x1="57.725" y1="46.0674" x2="57.725" y2="55.1085" gradientUnits="userSpaceOnUse">
<stop stop-color="#8EF8AA"/>
<stop offset="1" stop-color="#00EFD1"/>
</linearGradient>
<linearGradient id="paint2_linear_145_20" x1="41.9423" y1="45.9766" x2="41.9423" y2="49.8287" gradientUnits="userSpaceOnUse">
<stop stop-color="#8EF8AA"/>
<stop offset="1" stop-color="#00EFD1"/>
</linearGradient>
<linearGradient id="paint3_linear_145_20" x1="38.0453" y1="27.1016" x2="38.0453" y2="75.9781" gradientUnits="userSpaceOnUse">
<stop stop-color="#8EF8AA"/>
<stop offset="1" stop-color="#00EFD1"/>
</linearGradient>
<linearGradient id="paint4_linear_145_20" x1="38.0793" y1="5.25781" x2="38.0793" y2="21.5953" gradientUnits="userSpaceOnUse">
<stop stop-color="#8EF8AA"/>
<stop offset="1" stop-color="#00EFD1"/>
</linearGradient>
<linearGradient id="paint5_linear_145_20" x1="20.3877" y1="0" x2="20.3877" y2="5.25701" gradientUnits="userSpaceOnUse">
<stop stop-color="#8EF8AA"/>
<stop offset="1" stop-color="#00EFD1"/>
</linearGradient>
</defs>
</svg>
