<svg width="72" height="63" viewBox="0 0 72 63" fill="none" xmlns="http://www.w3.org/2000/svg">
<path d="M67.925 31.2499H66.7333V6.22494C66.7295 2.93594 64.064 0.270474 60.775 0.266602H10.725C7.436 0.270474 4.77054 2.93594 4.76667 6.22494V24.0999H3.575C1.60056 24.0999 0 25.7005 0 27.6749V58.6583C0 60.6327 1.60056 62.2333 3.575 62.2333H48.8583C49.5164 62.2333 50.05 61.6997 50.05 61.0416C50.0461 57.7526 47.3807 55.0871 44.0917 55.0833H40.5167V47.9333H54.8167V58.6583C54.8167 60.6327 56.4172 62.2333 58.3917 62.2333H67.925C69.8994 62.2333 71.5 60.6327 71.5 58.6583V34.8249C71.5 32.8505 69.8994 31.2499 67.925 31.2499ZM26.2167 58.6583C26.2167 59.3164 25.6831 59.8499 25.025 59.8499H3.575C2.9169 59.8499 2.38333 59.3164 2.38333 58.6583V57.4666H26.2167V58.6583ZM26.2167 55.0833H2.38333V27.6749C2.38333 27.0168 2.9169 26.4833 3.575 26.4833H25.025C25.6831 26.4833 26.2167 27.0168 26.2167 27.6749V55.0833ZM44.0917 57.4666C45.6063 57.4684 46.956 58.4226 47.4629 59.8499H28.3807C28.5218 59.4683 28.596 59.0652 28.6 58.6583V57.4666H44.0917ZM28.6 55.0833V47.9333H30.9833V55.0833H28.6ZM33.3667 55.0833V47.9333H38.1333V55.0833H33.3667ZM54.8167 45.5499H28.6V38.3999H54.8167V45.5499ZM54.8167 34.8249V36.0166H28.6V27.6749C28.6 26.1854 27.9429 25.515 27.5573 25.1426C27.1717 24.7702 26.5891 24.2489 25.025 24.0999H7.15V6.22494C7.15 4.25049 8.75056 2.64994 10.725 2.64994H60.775C62.7494 2.64994 64.35 4.25049 64.35 6.22494V31.2499H58.3917C56.4172 31.2499 54.8167 32.8505 54.8167 34.8249ZM69.1167 58.6583C69.1167 59.3164 68.5831 59.8499 67.925 59.8499H58.3917C57.7336 59.8499 57.2 59.3164 57.2 58.6583V57.4666H69.1167V58.6583ZM69.1167 55.0833H57.2V34.8249C57.2 34.1668 57.7336 33.6333 58.3917 33.6333H67.925C68.5831 33.6333 69.1167 34.1668 69.1167 34.8249V55.0833Z" fill="url(#paint0_linear_240_1128)"/>
<defs>
<linearGradient id="paint0_linear_240_1128" x1="35.7498" y1="-1.12077" x2="35.7498" y2="62.4494" gradientUnits="userSpaceOnUse">
<stop stop-color="#00EFD1"/>
<stop offset="1" stop-color="#00ACEA"/>
</linearGradient>
</defs>
</svg>
