<svg width="103" height="68" viewBox="0 0 103 68" fill="none" xmlns="http://www.w3.org/2000/svg">
<g clip-path="url(#clip0_240_1162)">
<path d="M70.6123 13.6965L61.4284 4.51344C58.5451 1.61347 54.6219 -0.0116407 50.5332 6.2778e-05H29.0088C27.6805 0.00173471 26.3705 0.311878 25.1809 0.903741L21.3439 2.82312C20.5748 3.21017 19.7204 3.39492 18.8602 3.36064L17.1206 3.29962V6.2778e-05H0V37.6653H17.1206V32.5291H20.0314L21.0671 33.2138C23.9654 35.1382 27.3402 36.2249 30.817 36.352V58.21H102.723V13.6965H70.6123ZM13.6964 34.2412H3.42411V3.42417H13.6964V34.2412ZM22.9623 30.3648L21.058 29.105H17.1206V6.7254L18.7348 6.78308C20.1685 6.83408 21.5913 6.5256 22.8745 5.88609L26.7082 3.96672C27.4222 3.60976 28.2105 3.42417 29.0088 3.42417H50.5332C53.7132 3.41498 56.7654 4.67896 59.0074 6.93356L65.7704 13.6965H51.6426L47.487 9.54177L45.0669 11.9619L57.1608 24.0566C58.5042 25.3942 58.5083 27.5677 57.1708 28.9119C55.8324 30.2553 53.6589 30.2595 52.3155 28.9219L42.2145 18.821L41.0158 19.8484C37.7062 22.6589 32.8685 22.7308 29.4761 20.0189L28.4838 19.2147L26.3262 21.8748L27.3294 22.6881C28.3785 23.5266 29.5564 24.1904 30.817 24.6535V32.9262C28.0149 32.8017 25.2988 31.9164 22.9623 30.3648ZM47.3164 28.7623L49.8996 31.3462C52.5813 33.9879 56.8866 33.9921 59.5725 31.3546C57.0596 35.246 58.0511 40.4248 61.8238 43.1124C65.5965 45.8001 70.8154 45.0452 73.6719 41.3995C76.5284 37.7531 76.0126 32.5049 72.4999 29.4854C68.988 26.4659 63.7214 26.7426 60.5456 30.1132C61.7151 28.2766 61.9241 25.9877 61.1065 23.9688H84.0328C84.7693 28.2766 88.1433 31.6505 92.451 32.387V39.5195C88.1433 40.2559 84.7693 43.6299 84.0328 47.9376H49.5075C48.771 43.6299 45.3971 40.2559 41.0893 39.5195V32.387C43.5362 31.9749 45.749 30.6867 47.3164 28.7623ZM61.634 35.9532C61.634 33.1168 63.9337 30.8171 66.7702 30.8171C69.6066 30.8171 71.9063 33.1168 71.9063 35.9532C71.9063 38.7897 69.6066 41.0894 66.7702 41.0894C63.9337 41.0894 61.634 38.7897 61.634 35.9532ZM99.2992 54.7859H34.2411V25.3708C36.9555 25.5747 39.6615 24.8826 41.9454 23.4021L44.8662 26.3229C43.5813 28.0684 41.5449 29.1008 39.3773 29.105H37.6652V42.8015H39.3773C43.1592 42.8015 46.2255 45.8678 46.2255 49.6497V51.3617H87.3148V49.6497C87.3148 45.8678 90.3812 42.8015 94.1631 42.8015H95.8751V29.105H94.1631C90.3812 29.105 87.3148 26.0387 87.3148 22.2568V20.5447H58.4908L55.0667 17.1206H99.2992V54.7859Z" fill="url(#paint0_linear_240_1162)"/>
</g>
<defs>
<linearGradient id="paint0_linear_240_1162" x1="54.3373" y1="109.002" x2="50.4937" y2="1.38346" gradientUnits="userSpaceOnUse">
<stop stop-color="#006DF0"/>
<stop offset="1" stop-color="#00E7F0"/>
</linearGradient>
<clipPath id="clip0_240_1162">
<rect width="102.723" height="68" fill="white"/>
</clipPath>
</defs>
</svg>
