<svg width="47" height="62" viewBox="0 0 47 62" fill="none" xmlns="http://www.w3.org/2000/svg">
<path d="M43.0904 0.489014H10.8904C10.8685 0.489014 10.8478 0.500244 10.8259 0.501929C10.7203 0.506982 10.6164 0.52832 10.5165 0.563696C10.4828 0.573804 10.4491 0.585596 10.4165 0.599634C10.2885 0.654663 10.1717 0.732715 10.0717 0.829297L5.81427 5.08901L3.51427 7.38901L0.53595 10.839V59.139L41.9404 61.439H44.2404C45.5106 61.439 46.5404 60.4092 46.5404 59.139V3.93901C46.5404 2.03376 44.9957 0.489014 43.0904 0.489014ZM7.10353 7.0521L9.74044 4.41519V9.68901H4.46661L7.10353 7.0521ZM39.6404 61.439L0.53595 59.139V10.839L2.92599 8.46882L3.51427 7.38901L0.877355 10.0259C0.780773 10.1236 0.703284 10.2376 0.647131 10.3628C0.631409 10.3988 0.621862 10.4342 0.609508 10.4712C0.576378 10.5661 0.556725 10.6661 0.550548 10.7666C0.550548 10.7918 0.53595 10.8137 0.53595 10.839V59.139C0.53595 60.4092 1.56578 61.439 2.83595 61.439H39.6404ZM2.84044 59.139V11.989H9.74044C11.0106 11.989 12.0404 10.9592 12.0404 9.68901V2.78901H43.0904C43.7255 2.78901 44.2404 3.30393 44.2404 3.93901V59.139H2.84044ZM6.29044 43.8296H13.1904V46.1296H6.29044V43.8296ZM29.2904 9.68901H17.7904V7.38901H29.2904V9.68901ZM40.7904 16.589H6.29044C5.65536 16.589 5.14044 17.1039 5.14044 17.739V38.3671C5.14044 39.0022 5.65536 39.5171 6.29044 39.5171C6.92553 39.5171 30.4404 39.5171 30.4404 39.5171V42.9671C30.4404 43.6022 30.9554 44.1171 31.5904 44.1171H40.7904C41.4255 44.1171 41.9404 43.6022 41.9404 42.9671V17.739C41.9404 17.1039 41.4255 16.589 40.7904 16.589ZM30.4404 25.789V28.089H7.44044V25.789H30.4404ZM39.6404 28.089H32.7404V25.789H39.6404V28.089ZM39.6404 32.689H32.7404V30.389H39.6404V32.689ZM39.6404 37.289H32.7404V34.989H39.6404V37.289ZM7.44044 30.389H30.4404V32.689H7.44044V30.389ZM7.44044 34.989H30.4404V37.289H7.44044V34.989ZM7.44044 18.889H39.6404V23.489H7.44044V18.889ZM32.7404 39.5171H39.6404V41.8171H32.7404V39.5171Z" fill="url(#paint0_linear_240_1138)"/>
<defs>
<linearGradient id="paint0_linear_240_1138" x1="23.5381" y1="-0.875598" x2="23.5381" y2="61.6516" gradientUnits="userSpaceOnUse">
<stop stop-color="#00EFD1"/>
<stop offset="1" stop-color="#00ACEA"/>
</linearGradient>
</defs>
</svg>
