<svg width="67" height="67" viewBox="0 0 67 67" fill="none" xmlns="http://www.w3.org/2000/svg">
<path d="M54.5781 0.21875C52.7798 0.218688 51.0038 0.616516 49.3773 1.38371C47.7509 2.15091 46.3143 3.26846 45.1706 4.65625H5.76563C4.2945 4.65625 2.88363 5.24065 1.84339 6.28089C0.803151 7.32113 0.21875 8.732 0.21875 10.2031V39.0469C0.21875 40.518 0.803151 41.9289 1.84339 42.9691C2.88363 44.0093 4.2945 44.5938 5.76563 44.5938H8.49469L5.65469 50.9948C5.30705 51.7803 5.14521 52.6353 5.18177 53.4934C5.21833 54.3515 5.45229 55.1897 5.86547 55.9427L9.78156 62.9872C10.0591 63.4818 10.2043 64.0397 10.2031 64.6069V65.6719C10.2031 65.9661 10.32 66.2483 10.5281 66.4563C10.7361 66.6644 11.0183 66.7812 11.3125 66.7812C11.6067 66.7812 11.8889 66.6644 12.0969 66.4563C12.305 66.2483 12.4219 65.9661 12.4219 65.6719V64.6069C12.4206 63.6636 12.1801 62.7361 11.723 61.9111L7.80688 54.8666C7.55898 54.4141 7.41808 53.9109 7.395 53.3955C7.37192 52.8801 7.46728 52.3662 7.67375 51.8934L10.9242 44.5938H19.0781V52.3594C19.0781 52.6536 19.195 52.9358 19.4031 53.1438C19.6111 53.3519 19.8933 53.4688 20.1875 53.4688C20.4817 53.4688 20.7639 53.3519 20.972 53.1438C21.18 52.9358 21.2969 52.6536 21.2969 52.3594V39.0469C21.2969 38.1642 21.6475 37.3177 22.2717 36.6935C22.8958 36.0694 23.7423 35.7188 24.625 35.7188C25.5077 35.7188 26.3542 36.0694 26.9783 36.6935C27.6025 37.3177 27.9531 38.1642 27.9531 39.0469V65.6719C27.9531 65.9661 28.07 66.2483 28.2781 66.4563C28.4861 66.6644 28.7683 66.7812 29.0625 66.7812C29.3567 66.7812 29.6389 66.6644 29.847 66.4563C30.055 66.2483 30.1719 65.9661 30.1719 65.6719V51.7603C31.3891 52.8586 32.9699 53.4673 34.6094 53.4688H37.9375C38.2317 53.4688 38.5139 53.3519 38.722 53.1438C38.93 52.9358 39.0469 52.6536 39.0469 52.3594V44.5938H56.7969C58.268 44.5938 59.6789 44.0093 60.7191 42.9691C61.7594 41.9289 62.3438 40.518 62.3438 39.0469V21.8294C64.28 20.2296 65.6754 18.0714 66.3397 15.6491C67.0039 13.2269 66.9046 10.6588 66.0552 8.29512C65.2058 5.93146 63.6478 3.88746 61.5938 2.44204C59.5398 0.996625 57.0898 0.22021 54.5781 0.21875ZM36.8281 51.25H34.6094C33.4325 51.25 32.3038 50.7825 31.4716 49.9503C30.6394 49.1181 30.1719 47.9894 30.1719 46.8125V44.5938H36.8281V51.25ZM60.125 39.0469C60.1224 39.9287 59.7709 40.7737 59.1473 41.3973C58.5237 42.0209 57.6787 42.3724 56.7969 42.375H30.1719V39.0469C30.1719 37.5758 29.5875 36.1649 28.5472 35.1246C27.507 34.0844 26.0961 33.5 24.625 33.5C23.1539 33.5 21.743 34.0844 20.7028 35.1246C19.6625 36.1649 19.0781 37.5758 19.0781 39.0469V42.375H5.76563C4.88376 42.3724 4.03877 42.0209 3.4152 41.3973C2.79162 40.7737 2.44013 39.9287 2.4375 39.0469V10.2031C2.44013 9.32126 2.79162 8.47627 3.4152 7.85269C4.03877 7.22912 4.88376 6.87763 5.76563 6.875H43.7173C42.5403 9.17024 42.1217 11.7797 42.5219 14.3279C42.9221 16.8762 44.1204 19.2317 45.9443 21.0557C47.7683 22.8796 50.1238 24.0779 52.6721 24.4781C55.2203 24.8783 57.8298 24.4597 60.125 23.2827V39.0469ZM54.5781 22.4062C52.6034 22.4062 50.673 21.8207 49.0311 20.7236C47.3892 19.6265 46.1095 18.0671 45.3538 16.2427C44.5981 14.4183 44.4004 12.4108 44.7856 10.474C45.1708 8.53724 46.1218 6.7582 47.5181 5.36186C48.9145 3.96552 50.6935 3.0146 52.6303 2.62935C54.5671 2.2441 56.5746 2.44182 58.399 3.19752C60.2234 3.95321 61.7827 5.23293 62.8798 6.87485C63.9769 8.51678 64.5625 10.4472 64.5625 12.4219C64.5584 15.0686 63.5052 17.6058 61.6336 19.4774C59.7621 21.3489 57.2249 22.4021 54.5781 22.4062Z" fill="url(#paint0_linear_240_1146)"/>
<path d="M51.5751 17.6437C51.7831 17.8517 52.0652 17.9685 52.3594 17.9685C52.6536 17.9685 52.9357 17.8517 53.1437 17.6437L60.9881 9.7993C61.0941 9.69697 61.1786 9.57455 61.2367 9.4392C61.2949 9.30386 61.3255 9.15828 61.3268 9.01098C61.3281 8.86368 61.3 8.7176 61.2442 8.58126C61.1884 8.44492 61.106 8.32106 61.0019 8.2169C60.8977 8.11273 60.7739 8.03036 60.6375 7.97458C60.5012 7.9188 60.3551 7.89073 60.2078 7.89201C60.0605 7.89329 59.9149 7.92389 59.7796 7.98203C59.6442 8.04018 59.5218 8.12469 59.4195 8.23065L52.3594 15.2907L49.8156 12.7469C49.6064 12.5448 49.3262 12.433 49.0353 12.4355C48.7444 12.4381 48.4662 12.5547 48.2605 12.7604C48.0548 12.9661 47.9381 13.2444 47.9356 13.5352C47.9331 13.8261 48.0449 14.1063 48.247 14.3156L51.5751 17.6437Z" fill="url(#paint1_linear_240_1146)"/>
<path d="M19.0781 11.3125H10.2031C9.32045 11.3125 8.47393 11.6631 7.84978 12.2873C7.22564 12.9114 6.875 13.758 6.875 14.6406V19.0781C6.875 19.9608 7.22564 20.8073 7.84978 21.4315C8.47393 22.0556 9.32045 22.4062 10.2031 22.4062H19.0781C19.9608 22.4062 20.8073 22.0556 21.4315 21.4315C22.0556 20.8073 22.4062 19.9608 22.4062 19.0781V14.6406C22.4062 13.758 22.0556 12.9114 21.4315 12.2873C20.8073 11.6631 19.9608 11.3125 19.0781 11.3125ZM20.1875 14.6406V15.75H15.75V13.5312H19.0781C19.3723 13.5312 19.6545 13.6481 19.8626 13.8562C20.0706 14.0642 20.1875 14.3464 20.1875 14.6406ZM9.09375 19.0781V14.6406C9.09375 14.3464 9.21063 14.0642 9.41868 13.8562C9.62673 13.6481 9.9089 13.5312 10.2031 13.5312H13.5368V20.1875H10.2031C9.9089 20.1875 9.62673 20.0706 9.41868 19.8626C9.21063 19.6545 9.09375 19.3723 9.09375 19.0781ZM19.0781 20.1875H15.75V17.9688H20.1875V19.0781C20.1875 19.3723 20.0706 19.6545 19.8626 19.8626C19.6545 20.0706 19.3723 20.1875 19.0781 20.1875Z" fill="url(#paint2_linear_240_1146)"/>
<path d="M54.5781 31.2812H47.9219C47.6277 31.2812 47.3455 31.3981 47.1374 31.6062C46.9294 31.8142 46.8125 32.0964 46.8125 32.3906V36.8281C46.8125 37.1223 46.9294 37.4045 47.1374 37.6126C47.3455 37.8206 47.6277 37.9375 47.9219 37.9375H54.5781C54.8723 37.9375 55.1545 37.8206 55.3626 37.6126C55.5706 37.4045 55.6875 37.1223 55.6875 36.8281V32.3906C55.6875 32.0964 55.5706 31.8142 55.3626 31.6062C55.1545 31.3981 54.8723 31.2812 54.5781 31.2812ZM53.4688 35.7188H49.0312V33.5H53.4688V35.7188Z" fill="url(#paint3_linear_240_1146)"/>
<defs>
<linearGradient id="paint0_linear_240_1146" x1="33.4963" y1="-1.27152" x2="33.4963" y2="67.0134" gradientUnits="userSpaceOnUse">
<stop stop-color="#00EFD1"/>
<stop offset="1" stop-color="#00ACEA"/>
</linearGradient>
<linearGradient id="paint1_linear_240_1146" x1="54.6312" y1="7.66636" x2="54.6312" y2="18.0036" gradientUnits="userSpaceOnUse">
<stop stop-color="#00EFD1"/>
<stop offset="1" stop-color="#00ACEA"/>
</linearGradient>
<linearGradient id="paint2_linear_240_1146" x1="14.6406" y1="11.0641" x2="14.6406" y2="22.4449" gradientUnits="userSpaceOnUse">
<stop stop-color="#00EFD1"/>
<stop offset="1" stop-color="#00ACEA"/>
</linearGradient>
<linearGradient id="paint3_linear_240_1146" x1="51.25" y1="31.1322" x2="51.25" y2="37.9607" gradientUnits="userSpaceOnUse">
<stop stop-color="#00EFD1"/>
<stop offset="1" stop-color="#00ACEA"/>
</linearGradient>
</defs>
</svg>
