<svg width="59" height="62" viewBox="0 0 59 62" fill="none" xmlns="http://www.w3.org/2000/svg">
<path d="M51.3989 9.70939C45.9349 4.24543 38.4361 0.854004 30.1083 0.854004C13.4526 0.854004 3.19907e-08 14.3443 7.14876e-08 31C1.10984e-07 47.6556 13.4526 61.146 30.1083 61.146C44.1639 61.146 55.1241 52.5328 59 38.3212L53.4015 38.3212C49.9562 51.6715 38.3285 56.4087 30.1083 56.4087C21.8881 56.4087 4.73723 49.5182 4.73723 31C4.73723 16.1801 18.5182 5.16057 30.1083 5.16057C36.3636 5.16057 43.3026 8.80501 47.3723 12.9124L38.3285 20.6642L56.4161 22.3868L59 3.8686L51.3989 9.70939Z" fill="url(#paint0_linear_240_1134)"/>
<defs>
<linearGradient id="paint0_linear_240_1134" x1="29.4999" y1="-0.495875" x2="29.4999" y2="61.3563" gradientUnits="userSpaceOnUse">
<stop stop-color="#00EFD1"/>
<stop offset="1" stop-color="#00ACEA"/>
</linearGradient>
</defs>
</svg>
