<svg width="80" height="80" viewBox="0 0 80 80" fill="none" xmlns="http://www.w3.org/2000/svg">
<path d="M60.1054 64.0255C58.9964 62.9166 58.0205 61.9407 57.0225 60.9426C48.7718 67.6629 39.3457 70.4353 28.7441 68.661C19.7394 67.1306 12.4647 62.5839 6.94206 55.3092C-3.79262 41.1589 -1.86304 21.1533 11.3335 9.02138C24.397 -2.97751 44.4469 -3.02187 57.8209 8.97702C71.1505 20.9537 73.5459 42.0682 61.0147 56.9282C62.0128 57.9263 62.9886 58.9022 64.0976 59.9889C64.5412 59.501 65.0956 58.8356 65.7167 58.259C66.87 57.15 68.3782 57.1057 69.5093 58.2146C72.326 60.987 75.1871 63.7372 77.8708 66.6427C82.0848 71.1894 79.7117 78.4419 73.6346 79.7949C71.0396 80.3715 68.6887 79.7283 66.7813 77.954C63.8314 75.2038 61.0147 72.2983 58.1758 69.4151C57.1333 68.3726 57.1999 66.8201 58.2201 65.7555C58.819 65.1123 59.5065 64.5578 60.1054 64.0255ZM34.6216 63.8703C50.768 63.8703 63.8093 50.8512 63.898 34.6604C63.9867 18.514 50.8567 5.33965 34.6659 5.31747C18.4974 5.29529 5.36734 18.4031 5.34516 34.5717C5.34516 50.7403 18.4308 63.8703 34.6216 63.8703ZM67.735 64.0921C66.5373 65.2897 65.2953 66.5318 64.0532 67.7738C66.0493 69.7699 68.0898 71.8548 70.1747 73.8952C71.2836 74.982 72.6809 74.9155 73.7899 73.8509C74.8766 72.8085 75.0319 71.3446 74.0338 70.3022C71.949 68.1508 69.7754 66.066 67.735 64.0699V64.0921Z" fill="#221F20"/>
<path d="M47.6851 30.5349C46.5983 31.6439 45.5337 32.7528 44.4247 33.8396C41.8741 36.4124 39.3014 38.963 36.7286 41.5136C35.3313 42.9108 33.8453 42.9108 32.448 41.5136C31.4056 40.4711 30.3854 39.4287 29.3208 38.342C29.0546 38.5859 28.855 38.7855 28.6332 38.9851C25.9496 41.6688 23.2659 44.3525 20.5822 47.014C19.5841 48.012 18.5861 48.2338 17.4993 47.7237C15.6806 46.8809 15.3036 44.7739 16.7452 43.3322C19.1849 40.8704 21.6246 38.4307 24.0865 35.991C25.1511 34.9264 26.1935 33.8618 27.2581 32.8194C28.5223 31.5995 30.0527 31.5995 31.2947 32.8194C32.3593 33.8618 33.4017 34.9264 34.4663 35.9688C34.4663 35.9688 34.5107 35.991 34.4441 35.9688C37.5936 32.8194 40.6986 29.7143 43.8037 26.6092C43.7372 26.6092 43.5376 26.5649 43.338 26.5649C42.1846 26.5649 41.0092 26.5649 39.8558 26.5649C38.3477 26.5205 37.2387 25.4559 37.1944 24.0586C37.1278 22.5948 38.1924 21.3084 39.7006 21.2862C43.3823 21.2197 47.064 21.2197 50.7458 21.2862C52.2761 21.3084 53.2298 22.5283 53.252 24.2361C53.252 27.2746 53.252 30.3131 53.252 33.3738C53.252 33.7509 53.252 34.1501 53.252 34.5271C53.1855 36.1684 52.0543 37.3217 50.5683 37.3217C49.0823 37.3217 47.9734 36.124 47.929 34.4828C47.9069 33.1964 47.929 31.91 47.929 30.6014C47.8625 30.5793 47.7738 30.5571 47.7072 30.5127L47.6851 30.5349Z" fill="#221F20"/>
</svg>
