<svg width="94" height="80" viewBox="0 0 94 80" fill="none" xmlns="http://www.w3.org/2000/svg">
<path d="M92.7663 35.0814C92.0722 33.941 90.8574 33.47 89.5683 33.817C88.8741 34.0154 88.2792 34.4864 87.9073 34.8335C87.0148 35.7011 86.1471 36.5688 85.3043 37.4117C85.3043 37.2134 85.2547 36.9903 85.2547 36.7919C85.0811 34.883 84.9076 32.875 84.5109 30.9661C82.85 22.7603 78.6851 15.447 72.4874 9.8691C66.2897 4.24158 58.6293 0.894824 50.3244 0.17589C36.2928 -1.03886 24.6907 4.04326 15.8404 15.2735C13.9315 17.6782 12.3448 20.4796 10.9566 23.7768C10.5599 24.7188 10.5351 25.6609 10.8574 26.4542C11.1549 27.1483 11.7003 27.6937 12.4192 27.9912C14.0306 28.6358 15.642 27.892 16.4353 26.1071C16.4849 25.9831 16.5345 25.884 16.5841 25.76C16.6089 25.6857 16.6585 25.5865 16.6832 25.5121C23.0297 10.8607 39.4412 2.90288 54.8611 6.96858C67.8019 10.3897 77.3216 21.1241 79.0817 34.3376C79.2057 35.3293 79.2801 36.3457 79.3297 37.3621C78.5116 36.544 77.6687 35.7011 76.8258 34.883C76.4539 34.5112 75.8589 34.0402 75.1152 33.817C73.8509 33.4452 72.5122 34.0154 71.818 35.2053C71.1239 36.4201 71.3718 37.8332 72.4626 38.924C74.6938 41.1799 77.1481 43.6342 79.9494 46.4356C80.7179 47.2041 81.5113 47.6007 82.3294 47.6007C83.1474 47.6007 83.9408 47.2041 84.7341 46.4356C86.1967 44.9977 87.6594 43.5103 89.0972 42.0724L89.9897 41.1799C90.2128 40.9568 90.436 40.7337 90.6343 40.5354C91.2541 39.9156 91.8986 39.2958 92.4936 38.6265C93.3861 37.61 93.4852 36.2961 92.7663 35.131V35.0814Z" fill="#221F20"/>
<path d="M80.8667 52.0383C79.3792 51.3937 77.7183 52.0383 76.9497 53.5753C76.8506 53.7984 76.7514 53.9968 76.6523 54.2199L76.5779 54.3934C69.8348 70.0364 52.1093 77.9199 36.1936 72.342C24.1949 68.1275 16.832 59.5251 14.3281 46.7578C14.0802 45.4191 13.9811 44.0804 13.9067 42.6426C14.0554 42.7913 14.2042 42.9401 14.3529 43.0888C15.0718 43.8077 15.7908 44.5267 16.5097 45.2208C17.2286 45.915 18.0963 46.3116 18.9392 46.2868C19.6829 46.2868 20.4019 45.9645 20.9473 45.3944C22.1124 44.1796 22.0381 42.3451 20.7242 41.0312C17.8484 38.1306 15.4437 35.7259 13.163 33.47C11.7251 32.0569 10.0393 32.0817 8.60144 33.47C5.67613 36.3705 3.27142 38.7752 1.04024 41.056C0.594006 41.5022 0.246934 42.0972 0.0981895 42.6674C-0.248882 43.9317 0.346098 45.2704 1.53606 45.915C2.70123 46.5595 4.1143 46.3612 5.10594 45.3696C6.07278 44.4275 6.99004 43.4855 7.95688 42.469C8.03125 43.9069 8.13042 45.2456 8.30395 46.6091C9.41954 55.1371 13.51 63.1694 19.8317 69.2431C26.1781 75.3417 34.3839 79.0851 42.9615 79.7792C44.2754 79.8784 45.5646 79.9528 46.8537 79.9528C59.6458 79.9528 70.1323 74.4988 78.0653 63.69C79.404 61.8555 80.4453 59.773 81.4121 57.7898C81.7096 57.1948 82.0071 56.5998 82.3046 56.0296C82.6764 55.2859 82.7508 54.4678 82.4781 53.7241C82.2054 52.9556 81.6104 52.3358 80.8667 52.0135V52.0383Z" fill="#221F20"/>
<path d="M44.0213 40.0693C44.0213 40.1906 44.0213 40.3118 44.0213 40.4331C44.0213 41.565 44.5964 42.4139 45.5976 42.7979C45.9384 42.9394 46.2793 43 46.5988 43C47.2804 43 47.9195 42.717 48.4946 42.1915L49.9644 40.7969C54.949 36.0674 59.9335 31.3378 64.9394 26.5881C65.1524 26.3859 65.4293 26.1232 65.621 25.82C66.2388 24.8903 66.0897 23.6574 65.2589 22.8691C64.4068 22.0404 63.0435 21.9192 62.0424 22.5659C61.7228 22.768 61.4459 23.0308 61.2116 23.2531L61.1477 23.3138C57.143 27.1136 53.1383 30.9134 49.1337 34.7132V32.975C49.1337 30.3272 49.1337 27.6593 49.1337 25.0115V24.9509C49.1337 24.6679 49.1337 24.3648 49.0698 24.0414C48.8567 22.8287 47.8556 22.0202 46.5988 22C45.2781 22 44.2556 22.8085 44.0426 24.0616C44 24.3648 44 24.668 44 24.9307V25.0115C44 29.5996 44 34.2079 44 38.796V40.0491L44.0213 40.0693Z" fill="#221F20"/>
<path d="M46.5 18.9791C46.5 18.9791 46.5208 18.9791 46.5417 18.9791C47.8958 18.9791 49 17.8496 49 16.511C49 15.8417 48.7292 15.1933 48.25 14.7332C47.7708 14.2521 47.125 13.9802 46.4583 14.0011C45.125 14.022 44.0208 15.1306 44 16.4901C44 17.1594 44.25 17.7869 44.7292 18.2679C45.2083 18.749 45.8333 19 46.5 19V18.9791Z" fill="#221F20"/>
<path d="M28.7143 58.2647C29.1765 58.7479 29.8067 59 30.5 59C31.8655 59 32.979 57.9286 33 56.563C33 55.8908 32.7689 55.2395 32.2857 54.7563C31.8025 54.2731 31.1723 54 30.5 54C29.1555 54 28.021 55.0924 28 56.458C28 57.1513 28.2311 57.8025 28.7143 58.2857V58.2647Z" fill="#221F20"/>
<path d="M46.5 61.0209C46.5 61.0209 46.4792 61.0209 46.4583 61.0209C45.1042 61.0209 44 62.1506 44 63.4895C44 64.159 44.2708 64.8075 44.75 65.2678C45.2292 65.728 45.8542 66 46.5 66C47.1458 66 46.5208 66 46.5417 66C47.875 65.9791 48.9792 64.8494 49 63.5105C49 62.841 48.75 62.2134 48.2708 61.7322C47.7917 61.251 47.1667 61 46.5 61V61.0209Z" fill="#221F20"/>
<path d="M63.5099 54C63.5099 54 63.4889 54 63.468 54C62.1294 54.0209 61.0209 55.1297 61 56.4895C61 57.159 61.251 57.8075 61.732 58.2678C62.2131 58.728 62.8406 59 63.5099 59C64.1791 59 63.5308 59 63.5517 59C64.2419 59 64.8694 58.728 65.3086 58.2469C65.7687 57.7657 66.0197 57.1172 65.9988 56.4268C65.957 55.0669 64.8694 54.0209 63.5099 54.0209V54Z" fill="#221F20"/>
<path d="M30.5006 26C31.1727 26 31.8028 25.749 32.2649 25.2678C32.748 24.7866 33 24.159 33 23.4686C33 22.1088 31.9078 21.0209 30.5216 21H30.5006C29.1354 21 28.0432 22.046 28.0012 23.4059C27.9802 24.0962 28.2323 24.7448 28.6943 25.2259C29.1564 25.7071 29.7865 25.9791 30.4586 25.9791C30.4586 25.9791 30.4586 25.9791 30.4796 25.9791L30.5006 26Z" fill="#221F20"/>
</svg>
