<svg width="80" height="82" viewBox="0 0 80 82" fill="none" xmlns="http://www.w3.org/2000/svg">
<path d="M32.8614 37.9487C32.7356 37.6661 32.5305 37.4261 32.2711 37.2577C32.0117 37.0893 31.7091 36.9997 31.3998 36.9997H23.3999V7.19984C23.3999 6.7755 23.2313 6.36854 22.9312 6.06848C22.6312 5.76842 22.2242 5.59985 21.7999 5.59985H12.1999C11.7756 5.59985 11.3686 5.76842 11.0686 6.06848C10.7685 6.36854 10.5999 6.7755 10.5999 7.19984V36.9997H2.59997C2.29068 36.9997 1.98802 37.0893 1.72862 37.2578C1.46922 37.4262 1.2642 37.6662 1.13838 37.9488C1.01256 38.2313 0.971323 38.5443 1.01967 38.8498C1.06801 39.1552 1.20386 39.4402 1.41078 39.6701L15.8107 55.67C15.9607 55.8366 16.1441 55.9699 16.349 56.0612C16.5539 56.1524 16.7756 56.1995 16.9999 56.1995C17.2242 56.1995 17.4459 56.1524 17.6508 56.0612C17.8556 55.9699 18.039 55.8366 18.1891 55.67L32.589 39.6701C32.7959 39.4402 32.9318 39.1552 32.9801 38.8497C33.0285 38.5442 32.9872 38.2312 32.8614 37.9487ZM16.9999 52.2078L6.19255 40.1996H12.1999C12.6243 40.1996 13.0312 40.0311 13.3313 39.731C13.6313 39.431 13.7999 39.024 13.7999 38.5997V8.79983H20.1999V38.5997C20.1999 39.024 20.3684 39.431 20.6685 39.731C20.9685 40.0311 21.3755 40.1996 21.7999 40.1996H27.8072L16.9999 52.2078Z" fill="#221F20" stroke="#221F20"/>
<path d="M52.1997 55.3997C67.1976 55.3997 79.3995 43.1978 79.3995 28.1998C79.3995 13.2019 67.1976 1 52.1997 1C37.2018 1 24.9998 13.2019 24.9998 28.1998C24.9947 34.6086 27.2624 40.8115 31.3998 45.7057V61.7996H23.3999C23.0906 61.7996 22.7879 61.8891 22.5284 62.0575C22.269 62.2258 22.0639 62.4658 21.938 62.7483C21.8121 63.0308 21.7708 63.3437 21.819 63.6492C21.8673 63.9547 22.003 64.2397 22.2099 64.4696L36.6098 80.4695C36.7598 80.6365 36.9433 80.77 37.1483 80.8614C37.3533 80.9528 37.5753 81 37.7998 81C38.0242 81 38.2462 80.9528 38.4512 80.8614C38.6562 80.77 38.8397 80.6365 38.9898 80.4695L53.3897 64.4696C53.5965 64.2397 53.7323 63.9547 53.7805 63.6492C53.8288 63.3437 53.7874 63.0308 53.6615 62.7483C53.5356 62.4658 53.3305 62.2258 53.0711 62.0575C52.8116 61.8891 52.509 61.7996 52.1997 61.7996H44.1997V54.1977C46.791 54.9972 49.4879 55.4024 52.1997 55.3997ZM48.6077 64.9996L37.7998 77.0076L26.9918 64.9996H32.9998C33.4241 64.9996 33.8311 64.8311 34.1312 64.531C34.4312 64.2309 34.5998 63.824 34.5998 63.3996V48.9197C36.5333 50.5665 38.6875 51.935 40.9997 52.9857V63.3996C40.9997 63.824 41.1683 64.2309 41.4684 64.531C41.7684 64.8311 42.1754 64.9996 42.5997 64.9996H48.6077ZM28.1998 28.1998C28.1998 23.4531 29.6074 18.813 32.2445 14.8662C34.8817 10.9195 38.6299 7.84335 43.0153 6.02686C47.4007 4.21037 52.2263 3.73509 56.8818 4.66113C61.5373 5.58717 65.8137 7.87294 69.1701 11.2294C72.5266 14.5858 74.8124 18.8622 75.7384 23.5177C76.6644 28.1732 76.1892 32.9988 74.3727 37.3842C72.5562 41.7696 69.48 45.5179 65.5333 48.155C61.5865 50.7921 56.9464 52.1997 52.1997 52.1997C45.8367 52.1926 39.7364 49.6618 35.2371 45.1625C30.7377 40.6632 28.2069 34.5628 28.1998 28.1998Z" fill="#221F20" stroke="#221F20"/>
<path d="M49.5375 27.7006H45.8495C45.518 27.7043 45.1951 27.8071 44.9221 27.9959C44.649 28.1848 44.4382 28.451 44.3166 28.7607C44.1949 29.0704 44.1679 29.4094 44.2391 29.7346C44.3103 30.0597 44.4763 30.3562 44.7161 30.5861L53.9449 39.3462C54.2625 39.648 54.6865 39.8107 55.1237 39.7986C55.5608 39.7865 55.9752 39.6005 56.2758 39.2815C56.5764 38.9626 56.7385 38.5368 56.7264 38.0979C56.7143 37.659 56.5291 37.2428 56.2115 36.941L49.9841 31.033C51.7313 30.936 53.3825 30.1992 54.625 28.9619C55.5441 28.0072 56.2029 26.8311 56.538 25.5466H58.7492C59.1868 25.5466 59.6065 25.3721 59.916 25.0613C60.2255 24.7506 60.3993 24.3292 60.3993 23.8897C60.3993 23.4503 60.2255 23.0289 59.916 22.7181C59.6065 22.4074 59.1868 22.2328 58.7492 22.2328H56.5346C56.354 21.4099 56.0318 20.6249 55.5826 19.9132H58.7492C59.1868 19.9132 59.6065 19.7386 59.916 19.4279C60.2255 19.1171 60.3993 18.6957 60.3993 18.2563C60.3993 17.8168 60.2255 17.3954 59.916 17.0847C59.6065 16.7739 59.1868 16.5994 58.7492 16.5994H45.8495C45.4119 16.5994 44.9922 16.7739 44.6827 17.0847C44.3733 17.3954 44.1994 17.8168 44.1994 18.2563C44.1994 18.6957 44.3733 19.1171 44.6827 19.4279C44.9922 19.7386 45.4119 19.9132 45.8495 19.9132H49.5375C51.0918 19.9132 52.4353 20.9073 53.0581 22.2328H45.8495C45.4119 22.2328 44.9922 22.4074 44.6827 22.7181C44.3733 23.0289 44.1994 23.4503 44.1994 23.8897C44.1994 24.3292 44.3733 24.7506 44.6827 25.0613C44.9922 25.3721 45.4119 25.5466 45.8495 25.5466H53.0627C52.8538 25.929 52.5962 26.2824 52.2964 26.5979C51.9319 26.9557 51.5004 27.2373 51.0269 27.4266C50.5534 27.6159 50.0472 27.709 49.5375 27.7006Z" fill="#221F20" stroke="#221F20"/>
</svg>
