<svg width="120" height="121" viewBox="0 0 120 121" fill="none" xmlns="http://www.w3.org/2000/svg">
<mask id="mask0_38_151" style="mask-type:alpha" maskUnits="userSpaceOnUse" x="0" y="0" width="120" height="121">
<rect y="0.363281" width="120" height="120" fill="url(#paint0_linear_38_151)"/>
</mask>
<g mask="url(#mask0_38_151)">
<path d="M98 56.3133H94.03V20.4533H6V21.7833C6 42.4133 6 63.0333 6 83.6633C6 86.8733 7.52 88.3733 10.76 88.3733C25.97 88.3733 41.17 88.3733 56.38 88.3733H57.92V92.3733H56.64C41.31 92.3733 25.98 92.3733 10.65 92.3733C5.33 92.3733 2 89.0433 2 83.7233C2 58.8033 2 33.8833 2 8.96328C2 3.71328 5.34 0.363281 10.58 0.363281C36.87 0.363281 63.16 0.363281 89.44 0.363281C94.61 0.363281 97.99 3.71328 97.99 8.86328C97.99 24.2833 97.99 39.6933 97.99 55.1133V56.3033L98 56.3133ZM6.01 16.2733H94C94 13.8533 94 11.5333 94 9.20328C94 5.82328 92.52 4.36328 89.11 4.36328C63.03 4.36328 36.96 4.36328 10.88 4.36328C10.51 4.36328 10.13 4.34328 9.76 4.37328C7.77 4.51328 6.09 6.09328 6.03 8.08328C5.95 10.7833 6.01 13.4933 6.01 16.2733Z" fill="url(#paint1_linear_38_151)"/>
<path d="M110.16 106.503C109.87 106.483 109.57 106.503 109.29 106.433C107.05 105.833 105.57 106.983 104.34 108.623C104.1 108.943 104 109.453 104.01 109.873C104.06 111.663 104.14 113.453 104.26 115.243C104.35 116.513 103.78 117.273 102.63 117.733C100.7 118.503 98.7803 119.293 96.8702 120.123C95.7602 120.603 94.8702 120.383 94.0802 119.483C92.9202 118.173 91.7802 116.833 90.5402 115.613C90.1302 115.203 89.4502 114.993 88.8502 114.863C86.8502 114.443 85.3602 115.203 84.2102 116.893C83.5602 117.853 82.6602 118.633 81.8902 119.503C81.1402 120.343 80.2802 120.603 79.2002 120.143C77.1702 119.283 75.1302 118.453 73.0902 117.603C72.1402 117.203 71.6702 116.503 71.7302 115.453C71.8202 113.703 71.8602 111.953 72.0102 110.213C72.0902 109.283 71.7002 108.713 71.1502 108.023C70.0102 106.593 68.6702 106.153 66.9102 106.413C65.6002 106.603 64.2502 106.573 62.9202 106.653C61.8702 106.713 61.1702 106.233 60.7702 105.283C59.9202 103.253 59.1002 101.203 58.2302 99.1733C57.7702 98.0933 58.0302 97.2433 58.8802 96.4933C60.1902 95.3333 61.5202 94.1933 62.7502 92.9533C63.1602 92.5433 63.3902 91.8633 63.5202 91.2733C63.9502 89.2733 63.1902 87.7833 61.5102 86.6233C60.5202 85.9433 59.7002 85.0233 58.8102 84.2133C58.0002 83.4833 57.7902 82.6433 58.2302 81.6233C59.0702 79.6333 59.9102 77.6333 60.7102 75.6333C61.1602 74.5133 61.9502 74.0433 63.1402 74.1233C64.8002 74.2333 66.4702 74.3133 68.1302 74.3833C70.0402 74.4533 72.0502 72.4033 71.9802 70.4733C71.9102 68.7633 71.8202 67.0633 71.7302 65.3533C71.6702 64.2533 72.1802 63.5433 73.1802 63.1333C75.1802 62.3133 77.1802 61.4933 79.1702 60.6433C80.2402 60.1833 81.1002 60.4033 81.8602 61.2533C83.0502 62.5933 84.2202 63.9533 85.4802 65.2233C85.8602 65.6033 86.5102 65.8133 87.0702 65.9233C89.1202 66.3533 90.6402 65.5833 91.8202 63.8433C92.4702 62.8833 93.3602 62.0933 94.1402 61.2333C94.8602 60.4333 95.6902 60.1833 96.7202 60.6133C98.7502 61.4733 100.79 62.2933 102.83 63.1433C103.83 63.5533 104.32 64.2833 104.26 65.3833C104.16 67.0833 104.14 68.8033 103.98 70.5033C103.89 71.4733 104.29 72.0833 104.88 72.7933C106 74.1433 107.28 74.6433 109.01 74.3733C110.36 74.1633 111.75 74.2033 113.12 74.1333C114.12 74.0833 114.81 74.5533 115.18 75.4433C116.07 77.5533 116.92 79.6733 117.8 81.7833C118.24 82.8433 117.83 83.6433 117.06 84.3333C115.82 85.4533 114.61 86.5933 113.33 87.6633C112.67 88.2133 112.48 88.8333 112.39 89.6833C112.19 91.5633 112.74 92.9433 114.32 94.0333C115.34 94.7433 116.19 95.6833 117.12 96.5133C117.96 97.2733 118.18 98.1433 117.73 99.2133C116.9 101.163 116.07 103.123 115.29 105.093C114.85 106.203 114.11 106.733 112.9 106.663C111.99 106.613 111.07 106.663 110.15 106.663V106.533L110.16 106.503ZM76.0202 69.7033C76.0202 70.2433 75.9502 70.7933 76.0302 71.3233C76.2602 72.7833 75.7902 73.8933 74.6602 74.8433C73.7402 75.6233 72.9002 76.5033 72.1002 77.4033C71.3602 78.2233 70.5202 78.5233 69.4302 78.4233C67.9802 78.2933 66.5102 78.3133 65.0702 78.1733C64.2702 78.0933 63.8902 78.3433 63.5802 79.0833C62.3602 82.0433 62.2302 82.1633 64.7602 84.1133C66.9102 85.7733 67.6602 87.6633 67.6502 90.3833C67.6502 93.0533 66.9402 94.9233 64.8302 96.5633C62.1902 98.6133 62.3202 98.7333 63.6402 101.803C63.9302 102.483 64.3002 102.623 64.9602 102.573C66.5402 102.453 68.1202 102.303 69.7002 102.363C70.4502 102.393 71.3102 102.743 71.9002 103.223C73.0802 104.203 74.1902 105.303 75.1602 106.493C75.6403 107.073 75.9702 107.943 76.0002 108.693C76.0702 110.223 75.9402 111.773 75.7902 113.303C75.7102 114.113 75.9802 114.483 76.7102 114.783C79.6502 115.993 79.7902 116.123 81.7402 113.593C83.4002 111.433 85.3002 110.713 88.0102 110.713C90.6802 110.713 92.5402 111.423 94.1902 113.533C96.2502 116.173 96.3802 116.033 99.4202 114.713C100.1 114.413 100.23 114.053 100.19 113.393C100.07 111.773 99.9302 110.143 99.9702 108.523C99.9902 107.853 100.31 107.063 100.75 106.543C101.78 105.343 102.89 104.203 104.11 103.193C104.69 102.713 105.56 102.383 106.31 102.353C107.93 102.293 109.55 102.513 111.17 102.523C111.54 102.523 112.09 102.183 112.25 101.853C113.74 98.8133 113.72 98.8033 111.25 96.5733C111.19 96.5133 111.13 96.4533 111.06 96.4033C108.86 95.0133 108.23 93.0433 108.37 90.4633C108.63 85.9233 107.86 87.2633 111.26 84.1233C113.61 81.9633 113.62 81.9733 112.36 79.0533C112.33 78.9733 112.31 78.8733 112.25 78.8333C111.88 78.6033 111.5 78.1933 111.13 78.1933C109.47 78.1933 107.8 78.4133 106.14 78.3733C105.47 78.3533 104.68 78.0333 104.16 77.5933C102.96 76.5733 101.82 75.4533 100.81 74.2433C100.33 73.6633 100 72.7933 99.9602 72.0433C99.9002 70.4733 100.09 68.8833 100.14 67.3033C100.15 66.9633 100.11 66.4133 99.9102 66.3133C98.8402 65.7733 97.7202 65.3033 96.5802 64.9133C96.3702 64.8433 95.9402 65.1833 95.7102 65.4333C94.6002 66.6133 93.5802 67.8933 92.4002 69.0133C91.9102 69.4833 91.1302 69.8233 90.4502 69.8733C88.8302 69.9933 87.2002 70.0133 85.5802 69.8733C84.8302 69.8033 83.9902 69.4233 83.4302 68.9133C82.2702 67.8433 81.3002 66.5733 80.2002 65.4433C79.9402 65.1833 79.4102 64.9333 79.0902 65.0233C75.8202 65.9233 75.7502 66.0433 75.9102 69.3333C75.9102 69.4533 75.9102 69.5833 75.9102 69.7033H76.0202Z" fill="url(#paint2_linear_38_151)"/>
<path d="M23.9998 44.3733C23.9998 42.9733 23.9798 41.7633 23.9998 40.5633C24.0398 39.1633 24.7798 38.3933 26.1798 38.3833C34.0498 38.3633 41.9198 38.3833 49.8898 38.3833V42.3533H27.9998C27.9998 43.6833 28.0198 44.8733 27.9998 46.0733C27.9698 47.6333 27.2498 48.3633 25.6898 48.3833C23.8998 48.4033 22.1098 48.3733 20.3198 48.3933C19.3498 48.4033 18.6498 48.0233 18.1498 47.1933C16.2298 43.9733 14.2498 40.7933 12.4198 37.5333C12.0898 36.9333 12.0998 35.8333 12.4298 35.2333C14.2598 31.9633 16.2398 28.7833 18.1598 25.5733C18.6598 24.7433 19.3698 24.3733 20.3398 24.3933C22.1298 24.4133 23.9198 24.3833 25.7098 24.4033C27.2498 24.4233 27.9698 25.1633 27.9998 26.7333C28.0198 27.8933 27.9998 29.0533 27.9998 30.3533H55.9198V34.3933H54.6598C45.3698 34.3933 36.0798 34.3933 26.7998 34.3933C24.5998 34.3933 24.0098 33.7933 23.9998 31.5633C23.9998 30.5633 23.9998 29.5733 23.9998 28.5933C21.6998 28.0133 21.2598 28.1833 20.1398 30.0433C19.0498 31.8633 17.9798 33.7033 16.8498 35.4933C16.4298 36.1533 16.4498 36.6433 16.8498 37.2933C18.0298 39.1633 19.1998 41.0333 20.2398 42.9733C20.8198 44.0633 21.5098 44.6233 22.7598 44.3933C23.1098 44.3233 23.4898 44.3933 23.9898 44.3933L23.9998 44.3733Z" fill="url(#paint3_linear_38_151)"/>
<path d="M72.0001 50.3733H44.1001V46.3633H45.3901C54.6401 46.3633 63.8801 46.3633 73.1301 46.3633C75.4201 46.3633 76.0001 46.9433 76.0001 49.2433C76.0001 50.2333 76.0001 51.2233 76.0001 52.3633C76.7801 52.3633 77.4901 52.4333 78.1701 52.3333C78.5501 52.2833 79.0301 52.0333 79.2201 51.7233C80.5901 49.5333 81.9301 47.3333 83.1901 45.0833C83.4101 44.6933 83.3601 43.9533 83.1301 43.5433C82.0001 41.5133 80.7201 39.5533 79.5801 37.5233C79.1001 36.6633 78.5701 36.1833 77.5501 36.3533C77.1101 36.4233 76.6401 36.3633 75.9901 36.3633C75.9901 37.6833 76.0201 38.9533 75.9901 40.2233C75.9501 41.5033 75.2301 42.3333 74.0101 42.3433C67.3901 42.3733 60.7801 42.3533 54.0801 42.3533V38.3933H72.0001C72.0001 37.1233 71.9901 35.9333 72.0001 34.7433C72.0201 33.1033 72.7301 32.3733 74.3601 32.3633C76.1101 32.3433 77.8601 32.3833 79.6101 32.3533C80.6301 32.3333 81.3601 32.7233 81.8801 33.6033C83.7701 36.7833 85.6801 39.9633 87.5901 43.1333C88.0901 43.9733 88.0901 44.7633 87.5901 45.6033C85.6801 48.7733 83.7701 51.9533 81.8801 55.1333C81.3901 55.9533 80.7101 56.3833 79.7301 56.3733C77.9001 56.3533 76.0601 56.3933 74.2301 56.3633C72.7601 56.3433 72.0301 55.5933 72.0001 54.1033C71.9801 52.9033 72.0001 51.7033 72.0001 50.3733Z" fill="url(#paint4_linear_38_151)"/>
<path d="M10.1001 8.39331H13.9001V12.2833H10.1001V8.39331Z" fill="url(#paint5_linear_38_151)"/>
<path d="M21.9098 12.3133H18.0698V8.42334H21.9098V12.3133Z" fill="url(#paint6_linear_38_151)"/>
<path d="M29.9701 8.47339V12.2734H26.0801V8.47339H29.9701Z" fill="url(#paint7_linear_38_151)"/>
<path d="M87.9699 104.373C80.1999 104.343 73.9599 98.0533 73.9899 90.2633C74.0199 82.6533 80.3299 76.3733 87.9399 76.3733C95.7599 76.3733 102.03 82.7133 101.98 90.5533C101.93 98.1533 95.5999 104.403 87.9599 104.373H87.9699ZM77.9899 90.3833C77.9899 95.8533 82.4599 100.353 87.8999 100.373C93.4799 100.393 97.9999 95.8833 97.9799 90.2933C97.9599 84.8433 93.4699 80.3733 87.9999 80.3733C82.4699 80.3733 77.9799 84.8633 77.9899 90.3833Z" fill="url(#paint8_linear_38_151)"/>
</g>
<defs>
<linearGradient id="paint0_linear_38_151" x1="60" y1="0.363281" x2="60" y2="120.363" gradientUnits="userSpaceOnUse">
<stop stop-color="#00EFD1"/>
<stop offset="1" stop-color="#00ACEA"/>
</linearGradient>
<linearGradient id="paint1_linear_38_151" x1="57.5" y1="3.79121e-07" x2="60" y2="120" gradientUnits="userSpaceOnUse">
<stop stop-color="#00EFD1"/>
<stop offset="1" stop-color="#00ACEA"/>
</linearGradient>
<linearGradient id="paint2_linear_38_151" x1="57.5" y1="3.79121e-07" x2="60" y2="120" gradientUnits="userSpaceOnUse">
<stop stop-color="#00EFD1"/>
<stop offset="1" stop-color="#00ACEA"/>
</linearGradient>
<linearGradient id="paint3_linear_38_151" x1="57.5" y1="3.79121e-07" x2="60" y2="120" gradientUnits="userSpaceOnUse">
<stop stop-color="#00EFD1"/>
<stop offset="1" stop-color="#00ACEA"/>
</linearGradient>
<linearGradient id="paint4_linear_38_151" x1="57.5" y1="3.79121e-07" x2="60" y2="120" gradientUnits="userSpaceOnUse">
<stop stop-color="#00EFD1"/>
<stop offset="1" stop-color="#00ACEA"/>
</linearGradient>
<linearGradient id="paint5_linear_38_151" x1="57.5" y1="3.79121e-07" x2="60" y2="120" gradientUnits="userSpaceOnUse">
<stop stop-color="#00EFD1"/>
<stop offset="1" stop-color="#00ACEA"/>
</linearGradient>
<linearGradient id="paint6_linear_38_151" x1="57.5" y1="3.79121e-07" x2="60" y2="120" gradientUnits="userSpaceOnUse">
<stop stop-color="#00EFD1"/>
<stop offset="1" stop-color="#00ACEA"/>
</linearGradient>
<linearGradient id="paint7_linear_38_151" x1="57.5" y1="3.79121e-07" x2="60" y2="120" gradientUnits="userSpaceOnUse">
<stop stop-color="#00EFD1"/>
<stop offset="1" stop-color="#00ACEA"/>
</linearGradient>
<linearGradient id="paint8_linear_38_151" x1="57.5" y1="3.79121e-07" x2="60" y2="120" gradientUnits="userSpaceOnUse">
<stop stop-color="#00EFD1"/>
<stop offset="1" stop-color="#00ACEA"/>
</linearGradient>
</defs>
</svg>
