<svg width="120" height="121" viewBox="0 0 120 121" fill="none" xmlns="http://www.w3.org/2000/svg">
<mask id="mask0_38_149" style="mask-type:alpha" maskUnits="userSpaceOnUse" x="0" y="0" width="120" height="121">
<rect y="0.363281" width="120" height="120" fill="url(#paint0_linear_38_149)"/>
</mask>
<g mask="url(#mask0_38_149)">
<path d="M59.95 114.296C43.42 114.296 26.9 114.296 10.37 114.296C3.58 114.296 0.01 110.776 0.01 104.056C0 81.2758 0 58.4958 0 35.7258C0 29.0758 3.57 25.5558 10.22 25.5458C15.36 25.5458 20.49 25.5058 25.63 25.5758C26.95 25.5958 27.31 25.1758 27.28 23.8958C27.2 20.4958 27.23 17.0858 27.26 13.6858C27.31 9.90578 29.78 7.39578 33.58 7.38578C51.16 7.35578 68.74 7.35578 86.31 7.38578C90.22 7.38578 92.68 9.88578 92.72 13.7758C92.75 17.1158 92.79 20.4658 92.7 23.8058C92.66 25.1658 93.02 25.6058 94.44 25.5858C99.76 25.4958 105.09 25.5358 110.41 25.5558C116.12 25.5758 119.95 29.1958 119.96 34.8958C120.01 58.2258 120.01 81.5658 119.96 104.896C119.95 110.666 116.11 114.296 110.27 114.296C93.5 114.316 76.72 114.296 59.95 114.296ZM60.18 31.1458C43.53 31.1458 26.87 31.1458 10.22 31.1458C6.74 31.1458 5.66 32.2058 5.66 35.6758C5.66 58.4558 5.66 81.2358 5.66 104.026C5.66 107.626 6.71 108.676 10.31 108.676C43.43 108.676 76.55 108.676 109.67 108.676C113.27 108.676 114.32 107.626 114.32 104.026C114.32 81.3058 114.32 58.5858 114.32 35.8658C114.32 32.1458 113.3 31.1458 109.58 31.1458C93.11 31.1458 76.65 31.1458 60.18 31.1458ZM59.92 25.5458C68.46 25.5458 77 25.5258 85.54 25.5658C86.67 25.5658 87.19 25.3758 87.15 24.0658C87.06 20.9158 87.07 17.7558 87.15 14.5958C87.18 13.4158 86.85 12.9558 85.6 12.9558C68.52 12.9858 51.44 12.9858 34.37 12.9558C33.06 12.9558 32.84 13.5158 32.86 14.6358C32.91 17.7258 32.94 20.8258 32.85 23.9158C32.81 25.2158 33.2 25.5758 34.5 25.5658C42.98 25.5058 51.45 25.5358 59.93 25.5358L59.92 25.5458Z" fill="url(#paint1_linear_38_149)"/>
<path d="M87.69 60.6358C85.28 60.6358 82.99 60.6358 80.7 60.6358C78.55 60.6458 77.22 59.6558 77.14 57.9558C77.06 56.2858 78.36 55.0658 80.47 54.9958C85.17 54.8358 89.87 54.7058 94.58 54.6258C96.93 54.5858 97.98 55.6558 97.93 58.0458C97.84 62.8058 97.71 67.5758 97.56 72.3358C97.5 74.3558 96.39 75.5058 94.67 75.4558C92.99 75.3958 91.97 74.1658 91.96 72.1358C91.95 69.7958 91.96 67.4558 91.96 65.0858C91.17 65.0858 90.86 65.7858 90.42 66.2258C84.63 71.9858 78.86 77.7758 73.08 83.5458C70.9 85.7158 69.62 85.7258 67.46 83.5658C61.24 77.3558 55.01 71.1558 48.84 64.8958C47.85 63.8858 47.31 63.8058 46.26 64.8658C40.14 71.0858 33.94 77.2358 27.77 83.3958C27.29 83.8758 26.82 84.4058 26.24 84.7358C25.04 85.4258 23.83 85.3158 22.84 84.3158C21.86 83.3158 21.77 82.1158 22.47 80.9158C22.74 80.4458 23.17 80.0558 23.56 79.6658C30.6 72.6158 37.65 65.5658 44.7 58.5258C46.96 56.2658 48.13 56.2758 50.43 58.5658C56.65 64.7758 62.89 70.9658 69.05 77.2358C70.03 78.2258 70.52 78.2158 71.48 77.2358C76.5 72.1058 81.61 67.0558 86.68 61.9758C87.05 61.6058 87.57 61.3158 87.7 60.6558L87.69 60.6358Z" fill="url(#paint2_linear_38_149)"/>
</g>
<defs>
<linearGradient id="paint0_linear_38_149" x1="60" y1="0.363281" x2="60" y2="120.363" gradientUnits="userSpaceOnUse">
<stop stop-color="#00EFD1"/>
<stop offset="1" stop-color="#00ACEA"/>
</linearGradient>
<linearGradient id="paint1_linear_38_149" x1="59.9987" y1="7.36328" x2="59.9987" y2="114.305" gradientUnits="userSpaceOnUse">
<stop stop-color="#00EFD1"/>
<stop offset="1" stop-color="#00ACEA"/>
</linearGradient>
<linearGradient id="paint2_linear_38_149" x1="59.9725" y1="54.6248" x2="59.9725" y2="85.1796" gradientUnits="userSpaceOnUse">
<stop stop-color="#00EFD1"/>
<stop offset="1" stop-color="#00ACEA"/>
</linearGradient>
</defs>
</svg>
