<svg width="120" height="121" viewBox="0 0 120 121" fill="none" xmlns="http://www.w3.org/2000/svg">
<mask id="mask0_38_163" style="mask-type:alpha" maskUnits="userSpaceOnUse" x="0" y="0" width="120" height="121">
<rect y="0.363281" width="120" height="120" fill="url(#paint0_linear_38_163)"/>
</mask>
<g mask="url(#mask0_38_163)">
<path d="M40.3865 44.5086C40.3865 43.9996 40.1843 43.5114 39.8243 43.1514C39.4644 42.7915 38.9762 42.5893 38.4671 42.5893C37.9581 42.5893 37.4699 42.7915 37.1099 43.1514C36.75 43.5114 36.5478 43.9996 36.5478 44.5086V46.428C36.5478 46.937 36.75 47.4252 37.1099 47.7852C37.4699 48.1451 37.9581 48.3474 38.4671 48.3474C38.9762 48.3474 39.4644 48.1451 39.8243 47.7852C40.1843 47.4252 40.3865 46.937 40.3865 46.428V44.5086Z" fill="url(#paint1_linear_38_163)"/>
<path d="M61.4999 42.5893C60.9908 42.5893 60.5026 42.7915 60.1427 43.1514C59.7827 43.5114 59.5805 43.9996 59.5805 44.5086V46.428C59.5805 46.937 59.7827 47.4252 60.1427 47.7852C60.5026 48.1451 60.9908 48.3474 61.4999 48.3474C62.0089 48.3474 62.4971 48.1451 62.8571 47.7852C63.217 47.4252 63.4192 46.937 63.4192 46.428V44.5086C63.4192 43.9996 63.217 43.5114 62.8571 43.1514C62.4971 42.7915 62.0089 42.5893 61.4999 42.5893Z" fill="url(#paint2_linear_38_163)"/>
<path d="M57.6611 40.6705C57.8675 40.6703 58.0726 40.637 58.2684 40.5716L64.0265 38.6523C64.5094 38.4913 64.9086 38.1451 65.1363 37.6897C65.364 37.2344 65.4014 36.7072 65.2405 36.2243C65.0795 35.7413 64.7332 35.3421 64.2779 35.1144C63.8225 34.8868 63.2954 34.8493 62.8125 35.0103L57.0544 36.9297C56.6216 37.0734 56.2541 37.3666 56.0178 37.7567C55.7815 38.1468 55.6919 38.6083 55.7649 39.0584C55.8379 39.5086 56.0688 39.9181 56.4163 40.2135C56.7638 40.5089 57.2051 40.6709 57.6611 40.6705Z" fill="url(#paint3_linear_38_163)"/>
<path d="M59.5806 57.944C59.5806 57.4349 59.3784 56.9467 59.0184 56.5868C58.6585 56.2268 58.1703 56.0246 57.6612 56.0246H42.3063C41.7973 56.0246 41.3091 56.2268 40.9491 56.5868C40.5892 56.9467 40.3869 57.4349 40.3869 57.944C40.3869 60.4892 41.398 62.9302 43.1978 64.73C44.9975 66.5297 47.4385 67.5408 49.9838 67.5408C52.529 67.5408 54.97 66.5297 56.7697 64.73C58.5695 62.9302 59.5806 60.4892 59.5806 57.944ZM44.5546 59.8634H55.4129C55.0162 60.9863 54.281 61.9585 53.3087 62.6462C52.3363 63.3339 51.1747 63.7032 49.9838 63.7032C48.7928 63.7032 47.6312 63.3339 46.6589 62.6462C45.6865 61.9585 44.9514 60.9863 44.5546 59.8634Z" fill="url(#paint4_linear_38_163)"/>
<path d="M93.76 92.2865C91.0358 88.6269 87.1922 85.9558 82.8124 84.6786L67.4047 80.1489C66.8098 79.971 66.2878 79.6065 65.9158 79.1093C65.5439 78.612 65.3417 78.0083 65.339 77.3874V74.2252C68.6254 71.9362 71.3587 68.9417 73.3391 65.4607C75.3196 61.9796 76.4971 58.1 76.7856 54.1055H77.8149C79.5959 54.1035 81.3035 53.3951 82.5629 52.1357C83.8223 50.8763 84.5307 49.1688 84.5327 47.3877V45.4683C84.5304 43.8537 83.9474 42.2937 82.8903 41.0731C81.8332 39.8526 80.3724 39.0529 78.7746 38.8201V29.1537C78.7746 21.518 75.7413 14.1951 70.342 8.79581C64.9428 3.39655 57.6198 0.363281 49.9841 0.363281C42.3484 0.363281 35.0254 3.39655 29.6262 8.79581C24.2269 14.1951 21.1936 21.518 21.1936 29.1537V38.8201C19.5958 39.0529 18.135 39.8526 17.0779 41.0731C16.0208 42.2937 15.4379 43.8537 15.4356 45.4683V47.3877C15.4375 49.1688 16.1459 50.8763 17.4053 52.1357C18.6647 53.3951 20.3723 54.1035 22.1533 54.1055H23.1826C23.4711 58.1 24.6487 61.9796 26.6291 65.4607C28.6095 68.9417 31.3428 71.9362 34.6292 74.2252V77.3874C34.6266 78.0083 34.4243 78.612 34.0524 79.1093C33.6804 79.6065 33.1584 79.971 32.5635 80.1489L17.1558 84.6786C12.781 85.9658 8.94048 88.6346 6.20858 92.2859C3.47668 95.9372 2.00021 100.375 2 104.935V117.445C2 117.954 2.20222 118.442 2.56217 118.802C2.92212 119.162 3.41032 119.364 3.91936 119.364H96.0489C96.5579 119.364 97.0461 119.162 97.4061 118.802C97.766 118.442 97.9682 117.954 97.9682 117.445V104.935C97.9789 100.373 96.5015 95.9325 93.76 92.2865ZM76.8552 42.5893H77.8149C78.5783 42.5899 79.3102 42.8935 79.85 43.4333C80.3898 43.973 80.6933 44.705 80.6939 45.4683V47.3877C80.6933 48.1511 80.3898 48.883 79.85 49.4228C79.3102 49.9626 78.5783 50.2661 77.8149 50.2668H76.8552V42.5893ZM23.113 50.2668H22.1533C21.3899 50.2661 20.658 49.9626 20.1182 49.4228C19.5784 48.883 19.2749 48.1511 19.2743 47.3877V45.4683C19.2749 44.705 19.5784 43.973 20.1182 43.4333C20.658 42.8935 21.3899 42.5899 22.1533 42.5893H23.113V50.2668ZM25.0324 29.1537C25.0324 22.5361 27.6612 16.1896 32.3406 11.5102C37.0199 6.83085 43.3665 4.20201 49.9841 4.20201C56.6017 4.20201 62.9483 6.83085 67.6276 11.5102C72.307 16.1896 74.9358 22.5361 74.9358 29.1537V38.7506C74.427 38.7499 73.9392 38.5474 73.5794 38.1876C73.2196 37.8278 73.0172 37.34 73.0165 36.8312C73.016 36.7251 73.0072 36.6192 72.9901 36.5145L71.0707 24.9983C71.0209 24.6979 70.9002 24.4136 70.7186 24.1691C70.5371 23.9246 70.2999 23.7268 70.0267 23.5922C69.7535 23.4576 69.4522 23.3901 69.1477 23.3951C68.8432 23.4001 68.5442 23.4776 68.2757 23.6212C67.9901 23.7723 39.7299 38.7506 25.0324 38.7506V29.1537ZM26.9517 52.1861V42.5221C33.4632 42.0783 42.4146 39.4751 53.6069 34.7607C59.6121 32.2319 64.84 29.6792 67.7166 28.2253L69.1802 37.0063C69.2173 38.1663 69.6033 39.2881 70.2876 40.2254C70.972 41.1627 71.923 41.8719 73.0165 42.2606V52.1861C73.0165 58.2947 70.5899 64.1531 66.2705 68.4725C61.951 72.7919 56.0927 75.2185 49.9841 75.2185C43.8755 75.2185 38.0172 72.7919 33.6978 68.4725C29.3784 64.1531 26.9517 58.2947 26.9517 52.1861ZM63.127 81.7491C61.5387 91.6411 54.2643 93.1502 49.9841 93.1502C45.7039 93.1502 38.4295 91.6411 36.8413 81.7491C37.8864 80.5358 38.4633 78.9888 38.4679 77.3874V76.4613C42.0665 78.1705 46.0003 79.0572 49.9841 79.0572C53.9679 79.0572 57.9018 78.1705 61.5003 76.4613V77.3874C61.5049 78.9888 62.0818 80.5358 63.127 81.7491ZM33.36 83.9156C35.2794 92.1545 41.3398 96.9889 49.9841 96.9889C58.6284 96.9889 64.6888 92.1545 66.6106 83.9156L69.1562 84.6642C68.7099 93.6084 60.2815 100.765 49.9841 100.765C39.6867 100.765 31.2583 93.6084 30.8121 84.6642L33.36 83.9156ZM82.6133 115.525H73.0165V111.686H82.6133V115.525ZM94.1295 115.525H86.452V109.767C86.452 109.258 86.2498 108.77 85.8899 108.41C85.5299 108.05 85.0417 107.848 84.5327 107.848H71.0971C70.5881 107.848 70.0999 108.05 69.7399 108.41C69.38 108.77 69.1777 109.258 69.1777 109.767V115.525H5.83873V104.935C5.85376 101.208 7.06731 97.5842 9.30008 94.5997C11.5329 91.6152 14.6664 89.428 18.2378 88.3614L27.0453 85.7726C28.0938 96.3123 37.9809 104.604 49.9841 104.604C61.9873 104.604 71.8745 96.3123 72.9229 85.7726L81.7304 88.3614C85.3018 89.428 88.4354 91.6152 90.6681 94.5997C92.9009 97.5842 94.1145 101.208 94.1295 104.935V115.525Z" fill="url(#paint5_linear_38_163)"/>
<path d="M116.022 6.58017L102.587 0.608552C102.341 0.49942 102.075 0.44303 101.807 0.44303C101.538 0.44303 101.273 0.49942 101.027 0.608552L87.5915 6.58017C87.2262 6.74281 86.9208 7.01537 86.7178 7.35986C86.5148 7.70435 86.4243 8.1036 86.4591 8.50194L87.9514 25.4835C87.9742 25.7429 88.0496 25.9949 88.1729 26.2242C88.2962 26.4536 88.4649 26.6554 88.6687 26.8175L100.61 36.3327C100.949 36.6045 101.372 36.7526 101.807 36.7526C102.242 36.7526 102.664 36.6045 103.004 36.3327L114.945 26.8175C115.149 26.6554 115.317 26.4536 115.441 26.2242C115.564 25.9949 115.639 25.7429 115.662 25.4835L117.155 8.50194C117.189 8.1036 117.099 7.70435 116.896 7.35986C116.693 7.01537 116.387 6.74281 116.022 6.58017ZM111.91 24.3271L101.807 32.3788L91.7037 24.3271L90.4034 9.5312L101.807 4.46408L113.21 9.5312L111.91 24.3271Z" fill="url(#paint6_linear_38_163)"/>
<path d="M98.8258 18.561C98.371 18.338 97.8466 18.3038 97.3668 18.4658C96.8869 18.6278 96.4905 18.9729 96.264 19.4258C96.0375 19.8788 95.9992 20.4029 96.1574 20.884C96.3157 21.3651 96.6577 21.7642 97.1089 21.9942L100.948 23.9136C101.38 24.1299 101.878 24.1749 102.343 24.0398C102.807 23.9046 103.203 23.5991 103.452 23.1845L109.21 13.5876C109.34 13.3715 109.426 13.1319 109.463 12.8826C109.5 12.6333 109.487 12.3791 109.426 12.1346C109.365 11.8901 109.256 11.66 109.106 11.4575C108.956 11.2549 108.768 11.084 108.552 10.9543C108.336 10.8246 108.096 10.7388 107.847 10.7017C107.597 10.6646 107.343 10.6769 107.099 10.7381C106.854 10.7992 106.624 10.9079 106.421 11.0579C106.219 11.208 106.048 11.3965 105.918 11.6126L101.075 19.6852L98.8258 18.561Z" fill="url(#paint7_linear_38_163)"/>
</g>
<defs>
<linearGradient id="paint0_linear_38_163" x1="60" y1="0.363281" x2="60" y2="120.363" gradientUnits="userSpaceOnUse">
<stop stop-color="#00EFD1"/>
<stop offset="1" stop-color="#00ACEA"/>
</linearGradient>
<linearGradient id="paint1_linear_38_163" x1="57.5" y1="1.5" x2="58.5" y2="119" gradientUnits="userSpaceOnUse">
<stop stop-color="#00EFD1"/>
<stop offset="1" stop-color="#00ACEA"/>
</linearGradient>
<linearGradient id="paint2_linear_38_163" x1="57.5" y1="1.5" x2="58.5" y2="119" gradientUnits="userSpaceOnUse">
<stop stop-color="#00EFD1"/>
<stop offset="1" stop-color="#00ACEA"/>
</linearGradient>
<linearGradient id="paint3_linear_38_163" x1="57.5" y1="1.5" x2="58.5" y2="119" gradientUnits="userSpaceOnUse">
<stop stop-color="#00EFD1"/>
<stop offset="1" stop-color="#00ACEA"/>
</linearGradient>
<linearGradient id="paint4_linear_38_163" x1="57.5" y1="1.5" x2="58.5" y2="119" gradientUnits="userSpaceOnUse">
<stop stop-color="#00EFD1"/>
<stop offset="1" stop-color="#00ACEA"/>
</linearGradient>
<linearGradient id="paint5_linear_38_163" x1="57.5" y1="1.5" x2="58.5" y2="119" gradientUnits="userSpaceOnUse">
<stop stop-color="#00EFD1"/>
<stop offset="1" stop-color="#00ACEA"/>
</linearGradient>
<linearGradient id="paint6_linear_38_163" x1="57.5" y1="1.5" x2="58.5" y2="119" gradientUnits="userSpaceOnUse">
<stop stop-color="#00EFD1"/>
<stop offset="1" stop-color="#00ACEA"/>
</linearGradient>
<linearGradient id="paint7_linear_38_163" x1="57.5" y1="1.5" x2="58.5" y2="119" gradientUnits="userSpaceOnUse">
<stop stop-color="#00EFD1"/>
<stop offset="1" stop-color="#00ACEA"/>
</linearGradient>
</defs>
</svg>
