<svg width="68" height="68" viewBox="0 0 68 68" fill="none" xmlns="http://www.w3.org/2000/svg">
<path d="M3.8855 33.2974C3.90556 48.0552 13.3357 60.2935 26.8349 63.8021C43.6386 68.168 60.8677 57.2268 64.2083 40.0571C64.9587 36.1979 65.0129 32.3245 64.2866 28.4491C64.2485 28.2505 64.2284 28.0498 64.2043 27.8471C64.086 26.858 64.6136 26.0776 65.4904 25.9459C66.4315 25.804 67.2079 26.3452 67.3584 27.3749C67.6072 29.0734 67.8961 30.778 67.9603 32.4887C68.5482 48.0126 59.1261 61.607 44.4913 66.4168C31.9613 70.5354 17.5532 66.4249 8.98982 56.337C4.39111 50.9192 1.55404 44.7007 0.899952 37.6066C-0.165454 26.0675 3.60059 16.3121 12.1118 8.52481C17.0235 4.0312 22.8582 1.38206 29.4071 0.374694C33.2534 -0.217157 37.0917 -0.0955441 40.9099 0.652377C41.9291 0.853039 42.4628 1.60096 42.3204 2.54954C42.1839 3.45962 41.3994 4.00485 40.3601 3.82446C37.6615 3.35422 34.9528 3.12518 32.2121 3.3299C25.613 3.82446 19.7602 6.19794 14.7221 10.5152C8.87746 15.5236 5.38027 21.8982 4.22659 29.5538C4.00588 31.0253 3.95372 32.5211 3.8855 33.2974Z" fill="url(#paint0_linear_45_52)"/>
<path d="M34.3308 34.0048C32.6714 32.6306 31.4837 30.9949 31.3151 28.9274C31.1426 26.8276 31.0683 24.6608 31.3853 22.5914C31.9371 18.9835 35.1634 16.3465 38.783 16.2371C40.3821 16.1885 42.0053 16.1053 43.5803 16.3222C47.2561 16.831 49.9908 19.7679 50.2958 23.5075C50.4362 25.2365 50.3961 26.9978 50.2476 28.7268C50.0871 30.6016 49.1582 32.1664 47.7998 33.4596C47.6353 33.6156 47.4688 33.7676 47.3062 33.9237C47.2922 33.9379 47.2942 33.9703 47.3022 33.9338C47.6694 34.3473 48.0205 34.7345 48.3616 35.1297C49.4792 36.4229 50.2436 37.9167 50.2878 39.6335C50.3399 41.6198 50.4403 43.6568 50.0851 45.5884C49.427 49.1618 46.287 51.6488 42.7015 51.7705C41.4014 51.815 40.0972 51.8171 38.799 51.7705C34.6558 51.6205 31.3292 48.2558 31.1747 44.0825C31.1446 43.2494 31.1927 42.4123 31.1486 41.5813C30.9841 38.5693 31.8689 36.0033 34.3308 34.0068V34.0048ZM40.7312 32.4056L40.7352 32.3387C41.285 32.3387 41.8367 32.3387 42.3865 32.3387C45.0089 32.3286 47.0554 30.3442 47.1397 27.689C47.1778 26.4769 47.1798 25.2608 47.1357 24.0487C47.0434 21.5252 45.037 19.5166 42.543 19.4416C41.3672 19.4071 40.1895 19.4092 39.0137 19.4396C36.4656 19.5044 34.415 21.58 34.3548 24.1561C34.3267 25.3175 34.3287 26.483 34.3548 27.6444C34.401 29.8031 35.8195 31.6779 37.9022 32.1725C38.8131 32.3894 39.7862 32.3346 40.7292 32.4056H40.7312ZM47.23 42.1245L47.1457 42.1184C47.1457 41.486 47.1698 40.8536 47.1417 40.2233C47.0294 37.6572 44.9848 35.6729 42.4547 35.6608C41.3532 35.6567 40.2517 35.6567 39.1502 35.6608C36.4716 35.6668 34.399 37.7262 34.3528 40.4402C34.3348 41.5529 34.3328 42.6657 34.3528 43.7764C34.401 46.4296 36.4676 48.5133 39.1 48.5639C40.2256 48.5862 41.3532 48.5882 42.4788 48.5619C44.6237 48.5112 46.4716 47.0843 46.9651 44.9804C47.1818 44.0602 47.1497 43.0792 47.23 42.1265V42.1245Z" fill="url(#paint1_linear_45_52)"/>
<path d="M56.7321 11.3503C55.0186 11.3503 53.3473 11.3503 51.6779 11.3503C51.2526 11.3503 50.8252 11.3705 50.4019 11.3361C49.4127 11.2591 48.7666 10.5922 48.7767 9.69431C48.7867 8.79437 49.4488 8.12144 50.44 8.09712C51.8405 8.06469 53.2449 8.08699 54.6454 8.08699C55.3176 8.08699 55.9897 8.08699 56.7742 8.08699C56.7742 7.76268 56.7742 7.49513 56.7742 7.22961C56.7742 5.51081 56.7722 3.78999 56.7782 2.07119C56.7823 0.773978 57.3681 0.0240295 58.3733 0.0118682C59.4046 -0.000293125 60.0046 0.763843 60.0066 2.10767C60.0106 3.82647 60.0066 5.5473 60.0066 7.2661C60.0066 7.51338 60.0286 7.75863 60.0447 8.08901C61.6077 8.08901 63.1265 8.08901 64.6474 8.08901C65.1992 8.08901 65.7509 8.06874 66.2987 8.09712C67.338 8.15185 68.0102 8.81667 68.0001 9.74093C67.9881 10.6672 67.3039 11.33 66.2626 11.3442C64.3846 11.3685 62.5066 11.3503 60.6285 11.3543C60.456 11.3543 60.2855 11.3726 60.0026 11.3888C60.0026 11.6766 60.0026 11.9442 60.0026 12.2097C60.0026 13.9042 60.0025 15.5986 60.0005 17.2931C59.9985 18.6572 59.4287 19.4153 58.4054 19.4274C57.3601 19.4396 56.7742 18.6633 56.7722 17.2546C56.7722 15.5601 56.7742 13.8656 56.7722 12.1712C56.7722 11.9239 56.7502 11.6786 56.7341 11.3503H56.7321Z" fill="url(#paint2_linear_45_52)"/>
<path d="M19.9227 34.0048C19.9227 28.7977 19.9227 23.5886 19.9227 18.3816C19.9227 18.1039 19.9067 17.8201 19.9508 17.5485C20.0853 16.7256 20.7815 16.1824 21.6101 16.2189C22.4087 16.2553 23.0106 16.8269 23.0929 17.6478C23.121 17.9235 23.1129 18.2032 23.1129 18.4809C23.1129 28.82 23.1129 39.1612 23.1129 49.5004C23.1129 49.778 23.121 50.0577 23.0929 50.3334C23.0106 51.1867 22.3806 51.7684 21.5459 51.7786C20.7233 51.7887 20.0511 51.2151 19.9388 50.382C19.9047 50.1327 19.9187 49.8773 19.9187 49.624C19.9187 44.4169 19.9187 39.2078 19.9187 34.0007L19.9227 34.0048Z" fill="url(#paint3_linear_45_52)"/>
<defs>
<linearGradient id="paint0_linear_45_52" x1="21.5149" y1="16.2171" x2="21.5149" y2="51.7787" gradientUnits="userSpaceOnUse">
<stop stop-color="#00EFD1"/>
<stop offset="1" stop-color="#00ACEA"/>
</linearGradient>
<linearGradient id="paint1_linear_45_52" x1="21.5149" y1="16.2171" x2="21.5149" y2="51.7787" gradientUnits="userSpaceOnUse">
<stop stop-color="#00EFD1"/>
<stop offset="1" stop-color="#00ACEA"/>
</linearGradient>
<linearGradient id="paint2_linear_45_52" x1="21.5149" y1="16.2171" x2="21.5149" y2="51.7787" gradientUnits="userSpaceOnUse">
<stop stop-color="#00EFD1"/>
<stop offset="1" stop-color="#00ACEA"/>
</linearGradient>
<linearGradient id="paint3_linear_45_52" x1="21.5149" y1="16.2171" x2="21.5149" y2="51.7787" gradientUnits="userSpaceOnUse">
<stop stop-color="#00EFD1"/>
<stop offset="1" stop-color="#00ACEA"/>
</linearGradient>
</defs>
</svg>
