<svg width="65" height="66" viewBox="0 0 65 66" fill="none" xmlns="http://www.w3.org/2000/svg">
<path d="M60.261 54.5037C61.4883 54.5037 62.611 54.497 63.7337 54.5037C64.7182 54.5105 64.9913 54.7822 64.9947 55.7498C64.998 57.091 65.0048 58.4288 64.9947 59.7699C64.9711 63.3894 62.3817 65.9936 58.7944 65.997C50.5408 66.0038 42.284 65.997 34.0304 65.997C28.1673 65.997 22.3008 65.997 16.4377 65.997C12.7829 65.997 10.17 63.3792 10.17 59.6884C10.1632 44.3788 10.17 29.0692 10.17 13.7596V12.8259C9.8834 12.8123 9.64402 12.792 9.40464 12.792C6.72089 12.792 4.03714 12.792 1.35339 12.792C0.267753 12.792 0.00814787 12.5237 0.00814787 11.4168C0.00814787 9.69201 0.0385058 7.96378 0.00141878 6.23894C-0.0693836 2.99639 2.51659 0.00848836 6.2354 0.00509301C22.1592 -0.00169767 38.083 -0.00169767 54.0068 0.00509301C57.2199 0.00509301 59.6373 1.99137 60.1801 5.08113C60.2711 5.59043 60.261 6.12011 60.261 6.64299C60.2644 22.2684 60.261 37.8971 60.261 53.5225V54.5037ZM10.3318 1.87593C11.9198 3.5736 12.085 5.49197 12.0783 7.51559C12.0412 17.2602 12.0547 27.0083 12.0547 36.7529C12.0547 44.4773 12.0446 52.2017 12.0614 59.9261C12.0682 62.2383 13.963 64.0888 16.2185 64.0718C18.491 64.0548 20.3116 62.2044 20.3251 59.8888C20.3352 58.4797 20.3217 57.0706 20.3284 55.665C20.3318 54.8637 20.6791 54.5071 21.4714 54.4596C21.6737 54.446 21.876 54.4596 22.0817 54.4596C33.8787 54.4596 45.6791 54.4596 57.4761 54.4596H58.3898V53.7024C58.3898 37.9582 58.3898 22.2174 58.3864 6.47322C58.3864 6.02164 58.3763 5.55648 58.2785 5.12187C57.7998 3.05751 56.168 1.88951 53.7978 1.88611C39.6069 1.88611 25.4195 1.88611 11.2287 1.88611H10.3352L10.3318 1.87593ZM20.6521 64.1092H21.4073C33.8079 64.1092 46.205 64.1092 58.6056 64.1092C58.8315 64.1092 59.0574 64.1092 59.2833 64.0956C61.1578 63.9937 62.8773 62.4964 63.056 60.6154C63.1841 59.247 63.083 57.8549 63.083 56.4697H22.2199C22.2199 57.8482 22.2435 59.1418 22.2131 60.432C22.1794 61.7969 21.5658 62.9446 20.6555 64.1092H20.6521ZM1.93668 10.86H10.1734C10.1734 9.17252 10.2037 7.53936 10.1666 5.9096C10.116 3.84862 8.43363 2.10342 6.41071 1.94723C4.24955 1.78086 2.19292 3.23746 1.97714 5.35615C1.7917 7.16587 1.94006 9.01294 1.94006 10.8634L1.93668 10.86Z" fill="url(#paint0_linear_52_92)"/>
<path d="M42.4249 45.878C41.9804 46.7297 41.6194 47.5439 41.1482 48.2832C40.9476 48.6001 40.5131 48.9612 40.1989 48.9476C39.8847 48.9306 39.4536 48.5354 39.3099 48.2015C38.0732 45.3295 36.8867 42.4302 35.6801 39.5275H34.3531C33.8518 40.7233 33.3337 41.9532 32.819 43.1831C32.1372 44.815 31.4553 46.4503 30.7802 48.0856C30.593 48.5422 30.3824 48.9748 29.8176 48.9987C29.2527 49.026 29.002 48.6205 28.7814 48.1776C28.4773 47.5678 28.1364 46.9784 27.8589 46.3583C27.6851 45.97 27.4846 45.8746 27.0902 46.0211C26.4418 46.2664 25.7733 46.4503 25.1182 46.682C24.667 46.8387 24.2325 46.9069 23.8749 46.5151C23.4905 46.0994 23.6209 45.6395 23.8147 45.1761C24.9478 42.4779 26.0775 39.7762 27.2072 37.0779C27.5949 36.1512 27.0701 34.8362 26.1577 34.4478C25.7466 34.274 25.3288 34.1139 24.921 33.9299C23.8615 33.453 23.3535 32.5127 23.5139 31.3441C23.5674 30.9625 23.6141 30.5775 23.671 30.196C23.7512 29.6611 23.7111 29.1705 23.3 28.7514C23.0493 28.4959 22.8521 28.1825 22.6382 27.8929C21.826 26.8027 21.7424 25.7091 22.6582 24.7279C23.6309 23.6854 23.8114 22.5883 23.5306 21.2528C23.2866 20.1013 23.8281 19.0451 24.9244 18.6942C26.288 18.2581 27.127 17.4848 27.5515 16.0573C27.9091 14.8546 28.9285 14.2652 30.1551 14.5855C31.5289 14.9432 32.5249 14.5651 33.5309 13.6486C34.4768 12.7866 35.5564 12.7832 36.5123 13.6418C37.5184 14.5514 38.5043 14.9432 39.8847 14.5855C41.1515 14.255 42.1642 14.8853 42.5486 16.1765C42.9363 17.478 43.6817 18.19 44.925 18.6193C46.3689 19.1167 46.7901 20.0911 46.4458 21.9308C46.2753 22.837 46.3656 23.5729 47.0307 24.2236C47.268 24.4587 47.4552 24.7517 47.629 25.0413C48.127 25.8726 48.1203 26.7175 47.629 27.5556C47.5621 27.6714 47.4953 27.8009 47.3984 27.8895C46.3723 28.823 46.2219 29.9541 46.4926 31.2794C46.7499 32.5433 46.1985 33.4393 45.052 33.9538C44.8481 34.0458 44.6476 34.1684 44.4337 34.2093C43.3474 34.4103 42.9096 35.2143 42.6823 36.1819C42.6221 36.4374 42.6856 36.7645 42.7892 37.0166C43.8989 39.7012 45.0253 42.3757 46.1517 45.0535C46.2051 45.1796 46.3088 45.309 46.3021 45.4283C46.2753 45.7928 46.3221 46.2664 46.1216 46.4878C45.921 46.7058 45.423 46.7876 45.1055 46.7127C44.2198 46.5014 43.3608 46.1744 42.4316 45.8746L42.4249 45.878ZM44.6175 21.1915C44.6342 20.5885 44.6543 20.5067 44.0192 20.3398C42.318 19.8935 41.2885 18.8169 40.8674 17.0998C40.8607 17.0794 40.854 17.0555 40.8473 17.0351C40.7103 16.5649 40.4563 16.4184 39.9449 16.5308C38.5378 16.8375 37.2109 16.8886 36.0143 15.7404C34.9581 14.732 35.1152 14.7899 33.9888 15.7404C33.1365 16.4593 32.2541 16.926 31.1177 16.7012C30.8336 16.6433 30.5262 16.6671 30.2621 16.5683C29.5402 16.3026 29.2327 16.6671 29.0655 17.3042C28.6778 18.7692 27.859 19.7572 26.3616 20.2035C25.2452 20.5374 25.2653 20.6464 25.4825 21.832C25.4959 21.9001 25.516 21.9649 25.526 22.033C25.6764 22.9938 25.6898 23.9 25.0313 24.7415C23.818 26.295 23.8381 26.3189 25.0313 27.8963C25.4558 28.4584 25.7198 29.0649 25.6329 29.7871C25.5828 30.2164 25.5126 30.6423 25.4357 31.0647C25.3154 31.7188 25.409 32.1924 26.1677 32.3764C27.7119 32.7477 28.6945 33.7357 29.0689 35.3268C29.0856 35.3915 29.1357 35.4494 29.1491 35.5141C29.2828 36.1138 29.6371 36.2466 30.1953 36.0967C31.6625 35.6981 33.0262 35.8071 34.1359 37.0268C34.2395 37.1427 34.4066 37.1938 34.5102 37.3096C34.8612 37.6912 35.1754 37.6503 35.5363 37.2994C36.6761 36.1853 37.9562 35.5584 39.594 36.0286C40.4997 36.2909 40.61 36.4204 40.9944 35.17C41.4389 33.7187 42.2946 32.775 43.7585 32.4207C43.8655 32.3934 43.9624 32.3219 44.0694 32.2946C44.544 32.1686 44.7178 31.8688 44.6175 31.3816C44.5741 31.184 44.5574 30.9795 44.5239 30.7751C44.3568 29.7531 44.2766 28.7753 45.0019 27.869C46.2252 26.3427 46.2018 26.3155 45.0286 24.7722C44.5273 24.1112 44.2499 23.4162 44.4437 22.5577C44.5473 22.0943 44.564 21.614 44.6142 21.1915H44.6175ZM26.1945 44.3278C26.7727 44.1473 27.1972 44.0212 27.6183 43.8781C28.2199 43.6737 28.6611 43.8475 28.9519 44.4266C29.1692 44.8627 29.4065 45.2886 29.6972 45.8337L32.8391 38.3112C32.4112 38.1307 32.0369 37.8308 31.6692 37.8377C30.7267 37.8615 29.7841 38.0216 28.7881 38.1341C27.9692 40.093 27.1136 42.1372 26.1978 44.321L26.1945 44.3278ZM43.822 44.321C42.9029 42.1304 42.0406 40.0692 41.2117 38.0966C40.5131 38.0387 39.8981 37.991 39.2831 37.9399C38.5545 37.8785 37.7624 37.5719 37.2677 38.4986C38.2671 40.8971 39.2764 43.316 40.3326 45.8439C40.6301 45.2784 40.8641 44.8457 41.088 44.4028C41.3721 43.8474 41.8033 43.6907 42.3748 43.8713C42.8126 44.011 43.2538 44.1473 43.8187 44.321H43.822Z" fill="url(#paint1_linear_52_92)"/>
<path d="M30.0725 30.941C30.2375 30.0334 30.4305 29.1326 30.5464 28.2183C30.578 27.9562 30.4691 27.5999 30.2866 27.4083C29.6863 26.7797 28.9842 26.2352 28.4014 25.5932C28.1557 25.3243 27.9205 24.8201 28.0258 24.5478C28.1487 24.2352 28.6261 23.963 29.0053 23.852C29.581 23.6806 30.2059 23.5899 30.8062 23.5932C31.8137 23.6033 32.3894 23.1831 32.7124 22.2857C32.9265 21.6974 33.2565 21.1428 33.576 20.5949C34.0394 19.805 34.9591 19.7983 35.412 20.5949C35.8613 21.3815 36.2335 22.2084 36.6863 22.9949C36.7987 23.1899 37.0655 23.3815 37.2901 23.4218C38.1853 23.5898 39.1086 23.6436 39.9932 23.8487C40.3724 23.9361 40.8498 24.2319 40.9727 24.5445C41.0815 24.8167 40.8463 25.3243 40.6006 25.5898C40.0178 26.2318 39.3122 26.773 38.7119 27.3982C38.5258 27.5931 38.4065 27.9461 38.4381 28.2082C38.5399 29.0553 38.7786 29.8855 38.8558 30.7326C38.8874 31.0821 38.754 31.5964 38.4978 31.7813C38.2415 31.9628 37.6868 31.9426 37.3498 31.8082C36.5318 31.4821 35.7771 31.0048 34.9662 30.6586C34.6994 30.5443 34.2921 30.5477 34.0253 30.6586C33.1723 31.0284 32.3684 31.4956 31.5223 31.8821C30.7395 32.2384 30.0163 31.7477 30.0725 30.9376V30.941ZM32.2595 29.3376C33.1407 28.9746 33.8252 28.4772 34.5063 28.4772C35.1873 28.4772 35.8684 28.978 36.7355 29.3343C35.9667 27.6704 36.4371 26.4268 38.0203 25.5125C37.1076 25.3142 36.244 25.3344 35.6964 24.9478C35.1347 24.5512 34.8784 23.7546 34.4922 23.1394C34.1061 23.7613 33.8638 24.5512 33.3092 24.9344C32.744 25.3276 31.8804 25.3243 30.9396 25.5394C32.6562 26.4268 32.9651 27.7074 32.2595 29.3376Z" fill="url(#paint2_linear_52_92)"/>
<defs>
<linearGradient id="paint0_linear_52_92" x1="32.4999" y1="-1.47768" x2="32.4999" y2="66.2302" gradientUnits="userSpaceOnUse">
<stop stop-color="#00EFD1"/>
<stop offset="1" stop-color="#00ACEA"/>
</linearGradient>
<linearGradient id="paint1_linear_52_92" x1="34.9999" y1="12.194" x2="34.9999" y2="49.1256" gradientUnits="userSpaceOnUse">
<stop stop-color="#00EFD1"/>
<stop offset="1" stop-color="#00ACEA"/>
</linearGradient>
<linearGradient id="paint2_linear_52_92" x1="34.5" y1="19.7313" x2="34.5" y2="32.0419" gradientUnits="userSpaceOnUse">
<stop stop-color="#00EFD1"/>
<stop offset="1" stop-color="#00ACEA"/>
</linearGradient>
</defs>
</svg>
