<svg width="68" height="68" viewBox="0 0 68 68" fill="none" xmlns="http://www.w3.org/2000/svg">
<mask id="mask0_52_114" style="mask-type:alpha" maskUnits="userSpaceOnUse" x="0" y="0" width="68" height="68">
<rect width="68" height="68" fill="#D9D9D9"/>
</mask>
<g mask="url(#mask0_52_114)">
<path d="M67.971 34.8895C67.5841 35.6879 66.9525 35.9845 66.0497 35.9617C64.2639 35.9128 62.4749 35.9486 60.6329 35.9486C60.1534 42.6359 57.5905 48.3846 52.8054 53.097C48.0335 57.7898 42.2198 60.2992 35.4571 60.7685C35.4571 62.5837 35.4241 64.3468 35.4704 66.1066C35.4935 66.9963 35.1926 67.6187 34.3824 68H33.5854C32.7752 67.6187 32.4743 66.993 32.4974 66.1033C32.5437 64.3435 32.5107 62.5804 32.5107 60.7685C25.7381 60.2862 19.9178 57.7801 15.1459 53.0742C10.374 48.3716 7.81443 42.6392 7.33492 35.9454C6.28001 35.9454 5.26807 35.9454 4.25614 35.9454C3.41618 35.9454 2.57621 35.9454 1.73294 35.9454C0.661494 35.9389 -0.00981236 35.3718 0.000108468 34.4821C0.0100293 33.5957 0.67471 33.0515 1.76269 33.0482C3.35664 33.0482 4.9473 33.0482 6.54125 33.0482C6.78266 33.0482 7.02405 33.0482 7.27207 33.0482C7.46057 31.7838 7.56972 30.5454 7.83428 29.3396C9.66963 20.9511 14.4944 14.8146 22.2294 10.8942C23.1884 10.4086 24.0416 10.6432 24.4384 11.4547C24.8319 12.2564 24.488 13.0353 23.5125 13.5241C17.6228 16.4669 13.5916 21.0261 11.4818 27.1724C7.32828 39.276 14.0711 52.5658 26.3697 56.6264C40.282 61.2182 54.9218 52.5658 57.3623 38.3081C59.5284 25.657 50.7021 13.4785 37.891 11.4612C36.6708 11.2689 35.4307 11.207 34.1972 11.1223C32.9836 11.0375 32.5074 10.5683 32.5074 9.34291C32.5041 7.13989 32.5041 4.93687 32.5074 2.7371C32.5074 1.66492 33.0662 1.00988 33.9657 1.00011C34.8652 0.99033 35.4472 1.65189 35.4505 2.70777C35.4571 4.51647 35.4505 6.32516 35.4505 8.22185C42.2099 8.69113 48.0467 11.2103 52.8285 15.9259C57.5971 20.6318 60.1468 26.3675 60.6296 33.045C62.4682 33.045 64.2573 33.0775 66.043 33.0319C66.9458 33.0091 67.5808 33.2991 67.9644 34.1041V34.8895H67.971Z" fill="url(#paint0_linear_52_114)"/>
<path fill-rule="evenodd" clip-rule="evenodd" d="M46.9996 34.5288C46.9441 26.9504 41.1911 20.9761 33.9721 21.0001C26.79 21.0193 21.0278 27.008 21.0001 34.4664C20.9769 41.9967 26.8363 48.0287 34.1432 47.9999C41.205 47.9711 47.0551 41.8431 46.9996 34.5288ZM44.9997 34.5245C44.9527 28.0689 40.0848 22.9796 33.9764 23.0001C27.8993 23.0164 23.0235 28.118 23.0001 34.4714C22.9805 40.8861 27.9384 46.0245 34.1211 45.9999C40.0965 45.9754 45.0466 40.7552 44.9997 34.5245Z" fill="url(#paint1_linear_52_114)"/>
<path d="M29.1304 32.3573C29.1304 32.6338 29.2412 32.8989 29.4384 33.0943C29.6357 33.2898 29.9033 33.3996 30.1822 33.3996H34.3039C33.929 34.1813 33.1977 34.5721 32.3588 34.5721H30.1822C29.9704 34.5761 29.7644 34.6423 29.5905 34.7622C29.4166 34.8822 29.2825 35.0506 29.2052 35.2461C29.1279 35.4416 29.1108 35.6554 29.1561 35.8605C29.2015 36.0656 29.3072 36.2528 29.4599 36.3984L34.8999 41.4966C35 41.5908 35.1179 41.6645 35.2467 41.7135C35.3756 41.7625 35.513 41.7859 35.651 41.7822C35.789 41.7786 35.9249 41.7481 36.051 41.6924C36.177 41.6367 36.2908 41.5569 36.3857 41.4576C36.4807 41.3583 36.5549 41.2414 36.6042 41.1136C36.6535 40.9859 36.677 40.8497 36.6731 40.713C36.6693 40.5763 36.6383 40.4416 36.582 40.3168C36.5256 40.1919 36.4449 40.0793 36.3446 39.9854L32.8028 36.6399C33.692 36.561 34.533 36.2049 35.2052 35.6227C35.8773 35.0405 36.3459 34.2622 36.5437 33.3996H37.7887C38.0676 33.3996 38.3352 33.2898 38.5324 33.0943C38.7297 32.8989 38.8405 32.6338 38.8405 32.3573C38.8405 32.0809 38.7297 31.8158 38.5324 31.6204C38.3352 31.4249 38.0676 31.3151 37.7887 31.3151H36.5439C36.4555 30.9393 36.2917 30.5848 36.0625 30.2729H37.7887C38.0676 30.2729 38.3352 30.1631 38.5324 29.9676C38.7297 29.7722 38.8405 29.5071 38.8405 29.2306C38.8405 28.9542 38.7297 28.6891 38.5324 28.4937C38.3352 28.2982 38.0676 28.1884 37.7887 28.1884H30.1822C29.9033 28.1884 29.6357 28.2982 29.4384 28.4937C29.2412 28.6891 29.1304 28.9542 29.1304 29.2306C29.1304 29.5071 29.2412 29.7722 29.4384 29.9676C29.6357 30.1631 29.9033 30.2729 30.1822 30.2729H32.3588C33.1979 30.2729 33.929 30.6637 34.3039 31.3151H30.1822C29.9033 31.3151 29.6357 31.4249 29.4384 31.6204C29.2412 31.8158 29.1304 32.0809 29.1304 32.3573Z" fill="url(#paint2_linear_52_114)"/>
</g>
<defs>
<linearGradient id="paint0_linear_52_114" x1="33.9854" y1="-0.500065" x2="33.9854" y2="68.2337" gradientUnits="userSpaceOnUse">
<stop stop-color="#00EFD1"/>
<stop offset="1" stop-color="#00ACEA"/>
</linearGradient>
<linearGradient id="paint1_linear_52_114" x1="33.9854" y1="-0.500065" x2="33.9854" y2="68.2337" gradientUnits="userSpaceOnUse">
<stop stop-color="#00EFD1"/>
<stop offset="1" stop-color="#00ACEA"/>
</linearGradient>
<linearGradient id="paint2_linear_52_114" x1="33.9854" y1="-0.500065" x2="33.9854" y2="68.2337" gradientUnits="userSpaceOnUse">
<stop stop-color="#00EFD1"/>
<stop offset="1" stop-color="#00ACEA"/>
</linearGradient>
</defs>
</svg>
