<svg width="61" height="68" viewBox="0 0 61 68" fill="none" xmlns="http://www.w3.org/2000/svg">
<path d="M14.862 17.839C14.862 18.1172 14.9706 18.3841 15.1638 18.5808C15.357 18.7776 15.6191 18.8881 15.8924 18.8881H19.93C19.5628 19.6749 18.8464 20.0683 18.0246 20.0683H15.8924C15.6849 20.0724 15.4832 20.139 15.3128 20.2597C15.1424 20.3805 15.0111 20.55 14.9353 20.7467C14.8596 20.9435 14.8428 21.1587 14.8872 21.3652C14.9317 21.5716 15.0352 21.7601 15.1848 21.9066L20.5139 27.0384C20.6119 27.1332 20.7274 27.2073 20.8536 27.2567C20.9799 27.306 21.1144 27.3295 21.2496 27.3259C21.3848 27.3222 21.518 27.2915 21.6415 27.2354C21.765 27.1793 21.8764 27.099 21.9694 26.9991C22.0624 26.8991 22.1351 26.7815 22.1834 26.6529C22.2317 26.5243 22.2547 26.3872 22.2509 26.2496C22.2472 26.112 22.2168 25.9765 22.1616 25.8508C22.1064 25.7251 22.0274 25.6117 21.9291 25.5172L18.4595 22.1497C19.3306 22.0703 20.1545 21.7118 20.8129 21.1258C21.4713 20.5398 21.9304 19.7564 22.1241 18.8881H23.3437C23.617 18.8881 23.8791 18.7776 24.0723 18.5808C24.2656 18.3841 24.3741 18.1172 24.3741 17.839C24.3741 17.5608 24.2656 17.2939 24.0723 17.0972C23.8791 16.9004 23.617 16.7899 23.3437 16.7899H22.1244C22.0377 16.4116 21.8773 16.0548 21.6527 15.7408H23.3437C23.617 15.7408 23.8791 15.6303 24.0723 15.4336C24.2656 15.2368 24.3741 14.97 24.3741 14.6917C24.3741 14.4135 24.2656 14.1467 24.0723 13.9499C23.8791 13.7532 23.617 13.6426 23.3437 13.6426H15.8924C15.6191 13.6426 15.357 13.7532 15.1638 13.9499C14.9706 14.1467 14.862 14.4135 14.862 14.6917C14.862 14.97 14.9706 15.2368 15.1638 15.4336C15.357 15.6303 15.6191 15.7408 15.8924 15.7408H18.0246C18.8466 15.7408 19.5628 16.1342 19.93 16.7899H15.8924C15.6191 16.7899 15.357 16.9004 15.1638 17.0972C14.9706 17.2939 14.862 17.5608 14.862 17.839Z" fill="url(#paint0_linear_52_82)"/>
<path d="M11.3056 67.99C10.2796 67.6663 9.65455 66.9487 9.13817 66.0442C6.29134 61.0514 3.41053 56.0752 0.539907 51.0957C-0.462262 49.3569 -0.0647935 47.9552 1.69495 46.9673C2.53405 46.4967 3.37656 46.0261 4.21906 45.5622C5.91425 44.6277 7.36484 45.0249 8.32964 46.6703C8.45194 46.8772 8.57764 47.0841 8.73391 47.3378C8.97511 47.2143 9.18913 47.1108 9.39636 46.994C12.0835 45.4688 14.7605 43.9202 17.4647 42.425C19.2958 41.4138 21.2287 40.6829 23.386 41.0533C24.242 41.2002 25.0846 41.4772 25.9067 41.7642C29.1238 42.8956 32.3409 44.0103 35.7007 44.7045C38.1773 45.2151 39.5464 47.8384 38.6971 50.188C38.6393 50.3448 38.568 50.4983 38.4253 50.8488C39.1149 50.5184 39.6449 50.3014 40.1375 50.0211C43.7181 47.9819 47.2885 45.926 50.8692 43.8835C52.4726 42.969 54.1338 42.2014 56.0295 42.0579C58.2682 41.8877 60.1265 43.0024 60.755 44.9148C61.4412 47.004 60.6598 49.0866 58.7404 50.2447C52.2858 54.1529 45.8209 58.041 39.3799 61.9725C37.0223 63.411 34.5661 63.8048 31.8891 63.0806C27.5985 61.9191 23.2908 60.8144 19.0002 59.653C18.3208 59.4694 17.7432 59.4561 17.1725 59.8933C16.9109 60.0936 16.6018 60.2304 16.2621 60.4273C16.6018 61.018 16.9245 61.5654 17.2371 62.1227C18.0863 63.6379 17.6991 65.1331 16.1839 65.9875C14.9372 66.6884 13.6564 67.3292 12.3927 68H11.3124L11.3056 67.99ZM15.1886 58.5617C15.8034 58.2146 16.398 57.9042 16.9619 57.5537C17.4511 57.25 17.9233 57.1866 18.4974 57.3368C23.1414 58.575 27.7955 59.7698 32.4361 61.018C34.3894 61.542 36.2103 61.3818 37.9463 60.3272C44.5538 56.3256 51.1749 52.3406 57.762 48.3056C58.2037 48.0353 58.5944 47.4612 58.72 46.9606C59.1515 45.2485 58.0372 44.0437 56.2435 44.1672C54.7182 44.274 53.3831 44.9081 52.0921 45.6423C48.5115 47.6815 44.9241 49.7174 41.3638 51.7899C39.3323 52.9714 37.1887 53.4086 34.8854 52.8779C32.2594 52.2739 29.647 51.6164 27.0345 50.9656C25.9576 50.6986 25.5805 50.2414 25.7606 49.5238C25.9372 48.8263 26.5385 48.6327 27.5951 48.9064C29.81 49.4804 32.025 50.0778 34.2535 50.6018C35.5513 50.9055 36.5093 50.2881 36.7607 49.1233C36.9951 48.0353 36.2511 47.0608 35.0655 46.7203C32.0046 45.8426 28.9539 44.9214 25.9033 44.0103C24.9996 43.74 24.1231 43.3662 23.2059 43.1793C21.4632 42.8222 19.9242 43.4963 18.46 44.314C15.6608 45.8726 12.8853 47.4713 10.0996 49.0532C10.0079 49.1033 9.93311 49.1767 9.8278 49.2568C11.6181 52.364 13.3881 55.4378 15.1954 58.5683L15.1886 58.5617ZM15.5588 63.6313C15.4603 63.4076 15.4094 63.2608 15.3312 63.1306C12.3655 57.9743 9.39296 52.8212 6.43062 47.6648C6.14865 47.1742 5.81574 47.0941 5.32314 47.3778C4.47385 47.8751 3.60077 48.3357 2.74128 48.8196C2.07544 49.1934 2.03127 49.3603 2.41855 50.0344C3.16933 51.3427 3.92689 52.6477 4.67767 53.956C6.84847 57.7239 9.01927 61.4953 11.1867 65.2666C11.4245 65.6805 11.6657 66.0476 12.2364 65.7272C13.1944 65.1899 14.1626 64.6726 15.1104 64.1219C15.2973 64.0117 15.4162 63.7881 15.5555 63.6279L15.5588 63.6313Z" fill="url(#paint1_linear_52_82)"/>
<path d="M35.7211 21.0118H33.1257C32.3409 28.4444 25.8217 33.6308 18.511 32.8965C11.4958 32.1923 6.44081 26.4519 6.5733 19.4699C6.6956 13.0487 12.1345 7.41835 18.6061 6.90772C25.8999 6.33367 32.3137 11.4166 33.1087 18.8091H35.7245V18.0215C35.7245 13.9498 35.7245 9.87806 35.7245 5.80969C35.7245 4.61822 36.0303 4.31784 37.2431 4.31451C38.5238 4.31117 39.8079 4.31451 41.1838 4.31451C41.1838 3.79386 41.177 3.31327 41.1838 2.83601C41.2178 1.21067 42.4034 0.0292028 44.0476 0.0125155C45.7802 -0.00417183 47.5161 -0.00417183 49.2487 0.0125155C50.8963 0.0292028 52.0989 1.20399 52.1159 2.82934C52.1363 4.53144 52.1363 6.23689 52.1159 7.93899C52.0955 9.55766 50.8963 10.7291 49.2385 10.7525C47.506 10.7725 45.77 10.7758 44.0374 10.7525C42.3864 10.7291 41.2144 9.54098 41.1838 7.91563C41.1736 7.45172 41.1838 6.99115 41.1838 6.44047H37.9395V18.8325H41.1804C41.1804 18.3586 41.1736 17.9013 41.1804 17.4441C41.2042 15.7887 42.3354 14.6206 44.0035 14.5939C45.7836 14.5639 47.5637 14.5639 49.3404 14.5939C50.9337 14.6239 52.0921 15.7887 52.1125 17.354C52.1363 19.0561 52.1295 20.7615 52.1125 22.4636C52.0989 24.0723 50.9847 25.2538 49.3438 25.3038C47.5433 25.3606 45.7394 25.3606 43.9389 25.3038C42.2981 25.2504 41.2042 24.0656 41.177 22.4503C41.1702 21.9897 41.177 21.5291 41.177 21.0285H37.9327V33.4205H41.177C41.177 32.9299 41.1702 32.4727 41.177 32.0121C41.2008 30.3901 42.2913 29.1953 43.9219 29.1452C45.7428 29.0885 47.5705 29.0852 49.3948 29.1452C50.9949 29.1986 52.0989 30.3868 52.1125 31.9654C52.1295 33.6675 52.1329 35.373 52.1125 37.0751C52.0921 38.6704 50.9065 39.8351 49.2861 39.8518C47.5297 39.8719 45.7734 39.8685 44.017 39.8518C42.3966 39.8351 41.2178 38.6737 41.1804 37.0817C41.1668 36.6011 41.1804 36.1205 41.1804 35.5732C39.8147 35.5732 38.5136 35.5732 37.2159 35.5732C36.0676 35.5732 35.7245 35.2394 35.7245 34.1114C35.7245 30.0197 35.7245 25.9246 35.7245 21.8329V21.0018L35.7211 21.0118ZM30.9515 19.9172C30.9515 13.8697 25.9712 8.99363 19.8223 9.01032C13.6904 9.02701 8.74071 13.883 8.73052 19.8905C8.72033 25.9379 13.6768 30.824 19.8291 30.8307C25.9848 30.8373 30.9549 25.9613 30.9515 19.9172ZM46.6601 16.7098C45.8277 16.7098 44.9954 16.7132 44.1631 16.7098C43.6026 16.7065 43.3376 16.9735 43.3376 17.5209C43.3376 19.1328 43.3444 20.7448 43.3376 22.3602C43.3376 22.9042 43.5924 23.1979 44.1427 23.2012C45.8074 23.2112 47.472 23.2079 49.1332 23.2012C49.6768 23.2012 49.9587 22.9342 49.9587 22.3802C49.9519 20.7682 49.9519 19.1562 49.9587 17.5409C49.9587 16.9535 49.6734 16.6998 49.089 16.7065C48.2805 16.7165 47.4686 16.7065 46.6601 16.7065V16.7098ZM46.6465 37.7425C47.455 37.7425 48.2669 37.7292 49.0754 37.7459C49.6598 37.7592 49.9587 37.5189 49.9587 36.9282C49.9553 35.3162 49.9519 33.7042 49.9587 32.0922C49.9587 31.5449 49.6971 31.2645 49.1468 31.2612C47.4822 31.2545 45.8176 31.2545 44.1563 31.2612C43.606 31.2612 43.3376 31.5415 43.341 32.0889C43.3478 33.7009 43.3478 35.3129 43.341 36.9249C43.341 37.5123 43.6332 37.7559 44.2209 37.7459C45.0294 37.7292 45.8413 37.7425 46.6499 37.7425H46.6465ZM46.6465 8.63652C47.4346 8.63652 48.2194 8.6432 49.0075 8.63652C49.7209 8.62985 49.9519 8.41959 49.9553 7.74208C49.9621 6.17347 49.9519 4.60487 49.9621 3.03626C49.9655 2.43551 49.7175 2.13181 49.0822 2.13514C47.4618 2.14516 45.8447 2.14516 44.2243 2.13514C43.5924 2.13181 43.3342 2.4255 43.3376 3.02958C43.3478 4.59819 43.3376 6.1668 43.3444 7.73541C43.3478 8.41625 43.5754 8.62985 44.2854 8.63652C45.0736 8.6432 45.8583 8.63652 46.6465 8.63652Z" fill="url(#paint2_linear_52_82)"/>
<path d="M6.21996 50.1045C6.20637 50.7153 5.71038 51.1692 5.07851 51.1491C4.484 51.1291 4.02198 50.6652 4.01858 50.0845C4.01518 49.4871 4.52136 48.9965 5.13285 48.9998C5.75114 49.0032 6.23354 49.4938 6.21996 50.1045Z" fill="url(#paint3_linear_52_82)"/>
<defs>
<linearGradient id="paint0_linear_52_82" x1="30.4999" y1="-1.52245" x2="30.4999" y2="68.2372" gradientUnits="userSpaceOnUse">
<stop stop-color="#00EFD1"/>
<stop offset="1" stop-color="#00ACEA"/>
</linearGradient>
<linearGradient id="paint1_linear_52_82" x1="30.4999" y1="-1.52245" x2="30.4999" y2="68.2372" gradientUnits="userSpaceOnUse">
<stop stop-color="#00EFD1"/>
<stop offset="1" stop-color="#00ACEA"/>
</linearGradient>
<linearGradient id="paint2_linear_52_82" x1="30.4999" y1="-1.52245" x2="30.4999" y2="68.2372" gradientUnits="userSpaceOnUse">
<stop stop-color="#00EFD1"/>
<stop offset="1" stop-color="#00ACEA"/>
</linearGradient>
<linearGradient id="paint3_linear_52_82" x1="30.4999" y1="-1.52245" x2="30.4999" y2="68.2372" gradientUnits="userSpaceOnUse">
<stop stop-color="#00EFD1"/>
<stop offset="1" stop-color="#00ACEA"/>
</linearGradient>
</defs>
</svg>
