<svg width="68" height="68" viewBox="0 0 68 68" fill="none" xmlns="http://www.w3.org/2000/svg">
<path d="M59.8763 41.0843V41.951C59.8763 48.7693 59.8763 55.5876 59.8763 62.4059C59.8763 63.6975 59.5807 64 58.3194 64C55.0904 64 51.8615 64 48.6326 64C47.5585 64 47.2201 63.6465 47.2201 62.5282C47.2201 55.6861 47.2201 48.8475 47.2201 42.0054V41.0843C46.284 41.0843 45.3741 41.0741 44.4609 41.0877C43.8828 41.0978 43.3507 41.0401 43.0879 40.3977C42.835 39.7825 43.1733 39.3678 43.5379 38.9497C46.5106 35.5406 49.4768 32.128 52.4429 28.7155C53.2739 27.7604 53.8192 27.7604 54.6535 28.7223C57.5901 32.1008 60.53 35.4794 63.4699 38.8579C63.5717 38.9769 63.7326 39.0789 63.7688 39.2148C63.8739 39.6057 64.094 40.0952 63.956 40.3875C63.8016 40.7104 63.3155 41.0197 62.9476 41.0503C61.9523 41.1386 60.9406 41.0809 59.873 41.0809L59.8763 41.0843ZM60.6778 38.9021C58.2307 36.0946 55.905 33.423 53.5466 30.7175C51.1586 33.4638 48.8395 36.132 46.4285 38.9021C47 38.9021 47.3942 38.9021 47.7884 38.9021C49.0366 38.9021 49.3289 39.208 49.3289 40.5132C49.3289 47.3281 49.3289 54.143 49.3289 60.9613V61.7737H57.7675V60.9239C57.7675 54.0615 57.7675 47.2024 57.7675 40.3399C57.7675 39.2658 58.1157 38.9055 59.1438 38.9021C59.6004 38.9021 60.057 38.9021 60.6778 38.9021Z" fill="url(#paint0_linear_52_108)"/>
<path d="M40.0035 13.9645C39.9866 6.83253 45.8438 1.00676 53.0372 1.00001C60.1158 0.993255 65.973 6.8224 66 13.9004C66.027 21.0932 60.2271 26.9831 53.0979 27C45.8337 27.0168 40.0203 21.2316 40.0001 13.9645H40.0035ZM42.1696 14.0152C42.1594 19.9557 47.0078 24.8094 52.9798 24.8364C58.9146 24.8634 63.8272 19.9827 63.8339 14.0557C63.8407 8.07464 59.0125 3.18045 53.0878 3.16695C47.0382 3.15345 42.1797 7.98013 42.1662 14.0152H42.1696Z" fill="url(#paint1_linear_52_108)"/>
<path d="M1 67V65H68V67H1Z" fill="url(#paint2_linear_52_108)"/>
<path d="M2.4751 45.9967L2.00002 43.9579C4.96325 43.3158 7.8923 42.6803 10.8521 42.0415C10.8931 41.7106 10.9102 41.3829 10.9752 41.0652C11.4366 38.7616 14.099 37.6958 16.0745 39.0528C16.4676 39.3209 16.7137 39.2977 17.093 39.0925C21.0714 36.9677 25.0565 34.8527 29.0451 32.751C29.3971 32.5657 29.5509 32.3671 29.5749 31.9467C29.6979 29.5935 32.1724 28.1968 34.3324 29.2658C34.7597 29.4777 34.9716 29.3684 35.2723 29.1202C37.3504 27.4223 39.4387 25.7343 41.5816 24C42.043 24.5263 42.4976 25.0393 43 25.6119C41.7559 26.6246 40.5392 27.6143 39.319 28.6039C38.3552 29.385 37.3811 30.1562 36.431 30.9538C36.2669 31.0928 36.0926 31.351 36.1097 31.5363C36.2601 33.0323 35.7577 34.2106 34.3632 34.9222C32.9858 35.6206 31.711 35.3194 30.5353 34.3761C27.3294 36.0773 24.1269 37.7752 20.9244 39.4732C19.923 40.0027 18.9284 40.5455 17.9167 41.0618C17.6057 41.2207 17.469 41.3928 17.4519 41.7635C17.3562 44.2524 14.6015 45.6227 12.4038 44.322C12.1167 44.1498 11.6724 44.0704 11.3443 44.1366C8.62029 44.6927 5.90656 45.295 3.1894 45.8809C2.97066 45.9272 2.74851 45.9537 2.46825 46L2.4751 45.9967ZM33.9326 32.0858C33.9394 31.4933 33.478 31.0333 32.8628 31.0299C32.2578 31.0233 31.7588 31.4867 31.752 32.0626C31.7452 32.6219 32.2613 33.1316 32.8389 33.1383C33.4336 33.1449 33.9257 32.6716 33.9326 32.0858ZM14.2084 40.5919C13.6035 40.5852 13.1045 41.0486 13.0942 41.6245C13.0874 42.1838 13.6 42.6936 14.1777 42.7035C14.7724 42.7101 15.2645 42.2368 15.2748 41.6543C15.285 41.0618 14.8202 40.6018 14.205 40.5952L14.2084 40.5919Z" fill="url(#paint3_linear_52_108)"/>
<path d="M26.9999 54.4983C26.9999 51.8208 26.9999 49.1433 26.9999 46.4658C26.9999 45.3691 27.3576 45 28.4207 45C31.8057 45 35.1941 45 38.5791 45C39.6422 45 39.9999 45.3725 39.9999 46.4658C39.9999 51.8208 39.9999 57.1757 39.9999 62.5342C39.9999 63.6309 39.6388 64 38.5791 64C35.1941 64 31.8057 64 28.4207 64C27.3576 64 26.9999 63.6274 26.9999 62.5342C26.9999 59.8567 26.9999 57.1792 26.9999 54.5017V54.4983ZM29.2138 47.2631V61.7055H37.7995V47.2631H29.2138Z" fill="url(#paint4_linear_52_108)"/>
<path d="M15.5001 63.997C13.7864 63.997 12.0692 64.0004 10.3555 63.997C9.38387 63.997 9.00602 63.6131 9.00265 62.6348C8.99928 59.5436 8.99928 56.4559 9.00265 53.3647C9.00265 52.3864 9.38387 52.0059 10.3555 52.0025C13.7864 51.9991 17.2139 51.9991 20.6448 52.0025C21.6164 52.0025 21.9976 52.3864 21.9976 53.3647C22.001 56.4559 22.001 59.5436 21.9976 62.6348C21.9976 63.6131 21.6164 63.9936 20.6448 63.997C18.931 64.0038 17.2139 63.997 15.5001 63.997ZM11.1955 61.7686H19.7778V54.2207H11.1955V61.7686Z" fill="url(#paint5_linear_52_108)"/>
<path d="M45.0002 13.9983C44.9969 9.02065 48.8258 4.9895 53.5515 5.00002C58.1746 5.01053 61.9969 9.06973 62.0002 13.9702C62.0002 18.9408 58.2077 22.993 53.5448 23C48.8191 23.007 45.0035 18.9864 45.0002 13.9947V13.9983ZM53.5184 7.25045C49.9972 7.25045 47.1347 10.2615 47.1247 13.9807C47.1148 17.6999 49.9807 20.7566 53.4787 20.7531C57.0229 20.7531 59.8822 17.7104 59.8756 13.9492C59.8657 10.2791 56.9965 7.25045 53.5217 7.25045H53.5184Z" fill="url(#paint6_linear_52_108)"/>
<path d="M58.0002 13.9938C58.0072 16.1994 55.9745 18.0062 53.4933 18C51.0365 17.9968 49.0214 16.218 49.0003 14.0405C48.9828 11.8256 50.991 10.0094 53.4722 10C55.9605 9.99067 57.9932 11.7819 58.0002 13.9906V13.9938ZM55.7467 14.0062C55.7467 12.9128 54.7514 12.0187 53.5213 12.0062C52.2701 11.9938 51.2363 12.9159 51.2538 14.028C51.2678 15.1184 52.2842 16.0031 53.5143 16C54.7304 16 55.7502 15.0872 55.7502 14.0062H55.7467Z" fill="url(#paint7_linear_52_108)"/>
<defs>
<linearGradient id="paint0_linear_52_108" x1="33.9999" y1="-1.52245" x2="33.9999" y2="68.2372" gradientUnits="userSpaceOnUse">
<stop stop-color="#00EFD1"/>
<stop offset="1" stop-color="#00ACEA"/>
</linearGradient>
<linearGradient id="paint1_linear_52_108" x1="33.9999" y1="-1.52245" x2="33.9999" y2="68.2372" gradientUnits="userSpaceOnUse">
<stop stop-color="#00EFD1"/>
<stop offset="1" stop-color="#00ACEA"/>
</linearGradient>
<linearGradient id="paint2_linear_52_108" x1="33.9999" y1="-1.52245" x2="33.9999" y2="68.2372" gradientUnits="userSpaceOnUse">
<stop stop-color="#00EFD1"/>
<stop offset="1" stop-color="#00ACEA"/>
</linearGradient>
<linearGradient id="paint3_linear_52_108" x1="33.9999" y1="-1.52245" x2="33.9999" y2="68.2372" gradientUnits="userSpaceOnUse">
<stop stop-color="#00EFD1"/>
<stop offset="1" stop-color="#00ACEA"/>
</linearGradient>
<linearGradient id="paint4_linear_52_108" x1="33.9999" y1="-1.52245" x2="33.9999" y2="68.2372" gradientUnits="userSpaceOnUse">
<stop stop-color="#00EFD1"/>
<stop offset="1" stop-color="#00ACEA"/>
</linearGradient>
<linearGradient id="paint5_linear_52_108" x1="33.9999" y1="-1.52245" x2="33.9999" y2="68.2372" gradientUnits="userSpaceOnUse">
<stop stop-color="#00EFD1"/>
<stop offset="1" stop-color="#00ACEA"/>
</linearGradient>
<linearGradient id="paint6_linear_52_108" x1="33.9999" y1="-1.52245" x2="33.9999" y2="68.2372" gradientUnits="userSpaceOnUse">
<stop stop-color="#00EFD1"/>
<stop offset="1" stop-color="#00ACEA"/>
</linearGradient>
<linearGradient id="paint7_linear_52_108" x1="33.9999" y1="-1.52245" x2="33.9999" y2="68.2372" gradientUnits="userSpaceOnUse">
<stop stop-color="#00EFD1"/>
<stop offset="1" stop-color="#00ACEA"/>
</linearGradient>
</defs>
</svg>
