<svg width="63" height="67" viewBox="0 0 63 67" fill="none" xmlns="http://www.w3.org/2000/svg">
<path d="M46 47.2934C46 47.5781 46.1141 47.8511 46.3173 48.0524C46.5204 48.2537 46.796 48.3667 47.0832 48.3667H51.328C50.9419 49.1718 50.1888 49.5743 49.3248 49.5743H47.0832C46.8651 49.5784 46.653 49.6465 46.4739 49.7701C46.2948 49.8936 46.1567 50.067 46.0771 50.2684C45.9974 50.4697 45.9799 50.6899 46.0265 50.9011C46.0732 51.1123 46.1821 51.3051 46.3393 51.455L51.9417 56.7055C52.0448 56.8024 52.1662 56.8783 52.299 56.9288C52.4317 56.9793 52.5731 57.0034 52.7152 56.9996C52.8574 56.9959 52.9973 56.9644 53.1272 56.9071C53.257 56.8497 53.3742 56.7675 53.4719 56.6652C53.5697 56.563 53.6462 56.4426 53.6969 56.3111C53.7477 56.1795 53.7719 56.0393 53.7679 55.8985C53.764 55.7577 53.7321 55.619 53.674 55.4904C53.616 55.3618 53.5329 55.2458 53.4296 55.1491L49.782 51.7038C50.6978 51.6225 51.5639 51.2558 52.2561 50.6562C52.9483 50.0566 53.4309 49.2551 53.6346 48.3667H54.9168C55.204 48.3667 55.4796 48.2537 55.6827 48.0524C55.8859 47.8511 56 47.5781 56 47.2934C56 47.0087 55.8859 46.7357 55.6827 46.5344C55.4796 46.3331 55.204 46.22 54.9168 46.22H53.6349C53.5438 45.833 53.3752 45.468 53.139 45.1467H54.9168C55.204 45.1467 55.4796 45.0336 55.6827 44.8323C55.8859 44.631 56 44.358 56 44.0733C56 43.7887 55.8859 43.5157 55.6827 43.3144C55.4796 43.1131 55.204 43 54.9168 43H47.0832C46.796 43 46.5204 43.1131 46.3173 43.3144C46.1141 43.5157 46 43.7887 46 44.0733C46 44.358 46.1141 44.631 46.3173 44.8323C46.5204 45.0336 46.796 45.1467 47.0832 45.1467H49.3248C50.1889 45.1467 50.9419 45.5492 51.328 46.22H47.0832C46.796 46.22 46.5204 46.3331 46.3173 46.5344C46.1141 46.7357 46 47.0087 46 47.2934Z" fill="url(#paint0_linear_52_113)"/>
<path d="M42.4296 56.9302C40.0319 58.5587 37.5771 59.683 34.9111 60.3473C22.369 63.4714 9.61895 55.0497 7.36205 42.1444C5.27952 30.234 12.3655 18.9164 23.8747 15.7685C36.172 12.4025 49.0562 20.4393 51.6685 33.1265C51.8899 34.1928 51.9972 35.2864 52.1112 36.3698C52.1581 36.8059 52.2822 36.9898 52.7416 37.0478C58.5902 37.8143 63.0034 42.9519 63 48.965C62.9933 55.0054 58.5566 60.1327 52.6544 60.8788C48.8482 61.3592 45.5819 60.1634 42.822 57.4856C42.661 57.3288 42.5571 57.1176 42.4296 56.9337V56.9302ZM30.6924 58.7495C34.5086 58.5281 37.9292 57.3629 41.0345 55.2302C38.9151 51.377 38.6435 47.483 40.5617 43.589C42.4866 39.6813 45.7328 37.5418 49.9583 36.9422C49.7336 26.9941 41.1486 16.644 28.6333 17.2471C16.3326 17.8364 9.28361 28.5408 9.29702 36.9422H15.5681V39.1123H9.24C9.7229 50.6241 19.5621 58.6303 28.5629 58.6439V52.2731H30.6957V58.7495H30.6924ZM60.8437 48.9411C60.8437 43.531 56.4976 39.1089 51.1756 39.0987C45.8167 39.0885 41.4537 43.514 41.4537 48.9548C41.4537 54.3649 45.7999 58.7904 51.1219 58.8006C56.4808 58.8108 60.8471 54.3819 60.8437 48.9411Z" fill="url(#paint1_linear_52_113)"/>
<path d="M26.1878 8.81727V6.48471C25.7797 6.48471 25.4022 6.49816 25.0213 6.48471C23.246 6.41749 21.8448 4.98233 21.8516 3.24131C21.855 1.5003 23.263 0.0416113 25.0417 0.0214451C28.0005 -0.00880421 30.9593 -0.00544317 33.9181 0.0214451C35.7342 0.0382502 37.1524 1.50702 37.1422 3.27829C37.132 5.01594 35.7173 6.4343 33.9352 6.48807C33.5747 6.49816 33.2142 6.48807 32.8162 6.48807V8.79374C44.1754 10.5448 52.1914 16.588 56.9153 27.024C57.1058 26.5803 57.286 26.1636 57.4595 25.7434C57.6295 25.33 57.7962 24.9166 57.9832 24.4595L60 25.246C59.864 25.5989 59.7381 25.9249 59.6089 26.2476C59.0375 27.6659 58.4729 29.0877 57.888 30.4993C57.5819 31.2387 56.997 31.5513 56.3814 31.2051C54.5075 30.1531 52.6675 29.0406 50.7902 27.9348C51.1745 27.3029 51.5214 26.7282 51.9125 26.0863L54.6401 27.6861C51.229 18.0736 39.0298 8.26942 23.9024 11.3885C8.59814 14.5478 -0.917707 29.6658 3.10561 44.6459C5.33323 52.9409 10.5231 58.9504 18.4405 62.4526C26.3442 65.9481 34.2582 65.5212 42.026 61.8208C42.0872 61.8846 42.1484 61.9249 42.1756 61.9787C42.4647 62.5131 42.747 63.0509 43.0939 63.7097C34.1664 67.9345 25.2389 68.2 16.3557 63.871C5.47605 58.5706 -0.608218 47.5128 0.0481641 36.1996C0.459678 29.1078 3.15324 22.937 8.09481 17.7744C13.016 12.632 19.0934 9.69786 26.1912 8.81055L26.1878 8.81727ZM29.4255 4.32693C30.8369 4.32693 32.2483 4.33365 33.6563 4.32693C34.4589 4.32357 34.9486 3.90008 34.9486 3.24804C34.9486 2.596 34.4589 2.17251 33.6563 2.17251C30.8811 2.16578 28.1025 2.16578 25.3274 2.17251C24.5247 2.17251 24.035 2.596 24.035 3.24804C24.035 3.90344 24.5247 4.32021 25.3274 4.32693C26.6911 4.33365 28.0583 4.32693 29.4221 4.32693H29.4255ZM30.5444 8.64922V6.53513H28.4528V8.64922H30.5444Z" fill="url(#paint2_linear_52_113)"/>
<path d="M28.2384 20H30.3944C30.3944 20.2352 30.3944 20.4638 30.3944 20.6958C30.3944 24.805 30.4011 28.9175 30.3843 33.0268C30.3843 33.5167 30.4615 33.8238 31.0022 33.9904C31.3951 34.1112 31.7712 34.3595 32.0835 34.6339C32.4093 34.9213 32.6444 34.9083 33.0171 34.7123C36.7918 32.7361 40.5798 30.7827 44.3612 28.8228C44.556 28.7215 44.7575 28.6301 45.0026 28.5092C45.3351 29.1102 45.6474 29.6819 46 30.3254C45.7548 30.4626 45.5298 30.5932 45.3015 30.7141C41.5201 32.6773 37.7388 34.6437 33.9507 36.597C33.6283 36.7636 33.5209 36.9041 33.578 37.2895C33.8936 39.4095 32.4362 41.4151 30.2835 41.892C28.094 42.3787 25.9145 41.1799 25.216 39.1024C24.5276 37.0544 25.5283 34.8331 27.597 34.01C28.1544 33.7879 28.2485 33.5135 28.2451 33.0006C28.2283 28.911 28.235 24.8246 28.235 20.735C28.235 20.4998 28.235 20.2679 28.235 20.0033L28.2384 20ZM29.3097 35.7118C28.1376 35.7118 27.1671 36.6591 27.1604 37.7991C27.1537 38.9391 28.1175 39.8929 29.2862 39.906C30.4817 39.9191 31.4824 38.9489 31.469 37.786C31.4589 36.6493 30.4783 35.7086 29.3063 35.7118H29.3097Z" fill="url(#paint3_linear_52_113)"/>
<defs>
<linearGradient id="paint0_linear_52_113" x1="31.4999" y1="-1.50007" x2="31.4999" y2="67.2337" gradientUnits="userSpaceOnUse">
<stop stop-color="#00EFD1"/>
<stop offset="1" stop-color="#00ACEA"/>
</linearGradient>
<linearGradient id="paint1_linear_52_113" x1="31.4999" y1="-1.50007" x2="31.4999" y2="67.2337" gradientUnits="userSpaceOnUse">
<stop stop-color="#00EFD1"/>
<stop offset="1" stop-color="#00ACEA"/>
</linearGradient>
<linearGradient id="paint2_linear_52_113" x1="31.4999" y1="-1.50007" x2="31.4999" y2="67.2337" gradientUnits="userSpaceOnUse">
<stop stop-color="#00EFD1"/>
<stop offset="1" stop-color="#00ACEA"/>
</linearGradient>
<linearGradient id="paint3_linear_52_113" x1="31.4999" y1="-1.50007" x2="31.4999" y2="67.2337" gradientUnits="userSpaceOnUse">
<stop stop-color="#00EFD1"/>
<stop offset="1" stop-color="#00ACEA"/>
</linearGradient>
</defs>
</svg>
