<svg width="120" height="121" viewBox="0 0 120 121" fill="none" xmlns="http://www.w3.org/2000/svg">
<mask id="mask0_38_150" style="mask-type:alpha" maskUnits="userSpaceOnUse" x="0" y="0" width="120" height="121">
<rect y="0.363281" width="120" height="120" fill="url(#paint0_linear_38_150)"/>
</mask>
<g mask="url(#mask0_38_150)">
<path d="M73.8022 118.081C71.2822 118.081 68.8022 117.621 66.6622 116.331C62.1422 113.611 57.8722 113.861 53.2722 116.311C48.1022 119.071 42.8222 118.651 37.8322 115.551C35.5622 114.141 33.8622 112.171 32.5722 109.841C31.9922 108.801 31.4622 107.731 30.8422 106.711C28.8822 103.471 25.7522 102.331 22.2022 101.801C15.3922 100.791 10.2922 96.3309 8.99217 89.9009C8.51217 87.5309 8.61217 84.9609 8.93217 82.5409C9.47217 78.5609 8.66217 75.1809 5.70217 72.3809C2.80217 69.6309 0.692168 66.4409 0.152168 62.3609C-0.447832 57.8309 0.732167 53.8209 3.59217 50.3009C4.25217 49.4809 4.99217 48.7109 5.75217 47.9909C8.65217 45.2209 9.62217 41.8609 8.88217 37.9609C7.99217 33.2909 8.59217 28.9109 11.4222 24.9809C14.0322 21.3709 17.6122 19.2009 21.9922 18.6809C26.8022 18.1109 29.9922 15.7409 32.2022 11.4109C36.5722 2.80094 45.1422 0.0909438 53.8522 4.34094C56.5522 5.66094 59.2322 6.79094 62.2722 5.91094C63.5822 5.53094 64.8422 4.95094 66.0822 4.35094C74.8522 0.100944 83.3822 2.77094 87.8522 11.4509C89.9322 15.4909 92.8122 18.0709 97.4022 18.5409C106.012 19.4209 113.222 27.1209 111.152 37.8709C110.392 41.8309 111.372 45.2109 114.302 48.0209C117.182 50.7809 119.302 53.9709 119.842 58.0509C120.452 62.5909 119.252 66.591 116.412 70.1209C115.722 70.9809 114.952 71.771 114.162 72.5409C111.342 75.2509 110.392 78.5409 111.102 82.3309C111.912 86.6809 111.532 90.8209 109.122 94.6509C106.262 99.1909 101.962 101.351 96.8122 102.021C92.8222 102.541 90.0522 104.621 88.3322 108.201C86.5722 111.861 84.1522 114.951 80.3122 116.541C78.2722 117.391 76.0422 117.791 73.9022 118.391L73.8022 118.051V118.081ZM105.912 34.0309C105.802 33.2409 105.772 32.4509 105.562 31.7009C104.312 27.1409 101.172 24.7309 96.6022 24.1409C90.3122 23.3209 85.7822 20.1609 83.0822 14.4009C82.8322 13.8609 82.5322 13.3409 82.2222 12.8309C79.5922 8.51094 74.3922 6.85094 69.7522 8.87094C68.6222 9.36094 67.5322 9.96094 66.3922 10.4609C62.0822 12.3509 57.7622 12.3409 53.4622 10.3909C52.3322 9.88094 51.2422 9.28094 50.1022 8.81094C45.4422 6.86094 40.2622 8.60094 37.6922 12.9709C37.1622 13.8809 36.6922 14.8309 36.1822 15.7509C33.7022 20.2609 29.9222 22.9609 24.8522 23.8709C23.7222 24.0709 22.5822 24.2309 21.4722 24.5209C16.2222 25.9009 13.3122 30.7609 14.3822 36.6409C15.5022 42.7809 13.9422 47.9809 9.41217 52.2909C9.14217 52.5409 8.89217 52.8109 8.64217 53.0809C4.56217 57.3809 4.56217 63.0609 8.66217 67.3909C9.26217 68.0209 9.89217 68.6309 10.4722 69.2809C13.7922 72.9109 15.1722 77.1409 14.6222 82.0609C14.3822 84.2309 14.0722 86.5009 14.4422 88.6109C15.1822 92.8809 18.5622 95.6709 23.3722 96.3109C29.5422 97.1309 34.0522 100.181 36.7722 105.811C37.0722 106.431 37.3922 107.041 37.7622 107.621C39.9622 111.061 43.1122 112.811 47.1722 112.311C48.9822 112.091 50.7822 111.311 52.4422 110.491C57.5022 107.991 62.4822 107.961 67.5022 110.511C68.2422 110.881 68.9722 111.261 69.7322 111.581C74.3722 113.581 79.5822 111.921 82.1922 107.591C82.8322 106.531 83.3622 105.411 83.9822 104.331C86.4722 100.011 90.1922 97.4409 95.1022 96.5809C96.2322 96.381 97.3722 96.2209 98.4722 95.9209C103.732 94.5309 106.632 89.671 105.562 83.8009C104.442 77.6609 105.992 72.461 110.542 68.1609C110.912 67.811 111.252 67.4409 111.592 67.0709C115.242 63.0509 115.272 57.5009 111.662 53.4609C110.932 52.6409 110.122 51.8809 109.382 51.0709C106.122 47.4609 104.712 43.2509 105.352 38.4009C105.542 36.9509 105.702 35.4909 105.882 34.0309H105.912Z" fill="url(#paint1_linear_38_150)"/>
<path d="M36.752 80.1608C37.042 79.7208 37.472 78.8008 38.132 78.1308C45.272 70.9308 52.452 63.7708 59.632 56.6008C65.702 50.5308 71.7619 44.4608 77.8419 38.4008C78.2919 37.9508 78.7719 37.4608 79.3419 37.2208C80.5419 36.7108 81.702 36.9208 82.582 37.9608C83.412 38.9408 83.472 40.0508 82.862 41.1608C82.622 41.5908 82.252 41.9608 81.892 42.3108C68.6219 55.5908 55.352 68.8508 42.092 82.1408C41.112 83.1208 40.062 83.7808 38.672 83.3108C37.472 82.9108 36.832 81.9908 36.762 80.1608H36.752Z" fill="url(#paint2_linear_38_150)"/>
<path d="M36.572 40.7908C36.572 34.1308 41.902 28.8008 48.552 28.8108C55.192 28.8108 60.552 34.2108 60.522 40.8308C60.492 47.3808 55.122 52.7508 48.582 52.7708C41.962 52.7908 36.572 47.4208 36.562 40.7908H36.572ZM54.842 40.7408C54.832 37.2508 52.042 34.4408 48.582 34.4108C45.112 34.3808 42.162 37.3208 42.182 40.7908C42.202 44.2508 45.012 47.0608 48.492 47.0808C52.072 47.1008 54.862 44.3208 54.842 40.7408Z" fill="url(#paint3_linear_38_150)"/>
<path d="M71.4519 91.6509C64.8419 91.6509 59.472 86.2609 59.4819 79.6609C59.4919 73.0809 64.9119 67.6709 71.4919 67.6809C78.1019 67.6909 83.4419 73.0709 83.4419 79.6909C83.4419 86.3309 78.0919 91.6509 71.4619 91.6509H71.4519ZM71.4819 73.3609C67.9719 73.3509 65.202 76.0909 65.1619 79.5909C65.1219 83.1509 67.9319 86.0109 71.4619 86.0209C74.9019 86.0209 77.7619 83.2109 77.8219 79.7509C77.8919 76.2609 75.0219 73.3709 71.4819 73.3609Z" fill="url(#paint4_linear_38_150)"/>
</g>
<defs>
<linearGradient id="paint0_linear_38_150" x1="60" y1="0.363281" x2="60" y2="120.363" gradientUnits="userSpaceOnUse">
<stop stop-color="#00EFD1"/>
<stop offset="1" stop-color="#00ACEA"/>
</linearGradient>
<linearGradient id="paint1_linear_38_150" x1="63.5" y1="5" x2="71.4619" y2="91.6509" gradientUnits="userSpaceOnUse">
<stop stop-color="#00EFD1"/>
<stop offset="1" stop-color="#00ACEA"/>
</linearGradient>
<linearGradient id="paint2_linear_38_150" x1="63.5" y1="5" x2="71.4619" y2="91.6509" gradientUnits="userSpaceOnUse">
<stop stop-color="#00EFD1"/>
<stop offset="1" stop-color="#00ACEA"/>
</linearGradient>
<linearGradient id="paint3_linear_38_150" x1="63.5" y1="5" x2="71.4619" y2="91.6509" gradientUnits="userSpaceOnUse">
<stop stop-color="#00EFD1"/>
<stop offset="1" stop-color="#00ACEA"/>
</linearGradient>
<linearGradient id="paint4_linear_38_150" x1="63.5" y1="5" x2="71.4619" y2="91.6509" gradientUnits="userSpaceOnUse">
<stop stop-color="#00EFD1"/>
<stop offset="1" stop-color="#00ACEA"/>
</linearGradient>
</defs>
</svg>
