<svg width="90" height="90" viewBox="0 0 90 90" fill="none" xmlns="http://www.w3.org/2000/svg">
<mask id="mask0_45_38" style="mask-type:alpha" maskUnits="userSpaceOnUse" x="0" y="0" width="90" height="90">
<rect width="90" height="90" fill="#D9D9D9"/>
</mask>
<g mask="url(#mask0_45_38)">
<path d="M85.8952 85.8564C86.6511 85.8564 87.2583 85.8281 87.8603 85.8615C89.1209 85.931 89.9791 86.7615 89.9996 87.8902C90.0201 89.0498 89.1362 89.9112 87.8322 89.9909C87.5785 90.0063 87.3198 89.996 87.0661 89.996C59.0373 89.996 31.0085 89.996 2.97971 89.996C2.69276 89.996 2.40325 90.0089 2.1163 89.9883C0.866023 89.8983 0.00517561 89.0601 5.1511e-05 87.9339C-0.00763463 86.8052 0.845527 85.9413 2.09581 85.8641C2.72607 85.8255 3.3589 85.8564 4.10701 85.8564C4.10701 85.3705 4.10701 84.9925 4.10701 84.6171C4.10701 75.0085 4.10701 65.4 4.10701 55.7914C4.10701 53.5622 4.68347 52.9734 6.86634 52.9708C13.2253 52.9708 19.5869 52.9708 25.9459 52.9708C27.9904 52.9708 28.654 53.6316 28.654 55.6783C28.654 65.3203 28.654 74.9597 28.654 84.6017V85.7896H32.7302V84.6248C32.7302 70.9023 32.7302 57.1799 32.7302 43.4574C32.7302 41.2436 33.3272 40.6265 35.4921 40.6265C41.8511 40.6265 48.2127 40.6265 54.5717 40.6265C56.6341 40.6265 57.2772 41.2693 57.2772 43.3211C57.2772 57.0744 57.2772 70.8303 57.2772 84.5837V85.7844H61.3534V84.5425C61.3534 66.8038 61.3534 49.0652 61.3534 31.3239C61.3534 30.9717 61.3355 30.6143 61.3713 30.2646C61.4917 29.0561 62.2347 28.3028 63.4415 28.3002C70.2488 28.2822 77.0562 28.2796 83.8635 28.3002C85.1215 28.3053 85.8338 29.0973 85.8927 30.3829C85.9081 30.7351 85.9004 31.0899 85.9004 31.4422C85.9004 49.1166 85.9004 66.7936 85.9004 84.468V85.8487L85.8952 85.8564ZM81.7934 32.4424H65.5526V85.7716H81.7934V32.4424ZM36.8653 44.7841V85.7973H53.1395V44.7841H36.8653ZM8.23191 57.1053V85.7973H24.4445V57.1053H8.23191Z" fill="url(#paint0_linear_45_38)"/>
<path d="M82.5562 4.12677C79.0031 4.12677 75.7166 4.12932 72.4276 4.12165C72.0148 4.12165 71.5919 4.11398 71.1894 4.02705C70.2101 3.81229 69.5795 2.99159 69.5974 2.02515C69.6153 1.0945 70.228 0.322376 71.1663 0.102499C71.5047 0.023241 71.861 0.00534397 72.2122 0.00534397C77.265 0.000230538 82.3152 -0.00232618 87.368 0.00278725C89.5803 0.00278725 90.3776 1.04081 89.8366 3.19101C88.5395 8.35813 87.2526 13.5278 85.94 18.6898C85.576 20.1241 84.4301 20.7838 83.2253 20.3261C82.1691 19.9247 81.6845 18.9634 81.9819 17.7592C82.7587 14.6042 83.5508 11.4518 84.3917 8.082C84.0353 8.34279 83.8174 8.48085 83.6252 8.64704C67.744 22.1644 49.8914 32.1765 30.0649 38.6577C21.0925 41.5903 11.9149 43.6663 2.56567 44.9703C1.23518 45.1569 0.212326 44.4513 0.025187 43.2368C-0.149134 42.0991 0.591732 41.1326 1.92734 40.9383C8.25162 40.0179 14.5169 38.8086 20.6951 37.1544C43.6004 31.0208 64.0089 20.1804 81.9512 4.6918C82.0896 4.57163 82.2203 4.43869 82.5562 4.1191V4.12677Z" fill="url(#paint1_linear_45_38)"/>
</g>
<defs>
<linearGradient id="paint0_linear_45_38" x1="44.9998" y1="-2.01501" x2="44.9998" y2="90.3139" gradientUnits="userSpaceOnUse">
<stop stop-color="#00EFD1"/>
<stop offset="1" stop-color="#00ACEA"/>
</linearGradient>
<linearGradient id="paint1_linear_45_38" x1="44.9998" y1="-2.01501" x2="44.9998" y2="90.3139" gradientUnits="userSpaceOnUse">
<stop stop-color="#00EFD1"/>
<stop offset="1" stop-color="#00ACEA"/>
</linearGradient>
</defs>
</svg>
