<svg width="67" height="55" viewBox="0 0 67 55" fill="none" xmlns="http://www.w3.org/2000/svg">
<path d="M26.7411 34.4656C26.7371 34.854 26.8834 35.2281 27.1477 35.5054C27.4121 35.7828 27.7728 35.9408 28.1506 35.9446L33.7321 36.0014C33.2133 37.0946 32.2174 37.6337 31.0813 37.6221L28.1338 37.5921C27.8469 37.5948 27.5671 37.685 27.3298 37.8511C27.0926 38.0173 26.9086 38.252 26.8011 38.5257C26.6936 38.7993 26.6674 39.0995 26.7259 39.3883C26.7843 39.6771 26.9248 39.9416 27.1295 40.1483L34.4234 47.3869C34.5576 47.5206 34.7162 47.6258 34.89 47.6964C35.0638 47.7671 35.2495 47.8018 35.4364 47.7986C35.6233 47.7954 35.8078 47.7544 35.9793 47.6778C36.1509 47.6013 36.3061 47.4908 36.436 47.3525C36.566 47.2143 36.6682 47.0511 36.7368 46.8723C36.8055 46.6935 36.8391 46.5025 36.8359 46.3103C36.8327 46.1181 36.7927 45.9285 36.7181 45.7523C36.6436 45.5761 36.5359 45.4167 36.4014 45.2833L31.653 40.5338C32.8582 40.4352 34.0023 39.9464 34.9208 39.1376C35.8393 38.3288 36.4851 37.2416 36.7652 36.0323L38.4512 36.0495C38.8289 36.0533 39.1928 35.9027 39.4627 35.6308C39.7327 35.3589 39.8865 34.9879 39.8905 34.5995C39.8944 34.2111 39.7482 33.8371 39.4838 33.5597C39.2195 33.2824 38.8588 33.1244 38.481 33.1205L36.7954 33.1034C36.681 32.5741 36.4643 32.0738 36.1583 31.6323L38.4959 31.6561C38.8737 31.6599 39.2376 31.5093 39.5075 31.2374C39.7774 30.9655 39.9313 30.5945 39.9352 30.2061C39.9392 29.8177 39.7929 29.4437 39.5286 29.1663C39.2642 28.889 38.9035 28.731 38.5257 28.7271L28.2251 28.6223C27.8474 28.6184 27.4835 28.769 27.2136 29.0409C26.9436 29.3129 26.7898 29.6838 26.7858 30.0722C26.7819 30.4606 26.9282 30.8347 27.1925 31.112C27.4568 31.3894 27.8176 31.5474 28.1953 31.5512L31.1428 31.5812C32.2791 31.5928 33.2636 32.152 33.7619 33.0725L28.1804 33.0157C27.8026 33.0118 27.4388 33.1624 27.1688 33.4343C26.8989 33.7063 26.7451 34.0772 26.7411 34.4656Z" fill="url(#paint0_linear_52_130)"/>
<path d="M18.4876 55C16.5551 54.9837 15.0345 54.5519 13.837 53.6794C12.6451 52.8107 11.7669 51.4984 11.1531 49.6665L9.84443 45.7642C7.76896 39.5777 5.62257 33.1811 3.53953 26.871C3.49478 26.7347 3.45927 26.6372 3.43118 26.5662C2.47388 26.6893 1.59609 26.4564 0.95715 25.9094C0.344771 25.3872 0.00510207 24.6172 4.97405e-05 23.7425C-0.00913057 21.9968 1.25314 20.861 3.21548 20.8493C4.23107 20.8437 5.24669 20.8343 6.26232 20.824L6.27953 20.8242C8.50204 20.8033 10.7991 20.7821 13.0663 20.7984C13.2221 20.7997 13.2682 20.7831 13.2711 20.7822C13.2711 20.7822 13.3182 20.7486 13.4257 20.5929C16.8895 15.5684 20.4314 10.4729 23.8562 5.5462L26.3111 2.01441C26.3334 1.98252 26.3634 1.92993 26.3964 1.8736L26.412 1.84636C26.6177 1.49426 26.9582 0.910245 27.6473 0.610345C27.6637 0.598217 27.682 0.584217 27.7003 0.570218C28.3036 0.121456 29.2737 -0.380826 30.7328 0.432564C32.445 1.38679 32.1445 2.89112 32.0457 3.38566C32.0347 3.4384 32.0207 3.50999 32.0176 3.53922C31.9831 4.34095 31.5155 4.90692 31.2063 5.28268L31.1899 5.30235C31.13 5.3745 31.074 5.44197 31.0372 5.49544C28.8824 8.5995 26.7257 11.7035 24.5689 14.8076L20.4762 20.6995L46.3721 20.5179C44.3137 17.6425 42.2552 14.769 40.1967 11.8955L35.593 5.46876C35.5571 5.41845 35.5022 5.35383 35.4435 5.28445L35.4217 5.25879C35.1064 4.88909 34.6292 4.32836 34.5833 3.52501C34.5492 2.92367 34.5761 1.43496 35.5616 0.580865C36.5017 -0.233044 37.8051 0.110084 38.8355 0.500917C39.5733 0.77983 39.9392 1.38585 40.158 1.74719L40.1731 1.77185C40.2061 1.82686 40.2382 1.87902 40.2608 1.9113L42.9583 5.67054C46.3731 10.4294 49.9041 15.3506 53.3506 20.2098C53.5718 20.5211 53.5957 20.5213 53.9017 20.5135C56.3894 20.4581 58.9111 20.4491 61.3497 20.4405L61.3621 20.4406C62.1615 20.4379 62.961 20.4342 63.7605 20.4306C63.7796 20.4308 63.8016 20.431 63.8236 20.4311C65.6384 20.4465 66.8739 21.5825 66.8989 23.2585C66.924 24.9392 65.7131 26.1066 63.8842 26.1704C63.7808 26.1789 63.6527 26.1826 63.5017 26.1643C63.4753 26.2339 63.4439 26.3261 63.4066 26.4447C61.4432 32.7019 59.4169 39.0538 57.4564 45.1959L56.1324 49.3439C54.9419 53.0779 52.6442 54.7569 48.6812 54.7886C38.8789 54.8663 28.7889 54.9369 18.6913 54.9989C18.6243 54.9993 18.5555 54.9996 18.4885 54.9991L18.4876 55ZM3.60594 24.6664C4.72372 24.6759 5.08713 25.4659 5.35847 26.2871C7.4406 32.5926 9.58604 38.9873 11.6606 45.1719L12.9693 49.0741C13.9347 51.9554 15.4867 53.0876 18.5035 53.113C18.5609 53.1135 18.6182 53.114 18.6766 53.1135C28.7742 53.0515 38.8633 52.98 48.6655 52.9032C51.7879 52.8786 53.3698 51.7219 54.3088 48.7794L55.6328 44.6304C57.5923 38.4902 59.6186 32.1411 61.5801 25.8877C61.867 24.9739 62.2939 24.0226 63.726 24.2904C63.7317 24.2905 63.7375 24.2896 63.7413 24.2887L63.8006 24.2854C64.5974 24.2629 64.997 23.9266 64.9881 23.2849C64.9844 23.048 64.9742 22.327 63.8096 22.3172L63.7771 22.3169C62.9738 22.3215 62.1724 22.3242 61.372 22.3278L61.3596 22.3277C58.9296 22.3364 56.4175 22.3464 53.9499 22.401C52.9896 22.425 52.3612 22.1027 51.7857 21.292C48.342 16.4367 44.8129 11.5183 41.399 6.76135L38.7016 3.00116C38.6354 2.90908 38.5807 2.81804 38.5326 2.73837L38.5185 2.71466C38.4081 2.53257 38.2723 2.3078 38.1532 2.26245C37.0675 1.85133 36.8281 1.99745 36.8262 1.99932C36.569 2.22266 36.4649 2.88228 36.4958 3.41848C36.5058 3.59501 36.7103 3.83451 36.8902 4.0455L36.911 4.07021C36.9887 4.16144 37.0758 4.26408 37.158 4.378L41.7617 10.8047C44.1425 14.1273 46.5233 17.4508 48.9021 20.7752C48.9362 20.8226 48.9711 20.872 49.0051 20.9223L49.994 22.378L16.8578 22.6109L17.8648 21.1295C17.921 21.046 17.9772 20.9653 18.0333 20.8846L22.9963 13.7394C25.153 10.6354 27.3097 7.53133 29.4646 4.42633C29.5468 4.30813 29.6347 4.20225 29.712 4.10855L29.7265 4.09074C29.9033 3.87616 30.1033 3.63347 30.1105 3.45803C30.1166 3.30711 30.1446 3.16487 30.1725 3.02734C30.2654 2.56295 30.2853 2.34893 29.7961 2.07683C29.2593 1.77792 29.1169 1.88428 28.8571 2.0774C28.7464 2.1595 28.6078 2.26401 28.4303 2.33423C28.3104 2.38228 28.1842 2.59918 28.0727 2.78978L28.0571 2.81701C28.0106 2.89776 27.9572 2.98884 27.8933 3.08077L25.4375 6.61349C22.0137 11.5392 18.4727 16.6329 15.0108 21.6546C14.5016 22.3938 13.9358 22.6928 13.0561 22.6864C10.8052 22.6702 8.51576 22.6915 6.3009 22.7115L6.28369 22.7113C5.26616 22.7207 4.24767 22.73 3.23016 22.7365C1.91046 22.7443 1.91397 23.4623 1.91551 23.7322C1.91749 24.0644 2.01768 24.3171 2.21231 24.4839C2.43542 24.6745 2.78669 24.7492 3.20026 24.6932C3.34674 24.6737 3.4826 24.6644 3.60882 24.6655L3.60594 24.6664Z" fill="url(#paint1_linear_52_130)"/>
<defs>
<linearGradient id="paint0_linear_52_130" x1="33.4495" y1="-1.2314" x2="33.4495" y2="55.1918" gradientUnits="userSpaceOnUse">
<stop stop-color="#00EFD1"/>
<stop offset="1" stop-color="#00ACEA"/>
</linearGradient>
<linearGradient id="paint1_linear_52_130" x1="33.4495" y1="-1.2314" x2="33.4495" y2="55.1918" gradientUnits="userSpaceOnUse">
<stop stop-color="#00EFD1"/>
<stop offset="1" stop-color="#00ACEA"/>
</linearGradient>
</defs>
</svg>
