<svg width="120" height="121" viewBox="0 0 120 121" fill="none" xmlns="http://www.w3.org/2000/svg">
<mask id="mask0_38_147" style="mask-type:alpha" maskUnits="userSpaceOnUse" x="0" y="0" width="120" height="121">
<rect y="0.363281" width="120" height="120" fill="url(#paint0_linear_38_147)"/>
</mask>
<g mask="url(#mask0_38_147)">
<path d="M108.035 119.849C104.545 119.399 102.095 117.279 99.7253 114.879C92.4553 107.519 85.0953 100.239 77.8153 92.8995C77.0653 92.1395 76.5453 91.9695 75.5853 92.5795C70.5053 95.7895 64.9653 97.9095 59.0753 99.0095C50.3453 100.649 41.7353 100.029 33.3353 97.0895C25.1753 94.2395 18.2253 89.5495 12.4853 83.0695C6.68532 76.5295 2.84532 68.9995 1.06532 60.4395C-3.18468 40.0795 5.44532 18.7395 24.0253 7.50948C32.4053 2.43948 41.5353 -0.0105228 51.2753 0.409477C66.1753 1.04948 78.5753 7.04948 88.2053 18.5495C88.5253 18.9395 88.8453 19.3195 89.3353 19.9195C90.3653 18.8095 91.3653 17.7895 92.2953 16.7095C92.4753 16.4995 92.5053 15.9995 92.3853 15.7195C90.1753 10.3095 93.1853 5.09948 98.9353 4.38948C102.175 3.98948 105.635 6.09948 106.855 9.33948C107.165 10.1695 107.585 10.3495 108.385 10.3395C112.075 10.3195 115.775 10.3395 119.465 10.3595V14.3295C115.655 14.3295 111.845 14.3295 108.035 14.2895C107.435 14.2895 107.175 14.4795 106.945 15.0495C105.165 19.5495 100.685 21.3495 96.1353 19.4695C95.8553 19.3595 95.3553 19.3895 95.1453 19.5695C93.9153 20.6895 92.7453 21.8695 91.5253 23.0495C92.0353 23.9195 92.4753 24.6495 92.8953 25.3895C97.3453 33.0995 99.5653 41.4395 99.5253 50.3195C99.4853 59.5695 97.0553 68.1995 92.1553 76.0895C91.6553 76.8995 91.6853 77.3395 92.3753 78.0295C99.8053 85.3995 107.155 92.8295 114.595 100.189C116.905 102.469 118.905 104.869 119.445 108.189V110.519C119.375 110.769 119.295 111.029 119.245 111.279C118.715 113.899 117.405 116.019 115.305 117.679C113.765 118.899 111.945 119.379 110.115 119.849H108.015H108.035ZM95.5853 49.9995C95.3853 24.2895 74.6653 3.71948 48.6853 4.23948C23.7653 4.73948 3.38532 25.1595 3.89532 51.1095C4.38532 75.8395 24.5953 96.3495 50.6753 95.8695C75.6153 95.4095 95.4353 75.2495 95.5853 49.9995ZM88.6153 98.0595C88.8153 98.2695 89.0653 98.5495 89.3353 98.8195C94.1953 103.689 99.0553 108.549 103.925 113.409C104.365 113.849 104.815 114.279 105.315 114.649C106.845 115.749 108.545 116.149 110.395 115.729C112.825 115.179 114.485 113.699 115.215 111.319C116.015 108.729 115.255 106.499 113.375 104.609C109.975 101.189 106.565 97.7895 103.155 94.3895C101.315 92.5495 99.4853 90.7095 97.7353 88.9595C94.6653 92.0195 91.6553 95.0195 88.5953 98.0695L88.6153 98.0595ZM89.6453 81.1295C86.6853 84.0895 83.6953 87.0695 80.8453 89.9195L85.6553 94.7695C88.5653 91.8695 91.5553 88.8895 94.4853 85.9595C92.7753 84.2495 90.9953 82.4795 89.6353 81.1295H89.6453ZM99.5053 16.2395C101.725 16.2595 103.545 14.4895 103.545 12.2895C103.545 10.1595 101.765 8.34948 99.6253 8.29948C97.4453 8.24948 95.6153 10.0695 95.6153 12.2795C95.6153 14.4795 97.3153 16.2095 99.5053 16.2295V16.2395Z" fill="url(#paint1_linear_38_147)"/>
<path d="M7.95508 50.1094C8.20508 26.7994 26.5751 8.32941 49.7751 8.35941C73.3351 8.37941 91.6351 27.2194 91.5551 50.2294C91.4751 73.5094 72.6251 92.1094 49.7351 91.9394C26.5151 91.7794 8.15508 73.2894 7.96508 50.1094H7.95508ZM12.2651 46.1294C10.4551 60.7894 18.0751 77.6994 34.9351 84.8994C51.0351 91.7694 69.2051 86.8994 79.7651 73.1794C90.5151 59.1994 88.8751 41.7994 82.6851 31.8894C81.4951 33.1094 80.3651 34.3294 79.1651 35.4894C78.6551 35.9794 78.6251 36.3494 78.9151 36.9894C80.2851 39.9994 79.5951 43.5394 77.2851 45.8194C74.9451 48.1294 71.4651 48.7794 68.4451 47.3894C67.7651 47.0794 67.4351 47.2294 66.9751 47.6894C63.1151 51.5794 59.2351 55.4594 55.3351 59.3194C54.8251 59.8294 54.7151 60.2094 55.0251 60.9094C56.6651 64.5694 55.2751 68.8994 51.8951 70.8594C48.7451 72.6894 45.1051 72.3194 42.3851 69.8994C39.9051 67.6894 39.1851 64.0594 40.5451 60.7994C40.6751 60.4794 40.7251 59.8894 40.5451 59.6894C37.6951 56.7694 34.7951 53.8994 31.9451 51.0394C26.6151 53.2394 22.6851 51.7394 20.3951 46.7194C20.2751 46.4494 19.8551 46.1494 19.5651 46.1494C17.1551 46.0994 14.7551 46.1194 12.2751 46.1194L12.2651 46.1294ZM80.6251 28.4294C72.5551 16.6294 56.8151 9.27941 40.3351 13.5194C24.7251 17.5394 14.9751 30.5694 12.9651 42.1494C15.1951 42.1494 17.4051 42.1794 19.6151 42.1194C19.9051 42.1194 20.3151 41.7094 20.4451 41.3994C22.2051 37.0894 26.8351 35.0794 30.9851 36.8394C35.0851 38.5794 36.9251 43.3094 35.0551 47.4594C34.7651 48.0994 34.9151 48.4094 35.3451 48.8394C37.9451 51.4094 40.5351 53.9894 43.0951 56.5994C43.5951 57.1094 43.9651 57.1394 44.5951 56.8394C46.7151 55.8394 48.8951 55.8394 51.0051 56.8594C51.6851 57.1894 52.0351 57.0194 52.4951 56.5494C56.4451 52.5794 60.4051 48.6294 64.3651 44.6594C64.5251 44.4994 64.6551 44.3094 64.7951 44.1294H64.4051C64.1951 42.5594 63.6751 40.9394 63.8351 39.3894C64.4351 33.7694 69.8151 30.7794 75.0251 32.9794C75.3251 33.1094 75.8951 33.0694 76.1051 32.8694C77.6251 31.4294 79.0951 29.9294 80.6151 28.4194L80.6251 28.4294ZM27.9051 40.2094C25.7051 40.1994 23.9651 41.8894 23.9351 44.0794C23.8951 46.3094 25.6551 48.1294 27.8551 48.1494C30.0151 48.1694 31.8851 46.2894 31.8651 44.1294C31.8451 41.9794 30.0651 40.2194 27.9051 40.2094ZM47.7351 68.0294C49.9551 68.0494 51.7651 66.2694 51.7651 64.0594C51.7651 61.9094 49.9951 60.1194 47.8451 60.0894C45.6951 60.0594 43.8751 61.8094 43.8351 63.9494C43.7851 66.1894 45.5251 67.9994 47.7451 68.0194L47.7351 68.0294ZM75.6351 40.1194C75.6151 37.9294 73.8851 36.2294 71.6851 36.2194C69.4651 36.2194 67.6551 38.0394 67.6951 40.2194C67.7351 42.3594 69.5451 44.1494 71.6751 44.1494C73.8651 44.1494 75.6551 42.3294 75.6251 40.1094L75.6351 40.1194Z" fill="url(#paint2_linear_38_147)"/>
</g>
<defs>
<linearGradient id="paint0_linear_38_147" x1="60" y1="0.363281" x2="60" y2="120.363" gradientUnits="userSpaceOnUse">
<stop stop-color="#00EFD1"/>
<stop offset="1" stop-color="#00ACEA"/>
</linearGradient>
<linearGradient id="paint1_linear_38_147" x1="59.7327" y1="0.363281" x2="59.7327" y2="119.849" gradientUnits="userSpaceOnUse">
<stop stop-color="#00EFD1"/>
<stop offset="1" stop-color="#00ACEA"/>
</linearGradient>
<linearGradient id="paint2_linear_38_147" x1="49.7552" y1="8.35937" x2="49.7552" y2="91.9406" gradientUnits="userSpaceOnUse">
<stop stop-color="#00EFD1"/>
<stop offset="1" stop-color="#00ACEA"/>
</linearGradient>
</defs>
</svg>
