<svg width="119" height="119" viewBox="0 0 119 119" fill="none" xmlns="http://www.w3.org/2000/svg">
<path d="M62.2254 0.363281C64.2707 0.658281 66.3259 0.904115 68.3515 1.26795C87.0742 4.64078 102.808 19.8235 106.898 38.4085C107.754 42.2828 108.177 46.2063 108.137 50.179C108.118 51.6343 108.137 53.0897 108.137 54.6138C108.521 54.7417 108.875 54.8695 109.229 54.9777C114.372 56.5412 117.931 61.1825 117.971 66.5712C118.02 73.1792 118.01 79.7773 117.971 86.3853C117.941 92.0395 114.283 96.7694 108.826 98.2444C108.177 98.4214 107.911 98.6279 107.773 99.326C106.033 107.861 99.2086 113.437 90.4962 113.457C84.9699 113.466 79.4436 113.457 73.7402 113.457C73.7402 114.224 73.7501 114.941 73.7402 115.649C73.7009 117.341 72.7667 118.334 71.1049 118.344C64.5362 118.363 57.9774 118.393 51.4087 118.334C47.4065 118.295 44.2402 114.941 44.25 110.949C44.2599 106.967 47.4655 103.663 51.4775 103.633C58.0069 103.584 64.5362 103.613 71.0557 103.633C72.7372 103.633 73.691 104.607 73.7304 106.278C73.7501 106.967 73.7304 107.655 73.7304 108.402C74.0352 108.442 74.2909 108.51 74.5466 108.51C80.0729 108.51 85.6091 108.569 91.1354 108.491C96.4946 108.412 100.939 105.079 102.591 100.073C102.719 99.68 102.808 99.2769 102.955 98.7262C100.811 98.7262 98.7857 98.7262 96.7502 98.7262C94.1837 98.7262 93.3774 97.91 93.3676 95.3435C93.3676 82.8257 93.3676 70.3078 93.3676 57.79C93.3676 55.253 94.1346 54.486 96.6617 54.486C98.8054 54.486 100.939 54.486 103.162 54.486C104.076 36.8548 98.1859 22.3408 83.2687 12.6943C67.2502 2.32995 50.5434 2.46762 34.5249 12.8123C18.8997 22.9013 13.6093 39.4016 14.8778 54.4762C17.0412 54.4762 19.2242 54.4762 21.4072 54.4762C23.777 54.4762 24.5932 55.2923 24.5932 57.6622C24.5932 70.2587 24.5932 82.8552 24.5932 95.4517C24.5932 97.851 23.7279 98.7262 21.3285 98.7164C17.9557 98.7065 14.5632 98.8442 11.2002 98.5885C5.5755 98.1657 1.28817 94.134 0.2065 88.5978C0.167167 88.3717 0.0688334 88.1652 0 87.9488V65.1355C0.059 64.9978 0.157333 64.87 0.177 64.7225C1.18983 59.6682 4.17917 56.4035 9.09584 54.8892C9.34167 54.8105 9.57767 54.7122 9.84317 54.6237C9.84317 52.9815 9.84317 51.4082 9.84317 49.8348C9.86284 37.3071 13.9633 26.2938 22.2725 16.9226C29.7262 8.53479 38.9794 3.29362 50.0025 1.23845C51.92 0.884448 53.8572 0.658281 55.7747 0.363281H62.2254ZM19.6175 59.3535C17.1592 59.3535 14.8188 59.3437 12.4883 59.3535C8.26001 59.383 5.02484 62.3625 4.956 66.5908C4.84784 73.2283 4.84784 79.8757 4.956 86.5132C5.02484 90.7022 8.18134 93.6423 12.3802 93.7309C13.6093 93.7603 14.8385 93.7309 16.0677 93.7309C17.2378 93.7309 18.4178 93.7309 19.6273 93.7309V59.3535H19.6175ZM98.4121 59.383V93.7407C100.861 93.7407 103.23 93.7702 105.6 93.7407C109.799 93.6719 112.965 90.7415 113.034 86.5427C113.152 79.9052 113.142 73.2578 113.034 66.6203C112.975 62.7657 110.133 59.678 106.436 59.4223C103.801 59.2453 101.156 59.383 98.4022 59.383H98.4121ZM68.7842 108.569C68.4105 108.54 68.1057 108.491 67.8107 108.491C62.599 108.491 57.3874 108.491 52.1855 108.491C52.0675 108.491 51.9594 108.491 51.8414 108.491C50.2582 108.569 49.1962 109.543 49.1667 110.929C49.147 112.385 50.2779 113.427 51.9987 113.437C57.3579 113.457 62.7269 113.437 68.0861 113.437C68.3024 113.437 68.5187 113.378 68.7842 113.339V108.569Z" fill="url(#paint0_linear_38_114)"/>
<defs>
<linearGradient id="paint0_linear_38_114" x1="59.0019" y1="0.363281" x2="59.0019" y2="118.369" gradientUnits="userSpaceOnUse">
<stop stop-color="#00EFD1"/>
<stop offset="1" stop-color="#00ACEA"/>
</linearGradient>
</defs>
</svg>
