<svg width="68" height="68" viewBox="0 0 68 68" fill="none" xmlns="http://www.w3.org/2000/svg">
<path fill-rule="evenodd" clip-rule="evenodd" d="M43.632 54.694L35.4527 44.5833C35.0456 44.08 35.1185 43.3748 35.6199 42.9654L48.3789 32.5865C48.876 32.2186 49.5367 32.2868 49.9068 32.7443L58.0862 42.8551C58.4933 43.3584 58.4247 44.0221 57.9233 44.4315L45.197 54.8977C44.6216 55.2155 44.0392 55.1973 43.632 54.694ZM43.455 64.4864L41.2671 61.8286L29.1421 67.2839C28.5382 67.4731 27.9359 67.2431 27.6199 66.6655L13.4654 34.8067C13.3672 34.545 13.3559 34.2503 13.4272 33.9642L14.8797 30.0056C8.44137 26.0701 2.46437 18.0736 0.991444 10.9198C-0.785726 2.26712 4.77113 -2.23174 12.8843 1.2479C16.7203 2.90202 20.9956 6.36244 24.0375 10.4501L41.1456 12.5113C41.4347 12.5411 41.7109 12.6955 41.8547 12.9199L67.651 44.8077C68.0952 45.3567 67.9853 46.0162 67.4839 46.4255L45.0157 64.7315C44.4816 65.0536 43.8621 64.9896 43.455 64.4864ZM39.7867 59.9986L17.6914 32.6859C17.3213 32.2284 17.4381 31.905 17.4526 31.3615C17.2547 31.2572 17.0567 31.1529 16.8175 31.0443L15.6487 34.2776L29.197 64.7321L39.7867 59.9986ZM18.449 20.1025L19.2182 11.0422C19.3125 10.1296 20.1228 9.96173 20.8619 10.08C15.2261 3.62809 7.98717 0.57419 4.62259 3.2452C2.9816 4.58498 2.46378 7.1728 3.12058 10.5109C4.41002 17.0168 9.849 24.1612 15.6395 27.9039L18.449 20.1025ZM19.6413 31.5876L44.4754 62.2859L65.2613 45.3154L40.4642 14.6629L21.3325 12.3926L19.6413 31.5876ZM28.5861 27.0196C24.0847 26.5545 22.5073 20.8154 25.9304 17.9827C28.0728 16.2335 31.2939 16.5664 33.116 18.7251C35.8591 22.0692 33.2526 27.5018 28.5861 27.0196ZM29.4047 19.0963C26.9269 18.8403 25.284 21.815 26.8754 23.7822C27.8747 25.0175 29.6832 25.2882 30.9225 24.2004C32.8954 22.4757 31.8 19.3438 29.4047 19.0963ZM17.5687 29.0256L17.647 29.0757L17.6856 28.7023L17.5687 29.0256ZM37.8838 44.0798L44.698 52.4563L55.6878 43.4458L48.8736 35.0693L37.8838 44.0798Z" fill="url(#paint0_linear_42_246)"/>
<defs>
<linearGradient id="paint0_linear_42_246" x1="36.7128" y1="3.00833" x2="30.0499" y2="67.4921" gradientUnits="userSpaceOnUse">
<stop stop-color="#00EFD1"/>
<stop offset="1" stop-color="#00ACEA"/>
</linearGradient>
</defs>
</svg>
