<svg width="90" height="90" viewBox="0 0 90 90" fill="none" xmlns="http://www.w3.org/2000/svg">
<mask id="mask0_45_37" style="mask-type:alpha" maskUnits="userSpaceOnUse" x="0" y="0" width="90" height="90">
<rect width="90" height="90" fill="#D9D9D9"/>
</mask>
<g mask="url(#mask0_45_37)">
<path d="M21.1358 8.17761C20.6065 9.00084 19.6919 10.3096 19.2051 10.2912C18.9817 10.2771 18.1795 9.8941 17.3367 9.24888C15.691 7.78452 14.4743 6.98625 12.5044 7.79253C12.0131 8.09543 11.6931 8.53134 11.4932 8.93297C11.0935 9.73631 11.0151 10.5172 10.9657 11.555C10.9601 11.576 10.9579 11.5902 10.9544 11.6113C10.9253 13.1452 11.4768 14.6098 12.255 16.2198C13.0331 17.8297 14.0998 19.526 15.314 21.2024C17.13 23.71 19.2423 26.1366 21.3736 27.9354C17.1339 30.8095 12.5855 36.0484 8.59872 42.4513C3.76681 50.2116 -0.0407679 59.6124 0.000329571 68.4323C0.0173442 72.2073 1.0029 76.1716 3.22793 79.3455C5.45296 82.5195 9.08074 84.8432 13.7497 84.8366C24.1898 84.9982 34.6488 84.5421 45.0846 84.8366C49.1586 84.7143 52.6874 82.5141 55.1374 79.4545C55.7016 78.7499 56.2081 77.9924 56.6614 77.2028C59.0243 81.8405 64.3165 85 70.3266 85H75.0086C83.1481 85 89.989 79.2186 89.989 71.7953C90.0138 63.802 89.989 55.8781 89.989 47.9134C89.989 40.49 83.1481 34.7087 75.0086 34.7087H70.3266C62.1871 34.7087 55.3462 40.49 55.3462 47.9134V52.3513C53.9036 48.887 52.1436 45.5381 50.2099 42.4513C47.606 38.2947 44.7704 34.6372 41.9412 31.7779C42.8285 31.9177 43.7253 32.0548 44.6413 32.1265C46.9703 32.3092 49.304 32.2656 51.3456 31.5087C53.3872 30.752 55.1814 28.7925 55.1814 26.2682C55.1814 24.9287 54.616 23.6201 53.672 22.8072C52.7279 21.9941 51.5773 21.6546 50.4151 21.5034C48.0907 21.2012 45.4808 21.6362 42.9377 22.2988C42.3367 22.4555 41.7453 22.6305 41.1645 22.8111C41.5713 22.159 41.9783 21.5063 42.3589 20.821C44.4069 17.1328 45.9858 13.1982 45.9858 9.80961C45.9874 9.04879 45.5222 8.3646 44.8098 8.0811C42.2096 7.04683 39.9331 6.97331 38.1201 7.58697C36.3072 8.20049 35.0812 9.40231 34.1891 10.4161C33.3824 11.3329 32.831 11.9895 32.5955 12.2138C32.5536 12.263 32.4365 12.277 32.3499 12.1575C30.9518 10.7672 30.3806 8.27392 28.7596 6.33962C28.3543 5.85611 27.5681 5.03408 26.7666 5.00315C24.609 4.92023 22.4227 6.48548 21.1358 8.17761ZM25.62 8.7258C25.6597 8.69066 25.8093 8.63163 25.88 8.71175C26.5584 9.52127 27.6143 12.5085 29.8953 14.7766C30.5208 15.3986 31.2638 15.8987 32.1814 16.0405C33.099 16.1824 33.9921 15.8549 34.5737 15.4522C35.737 14.6475 36.2961 13.671 37.0136 12.8555C37.7312 12.0401 38.4512 11.4132 39.34 11.1123C39.8571 10.9373 40.8882 11.2529 41.7067 11.359C41.361 13.5214 40.6147 16.2359 39.0616 19.0327C37.282 22.2374 35.8871 24.6467 33.3794 25.9801C30.8717 27.3135 27.8514 27.7312 25.6749 26.4559C23.4984 25.1805 20.5839 22.1002 18.3624 19.0328C17.2516 17.4991 16.2818 15.9407 15.633 14.5985C15.0606 13.4142 14.8714 12.5395 14.8161 12.02C14.9003 12.0833 14.9506 12.1156 15.0395 12.1838C15.9925 12.9131 17.1937 13.9061 18.9852 14.0105C19.881 14.0597 20.8945 13.773 21.7109 13.1716C22.5273 12.5701 22.9923 11.4384 23.7075 10.6331C24.3066 9.93029 24.8481 9.20368 25.62 8.7258ZM51.4262 26.2703C51.6237 26.9928 51.1505 27.6238 50.0304 28.0389C48.9103 28.4543 46.9852 28.5842 44.9454 28.424C43.0573 28.2757 41.1114 27.88 39.45 27.4906C40.8149 26.9291 42.2196 26.3324 43.8939 25.8964C46.7864 25.1299 50.9413 24.4966 51.4262 26.2703ZM32.5295 29.971C32.034 31.7638 31.155 34.2891 29.5767 36.2901C27.8641 38.2576 31.007 40.6998 32.5258 38.5817C34.713 35.8087 34.6619 34.2646 35.1856 32.1827C36.0371 34.7098 36.5708 37.8676 40.9447 42.217C42.5358 44.0654 45.0911 41.8474 44.0331 40.1179C45.0539 41.4757 46.0627 42.903 47.0116 44.4178C51.618 51.771 55.1906 60.7078 55.262 68.4376C55.2903 71.5419 54.1115 74.7556 52.2029 77.1392C50.2943 79.5228 47.7512 81.036 44.9747 81.1194H13.7501C10.2662 81.1194 7.98531 79.6029 6.31669 77.2226C4.64806 74.8423 3.76675 71.5318 3.75221 68.4086C3.71605 60.6891 7.22097 51.7678 11.7974 44.4178C16.0809 37.5383 21.4436 32.0724 24.8617 30.1816C27.5987 30.8239 30.3176 30.5725 32.5295 29.971ZM40.7506 36.123C41.7743 37.2583 42.8031 38.4957 43.8243 39.8382C42.4522 38.8735 41.5755 37.4239 40.7506 36.123ZM70.3815 38.6507H75.0636C79.5159 38.6507 82.9823 40.9621 84.7977 43.9747C82.7265 46.9637 78.1671 49.4069 72.5723 49.4113C67.1613 49.41 62.7087 47.1156 60.5375 44.2507C62.2924 41.0998 65.8039 38.6507 70.3815 38.6507ZM86.2374 48.438V56.4895C85.3356 57.8985 83.717 59.038 81.3905 59.8269C78.8699 60.6817 75.6427 61.1016 72.2792 61.1053C67.4358 60.5473 61.3895 59.3729 59.0831 55.7504V48.6033C62.3817 51.5162 67.8266 53.1339 72.5723 53.1174C77.3914 53.1033 82.8864 51.2772 86.2374 48.438ZM59.0831 61.1634C62.389 63.6528 68.1644 64.7648 72.2646 64.8242C75.7432 64.8734 79.6022 64.3435 82.5961 63.357C83.9062 62.9128 85.1359 62.336 86.2377 61.6246V67.4571C85.3719 68.9712 83.6894 70.1856 81.2405 71.0161C78.7161 71.8721 75.4836 72.2739 72.1146 72.2763C65.7755 72.275 61.0909 70.3348 59.0833 67.1302L59.0831 61.1634ZM59.1235 72.4797C62.4214 74.8673 67.0115 75.9977 72.1145 75.9987C75.7799 75.9969 79.3561 75.5743 82.4421 74.5279C83.7908 74.0704 85.0566 73.4752 86.1826 72.7339C85.6363 77.4513 81.0003 81.2829 75.0087 81.2829H70.3266C64.2287 81.2829 59.5319 77.3119 59.1235 72.4797Z" fill="url(#paint0_linear_45_37)"/>
<path d="M16.25 54.4275C16.25 55.0525 16.499 55.652 16.9423 56.094C17.3856 56.536 17.9868 56.7843 18.6136 56.7843H27.8756C27.0333 58.552 25.3899 59.4358 23.5046 59.4358H18.6136C18.1376 59.4449 17.6749 59.5945 17.2841 59.8658C16.8933 60.1371 16.5919 60.5178 16.4182 60.9599C16.2444 61.402 16.206 61.8855 16.3079 62.3493C16.4098 62.8131 16.6473 63.2364 16.9904 63.5656L29.2149 75.0945C29.4399 75.3075 29.7047 75.4742 29.9943 75.585C30.2839 75.6958 30.5926 75.7487 30.9027 75.7405C31.2128 75.7323 31.5182 75.6632 31.8015 75.5372C32.0848 75.4112 32.3404 75.2308 32.5538 75.0063C32.7671 74.7817 32.9339 74.5174 33.0447 74.2285C33.1556 73.9396 33.2082 73.6318 33.1996 73.3226C33.191 73.0134 33.1214 72.7089 32.9947 72.4266C32.8681 72.1442 32.6868 71.8895 32.4614 71.6771L24.5024 64.1118C26.5005 63.9334 28.3905 63.1281 29.9009 61.8116C31.4113 60.495 32.4643 58.735 32.9087 56.7843H35.7064C36.3332 56.7843 36.9344 56.536 37.3777 56.094C37.821 55.652 38.07 55.0525 38.07 54.4275C38.07 53.8024 37.821 53.2029 37.3777 52.7609C36.9344 52.3189 36.3332 52.0706 35.7064 52.0706H32.9093C32.7105 51.2207 32.3426 50.4192 31.8273 49.7137H35.7064C36.3332 49.7137 36.9344 49.4654 37.3777 49.0234C37.821 48.5814 38.07 47.9819 38.07 47.3569C38.07 46.7318 37.821 46.1323 37.3777 45.6903C36.9344 45.2483 36.3332 45 35.7064 45H18.6136C17.9868 45 17.3856 45.2483 16.9423 45.6903C16.499 46.1323 16.25 46.7318 16.25 47.3569C16.25 47.9819 16.499 48.5814 16.9423 49.0234C17.3856 49.4654 17.9868 49.7137 18.6136 49.7137H23.5046C25.3902 49.7137 27.0333 50.5976 27.8756 52.0706H18.6136C17.9868 52.0706 17.3856 52.3189 16.9423 52.7609C16.499 53.2029 16.25 53.8024 16.25 54.4275Z" fill="url(#paint1_linear_45_37)"/>
</g>
<defs>
<linearGradient id="paint0_linear_45_37" x1="44.9998" y1="3.20888" x2="44.9998" y2="85.279" gradientUnits="userSpaceOnUse">
<stop stop-color="#00EFD1"/>
<stop offset="1" stop-color="#00ACEA"/>
</linearGradient>
<linearGradient id="paint1_linear_45_37" x1="44.9998" y1="3.20888" x2="44.9998" y2="85.279" gradientUnits="userSpaceOnUse">
<stop stop-color="#00EFD1"/>
<stop offset="1" stop-color="#00ACEA"/>
</linearGradient>
</defs>
</svg>
