<svg width="88" height="90" viewBox="0 0 88 90" fill="none" xmlns="http://www.w3.org/2000/svg">
<path d="M57.1829 49.0672C62.0098 49.0672 66.7283 47.6283 70.7418 44.9326C74.7552 42.2368 77.8833 38.4051 79.7305 33.9222C81.5777 29.4393 82.061 24.5064 81.1193 19.7473C80.1776 14.9883 77.8533 10.6168 74.4401 7.18574C71.0269 3.75465 66.6783 1.41805 61.9441 0.471417C57.2099 -0.475217 52.3028 0.0106304 47.8433 1.86752C43.3838 3.72441 39.5722 6.86894 36.8905 10.9035C34.2088 14.938 32.7774 19.6813 32.7774 24.5336C32.7848 31.0381 35.3584 37.274 39.9337 41.8733C44.5091 46.4727 50.7124 49.0598 57.1829 49.0672ZM57.1829 4.25807C61.172 4.25807 65.0716 5.44721 68.3885 7.67512C71.7054 9.90302 74.2906 13.0696 75.8171 16.7745C77.3437 20.4794 77.7432 24.5561 76.9649 28.4892C76.1867 32.4222 74.2657 36.035 71.4449 38.8706C68.6242 41.7062 65.0303 43.6372 61.1177 44.4196C57.2052 45.2019 53.1498 44.8004 49.4643 43.2658C45.7788 41.7312 42.6287 39.1324 40.4124 35.7981C38.1962 32.4638 37.0132 28.5437 37.0132 24.5336C37.0193 19.1581 39.1462 14.0044 42.9274 10.2033C46.7087 6.40224 51.8354 4.26413 57.1829 4.25807Z" fill="url(#paint0_linear_45_25)"/>
<path d="M47.4077 19.2112C47.4077 19.7759 47.6308 20.3174 48.028 20.7167C48.4252 21.1159 48.9639 21.3402 49.5256 21.3402H57.8246C57.0698 22.937 55.5973 23.7354 53.908 23.7354H49.5256C49.099 23.7436 48.6844 23.8787 48.3342 24.1238C47.9841 24.3689 47.7141 24.7128 47.5584 25.1122C47.4027 25.5115 47.3683 25.9483 47.4595 26.3673C47.5508 26.7862 47.7636 27.1686 48.0711 27.466L59.0246 37.8804C59.2262 38.0728 59.4635 38.2233 59.723 38.3235C59.9825 38.4236 60.2591 38.4713 60.5369 38.4639C60.8148 38.4565 61.0885 38.3941 61.3423 38.2803C61.5962 38.1665 61.8252 38.0035 62.0164 37.8006C62.2075 37.5978 62.357 37.3591 62.4563 37.0981C62.5556 36.8371 62.6028 36.559 62.5951 36.2797C62.5874 36.0004 62.525 35.7254 62.4115 35.4703C62.298 35.2153 62.1356 34.9852 61.9336 34.7933L54.8021 27.9594C56.5925 27.7982 58.286 27.0708 59.6393 25.8815C60.9927 24.6922 61.9362 23.1023 62.3344 21.3402H64.8412C65.4029 21.3402 65.9416 21.1159 66.3388 20.7167C66.736 20.3174 66.9591 19.7759 66.9591 19.2112C66.9591 18.6465 66.736 18.105 66.3388 17.7057C65.9416 17.3065 65.4029 17.0822 64.8412 17.0822H62.3349C62.1568 16.3144 61.8272 15.5904 61.3655 14.9531H64.8412C65.4029 14.9531 65.9416 14.7288 66.3388 14.3296C66.736 13.9303 66.9591 13.3888 66.9591 12.8241C66.9591 12.2595 66.736 11.7179 66.3388 11.3187C65.9416 10.9194 65.4029 10.6951 64.8412 10.6951H49.5256C48.9639 10.6951 48.4252 10.9194 48.028 11.3187C47.6308 11.7179 47.4077 12.2595 47.4077 12.8241C47.4077 13.3888 47.6308 13.9303 48.028 14.3296C48.4252 14.7288 48.9639 14.9531 49.5256 14.9531H53.908C55.5976 14.9531 57.0698 15.7515 57.8246 17.0822H49.5256C48.9639 17.0822 48.4252 17.3065 48.028 17.7057C47.6308 18.105 47.4077 18.6465 47.4077 19.2112Z" fill="url(#paint1_linear_45_25)"/>
<path d="M75.4863 49.2738L64.5222 57.5153C63.2871 56.145 61.7272 55.1112 59.9876 54.5102C58.248 53.9092 56.3855 53.7605 54.5733 54.078L42.9378 56.1229C41.1667 56.4322 39.3491 56.337 37.6195 55.8443L36.3181 55.4717C33.0909 54.5396 29.6924 54.374 26.3907 54.9878C23.0889 55.6017 19.9742 56.9783 17.2921 59.0091L16.9625 57.1147C16.8656 56.5586 16.5529 56.064 16.0933 55.7396C15.6336 55.4152 15.0645 55.2876 14.5113 55.3849L1.75251 57.6284C1.19929 57.7258 0.70721 58.0401 0.384506 58.5022C0.0618014 58.9643 -0.0651016 59.5363 0.0317095 60.0925L4.92937 88.238C4.97709 88.5135 5.07838 88.7768 5.22745 89.0129C5.37652 89.249 5.57045 89.4532 5.79812 89.6139C6.02579 89.7746 6.28275 89.8885 6.55429 89.9492C6.82583 90.01 7.10661 90.0163 7.38058 89.9678L20.1394 87.7243C20.6926 87.6269 21.1847 87.3126 21.5074 86.8505C21.8301 86.3884 21.957 85.8164 21.8602 85.2603L21.6672 84.151L24.394 81.9246C25.4498 81.0415 26.8056 80.6054 28.1752 80.7084L48.9813 82.2373C49.0284 82.2408 49.0758 82.2426 49.1232 82.2431C53.8772 82.2607 58.5124 80.7501 62.3519 77.9319C62.4327 77.8721 62.5092 77.8068 62.5809 77.7363L87.3638 53.3429C87.7495 52.9633 87.9765 52.4499 87.9983 51.9077C88.0201 51.3654 87.8351 50.8353 87.4811 50.4256C86.0118 48.7214 83.9463 47.6511 81.713 47.4367C79.4798 47.2222 77.2501 47.8801 75.4863 49.2738ZM8.73604 85.408L4.56826 61.4564L13.1545 59.9464L17.3226 83.8979L8.73604 85.408ZM59.7283 74.6066C56.6768 76.8153 53.015 78.0106 49.2548 78.0253H49.2182L28.4855 76.4817C26.0331 76.2918 23.6031 77.0667 21.7082 78.6432L20.8314 79.3559L18.1398 63.8843C20.3454 61.7193 23.0817 60.1798 26.0708 59.4222C29.0599 58.6646 32.1952 58.7159 35.1582 59.5709L36.4597 59.9434C38.804 60.6105 41.2674 60.7395 43.668 60.3208L55.303 58.2745C56.6788 58.0342 58.0949 58.2337 59.352 58.8447C60.6092 59.4558 61.6441 60.4477 62.3111 61.681L45.6112 64.6177C45.0888 64.7089 44.6194 64.9938 44.2958 65.416C43.9722 65.8383 43.818 66.3671 43.8635 66.8982C43.909 67.4292 44.1511 67.9238 44.5417 68.2841C44.9324 68.6444 45.4434 68.8444 45.9736 68.8444C46.0969 68.8443 46.2199 68.8335 46.3413 68.8122L65.4671 65.4488C66.0203 65.3514 66.5124 65.0371 66.8351 64.575C67.1578 64.1129 67.2847 63.5409 67.1879 62.9848C67.0809 62.3723 66.9223 61.7701 66.7137 61.1847L78.0445 52.6685C78.0593 52.6574 78.0736 52.6462 78.0882 52.6347C78.7247 52.13 79.4851 51.8076 80.289 51.7016C81.0928 51.5956 81.9102 51.7101 82.6547 52.0328L59.7283 74.6066Z" fill="url(#paint2_linear_45_25)"/>
<defs>
<linearGradient id="paint0_linear_45_25" x1="43.9998" y1="-2.01501" x2="43.9998" y2="90.3139" gradientUnits="userSpaceOnUse">
<stop stop-color="#00EFD1"/>
<stop offset="1" stop-color="#00ACEA"/>
</linearGradient>
<linearGradient id="paint1_linear_45_25" x1="43.9998" y1="-2.01501" x2="43.9998" y2="90.3139" gradientUnits="userSpaceOnUse">
<stop stop-color="#00EFD1"/>
<stop offset="1" stop-color="#00ACEA"/>
</linearGradient>
<linearGradient id="paint2_linear_45_25" x1="43.9998" y1="-2.01501" x2="43.9998" y2="90.3139" gradientUnits="userSpaceOnUse">
<stop stop-color="#00EFD1"/>
<stop offset="1" stop-color="#00ACEA"/>
</linearGradient>
</defs>
</svg>
