<svg width="90" height="90" viewBox="0 0 90 90" fill="none" xmlns="http://www.w3.org/2000/svg">
<path d="M76.8196 13.173C70.5262 6.88307 62.508 2.59957 53.7789 0.864198C45.0498 -0.871178 36.0018 0.0195022 27.7791 3.42361C19.5565 6.82771 12.5285 12.5923 7.58382 19.9885C2.63918 27.3847 -1.14044e-05 36.0803 0 44.9756C0 45.5348 0.222237 46.071 0.61782 46.4664C1.0134 46.8617 1.54993 47.0839 2.10937 47.0839H2.22609C2.73199 47.0838 3.22104 46.9021 3.60405 46.5717C3.98707 46.2414 4.23854 45.7845 4.31261 45.2843C4.61815 43.2441 5.64636 41.3814 7.21015 40.0349C8.77394 38.6885 10.7694 37.9479 12.8334 37.9479C14.8974 37.9479 16.8929 38.6885 18.4567 40.0349C20.0205 41.3814 21.0487 43.2441 21.3542 45.2843C21.4283 45.7845 21.6798 46.2415 22.0628 46.5718C22.4459 46.9021 22.935 47.0839 23.4409 47.0839H23.6694C24.1754 47.0839 24.6645 46.9021 25.0475 46.5718C25.4306 46.2415 25.682 45.7845 25.7561 45.2843C26.0592 43.2551 27.0773 41.4007 28.627 40.0553C30.1768 38.7098 32.1563 37.9617 34.2091 37.9456C36.2618 37.9296 38.2528 38.6467 39.8234 39.9678C41.394 41.2889 42.441 43.1271 42.7758 45.1513V75.9877C42.7812 77.2711 42.533 78.5429 42.0454 79.7301C41.5578 80.9174 40.8403 81.9967 39.9343 82.9061C39.0282 83.8155 37.9514 84.5372 36.7656 85.0295C35.5798 85.5219 34.3083 85.7754 33.0242 85.7754C31.7401 85.7754 30.4687 85.5219 29.2829 85.0295C28.0971 84.5372 27.0202 83.8155 26.1142 82.9061C25.2081 81.9967 24.4907 80.9174 24.0031 79.7301C23.5154 78.5429 23.2672 77.2711 23.2727 75.9877C23.2727 75.4285 23.0505 74.8923 22.6549 74.4969C22.2593 74.1016 21.7228 73.8794 21.1633 73.8794C20.6039 73.8794 20.0674 74.1016 19.6718 74.4969C19.2762 74.8923 19.054 75.4285 19.054 75.9877C19.0474 77.8255 19.404 79.6464 20.1031 81.3462C20.8023 83.046 21.8303 84.5911 23.1282 85.8929C24.4261 87.1947 25.9684 88.2276 27.6666 88.9324C29.3647 89.6372 31.1854 90 33.0242 90C34.863 90 36.6837 89.6372 38.3819 88.9324C40.0801 88.2276 41.6224 87.1947 42.9203 85.8929C44.2182 84.5911 45.2462 83.046 45.9453 81.3462C46.6445 79.6464 47.001 77.8255 46.9945 75.9877V45.9279C47.0978 45.7259 47.1676 45.5085 47.2012 45.2841C47.5069 43.244 48.5352 41.3814 50.099 40.035C51.6627 38.6887 53.6581 37.9482 55.7221 37.9482C57.7861 37.9482 59.7815 38.6887 61.3453 40.035C62.9091 41.3814 63.9373 43.244 64.243 45.2841C64.317 45.7844 64.5685 46.2413 64.9515 46.5717C65.3345 46.902 65.8236 47.0838 66.3295 47.0839H66.5591C67.065 47.0839 67.5541 46.9021 67.9372 46.5718C68.3202 46.2415 68.5717 45.7845 68.6458 45.2843C68.9515 43.2442 69.9797 41.3816 71.5435 40.0353C73.1072 38.689 75.1026 37.9485 77.1665 37.9485C79.2304 37.9485 81.2258 38.689 82.7896 40.0353C84.3533 41.3816 85.3816 43.2442 85.6872 45.2843C85.7613 45.7845 86.0128 46.2415 86.3958 46.5718C86.7789 46.9021 87.268 47.0839 87.7739 47.0839H87.8905C88.4499 47.0839 88.9864 46.8617 89.382 46.4664C89.7776 46.071 89.9998 45.5348 89.9998 44.9756C90.016 39.067 88.8593 33.2138 86.597 27.7548C84.3346 22.2959 81.0113 17.3397 76.8196 13.173ZM77.1664 33.7317C75.0401 33.7317 72.9471 34.2597 71.0754 35.2682C69.2038 36.2768 67.6123 37.7343 66.4438 39.5099C65.2754 37.7344 63.6839 36.2769 61.8123 35.2683C59.9408 34.2598 57.8478 33.7318 55.7216 33.7318C53.5953 33.7318 51.5024 34.2598 49.6309 35.2683C47.7593 36.2769 46.1678 37.7344 44.9994 39.5099C43.8309 37.7345 42.2394 36.277 40.3679 35.2685C38.4963 34.26 36.4034 33.732 34.2772 33.732C32.151 33.732 30.0581 34.26 28.1865 35.2685C26.315 36.277 24.7235 37.7345 23.555 39.5099C22.5933 38.0486 21.3428 36.7994 19.8804 35.8389C18.4179 34.8784 16.7743 34.227 15.0507 33.9248C13.3271 33.6225 11.5598 33.6757 9.85753 34.0812C8.15525 34.4867 6.55392 35.2358 5.15196 36.2825C9.14782 17.9696 25.4968 4.21654 44.9999 4.21654C64.503 4.21654 80.852 17.9696 84.8473 36.2825C82.6295 34.6261 79.9351 33.7313 77.1664 33.7317Z" fill="url(#paint0_linear_2_334)"/>
<defs>
<linearGradient id="paint0_linear_2_334" x1="44.9998" y1="-2.01501" x2="44.9998" y2="90.3139" gradientUnits="userSpaceOnUse">
<stop stop-color="#00EFD1"/>
<stop offset="1" stop-color="#00ACEA"/>
</linearGradient>
</defs>
</svg>
