<svg width="120" height="121" viewBox="0 0 120 121" fill="none" xmlns="http://www.w3.org/2000/svg">
<mask id="mask0_38_148" style="mask-type:alpha" maskUnits="userSpaceOnUse" x="0" y="0" width="120" height="121">
<rect y="0.363281" width="120" height="120" fill="url(#paint0_linear_38_148)"/>
</mask>
<g mask="url(#mask0_38_148)">
<path d="M23.9902 19.1032V15.4932H52.0102V19.1032H23.9902Z" fill="url(#paint1_linear_38_148)"/>
<path d="M16.4902 26.6132V23.0032H44.4602V26.6132H16.4902Z" fill="url(#paint2_linear_38_148)"/>
<path d="M16.4902 34.1132V30.5032H38.8402V34.1132H16.4902Z" fill="url(#paint3_linear_38_148)"/>
<path d="M20.1598 15.5332V19.0932H16.5098V15.5332H20.1598Z" fill="url(#paint4_linear_38_148)"/>
<path d="M88.79 73.7333V71.6633H104.88V73.7333H88.79Z" fill="url(#paint5_linear_38_148)"/>
<path d="M84.4902 78.0434V75.9734H100.56V78.0434H84.4902Z" fill="url(#paint6_linear_38_148)"/>
<path d="M84.4902 82.3532V80.2832H97.3302V82.3532H84.4902Z" fill="url(#paint7_linear_38_148)"/>
<path d="M86.59 71.6833V73.7334H84.5V71.6833H86.59Z" fill="url(#paint8_linear_38_148)"/>
<path d="M0 79.5633C0 55.3533 0 31.1333 0 6.92328C0.07 6.83328 0.16 6.75328 0.19 6.64328C1.47 2.41328 4.22 0.363281 8.64 0.363281C37.54 0.363281 66.44 0.363281 95.34 0.363281C95.96 0.363281 96.6 0.363281 97.21 0.463281C101.37 1.17328 104.01 4.41328 104.01 8.84328C104.02 22.8633 104.01 36.8833 104.01 50.8933V52.1933C104.23 52.2833 104.3 52.3333 104.37 52.3333C107.42 52.3433 110.46 52.3433 113.51 52.3533C117.54 52.3633 119.99 54.8133 119.99 58.8633C119.99 77.1733 119.99 95.4933 119.99 113.803C119.99 114.383 119.96 114.983 119.85 115.543C119.3 118.163 117.5 119.563 115.08 120.323H80.86C76.91 118.643 75.98 117.223 75.98 112.813C75.98 110.233 75.98 107.663 75.98 105.083C75.98 104.753 75.94 104.423 75.91 104.113C75.02 104.193 74.25 104.323 73.47 104.333C57.81 104.343 42.16 104.343 26.5 104.333C25.69 104.333 24.85 104.223 24.09 103.983C21.41 103.133 19.69 100.423 20.03 97.7233C20.41 94.7533 22.58 92.5633 25.5 92.3933C27.56 92.2733 29.64 92.3633 31.71 92.3233C32.06 92.3233 32.63 92.2233 32.73 92.0033C33.53 90.1733 34.24 88.3133 35.03 86.3333H33.51C25.12 86.3333 16.72 86.3333 8.33 86.3333C4.28 86.3333 1.33 84.0633 0.23 80.1933C0.17 79.9733 0.08 79.7633 0 79.5433V79.5633ZM99.96 52.3633C99.99 51.9433 100.02 51.7133 100.02 51.4833C100.02 37.2333 100.03 22.9733 100.02 8.72328C100.02 5.89328 98.35 4.36328 95.38 4.36328C66.48 4.36328 37.57 4.36328 8.67 4.36328C5.54 4.36328 4 5.90328 4 9.04328C4 29.7033 4 50.3633 4 71.0133V72.2433H75.98C75.98 67.7033 75.97 63.2633 75.98 58.8133C75.99 54.8633 78.48 52.3733 82.42 52.3733C87.81 52.3733 93.2 52.3733 98.59 52.3733C99.01 52.3733 99.43 52.3733 99.95 52.3733L99.96 52.3633ZM109.56 56.3633C109.26 57.5333 109.01 58.5933 108.73 59.6533C107.96 62.5933 105.72 64.3233 102.66 64.3433C99.61 64.3533 96.57 64.3433 93.52 64.3433C90.17 64.3433 88 62.6333 87.18 59.4033C86.93 58.3933 86.67 57.3933 86.4 56.3633C85.08 56.3633 83.87 56.3633 82.66 56.3633C80.59 56.3633 79.96 57.0033 79.96 59.1133C79.96 74.5733 79.96 90.0333 79.96 105.503C79.96 107.733 80.59 108.363 82.82 108.363C92.9 108.363 102.97 108.363 113.05 108.363C115.42 108.363 115.99 107.783 115.99 105.363C115.99 90.0233 115.99 74.6733 115.99 59.3333C115.99 58.9433 116.02 58.5433 115.96 58.1633C115.79 57.1233 115.17 56.4333 114.09 56.3933C112.61 56.3333 111.13 56.3733 109.54 56.3733L109.56 56.3633ZM75.93 76.4233H4.07C3.51 80.5433 5.54 82.4233 9.38 82.4033C31.06 82.3033 52.73 82.3533 74.41 82.3533H75.93V76.4233ZM50.04 96.3533C42.35 96.3533 34.66 96.3533 26.96 96.3533C26.53 96.3533 26.1 96.3433 25.67 96.4033C24.64 96.5633 24.08 97.2333 24.02 98.2333C23.96 99.1833 24.42 99.9033 25.36 100.193C25.8 100.323 26.28 100.353 26.74 100.353C42.24 100.353 57.74 100.353 73.24 100.353C73.67 100.353 74.11 100.343 74.51 100.223C75.5 99.9433 76 99.2333 75.93 98.2133C75.86 97.1833 75.28 96.5633 74.26 96.4033C73.84 96.3433 73.4 96.3533 72.97 96.3533C65.32 96.3533 57.66 96.3533 50.01 96.3533H50.04ZM63.01 92.2733C62.25 90.3533 61.55 88.5533 60.79 86.7833C60.7 86.5633 60.25 86.3733 59.97 86.3733C53.34 86.3533 46.71 86.3533 40.08 86.3733C39.78 86.3733 39.31 86.5333 39.22 86.7433C38.45 88.5433 37.75 90.3833 36.99 92.2833H63L63.01 92.2733ZM115.98 112.353H80.07C79.64 115.493 80.34 116.413 83.52 116.383C93.09 116.283 102.66 116.283 112.23 116.383C116.01 116.423 116.12 115.413 116 112.443C116 112.363 115.97 112.293 115.98 112.363V112.353ZM75.9 92.3533V86.4133H64.99C65.68 88.1333 66.37 89.7433 66.95 91.3833C67.22 92.1333 67.6 92.3833 68.39 92.3733C70.87 92.3233 73.36 92.3533 75.9 92.3533ZM90.58 56.4033C90.82 57.3433 90.97 58.1833 91.24 58.9933C91.53 59.8533 92.19 60.3333 93.1 60.3433C96.38 60.3633 99.66 60.4133 102.94 60.2933C103.55 60.2733 104.34 59.6133 104.68 59.0233C105.11 58.2933 105.17 57.3333 105.4 56.4033H90.57H90.58Z" fill="url(#paint9_linear_38_148)"/>
</g>
<defs>
<linearGradient id="paint0_linear_38_148" x1="60" y1="0.363281" x2="60" y2="120.363" gradientUnits="userSpaceOnUse">
<stop stop-color="#00EFD1"/>
<stop offset="1" stop-color="#00ACEA"/>
</linearGradient>
<linearGradient id="paint1_linear_38_148" x1="59.995" y1="0.363281" x2="59.995" y2="120.323" gradientUnits="userSpaceOnUse">
<stop stop-color="#00EFD1"/>
<stop offset="1" stop-color="#00ACEA"/>
</linearGradient>
<linearGradient id="paint2_linear_38_148" x1="59.995" y1="0.363281" x2="59.995" y2="120.323" gradientUnits="userSpaceOnUse">
<stop stop-color="#00EFD1"/>
<stop offset="1" stop-color="#00ACEA"/>
</linearGradient>
<linearGradient id="paint3_linear_38_148" x1="59.995" y1="0.363281" x2="59.995" y2="120.323" gradientUnits="userSpaceOnUse">
<stop stop-color="#00EFD1"/>
<stop offset="1" stop-color="#00ACEA"/>
</linearGradient>
<linearGradient id="paint4_linear_38_148" x1="59.995" y1="0.363281" x2="59.995" y2="120.323" gradientUnits="userSpaceOnUse">
<stop stop-color="#00EFD1"/>
<stop offset="1" stop-color="#00ACEA"/>
</linearGradient>
<linearGradient id="paint5_linear_38_148" x1="59.995" y1="0.363281" x2="59.995" y2="120.323" gradientUnits="userSpaceOnUse">
<stop stop-color="#00EFD1"/>
<stop offset="1" stop-color="#00ACEA"/>
</linearGradient>
<linearGradient id="paint6_linear_38_148" x1="59.995" y1="0.363281" x2="59.995" y2="120.323" gradientUnits="userSpaceOnUse">
<stop stop-color="#00EFD1"/>
<stop offset="1" stop-color="#00ACEA"/>
</linearGradient>
<linearGradient id="paint7_linear_38_148" x1="59.995" y1="0.363281" x2="59.995" y2="120.323" gradientUnits="userSpaceOnUse">
<stop stop-color="#00EFD1"/>
<stop offset="1" stop-color="#00ACEA"/>
</linearGradient>
<linearGradient id="paint8_linear_38_148" x1="59.995" y1="0.363281" x2="59.995" y2="120.323" gradientUnits="userSpaceOnUse">
<stop stop-color="#00EFD1"/>
<stop offset="1" stop-color="#00ACEA"/>
</linearGradient>
<linearGradient id="paint9_linear_38_148" x1="59.995" y1="0.363281" x2="59.995" y2="120.323" gradientUnits="userSpaceOnUse">
<stop stop-color="#00EFD1"/>
<stop offset="1" stop-color="#00ACEA"/>
</linearGradient>
</defs>
</svg>
