<svg width="45" height="37" viewBox="0 0 45 37" fill="none" xmlns="http://www.w3.org/2000/svg">
<path d="M44.2546 5.04382C42.6535 5.76859 40.9332 6.25842 39.1275 6.47879C40.9707 5.35094 42.386 3.56496 43.0524 1.43698C41.3002 2.49851 39.3831 3.24643 37.384 3.64842C35.7556 1.87736 33.4358 0.770509 30.8681 0.770509C25.9382 0.770509 21.9412 4.85087 21.9412 9.88348C21.9412 10.5978 22.0202 11.2933 22.1723 11.9605C14.7535 11.5803 8.17593 7.95227 3.77304 2.43868C3.00481 3.78463 2.56461 5.35025 2.56461 7.02015C2.56461 10.1819 4.14067 12.9712 6.53579 14.6055C5.11821 14.5602 3.73183 14.1693 2.49238 13.4655C2.49187 13.5037 2.49187 13.5419 2.49187 13.5802C2.49187 17.9956 5.56887 21.679 9.65239 22.5162C8.33788 22.8812 6.95904 22.9346 5.62122 22.6724C6.75708 26.2929 10.0538 28.9276 13.9599 29.0013C10.9048 31.4454 7.0557 32.9024 2.8736 32.9024C2.15296 32.9024 1.44252 32.8592 0.744139 32.7751C4.69458 35.3608 9.38674 36.8695 14.4278 36.8695C30.8474 36.8695 39.826 22.983 39.826 10.9404C39.826 10.5451 39.8175 10.1521 39.8002 9.76133C41.5478 8.47157 43.0562 6.87408 44.2546 5.04382Z" fill="#0C71B9"/>
</svg>
