<svg width="68" height="68" viewBox="0 0 68 68" fill="none" xmlns="http://www.w3.org/2000/svg">
<mask id="path-1-inside-1_7203_3048" fill="white">
<path fill-rule="evenodd" clip-rule="evenodd" d="M29.2518 27.5933C29.0319 27.3735 28.7338 27.25 28.4229 27.25C28.112 27.25 27.8138 27.3735 27.594 27.5933L22.0156 33.1704C21.7958 33.3903 21.6724 33.6885 21.6724 33.9993C21.6724 34.3102 21.7958 34.6084 22.0156 34.8282L27.594 40.4054C27.8151 40.619 28.1112 40.7371 28.4187 40.7345C28.7261 40.7318 29.0201 40.6085 29.2375 40.3911C29.4549 40.1738 29.5782 39.8797 29.5808 39.5723C29.5835 39.2649 29.4653 38.9687 29.2518 38.7476L24.5035 33.9993L29.2518 29.2511C29.4716 29.0312 29.595 28.733 29.595 28.4222C29.595 28.1113 29.4716 27.8131 29.2518 27.5933Z"/>
</mask>
<path fill-rule="evenodd" clip-rule="evenodd" d="M29.2518 27.5933C29.0319 27.3735 28.7338 27.25 28.4229 27.25C28.112 27.25 27.8138 27.3735 27.594 27.5933L22.0156 33.1704C21.7958 33.3903 21.6724 33.6885 21.6724 33.9993C21.6724 34.3102 21.7958 34.6084 22.0156 34.8282L27.594 40.4054C27.8151 40.619 28.1112 40.7371 28.4187 40.7345C28.7261 40.7318 29.0201 40.6085 29.2375 40.3911C29.4549 40.1738 29.5782 39.8797 29.5808 39.5723C29.5835 39.2649 29.4653 38.9687 29.2518 38.7476L24.5035 33.9993L29.2518 29.2511C29.4716 29.0312 29.595 28.733 29.595 28.4222C29.595 28.1113 29.4716 27.8131 29.2518 27.5933Z" fill="url(#paint0_linear_7203_3048)"/>
<path d="M27.594 27.5933L21.938 21.9356L21.9377 21.9358L27.594 27.5933ZM22.0156 33.1704L16.3594 27.513L16.3579 27.5144L22.0156 33.1704ZM22.0156 34.8282L16.3579 40.4842L16.3594 40.4857L22.0156 34.8282ZM27.594 40.4054L21.9377 46.0629L21.9866 46.1117L22.0363 46.1597L27.594 40.4054ZM29.2518 38.7476L35.0061 33.1899L34.9578 33.1399L34.9086 33.0908L29.2518 38.7476ZM24.5035 33.9993L18.8466 28.3425L13.1898 33.9993L18.8466 39.6562L24.5035 33.9993ZM29.2518 29.2511L34.9086 34.9079L34.9095 34.9071L29.2518 29.2511ZM34.9078 21.9356C33.1877 20.216 30.855 19.25 28.4229 19.25V35.25C26.6125 35.25 24.8761 34.531 23.5958 33.251L34.9078 21.9356ZM28.4229 19.25C25.9907 19.25 23.6581 20.216 21.938 21.9356L33.25 33.251C31.9696 34.531 30.2333 35.25 28.4229 35.25V19.25ZM21.9377 21.9358L16.3594 27.513L27.6719 38.8279L33.2502 33.2507L21.9377 21.9358ZM16.3579 27.5144C14.6383 29.2345 13.6724 31.5672 13.6724 33.9993H29.6724C29.6724 35.8097 28.9533 37.5461 27.6733 38.8264L16.3579 27.5144ZM13.6724 33.9993C13.6724 36.4315 14.6383 38.7641 16.3579 40.4842L27.6733 29.1722C28.9533 30.4526 29.6724 32.1889 29.6724 33.9993H13.6724ZM16.3594 40.4857L21.9377 46.0629L33.2502 34.748L27.6719 29.1708L16.3594 40.4857ZM22.0363 46.1597C23.7662 47.8305 26.0832 48.7551 28.4882 48.7342L28.3491 32.7348C30.1393 32.7192 31.864 33.4074 33.1517 34.6511L22.0363 46.1597ZM28.4882 48.7342C30.8931 48.7133 33.1937 47.7486 34.8943 46.048L23.5806 34.7343C24.8465 33.4684 26.559 32.7503 28.3491 32.7348L28.4882 48.7342ZM34.8943 46.048C36.595 44.3473 37.5596 42.0468 37.5805 39.6418L21.5811 39.5028C21.5967 37.7126 22.3148 36.0002 23.5806 34.7343L34.8943 46.048ZM37.5805 39.6418C37.6014 37.2368 36.6769 34.9199 35.0061 33.1899L23.4975 44.3053C22.2537 43.0176 21.5656 41.2929 21.5811 39.5028L37.5805 39.6418ZM34.9086 33.0908L30.1603 28.3425L18.8466 39.6562L23.5949 44.4045L34.9086 33.0908ZM30.1603 39.6562L34.9086 34.9079L23.5949 23.5942L18.8466 28.3425L30.1603 39.6562ZM34.9095 34.9071C36.6291 33.187 37.595 30.8543 37.595 28.4222H21.595C21.595 26.6118 22.3141 24.8754 23.5941 23.5951L34.9095 34.9071ZM37.595 28.4222C37.595 25.99 36.6291 23.6574 34.9095 21.9373L23.5941 33.2493C22.3141 31.9689 21.595 30.2326 21.595 28.4222H37.595Z" fill="url(#paint1_linear_7203_3048)" mask="url(#path-1-inside-1_7203_3048)"/>
<mask id="path-3-inside-2_7203_3048" fill="white">
<path fill-rule="evenodd" clip-rule="evenodd" d="M40.4059 27.5943C40.2977 27.4823 40.1683 27.393 40.0253 27.3315C39.8823 27.2701 39.7284 27.2377 39.5727 27.2364C39.4171 27.235 39.2627 27.2647 39.1186 27.3236C38.9745 27.3826 38.8436 27.4696 38.7335 27.5797C38.6234 27.6898 38.5364 27.8207 38.4774 27.9648C38.4185 28.1089 38.3888 28.2633 38.3902 28.4189C38.3915 28.5746 38.4239 28.7284 38.4853 28.8715C38.5468 29.0145 38.6361 29.1439 38.7481 29.252L43.4963 34.0003L38.7481 38.7486C38.5345 38.9697 38.4163 39.2659 38.419 39.5733C38.4217 39.8807 38.545 40.1747 38.7623 40.3921C38.9797 40.6095 39.2738 40.7328 39.5812 40.7355C39.8886 40.7381 40.1847 40.62 40.4059 40.4064L45.9842 34.8292C46.204 34.6094 46.3275 34.3112 46.3275 34.0003C46.3275 33.6894 46.204 33.3913 45.9842 33.1714L40.4059 27.5943Z"/>
</mask>
<path fill-rule="evenodd" clip-rule="evenodd" d="M40.4059 27.5943C40.2977 27.4823 40.1683 27.393 40.0253 27.3315C39.8823 27.2701 39.7284 27.2377 39.5727 27.2364C39.4171 27.235 39.2627 27.2647 39.1186 27.3236C38.9745 27.3826 38.8436 27.4696 38.7335 27.5797C38.6234 27.6898 38.5364 27.8207 38.4774 27.9648C38.4185 28.1089 38.3888 28.2633 38.3902 28.4189C38.3915 28.5746 38.4239 28.7284 38.4853 28.8715C38.5468 29.0145 38.6361 29.1439 38.7481 29.252L43.4963 34.0003L38.7481 38.7486C38.5345 38.9697 38.4163 39.2659 38.419 39.5733C38.4217 39.8807 38.545 40.1747 38.7623 40.3921C38.9797 40.6095 39.2738 40.7328 39.5812 40.7355C39.8886 40.7381 40.1847 40.62 40.4059 40.4064L45.9842 34.8292C46.204 34.6094 46.3275 34.3112 46.3275 34.0003C46.3275 33.6894 46.204 33.3913 45.9842 33.1714L40.4059 27.5943Z" fill="url(#paint2_linear_7203_3048)"/>
<path d="M40.4059 27.5943L34.6515 33.1519L34.7001 33.2023L34.7496 33.2517L40.4059 27.5943ZM38.7481 29.252L44.4049 23.5952L44.3558 23.546L44.3058 23.4977L38.7481 29.252ZM43.4963 34.0003L49.1532 39.6572L54.81 34.0003L49.1532 28.3435L43.4963 34.0003ZM38.7481 38.7486L33.0912 33.0917L33.042 33.1409L32.9938 33.1909L38.7481 38.7486ZM40.4059 40.4064L45.9635 46.1607L46.0132 46.1127L46.0621 46.0638L40.4059 40.4064ZM45.9842 34.8292L51.6405 40.4867L51.6419 40.4852L45.9842 34.8292ZM45.9842 33.1714L51.6419 27.5154L51.6405 27.514L45.9842 33.1714ZM46.1602 22.0366C45.314 21.1605 44.3018 20.4617 43.1828 19.981L36.8678 34.682C36.0348 34.3242 35.2814 33.8041 34.6515 33.1519L46.1602 22.0366ZM43.1828 19.981C42.0638 19.5003 40.8602 19.2473 39.6423 19.2367L39.5032 35.2361C38.5966 35.2282 37.7007 35.0398 36.8678 34.682L43.1828 19.981ZM39.6423 19.2367C38.4244 19.2261 37.2165 19.4582 36.0893 19.9194L42.1479 34.7279C41.3088 35.0712 40.4098 35.2439 39.5032 35.2361L39.6423 19.2367ZM36.0893 19.9194C34.962 20.3806 33.9379 21.0617 33.0767 21.9229L44.3904 33.2366C43.7493 33.8776 42.987 34.3846 42.1479 34.7279L36.0893 19.9194ZM33.0767 21.9229C32.2154 22.7841 31.5344 23.8082 31.0732 24.9355L45.8817 30.9941C45.5384 31.8332 45.0314 32.5955 44.3904 33.2366L33.0767 21.9229ZM31.0732 24.9355C30.612 26.0627 30.3799 27.2706 30.3905 28.4884L46.3899 28.3494C46.3978 29.256 46.225 30.155 45.8817 30.9941L31.0732 24.9355ZM30.3905 28.4884C30.4011 29.7062 30.654 30.9099 31.1348 32.029L45.8358 25.7139C46.1937 26.547 46.382 27.443 46.3899 28.3494L30.3905 28.4884ZM31.1348 32.029C31.6155 33.1481 32.3143 34.1602 33.1904 35.0064L44.3058 23.4977C44.9579 24.1276 45.478 24.881 45.8358 25.7139L31.1348 32.029ZM33.0912 34.9089L37.8395 39.6572L49.1532 28.3435L44.4049 23.5952L33.0912 34.9089ZM37.8395 28.3435L33.0912 33.0917L44.4049 44.4055L49.1532 39.6572L37.8395 28.3435ZM32.9938 33.1909C31.3229 34.9209 30.3984 37.2378 30.4193 39.6428L46.4187 39.5038C46.4342 41.2939 45.7461 43.0186 44.5024 44.3063L32.9938 33.1909ZM30.4193 39.6428C30.4402 42.0477 31.4048 44.3483 33.1055 46.049L44.4192 34.7353C45.6851 36.0012 46.4031 37.7136 46.4187 39.5038L30.4193 39.6428ZM33.1055 46.049C34.8061 47.7496 37.1067 48.7143 39.5117 48.7352L39.6507 32.7358C41.4408 32.7513 43.1533 33.4693 44.4192 34.7353L33.1055 46.049ZM39.5117 48.7352C41.9166 48.7561 44.2336 47.8315 45.9635 46.1607L34.8482 34.6521C36.1359 33.4084 37.8605 32.7202 39.6507 32.7358L39.5117 48.7352ZM46.0621 46.0638L51.6405 40.4867L40.3279 29.1718L34.7496 34.7489L46.0621 46.0638ZM51.6419 40.4852C53.3615 38.7651 54.3275 36.4325 54.3275 34.0003H38.3275C38.3275 32.1899 39.0465 30.4536 40.3265 29.1732L51.6419 40.4852ZM54.3275 34.0003C54.3275 31.5681 53.3615 29.2355 51.6419 27.5154L40.3265 38.8274C39.0465 37.547 38.3275 35.8107 38.3275 34.0003H54.3275ZM51.6405 27.514L46.0621 21.9368L34.7496 33.2517L40.3279 38.8289L51.6405 27.514Z" fill="url(#paint3_linear_7203_3048)" mask="url(#path-3-inside-2_7203_3048)"/>
<mask id="path-5-inside-3_7203_3048" fill="white">
<path fill-rule="evenodd" clip-rule="evenodd" d="M36.1558 25.489C36.0066 25.4512 35.8513 25.4432 35.6989 25.4654C35.5466 25.4876 35.4 25.5396 35.2678 25.6184C35.1355 25.6972 35.02 25.8013 34.928 25.9248C34.836 26.0482 34.7691 26.1886 34.7313 26.3379L30.9949 41.0856C30.9185 41.3871 30.9651 41.7065 31.1243 41.9737C31.2834 42.2408 31.5422 42.4338 31.8437 42.5101C32.1452 42.5865 32.4646 42.5399 32.7317 42.3807C32.9989 42.2216 33.1918 41.9628 33.2682 41.6613L37.0047 26.9135C37.0425 26.7642 37.0505 26.609 37.0283 26.4566C37.0061 26.3042 36.9541 26.1577 36.8753 26.0254C36.7965 25.8932 36.6924 25.7777 36.5689 25.6857C36.4455 25.5936 36.3051 25.5268 36.1558 25.489Z"/>
</mask>
<path fill-rule="evenodd" clip-rule="evenodd" d="M36.1558 25.489C36.0066 25.4512 35.8513 25.4432 35.6989 25.4654C35.5466 25.4876 35.4 25.5396 35.2678 25.6184C35.1355 25.6972 35.02 25.8013 34.928 25.9248C34.836 26.0482 34.7691 26.1886 34.7313 26.3379L30.9949 41.0856C30.9185 41.3871 30.9651 41.7065 31.1243 41.9737C31.2834 42.2408 31.5422 42.4338 31.8437 42.5101C32.1452 42.5865 32.4646 42.5399 32.7317 42.3807C32.9989 42.2216 33.1918 41.9628 33.2682 41.6613L37.0047 26.9135C37.0425 26.7642 37.0505 26.609 37.0283 26.4566C37.0061 26.3042 36.9541 26.1577 36.8753 26.0254C36.7965 25.8932 36.6924 25.7777 36.5689 25.6857C36.4455 25.5936 36.3051 25.5268 36.1558 25.489Z" fill="url(#paint4_linear_7203_3048)"/>
<path d="M34.7313 26.3379L42.4863 28.3026L42.4868 28.3009L34.7313 26.3379ZM30.9949 41.0856L23.2399 39.1209L23.2396 39.1218L30.9949 41.0856ZM33.2682 41.6613L25.5132 39.6965L25.513 39.6975L33.2682 41.6613ZM37.0047 26.9135L44.7596 28.8783L44.7597 28.8781L37.0047 26.9135ZM38.1204 17.734C36.9526 17.4382 35.738 17.3753 34.5458 17.5489L36.852 33.3818C35.9647 33.5111 35.0605 33.4643 34.1912 33.2441L38.1204 17.734ZM34.5458 17.5489C33.3537 17.7225 32.2075 18.1293 31.1726 18.746L39.3629 32.4908C38.5926 32.9498 37.7394 33.2526 36.852 33.3818L34.5458 17.5489ZM31.1726 18.746C30.1377 19.3627 29.2344 20.1772 28.5144 21.143L41.3416 30.7066C40.8056 31.4254 40.1333 32.0317 39.3629 32.4908L31.1726 18.746ZM28.5144 21.143C27.7943 22.1088 27.2715 23.207 26.9759 24.3748L42.4868 28.3009C42.2667 29.1702 41.8776 29.9876 41.3416 30.7066L28.5144 21.143ZM26.9764 24.3731L23.2399 39.1209L38.7498 43.0504L42.4863 28.3026L26.9764 24.3731ZM23.2396 39.1218C22.6425 41.4801 23.0066 43.979 24.2519 46.0688L37.9966 37.8785C38.9236 39.4341 39.1946 41.2941 38.7501 43.0494L23.2396 39.1218ZM24.2519 46.0688C25.4972 48.1587 27.5216 49.6682 29.8799 50.2654L33.8075 34.7549C35.5628 35.1994 37.0697 36.323 37.9966 37.8785L24.2519 46.0688ZM29.8799 50.2654C32.2381 50.8625 34.737 50.4984 36.8269 49.2531L28.6366 35.5083C30.1922 34.5814 32.0522 34.3104 33.8075 34.7549L29.8799 50.2654ZM36.8269 49.2531C38.9167 48.0078 40.4262 45.9833 41.0234 43.6251L25.513 39.6975C25.9574 37.9422 27.081 36.4353 28.6366 35.5083L36.8269 49.2531ZM41.0231 43.6261L44.7596 28.8783L29.2497 24.9487L25.5132 39.6965L41.0231 43.6261ZM44.7597 28.8781C45.0555 27.7103 45.1184 26.4956 44.9448 25.3035L29.1119 27.6097C28.9826 26.7223 29.0294 25.8182 29.2496 24.9489L44.7597 28.8781ZM44.9448 25.3035C44.7711 24.1114 44.3644 22.9652 43.7477 21.9303L30.0029 30.1206C29.5439 29.3502 29.2411 28.497 29.1119 27.6097L44.9448 25.3035ZM43.7477 21.9303C43.131 20.8954 42.3165 19.9921 41.3507 19.2721L31.7871 32.0993C31.0682 31.5633 30.462 30.891 30.0029 30.1206L43.7477 21.9303ZM41.3507 19.2721C40.385 18.552 39.2868 18.0292 38.1189 17.7336L34.1928 33.2444C33.3234 33.0244 32.506 32.6352 31.7871 32.0993L41.3507 19.2721Z" fill="url(#paint5_linear_7203_3048)" mask="url(#path-5-inside-3_7203_3048)"/>
<mask id="path-7-inside-4_7203_3048" fill="white">
<path fill-rule="evenodd" clip-rule="evenodd" d="M17.586 51.5865H50.4136C50.7245 51.5865 51.0227 51.463 51.2426 51.2431C51.4625 51.0232 51.586 50.725 51.586 50.4141V17.5865C51.586 17.2755 51.4625 16.9773 51.2426 16.7575C51.0227 16.5376 50.7245 16.4141 50.4136 16.4141H17.586C17.275 16.4141 16.9768 16.5376 16.757 16.7575C16.5371 16.9773 16.4136 17.2755 16.4136 17.5865V50.4141C16.4136 50.725 16.5371 51.0232 16.757 51.2431C16.9768 51.463 17.275 51.5865 17.586 51.5865ZM18.7584 18.7589H49.2412V49.2416H18.7584V18.7589Z"/>
</mask>
<path fill-rule="evenodd" clip-rule="evenodd" d="M17.586 51.5865H50.4136C50.7245 51.5865 51.0227 51.463 51.2426 51.2431C51.4625 51.0232 51.586 50.725 51.586 50.4141V17.5865C51.586 17.2755 51.4625 16.9773 51.2426 16.7575C51.0227 16.5376 50.7245 16.4141 50.4136 16.4141H17.586C17.275 16.4141 16.9768 16.5376 16.757 16.7575C16.5371 16.9773 16.4136 17.2755 16.4136 17.5865V50.4141C16.4136 50.725 16.5371 51.0232 16.757 51.2431C16.9768 51.463 17.275 51.5865 17.586 51.5865ZM18.7584 18.7589H49.2412V49.2416H18.7584V18.7589Z" fill="url(#paint6_linear_7203_3048)"/>
<path d="M18.7584 18.7589V10.7589H10.7584V18.7589H18.7584ZM49.2412 18.7589H57.2412V10.7589H49.2412V18.7589ZM49.2412 49.2416V57.2416H57.2412V49.2416H49.2412ZM18.7584 49.2416H10.7584V57.2416H18.7584V49.2416ZM17.586 59.5865H50.4136V43.5865H17.586V59.5865ZM50.4136 59.5865C52.8462 59.5865 55.1793 58.6201 56.8994 56.8999L45.5857 45.5862C46.8662 44.3058 48.6028 43.5865 50.4136 43.5865V59.5865ZM56.8994 56.8999C58.6196 55.1798 59.586 52.8467 59.586 50.4141H43.586C43.586 48.6033 44.3053 46.8667 45.5857 45.5862L56.8994 56.8999ZM59.586 50.4141V17.5865H43.586V50.4141H59.586ZM59.586 17.5865C59.586 15.1538 58.6196 12.8208 56.8994 11.1006L45.5857 22.4143C44.3053 21.1339 43.586 19.3972 43.586 17.5865H59.586ZM56.8994 11.1006C55.1793 9.38042 52.8462 8.41406 50.4136 8.41406V24.4141C48.6028 24.4141 46.8662 23.6947 45.5857 22.4143L56.8994 11.1006ZM50.4136 8.41406H17.586V24.4141H50.4136V8.41406ZM17.586 8.41406C15.1533 8.41406 12.8203 9.38042 11.1001 11.1006L22.4138 22.4143C21.1334 23.6947 19.3968 24.4141 17.586 24.4141V8.41406ZM11.1001 11.1006C9.37993 12.8208 8.41357 15.1538 8.41357 17.5865H24.4136C24.4136 19.3972 23.6943 21.1339 22.4138 22.4143L11.1001 11.1006ZM8.41357 17.5865V50.4141H24.4136V17.5865H8.41357ZM8.41357 50.4141C8.41357 52.8467 9.37993 55.1798 11.1001 56.8999L22.4138 45.5862C23.6943 46.8667 24.4136 48.6033 24.4136 50.4141H8.41357ZM11.1001 56.8999C12.8203 58.6201 15.1533 59.5865 17.586 59.5865V43.5865C19.3968 43.5865 21.1334 44.3058 22.4138 45.5862L11.1001 56.8999ZM18.7584 26.7589H49.2412V10.7589H18.7584V26.7589ZM41.2412 18.7589V49.2416H57.2412V18.7589H41.2412ZM49.2412 41.2416H18.7584V57.2416H49.2412V41.2416ZM26.7584 49.2416V18.7589H10.7584V49.2416H26.7584Z" fill="url(#paint7_linear_7203_3048)" mask="url(#path-7-inside-4_7203_3048)"/>
<mask id="path-9-inside-5_7203_3048" fill="white">
<path fill-rule="evenodd" clip-rule="evenodd" d="M66.8276 25.7931C67.1385 25.7931 67.4367 25.6696 67.6566 25.4497C67.8765 25.2298 68 24.9316 68 24.6207C68 24.3097 67.8765 24.0115 67.6566 23.7917C67.4367 23.5718 67.1385 23.4483 66.8276 23.4483H58.6207V16.4138H66.8276C67.1385 16.4138 67.4367 16.2903 67.6566 16.0704C67.8765 15.8505 68 15.5523 68 15.2414C68 14.9304 67.8765 14.6322 67.6566 14.4124C67.4367 14.1925 67.1385 14.069 66.8276 14.069H58.6207V10.5517C58.6207 10.2408 58.4972 9.94257 58.2773 9.7227C58.0574 9.50283 57.7592 9.37931 57.4483 9.37931H53.931V1.17241C53.931 0.86147 53.8075 0.563262 53.5876 0.343392C53.3678 0.123522 53.0696 0 52.7586 0C52.4477 0 52.1495 0.123522 51.9296 0.343392C51.7097 0.563262 51.5862 0.86147 51.5862 1.17241V9.37931H44.5517V1.17241C44.5517 0.86147 44.4282 0.563262 44.2083 0.343392C43.9885 0.123522 43.6903 0 43.3793 0C43.0684 0 42.7702 0.123522 42.5503 0.343392C42.3304 0.563262 42.2069 0.86147 42.2069 1.17241V9.37931H35.1724V1.17241C35.1724 0.86147 35.0489 0.563262 34.829 0.343392C34.6092 0.123522 34.3109 0 34 0C33.6891 0 33.3909 0.123522 33.171 0.343392C32.9511 0.563262 32.8276 0.86147 32.8276 1.17241V9.37931H25.7931V1.17241C25.7931 0.86147 25.6696 0.563262 25.4497 0.343392C25.2298 0.123522 24.9316 0 24.6207 0C24.3097 0 24.0115 0.123522 23.7917 0.343392C23.5718 0.563262 23.4483 0.86147 23.4483 1.17241V9.37931H16.4138V1.17241C16.4138 0.86147 16.2903 0.563262 16.0704 0.343392C15.8505 0.123522 15.5523 0 15.2414 0C14.9304 0 14.6322 0.123522 14.4124 0.343392C14.1925 0.563262 14.069 0.86147 14.069 1.17241V9.37931H10.5517C10.2408 9.37931 9.94257 9.50283 9.7227 9.7227C9.50283 9.94257 9.37931 10.2408 9.37931 10.5517V14.069H1.17241C0.86147 14.069 0.563262 14.1925 0.343392 14.4124C0.123522 14.6322 0 14.9304 0 15.2414C0 15.5523 0.123522 15.8505 0.343392 16.0704C0.563262 16.2903 0.86147 16.4138 1.17241 16.4138H9.37931V23.4483H1.17241C0.86147 23.4483 0.563262 23.5718 0.343392 23.7917C0.123522 24.0115 0 24.3097 0 24.6207C0 24.9316 0.123522 25.2298 0.343392 25.4497C0.563262 25.6696 0.86147 25.7931 1.17241 25.7931H9.37931V32.8276H1.17241C0.86147 32.8276 0.563262 32.9511 0.343392 33.171C0.123522 33.3909 0 33.6891 0 34C0 34.3109 0.123522 34.6092 0.343392 34.829C0.563262 35.0489 0.86147 35.1724 1.17241 35.1724H9.37931V42.2069H1.17241C0.86147 42.2069 0.563262 42.3304 0.343392 42.5503C0.123522 42.7702 0 43.0684 0 43.3793C0 43.6903 0.123522 43.9885 0.343392 44.2083C0.563262 44.4282 0.86147 44.5517 1.17241 44.5517H9.37931V51.5862H1.17241C0.86147 51.5862 0.563262 51.7097 0.343392 51.9296C0.123522 52.1495 0 52.4477 0 52.7586C0 53.0696 0.123522 53.3678 0.343392 53.5876C0.563262 53.8075 0.86147 53.931 1.17241 53.931H9.37931V57.4483C9.37931 57.7592 9.50283 58.0574 9.7227 58.2773C9.94257 58.4972 10.2408 58.6207 10.5517 58.6207H14.069V66.8276C14.069 67.1385 14.1925 67.4367 14.4124 67.6566C14.6322 67.8765 14.9304 68 15.2414 68C15.5523 68 15.8505 67.8765 16.0704 67.6566C16.2903 67.4367 16.4138 67.1385 16.4138 66.8276V58.6207H23.4483V66.8276C23.4483 67.1385 23.5718 67.4367 23.7917 67.6566C24.0115 67.8765 24.3097 68 24.6207 68C24.9316 68 25.2298 67.8765 25.4497 67.6566C25.6696 67.4367 25.7931 67.1385 25.7931 66.8276V58.6207H32.8276V66.8276C32.8276 67.1385 32.9511 67.4367 33.171 67.6566C33.3909 67.8765 33.6891 68 34 68C34.3109 68 34.6092 67.8765 34.829 67.6566C35.0489 67.4367 35.1724 67.1385 35.1724 66.8276V58.6207H42.2069V66.8276C42.2069 67.1385 42.3304 67.4367 42.5503 67.6566C42.7702 67.8765 43.0684 68 43.3793 68C43.6903 68 43.9885 67.8765 44.2083 67.6566C44.4282 67.4367 44.5517 67.1385 44.5517 66.8276V58.6207H51.5862V66.8276C51.5862 67.1385 51.7097 67.4367 51.9296 67.6566C52.1495 67.8765 52.4477 68 52.7586 68C53.0696 68 53.3678 67.8765 53.5876 67.6566C53.8075 67.4367 53.931 67.1385 53.931 66.8276V58.6207H57.4483C57.7592 58.6207 58.0574 58.4972 58.2773 58.2773C58.4972 58.0574 58.6207 57.7592 58.6207 57.4483V53.931H66.8276C67.1385 53.931 67.4367 53.8075 67.6566 53.5876C67.8765 53.3678 68 53.0696 68 52.7586C68 52.4477 67.8765 52.1495 67.6566 51.9296C67.4367 51.7097 67.1385 51.5862 66.8276 51.5862H58.6207V44.5517H66.8276C67.1385 44.5517 67.4367 44.4282 67.6566 44.2083C67.8765 43.9885 68 43.6903 68 43.3793C68 43.0684 67.8765 42.7702 67.6566 42.5503C67.4367 42.3304 67.1385 42.2069 66.8276 42.2069H58.6207V35.1724H66.8276C67.1385 35.1724 67.4367 35.0489 67.6566 34.829C67.8765 34.6092 68 34.3109 68 34C68 33.6891 67.8765 33.3909 67.6566 33.171C67.4367 32.9511 67.1385 32.8276 66.8276 32.8276H58.6207V25.7931H66.8276ZM56.2759 56.2759H11.7241V11.7241H56.2759V56.2759Z"/>
</mask>
<path fill-rule="evenodd" clip-rule="evenodd" d="M66.8276 25.7931C67.1385 25.7931 67.4367 25.6696 67.6566 25.4497C67.8765 25.2298 68 24.9316 68 24.6207C68 24.3097 67.8765 24.0115 67.6566 23.7917C67.4367 23.5718 67.1385 23.4483 66.8276 23.4483H58.6207V16.4138H66.8276C67.1385 16.4138 67.4367 16.2903 67.6566 16.0704C67.8765 15.8505 68 15.5523 68 15.2414C68 14.9304 67.8765 14.6322 67.6566 14.4124C67.4367 14.1925 67.1385 14.069 66.8276 14.069H58.6207V10.5517C58.6207 10.2408 58.4972 9.94257 58.2773 9.7227C58.0574 9.50283 57.7592 9.37931 57.4483 9.37931H53.931V1.17241C53.931 0.86147 53.8075 0.563262 53.5876 0.343392C53.3678 0.123522 53.0696 0 52.7586 0C52.4477 0 52.1495 0.123522 51.9296 0.343392C51.7097 0.563262 51.5862 0.86147 51.5862 1.17241V9.37931H44.5517V1.17241C44.5517 0.86147 44.4282 0.563262 44.2083 0.343392C43.9885 0.123522 43.6903 0 43.3793 0C43.0684 0 42.7702 0.123522 42.5503 0.343392C42.3304 0.563262 42.2069 0.86147 42.2069 1.17241V9.37931H35.1724V1.17241C35.1724 0.86147 35.0489 0.563262 34.829 0.343392C34.6092 0.123522 34.3109 0 34 0C33.6891 0 33.3909 0.123522 33.171 0.343392C32.9511 0.563262 32.8276 0.86147 32.8276 1.17241V9.37931H25.7931V1.17241C25.7931 0.86147 25.6696 0.563262 25.4497 0.343392C25.2298 0.123522 24.9316 0 24.6207 0C24.3097 0 24.0115 0.123522 23.7917 0.343392C23.5718 0.563262 23.4483 0.86147 23.4483 1.17241V9.37931H16.4138V1.17241C16.4138 0.86147 16.2903 0.563262 16.0704 0.343392C15.8505 0.123522 15.5523 0 15.2414 0C14.9304 0 14.6322 0.123522 14.4124 0.343392C14.1925 0.563262 14.069 0.86147 14.069 1.17241V9.37931H10.5517C10.2408 9.37931 9.94257 9.50283 9.7227 9.7227C9.50283 9.94257 9.37931 10.2408 9.37931 10.5517V14.069H1.17241C0.86147 14.069 0.563262 14.1925 0.343392 14.4124C0.123522 14.6322 0 14.9304 0 15.2414C0 15.5523 0.123522 15.8505 0.343392 16.0704C0.563262 16.2903 0.86147 16.4138 1.17241 16.4138H9.37931V23.4483H1.17241C0.86147 23.4483 0.563262 23.5718 0.343392 23.7917C0.123522 24.0115 0 24.3097 0 24.6207C0 24.9316 0.123522 25.2298 0.343392 25.4497C0.563262 25.6696 0.86147 25.7931 1.17241 25.7931H9.37931V32.8276H1.17241C0.86147 32.8276 0.563262 32.9511 0.343392 33.171C0.123522 33.3909 0 33.6891 0 34C0 34.3109 0.123522 34.6092 0.343392 34.829C0.563262 35.0489 0.86147 35.1724 1.17241 35.1724H9.37931V42.2069H1.17241C0.86147 42.2069 0.563262 42.3304 0.343392 42.5503C0.123522 42.7702 0 43.0684 0 43.3793C0 43.6903 0.123522 43.9885 0.343392 44.2083C0.563262 44.4282 0.86147 44.5517 1.17241 44.5517H9.37931V51.5862H1.17241C0.86147 51.5862 0.563262 51.7097 0.343392 51.9296C0.123522 52.1495 0 52.4477 0 52.7586C0 53.0696 0.123522 53.3678 0.343392 53.5876C0.563262 53.8075 0.86147 53.931 1.17241 53.931H9.37931V57.4483C9.37931 57.7592 9.50283 58.0574 9.7227 58.2773C9.94257 58.4972 10.2408 58.6207 10.5517 58.6207H14.069V66.8276C14.069 67.1385 14.1925 67.4367 14.4124 67.6566C14.6322 67.8765 14.9304 68 15.2414 68C15.5523 68 15.8505 67.8765 16.0704 67.6566C16.2903 67.4367 16.4138 67.1385 16.4138 66.8276V58.6207H23.4483V66.8276C23.4483 67.1385 23.5718 67.4367 23.7917 67.6566C24.0115 67.8765 24.3097 68 24.6207 68C24.9316 68 25.2298 67.8765 25.4497 67.6566C25.6696 67.4367 25.7931 67.1385 25.7931 66.8276V58.6207H32.8276V66.8276C32.8276 67.1385 32.9511 67.4367 33.171 67.6566C33.3909 67.8765 33.6891 68 34 68C34.3109 68 34.6092 67.8765 34.829 67.6566C35.0489 67.4367 35.1724 67.1385 35.1724 66.8276V58.6207H42.2069V66.8276C42.2069 67.1385 42.3304 67.4367 42.5503 67.6566C42.7702 67.8765 43.0684 68 43.3793 68C43.6903 68 43.9885 67.8765 44.2083 67.6566C44.4282 67.4367 44.5517 67.1385 44.5517 66.8276V58.6207H51.5862V66.8276C51.5862 67.1385 51.7097 67.4367 51.9296 67.6566C52.1495 67.8765 52.4477 68 52.7586 68C53.0696 68 53.3678 67.8765 53.5876 67.6566C53.8075 67.4367 53.931 67.1385 53.931 66.8276V58.6207H57.4483C57.7592 58.6207 58.0574 58.4972 58.2773 58.2773C58.4972 58.0574 58.6207 57.7592 58.6207 57.4483V53.931H66.8276C67.1385 53.931 67.4367 53.8075 67.6566 53.5876C67.8765 53.3678 68 53.0696 68 52.7586C68 52.4477 67.8765 52.1495 67.6566 51.9296C67.4367 51.7097 67.1385 51.5862 66.8276 51.5862H58.6207V44.5517H66.8276C67.1385 44.5517 67.4367 44.4282 67.6566 44.2083C67.8765 43.9885 68 43.6903 68 43.3793C68 43.0684 67.8765 42.7702 67.6566 42.5503C67.4367 42.3304 67.1385 42.2069 66.8276 42.2069H58.6207V35.1724H66.8276C67.1385 35.1724 67.4367 35.0489 67.6566 34.829C67.8765 34.6092 68 34.3109 68 34C68 33.6891 67.8765 33.3909 67.6566 33.171C67.4367 32.9511 67.1385 32.8276 66.8276 32.8276H58.6207V25.7931H66.8276ZM56.2759 56.2759H11.7241V11.7241H56.2759V56.2759Z" fill="url(#paint8_linear_7203_3048)" stroke="url(#paint9_linear_7203_3048)" stroke-width="16" mask="url(#path-9-inside-5_7203_3048)"/>
<defs>
<linearGradient id="paint0_linear_7203_3048" x1="25.9456" y1="-0.644321" x2="25.3594" y2="69.7005" gradientUnits="userSpaceOnUse">
<stop stop-color="#662D91"/>
<stop offset="1" stop-color="#65C8D0"/>
</linearGradient>
<linearGradient id="paint1_linear_7203_3048" x1="25.6337" y1="26.9481" x2="25.6337" y2="40.7815" gradientUnits="userSpaceOnUse">
<stop stop-color="#00EFD1"/>
<stop offset="1" stop-color="#00ACEA"/>
</linearGradient>
<linearGradient id="paint2_linear_7203_3048" x1="42.6299" y1="-0.503817" x2="42.0437" y2="69.841" gradientUnits="userSpaceOnUse">
<stop stop-color="#662D91"/>
<stop offset="1" stop-color="#65C8D0"/>
</linearGradient>
<linearGradient id="paint3_linear_7203_3048" x1="42.3588" y1="26.9341" x2="42.3588" y2="40.7826" gradientUnits="userSpaceOnUse">
<stop stop-color="#00EFD1"/>
<stop offset="1" stop-color="#00ACEA"/>
</linearGradient>
<linearGradient id="paint4_linear_7203_3048" x1="34.2882" y1="-0.574907" x2="33.702" y2="69.7699" gradientUnits="userSpaceOnUse">
<stop stop-color="#662D91"/>
<stop offset="1" stop-color="#65C8D0"/>
</linearGradient>
<linearGradient id="paint5_linear_7203_3048" x1="33.9998" y1="25.0704" x2="33.9998" y2="42.6056" gradientUnits="userSpaceOnUse">
<stop stop-color="#00EFD1"/>
<stop offset="1" stop-color="#00ACEA"/>
</linearGradient>
<linearGradient id="paint6_linear_7203_3048" x1="34.2882" y1="-0.574212" x2="33.702" y2="69.7706" gradientUnits="userSpaceOnUse">
<stop stop-color="#662D91"/>
<stop offset="1" stop-color="#65C8D0"/>
</linearGradient>
<linearGradient id="paint7_linear_7203_3048" x1="33.9997" y1="15.6266" x2="33.9997" y2="51.7092" gradientUnits="userSpaceOnUse">
<stop stop-color="#00EFD1"/>
<stop offset="1" stop-color="#00ACEA"/>
</linearGradient>
<linearGradient id="paint8_linear_7203_3048" x1="34.2884" y1="-0.574483" x2="33.7022" y2="69.7703" gradientUnits="userSpaceOnUse">
<stop stop-color="#662D91"/>
<stop offset="1" stop-color="#65C8D0"/>
</linearGradient>
<linearGradient id="paint9_linear_7203_3048" x1="33.9999" y1="-1.52245" x2="33.9999" y2="68.2372" gradientUnits="userSpaceOnUse">
<stop stop-color="#00EFD1"/>
<stop offset="1" stop-color="#00ACEA"/>
</linearGradient>
</defs>
</svg>
