<?xml version="1.0" encoding="UTF-8"?><svg id="a" xmlns="http://www.w3.org/2000/svg" viewBox="0 0 60 60"><defs><style>.b{fill:#0066B3;}</style></defs><path class="b" d="M25,32.68h-.03c-2.58-.01-5.16-.01-7.74,0H3.88c-.22,0-.52,.01-.85-.05-1.4-.24-2.44-1.29-2.85-2.89-.36-1.37-.15-2.7,.59-3.85,.35-.53,.7-1.05,1.06-1.57l2.21-3.26c2.49-3.67,4.99-7.34,7.48-11.01,.36-.53,1.31-1.93,2.91-1.93h0c1.6,0,2.54,1.39,2.9,1.92l3.51,5.17c2.31,3.4,4.62,6.8,6.93,10.19,.65,.95,1.44,2.44,.86,4.45-.52,1.82-1.81,2.82-3.64,2.82Zm-4.94-3.71c1.64,0,3.29,0,4.93,.01h.04s.03-.09,.05-.15c.12-.4,.09-.68-.37-1.35-2.32-3.4-4.63-6.8-6.94-10.2l-3.36-4.94c-2.45,3.6-4.89,7.19-7.34,10.79l-2.22,3.27c-.34,.49-.68,.99-1,1.49-.12,.18-.23,.44-.11,.91,.02,.07,.04,.13,.05,.17h13.42c.94,0,1.89,0,2.83,0Z"/><path class="b" d="M45.59,51.88h0c-1.6,0-2.55-1.4-2.91-1.93-2.49-3.67-4.99-7.34-7.48-11.01l-2.21-3.26c-.35-.52-.71-1.04-1.05-1.57-.74-1.15-.95-2.48-.59-3.85,.42-1.6,1.46-2.65,2.85-2.89,.34-.06,.64-.05,.86-.05h13.35c2.58,0,5.16,0,7.74,0h.03c1.82,0,3.11,1,3.63,2.82,.58,2.01-.22,3.5-.86,4.45-2.31,3.38-4.61,6.77-6.91,10.16l-3.53,5.2c-.36,.52-1.3,1.92-2.9,1.92Zm-10.62-20.85s-.03,.1-.05,.17c-.12,.46,0,.73,.11,.91,.33,.51,.67,1,1,1.49l2.22,3.27c2.44,3.6,4.89,7.2,7.34,10.79l3.38-4.97c2.3-3.39,4.61-6.78,6.92-10.17,.46-.67,.48-.94,.37-1.34-.02-.06-.04-.11-.05-.15-.01,0-.03,0-.04,0-2.59,.01-5.18,.01-7.77,0h-13.42Z"/></svg>