<svg width="60" height="39" viewBox="0 0 60 39" fill="none" xmlns="http://www.w3.org/2000/svg">
<g clip-path="url(#clip0_5331_1237)">
<path d="M23.3878 25.152H3.85927C3.18458 25.1555 2.52103 24.9786 1.93619 24.6393C1.35136 24.3 0.86615 23.8104 0.530006 23.2203C0.187003 22.6345 0.00413067 21.9674 6.91768e-05 21.287C-0.00399231 20.6066 0.170856 19.9373 0.50684 19.3474L10.2712 1.96862C10.6037 1.36733 11.0902 0.867208 11.68 0.52056C12.2697 0.173911 12.941 -0.00652165 13.6236 -0.00186523C14.306 -0.00610941 14.9772 0.174497 15.5669 0.521103C16.1565 0.867709 16.6431 1.36761 16.9759 1.96862L26.7403 19.3474C27.0761 19.9374 27.2508 20.6067 27.2468 21.287C27.2427 21.9673 27.0599 22.6344 26.7171 23.2203C26.381 23.8104 25.8958 24.3 25.3109 24.6393C24.7261 24.9786 24.0625 25.1555 23.3878 25.152ZM13.6236 6.72966C13.4525 6.72819 13.2842 6.77325 13.1364 6.86012C12.9885 6.94698 12.8666 7.07242 12.7835 7.22325L5.76088 19.8176C5.67633 19.9654 5.63182 20.1329 5.63182 20.3035C5.63182 20.474 5.67633 20.6416 5.76088 20.7893C5.84582 20.9353 5.96712 21.0565 6.11278 21.1407C6.25843 21.2248 6.42339 21.2692 6.59127 21.2693H20.6366C20.805 21.2693 20.9704 21.2249 21.1165 21.1403C21.2625 21.0557 21.384 20.934 21.4689 20.7873C21.5546 20.64 21.5998 20.4723 21.5998 20.3015C21.5998 20.1307 21.5546 19.963 21.4689 19.8157L14.4443 7.22131C14.3625 7.07372 14.2436 6.95053 14.0995 6.86419C13.9553 6.77786 13.7912 6.73145 13.6236 6.72966V6.72966Z" fill="#0066B3"/>
<path d="M36.6126 13.4926L56.1412 13.4926C56.8159 13.489 57.4795 13.6659 58.0643 14.0052C58.6491 14.3445 59.1343 14.8342 59.4705 15.4242C59.8135 16.0101 59.9964 16.6772 60.0004 17.3575C60.0045 18.0379 59.8296 18.7072 59.4936 19.2972L49.7293 36.6759C49.3968 37.2772 48.9103 37.7773 48.3205 38.124C47.7308 38.4706 47.0595 38.6511 46.3769 38.6464C45.6944 38.6506 45.0233 38.47 44.4336 38.1234C43.844 37.7768 43.3574 37.2769 43.0246 36.6759L33.2602 19.2972C32.9244 18.7071 32.7497 18.0379 32.7537 17.3575C32.7578 16.6772 32.9406 16.0101 33.2834 15.4242C33.6195 14.8342 34.1047 14.3445 34.6896 14.0052C35.2744 13.6659 35.938 13.489 36.6126 13.4926ZM46.3769 31.9149C46.548 31.9163 46.7163 31.8713 46.8641 31.7844C47.0119 31.6976 47.1339 31.5721 47.217 31.4213L54.2396 18.8269C54.3242 18.6792 54.3687 18.5116 54.3687 18.3411C54.3687 18.1705 54.3242 18.003 54.2396 17.8552C54.1547 17.7092 54.0334 17.5881 53.8877 17.5039C53.7421 17.4197 53.5771 17.3753 53.4092 17.3753L39.3639 17.3753C39.1955 17.3752 39.0301 17.4197 38.884 17.5042C38.738 17.5888 38.6165 17.7105 38.5316 17.8572C38.4459 18.0045 38.4007 18.1722 38.4007 18.343C38.4007 18.5138 38.4459 18.6815 38.5316 18.8288L45.5562 31.4232C45.638 31.5708 45.7569 31.694 45.901 31.7803C46.0452 31.8667 46.2093 31.9131 46.3769 31.9149V31.9149Z" fill="#0066B3"/>
</g>
<defs>
<clipPath id="clip0_5331_1237">
<rect width="60" height="38.6441" fill="white"/>
</clipPath>
</defs>
</svg>
