<svg width="35" height="46" viewBox="0 0 35 46" fill="none" xmlns="http://www.w3.org/2000/svg">
<path d="M14.2306 8.72789C13.3106 8.72789 12.6478 9.40081 12.6478 10.3298C12.6478 11.2589 13.3155 11.9318 14.2306 11.9318C15.1506 11.9318 15.8134 11.2589 15.8134 10.3298C15.8184 9.40583 15.1506 8.72789 14.2306 8.72789ZM33.7142 13.5689C33.0316 12.8759 32.0968 12.4892 31.0828 12.4892C30.8899 12.4892 30.7167 12.5093 30.5535 12.5394V12.4892H30.3754C30.1034 10.9525 29.4554 9.45103 28.4909 8.10017C27.5659 6.80958 26.364 5.69475 24.9889 4.84105L26.2304 3.04326V2.87754C26.2304 2.83737 26.2502 2.76204 26.265 2.68671C26.2947 2.56619 26.3343 2.41052 26.3343 2.23978C26.3343 1.31075 25.6665 0.637834 24.7515 0.637834C24.2667 0.637834 23.7869 0.924075 23.4704 1.41119L22.0211 3.52535C20.5372 3.03321 18.9346 2.77208 17.3814 2.77208C15.8332 2.77208 14.2306 3.03321 12.7418 3.52535L11.2974 1.40616C10.971 0.924075 10.5011 0.632812 10.0114 0.632812C9.09136 0.632812 8.42855 1.30573 8.42855 2.23475C8.42855 2.5461 8.55221 2.87754 8.75996 3.10854L9.87783 4.73057C8.45823 5.58427 7.23154 6.70914 6.30658 7.99974C5.34699 9.35059 4.72375 10.8521 4.49127 12.3888H4.21922V12.439C4.06094 12.4088 3.88782 12.3888 3.68996 12.3888C2.68586 12.3888 1.751 12.7654 1.06346 13.4584C0.380868 14.1514 0 15.0955 0 16.1199V27.9211C0 28.9405 0.370975 29.8846 1.05852 30.5776C1.74111 31.2706 2.68091 31.6573 3.68996 31.6573C3.88287 31.6573 4.05599 31.6372 4.21922 31.607V36.3024C4.21922 37.7687 5.4014 38.9689 6.85067 38.9689H8.42855V41.8966C8.42855 42.916 8.79953 43.8601 9.48707 44.5531C10.1697 45.2461 11.1095 45.6328 12.1185 45.6328C13.1226 45.6328 14.0575 45.2562 14.745 44.5632C15.4276 43.8702 15.8085 42.9261 15.8085 41.9016V38.979H18.9642V41.8966C18.9642 42.916 19.3352 43.8601 20.0228 44.5531C20.7054 45.2461 21.6452 45.6328 22.6542 45.6328C23.6633 45.6328 24.5932 45.2562 25.2807 44.5481C25.9633 43.8551 26.3442 42.911 26.3442 41.8866V38.9639H27.9221C29.3713 38.9639 30.5535 37.7687 30.5535 36.2974V31.7075C30.7118 31.7376 30.8849 31.7577 31.0828 31.7577C32.0869 31.7577 33.0217 31.3811 33.7093 30.6881C34.3919 29.995 34.7727 29.051 34.7727 28.0265V16.2254C34.7678 15.206 34.3968 14.2669 33.7142 13.5689ZM4.22417 28.0315C4.22417 28.373 4.03126 28.5638 3.69491 28.5638C3.35856 28.5638 3.16565 28.373 3.16565 28.0315V16.2254C3.16565 15.8839 3.35856 15.6931 3.69491 15.6931C4.03126 15.6931 4.22417 15.8839 4.22417 16.2254V28.0315ZM10.7088 8.10519C12.5637 6.73425 14.928 5.98099 17.3864 5.98099C19.8447 5.98099 22.209 6.73927 24.0639 8.11524C25.6665 9.30539 26.7448 10.837 27.1653 12.5093H7.60746C8.0279 10.832 9.11609 9.29535 10.7088 8.10519ZM12.6527 41.987C12.623 42.2682 12.4351 42.4239 12.1334 42.4239C11.797 42.4239 11.6041 42.2331 11.6041 41.8916V38.9689H12.6527V41.987ZM22.6592 42.4239C22.3228 42.4239 22.1299 42.2331 22.1299 41.8916V38.9689H23.1785V41.987C23.1488 42.2682 22.9658 42.4239 22.6592 42.4239ZM27.3977 35.7651H7.38488V15.6981H27.3977V35.7651ZM31.612 28.0315C31.612 28.373 31.4191 28.5638 31.0828 28.5638C30.7464 28.5638 30.5535 28.373 30.5535 28.0315V16.2254C30.5535 15.8839 30.7464 15.6931 31.0828 15.6931C31.4191 15.6931 31.612 15.8839 31.612 16.2254V28.0315ZM20.552 8.72789C19.632 8.72789 18.9692 9.40081 18.9692 10.3298C18.9692 11.2589 19.6369 11.9318 20.552 11.9318C21.472 11.9318 22.1398 11.2589 22.1398 10.3248C22.1348 9.39076 21.477 8.72789 20.552 8.72789Z" fill="black"/>
</svg>
