<svg width="54" height="70" viewBox="0 0 54 70" fill="none" xmlns="http://www.w3.org/2000/svg">
<path d="M22.0993 12.5923C20.6706 12.5923 19.6413 13.6391 19.6413 15.0843C19.6413 16.5294 20.6782 17.5762 22.0993 17.5762C23.528 17.5762 24.5573 16.5294 24.5573 15.0843C24.565 13.6469 23.528 12.5923 22.0993 12.5923ZM52.3562 22.1228C51.2962 21.0448 49.8444 20.4433 48.2697 20.4433C47.9701 20.4433 47.7128 20.4433 47.4478 20.4433H47.1713C47.1713 18 45.7425 13.7172 44.2447 11.6159C42.8082 9.6083 40.9417 7.87412 38.8063 6.54614L40.7343 3.74958V3.4918C40.7343 3.4293 40.765 3.31213 40.7881 3.19496C40.8341 3.00748 40.8956 2.76532 40.8956 2.49972C40.8956 1.05457 39.8586 0.00781151 38.4376 0.00781151C37.6848 0.00781151 36.9397 0.453075 36.4481 1.2108L34.1974 4.4995C31.893 3.73396 29.4043 3.32775 26.9923 3.32775C24.5881 3.32775 22.0993 3.73396 19.7872 4.4995L17.5442 1.20299C17.0373 0.453075 16.3075 0 15.5471 0C14.1183 0 13.089 1.04676 13.089 2.49191C13.089 2.97623 13.2811 3.4918 13.6037 3.85113L15.3397 6.37429C13.1351 7.70227 11.2302 9.45207 9.79374 11.4597C8.30356 13.561 6.97468 18 6.97468 20.287H6.5522C6.28279 20.287 6.03755 20.287 5.7303 20.287C4.17098 20.287 2.7192 20.8729 1.65149 21.9509C0.591465 23.0289 0 25 0 26.0911C0 27.1821 0 42.4484 0 42.4484C0 44.0342 0.576102 45.5027 1.64381 46.5807C2.70384 47.6587 4.1633 48.2602 5.7303 48.2602C6.02987 48.2602 6.29872 48.229 6.5522 48.1821V55.486C6.5522 57.767 8.38805 59.634 10.6387 59.634H13.089V64.1881C13.089 65.7739 13.6651 67.2425 14.7329 68.3205C15.7929 69.3985 17.2523 70 18.8193 70C20.3787 70 21.8304 69.4141 22.8982 68.3361C23.9582 67.2581 24.5496 65.7895 24.5496 64.196V59.6496H29.4504V64.1881C29.4504 65.7739 30.0265 67.2425 31.0942 68.3205C32.1542 69.3985 33.6137 70 35.1807 70C36.7477 70 38.1917 69.4141 39.2595 68.3127C40.3195 67.2347 40.9109 65.7661 40.9109 64.1725V59.6262H43.3613C45.6119 59.6262 47.4478 57.767 47.4478 55.4782V48.3384C47.6936 48.3852 47.9624 48.4165 48.2697 48.4165C49.829 48.4165 51.2808 47.8306 52.3485 46.7526C53.4085 45.6746 54 44.206 54 42.6124V26.2551C53.9923 24.6693 53.4162 23.2086 52.3562 22.1228ZM6.55989 42.6202C6.55989 43.1514 6.26031 43.4483 5.73798 43.4483C5.21565 43.4483 4.91607 43.1514 4.91607 42.6202V26.2551C4.91607 25.7239 5.21565 25.4271 5.73798 25.4271C6.26031 25.4271 6.55989 25.7239 6.55989 26.2551V42.6202ZM16.6302 11.6237C19.5107 9.49113 23.1824 8.31938 27 8.31938C30.8176 8.31938 34.4893 9.49894 37.3698 11.6393C39.8586 13.4907 42.1861 18 42.1861 20.4745H11.8139C11.8139 17.5762 14.1568 13.4751 16.6302 11.6237ZM19.6489 64.3288C19.6028 64.7662 19.311 65.0084 18.8424 65.0084C18.3201 65.0084 18.0205 64.7115 18.0205 64.1803V59.634H19.6489V64.3288ZM35.1883 65.0084C34.666 65.0084 34.3664 64.7115 34.3664 64.1803V59.634H35.9949V64.3288C35.9488 64.7662 35.6646 65.0084 35.1883 65.0084ZM42.5471 54.6502H11.4683V25.4349H42.5471V54.6502ZM49.0916 42.6202C49.0916 43.1514 48.792 43.4483 48.2697 43.4483C47.7474 43.4483 47.4478 43.1514 47.4478 42.6202V26.2551C47.4478 25.7239 47.7474 25.4271 48.2697 25.4271C48.792 25.4271 49.0916 25.7239 49.0916 26.2551V42.6202ZM31.9161 12.5923C30.4873 12.5923 29.458 13.6391 29.458 15.0843C29.458 16.5294 30.495 17.5762 31.9161 17.5762C33.3448 17.5762 34.3818 16.5294 34.3818 15.0764C34.3741 13.6235 33.3525 12.5923 31.9161 12.5923Z" fill="url(#paint0_linear_5273_1470)"/>
<defs>
<linearGradient id="paint0_linear_5273_1470" x1="26.9999" y1="-1.56723" x2="26.9999" y2="70.2442" gradientUnits="userSpaceOnUse">
<stop stop-color="#00EFD1"/>
<stop offset="1" stop-color="#00ACEA"/>
</linearGradient>
</defs>
</svg>
