<svg width="83" height="64" viewBox="0 0 83 64" fill="none" xmlns="http://www.w3.org/2000/svg">
<path d="M23.2633 40.5726H59.7355C60.1501 40.5655 60.5388 40.3802 60.7956 40.0682C61.0523 39.7561 61.1505 39.3498 61.0623 38.9613L56.7455 20.2759C56.6115 19.6708 56.0636 19.2327 55.4194 19.2148H27.5801C26.9366 19.2308 26.3886 19.6677 26.2539 20.2714L21.9372 38.9358C21.8477 39.3294 21.9458 39.7415 22.2039 40.0592C22.4586 40.3745 22.8481 40.563 23.2633 40.5726ZM28.67 21.8234H54.3295L58.0418 37.964H24.9577L28.67 21.8234Z" fill="url(#paint0_linear_6462_2105)"/>
<path d="M51.5673 26.1093C51.4313 25.51 50.8793 25.0827 50.2405 25.082H39.5579C38.8076 25.082 38.1992 25.666 38.1992 26.3863C38.1992 27.1066 38.8076 27.6906 39.5579 27.6906H49.1472L50.5324 33.7624C50.6339 34.2197 50.9828 34.5897 51.4466 34.7324C51.9103 34.875 52.4184 34.7687 52.7773 34.4528C53.1369 34.1375 53.2928 33.6612 53.1866 33.2052L51.5673 26.1093Z" fill="url(#paint1_linear_6462_2105)"/>
<path d="M78.6512 43.2641C78.5172 42.6591 77.9692 42.221 77.3251 42.2031H49.485C48.8409 42.221 48.2929 42.6591 48.1589 43.2641L43.8422 61.9305C43.7533 62.3241 43.8508 62.7348 44.1089 63.0513C44.3643 63.3653 44.7537 63.5526 45.1683 63.5608H81.6411C82.0551 63.5564 82.4445 63.373 82.7006 63.0609C82.9593 62.7425 83.0568 62.3304 82.9673 61.9362L78.6512 43.2641ZM46.8626 60.9523L50.575 44.8117H76.2351L79.9475 60.9523H46.8626Z" fill="url(#paint2_linear_6462_2105)"/>
<path d="M73.4721 49.1053C73.3361 48.5054 72.7841 48.0768 72.1446 48.0742H61.4626C60.7123 48.0742 60.104 48.6582 60.104 49.3785C60.104 50.0988 60.7123 50.6828 61.4626 50.6828H71.0513L72.4359 56.7591C72.5327 57.2214 72.881 57.5978 73.348 57.7437C73.8144 57.8889 74.3272 57.7819 74.6881 57.4628C75.0496 57.1431 75.2035 56.6616 75.0901 56.2031L73.4721 49.1053Z" fill="url(#paint3_linear_6462_2105)"/>
<path d="M34.8408 43.2641C34.7068 42.6591 34.1589 42.221 33.5147 42.2031H5.67469C5.03054 42.221 4.48257 42.6591 4.34857 43.2641L0.0325192 61.9305C-0.0570392 62.3241 0.0404799 62.7348 0.299204 63.0513C0.554611 63.366 0.943361 63.5526 1.35865 63.5608H37.8314C38.2454 63.5564 38.6348 63.373 38.8909 63.0609C39.1496 62.7425 39.2471 62.3304 39.1576 61.9362L34.8408 43.2641ZM3.05229 60.9523L6.76465 44.8117H32.4248L36.1371 60.9523H3.05229Z" fill="url(#paint4_linear_6462_2105)"/>
<path d="M29.663 49.1053C29.527 48.5054 28.9751 48.0768 28.3355 48.0742H17.6536C16.9033 48.0742 16.2949 48.6582 16.2949 49.3785C16.2949 50.0988 16.9033 50.6828 17.6536 50.6828H27.2429L28.6274 56.7591C28.7236 57.2214 29.0726 57.5978 29.5389 57.7437C30.006 57.8889 30.5188 57.7819 30.8797 57.4628C31.2412 57.1431 31.3945 56.6616 31.2817 56.2031L29.663 49.1053Z" fill="url(#paint5_linear_6462_2105)"/>
<path d="M63.7906 18.1808C64.1515 18.1815 64.4971 18.0439 64.7518 17.7987L69.6703 13.0764C70.0199 12.7484 70.1585 12.265 70.0338 11.8116C69.9091 11.3575 69.5396 11.0028 69.0672 10.8831C68.5942 10.7633 68.0907 10.8964 67.7491 11.2321L62.8307 15.9537C62.4419 16.3269 62.3258 16.888 62.5361 17.3752C62.7464 17.8624 63.242 18.1802 63.7913 18.1808H63.7906Z" fill="url(#paint6_linear_6462_2105)"/>
<path d="M41.1599 9.64141C41.9109 9.64141 42.5185 9.05741 42.5185 8.33712V1.30429C42.5185 0.584 41.9109 0 41.1599 0C40.4096 0 39.8013 0.584 39.8013 1.30429V8.33712C39.8013 9.05741 40.4096 9.64141 41.1599 9.64141Z" fill="url(#paint7_linear_6462_2105)"/>
<path d="M18.2479 17.7987C18.5895 18.1362 19.0944 18.2706 19.568 18.1509C20.0423 18.0318 20.4125 17.6758 20.5366 17.2211C20.6613 16.7657 20.5207 16.2817 20.1691 15.9537L15.2506 11.2321C14.909 10.8964 14.4055 10.7633 13.9325 10.8831C13.4595 11.0028 13.0906 11.3575 12.9659 11.8116C12.8412 12.265 12.9798 12.7484 13.3295 13.0764L18.2479 17.7987Z" fill="url(#paint8_linear_6462_2105)"/>
<defs>
<linearGradient id="paint0_linear_6462_2105" x1="41.4993" y1="18.7367" x2="41.4993" y2="40.647" gradientUnits="userSpaceOnUse">
<stop stop-color="#00EFD1"/>
<stop offset="1" stop-color="#00ACEA"/>
</linearGradient>
<linearGradient id="paint1_linear_6462_2105" x1="45.7093" y1="24.8646" x2="45.7093" y2="34.8285" gradientUnits="userSpaceOnUse">
<stop stop-color="#00EFD1"/>
<stop offset="1" stop-color="#00ACEA"/>
</linearGradient>
<linearGradient id="paint2_linear_6462_2105" x1="63.4048" y1="41.7249" x2="63.4048" y2="63.6353" gradientUnits="userSpaceOnUse">
<stop stop-color="#00EFD1"/>
<stop offset="1" stop-color="#00ACEA"/>
</linearGradient>
<linearGradient id="paint3_linear_6462_2105" x1="67.6154" y1="47.8563" x2="67.6154" y2="57.8413" gradientUnits="userSpaceOnUse">
<stop stop-color="#00EFD1"/>
<stop offset="1" stop-color="#00ACEA"/>
</linearGradient>
<linearGradient id="paint4_linear_6462_2105" x1="19.595" y1="41.7249" x2="19.595" y2="63.6353" gradientUnits="userSpaceOnUse">
<stop stop-color="#00EFD1"/>
<stop offset="1" stop-color="#00ACEA"/>
</linearGradient>
<linearGradient id="paint5_linear_6462_2105" x1="23.8065" y1="47.8563" x2="23.8065" y2="57.8413" gradientUnits="userSpaceOnUse">
<stop stop-color="#00EFD1"/>
<stop offset="1" stop-color="#00ACEA"/>
</linearGradient>
<linearGradient id="paint6_linear_6462_2105" x1="66.2557" y1="10.6755" x2="66.2557" y2="18.2064" gradientUnits="userSpaceOnUse">
<stop stop-color="#00EFD1"/>
<stop offset="1" stop-color="#00ACEA"/>
</linearGradient>
<linearGradient id="paint7_linear_6462_2105" x1="41.1599" y1="-0.215862" x2="41.1599" y2="9.67504" gradientUnits="userSpaceOnUse">
<stop stop-color="#00EFD1"/>
<stop offset="1" stop-color="#00ACEA"/>
</linearGradient>
<linearGradient id="paint8_linear_6462_2105" x1="16.7511" y1="10.6752" x2="16.7511" y2="18.2195" gradientUnits="userSpaceOnUse">
<stop stop-color="#00EFD1"/>
<stop offset="1" stop-color="#00ACEA"/>
</linearGradient>
</defs>
</svg>
