<svg xmlns="http://www.w3.org/2000/svg" width="30" height="30" viewBox="0 0 51.862 49.064"><defs><style>.a{fill:#fff;stroke:rgba(0,0,0,0);}</style></defs><g transform="translate(-2537.466 4134.546)"><path class="a" d="M2570.851-4131.869c0,2.8-.012,5.506.021,8.213a1.09,1.09,0,0,0,.472.71c2.241,1.55,2.258,3.518.076,5.053a1.629,1.629,0,0,0-.547,1.156c-.049,2.547-.025,5.1-.025,7.829-1.148,0-2.227-.04-3.3.024a1.218,1.218,0,0,0-.91.515c-.8,1.812-1.539,3.649-2.247,5.5a6.576,6.576,0,0,0-.2,1.466,1.175,1.175,0,0,1-.446.1c-1.91-.393-2.816.513-3.336,2.282s-1.294,3.453-1.723,5.267c-.062.045-.133.139-.183.129-2.081-.406-3.2.506-3.658,2.519a1.334,1.334,0,0,1-1.025.729c-4.822.05-9.645.038-14.468.038-.734,0-1.269-.274-1.269-1.074,0-1.149,1.682-1.063,2.105-1.087,0-1.582,0-3.145,0-4.707,0-.729-.039-1.462.015-2.188a2.423,2.423,0,0,0-1.159-2.58,2.5,2.5,0,0,1,.275-4.275,1.717,1.717,0,0,0,.889-1.748c-.04-2.917.008-5.837-.051-8.753a1.72,1.72,0,0,0-.671-1.193c-2-1.367-1.963-3.606.114-4.944a1.2,1.2,0,0,0,.563-.762c.041-2.708.025-5.416.025-8.183-.482-.055-2.1.264-2.1-1.118,0-1.164,1.461-1.091,1.744-1.091h31.125c.283,0,2.066-.092,2.066,1.086C2573.023-4131.762,2571.307-4131.907,2570.851-4131.869Zm-15.211,10.138a76.763,76.763,0,0,0-5,9.391,7.281,7.281,0,0,0-.549,2.811,4.982,4.982,0,0,0,3.618,4.69,5.206,5.206,0,0,0,5.623-1.21,4.866,4.866,0,0,0,1.249-5.783C2559.128-4115.009,2555.64-4121.731,2555.64-4121.731Z"/><path class="a" d="M2608.574-3954.15c.752-1.83,1.4-3.463,2.112-5.071.074-.168.477-.267.73-.269,1.944-.021,3.89-.048,5.831.026a1.46,1.46,0,0,1,1.012.744c.546,1.145.972,2.347,1.554,3.8.6-1.452,1.115-2.619,1.555-3.813a1.021,1.021,0,0,1,1.143-.79c1.862.042,3.728-.03,5.587.051a1.579,1.579,0,0,1,1.1.784c.553,1.117.968,2.3,1.557,3.758.571-1.391,1.087-2.534,1.5-3.712a1.163,1.163,0,0,1,1.334-.88c1.781.05,3.565.056,5.346,0a1.11,1.11,0,0,1,1.251.841c.542,1.46,1.129,2.9,1.767,4.529Z" transform="translate(-53.36 -131.897)"/><path class="a" d="M2653.978-3985.63h-22.293c.323-.979.557-1.841.887-2.664,1.109-2.755,1.122-2.761,4.087-2.729,1.408.015,3.129-.4,4.135.262.95.621,1.146,2.392,1.681,3.654a4.871,4.871,0,0,0,.312.513c.529-1.262,1.05-2.436,1.51-3.634a1.025,1.025,0,0,1,1.124-.821c1.861.051,3.727-.025,5.586.056a1.563,1.563,0,0,1,1.125.763C2652.793-3988.786,2653.327-3987.285,2653.978-3985.63Z" transform="translate(-70.826 -108.004)"/><path class="a" d="M2653.409-4016.84c.754-1.854,1.4-3.485,2.1-5.1.063-.146.405-.24.619-.242,2.02-.021,4.041-.027,6.062-.006.243,0,.63.134.7.308.619,1.484,1.185,2.991,1.75,4.5.049.131-.023.309-.048.542Z" transform="translate(-87.244 -84.528)"/></g></svg>