<svg xmlns="http://www.w3.org/2000/svg" width="30" height="30" viewBox="0 0 48.872 49.001"><defs><style>.a{fill:#fff;stroke:rgba(0,0,0,0);}</style></defs><g transform="translate(-695.565 3137.553)"><path class="a" d="M696.484-2515.074c.465.6.884,1.231,1.4,1.775a12.874,12.874,0,0,0,4.405,2.868,27.173,27.173,0,0,0,7.472,1.921,36.461,36.461,0,0,0,7.523.115.647.647,0,0,1,.452.125,15.979,15.979,0,0,0,4.218,2.905c.042.02.08.047.2.116-.633.135-1.187.27-1.747.372a34.249,34.249,0,0,1-14.824-.474,18.741,18.741,0,0,1-6.406-2.858,7.555,7.555,0,0,1-2.77-3.3A4.442,4.442,0,0,1,696.484-2515.074Z" transform="translate(0 -584.766)"/><path class="a" d="M719.653-2901.814c-.6.516-1.2,1-1.762,1.513a14.945,14.945,0,0,0-2.216,2.62.518.518,0,0,1-.341.219,31.444,31.444,0,0,1-11.906-1.717,14.764,14.764,0,0,1-5.33-3.112,6.045,6.045,0,0,1-1.881-3.194,4.505,4.505,0,0,1,.354-2.787c.259.393.482.781.752,1.132a11.139,11.139,0,0,0,3.958,3.07,25.663,25.663,0,0,0,8.524,2.42,34.888,34.888,0,0,0,9.743-.164A.82.82,0,0,1,719.653-2901.814Z" transform="translate(-0.059 -215.093)"/><path class="a" d="M696.57-2614.2c1.575,2.788,4.167,4.147,6.978,5.177a29.82,29.82,0,0,0,10.062,1.692.48.48,0,0,1,.536.368,14.618,14.618,0,0,0,1.729,3.268c.046.065.091.131.133.2.009.014,0,.037,0,.1-.62.016-1.243.046-1.866.045a32.442,32.442,0,0,1-9.353-1.291,17.669,17.669,0,0,1-5.927-2.9,7.11,7.11,0,0,1-2.46-3.169A4.471,4.471,0,0,1,696.57-2614.2Z" transform="translate(-0.054 -491.568)"/><path class="a" d="M696.55-2809.72c.347.487.654.99,1.032,1.433a12.032,12.032,0,0,0,4.234,3.007,25.332,25.332,0,0,0,8.021,2.145c1.444.154,2.9.179,4.355.262.069,0,.138,0,.244,0-.036.105-.057.189-.091.267a15.083,15.083,0,0,0-1.035,3.425c-.036.2-.115.257-.312.25a29.87,29.87,0,0,1-10.552-2.115,13.376,13.376,0,0,1-4.613-2.982,5.662,5.662,0,0,1-1.682-3.295A4.437,4.437,0,0,1,696.55-2809.72Z" transform="translate(-0.048 -307.749)"/><path class="a" d="M696.561-2712.214c.245.376.455.748.711,1.085a10.893,10.893,0,0,0,3.757,2.991,22.779,22.779,0,0,0,7.2,2.3c1.523.232,3.068.326,4.6.482l.145.014.359,3.934c.018,0-.028.014-.073.013a29.809,29.809,0,0,1-10.9-2.148,13.614,13.614,0,0,1-4.319-2.732,5.83,5.83,0,0,1-1.894-3.505A4.474,4.474,0,0,1,696.561-2712.214Z" transform="translate(-0.046 -399.421)"/><path class="a" d="M1232.561-2908.785a4.423,4.423,0,0,1,.2,3.422c-.2.574-.2.55-.8.488-1.006-.1-2.016-.175-3.016-.259A9.329,9.329,0,0,0,1232.561-2908.785Z" transform="translate(-500.995 -214.611)"/><path class="a" d="M1022.743-2831.368a14.606,14.606,0,0,0-14.61,14.586,14.6,14.6,0,0,0,14.587,14.606,14.6,14.6,0,0,0,14.611-14.583A14.606,14.606,0,0,0,1022.743-2831.368Zm5.411,12.585h-2.913a4.418,4.418,0,0,1-1.326,2.353,5.517,5.517,0,0,1-2.645,1.344v.05a4.868,4.868,0,0,1,.784.46,5.279,5.279,0,0,1,.7.61,7.845,7.845,0,0,1,.666.8q.33.448.7,1.008l3.361,5.116h-3.311l-2.838-4.593q-.411-.672-.778-1.177a4.38,4.38,0,0,0-.784-.84,2.941,2.941,0,0,0-.921-.5,3.73,3.73,0,0,0-1.176-.168h-1.145v-2.166h2.365a4.256,4.256,0,0,0,1.207-.168,3.7,3.7,0,0,0,1.027-.473,3.2,3.2,0,0,0,.772-.722,2.645,2.645,0,0,0,.454-.927h-5.825v-2.029h5.85a2.71,2.71,0,0,0-.33-.84,2.012,2.012,0,0,0-.647-.647,3.289,3.289,0,0,0-1.033-.41,6.516,6.516,0,0,0-1.463-.144h-2.39l.012-2.042h11.613v2.042h-3.734a3.466,3.466,0,0,1,.591.909,3.858,3.858,0,0,1,.3,1.133h2.85Z" transform="translate(-293.393 -287.396)"/><g transform="translate(696.073 -3137.053)"><path class="a" d="M730.923-3131.29a8.862,8.862,0,0,0-1.191-1.255,15.984,15.984,0,0,0-5.548-2.977,31.946,31.946,0,0,0-10.122-1.531,34.675,34.675,0,0,0-5.923.508,24.021,24.021,0,0,0-7.267,2.382,10.686,10.686,0,0,0-3.6,2.907,4.9,4.9,0,0,0-1.073,3.833,5.548,5.548,0,0,0,1.415,2.821,12.633,12.633,0,0,0,4.526,3.1,28.877,28.877,0,0,0,10.461,2.241,34.5,34.5,0,0,0,6.738-.35,25.541,25.541,0,0,0,7.261-2.12,11.794,11.794,0,0,0,4.242-3.141A4.865,4.865,0,0,0,730.923-3131.29Zm-10.989,1.335h-2.913a2.856,2.856,0,0,1-1.326,1.52,6.959,6.959,0,0,1-2.645.869v.033a5.884,5.884,0,0,1,.784.3,5.284,5.284,0,0,1,.7.395,6.549,6.549,0,0,1,.666.515q.33.289.7.651l3.361,3.306h-3.311l-2.838-2.968q-.411-.434-.778-.76a3.863,3.863,0,0,0-.784-.543,3.633,3.633,0,0,0-.921-.326,5.646,5.646,0,0,0-1.176-.108h-1.145v-1.4h2.365a6.443,6.443,0,0,0,1.208-.109,4.871,4.871,0,0,0,1.027-.305,3.073,3.073,0,0,0,.772-.467,1.587,1.587,0,0,0,.454-.6h-5.825v-1.311h5.85a1.476,1.476,0,0,0-.33-.543,1.839,1.839,0,0,0-.647-.418,4.47,4.47,0,0,0-1.033-.266,10.028,10.028,0,0,0-1.463-.092H708.3l.013-1.319h11.613v1.319h-3.734a2.434,2.434,0,0,1,.591.587,1.859,1.859,0,0,1,.3.732h2.85Z" transform="translate(-696.137 3137.053)"/></g></g></svg>