<svg width="84" height="83" viewBox="0 0 84 83" fill="none" xmlns="http://www.w3.org/2000/svg">
<path d="M41.0547 41C41.0547 36.9401 39.8508 32.9713 37.5952 29.5956C35.3396 26.2199 32.1337 23.5889 28.3828 22.0352C24.6319 20.4815 20.5045 20.075 16.5226 20.8671C12.5407 21.6592 8.88305 23.6142 6.01226 26.485C3.14147 29.3559 1.18645 33.0135 0.394414 36.9954C-0.397617 40.9773 0.00891818 45.1047 1.56261 48.8556C3.1163 52.6065 5.74737 55.8124 9.1231 58.0679C12.4988 60.3235 16.4676 61.5274 20.5275 61.5273C25.9698 61.5212 31.1874 59.3565 35.0357 55.5082C38.8839 51.6599 41.0486 46.4423 41.0547 41ZM3.58159 41C3.58159 37.6484 4.57545 34.3721 6.43749 31.5853C8.29953 28.7986 10.9461 26.6266 14.0426 25.344C17.1391 24.0614 20.5463 23.7258 23.8335 24.3797C27.1207 25.0335 30.1402 26.6475 32.5101 29.0174C34.88 31.3873 36.494 34.4068 37.1478 37.694C37.8017 40.9812 37.4661 44.3885 36.1835 47.4849C34.9009 50.5814 32.7289 53.228 29.9422 55.09C27.1554 56.9521 23.8791 57.9459 20.5275 57.9459C16.0347 57.9409 11.7274 56.1539 8.55054 52.977C5.37366 49.8001 3.58666 45.4928 3.58159 41Z" fill="url(#paint0_linear_6462_2115)"/>
<path d="M22.2359 51.2704V50.7304C23.4514 50.3772 24.5176 49.6353 25.2712 48.6184C26.0248 47.6014 26.4242 46.3654 26.4082 45.0997C26.4076 43.5387 25.7875 42.0417 24.684 40.9376C23.5806 39.8334 22.0841 39.2123 20.5231 39.2106C20.0668 39.2099 19.621 39.074 19.2419 38.82C18.8629 38.5661 18.5676 38.2054 18.3935 37.7837C18.2193 37.362 18.1741 36.8981 18.2635 36.4506C18.353 36.0032 18.573 35.5924 18.8959 35.27C19.2188 34.9476 19.63 34.7281 20.0775 34.6394C20.5251 34.5506 20.9889 34.5965 21.4104 34.7712C21.8318 34.946 22.192 35.2418 22.4455 35.6212C22.6989 36.0006 22.8341 36.4467 22.8341 36.9029C22.8341 37.1376 22.8804 37.3699 22.9701 37.5867C23.0599 37.8035 23.1916 38.0005 23.3575 38.1664C23.5234 38.3323 23.7204 38.4639 23.9371 38.5537C24.1539 38.6435 24.3863 38.6897 24.6209 38.6897C24.8555 38.6897 25.0879 38.6435 25.3047 38.5537C25.5214 38.4639 25.7184 38.3323 25.8843 38.1664C26.0502 38.0005 26.1819 37.8035 26.2716 37.5867C26.3614 37.3699 26.4077 37.1376 26.4077 36.9029C26.4237 35.6373 26.0244 34.4014 25.2709 33.3844C24.5174 32.3674 23.4513 31.6255 22.2359 31.2723V29.7985C22.2359 29.3236 22.0472 28.8681 21.7114 28.5323C21.3756 28.1965 20.9201 28.0078 20.4452 28.0078C19.9702 28.0078 19.5148 28.1965 19.1789 28.5323C18.8431 28.8681 18.6545 29.3236 18.6545 29.7985V31.3154C17.3278 31.7582 16.2019 32.6588 15.4785 33.8558C14.755 35.0528 14.4812 36.4682 14.706 37.8487C14.9307 39.2292 15.6394 40.4846 16.7052 41.3904C17.7711 42.2961 19.1244 42.7929 20.5231 42.792C20.9796 42.7913 21.4261 42.926 21.8061 43.1792C22.1861 43.4323 22.4824 43.7925 22.6576 44.2141C22.8328 44.6357 22.879 45.0998 22.7904 45.5477C22.7018 45.9956 22.4823 46.4071 22.1597 46.7302C21.8371 47.0533 21.4259 47.2734 20.9782 47.3628C20.5304 47.4521 20.0662 47.4066 19.6444 47.232C19.2225 47.0575 18.8619 46.7617 18.6081 46.3821C18.3544 46.0026 18.219 45.5563 18.219 45.0997C18.219 44.6237 18.0299 44.1672 17.6933 43.8307C17.3568 43.4941 16.9003 43.305 16.4243 43.305C15.9484 43.305 15.4919 43.4941 15.1553 43.8307C14.8188 44.1672 14.6297 44.6237 14.6297 45.0997C14.6321 46.3349 15.0217 47.5383 15.7437 48.5406C16.4656 49.5429 17.4836 50.2936 18.6545 50.6872V51.2704C18.6545 51.7454 18.8431 52.2008 19.1789 52.5367C19.5148 52.8725 19.9702 53.0611 20.4452 53.0611C20.9201 53.0611 21.3756 52.8725 21.7114 52.5367C22.0472 52.2008 22.2359 51.7454 22.2359 51.2704Z" fill="url(#paint1_linear_6462_2115)"/>
<path d="M63.3403 20.4727C59.2804 20.4727 55.3117 21.6766 51.936 23.9321C48.5603 26.1877 45.9292 29.3936 44.3755 33.1445C42.8219 36.8954 42.4154 41.0228 43.2074 45.0047C43.9995 48.9866 45.9545 52.6442 48.8253 55.515C51.6961 58.3858 55.3537 60.3408 59.3356 61.1329C63.3176 61.9249 67.4449 61.5184 71.1958 59.9648C74.9467 58.4111 78.1526 55.7801 80.4082 52.4044C82.6638 49.0287 83.8677 45.0599 83.8677 41C83.8615 35.5577 81.6969 30.34 77.8486 26.4917C74.0003 22.6434 68.7826 20.4788 63.3403 20.4727ZM63.3403 57.9459C59.9887 57.9459 56.7124 56.9521 53.9257 55.09C51.1389 53.228 48.9669 50.5814 47.6843 47.4849C46.4017 44.3884 46.0661 40.9812 46.72 37.694C47.3739 34.4068 48.9878 31.3873 51.3577 29.0174C53.7277 26.6475 56.7472 25.0335 60.0343 24.3797C63.3215 23.7258 66.7288 24.0614 69.8253 25.344C72.9217 26.6266 75.5683 28.7986 77.4304 31.5853C79.2924 34.3721 80.2863 37.6484 80.2863 41C80.2812 45.4928 78.4942 49.8001 75.3173 52.977C72.1404 56.1538 67.8331 57.9408 63.3403 57.9459Z" fill="url(#paint2_linear_6462_2115)"/>
<path d="M71.1896 31.6891C71.1896 31.2142 71.0009 30.7587 70.6651 30.4229C70.3293 30.0871 69.8738 29.8984 69.3989 29.8984H57.2814C56.8065 29.8984 56.351 30.0871 56.0152 30.4229C55.6794 30.7587 55.4907 31.2142 55.4907 31.6891C55.4907 32.1641 55.6794 32.6195 56.0152 32.9554C56.351 33.2912 56.8065 33.4798 57.2814 33.4798H60.7448C61.9675 33.4798 63.0387 34.1961 63.6406 35.0915H57.2814C56.8065 35.0915 56.351 35.2801 56.0152 35.616C55.6794 35.9518 55.4907 36.4072 55.4907 36.8822C55.4907 37.3571 55.6794 37.8126 56.0152 38.1484C56.351 38.4842 56.8065 38.6729 57.2814 38.6729H63.6449C63.4959 38.8893 63.3329 39.0957 63.1569 39.2908C62.8406 39.6078 62.4645 39.8588 62.0504 40.0294C61.6364 40.2 61.1926 40.2867 60.7448 40.2845H57.2814C56.922 40.2876 56.5717 40.3978 56.2754 40.6011C55.979 40.8045 55.7501 41.0916 55.6179 41.4258C55.4858 41.76 55.4563 42.126 55.5334 42.4771C55.6105 42.8281 55.7906 43.1481 56.0507 43.3962L64.7141 51.5964C64.8843 51.7602 65.0852 51.8887 65.3053 51.9745C65.5254 52.0603 65.7603 52.1016 65.9965 52.0962C66.2327 52.0907 66.4654 52.0386 66.6813 51.9427C66.8972 51.8469 67.0921 51.7092 67.2545 51.5377C67.417 51.3662 67.5438 51.1643 67.6279 50.9435C67.7119 50.7227 67.7513 50.4874 67.744 50.2513C67.7366 50.0152 67.6826 49.7829 67.585 49.5677C67.4874 49.3526 67.3482 49.1589 67.1754 48.9979L61.7104 43.8272C63.2191 43.6178 64.6172 42.9183 65.6895 41.8365C66.5787 40.9726 67.2077 39.8765 67.5049 38.6729H69.3996C69.8746 38.6729 70.33 38.4842 70.6658 38.1484C71.0017 37.8126 71.1903 37.3571 71.1903 36.8822C71.1903 36.4072 71.0017 35.9518 70.6658 35.616C70.33 35.2801 69.8746 35.0915 69.3996 35.0915H67.502C67.3399 34.5327 67.1195 33.9926 66.8447 33.4798H69.3989C69.8738 33.4798 70.3293 33.2912 70.6651 32.9554C71.0009 32.6195 71.1896 32.1641 71.1896 31.6891Z" fill="url(#paint3_linear_6462_2115)"/>
<path d="M17.9318 18.7143C18.1653 18.7177 18.3972 18.6747 18.614 18.5878C18.8308 18.5009 19.0282 18.3719 19.1948 18.2082C19.3614 18.0444 19.4938 17.8493 19.5843 17.634C19.6749 17.4187 19.7219 17.1876 19.7225 16.9541C19.724 16.1355 19.8869 15.3253 20.2018 14.5697C20.5167 13.8142 20.9774 13.1281 21.5576 12.5507C22.1378 11.9733 22.8262 11.516 23.5833 11.2048C24.3404 10.8937 25.1514 10.7348 25.9699 10.7373H57.866L53.8144 14.7424C53.6495 14.9083 53.519 15.1051 53.4302 15.3215C53.3414 15.5379 53.2961 15.7697 53.2968 16.0036C53.2984 16.476 53.4876 16.9285 53.8227 17.2614C54.1579 17.5944 54.6116 17.7805 55.084 17.779C55.5564 17.7774 56.0088 17.5883 56.3418 17.2531L63.4648 10.1564C63.6319 9.98987 63.7644 9.79203 63.8549 9.5742C63.9453 9.35636 63.9919 9.12282 63.9919 8.88696C63.9919 8.65109 63.9453 8.41755 63.8549 8.19971C63.7644 7.98188 63.6319 7.78404 63.4648 7.61753L56.3418 0.522059C56.0053 0.186885 55.5495 -0.000903447 55.0746 3.26827e-06C54.5997 0.000909984 54.1446 0.190438 53.8094 0.526894C53.474 0.86939 53.2865 1.32996 53.2875 1.80934C53.2884 2.28873 53.4776 2.74856 53.8144 3.08974L57.866 7.15589H25.9699C24.6812 7.15382 23.4046 7.40562 22.2132 7.89691C21.0218 8.38821 19.9388 9.10937 19.0261 10.0192C18.1134 10.9291 17.3889 12.0098 16.8939 13.1997C16.3988 14.3896 16.1431 15.6653 16.1411 16.9541C16.1417 17.1876 16.1887 17.4187 16.2793 17.634C16.3699 17.8493 16.5023 18.0444 16.6688 18.2082C16.8354 18.3719 17.0328 18.5009 17.2496 18.5878C17.4664 18.6747 17.6983 18.7177 17.9318 18.7143Z" fill="url(#paint4_linear_6462_2115)"/>
<path d="M65.9355 63.2892C65.702 63.2859 65.4701 63.3289 65.2533 63.4157C65.0365 63.5026 64.8391 63.6317 64.6725 63.7954C64.506 63.9591 64.3736 64.1543 64.283 64.3696C64.1924 64.5848 64.1454 64.8159 64.1448 65.0495C64.1433 65.8681 63.9804 66.6783 63.6655 67.4338C63.3507 68.1894 62.8899 68.8755 62.3097 69.4529C61.7295 70.0302 61.0412 70.4876 60.2841 70.7987C59.527 71.1099 58.716 71.2688 57.8974 71.2663H26.0013L30.0529 67.2612C30.2194 67.0967 30.3516 66.9009 30.442 66.6851C30.5325 66.4693 30.5793 66.2377 30.5797 66.0036C30.5802 65.7696 30.5343 65.5379 30.4448 65.3217C30.3552 65.1055 30.2237 64.9091 30.0579 64.744C29.7218 64.4085 29.2661 64.2203 28.7912 64.2208C28.3163 64.2213 27.861 64.4104 27.5255 64.7465L20.4025 71.8454C20.2354 72.012 20.1029 72.21 20.0125 72.4279C19.922 72.6459 19.8755 72.8795 19.8755 73.1154C19.8755 73.3514 19.922 73.585 20.0125 73.803C20.1029 74.0209 20.2354 74.2189 20.4025 74.3855L27.5255 81.4811C27.8619 81.8164 28.3177 82.0042 28.7927 82.0034C29.2676 82.0025 29.7227 81.8131 30.0579 81.4767C30.3934 81.1342 30.5808 80.6736 30.5799 80.1942C30.5789 79.7148 30.3897 79.255 30.0529 78.9138L26.0013 74.8477H57.8974C59.1861 74.8497 60.4627 74.5979 61.6541 74.1067C62.8455 73.6154 63.9285 72.8942 64.8412 71.9843C65.7539 71.0745 66.4784 69.9938 66.9735 68.8039C67.4685 67.614 67.7243 66.3382 67.7262 65.0495C67.7256 64.8159 67.6786 64.5848 67.588 64.3696C67.4974 64.1543 67.365 63.9591 67.1985 63.7954C67.0319 63.6317 66.8345 63.5026 66.6177 63.4157C66.4009 63.3289 66.169 63.2859 65.9355 63.2892Z" fill="url(#paint5_linear_6462_2115)"/>
<defs>
<linearGradient id="paint0_linear_6462_2115" x1="20.5272" y1="19.5535" x2="20.5272" y2="61.6705" gradientUnits="userSpaceOnUse">
<stop stop-color="#00EFD1"/>
<stop offset="1" stop-color="#00ACEA"/>
</linearGradient>
<linearGradient id="paint1_linear_6462_2115" x1="20.519" y1="27.4469" x2="20.519" y2="53.1485" gradientUnits="userSpaceOnUse">
<stop stop-color="#00EFD1"/>
<stop offset="1" stop-color="#00ACEA"/>
</linearGradient>
<linearGradient id="paint2_linear_6462_2115" x1="63.3402" y1="19.5535" x2="63.3402" y2="61.6705" gradientUnits="userSpaceOnUse">
<stop stop-color="#00EFD1"/>
<stop offset="1" stop-color="#00ACEA"/>
</linearGradient>
<linearGradient id="paint3_linear_6462_2115" x1="63.3405" y1="29.4014" x2="63.3405" y2="52.1741" gradientUnits="userSpaceOnUse">
<stop stop-color="#00EFD1"/>
<stop offset="1" stop-color="#00ACEA"/>
</linearGradient>
<linearGradient id="paint4_linear_6462_2115" x1="40.0664" y1="-0.419" x2="40.0664" y2="18.7798" gradientUnits="userSpaceOnUse">
<stop stop-color="#00EFD1"/>
<stop offset="1" stop-color="#00ACEA"/>
</linearGradient>
<linearGradient id="paint5_linear_6462_2115" x1="43.8007" y1="62.8701" x2="43.8007" y2="82.0687" gradientUnits="userSpaceOnUse">
<stop stop-color="#00EFD1"/>
<stop offset="1" stop-color="#00ACEA"/>
</linearGradient>
</defs>
</svg>
