<svg width="70" height="69" viewBox="0 0 70 69" fill="none" xmlns="http://www.w3.org/2000/svg">
<path d="M29.5312 54.1406C28.0211 54.1406 26.7969 54.3648 26.7969 55.875C26.7969 57.3852 28.0211 57.6094 29.5312 57.6094H40.4688C41.9789 57.6094 43.2031 57.3852 43.2031 55.875C43.2031 54.3648 41.9789 54.1406 40.4688 54.1406H36.7344V35C36.7344 33.4898 35.5102 32.2656 35 32.2656H29.5312C29 32.2656 27.7969 33 27.7969 34C27.7969 35 29 35.7344 29.5312 35.7344H33.2656V54.1406H29.5312ZM67.2656 4.46875H58.6094V1.73438C58.6094 0.22418 57.3852 0 56.875 0C56.3648 0 55.1406 0.22418 55.1406 1.73438V4.46875H36.7344V1.73438C36.7344 0.22418 35.5102 0 35 0C34.4898 0 33.2656 0.22418 33.2656 1.73438V4.46875H14.8594V1.73438C14.8594 0.22418 13.6352 0 13.125 0C12.6148 0 11.3906 0.22418 11.3906 1.73438V4.46875H2.73438C1.22418 4.46875 0 5.69293 0 7.20312V66.2656C0 67.7758 1.22418 69 2.73438 69H67.2656C68.7758 69 70 67.7758 70 66.2656V7.20312C70 5.69293 68.7758 4.46875 67.2656 4.46875ZM65.5312 64.5312H4.46875V26.3438H65.5312V64.5312ZM65.5312 20.875H4.46875V9.9375H11.3906V12.6719C11.3906 13.1821 11.6148 14.4062 13.125 14.4062C14.6352 14.4062 14.8594 13.1821 14.8594 12.6719V9.9375H33.2656V12.6719C33.2656 13.1821 33.4898 14.4062 35 14.4062C36.5102 14.4062 36.7344 13.1821 36.7344 12.6719V9.9375H55.1406V12.6719C55.1406 13.1821 55.3648 14.4062 56.875 14.4062C58.3852 14.4062 58.6094 13.1821 58.6094 12.6719V9.9375H65.5312V20.875Z" fill="url(#paint0_linear_6435_2098)"/>
<defs>
<linearGradient id="paint0_linear_6435_2098" x1="34.9998" y1="-1.54484" x2="34.9998" y2="69.2407" gradientUnits="userSpaceOnUse">
<stop stop-color="#00EFD1"/>
<stop offset="1" stop-color="#00ACEA"/>
</linearGradient>
</defs>
</svg>
