<svg xmlns="http://www.w3.org/2000/svg" width="32" height="30" viewBox="0 0 50.9 48"><defs><style>.a{fill:#fff;}</style></defs><g transform="translate(-1087.03 1857.224)"><path class="a" d="M1110.167-1857.224a24.42,24.42,0,0,1,16.18,5.96c.986.849,1.062,1.371.071,2.3-4.662,4.371-9.259,8.812-13.877,13.23-1.877,1.8-1.861,1.79-.686,4.058,2.938,5.674,5.831,11.373,8.818,17.021.618,1.168.329,1.623-.79,2.051-9.17,3.506-17.7,2.327-25.007-4.2-7.151-6.39-9.5-14.623-6.69-23.829,2.859-9.365,9.547-14.683,19.176-16.313C1108.422-1857.128,1109.509-1857.162,1110.167-1857.224Z" transform="translate(0 0)"/><path class="a" d="M1203.178-1814.3a26.858,26.858,0,0,1-.773,5.906c-.228.89-.581,1.262-1.58.937q-9.923-3.231-19.873-6.38c-.922-.293-1.173-.654-.375-1.416q7.6-7.251,15.169-14.535c.764-.736,1.2-.3,1.71.293A23.067,23.067,0,0,1,1203.178-1814.3Z" transform="translate(-66.796 -19.411)"/><path class="a" d="M1211.872-1751.211c-.083.247-.159.519-.263.779a23.209,23.209,0,0,1-10.035,11.619c-.912.539-1.363.378-1.841-.561-3.048-5.986-6.15-11.944-9.217-17.921-.2-.389-.7-.862-.323-1.255.339-.35.881.041,1.311.178q9.536,3.04,19.062,6.113C1211.088-1752.089,1211.856-1752.114,1211.872-1751.211Z" transform="translate(-73.942 -70.718)"/></g></svg>