<svg width="83" height="83" viewBox="0 0 83 83" fill="none" xmlns="http://www.w3.org/2000/svg">
<g clip-path="url(#clip0_6462_2099)">
<path d="M75.0144 4.08594C72.1837 4.08445 69.5646 5.5819 68.1296 8.02193C66.6953 10.462 66.6604 13.4791 68.039 15.9518L59.416 23.1776C57.8495 21.1342 55.3917 19.9732 52.8179 20.0594C50.2442 20.1463 47.871 21.4707 46.4456 23.6151L36.7063 17.3386C36.7264 17.1061 36.739 16.8714 36.739 16.633C36.7427 13.2801 34.6503 10.2815 31.5024 9.12718C28.3538 7.97364 24.8196 8.90955 22.6551 11.4706C20.4907 14.0318 20.1572 17.6721 21.8195 20.5846L11.8403 30.3395C8.15387 28.3302 3.54195 29.509 1.27127 33.041C-0.99866 36.5721 -0.156348 41.2576 3.20176 43.7771C6.56061 46.2966 11.2943 45.7952 14.05 42.6273C16.8058 39.4601 16.6475 34.7018 13.6876 31.7248L23.233 22.394C25.1353 24.2212 27.8175 24.9907 30.3986 24.4477C32.9805 23.9055 35.1264 22.1221 36.1321 19.6836L45.4562 25.6926C44.426 29.0314 45.6858 32.6525 48.5655 34.6305C51.446 36.6085 55.278 36.4852 58.0241 34.3252C60.7709 32.1652 61.7944 28.4706 60.551 25.2054L69.425 17.7679C71.9972 20.2926 75.9421 20.7799 79.0522 18.9586C82.1614 17.1366 83.6648 13.4568 82.7207 9.97915C81.7767 6.50071 78.6184 4.08668 75.0144 4.08742V4.08594ZM8.03131 43.0581C4.88118 43.0581 2.32751 40.5044 2.32751 37.355C2.32751 34.2049 4.88118 31.6512 8.03131 31.6512C11.1814 31.6512 13.7344 34.2049 13.7344 37.355C13.7307 40.5029 11.18 43.0544 8.03131 43.0581ZM28.7541 22.336C25.604 22.336 23.0503 19.7823 23.0503 16.6322C23.0503 13.4828 25.604 10.9292 28.7534 10.9292C31.9035 10.9292 34.4572 13.4821 34.4572 16.6322C34.4535 19.7809 31.902 22.3323 28.7541 22.336ZM53.0876 33.7429C49.9382 33.7429 47.3845 31.19 47.3845 28.0398C47.3845 24.8904 49.9382 22.3368 53.0876 22.3368C56.2377 22.3368 58.7914 24.8904 58.7914 28.0398C58.7876 31.1885 56.2362 33.7392 53.0876 33.7429ZM75.0144 17.7746C71.8643 17.7746 69.3113 15.2209 69.3113 12.0708C69.3113 8.92143 71.8643 6.36776 75.0144 6.36776C78.1645 6.36776 80.7175 8.92143 80.7175 12.0708C80.7138 15.2195 78.163 17.7709 75.0144 17.7746Z" fill="url(#paint0_linear_6462_2099)"/>
<path d="M38.1 39.0472C38.1 38.4165 37.5897 37.9062 36.9591 37.9062H25.1697C24.5398 37.9062 24.0288 38.4165 24.0288 39.0472V77.8381C24.0288 78.468 24.5398 78.979 25.1697 78.979H36.9591C37.5897 78.979 38.1 78.468 38.1 77.8381V39.0472ZM35.8182 76.6972H26.3106V40.1881H35.8182V76.6972Z" fill="url(#paint1_linear_6462_2099)"/>
<path d="M16.2328 56.7268C16.2328 56.0962 15.7225 55.5859 15.0919 55.5859H3.30253C2.67265 55.5859 2.16162 56.0962 2.16162 56.7268V77.8337C2.16162 78.4636 2.67265 78.9746 3.30253 78.9746H15.0919C15.7225 78.9746 16.2328 78.4636 16.2328 77.8337V56.7268ZM13.7609 76.6928H4.44344V57.8678H13.7609V76.6928Z" fill="url(#paint2_linear_6462_2099)"/>
<path d="M59.9677 50.0706C59.9677 49.44 59.4574 48.9297 58.8268 48.9297H47.0374C46.4075 48.9297 45.8965 49.44 45.8965 50.0706V77.8327C45.8965 78.4626 46.4075 78.9736 47.0374 78.9736H58.8268C59.4574 78.9736 59.9677 78.4626 59.9677 77.8327V50.0706ZM57.6859 76.6918H48.1783V51.2115H57.6859V76.6918Z" fill="url(#paint3_linear_6462_2099)"/>
<path d="M82.0248 39.0472C82.0248 38.4165 81.5146 37.9062 80.8839 37.9062H69.0945C68.4646 37.9062 67.9536 38.4165 67.9536 39.0472V77.8381C67.9536 78.468 68.4646 78.979 69.0945 78.979H80.8839C81.5146 78.979 82.0248 78.468 82.0248 77.8381V39.0472ZM79.5529 76.6972H70.2354V40.1881H79.5529V76.6972Z" fill="url(#paint4_linear_6462_2099)"/>
</g>
<defs>
<linearGradient id="paint0_linear_6462_2099" x1="41.5228" y1="-0.753813" x2="41.5228" y2="84.1144" gradientUnits="userSpaceOnUse">
<stop stop-color="#00EFD1"/>
<stop offset="1" stop-color="#00ACEA"/>
</linearGradient>
<linearGradient id="paint1_linear_6462_2099" x1="31.0648" y1="-0.749287" x2="31.0648" y2="84.119" gradientUnits="userSpaceOnUse">
<stop stop-color="#00EFD1"/>
<stop offset="1" stop-color="#00ACEA"/>
</linearGradient>
<linearGradient id="paint2_linear_6462_2099" x1="9.19759" y1="-0.75373" x2="9.19759" y2="84.1146" gradientUnits="userSpaceOnUse">
<stop stop-color="#00EFD1"/>
<stop offset="1" stop-color="#00ACEA"/>
</linearGradient>
<linearGradient id="paint3_linear_6462_2099" x1="52.9325" y1="-0.754662" x2="52.9325" y2="84.1136" gradientUnits="userSpaceOnUse">
<stop stop-color="#00EFD1"/>
<stop offset="1" stop-color="#00ACEA"/>
</linearGradient>
<linearGradient id="paint4_linear_6462_2099" x1="74.9896" y1="-0.749287" x2="74.9896" y2="84.119" gradientUnits="userSpaceOnUse">
<stop stop-color="#00EFD1"/>
<stop offset="1" stop-color="#00ACEA"/>
</linearGradient>
<clipPath id="clip0_6462_2099">
<rect width="83" height="83" fill="white"/>
</clipPath>
</defs>
</svg>
