<svg width="61" height="76" viewBox="0 0 61 76" fill="none" xmlns="http://www.w3.org/2000/svg">
<path d="M17.1868 8.25352H27.7794C28.4669 8.25352 29.0243 7.69566 29.0243 7.00762C29.0243 6.31958 28.4669 5.76172 27.7794 5.76172H17.1868C16.4993 5.76172 15.9419 6.31958 15.9419 7.00762C15.9419 7.69566 16.4993 8.25352 17.1868 8.25352Z" fill="url(#paint0_linear_6451_2094)"/>
<path d="M22.4828 62.8496C19.9948 62.8496 17.9785 64.8681 17.9785 67.3575C17.9785 69.8475 19.9948 71.8654 22.4828 71.8654C24.9701 71.8654 26.987 69.8475 26.987 67.3575C26.984 64.8693 24.9689 62.8527 22.4828 62.8496ZM22.4828 69.3736C21.3704 69.3736 20.4683 68.4714 20.4683 67.3575C20.4683 66.2442 21.3704 65.3414 22.4828 65.3414C23.5951 65.3414 24.4972 66.2442 24.4972 67.3575C24.496 68.4708 23.5945 69.3723 22.4828 69.3736Z" fill="url(#paint1_linear_6451_2094)"/>
<path d="M60.6091 25.541H60.5952L53.4783 18.4257L53.4753 18.4282C53.2407 18.1952 52.9228 18.0644 52.5921 18.0656H44.9719V7.53259C44.9446 3.38364 41.5898 0.0267674 37.4436 0H7.52227C3.37727 0.0273757 0.0249222 3.38486 0 7.53259V68.4674C0.0249222 72.6151 3.37727 75.9726 7.52227 76H37.4436C41.5898 75.9732 44.9446 72.6163 44.9719 68.4674V54.8197H59.7022C60.4 54.8251 60.9751 54.2746 61 53.5768V26.4243C61 26.0806 60.8347 25.6967 60.6091 25.541ZM52.8418 22.3161L56.697 26.2295H52.8418V22.3161ZM7.52227 3.4918H37.4436C40.2154 3.51735 41.456 4.75913 41.4821 7.53259V11.3033H3.4898V7.53259C3.51289 4.76034 4.75164 3.51796 7.52227 3.4918ZM37.4436 72.5082H7.52227C4.75164 72.482 3.51289 71.2397 3.4898 68.4674V61.2049H41.4821V68.4674C41.456 71.2409 40.2154 72.4826 37.4436 72.5082ZM41.4821 57.7131H3.4898V14.7951H41.4821V18.0656H33.4846C32.7922 18.0619 32.2251 18.6155 32.2117 19.3084V53.5768C32.2251 54.2697 32.7922 54.8233 33.4846 54.8197H41.4821V57.7131ZM57.5102 51.3279H35.7015V21.5574H50.352V26.4243C50.346 27.1215 51.8961 28.697 52.5921 28.7213H57.5102V51.3279Z" fill="url(#paint2_linear_6451_2094)"/>
<path d="M39.8308 34.8844H46.6443C47.3318 34.8844 47.8892 34.3265 47.8892 33.6385C47.8892 32.9504 47.3318 32.3926 46.6443 32.3926H39.8308C39.1433 32.3926 38.5859 32.9504 38.5859 33.6385C38.5859 34.3265 39.1433 34.8844 39.8308 34.8844Z" fill="url(#paint3_linear_6451_2094)"/>
<path d="M38.5859 37.6893C38.5859 38.3773 39.1433 38.9352 39.8308 38.9352H53.3563C54.0438 38.9352 54.6012 38.3773 54.6012 37.6893C54.6012 37.0012 54.0438 36.4434 53.3563 36.4434H39.8308C39.1433 36.4434 38.5859 37.0012 38.5859 37.6893Z" fill="url(#paint4_linear_6451_2094)"/>
<path d="M53.3563 40.4922H39.8308C39.1433 40.4922 38.5859 41.05 38.5859 41.7381C38.5859 42.4261 39.1433 42.984 39.8308 42.984H53.3563C54.0438 42.984 54.6012 42.4261 54.6012 41.7381C54.6012 41.05 54.0438 40.4922 53.3563 40.4922Z" fill="url(#paint5_linear_6451_2094)"/>
<path d="M53.3563 44.541H39.8308C39.1433 44.541 38.5859 45.0989 38.5859 45.7869C38.5859 46.475 39.1433 47.0328 39.8308 47.0328H53.3563C54.0438 47.0328 54.6012 46.475 54.6012 45.7869C54.6012 45.0989 54.0438 44.541 53.3563 44.541Z" fill="url(#paint6_linear_6451_2094)"/>
<defs>
<linearGradient id="paint0_linear_6451_2094" x1="22.483" y1="2.8027" x2="22.483" y2="75.2214" gradientUnits="userSpaceOnUse">
<stop stop-color="#00EFD1"/>
<stop offset="1" stop-color="#00ACEA"/>
</linearGradient>
<linearGradient id="paint1_linear_6451_2094" x1="22.4827" y1="2.8036" x2="22.4827" y2="75.2223" gradientUnits="userSpaceOnUse">
<stop stop-color="#00EFD1"/>
<stop offset="1" stop-color="#00ACEA"/>
</linearGradient>
<linearGradient id="paint2_linear_6451_2094" x1="30.5" y1="2.80328" x2="30.5" y2="75.2219" gradientUnits="userSpaceOnUse">
<stop stop-color="#00EFD1"/>
<stop offset="1" stop-color="#00ACEA"/>
</linearGradient>
<linearGradient id="paint3_linear_6451_2094" x1="43.2377" y1="2.80241" x2="43.2377" y2="75.2211" gradientUnits="userSpaceOnUse">
<stop stop-color="#00EFD1"/>
<stop offset="1" stop-color="#00ACEA"/>
</linearGradient>
<linearGradient id="paint4_linear_6451_2094" x1="46.5938" y1="2.80401" x2="46.5938" y2="75.2227" gradientUnits="userSpaceOnUse">
<stop stop-color="#00EFD1"/>
<stop offset="1" stop-color="#00ACEA"/>
</linearGradient>
<linearGradient id="paint5_linear_6451_2094" x1="46.5938" y1="2.80366" x2="46.5938" y2="75.2223" gradientUnits="userSpaceOnUse">
<stop stop-color="#00EFD1"/>
<stop offset="1" stop-color="#00ACEA"/>
</linearGradient>
<linearGradient id="paint6_linear_6451_2094" x1="46.5938" y1="2.80331" x2="46.5938" y2="75.222" gradientUnits="userSpaceOnUse">
<stop stop-color="#00EFD1"/>
<stop offset="1" stop-color="#00ACEA"/>
</linearGradient>
</defs>
</svg>
