<svg xmlns="http://www.w3.org/2000/svg" width="28.591" height="30" viewBox="0 0 28.591 30"><defs><style>.a{fill:#fff;}</style></defs><g transform="translate(123.664 2112.177)"><rect class="a" width="5.141" height="10.666" rx="1" transform="translate(-123.664 -2107.862)"/><rect class="a" width="5.112" height="10.679" rx="1" transform="translate(-115.855 -2102.532)"/><rect class="a" width="5.109" height="10.704" rx="1" transform="translate(-108.066 -2097.186)"/><rect class="a" width="5.089" height="10.656" rx="1" transform="translate(-100.162 -2105.175)"/><path class="a" d="M-105.849-2064.336a.39.39,0,0,0-.39-.39h-1.082a.39.39,0,0,0-.39.39v2.91h1.862Z" transform="translate(-14.315 -47.451)"/><path class="a" d="M-107.657-1905.79a.318.318,0,0,0,.318.318h1.189a.318.318,0,0,0,.318-.318v-2.956h-1.825Z" transform="translate(-14.364 -187.419)"/><path class="a" d="M-29.857-2012.334a.39.39,0,0,0-.39-.39h-1.082a.39.39,0,0,0-.39.39v2.91h1.862Z" transform="translate(-82.507 -94.114)"/><path class="a" d="M-31.665-1853.788a.318.318,0,0,0,.318.318h1.189a.318.318,0,0,0,.318-.318v-2.956h-1.825Z" transform="translate(-82.555 -234.083)"/><path class="a" d="M46.165-1959.957a.39.39,0,0,0-.39-.39H44.693a.39.39,0,0,0-.39.39v2.909h1.862Z" transform="translate(-150.725 -141.115)"/><path class="a" d="M44.358-1801.411a.317.317,0,0,0,.318.317h1.189a.317.317,0,0,0,.318-.317v-2.956H44.358Z" transform="translate(-150.774 -281.083)"/><path class="a" d="M122.945-2038.164a.39.39,0,0,0-.39-.39h-1.082a.39.39,0,0,0-.39.39v2.91h1.862Z" transform="translate(-219.623 -70.936)"/><path class="a" d="M121.137-1879.618a.318.318,0,0,0,.318.318h1.189a.318.318,0,0,0,.318-.318v-2.956h-1.825Z" transform="translate(-219.672 -210.904)"/></g></svg>