<svg width="67" height="63" viewBox="0 0 67 63" fill="none" xmlns="http://www.w3.org/2000/svg">
<path d="M49.2031 20.9375H59.1484C63.4778 20.9375 67 17.4157 67 13.0859C67 5.87035 61.1298 0 53.9141 0H13.0859C5.87022 0 0 5.87035 0 13.0867C0 17.4157 3.52221 20.9375 7.85156 20.9375H17.7969C18.7143 20.9375 19.5949 20.7779 20.4141 20.4873V23.5547C20.4141 24.9978 19.24 26.1719 17.7969 26.1719C10.5812 26.1719 4.71094 32.0422 4.71094 39.2578V49.7266C4.71094 53.1385 6.89917 56.0475 9.94531 57.128V62.8125H14.1797V57.5781H52.8203V62.8125H57.0547V57.128C60.1008 56.0476 62.2891 53.1385 62.2891 49.7266V39.2578C62.2891 32.0422 56.4188 26.1719 49.2031 26.1719C47.76 26.1719 46.5859 24.9978 46.5859 23.5547V20.4873C47.4051 20.7779 48.2857 20.9375 49.2031 20.9375ZM49.2031 30.4062C53.5325 30.4062 58.0547 34.9285 58.0547 39.2578V49.7266C58.0547 51.1697 55.8806 53.3438 54.4375 53.3438H12.5625C11.1194 53.3438 8.94531 51.1697 8.94531 49.7266V39.2578C8.94531 34.9285 13.4675 30.4062 17.7969 30.4062C22.1262 30.4062 24.6484 27.884 24.6484 23.5547V15.7031H28.8828V20.9375H38.1172V15.7031H42.3516V23.5547C42.3516 27.884 44.8738 30.4062 49.2031 30.4062ZM20.4141 11.4688V14.0859C20.4141 15.5291 19.24 16.7031 17.7969 16.7031H7.85156C6.40845 16.7031 4.23438 14.5294 4.23438 13.0859C4.23438 8.75659 8.75659 4.23438 13.0859 4.23438H53.9141C58.2434 4.23438 62.7656 8.75659 62.7656 13.0867C62.7656 14.5294 60.5916 16.7031 59.1484 16.7031H49.2031C47.76 16.7031 46.5859 15.5291 46.5859 14.0859V11.4688H20.4141ZM33.5 26.1719C27.7275 26.1719 23.0312 30.8682 23.0312 36.6406C23.0312 42.4131 27.7275 47.1094 33.5 47.1094C39.2725 47.1094 43.9688 42.4131 43.9688 36.6406C43.9688 30.8682 39.2725 26.1719 33.5 26.1719ZM33.5 42.875C29.6138 42.875 27.2656 40.5269 27.2656 36.6406C27.2656 32.7544 29.6138 30.4062 33.5 30.4062C37.3862 30.4062 39.7344 32.7544 39.7344 36.6406C39.7344 40.5269 37.3862 42.875 33.5 42.875Z" fill="url(#paint0_linear_6451_2082)"/>
<defs>
<linearGradient id="paint0_linear_6451_2082" x1="33.4999" y1="-1.40631" x2="33.4999" y2="63.0316" gradientUnits="userSpaceOnUse">
<stop stop-color="#00EFD1"/>
<stop offset="1" stop-color="#00ACEA"/>
</linearGradient>
</defs>
</svg>
