<svg width="71" height="71" viewBox="0 0 71 71" fill="none" xmlns="http://www.w3.org/2000/svg">
<path d="M54.3284 44.8273C53.9902 44.4739 53.5266 44.2674 53.0375 44.2524C52.5485 44.2675 52.0849 44.4738 51.7466 44.8269L49.6068 46.9891L47.0786 44.4673C51.3575 39.5885 53.7142 33.3204 53.7087 26.8325C53.7087 12.0363 41.6598 0 26.8497 0C12.0455 0 0 12.0394 0 26.8363C0 41.6384 12.0447 53.6822 26.8497 53.6822C33.3416 53.6876 39.6138 51.333 44.4969 47.0575L47.0269 49.5911L44.8607 51.7596C44.5191 52.1019 44.3274 52.5657 44.3278 53.0492C44.3281 53.5327 44.5204 53.9962 44.8625 54.3381L59.5592 69.0268C60.1801 69.651 60.9182 70.1465 61.7311 70.4851C62.5439 70.8237 63.4157 70.9987 64.2963 71C65.177 71.0013 66.0492 70.8289 66.8631 70.4927C67.677 70.1564 68.4165 69.663 69.0392 69.0407C69.662 68.4183 70.1557 67.6793 70.4922 66.8659C70.8287 66.0524 71.0012 65.1807 71 64.3005C70.9988 63.4203 70.8238 62.549 70.4851 61.7366C70.1463 60.9241 69.6505 60.1864 69.0261 59.5658L54.3284 44.8273ZM26.8499 50.0326C14.058 50.0326 3.65104 39.6269 3.65104 26.8369C3.658 20.6897 6.10439 14.7962 10.4535 10.4495C14.8026 6.10271 20.6993 3.65765 26.8499 3.6507C39.6461 3.6507 50.058 14.052 50.058 26.8369C50.0511 32.9866 47.6037 38.8825 43.2528 43.231C38.902 47.5795 33.0029 50.0256 26.8499 50.0326ZM66.4435 66.4465C66.1612 66.7295 65.8259 66.9541 65.4567 67.1074C65.0874 67.2607 64.6915 67.3395 64.2917 67.3395C63.8919 67.3395 63.496 67.2607 63.1268 67.1074C62.7575 66.9541 62.4222 66.7295 62.14 66.4465L48.732 53.0462L53.0368 48.7378L66.4464 62.1487C66.7302 62.4301 66.9555 62.765 67.1091 63.1339C67.2627 63.5029 67.3417 63.8986 67.3414 64.2982C67.3411 64.6978 67.2616 65.0934 67.1074 65.4622C66.9533 65.8309 66.7275 66.1654 66.4433 66.4465H66.4435Z" fill="url(#paint0_linear_6669_2229)"/>
<path d="M34.0608 19.2298C34.0608 18.8374 33.9054 18.461 33.6288 18.1834C33.3521 17.9059 32.9769 17.75 32.5856 17.75H21.1443C20.7531 17.75 20.3779 17.9059 20.1012 18.1834C19.8245 18.461 19.6691 18.8374 19.6691 19.2298C19.6691 19.6223 19.8245 19.9987 20.1012 20.2762C20.3779 20.5538 20.7531 20.7097 21.1443 20.7097H24.4232C25.7875 20.7097 26.9682 21.5976 27.5212 22.7815H21.1443C20.7531 22.7815 20.3779 22.9374 20.1012 23.2149C19.8245 23.4924 19.6691 23.8688 19.6691 24.2613C19.6691 24.6538 19.8245 25.0302 20.1012 25.3077C20.3779 25.5852 20.7531 25.7411 21.1443 25.7411H27.5195C27.3401 26.0797 27.1164 26.3927 26.8544 26.6718C26.5343 26.99 26.1548 27.2415 25.7375 27.4119C25.3202 27.5824 24.8734 27.6684 24.4229 27.6649H21.1443C20.8492 27.6643 20.5607 27.7527 20.3163 27.9185C20.0718 28.0844 19.8827 28.3201 19.7735 28.5952C19.6643 28.8702 19.64 29.1718 19.7037 29.4608C19.7675 29.7499 19.9163 30.013 20.131 30.2162L28.3167 37.9742C28.6012 38.2438 28.9808 38.3889 29.3719 38.3778C29.7631 38.3666 30.1338 38.2 30.4025 37.9147C30.6712 37.6293 30.8159 37.2486 30.8048 36.8562C30.7936 36.4638 30.6276 36.092 30.3431 35.8224L24.8393 30.6055C26.3826 30.5132 27.8393 29.8593 28.9362 28.7664C29.7522 27.9215 30.3367 26.8794 30.633 25.7411H32.5856C32.9769 25.7411 33.3521 25.5852 33.6288 25.3077C33.9054 25.0302 34.0608 24.6538 34.0608 24.2613C34.0608 23.8688 33.9054 23.4924 33.6288 23.2149C33.3521 22.9374 32.9769 22.7815 32.5856 22.7815H30.6308C30.4727 22.0486 30.1916 21.348 29.7995 20.7097H32.5856C32.9769 20.7097 33.3521 20.5538 33.6288 20.2762C33.9054 19.9987 34.0608 19.6223 34.0608 19.2298Z" fill="url(#paint1_linear_6669_2229)"/>
<defs>
<linearGradient id="paint0_linear_6669_2229" x1="35.4962" y1="-5.00735" x2="35.4962" y2="76.1585" gradientUnits="userSpaceOnUse">
<stop stop-color="#00EFD1"/>
<stop offset="1" stop-color="#00ACEA"/>
</linearGradient>
<linearGradient id="paint1_linear_6669_2229" x1="26.8648" y1="1.32377" x2="26.8648" y2="67.1592" gradientUnits="userSpaceOnUse">
<stop stop-color="#00EFD1"/>
<stop offset="1" stop-color="#00ACEA"/>
</linearGradient>
</defs>
</svg>
