<svg width="45" height="46" viewBox="0 0 45 46" fill="none" xmlns="http://www.w3.org/2000/svg">
<path d="M40.1786 0.632812H4.82143C2.16 0.632812 0 2.79281 0 5.45424V40.8114C0 43.4728 2.16 45.6328 4.82143 45.6328H40.1786C42.84 45.6328 45 43.4728 45 40.8114V5.45424C45 2.79281 42.84 0.632812 40.1786 0.632812ZM12.7575 36.0398C12.4911 36.5005 12.0526 36.8366 11.5384 36.974C11.0242 37.1115 10.4765 37.039 10.0157 36.7726C9.55495 36.5062 9.21888 36.0677 9.08144 35.5535C8.94401 35.0393 9.01646 34.4916 9.28286 34.0308L10.7196 31.5494C12.3364 31.0576 13.6623 31.4385 14.6973 32.6937L12.7575 36.0398ZM26.7091 30.6269H8.4375C7.33179 30.6269 6.42857 29.7221 6.42857 28.618C6.42857 27.5139 7.33339 26.6091 8.4375 26.6091H13.5611L20.1295 15.2385L18.0707 11.6835C17.8058 11.2224 17.7341 10.6752 17.8714 10.1614C18.0088 9.64766 18.3439 9.20915 18.8036 8.94174C19.2647 8.67678 19.8119 8.60513 20.3257 8.74246C20.8394 8.87978 21.278 9.21491 21.5454 9.6746L22.4389 11.2207L23.3325 9.6746C23.4644 9.44645 23.64 9.24652 23.8491 9.08621C24.0583 8.92591 24.297 8.80838 24.5516 8.74033C24.8062 8.67227 25.0717 8.65504 25.333 8.6896C25.5942 8.72415 25.8461 8.80983 26.0743 8.94174C26.3024 9.07365 26.5024 9.2492 26.6627 9.45838C26.823 9.66755 26.9405 9.90626 27.0086 10.1609C27.0766 10.4155 27.0938 10.681 27.0593 10.9422C27.0247 11.2035 26.9391 11.4554 26.8071 11.6835L18.1896 26.6107H24.427C26.4552 26.6107 27.5914 28.9908 26.7075 30.6285L26.7091 30.6269ZM36.5625 30.6269H33.6488L35.6175 34.0325C36.1704 34.9967 35.8377 36.223 34.8846 36.7742C33.9204 37.3271 32.6941 36.9944 32.1429 36.0414C28.8386 30.3264 26.3668 26.0273 24.7098 23.1746C23.032 20.2608 24.2277 17.3487 25.4234 16.3651C26.7396 18.6457 28.7084 22.0608 31.3393 26.6107H36.5625C37.0953 26.6107 37.6063 26.8223 37.983 27.1991C38.3598 27.5758 38.5714 28.0868 38.5714 28.6196C38.5714 29.1524 38.3598 29.6634 37.983 30.0401C37.6063 30.4169 37.0953 30.6285 36.5625 30.6285V30.6269Z" fill="black"/>
</svg>
