<svg width="81" height="81" viewBox="0 0 81 81" fill="none" xmlns="http://www.w3.org/2000/svg">
<path d="M38.2723 69.0056H34.6298C34.3023 69.0093 33.9834 69.1112 33.7137 69.2984C33.4441 69.4856 33.2359 69.7495 33.1157 70.0566C32.9956 70.3636 32.9689 70.6997 33.0392 71.022C33.1095 71.3444 33.2735 71.6383 33.5103 71.8663L42.6252 80.5508C42.9389 80.85 43.3577 81.0114 43.7895 80.9994C44.2212 80.9874 44.6305 80.803 44.9274 80.4868C45.2243 80.1706 45.3843 79.7485 45.3724 79.3133C45.3605 78.8782 45.1776 78.4656 44.8638 78.1664L38.7133 72.3093C40.439 72.2132 42.0698 71.4826 43.297 70.256C44.2047 69.3096 44.8554 68.1435 45.1864 66.8702H47.3702C47.8025 66.8702 48.217 66.6971 48.5227 66.3891C48.8283 66.081 49 65.6632 49 65.2276C49 64.7919 48.8283 64.3741 48.5227 64.0661C48.217 63.758 47.8025 63.5849 47.3702 63.5849H45.1829C45.0046 62.7691 44.6864 61.9909 44.2427 61.2853H47.3702C47.8025 61.2853 48.217 61.1122 48.5227 60.8041C48.8283 60.4961 49 60.0783 49 59.6426C49 59.207 48.8283 58.7892 48.5227 58.4811C48.217 58.1731 47.8025 58 47.3702 58H34.6298C34.1975 58 33.783 58.1731 33.4773 58.4811C33.1717 58.7892 33 59.207 33 59.6426C33 60.0783 33.1717 60.4961 33.4773 60.8041C33.783 61.1122 34.1975 61.2853 34.6298 61.2853H38.2723C39.8073 61.2853 41.1343 62.2708 41.7494 63.5849H34.6298C34.1975 63.5849 33.783 63.758 33.4773 64.0661C33.1717 64.3741 33 64.7919 33 65.2276C33 65.6632 33.1717 66.081 33.4773 66.3891C33.783 66.6971 34.1975 66.8702 34.6298 66.8702H41.7539C41.5476 67.2493 41.2932 67.5996 40.9971 67.9124C40.6371 68.2671 40.2109 68.5463 39.7432 68.734C39.2756 68.9216 38.7756 69.0139 38.2723 69.0056Z" fill="url(#paint0_linear_6652_2223)"/>
<path d="M38.2723 69.0056H34.6298C34.3023 69.0093 33.9834 69.1112 33.7137 69.2984C33.4441 69.4856 33.2359 69.7495 33.1157 70.0566C32.9956 70.3636 32.9689 70.6997 33.0392 71.022C33.1095 71.3444 33.2735 71.6383 33.5103 71.8663L42.6252 80.5508C42.9389 80.85 43.3577 81.0114 43.7895 80.9994C44.2212 80.9874 44.6305 80.803 44.9274 80.4868C45.2243 80.1706 45.3843 79.7485 45.3724 79.3133C45.3605 78.8782 45.1776 78.4656 44.8638 78.1664L38.7133 72.3093C40.439 72.2132 42.0698 71.4826 43.297 70.256C44.2047 69.3096 44.8554 68.1435 45.1864 66.8702H47.3702C47.8025 66.8702 48.217 66.6971 48.5227 66.3891C48.8283 66.081 49 65.6632 49 65.2276C49 64.7919 48.8283 64.3741 48.5227 64.0661C48.217 63.758 47.8025 63.5849 47.3702 63.5849H45.1829C45.0046 62.7691 44.6864 61.9909 44.2427 61.2853H47.3702C47.8025 61.2853 48.217 61.1122 48.5227 60.8041C48.8283 60.4961 49 60.0783 49 59.6426C49 59.207 48.8283 58.7892 48.5227 58.4811C48.217 58.1731 47.8025 58 47.3702 58H34.6298C34.1975 58 33.783 58.1731 33.4773 58.4811C33.1717 58.7892 33 59.207 33 59.6426C33 60.0783 33.1717 60.4961 33.4773 60.8041C33.783 61.1122 34.1975 61.2853 34.6298 61.2853H38.2723C39.8073 61.2853 41.1343 62.2708 41.7494 63.5849H34.6298C34.1975 63.5849 33.783 63.758 33.4773 64.0661C33.1717 64.3741 33 64.7919 33 65.2276C33 65.6632 33.1717 66.081 33.4773 66.3891C33.783 66.6971 34.1975 66.8702 34.6298 66.8702H41.7539C41.5476 67.2493 41.2932 67.5996 40.9971 67.9124C40.6371 68.2671 40.2109 68.5463 39.7432 68.734C39.2756 68.9216 38.7756 69.0139 38.2723 69.0056Z" stroke="url(#paint1_linear_6652_2223)"/>
<mask id="path-2-outside-1_6652_2223" maskUnits="userSpaceOnUse" x="0" y="0" width="81" height="70" fill="black">
<rect fill="white" width="81" height="70"/>
<path d="M76.9972 25.4642L76.9926 25.4405L76.9811 25.4235C75.0018 20.6642 72.117 16.3366 68.4877 12.6823C68.4646 12.6555 68.4559 12.6215 68.4305 12.5961C68.4051 12.5706 68.3712 12.5619 68.3444 12.5388C64.6985 8.90111 60.381 6.00968 55.6326 4.02581L55.6156 4.01434L55.5919 4.00968C50.8073 2.02268 45.679 0.999985 40.5 1C35.321 1.00001 30.1927 2.02274 25.4081 4.00976C25.4004 4.01279 25.3922 4.01118 25.3844 4.01434L25.3673 4.02581C20.619 6.00969 16.3014 8.90112 12.6555 12.5388C12.6287 12.5619 12.5949 12.5706 12.5695 12.5961C12.5441 12.6215 12.5354 12.6555 12.5123 12.6823C8.88306 16.3366 5.99832 20.6641 4.01906 25.4233L4.00744 25.4406C4.00416 25.4484 4.0058 25.4567 4.00269 25.4646C1.01564 32.6956 0.235212 40.6521 1.76011 48.3277C3.28502 56.0033 7.04675 63.0532 12.5695 68.5858C12.7005 68.7171 12.856 68.8213 13.0271 68.8923C13.1983 68.9634 13.3817 69 13.5669 69C13.7522 69 13.9356 68.9634 14.1068 68.8923C14.2779 68.8213 14.4334 68.7171 14.5644 68.5858L18.554 64.5869C18.8186 64.3217 18.9672 63.9621 18.9672 63.5872C18.9672 63.2122 18.8186 62.8526 18.554 62.5874C18.2895 62.3223 17.9307 62.1734 17.5566 62.1734C17.1825 62.1734 16.8237 62.3223 16.5592 62.5874L13.5912 65.5623C10.9567 62.7221 8.78835 59.4811 7.16684 55.96L11.0637 54.3426C11.4093 54.199 11.6839 53.9237 11.8271 53.5772C11.9702 53.2307 11.9701 52.8415 11.8269 52.495C11.6837 52.1486 11.409 51.8734 11.0633 51.7299C10.7176 51.5864 10.3293 51.5865 9.98361 51.73L6.08711 53.3473C4.74976 49.7085 3.99664 45.8801 3.8558 42.0049H8.05359C8.42773 42.0049 8.78655 41.8559 9.05111 41.5907C9.31567 41.3256 9.4643 40.9659 9.4643 40.5909C9.4643 40.2159 9.31567 39.8562 9.05111 39.5911C8.78655 39.3259 8.42773 39.1769 8.05359 39.1769H3.85718C3.99976 35.3025 4.75663 31.4756 6.0994 27.8396L9.98367 29.4518C10.1548 29.5229 10.3383 29.5595 10.5235 29.5595C10.7088 29.5595 10.8922 29.523 11.0634 29.452C11.2346 29.3809 11.3901 29.2768 11.5211 29.1455C11.6521 29.0142 11.7561 28.8584 11.827 28.6868C11.8979 28.5153 11.9344 28.3314 11.9344 28.1457C11.9345 27.9601 11.898 27.7762 11.8271 27.6046C11.7563 27.4331 11.6524 27.2772 11.5214 27.1459C11.3904 27.0145 11.2349 26.9104 11.0638 26.8393L7.18882 25.2309C8.81038 21.7131 10.9749 18.4734 13.6026 15.631L16.5593 18.5944C16.8238 18.8595 17.1826 19.0085 17.5567 19.0085C17.9308 19.0085 18.2896 18.8595 18.5541 18.5944C18.8186 18.3292 18.9672 17.9696 18.9672 17.5947C18.9672 17.2197 18.8186 16.8601 18.5541 16.595L15.5975 13.6315C18.4334 10.9977 21.6656 8.82827 25.1753 7.20299L26.78 11.0869C26.9232 11.4333 27.1979 11.7086 27.5436 11.852C27.8892 11.9955 28.2776 11.9954 28.6233 11.8519C28.9689 11.7083 29.2435 11.433 29.3867 11.0865C29.5298 10.7401 29.5297 10.3508 29.3865 10.0043L27.778 6.11111C31.4056 4.76523 35.2238 4.0066 39.0893 3.86367V8.06975C39.0893 8.44475 39.2379 8.8044 39.5025 9.06957C39.767 9.33474 40.1259 9.48371 40.5 9.48371C40.8741 9.48371 41.233 9.33474 41.4975 9.06957C41.7621 8.8044 41.9107 8.44475 41.9107 8.06975V3.86367C45.7762 4.00658 49.5944 4.7652 53.222 6.11105L51.6135 10.0043C51.5426 10.1758 51.5061 10.3597 51.506 10.5454C51.506 10.731 51.5425 10.9149 51.6134 11.0865C51.6842 11.258 51.7881 11.4139 51.9191 11.5452C52.0501 11.6766 52.2056 11.7807 52.3767 11.8518C52.5479 11.9229 52.7313 11.9595 52.9166 11.9595C53.1018 11.9596 53.2853 11.923 53.4564 11.852C53.6276 11.7809 53.7831 11.6768 53.9142 11.5455C54.0452 11.4142 54.1491 11.2584 54.22 11.0868L55.8247 7.20299C59.3344 8.82828 62.5667 10.9978 65.4026 13.6316L62.446 16.595C62.315 16.7262 62.2111 16.8821 62.1402 17.0536C62.0693 17.2252 62.0328 17.409 62.0328 17.5947C62.0328 17.7803 62.0693 17.9642 62.1402 18.1357C62.2111 18.3072 62.315 18.4631 62.446 18.5944C62.577 18.7257 62.7324 18.8298 62.9036 18.9009C63.0747 18.9719 63.2582 19.0085 63.4434 19.0085C63.6286 19.0085 63.812 18.9719 63.9832 18.9009C64.1543 18.8298 64.3098 18.7257 64.4408 18.5944L67.3974 15.631C70.0252 18.4734 72.1896 21.7131 73.8112 25.2309L69.9362 26.8393C69.5905 26.9828 69.316 27.2581 69.1728 27.6046C69.0297 27.9511 69.0297 28.3404 69.173 28.6868C69.3162 29.0333 69.5909 29.3085 69.9366 29.452C70.2822 29.5954 70.6706 29.5954 71.0163 29.4518L74.9006 27.8396C76.2433 31.4755 77.0002 35.3025 77.1428 39.1769H72.9464C72.5723 39.1769 72.2135 39.3259 71.9489 39.5911C71.6843 39.8562 71.5357 40.2159 71.5357 40.5909C71.5357 40.9659 71.6843 41.3256 71.9489 41.5907C72.2135 41.8559 72.5723 42.0049 72.9464 42.0049H77.1442C77.0033 45.8801 76.2502 49.7085 74.9128 53.3473L71.0163 51.73C70.8452 51.6589 70.6618 51.6223 70.4765 51.6223C70.2912 51.6223 70.1078 51.6588 69.9366 51.7299C69.7654 51.8009 69.6099 51.905 69.4789 52.0363C69.3479 52.1676 69.244 52.3234 69.173 52.495C69.1021 52.6665 69.0656 52.8504 69.0656 53.0361C69.0655 53.2218 69.102 53.4056 69.1729 53.5772C69.2438 53.7487 69.3476 53.9046 69.4786 54.036C69.6096 54.1673 69.7651 54.2714 69.9363 54.3425L73.8331 55.96C72.2116 59.481 70.0432 62.722 67.4087 65.5622L64.4408 62.5874C64.1763 62.3223 63.8175 62.1733 63.4434 62.1733C63.0693 62.1733 62.7105 62.3223 62.446 62.5874C62.1814 62.8526 62.0328 63.2122 62.0328 63.5871C62.0328 63.9621 62.1814 64.3217 62.446 64.5868L66.4357 68.5857C66.5666 68.717 66.7221 68.8212 66.8932 68.8923C67.0644 68.9634 67.2478 69 67.4331 69C67.6183 69 67.8018 68.9634 67.9729 68.8923C68.144 68.8212 68.2995 68.717 68.4305 68.5857C73.9533 63.0531 77.715 56.0031 79.2399 48.3275C80.7648 40.6518 79.9843 32.6953 76.9972 25.4642Z"/>
</mask>
<path d="M76.9972 25.4642L76.9926 25.4405L76.9811 25.4235C75.0018 20.6642 72.117 16.3366 68.4877 12.6823C68.4646 12.6555 68.4559 12.6215 68.4305 12.5961C68.4051 12.5706 68.3712 12.5619 68.3444 12.5388C64.6985 8.90111 60.381 6.00968 55.6326 4.02581L55.6156 4.01434L55.5919 4.00968C50.8073 2.02268 45.679 0.999985 40.5 1C35.321 1.00001 30.1927 2.02274 25.4081 4.00976C25.4004 4.01279 25.3922 4.01118 25.3844 4.01434L25.3673 4.02581C20.619 6.00969 16.3014 8.90112 12.6555 12.5388C12.6287 12.5619 12.5949 12.5706 12.5695 12.5961C12.5441 12.6215 12.5354 12.6555 12.5123 12.6823C8.88306 16.3366 5.99832 20.6641 4.01906 25.4233L4.00744 25.4406C4.00416 25.4484 4.0058 25.4567 4.00269 25.4646C1.01564 32.6956 0.235212 40.6521 1.76011 48.3277C3.28502 56.0033 7.04675 63.0532 12.5695 68.5858C12.7005 68.7171 12.856 68.8213 13.0271 68.8923C13.1983 68.9634 13.3817 69 13.5669 69C13.7522 69 13.9356 68.9634 14.1068 68.8923C14.2779 68.8213 14.4334 68.7171 14.5644 68.5858L18.554 64.5869C18.8186 64.3217 18.9672 63.9621 18.9672 63.5872C18.9672 63.2122 18.8186 62.8526 18.554 62.5874C18.2895 62.3223 17.9307 62.1734 17.5566 62.1734C17.1825 62.1734 16.8237 62.3223 16.5592 62.5874L13.5912 65.5623C10.9567 62.7221 8.78835 59.4811 7.16684 55.96L11.0637 54.3426C11.4093 54.199 11.6839 53.9237 11.8271 53.5772C11.9702 53.2307 11.9701 52.8415 11.8269 52.495C11.6837 52.1486 11.409 51.8734 11.0633 51.7299C10.7176 51.5864 10.3293 51.5865 9.98361 51.73L6.08711 53.3473C4.74976 49.7085 3.99664 45.8801 3.8558 42.0049H8.05359C8.42773 42.0049 8.78655 41.8559 9.05111 41.5907C9.31567 41.3256 9.4643 40.9659 9.4643 40.5909C9.4643 40.2159 9.31567 39.8562 9.05111 39.5911C8.78655 39.3259 8.42773 39.1769 8.05359 39.1769H3.85718C3.99976 35.3025 4.75663 31.4756 6.0994 27.8396L9.98367 29.4518C10.1548 29.5229 10.3383 29.5595 10.5235 29.5595C10.7088 29.5595 10.8922 29.523 11.0634 29.452C11.2346 29.3809 11.3901 29.2768 11.5211 29.1455C11.6521 29.0142 11.7561 28.8584 11.827 28.6868C11.8979 28.5153 11.9344 28.3314 11.9344 28.1457C11.9345 27.9601 11.898 27.7762 11.8271 27.6046C11.7563 27.4331 11.6524 27.2772 11.5214 27.1459C11.3904 27.0145 11.2349 26.9104 11.0638 26.8393L7.18882 25.2309C8.81038 21.7131 10.9749 18.4734 13.6026 15.631L16.5593 18.5944C16.8238 18.8595 17.1826 19.0085 17.5567 19.0085C17.9308 19.0085 18.2896 18.8595 18.5541 18.5944C18.8186 18.3292 18.9672 17.9696 18.9672 17.5947C18.9672 17.2197 18.8186 16.8601 18.5541 16.595L15.5975 13.6315C18.4334 10.9977 21.6656 8.82827 25.1753 7.20299L26.78 11.0869C26.9232 11.4333 27.1979 11.7086 27.5436 11.852C27.8892 11.9955 28.2776 11.9954 28.6233 11.8519C28.9689 11.7083 29.2435 11.433 29.3867 11.0865C29.5298 10.7401 29.5297 10.3508 29.3865 10.0043L27.778 6.11111C31.4056 4.76523 35.2238 4.0066 39.0893 3.86367V8.06975C39.0893 8.44475 39.2379 8.8044 39.5025 9.06957C39.767 9.33474 40.1259 9.48371 40.5 9.48371C40.8741 9.48371 41.233 9.33474 41.4975 9.06957C41.7621 8.8044 41.9107 8.44475 41.9107 8.06975V3.86367C45.7762 4.00658 49.5944 4.7652 53.222 6.11105L51.6135 10.0043C51.5426 10.1758 51.5061 10.3597 51.506 10.5454C51.506 10.731 51.5425 10.9149 51.6134 11.0865C51.6842 11.258 51.7881 11.4139 51.9191 11.5452C52.0501 11.6766 52.2056 11.7807 52.3767 11.8518C52.5479 11.9229 52.7313 11.9595 52.9166 11.9595C53.1018 11.9596 53.2853 11.923 53.4564 11.852C53.6276 11.7809 53.7831 11.6768 53.9142 11.5455C54.0452 11.4142 54.1491 11.2584 54.22 11.0868L55.8247 7.20299C59.3344 8.82828 62.5667 10.9978 65.4026 13.6316L62.446 16.595C62.315 16.7262 62.2111 16.8821 62.1402 17.0536C62.0693 17.2252 62.0328 17.409 62.0328 17.5947C62.0328 17.7803 62.0693 17.9642 62.1402 18.1357C62.2111 18.3072 62.315 18.4631 62.446 18.5944C62.577 18.7257 62.7324 18.8298 62.9036 18.9009C63.0747 18.9719 63.2582 19.0085 63.4434 19.0085C63.6286 19.0085 63.812 18.9719 63.9832 18.9009C64.1543 18.8298 64.3098 18.7257 64.4408 18.5944L67.3974 15.631C70.0252 18.4734 72.1896 21.7131 73.8112 25.2309L69.9362 26.8393C69.5905 26.9828 69.316 27.2581 69.1728 27.6046C69.0297 27.9511 69.0297 28.3404 69.173 28.6868C69.3162 29.0333 69.5909 29.3085 69.9366 29.452C70.2822 29.5954 70.6706 29.5954 71.0163 29.4518L74.9006 27.8396C76.2433 31.4755 77.0002 35.3025 77.1428 39.1769H72.9464C72.5723 39.1769 72.2135 39.3259 71.9489 39.5911C71.6843 39.8562 71.5357 40.2159 71.5357 40.5909C71.5357 40.9659 71.6843 41.3256 71.9489 41.5907C72.2135 41.8559 72.5723 42.0049 72.9464 42.0049H77.1442C77.0033 45.8801 76.2502 49.7085 74.9128 53.3473L71.0163 51.73C70.8452 51.6589 70.6618 51.6223 70.4765 51.6223C70.2912 51.6223 70.1078 51.6588 69.9366 51.7299C69.7654 51.8009 69.6099 51.905 69.4789 52.0363C69.3479 52.1676 69.244 52.3234 69.173 52.495C69.1021 52.6665 69.0656 52.8504 69.0656 53.0361C69.0655 53.2218 69.102 53.4056 69.1729 53.5772C69.2438 53.7487 69.3476 53.9046 69.4786 54.036C69.6096 54.1673 69.7651 54.2714 69.9363 54.3425L73.8331 55.96C72.2116 59.481 70.0432 62.722 67.4087 65.5622L64.4408 62.5874C64.1763 62.3223 63.8175 62.1733 63.4434 62.1733C63.0693 62.1733 62.7105 62.3223 62.446 62.5874C62.1814 62.8526 62.0328 63.2122 62.0328 63.5871C62.0328 63.9621 62.1814 64.3217 62.446 64.5868L66.4357 68.5857C66.5666 68.717 66.7221 68.8212 66.8932 68.8923C67.0644 68.9634 67.2478 69 67.4331 69C67.6183 69 67.8018 68.9634 67.9729 68.8923C68.144 68.8212 68.2995 68.717 68.4305 68.5857C73.9533 63.0531 77.715 56.0031 79.2399 48.3275C80.7648 40.6518 79.9843 32.6953 76.9972 25.4642Z" fill="url(#paint2_linear_6652_2223)"/>
<path d="M76.9972 25.4642L76.9926 25.4405L76.9811 25.4235C75.0018 20.6642 72.117 16.3366 68.4877 12.6823C68.4646 12.6555 68.4559 12.6215 68.4305 12.5961C68.4051 12.5706 68.3712 12.5619 68.3444 12.5388C64.6985 8.90111 60.381 6.00968 55.6326 4.02581L55.6156 4.01434L55.5919 4.00968C50.8073 2.02268 45.679 0.999985 40.5 1C35.321 1.00001 30.1927 2.02274 25.4081 4.00976C25.4004 4.01279 25.3922 4.01118 25.3844 4.01434L25.3673 4.02581C20.619 6.00969 16.3014 8.90112 12.6555 12.5388C12.6287 12.5619 12.5949 12.5706 12.5695 12.5961C12.5441 12.6215 12.5354 12.6555 12.5123 12.6823C8.88306 16.3366 5.99832 20.6641 4.01906 25.4233L4.00744 25.4406C4.00416 25.4484 4.0058 25.4567 4.00269 25.4646C1.01564 32.6956 0.235212 40.6521 1.76011 48.3277C3.28502 56.0033 7.04675 63.0532 12.5695 68.5858C12.7005 68.7171 12.856 68.8213 13.0271 68.8923C13.1983 68.9634 13.3817 69 13.5669 69C13.7522 69 13.9356 68.9634 14.1068 68.8923C14.2779 68.8213 14.4334 68.7171 14.5644 68.5858L18.554 64.5869C18.8186 64.3217 18.9672 63.9621 18.9672 63.5872C18.9672 63.2122 18.8186 62.8526 18.554 62.5874C18.2895 62.3223 17.9307 62.1734 17.5566 62.1734C17.1825 62.1734 16.8237 62.3223 16.5592 62.5874L13.5912 65.5623C10.9567 62.7221 8.78835 59.4811 7.16684 55.96L11.0637 54.3426C11.4093 54.199 11.6839 53.9237 11.8271 53.5772C11.9702 53.2307 11.9701 52.8415 11.8269 52.495C11.6837 52.1486 11.409 51.8734 11.0633 51.7299C10.7176 51.5864 10.3293 51.5865 9.98361 51.73L6.08711 53.3473C4.74976 49.7085 3.99664 45.8801 3.8558 42.0049H8.05359C8.42773 42.0049 8.78655 41.8559 9.05111 41.5907C9.31567 41.3256 9.4643 40.9659 9.4643 40.5909C9.4643 40.2159 9.31567 39.8562 9.05111 39.5911C8.78655 39.3259 8.42773 39.1769 8.05359 39.1769H3.85718C3.99976 35.3025 4.75663 31.4756 6.0994 27.8396L9.98367 29.4518C10.1548 29.5229 10.3383 29.5595 10.5235 29.5595C10.7088 29.5595 10.8922 29.523 11.0634 29.452C11.2346 29.3809 11.3901 29.2768 11.5211 29.1455C11.6521 29.0142 11.7561 28.8584 11.827 28.6868C11.8979 28.5153 11.9344 28.3314 11.9344 28.1457C11.9345 27.9601 11.898 27.7762 11.8271 27.6046C11.7563 27.4331 11.6524 27.2772 11.5214 27.1459C11.3904 27.0145 11.2349 26.9104 11.0638 26.8393L7.18882 25.2309C8.81038 21.7131 10.9749 18.4734 13.6026 15.631L16.5593 18.5944C16.8238 18.8595 17.1826 19.0085 17.5567 19.0085C17.9308 19.0085 18.2896 18.8595 18.5541 18.5944C18.8186 18.3292 18.9672 17.9696 18.9672 17.5947C18.9672 17.2197 18.8186 16.8601 18.5541 16.595L15.5975 13.6315C18.4334 10.9977 21.6656 8.82827 25.1753 7.20299L26.78 11.0869C26.9232 11.4333 27.1979 11.7086 27.5436 11.852C27.8892 11.9955 28.2776 11.9954 28.6233 11.8519C28.9689 11.7083 29.2435 11.433 29.3867 11.0865C29.5298 10.7401 29.5297 10.3508 29.3865 10.0043L27.778 6.11111C31.4056 4.76523 35.2238 4.0066 39.0893 3.86367V8.06975C39.0893 8.44475 39.2379 8.8044 39.5025 9.06957C39.767 9.33474 40.1259 9.48371 40.5 9.48371C40.8741 9.48371 41.233 9.33474 41.4975 9.06957C41.7621 8.8044 41.9107 8.44475 41.9107 8.06975V3.86367C45.7762 4.00658 49.5944 4.7652 53.222 6.11105L51.6135 10.0043C51.5426 10.1758 51.5061 10.3597 51.506 10.5454C51.506 10.731 51.5425 10.9149 51.6134 11.0865C51.6842 11.258 51.7881 11.4139 51.9191 11.5452C52.0501 11.6766 52.2056 11.7807 52.3767 11.8518C52.5479 11.9229 52.7313 11.9595 52.9166 11.9595C53.1018 11.9596 53.2853 11.923 53.4564 11.852C53.6276 11.7809 53.7831 11.6768 53.9142 11.5455C54.0452 11.4142 54.1491 11.2584 54.22 11.0868L55.8247 7.20299C59.3344 8.82828 62.5667 10.9978 65.4026 13.6316L62.446 16.595C62.315 16.7262 62.2111 16.8821 62.1402 17.0536C62.0693 17.2252 62.0328 17.409 62.0328 17.5947C62.0328 17.7803 62.0693 17.9642 62.1402 18.1357C62.2111 18.3072 62.315 18.4631 62.446 18.5944C62.577 18.7257 62.7324 18.8298 62.9036 18.9009C63.0747 18.9719 63.2582 19.0085 63.4434 19.0085C63.6286 19.0085 63.812 18.9719 63.9832 18.9009C64.1543 18.8298 64.3098 18.7257 64.4408 18.5944L67.3974 15.631C70.0252 18.4734 72.1896 21.7131 73.8112 25.2309L69.9362 26.8393C69.5905 26.9828 69.316 27.2581 69.1728 27.6046C69.0297 27.9511 69.0297 28.3404 69.173 28.6868C69.3162 29.0333 69.5909 29.3085 69.9366 29.452C70.2822 29.5954 70.6706 29.5954 71.0163 29.4518L74.9006 27.8396C76.2433 31.4755 77.0002 35.3025 77.1428 39.1769H72.9464C72.5723 39.1769 72.2135 39.3259 71.9489 39.5911C71.6843 39.8562 71.5357 40.2159 71.5357 40.5909C71.5357 40.9659 71.6843 41.3256 71.9489 41.5907C72.2135 41.8559 72.5723 42.0049 72.9464 42.0049H77.1442C77.0033 45.8801 76.2502 49.7085 74.9128 53.3473L71.0163 51.73C70.8452 51.6589 70.6618 51.6223 70.4765 51.6223C70.2912 51.6223 70.1078 51.6588 69.9366 51.7299C69.7654 51.8009 69.6099 51.905 69.4789 52.0363C69.3479 52.1676 69.244 52.3234 69.173 52.495C69.1021 52.6665 69.0656 52.8504 69.0656 53.0361C69.0655 53.2218 69.102 53.4056 69.1729 53.5772C69.2438 53.7487 69.3476 53.9046 69.4786 54.036C69.6096 54.1673 69.7651 54.2714 69.9363 54.3425L73.8331 55.96C72.2116 59.481 70.0432 62.722 67.4087 65.5622L64.4408 62.5874C64.1763 62.3223 63.8175 62.1733 63.4434 62.1733C63.0693 62.1733 62.7105 62.3223 62.446 62.5874C62.1814 62.8526 62.0328 63.2122 62.0328 63.5871C62.0328 63.9621 62.1814 64.3217 62.446 64.5868L66.4357 68.5857C66.5666 68.717 66.7221 68.8212 66.8932 68.8923C67.0644 68.9634 67.2478 69 67.4331 69C67.6183 69 67.8018 68.9634 67.9729 68.8923C68.144 68.8212 68.2995 68.717 68.4305 68.5857C73.9533 63.0531 77.715 56.0031 79.2399 48.3275C80.7648 40.6518 79.9843 32.6953 76.9972 25.4642Z" stroke="url(#paint3_linear_6652_2223)" stroke-width="2" mask="url(#path-2-outside-1_6652_2223)"/>
<path d="M41.2265 38.5L41.2264 38.5C39.8315 38.5014 38.4923 39.0456 37.5031 40.0161C36.5136 40.9869 35.9553 42.3053 35.9539 43.6825H35.9538L35.9539 43.69C35.9584 44.0097 35.9933 44.3279 36.058 44.6405L20.362 53.3734C20.3619 53.3734 20.3619 53.3734 20.3619 53.3735C20.1688 53.4809 19.9985 53.6249 19.8611 53.7977C19.7236 53.9706 19.6218 54.1689 19.5619 54.3814C19.502 54.5939 19.4853 54.8161 19.5129 55.0351C19.5405 55.2542 19.6118 55.4653 19.7222 55.6565C19.8327 55.8477 19.9801 56.0151 20.1555 56.1494C20.331 56.2837 20.5311 56.3823 20.7445 56.4402C20.9578 56.4981 21.1805 56.5141 21.3999 56.4875C21.6194 56.4609 21.8318 56.3921 22.0249 56.2847L22.025 56.2847L37.7271 47.5483C38.2783 48.0305 38.9271 48.3942 39.632 48.6148C40.46 48.874 41.3403 48.9278 42.1944 48.7716C43.0486 48.6154 43.8508 48.2539 44.5292 47.7186C45.2077 47.1833 45.7413 46.4906 46.0817 45.702C46.422 44.9132 46.5581 44.0536 46.4774 43.2C46.3967 42.3465 46.1017 41.5265 45.6197 40.8134C45.1378 40.1002 44.4839 39.5164 43.7174 39.1131C42.9509 38.7098 42.0951 38.4993 41.2265 38.5ZM41.2266 45.5245C40.8515 45.5244 40.4855 45.4152 40.1751 45.2117C39.8647 45.0082 39.6243 44.72 39.4827 44.3846C39.3411 44.0492 39.3042 43.6808 39.3763 43.3255C39.4483 42.9701 39.6264 42.6424 39.8895 42.3842C40.1528 42.1259 40.4893 41.949 40.857 41.8772C41.2248 41.8054 41.606 41.8424 41.9519 41.9829C42.2977 42.1235 42.5917 42.3608 42.7979 42.6636C43.0038 42.966 43.1132 43.3205 43.1133 43.6824C43.1127 44.1676 42.916 44.6348 42.5633 44.9809C42.2103 45.3272 41.7298 45.5237 41.2266 45.5245Z" fill="url(#paint4_linear_6652_2223)" stroke="url(#paint5_linear_6652_2223)"/>
<defs>
<linearGradient id="paint0_linear_6652_2223" x1="41" y1="57.4851" x2="41" y2="81.0802" gradientUnits="userSpaceOnUse">
<stop stop-color="#00EFD1"/>
<stop offset="1" stop-color="#00ACEA"/>
</linearGradient>
<linearGradient id="paint1_linear_6652_2223" x1="41" y1="57.4851" x2="41" y2="81.0802" gradientUnits="userSpaceOnUse">
<stop stop-color="#00EFD1"/>
<stop offset="1" stop-color="#00ACEA"/>
</linearGradient>
<linearGradient id="paint2_linear_6652_2223" x1="40.4998" y1="-0.522454" x2="40.4998" y2="69.2372" gradientUnits="userSpaceOnUse">
<stop stop-color="#00EFD1"/>
<stop offset="1" stop-color="#00ACEA"/>
</linearGradient>
<linearGradient id="paint3_linear_6652_2223" x1="40.4998" y1="-0.522454" x2="40.4998" y2="69.2372" gradientUnits="userSpaceOnUse">
<stop stop-color="#00EFD1"/>
<stop offset="1" stop-color="#00ACEA"/>
</linearGradient>
<linearGradient id="paint4_linear_6652_2223" x1="32.9999" y1="38.6194" x2="32.9999" y2="56.0593" gradientUnits="userSpaceOnUse">
<stop stop-color="#00EFD1"/>
<stop offset="1" stop-color="#00ACEA"/>
</linearGradient>
<linearGradient id="paint5_linear_6652_2223" x1="32.9999" y1="38.6194" x2="32.9999" y2="56.0593" gradientUnits="userSpaceOnUse">
<stop stop-color="#00EFD1"/>
<stop offset="1" stop-color="#00ACEA"/>
</linearGradient>
</defs>
</svg>
