<svg width="63" height="70" viewBox="0 0 63 70" fill="none" xmlns="http://www.w3.org/2000/svg">
<path d="M24.9949 26.6568C27.2387 26.6568 29.0577 24.8378 29.0577 22.594C29.0577 20.3502 27.2387 18.5312 24.9949 18.5312C22.7511 18.5312 20.9321 20.3502 20.9321 22.594C20.9321 24.8378 22.7511 26.6568 24.9949 26.6568Z" fill="url(#paint0_linear_6266_2070)"/>
<path d="M37.7176 40.8306C39.9614 40.8306 41.7803 39.0117 41.7803 36.7679C41.7803 34.524 39.9614 32.7051 37.7176 32.7051C35.4738 32.7051 33.6548 34.524 33.6548 36.7679C33.6548 39.0117 35.4738 40.8306 37.7176 40.8306Z" fill="url(#paint1_linear_6266_2070)"/>
<path fill-rule="evenodd" clip-rule="evenodd" d="M40.3846 19.2538C39.9321 18.8319 39.3306 18.6069 38.7123 18.6284C38.094 18.6498 37.5094 18.9159 37.0873 19.3682L21.9189 35.6216C21.7098 35.8456 21.5468 36.1087 21.4393 36.3957C21.3318 36.6827 21.2819 36.988 21.2924 37.2943C21.3029 37.6006 21.3736 37.9019 21.5006 38.1808C21.6275 38.4598 21.8081 38.711 22.0321 38.9202C22.2561 39.1293 22.5192 39.2923 22.8062 39.3998C23.0932 39.5073 23.3985 39.5572 23.7048 39.5467C24.0111 39.5362 24.3124 39.4655 24.5913 39.3385C24.8703 39.2116 25.1215 39.031 25.3307 38.807L40.499 22.5512C40.9209 22.0987 41.1459 21.4972 41.1245 20.8788C41.103 20.2605 40.8369 19.676 40.3846 19.2538Z" fill="url(#paint2_linear_6266_2070)"/>
<path fill-rule="evenodd" clip-rule="evenodd" d="M62.4232 40.8378C62.0907 39.9378 61.4903 39.1614 60.703 38.6132C59.9156 38.0649 58.9791 37.7711 58.0197 37.7715H52.5918H52.5731V37.7528V4.69285C52.5725 3.44801 52.0776 2.25437 51.1971 1.37436C50.3167 0.494349 49.1228 -1.53754e-07 47.8779 0H14.8343C13.5895 -1.53754e-07 12.3956 0.494349 11.5152 1.37436C10.6347 2.25437 10.1398 3.44801 10.1392 4.69285V37.7388V37.7575H10.1205H4.69257C3.73364 37.758 2.79787 38.0521 2.01109 38.6003C1.2243 39.1485 0.624236 39.9245 0.291576 40.8238C-0.0410835 41.7232 -0.090384 42.7029 0.150304 43.6311C0.390992 44.5593 0.910126 45.3916 1.6379 46.016L28.3015 68.8712C29.1525 69.5997 30.2359 70 31.3561 70C32.4764 70 33.5598 69.5997 34.4108 68.8712L61.0744 46.016C61.7998 45.3929 62.3176 44.5632 62.5587 43.6379C62.7997 42.7125 62.7524 41.7356 62.4232 40.8378ZM58.0384 42.4853L31.3725 65.3405C31.3677 65.3449 31.3615 65.3474 31.355 65.3474C31.3485 65.3474 31.3422 65.3449 31.3375 65.3405L4.6739 42.4713C4.67119 42.4671 4.66974 42.4623 4.66974 42.4573C4.66974 42.4523 4.67119 42.4475 4.6739 42.4433C4.67546 42.4378 4.67885 42.4329 4.6835 42.4295C4.68816 42.4261 4.69382 42.4244 4.69957 42.4246H10.1205C11.3651 42.4246 12.5588 41.9302 13.4388 41.0501C14.3189 40.1701 14.8133 38.9764 14.8133 37.7318V4.69285C14.8132 4.68677 14.8153 4.68086 14.8191 4.67616C14.823 4.67146 14.8284 4.66828 14.8343 4.66718H47.8779C47.8848 4.66718 47.8913 4.66988 47.8961 4.67469C47.9009 4.67951 47.9036 4.68604 47.9036 4.69285V37.7388C47.9036 38.9826 48.3974 40.1755 49.2765 41.0555C50.1555 41.9354 51.348 42.4304 52.5918 42.4316H58.0127C58.0185 42.4314 58.0241 42.4331 58.0288 42.4365C58.0334 42.4399 58.0368 42.4448 58.0384 42.4503C58.0395 42.4538 58.0399 42.4574 58.0395 42.4611C58.0391 42.4647 58.0379 42.4682 58.0361 42.4713L58.0384 42.4853Z" fill="url(#paint3_linear_6266_2070)"/>
<defs>
<linearGradient id="paint0_linear_6266_2070" x1="24.9949" y1="18.3493" x2="24.9949" y2="26.6851" gradientUnits="userSpaceOnUse">
<stop stop-color="#00EFD1"/>
<stop offset="1" stop-color="#00ACEA"/>
</linearGradient>
<linearGradient id="paint1_linear_6266_2070" x1="37.7175" y1="32.5232" x2="37.7175" y2="40.859" gradientUnits="userSpaceOnUse">
<stop stop-color="#00EFD1"/>
<stop offset="1" stop-color="#00ACEA"/>
</linearGradient>
<linearGradient id="paint2_linear_6266_2070" x1="31.2084" y1="18.1585" x2="31.2084" y2="39.6211" gradientUnits="userSpaceOnUse">
<stop stop-color="#00EFD1"/>
<stop offset="1" stop-color="#00ACEA"/>
</linearGradient>
<linearGradient id="paint3_linear_6266_2070" x1="31.355" y1="-1.56723" x2="31.355" y2="70.2442" gradientUnits="userSpaceOnUse">
<stop stop-color="#00EFD1"/>
<stop offset="1" stop-color="#00ACEA"/>
</linearGradient>
</defs>
</svg>
