<svg xmlns="http://www.w3.org/2000/svg" width="25.408" height="30" viewBox="0 0 25.408 30"><defs><style>.a{fill:#fff;}</style></defs><g transform="translate(-140.126 440.701)"><path class="a" d="M184.883-389.593c-.773.035-1.141.7-1.129,2.053.011,1.3.372,1.916,1.135,1.943.814.029,1.225-.623,1.229-1.949C186.124-388.929,185.7-389.629,184.883-389.593Z" transform="translate(-34.928 -40.916)"/><path class="a" d="M213.057-361.419c-.773.035-1.141.7-1.129,2.053.011,1.3.372,1.916,1.135,1.943.814.029,1.225-.623,1.229-1.949C214.3-360.755,213.875-361.455,213.057-361.419Z" transform="translate(-57.484 -63.471)"/><path class="a" d="M165.414-425.976c-.377-.871-1.843-.925-2.074-.925-1.89-.008-2.395-.518-2.4-2.435,0-2.423,0-4.846,0-7.269H144.853q0,3.536,0,7.071c0,2.215-.4,2.638-2.578,2.626-.834,0-1.605.052-2.012.939s.173,1.442.662,2.026q4.95,5.926,9.9,11.851c1.527,1.835,2.539,1.858,4.064.042q3.586-4.274,7.161-8.559c1.045-1.248,2.14-2.461,3.1-3.769A1.571,1.571,0,0,0,165.414-425.976Zm-15.759.367c-1.372-.167-2.1-1.406-1.96-3.344.112-1.569,1.033-2.527,2.389-2.481,1.408.048,2.265,1.141,2.279,2.907C152.378-426.56,151.306-425.406,149.655-425.609ZM151-420.977a.537.537,0,0,1-.72.233.537.537,0,0,1-.233-.72l4.479-8.806a.538.538,0,0,1,.72-.233.536.536,0,0,1,.233.72Zm4.269.987c-1.37-.169-2.1-1.408-1.958-3.346.11-1.569,1.031-2.527,2.387-2.481,1.41.048,2.265,1.141,2.281,2.909C158-420.943,156.925-419.786,155.272-419.99Zm3.113-20.707c-1.827-.006-3.655,0-5.482,0-1.894,0-3.787-.006-5.681,0a2.082,2.082,0,0,0-2.367,2.391v0h16.085C160.889-440.082,160.219-440.693,158.385-440.7Z"/></g></svg>