<svg width="38" height="60" viewBox="0 0 38 60" fill="none" xmlns="http://www.w3.org/2000/svg">
<g clip-path="url(#clip0_5331_1222)">
<path d="M12.0997 48.1406C10.7919 47.6958 9.66611 46.8396 8.89318 45.7022C8.12024 44.5647 7.74242 43.208 7.81709 41.838C7.7012 32.6705 7.66091 23.498 7.83473 14.338C7.78176 13.4484 7.91294 12.5574 8.22017 11.7199C8.5274 10.8825 9.00419 10.1163 9.62115 9.46872C10.2381 8.8211 10.9822 8.30576 11.8075 7.95436C12.6328 7.60297 13.5219 7.42299 14.4199 7.42557C20.6801 6.81807 23.741 9.52305 23.7888 15.7956C23.8291 20.1231 23.741 24.453 23.8292 28.778C23.7918 29.3133 23.8714 29.8504 24.0625 30.3524C24.2535 30.8543 24.5516 31.3095 24.9362 31.6867C25.3208 32.0638 25.7829 32.3541 26.291 32.5377C26.7991 32.7213 27.3411 32.794 27.88 32.7506C28.3999 32.7455 28.9131 32.6341 29.3876 32.4232C29.8621 32.2123 30.2876 31.9065 30.6376 31.525C30.9875 31.1435 31.2543 30.6943 31.4214 30.2057C31.5885 29.7172 31.6521 29.1997 31.6084 28.6856C31.6513 23.9181 31.7319 19.1455 31.5707 14.383C31.2935 6.22054 26.8119 1.21808 18.9595 0.18558C17.2711 -0.00594197 15.5683 -0.041074 13.8733 0.0805995C12.0685 0.0436181 10.2746 0.367007 8.5983 1.03168C6.92198 1.69635 5.3974 2.6887 4.1152 3.94969C2.83301 5.21069 1.81936 6.7146 1.13449 8.37207C0.449613 10.0295 0.107491 11.8068 0.128474 13.5981C-0.123447 18.3481 0.083153 23.1306 0.083153 27.8981H0.15369C0.15369 33.1031 -0.128464 38.328 0.229263 43.5105C0.278682 46.1842 1.18414 48.7729 2.81458 50.9019C4.44502 53.0309 6.71582 54.5898 9.29837 55.353C9.78086 55.5955 10.3083 55.7373 10.8481 55.7697C11.3879 55.8021 11.9287 55.7244 12.4371 55.5415C12.9455 55.3586 13.4108 55.0742 13.8042 54.706C14.1977 54.3378 14.5109 53.8935 14.7248 53.4005C14.9444 52.8874 15.0497 52.3333 15.0334 51.776C15.017 51.2187 14.8795 50.6716 14.6302 50.172C14.3808 49.6724 14.0257 49.2322 13.5889 48.8816C13.1521 48.5309 12.6441 48.2782 12.0997 48.1406V48.1406Z" fill="#0066B3"/>
<path d="M32.3013 46.369C29.1145 46.2615 26.9531 48.4915 26.6911 52.1515C26.3686 56.669 28.0741 59.5564 31.2936 59.9489C35.1732 60.4214 37.6924 57.7289 37.6571 53.1464C37.6244 49.0264 35.6115 46.4815 32.3013 46.369ZM32.0167 57.8439C30.223 57.7789 29.3765 56.344 29.3488 53.314C29.3211 50.169 30.1852 48.6089 32.0015 48.5289C33.9211 48.4439 34.9162 50.0764 34.9036 53.3014C34.8936 56.4014 33.9262 57.9014 32.0167 57.8439V57.8439Z" fill="#0066B3"/>
<path d="M24.4589 40.0507C24.4262 35.9307 22.4133 33.3833 19.1031 33.2733C15.9163 33.1658 13.7548 35.3957 13.4928 39.0557C13.1704 43.5732 14.8759 46.4608 18.0954 46.8533C21.9775 47.3258 24.4967 44.6307 24.4589 40.0507ZM18.8159 44.7457C17.0222 44.6832 16.1758 43.2458 16.1481 40.2158C16.1204 37.0708 16.9845 35.5108 18.8008 35.4308C20.7204 35.3458 21.7155 36.9783 21.7029 40.2033C21.6954 43.2933 20.728 44.8133 18.8184 44.7433L18.8159 44.7457Z" fill="#0066B3"/>
<path d="M31.2354 35.4397C30.9383 35.2903 30.5936 35.2637 30.2769 35.3658C29.9601 35.468 29.6969 35.6905 29.545 35.9847L19.0198 56.5122C18.8692 56.807 18.8425 57.1491 18.9454 57.4635C19.0484 57.7778 19.2726 58.039 19.569 58.1897C19.8661 58.3391 20.2108 58.3656 20.5276 58.2635C20.8444 58.1614 21.1075 57.9389 21.2594 57.6447L31.7846 37.1172C31.9352 36.8223 31.9619 36.4803 31.859 36.1659C31.7561 35.8516 31.5319 35.5904 31.2354 35.4397V35.4397Z" fill="#0066B3"/>
</g>
<defs>
<clipPath id="clip0_5331_1222">
<rect width="37.6596" height="60" fill="white"/>
</clipPath>
</defs>
</svg>
