<svg width="78" height="80" viewBox="0 0 78 80" fill="none" xmlns="http://www.w3.org/2000/svg">
<path d="M31.699 36.7601C31.5738 36.479 31.3699 36.2403 31.1118 36.0727C30.8537 35.9051 30.5526 35.816 30.2449 35.816H22.2857V6.16801C22.2857 5.74583 22.118 5.34094 21.8195 5.04241C21.5209 4.74388 21.116 4.57617 20.6939 4.57617H11.1428C10.7207 4.57617 10.3158 4.74388 10.0172 5.04241C9.71871 5.34094 9.551 5.74583 9.551 6.16801V35.816H1.59182C1.2841 35.816 0.982984 35.9052 0.724907 36.0728C0.46683 36.2403 0.262857 36.4791 0.137675 36.7602C0.0124929 37.0413 -0.028531 37.3527 0.0195672 37.6566C0.0676653 37.9606 0.202824 38.244 0.408685 38.4727L14.7352 54.3911C14.8845 54.5569 15.067 54.6895 15.2708 54.7803C15.4746 54.8711 15.6952 54.918 15.9184 54.918C16.1415 54.918 16.3621 54.8711 16.5659 54.7803C16.7697 54.6895 16.9522 54.5569 17.1015 54.3911L31.428 38.4727C31.6339 38.244 31.7691 37.9605 31.8172 37.6566C31.8653 37.3526 31.8242 37.0412 31.699 36.7601ZM15.9184 50.9466L5.16609 38.9996H11.1428C11.565 38.9996 11.9699 38.8319 12.2684 38.5334C12.567 38.2349 12.7347 37.83 12.7347 37.4078V7.75985H19.102V37.4078C19.102 37.83 19.2697 38.2349 19.5683 38.5334C19.8668 38.8319 20.2717 38.9996 20.6939 38.9996H26.6706L15.9184 50.9466Z" fill="url(#paint0_linear_6422_2102)"/>
<path d="M50.9387 54.1225C65.8602 54.1225 77.9999 41.9827 77.9999 27.0612C77.9999 12.1397 65.8602 0 50.9387 0C36.0172 0 23.8775 12.1397 23.8775 27.0612C23.8723 33.4373 26.1285 39.6086 30.2448 44.4779V60.4898H22.2856C21.9779 60.4897 21.6768 60.5788 21.4187 60.7463C21.1605 60.9138 20.9565 61.1526 20.8312 61.4336C20.706 61.7147 20.6648 62.026 20.7128 62.33C20.7608 62.6339 20.8959 62.9174 21.1017 63.1462L35.4282 79.0646C35.5775 79.2306 35.7601 79.3635 35.964 79.4544C36.168 79.5453 36.3888 79.5923 36.6121 79.5923C36.8355 79.5923 37.0563 79.5453 37.2603 79.4544C37.4642 79.3635 37.6468 79.2306 37.7961 79.0646L52.1226 63.1462C52.3284 62.9174 52.4635 62.6339 52.5115 62.33C52.5595 62.026 52.5183 61.7147 52.3931 61.4336C52.2678 61.1526 52.0638 60.9138 51.8056 60.7463C51.5475 60.5788 51.2464 60.4897 50.9387 60.4898H42.9795V52.9266C45.5576 53.722 48.2407 54.1251 50.9387 54.1225ZM47.365 63.6735L36.6121 75.6202L25.8593 63.6735H31.8366C32.2588 63.6735 32.6637 63.5058 32.9622 63.2072C33.2608 62.9087 33.4285 62.5038 33.4285 62.0816V47.6755C35.3522 49.3139 37.4953 50.6754 39.7958 51.7208V62.0816C39.7958 62.5038 39.9635 62.9087 40.2621 63.2072C40.5606 63.5058 40.9655 63.6735 41.3877 63.6735H47.365ZM27.0611 27.0612C27.0611 22.3387 28.4615 17.7222 31.0852 13.7956C33.7089 9.86893 37.4381 6.80848 41.8011 5.00124C46.1642 3.19401 50.9652 2.72115 55.597 3.64247C60.2288 4.5638 64.4833 6.83791 67.8227 10.1772C71.162 13.5166 73.4361 17.7712 74.3574 22.4029C75.2788 27.0347 74.8059 31.8357 72.9987 36.1988C71.1914 40.5618 68.131 44.291 64.2043 46.9147C60.2777 49.5384 55.6612 50.9388 50.9387 50.9388C44.6081 50.9317 38.5389 48.4138 34.0625 43.9374C29.5861 39.461 27.0682 33.3918 27.0611 27.0612Z" fill="url(#paint1_linear_6422_2102)"/>
<path d="M48.2904 26.5642H44.6212C44.2914 26.5679 43.9701 26.6702 43.6985 26.858C43.4268 27.0459 43.2171 27.3108 43.0961 27.6189C42.975 27.927 42.9482 28.2643 43.019 28.5878C43.0898 28.9113 43.255 29.2062 43.4935 29.435L52.6753 38.1504C52.9913 38.4507 53.4132 38.6126 53.8481 38.6005C54.283 38.5885 54.6953 38.4034 54.9944 38.0861C55.2934 37.7688 55.4547 37.3452 55.4427 36.9085C55.4306 36.4718 55.2464 36.0578 54.9303 35.7575L48.7347 29.8796C50.473 29.7831 52.1158 29.05 53.352 27.819C54.2664 26.8692 54.9218 25.6991 55.2552 24.4212H57.4551C57.8905 24.4212 58.3081 24.2475 58.616 23.9384C58.9239 23.6292 59.0968 23.21 59.0968 22.7728C59.0968 22.3356 58.9239 21.9163 58.616 21.6071C58.3081 21.298 57.8905 21.1243 57.4551 21.1243H55.2518C55.0721 20.3056 54.7516 19.5246 54.3047 18.8165H57.4551C57.8905 18.8165 58.3081 18.6428 58.616 18.3336C58.9239 18.0245 59.0968 17.6052 59.0968 17.168C59.0968 16.7308 58.9239 16.3115 58.616 16.0024C58.3081 15.6932 57.8905 15.5195 57.4551 15.5195H44.6212C44.1858 15.5195 43.7682 15.6932 43.4603 16.0024C43.1525 16.3115 42.9795 16.7308 42.9795 17.168C42.9795 17.6052 43.1525 18.0245 43.4603 18.3336C43.7682 18.6428 44.1858 18.8165 44.6212 18.8165H48.2904C49.8368 18.8165 51.1734 19.8055 51.793 21.1243H44.6212C44.1858 21.1243 43.7682 21.298 43.4603 21.6071C43.1525 21.9163 42.9795 22.3356 42.9795 22.7728C42.9795 23.21 43.1525 23.6292 43.4603 23.9384C43.7682 24.2475 44.1858 24.4212 44.6212 24.4212H51.7976C51.5898 24.8016 51.3335 25.1532 51.0352 25.4672C50.6726 25.8231 50.2433 26.1033 49.7722 26.2916C49.3011 26.4799 48.7974 26.5726 48.2904 26.5642Z" fill="url(#paint2_linear_6422_2102)"/>
<defs>
<linearGradient id="paint0_linear_6422_2102" x1="15.9183" y1="3.44907" x2="15.9183" y2="55.0936" gradientUnits="userSpaceOnUse">
<stop stop-color="#00EFD1"/>
<stop offset="1" stop-color="#00ACEA"/>
</linearGradient>
<linearGradient id="paint1_linear_6422_2102" x1="49.3465" y1="-1.782" x2="49.3465" y2="79.8699" gradientUnits="userSpaceOnUse">
<stop stop-color="#00EFD1"/>
<stop offset="1" stop-color="#00ACEA"/>
</linearGradient>
<linearGradient id="paint2_linear_6422_2102" x1="51.038" y1="6.21562" x2="51.038" y2="84.6022" gradientUnits="userSpaceOnUse">
<stop stop-color="#00EFD1"/>
<stop offset="1" stop-color="#00ACEA"/>
</linearGradient>
</defs>
</svg>
