<?xml version="1.0" encoding="UTF-8"?><svg id="a" xmlns="http://www.w3.org/2000/svg" viewBox="0 0 60 60"><defs><style>.b{fill:#0066B3;}</style></defs><path class="b" d="M11.13,28.12c0-4.27-.03-8.54,0-12.81,.03-4.13,1.04-7.95,3.98-11.03C17.69,1.57,21.01,.47,24.62,.13c3.51-.33,6.99-.1,10.27,1.35,5.17,2.3,7.56,6.61,7.86,11.98,.3,5.24,.16,10.52,.11,15.78-.02,2.34-1.88,3.97-4.24,3.96-2.31,0-4.14-1.67-4.18-4.03-.07-4.18,0-8.37-.04-12.55-.01-1.24-.11-2.51-.39-3.71-.64-2.75-2.44-4.26-5.24-4.6-.26-.03-.51-.06-.77-.08-5.38-.49-8.28,1.94-8.35,7.32-.11,8.45-.05,16.9,0,25.35,0,1.1,.31,2.21,.6,3.29,.36,1.31,1.19,2.27,2.49,2.79,.48,.19,.94,.42,1.41,.64,2.16,1.01,3.12,3.32,2.29,5.5-.76,2.01-2.98,3.09-5.22,2.45-5.1-1.45-8.27-4.81-9.5-9.93-.4-1.66-.54-3.41-.58-5.12-.08-4.14-.03-8.28-.03-12.42Z"/><path class="b" d="M35.41,38.91c.23,1.4,.2,2.83-.1,4.22-.07,.35-.16,.71-.28,1.06-.83,2.48-2.81,3.8-5.42,3.77-2.54-.03-4.59-1.35-5.17-3.87-.42-1.84-.5-3.86-.23-5.72,.44-3.03,2.58-4.69,5.42-4.72,2.85-.02,4.91,1.62,5.63,4.56,.06,.23,.1,.47,.14,.71Zm-3.66,4.14c.32-1.43,.3-2.92,.02-4.36-.03-.16-.07-.33-.11-.49-.25-.97-.95-1.54-1.97-1.53-.97,0-1.61,.57-1.87,1.48-.52,1.77-.56,3.55,0,5.32,.28,.9,.89,1.45,1.89,1.46,1.06,.01,1.71-.58,1.97-1.53,.03-.12,.06-.23,.09-.35Z"/><path class="b" d="M48.74,50.95c.23,1.4,.2,2.83-.1,4.22-.07,.35-.16,.71-.28,1.06-.83,2.48-2.81,3.8-5.42,3.77-2.54-.03-4.59-1.35-5.17-3.87-.42-1.84-.5-3.86-.23-5.72,.44-3.03,2.58-4.69,5.42-4.72,2.85-.02,4.91,1.62,5.63,4.56,.06,.23,.1,.47,.14,.71Zm-3.66,4.14c.32-1.43,.3-2.92,.02-4.36-.03-.16-.07-.33-.11-.49-.25-.97-.95-1.54-1.97-1.53-.97,0-1.61,.57-1.87,1.48-.52,1.77-.56,3.55,0,5.32,.28,.9,.89,1.45,1.89,1.46,1.06,.01,1.71-.58,1.97-1.53,.03-.12,.06-.23,.09-.35Z"/><path class="b" d="M32.05,58.28c-1.75,.06-2.47-1.21-1.82-2.57,1.88-3.92,3.8-7.81,5.7-11.72,1.19-2.44,2.37-4.88,3.57-7.3,.61-1.24,1.52-1.66,2.44-1.17,.9,.47,1.09,1.39,.52,2.57-3.07,6.3-6.14,12.61-9.25,18.89-.29,.58-.9,1.01-1.16,1.29Z"/></svg>