<?xml version="1.0" encoding="UTF-8"?><svg id="a" xmlns="http://www.w3.org/2000/svg" viewBox="0 0 60 60"><defs><style>.b{fill:#0066B3;}</style></defs><path class="b" d="M30,0C13.43,0,0,13.43,0,30s13.43,30,30,30,30-13.44,30-30S46.57,0,30,0Zm0,53.91c-7.49,0-14.18-3.45-18.56-8.84-.43-.53-.84-1.08-1.22-1.64-2.62-3.83-4.14-8.45-4.14-13.43,0-13.21,10.71-23.92,23.92-23.92s23.92,10.71,23.92,23.92-10.71,23.91-23.92,23.91Z"/><path class="b" d="M40.43,16.16h-8.17c1.44,1.14,2.48,2.77,2.77,5.05h5.4v2.48h-5.35c-.5,5.05-4.51,8.27-10.85,8.47,3.86,4.01,8.07,9.06,12.23,14.17h-4.76c-3.86-4.66-7.48-8.97-12.14-13.92v-3.07h2.72c5.35,0,8.22-2.23,8.57-5.65h-11.29v-2.48h11.14c-.69-2.87-3.32-4.31-7.63-4.31h-3.52v-3.22h20.85v2.48Z"/><polygon class="b" points="57.41 28.82 1.59 37.36 1.2 31.27 58.53 22.5 57.41 28.82"/></svg>