<svg width="68" height="60" viewBox="0 0 68 60" fill="none" xmlns="http://www.w3.org/2000/svg">
<g clip-path="url(#clip0_5331_1228)">
<path d="M43.765 21.1007H40.2225C40.0148 21.1025 39.8129 21.0326 39.6508 20.9028C39.4886 20.773 39.3762 20.5912 39.3325 20.3882C39.2331 19.9163 39.0839 19.4562 38.8875 19.0157C38.8375 18.9082 38.78 18.7932 38.7225 18.6857C38.6499 18.5462 38.6144 18.3903 38.6196 18.2331C38.6248 18.0758 38.6704 17.9226 38.7521 17.7881C38.8338 17.6537 38.9487 17.5426 39.0859 17.4655C39.223 17.3885 39.3777 17.348 39.535 17.3482H43.7475C43.8684 17.3485 43.9882 17.325 44.1 17.2788C44.2117 17.2327 44.3133 17.165 44.3988 17.0795C44.4843 16.994 44.552 16.8925 44.5981 16.7807C44.6443 16.6689 44.6678 16.5491 44.6675 16.4282V14.5157C44.6678 14.3948 44.6443 14.275 44.5981 14.1633C44.552 14.0515 44.4843 13.9499 44.3988 13.8644C44.3133 13.7789 44.2117 13.7112 44.1 13.6651C43.9882 13.619 43.8684 13.5954 43.7475 13.5957H24.2475C24.1271 13.5951 24.0078 13.6182 23.8964 13.6637C23.785 13.7092 23.6836 13.7763 23.5982 13.8611C23.5127 13.9458 23.4448 14.0466 23.3983 14.1577C23.3519 14.2687 23.3278 14.3879 23.3275 14.5082L23.3125 16.4207C23.3119 16.5421 23.3351 16.6624 23.381 16.7747C23.427 16.887 23.4946 16.9892 23.58 17.0754C23.6655 17.1615 23.7671 17.23 23.8791 17.2768C23.9911 17.3236 24.1111 17.3479 24.2325 17.3482H27.7025C28.6055 17.3329 29.5073 17.4219 30.39 17.6132C31.0614 17.7507 31.7035 18.0045 32.2875 18.3632C32.7696 18.6629 33.1773 19.068 33.48 19.5482C33.7639 20.0268 33.9674 20.5487 34.0825 21.0932H24.245C24.1246 21.0935 24.0055 21.1176 23.8945 21.1641C23.7834 21.2105 23.6826 21.2784 23.5979 21.3639C23.5131 21.4493 23.446 21.5507 23.4005 21.6621C23.3549 21.7735 23.3318 21.8929 23.3325 22.0132V23.9032C23.3318 24.0236 23.3549 24.1429 23.4005 24.2543C23.446 24.3658 23.5131 24.4671 23.5979 24.5526C23.6826 24.638 23.7834 24.7059 23.8945 24.7524C24.0055 24.7988 24.1246 24.8229 24.245 24.8232H34.04C33.9701 25.0928 33.8737 25.3549 33.7525 25.6057L44.6975 23.5657V22.0132C44.6969 21.8919 44.6722 21.7719 44.6248 21.6601C44.5775 21.5484 44.5084 21.4472 44.4217 21.3623C44.335 21.2775 44.2323 21.2106 44.1196 21.1657C44.0068 21.1208 43.8863 21.0987 43.765 21.1007V21.1007ZM37.265 37.0032C36.805 36.3132 36.3742 35.6949 35.9725 35.1482C35.5955 34.6331 35.1846 34.1437 34.7425 33.6832C34.3494 33.2732 33.9211 32.8985 33.4625 32.5632C33.0103 32.2373 32.5291 31.9536 32.025 31.7157V31.6282C32.9897 31.4174 33.9226 31.0812 34.8 30.6282L23.55 32.7257C23.6347 32.8185 23.7378 32.8927 23.8527 32.9435C23.9676 32.9943 24.0919 33.0206 24.2175 33.0207H25.4025C26.1354 33.0063 26.8657 33.111 27.565 33.3307C28.1803 33.5374 28.7542 33.8515 29.26 34.2582C29.8071 34.7079 30.2929 35.2273 30.705 35.8032C31.15 36.4207 31.625 37.1407 32.135 37.9657L37.08 45.9657C37.1621 46.0989 37.2774 46.2086 37.4145 46.2839C37.5517 46.3593 37.706 46.3978 37.8625 46.3957H41.73C41.896 46.3964 42.0591 46.3521 42.2019 46.2675C42.3447 46.1828 42.4619 46.061 42.5409 45.915C42.6199 45.769 42.6578 45.6043 42.6506 45.4384C42.6434 45.2726 42.5914 45.1118 42.5 44.9732L37.265 37.0032Z" fill="#0066B3"/>
<path d="M63.6226 25.26L58.5776 26.2025C58.7681 27.4611 58.8643 28.7321 58.8651 30.005C58.8638 36.6005 56.2426 42.9254 51.5782 47.5884C46.9138 52.2514 40.5881 54.8707 33.9926 54.87C28.3184 54.871 22.8145 52.9313 18.3947 49.3728C13.9749 45.8144 10.9052 40.8512 9.69513 35.3075L4.65012 36.25C6.08161 42.9704 9.77668 48.9958 15.1176 53.3187C20.4585 57.6417 27.1214 60.0002 33.9926 60C41.9491 60 49.5797 56.8393 55.2058 51.2132C60.8319 45.5871 63.9926 37.9565 63.9926 30C63.9935 28.4128 63.8698 26.8279 63.6226 25.26V25.26ZM9.12262 30.01C9.12196 23.4145 11.7412 17.0889 16.4042 12.4244C21.0673 7.76 27.3921 5.13885 33.9876 5.13752C39.0438 5.13734 43.9799 6.67778 48.1385 9.55364C52.2971 12.4295 55.4807 16.5042 57.2651 21.235L62.3826 20.28C60.3526 14.364 56.5258 9.22975 51.4366 5.59399C46.3473 1.95822 40.2497 0.00251458 33.9951 0C26.0386 0 18.408 3.16072 12.7819 8.78681C7.15584 14.4129 3.99512 22.0435 3.99512 30C3.99512 30.3817 4.00262 30.7625 4.01762 31.1425L9.12762 30.195L9.12262 30.01Z" fill="#0066B3"/>
<path d="M67.4976 23.1842L67.4972 23.1818C67.2377 21.7891 65.8984 20.8705 64.5057 21.13L2.52237 32.6783C1.12973 32.9378 0.211106 34.2771 0.470575 35.6698L0.471033 35.6722C0.730502 37.0649 2.06981 37.9835 3.46245 37.724L65.4458 26.1756C66.8385 25.9162 67.7571 24.5769 67.4976 23.1842Z" fill="#0066B3"/>
</g>
<defs>
<clipPath id="clip0_5331_1228">
<rect width="67.9675" height="60" fill="white"/>
</clipPath>
</defs>
</svg>
