<svg xmlns="http://www.w3.org/2000/svg" width="48.26" height="36.163" viewBox="0 0 48.26 36.163"><defs><style>.a{fill:#fff;}</style></defs><g transform="translate(-331.707 413.775)"><path class="a" d="M438.885-413.775a9.136,9.136,0,0,0-9.193,9.116,9.117,9.117,0,0,0,9.111,9.138,9.1,9.1,0,0,0,9.137-9.106A9.13,9.13,0,0,0,438.885-413.775Zm2.449,7.91h-1.26a1.91,1.91,0,0,1-.574,1.017,2.385,2.385,0,0,1-1.144.582v.021a2.088,2.088,0,0,1,.339.2,2.273,2.273,0,0,1,.3.264,3.381,3.381,0,0,1,.288.345q.143.194.3.436l1.454,2.213H439.61l-1.228-1.987q-.178-.291-.337-.509a1.886,1.886,0,0,0-.339-.364,1.277,1.277,0,0,0-.4-.218,1.61,1.61,0,0,0-.509-.073h-.5v-.937h1.023a1.849,1.849,0,0,0,.522-.073,1.6,1.6,0,0,0,.444-.2,1.39,1.39,0,0,0,.334-.312,1.141,1.141,0,0,0,.2-.4H436.3v-.878h2.53a1.173,1.173,0,0,0-.143-.364.871.871,0,0,0-.28-.28,1.42,1.42,0,0,0-.447-.178,2.824,2.824,0,0,0-.633-.062H436.3l.006-.883h5.023v.883h-1.615a1.5,1.5,0,0,1,.256.393,1.665,1.665,0,0,1,.132.49h1.233Z" transform="translate(-67.974)"/><path class="a" d="M359.642-375.584c3.733-2.182,6.212-5.447,8.382-9.132l7.911,16.515c-2.072-.087-4.144-.256-6.214-.239a16.168,16.168,0,0,0-6.052,1.263Z" transform="translate(-19.379 -20.159)"/><path class="a" d="M388.125-396.617a2.014,2.014,0,0,1,1.362-1.769,1.827,1.827,0,0,1,2.077.737,4.451,4.451,0,0,1,.284.532q4.36,9.1,8.7,18.2a2.867,2.867,0,0,1,.3,1.342,1.726,1.726,0,0,1-1.474,1.565,1.793,1.793,0,0,1-2-1.024c-.775-1.581-1.529-3.173-2.29-4.761q-3.272-6.829-6.537-13.661C388.378-395.826,388.267-396.229,388.125-396.617Z" transform="translate(-39.138 -10.617)"/><path class="a" d="M349.029-344.782l-4.887,2.343-4.023-8.4,4.89-2.345Z" transform="translate(-5.835 -42.035)"/><path class="a" d="M355.543-319.92l4.678-2.242c.066.094.132.184.194.276.983,1.477,1.949,2.966,2.956,4.427a2.142,2.142,0,0,1,.369,2.035,2,2,0,0,1-3.292.791C358.788-316.34,357.2-318.121,355.543-319.92Z" transform="translate(-16.536 -63.553)"/><path class="a" d="M333.21-343.708l3.981,8.313a1.985,1.985,0,0,1-2.93-.644q-1.27-2.457-2.392-4.989A2,2,0,0,1,333.21-343.708Z" transform="translate(0 -48.607)"/></g></svg>