<svg width="68" height="68" viewBox="0 0 68 68" fill="none" xmlns="http://www.w3.org/2000/svg">
<path d="M3.63399 6.01362C3.63399 9.32955 6.33167 12.0272 9.64758 12.0272C12.9635 12.0272 15.6612 9.32955 15.6612 6.01362C15.6612 2.69769 12.9635 0 9.64758 0C6.33167 0 3.63399 2.69769 3.63399 6.01362ZM13.5362 6.01362C13.5362 8.15788 11.7917 9.90224 9.64758 9.90224C7.50346 9.90224 5.75898 8.15788 5.75898 6.01362C5.75898 3.86936 7.50346 2.125 9.64758 2.125C11.7917 2.125 13.5362 3.86949 13.5362 6.01362ZM63.6666 12.0979H62.3607C62.1698 12.0979 61.9826 12.1493 61.8184 12.2466C60.7729 12.8671 59.5744 13.1952 58.3523 13.1952C57.1302 13.1952 55.9315 12.8671 54.886 12.2466C54.7219 12.1493 54.5346 12.0979 54.3438 12.0979H53.0377C50.6485 12.0979 48.7047 14.0417 48.7047 16.4309V25.5429L41.2265 33.0212C40.6494 32.7362 40.0005 32.5752 39.3144 32.5752H38.0083C37.8175 32.5752 37.6301 32.6266 37.4661 32.7241C36.4208 33.3444 35.2222 33.6725 33.9999 33.6725C32.7777 33.6725 31.579 33.3444 30.5338 32.7241C30.3697 32.6266 30.1824 32.5752 29.9915 32.5752H28.6853C27.9994 32.5752 27.3505 32.7362 26.7734 33.0212L19.2952 25.5429V16.4309C19.2952 14.0417 17.3513 12.0979 14.9622 12.0979H13.6561C13.4652 12.0979 13.2779 12.1493 13.1138 12.2466C12.0683 12.8671 10.8698 13.1952 9.64771 13.1952C8.42558 13.1952 7.22695 12.8671 6.18146 12.2466C6.0173 12.1493 5.83004 12.0979 5.63919 12.0979H4.33312C1.94383 12.0979 0 14.0417 0 16.4309V25.983C0 26.5698 0.475732 27.0455 1.06249 27.0455H17.7925L25.152 34.4049C24.6493 35.1126 24.3525 35.9761 24.3525 36.9083V46.0202L16.8743 53.4986C16.2972 53.2136 15.6483 53.0526 14.9622 53.0526H13.6561C13.4652 53.0526 13.2779 53.104 13.1138 53.2014C12.0685 53.8219 10.87 54.1498 9.64771 54.1498C8.42544 54.1498 7.22682 53.8219 6.18146 53.2014C6.0173 53.104 5.83004 53.0526 5.63919 53.0526H4.33312C1.94383 53.0525 0 54.9963 0 57.3855V66.9375C0 67.5243 0.475732 68 1.06249 68H18.2327C18.8194 68 19.2952 67.5243 19.2952 66.9375V57.3855C19.2952 56.4534 18.9983 55.5899 18.4956 54.8822L25.8551 47.5227H42.1449L49.5044 54.8824C49.0017 55.5899 48.7048 56.4534 48.7048 57.3855V66.9375C48.7048 67.5243 49.1806 68 49.7673 68H66.9374C67.5241 68 67.9999 67.5243 67.9999 66.9375V57.3855C67.9999 54.9963 66.056 53.0525 63.6669 53.0525H62.361C62.1701 53.0525 61.9828 53.1039 61.8187 53.2012C60.7733 53.8217 59.5747 54.1497 58.3526 54.1497C57.1303 54.1497 55.9317 53.8217 54.8863 53.2012C54.7221 53.1039 54.5349 53.0525 54.344 53.0525H53.038C52.352 53.0525 51.7031 53.2135 51.1259 53.4985L43.6476 46.0201V36.9082C43.6476 35.9761 43.3508 35.1124 42.8481 34.4049L50.2076 27.0454H66.9375C67.5243 27.0454 68 26.5697 68 25.9829V16.4308C67.9997 14.0417 66.0559 12.0979 63.6666 12.0979ZM17.1702 24.9205H2.12499V16.4309C2.12499 15.2134 3.1155 14.2229 4.33298 14.2229H5.35749C6.66781 14.9417 8.14441 15.3202 9.64758 15.3202C11.1507 15.3202 12.6272 14.9417 13.9375 14.2229H14.962C16.1795 14.2229 17.17 15.2134 17.17 16.4309V24.9205H17.1702ZM17.1702 65.875H2.12499V57.3855C2.12499 56.168 3.1155 55.1775 4.33298 55.1775H5.35749C6.66768 55.8961 8.14428 56.2747 9.64758 56.2747C11.1506 56.2747 12.6275 55.896 13.9375 55.1775H14.962C16.1795 55.1775 17.17 56.168 17.17 57.3855V65.875H17.1702ZM41.5224 45.3977H26.4773V36.9082C26.4773 35.6906 27.4679 34.7001 28.6853 34.7001H29.7099C31.0199 35.4187 32.4966 35.7974 33.9999 35.7974C35.5032 35.7974 36.98 35.4187 38.2899 34.7001H39.3144C40.5319 34.7001 41.5224 35.6906 41.5224 36.9082V45.3977ZM54.0622 55.1775C55.3724 55.8961 56.849 56.2747 58.3523 56.2747C59.8555 56.2747 61.3321 55.8961 62.6422 55.1775H63.6666C64.8841 55.1775 65.8746 56.168 65.8746 57.3855V65.875H50.8297V57.3855C50.8297 56.168 51.8202 55.1775 53.0377 55.1775H54.0622ZM65.8747 24.9205H50.8297V16.4309C50.8297 15.2134 51.8202 14.2229 53.0377 14.2229H54.0622C55.3725 14.9417 56.8491 15.3202 58.3523 15.3202C59.8553 15.3202 61.3321 14.9417 62.6422 14.2229H63.6666C64.8841 14.2229 65.8746 15.2134 65.8746 16.4309V24.9205H65.8747ZM58.3522 0C55.0362 0 52.3386 2.69782 52.3386 6.01362C52.3386 9.32942 55.0362 12.0274 58.3522 12.0274C61.6681 12.0274 64.3659 9.32955 64.3659 6.01362C64.3659 2.69769 61.6682 0 58.3522 0ZM58.3522 9.90237C56.2079 9.90237 54.4636 8.15788 54.4636 6.01375C54.4636 3.86963 56.208 2.12513 58.3522 2.12513C60.4963 2.12513 62.2409 3.86949 62.2409 6.01362C62.2409 8.15774 60.4964 9.90237 58.3522 9.90237ZM9.64758 52.9818C12.9635 52.9818 15.6612 50.284 15.6612 46.9682C15.6612 43.6524 12.9635 40.9546 9.64758 40.9546C6.33167 40.9546 3.63399 43.6524 3.63399 46.9682C3.63399 50.284 6.33167 52.9818 9.64758 52.9818ZM9.64758 43.0795C11.7918 43.0795 13.5362 44.824 13.5362 46.9681C13.5362 49.1122 11.7917 50.8567 9.64758 50.8567C7.50346 50.8567 5.75898 49.1122 5.75898 46.9681C5.75898 44.824 7.50346 43.0795 9.64758 43.0795ZM52.3386 46.9682C52.3386 50.2841 55.0362 52.9818 58.3522 52.9818C61.6681 52.9818 64.3657 50.284 64.3657 46.9682C64.3657 43.6524 61.6681 40.9546 58.3522 40.9546C55.0362 40.9546 52.3386 43.6523 52.3386 46.9682ZM62.2409 46.9682C62.2409 49.1125 60.4964 50.8568 58.3523 50.8568C56.2082 50.8568 54.4637 49.1123 54.4637 46.9682C54.4637 44.8241 56.2082 43.0796 58.3523 43.0796C60.4964 43.0796 62.2409 44.824 62.2409 46.9682ZM33.9999 20.4773C30.684 20.4773 27.9862 23.1751 27.9862 26.4909C27.9862 29.8067 30.684 32.5045 33.9999 32.5045C37.3158 32.5045 40.0135 29.8067 40.0135 26.4909C40.0135 23.1751 37.3158 20.4773 33.9999 20.4773ZM33.9999 30.3795C31.8557 30.3795 30.1112 28.635 30.1112 26.4909C30.1112 24.3468 31.8557 22.6023 33.9999 22.6023C36.1442 22.6023 37.8885 24.3468 37.8885 26.4909C37.8885 28.635 36.1442 30.3795 33.9999 30.3795Z" fill="url(#paint0_linear_7203_3056)"/>
<defs>
<linearGradient id="paint0_linear_7203_3056" x1="33.9999" y1="-1.52245" x2="33.9999" y2="68.2372" gradientUnits="userSpaceOnUse">
<stop stop-color="#00EFD1"/>
<stop offset="1" stop-color="#00ACEA"/>
</linearGradient>
</defs>
</svg>
