<svg xmlns="http://www.w3.org/2000/svg" width="127.038" height="23.343" viewBox="0 0 127.038 23.343"><defs><style>.a{fill:#ffcb05;}</style></defs><path class="a" d="M5329.838,10036.42h-.492c-7.515,0-114.029,0-121.544,0a2.051,2.051,0,0,1-.61-.07,1.15,1.15,0,0,1-.785-1.253,1.176,1.176,0,0,1,1.088-1.006c.133-.01.268,0,.4,0h121.9l.047-.072c-.1-.084-.193-.165-.285-.252l-8.231-7.808c-.124-.117-.249-.232-.369-.354a1.165,1.165,0,1,1,1.617-1.677c.9.849,1.8,1.708,2.7,2.563q3.632,3.458,7.263,6.92a2.346,2.346,0,0,1,0,3.692q-4.939,4.705-9.88,9.409a1.174,1.174,0,0,1-2.042-.472,1.193,1.193,0,0,1,.419-1.208q3.029-2.875,6.05-5.76,1.255-1.2,2.508-2.392C5329.66,10036.612,5329.722,10036.542,5329.838,10036.42Z" transform="translate(-5206.397 -10023.572)"/></svg>