<svg width="60" height="60" viewBox="0 0 60 60" fill="none" xmlns="http://www.w3.org/2000/svg">
<g clip-path="url(#clip0_5331_1235)">
<path d="M51.4396 9.00988C48.6556 6.15207 45.3258 3.88277 41.6477 2.33672C37.9697 0.790671 34.0185 -0.000612495 30.0287 0.0098684H29.9987C22.165 0.0467147 14.6531 3.13065 9.05341 8.60877C3.45373 14.0869 0.205886 21.5292 -0.00252264 29.3599C-0.101724 33.3511 0.602523 37.3215 2.06837 41.0352C3.53422 44.7488 5.73174 48.1299 8.53032 50.9774C11.315 53.8419 14.6472 56.1174 18.3287 57.6686C22.0103 59.2199 25.9662 60.0152 29.9612 60.0074H30.0012C37.8396 59.9688 45.3547 56.8784 50.9524 51.3916C56.5501 45.9047 59.79 38.4531 59.985 30.6174C60.0812 26.6269 59.3743 22.6579 57.9063 18.946C56.4383 15.2341 54.2392 11.8552 51.4396 9.00988ZM21.3208 35.2774L27.9136 39.2774C28.2018 39.4956 28.5329 39.6502 28.8852 39.731C29.2376 39.8118 29.603 39.8169 29.9575 39.746C30.3119 39.6752 30.6473 39.5299 30.9414 39.3198C31.2356 39.1097 31.4818 38.8396 31.6638 38.5274L42.0417 23.9874L42.3217 25.1424C42.6118 26.3407 42.9051 27.5382 43.2018 28.7349C43.2655 29.063 43.3945 29.3749 43.5809 29.6523C43.7674 29.9297 44.0076 30.1669 44.2873 30.3498C44.567 30.5328 44.8805 30.6578 45.2094 30.7175C45.5383 30.7772 45.8757 30.7703 46.2019 30.6974C46.5492 30.6385 46.8809 30.5098 47.177 30.319C47.4731 30.1283 47.7274 29.8793 47.9245 29.5874C48.1078 29.3026 48.2313 28.9837 48.2876 28.6497C48.3439 28.3158 48.3318 27.974 48.252 27.6449C47.987 26.4699 47.697 25.2974 47.4069 24.1274L46.6094 20.8774C46.3061 19.6307 46.0027 18.3807 45.6994 17.1274C45.6415 16.776 45.5091 16.441 45.3112 16.1449C45.1133 15.8488 44.8544 15.5984 44.5519 15.4104C44.2494 15.2225 43.9102 15.1013 43.5571 15.0551C43.2039 15.0088 42.845 15.0386 42.5042 15.1424C39.0041 15.9757 35.5123 16.8249 32.0288 17.6899C31.6928 17.7656 31.3751 17.9071 31.0941 18.1062C30.813 18.3053 30.5742 18.558 30.3912 18.8499C30.219 19.1449 30.107 19.4711 30.0615 19.8096C30.016 20.1482 30.038 20.4924 30.1262 20.8224C30.2032 21.1589 30.348 21.4763 30.5518 21.7549C30.7556 22.0336 31.0142 22.2678 31.3117 22.4431C31.6092 22.6184 31.9393 22.7311 32.2818 22.7744C32.6244 22.8177 32.9721 22.7906 33.3038 22.6949C34.4956 22.4099 35.6864 22.1215 36.8765 21.8299L37.094 21.7774L28.5437 33.6324L24.666 31.2749L21.9509 29.6224C21.6635 29.4126 21.3355 29.2649 20.9879 29.1888C20.6403 29.1127 20.2806 29.1098 19.9318 29.1804C19.583 29.251 19.2527 29.3934 18.962 29.5986C18.6713 29.8038 18.4265 30.0674 18.2432 30.3724C15.8231 33.6457 13.4005 36.9174 10.9754 40.1874L9.45786 42.2374C6.50252 37.2628 5.44811 31.3865 6.48952 25.6948C7.53094 20.0031 10.5978 14.8808 15.1231 11.2749C17.5664 9.30842 20.377 7.84843 23.3908 6.98008C26.4046 6.11174 29.5612 5.85244 32.6763 6.21737C35.7943 6.54772 38.8151 7.49608 41.5624 9.00702C44.3097 10.518 46.7283 12.5612 48.677 15.0174C50.6803 17.512 52.1647 20.382 53.0427 23.4585C53.9207 26.5351 54.1747 29.7562 53.7897 32.9324C53.4149 36.0673 52.4172 39.0956 50.8552 41.8394C49.2933 44.5832 47.1986 46.9871 44.6943 48.9099C40.0409 52.5218 34.2183 54.2896 28.3421 53.8744C22.466 53.4592 16.9497 50.8903 12.8505 46.6599L21.3208 35.2774Z" fill="#0066B3"/>
</g>
<defs>
<clipPath id="clip0_5331_1235">
<rect width="60" height="60" fill="white"/>
</clipPath>
</defs>
</svg>
