<?xml version="1.0" encoding="UTF-8"?><svg id="a" xmlns="http://www.w3.org/2000/svg" viewBox="0 0 60 60"><defs><style>.b,.c{fill:#0066B3;}.c{stroke:#0066B3;stroke-miterlimit:10;stroke-width:4px;}</style></defs><path class="b" d="M30,0C13.43,0,0,13.43,0,30s13.43,30,30,30,30-13.44,30-30S46.57,0,30,0Zm0,53.91c-7.49,0-14.18-3.45-18.56-8.84-.43-.53-.84-1.08-1.22-1.64-2.62-3.83-4.14-8.45-4.14-13.43,0-13.21,10.71-23.92,23.92-23.92s23.92,10.71,23.92,23.92-10.71,23.91-23.92,23.91Z"/><g><path class="c" d="M43.72,32.82l-2,.16-.65-8.38-12.8,16.11-8.02-5.6-8.81,9.96c-.43-.53-.84-1.08-1.22-1.64l9.71-10.99,7.95,5.55,11.64-14.63-8.31,1.26-.3-1.98,11.88-1.79,.93,11.97Z"/><path class="c" d="M11.44,45.07l-.45,.51-1.5-1.32,.73-.83c.38,.56,.79,1.11,1.22,1.64Z"/></g></svg>