<svg width="45" height="46" viewBox="0 0 45 46" fill="none" xmlns="http://www.w3.org/2000/svg">
<path d="M32.31 27.6328C32.49 26.1478 32.625 24.6628 32.625 23.1328C32.625 21.6028 32.49 20.1178 32.31 18.6328H39.915C40.275 20.0728 40.5 21.5803 40.5 23.1328C40.5 24.6853 40.275 26.1928 39.915 27.6328H32.31ZM28.3275 40.1428C29.6775 37.6453 30.7125 34.9453 31.4325 32.1328H38.07C35.8901 35.8864 32.4318 38.7298 28.3275 40.1428ZM27.765 27.6328H17.235C17.01 26.1478 16.875 24.6628 16.875 23.1328C16.875 21.6028 17.01 20.0953 17.235 18.6328H27.765C27.9675 20.0953 28.125 21.6028 28.125 23.1328C28.125 24.6628 27.9675 26.1478 27.765 27.6328ZM22.5 41.0428C20.6325 38.3428 19.125 35.3503 18.2025 32.1328H26.7975C25.875 35.3503 24.3675 38.3428 22.5 41.0428ZM13.5 14.1328H6.93C9.08743 10.369 12.5433 7.52116 16.65 6.12281C15.3 8.62031 14.2875 11.3203 13.5 14.1328ZM6.93 32.1328H13.5C14.2875 34.9453 15.3 37.6453 16.65 40.1428C12.5519 38.7291 9.1009 35.8852 6.93 32.1328ZM5.085 27.6328C4.725 26.1928 4.5 24.6853 4.5 23.1328C4.5 21.5803 4.725 20.0728 5.085 18.6328H12.69C12.51 20.1178 12.375 21.6028 12.375 23.1328C12.375 24.6628 12.51 26.1478 12.69 27.6328H5.085ZM22.5 5.20031C24.3675 7.90031 25.875 10.9153 26.7975 14.1328H18.2025C19.125 10.9153 20.6325 7.90031 22.5 5.20031ZM38.07 14.1328H31.4325C30.7283 11.3461 29.6855 8.65608 28.3275 6.12281C32.4675 7.54031 35.91 10.3978 38.07 14.1328ZM22.5 0.632812C10.0575 0.632812 0 10.7578 0 23.1328C0 29.1002 2.37053 34.8231 6.5901 39.0427C8.67942 41.132 11.1598 42.7894 13.8896 43.9201C16.6194 45.0508 19.5453 45.6328 22.5 45.6328C28.4674 45.6328 34.1903 43.2623 38.4099 39.0427C42.6295 34.8231 45 29.1002 45 23.1328C45 20.1781 44.418 17.2523 43.2873 14.5224C42.1566 11.7926 40.4992 9.31223 38.4099 7.22291C36.3206 5.13359 33.8402 3.47625 31.1104 2.34552C28.3806 1.21479 25.4547 0.632813 22.5 0.632812Z" fill="black"/>
</svg>
