<svg width="61" height="61" viewBox="0 0 61 61" fill="none" xmlns="http://www.w3.org/2000/svg">
<path d="M43.798 36.6C44.042 34.587 44.225 32.574 44.225 30.5C44.225 28.426 44.042 26.413 43.798 24.4H54.107C54.595 26.352 54.9 28.3955 54.9 30.5C54.9 32.6045 54.595 34.648 54.107 36.6H43.798ZM38.3995 53.558C40.2295 50.1725 41.6325 46.5125 42.6085 42.7H51.606C48.6511 47.7882 43.963 51.6426 38.3995 53.558ZM37.637 36.6H23.363C23.058 34.587 22.875 32.574 22.875 30.5C22.875 28.426 23.058 26.3825 23.363 24.4H37.637C37.9115 26.3825 38.125 28.426 38.125 30.5C38.125 32.574 37.9115 34.587 37.637 36.6ZM30.5 54.778C27.9685 51.118 25.925 47.0615 24.6745 42.7H36.3255C35.075 47.0615 33.0315 51.118 30.5 54.778ZM18.3 18.3H9.394C12.3185 13.198 17.0031 9.33753 22.57 7.442C20.74 10.8275 19.3675 14.4875 18.3 18.3ZM9.394 42.7H18.3C19.3675 46.5125 20.74 50.1725 22.57 53.558C17.0148 51.6416 12.3368 47.7865 9.394 42.7ZM6.893 36.6C6.405 34.648 6.1 32.6045 6.1 30.5C6.1 28.3955 6.405 26.352 6.893 24.4H17.202C16.958 26.413 16.775 28.426 16.775 30.5C16.775 32.574 16.958 34.587 17.202 36.6H6.893ZM30.5 6.1915C33.0315 9.8515 35.075 13.9385 36.3255 18.3H24.6745C25.925 13.9385 27.9685 9.8515 30.5 6.1915ZM51.606 18.3H42.6085C41.6539 14.5224 40.2404 10.876 38.3995 7.442C44.0115 9.3635 48.678 13.237 51.606 18.3ZM30.5 0C13.6335 0 0 13.725 0 30.5C0 38.5891 3.21338 46.3469 8.93324 52.0668C11.7654 54.8989 15.1277 57.1456 18.8282 58.6783C22.5286 60.2111 26.4947 61 30.5 61C38.5891 61 46.3469 57.7866 52.0668 52.0668C57.7866 46.3469 61 38.5891 61 30.5C61 26.4947 60.2111 22.5286 58.6783 18.8282C57.1456 15.1277 54.8989 11.7654 52.0668 8.93324C49.2346 6.10106 45.8723 3.85444 42.1718 2.32167C38.4714 0.788906 34.5053 0 30.5 0Z" fill="url(#paint0_linear_5273_1472)"/>
<defs>
<linearGradient id="paint0_linear_5273_1472" x1="30.4999" y1="-1.36573" x2="30.4999" y2="61.2128" gradientUnits="userSpaceOnUse">
<stop stop-color="#00EFD1"/>
<stop offset="1" stop-color="#00ACEA"/>
</linearGradient>
</defs>
</svg>
