<svg width="25" height="25" viewBox="0 0 25 25" fill="none" xmlns="http://www.w3.org/2000/svg">
<path d="M20.8784 21.0367C16.2041 25.7109 8.62532 25.7025 3.95104 21.0282C-0.723242 16.3539 -0.731708 8.77513 3.94257 4.10085C8.62533 -0.5819 16.2126 -0.5819 20.8868 4.09238C25.5611 8.76667 25.5611 16.3539 20.8784 21.0367ZM12.4189 5.78596C12.2621 5.7858 12.1068 5.81658 11.9618 5.87652C11.8169 5.93647 11.6852 6.02441 11.5743 6.13531C11.4634 6.24621 11.3755 6.3779 11.3155 6.52283C11.2556 6.66777 11.2248 6.8231 11.225 6.97994V12.5518C11.2234 12.7103 11.2533 12.8674 11.3129 13.0142C11.3724 13.1611 11.4606 13.2946 11.5722 13.4071L14.9593 16.7942C15.4251 17.26 16.1872 17.26 16.6529 16.7942C17.1186 16.3285 17.1186 15.5664 16.6529 15.1007L13.6129 12.0607V6.97994C13.6129 6.31944 13.0794 5.78596 12.4189 5.78596Z" fill="#F5F5F5"/>
</svg>
