<svg id="Group_21932" data-name="Group 21932" xmlns="http://www.w3.org/2000/svg" xmlns:xlink="http://www.w3.org/1999/xlink" width="42.417" height="54" viewBox="0 0 42.417 54">
  <defs>
    <linearGradient id="linear-gradient" x1="0.5" x2="0.5" y2="1" gradientUnits="objectBoundingBox">
      <stop offset="0" stop-color="#00efd1"/>
      <stop offset="1" stop-color="#00acea"/>
    </linearGradient>
    <clipPath id="clip-path">
      <rect id="Rectangle_1658" data-name="Rectangle 1658" width="42.417" height="54" fill="url(#linear-gradient)"/>
    </clipPath>
  </defs>
  <g id="Group_21932-2" data-name="Group 21932" clip-path="url(#clip-path)">
    <path id="Path_13993" data-name="Path 13993" d="M21.947,0c.357.084.718.152,1.07.253a5.425,5.425,0,0,1,3.677,3.206.566.566,0,0,0,.617.416c1.036-.022,2.074-.013,3.11,0a3.6,3.6,0,0,1,.835.08,1.025,1.025,0,0,1,.883,1.133c.008.645,0,1.289,0,1.986,1.549,0,3.039-.021,4.528.01a7.7,7.7,0,0,1,1.82.225,5.375,5.375,0,0,1,3.92,5.106q.014,18.32,0,36.641a4.977,4.977,0,0,1-4.317,4.837,8.509,8.509,0,0,1-1.31.1Q21.2,54,5.625,54a5.952,5.952,0,0,1-3.35-.922A4.672,4.672,0,0,1,0,48.937Q.012,40.818,0,32.7q0-9.991,0-19.981A5.451,5.451,0,0,1,5.651,7.071c1.353,0,2.706,0,4.059,0,.171,0,.342-.014.565-.024,0-.626,0-1.219,0-1.812,0-.924.357-1.322,1.294-1.349,1.141-.033,2.284-.024,3.426-.011a.547.547,0,0,0,.591-.379,5.724,5.724,0,0,1,4.33-3.4A1.378,1.378,0,0,0,20.154,0ZM32.2,9.687a.5.5,0,0,0-.049.129q-.009,1.291-.012,2.583c0,1.255-.492,1.742-1.761,1.742h-18.4c-1.25,0-1.708-.463-1.709-1.719,0-.908,0-1.816,0-2.735C10.1,9.667,10,9.645,9.9,9.646c-1.581.006-3.166-.046-4.742.042a2.793,2.793,0,0,0-2.6,2.925q0,18.108,0,36.216a2.291,2.291,0,0,0,1.739,2.4,5.051,5.051,0,0,0,1.452.194q15.446.016,30.892.006a6.272,6.272,0,0,0,.788-.042,2.487,2.487,0,0,0,2.427-2.746q0-17.9,0-35.795c0-.141,0-.281,0-.422a2.762,2.762,0,0,0-2.468-2.716c-1.714-.092-3.436-.022-5.184-.022M12.881,11.544H29.522V6.433H26.336c-1.09,0-1.468-.288-1.764-1.34a3.608,3.608,0,0,0-3.7-2.683A3.707,3.707,0,0,0,17.625,5.22a1.426,1.426,0,0,1-1.6,1.214c-.334,0-.668,0-1,0H12.881Z" transform="translate(0)" fill="url(#linear-gradient)"/>
    <path id="Path_13994" data-name="Path 13994" d="M122.137,129.012q3.608,0,7.216,0a1.34,1.34,0,0,1,1.417.942,1.266,1.266,0,0,1-.986,1.589,3.8,3.8,0,0,1-.682.042q-6.953,0-13.9,0a4.957,4.957,0,0,1-.526-.016,1.278,1.278,0,0,1,.039-2.552c.455-.028.913-.009,1.369-.009h6.057" transform="translate(-94.828 -107.8)" fill="url(#linear-gradient)"/>
    <path id="Path_13995" data-name="Path 13995" d="M122.1,256.742c-2.37,0-4.741.005-7.111,0-.889,0-1.434-.438-1.5-1.154a1.257,1.257,0,0,1,1.013-1.392,1.967,1.967,0,0,1,.418-.037q7.216,0,14.432,0a1.305,1.305,0,0,1,1.454,1.2,1.239,1.239,0,0,1-1.022,1.33,3.662,3.662,0,0,1-.681.05q-3.5.005-7.005,0" transform="translate(-94.834 -212.377)" fill="url(#linear-gradient)"/>
    <path id="Path_13996" data-name="Path 13996" d="M122.1,194.239c-2.405,0-4.81,0-7.216,0a1.27,1.27,0,0,1-1.4-1.3,1.238,1.238,0,0,1,1.126-1.241,2.889,2.889,0,0,1,.315-.015q7.216,0,14.431,0a1.286,1.286,0,1,1,.063,2.556c-1.949.009-3.9,0-5.846,0H122.1" transform="translate(-94.828 -160.171)" fill="url(#linear-gradient)"/>
    <path id="Path_13997" data-name="Path 13997" d="M43.173,176.579c1.215-1.16,2.489-2.389,3.783-3.6a2.148,2.148,0,0,1,.835-.506,1.262,1.262,0,0,1,1.418.66,1.181,1.181,0,0,1-.278,1.525c-1.443,1.385-2.9,2.758-4.349,4.135-.229.217-.45.446-.693.645a1.2,1.2,0,0,1-1.71-.053q-1.345-1.334-2.646-2.713a1.313,1.313,0,0,1,0-1.853,1.282,1.282,0,0,1,1.839.109c.575.539,1.163,1.067,1.8,1.648" transform="translate(-32.716 -144.09)" fill="url(#linear-gradient)"/>
    <path id="Path_13998" data-name="Path 13998" d="M43.167,114l3.455-3.287c.191-.181.374-.371.574-.542a1.276,1.276,0,0,1,1.84.084,1.2,1.2,0,0,1-.06,1.782q-2.486,2.389-5,4.744a1.2,1.2,0,0,1-1.819-.054q-1.263-1.268-2.5-2.56a1.286,1.286,0,1,1,1.848-1.747c.536.526,1.09,1.033,1.67,1.579" transform="translate(-32.744 -91.769)" fill="url(#linear-gradient)"/>
    <path id="Path_13999" data-name="Path 13999" d="M43.17,239.11c1.286-1.224,2.593-2.472,3.9-3.715a1.276,1.276,0,0,1,1.624-.29,1.224,1.224,0,0,1,.315,2q-2.511,2.438-5.077,4.819a1.184,1.184,0,0,1-1.78-.077q-1.263-1.268-2.5-2.559a1.286,1.286,0,1,1,1.836-1.76c.538.525,1.093,1.031,1.68,1.583" transform="translate(-32.744 -196.312)" fill="url(#linear-gradient)"/>
  </g>
</svg>
