<svg id="Group_21931" data-name="Group 21931" xmlns="http://www.w3.org/2000/svg" xmlns:xlink="http://www.w3.org/1999/xlink" width="53.951" height="54" viewBox="0 0 53.951 54">
  <defs>
    <linearGradient id="linear-gradient" x1="0.5" x2="0.5" y2="1" gradientUnits="objectBoundingBox">
      <stop offset="0" stop-color="#00efd1"/>
      <stop offset="1" stop-color="#00acea"/>
    </linearGradient>
    <clipPath id="clip-path">
      <rect id="Rectangle_1657" data-name="Rectangle 1657" width="53.951" height="54" fill="url(#linear-gradient)"/>
    </clipPath>
  </defs>
  <g id="Group_21930" data-name="Group 21930" clip-path="url(#clip-path)">
    <path id="Path_13984" data-name="Path 13984" d="M220.447,40.111a3.738,3.738,0,0,0-.852-.081c-.733-.005-1.449,0-2.207,0h-.513V38.91c0-4.631,0-9.419.011-14.129a.465.465,0,0,1,.154-.259,13.1,13.1,0,0,0,5.676-12.668,14.179,14.179,0,0,0-.756-2.936c-.092-.274-.183-.546-.269-.819a1.047,1.047,0,0,0-.563-.655,1.142,1.142,0,0,0-.928.013,1.125,1.125,0,0,0-.6,1.423,2.053,2.053,0,0,0,.093.238c.012.027.024.055.036.082a11.023,11.023,0,1,1-2.1-3.26l.017.018a1.38,1.38,0,0,0,.88.554,1.527,1.527,0,0,0,1.091-.5c.2-.25.443-.774-.225-1.475A13.1,13.1,0,0,0,207.267.348a13.322,13.322,0,0,0-5.425,24.073.565.565,0,0,1,.281.565c-.009,3.906-.007,7.877-.005,11.717v3.315c-.081,0-.156.007-.228.007-.325,0-.65,0-.976,0-.585,0-1.19,0-1.787.005a1.926,1.926,0,0,0-2.011,1.619,2.049,2.049,0,0,0,.711,1.826q1.586,1.583,3.17,3.168c2.085,2.086,4.241,4.243,6.374,6.352a5.97,5.97,0,0,0,1.041.77c.162.1.316.2.464.3l.09.062h1.051l.09-.062c.149-.1.3-.2.464-.3A5.965,5.965,0,0,0,211.615,53c2.568-2.538,5.161-5.136,7.668-7.648l1.762-1.765.017-.017a3.856,3.856,0,0,0,.507-.581,1.872,1.872,0,0,0-1.122-2.875m-16.06-.488c-.035-3.244-.028-6.543-.022-9.734q0-1.921,0-3.842v-.209a13.39,13.39,0,0,0,10.246,0v3.969q0,5.089,0,10.178c0,1.609.685,2.3,2.29,2.3l2.242,0q-4.677,4.682-9.359,9.36c-.217.217-.287.235-.3.237s-.081-.02-.294-.233q-4.689-4.684-9.373-9.374l.112,0c.609-.009,1.184-.018,1.75.018a2.612,2.612,0,0,0,2.065-.524,2.864,2.864,0,0,0,.633-2.145" transform="translate(-168.863 -0.131)" fill="url(#linear-gradient)"/>
    <path id="Path_13985" data-name="Path 13985" d="M21.025,29.726a.606.606,0,0,1-.295-.613c.008-3.885.006-7.835,0-11.655V14.113H21c.278,0,.558,0,.837,0,.631,0,1.284.006,1.928-.007a1.916,1.916,0,0,0,1.977-1.668,2.051,2.051,0,0,0-.711-1.769q-2.378-2.37-4.75-4.746L18.408,4.049l-.914-.916c-.761-.763-1.548-1.552-2.329-2.322a2.414,2.414,0,0,0-3.622.01Q8.623,3.733,5.71,6.651,3.676,8.685,1.641,10.718a1.89,1.89,0,0,0-.524,2.22,1.921,1.921,0,0,0,1.9,1.174c.377,0,.754,0,1.131,0H5.979v2.046c0,2.819,0,7.256,0,9.1,0,.066,0,.13,0,.193v0a2.315,2.315,0,0,0,0,.3q0,.42,0,.839c0,.862-.006,1.753.01,2.631a.472.472,0,0,1-.257.47A13.086,13.086,0,0,0,.542,36.923c-.165.57-.276,1.157-.383,1.725-.049.259-.1.518-.152.776L0,39.459v2.366l.009.039c.073.318.138.647.2.967A13.487,13.487,0,0,0,.75,44.974,13.145,13.145,0,0,0,11.819,53.9a1.361,1.361,0,0,1,.184.048l.12.036.045.012h2.369l.032-.006.319-.061c.229-.044.458-.088.687-.127a13.408,13.408,0,0,0,6.959-3.469,13.313,13.313,0,0,0-1.508-20.61m3.435,10.946a11.123,11.123,0,0,1-11.107,11.07h-.028a11.1,11.1,0,0,1,.039-22.2h.026A11.121,11.121,0,0,1,24.461,40.672m-5.347-28.3a2.37,2.37,0,0,0-.647,1.8c.027,3.393.023,6.845.018,10.183q0,1.907,0,3.813V28.3a13.828,13.828,0,0,0-5.121-1.019A13.875,13.875,0,0,0,8.236,28.3v-.121q0-.431,0-.861c0-.5,0-1.009,0-1.52a1.807,1.807,0,0,0,.005-.366c0-.048-.006-.1-.006-.141,0-1.766,0-6.346,0-9.118V14.438c0-.187,0-.373,0-.56A1.9,1.9,0,0,0,6.2,11.858c-.525,0-1.05,0-1.576,0H3.7q4.648-4.65,9.3-9.3a1.339,1.339,0,0,1,.358-.3c.036.007.132.067.38.315q4.642,4.641,9.282,9.284l-.233,0c-.642.013-1.306.027-1.948-.014a2.2,2.2,0,0,0-1.721.526" transform="translate(0 0.001)" fill="url(#linear-gradient)"/>
    <path id="Path_13986" data-name="Path 13986" d="M225.66,75.867a1.71,1.71,0,0,1-1.563-.507.785.785,0,0,0-1.156-.04.775.775,0,0,0,.107,1.188,3.57,3.57,0,0,0,2.514.973,2.412,2.412,0,0,0,2.322-1.738,2.152,2.152,0,0,0-1.532-2.506c-.447-.187-.908-.342-1.345-.549-.162-.077-.421-.208-.408-.4a.42.42,0,0,1,.522-.405,4.759,4.759,0,0,1,1.362.359c.488.214.892.189,1.141-.2a.731.731,0,0,0-.3-1.1,6.018,6.018,0,0,0-1.88-.654,2.127,2.127,0,0,0-2.365,1.661c-.216,1.018.3,1.8,1.5,2.274a10.072,10.072,0,0,1,1.249.5c.221.125.556.346.527.617-.032.291-.435.464-.693.524" transform="translate(-191.74 -60.5)" fill="url(#linear-gradient)"/>
    <path id="Path_13987" data-name="Path 13987" d="M270.55,71.966a.808.808,0,0,0,.871-.776.786.786,0,0,0-.861-.774q-1.092-.021-2.184,0c-.6.012-.873.3-.875.916q-.01,2.653,0,5.306c0,.634.283.907.929.917q1.04.016,2.081,0c.564-.009.916-.321.911-.779s-.359-.762-.924-.776c-.462-.012-.925,0-1.405,0V74.765c.463,0,.894.019,1.323,0a.775.775,0,1,0-.016-1.545c-.429-.015-.859,0-1.314,0V71.97c.5,0,.985.013,1.465,0" transform="translate(-230.297 -60.614)" fill="url(#linear-gradient)"/>
    <path id="Path_13988" data-name="Path 13988" d="M304.972,75.26c0-1.4.007-2.806-.006-4.208a.775.775,0,1,0-1.549-.021q-.019,2.805,0,5.611a.714.714,0,0,0,.741.772c.657.027,1.316.04,1.973.02a.775.775,0,1,0-.038-1.546c-.358-.013-.718,0-1.123,0V75.26" transform="translate(-261.217 -60.468)" fill="url(#linear-gradient)"/>
    <path id="Path_13989" data-name="Path 13989" d="M337.795,75.254c0-1.384.007-2.769-.005-4.153a.8.8,0,0,0-.774-.869.756.756,0,0,0-.776.8q-.016,2.8,0,5.606a.7.7,0,0,0,.729.776c.656.028,1.315.04,1.972.021a.776.776,0,1,0-.023-1.546c-.358-.013-.717,0-1.122,0v-.63" transform="translate(-289.477 -60.466)" fill="url(#linear-gradient)"/>
    <path id="Path_13990" data-name="Path 13990" d="M37.153,269.036a2.021,2.021,0,0,0-1.619-2.753,11.869,11.869,0,0,0-1.761-.052c-.7.006-.964.278-.972.988-.01.865,0,1.731,0,2.6h0c0,.917-.011,1.835,0,2.752.009.56.285.867.811.88a20.385,20.385,0,0,0,2.126-.035A2.131,2.131,0,0,0,37.631,272a2.158,2.158,0,0,0-.377-2.33.532.532,0,0,1-.1-.632m-2.763-1.373c.45.035.873-.108,1.249.4a1.269,1.269,0,0,1-.02.533c-.223.35-.78.35-1.23.317Zm1.211,4.2c-.388.038-.782.008-1.207.008V270.41a11.458,11.458,0,0,1,1.195.009.679.679,0,0,1,.646.741.667.667,0,0,1-.633.7" transform="translate(-28.235 -229.203)" fill="url(#linear-gradient)"/>
    <path id="Path_13991" data-name="Path 13991" d="M80.636,267.285c-.007-.594-.324-.955-.807-.938-.464.017-.748.361-.751.937-.005,1.162,0,2.324,0,3.486a1.187,1.187,0,1,1-2.373.017c-.006-1.2,0-2.393-.006-3.59a.774.774,0,0,0-.778-.853.784.784,0,0,0-.77.82c-.014,1.335-.05,2.673.016,4.005a2.75,2.75,0,0,0,5.47-.191c.01-.589,0-1.179,0-1.769,0-.642.006-1.283,0-1.925" transform="translate(-64.68 -229.307)" fill="url(#linear-gradient)"/>
    <path id="Path_13992" data-name="Path 13992" d="M125.942,266.821c-.346.514-.68,1.037-1.066,1.627-.393-.6-.728-1.123-1.077-1.639a.794.794,0,0,0-1.147-.337.78.78,0,0,0-.159,1.182c.446.7.921,1.385,1.351,2.1a1.67,1.67,0,0,1,.231.765c.03.727,0,1.456.012,2.183a.792.792,0,0,0,.794.848.78.78,0,0,0,.758-.872c.012-.693-.019-1.388.02-2.079a1.965,1.965,0,0,1,.261-.861c.415-.7.882-1.367,1.319-2.054a.787.787,0,1,0-1.3-.859" transform="translate(-105.293 -229.304)" fill="url(#linear-gradient)"/>
  </g>
</svg>
