<svg id="Group_21949" data-name="Group 21949" xmlns="http://www.w3.org/2000/svg" xmlns:xlink="http://www.w3.org/1999/xlink" width="40.803" height="54" viewBox="0 0 40.803 54">
  <defs>
    <linearGradient id="linear-gradient" x1="0.5" x2="0.5" y2="1" gradientUnits="objectBoundingBox">
      <stop offset="0" stop-color="#00efd1"/>
      <stop offset="1" stop-color="#00acea"/>
    </linearGradient>
    <clipPath id="clip-path">
      <rect id="Rectangle_1668" data-name="Rectangle 1668" width="40.803" height="54" fill="url(#linear-gradient)"/>
    </clipPath>
  </defs>
  <g id="Group_21948" data-name="Group 21948" clip-path="url(#clip-path)">
    <path id="Path_14040" data-name="Path 14040" d="M40.8,13.005a2.337,2.337,0,0,0-.726-1.767C38.5,9.678,36.9,8.085,35.362,6.544Q33.45,4.636,31.536,2.732c-.617-.613-1.258-1.218-1.877-1.8Q29.229.522,28.8.115L28.681,0H4L3.886.105h0A4.845,4.845,0,0,0,0,5.3v9.072Q0,31.611,0,48.848A4.886,4.886,0,0,0,5.172,54H35.6a4.861,4.861,0,0,0,5.193-5.181V41.269c0-9.264,0-18.843.009-28.264m-5.65-1.92c-1.135,0-2.308,0-3.462,0a1.829,1.829,0,0,1-2-1.983c-.007-1.018-.005-2.054,0-3.055q0-.326,0-.651l5.705,5.692Zm-20.1-8.047H26.641v.729q0,.844,0,1.689c0,1.234,0,2.509,0,3.764a4.836,4.836,0,0,0,4.892,4.9c1.388.011,2.8.008,4.163.006l1.823,0h.229v8.355q0,13.164,0,26.327a1.888,1.888,0,0,1-2.142,2.154q-15.215,0-30.43,0a1.865,1.865,0,0,1-2.132-2.111q0-21.853,0-43.706a1.845,1.845,0,0,1,1.983-2.1c3.328,0,6.688,0,10.025,0" transform="translate(0)" fill="url(#linear-gradient)"/>
    <path id="Path_14041" data-name="Path 14041" d="M49.283,263.95l.093.156-.055.048c-.23.2-.455.393-.679.589a1.524,1.524,0,0,0-.3,2.174,1.457,1.457,0,0,0,.986.568,1.722,1.722,0,0,0,1.258-.4c.265-.21.523-.433.772-.649l.078-.067,0,0a3.73,3.73,0,0,0,2.939,1.095,3.738,3.738,0,0,0,2.379-2.051c.108-.179.21-.36.313-.546l.088.219a9.625,9.625,0,0,0,.677,1.448,1.852,1.852,0,0,0,1.606.977,2.334,2.334,0,0,0,1.009-.249,6.735,6.735,0,0,0,1.457-.9c1.2-1.025,2.4-2.094,3.556-3.127l.619-.553a1.637,1.637,0,0,0,.4-.567,1.507,1.507,0,0,0-.5-1.8h0a1.484,1.484,0,0,0-1.951.131c-.362.327-.722.666-1.071.993-.408.383-.831.78-1.254,1.157-.47.419-.954.821-1.466,1.246l-.238.2c-.084-.259-.166-.507-.253-.75-.072-.2-.14-.407-.208-.612a11.882,11.882,0,0,0-.626-1.614,1.813,1.813,0,0,0-1.406-1.056,1.888,1.888,0,0,0-1.658.775,6.192,6.192,0,0,0-.617.987c-.173.324-.34.655-.5.975s-.341.675-.519,1.006a4.237,4.237,0,0,1-.389.632,2.323,2.323,0,0,1-.341-.288q.144-.235.288-.465c.335-.539.682-1.1.982-1.668a5.015,5.015,0,0,0,.647-3.582,3.574,3.574,0,0,0-2.554-2.628,3,3,0,0,0-3.247.922,5.121,5.121,0,0,0-.86,6.308c.175.325.358.634.553.962m2.395-5.085a.464.464,0,0,1,.339-.174.34.34,0,0,1,.069.007.416.416,0,0,1,.3.306,1.093,1.093,0,0,1,.031.506,5.7,5.7,0,0,1-.968,2.107,2.234,2.234,0,0,1,.23-2.752" transform="translate(-41.35 -220.146)" fill="url(#linear-gradient)"/>
    <path id="Path_14042" data-name="Path 14042" d="M49.007,130.754h0a2.629,2.629,0,0,0,.848.116q4.879.006,9.759,0h14.2a2.472,2.472,0,0,0,.379-.024,1.522,1.522,0,0,0,1.3-1.557,1.506,1.506,0,0,0-1.4-1.447c-.158-.014-.31-.013-.457-.012H49.891a4.455,4.455,0,0,0-.526.019,1.506,1.506,0,0,0-1.329,1.3,1.483,1.483,0,0,0,.971,1.6" transform="translate(-41.362 -110.104)" fill="url(#linear-gradient)"/>
    <path id="Path_14043" data-name="Path 14043" d="M63.448,178.79H73.816a2.492,2.492,0,0,0,.382-.025,1.511,1.511,0,0,0-.111-3c-.159-.014-.312-.013-.461-.012H49.895a4.691,4.691,0,0,0-.531.019,1.507,1.507,0,0,0-1.327,1.3,1.482,1.482,0,0,0,.973,1.6,2.635,2.635,0,0,0,.847.115q4.879.007,9.759,0Z" transform="translate(-41.363 -151.374)" fill="url(#linear-gradient)"/>
    <path id="Path_14044" data-name="Path 14044" d="M129.11,223.676c-.156-.012-.306-.012-.451-.011h-11.7q-1.743,0-3.485,0a1.461,1.461,0,0,0-1.371.86,1.3,1.3,0,0,0,.234,1.609,2.279,2.279,0,0,0,1.355.546c3,.017,6.047.021,9.043.021h6.107a2.682,2.682,0,0,0,.29-.009,1.537,1.537,0,0,0,1.4-1.522,1.5,1.5,0,0,0-1.425-1.5" transform="translate(-96.406 -192.642)" fill="url(#linear-gradient)"/>
    <path id="Path_14045" data-name="Path 14045" d="M49.483,82.933c.08.007.157.009.232.009H62.625a2.993,2.993,0,0,0,.465-.02A1.508,1.508,0,0,0,64.4,81.388a1.471,1.471,0,0,0-1.371-1.472,4.6,4.6,0,0,0-.47-.014H51.085c-.138,0-.276,0-.414,0-.38,0-.773-.005-1.163.012a1.487,1.487,0,0,0-1.461,1.464,1.527,1.527,0,0,0,1.437,1.557" transform="translate(-41.381 -68.816)" fill="url(#linear-gradient)"/>
  </g>
</svg>
