<svg xmlns="http://www.w3.org/2000/svg" xmlns:xlink="http://www.w3.org/1999/xlink" width="117" height="91" viewBox="0 0 117 91">
  <defs>
    <clipPath id="clip-path">
      <rect width="117" height="91" fill="none"/>
    </clipPath>
  </defs>
  <g id="Repeat_Grid_1" data-name="Repeat Grid 1" clip-path="url(#clip-path)">
    <g transform="translate(-57 -722)">
      <circle id="Ellipse_343" data-name="Ellipse 343" cx="2" cy="2" r="2" transform="translate(60 725)" fill="#231f20"/>
    </g>
    <g transform="translate(-37 -722)">
      <circle id="Ellipse_343-2" data-name="Ellipse 343" cx="2" cy="2" r="2" transform="translate(60 725)" fill="#231f20"/>
    </g>
    <g transform="translate(-17 -722)">
      <circle id="Ellipse_343-3" data-name="Ellipse 343" cx="2" cy="2" r="2" transform="translate(60 725)" fill="#231f20"/>
    </g>
    <g transform="translate(3 -722)">
      <circle id="Ellipse_343-4" data-name="Ellipse 343" cx="2" cy="2" r="2" transform="translate(60 725)" fill="#231f20"/>
    </g>
    <g transform="translate(23 -722)">
      <circle id="Ellipse_343-5" data-name="Ellipse 343" cx="2" cy="2" r="2" transform="translate(60 725)" fill="#231f20"/>
    </g>
    <g transform="translate(43 -722)">
      <circle id="Ellipse_343-6" data-name="Ellipse 343" cx="2" cy="2" r="2" transform="translate(60 725)" fill="#231f20"/>
    </g>
    <g transform="translate(-57 -702)">
      <circle id="Ellipse_343-7" data-name="Ellipse 343" cx="2" cy="2" r="2" transform="translate(60 725)" fill="#231f20"/>
    </g>
    <g transform="translate(-37 -702)">
      <circle id="Ellipse_343-8" data-name="Ellipse 343" cx="2" cy="2" r="2" transform="translate(60 725)" fill="#231f20"/>
    </g>
    <g transform="translate(-17 -702)">
      <circle id="Ellipse_343-9" data-name="Ellipse 343" cx="2" cy="2" r="2" transform="translate(60 725)" fill="#231f20"/>
    </g>
    <g transform="translate(3 -702)">
      <circle id="Ellipse_343-10" data-name="Ellipse 343" cx="2" cy="2" r="2" transform="translate(60 725)" fill="#231f20"/>
    </g>
    <g transform="translate(23 -702)">
      <circle id="Ellipse_343-11" data-name="Ellipse 343" cx="2" cy="2" r="2" transform="translate(60 725)" fill="#231f20"/>
    </g>
    <g transform="translate(43 -702)">
      <circle id="Ellipse_343-12" data-name="Ellipse 343" cx="2" cy="2" r="2" transform="translate(60 725)" fill="#231f20"/>
    </g>
    <g transform="translate(-57 -682)">
      <circle id="Ellipse_343-13" data-name="Ellipse 343" cx="2" cy="2" r="2" transform="translate(60 725)" fill="#231f20"/>
    </g>
    <g transform="translate(-37 -682)">
      <circle id="Ellipse_343-14" data-name="Ellipse 343" cx="2" cy="2" r="2" transform="translate(60 725)" fill="#231f20"/>
    </g>
    <g transform="translate(-17 -682)">
      <circle id="Ellipse_343-15" data-name="Ellipse 343" cx="2" cy="2" r="2" transform="translate(60 725)" fill="#231f20"/>
    </g>
    <g transform="translate(3 -682)">
      <circle id="Ellipse_343-16" data-name="Ellipse 343" cx="2" cy="2" r="2" transform="translate(60 725)" fill="#231f20"/>
    </g>
    <g transform="translate(23 -682)">
      <circle id="Ellipse_343-17" data-name="Ellipse 343" cx="2" cy="2" r="2" transform="translate(60 725)" fill="#231f20"/>
    </g>
    <g transform="translate(43 -682)">
      <circle id="Ellipse_343-18" data-name="Ellipse 343" cx="2" cy="2" r="2" transform="translate(60 725)" fill="#231f20"/>
    </g>
    <g transform="translate(-57 -662)">
      <circle id="Ellipse_343-19" data-name="Ellipse 343" cx="2" cy="2" r="2" transform="translate(60 725)" fill="#231f20"/>
    </g>
    <g transform="translate(-37 -662)">
      <circle id="Ellipse_343-20" data-name="Ellipse 343" cx="2" cy="2" r="2" transform="translate(60 725)" fill="#231f20"/>
    </g>
    <g transform="translate(-17 -662)">
      <circle id="Ellipse_343-21" data-name="Ellipse 343" cx="2" cy="2" r="2" transform="translate(60 725)" fill="#231f20"/>
    </g>
    <g transform="translate(3 -662)">
      <circle id="Ellipse_343-22" data-name="Ellipse 343" cx="2" cy="2" r="2" transform="translate(60 725)" fill="#231f20"/>
    </g>
    <g transform="translate(23 -662)">
      <circle id="Ellipse_343-23" data-name="Ellipse 343" cx="2" cy="2" r="2" transform="translate(60 725)" fill="#231f20"/>
    </g>
    <g transform="translate(43 -662)">
      <circle id="Ellipse_343-24" data-name="Ellipse 343" cx="2" cy="2" r="2" transform="translate(60 725)" fill="#231f20"/>
    </g>
    <g transform="translate(-57 -642)">
      <circle id="Ellipse_343-25" data-name="Ellipse 343" cx="2" cy="2" r="2" transform="translate(60 725)" fill="#231f20"/>
    </g>
    <g transform="translate(-37 -642)">
      <circle id="Ellipse_343-26" data-name="Ellipse 343" cx="2" cy="2" r="2" transform="translate(60 725)" fill="#231f20"/>
    </g>
    <g transform="translate(-17 -642)">
      <circle id="Ellipse_343-27" data-name="Ellipse 343" cx="2" cy="2" r="2" transform="translate(60 725)" fill="#231f20"/>
    </g>
    <g transform="translate(3 -642)">
      <circle id="Ellipse_343-28" data-name="Ellipse 343" cx="2" cy="2" r="2" transform="translate(60 725)" fill="#231f20"/>
    </g>
    <g transform="translate(23 -642)">
      <circle id="Ellipse_343-29" data-name="Ellipse 343" cx="2" cy="2" r="2" transform="translate(60 725)" fill="#231f20"/>
    </g>
    <g transform="translate(43 -642)">
      <circle id="Ellipse_343-30" data-name="Ellipse 343" cx="2" cy="2" r="2" transform="translate(60 725)" fill="#231f20"/>
    </g>
  </g>
</svg>
