<?xml version="1.0" encoding="UTF-8"?><svg id="a" xmlns="http://www.w3.org/2000/svg" viewBox="0 0 17.13 13.93"><defs><style>.b{fill:#231f20;}</style></defs><path class="b" d="M17.13,1.66c-.47,.7-1.07,1.32-1.75,1.81v.46c0,4.64-3.53,10-9.99,10-1.91,0-3.78-.55-5.39-1.58,.28,.03,.56,.04,.84,.04,1.65,0,3.16-.56,4.37-1.5-.74-.01-1.45-.26-2.04-.69-.58-.44-1.02-1.05-1.25-1.75,.53,.1,1.07,.08,1.59-.06-.8-.16-1.51-.59-2.02-1.22-.52-.63-.8-1.41-.8-2.22v-.05c.47,.27,1.02,.43,1.59,.44-.74-.49-1.27-1.25-1.47-2.13-.2-.87-.07-1.79,.39-2.56,.88,1.09,1.98,1.97,3.23,2.61,1.24,.63,2.61,.99,4.01,1.06-.18-.75-.1-1.54,.21-2.25,.32-.7,.87-1.28,1.55-1.65C10.88,.05,11.67-.08,12.43,.05c.76,.13,1.46,.5,1.99,1.07,.79-.16,1.54-.45,2.23-.85-.26,.81-.81,1.5-1.54,1.94,.7-.08,1.38-.27,2.02-.55Z"/></svg>