<svg xmlns="http://www.w3.org/2000/svg" xmlns:xlink="http://www.w3.org/1999/xlink" width="65.005" height="76" viewBox="0 0 65.005 76">
  <defs>
    <linearGradient id="linear-gradient" x1="0.5" x2="0.5" y2="1" gradientUnits="objectBoundingBox">
      <stop offset="0" stop-color="#00efd1"/>
      <stop offset="1" stop-color="#00acea"/>
    </linearGradient>
  </defs>
  <g id="Group_21970" data-name="Group 21970" transform="translate(0)">
    <g id="Group_21971" data-name="Group 21971">
      <path id="Union_1" data-name="Union 1" d="M6.438,73.532Q3.3,65.161.241,56.758a3.821,3.821,0,0,1,2.273-4.924c1.712-.671,3.443-1.3,5.174-1.921A3.892,3.892,0,0,1,12.844,52.3c.115.3.235.6.382.978,1.807-.585,3.531-1.148,5.259-1.7a12.177,12.177,0,0,1,10.357,1.154,10.4,10.4,0,0,0,5.65,1.526q4.16-.083,8.32-.112a4.473,4.473,0,0,1,4.413,2.725.551.551,0,0,0,.745.365c1.985-.4,3.98-.756,5.968-1.146a5.92,5.92,0,0,1,4.939,1.157,3.547,3.547,0,0,1-1.036,6.24q-7.1,2.344-14.2,4.681c-2.344.773-4.7,1.524-7.03,2.321a8.312,8.312,0,0,1-5.679-.051c-2.563-.921-5.177-1.717-7.7-2.745a5,5,0,0,0-4.322.472,15.174,15.174,0,0,1,.174,2.615,3.485,3.485,0,0,1-2.336,2.98c-1.819.718-3.654,1.4-5.505,2.03A3.888,3.888,0,0,1,10,76,3.79,3.79,0,0,1,6.438,73.532ZM8.6,52.3q-2.563.915-5.1,1.895A1.3,1.3,0,0,0,2.687,56c.329.945.683,1.881,1.029,2.819Q6.209,65.563,8.707,72.3c.365.985.988,1.336,1.88,1.02,1.71-.608,3.409-1.245,5.11-1.88a1.364,1.364,0,0,0,.923-1.356,4.407,4.407,0,0,0-.136-.527q-3.017-8.186-6.046-16.368a1.33,1.33,0,0,0-1.253-1A1.742,1.742,0,0,0,8.6,52.3ZM23.821,65.214c2.666.983,5.359,1.891,8.036,2.842a5.806,5.806,0,0,0,3.9.03c2.385-.8,4.775-1.581,7.164-2.368,4.645-1.531,9.294-3.051,13.928-4.616a1.383,1.383,0,0,0,.838-.854,1.464,1.464,0,0,0-.552-1.073,3.107,3.107,0,0,0-2.644-.585c-2.152.4-4.3.822-6.455,1.211a.972.972,0,0,0-.8.642,4.325,4.325,0,0,1-4.106,2.737q-2.8.064-5.594.1c-1.819.024-3.637.046-5.456.04a1.259,1.259,0,0,1-1.329-1.243A1.3,1.3,0,0,1,32.064,60.8c.256-.014.513-.01.768-.013,3.381-.044,6.761-.082,10.141-.135a1.979,1.979,0,1,0-.05-3.944c-2.541.024-5.082.028-7.621.109a13.692,13.692,0,0,1-7.94-1.988,8.95,8.95,0,0,0-5.135-1.342c-2.856.1-5.358,1.471-8.139,2.167,1.258,3.409,2.479,6.722,3.742,10.141.519-.19.967-.317,1.383-.514a5.265,5.265,0,0,1,2.286-.524A6.7,6.7,0,0,1,23.821,65.214ZM35.682,51.672A14.506,14.506,0,0,1,23.507,34.5c-.847,0-1.675-.006-2.5,0a10.273,10.273,0,0,1-4.547-.939c-4.231-2-6.615-5.346-6.735-10.04s2.094-8.148,6.208-10.376c.423-.229.6-.385.492-.928a8.978,8.978,0,0,1,3.476-9.6,8.974,8.974,0,0,1,10.244-.695.945.945,0,0,0,1.214-.072A9.337,9.337,0,0,1,45.524,5.708a.95.95,0,0,0,1.065.693,10.742,10.742,0,0,1,10.972,8.929.869.869,0,0,0,.714.786A9.378,9.378,0,0,1,56.75,34.43a18.332,18.332,0,0,1-2.463.068c-.367-.005-.733-.012-1.1-.008-.438,0-.875,0-1.375,0,.864,5.847-.827,10.681-5.422,14.323a13.537,13.537,0,0,1-8.613,2.994A16.459,16.459,0,0,1,35.682,51.672ZM25.846,37.49A11.811,11.811,0,1,0,37.678,25.583,11.883,11.883,0,0,0,25.846,37.49ZM20.606,5.383a6.553,6.553,0,0,0-1.3,7.448,1.334,1.334,0,0,1-.915,2.058c-.154.052-.31.1-.463.157a8.81,8.81,0,0,0-5.686,8.76,8.63,8.63,0,0,0,6.866,7.91,38.849,38.849,0,0,0,4.381.254,1.073,1.073,0,0,0,1.211-.747A14.325,14.325,0,0,1,41.76,23.646a14.119,14.119,0,0,1,8.917,7.723.865.865,0,0,0,.945.6c.483-.026.969-.02,1.454-.015.214,0,.429,0,.643,0,.676,0,1.353.014,2.029,0a6.833,6.833,0,0,0,.982-13.577c-1.126-.177-1.475-.505-1.532-1.449a8.357,8.357,0,0,0-9.687-7.9c-1.312.182-1.642-.038-1.98-1.315A6.82,6.82,0,0,0,32.086,4.57c-.9.881-1.34.905-2.345.128A6.922,6.922,0,0,0,25.5,3.23,6.645,6.645,0,0,0,20.606,5.383Z" fill="url(#linear-gradient)"/>
      <path id="Path_14056" data-name="Path 14056" d="M165.22,136.937c0,1.141,0,2.253,0,3.364,0,.606.016,1.213-.006,1.818a1.246,1.246,0,0,1-1.276,1.358,1.228,1.228,0,0,1-1.278-1.349q-.023-3.217,0-6.435c.007-.9.511-1.342,1.5-1.345,2.564-.01,5.129,0,7.693,0h19.793c1.43,0,1.784.35,1.785,1.766,0,1.982.009,3.963-.006,5.945-.007.988-.6,1.538-1.478,1.414a1.24,1.24,0,0,1-1.051-1.35c-.011-1.515-.019-3.031.006-4.546.008-.486-.084-.7-.644-.7q-12.24.026-24.479.014c-.158,0-.315.026-.562.049" transform="translate(-139.895 -115.55)" fill="url(#linear-gradient)"/>
      <path id="Path_14057" data-name="Path 14057" d="M237.992,223.929h-2.543a4.85,4.85,0,0,0-.61-1.457H238a1.148,1.148,0,0,0,0-2.3v.21l0,0v-.21H227.663a1.15,1.15,0,0,0,0,2.3h2.959a2.61,2.61,0,0,1,2.193,1.457h-5.155a1.148,1.148,0,1,0,0,2.3h5.152a2.608,2.608,0,0,1-2.337,1.457h-2.817a1.152,1.152,0,0,0-.812,1.962l5.635,5.635a1.15,1.15,0,1,0,1.627-1.627l-3.67-3.674h.032a4.909,4.909,0,0,0,4.976-3.754h2.541a1.148,1.148,0,0,0,0-2.3" transform="translate(-194.828 -189.371)" fill="url(#linear-gradient)"/>
    </g>
  </g>
</svg>
