<svg xmlns="http://www.w3.org/2000/svg" width="14.648" height="16" viewBox="0 0 14.648 16">
  <path id="Path_27039" data-name="Path 27039" d="M1972.307-166.314c.293.491.512.928.795,1.315a3.51,3.51,0,0,1-.189,3.828,1.223,1.223,0,0,1-1.336.55,1.187,1.187,0,0,1-.828-1.094,11.726,11.726,0,0,0-.229-1.162,2.951,2.951,0,0,0-.939-1.567,5.293,5.293,0,0,1-1.65-2.459,6.38,6.38,0,0,0-.684-1.325c-.057-.094-.271-.129-.414-.131-.486-.008-.973.014-1.461.018q-.888.007-1.779,0c-.437,0-.613-.165-.613-.588q-.009-3.321,0-6.642c0-.409.168-.571.586-.574q1.5-.013,3.006,0c.139,0,.344.025.4.113.227.354.541.27.84.207.926-.2,1.842-.441,2.771-.623a10.126,10.126,0,0,1,4.865.483,2.543,2.543,0,0,1,.908.6.9.9,0,0,1,.277,1.007.659.659,0,0,0,.145.72,1.522,1.522,0,0,1,.322,1.618.416.416,0,0,0,.059.346,1.506,1.506,0,0,1,.162,1.96.448.448,0,0,0,.008.387,1.745,1.745,0,0,1-.57,2.462,2.229,2.229,0,0,1-1.166.387c-.891.067-1.789.041-2.684.062A4.939,4.939,0,0,0,1972.307-166.314Zm-.5,4.778a2.1,2.1,0,0,0,.279-.219,2.531,2.531,0,0,0,.191-2.677,8.929,8.929,0,0,1-.822-1.436.838.838,0,0,1,.387-1.24A2.969,2.969,0,0,1,1973-167.4c.893-.06,1.789-.046,2.684-.092a.97.97,0,0,0,.557-.238c.43-.393.459-.622.172-1.142a1.022,1.022,0,0,1-.088-1.177c.426-.636.348-.589-.064-1.123a.831.831,0,0,1-.205-.942.842.842,0,0,0-.182-1.067,1.078,1.078,0,0,1-.3-1.015c.107-.542.053-.687-.479-.839a9.223,9.223,0,0,0-4.127-.459c-1.254.216-2.488.537-3.766.819.012-.028-.008,0-.008.018,0,1.62-.01,3.241-.006,4.862a.355.355,0,0,0,.127.262,4.285,4.285,0,0,1,1.6,2.382,3.932,3.932,0,0,0,1.225,1.85,4.335,4.335,0,0,1,1.447,2.562C1971.666-162.364,1971.727-161.99,1971.809-161.537Zm-7.855-7.838h2.2v-5.748h-2.2Z" transform="translate(-1962.974 176.575)" fill="#ff1a1a"/>
</svg>
