<svg width="40" height="40" viewBox="0 0 40 40" fill="none" xmlns="http://www.w3.org/2000/svg">
<path d="M31.0892 19.6005C30.5863 19.6005 30.1787 20.0083 30.1787 20.5111V31.1788H7.82109V8.82109H25.7821C26.285 8.82109 26.6927 8.41338 26.6927 7.91054C26.6927 7.40771 26.285 7 25.7821 7H6.91054C6.40771 7 6 7.40771 6 7.91054V32.0893C6 32.5922 6.40771 32.9999 6.91054 32.9999H31.0892C31.592 32.9999 31.9997 32.5922 31.9997 32.0893V20.5111C31.9997 20.0083 31.5921 19.6005 31.0892 19.6005Z" fill="#0C71B9"/>
<path d="M34.498 7.59918C34.1425 7.24363 33.566 7.24363 33.2103 7.59918L18.3797 22.4299L14.695 18.7452C14.3394 18.3896 13.7629 18.3896 13.4073 18.7452C13.0517 19.1008 13.0517 19.6773 13.4073 20.0329L17.7359 24.3615C17.9137 24.5392 18.1467 24.6282 18.3797 24.6282C18.6128 24.6282 18.8458 24.5392 19.0236 24.3615L34.498 8.88691C34.8537 8.53129 34.8537 7.9548 34.498 7.59918Z" fill="#0C71B9"/>
</svg>
