<svg width="100" height="100" viewBox="0 0 100 100" fill="none" xmlns="http://www.w3.org/2000/svg">
<rect width="100" height="100" rx="10" fill="#E0EFE4"/>
<path d="M39.125 50.0801L46.375 57.2633L60.875 42.8969M79 50.0801C79 66.1025 59.2075 77.7127 52.3251 81.2659C51.5809 81.6502 51.2086 81.8423 50.6924 81.9418C50.29 82.0194 49.71 82.0194 49.3076 81.9418C48.7914 81.8423 48.4191 81.6502 47.6749 81.2659C40.7924 77.7127 21 66.1025 21 50.0801V36.4952C21 33.6237 21 32.188 21.474 30.9538C21.8927 29.8635 22.5732 28.8907 23.4565 28.1194C24.4564 27.2463 25.8133 26.7422 28.5269 25.7339L47.9635 18.5124C48.7171 18.2324 49.0938 18.0924 49.4816 18.0369C49.8253 17.9877 50.1747 17.9877 50.5184 18.0369C50.9062 18.0924 51.2829 18.2324 52.0365 18.5124L71.473 25.7339C74.1867 26.7422 75.5436 27.2463 76.5433 28.1194C77.4267 28.8907 78.1072 29.8635 78.5258 30.9538C79 32.188 79 33.6237 79 36.4952V50.0801Z" stroke="#00B26B" stroke-width="4" stroke-linecap="round" stroke-linejoin="round"/>
</svg>
