<svg width="56" height="56" viewBox="0 0 56 56" fill="none" xmlns="http://www.w3.org/2000/svg">
<path d="M50.6297 47.216L38.7381 35.3206C44.5695 27.8859 43.9978 17.0199 37.1373 10.2716C33.5927 6.72582 28.7903 4.66699 23.6449 4.66699C18.4995 4.66699 13.8114 6.61144 10.2668 10.2716C6.60788 13.8173 4.66406 18.6212 4.66406 23.6539C4.66406 28.6866 6.60788 33.4905 10.2668 37.1507C13.8114 40.6964 18.6138 42.7552 23.7592 42.7552C27.9899 42.7552 32.1062 41.3827 35.4221 38.752L47.3137 50.6474C47.7711 51.1049 48.3428 51.3337 49.0289 51.3337C49.7149 51.3337 50.2866 51.1049 50.744 50.6474C51.5444 49.7324 51.5444 48.131 50.6297 47.216ZM13.5828 33.7193C10.9529 31.0886 9.46644 27.4284 9.46644 23.6539C9.46644 19.8794 10.9529 16.3337 13.5828 13.5886C16.327 10.9578 19.8716 9.47091 23.6449 9.47091C27.4182 9.47091 30.9628 10.9578 33.707 13.5886C39.1954 19.1931 39.1954 28.1147 33.707 33.7193C31.0771 36.35 27.4182 37.8369 23.6449 37.8369C19.8716 37.9513 16.327 36.4644 13.5828 33.7193Z" fill="#FFCE02"/>
</svg>
