<svg width="100" height="100" viewBox="0 0 100 100" fill="none" xmlns="http://www.w3.org/2000/svg">
<rect width="100" height="100" rx="10" fill="#FCF2DD"/>
<path d="M66.2012 27.1454C65.3388 27.1454 64.4962 27.31 63.693 27.6369C60.2851 29.015 58.6393 32.9123 60.0196 36.3333C61.0488 38.8613 63.478 40.4939 66.2122 40.4939C67.068 40.4939 67.9041 40.3315 68.6985 40.0089C70.3574 39.3375 71.6521 38.0647 72.3455 36.4211C73.0434 34.7775 73.0609 32.9693 72.3916 31.3169C71.369 28.7824 68.9311 27.1454 66.2012 27.1454ZM69.3699 35.1549C69.0079 36.002 68.3386 36.6603 67.4871 37.007C67.0768 37.1694 66.6467 37.255 66.2144 37.255C64.8012 37.255 63.5482 36.4145 63.0237 35.111C62.3106 33.3533 63.1598 31.3433 64.9109 30.6345C65.3235 30.4677 65.7602 30.3821 66.2012 30.3821C67.61 30.3821 68.8652 31.227 69.3963 32.5282C69.7364 33.3775 69.7276 34.3101 69.3699 35.1549Z" fill="#FFD039"/>
<path d="M37.8401 52.4335C32.4836 52.4335 28.1211 56.7915 28.1211 62.1546C28.1211 67.5046 32.4814 71.8583 37.8401 71.8583C43.1944 71.8583 47.5525 67.5046 47.5525 62.1546C47.5525 56.7937 43.1944 52.4335 37.8401 52.4335ZM37.8401 68.6215C34.2676 68.6215 31.3578 65.7205 31.3578 62.1546C31.3578 58.58 34.2676 55.6724 37.8401 55.6724C41.4126 55.6724 44.3157 58.58 44.3157 62.1546C44.3157 65.7205 41.4126 68.6215 37.8401 68.6215Z" fill="#FFD039"/>
<path d="M57.9303 58.1083L53.9519 56.6534C53.7193 55.9666 53.4406 55.2973 53.1202 54.6433L54.8999 50.7944C55.3234 49.8837 55.1786 48.7997 54.5312 48.0404C53.7522 47.1144 52.881 46.2454 51.9484 45.4576C51.4832 45.0648 50.8907 44.8454 50.2763 44.8454C49.9098 44.8454 49.5543 44.9222 49.2186 45.0692C49.212 45.0736 49.2032 45.078 49.1944 45.0824L45.3455 46.8664C44.7003 46.5504 44.0288 46.2717 43.342 46.0413L41.8717 42.0453C41.525 41.1127 40.6582 40.4566 39.6664 40.371C38.4617 40.2657 37.2174 40.2657 36.0149 40.371C35.0208 40.4566 34.154 41.1127 33.8029 42.0541L32.3437 46.0325C31.6612 46.2673 30.9897 46.546 30.3358 46.8664L26.4802 45.0824C26.4737 45.078 26.4671 45.0736 26.4605 45.0692C26.1226 44.9244 25.7671 44.8454 25.4006 44.8454C24.784 44.8454 24.1893 45.067 23.7263 45.4598C22.7915 46.252 21.9247 47.121 21.1522 48.0316C20.5027 48.7909 20.3557 49.8705 20.7748 50.79L22.5589 54.639C22.2429 55.2841 21.9642 55.9556 21.7316 56.6446L17.7465 58.1083C16.8073 58.4528 16.1468 59.3218 16.0591 60.329C15.9647 61.5359 15.9647 62.756 16.0591 63.9673C16.1446 64.9658 16.8051 65.8348 17.7443 66.1771L21.7272 67.643C21.9598 68.3276 22.2385 68.9969 22.5589 69.6464L20.7726 73.5152C20.3601 74.4127 20.5049 75.4835 21.1435 76.256C21.9225 77.1798 22.7958 78.051 23.7329 78.8453C23.7394 78.8497 23.7438 78.8541 23.7482 78.8585C24.2134 79.2425 24.7993 79.4488 25.4006 79.4488C25.778 79.4488 26.1555 79.3654 26.4846 79.2096L30.3248 77.4256C30.97 77.746 31.6437 78.0224 32.3371 78.2594L33.8029 82.2423C34.154 83.1925 35.0252 83.8486 36.0237 83.921C36.6359 83.9715 37.2481 84 37.8384 84C38.4309 84 39.041 83.9715 39.6554 83.921C40.6539 83.8508 41.525 83.1925 41.8739 82.2379L43.3354 78.266C44.0157 78.0312 44.6872 77.7481 45.3411 77.4322L49.2142 79.2228C49.5477 79.3698 49.9032 79.4466 50.2719 79.4466C50.8688 79.4466 51.4569 79.2403 51.9199 78.8607C51.9287 78.8563 51.9374 78.8475 51.9462 78.8388C52.8766 78.051 53.7456 77.182 54.5224 76.2669C55.1786 75.5077 55.3278 74.4192 54.8999 73.5086L53.1202 69.653C53.4384 68.9991 53.7149 68.3276 53.9475 67.6408L57.9303 66.1793C58.8717 65.8326 59.5301 64.9636 59.6178 63.9651C59.7144 62.7582 59.7144 61.5338 59.6156 60.3137C59.5322 59.3218 58.8673 58.455 57.9303 58.1083ZM56.4206 63.2849L52.0823 64.8846C51.5973 65.0645 51.2243 65.4617 51.0838 65.9577C50.7985 66.9539 50.3992 67.9238 49.8988 68.8345C49.6487 69.2844 49.6311 69.8286 49.8484 70.2982L51.786 74.4873C51.2813 75.0556 50.7371 75.5954 50.1688 76.1002L45.9775 74.1559C45.5122 73.9409 44.968 73.9628 44.516 74.2064C43.5943 74.7155 42.6244 75.1171 41.6391 75.4089C41.1432 75.5472 40.746 75.918 40.5683 76.403L38.9839 80.7238C38.2071 80.7742 37.472 80.7742 36.6974 80.7238L35.102 76.3942C34.9221 75.9092 34.5249 75.5384 34.0312 75.3958C33.013 75.1039 32.0452 74.7001 31.1587 74.2064C30.7045 73.954 30.1602 73.9321 29.6906 74.1515L25.5037 76.0914C24.9288 75.5867 24.389 75.0403 23.8909 74.4829L25.8285 70.285C26.0458 69.8154 26.0238 69.2734 25.7736 68.8213C25.2689 67.9063 24.8674 66.9429 24.5843 65.9511C24.4416 65.4551 24.0708 65.0514 23.5836 64.8758L19.2563 63.2849C19.2124 62.5256 19.2124 61.7598 19.2563 61.0049L23.5924 59.4096C24.0752 59.234 24.4438 58.8325 24.5909 58.3409C24.8827 57.3249 25.2821 56.3594 25.778 55.464C26.0282 55.0098 26.0501 54.4656 25.8329 53.9982L23.8952 49.8157C24.3956 49.2517 24.9376 48.7119 25.5125 48.1984L29.7038 50.1382C30.1712 50.3577 30.7154 50.3357 31.1675 50.0878C32.0847 49.5787 33.0503 49.1771 34.0356 48.8962C34.5337 48.7536 34.9331 48.3827 35.1108 47.8956L36.6974 43.566C37.4566 43.52 38.2247 43.52 38.9839 43.566L40.5792 47.9044C40.757 48.3959 41.1564 48.7668 41.6523 48.905C42.6573 49.1947 43.6251 49.5918 44.5248 50.0878C44.9746 50.3357 45.5188 50.3577 45.9884 50.1382L50.171 48.1984C50.7437 48.7031 51.2835 49.2451 51.7882 49.8157L49.8506 54.0114C49.6333 54.4788 49.6531 55.023 49.9032 55.4728C50.4058 56.3835 50.8073 57.349 51.0948 58.3497C51.2352 58.8434 51.6083 59.2428 52.0932 59.4184L56.4228 61.0049C56.4623 61.762 56.4623 62.53 56.4206 63.2849Z" fill="#FFD039"/>
<path d="M80.673 34.7248C80.7016 34.1981 80.7103 33.6649 80.6818 33.1317L83.2141 30.8297C83.9054 30.2065 84.1797 29.219 83.901 28.3128C83.5916 27.3143 83.201 26.3488 82.7336 25.4337C82.3166 24.6196 81.485 24.1127 80.5809 24.1127C80.5458 24.1127 80.5128 24.1127 80.4953 24.1127L77.0808 24.2268C76.7363 23.834 76.3588 23.4544 75.9639 23.0923L76.1262 19.669C76.1262 19.6559 76.1262 19.6383 76.1306 19.6229C76.1482 18.6903 75.6281 17.8192 74.8272 17.4088C73.9231 16.9326 72.9685 16.5288 71.9701 16.1953C71.7309 16.1207 71.4763 16.0768 71.2218 16.0768C70.5569 16.0768 69.9117 16.3555 69.4509 16.8448L67.1182 19.3443C66.5828 19.3113 66.0562 19.307 65.5229 19.3333L63.221 16.7944C62.7668 16.2897 62.1084 16 61.4238 16C61.1802 16 60.9388 16.0373 60.704 16.1097C59.7231 16.4169 58.7576 16.8031 57.8359 17.2728C56.9911 17.6963 56.4688 18.5828 56.5083 19.5132L56.6202 22.9321C56.2209 23.2876 55.8434 23.6584 55.4857 24.0512L52.0647 23.8867C51.1167 23.8406 50.2389 24.3475 49.8088 25.177C49.3305 26.0833 48.9223 27.0444 48.5953 28.0319C48.5931 28.0429 48.5888 28.056 48.5844 28.0648C48.3145 28.9535 48.558 29.9081 49.2471 30.5664L51.7443 32.8947C51.7092 33.4279 51.7048 33.9633 51.7311 34.4944L49.19 36.7963C48.501 37.4327 48.2355 38.4136 48.5076 39.2935C48.6546 39.7829 48.8257 40.2613 49.0298 40.7682C49.2361 41.2729 49.4468 41.7337 49.6706 42.1726C50.0831 42.9999 50.9126 43.509 51.8365 43.509C51.8628 43.509 51.8825 43.509 51.9177 43.5046L55.3256 43.3905C55.6767 43.7898 56.0541 44.1695 56.4491 44.5294L56.2845 47.9636C56.245 48.8918 56.7541 49.7718 57.5726 50.2041C58.4482 50.6693 59.4071 51.0774 60.4319 51.4198C60.6755 51.5031 60.9344 51.5426 61.1912 51.5426C61.8649 51.5426 62.51 51.2596 62.9621 50.7658L65.2925 48.2774C65.8235 48.3081 66.3546 48.3125 66.8922 48.2862L69.1898 50.8119C69.6506 51.321 70.3089 51.6107 70.9892 51.6107C71.2283 51.6107 71.4719 51.5778 71.7023 51.5053C72.6898 51.1981 73.6597 50.8075 74.5638 50.3467C75.4087 49.932 75.9353 49.0476 75.9046 48.0931L75.7905 44.6874C76.1877 44.3362 76.5673 43.9566 76.925 43.5638L80.3461 43.7284C80.3878 43.7328 80.4251 43.7328 80.4668 43.7328C81.3752 43.7328 82.1916 43.2347 82.6063 42.4381C83.0825 41.545 83.4906 40.5882 83.8198 39.5876C84.1116 38.7032 83.8637 37.7136 83.1768 37.064L80.673 34.7248ZM77.3968 32.6401C77.4912 33.4871 77.4824 34.3364 77.3792 35.1637C77.3134 35.6772 77.5043 36.1928 77.8796 36.5461L80.5699 39.0653C80.3921 39.5525 80.1925 40.0199 79.9708 40.4697L76.2952 40.2898C75.7773 40.2678 75.2836 40.4873 74.961 40.8867C74.4212 41.5538 73.809 42.155 73.1441 42.6773C72.7381 42.9955 72.5099 43.487 72.5274 44.0049L72.6525 47.6717C72.1917 47.8868 71.7155 48.0821 71.2349 48.251L68.7575 45.519C68.448 45.1833 68.0114 44.9924 67.5615 44.9924C67.5023 44.9924 67.4408 44.9924 67.386 45.0012C66.5236 45.0933 65.6721 45.0845 64.8536 44.9836C64.3445 44.9178 63.8245 45.1065 63.4733 45.4861L60.9586 48.1721C60.4648 47.9921 59.9974 47.788 59.5476 47.5752L59.7253 43.8952C59.7517 43.3773 59.5256 42.8836 59.1262 42.5588C58.4613 42.019 57.8645 41.4133 57.3488 40.755C57.0306 40.3424 56.5369 40.1142 56.0168 40.1274L52.3434 40.2547C52.2402 40.0265 52.1371 39.796 52.0362 39.5481C51.9374 39.3089 51.8496 39.0697 51.7662 38.8393L54.4939 36.3618C54.8757 36.0151 55.0732 35.5038 55.0139 34.9947C54.9262 34.1608 54.935 33.3006 55.0337 32.4448C55.0951 31.9357 54.9086 31.4244 54.5312 31.0711L51.843 28.5585C52.0186 28.0758 52.2161 27.6084 52.4399 27.1519L56.1265 27.3253C56.6422 27.3516 57.1359 27.1278 57.4607 26.7284C57.9874 26.0789 58.6018 25.4732 59.2733 24.9378C59.677 24.6196 59.9031 24.1324 59.8855 23.6168L59.7648 19.9411C60.2278 19.7283 60.704 19.5352 61.1824 19.3662L63.6555 22.0982C64.0044 22.4779 64.5113 22.671 65.0204 22.6205C65.863 22.5305 66.7232 22.5349 67.5747 22.6381C68.0838 22.6951 68.5973 22.5108 68.944 22.1333L71.4544 19.4518C71.9349 19.6273 72.4089 19.8314 72.8719 20.0487L72.6964 23.7243C72.6701 24.2378 72.8895 24.7315 73.2845 25.0563C73.967 25.6071 74.5616 26.2237 75.0707 26.8732C75.3911 27.277 75.8805 27.5052 76.3983 27.4921L80.0805 27.3692C80.2912 27.8278 80.4843 28.2996 80.6533 28.7889L77.9213 31.2664C77.5394 31.6153 77.3441 32.1244 77.3968 32.6401Z" fill="#FFD039"/>
</svg>
