<svg width="100" height="100" viewBox="0 0 100 100" fill="none" xmlns="http://www.w3.org/2000/svg">
<path d="M62.7059 79.25L72.4706 89L92 69.5M43.1765 89H24.6235C19.1548 89 16.4204 89 14.3316 87.9372C12.4943 87.0027 11.0004 85.511 10.0643 83.6765C9 81.591 9 78.8605 9 73.4V26.6C9 21.1395 9 18.4092 10.0643 16.3236C11.0004 14.489 12.4943 12.9974 14.3316 12.0627C16.4204 11 19.1548 11 24.6235 11H71.4941C76.9628 11 79.6975 11 81.7861 12.0627C83.6233 12.9974 85.1173 14.489 86.0533 16.3236C87.1176 18.4092 87.1176 21.1395 87.1176 26.6V50M23.6471 89C23.6471 87.3303 23.8152 85.7001 24.1354 84.125C26.3972 72.9993 36.2486 64.625 48.0588 64.625M57.8235 40.25C57.8235 45.6349 53.4519 50 48.0588 50C42.6658 50 38.2941 45.6349 38.2941 40.25C38.2941 34.8652 42.6658 30.5 48.0588 30.5C53.4519 30.5 57.8235 34.8652 57.8235 40.25Z" stroke="url(#paint0_linear_335_1445)" stroke-width="7" stroke-linecap="round" stroke-linejoin="round"/>
<defs>
<linearGradient id="paint0_linear_335_1445" x1="50.4998" y1="9.25366" x2="50.4998" y2="89.2721" gradientUnits="userSpaceOnUse">
<stop stop-color="#00EFD1"/>
<stop offset="1" stop-color="#00ACEA"/>
</linearGradient>
</defs>
</svg>
