<svg width="100" height="100" viewBox="0 0 100 100" fill="none" xmlns="http://www.w3.org/2000/svg">
<g clip-path="url(#clip0_335_1435)">
<path d="M61.112 53.25L58.9453 55.4444C59.4829 55.3336 59.9755 55.0661 60.3611 54.6755C60.7468 54.2849 61.008 53.7889 61.112 53.25Z" fill="url(#paint0_linear_335_1435)"/>
<path fill-rule="evenodd" clip-rule="evenodd" d="M30.7214 87.3612V87.5279C30.6333 87.977 30.5776 88.4319 30.5547 88.889H8.33247C7.59575 88.889 6.88921 88.5963 6.36828 88.0754C5.84735 87.5545 5.55469 86.8479 5.55469 86.1112V8.33344C5.55469 7.59673 5.84735 6.89019 6.36828 6.36926C6.88921 5.84832 7.59575 5.55566 8.33247 5.55566H69.4436C70.1803 5.55566 70.8868 5.84832 71.4078 6.36926C71.9287 6.89019 72.2214 7.59673 72.2214 8.33344V34.3334L66.6658 39.5834V11.1112H11.1102V83.5001H31.6102L30.7214 87.3612ZM58.3346 33.3332H19.4457C18.709 33.3332 18.0025 33.0405 17.4816 32.5196C16.9606 31.9986 16.668 31.2921 16.668 30.5554V19.4443C16.668 18.7076 16.9606 18.001 17.4816 17.4801C18.0025 16.9592 18.709 16.6665 19.4457 16.6665H58.3346C59.0713 16.6665 59.7779 16.9592 60.2988 17.4801C60.8198 18.001 61.1124 18.7076 61.1124 19.4443V30.5554C61.1124 31.2921 60.8198 31.9986 60.2988 32.5196C59.7779 33.0405 59.0713 33.3332 58.3346 33.3332ZM22.2235 27.7776H55.5569V22.0554H22.2235V27.7776ZM58.3346 39.1113H19.4457C18.709 39.1113 18.0025 39.404 17.4816 39.9249C16.9606 40.4459 16.668 41.1524 16.668 41.8891V52.778C16.668 53.5147 16.9606 54.2212 17.4816 54.7422C18.0025 55.2631 18.709 55.5558 19.4457 55.5558H51.0013L61.1124 45.278V41.8891C61.1124 41.1524 60.8198 40.4459 60.2988 39.9249C59.7779 39.404 59.0713 39.1113 58.3346 39.1113ZM55.5569 50.0002H22.2235V44.4447H55.5569V50.0002ZM16.668 74.8335C16.668 75.5703 16.9606 76.2768 17.4816 76.7977C18.0025 77.3187 18.709 77.6113 19.4457 77.6113H32.8902L33.7235 74.0002L34.0846 72.4724V72.3336H22.2235V66.6669H39.8346L45.3902 61.1113H19.4457C18.709 61.1113 18.0025 61.404 17.4816 61.9249C16.9606 62.4459 16.668 63.1524 16.668 63.8891V74.8335ZM83.6652 36.9446L93.0263 46.3057V46.4724C93.4421 46.8854 93.772 47.3766 93.9972 47.9177C94.2223 48.4588 94.3382 49.0391 94.3382 49.6251C94.3382 50.2112 94.2223 50.7915 93.9972 51.3326C93.772 51.8736 93.4421 52.3649 93.0263 52.7779L54.9708 90.9168L41.4986 93.889C41.1582 93.9445 40.8111 93.9445 40.4708 93.889C40.1845 93.9178 39.896 93.9178 39.6097 93.889C39.033 93.773 38.4848 93.5443 37.9966 93.2161C37.5084 92.8879 37.0897 92.4666 36.7646 91.9763C36.4395 91.4861 36.2143 90.9365 36.1019 90.359C35.9895 89.7816 35.9922 89.1877 36.1097 88.6113L39.2486 75.2501L77.3319 36.9446C77.7473 36.528 78.2409 36.1975 78.7843 35.972C79.3277 35.7465 79.9102 35.6304 80.4986 35.6304C81.0869 35.6304 81.6694 35.7465 82.2128 35.972C82.7562 36.1975 83.2498 36.528 83.6652 36.9446ZM41.9708 88.1113L52.1375 85.8613L80.8319 57.0001L72.9986 49.1668L44.443 78.0279L41.9708 88.1113ZM76.1375 46.0279L83.9708 53.8613L88.443 49.5557L80.5541 41.6668L76.1375 46.0279Z" fill="url(#paint1_linear_335_1435)"/>
</g>
<defs>
<linearGradient id="paint0_linear_335_1435" x1="60.0286" y1="53.2009" x2="60.0286" y2="55.4521" gradientUnits="userSpaceOnUse">
<stop stop-color="#00EFD1"/>
<stop offset="1" stop-color="#00ACEA"/>
</linearGradient>
<linearGradient id="paint1_linear_335_1435" x1="49.9462" y1="3.57703" x2="49.9462" y2="94.2389" gradientUnits="userSpaceOnUse">
<stop stop-color="#00EFD1"/>
<stop offset="1" stop-color="#00ACEA"/>
</linearGradient>
<clipPath id="clip0_335_1435">
<rect width="100" height="100" fill="white"/>
</clipPath>
</defs>
</svg>
