<svg width="100" height="100" viewBox="0 0 100 100" fill="none" xmlns="http://www.w3.org/2000/svg">
<g clip-path="url(#clip0_355_2903)">
<path d="M100.889 59.4275L89.2603 30.4833C88.8811 29.5985 88.2492 28.9665 87.3644 28.5874C86.4797 28.2082 85.4685 28.2082 84.5837 28.5874L75.4834 32.632C73.9666 33.264 73.0819 35.0335 73.4611 36.5502L71.0596 37.9405C70.3012 38.4461 69.29 38.5725 68.2789 38.4461L51.4685 35.9182C48.5614 35.539 45.5279 36.4238 43.3792 38.4461L42.1153 39.5837H32.7621C32.3829 39.5837 31.8774 39.4573 31.6246 39.2045L30.7398 38.6989C31.3718 37.3086 30.8662 35.6654 29.7287 34.6543L22.6506 29.0929C21.8922 28.461 21.0075 28.2082 19.9963 28.3346C19.1116 28.461 18.2268 28.9665 17.5948 29.7249L0.658003 52.7287C-0.353151 54.2454 -0.100362 56.3941 1.28997 57.5316L8.36805 63.093C9.00002 63.5986 9.75838 63.8513 10.5167 63.8513C10.6431 63.8513 10.8959 63.8513 11.0223 63.8513C11.9071 63.725 12.7918 63.2194 13.2974 62.461V62.3346L14.3086 63.093C14.9405 63.4722 15.1933 64.2305 15.1933 64.9889V69.1599L12.5391 72.5725C10.1376 75.606 10.7695 80.0298 13.803 82.3049C15.0669 83.3161 16.5837 83.8216 18.1004 83.8216C18.3532 83.8216 18.7324 83.8216 18.9852 83.8216C19.2379 83.8216 19.6171 83.6952 19.8699 83.5688C19.8699 83.6952 19.8699 83.6952 19.8699 83.8216C19.8699 85.8439 20.7547 87.7399 22.3978 89.0038C23.6617 90.0149 25.0521 90.3941 26.5688 90.3941C27.4536 90.3941 28.3383 90.1413 29.2231 89.8885V90.0149C29.4759 91.6581 30.3606 93.0484 31.4982 94.0596L31.751 94.3123C32.7621 95.0707 34.0261 95.5763 35.4164 95.5763C35.6692 95.5763 36.0484 95.5763 36.3012 95.4499C36.9331 95.3235 37.5651 95.0707 38.1971 94.8179C38.5763 96.4611 39.461 97.9778 40.8514 98.8625L41.1041 98.9889C42.1153 99.6209 43.2528 100 44.5168 100C44.896 100 45.4015 100 45.7807 99.8737C47.4239 99.4945 48.8142 98.6097 49.6989 97.2194L49.9517 96.8402C51.0893 97.725 52.3532 98.1042 53.7436 98.1042C55.3867 98.1042 57.0298 97.4722 58.1674 96.2083C59.4313 94.9443 60.1897 93.0484 60.0633 91.2789C60.0633 91.1525 60.0633 91.0261 60.0633 90.8997C61.8328 91.1525 63.8551 90.6469 65.2454 89.2566C66.5094 87.9926 67.1413 86.2231 67.015 84.4536C67.015 84.2008 67.015 83.948 66.8886 83.8216C68.9109 83.948 70.9332 83.0633 72.4499 81.4201C73.7138 80.0298 74.2194 78.1339 73.9666 76.238C73.9666 76.1116 73.9666 75.9852 73.9666 75.8588C75.8625 76.1116 77.7585 75.3532 79.1488 74.0893C80.6655 72.5725 81.2975 70.4238 80.7919 68.2751C80.9183 68.2751 80.9183 68.2751 81.0447 68.2751L86.1005 67.5168C86.7324 68.1487 87.6172 68.4015 88.502 68.4015C89.0075 68.4015 89.5131 68.2751 89.8923 68.1487L98.9927 64.1041C100.762 63.2194 101.521 61.1971 100.889 59.4275ZM21.6394 79.5242C20.8811 80.409 19.8699 81.041 18.8588 81.1673C17.7212 81.2937 16.5837 81.041 15.6989 80.2826C13.803 78.8923 13.5502 76.1116 14.9405 74.2157L19.9963 67.7696C20.8811 66.632 22.145 66.1264 23.409 66.1264C24.2937 66.1264 25.3049 66.3792 26.0632 67.0112C27.0744 67.896 27.7064 69.0335 27.7064 70.4238C27.7064 71.435 27.4536 72.3198 26.8216 73.0781L21.6394 79.5242ZM29.7287 86.3495C28.3383 87.9926 25.9368 88.2454 24.1673 86.9815C23.2826 86.2231 22.6506 85.0856 22.6506 83.948C22.6506 83.0633 22.9034 82.1785 23.5354 81.5465L28.5911 75.1004C29.2231 74.2157 30.1079 73.7101 31.2454 73.5837C31.3718 73.5837 31.4982 73.5837 31.751 73.5837C32.6357 73.5837 33.5205 73.8365 34.2789 74.5949C35.922 75.9852 36.1748 78.3867 34.9108 80.1562L29.7287 86.3495ZM38.1971 91.2789C37.6915 92.0373 36.9331 92.5428 36.0484 92.5428C35.1636 92.6692 34.2789 92.4164 33.6469 92.0372L33.3941 91.7845C32.6357 91.2789 32.1302 90.3941 32.0038 89.5094C31.8774 88.6246 32.1302 87.6134 32.7621 86.9815L36.554 82.3049C37.1859 81.4201 38.1971 81.041 39.2082 81.041C39.9666 81.041 40.5986 81.2937 41.2305 81.6729C42.1153 82.3049 42.6209 83.3161 42.6209 84.3272C42.6209 84.9592 42.3681 85.7175 41.9889 86.2231C41.9889 86.2231 41.9889 86.3495 41.8625 86.3495L41.7361 86.6023L38.1971 91.2789ZM49.3198 92.7956L47.4239 95.5763C46.9183 96.3347 46.1599 96.9666 45.1488 97.093C44.264 97.2194 43.2528 97.093 42.4945 96.5874L42.2417 96.461C41.4833 95.9555 40.8514 95.0707 40.725 94.186C40.5986 93.1748 40.725 92.29 41.3569 91.5317C42.2417 90.2677 43.3792 88.8774 43.7584 88.3718C43.8848 88.2454 43.8848 88.2454 44.0112 88.119C44.0112 88.119 44.0112 88.119 44.1376 88.119C44.264 88.119 44.264 87.9926 44.3904 87.8662C45.5279 87.2343 47.0447 87.2343 48.1822 87.8662C49.1934 88.4982 49.8253 89.6358 49.8253 90.8997C49.8253 91.5317 49.6989 92.1637 49.3198 92.7956ZM77.2529 71.9406C75.9889 73.2045 73.8402 73.3309 72.4499 72.3198L63.4759 65.7473L59.9369 63.2194C59.4313 62.7138 58.5465 62.8402 58.1674 63.4722C57.7882 64.1041 57.9146 64.8625 58.4201 65.3681L64.4871 69.9183L69.6692 73.7101C70.554 74.3421 71.186 75.3532 71.3124 76.4908C71.4388 77.6283 71.186 78.7659 70.4276 79.6506C69.0373 81.1674 66.7622 81.5465 64.9926 80.2826L54.2491 72.5725C53.6172 72.067 52.8588 72.3198 52.3532 72.8253C51.974 73.4573 52.1004 74.2157 52.606 74.7212L62.8439 82.0521C63.6023 82.6841 64.1079 83.5688 64.2343 84.4536C64.3607 85.4647 63.9815 86.3495 63.2231 87.1079C62.0856 88.2454 60.1897 88.3718 58.7993 87.3607L48.6878 79.5242C48.0558 79.0187 47.2975 79.145 46.7919 79.777C46.2863 80.409 46.4127 81.1674 47.0447 81.6729L55.8923 88.6246C56.777 89.2566 57.2826 90.2677 57.2826 91.2789C57.409 92.4164 57.0298 93.4276 56.2714 94.186C55.0075 95.4499 52.8588 95.5763 51.4685 94.5651C51.4685 94.5651 51.3421 94.4387 51.3421 94.3123C51.974 93.3012 52.3532 92.1637 52.3532 90.8997C52.3532 88.751 51.3421 86.8551 49.5726 85.5911C48.1822 84.7064 46.5391 84.4536 45.0224 84.7064C45.0224 84.58 45.0224 84.4536 45.0224 84.3272C45.0224 82.4313 44.1376 80.5354 42.6209 79.3978C41.2305 78.3867 39.7138 78.0075 38.1971 78.2603C38.4499 75.9852 37.6915 73.7101 35.6692 72.067C34.2789 70.9294 32.5093 70.4238 30.7398 70.6766C30.487 70.6766 30.2342 70.803 30.1078 70.803C30.1078 70.6766 30.1078 70.4238 30.1078 70.2975C30.1078 68.1488 29.0967 66.1264 27.4536 64.7361C24.9257 62.7138 21.3867 62.8402 18.8588 64.7361C18.8588 64.7361 18.8588 64.8625 18.7324 64.8625C18.606 64.9889 18.4796 65.1153 18.2268 65.2417C18.1004 65.3681 17.974 65.4945 17.8476 65.6209V64.8625C17.8476 63.2194 17.0892 61.7026 15.8253 60.8179L14.9405 60.1859L16.9629 57.5316L19.4907 54.119L20.2491 53.1078L20.3755 52.9814L29.2231 40.8476L29.8551 41.3532C30.6134 41.9851 31.751 42.4907 32.7621 42.4907H39.2082L35.4164 46.0298C34.5316 46.9145 34.0261 48.0521 34.0261 49.1896C34.0261 50.9591 35.0372 52.4759 36.554 53.2342C40.3458 55.1301 44.896 55.0037 48.6878 52.9814L50.3309 52.0967C51.8476 51.3383 53.7436 51.4647 55.1339 52.6023L70.9332 65.2417C71.8179 66 72.8291 66.5056 73.8402 67.0112C74.2194 67.1376 74.4722 67.264 74.8514 67.3904C75.1042 67.5168 75.4834 67.6432 75.6098 67.6432C75.9889 67.7696 76.2417 67.7696 76.6209 67.896C77.0001 68.0224 77.3793 68.0224 77.7585 68.0224C77.8848 68.0224 78.0112 68.0224 78.264 68.0224H78.1376C78.6432 69.5391 78.264 70.9294 77.2529 71.9406ZM80.7919 65.4945C80.2863 65.6209 79.7808 65.6209 79.0224 65.6209C78.7696 65.6209 78.5168 65.6209 78.1376 65.6209C77.8849 65.6209 77.5057 65.4945 77.2529 65.4945C77.0001 65.4945 76.8737 65.3681 76.4945 65.3681C76.2417 65.3681 76.1153 65.2417 75.8625 65.1153C75.6098 64.9889 75.2306 64.8625 74.9778 64.7361C74.2194 64.3569 73.4611 63.8513 72.7027 63.3458L57.6618 51.3383L56.9034 50.58C55.6395 49.5688 54.1227 49.0632 52.4796 49.0632C51.3421 49.0632 50.2045 49.316 49.1934 49.8216L47.5502 50.7063C44.5168 52.3495 40.8514 52.3495 37.8179 50.8327C37.0595 50.4536 36.8067 49.8216 36.8067 49.1896C36.8067 48.8104 36.9331 48.3049 37.3123 47.9257L45.1488 40.4684C46.6655 38.9517 48.8142 38.3197 50.9629 38.5725L67.7733 41.1004C69.29 41.3532 70.9332 40.974 72.1971 40.2156L74.2194 39.0781L77.5057 47.2937L84.7101 64.8625L80.7919 65.4945Z" fill="#FFCE02"/>
<path d="M50.5833 0.148682C41.7357 0.148682 34.5312 7.35315 34.5312 16.2007C34.5312 25.0483 41.7357 32.2528 50.5833 32.2528C59.4309 32.2528 66.6354 25.0483 66.6354 16.2007C66.6354 7.35315 59.4309 0.148682 50.5833 0.148682ZM57.0294 13.2937L49.193 21.1301C48.9402 21.3829 48.561 21.5093 48.1818 21.5093C47.8026 21.5093 47.4235 21.3829 47.1707 21.1301L44.0108 17.9703C43.5052 17.4647 43.5052 16.5799 44.0108 16.0743C44.5164 15.5688 45.4011 15.5688 45.9067 16.0743L48.1818 18.3494L55.1335 11.3978C55.6391 10.8922 56.5238 10.8922 57.0294 11.3978C57.535 11.9033 57.535 12.7881 57.0294 13.2937Z" fill="#FFCE02"/>
</g>
<defs>
<clipPath id="clip0_355_2903">
<rect width="100" height="100" fill="white"/>
</clipPath>
</defs>
</svg>
