<svg width="100" height="100" viewBox="0 0 100 100" fill="none" xmlns="http://www.w3.org/2000/svg">
<rect width="100" height="100" rx="10" fill="#E0EFE4"/>
<path d="M71.7506 57.5686L64.0246 63.3461C62.4564 61.3908 59.949 60.4436 57.4793 60.8733L49.6511 62.2427C48.3908 62.4616 47.0979 62.3939 45.8671 62.0451L44.9914 61.796C40.4691 60.4975 35.5968 61.5363 31.9973 64.5662L31.6416 62.5312C31.55 62.0068 31.0507 61.6561 30.5269 61.7477L21.9421 63.2495C21.4177 63.3411 21.067 63.8404 21.1593 64.3649L24.4539 83.2018C24.4978 83.454 24.6402 83.6779 24.8491 83.8253C25.0586 83.9721 25.3177 84.0298 25.5692 83.9853L34.1534 82.4835C34.6772 82.3919 35.0278 81.8926 34.9362 81.3688L34.7593 80.3594L36.8012 78.7015C37.6029 78.034 38.633 77.704 39.6737 77.7824L53.6715 78.8056C53.6928 78.8075 53.7148 78.8081 53.7355 78.8081C56.8344 78.8188 59.8562 77.8395 62.3598 76.0128C62.3961 75.9858 62.4313 75.9563 62.4639 75.9243L79.1372 59.5986C79.5016 59.2423 79.5249 58.6632 79.1911 58.2781C77.2979 56.0938 74.0227 55.7814 71.7506 57.5686ZM26.1865 81.9202L23.2231 64.9815L29.9096 63.8122L32.8724 80.7509L26.1865 81.9202ZM61.1666 74.4985C59.0174 76.0517 56.4317 76.886 53.7794 76.881L39.8142 75.8604C38.2811 75.7443 36.7623 76.2286 35.5792 77.211L34.3798 78.1852L32.3919 66.8208C35.5303 63.6309 40.163 62.4139 44.4638 63.6491L45.3396 63.8982C46.8495 64.326 48.4366 64.4088 49.9835 64.1403L57.8111 62.7709C60.1353 62.3681 62.4206 63.6592 63.2756 65.8573L51.4496 67.9255C50.9258 68.0171 50.5751 68.5164 50.6667 69.0409C50.7583 69.5653 51.2576 69.916 51.782 69.8237L64.6494 67.573C65.1739 67.4814 65.5245 66.982 65.4323 66.4576C65.3458 65.9626 65.2046 65.4784 65.012 65.0141L72.9143 59.1042C72.9205 59.0992 72.9274 59.0942 72.9343 59.0886C74.1287 58.1432 75.798 58.0817 77.0583 58.9368L61.1666 74.4985Z" fill="#00B26B"/>
<path d="M56.0094 25.7729C56.4654 25.7729 56.8353 25.403 56.8353 24.9471V16.8262C56.8353 16.3703 56.4654 16.0004 56.0094 16.0004C55.5535 16.0004 55.1836 16.3703 55.1836 16.8262V24.9471C55.1836 25.403 55.5535 25.7729 56.0094 25.7729Z" fill="#00B26B"/>
<path d="M61.3805 25.7722C61.8365 25.7722 62.2064 25.4023 62.2064 24.9464V19.4407C62.2064 18.9848 61.8365 18.6149 61.3805 18.6149C60.9246 18.6149 60.5547 18.9848 60.5547 19.4407V24.9464C60.5547 25.4023 60.9246 25.7722 61.3805 25.7722Z" fill="#00B26B"/>
<path d="M50.779 25.7722C51.2349 25.7722 51.6048 25.4023 51.6048 24.9464V19.4407C51.6048 18.9848 51.2349 18.6149 50.779 18.6149C50.323 18.6149 49.9531 18.9848 49.9531 19.4407V24.9464C49.9531 25.4023 50.323 25.7722 50.779 25.7722Z" fill="#00B26B"/>
<path d="M65.2321 27.1499C65.688 27.1499 66.058 26.78 66.058 26.3241V22.0572C66.058 21.6012 65.688 21.2313 65.2321 21.2313C64.7762 21.2313 64.4062 21.6012 64.4062 22.0572V26.3241C64.4062 26.78 64.7762 27.1499 65.2321 27.1499Z" fill="#00B26B"/>
<path d="M46.7868 27.1499C47.2427 27.1499 47.6126 26.78 47.6126 26.3241V22.0572C47.6126 21.6012 47.2427 21.2313 46.7868 21.2313C46.3308 21.2313 45.9609 21.6012 45.9609 22.0572V26.3241C45.9609 26.78 46.3308 27.1499 46.7868 27.1499Z" fill="#00B26B"/>
<path d="M56.0091 29.0918C53.1155 29.0918 50.2869 29.9498 47.881 31.5574C45.4751 33.165 43.5999 35.4499 42.4926 38.1233C41.3852 40.7966 41.0955 43.7382 41.66 46.5762C42.2245 49.4142 43.6179 52.021 45.664 54.0671C47.7101 56.1132 50.3169 57.5066 53.1549 58.0711C55.9929 58.6356 58.9345 58.3458 61.6078 57.2385C64.2811 56.1312 66.5661 54.256 68.1736 51.8501C69.7812 49.4442 70.6393 46.6156 70.6393 43.722C70.6349 39.8432 69.0921 36.1244 66.3494 33.3817C63.6066 30.6389 59.8879 29.0962 56.0091 29.0918ZM56.0091 56.2272C53.5358 56.2272 51.1181 55.4938 49.0616 54.1197C47.0051 52.7456 45.4023 50.7925 44.4558 48.5075C43.5093 46.2225 43.2617 43.7081 43.7442 41.2823C44.2267 38.8566 45.4177 36.6284 47.1666 34.8795C48.9155 33.1306 51.1437 31.9396 53.5695 31.4571C55.9952 30.9746 58.5096 31.2222 60.7946 32.1687C63.0796 33.1152 65.0327 34.718 66.4068 36.7745C67.7809 38.8309 68.5143 41.2487 68.5143 43.722C68.5105 47.0374 67.1918 50.216 64.8474 52.5603C62.5031 54.9047 59.3245 56.2234 56.0091 56.2272Z" fill="#00B26B"/>
<path d="M60.6711 37.6127C60.9529 37.6127 61.2231 37.5007 61.4224 37.3015C61.6216 37.1022 61.7336 36.832 61.7336 36.5502C61.7336 36.2684 61.6216 35.9981 61.4224 35.7989C61.2231 35.5996 60.9529 35.4877 60.6711 35.4877H51.3477C51.0659 35.4877 50.7956 35.5996 50.5964 35.7989C50.3971 35.9981 50.2852 36.2684 50.2852 36.5502C50.2852 36.832 50.3971 37.1022 50.5964 37.3015C50.7956 37.5007 51.0659 37.6127 51.3477 37.6127H54.0156C54.6046 37.6171 55.1791 37.7961 55.6664 38.1271C56.1537 38.458 56.5319 38.9261 56.7531 39.472H51.3477C51.0659 39.472 50.7956 39.584 50.5964 39.7832C50.3971 39.9825 50.2852 40.2527 50.2852 40.5345C50.2852 40.8163 50.3971 41.0866 50.5964 41.2858C50.7956 41.4851 51.0659 41.597 51.3477 41.597H56.7531C56.3262 42.7923 55.2603 43.4564 54.0151 43.4564H51.3477C51.133 43.4624 50.925 43.5315 50.7495 43.6551C50.5739 43.7788 50.4388 43.9514 50.3609 44.1515C50.283 44.3516 50.2659 44.5701 50.3116 44.7799C50.3573 44.9897 50.4639 45.1813 50.618 45.3308L57.2859 51.6384C57.3865 51.7369 57.5056 51.8145 57.6363 51.8665C57.7671 51.9185 57.9069 51.944 58.0476 51.9414C58.1884 51.9389 58.3272 51.9083 58.4559 51.8515C58.5847 51.7948 58.7009 51.713 58.7978 51.6109C58.8946 51.5087 58.9702 51.3884 59.02 51.2568C59.0699 51.1251 59.0931 50.9849 59.0882 50.8443C59.0833 50.7036 59.0505 50.5653 58.9916 50.4375C58.9327 50.3097 58.849 50.1948 58.7453 50.0997L54.0188 45.6153C55.1764 45.6046 56.2962 45.2012 57.1947 44.4713C58.0933 43.7413 58.7175 42.7279 58.9651 41.597H60.6711C60.9529 41.597 61.2231 41.4851 61.4224 41.2858C61.6216 41.0866 61.7336 40.8163 61.7336 40.5345C61.7336 40.2527 61.6216 39.9825 61.4224 39.7832C61.2231 39.584 60.9529 39.472 60.6711 39.472H58.9651C58.8194 38.8016 58.5366 38.1685 58.1344 37.6127H60.6711Z" fill="#00B26B"/>
</svg>
