<svg width="100" height="100" viewBox="0 0 100 100" fill="none" xmlns="http://www.w3.org/2000/svg">
<path d="M46.5685 13.6831L17 25.8077V55.6923C17 71.7067 50 87 50 87C50 87 83 71.7067 83 55.6923V25.8077L53.4315 13.6831C52.3442 13.2322 51.1779 13 50 13C48.8221 13 47.6558 13.2322 46.5685 13.6831Z" stroke="#00B26B" stroke-width="3" stroke-linecap="round" stroke-linejoin="round"/>
<path d="M65.9401 40.125H34.0859C32.8778 40.125 31.8984 41.1044 31.8984 42.3125V65.8542C31.8984 67.0623 32.8778 68.0417 34.0859 68.0417H65.9401C67.1482 68.0417 68.1276 67.0623 68.1276 65.8542V42.3125C68.1276 41.1044 67.1482 40.125 65.9401 40.125Z" stroke="#00B26B" stroke-width="3" stroke-linecap="round" stroke-linejoin="round"/>
<path d="M38.0234 40.125V35.1042C38.0234 31.9271 39.2855 28.8801 41.5321 26.6336C43.7786 24.3871 46.8255 23.125 50.0026 23.125C53.1797 23.125 56.2266 24.3871 58.4732 26.6336C60.7197 28.8801 61.9818 31.9271 61.9818 35.1042V40.125" stroke="#00B26B" stroke-width="3" stroke-linecap="round" stroke-linejoin="round"/>
<path d="M49.9974 58.7292C52.5632 58.7292 54.6432 56.6492 54.6432 54.0833C54.6432 51.5175 52.5632 49.4375 49.9974 49.4375C47.4316 49.4375 45.3516 51.5175 45.3516 54.0833C45.3516 56.6492 47.4316 58.7292 49.9974 58.7292Z" stroke="#00B26B" stroke-width="3" stroke-linecap="round" stroke-linejoin="round"/>
</svg>
