<svg width="56" height="56" viewBox="0 0 56 56" fill="none" xmlns="http://www.w3.org/2000/svg">
<path d="M18.6693 25.6663C25.1126 25.6663 30.3359 20.443 30.3359 13.9997C30.3359 7.55635 25.1126 2.33301 18.6693 2.33301C12.2259 2.33301 7.0026 7.55635 7.0026 13.9997C7.0026 20.443 12.2259 25.6663 18.6693 25.6663ZM18.6693 25.6663C23.3651 25.6663 27.4703 27.4383 30.3905 30.3878C32.0917 32.1061 33.3907 34.224 34.17 36.624M18.6693 25.6663C9.33594 25.6663 2.33594 32.6663 2.33594 41.9997V53.6663H25.6693M28.0026 43.9212L36.9827 50.7284C37.4232 51.0622 38.0508 50.9755 38.3843 50.5348L53.6693 30.333" stroke="#00B26B" stroke-width="4" stroke-linecap="round" stroke-linejoin="round"/>
</svg>
