<svg width="100" height="100" viewBox="0 0 100 100" fill="none" xmlns="http://www.w3.org/2000/svg">
<path d="M14.582 15.6252C14.582 15.3489 14.6918 15.0839 14.8871 14.8886C15.0825 14.6932 15.3474 14.5835 15.6237 14.5835H71.8737C72.15 14.5835 72.4149 14.6932 72.6103 14.8886C72.8056 15.0839 72.9154 15.3489 72.9154 15.6252V57.2918C72.9154 58.1206 73.2446 58.9155 73.8307 59.5015C74.4167 60.0876 75.2116 60.4168 76.0404 60.4168C76.8692 60.4168 77.664 60.0876 78.2501 59.5015C78.8361 58.9155 79.1654 58.1206 79.1654 57.2918V15.6252C79.1654 13.6913 78.3971 11.8366 77.0297 10.4692C75.6622 9.10172 73.8076 8.3335 71.8737 8.3335H15.6237C13.6898 8.3335 11.8352 9.10172 10.4677 10.4692C9.10026 11.8366 8.33203 13.6913 8.33203 15.6252V84.3752C8.33203 88.4002 11.5987 91.6668 15.6237 91.6668H44.7904C45.6192 91.6668 46.414 91.3376 47.0001 90.7515C47.5861 90.1655 47.9154 89.3706 47.9154 88.5418C47.9154 87.713 47.5861 86.9182 47.0001 86.3321C46.414 85.7461 45.6192 85.4168 44.7904 85.4168H15.6237C15.3474 85.4168 15.0825 85.3071 14.8871 85.1117C14.6918 84.9164 14.582 84.6514 14.582 84.3752V15.6252Z" fill="url(#paint0_linear_335_1430)"/>
<path d="M26.043 29.1665C25.2142 29.1665 24.4193 29.4957 23.8333 30.0818C23.2472 30.6678 22.918 31.4627 22.918 32.2915C22.918 33.1203 23.2472 33.9152 23.8333 34.5012C24.4193 35.0873 25.2142 35.4165 26.043 35.4165H61.4596C62.2884 35.4165 63.0833 35.0873 63.6693 34.5012C64.2554 33.9152 64.5846 33.1203 64.5846 32.2915C64.5846 31.4627 64.2554 30.6678 63.6693 30.0818C63.0833 29.4957 62.2884 29.1665 61.4596 29.1665H26.043ZM22.918 48.9582C22.918 48.1294 23.2472 47.3345 23.8333 46.7485C24.4193 46.1624 25.2142 45.8332 26.043 45.8332H44.793C45.6218 45.8332 46.4166 46.1624 47.0027 46.7485C47.5887 47.3345 47.918 48.1294 47.918 48.9582C47.918 49.787 47.5887 50.5818 47.0027 51.1679C46.4166 51.7539 45.6218 52.0832 44.793 52.0832H26.043C25.2142 52.0832 24.4193 51.7539 23.8333 51.1679C23.2472 50.5818 22.918 49.787 22.918 48.9582ZM90.7513 67.8332C91.0583 67.5471 91.3046 67.2021 91.4754 66.8188C91.6462 66.4354 91.738 66.0216 91.7454 65.602C91.7528 65.1824 91.6757 64.7656 91.5185 64.3765C91.3613 63.9874 91.1274 63.6339 90.8306 63.3372C90.5339 63.0404 90.1804 62.8065 89.7913 62.6493C89.4022 62.4922 88.9854 62.415 88.5658 62.4224C88.1462 62.4298 87.7324 62.5216 87.3491 62.6924C86.9657 62.8632 86.6207 63.1095 86.3346 63.4165L65.6263 84.1248L57.418 75.9165C57.1319 75.6095 56.7869 75.3632 56.4035 75.1924C56.0202 75.0216 55.6064 74.9298 55.1868 74.9224C54.7672 74.915 54.3504 74.9922 53.9613 75.1493C53.5722 75.3065 53.2187 75.5404 52.922 75.8372C52.6252 76.1339 52.3913 76.4874 52.2341 76.8765C52.077 77.2656 51.9998 77.6824 52.0072 78.102C52.0146 78.5216 52.1064 78.9354 52.2772 79.3188C52.448 79.7021 52.6943 80.0471 53.0013 80.3332L63.418 90.7498C64.0039 91.3351 64.7982 91.6638 65.6263 91.6638C66.4544 91.6638 67.2487 91.3351 67.8346 90.7498L90.7513 67.8332Z" fill="url(#paint1_linear_335_1430)"/>
<defs>
<linearGradient id="paint0_linear_335_1430" x1="43.7485" y1="6.46774" x2="43.7485" y2="91.9575" gradientUnits="userSpaceOnUse">
<stop stop-color="#00EFD1"/>
<stop offset="1" stop-color="#00ACEA"/>
</linearGradient>
<linearGradient id="paint1_linear_335_1430" x1="57.3318" y1="27.7673" x2="57.3318" y2="91.8817" gradientUnits="userSpaceOnUse">
<stop stop-color="#00EFD1"/>
<stop offset="1" stop-color="#00ACEA"/>
</linearGradient>
</defs>
</svg>
