<svg width="100" height="100" viewBox="0 0 100 100" fill="none" xmlns="http://www.w3.org/2000/svg">
<g clip-path="url(#clip0_335_1425)">
<path d="M40.6263 83.3375C40.6237 80.817 41.4526 78.3659 42.9845 76.3643C44.5163 74.3627 46.6657 72.9223 49.0994 72.2663C51.533 71.6103 54.1151 71.7753 56.4455 72.7359C58.7758 73.6964 60.7242 75.3988 61.9888 77.5792C70.6971 73.7375 73.9596 67.7083 73.9596 56.25V43.75C73.9596 27.1167 64.5805 15.625 50.0013 15.625C35.4221 15.625 26.043 27.1208 26.043 43.75V58.3333C26.0419 59.1618 25.7123 59.956 25.1265 60.5418C24.5406 61.1276 23.7464 61.4572 22.918 61.4583H18.7513C15.7141 61.455 12.8022 60.2473 10.6542 58.1001C8.50614 55.9528 7.29738 53.0414 7.29297 50.0042L7.29297 45.8375C7.29628 42.7992 8.50442 39.8862 10.6524 37.7374C12.8005 35.5886 15.713 34.3794 18.7513 34.375H20.743C23.8971 19.4958 34.693 9.375 50.0013 9.375C65.3096 9.375 76.1013 19.4958 79.2555 34.375H81.2471C84.2847 34.3794 87.1966 35.588 89.3445 37.7359C91.4924 39.8838 92.7011 42.7957 92.7055 45.8333V50C92.7022 53.0379 91.4939 55.9505 89.3457 58.0986C87.1976 60.2467 84.2851 61.455 81.2471 61.4583H79.9596C79.7989 66.3934 78.1431 71.1632 75.2116 75.1364C72.28 79.1096 68.2109 82.0988 63.543 83.7083C63.4938 86.7473 62.2394 89.6422 60.0558 91.7563C57.8722 93.8704 54.9382 95.0304 51.8992 94.9812C48.8603 94.9321 45.9653 93.6777 43.8513 91.4941C41.7372 89.3104 40.5771 86.3764 40.6263 83.3375ZM46.8763 83.3375C46.8763 84.3676 47.1818 85.3746 47.7541 86.2311C48.3264 87.0876 49.1398 87.7552 50.0915 88.1494C51.0432 88.5436 52.0904 88.6467 53.1007 88.4458C54.111 88.2448 55.0391 87.7487 55.7675 87.0203C56.4959 86.2919 56.9919 85.3639 57.1929 84.3536C57.3939 83.3433 57.2907 82.2961 56.8965 81.3444C56.5023 80.3927 55.8347 79.5792 54.9782 79.0069C54.1217 78.4346 53.1147 78.1292 52.0846 78.1292C50.7036 78.1303 49.3795 78.6794 48.403 79.6559C47.4265 80.6324 46.8774 81.9565 46.8763 83.3375ZM80.2096 55.2125H81.2471C82.6289 55.2125 83.954 54.6639 84.9315 53.6873C85.9089 52.7106 86.4585 51.3859 86.4596 50.0042V45.8375C86.4596 44.4558 85.911 43.1306 84.9344 42.1532C83.9578 41.1758 82.633 40.6261 81.2513 40.625H80.2096V55.2125ZM13.543 45.8375V50.0042C13.5452 51.3844 14.0947 52.7075 15.0711 53.6831C16.0475 54.6587 17.371 55.2072 18.7513 55.2083H19.793V40.625H18.7513C17.3696 40.6261 16.0448 41.1758 15.0682 42.1532C14.0916 43.1306 13.543 44.4558 13.543 45.8375Z" fill="url(#paint0_linear_335_1425)"/>
</g>
<defs>
<linearGradient id="paint0_linear_335_1425" x1="49.999" y1="7.45832" x2="49.999" y2="95.2813" gradientUnits="userSpaceOnUse">
<stop stop-color="#00EFD1"/>
<stop offset="1" stop-color="#00ACEA"/>
</linearGradient>
<clipPath id="clip0_335_1425">
<rect width="100" height="100" fill="white"/>
</clipPath>
</defs>
</svg>
