<svg width="56" height="56" viewBox="0 0 56 56" fill="none" xmlns="http://www.w3.org/2000/svg">
<g clip-path="url(#clip0_566_2)">
<path d="M22.7526 46.669C22.7512 45.2575 23.2153 43.8849 24.0732 42.764C24.931 41.6431 26.1347 40.8365 27.4975 40.4691C28.8604 40.1018 30.3064 40.1942 31.6113 40.7321C32.9163 41.27 34.0075 42.2233 34.7156 43.4443C39.5923 41.293 41.4193 37.9167 41.4193 31.5V24.5C41.4193 15.1853 36.1669 8.75 28.0026 8.75C19.8383 8.75 14.5859 15.1877 14.5859 24.5V32.6667C14.5853 33.1306 14.4007 33.5754 14.0727 33.9034C13.7446 34.2315 13.2999 34.4161 12.8359 34.4167H10.5026C8.80177 34.4148 7.1711 33.7385 5.96821 32.536C4.76531 31.3336 4.08841 29.7032 4.08594 28.0023L4.08594 25.669C4.08779 23.9676 4.76435 22.3363 5.96724 21.133C7.17013 19.9296 8.80115 19.2525 10.5026 19.25H11.6179C13.3843 10.9177 19.4299 5.25 28.0026 5.25C36.5753 5.25 42.6186 10.9177 44.3849 19.25H45.5003C47.2013 19.2525 48.832 19.9293 50.0348 21.1321C51.2376 22.3349 51.9145 23.9656 51.9169 25.6667V28C51.9151 29.7012 51.2384 31.3323 50.0355 32.5352C48.8325 33.7382 47.2015 34.4148 45.5003 34.4167H44.7793C44.6892 37.1803 43.762 39.8514 42.1203 42.0764C40.4787 44.3014 38.2 45.9753 35.5859 46.8767C35.5584 48.5785 34.8559 50.1996 33.6331 51.3835C32.4103 52.5674 30.7672 53.217 29.0654 53.1895C27.3636 53.162 25.7425 52.4595 24.5586 51.2367C23.3747 50.0139 22.7251 48.3708 22.7526 46.669ZM26.2526 46.669C26.2526 47.2459 26.4237 47.8098 26.7442 48.2894C27.0646 48.7691 27.5202 49.1429 28.0531 49.3637C28.5861 49.5844 29.1725 49.6422 29.7383 49.5296C30.3041 49.4171 30.8238 49.1393 31.2317 48.7314C31.6396 48.3235 31.9174 47.8038 32.0299 47.238C32.1424 46.6722 32.0847 46.0858 31.8639 45.5528C31.6432 45.0199 31.2693 44.5644 30.7897 44.2439C30.31 43.9234 29.7461 43.7523 29.1693 43.7523C28.3959 43.753 27.6544 44.0604 27.1076 44.6073C26.5607 45.1541 26.2532 45.8956 26.2526 46.669ZM44.9193 30.919H45.5003C46.274 30.919 47.0161 30.6118 47.5635 30.0649C48.1108 29.518 48.4187 28.7761 48.4193 28.0023V25.669C48.4193 24.8952 48.1121 24.1531 47.5651 23.6058C47.0182 23.0584 46.2764 22.7506 45.5026 22.75H44.9193V30.919ZM7.58594 25.669V28.0023C7.58717 28.7753 7.89493 29.5162 8.44172 30.0625C8.9885 30.6089 9.72965 30.9161 10.5026 30.9167H11.0859V22.75H10.5026C9.72884 22.7506 8.98698 23.0584 8.44007 23.6058C7.89315 24.1531 7.58594 24.8952 7.58594 25.669Z" fill="#0066B3"/>
</g>
<defs>
<clipPath id="clip0_566_2">
<rect width="56" height="56" rx="6" fill="white"/>
</clipPath>
</defs>
</svg>
