<svg width="61" height="64" viewBox="0 0 61 64" fill="none" xmlns="http://www.w3.org/2000/svg">
<path d="M55.6813 0.335205H34.7171C32.0745 0.335205 29.9245 2.48514 29.9245 5.12815L29.916 18.1583C27.2375 18.1536 19.5699 18.1409 19.4845 18.1409C14.9538 18.1409 13.4541 21.2959 13.2753 23.0481L9.76274 38.4722C8.76847 37.5463 7.48036 37.0335 6.1077 37.0335C4.66939 37.0335 3.32027 37.5911 2.30902 38.6027L1.5692 39.3425C0.557562 40.3534 0 41.7025 0 43.1412C0 44.5799 0.557562 45.929 1.5692 46.9399L16.4037 61.7747C17.4153 62.7864 18.764 63.3439 20.2024 63.3439C21.6407 63.3439 22.9898 62.7864 24.0014 61.7747L24.7412 61.0349C26.8359 58.9406 26.8359 55.5319 24.7412 53.4376L23.7948 52.4908C28.0441 51.3919 31.1571 46.7808 32.6151 43.9675L55.6813 43.9598C58.3247 43.9598 60.4746 41.8099 60.4746 39.168V5.12815C60.4746 2.48514 58.3247 0.335205 55.6813 0.335205ZM23.0639 59.3576L22.3241 60.0974C21.1966 61.2241 19.2089 61.2241 18.0814 60.0974L3.24652 45.2626C2.68278 44.6988 2.37234 43.9459 2.37234 43.1412C2.37234 42.3365 2.68278 41.5836 3.24652 41.0198L3.98672 40.28C4.55008 39.7163 5.30302 39.4058 6.1077 39.4058C6.91238 39.4058 7.66532 39.7163 8.22906 40.28L23.0639 55.1149C24.2335 56.2848 24.2335 58.1877 23.0639 59.3576ZM21.6515 50.3478L11.7466 40.443L15.6059 23.4976C15.6191 23.4408 15.6276 23.3833 15.6322 23.325C15.6411 23.2103 15.8897 20.5132 19.4845 20.5132C19.5799 20.5132 27.2433 20.526 29.916 20.5306V29.2415L27.4371 31.6745C27.1796 31.8606 26.9529 31.9537 26.841 31.9166C26.6023 31.8367 26.1131 31.3892 25.5204 29.2933C25.3945 28.8489 25.1606 28.0218 24.2393 28.0218C23.584 28.0218 23.0531 28.5527 23.0531 29.208C23.0531 29.4033 23.1002 29.5875 23.184 29.7501C23.1991 29.801 23.2164 29.8651 23.2377 29.9389C23.5693 31.1119 24.2597 33.5522 26.0857 34.1654C26.3112 34.2411 26.5846 34.2982 26.8973 34.2982C27.458 34.2982 28.1457 34.116 28.9129 33.5368C28.9465 33.5113 28.9731 33.4812 29.0033 33.4534C29.011 33.4457 29.021 33.4441 29.0287 33.4364L36.0747 26.5205C37.3829 25.2378 39.3143 25.078 40.38 26.1611C41.4457 27.2488 41.2488 29.1763 39.9414 30.4582L34.1827 36.1091C34.1534 36.1308 34.1186 36.1385 34.0908 36.1632C33.914 36.3238 32.3301 37.8305 31.2227 41.3025C30.8613 42.4315 26.8406 50.6467 21.6515 50.3478ZM58.1023 39.168C58.1023 40.5024 57.0165 41.5874 55.6813 41.5874L33.6313 41.5952C34.2715 39.7758 35.0353 38.6877 35.4283 38.2096L41.6025 32.1518C43.8435 29.9547 44.0551 26.5221 42.0735 24.4996C40.0919 22.4836 36.657 22.6307 34.4136 24.827L32.2884 26.9128L32.2969 5.12815C32.2969 3.79332 33.3827 2.70755 34.7171 2.70755H55.6813C57.0165 2.70755 58.1023 3.79332 58.1023 5.12815V39.168Z" fill="#F05D5A"/>
<path d="M53.2013 5.4054H48.4674C47.8126 5.4054 47.2812 5.93631 47.2812 6.59157V13.3545C47.2812 14.0098 47.8126 14.5407 48.4674 14.5407H53.2013C53.8562 14.5407 54.3875 14.0098 54.3875 13.3545V6.59157C54.3875 5.93631 53.8562 5.4054 53.2013 5.4054ZM52.0151 12.1683H49.6536V7.77774H52.0151V12.1683Z" fill="#F05D5A"/>
<path d="M39.2995 5.4054C38.6446 5.4054 38.1133 5.93631 38.1133 6.59157V20.304C38.1133 20.9592 38.6446 21.4901 39.2995 21.4901C39.9543 21.4901 40.4856 20.9592 40.4856 20.304V6.59157C40.4856 5.93631 39.9543 5.4054 39.2995 5.4054Z" fill="#F05D5A"/>
<path d="M35.6979 5.4054C35.043 5.4054 34.5117 5.93631 34.5117 6.59157V17.0729C34.5117 17.7281 35.043 18.259 35.6979 18.259C36.3528 18.259 36.8841 17.7281 36.8841 17.0729V6.59157C36.8841 5.93631 36.3528 5.4054 35.6979 5.4054Z" fill="#F05D5A"/>
</svg>
