<?xml version="1.0" standalone="no"?>
<!DOCTYPE svg PUBLIC "-//W3C//DTD SVG 1.1//EN" "http://www.w3.org/Graphics/SVG/1.1/DTD/svg11.dtd" >
<svg xmlns="http://www.w3.org/2000/svg" xmlns:xlink="http://www.w3.org/1999/xlink" version="1.1">
<metadata>
Created by FontForge 20190801 at Sat Jun  1 21:33:22 2019
 By www-data
Copyright (c) 2019 by Indian Type Foundry. All rights reserved.
</metadata>
<defs>
<font id="PassengerSansRegular" horiz-adv-x="680" >
  <font-face 
    font-family="PassengerSansRegular"
    font-weight="300"
    font-stretch="normal"
    units-per-em="1000"
    panose-1="0 0 4 0 0 0 0 0 0 0"
    ascent="750"
    descent="-250"
    x-height="504"
    cap-height="670"
    bbox="-293 -227 1210 910"
    underline-thickness="50"
    underline-position="-100"
    unicode-range="U+0020-FB02"
  />
<missing-glyph horiz-adv-x="0" 
 />
    <glyph glyph-name="fi" unicode="fi" horiz-adv-x="562" 
d="M479 504v-504h-85v432h-210v-432h-85v432h-74v72h74v67q0 159 155 159q26 0 57 -7v-71q-21 5 -49 5q-38 0 -58 -18.5t-20 -64.5v-70h295zM391 696h90v-90h-90v90z" />
    <glyph glyph-name="fl" unicode="fl" horiz-adv-x="565" 
d="M99 432h-74v72h74v67q0 159 155 159q24 0 55 -7v-71q-21 5 -47 5q-38 0 -58 -18.5t-20 -64.5v-70h115v-72h-115v-432h-85v432zM394 720h84v-720h-84v720z" />
    <glyph glyph-name=".notdef" horiz-adv-x="0" 
 />
    <glyph glyph-name=".null" horiz-adv-x="0" 
 />
    <glyph glyph-name="nonmarkingreturn" horiz-adv-x="333" 
 />
    <glyph glyph-name="space" unicode=" " horiz-adv-x="227" 
 />
    <glyph glyph-name="exclam" unicode="!" horiz-adv-x="256" 
d="M82 670h92l-10 -494h-73zM80 94h96v-94h-96v94z" />
    <glyph glyph-name="quotedbl" unicode="&#x22;" horiz-adv-x="364" 
d="M60 604v66h83v-66l-12 -168h-59zM221 604v66h83v-66l-12 -168h-59z" />
    <glyph glyph-name="numbersign" unicode="#" horiz-adv-x="690" 
d="M635 427h-123l-47 -183h122l-14 -66h-126l-46 -178h-66l46 178h-153l-47 -178h-66l46 178h-119l14 66h123l47 183h-122l15 66h125l46 178h67l-47 -178h154l46 178h66l-46 -178h120zM399 244l47 183h-153l-48 -183h154z" />
    <glyph glyph-name="dollar" unicode="$" horiz-adv-x="602" 
d="M332 372q111 -22 163.5 -64t52.5 -123q0 -89 -65 -143t-179 -54h-4l-9 -103h-63l9 108q-91 15 -140 71.5t-45 151.5h88q-3 -122 103 -147l20 238q-97 20 -148.5 62t-51.5 127q0 86 64.5 136t166.5 50h1l7 88h63l-8 -93q85 -15 133.5 -69t46.5 -143h-87q3 111 -99 136z
M150 502q0 -48 28.5 -74t91.5 -42l18 221q-62 -1 -100 -30t-38 -75zM307 63q74 0 113 31t39 82q0 49 -30.5 74.5t-103.5 43.5l-19 -231h1z" />
    <glyph glyph-name="percent" unicode="%" horiz-adv-x="864" 
d="M38 489q0 86 43.5 138.5t115.5 52.5t115.5 -52.5t43.5 -138.5q0 -91 -43.5 -146.5t-115.5 -55.5t-115.5 55.5t-43.5 146.5zM617 672h71l-434 -672h-72zM286 488q0 58 -24.5 93t-64.5 35q-41 0 -65 -35t-24 -93q0 -62 24.5 -99t64.5 -37t64.5 37.5t24.5 98.5zM508 192
q0 86 43.5 138.5t115.5 52.5t115.5 -52.5t43.5 -138.5q0 -91 -43.5 -146.5t-115.5 -55.5t-115.5 55.5t-43.5 146.5zM756 191q0 58 -24.5 93t-64.5 35q-41 0 -65 -35t-24 -93q0 -62 24.5 -99t64.5 -37t64.5 37.5t24.5 98.5z" />
    <glyph glyph-name="ampersand" unicode="&#x26;" horiz-adv-x="728" 
d="M649 66q31 0 57 12v-77q-30 -12 -64 -12q-61 0 -101.5 22t-92.5 72q-61 -95 -201 -95q-97 0 -155 47t-58 126q0 135 164 203q-68 90 -68 158q0 65 54.5 112.5t143.5 47.5q77 0 125.5 -40.5t48.5 -100.5q0 -66 -44.5 -112t-132.5 -86q81 -93 114 -129q35 104 85 156.5
t135 52.5q22 0 44 -6v-77q-19 7 -47 7q-67 0 -100.5 -45.5t-61.5 -145.5q45 -47 78.5 -68.5t76.5 -21.5zM327 611q-52 0 -80 -24.5t-28 -64.5q0 -49 60 -126q66 28 102 60t36 75q0 37 -24.5 58.5t-65.5 21.5zM258 60q45 0 82 19.5t58 54.5q-22 24 -56.5 63t-65.5 74t-35 40
q-62 -29 -89.5 -60t-27.5 -79q0 -54 38 -83t96 -29z" />
    <glyph glyph-name="quotesingle" unicode="'" horiz-adv-x="203" 
d="M60 604v66h83v-66l-12 -168h-59z" />
    <glyph glyph-name="parenleft" unicode="(" horiz-adv-x="324" 
d="M63 291q0 250 158 509h70q-76 -146 -113.5 -258.5t-37.5 -250.5q0 -139 37.5 -251t113.5 -260h-70q-158 259 -158 511z" />
    <glyph glyph-name="parenright" unicode=")" horiz-adv-x="324" 
d="M183 289q0 140 -37.5 252.5t-113.5 258.5h70q158 -259 158 -511q0 -250 -158 -509h-70q76 146 113.5 258.5t37.5 250.5z" />
    <glyph glyph-name="asterisk" unicode="*" horiz-adv-x="437" 
d="M70 389l31 43l74 81l-2 9l-105 19l-51 17l21 68l51 -16l99 -45l8 6l-14 106v53h72v-53l-13 -108l6 -5l102 46l51 16l21 -69l-50 -16l-110 -19l-2 -9l74 -81l32 -42l-59 -40l-32 43l-53 91h-7l-54 -92l-32 -42z" />
    <glyph glyph-name="plus" unicode="+" horiz-adv-x="530" 
d="M472 356v-62h-175v-179h-64v179h-175v62h175v179h64v-179h175z" />
    <glyph glyph-name="comma" unicode="," horiz-adv-x="221" 
d="M158 94l1 -84l-50 -150h-50l40 140h-37v94h96z" />
    <glyph glyph-name="hyphen" unicode="-" horiz-adv-x="314" 
d="M47 316h220v-80h-220v80z" />
    <glyph glyph-name="period" unicode="." horiz-adv-x="220" 
d="M62 94h96v-94h-96v94z" />
    <glyph glyph-name="slash" unicode="/" horiz-adv-x="438" 
d="M363 759h74l-372 -869h-75z" />
    <glyph glyph-name="zero" unicode="0" horiz-adv-x="622" 
d="M53 333q0 154 69.5 251.5t189.5 97.5q121 0 189 -95t68 -249t-69.5 -252t-190.5 -98q-120 0 -188 95.5t-68 249.5zM478 337q0 119 -43 193t-124 74q-80 0 -123.5 -75.5t-44.5 -194.5q1 -119 44.5 -193.5t123.5 -74.5q81 0 124 75.5t43 195.5z" />
    <glyph glyph-name="one" unicode="1" horiz-adv-x="375" 
d="M264 0h-88v570q-50 -50 -149 -63v80q90 15 152 83h85v-670z" />
    <glyph glyph-name="two" unicode="2" horiz-adv-x="564" 
d="M44 24q0 85 55 153t172 135q87 54 118.5 88.5t31.5 90.5q0 54 -33.5 84.5t-95.5 30.5q-70 0 -108.5 -35t-38.5 -102q0 -15 1 -24h-87q-1 9 -1 26q0 99 64 155t171 56q104 0 161 -50t57 -136q0 -76 -41.5 -126.5t-149.5 -114.5q-91 -55 -132 -93t-47 -82h371v-80h-468v24z
" />
    <glyph glyph-name="three" unicode="3" horiz-adv-x="581" 
d="M44 202h87q5 -65 44.5 -101.5t108.5 -36.5q67 0 108.5 33.5t41.5 93.5t-41.5 87t-124.5 27h-55v74h54q77 0 116 31t39 86q0 50 -33.5 80t-97.5 30t-102 -33.5t-38 -91.5q0 -9 1 -17h-87q-1 9 -1 19q0 91 63.5 145t166.5 54q102 0 159.5 -51t57.5 -131q0 -63 -32.5 -101.5
t-89.5 -50.5v-2q135 -24 135 -159q0 -92 -65 -145.5t-174 -53.5q-116 0 -176.5 57.5t-64.5 156.5z" />
    <glyph glyph-name="four" unicode="4" horiz-adv-x="570" 
d="M357 155h-331v76l324 439h95v-437h103v-78h-103v-155h-88v155zM161 233h196v288q0 5 0.5 16.5t0.5 16.5h-2l-22 -32l-181 -247l-31 -41v-2q6 0 18.5 0.5t20.5 0.5z" />
    <glyph glyph-name="five" unicode="5" horiz-adv-x="569" 
d="M53 187h87q17 -123 141 -123q65 0 107.5 41t42.5 114q0 67 -38.5 104.5t-103.5 37.5q-88 0 -138 -72l-78 8l25 373h384l-3 -80h-307l-17 -219q54 66 149 66q96 0 156.5 -58t60.5 -158q0 -106 -66.5 -169.5t-173.5 -63.5q-108 0 -165.5 55.5t-62.5 143.5z" />
    <glyph glyph-name="six" unicode="6" horiz-adv-x="593" 
d="M328 424q100 0 159 -55t59 -150q0 -101 -67 -166t-170 -65q-116 0 -186.5 88.5t-70.5 249.5q0 160 75 258t199 98q96 0 153 -54.5t59 -138.5h-87q-2 51 -36 84t-93 33q-82 0 -130.5 -72t-49.5 -196q76 86 186 86zM309 64q64 0 105.5 41.5t41.5 108.5q0 62 -35.5 98
t-102.5 36q-101 0 -172 -95q12 -93 54.5 -141t108.5 -48z" />
    <glyph glyph-name="seven" unicode="7" horiz-adv-x="515" 
d="M485 670v-75q-115 -150 -173.5 -286.5t-57.5 -308.5h-86q-1 166 54.5 308.5t159.5 281.5h-360v80h463z" />
    <glyph glyph-name="eight" unicode="8" horiz-adv-x="591" 
d="M44 180q0 65 35 108t99 60v2q-109 35 -109 153q0 78 61.5 128.5t166.5 50.5t165 -50.5t60 -129.5q0 -55 -29.5 -94.5t-81.5 -56.5v-2q136 -37 136 -167q0 -87 -68 -140.5t-184 -53.5t-183.5 53t-67.5 139zM434 498q0 51 -38 82.5t-99 31.5q-62 0 -100.5 -31t-38.5 -83
t38 -82.5t101 -30.5q61 0 99 31t38 82zM457 187q0 57 -44 91.5t-118 34.5q-73 0 -117 -34.5t-44 -91.5q0 -56 44.5 -90.5t117.5 -34.5t117 34t44 91z" />
    <glyph glyph-name="nine" unicode="9" horiz-adv-x="590" 
d="M285 682q114 0 183.5 -88t69.5 -247q0 -162 -74.5 -260.5t-197.5 -98.5q-97 0 -154.5 53.5t-59.5 137.5h87q5 -53 38 -84t93 -31q83 0 130.5 72.5t49.5 202.5q-74 -84 -179 -84q-102 0 -162 55t-60 149q0 98 67 160.5t169 62.5zM281 332q98 0 164 93q-12 89 -54 135
t-108 46q-63 0 -103.5 -40t-40.5 -103q0 -60 36.5 -95.5t105.5 -35.5z" />
    <glyph glyph-name="colon" unicode=":" horiz-adv-x="233" 
d="M68 457h96v-94h-96v94zM68 94h96v-94h-96v94z" />
    <glyph glyph-name="semicolon" unicode=";" horiz-adv-x="233" 
d="M164 457v-94h-96v94h96zM164 94l1 -84l-50 -150h-50l40 140h-37v94h96z" />
    <glyph glyph-name="less" unicode="&#x3c;" horiz-adv-x="530" 
d="M63 285v70l395 184v-69l-314 -150l314 -150v-71z" />
    <glyph glyph-name="equal" unicode="=" horiz-adv-x="530" 
d="M58 459h414v-62h-414v62zM58 247h414v-62h-414v62z" />
    <glyph glyph-name="greater" unicode="&#x3e;" horiz-adv-x="530" 
d="M72 168l314 150l-314 150v71l394 -186v-70l-394 -184v69z" />
    <glyph glyph-name="question" unicode="?" horiz-adv-x="535" 
d="M272 681q100 0 158.5 -53t58.5 -138q0 -83 -53 -136.5t-140 -65.5l-5 -116h-72l-7 174h20q80 3 124.5 40t44.5 99q0 56 -34 89.5t-98 33.5q-70 0 -108 -38.5t-34 -105.5h-85q-7 98 57.5 157.5t172.5 59.5zM206 0v94h96v-94h-96z" />
    <glyph glyph-name="at" unicode="@" horiz-adv-x="902" 
d="M49 223q0 96 36 181.5t96.5 145.5t142 95t170.5 35q159 0 260 -94.5t101 -244.5q0 -132 -62 -212t-145 -80q-50 0 -75 23.5t-21 68.5h-2q-17 -38 -52.5 -66t-89.5 -28q-68 0 -114 45.5t-46 133.5q0 104 60.5 175.5t147.5 71.5q53 0 84.5 -26t36.5 -59h2l11 75h69
l-40 -286q-5 -36 5 -52.5t38 -16.5q45 0 88 62t43 170q0 128 -83.5 207t-220.5 79q-153 0 -265.5 -117.5t-112.5 -282.5q0 -155 89 -241t237 -86q132 0 223 67v-61q-86 -61 -231 -61q-166 0 -273 101t-107 278zM558 279q6 66 -20.5 99t-73.5 33q-58 0 -98.5 -53t-40.5 -124
q0 -64 29 -94t73 -30q47 0 85 44t46 125z" />
    <glyph glyph-name="A" unicode="A" horiz-adv-x="636" 
d="M526 0l-64 171h-291l-64 -171h-89l252 670h96l252 -670h-92zM198 244h237l-91 246q-13 34 -26 77h-3q-6 -19 -26 -77z" />
    <glyph glyph-name="B" unicode="B" horiz-adv-x="622" 
d="M437 348q58 -12 93 -53t35 -105q0 -89 -59 -139.5t-158 -50.5h-257v670h250q102 0 156 -44t54 -127q0 -119 -114 -149v-2zM335 596h-157v-215h160q57 0 90 29.5t33 81.5q0 104 -126 104zM340 74q62 0 98.5 31t36.5 87q0 57 -36 86t-99 29h-162v-233h162z" />
    <glyph glyph-name="C" unicode="C" 
d="M54 332q0 153 81.5 251.5t218.5 98.5q121 0 193.5 -74.5t78.5 -178.5h-88q-8 72 -54.5 123.5t-129.5 51.5q-97 0 -153.5 -76.5t-56.5 -195.5q0 -118 55.5 -192.5t153.5 -74.5q82 0 128 48.5t57 128.5h88q-14 -114 -83 -184t-190 -70q-145 0 -222 94t-77 250z" />
    <glyph glyph-name="D" unicode="D" horiz-adv-x="690" 
d="M91 670h227q151 0 235.5 -92.5t84.5 -235.5q0 -150 -85.5 -246t-238.5 -96h-223v670zM310 78q117 0 177.5 72t60.5 190q0 112 -59.5 182t-176.5 70h-134v-514h132z" />
    <glyph glyph-name="E" unicode="E" horiz-adv-x="565" 
d="M518 592h-340v-209h293v-78h-293v-227h340v-78h-427v670h427v-78z" />
    <glyph glyph-name="F" unicode="F" horiz-adv-x="541" 
d="M509 592h-331v-227h287v-78h-287v-287h-87v670h418v-78z" />
    <glyph glyph-name="G" unicode="G" horiz-adv-x="714" 
d="M382 252v76h255v-328h-77l-3 97q-67 -109 -205 -109q-136 0 -218 96.5t-82 248.5t85.5 250.5t225.5 98.5q124 0 195 -67.5t79 -172.5h-88q-7 74 -54 118t-132 44q-102 0 -161.5 -76t-59.5 -196q0 -118 57.5 -192t161.5 -74q87 0 138.5 55t57.5 131h-175z" />
    <glyph glyph-name="H" unicode="H" horiz-adv-x="697" 
d="M91 670h87v-287h341v287h87v-670h-87v305h-341v-305h-87v670z" />
    <glyph glyph-name="I" unicode="I" horiz-adv-x="269" 
d="M91 670h87v-670h-87v670z" />
    <glyph glyph-name="J" unicode="J" horiz-adv-x="552" 
d="M36 231h88q-6 -86 29 -125.5t95 -39.5q61 0 96 37t35 114v375h-246v78h334v-457q0 -109 -57.5 -167t-158.5 -58t-163 58t-52 185z" />
    <glyph glyph-name="K" unicode="K" horiz-adv-x="645" 
d="M528 0l-227 322l-123 -138v-184h-87v670h87v-370h3l56 65l266 305h105l-245 -284l272 -386h-107z" />
    <glyph glyph-name="L" unicode="L" horiz-adv-x="518" 
d="M178 78h320v-78h-407v670h87v-592z" />
    <glyph glyph-name="M" unicode="M" horiz-adv-x="860" 
d="M205 470q-26 71 -29 79h-3v-549h-82v670h122l186 -480q20 -50 31 -89h2q12 38 32 90l186 479h119v-670h-82v549h-3q-3 -10 -30 -80l-181 -469h-86z" />
    <glyph glyph-name="N" unicode="N" horiz-adv-x="695" 
d="M91 670h89l340 -523h2v523h82v-670h-87l-342 527h-2v-527h-82v670z" />
    <glyph glyph-name="O" unicode="O" horiz-adv-x="703" 
d="M52 333q0 153 81.5 251t219.5 98t218 -98t80 -247q0 -153 -81.5 -251t-219.5 -98t-218 98t-80 247zM561 335q0 118 -55.5 193.5t-153.5 75.5t-154 -75.5t-56 -193.5t55.5 -193.5t153.5 -75.5t154 75.5t56 193.5z" />
    <glyph glyph-name="P" unicode="P" horiz-adv-x="596" 
d="M91 670h234q106 0 166.5 -56t60.5 -156q0 -102 -62.5 -160t-169.5 -58h-142v-240h-87v670zM318 318q68 0 106 36.5t38 101.5q0 64 -38 100t-106 36h-140v-274h140z" />
    <glyph glyph-name="Q" unicode="Q" horiz-adv-x="703" 
d="M462 8q11 -34 35.5 -50t73.5 -16q33 0 60 8v-79q-22 -10 -68 -10q-147 0 -186 128q-9 -1 -27 -1q-138 0 -218 98t-80 247q0 153 81.5 251t219.5 98t218 -98t80 -247q0 -118 -50 -205.5t-139 -123.5zM142 335q0 -118 55.5 -193.5t153.5 -75.5t154 75.5t56 193.5
t-55.5 193.5t-153.5 75.5t-154 -75.5t-56 -193.5z" />
    <glyph glyph-name="R" unicode="R" horiz-adv-x="632" 
d="M592 0h-101l-155 258h-158v-258h-87v670h262q104 0 164.5 -53.5t60.5 -144.5q0 -77 -40 -129.5t-110 -72.5zM178 592v-258h168q67 0 104.5 36t37.5 98q0 60 -37.5 92t-105.5 32h-167z" />
    <glyph glyph-name="S" unicode="S" horiz-adv-x="603" 
d="M53 216h88q-1 -81 41 -115.5t126 -34.5q75 0 113.5 29t38.5 81q0 56 -38.5 81t-129.5 43q-118 22 -173.5 65t-55.5 130q0 88 65 137.5t167 49.5q111 0 178.5 -56t64.5 -161h-88q3 139 -158 139q-64 0 -102 -27.5t-38 -74.5q0 -56 38.5 -81t129.5 -43q118 -22 173.5 -65
t55.5 -130q0 -88 -65 -141.5t-179 -53.5q-122 0 -189 58t-63 170z" />
    <glyph glyph-name="T" unicode="T" horiz-adv-x="557" 
d="M235 592h-220v78h527v-78h-220v-592h-87v592z" />
    <glyph glyph-name="U" unicode="U" 
d="M86 239v431h87v-421q0 -88 43.5 -135.5t125.5 -47.5q78 0 121.5 47.5t43.5 132.5v424h87v-433q0 -114 -67 -181.5t-185 -67.5q-124 0 -190 66.5t-66 184.5z" />
    <glyph glyph-name="V" unicode="V" horiz-adv-x="607" 
d="M14 670h92l172 -483q4 -11 26 -80h2q12 41 26 79l171 484h90l-241 -670h-97z" />
    <glyph glyph-name="W" unicode="W" horiz-adv-x="928" 
d="M23 670h90l124 -460q17 -65 27 -109h3q16 74 26 109l123 460h102l122 -459q11 -39 26 -110h2q21 85 28 109l122 460h87l-185 -670h-105l-123 457q-11 40 -24 101h-3q-8 -34 -26 -100l-125 -458h-106z" />
    <glyph glyph-name="X" unicode="X" horiz-adv-x="624" 
d="M256 347l-212 323h103l165 -251h2l171 251h99l-216 -319l232 -351h-102l-185 277h-3l-187 -277h-99z" />
    <glyph glyph-name="Y" unicode="Y" horiz-adv-x="593" 
d="M583 670l-242 -384v-286h-87v286l-244 384h98l190 -294h2l187 294h96z" />
    <glyph glyph-name="Z" unicode="Z" horiz-adv-x="563" 
d="M35 73l329 453q33 46 49 65v2q-25 -1 -74 -1h-295v78h475v-73l-325 -448q-2 -2 -21 -29t-29 -40v-3q11 0 35.5 0.5t36.5 0.5h311v-78h-492v73z" />
    <glyph glyph-name="bracketleft" unicode="[" horiz-adv-x="364" 
d="M311 736h-127v-892h127v-64h-200v1020h200v-64z" />
    <glyph glyph-name="backslash" unicode="\" horiz-adv-x="445" 
d="M7 759h75l372 -869h-74z" />
    <glyph glyph-name="bracketright" unicode="]" horiz-adv-x="364" 
d="M253 800v-1020h-199v64h126v892h-126v64h199z" />
    <glyph glyph-name="asciicircum" unicode="^" horiz-adv-x="530" 
d="M233 670h64l191 -362h-74l-152 281l-146 -281h-74z" />
    <glyph glyph-name="underscore" unicode="_" horiz-adv-x="518" 
d="M50 -55h418v-67h-418v67z" />
    <glyph glyph-name="grave" unicode="`" horiz-adv-x="500" 
d="M102 723h75l120 -152h-72z" />
    <glyph glyph-name="a" unicode="a" horiz-adv-x="519" 
d="M43 124q0 39 16 68t42.5 46.5t68 29t85.5 16t103 5.5v41q0 57 -25.5 84t-79.5 27q-48 0 -78 -24.5t-30 -68.5q0 -11 1 -18h-80q-1 8 -1 18q0 74 53.5 120t138.5 46q91 0 138.5 -47.5t47.5 -137.5v-184q0 -47 7 -63.5t25 -16.5q14 0 23 5v-65q-18 -12 -51 -12
q-47 0 -65 19.5t-21 69.5h-2q-44 -92 -163 -92q-72 0 -112.5 35t-40.5 99zM358 162v67q-118 -2 -173 -23.5t-55 -72.5q0 -75 91 -75q45 0 82 26.5t55 77.5z" />
    <glyph glyph-name="b" unicode="b" horiz-adv-x="582" 
d="M157 85h-2l-14 -85h-65v720h85v-230q0 -56 -1 -86h2q11 44 53 77t105 33q95 0 154.5 -68t59.5 -189q0 -122 -61.5 -194.5t-161.5 -72.5q-56 0 -96.5 28.5t-57.5 66.5zM447 253q0 88 -40 139t-103 51q-62 0 -102.5 -50t-40.5 -137v-21q0 -79 39.5 -126.5t98.5 -47.5
q66 0 107 52.5t41 139.5z" />
    <glyph glyph-name="c" unicode="c" horiz-adv-x="534" 
d="M49 247q0 124 65 195.5t164 71.5q94 0 149 -57.5t57 -141.5h-85q-2 52 -33 89t-88 37q-63 0 -102.5 -51t-39.5 -141q0 -87 39 -136.5t101 -49.5q104 0 123 125h85q-9 -90 -62 -144t-147 -54q-100 0 -163 68t-63 189z" />
    <glyph glyph-name="d" unicode="d" horiz-adv-x="582" 
d="M422 720h85v-720h-84v100h-2q-10 -44 -51 -77t-106 -33q-94 0 -154.5 69t-60.5 190t62 193t163 72q60 0 97.5 -29t48.5 -64h2v299zM422 248v19q0 80 -39.5 128t-99.5 48q-66 0 -106.5 -52.5t-40.5 -139.5q0 -89 39.5 -139.5t102.5 -50.5q62 0 103 50t41 137z" />
    <glyph glyph-name="e" unicode="e" horiz-adv-x="534" 
d="M486 270q0 -12 -2 -38h-348q1 -82 38.5 -125.5t103.5 -43.5q57 0 88 29.5t36 72.5h79q-5 -72 -59 -123.5t-145 -51.5q-106 0 -167 68.5t-61 192.5q0 122 63.5 192.5t159.5 70.5q99 0 156.5 -65t57.5 -179zM272 443q-54 0 -90.5 -38t-43.5 -109h264q-4 73 -39 110t-91 37z
" />
    <glyph glyph-name="f" unicode="f" horiz-adv-x="317" 
d="M99 432h-74v72h74v67q0 159 155 159q26 0 59 -7v-72q-27 6 -51 6q-38 0 -58 -18.5t-20 -64.5v-70h115v-72h-115v-432h-85v432z" />
    <glyph glyph-name="g" unicode="g" horiz-adv-x="532" 
d="M514 497q-65 5 -98 -35q49 -47 49 -125q0 -82 -55 -130.5t-149 -48.5q-57 0 -99 18q-30 -23 -30 -50q0 -24 13.5 -34t43.5 -10h160q78 0 121 -33.5t43 -96.5q0 -79 -71.5 -129t-187.5 -50q-110 0 -172 37t-62 100q0 80 91 115v2q-54 19 -54 82q0 60 64 91q-60 48 -60 133
q0 83 55.5 132t149.5 49q63 0 111 -24q45 85 123 84q10 0 14 -1v-76zM262 226q54 0 87 29.5t33 79.5t-31.5 80.5t-85.5 30.5q-55 0 -88 -30.5t-33 -80.5t31.5 -79.5t86.5 -29.5zM165 4q-28 -11 -44 -31.5t-16 -45.5q0 -82 148 -82q82 0 127.5 27.5t45.5 68.5q0 63 -82 63
h-179z" />
    <glyph glyph-name="h" unicode="h" horiz-adv-x="555" 
d="M328 514q74 0 116.5 -46t42.5 -131v-337h-85v317q0 64 -26 93t-78 29q-60 0 -98.5 -50.5t-38.5 -130.5v-258h-85v720h85v-216q0 -34 -2 -104h2q13 48 56.5 81t110.5 33z" />
    <glyph glyph-name="i" unicode="i" horiz-adv-x="236" 
d="M74 696h89v-90h-89v90zM76 504h85v-504h-85v504z" />
    <glyph glyph-name="j" unicode="j" horiz-adv-x="236" 
d="M74 696h89v-90h-89v90zM-16 -219v73q17 -5 34 -5q29 0 43.5 17.5t14.5 58.5v579h85v-585q0 -143 -130 -143q-25 0 -47 5z" />
    <glyph glyph-name="k" unicode="k" horiz-adv-x="516" 
d="M405 0l-158 244l-86 -88v-156h-85v720h85v-462h2q2 3 40 43l188 203h102l-185 -200l197 -304h-100z" />
    <glyph glyph-name="l" unicode="l" horiz-adv-x="236" 
d="M76 720h85v-720h-85v720z" />
    <glyph glyph-name="m" unicode="m" horiz-adv-x="840" 
d="M617 514q75 0 115 -47.5t40 -131.5v-335h-84v317q0 122 -94 122q-55 0 -91 -51t-36 -129v-259h-85v317q0 122 -94 122q-55 0 -91 -50.5t-36 -127.5v-261h-85v504h84v-103h2q12 46 52.5 79.5t100.5 33.5q118 0 145 -116h2q13 47 54 81.5t101 34.5z" />
    <glyph glyph-name="n" unicode="n" horiz-adv-x="555" 
d="M76 504h84v-104h2q13 48 55.5 81t107.5 33q75 0 118.5 -46t43.5 -131v-337h-85v317q0 64 -26 93t-78 29q-60 0 -98.5 -50.5t-38.5 -130.5v-258h-85v504z" />
    <glyph glyph-name="o" unicode="o" horiz-adv-x="559" 
d="M49 249q0 124 66 194.5t166 70.5q102 0 166 -69t64 -192q0 -121 -65.5 -192t-165.5 -71q-102 0 -166.5 69t-64.5 190zM424 251q0 89 -39.5 139.5t-103.5 50.5t-104.5 -51t-40.5 -139q0 -89 40 -138.5t104 -49.5t104 50t40 138z" />
    <glyph glyph-name="p" unicode="p" horiz-adv-x="581" 
d="M320 514q96 0 155 -68t59 -190q0 -121 -61.5 -193.5t-161.5 -72.5q-61 0 -99.5 30.5t-48.5 63.5h-2v-299h-85v719h84v-100h2q12 44 53 77t105 33zM299 61q66 0 107 52.5t41 139.5q0 89 -39.5 139.5t-103.5 50.5q-62 0 -102.5 -50t-40.5 -137v-20q0 -81 39 -128t99 -47z
" />
    <glyph glyph-name="q" unicode="q" horiz-adv-x="581" 
d="M422 504h84v-719h-85v248q0 46 1 68h-2q-11 -44 -51.5 -77.5t-104.5 -33.5q-96 0 -156 68.5t-60 191.5q0 121 61.5 192.5t162.5 71.5q62 0 99.5 -30.5t48.5 -68.5h2v89zM421 248v20q0 80 -40 127.5t-99 47.5q-66 0 -106.5 -52.5t-40.5 -139.5q0 -88 39.5 -138.5
t102.5 -50.5q62 0 103 49.5t41 136.5z" />
    <glyph glyph-name="r" unicode="r" horiz-adv-x="384" 
d="M76 504h84v-125h2q16 59 55.5 95.5t94.5 36.5q29 0 50 -5v-86q-24 7 -56 7q-60 0 -102.5 -49t-42.5 -144v-234h-85v504z" />
    <glyph glyph-name="s" unicode="s" horiz-adv-x="475" 
d="M40 153h84q4 -92 117 -92q51 0 80 20t29 51q0 16 -5.5 27.5t-11 18t-24.5 14.5t-30.5 11.5t-44.5 12.5q-37 10 -52.5 14.5t-42.5 14.5t-38.5 19.5t-26 24.5t-19.5 35t-5 46q0 66 53.5 105t133.5 39q91 0 141.5 -41.5t49.5 -116.5h-84q-2 87 -106 87q-45 0 -74 -18.5
t-29 -48.5q0 -16 5.5 -28t12 -19t25 -14t29.5 -10.5t41 -11.5q102 -25 144.5 -55t42.5 -100q0 -65 -54 -106.5t-143 -41.5q-93 0 -145.5 41t-52.5 122z" />
    <glyph glyph-name="t" unicode="t" horiz-adv-x="344" 
d="M99 130v301h-71v70h30q29 0 38 12t9 50v107h79v-166h136v-73h-136v-286q0 -47 15.5 -64.5t53.5 -17.5q34 0 67 15v-71q-36 -17 -87 -17q-72 0 -103 32.5t-31 107.5z" />
    <glyph glyph-name="u" unicode="u" horiz-adv-x="546" 
d="M68 166v338h85v-321q0 -118 99 -118q58 0 96 50.5t38 129.5v259h85v-504h-84v105h-2q-15 -48 -54 -81.5t-98 -33.5q-79 0 -122 44.5t-43 131.5z" />
    <glyph glyph-name="v" unicode="v" horiz-adv-x="487" 
d="M11 504h90l119 -333q18 -53 26 -80h2q13 50 24 80l117 333h87l-184 -504h-96z" />
    <glyph glyph-name="w" unicode="w" horiz-adv-x="783" 
d="M763 504l-155 -504h-97l-99 326q-14 45 -21 78h-2q-8 -34 -21 -79l-95 -325h-97l-156 504h86l99 -333q14 -45 20 -77h3q6 28 21 76l97 334h92l100 -333q13 -42 21 -77h2q6 28 21 76l96 334h85z" />
    <glyph glyph-name="x" unicode="x" horiz-adv-x="505" 
d="M200 257l-168 247h100l124 -186h2l126 186h93l-168 -242l176 -262h-99l-134 201h-2l-138 -201h-92z" />
    <glyph glyph-name="y" unicode="y" horiz-adv-x="491" 
d="M18 -217v72q30 -10 63 -10q41 0 63 24t43 82l16 43l-192 510h91l119 -327q21 -58 27 -81h2q7 25 25 80l116 328h89l-207 -547q-36 -95 -73 -139.5t-104 -44.5q-49 0 -78 10z" />
    <glyph glyph-name="z" unicode="z" horiz-adv-x="445" 
d="M27 64l237 317q12 17 40 49v2q-18 -1 -53 -1h-212v73h368v-64l-231 -307q-30 -40 -46 -59v-2q19 1 58 1h230v-73h-391v64z" />
    <glyph glyph-name="braceleft" unicode="{" horiz-adv-x="411" 
d="M151 -68q0 38 21.5 107.5t21.5 102.5q0 54 -28.5 86.5t-85.5 31.5l-28 -3v71l28 -3q56 -2 85 30.5t29 86.5q0 33 -21.5 101t-21.5 106q0 73 50.5 110.5t157.5 41.5v-63q-74 -6 -103.5 -28.5t-29.5 -78.5q0 -32 21 -95.5t21 -96.5q0 -61 -29 -99t-82 -46v-3
q53 -8 82 -46.5t29 -100.5q0 -33 -21 -96.5t-21 -98.5q0 -56 29.5 -78t103.5 -28v-63q-107 4 -157.5 41.5t-50.5 110.5z" />
    <glyph glyph-name="bar" unicode="|" horiz-adv-x="300" 
d="M115 760h70v-890h-70v890z" />
    <glyph glyph-name="braceright" unicode="}" horiz-adv-x="411" 
d="M51 -156q75 5 104.5 27.5t29.5 78.5q0 32 -21.5 95.5t-21.5 97.5q0 61 28.5 99.5t81.5 46.5v3q-52 7 -81 45.5t-29 99.5q0 33 21.5 97t21.5 98q0 56 -29.5 78.5t-104.5 27.5v64q108 -4 158 -41.5t50 -110.5q0 -39 -21 -108t-21 -102q0 -54 28.5 -86t84.5 -30l28 2v-71
l-28 3q-56 3 -84.5 -30t-28.5 -88q0 -33 21 -101t21 -106q0 -73 -50.5 -110.5t-157.5 -41.5v63z" />
    <glyph glyph-name="asciitilde" unicode="~" horiz-adv-x="530" 
d="M163 345q-58 0 -99 -49v67q39 45 99 45q45 0 105 -37t99 -37q58 0 99 49v-67q-39 -44 -99 -44q-44 0 -104 36.5t-100 36.5z" />
    <glyph glyph-name="exclamdown" unicode="&#xa1;" horiz-adv-x="256" 
d="M176 410h-96v94h96v-94zM174 -166h-92l10 494h73z" />
    <glyph glyph-name="cent" unicode="&#xa2;" horiz-adv-x="534" 
d="M283 136q97 4 116 125h85q-9 -90 -62 -144t-146 -54l-12 -119h-63l13 126q-76 19 -120.5 84t-44.5 166q0 119 60.5 190.5t155.5 76.5l12 117h63l-12 -122q72 -15 113 -68.5t43 -125.5h-85q-2 41 -21.5 74t-57.5 45zM136 322q0 -66 23 -110.5t62 -63.5l37 365
q-55 -8 -88.5 -58.5t-33.5 -132.5z" />
    <glyph glyph-name="sterling" unicode="&#xa3;" horiz-adv-x="642" 
d="M599 195q13 -35 10 -71.5t-16.5 -66.5t-49 -49.5t-87.5 -19.5q-80 0 -167 68q-52 -68 -135 -68q-57 0 -88 27t-31 73q0 48 31.5 78t84.5 30q40 0 94 -28v5q1 54 -43 126h-135v65h94q-41 68 -41 130q0 84 60 136t164 52q110 0 166.5 -55.5t56.5 -150.5h-88
q-7 129 -135 129q-66 0 -101 -31.5t-35 -80.5q0 -23 7.5 -47.5t16 -39.5t24.5 -42h197v-65h-159q31 -62 31 -131q0 -21 -5 -46q79 -51 125 -51q52 0 69 36t5 88h80zM154 53q51 0 76 47q-44 32 -79 32q-20 0 -32.5 -11t-12.5 -30q0 -38 48 -38z" />
    <glyph glyph-name="currency" unicode="&#xa4;" horiz-adv-x="560" 
d="M485 290q0 -68 -40 -122l60 -60l-42 -42l-59 59q-56 -45 -128 -45q-67 0 -124 42l-57 -56l-41 41l56 56q-43 56 -43 127q0 67 41 121l-58 58l41 42l58 -59q58 42 127 42q72 0 130 -45l61 61l42 -41l-62 -62q38 -52 38 -117zM276 145q59 0 100 42t41 103q0 59 -41 99
t-100 40t-100 -40t-41 -99q0 -61 41 -103t100 -42z" />
    <glyph glyph-name="yen" unicode="&#xa5;" horiz-adv-x="613" 
d="M593 670l-213 -334h156v-66h-185v-80h185v-66h-185v-124h-87v124h-178v66h178v80h-178v66h149l-215 334h100l188 -294h2l187 294h96z" />
    <glyph glyph-name="brokenbar" unicode="&#xa6;" horiz-adv-x="300" 
d="M115 760h70v-380h-70v380zM115 252h70v-382h-70v382z" />
    <glyph glyph-name="section" unicode="&#xa7;" horiz-adv-x="582" 
d="M567 211q0 -58 -41.5 -102.5t-123.5 -61.5q-40 -71 -158 -71q-85 0 -136 42t-51 117h83q1 -94 102 -94q95 0 95 68q0 32 -27 60.5t-117 75.5q-109 58 -146 103.5t-37 109.5q0 57 41 101.5t123 61.5q41 72 159 72q85 0 136 -42t51 -117h-83q-1 93 -102 93q-95 0 -95 -68
q0 -32 26.5 -61t116.5 -76q110 -58 147 -103.5t37 -107.5zM417 116q76 23 76 91q0 41 -30 73.5t-118 78.5q-60 30 -98 56.5t-56 51t-24.5 43.5t-6.5 44q-76 -24 -76 -93q0 -41 30 -73t119 -78q59 -31 97 -57t56 -50t24.5 -43t6.5 -44z" />
    <glyph glyph-name="dieresis" unicode="&#xa8;" horiz-adv-x="500" 
d="M126 690h84v-85h-84v85zM290 690h84v-85h-84v85z" />
    <glyph glyph-name="copyright" unicode="&#xa9;" horiz-adv-x="741" 
d="M46 335q0 154 89.5 250t235.5 96q147 0 236 -96t89 -250q0 -155 -89 -250.5t-235 -95.5q-147 0 -236.5 96t-89.5 250zM641 335q0 131 -74 213.5t-196 82.5t-196 -82.5t-74 -213.5q0 -132 74 -214t196 -82t196 82t74 214zM194 333q0 97 48.5 154t126.5 57q74 0 117 -45
t45 -106h-57q-3 43 -28.5 71t-76.5 28q-52 0 -85.5 -42.5t-33.5 -113.5q0 -67 33 -107t84 -40q91 0 109 95h56q-10 -65 -51 -106.5t-114 -41.5q-77 0 -125 53t-48 144z" />
    <glyph glyph-name="ordfeminine" unicode="&#xaa;" horiz-adv-x="387" 
d="M37 423q0 63 56 86.5t162 23.5v24q0 73 -72 73q-33 0 -53 -15t-20 -41q0 -10 1 -18h-60q-1 6 -1 20q0 47 38 75.5t99 28.5q128 0 128 -123v-140q0 -20 5 -27t17 -7q6 0 11 2v-46q-10 -6 -31 -6q-59 0 -59 52v5h-2q-33 -59 -104 -59q-52 0 -83.5 24.5t-31.5 67.5zM255 455
v34q-77 -1 -116.5 -14.5t-39.5 -47.5q0 -46 61 -46q64 0 95 74z" />
    <glyph glyph-name="guillemotleft" unicode="&#xab;" horiz-adv-x="526" 
d="M50 249v62l210 156v-77l-146 -109v-2l146 -106v-79zM253 249v62l210 156v-77l-146 -109v-2l146 -106v-79z" />
    <glyph glyph-name="logicalnot" unicode="&#xac;" horiz-adv-x="530" 
d="M57 356h389v-241h-64v179h-325v62z" />
    <glyph glyph-name="uni00AD" unicode="&#xad;" horiz-adv-x="0" 
 />
    <glyph glyph-name="registered" unicode="&#xae;" horiz-adv-x="524" 
d="M260 680q98 0 163.5 -66t65.5 -163q0 -96 -65 -161t-161 -65q-97 0 -163 65.5t-66 162.5q0 96 65 161.5t161 65.5zM263 265q79 0 130.5 53t51.5 134t-52.5 134.5t-131.5 53.5q-80 0 -131.5 -53t-51.5 -135q0 -81 52.5 -134t132.5 -53zM360 502q0 -30 -15.5 -49.5
t-43.5 -23.5l56 -86h-44l-54 82h-41v-82h-39v228h99q38 0 60 -18t22 -51zM276 458q44 0 44 41q0 39 -44 39h-59v-80h59z" />
    <glyph glyph-name="macron" unicode="&#xaf;" horiz-adv-x="500" 
d="M124 667h251v-59h-251v59z" />
    <glyph glyph-name="degree" unicode="&#xb0;" horiz-adv-x="443" 
d="M46 514q0 73 50 120.5t126 47.5q75 0 125 -48t50 -120q0 -74 -50 -122t-125 -48q-76 0 -126 48.5t-50 121.5zM323 514q0 44 -28.5 72.5t-72.5 28.5q-45 0 -73.5 -28.5t-28.5 -72.5q0 -46 28.5 -74.5t73.5 -28.5q44 0 72.5 29t28.5 74z" />
    <glyph glyph-name="plusminus" unicode="&#xb1;" horiz-adv-x="530" 
d="M297 374h175v-62h-175v-163h-64v163h-175v62h175v163h64v-163zM58 0v62h414v-62h-414z" />
    <glyph glyph-name="uni00B2" unicode="&#xb2;" horiz-adv-x="334" 
d="M36 348q0 47 28 81t95 68q39 20 53 36t14 41q0 23 -14.5 36t-40.5 13q-62 0 -62 -59v-11h-66v12q0 52 35 81.5t94 29.5t91 -26t32 -72q0 -39 -22.5 -65t-77.5 -54q-45 -24 -63.5 -38t-21.5 -31h184v-56h-258v14z" />
    <glyph glyph-name="uni00B3" unicode="&#xb3;" horiz-adv-x="342" 
d="M36 438h65q2 -27 19 -42t47 -15t48 14t18 39q0 26 -18.5 36.5t-57.5 10.5h-18v47h17q70 0 70 47q0 22 -14.5 35.5t-42.5 13.5q-29 0 -45 -13.5t-16 -37.5q0 -5 1 -9h-64q-1 5 -1 10q0 46 34.5 74t92.5 28t90 -25t32 -66q0 -61 -66 -78v-1q74 -6 74 -78q0 -46 -36 -73
t-96 -27q-67 0 -99.5 29.5t-33.5 80.5z" />
    <glyph glyph-name="acute" unicode="&#xb4;" horiz-adv-x="500" 
d="M206 571l120 152h76l-124 -152h-72z" />
    <glyph glyph-name="uni00B5" unicode="&#xb5;" horiz-adv-x="554" 
d="M76 537h85v-352q0 -58 27.5 -89t77.5 -31q56 0 91.5 50t35.5 130v292h85v-537h-87v103h-3q-11 -49 -44.5 -80t-84.5 -31q-72 0 -107 62h-2q9 -42 9 -113v-146h-83v742z" />
    <glyph glyph-name="paragraph" unicode="&#xb6;" 
d="M382 -115v318q-49 -16 -116 -16q-112 0 -174 68t-62 162q0 111 70.5 181.5t207.5 71.5l138 1v-786h-64zM524 670h64v-785h-64v785z" />
    <glyph glyph-name="periodcentered" unicode="&#xb7;" horiz-adv-x="220" 
d="M62 345h96v-94h-96v94z" />
    <glyph glyph-name="cedilla" unicode="&#xb8;" horiz-adv-x="500" 
d="M182 -178l3 48q28 -16 56 -16q18 0 30 8.5t12 22.5q0 41 -78 36l30 87h49l-22 -57h11q30 0 51 -18.5t21 -48.5q0 -37 -27.5 -58t-67.5 -21q-41 0 -68 17z" />
    <glyph glyph-name="uni00B9" unicode="&#xb9;" horiz-adv-x="251" 
d="M175 334h-67v268q-29 -25 -70 -30v59q40 6 71 39h66v-336z" />
    <glyph glyph-name="ordmasculine" unicode="&#xba;" horiz-adv-x="376" 
d="M28 505q0 80 45.5 127.5t114.5 47.5q70 0 115 -46.5t45 -126.5q0 -81 -46 -128.5t-115 -47.5q-70 0 -114.5 46.5t-44.5 127.5zM284 506q0 56 -26.5 87.5t-69.5 31.5t-69.5 -32t-26.5 -87q0 -56 26.5 -88t68.5 -32q43 0 70 32.5t27 87.5z" />
    <glyph glyph-name="guillemotright" unicode="&#xbb;" horiz-adv-x="526" 
d="M63 171l146 109v2l-146 106v79l210 -155v-62l-210 -156v77zM266 171l146 109v2l-146 106v79l210 -155v-62l-210 -156v77z" />
    <glyph glyph-name="onequarter" unicode="&#xbc;" horiz-adv-x="764" 
d="M175 334h-67v268q-29 -25 -70 -30v59q40 6 71 39h66v-336zM86 0l434 670h63l-434 -670h-63zM623 69h-171v55l163 213h72v-213h52v-55h-52v-68h-64v68zM538 124h85v117v19h-2l-12 -18l-74 -94q-12 -17 -18 -23v-1h21z" />
    <glyph glyph-name="onehalf" unicode="&#xbd;" horiz-adv-x="752" 
d="M175 334h-67v268q-29 -25 -70 -30v59q40 6 71 39h66v-336zM86 0l434 670h63l-434 -670h-63zM454 15q0 47 28 81t95 68q39 20 53 36t14 41q0 23 -14.5 36t-40.5 13q-62 0 -62 -59v-11h-66v12q0 52 35 81.5t94 29.5t91 -26t32 -72q0 -39 -22.5 -65t-77.5 -54
q-45 -24 -63.5 -38t-21.5 -31h184v-56h-258v14z" />
    <glyph glyph-name="threequarters" unicode="&#xbe;" horiz-adv-x="855" 
d="M36 438h65q2 -27 19 -42t47 -15t48 14t18 39q0 26 -18.5 36.5t-57.5 10.5h-18v47h17q70 0 70 47q0 22 -14.5 35.5t-42.5 13.5q-29 0 -45 -13.5t-16 -37.5q0 -5 1 -9h-64q-1 5 -1 10q0 46 34.5 74t92.5 28t90 -25t32 -66q0 -61 -66 -78v-1q74 -6 74 -78q0 -46 -36 -73
t-96 -27q-67 0 -99.5 29.5t-33.5 80.5zM177 0l434 670h63l-434 -670h-63zM714 69h-171v55l163 213h72v-213h52v-55h-52v-68h-64v68zM629 124h85v117v19h-2l-12 -18l-74 -94q-12 -17 -18 -23v-1h21z" />
    <glyph glyph-name="questiondown" unicode="&#xbf;" horiz-adv-x="535" 
d="M329 504v-94h-96v94h96zM493 40q7 -98 -57.5 -157.5t-172.5 -59.5q-100 0 -158.5 53t-58.5 138q0 83 53 136.5t140 65.5l5 116h72l7 -174h-20q-80 -3 -124.5 -40t-44.5 -99q0 -56 34 -89.5t98 -33.5q70 0 108 38.5t34 105.5h85z" />
    <glyph glyph-name="Agrave" unicode="&#xc0;" horiz-adv-x="636" 
d="M366 725h-72l-123 152h75zM526 0l-64 171h-291l-64 -171h-89l252 670h96l252 -670h-92zM198 244h237l-91 246q-13 34 -26 77h-3q-6 -19 -26 -77z" />
    <glyph glyph-name="Aacute" unicode="&#xc1;" horiz-adv-x="636" 
d="M471 877l-124 -152h-72l120 152h76zM526 0l-64 171h-291l-64 -171h-89l252 670h96l252 -670h-92zM198 244h237l-91 246q-13 34 -26 77h-3q-6 -19 -26 -77z" />
    <glyph glyph-name="Acircumflex" unicode="&#xc2;" horiz-adv-x="636" 
d="M319 822l-71 -97h-69l113 152h59l111 -152h-71zM526 0l-64 171h-291l-64 -171h-89l252 670h96l252 -670h-92zM198 244h237l-91 246q-13 34 -26 77h-3q-6 -19 -26 -77z" />
    <glyph glyph-name="Atilde" unicode="&#xc3;" horiz-adv-x="636" 
d="M260 802q-35 0 -38 -64h-53q0 56 23 88.5t65 32.5q45 0 80 -38q24 -27 41 -27q33 0 38 63h53q-1 -57 -23.5 -89t-63.5 -32q-46 0 -80 38q-25 28 -42 28zM526 0l-64 171h-291l-64 -171h-89l252 670h96l252 -670h-92zM198 244h237l-91 246q-13 34 -26 77h-3q-6 -19 -26 -77
z" />
    <glyph glyph-name="Adieresis" unicode="&#xc4;" horiz-adv-x="636" 
d="M279 844v-85h-84v85h84zM443 844v-85h-84v85h84zM526 0l-64 171h-291l-64 -171h-89l252 670h96l252 -670h-92zM198 244h237l-91 246q-13 34 -26 77h-3q-6 -19 -26 -77z" />
    <glyph glyph-name="Aring" unicode="&#xc5;" horiz-adv-x="636" 
d="M319 712q-44 0 -73.5 27t-29.5 69q0 41 29.5 68.5t73.5 27.5t73.5 -27.5t29.5 -68.5q0 -42 -29 -69t-74 -27zM319 860q-24 0 -38.5 -14.5t-14.5 -37.5q0 -24 14.5 -38.5t38.5 -14.5t38.5 15t14.5 38t-14.5 37.5t-38.5 14.5zM526 0l-64 171h-291l-64 -171h-89l252 670h96
l252 -670h-92zM198 244h237l-91 246q-13 34 -26 77h-3q-6 -19 -26 -77z" />
    <glyph glyph-name="AE" unicode="&#xc6;" horiz-adv-x="911" 
d="M864 592h-340v-209h293v-78h-293v-227h340v-78h-427v171h-242l-96 -171h-92l378 670h479v-78zM236 244h201v348h-5q-3 -6 -49 -87z" />
    <glyph glyph-name="Ccedilla" unicode="&#xc7;" 
d="M353 65q82 0 128 48.5t57 128.5h88q-13 -108 -76 -177t-172 -76l-15 -38h11q30 0 51 -18.5t21 -48.5q0 -37 -27.5 -58t-67.5 -21q-41 0 -68 17l3 48q28 -16 56 -16q18 0 30 8.5t12 22.5q0 41 -78 36l23 68q-134 8 -204.5 101t-70.5 242q0 153 81.5 251.5t218.5 98.5
q121 0 193.5 -74.5t78.5 -178.5h-88q-8 72 -54.5 123.5t-129.5 51.5q-97 0 -153.5 -76.5t-56.5 -195.5q0 -118 55.5 -192.5t153.5 -74.5z" />
    <glyph glyph-name="Egrave" unicode="&#xc8;" horiz-adv-x="565" 
d="M359 725h-72l-123 152h75zM518 592h-340v-209h293v-78h-293v-227h340v-78h-427v670h427v-78z" />
    <glyph glyph-name="Eacute" unicode="&#xc9;" horiz-adv-x="565" 
d="M464 877l-124 -152h-72l120 152h76zM518 592h-340v-209h293v-78h-293v-227h340v-78h-427v670h427v-78z" />
    <glyph glyph-name="Ecircumflex" unicode="&#xca;" horiz-adv-x="565" 
d="M312 822l-71 -97h-69l113 152h59l111 -152h-71zM518 592h-340v-209h293v-78h-293v-227h340v-78h-427v670h427v-78z" />
    <glyph glyph-name="Edieresis" unicode="&#xcb;" horiz-adv-x="565" 
d="M272 844v-85h-84v85h84zM436 844v-85h-84v85h84zM518 592h-340v-209h293v-78h-293v-227h340v-78h-427v670h427v-78z" />
    <glyph glyph-name="Igrave" unicode="&#xcc;" horiz-adv-x="269" 
d="M-13 877h75l120 -152h-72zM91 670h87v-670h-87v670z" />
    <glyph glyph-name="Iacute" unicode="&#xcd;" horiz-adv-x="269" 
d="M91 725l120 152h76l-124 -152h-72zM91 670h87v-670h-87v670z" />
    <glyph glyph-name="Icircumflex" unicode="&#xce;" horiz-adv-x="269" 
d="M-5 725l113 152h59l111 -152h-71l-72 97l-71 -97h-69zM91 670h87v-670h-87v670z" />
    <glyph glyph-name="Idieresis" unicode="&#xcf;" horiz-adv-x="269" 
d="M11 844h84v-85h-84v85zM175 844h84v-85h-84v85zM91 670h87v-670h-87v670z" />
    <glyph glyph-name="Eth" unicode="&#xd0;" horiz-adv-x="694" 
d="M321 670q151 0 235.5 -92.5t84.5 -235.5q0 -150 -85.5 -246t-238.5 -96h-223v311h-65v67h65v292h227zM313 78q117 0 177.5 72t60.5 190q0 112 -59.5 182t-176.5 70h-134v-214h151v-67h-151v-233h132z" />
    <glyph glyph-name="Ntilde" unicode="&#xd1;" horiz-adv-x="695" 
d="M296 859q45 0 80 -38q24 -27 41 -27q33 0 38 63h53q-1 -57 -23.5 -89t-63.5 -32q-46 0 -80 38q-25 28 -42 28q-35 0 -38 -64h-53q0 56 23 88.5t65 32.5zM91 670h89l340 -523h2v523h82v-670h-87l-342 527h-2v-527h-82v670z" />
    <glyph glyph-name="Ograve" unicode="&#xd2;" horiz-adv-x="703" 
d="M205 877h75l120 -152h-72zM52 333q0 153 81.5 251t219.5 98t218 -98t80 -247q0 -153 -81.5 -251t-219.5 -98t-218 98t-80 247zM561 335q0 118 -55.5 193.5t-153.5 75.5t-154 -75.5t-56 -193.5t55.5 -193.5t153.5 -75.5t154 75.5t56 193.5z" />
    <glyph glyph-name="Oacute" unicode="&#xd3;" horiz-adv-x="703" 
d="M309 725l120 152h76l-124 -152h-72zM52 333q0 153 81.5 251t219.5 98t218 -98t80 -247q0 -153 -81.5 -251t-219.5 -98t-218 98t-80 247zM561 335q0 118 -55.5 193.5t-153.5 75.5t-154 -75.5t-56 -193.5t55.5 -193.5t153.5 -75.5t154 75.5t56 193.5z" />
    <glyph glyph-name="Ocircumflex" unicode="&#xd4;" horiz-adv-x="703" 
d="M213 725l113 152h59l111 -152h-71l-72 97l-71 -97h-69zM52 333q0 153 81.5 251t219.5 98t218 -98t80 -247q0 -153 -81.5 -251t-219.5 -98t-218 98t-80 247zM561 335q0 118 -55.5 193.5t-153.5 75.5t-154 -75.5t-56 -193.5t55.5 -193.5t153.5 -75.5t154 75.5t56 193.5z
" />
    <glyph glyph-name="Otilde" unicode="&#xd5;" horiz-adv-x="703" 
d="M291 859q45 0 80 -38q24 -27 41 -27q33 0 38 63h53q-1 -57 -23.5 -89t-63.5 -32q-46 0 -80 38q-25 28 -42 28q-35 0 -38 -64h-53q0 56 23 88.5t65 32.5zM52 333q0 153 81.5 251t219.5 98t218 -98t80 -247q0 -153 -81.5 -251t-219.5 -98t-218 98t-80 247zM561 335
q0 118 -55.5 193.5t-153.5 75.5t-154 -75.5t-56 -193.5t55.5 -193.5t153.5 -75.5t154 75.5t56 193.5z" />
    <glyph glyph-name="Odieresis" unicode="&#xd6;" horiz-adv-x="703" 
d="M229 844h84v-85h-84v85zM393 844h84v-85h-84v85zM52 333q0 153 81.5 251t219.5 98t218 -98t80 -247q0 -153 -81.5 -251t-219.5 -98t-218 98t-80 247zM561 335q0 118 -55.5 193.5t-153.5 75.5t-154 -75.5t-56 -193.5t55.5 -193.5t153.5 -75.5t154 75.5t56 193.5z" />
    <glyph glyph-name="multiply" unicode="&#xd7;" horiz-adv-x="530" 
d="M454 467l-138 -137l138 -138l-46 -45l-138 137l-137 -137l-44 43l138 138l-138 137l46 46l138 -137l137 137z" />
    <glyph glyph-name="Oslash" unicode="&#xd8;" horiz-adv-x="707" 
d="M669 685l-88 -111q72 -93 72 -237q0 -155 -81 -252t-220 -97q-107 0 -183 63l-51 -65h-80l87 111q-71 94 -71 236q0 154 81 251.5t220 97.5q106 0 182 -63l52 66h80zM143 335q0 -99 38 -167l305 387q-53 51 -131 51q-99 0 -155.5 -76t-56.5 -195zM564 335q0 98 -38 168
l-306 -387q54 -52 133 -52q98 0 154.5 76.5t56.5 194.5z" />
    <glyph glyph-name="Ugrave" unicode="&#xd9;" 
d="M193 877h75l120 -152h-72zM86 239v431h87v-421q0 -88 43.5 -135.5t125.5 -47.5q78 0 121.5 47.5t43.5 132.5v424h87v-433q0 -114 -67 -181.5t-185 -67.5q-124 0 -190 66.5t-66 184.5z" />
    <glyph glyph-name="Uacute" unicode="&#xda;" 
d="M297 725l120 152h76l-124 -152h-72zM86 239v431h87v-421q0 -88 43.5 -135.5t125.5 -47.5q78 0 121.5 47.5t43.5 132.5v424h87v-433q0 -114 -67 -181.5t-185 -67.5q-124 0 -190 66.5t-66 184.5z" />
    <glyph glyph-name="Ucircumflex" unicode="&#xdb;" 
d="M201 725l113 152h59l111 -152h-71l-72 97l-71 -97h-69zM86 239v431h87v-421q0 -88 43.5 -135.5t125.5 -47.5q78 0 121.5 47.5t43.5 132.5v424h87v-433q0 -114 -67 -181.5t-185 -67.5q-124 0 -190 66.5t-66 184.5z" />
    <glyph glyph-name="Udieresis" unicode="&#xdc;" 
d="M217 844h84v-85h-84v85zM381 844h84v-85h-84v85zM86 239v431h87v-421q0 -88 43.5 -135.5t125.5 -47.5q78 0 121.5 47.5t43.5 132.5v424h87v-433q0 -114 -67 -181.5t-185 -67.5q-124 0 -190 66.5t-66 184.5z" />
    <glyph glyph-name="Yacute" unicode="&#xdd;" horiz-adv-x="593" 
d="M450 877l-124 -152h-72l120 152h76zM583 670l-242 -384v-286h-87v286l-244 384h98l190 -294h2l187 294h96z" />
    <glyph glyph-name="Thorn" unicode="&#xde;" horiz-adv-x="593" 
d="M91 670h84v-115h150q103 0 164 -56.5t61 -154.5q0 -101 -62 -159.5t-168 -58.5h-145v-126h-84v670zM318 204q66 0 104 37t38 101t-37.5 99.5t-104.5 35.5h-143v-273h143z" />
    <glyph glyph-name="germandbls" unicode="&#xdf;" horiz-adv-x="586" 
d="M237 5v71q36 -16 84 -14q62 2 97 37t35 102q0 133 -157 133h-27v72h24q58 0 87 33t29 90q0 55 -32 87t-86 32q-131 0 -131 -141v-507h-85v509q0 102 56 156.5t159 54.5q95 0 149.5 -50.5t54.5 -136.5q0 -126 -114 -153v-2q76 -10 118.5 -55.5t42.5 -127.5
q0 -94 -57 -149.5t-149 -55.5q-57 0 -98 15z" />
    <glyph glyph-name="agrave" unicode="&#xe0;" horiz-adv-x="519" 
d="M109 723h75l120 -152h-72zM43 124q0 39 16 68t42.5 46.5t68 29t85.5 16t103 5.5v41q0 57 -25.5 84t-79.5 27q-48 0 -78 -24.5t-30 -68.5q0 -11 1 -18h-80q-1 8 -1 18q0 74 53.5 120t138.5 46q91 0 138.5 -47.5t47.5 -137.5v-184q0 -47 7 -63.5t25 -16.5q14 0 23 5v-65
q-18 -12 -51 -12q-47 0 -65 19.5t-21 69.5h-2q-44 -92 -163 -92q-72 0 -112.5 35t-40.5 99zM358 162v67q-118 -2 -173 -23.5t-55 -72.5q0 -75 91 -75q45 0 82 26.5t55 77.5z" />
    <glyph glyph-name="aacute" unicode="&#xe1;" horiz-adv-x="519" 
d="M213 571l120 152h76l-124 -152h-72zM43 124q0 39 16 68t42.5 46.5t68 29t85.5 16t103 5.5v41q0 57 -25.5 84t-79.5 27q-48 0 -78 -24.5t-30 -68.5q0 -11 1 -18h-80q-1 8 -1 18q0 74 53.5 120t138.5 46q91 0 138.5 -47.5t47.5 -137.5v-184q0 -47 7 -63.5t25 -16.5
q14 0 23 5v-65q-18 -12 -51 -12q-47 0 -65 19.5t-21 69.5h-2q-44 -92 -163 -92q-72 0 -112.5 35t-40.5 99zM358 162v67q-118 -2 -173 -23.5t-55 -72.5q0 -75 91 -75q45 0 82 26.5t55 77.5z" />
    <glyph glyph-name="acircumflex" unicode="&#xe2;" horiz-adv-x="519" 
d="M117 571l113 152h59l111 -152h-71l-72 97l-71 -97h-69zM43 124q0 39 16 68t42.5 46.5t68 29t85.5 16t103 5.5v41q0 57 -25.5 84t-79.5 27q-48 0 -78 -24.5t-30 -68.5q0 -11 1 -18h-80q-1 8 -1 18q0 74 53.5 120t138.5 46q91 0 138.5 -47.5t47.5 -137.5v-184
q0 -47 7 -63.5t25 -16.5q14 0 23 5v-65q-18 -12 -51 -12q-47 0 -65 19.5t-21 69.5h-2q-44 -92 -163 -92q-72 0 -112.5 35t-40.5 99zM358 162v67q-118 -2 -173 -23.5t-55 -72.5q0 -75 91 -75q45 0 82 26.5t55 77.5z" />
    <glyph glyph-name="atilde" unicode="&#xe3;" horiz-adv-x="519" 
d="M195 705q45 0 80 -38q24 -27 41 -27q33 0 38 63h53q-1 -57 -23.5 -89t-63.5 -32q-46 0 -80 38q-25 28 -42 28q-35 0 -38 -64h-53q0 56 23 88.5t65 32.5zM43 124q0 39 16 68t42.5 46.5t68 29t85.5 16t103 5.5v41q0 57 -25.5 84t-79.5 27q-48 0 -78 -24.5t-30 -68.5
q0 -11 1 -18h-80q-1 8 -1 18q0 74 53.5 120t138.5 46q91 0 138.5 -47.5t47.5 -137.5v-184q0 -47 7 -63.5t25 -16.5q14 0 23 5v-65q-18 -12 -51 -12q-47 0 -65 19.5t-21 69.5h-2q-44 -92 -163 -92q-72 0 -112.5 35t-40.5 99zM358 162v67q-118 -2 -173 -23.5t-55 -72.5
q0 -75 91 -75q45 0 82 26.5t55 77.5z" />
    <glyph glyph-name="adieresis" unicode="&#xe4;" horiz-adv-x="519" 
d="M133 690h84v-85h-84v85zM297 690h84v-85h-84v85zM43 124q0 39 16 68t42.5 46.5t68 29t85.5 16t103 5.5v41q0 57 -25.5 84t-79.5 27q-48 0 -78 -24.5t-30 -68.5q0 -11 1 -18h-80q-1 8 -1 18q0 74 53.5 120t138.5 46q91 0 138.5 -47.5t47.5 -137.5v-184q0 -47 7 -63.5
t25 -16.5q14 0 23 5v-65q-18 -12 -51 -12q-47 0 -65 19.5t-21 69.5h-2q-44 -92 -163 -92q-72 0 -112.5 35t-40.5 99zM358 162v67q-118 -2 -173 -23.5t-55 -72.5q0 -75 91 -75q45 0 82 26.5t55 77.5z" />
    <glyph glyph-name="aring" unicode="&#xe5;" horiz-adv-x="519" 
d="M154 654q0 41 29.5 68.5t73.5 27.5t73.5 -27.5t29.5 -68.5q0 -42 -29 -69t-74 -27q-44 0 -73.5 27t-29.5 69zM310 654q0 23 -14.5 37.5t-38.5 14.5t-38.5 -14.5t-14.5 -37.5q0 -24 14.5 -38.5t38.5 -14.5t38.5 15t14.5 38zM43 124q0 39 16 68t42.5 46.5t68 29t85.5 16
t103 5.5v41q0 57 -25.5 84t-79.5 27q-48 0 -78 -24.5t-30 -68.5q0 -11 1 -18h-80q-1 8 -1 18q0 74 53.5 120t138.5 46q91 0 138.5 -47.5t47.5 -137.5v-184q0 -47 7 -63.5t25 -16.5q14 0 23 5v-65q-18 -12 -51 -12q-47 0 -65 19.5t-21 69.5h-2q-44 -92 -163 -92
q-72 0 -112.5 35t-40.5 99zM358 162v67q-118 -2 -173 -23.5t-55 -72.5q0 -75 91 -75q45 0 82 26.5t55 77.5z" />
    <glyph glyph-name="ae" unicode="&#xe6;" horiz-adv-x="837" 
d="M789 269q0 -12 -2 -38h-348q2 -81 39.5 -124.5t102.5 -43.5q57 0 88 29.5t36 72.5h79q-5 -72 -59 -123.5t-145 -51.5q-128 0 -185 104h-4q-66 -104 -180 -104q-80 0 -124 35.5t-44 103.5q0 47 23 79t67.5 49.5t98 25.5t126.5 10v37q0 57 -25 84t-79 27q-48 0 -78.5 -24.5
t-30.5 -64.5q0 -10 1 -22h-80q-1 7 -1 21q0 73 53.5 118t138.5 45q117 0 156 -82q62 82 162 82q99 0 156.5 -65.5t57.5 -179.5zM575 443q-54 0 -90.5 -38.5t-43.5 -109.5h264q-4 73 -39 110.5t-91 37.5zM358 160v74q-118 -4 -173 -26t-55 -75q0 -75 92 -75q44 0 80.5 27
t55.5 75z" />
    <glyph glyph-name="ccedilla" unicode="&#xe7;" horiz-adv-x="534" 
d="M276 63q104 0 123 125h85q-9 -85 -56 -137.5t-130 -59.5l-15 -40h11q30 0 51 -18.5t21 -48.5q0 -37 -27.5 -58t-67.5 -21q-41 0 -68 17l3 48q28 -16 56 -16q18 0 30 8.5t12 22.5q0 41 -78 36l24 70q-90 8 -145.5 75.5t-55.5 180.5q0 124 65 195.5t164 71.5
q94 0 149 -57.5t57 -141.5h-85q-2 52 -33 89t-88 37q-63 0 -102.5 -51t-39.5 -141q0 -87 39 -136.5t101 -49.5z" />
    <glyph glyph-name="egrave" unicode="&#xe8;" horiz-adv-x="534" 
d="M320 571h-72l-123 152h75zM486 270q0 -12 -2 -38h-348q1 -82 38.5 -125.5t103.5 -43.5q57 0 88 29.5t36 72.5h79q-5 -72 -59 -123.5t-145 -51.5q-106 0 -167 68.5t-61 192.5q0 122 63.5 192.5t159.5 70.5q99 0 156.5 -65t57.5 -179zM272 443q-54 0 -90.5 -38t-43.5 -109
h264q-4 73 -39 110t-91 37z" />
    <glyph glyph-name="eacute" unicode="&#xe9;" horiz-adv-x="534" 
d="M425 723l-124 -152h-72l120 152h76zM486 270q0 -12 -2 -38h-348q1 -82 38.5 -125.5t103.5 -43.5q57 0 88 29.5t36 72.5h79q-5 -72 -59 -123.5t-145 -51.5q-106 0 -167 68.5t-61 192.5q0 122 63.5 192.5t159.5 70.5q99 0 156.5 -65t57.5 -179zM272 443q-54 0 -90.5 -38
t-43.5 -109h264q-4 73 -39 110t-91 37z" />
    <glyph glyph-name="ecircumflex" unicode="&#xea;" horiz-adv-x="534" 
d="M273 668l-71 -97h-69l113 152h59l111 -152h-71zM486 270q0 -12 -2 -38h-348q1 -82 38.5 -125.5t103.5 -43.5q57 0 88 29.5t36 72.5h79q-5 -72 -59 -123.5t-145 -51.5q-106 0 -167 68.5t-61 192.5q0 122 63.5 192.5t159.5 70.5q99 0 156.5 -65t57.5 -179zM272 443
q-54 0 -90.5 -38t-43.5 -109h264q-4 73 -39 110t-91 37z" />
    <glyph glyph-name="edieresis" unicode="&#xeb;" horiz-adv-x="534" 
d="M233 690v-85h-84v85h84zM397 690v-85h-84v85h84zM486 270q0 -12 -2 -38h-348q1 -82 38.5 -125.5t103.5 -43.5q57 0 88 29.5t36 72.5h79q-5 -72 -59 -123.5t-145 -51.5q-106 0 -167 68.5t-61 192.5q0 122 63.5 192.5t159.5 70.5q99 0 156.5 -65t57.5 -179zM272 443
q-54 0 -90.5 -38t-43.5 -109h264q-4 73 -39 110t-91 37z" />
    <glyph glyph-name="igrave" unicode="&#xec;" horiz-adv-x="236" 
d="M-28 723h75l120 -152h-72zM76 504h85v-504h-85v504z" />
    <glyph glyph-name="iacute" unicode="&#xed;" horiz-adv-x="236" 
d="M76 571l120 152h76l-124 -152h-72zM76 504h85v-504h-85v504z" />
    <glyph glyph-name="icircumflex" unicode="&#xee;" horiz-adv-x="236" 
d="M-20 571l113 152h59l111 -152h-71l-72 97l-71 -97h-69zM76 504h85v-504h-85v504z" />
    <glyph glyph-name="idieresis" unicode="&#xef;" horiz-adv-x="236" 
d="M-4 690h84v-85h-84v85zM160 690h84v-85h-84v85zM76 504h85v-504h-85v504z" />
    <glyph glyph-name="eth" unicode="&#xf0;" horiz-adv-x="553" 
d="M376 619q133 -140 133 -347q0 -128 -62.5 -205t-169.5 -77q-102 0 -166.5 63.5t-64.5 177.5q0 115 63 180t161 65q97 0 146 -79h2q-21 102 -104 188l-134 -74v63l92 51q-60 51 -141 95h114q51 -30 88 -61l128 71v-64zM277 59q65 0 105.5 46t40.5 128t-40.5 127.5
t-104.5 45.5t-104.5 -46.5t-40.5 -129.5q0 -81 40 -126t104 -45z" />
    <glyph glyph-name="ntilde" unicode="&#xf1;" horiz-adv-x="555" 
d="M226 705q45 0 80 -38q24 -27 41 -27q33 0 38 63h53q-1 -57 -23.5 -89t-63.5 -32q-46 0 -80 38q-25 28 -42 28q-35 0 -38 -64h-53q0 56 23 88.5t65 32.5zM76 504h84v-104h2q13 48 55.5 81t107.5 33q75 0 118.5 -46t43.5 -131v-337h-85v317q0 64 -26 93t-78 29
q-60 0 -98.5 -50.5t-38.5 -130.5v-258h-85v504z" />
    <glyph glyph-name="ograve" unicode="&#xf2;" horiz-adv-x="559" 
d="M133 723h75l120 -152h-72zM49 249q0 124 66 194.5t166 70.5q102 0 166 -69t64 -192q0 -121 -65.5 -192t-165.5 -71q-102 0 -166.5 69t-64.5 190zM424 251q0 89 -39.5 139.5t-103.5 50.5t-104.5 -51t-40.5 -139q0 -89 40 -138.5t104 -49.5t104 50t40 138z" />
    <glyph glyph-name="oacute" unicode="&#xf3;" horiz-adv-x="559" 
d="M237 571l120 152h76l-124 -152h-72zM49 249q0 124 66 194.5t166 70.5q102 0 166 -69t64 -192q0 -121 -65.5 -192t-165.5 -71q-102 0 -166.5 69t-64.5 190zM424 251q0 89 -39.5 139.5t-103.5 50.5t-104.5 -51t-40.5 -139q0 -89 40 -138.5t104 -49.5t104 50t40 138z" />
    <glyph glyph-name="ocircumflex" unicode="&#xf4;" horiz-adv-x="559" 
d="M141 571l113 152h59l111 -152h-71l-72 97l-71 -97h-69zM49 249q0 124 66 194.5t166 70.5q102 0 166 -69t64 -192q0 -121 -65.5 -192t-165.5 -71q-102 0 -166.5 69t-64.5 190zM424 251q0 89 -39.5 139.5t-103.5 50.5t-104.5 -51t-40.5 -139q0 -89 40 -138.5t104 -49.5
t104 50t40 138z" />
    <glyph glyph-name="otilde" unicode="&#xf5;" horiz-adv-x="559" 
d="M219 705q45 0 80 -38q24 -27 41 -27q33 0 38 63h53q-1 -57 -23.5 -89t-63.5 -32q-46 0 -80 38q-25 28 -42 28q-35 0 -38 -64h-53q0 56 23 88.5t65 32.5zM49 249q0 124 66 194.5t166 70.5q102 0 166 -69t64 -192q0 -121 -65.5 -192t-165.5 -71q-102 0 -166.5 69t-64.5 190
zM424 251q0 89 -39.5 139.5t-103.5 50.5t-104.5 -51t-40.5 -139q0 -89 40 -138.5t104 -49.5t104 50t40 138z" />
    <glyph glyph-name="odieresis" unicode="&#xf6;" horiz-adv-x="559" 
d="M157 690h84v-85h-84v85zM321 690h84v-85h-84v85zM49 249q0 124 66 194.5t166 70.5q102 0 166 -69t64 -192q0 -121 -65.5 -192t-165.5 -71q-102 0 -166.5 69t-64.5 190zM424 251q0 89 -39.5 139.5t-103.5 50.5t-104.5 -51t-40.5 -139q0 -89 40 -138.5t104 -49.5t104 50
t40 138z" />
    <glyph glyph-name="divide" unicode="&#xf7;" horiz-adv-x="530" 
d="M206 500q0 25 17 41.5t42 16.5t41.5 -16.5t16.5 -41.5q0 -24 -16.5 -40.5t-41.5 -16.5t-42 16.5t-17 40.5zM58 356h414v-62h-414v62zM206 149q0 25 17 41.5t42 16.5t41.5 -16.5t16.5 -41.5t-16.5 -41t-41.5 -16q-26 0 -42.5 16t-16.5 41z" />
    <glyph glyph-name="oslash" unicode="&#xf8;" horiz-adv-x="559" 
d="M531 518l-71 -89q51 -70 51 -174q0 -122 -66 -193.5t-166 -71.5q-78 0 -136 43l-38 -48h-76l72 90q-52 68 -52 176q0 121 65.5 192t165.5 71q80 0 138 -44l38 48h75zM133 253q0 -62 21 -112l217 271q-36 36 -91 36q-65 0 -106 -52.5t-41 -142.5zM426 253q0 63 -20 108
l-216 -270q37 -35 89 -35q66 0 106.5 53t40.5 144z" />
    <glyph glyph-name="ugrave" unicode="&#xf9;" horiz-adv-x="546" 
d="M121 723h75l120 -152h-72zM68 166v338h85v-321q0 -118 99 -118q58 0 96 50.5t38 129.5v259h85v-504h-84v105h-2q-15 -48 -54 -81.5t-98 -33.5q-79 0 -122 44.5t-43 131.5z" />
    <glyph glyph-name="uacute" unicode="&#xfa;" horiz-adv-x="546" 
d="M225 571l120 152h76l-124 -152h-72zM68 166v338h85v-321q0 -118 99 -118q58 0 96 50.5t38 129.5v259h85v-504h-84v105h-2q-15 -48 -54 -81.5t-98 -33.5q-79 0 -122 44.5t-43 131.5z" />
    <glyph glyph-name="ucircumflex" unicode="&#xfb;" horiz-adv-x="546" 
d="M129 571l113 152h59l111 -152h-71l-72 97l-71 -97h-69zM68 166v338h85v-321q0 -118 99 -118q58 0 96 50.5t38 129.5v259h85v-504h-84v105h-2q-15 -48 -54 -81.5t-98 -33.5q-79 0 -122 44.5t-43 131.5z" />
    <glyph glyph-name="udieresis" unicode="&#xfc;" horiz-adv-x="546" 
d="M145 690h84v-85h-84v85zM309 690h84v-85h-84v85zM68 166v338h85v-321q0 -118 99 -118q58 0 96 50.5t38 129.5v259h85v-504h-84v105h-2q-15 -48 -54 -81.5t-98 -33.5q-79 0 -122 44.5t-43 131.5z" />
    <glyph glyph-name="yacute" unicode="&#xfd;" horiz-adv-x="491" 
d="M209 571l120 152h76l-124 -152h-72zM18 -217v72q30 -10 63 -10q41 0 63 24t43 82l16 43l-192 510h91l119 -327q21 -58 27 -81h2q7 25 25 80l116 328h89l-207 -547q-36 -95 -73 -139.5t-104 -44.5q-49 0 -78 10z" />
    <glyph glyph-name="thorn" unicode="&#xfe;" horiz-adv-x="582" 
d="M320 514q95 0 154.5 -68t59.5 -189q0 -122 -61.5 -194.5t-161.5 -72.5q-54 0 -93.5 25.5t-54.5 60.5h-2v-291h-85v935h85v-230q0 -56 -1 -86h2q11 44 53 77t105 33zM299 61q66 0 107 52.5t41 139.5q0 88 -40 139t-103 51q-62 0 -102.5 -50t-40.5 -137v-21
q0 -79 39.5 -126.5t98.5 -47.5z" />
    <glyph glyph-name="ydieresis" unicode="&#xff;" horiz-adv-x="491" 
d="M129 690h84v-85h-84v85zM293 690h84v-85h-84v85zM18 -217v72q30 -10 63 -10q41 0 63 24t43 82l16 43l-192 510h91l119 -327q21 -58 27 -81h2q7 25 25 80l116 328h89l-207 -547q-36 -95 -73 -139.5t-104 -44.5q-49 0 -78 10z" />
    <glyph glyph-name="Amacron" unicode="&#x100;" horiz-adv-x="636" 
d="M444 821v-59h-251v59h251zM526 0l-64 171h-291l-64 -171h-89l252 670h96l252 -670h-92zM198 244h237l-91 246q-13 34 -26 77h-3q-6 -19 -26 -77z" />
    <glyph glyph-name="amacron" unicode="&#x101;" horiz-adv-x="519" 
d="M131 667h251v-59h-251v59zM43 124q0 39 16 68t42.5 46.5t68 29t85.5 16t103 5.5v41q0 57 -25.5 84t-79.5 27q-48 0 -78 -24.5t-30 -68.5q0 -11 1 -18h-80q-1 8 -1 18q0 74 53.5 120t138.5 46q91 0 138.5 -47.5t47.5 -137.5v-184q0 -47 7 -63.5t25 -16.5q14 0 23 5v-65
q-18 -12 -51 -12q-47 0 -65 19.5t-21 69.5h-2q-44 -92 -163 -92q-72 0 -112.5 35t-40.5 99zM358 162v67q-118 -2 -173 -23.5t-55 -72.5q0 -75 91 -75q45 0 82 26.5t55 77.5z" />
    <glyph glyph-name="Abreve" unicode="&#x102;" horiz-adv-x="636" 
d="M319 725q-60 0 -91 36t-39 109h58q13 -89 73 -89q32 0 49 21.5t25 67.5h56q-8 -74 -39.5 -109.5t-91.5 -35.5zM526 0l-64 171h-291l-64 -171h-89l252 670h96l252 -670h-92zM198 244h237l-91 246q-13 34 -26 77h-3q-6 -19 -26 -77z" />
    <glyph glyph-name="abreve" unicode="&#x103;" horiz-adv-x="519" 
d="M127 716h58q13 -89 73 -89q32 0 49 21.5t25 67.5h56q-8 -74 -39.5 -109.5t-91.5 -35.5t-91 36t-39 109zM43 124q0 39 16 68t42.5 46.5t68 29t85.5 16t103 5.5v41q0 57 -25.5 84t-79.5 27q-48 0 -78 -24.5t-30 -68.5q0 -11 1 -18h-80q-1 8 -1 18q0 74 53.5 120t138.5 46
q91 0 138.5 -47.5t47.5 -137.5v-184q0 -47 7 -63.5t25 -16.5q14 0 23 5v-65q-18 -12 -51 -12q-47 0 -65 19.5t-21 69.5h-2q-44 -92 -163 -92q-72 0 -112.5 35t-40.5 99zM358 162v67q-118 -2 -173 -23.5t-55 -72.5q0 -75 91 -75q45 0 82 26.5t55 77.5z" />
    <glyph glyph-name="Aogonek" unicode="&#x104;" horiz-adv-x="636" 
d="M578 -149q28 0 53 13v-57q-27 -14 -70 -14q-45 0 -76.5 21.5t-31.5 61.5q0 70 108 124h-35l-64 171h-291l-64 -171h-89l252 670h96l252 -670q-55 -34 -73 -57t-18 -46q0 -22 14 -34t37 -12zM198 244h237l-91 246q-13 34 -26 77h-3q-6 -19 -26 -77z" />
    <glyph glyph-name="aogonek" unicode="&#x105;" horiz-adv-x="519" 
d="M458 -145q28 0 53 13v-57q-27 -14 -70 -14q-45 0 -76.5 21.5t-31.5 61.5q0 65 90 114q-32 4 -46 24t-16 64h-2q-44 -92 -163 -92q-72 0 -112.5 35t-40.5 99q0 39 16 68t42.5 46.5t68 29t85.5 16t103 5.5v41q0 57 -25.5 84t-79.5 27q-48 0 -78 -24.5t-30 -68.5
q0 -11 1 -18h-80q-1 8 -1 18q0 74 53.5 120t138.5 46q91 0 138.5 -47.5t47.5 -137.5v-184q0 -47 7 -63.5t25 -16.5q14 0 23 5v-65q-1 0 -1 -1h1q-55 -34 -73 -57t-18 -46q0 -22 14 -34t37 -12zM358 162v67q-118 -2 -173 -23.5t-55 -72.5q0 -75 91 -75q45 0 82 26.5t55 77.5z
" />
    <glyph glyph-name="Cacute" unicode="&#x106;" 
d="M309 725l120 152h76l-124 -152h-72zM54 332q0 153 81.5 251.5t218.5 98.5q121 0 193.5 -74.5t78.5 -178.5h-88q-8 72 -54.5 123.5t-129.5 51.5q-97 0 -153.5 -76.5t-56.5 -195.5q0 -118 55.5 -192.5t153.5 -74.5q82 0 128 48.5t57 128.5h88q-14 -114 -83 -184t-190 -70
q-145 0 -222 94t-77 250z" />
    <glyph glyph-name="cacute" unicode="&#x107;" horiz-adv-x="534" 
d="M234 571l120 152h76l-124 -152h-72zM49 247q0 124 65 195.5t164 71.5q94 0 149 -57.5t57 -141.5h-85q-2 52 -33 89t-88 37q-63 0 -102.5 -51t-39.5 -141q0 -87 39 -136.5t101 -49.5q104 0 123 125h85q-9 -90 -62 -144t-147 -54q-100 0 -163 68t-63 189z" />
    <glyph glyph-name="Ccircumflex" unicode="&#x108;" 
d="M213 725l113 152h59l111 -152h-71l-72 97l-71 -97h-69zM54 332q0 153 81.5 251.5t218.5 98.5q121 0 193.5 -74.5t78.5 -178.5h-88q-8 72 -54.5 123.5t-129.5 51.5q-97 0 -153.5 -76.5t-56.5 -195.5q0 -118 55.5 -192.5t153.5 -74.5q82 0 128 48.5t57 128.5h88
q-14 -114 -83 -184t-190 -70q-145 0 -222 94t-77 250z" />
    <glyph glyph-name="ccircumflex" unicode="&#x109;" horiz-adv-x="534" 
d="M138 571l113 152h59l111 -152h-71l-72 97l-71 -97h-69zM49 247q0 124 65 195.5t164 71.5q94 0 149 -57.5t57 -141.5h-85q-2 52 -33 89t-88 37q-63 0 -102.5 -51t-39.5 -141q0 -87 39 -136.5t101 -49.5q104 0 123 125h85q-9 -90 -62 -144t-147 -54q-100 0 -163 68t-63 189
z" />
    <glyph glyph-name="Cdotaccent" unicode="&#x10a;" 
d="M309 850h89v-90h-89v90zM54 332q0 153 81.5 251.5t218.5 98.5q121 0 193.5 -74.5t78.5 -178.5h-88q-8 72 -54.5 123.5t-129.5 51.5q-97 0 -153.5 -76.5t-56.5 -195.5q0 -118 55.5 -192.5t153.5 -74.5q82 0 128 48.5t57 128.5h88q-14 -114 -83 -184t-190 -70
q-145 0 -222 94t-77 250z" />
    <glyph glyph-name="cdotaccent" unicode="&#x10b;" horiz-adv-x="534" 
d="M234 696h89v-90h-89v90zM49 247q0 124 65 195.5t164 71.5q94 0 149 -57.5t57 -141.5h-85q-2 52 -33 89t-88 37q-63 0 -102.5 -51t-39.5 -141q0 -87 39 -136.5t101 -49.5q104 0 123 125h85q-9 -90 -62 -144t-147 -54q-100 0 -163 68t-63 189z" />
    <glyph glyph-name="Ccaron" unicode="&#x10c;" 
d="M496 872l-113 -152h-59l-111 152h71l72 -98l71 98h69zM54 332q0 153 81.5 251.5t218.5 98.5q121 0 193.5 -74.5t78.5 -178.5h-88q-8 72 -54.5 123.5t-129.5 51.5q-97 0 -153.5 -76.5t-56.5 -195.5q0 -118 55.5 -192.5t153.5 -74.5q82 0 128 48.5t57 128.5h88
q-14 -114 -83 -184t-190 -70q-145 0 -222 94t-77 250z" />
    <glyph glyph-name="ccaron" unicode="&#x10d;" horiz-adv-x="534" 
d="M421 718l-113 -152h-59l-111 152h71l72 -98l71 98h69zM49 247q0 124 65 195.5t164 71.5q94 0 149 -57.5t57 -141.5h-85q-2 52 -33 89t-88 37q-63 0 -102.5 -51t-39.5 -141q0 -87 39 -136.5t101 -49.5q104 0 123 125h85q-9 -90 -62 -144t-147 -54q-100 0 -163 68t-63 189z
" />
    <glyph glyph-name="Dcaron" unicode="&#x10e;" horiz-adv-x="690" 
d="M461 872l-113 -152h-59l-111 152h71l72 -98l71 98h69zM91 670h227q151 0 235.5 -92.5t84.5 -235.5q0 -150 -85.5 -246t-238.5 -96h-223v670zM310 78q117 0 177.5 72t60.5 190q0 112 -59.5 182t-176.5 70h-134v-514h132z" />
    <glyph glyph-name="dcaron" unicode="&#x10f;" horiz-adv-x="624" 
d="M422 421v299h85v-720h-84v100h-2q-10 -44 -51 -77t-106 -33q-94 0 -154.5 69t-60.5 190t62 193t163 72q60 0 97.5 -29t48.5 -64h2zM584 720h66l-25 -186h-51zM422 248v19q0 80 -39.5 128t-99.5 48q-66 0 -106.5 -52.5t-40.5 -139.5q0 -89 39.5 -139.5t102.5 -50.5
q62 0 103 50t41 137z" />
    <glyph glyph-name="Dcroat" unicode="&#x110;" horiz-adv-x="694" 
d="M321 670q151 0 235.5 -92.5t84.5 -235.5q0 -150 -85.5 -246t-238.5 -96h-223v311h-65v67h65v292h227zM313 78q117 0 177.5 72t60.5 190q0 112 -59.5 182t-176.5 70h-134v-214h151v-67h-151v-233h132z" />
    <glyph glyph-name="dcroat" unicode="&#x111;" horiz-adv-x="584" 
d="M572 641v-62h-65v-579h-84v100h-2q-10 -44 -51 -77t-106 -33q-94 0 -154.5 69t-60.5 190t62 193t163 72q60 0 97.5 -29t48.5 -64h2v158h-165v62h165v79h85v-79h65zM422 248v19q0 80 -39.5 128t-99.5 48q-66 0 -106.5 -52.5t-40.5 -139.5q0 -89 39.5 -139.5t102.5 -50.5
q62 0 103 50t41 137z" />
    <glyph glyph-name="Emacron" unicode="&#x112;" horiz-adv-x="565" 
d="M437 821v-59h-251v59h251zM518 592h-340v-209h293v-78h-293v-227h340v-78h-427v670h427v-78z" />
    <glyph glyph-name="emacron" unicode="&#x113;" horiz-adv-x="534" 
d="M398 667v-59h-251v59h251zM486 270q0 -12 -2 -38h-348q1 -82 38.5 -125.5t103.5 -43.5q57 0 88 29.5t36 72.5h79q-5 -72 -59 -123.5t-145 -51.5q-106 0 -167 68.5t-61 192.5q0 122 63.5 192.5t159.5 70.5q99 0 156.5 -65t57.5 -179zM272 443q-54 0 -90.5 -38t-43.5 -109
h264q-4 73 -39 110t-91 37z" />
    <glyph glyph-name="Ebreve" unicode="&#x114;" horiz-adv-x="565" 
d="M312 725q-60 0 -91 36t-39 109h58q13 -89 73 -89q32 0 49 21.5t25 67.5h56q-8 -74 -39.5 -109.5t-91.5 -35.5zM518 592h-340v-209h293v-78h-293v-227h340v-78h-427v670h427v-78z" />
    <glyph glyph-name="ebreve" unicode="&#x115;" horiz-adv-x="534" 
d="M273 571q-60 0 -91 36t-39 109h58q13 -89 73 -89q32 0 49 21.5t25 67.5h56q-8 -74 -39.5 -109.5t-91.5 -35.5zM486 270q0 -12 -2 -38h-348q1 -82 38.5 -125.5t103.5 -43.5q57 0 88 29.5t36 72.5h79q-5 -72 -59 -123.5t-145 -51.5q-106 0 -167 68.5t-61 192.5
q0 122 63.5 192.5t159.5 70.5q99 0 156.5 -65t57.5 -179zM272 443q-54 0 -90.5 -38t-43.5 -109h264q-4 73 -39 110t-91 37z" />
    <glyph glyph-name="Edotaccent" unicode="&#x116;" horiz-adv-x="565" 
d="M357 850v-90h-89v90h89zM518 592h-340v-209h293v-78h-293v-227h340v-78h-427v670h427v-78z" />
    <glyph glyph-name="edotaccent" unicode="&#x117;" horiz-adv-x="534" 
d="M318 696v-90h-89v90h89zM486 270q0 -12 -2 -38h-348q1 -82 38.5 -125.5t103.5 -43.5q57 0 88 29.5t36 72.5h79q-5 -72 -59 -123.5t-145 -51.5q-106 0 -167 68.5t-61 192.5q0 122 63.5 192.5t159.5 70.5q99 0 156.5 -65t57.5 -179zM272 443q-54 0 -90.5 -38t-43.5 -109
h264q-4 73 -39 110t-91 37z" />
    <glyph glyph-name="Eogonek" unicode="&#x118;" horiz-adv-x="565" 
d="M478 -149q28 0 53 13v-57q-27 -14 -70 -14q-45 0 -76.5 21.5t-31.5 61.5q0 70 108 124h-370v670h427v-78h-340v-209h293v-78h-293v-227h340v-78q-55 -34 -73 -57t-18 -46q0 -22 14 -34t37 -12z" />
    <glyph glyph-name="eogonek" unicode="&#x119;" horiz-adv-x="534" 
d="M486 270q0 -12 -2 -38h-348q1 -82 38.5 -125.5t103.5 -43.5q57 0 88 29.5t36 72.5h79q-3 -46 -27 -85.5t-66 -62.5q-61 -38 -80 -65t-19 -55q0 -22 14 -34t37 -12q28 0 53 13v-57q-27 -14 -70 -14q-45 0 -76.5 21.5t-31.5 61.5q0 64 76 114h-14q-106 0 -167 68.5
t-61 192.5q0 122 63.5 192.5t159.5 70.5q99 0 156.5 -65t57.5 -179zM272 443q-54 0 -90.5 -38t-43.5 -109h264q-4 73 -39 110t-91 37z" />
    <glyph glyph-name="Ecaron" unicode="&#x11a;" horiz-adv-x="565" 
d="M342 720h-59l-111 152h71l72 -98l71 98h69zM518 592h-340v-209h293v-78h-293v-227h340v-78h-427v670h427v-78z" />
    <glyph glyph-name="ecaron" unicode="&#x11b;" horiz-adv-x="534" 
d="M303 566h-59l-111 152h71l72 -98l71 98h69zM486 270q0 -12 -2 -38h-348q1 -82 38.5 -125.5t103.5 -43.5q57 0 88 29.5t36 72.5h79q-5 -72 -59 -123.5t-145 -51.5q-106 0 -167 68.5t-61 192.5q0 122 63.5 192.5t159.5 70.5q99 0 156.5 -65t57.5 -179zM272 443
q-54 0 -90.5 -38t-43.5 -109h264q-4 73 -39 110t-91 37z" />
    <glyph glyph-name="Gcircumflex" unicode="&#x11c;" horiz-adv-x="714" 
d="M361 822l-71 -97h-69l113 152h59l111 -152h-71zM382 252v76h255v-328h-77l-3 97q-67 -109 -205 -109q-136 0 -218 96.5t-82 248.5t85.5 250.5t225.5 98.5q124 0 195 -67.5t79 -172.5h-88q-7 74 -54 118t-132 44q-102 0 -161.5 -76t-59.5 -196q0 -118 57.5 -192t161.5 -74
q87 0 138.5 55t57.5 131h-175z" />
    <glyph glyph-name="gcircumflex" unicode="&#x11d;" horiz-adv-x="532" 
d="M267 668l-71 -97h-69l113 152h59l111 -152h-71zM514 497q-65 5 -98 -35q49 -47 49 -125q0 -82 -55 -130.5t-149 -48.5q-57 0 -99 18q-30 -23 -30 -50q0 -24 13.5 -34t43.5 -10h160q78 0 121 -33.5t43 -96.5q0 -79 -71.5 -129t-187.5 -50q-110 0 -172 37t-62 100
q0 80 91 115v2q-54 19 -54 82q0 60 64 91q-60 48 -60 133q0 83 55.5 132t149.5 49q63 0 111 -24q45 85 123 84q10 0 14 -1v-76zM262 226q54 0 87 29.5t33 79.5t-31.5 80.5t-85.5 30.5q-55 0 -88 -30.5t-33 -80.5t31.5 -79.5t86.5 -29.5zM165 4q-28 -11 -44 -31.5t-16 -45.5
q0 -82 148 -82q82 0 127.5 27.5t45.5 68.5q0 63 -82 63h-179z" />
    <glyph glyph-name="Gbreve" unicode="&#x11e;" horiz-adv-x="714" 
d="M361 725q-60 0 -91 36t-39 109h58q13 -89 73 -89q32 0 49 21.5t25 67.5h56q-8 -74 -39.5 -109.5t-91.5 -35.5zM382 252v76h255v-328h-77l-3 97q-67 -109 -205 -109q-136 0 -218 96.5t-82 248.5t85.5 250.5t225.5 98.5q124 0 195 -67.5t79 -172.5h-88q-7 74 -54 118
t-132 44q-102 0 -161.5 -76t-59.5 -196q0 -118 57.5 -192t161.5 -74q87 0 138.5 55t57.5 131h-175z" />
    <glyph glyph-name="gbreve" unicode="&#x11f;" horiz-adv-x="532" 
d="M267 571q-60 0 -91 36t-39 109h58q13 -89 73 -89q32 0 49 21.5t25 67.5h56q-8 -74 -39.5 -109.5t-91.5 -35.5zM514 497q-65 5 -98 -35q49 -47 49 -125q0 -82 -55 -130.5t-149 -48.5q-57 0 -99 18q-30 -23 -30 -50q0 -24 13.5 -34t43.5 -10h160q78 0 121 -33.5t43 -96.5
q0 -79 -71.5 -129t-187.5 -50q-110 0 -172 37t-62 100q0 80 91 115v2q-54 19 -54 82q0 60 64 91q-60 48 -60 133q0 83 55.5 132t149.5 49q63 0 111 -24q45 85 123 84q10 0 14 -1v-76zM262 226q54 0 87 29.5t33 79.5t-31.5 80.5t-85.5 30.5q-55 0 -88 -30.5t-33 -80.5
t31.5 -79.5t86.5 -29.5zM165 4q-28 -11 -44 -31.5t-16 -45.5q0 -82 148 -82q82 0 127.5 27.5t45.5 68.5q0 63 -82 63h-179z" />
    <glyph glyph-name="Gdotaccent" unicode="&#x120;" horiz-adv-x="714" 
d="M406 850v-90h-89v90h89zM382 252v76h255v-328h-77l-3 97q-67 -109 -205 -109q-136 0 -218 96.5t-82 248.5t85.5 250.5t225.5 98.5q124 0 195 -67.5t79 -172.5h-88q-7 74 -54 118t-132 44q-102 0 -161.5 -76t-59.5 -196q0 -118 57.5 -192t161.5 -74q87 0 138.5 55
t57.5 131h-175z" />
    <glyph glyph-name="gdotaccent" unicode="&#x121;" horiz-adv-x="532" 
d="M312 696v-90h-89v90h89zM514 497q-65 5 -98 -35q49 -47 49 -125q0 -82 -55 -130.5t-149 -48.5q-57 0 -99 18q-30 -23 -30 -50q0 -24 13.5 -34t43.5 -10h160q78 0 121 -33.5t43 -96.5q0 -79 -71.5 -129t-187.5 -50q-110 0 -172 37t-62 100q0 80 91 115v2q-54 19 -54 82
q0 60 64 91q-60 48 -60 133q0 83 55.5 132t149.5 49q63 0 111 -24q45 85 123 84q10 0 14 -1v-76zM262 226q54 0 87 29.5t33 79.5t-31.5 80.5t-85.5 30.5q-55 0 -88 -30.5t-33 -80.5t31.5 -79.5t86.5 -29.5zM165 4q-28 -11 -44 -31.5t-16 -45.5q0 -82 148 -82
q82 0 127.5 27.5t45.5 68.5q0 63 -82 63h-179z" />
    <glyph glyph-name="Gcommaaccent" unicode="&#x122;" horiz-adv-x="714" 
d="M382 252v76h255v-328h-77l-3 97q-67 -109 -205 -109q-136 0 -218 96.5t-82 248.5t85.5 250.5t225.5 98.5q124 0 195 -67.5t79 -172.5h-88q-7 74 -54 118t-132 44q-102 0 -161.5 -76t-59.5 -196q0 -118 57.5 -192t161.5 -74q87 0 138.5 55t57.5 131h-175zM321 -137v77h85
v-72l-43 -87h-42l33 82h-33z" />
    <glyph glyph-name="gcommaaccent" unicode="&#x123;" horiz-adv-x="532" 
d="M309 665v-77h-85v72l43 87h42l-33 -82h33zM514 497q-65 5 -98 -35q49 -47 49 -125q0 -82 -55 -130.5t-149 -48.5q-57 0 -99 18q-30 -23 -30 -50q0 -24 13.5 -34t43.5 -10h160q78 0 121 -33.5t43 -96.5q0 -79 -71.5 -129t-187.5 -50q-110 0 -172 37t-62 100q0 80 91 115v2
q-54 19 -54 82q0 60 64 91q-60 48 -60 133q0 83 55.5 132t149.5 49q63 0 111 -24q45 85 123 84q10 0 14 -1v-76zM262 226q54 0 87 29.5t33 79.5t-31.5 80.5t-85.5 30.5q-55 0 -88 -30.5t-33 -80.5t31.5 -79.5t86.5 -29.5zM165 4q-28 -11 -44 -31.5t-16 -45.5q0 -82 148 -82
q82 0 127.5 27.5t45.5 68.5q0 63 -82 63h-179z" />
    <glyph glyph-name="Hcircumflex" unicode="&#x124;" horiz-adv-x="697" 
d="M210 725l113 152h59l111 -152h-71l-72 97l-71 -97h-69zM91 670h87v-287h341v287h87v-670h-87v305h-341v-305h-87v670z" />
    <glyph glyph-name="hcircumflex" unicode="&#x125;" horiz-adv-x="555" 
d="M191 758l-72 97l-71 -97h-69l113 152h59l111 -152h-71zM328 514q74 0 116.5 -46t42.5 -131v-337h-85v317q0 64 -26 93t-78 29q-60 0 -98.5 -50.5t-38.5 -130.5v-258h-85v720h85v-216q0 -34 -2 -104h2q13 48 56.5 81t110.5 33z" />
    <glyph glyph-name="Hbar" unicode="&#x126;" horiz-adv-x="703" 
d="M674 540v-67h-65v-473h-87v285h-341v-285h-87v473h-65v67h65v130h87v-130h341v130h87v-130h65zM522 363v110h-341v-110h341z" />
    <glyph glyph-name="hbar" unicode="&#x127;" horiz-adv-x="555" 
d="M330 514q74 0 116.5 -46t42.5 -131v-337h-85v317q0 64 -26 93t-78 29q-60 0 -98.5 -50.5t-38.5 -130.5v-258h-85v579h-65v62h65v79h85v-79h165v-62h-165v-75q0 -34 -2 -104h2q13 48 56.5 81t110.5 33z" />
    <glyph glyph-name="Itilde" unicode="&#x128;" horiz-adv-x="269" 
d="M73 859q45 0 80 -38q24 -27 41 -27q33 0 38 63h53q-1 -57 -23.5 -89t-63.5 -32q-46 0 -80 38q-25 28 -42 28q-35 0 -38 -64h-53q0 56 23 88.5t65 32.5zM91 670h87v-670h-87v670z" />
    <glyph glyph-name="itilde" unicode="&#x129;" horiz-adv-x="236" 
d="M58 705q45 0 80 -38q24 -27 41 -27q33 0 38 63h53q-1 -57 -23.5 -89t-63.5 -32q-46 0 -80 38q-25 28 -42 28q-35 0 -38 -64h-53q0 56 23 88.5t65 32.5zM76 504h85v-504h-85v504z" />
    <glyph glyph-name="Imacron" unicode="&#x12a;" horiz-adv-x="269" 
d="M9 821h251v-59h-251v59zM91 670h87v-670h-87v670z" />
    <glyph glyph-name="imacron" unicode="&#x12b;" horiz-adv-x="236" 
d="M-6 667h251v-59h-251v59zM76 504h85v-504h-85v504z" />
    <glyph glyph-name="Ibreve" unicode="&#x12c;" horiz-adv-x="269" 
d="M5 870h58q13 -89 73 -89q32 0 49 21.5t25 67.5h56q-8 -74 -39.5 -109.5t-91.5 -35.5t-91 36t-39 109zM91 670h87v-670h-87v670z" />
    <glyph glyph-name="ibreve" unicode="&#x12d;" horiz-adv-x="236" 
d="M-10 716h58q13 -89 73 -89q32 0 49 21.5t25 67.5h56q-8 -74 -39.5 -109.5t-91.5 -35.5t-91 36t-39 109zM76 504h85v-504h-85v504z" />
    <glyph glyph-name="Iogonek" unicode="&#x12e;" horiz-adv-x="269" 
d="M158 -149q28 0 53 13v-57q-27 -14 -70 -14q-45 0 -76.5 21.5t-31.5 61.5q0 71 92 124h-34v670h87v-670q-71 -51 -71 -103q0 -22 14 -34t37 -12z" />
    <glyph glyph-name="iogonek" unicode="&#x12f;" horiz-adv-x="236" 
d="M163 696v-90h-89v90h89zM141 -149q28 0 53 13v-57q-27 -14 -70 -14q-45 0 -76.5 21.5t-31.5 61.5q0 71 92 124h-32v504h85v-504q-71 -51 -71 -103q0 -22 14 -34t37 -12z" />
    <glyph glyph-name="Idotaccent" unicode="&#x130;" horiz-adv-x="269" 
d="M91 850h89v-90h-89v90zM91 670h87v-670h-87v670z" />
    <glyph glyph-name="dotlessi" unicode="&#x131;" horiz-adv-x="236" 
d="M76 504h85v-504h-85v504z" />
    <glyph glyph-name="IJ" unicode="&#x132;" horiz-adv-x="670" 
d="M86 670h87v-359h-87v359zM88 200h89q2 -69 42 -102t108 -33q77 0 123.5 41.5t46.5 134.5v429h87v-436q0 -122 -69.5 -184t-184.5 -62q-112 0 -177 51t-65 161z" />
    <glyph glyph-name="ij" unicode="&#x133;" horiz-adv-x="473" 
d="M74 696h89v-90h-89v90zM310 696h89v-90h-89v90zM76 504h85v-504h-85v504zM220 -219v73q17 -5 34 -5q29 0 43.5 17.5t14.5 58.5v579h85v-585q0 -143 -130 -143q-25 0 -47 5z" />
    <glyph glyph-name="Jcircumflex" unicode="&#x134;" horiz-adv-x="552" 
d="M169 725l113 152h59l111 -152h-71l-72 97l-71 -97h-69zM36 231h88q-6 -86 29 -125.5t95 -39.5q61 0 96 37t35 114v375h-246v78h334v-457q0 -109 -57.5 -167t-158.5 -58t-163 58t-52 185z" />
    <glyph glyph-name="jcircumflex" unicode="&#x135;" horiz-adv-x="236" 
d="M-21 571l113 152h59l111 -152h-71l-72 97l-71 -97h-69zM-16 -219v73q17 -5 34 -5q29 0 43.5 17.5t14.5 57.5v580h85v-585q0 -77 -33 -110t-97 -33q-25 0 -47 5z" />
    <glyph glyph-name="Kcommaaccent" unicode="&#x136;" horiz-adv-x="645" 
d="M363 386l272 -386h-107l-227 322l-123 -138v-184h-87v670h87v-370h3l56 65l266 305h105zM305 -137v77h85v-72l-43 -87h-42l33 82h-33z" />
    <glyph glyph-name="kcommaaccent" unicode="&#x137;" horiz-adv-x="516" 
d="M308 304l197 -304h-100l-158 244l-86 -88v-156h-85v720h85v-462h2q2 3 40 43l188 203h102zM235 -137v77h85v-72l-43 -87h-42l33 82h-33z" />
    <glyph glyph-name="Lacute" unicode="&#x139;" horiz-adv-x="518" 
d="M288 877l-124 -152h-72l120 152h76zM178 78h320v-78h-407v670h87v-592z" />
    <glyph glyph-name="lacute" unicode="&#x13a;" horiz-adv-x="236" 
d="M74 758l120 152h76l-124 -152h-72zM76 720h85v-720h-85v720z" />
    <glyph glyph-name="Lcommaaccent" unicode="&#x13b;" horiz-adv-x="518" 
d="M178 78h320v-78h-407v670h87v-592zM254 -137v77h85v-72l-43 -87h-42l33 82h-33z" />
    <glyph glyph-name="lcommaaccent" unicode="&#x13c;" horiz-adv-x="236" 
d="M76 720h85v-720h-85v720zM76 -137v77h85v-72l-43 -87h-42l33 82h-33z" />
    <glyph glyph-name="Lcaron" unicode="&#x13d;" horiz-adv-x="518" 
d="M362 671l-25 -186h-51l10 186h66zM178 78h320v-78h-407v670h87v-592z" />
    <glyph glyph-name="lcaron" unicode="&#x13e;" horiz-adv-x="278" 
d="M76 720h85v-720h-85v720zM238 720h66l-25 -186h-51z" />
    <glyph glyph-name="Ldot" unicode="&#x13f;" horiz-adv-x="518" 
d="M178 78h320v-78h-407v670h87v-592zM442 412v-90h-89v90h89z" />
    <glyph glyph-name="ldot" unicode="&#x140;" horiz-adv-x="361" 
d="M76 720h85v-720h-85v720zM255 409h89v-90h-89v90z" />
    <glyph glyph-name="Lslash" unicode="&#x141;" horiz-adv-x="521" 
d="M181 78h320v-78h-407v268l-65 -39v74l65 40v327h87v-274l142 86v-75l-142 -86v-243z" />
    <glyph glyph-name="lslash" unicode="&#x142;" horiz-adv-x="248" 
d="M240 495v-73l-73 -50v-372h-85v313l-73 -50v73l73 50v334h85v-275z" />
    <glyph glyph-name="Nacute" unicode="&#x143;" horiz-adv-x="695" 
d="M314 725l120 152h76l-124 -152h-72zM91 670h89l340 -523h2v523h82v-670h-87l-342 527h-2v-527h-82v670z" />
    <glyph glyph-name="nacute" unicode="&#x144;" horiz-adv-x="555" 
d="M244 571l120 152h76l-124 -152h-72zM76 504h84v-104h2q13 48 55.5 81t107.5 33q75 0 118.5 -46t43.5 -131v-337h-85v317q0 64 -26 93t-78 29q-60 0 -98.5 -50.5t-38.5 -130.5v-258h-85v504z" />
    <glyph glyph-name="Ncommaaccent" unicode="&#x145;" horiz-adv-x="695" 
d="M522 670h82v-670h-87l-342 527h-2v-527h-82v670h89l340 -523h2v523zM307 -137v77h85v-72l-43 -87h-42l33 82h-33z" />
    <glyph glyph-name="ncommaaccent" unicode="&#x146;" horiz-adv-x="555" 
d="M325 514q75 0 118.5 -46t43.5 -131v-337h-85v317q0 64 -26 93t-78 29q-60 0 -98.5 -50.5t-38.5 -130.5v-258h-85v504h84v-104h2q13 48 55.5 81t107.5 33zM240 -137v77h85v-72l-43 -87h-42l33 82h-33z" />
    <glyph glyph-name="Ncaron" unicode="&#x147;" horiz-adv-x="695" 
d="M501 872l-113 -152h-59l-111 152h71l72 -98l71 98h69zM91 670h89l340 -523h2v523h82v-670h-87l-342 527h-2v-527h-82v670z" />
    <glyph glyph-name="ncaron" unicode="&#x148;" horiz-adv-x="555" 
d="M431 718l-113 -152h-59l-111 152h71l72 -98l71 98h69zM76 504h84v-104h2q13 48 55.5 81t107.5 33q75 0 118.5 -46t43.5 -131v-337h-85v317q0 64 -26 93t-78 29q-60 0 -98.5 -50.5t-38.5 -130.5v-258h-85v504z" />
    <glyph glyph-name="Eng" unicode="&#x14a;" horiz-adv-x="695" 
d="M522 670h82v-747q0 -78 -34.5 -112.5t-102.5 -34.5q-20 0 -40 5v70q18 -4 34 -4q29 0 43 15t14 51v64q0 22 -13 41l-330 509h-2v-527h-82v670h89l340 -523h2v523z" />
    <glyph glyph-name="eng" unicode="&#x14b;" horiz-adv-x="563" 
d="M325 514q75 0 118.5 -46t43.5 -131v-418q0 -143 -129 -143q-26 0 -48 5v70q18 -5 35 -5q57 0 57 75v396q0 64 -26 93t-78 29q-60 0 -98.5 -50.5t-38.5 -130.5v-258h-85v504h84v-104h2q13 48 55.5 81t107.5 33z" />
    <glyph glyph-name="Omacron" unicode="&#x14c;" horiz-adv-x="703" 
d="M227 821h251v-59h-251v59zM52 333q0 153 81.5 251t219.5 98t218 -98t80 -247q0 -153 -81.5 -251t-219.5 -98t-218 98t-80 247zM561 335q0 118 -55.5 193.5t-153.5 75.5t-154 -75.5t-56 -193.5t55.5 -193.5t153.5 -75.5t154 75.5t56 193.5z" />
    <glyph glyph-name="omacron" unicode="&#x14d;" horiz-adv-x="559" 
d="M155 667h251v-59h-251v59zM49 249q0 124 66 194.5t166 70.5q102 0 166 -69t64 -192q0 -121 -65.5 -192t-165.5 -71q-102 0 -166.5 69t-64.5 190zM424 251q0 89 -39.5 139.5t-103.5 50.5t-104.5 -51t-40.5 -139q0 -89 40 -138.5t104 -49.5t104 50t40 138z" />
    <glyph glyph-name="Obreve" unicode="&#x14e;" horiz-adv-x="703" 
d="M223 870h58q13 -89 73 -89q32 0 49 21.5t25 67.5h56q-8 -74 -39.5 -109.5t-91.5 -35.5t-91 36t-39 109zM52 333q0 153 81.5 251t219.5 98t218 -98t80 -247q0 -153 -81.5 -251t-219.5 -98t-218 98t-80 247zM561 335q0 118 -55.5 193.5t-153.5 75.5t-154 -75.5t-56 -193.5
t55.5 -193.5t153.5 -75.5t154 75.5t56 193.5z" />
    <glyph glyph-name="obreve" unicode="&#x14f;" horiz-adv-x="559" 
d="M151 716h58q13 -89 73 -89q32 0 49 21.5t25 67.5h56q-8 -74 -39.5 -109.5t-91.5 -35.5t-91 36t-39 109zM49 249q0 124 66 194.5t166 70.5q102 0 166 -69t64 -192q0 -121 -65.5 -192t-165.5 -71q-102 0 -166.5 69t-64.5 190zM424 251q0 89 -39.5 139.5t-103.5 50.5
t-104.5 -51t-40.5 -139q0 -89 40 -138.5t104 -49.5t104 50t40 138z" />
    <glyph glyph-name="Ohungarumlaut" unicode="&#x150;" horiz-adv-x="703" 
d="M241 722l112 152h75l-120 -152h-67zM393 722l113 152h74l-120 -152h-67zM52 333q0 153 81.5 251t219.5 98t218 -98t80 -247q0 -153 -81.5 -251t-219.5 -98t-218 98t-80 247zM561 335q0 118 -55.5 193.5t-153.5 75.5t-154 -75.5t-56 -193.5t55.5 -193.5t153.5 -75.5
t154 75.5t56 193.5z" />
    <glyph glyph-name="ohungarumlaut" unicode="&#x151;" horiz-adv-x="559" 
d="M169 568l112 152h75l-120 -152h-67zM321 568l113 152h74l-120 -152h-67zM49 249q0 124 66 194.5t166 70.5q102 0 166 -69t64 -192q0 -121 -65.5 -192t-165.5 -71q-102 0 -166.5 69t-64.5 190zM424 251q0 89 -39.5 139.5t-103.5 50.5t-104.5 -51t-40.5 -139
q0 -89 40 -138.5t104 -49.5t104 50t40 138z" />
    <glyph glyph-name="OE" unicode="&#x152;" horiz-adv-x="962" 
d="M915 592h-340v-209h293v-78h-293v-227h340v-78h-404q-65 -12 -122 -12q-156 0 -247 95t-91 245q0 156 92.5 255t250.5 99q44 0 124 -12h397v-78zM141 330q0 -117 66.5 -191.5t182.5 -74.5q40 0 98 10v522q-40 10 -95 10q-118 0 -185 -77.5t-67 -198.5z" />
    <glyph glyph-name="oe" unicode="&#x153;" horiz-adv-x="903" 
d="M855 269q0 -12 -2 -38h-348q2 -81 39.5 -124.5t102.5 -43.5q57 0 88 29.5t36 72.5h79q-5 -72 -59 -123.5t-145 -51.5q-128 0 -184 101q-60 -101 -183 -101q-102 0 -166 69.5t-64 191.5q0 121 65.5 192t165.5 71q126 0 185 -103q61 103 176 103q99 0 156.5 -65.5
t57.5 -179.5zM641 443q-54 0 -90.5 -38.5t-43.5 -109.5h264q-4 73 -39 110.5t-91 37.5zM279 63q64 0 104.5 51t40.5 139q0 89 -40 138.5t-104 49.5t-104 -50t-40 -138q0 -89 39.5 -139.5t103.5 -50.5z" />
    <glyph glyph-name="Racute" unicode="&#x154;" horiz-adv-x="632" 
d="M456 877l-124 -152h-72l120 152h76zM592 0h-101l-155 258h-158v-258h-87v670h262q104 0 164.5 -53.5t60.5 -144.5q0 -77 -40 -129.5t-110 -72.5zM178 592v-258h168q67 0 104.5 36t37.5 98q0 60 -37.5 92t-105.5 32h-167z" />
    <glyph glyph-name="racute" unicode="&#x155;" horiz-adv-x="384" 
d="M194 571l120 152h76l-124 -152h-72zM76 504h84v-125h2q16 59 55.5 95.5t94.5 36.5q29 0 50 -5v-86q-24 7 -56 7q-60 0 -102.5 -49t-42.5 -144v-234h-85v504z" />
    <glyph glyph-name="Rcommaaccent" unicode="&#x156;" horiz-adv-x="632" 
d="M428 270l164 -270h-101l-155 258h-158v-258h-87v670h262q104 0 164.5 -53.5t60.5 -144.5q0 -77 -40 -129.5t-110 -72.5zM178 592v-258h168q67 0 104.5 36t37.5 98q0 60 -37.5 92t-105.5 32h-167zM279 -137v77h85v-72l-43 -87h-42l33 82h-33z" />
    <glyph glyph-name="rcommaaccent" unicode="&#x157;" horiz-adv-x="384" 
d="M312 511q29 0 50 -5v-86q-24 7 -56 7q-60 0 -102.5 -49t-42.5 -144v-234h-85v504h84v-125h2q16 59 55.5 95.5t94.5 36.5zM76 -137v77h85v-72l-43 -87h-42l33 82h-33z" />
    <glyph glyph-name="Rcaron" unicode="&#x158;" horiz-adv-x="632" 
d="M334 720h-59l-111 152h71l72 -98l71 98h69zM592 0h-101l-155 258h-158v-258h-87v670h262q104 0 164.5 -53.5t60.5 -144.5q0 -77 -40 -129.5t-110 -72.5zM178 592v-258h168q67 0 104.5 36t37.5 98q0 60 -37.5 92t-105.5 32h-167z" />
    <glyph glyph-name="rcaron" unicode="&#x159;" horiz-adv-x="384" 
d="M381 718l-113 -152h-59l-111 152h71l72 -98l71 98h69zM76 504h84v-125h2q16 59 55.5 95.5t94.5 36.5q29 0 50 -5v-86q-24 7 -56 7q-60 0 -102.5 -49t-42.5 -144v-234h-85v504z" />
    <glyph glyph-name="Sacute" unicode="&#x15a;" horiz-adv-x="603" 
d="M251 725l120 152h76l-124 -152h-72zM53 216h88q-1 -81 41 -115.5t126 -34.5q75 0 113.5 29t38.5 81q0 56 -38.5 81t-129.5 43q-118 22 -173.5 65t-55.5 130q0 88 65 137.5t167 49.5q111 0 178.5 -56t64.5 -161h-88q3 139 -158 139q-64 0 -102 -27.5t-38 -74.5
q0 -56 38.5 -81t129.5 -43q118 -22 173.5 -65t55.5 -130q0 -88 -65 -141.5t-179 -53.5q-122 0 -189 58t-63 170z" />
    <glyph glyph-name="sacute" unicode="&#x15b;" horiz-adv-x="475" 
d="M190 571l120 152h76l-124 -152h-72zM40 153h84q4 -92 117 -92q51 0 80 20t29 51q0 16 -5.5 27.5t-11 18t-24.5 14.5t-30.5 11.5t-44.5 12.5q-37 10 -52.5 14.5t-42.5 14.5t-38.5 19.5t-26 24.5t-19.5 35t-5 46q0 66 53.5 105t133.5 39q91 0 141.5 -41.5t49.5 -116.5h-84
q-2 87 -106 87q-45 0 -74 -18.5t-29 -48.5q0 -16 5.5 -28t12 -19t25 -14t29.5 -10.5t41 -11.5q102 -25 144.5 -55t42.5 -100q0 -65 -54 -106.5t-143 -41.5q-93 0 -145.5 41t-52.5 122z" />
    <glyph glyph-name="Scircumflex" unicode="&#x15c;" horiz-adv-x="603" 
d="M155 725l113 152h59l111 -152h-71l-72 97l-71 -97h-69zM53 216h88q-1 -81 41 -115.5t126 -34.5q75 0 113.5 29t38.5 81q0 56 -38.5 81t-129.5 43q-118 22 -173.5 65t-55.5 130q0 88 65 137.5t167 49.5q111 0 178.5 -56t64.5 -161h-88q3 139 -158 139q-64 0 -102 -27.5
t-38 -74.5q0 -56 38.5 -81t129.5 -43q118 -22 173.5 -65t55.5 -130q0 -88 -65 -141.5t-179 -53.5q-122 0 -189 58t-63 170z" />
    <glyph glyph-name="scircumflex" unicode="&#x15d;" horiz-adv-x="475" 
d="M94 571l113 152h59l111 -152h-71l-72 97l-71 -97h-69zM40 153h84q4 -92 117 -92q51 0 80 20t29 51q0 16 -5.5 27.5t-11 18t-24.5 14.5t-30.5 11.5t-44.5 12.5q-37 10 -52.5 14.5t-42.5 14.5t-38.5 19.5t-26 24.5t-19.5 35t-5 46q0 66 53.5 105t133.5 39q91 0 141.5 -41.5
t49.5 -116.5h-84q-2 87 -106 87q-45 0 -74 -18.5t-29 -48.5q0 -16 5.5 -28t12 -19t25 -14t29.5 -10.5t41 -11.5q102 -25 144.5 -55t42.5 -100q0 -65 -54 -106.5t-143 -41.5q-93 0 -145.5 41t-52.5 122z" />
    <glyph glyph-name="Scedilla" unicode="&#x15e;" horiz-adv-x="603" 
d="M549 183q0 -84 -59 -137t-165 -58l-14 -37h11q30 0 51 -18.5t21 -48.5q0 -37 -27.5 -58t-67.5 -21q-41 0 -68 17l3 48q28 -16 56 -16q18 0 30 8.5t12 22.5q0 41 -78 36l23 68q-109 6 -168.5 63.5t-55.5 163.5h88q-1 -81 41 -115.5t126 -34.5q75 0 113.5 29t38.5 81
q0 56 -38.5 81t-129.5 43q-118 22 -173.5 65t-55.5 130q0 88 65 137.5t167 49.5q111 0 178.5 -56t64.5 -161h-88q3 139 -158 139q-64 0 -102 -27.5t-38 -74.5q0 -56 38.5 -81t129.5 -43q118 -22 173.5 -65t55.5 -130z" />
    <glyph glyph-name="scedilla" unicode="&#x15f;" horiz-adv-x="475" 
d="M435 138q0 -61 -48 -101.5t-128 -45.5l-15 -40h11q30 0 51 -18.5t21 -48.5q0 -37 -27.5 -58t-67.5 -21q-41 0 -68 17l3 48q28 -16 56 -16q18 0 30 8.5t12 22.5q0 41 -78 36l24 70q-81 5 -126 46t-45 116h84q4 -92 117 -92q51 0 80 20t29 51q0 16 -5.5 27.5t-11 18
t-24.5 14.5t-30.5 11.5t-44.5 12.5q-37 10 -52.5 14.5t-42.5 14.5t-38.5 19.5t-26 24.5t-19.5 35t-5 46q0 66 53.5 105t133.5 39q91 0 141.5 -41.5t49.5 -116.5h-84q-2 87 -106 87q-45 0 -74 -18.5t-29 -48.5q0 -16 5.5 -28t12 -19t25 -14t29.5 -10.5t41 -11.5
q102 -25 144.5 -55t42.5 -100z" />
    <glyph glyph-name="Scaron" unicode="&#x160;" horiz-adv-x="603" 
d="M438 872l-113 -152h-59l-111 152h71l72 -98l71 98h69zM53 216h88q-1 -81 41 -115.5t126 -34.5q75 0 113.5 29t38.5 81q0 56 -38.5 81t-129.5 43q-118 22 -173.5 65t-55.5 130q0 88 65 137.5t167 49.5q111 0 178.5 -56t64.5 -161h-88q3 139 -158 139q-64 0 -102 -27.5
t-38 -74.5q0 -56 38.5 -81t129.5 -43q118 -22 173.5 -65t55.5 -130q0 -88 -65 -141.5t-179 -53.5q-122 0 -189 58t-63 170z" />
    <glyph glyph-name="scaron" unicode="&#x161;" horiz-adv-x="475" 
d="M377 718l-113 -152h-59l-111 152h71l72 -98l71 98h69zM40 153h84q4 -92 117 -92q51 0 80 20t29 51q0 16 -5.5 27.5t-11 18t-24.5 14.5t-30.5 11.5t-44.5 12.5q-37 10 -52.5 14.5t-42.5 14.5t-38.5 19.5t-26 24.5t-19.5 35t-5 46q0 66 53.5 105t133.5 39q91 0 141.5 -41.5
t49.5 -116.5h-84q-2 87 -106 87q-45 0 -74 -18.5t-29 -48.5q0 -16 5.5 -28t12 -19t25 -14t29.5 -10.5t41 -11.5q102 -25 144.5 -55t42.5 -100q0 -65 -54 -106.5t-143 -41.5q-93 0 -145.5 41t-52.5 122z" />
    <glyph glyph-name="uni0162" unicode="&#x162;" horiz-adv-x="557" 
d="M15 670h527v-78h-220v-592h-87v592h-220v78zM236 -137v77h85v-72l-43 -87h-42l33 82h-33z" />
    <glyph glyph-name="uni0163" unicode="&#x163;" horiz-adv-x="344" 
d="M320 431h-136v-286q0 -47 15.5 -64.5t53.5 -17.5q34 0 67 15v-71q-36 -17 -87 -17q-72 0 -103 32.5t-31 107.5v301h-71v70h30q29 0 38 12t9 50v107h79v-166h136v-73zM175 -137v77h85v-72l-43 -87h-42l33 82h-33z" />
    <glyph glyph-name="Tcaron" unicode="&#x164;" horiz-adv-x="557" 
d="M422 872l-113 -152h-59l-111 152h71l72 -98l71 98h69zM235 592h-220v78h527v-78h-220v-592h-87v592z" />
    <glyph glyph-name="tcaron" unicode="&#x165;" horiz-adv-x="344" 
d="M264 750h66l-25 -186h-51zM99 130v301h-71v70h30q29 0 38 12t9 50v107h79v-166h136v-73h-136v-286q0 -47 15.5 -64.5t53.5 -17.5q34 0 67 15v-71q-36 -17 -87 -17q-72 0 -103 32.5t-31 107.5z" />
    <glyph glyph-name="Tbar" unicode="&#x166;" horiz-adv-x="565" 
d="M542 592h-220v-231h126v-67h-126v-294h-87v294h-118v67h118v231h-220v78h527v-78z" />
    <glyph glyph-name="tbar" unicode="&#x167;" horiz-adv-x="354" 
d="M325 431h-136v-115h124v-62h-124v-109q0 -45 16 -62.5t53 -17.5t67 14v-73q-36 -17 -87 -17q-72 0 -103 32.5t-31 108.5v124h-70v62h70v115h-71v70h30q29 0 38 12t9 50v107h79v-166h136v-73z" />
    <glyph glyph-name="Utilde" unicode="&#x168;" 
d="M279 859q45 0 80 -38q24 -27 41 -27q33 0 38 63h53q-1 -57 -23.5 -89t-63.5 -32q-46 0 -80 38q-25 28 -42 28q-35 0 -38 -64h-53q0 56 23 88.5t65 32.5zM86 239v431h87v-421q0 -88 43.5 -135.5t125.5 -47.5q78 0 121.5 47.5t43.5 132.5v424h87v-433q0 -114 -67 -181.5
t-185 -67.5q-124 0 -190 66.5t-66 184.5z" />
    <glyph glyph-name="utilde" unicode="&#x169;" horiz-adv-x="546" 
d="M207 705q45 0 80 -38q24 -27 41 -27q33 0 38 63h53q-1 -57 -23.5 -89t-63.5 -32q-46 0 -80 38q-25 28 -42 28q-35 0 -38 -64h-53q0 56 23 88.5t65 32.5zM68 166v338h85v-321q0 -118 99 -118q58 0 96 50.5t38 129.5v259h85v-504h-84v105h-2q-15 -48 -54 -81.5t-98 -33.5
q-79 0 -122 44.5t-43 131.5z" />
    <glyph glyph-name="Umacron" unicode="&#x16a;" 
d="M215 821h251v-59h-251v59zM86 239v431h87v-421q0 -88 43.5 -135.5t125.5 -47.5q78 0 121.5 47.5t43.5 132.5v424h87v-433q0 -114 -67 -181.5t-185 -67.5q-124 0 -190 66.5t-66 184.5z" />
    <glyph glyph-name="umacron" unicode="&#x16b;" horiz-adv-x="546" 
d="M143 667h251v-59h-251v59zM68 166v338h85v-321q0 -118 99 -118q58 0 96 50.5t38 129.5v259h85v-504h-84v105h-2q-15 -48 -54 -81.5t-98 -33.5q-79 0 -122 44.5t-43 131.5z" />
    <glyph glyph-name="Ubreve" unicode="&#x16c;" 
d="M211 870h58q13 -89 73 -89q32 0 49 21.5t25 67.5h56q-8 -74 -39.5 -109.5t-91.5 -35.5t-91 36t-39 109zM86 239v431h87v-421q0 -88 43.5 -135.5t125.5 -47.5q78 0 121.5 47.5t43.5 132.5v424h87v-433q0 -114 -67 -181.5t-185 -67.5q-124 0 -190 66.5t-66 184.5z" />
    <glyph glyph-name="ubreve" unicode="&#x16d;" horiz-adv-x="546" 
d="M139 716h58q13 -89 73 -89q32 0 49 21.5t25 67.5h56q-8 -74 -39.5 -109.5t-91.5 -35.5t-91 36t-39 109zM68 166v338h85v-321q0 -118 99 -118q58 0 96 50.5t38 129.5v259h85v-504h-84v105h-2q-15 -48 -54 -81.5t-98 -33.5q-79 0 -122 44.5t-43 131.5z" />
    <glyph glyph-name="Uring" unicode="&#x16e;" 
d="M238 808q0 41 29.5 68.5t73.5 27.5t73.5 -27.5t29.5 -68.5q0 -42 -29 -69t-74 -27q-44 0 -73.5 27t-29.5 69zM394 808q0 23 -14.5 37.5t-38.5 14.5t-38.5 -14.5t-14.5 -37.5q0 -24 14.5 -38.5t38.5 -14.5t38.5 15t14.5 38zM86 239v431h87v-421q0 -88 43.5 -135.5
t125.5 -47.5q78 0 121.5 47.5t43.5 132.5v424h87v-433q0 -114 -67 -181.5t-185 -67.5q-124 0 -190 66.5t-66 184.5z" />
    <glyph glyph-name="uring" unicode="&#x16f;" horiz-adv-x="546" 
d="M166 654q0 41 29.5 68.5t73.5 27.5t73.5 -27.5t29.5 -68.5q0 -42 -29 -69t-74 -27q-44 0 -73.5 27t-29.5 69zM322 654q0 23 -14.5 37.5t-38.5 14.5t-38.5 -14.5t-14.5 -37.5q0 -24 14.5 -38.5t38.5 -14.5t38.5 15t14.5 38zM68 166v338h85v-321q0 -118 99 -118
q58 0 96 50.5t38 129.5v259h85v-504h-84v105h-2q-15 -48 -54 -81.5t-98 -33.5q-79 0 -122 44.5t-43 131.5z" />
    <glyph glyph-name="Uhungarumlaut" unicode="&#x170;" 
d="M229 722l112 152h75l-120 -152h-67zM381 722l113 152h74l-120 -152h-67zM86 239v431h87v-421q0 -88 43.5 -135.5t125.5 -47.5q78 0 121.5 47.5t43.5 132.5v424h87v-433q0 -114 -67 -181.5t-185 -67.5q-124 0 -190 66.5t-66 184.5z" />
    <glyph glyph-name="uhungarumlaut" unicode="&#x171;" horiz-adv-x="546" 
d="M157 568l112 152h75l-120 -152h-67zM309 568l113 152h74l-120 -152h-67zM68 166v338h85v-321q0 -118 99 -118q58 0 96 50.5t38 129.5v259h85v-504h-84v105h-2q-15 -48 -54 -81.5t-98 -33.5q-79 0 -122 44.5t-43 131.5z" />
    <glyph glyph-name="Uogonek" unicode="&#x172;" 
d="M507 670h87v-433q0 -162 -126 -223q-114 -61 -114 -117q0 -22 14 -34t37 -12q28 0 53 13v-57q-27 -14 -70 -14q-45 0 -76.5 21.5t-31.5 61.5q0 61 84 113q-7 -1 -22 -1q-124 0 -190 66.5t-66 184.5v431h87v-421q0 -88 43.5 -135.5t125.5 -47.5q78 0 121.5 47.5
t43.5 132.5v424z" />
    <glyph glyph-name="uogonek" unicode="&#x173;" horiz-adv-x="546" 
d="M431 -149q28 0 53 13v-57q-27 -14 -70 -14q-45 0 -76.5 21.5t-31.5 61.5q0 70 108 124h-27v105h-2q-15 -48 -54 -81.5t-98 -33.5q-79 0 -122 44.5t-43 131.5v338h85v-321q0 -118 99 -118q58 0 96 50.5t38 129.5v259h85v-504q-55 -34 -73 -57t-18 -46q0 -22 14 -34t37 -12
z" />
    <glyph glyph-name="Wcircumflex" unicode="&#x174;" horiz-adv-x="928" 
d="M323 725l113 152h59l111 -152h-71l-72 97l-71 -97h-69zM23 670h90l124 -460q17 -65 27 -109h3q16 74 26 109l123 460h102l122 -459q11 -39 26 -110h2q21 85 28 109l122 460h87l-185 -670h-105l-123 457q-11 40 -24 101h-3q-8 -34 -26 -100l-125 -458h-106z" />
    <glyph glyph-name="wcircumflex" unicode="&#x175;" horiz-adv-x="783" 
d="M250 571l113 152h59l111 -152h-71l-72 97l-71 -97h-69zM763 504l-155 -504h-97l-99 326q-14 45 -21 78h-2q-8 -34 -21 -79l-95 -325h-97l-156 504h86l99 -333q14 -45 20 -77h3q6 28 21 76l97 334h92l100 -333q13 -42 21 -77h2q6 28 21 76l96 334h85z" />
    <glyph glyph-name="Ycircumflex" unicode="&#x176;" horiz-adv-x="593" 
d="M298 822l-71 -97h-69l113 152h59l111 -152h-71zM583 670l-242 -384v-286h-87v286l-244 384h98l190 -294h2l187 294h96z" />
    <glyph glyph-name="ycircumflex" unicode="&#x177;" horiz-adv-x="491" 
d="M113 571l113 152h59l111 -152h-71l-72 97l-71 -97h-69zM18 -217v72q30 -10 63 -10q41 0 63 24t43 82l16 43l-192 510h91l119 -327q21 -58 27 -81h2q7 25 25 80l116 328h89l-207 -547q-36 -95 -73 -139.5t-104 -44.5q-49 0 -78 10z" />
    <glyph glyph-name="Ydieresis" unicode="&#x178;" horiz-adv-x="593" 
d="M258 844v-85h-84v85h84zM422 844v-85h-84v85h84zM583 670l-242 -384v-286h-87v286l-244 384h98l190 -294h2l187 294h96z" />
    <glyph glyph-name="Zacute" unicode="&#x179;" horiz-adv-x="563" 
d="M237 725l120 152h76l-124 -152h-72zM35 73l329 453q33 46 49 65v2q-25 -1 -74 -1h-295v78h475v-73l-325 -448q-2 -2 -21 -29t-29 -40v-3q11 0 35.5 0.5t36.5 0.5h311v-78h-492v73z" />
    <glyph glyph-name="zacute" unicode="&#x17a;" horiz-adv-x="445" 
d="M188 571l120 152h76l-124 -152h-72zM27 64l237 317q12 17 40 49v2q-18 -1 -53 -1h-212v73h368v-64l-231 -307q-30 -40 -46 -59v-2q19 1 58 1h230v-73h-391v64z" />
    <glyph glyph-name="Zdotaccent" unicode="&#x17b;" horiz-adv-x="563" 
d="M237 850h89v-90h-89v90zM35 73l329 453q33 46 49 65v2q-25 -1 -74 -1h-295v78h475v-73l-325 -448q-2 -2 -21 -29t-29 -40v-3q11 0 35.5 0.5t36.5 0.5h311v-78h-492v73z" />
    <glyph glyph-name="zdotaccent" unicode="&#x17c;" horiz-adv-x="445" 
d="M188 696h89v-90h-89v90zM27 64l237 317q12 17 40 49v2q-18 -1 -53 -1h-212v73h368v-64l-231 -307q-30 -40 -46 -59v-2q19 1 58 1h230v-73h-391v64z" />
    <glyph glyph-name="Zcaron" unicode="&#x17d;" horiz-adv-x="563" 
d="M424 872l-113 -152h-59l-111 152h71l72 -98l71 98h69zM35 73l329 453q33 46 49 65v2q-25 -1 -74 -1h-295v78h475v-73l-325 -448q-2 -2 -21 -29t-29 -40v-3q11 0 35.5 0.5t36.5 0.5h311v-78h-492v73z" />
    <glyph glyph-name="zcaron" unicode="&#x17e;" horiz-adv-x="445" 
d="M375 718l-113 -152h-59l-111 152h71l72 -98l71 98h69zM27 64l237 317q12 17 40 49v2q-18 -1 -53 -1h-212v73h368v-64l-231 -307q-30 -40 -46 -59v-2q19 1 58 1h230v-73h-391v64z" />
    <glyph glyph-name="florin" unicode="&#x192;" horiz-adv-x="530" 
d="M437 612q-42 0 -66 -21t-32 -72l-22 -153h143v-72h-153l-32 -219q-12 -82 -55.5 -118.5t-119.5 -36.5q-38 0 -64 8l9 68q24 -6 48 -6q41 0 66 21t32 72l30 211h-129v72h140l23 161q12 82 55 118.5t119 36.5q39 0 66 -9l-9 -68q-30 7 -49 7z" />
    <glyph glyph-name="Scommaaccent" unicode="&#x218;" horiz-adv-x="603" 
d="M320 378q118 -22 173.5 -65t55.5 -130q0 -88 -65 -141.5t-179 -53.5q-122 0 -189 58t-63 170h88q-1 -81 41 -115.5t126 -34.5q75 0 113.5 29t38.5 81q0 56 -38.5 81t-129.5 43q-118 22 -173.5 65t-55.5 130q0 88 65 137.5t167 49.5q111 0 178.5 -56t64.5 -161h-88
q3 139 -158 139q-64 0 -102 -27.5t-38 -74.5q0 -56 38.5 -81t129.5 -43zM258 -137v77h85v-72l-43 -87h-42l33 82h-33z" />
    <glyph glyph-name="scommaaccent" unicode="&#x219;" horiz-adv-x="475" 
d="M248 293q102 -25 144.5 -55t42.5 -100q0 -65 -54 -106.5t-143 -41.5q-93 0 -145.5 41t-52.5 122h84q4 -92 117 -92q51 0 80 20t29 51q0 16 -5.5 27.5t-11 18t-24.5 14.5t-30.5 11.5t-44.5 12.5q-37 10 -52.5 14.5t-42.5 14.5t-38.5 19.5t-26 24.5t-19.5 35t-5 46
q0 66 53.5 105t133.5 39q91 0 141.5 -41.5t49.5 -116.5h-84q-2 87 -106 87q-45 0 -74 -18.5t-29 -48.5q0 -16 5.5 -28t12 -19t25 -14t29.5 -10.5t41 -11.5zM191 -137v77h85v-72l-43 -87h-42l33 82h-33z" />
    <glyph glyph-name="uni021A" unicode="&#x21a;" horiz-adv-x="557" 
d="M15 670h527v-78h-220v-592h-87v592h-220v78zM236 -137v77h85v-72l-43 -87h-42l33 82h-33z" />
    <glyph glyph-name="uni021B" unicode="&#x21b;" horiz-adv-x="344" 
d="M320 431h-136v-286q0 -47 15.5 -64.5t53.5 -17.5q34 0 67 15v-71q-36 -17 -87 -17q-72 0 -103 32.5t-31 107.5v301h-71v70h30q29 0 38 12t9 50v107h79v-166h136v-73zM175 -137v77h85v-72l-43 -87h-42l33 82h-33z" />
    <glyph glyph-name="uni0237" unicode="&#x237;" horiz-adv-x="236" 
d="M-16 -219v73q17 -5 34 -5q29 0 43.5 17.5t14.5 57.5v580h85v-585q0 -77 -33 -110t-97 -33q-25 0 -47 5z" />
    <glyph glyph-name="uni02BB" unicode="&#x2bb;" horiz-adv-x="500" 
d="M292 747l-33 -82h33v-77h-85v72l43 87h42z" />
    <glyph glyph-name="uni02BC" unicode="&#x2bc;" horiz-adv-x="500" 
d="M284 720h66l-25 -186h-51z" />
    <glyph glyph-name="circumflex" unicode="&#x2c6;" horiz-adv-x="500" 
d="M110 571l113 152h59l111 -152h-71l-72 97l-71 -97h-69z" />
    <glyph glyph-name="caron" unicode="&#x2c7;" horiz-adv-x="500" 
d="M393 718l-113 -152h-59l-111 152h71l72 -98l71 98h69z" />
    <glyph glyph-name="breve" unicode="&#x2d8;" horiz-adv-x="500" 
d="M120 716h58q13 -89 73 -89q32 0 49 21.5t25 67.5h56q-8 -74 -39.5 -109.5t-91.5 -35.5t-91 36t-39 109z" />
    <glyph glyph-name="dotaccent" unicode="&#x2d9;" horiz-adv-x="500" 
d="M206 696h89v-90h-89v90z" />
    <glyph glyph-name="ring" unicode="&#x2da;" horiz-adv-x="500" 
d="M147 654q0 41 29.5 68.5t73.5 27.5t73.5 -27.5t29.5 -68.5q0 -42 -29 -69t-74 -27q-44 0 -73.5 27t-29.5 69zM303 654q0 23 -14.5 37.5t-38.5 14.5t-38.5 -14.5t-14.5 -37.5q0 -24 14.5 -38.5t38.5 -14.5t38.5 15t14.5 38z" />
    <glyph glyph-name="ogonek" unicode="&#x2db;" horiz-adv-x="500" 
d="M173 -124q0 38 30 71t106 66l29 -13q-55 -34 -73 -57t-18 -46q0 -22 14 -34t37 -12q28 0 53 13v-57q-27 -14 -70 -14q-45 0 -76.5 21.5t-31.5 61.5z" />
    <glyph glyph-name="tilde" unicode="&#x2dc;" horiz-adv-x="500" 
d="M188 705q45 0 80 -38q24 -27 41 -27q33 0 38 63h53q-1 -57 -23.5 -89t-63.5 -32q-46 0 -80 38q-25 28 -42 28q-35 0 -38 -64h-53q0 56 23 88.5t65 32.5z" />
    <glyph glyph-name="hungarumlaut" unicode="&#x2dd;" horiz-adv-x="500" 
d="M138 568l112 152h75l-120 -152h-67zM290 568l113 152h74l-120 -152h-67z" />
    <glyph glyph-name="uni0326" unicode="&#x326;" horiz-adv-x="0" 
d="M-293 -60h85v-72l-43 -87h-42l33 82h-33v77z" />
    <glyph glyph-name="pi" unicode="&#x3c0;" horiz-adv-x="600" 
d="M575 537v-73h-81v-464h-85v464h-216v-464h-85v464h-83v73h550z" />
    <glyph glyph-name="Wgrave" unicode="&#x1e80;" horiz-adv-x="928" 
d="M315 877h75l120 -152h-72zM23 670h90l124 -460q17 -65 27 -109h3q16 74 26 109l123 460h102l122 -459q11 -39 26 -110h2q21 85 28 109l122 460h87l-185 -670h-105l-123 457q-11 40 -24 101h-3q-8 -34 -26 -100l-125 -458h-106z" />
    <glyph glyph-name="wgrave" unicode="&#x1e81;" horiz-adv-x="783" 
d="M242 723h75l120 -152h-72zM763 504l-155 -504h-97l-99 326q-14 45 -21 78h-2q-8 -34 -21 -79l-95 -325h-97l-156 504h86l99 -333q14 -45 20 -77h3q6 28 21 76l97 334h92l100 -333q13 -42 21 -77h2q6 28 21 76l96 334h85z" />
    <glyph glyph-name="Wacute" unicode="&#x1e82;" horiz-adv-x="928" 
d="M419 725l120 152h76l-124 -152h-72zM23 670h90l124 -460q17 -65 27 -109h3q16 74 26 109l123 460h102l122 -459q11 -39 26 -110h2q21 85 28 109l122 460h87l-185 -670h-105l-123 457q-11 40 -24 101h-3q-8 -34 -26 -100l-125 -458h-106z" />
    <glyph glyph-name="wacute" unicode="&#x1e83;" horiz-adv-x="783" 
d="M346 571l120 152h76l-124 -152h-72zM763 504l-155 -504h-97l-99 326q-14 45 -21 78h-2q-8 -34 -21 -79l-95 -325h-97l-156 504h86l99 -333q14 -45 20 -77h3q6 28 21 76l97 334h92l100 -333q13 -42 21 -77h2q6 28 21 76l96 334h85z" />
    <glyph glyph-name="Wdieresis" unicode="&#x1e84;" horiz-adv-x="928" 
d="M339 844h84v-85h-84v85zM503 844h84v-85h-84v85zM23 670h90l124 -460q17 -65 27 -109h3q16 74 26 109l123 460h102l122 -459q11 -39 26 -110h2q21 85 28 109l122 460h87l-185 -670h-105l-123 457q-11 40 -24 101h-3q-8 -34 -26 -100l-125 -458h-106z" />
    <glyph glyph-name="wdieresis" unicode="&#x1e85;" horiz-adv-x="783" 
d="M266 690h84v-85h-84v85zM430 690h84v-85h-84v85zM763 504l-155 -504h-97l-99 326q-14 45 -21 78h-2q-8 -34 -21 -79l-95 -325h-97l-156 504h86l99 -333q14 -45 20 -77h3q6 28 21 76l97 334h92l100 -333q13 -42 21 -77h2q6 28 21 76l96 334h85z" />
    <glyph glyph-name="Ygrave" unicode="&#x1ef2;" horiz-adv-x="593" 
d="M345 725h-72l-123 152h75zM583 670l-242 -384v-286h-87v286l-244 384h98l190 -294h2l187 294h96z" />
    <glyph glyph-name="ygrave" unicode="&#x1ef3;" horiz-adv-x="491" 
d="M105 723h75l120 -152h-72zM18 -217v72q30 -10 63 -10q41 0 63 24t43 82l16 43l-192 510h91l119 -327q21 -58 27 -81h2q7 25 25 80l116 328h89l-207 -547q-36 -95 -73 -139.5t-104 -44.5q-49 0 -78 10z" />
    <glyph glyph-name="endash" unicode="&#x2013;" horiz-adv-x="533" 
d="M50 324h433v-67h-433v67z" />
    <glyph glyph-name="emdash" unicode="&#x2014;" horiz-adv-x="1113" 
d="M50 324h1013v-67h-1013v67z" />
    <glyph glyph-name="quoteleft" unicode="&#x2018;" horiz-adv-x="213" 
d="M158 740l-40 -140h37v-94h-96l-1 84l50 150h50z" />
    <glyph glyph-name="quoteright" unicode="&#x2019;" horiz-adv-x="213" 
d="M154 720l1 -84l-50 -150h-50l40 140h-37v94h96z" />
    <glyph glyph-name="quotesinglbase" unicode="&#x201a;" horiz-adv-x="221" 
d="M158 94l1 -84l-50 -150h-50l40 140h-37v94h96z" />
    <glyph glyph-name="quotedblleft" unicode="&#x201c;" horiz-adv-x="380" 
d="M108 740h50l-40 -140h37v-94h-96l-1 84zM325 740l-40 -140h37v-94h-96l-1 84l50 150h50z" />
    <glyph glyph-name="quotedblright" unicode="&#x201d;" horiz-adv-x="380" 
d="M58 720h96l1 -84l-50 -150h-50l40 140h-37v94zM321 720l1 -84l-50 -150h-50l40 140h-37v94h96z" />
    <glyph glyph-name="quotedblbase" unicode="&#x201e;" horiz-adv-x="385" 
d="M62 94h96l1 -84l-50 -150h-50l40 140h-37v94zM322 94l1 -84l-50 -150h-50l40 140h-37v94h96z" />
    <glyph glyph-name="dagger" unicode="&#x2020;" horiz-adv-x="507" 
d="M456 461v-61h-168v-338h-70v338h-168v61h168v209h70v-209h168z" />
    <glyph glyph-name="daggerdbl" unicode="&#x2021;" horiz-adv-x="507" 
d="M456 440h-168v-147h168v-62h-168v-169h-70v169h-168v62h168v147h-168v61h168v169h70v-169h168v-61z" />
    <glyph glyph-name="bullet" unicode="&#x2022;" horiz-adv-x="276" 
d="M37 278q0 41 30 70.5t71 29.5q42 0 72 -29.5t30 -70.5q0 -42 -30 -71t-72 -29t-71.5 29t-29.5 71z" />
    <glyph glyph-name="ellipsis" unicode="&#x2026;" horiz-adv-x="647" 
d="M62 94h96v-94h-96v94zM275 94h96v-94h-96v94zM488 94h96v-94h-96v94z" />
    <glyph glyph-name="perthousand" unicode="&#x2030;" horiz-adv-x="1248" 
d="M38 489q0 86 43.5 138.5t115.5 52.5t115.5 -52.5t43.5 -138.5q0 -91 -43.5 -146.5t-115.5 -55.5t-115.5 55.5t-43.5 146.5zM617 672h71l-434 -672h-72zM286 488q0 58 -24.5 93t-64.5 35q-41 0 -65 -35t-24 -93q0 -62 24.5 -99t64.5 -37t64.5 37.5t24.5 98.5zM508 192
q0 86 43.5 138.5t115.5 52.5t115.5 -52.5t43.5 -138.5q0 -91 -43.5 -146.5t-115.5 -55.5t-115.5 55.5t-43.5 146.5zM892 192q0 86 43.5 138.5t115.5 52.5t115.5 -52.5t43.5 -138.5q0 -91 -43.5 -146.5t-115.5 -55.5t-115.5 55.5t-43.5 146.5zM756 191q0 58 -24.5 93
t-64.5 35q-41 0 -65 -35t-24 -93q0 -62 24.5 -99t64.5 -37t64.5 37.5t24.5 98.5zM1140 191q0 58 -24.5 93t-64.5 35q-41 0 -65 -35t-24 -93q0 -62 24.5 -99t64.5 -37t64.5 37.5t24.5 98.5z" />
    <glyph glyph-name="guilsinglleft" unicode="&#x2039;" horiz-adv-x="324" 
d="M50 249v62l210 156v-77l-146 -109v-2l146 -106v-79z" />
    <glyph glyph-name="guilsinglright" unicode="&#x203a;" horiz-adv-x="324" 
d="M63 171l146 109v2l-146 106v79l210 -155v-62l-210 -156v77z" />
    <glyph glyph-name="fraction" unicode="&#x2044;" horiz-adv-x="167" 
d="M-165 0l434 670h63l-434 -670h-63z" />
    <glyph glyph-name="uni2070" unicode="&#x2070;" horiz-adv-x="367" 
d="M40 501q0 78 38.5 126.5t105.5 48.5t105 -47t38 -125q0 -77 -39 -126.5t-106 -49.5q-66 0 -104 47.5t-38 125.5zM257 503q0 52 -18.5 84.5t-55.5 32.5q-36 0 -55 -33t-19 -85q0 -53 19 -85t55 -32q37 0 55.5 33t18.5 85z" />
    <glyph glyph-name="uni2074" unicode="&#x2074;" horiz-adv-x="346" 
d="M205 402h-171v55l163 213h72v-213h52v-55h-52v-68h-64v68zM120 457h85v117v19h-2l-12 -18l-74 -94q-12 -17 -18 -23v-1h21z" />
    <glyph glyph-name="uni2075" unicode="&#x2075;" horiz-adv-x="340" 
d="M42 431h64q8 -50 62 -50q29 0 47 17t18 47q0 29 -16.5 44.5t-45.5 15.5q-38 0 -61 -30l-59 5l14 190h213l-3 -56h-155l-8 -84q23 25 71 25q53 0 85.5 -29.5t32.5 -78.5q0 -54 -36.5 -86.5t-96.5 -32.5q-61 0 -93 29t-33 74z" />
    <glyph glyph-name="uni2076" unicode="&#x2076;" horiz-adv-x="352" 
d="M201 549q50 0 81.5 -27.5t31.5 -75.5q0 -52 -37.5 -85t-94.5 -33q-65 0 -103.5 45.5t-38.5 125.5q0 79 40.5 128t106.5 49q53 0 84 -28t33 -73h-65q-2 22 -15.5 35t-38.5 13q-35 0 -55.5 -30t-21.5 -83q37 39 93 39zM182 381q28 0 46 17t18 45q0 26 -15.5 40.5
t-43.5 14.5q-46 0 -77 -38q10 -79 72 -79z" />
    <glyph glyph-name="uni2077" unicode="&#x2077;" horiz-adv-x="312" 
d="M280 670v-53q-57 -68 -86 -133.5t-28 -149.5h-65q-1 147 103 279h-175v57h251z" />
    <glyph glyph-name="uni2078" unicode="&#x2078;" horiz-adv-x="348" 
d="M37 424q0 69 69 84v2q-57 15 -57 77q0 38 34 63.5t92 25.5q59 0 91.5 -25.5t32.5 -64.5q0 -62 -57 -76v-1q69 -17 69 -83q0 -44 -36.5 -71t-100.5 -27t-100.5 26.5t-36.5 69.5zM236 581q0 22 -17 35t-44 13q-28 0 -45 -13t-17 -35q0 -24 17 -37.5t45 -13.5q27 0 44 14
t17 37zM246 432q0 26 -19.5 41t-52.5 15q-32 0 -51.5 -15.5t-19.5 -40.5q0 -24 20 -39t52 -15t51.5 15t19.5 39z" />
    <glyph glyph-name="uni2079" unicode="&#x2079;" horiz-adv-x="353" 
d="M170 676q64 0 102.5 -45.5t38.5 -124.5t-40.5 -128.5t-106.5 -49.5q-54 0 -85.5 28.5t-32.5 72.5h65q5 -47 56 -47q35 0 55 29t21 83q-39 -37 -93 -37q-49 0 -80.5 27.5t-31.5 75.5q0 52 37 84t95 32zM167 509q45 0 74 37q-11 77 -71 77q-29 0 -46.5 -16t-17.5 -42
t16 -41t45 -15z" />
    <glyph glyph-name="uni2080" unicode="&#x2080;" horiz-adv-x="367" 
d="M40 168q0 78 38.5 126.5t105.5 48.5t105 -47t38 -125q0 -77 -39 -126.5t-106 -49.5q-66 0 -104 47.5t-38 125.5zM257 170q0 52 -18.5 84.5t-55.5 32.5q-36 0 -55 -33t-19 -85q0 -53 19 -85t55 -32q37 0 55.5 33t18.5 85z" />
    <glyph glyph-name="uni2081" unicode="&#x2081;" horiz-adv-x="251" 
d="M175 1h-67v268q-29 -25 -70 -30v59q40 6 71 39h66v-336z" />
    <glyph glyph-name="uni2082" unicode="&#x2082;" horiz-adv-x="334" 
d="M36 15q0 47 28 81t95 68q39 20 53 36t14 41q0 23 -14.5 36t-40.5 13q-62 0 -62 -59v-11h-66v12q0 52 35 81.5t94 29.5t91 -26t32 -72q0 -39 -22.5 -65t-77.5 -54q-45 -24 -63.5 -38t-21.5 -31h184v-56h-258v14z" />
    <glyph glyph-name="uni2083" unicode="&#x2083;" horiz-adv-x="342" 
d="M36 105h65q2 -27 19 -42t47 -15t48 14t18 39q0 26 -18.5 36.5t-57.5 10.5h-18v47h17q70 0 70 47q0 22 -14.5 35.5t-42.5 13.5q-29 0 -45 -13.5t-16 -37.5q0 -5 1 -9h-64q-1 5 -1 10q0 46 34.5 74t92.5 28t90 -25t32 -66q0 -62 -66 -78v-1q74 -6 74 -78q0 -46 -36 -73
t-96 -27q-67 0 -99.5 29.5t-33.5 80.5z" />
    <glyph glyph-name="uni2084" unicode="&#x2084;" horiz-adv-x="346" 
d="M205 69h-171v55l163 213h72v-213h52v-55h-52v-68h-64v68zM120 124h85v117v19h-2l-12 -18l-74 -94q-12 -17 -18 -23v-1h21z" />
    <glyph glyph-name="uni2085" unicode="&#x2085;" horiz-adv-x="340" 
d="M42 98h64q8 -50 62 -50q29 0 47 17t18 47q0 29 -16.5 44.5t-45.5 15.5q-38 0 -61 -30l-59 5l14 190h213l-3 -56h-155l-8 -84q23 25 71 25q53 0 85.5 -29.5t32.5 -78.5q0 -54 -36.5 -86.5t-96.5 -32.5q-61 0 -93 29t-33 74z" />
    <glyph glyph-name="uni2086" unicode="&#x2086;" horiz-adv-x="352" 
d="M201 216q50 0 81.5 -27.5t31.5 -75.5q0 -52 -37.5 -85t-94.5 -33q-65 0 -103.5 45.5t-38.5 125.5q0 79 40.5 128t106.5 49q53 0 84 -28t33 -73h-65q-2 22 -15.5 35t-38.5 13q-35 0 -55.5 -30t-21.5 -83q37 39 93 39zM182 48q28 0 46 17t18 45q0 26 -15.5 40.5t-43.5 14.5
q-46 0 -77 -38q10 -79 72 -79z" />
    <glyph glyph-name="uni2087" unicode="&#x2087;" horiz-adv-x="312" 
d="M280 337v-53q-57 -68 -86 -133.5t-28 -149.5h-65q-1 147 103 279h-175v57h251z" />
    <glyph glyph-name="uni2088" unicode="&#x2088;" horiz-adv-x="348" 
d="M37 91q0 69 69 84v2q-57 15 -57 77q0 38 34 63.5t92 25.5q59 0 91.5 -25.5t32.5 -64.5q0 -29 -14.5 -49t-42.5 -27v-1q69 -17 69 -83q0 -44 -36.5 -71t-100.5 -27t-100.5 26.5t-36.5 69.5zM236 248q0 22 -17 35t-44 13q-28 0 -45 -13t-17 -35q0 -24 17 -37.5t45 -13.5
q27 0 44 14t17 37zM246 99q0 26 -19.5 41t-52.5 15q-32 0 -51.5 -15.5t-19.5 -40.5q0 -24 20 -39t52 -15t51.5 15t19.5 39z" />
    <glyph glyph-name="uni2089" unicode="&#x2089;" horiz-adv-x="353" 
d="M170 343q64 0 102.5 -45.5t38.5 -124.5t-40.5 -128.5t-106.5 -49.5q-54 0 -85.5 28.5t-32.5 72.5h65q5 -47 56 -47q35 0 55 29t21 83q-39 -37 -93 -37q-49 0 -80.5 27.5t-31.5 75.5q0 52 37 84t95 32zM167 176q45 0 74 37q-11 77 -71 77q-29 0 -46.5 -16t-17.5 -42
t16 -41t45 -15z" />
    <glyph glyph-name="Euro" unicode="&#x20ac;" horiz-adv-x="654" 
d="M361 66q70 0 108 45.5t44 111.5h87q-6 -94 -69 -164.5t-172 -70.5q-108 0 -174 67t-86 180h-89v64h82q-1 11 -1 32q0 27 1 40h-82v65h91q21 112 89 178.5t175 66.5q108 0 170 -71.5t65 -164.5h-87q-4 62 -42 110t-108 48q-71 0 -114 -45t-59 -122h191v-65h-200
q-1 -12 -1 -38q0 -23 1 -34h200v-64h-192q32 -169 172 -169z" />
    <glyph glyph-name="uni2113" unicode="&#x2113;" horiz-adv-x="504" 
d="M389 176h60q-6 -85 -47.5 -136t-122.5 -51q-76 0 -111.5 40t-35.5 126v55l-60 -30l-20 56l80 42v207q0 196 171 196q65 0 103 -38.5t38 -104.5q0 -151 -229 -285v-86q0 -60 18 -85t60 -25q84 0 96 119zM297 617q-82 0 -82 -115v-175q149 105 149 206q0 84 -67 84z" />
    <glyph glyph-name="trademark" unicode="&#x2122;" horiz-adv-x="819" 
d="M149 623h-109v47h273v-47h-110v-288h-54v288zM373 670h66l129 -276h2l129 276h65v-335h-50v256h-2l-120 -256h-46l-120 255h-2v-255h-51v335z" />
    <glyph glyph-name="uni2126" unicode="&#x2126;" horiz-adv-x="741" 
d="M83 76h170v13q-175 96 -175 292q0 128 83 214t208 86q127 0 210.5 -86t83.5 -215q0 -98 -42 -169t-133 -122v-13h169v-76h-240l-5 114q99 57 134.5 118.5t35.5 147.5q0 97 -60 161t-153 64q-90 0 -150 -64.5t-60 -160.5q0 -85 35.5 -146t134.5 -119l-5 -115h-241v76z" />
    <glyph glyph-name="estimated" unicode="&#x212e;" horiz-adv-x="870" 
d="M50 337q0 143 112 243.5t273 100.5q160 0 272.5 -100.5t112.5 -243.5v-10h-623q-5 0 -5 -4v-200q0 -14 9 -21q96 -87 235 -87q167 0 267 110h37q-54 -62 -134 -98.5t-171 -36.5q-159 0 -272 101.5t-113 245.5zM675 352q4 0 4 5v199q0 15 -10 22q-101 77 -233 77
q-142 0 -234 -79q-10 -9 -10 -23v-196q0 -5 5 -5h478z" />
    <glyph glyph-name="uni2150" unicode="&#x2150;" horiz-adv-x="730" 
d="M108 334v268q-29 -25 -70 -30v59q40 6 71 39h66v-336h-67zM520 670h63l-434 -670h-63zM698 337v-53q-57 -68 -86 -133.5t-28 -149.5h-65q-1 147 103 279h-175v57h251z" />
    <glyph glyph-name="uni2151" unicode="&#x2151;" horiz-adv-x="771" 
d="M108 334v268q-29 -25 -70 -30v59q40 6 71 39h66v-336h-67zM520 670h63l-434 -670h-63zM588 343q64 0 102.5 -45.5t38.5 -124.5t-40.5 -128.5t-106.5 -49.5q-54 0 -85.5 28.5t-32.5 72.5h65q5 -47 56 -47q35 0 55 29t21 83q-39 -37 -93 -37q-49 0 -80.5 27.5t-31.5 75.5
q0 52 37 84t95 32zM585 176q45 0 74 37q-11 77 -71 77q-29 0 -46.5 -16t-17.5 -42t16 -41t45 -15z" />
    <glyph glyph-name="uni2153" unicode="&#x2153;" horiz-adv-x="760" 
d="M175 334h-67v268q-29 -25 -70 -30v59q40 6 71 39h66v-336zM86 0l434 670h63l-434 -670h-63zM454 105h65q2 -27 19 -42t47 -15t48 14t18 39q0 26 -18.5 36.5t-57.5 10.5h-18v47h17q70 0 70 47q0 22 -14.5 35.5t-42.5 13.5q-29 0 -45 -13.5t-16 -37.5q0 -5 1 -9h-64
q-1 5 -1 10q0 46 34.5 74t92.5 28t90 -25t32 -66q0 -62 -66 -78v-1q74 -6 74 -78q0 -46 -36 -73t-96 -27q-67 0 -99.5 29.5t-33.5 80.5z" />
    <glyph glyph-name="uni2154" unicode="&#x2154;" horiz-adv-x="843" 
d="M36 348q0 47 28 81t95 68q39 20 53 36t14 41q0 23 -14.5 36t-40.5 13q-62 0 -62 -59v-11h-66v12q0 52 35 81.5t94 29.5t91 -26t32 -72q0 -39 -22.5 -65t-77.5 -54q-45 -24 -63.5 -38t-21.5 -31h184v-56h-258v14zM169 0l434 670h63l-434 -670h-63zM537 105h65
q2 -27 19 -42t47 -15t48 14t18 39q0 26 -18.5 36.5t-57.5 10.5h-18v47h17q70 0 70 47q0 22 -14.5 35.5t-42.5 13.5q-29 0 -45 -13.5t-16 -37.5q0 -5 1 -9h-64q-1 5 -1 10q0 46 34.5 74t92.5 28t90 -25t32 -66q0 -62 -66 -78v-1q74 -6 74 -78q0 -46 -36 -73t-96 -27
q-67 0 -99.5 29.5t-33.5 80.5z" />
    <glyph glyph-name="uni2155" unicode="&#x2155;" horiz-adv-x="758" 
d="M175 334h-67v268q-29 -25 -70 -30v59q40 6 71 39h66v-336zM86 0l434 670h63l-434 -670h-63zM460 98h64q8 -50 62 -50q29 0 47 17t18 47q0 29 -16.5 44.5t-45.5 15.5q-38 0 -61 -30l-59 5l14 190h213l-3 -56h-155l-8 -84q23 25 71 25q53 0 85.5 -29.5t32.5 -78.5
q0 -54 -36.5 -86.5t-96.5 -32.5q-61 0 -93 29t-33 74z" />
    <glyph glyph-name="uni2156" unicode="&#x2156;" horiz-adv-x="841" 
d="M36 348q0 47 28 81t95 68q39 20 53 36t14 41q0 23 -14.5 36t-40.5 13q-62 0 -62 -59v-11h-66v12q0 52 35 81.5t94 29.5t91 -26t32 -72q0 -39 -22.5 -65t-77.5 -54q-45 -24 -63.5 -38t-21.5 -31h184v-56h-258v14zM169 0l434 670h63l-434 -670h-63zM543 98h64q8 -50 62 -50
q29 0 47 17t18 47q0 29 -16.5 44.5t-45.5 15.5q-38 0 -61 -30l-59 5l14 190h213l-3 -56h-155l-8 -84q23 25 71 25q53 0 85.5 -29.5t32.5 -78.5q0 -54 -36.5 -86.5t-96.5 -32.5q-61 0 -93 29t-33 74z" />
    <glyph glyph-name="uni2157" unicode="&#x2157;" horiz-adv-x="849" 
d="M36 438h65q2 -27 19 -42t47 -15t48 14t18 39q0 26 -18.5 36.5t-57.5 10.5h-18v47h17q70 0 70 47q0 22 -14.5 35.5t-42.5 13.5q-29 0 -45 -13.5t-16 -37.5q0 -5 1 -9h-64q-1 5 -1 10q0 46 34.5 74t92.5 28t90 -25t32 -66q0 -61 -66 -78v-1q74 -6 74 -78q0 -46 -36 -73
t-96 -27q-67 0 -99.5 29.5t-33.5 80.5zM177 0l434 670h63l-434 -670h-63zM551 98h64q8 -50 62 -50q29 0 47 17t18 47q0 29 -16.5 44.5t-45.5 15.5q-38 0 -61 -30l-59 5l14 190h213l-3 -56h-155l-8 -84q23 25 71 25q53 0 85.5 -29.5t32.5 -78.5q0 -54 -36.5 -86.5
t-96.5 -32.5q-61 0 -93 29t-33 74z" />
    <glyph glyph-name="uni2158" unicode="&#x2158;" horiz-adv-x="853" 
d="M205 402h-171v55l163 213h72v-213h52v-55h-52v-68h-64v68zM181 0l434 670h63l-434 -670h-63zM120 457h85v117v19h-2l-12 -18l-74 -94q-12 -17 -18 -23v-1h21zM555 98h64q8 -50 62 -50q29 0 47 17t18 47q0 29 -16.5 44.5t-45.5 15.5q-38 0 -61 -30l-59 5l14 190h213
l-3 -56h-155l-8 -84q23 25 71 25q53 0 85.5 -29.5t32.5 -78.5q0 -54 -36.5 -86.5t-96.5 -32.5q-61 0 -93 29t-33 74z" />
    <glyph glyph-name="uni2159" unicode="&#x2159;" horiz-adv-x="770" 
d="M108 334v268q-29 -25 -70 -30v59q40 6 71 39h66v-336h-67zM520 670h63l-434 -670h-63zM619 216q50 0 81.5 -27.5t31.5 -75.5q0 -52 -37.5 -85t-94.5 -33q-65 0 -103.5 45.5t-38.5 125.5q0 79 40.5 128t106.5 49q53 0 84 -28t33 -73h-65q-2 22 -15.5 35t-38.5 13
q-35 0 -55.5 -30t-21.5 -83q37 39 93 39zM600 48q28 0 46 17t18 45q0 26 -15.5 40.5t-43.5 14.5q-46 0 -77 -38q10 -79 72 -79z" />
    <glyph glyph-name="uni215A" unicode="&#x215a;" horiz-adv-x="859" 
d="M301 447q0 -54 -36.5 -86.5t-96.5 -32.5q-61 0 -93 29t-33 74h64q8 -50 62 -50q29 0 47 17t18 47q0 29 -16.5 44.5t-45.5 15.5q-38 0 -61 -30l-59 5l14 190h213l-3 -56h-155l-8 -84q23 25 71 25q53 0 85.5 -29.5t32.5 -78.5zM609 670h63l-434 -670h-63zM708 216
q50 0 81.5 -27.5t31.5 -75.5q0 -52 -37.5 -85t-94.5 -33q-65 0 -103.5 45.5t-38.5 125.5q0 79 40.5 128t106.5 49q53 0 84 -28t33 -73h-65q-2 22 -15.5 35t-38.5 13q-35 0 -55.5 -30t-21.5 -83q37 39 93 39zM689 48q28 0 46 17t18 45q0 26 -15.5 40.5t-43.5 14.5
q-46 0 -77 -38q10 -79 72 -79z" />
    <glyph glyph-name="uni215B" unicode="&#x215b;" horiz-adv-x="766" 
d="M175 334h-67v268q-29 -25 -70 -30v59q40 6 71 39h66v-336zM86 0l434 670h63l-434 -670h-63zM455 91q0 69 69 84v2q-57 15 -57 77q0 38 34 63.5t92 25.5q59 0 91.5 -25.5t32.5 -64.5q0 -29 -14.5 -49t-42.5 -27v-1q69 -17 69 -83q0 -44 -36.5 -71t-100.5 -27t-100.5 26.5
t-36.5 69.5zM654 248q0 22 -17 35t-44 13q-28 0 -45 -13t-17 -35q0 -24 17 -37.5t45 -13.5q27 0 44 14t17 37zM664 99q0 26 -19.5 41t-52.5 15q-32 0 -51.5 -15.5t-19.5 -40.5q0 -24 20 -39t52 -15t51.5 15t19.5 39z" />
    <glyph glyph-name="uni215C" unicode="&#x215c;" horiz-adv-x="857" 
d="M36 438h65q2 -27 19 -42t47 -15t48 14t18 39q0 26 -18.5 36.5t-57.5 10.5h-18v47h17q70 0 70 47q0 22 -14.5 35.5t-42.5 13.5q-29 0 -45 -13.5t-16 -37.5q0 -5 1 -9h-64q-1 5 -1 10q0 46 34.5 74t92.5 28t90 -25t32 -66q0 -61 -66 -78v-1q74 -6 74 -78q0 -46 -36 -73
t-96 -27q-67 0 -99.5 29.5t-33.5 80.5zM177 0l434 670h63l-434 -670h-63zM546 91q0 69 69 84v2q-57 15 -57 77q0 38 34 63.5t92 25.5q59 0 91.5 -25.5t32.5 -64.5q0 -29 -14.5 -49t-42.5 -27v-1q69 -17 69 -83q0 -44 -36.5 -71t-100.5 -27t-100.5 26.5t-36.5 69.5zM745 248
q0 22 -17 35t-44 13q-28 0 -45 -13t-17 -35q0 -24 17 -37.5t45 -13.5q27 0 44 14t17 37zM755 99q0 26 -19.5 41t-52.5 15q-32 0 -51.5 -15.5t-19.5 -40.5q0 -24 20 -39t52 -15t51.5 15t19.5 39z" />
    <glyph glyph-name="uni215D" unicode="&#x215d;" horiz-adv-x="855" 
d="M42 431h64q8 -50 62 -50q29 0 47 17t18 47q0 29 -16.5 44.5t-45.5 15.5q-38 0 -61 -30l-59 5l14 190h213l-3 -56h-155l-8 -84q23 25 71 25q53 0 85.5 -29.5t32.5 -78.5q0 -54 -36.5 -86.5t-96.5 -32.5q-61 0 -93 29t-33 74zM175 0l434 670h63l-434 -670h-63zM544 91
q0 69 69 84v2q-57 15 -57 77q0 38 34 63.5t92 25.5q59 0 91.5 -25.5t32.5 -64.5q0 -29 -14.5 -49t-42.5 -27v-1q69 -17 69 -83q0 -44 -36.5 -71t-100.5 -27t-100.5 26.5t-36.5 69.5zM743 248q0 22 -17 35t-44 13q-28 0 -45 -13t-17 -35q0 -24 17 -37.5t45 -13.5q27 0 44 14
t17 37zM753 99q0 26 -19.5 41t-52.5 15q-32 0 -51.5 -15.5t-19.5 -40.5q0 -24 20 -39t52 -15t51.5 15t19.5 39z" />
    <glyph glyph-name="uni215E" unicode="&#x215e;" horiz-adv-x="827" 
d="M280 617q-57 -68 -86 -133.5t-28 -149.5h-65q-1 147 103 279h-175v57h251v-53zM581 670h63l-434 -670h-63zM721 176q69 -17 69 -83q0 -44 -36.5 -71t-100.5 -27t-100.5 26.5t-36.5 69.5q0 69 69 84v2q-57 15 -57 77q0 38 34 63.5t92 25.5q59 0 91.5 -25.5t32.5 -64.5
q0 -29 -14.5 -49t-42.5 -27v-1zM654 296q-28 0 -45 -13t-17 -35q0 -24 17 -37.5t45 -13.5q27 0 44 14t17 37q0 22 -17 35t-44 13zM654 45q32 0 51.5 15t19.5 39q0 26 -19.5 41t-52.5 15q-32 0 -51.5 -15.5t-19.5 -40.5q0 -24 20 -39t52 -15z" />
    <glyph glyph-name="partialdiff" unicode="&#x2202;" horiz-adv-x="560" 
d="M279 -10q-101 0 -165 66.5t-64 181.5t60.5 182.5t155.5 67.5q116 0 156 -80h3q-7 41 -18.5 73.5t-34 65t-54.5 55t-81.5 37.5t-112.5 18l6 70q204 -11 292 -125.5t88 -321.5q0 -130 -62.5 -210t-168.5 -80zM425 243q0 81 -40 128.5t-105 47.5t-105 -48.5t-40 -129.5
q0 -85 40 -133.5t105 -48.5t105 49.5t40 134.5z" />
    <glyph glyph-name="uni2206" unicode="&#x2206;" horiz-adv-x="700" 
d="M38 70l264 600h83l261 -600v-70h-607zM557 73l-215 501l-216 -501h431z" />
    <glyph glyph-name="product" unicode="&#x220f;" horiz-adv-x="707" 
d="M666 738v-78h-62v-660h-87v660h-285v-660h-87v660h-63v78h584z" />
    <glyph glyph-name="summation" unicode="&#x2211;" horiz-adv-x="583" 
d="M43 -77l261 371l-246 366l1 78h486v-78h-385l230 -340v-45l-252 -352h415v-84h-509z" />
    <glyph glyph-name="minus" unicode="&#x2212;" horiz-adv-x="530" 
d="M58 356h414v-62h-414v62z" />
    <glyph glyph-name="radical" unicode="&#x221a;" horiz-adv-x="563" 
d="M100 367l-64 -29l-28 62l135 60l144 -337h2l174 624h75l-209 -747h-71z" />
    <glyph glyph-name="infinity" unicode="&#x221e;" horiz-adv-x="800" 
d="M588 469q74 0 119 -49.5t45 -130.5q0 -79 -46 -132.5t-122 -53.5q-53 0 -94.5 28.5t-91.5 99.5q-85 -128 -185 -128q-75 0 -119.5 48.5t-44.5 130.5q0 80 46 133.5t121 53.5q54 0 97 -28.5t92 -96.5q86 125 183 125zM580 175q43 0 71 31.5t28 82.5q0 50 -28 80.5
t-75 30.5q-33 0 -64.5 -24.5t-72.5 -82.5q44 -66 74 -92t67 -26zM224 172q34 0 66.5 24.5t74.5 84.5q-43 64 -74.5 90t-69.5 26q-44 0 -71.5 -32t-27.5 -83q0 -49 27.5 -79.5t74.5 -30.5z" />
    <glyph glyph-name="integral" unicode="&#x222b;" horiz-adv-x="400" 
d="M311 750q33 0 59 -8v-77q-22 7 -54 7q-73 0 -73 -92v-570q0 -89 -39 -129t-114 -40q-30 0 -60 7v77q22 -6 55 -6q73 0 73 92v570q0 169 153 169z" />
    <glyph glyph-name="approxequal" unicode="&#x2248;" horiz-adv-x="530" 
d="M163 428q-58 0 -99 -49v67q39 45 99 45q45 0 105 -37t99 -37q58 0 99 49v-67q-39 -44 -99 -44q-44 0 -104 36.5t-100 36.5zM163 223q-58 0 -99 -49v67q39 45 99 45q45 0 105 -37t99 -37q58 0 99 49v-67q-39 -44 -99 -44q-44 0 -104 36.5t-100 36.5z" />
    <glyph glyph-name="notequal" unicode="&#x2260;" horiz-adv-x="530" 
d="M472 397h-150l-51 -150h201v-62h-223l-48 -140h-63l48 140h-128v62h149l52 150h-201v62h222l50 146h64l-50 -146h128v-62z" />
    <glyph glyph-name="lessequal" unicode="&#x2264;" horiz-adv-x="530" 
d="M58 302v67l404 192v-69l-325 -155l325 -159v-71zM58 62h404v-62h-404v62z" />
    <glyph glyph-name="greaterequal" unicode="&#x2265;" horiz-adv-x="530" 
d="M69 176l324 157l-324 157v71l403 -194v-67l-403 -193v69zM68 62h404v-62h-404v62z" />
    <glyph glyph-name="lozenge" unicode="&#x25ca;" horiz-adv-x="578" 
d="M43 335l216 335h65l211 -335l-215 -335h-63zM444 335l-156 249l-156 -249l158 -247z" />
    <glyph glyph-name="a.alt01" horiz-adv-x="580" 
d="M48 249q0 121 62 193t163 72q59 0 97.5 -30.5t49.5 -65.5h2v86h84v-504h-84v101h-2q-11 -44 -52 -77.5t-105 -33.5q-94 0 -154.5 69t-60.5 190zM421 248v19q0 80 -39.5 128t-99.5 48q-66 0 -106.5 -52.5t-40.5 -139.5q0 -89 39.5 -139.5t102.5 -50.5q62 0 103 50t41 137z
" />
    <glyph glyph-name="a.alt02" horiz-adv-x="512" 
d="M43 124q0 39 16 68t42.5 46.5t68 29t85.5 16t103 5.5v41q0 57 -25.5 84t-79.5 27q-48 0 -78 -24.5t-30 -65.5q0 -13 1 -21h-80q-1 9 -1 21q0 73 53.5 118t138.5 45q91 0 138.5 -47.5t47.5 -137.5v-329h-84v80h-2q-43 -90 -161 -90q-73 0 -113 35t-40 99zM221 58
q45 0 82 26.5t55 77.5v67q-118 -2 -173 -23.5t-55 -72.5q0 -75 91 -75z" />
    <glyph glyph-name="g.alt01" horiz-adv-x="581" 
d="M423 504h84v-506q0 -109 -61.5 -167t-169.5 -58q-103 0 -160.5 48.5t-50.5 141.5h84q-4 -59 28.5 -88t99.5 -29q145 0 145 149v44v63h-2q-13 -45 -52 -77t-101 -32q-96 0 -157 68t-61 190q0 120 63.5 191.5t161.5 71.5q59 0 98.5 -31.5t48.5 -65.5h2v87zM279 64
q62 0 102.5 49.5t40.5 135.5v19q0 80 -40 127.5t-99 47.5q-66 0 -106.5 -52.5t-40.5 -138.5q0 -88 39.5 -138t103.5 -50z" />
    <glyph glyph-name="r.alt01" horiz-adv-x="460" 
d="M76 504h84v-114h2q13 53 48.5 88.5t91.5 35.5q59 0 92 -36.5t33 -108.5q0 -24 -6 -54h-87q3 16 3 34q0 90 -64 90q-46 0 -79 -52.5t-33 -135.5v-251h-85v504z" />
    <glyph glyph-name="zero.osf" horiz-adv-x="542" 
d="M42 266q0 126 62 203.5t167 77.5q107 0 168 -75t61 -200q0 -126 -62.5 -204.5t-168.5 -78.5t-166.5 76t-60.5 201zM413 271q0 92 -36.5 147.5t-105.5 55.5q-68 0 -105 -56.5t-38 -149.5q1 -93 37.5 -149.5t104.5 -56.5q69 0 106 58t37 151z" />
    <glyph glyph-name="one.osf" horiz-adv-x="330" 
d="M248 0h-87v441q-47 -47 -141 -59v78q85 13 144 77h84v-537z" />
    <glyph glyph-name="two.osf" horiz-adv-x="521" 
d="M36 23q8 65 50 116t139 96q92 42 128 70.5t36 72.5q0 46 -30.5 71.5t-90.5 25.5t-95 -28.5t-35 -82.5q0 -11 1 -17h-85q-1 7 -1 20q0 84 59 132t159 48q97 0 151 -44t54 -119q0 -71 -47 -114t-138 -80q-76 -31 -110 -57.5t-45 -59.5h338v-73h-441z" />
    <glyph glyph-name="three.osf" horiz-adv-x="547" 
d="M37 58h85q5 -59 42.5 -91.5t103.5 -32.5q65 0 104.5 33.5t39.5 92.5q0 113 -162 113h-46v72h42q150 0 150 118q0 51 -32.5 82t-93.5 31q-62 0 -98.5 -33t-36.5 -90q0 -11 1 -17h-84q-1 7 -1 18q0 88 61.5 140.5t161.5 52.5q97 0 153 -50t56 -132q0 -65 -32 -103.5
t-90 -47.5v-2q64 -7 101 -46.5t37 -108.5q0 -89 -63 -141.5t-168 -52.5q-111 0 -169.5 52t-61.5 143z" />
    <glyph glyph-name="four.osf" horiz-adv-x="541" 
d="M340 45h-322v70l316 422h91v-419h98v-73h-98v-172h-85v172zM152 118h188v275v33h-3q-5 -10 -21 -30l-175 -236l-31 -41v-2q7 0 20 0.5t22 0.5z" />
    <glyph glyph-name="five.osf" horiz-adv-x="541" 
d="M47 53h85q15 -119 136 -119q64 0 105 42t41 115q0 69 -37.5 108t-99.5 39q-87 0 -133 -71l-77 11l25 359h375l-3 -73h-306l-14 -217q53 63 144 63q94 0 153.5 -60t59.5 -158q0 -105 -65 -167t-168 -62q-105 0 -161 53t-60 137z" />
    <glyph glyph-name="six.osf" horiz-adv-x="557" 
d="M311 419q95 0 149 -54.5t54 -145.5q0 -100 -63 -164.5t-164 -64.5q-111 0 -177.5 88t-66.5 248t70.5 257t188.5 97q91 0 144 -53.5t55 -136.5h-85q-2 52 -33 85.5t-85 33.5q-78 0 -124 -71.5t-46 -196.5q74 78 183 78zM287 61q60 0 100 43t40 110q0 60 -32.5 96t-95.5 36
q-100 0 -168 -84q9 -99 50 -150t106 -51z" />
    <glyph glyph-name="seven.osf" horiz-adv-x="487" 
d="M464 538v-68q-109 -147 -167 -287.5t-57 -309.5h-85q-1 162 56 306.5t158 285.5h-351v73h446z" />
    <glyph glyph-name="eight.osf" horiz-adv-x="580" 
d="M47 178q0 141 136 173v3q-53 14 -83 54.5t-30 98.5q0 76 59 124.5t162 48.5q101 0 160 -48.5t59 -123.5q0 -58 -30 -99.5t-82 -56.5v-2q64 -16 99.5 -61t35.5 -111q0 -85 -65 -136.5t-177 -51.5q-113 0 -178.5 51.5t-65.5 136.5zM425 500q0 53 -36.5 84.5t-97.5 31.5
t-98 -32t-37 -84q0 -55 37 -88.5t98 -33.5q60 0 97 33.5t37 88.5zM290 56q71 0 113.5 35.5t42.5 94.5q0 60 -42.5 95.5t-113.5 35.5t-114 -35.5t-43 -95.5q0 -58 43 -94t114 -36z" />
    <glyph glyph-name="nine.osf" horiz-adv-x="558" 
d="M270 547q110 0 175.5 -87.5t65.5 -246.5t-68.5 -254.5t-184.5 -95.5q-91 0 -144.5 52t-55.5 134h81q2 -52 34.5 -85t88.5 -33q78 0 122 74.5t42 206.5q-69 -83 -175 -83q-96 0 -151 53.5t-55 143.5q0 97 63 159t162 62zM268 196q88 0 155 87q-10 96 -50 146t-103 50
q-60 0 -99.5 -40.5t-39.5 -105.5q0 -63 34 -100t103 -37z" />
    <glyph glyph-name="zero.tf" horiz-adv-x="620" 
d="M53 333q0 154 69.5 251.5t189.5 97.5t188 -95t68 -249t-69.5 -252t-189.5 -98t-188 95.5t-68 249.5zM478 337q0 119 -43 193t-124 74q-80 0 -123.5 -75.5t-44.5 -194.5q1 -119 44.5 -193.5t123.5 -74.5q81 0 124 75.5t43 195.5z" />
    <glyph glyph-name="one.tf" horiz-adv-x="620" 
d="M354 78h177v-78h-442v78h178v492q-47 -47 -151 -61v80q95 15 154 81h84v-592z" />
    <glyph glyph-name="two.tf" horiz-adv-x="620" 
d="M76 24q0 85 55 153t172 135q87 54 118.5 88.5t31.5 90.5q0 54 -33.5 84.5t-95.5 30.5q-70 0 -108.5 -35t-38.5 -102q0 -15 1 -24h-87q-1 9 -1 26q0 99 64 155t171 56q104 0 161 -50t57 -136q0 -76 -41.5 -126.5t-149.5 -114.5q-91 -55 -132 -93t-47 -82h371v-80h-468v24z
" />
    <glyph glyph-name="three.tf" horiz-adv-x="620" 
d="M70 202h87q5 -65 44.5 -101.5t108.5 -36.5q67 0 108.5 33.5t41.5 93.5t-41.5 87t-124.5 27h-55v74h54q77 0 116 31t39 86q0 50 -33.5 80t-97.5 30t-102 -33.5t-38 -91.5q0 -9 1 -17h-87q-1 9 -1 19q0 91 63.5 145t166.5 54q102 0 159.5 -51t57.5 -131q0 -63 -32.5 -101.5
t-89.5 -50.5v-2q135 -24 135 -159q0 -92 -65 -145.5t-174 -53.5q-116 0 -176.5 57.5t-64.5 156.5z" />
    <glyph glyph-name="four.tf" horiz-adv-x="620" 
d="M385 155h-336v76l329 439h94v-437h99v-78h-99v-155h-87v155zM184 233h201v291q0 5 0.5 16.5t0.5 16.5h-2l-22 -32l-186 -250l-31 -41v-2q6 0 18.5 0.5t20.5 0.5z" />
    <glyph glyph-name="five.tf" horiz-adv-x="620" 
d="M76 187h87q17 -123 141 -123q65 0 107.5 41t42.5 114q0 67 -38.5 104.5t-103.5 37.5q-88 0 -138 -72l-78 8l25 373h384l-3 -80h-307l-17 -219q54 66 149 66q96 0 156.5 -58t60.5 -158q0 -106 -66.5 -169.5t-173.5 -63.5q-108 0 -165.5 55.5t-62.5 143.5z" />
    <glyph glyph-name="six.tf" horiz-adv-x="620" 
d="M339 424q100 0 159 -55t59 -150q0 -101 -67 -166t-170 -65q-116 0 -186.5 88.5t-70.5 249.5q0 160 75 258t199 98q96 0 153 -54.5t59 -138.5h-87q-2 51 -36 84t-93 33q-82 0 -130.5 -72t-49.5 -196q76 86 186 86zM320 64q64 0 105.5 41.5t41.5 108.5q0 62 -35.5 98
t-102.5 36q-101 0 -172 -95q12 -93 54.5 -141t108.5 -48z" />
    <glyph glyph-name="seven.tf" horiz-adv-x="620" 
d="M551 670v-75q-61 -79 -100 -137.5t-76.5 -133.5t-55 -155t-17.5 -169h-87q-1 164 59 302.5t172 287.5h-376v80h481z" />
    <glyph glyph-name="eight.tf" horiz-adv-x="620" 
d="M59 180q0 65 35 108t99 60v2q-109 35 -109 153q0 78 61.5 128.5t166.5 50.5t165 -50.5t60 -129.5q0 -55 -29.5 -94.5t-81.5 -56.5v-2q136 -37 136 -167q0 -87 -68 -140.5t-184 -53.5t-183.5 53t-67.5 139zM449 498q0 51 -38 82.5t-99 31.5q-62 0 -100.5 -31t-38.5 -83
t38 -82.5t101 -30.5q61 0 99 31t38 82zM472 187q0 57 -44 91.5t-118 34.5q-73 0 -117 -34.5t-44 -91.5q0 -56 44.5 -90.5t117.5 -34.5t117 34t44 91z" />
    <glyph glyph-name="nine.tf" horiz-adv-x="620" 
d="M301 682q114 0 183.5 -88t69.5 -247q0 -162 -74.5 -260.5t-197.5 -98.5q-97 0 -154.5 53.5t-59.5 137.5h87q5 -53 38 -84t93 -31q83 0 130.5 72.5t49.5 202.5q-74 -84 -179 -84q-102 0 -162 55t-60 149q0 98 67 160.5t169 62.5zM297 332q98 0 164 93q-12 89 -54 135
t-108 46q-63 0 -103.5 -40t-40.5 -103q0 -60 36.5 -95.5t105.5 -35.5z" />
    <glyph glyph-name="zero.tosf" horiz-adv-x="570" 
d="M56 266q0 126 62 203.5t167 77.5q107 0 168.5 -75t61.5 -200q0 -126 -63 -204.5t-169 -78.5t-166.5 76t-60.5 201zM427 271q0 92 -36.5 147.5t-105.5 55.5q-68 0 -105 -56.5t-38 -149.5q1 -93 37.5 -149.5t104.5 -56.5q69 0 106 58t37 151z" />
    <glyph glyph-name="one.tosf" horiz-adv-x="570" 
d="M339 73h150v-73h-407v73h172v370q-47 -47 -138 -59v76q82 13 141 77h82v-464z" />
    <glyph glyph-name="two.tosf" horiz-adv-x="570" 
d="M65 23q8 65 50 116t139 96q92 42 128 70.5t36 72.5q0 46 -30.5 71.5t-90.5 25.5t-95 -28.5t-35 -82.5q0 -11 1 -17h-85q-1 7 -1 20q0 84 59 132t159 48q97 0 151 -44t54 -119q0 -71 -47 -114t-138 -80q-76 -31 -110 -57.5t-45 -59.5h338v-73h-441z" />
    <glyph glyph-name="three.tosf" horiz-adv-x="570" 
d="M54 58h85q5 -59 42.5 -91.5t103.5 -32.5q65 0 104.5 33.5t39.5 92.5q0 113 -162 113h-46v72h42q150 0 150 118q0 51 -32.5 82t-93.5 31q-62 0 -98.5 -33t-36.5 -90q0 -11 1 -17h-84q-1 7 -1 18q0 88 61.5 140.5t161.5 52.5q97 0 153 -50t56 -132q0 -65 -32 -103.5
t-90 -47.5v-2q64 -7 101 -46.5t37 -108.5q0 -89 -63 -141.5t-168 -52.5q-111 0 -169.5 52t-61.5 143z" />
    <glyph glyph-name="four.tosf" horiz-adv-x="570" 
d="M357 45h-324v70l318 422h89v-419h98v-73h-98v-172h-83v172zM167 118h190v275v33h-3q-5 -10 -21 -30l-177 -236l-31 -41v-2q7 0 20 0.5t22 0.5z" />
    <glyph glyph-name="five.tosf" horiz-adv-x="570" 
d="M58 53h85q15 -119 136 -119q64 0 105 42t41 115q0 69 -37.5 108t-99.5 39q-87 0 -133 -71l-77 11l25 359h375l-3 -73h-306l-14 -217q53 63 144 63q94 0 153.5 -60t59.5 -158q0 -105 -65 -167t-168 -62q-105 0 -161 53t-60 137z" />
    <glyph glyph-name="six.tosf" horiz-adv-x="570" 
d="M318 419q95 0 149 -54.5t54 -145.5q0 -100 -63 -164.5t-164 -64.5q-111 0 -177.5 88t-66.5 248t70.5 257t188.5 97q91 0 144 -53.5t55 -136.5h-85q-2 52 -33 85.5t-85 33.5q-78 0 -123.5 -71t-46.5 -196q73 77 183 77zM294 61q60 0 100 43t40 110q0 60 -32.5 96t-95.5 36
q-101 0 -168 -83q9 -99 50 -150.5t106 -51.5z" />
    <glyph glyph-name="seven.tosf" horiz-adv-x="570" 
d="M514 538v-68q-111 -150 -170.5 -289t-58.5 -308h-85q-1 162 57.5 305.5t161.5 286.5h-356v73h451z" />
    <glyph glyph-name="eight.tosf" horiz-adv-x="570" 
d="M42 178q0 141 136 173v3q-53 14 -83 54.5t-30 98.5q0 76 59 124.5t162 48.5q101 0 160 -48.5t59 -123.5q0 -58 -30 -99.5t-82 -56.5v-2q64 -16 99.5 -61t35.5 -111q0 -85 -65 -136.5t-177 -51.5q-113 0 -178.5 51.5t-65.5 136.5zM420 500q0 53 -36.5 84.5t-97.5 31.5
t-98 -32t-37 -84q0 -55 37 -88.5t98 -33.5q60 0 97 33.5t37 88.5zM285 56q71 0 113.5 35.5t42.5 94.5q0 60 -42.5 95.5t-113.5 35.5t-114 -35.5t-43 -95.5q0 -58 43 -94t114 -36z" />
    <glyph glyph-name="nine.tosf" horiz-adv-x="570" 
d="M277 547q110 0 175.5 -87.5t65.5 -246.5t-68.5 -254.5t-184.5 -95.5q-91 0 -144.5 52t-55.5 134h81q2 -52 34.5 -85t88.5 -33q77 0 121 73.5t43 204.5q-69 -80 -175 -80q-96 0 -151 53.5t-55 143.5q0 97 63 159t162 62zM275 196q88 0 155 83q-9 98 -49 149t-104 51
q-60 0 -99.5 -40.5t-39.5 -105.5q0 -63 34 -100t103 -37z" />
    <glyph glyph-name="indianrupee" horiz-adv-x="608" 
d="M586 671v-65h-156q59 -45 68 -120h88v-65h-89q-10 -68 -55 -112.5t-118 -55.5l186 -253h-103l-180 244h-165v75h191q64 0 105 27t52 75h-348v65h350q-7 53 -49 81.5t-111 28.5h-190v75h524z" />
    <glyph glyph-name="aacute.alt01" horiz-adv-x="580" 
d="M245 571l120 152h76l-124 -152h-72zM48 249q0 121 62 193t163 72q59 0 97.5 -30.5t49.5 -65.5h2v86h84v-504h-84v101h-2q-11 -44 -52 -77.5t-105 -33.5q-94 0 -154.5 69t-60.5 190zM421 248v19q0 80 -39.5 128t-99.5 48q-66 0 -106.5 -52.5t-40.5 -139.5
q0 -89 39.5 -139.5t102.5 -50.5q62 0 103 50t41 137z" />
    <glyph glyph-name="acircumflex.alt01" horiz-adv-x="580" 
d="M149 571l113 152h59l111 -152h-71l-72 97l-71 -97h-69zM48 249q0 121 62 193t163 72q59 0 97.5 -30.5t49.5 -65.5h2v86h84v-504h-84v101h-2q-11 -44 -52 -77.5t-105 -33.5q-94 0 -154.5 69t-60.5 190zM421 248v19q0 80 -39.5 128t-99.5 48q-66 0 -106.5 -52.5
t-40.5 -139.5q0 -89 39.5 -139.5t102.5 -50.5q62 0 103 50t41 137z" />
    <glyph glyph-name="adieresis.alt01" horiz-adv-x="580" 
d="M165 690h84v-85h-84v85zM329 690h84v-85h-84v85zM48 249q0 121 62 193t163 72q59 0 97.5 -30.5t49.5 -65.5h2v86h84v-504h-84v101h-2q-11 -44 -52 -77.5t-105 -33.5q-94 0 -154.5 69t-60.5 190zM421 248v19q0 80 -39.5 128t-99.5 48q-66 0 -106.5 -52.5t-40.5 -139.5
q0 -89 39.5 -139.5t102.5 -50.5q62 0 103 50t41 137z" />
    <glyph glyph-name="agrave.alt01" horiz-adv-x="580" 
d="M141 723h75l120 -152h-72zM48 249q0 121 62 193t163 72q59 0 97.5 -30.5t49.5 -65.5h2v86h84v-504h-84v101h-2q-11 -44 -52 -77.5t-105 -33.5q-94 0 -154.5 69t-60.5 190zM421 248v19q0 80 -39.5 128t-99.5 48q-66 0 -106.5 -52.5t-40.5 -139.5q0 -89 39.5 -139.5
t102.5 -50.5q62 0 103 50t41 137z" />
    <glyph glyph-name="aring.alt01" horiz-adv-x="580" 
d="M186 654q0 41 29.5 68.5t73.5 27.5t73.5 -27.5t29.5 -68.5q0 -42 -29 -69t-74 -27q-44 0 -73.5 27t-29.5 69zM342 654q0 23 -14.5 37.5t-38.5 14.5t-38.5 -14.5t-14.5 -37.5q0 -24 14.5 -38.5t38.5 -14.5t38.5 15t14.5 38zM48 249q0 121 62 193t163 72q59 0 97.5 -30.5
t49.5 -65.5h2v86h84v-504h-84v101h-2q-11 -44 -52 -77.5t-105 -33.5q-94 0 -154.5 69t-60.5 190zM421 248v19q0 80 -39.5 128t-99.5 48q-66 0 -106.5 -52.5t-40.5 -139.5q0 -89 39.5 -139.5t102.5 -50.5q62 0 103 50t41 137z" />
    <glyph glyph-name="atilde.alt01" horiz-adv-x="580" 
d="M227 705q45 0 80 -38q24 -27 41 -27q33 0 38 63h53q-1 -57 -23.5 -89t-63.5 -32q-46 0 -80 38q-25 28 -42 28q-35 0 -38 -64h-53q0 56 23 88.5t65 32.5zM48 249q0 121 62 193t163 72q59 0 97.5 -30.5t49.5 -65.5h2v86h84v-504h-84v101h-2q-11 -44 -52 -77.5t-105 -33.5
q-94 0 -154.5 69t-60.5 190zM421 248v19q0 80 -39.5 128t-99.5 48q-66 0 -106.5 -52.5t-40.5 -139.5q0 -89 39.5 -139.5t102.5 -50.5q62 0 103 50t41 137z" />
    <glyph glyph-name="abreve.alt01" horiz-adv-x="580" 
d="M159 716h58q13 -89 73 -89q32 0 49 21.5t25 67.5h56q-8 -74 -39.5 -109.5t-91.5 -35.5t-91 36t-39 109zM48 249q0 121 62 193t163 72q59 0 97.5 -30.5t49.5 -65.5h2v86h84v-504h-84v101h-2q-11 -44 -52 -77.5t-105 -33.5q-94 0 -154.5 69t-60.5 190zM421 248v19
q0 80 -39.5 128t-99.5 48q-66 0 -106.5 -52.5t-40.5 -139.5q0 -89 39.5 -139.5t102.5 -50.5q62 0 103 50t41 137z" />
    <glyph glyph-name="amacron.alt01" horiz-adv-x="580" 
d="M163 667h251v-59h-251v59zM48 249q0 121 62 193t163 72q59 0 97.5 -30.5t49.5 -65.5h2v86h84v-504h-84v101h-2q-11 -44 -52 -77.5t-105 -33.5q-94 0 -154.5 69t-60.5 190zM421 248v19q0 80 -39.5 128t-99.5 48q-66 0 -106.5 -52.5t-40.5 -139.5q0 -89 39.5 -139.5
t102.5 -50.5q62 0 103 50t41 137z" />
    <glyph glyph-name="aogonek.alt01" horiz-adv-x="580" 
d="M466 -149q28 0 53 13v-57q-27 -14 -70 -14q-45 0 -76.5 21.5t-31.5 61.5q0 70 108 124h-27v101h-2q-11 -44 -52 -77.5t-105 -33.5q-94 0 -154.5 69t-60.5 190t62 193t163 72q59 0 97.5 -30.5t49.5 -65.5h2v86h84v-504q-55 -34 -73 -57t-18 -46q0 -22 14 -34t37 -12z
M421 248v19q0 80 -39.5 128t-99.5 48q-66 0 -106.5 -52.5t-40.5 -139.5q0 -89 39.5 -139.5t102.5 -50.5q62 0 103 50t41 137z" />
    <glyph glyph-name="aacute.alt02" horiz-adv-x="512" 
d="M218 571l120 152h76l-124 -152h-72zM43 124q0 39 16 68t42.5 46.5t68 29t85.5 16t103 5.5v41q0 57 -25.5 84t-79.5 27q-48 0 -78 -24.5t-30 -65.5q0 -13 1 -21h-80q-1 9 -1 21q0 73 53.5 118t138.5 45q91 0 138.5 -47.5t47.5 -137.5v-329h-84v80h-2q-43 -90 -161 -90
q-73 0 -113 35t-40 99zM221 58q45 0 82 26.5t55 77.5v67q-118 -2 -173 -23.5t-55 -72.5q0 -75 91 -75z" />
    <glyph glyph-name="acircumflex.alt02" horiz-adv-x="512" 
d="M122 571l113 152h59l111 -152h-71l-72 97l-71 -97h-69zM43 124q0 39 16 68t42.5 46.5t68 29t85.5 16t103 5.5v41q0 57 -25.5 84t-79.5 27q-48 0 -78 -24.5t-30 -65.5q0 -13 1 -21h-80q-1 9 -1 21q0 73 53.5 118t138.5 45q91 0 138.5 -47.5t47.5 -137.5v-329h-84v80h-2
q-43 -90 -161 -90q-73 0 -113 35t-40 99zM221 58q45 0 82 26.5t55 77.5v67q-118 -2 -173 -23.5t-55 -72.5q0 -75 91 -75z" />
    <glyph glyph-name="adieresis.alt02" horiz-adv-x="512" 
d="M138 690h84v-85h-84v85zM302 690h84v-85h-84v85zM43 124q0 39 16 68t42.5 46.5t68 29t85.5 16t103 5.5v41q0 57 -25.5 84t-79.5 27q-48 0 -78 -24.5t-30 -65.5q0 -13 1 -21h-80q-1 9 -1 21q0 73 53.5 118t138.5 45q91 0 138.5 -47.5t47.5 -137.5v-329h-84v80h-2
q-43 -90 -161 -90q-73 0 -113 35t-40 99zM221 58q45 0 82 26.5t55 77.5v67q-118 -2 -173 -23.5t-55 -72.5q0 -75 91 -75z" />
    <glyph glyph-name="agrave.alt02" horiz-adv-x="512" 
d="M114 723h75l120 -152h-72zM43 124q0 39 16 68t42.5 46.5t68 29t85.5 16t103 5.5v41q0 57 -25.5 84t-79.5 27q-48 0 -78 -24.5t-30 -65.5q0 -13 1 -21h-80q-1 9 -1 21q0 73 53.5 118t138.5 45q91 0 138.5 -47.5t47.5 -137.5v-329h-84v80h-2q-43 -90 -161 -90
q-73 0 -113 35t-40 99zM221 58q45 0 82 26.5t55 77.5v67q-118 -2 -173 -23.5t-55 -72.5q0 -75 91 -75z" />
    <glyph glyph-name="aring.alt02" horiz-adv-x="512" 
d="M159 654q0 41 29.5 68.5t73.5 27.5t73.5 -27.5t29.5 -68.5q0 -42 -29 -69t-74 -27q-44 0 -73.5 27t-29.5 69zM315 654q0 23 -14.5 37.5t-38.5 14.5t-38.5 -14.5t-14.5 -37.5q0 -24 14.5 -38.5t38.5 -14.5t38.5 15t14.5 38zM43 124q0 39 16 68t42.5 46.5t68 29t85.5 16
t103 5.5v41q0 57 -25.5 84t-79.5 27q-48 0 -78 -24.5t-30 -65.5q0 -13 1 -21h-80q-1 9 -1 21q0 73 53.5 118t138.5 45q91 0 138.5 -47.5t47.5 -137.5v-329h-84v80h-2q-43 -90 -161 -90q-73 0 -113 35t-40 99zM221 58q45 0 82 26.5t55 77.5v67q-118 -2 -173 -23.5t-55 -72.5
q0 -75 91 -75z" />
    <glyph glyph-name="atilde.alt02" horiz-adv-x="512" 
d="M200 705q45 0 80 -38q24 -27 41 -27q33 0 38 63h53q-1 -57 -23.5 -89t-63.5 -32q-46 0 -80 38q-25 28 -42 28q-35 0 -38 -64h-53q0 56 23 88.5t65 32.5zM43 124q0 39 16 68t42.5 46.5t68 29t85.5 16t103 5.5v41q0 57 -25.5 84t-79.5 27q-48 0 -78 -24.5t-30 -65.5
q0 -13 1 -21h-80q-1 9 -1 21q0 73 53.5 118t138.5 45q91 0 138.5 -47.5t47.5 -137.5v-329h-84v80h-2q-43 -90 -161 -90q-73 0 -113 35t-40 99zM221 58q45 0 82 26.5t55 77.5v67q-118 -2 -173 -23.5t-55 -72.5q0 -75 91 -75z" />
    <glyph glyph-name="abreve.alt02" horiz-adv-x="512" 
d="M132 716h58q13 -89 73 -89q32 0 49 21.5t25 67.5h56q-8 -74 -39.5 -109.5t-91.5 -35.5t-91 36t-39 109zM43 124q0 39 16 68t42.5 46.5t68 29t85.5 16t103 5.5v41q0 57 -25.5 84t-79.5 27q-48 0 -78 -24.5t-30 -65.5q0 -13 1 -21h-80q-1 9 -1 21q0 73 53.5 118t138.5 45
q91 0 138.5 -47.5t47.5 -137.5v-329h-84v80h-2q-43 -90 -161 -90q-73 0 -113 35t-40 99zM221 58q45 0 82 26.5t55 77.5v67q-118 -2 -173 -23.5t-55 -72.5q0 -75 91 -75z" />
    <glyph glyph-name="amacron.alt02" horiz-adv-x="512" 
d="M136 667h251v-59h-251v59zM43 124q0 39 16 68t42.5 46.5t68 29t85.5 16t103 5.5v41q0 57 -25.5 84t-79.5 27q-48 0 -78 -24.5t-30 -65.5q0 -13 1 -21h-80q-1 9 -1 21q0 73 53.5 118t138.5 45q91 0 138.5 -47.5t47.5 -137.5v-329h-84v80h-2q-43 -90 -161 -90
q-73 0 -113 35t-40 99zM221 58q45 0 82 26.5t55 77.5v67q-118 -2 -173 -23.5t-55 -72.5q0 -75 91 -75z" />
    <glyph glyph-name="aogonek.alt02" horiz-adv-x="512" 
d="M403 -149q28 0 53 13v-57q-27 -14 -70 -14q-45 0 -76.5 21.5t-31.5 61.5q0 70 108 124h-27v80h-2q-43 -90 -161 -90q-73 0 -113 35t-40 99q0 39 16 68t42.5 46.5t68 29t85.5 16t103 5.5v41q0 57 -25.5 84t-79.5 27q-48 0 -78 -24.5t-30 -65.5q0 -13 1 -21h-80q-1 9 -1 21
q0 73 53.5 118t138.5 45q91 0 138.5 -47.5t47.5 -137.5v-329q-55 -34 -73 -57t-18 -46q0 -22 14 -34t37 -12zM358 162v67q-118 -2 -173 -23.5t-55 -72.5q0 -75 91 -75q45 0 82 26.5t55 77.5z" />
    <glyph glyph-name="gbreve.alt01" horiz-adv-x="581" 
d="M286 571q-60 0 -91 36t-39 109h58q13 -89 73 -89q32 0 49 21.5t25 67.5h56q-8 -74 -39.5 -109.5t-91.5 -35.5zM423 504h84v-506q0 -109 -61.5 -167t-169.5 -58q-103 0 -160.5 48.5t-50.5 141.5h84q-4 -59 28.5 -88t99.5 -29q145 0 145 149v44v63h-2q-13 -45 -52 -77
t-101 -32q-96 0 -157 68t-61 190q0 120 63.5 191.5t161.5 71.5q59 0 98.5 -31.5t48.5 -65.5h2v87zM279 64q62 0 102.5 49.5t40.5 135.5v19q0 80 -40 127.5t-99 47.5q-66 0 -106.5 -52.5t-40.5 -138.5q0 -88 39.5 -138t103.5 -50z" />
    <glyph glyph-name="gcircumflex.alt01" horiz-adv-x="581" 
d="M286 668l-71 -97h-69l113 152h59l111 -152h-71zM423 504h84v-506q0 -109 -61.5 -167t-169.5 -58q-103 0 -160.5 48.5t-50.5 141.5h84q-4 -59 28.5 -88t99.5 -29q145 0 145 149v44v63h-2q-13 -45 -52 -77t-101 -32q-96 0 -157 68t-61 190q0 120 63.5 191.5t161.5 71.5
q59 0 98.5 -31.5t48.5 -65.5h2v87zM279 64q62 0 102.5 49.5t40.5 135.5v19q0 80 -40 127.5t-99 47.5q-66 0 -106.5 -52.5t-40.5 -138.5q0 -88 39.5 -138t103.5 -50z" />
    <glyph glyph-name="gcommaaccent.alt01" horiz-adv-x="581" 
d="M328 665v-77h-85v72l43 87h42l-33 -82h33zM423 504h84v-506q0 -109 -61.5 -167t-169.5 -58q-103 0 -160.5 48.5t-50.5 141.5h84q-4 -59 28.5 -88t99.5 -29q145 0 145 149v44v63h-2q-13 -45 -52 -77t-101 -32q-96 0 -157 68t-61 190q0 120 63.5 191.5t161.5 71.5
q59 0 98.5 -31.5t48.5 -65.5h2v87zM279 64q62 0 102.5 49.5t40.5 135.5v19q0 80 -40 127.5t-99 47.5q-66 0 -106.5 -52.5t-40.5 -138.5q0 -88 39.5 -138t103.5 -50z" />
    <glyph glyph-name="gdotaccent.alt01" horiz-adv-x="581" 
d="M331 696v-90h-89v90h89zM423 504h84v-506q0 -109 -61.5 -167t-169.5 -58q-103 0 -160.5 48.5t-50.5 141.5h84q-4 -59 28.5 -88t99.5 -29q145 0 145 149v44v63h-2q-13 -45 -52 -77t-101 -32q-96 0 -157 68t-61 190q0 120 63.5 191.5t161.5 71.5q59 0 98.5 -31.5
t48.5 -65.5h2v87zM279 64q62 0 102.5 49.5t40.5 135.5v19q0 80 -40 127.5t-99 47.5q-66 0 -106.5 -52.5t-40.5 -138.5q0 -88 39.5 -138t103.5 -50z" />
    <glyph glyph-name="i.dot" horiz-adv-x="236" 
d="M74 696h89v-90h-89v90zM76 504h85v-504h-85v504z" />
    <glyph glyph-name="racute.alt01" horiz-adv-x="460" 
d="M208 571l120 152h76l-124 -152h-72zM76 504h84v-114h2q13 53 48.5 88.5t91.5 35.5q59 0 92 -36.5t33 -108.5q0 -24 -6 -54h-87q3 16 3 34q0 90 -64 90q-46 0 -79 -52.5t-33 -135.5v-251h-85v504z" />
    <glyph glyph-name="rcaron.alt01" horiz-adv-x="460" 
d="M395 718l-113 -152h-59l-111 152h71l72 -98l71 98h69zM76 504h84v-114h2q13 53 48.5 88.5t91.5 35.5q59 0 92 -36.5t33 -108.5q0 -24 -6 -54h-87q3 16 3 34q0 90 -64 90q-46 0 -79 -52.5t-33 -135.5v-251h-85v504z" />
    <glyph glyph-name="rcommaaccent.alt01" horiz-adv-x="460" 
d="M302 514q59 0 92 -36.5t33 -108.5q0 -24 -6 -54h-87q3 16 3 34q0 90 -64 90q-46 0 -79 -52.5t-33 -135.5v-251h-85v504h84v-114h2q13 53 48.5 88.5t91.5 35.5zM76 -137v77h85v-72l-43 -87h-42l33 82h-33z" />
    <glyph glyph-name="dot.catalan" horiz-adv-x="112" 
d="M10 407h92v-90h-92v90z" />
    </font>
</defs>
</svg>
