<svg xmlns="http://www.w3.org/2000/svg" xmlns:xlink="http://www.w3.org/1999/xlink" width="167.64" height="157.947" viewBox="0 0 167.64 157.947">
  <defs>
    <clipPath id="clip-path">
      <rect id="Rectangle_3412" data-name="Rectangle 3412" width="167.64" height="157.947" transform="translate(0 0)" fill="none"/>
    </clipPath>
  </defs>
  <g id="Group_97365" data-name="Group 97365" transform="translate(0 -0.001)">
    <g id="Group_97365-2" data-name="Group 97365" transform="translate(0 0.001)" clip-path="url(#clip-path)">
      <path id="Path_63252" data-name="Path 63252" d="M161.362,37.159c0-4.53-2.942-6.737-6.567-4.925L69.767,74.748C66.142,76.561,63.2,81.71,63.2,86.24v93.645c0,4.53,2.942,6.737,6.567,4.925L154.8,142.3c3.624-1.812,6.567-6.961,6.567-11.492Z" transform="translate(-54.992 -27.496)" fill="#569bd5" fill-rule="evenodd"/>
      <path id="Path_63253" data-name="Path 63253" d="M588.078,493.7v5.987a17.392,17.392,0,0,0-8.338,2.039c-12.015,6.007-21.769,23.426-21.769,38.874,0,5.753,1.353,10.426,3.67,13.714l-5.066,2.533a30.915,30.915,0,0,1-2.965-14.067c0-18.542,11.708-39.45,26.13-46.661a22.015,22.015,0,0,1,8.338-2.419" transform="translate(-481.708 -429.575)" fill="#3e6f97" fill-rule="evenodd"/>
      <path id="Path_63254" data-name="Path 63254" d="M65.371,91.454S63.2,187.233,63.2,184.014V90.369c0-4.53,2.942-9.679,6.567-11.492L154.8,36.363c2.053-1.026-82.858,43.6-82.858,43.6-3.624,1.812-6.567,6.961-6.567,11.492" transform="translate(-54.992 -31.625)" fill="#c1ddf4" fill-rule="evenodd"/>
      <path id="Path_63255" data-name="Path 63255" d="M10.39,157.406l-.008.013-7.913-3.957C.964,152.71,0,150.878,0,148.285V54.64c0-4.53,2.942-9.679,6.567-11.492L91.6.634a4.509,4.509,0,0,1,4.1-.253L104.01,4.54v0a4.46,4.46,0,0,0-4.206.2L14.775,47.253c-3.624,1.812-6.567,6.961-6.567,11.492v93.645c0,2.425.843,4.184,2.182,5.017" transform="translate(0 -0.001)" fill="#80b7e4" fill-rule="evenodd"/>
      <path id="Path_63256" data-name="Path 63256" d="M191.72,239.75c0-.724-.47-1.076-1.049-.787a2.209,2.209,0,0,0-1.049,1.836v68.83c0,.724.47,1.076,1.049.787a2.208,2.208,0,0,0,1.049-1.836ZM233.6,220.357c0-.724-.47-1.076-1.049-.787a2.209,2.209,0,0,0-1.049,1.836v63.774c0,.724.47,1.076,1.049.787a2.209,2.209,0,0,0,1.049-1.836Zm-20.945-9.035c0-.724-.47-1.076-1.049-.787a2.209,2.209,0,0,0-1.049,1.836V285.02c0,.724.47,1.076,1.049.787a2.209,2.209,0,0,0,1.049-1.836Zm42.288-15.986c0-.724-.47-1.076-1.049-.787a2.209,2.209,0,0,0-1.049,1.836v38.081c0,.724.47,1.076,1.049.787a2.209,2.209,0,0,0,1.049-1.836Z" transform="translate(-164.994 -169.193)" fill="#c1ddf4" fill-rule="evenodd"/>
      <path id="Path_63257" data-name="Path 63257" d="M332.048,368.833c0-1.084-.7-1.611-1.57-1.178l-7.328,3.666a3.307,3.307,0,0,0-1.57,2.749V418.4c0,1.084.7,1.611,1.57,1.178l7.328-3.666a3.306,3.306,0,0,0,1.57-2.749Z" transform="translate(-279.814 -319.773)" fill="#3e6f97" fill-rule="evenodd"/>
      <path id="Path_63258" data-name="Path 63258" d="M493.252,439.007c0-1.083-.7-1.611-1.57-1.177l-7.328,3.666a3.307,3.307,0,0,0-1.57,2.749v23.336c0,1.083.7,1.611,1.57,1.178l7.328-3.666a3.307,3.307,0,0,0,1.57-2.749Z" transform="translate(-420.081 -380.833)" fill="#3e6f97" fill-rule="evenodd"/>
      <path id="Path_63259" data-name="Path 63259" d="M657.647,248.826c0-1.084-.7-1.611-1.57-1.178l-7.328,3.666a3.307,3.307,0,0,0-1.57,2.749v13.308c0,1.084.7,1.611,1.57,1.178l7.328-3.666a3.306,3.306,0,0,0,1.57-2.749Z" transform="translate(-563.125 -215.352)" fill="#3e6f97" fill-rule="evenodd"/>
      <path id="Path_63260" data-name="Path 63260" d="M170.844,677.857c0-1.083-.7-1.611-1.57-1.178l-7.328,3.666a3.306,3.306,0,0,0-1.57,2.749v35.8c0,1.084.7,1.611,1.57,1.178l7.328-3.666a3.307,3.307,0,0,0,1.57-2.749Z" transform="translate(-139.547 -588.661)" fill="#3e6f97" fill-rule="evenodd"/>
      <path id="Path_63261" data-name="Path 63261" d="M335.2,426.15a1.3,1.3,0,0,1-.59-1.238V380.586a3.307,3.307,0,0,1,1.57-2.749l7.328-3.666a1.078,1.078,0,0,1,.98-.061h0l2.079,1.04-1.489,8.341v36.183a3.307,3.307,0,0,1-1.57,2.749l-5.905,2.954-.323,1.812L335.2,426.15Z" transform="translate(-291.15 -325.442)" fill="#668134" fill-rule="evenodd"/>
      <path id="Path_63262" data-name="Path 63262" d="M496.4,475.333a1.3,1.3,0,0,1-.59-1.238V450.759a3.307,3.307,0,0,1,1.57-2.749l7.328-3.666a1.041,1.041,0,0,1,1.064-.012v-.006l1.993,1-1.489,7.3v16.233a3.307,3.307,0,0,1-1.57,2.749l-5.825,2.914-.38,1.864Z" transform="translate(-431.417 -386.501)" fill="#962831" fill-rule="evenodd"/>
      <path id="Path_63263" data-name="Path 63263" d="M660.8,275.123a1.3,1.3,0,0,1-.59-1.238V260.576a3.307,3.307,0,0,1,1.57-2.749l7.328-3.666a1.077,1.077,0,0,1,.98-.061l2.079,1.04-1.489,3.369v10.137a3.307,3.307,0,0,1-1.57,2.749l-5.293,2.648-.936,2.118Z" transform="translate(-574.462 -221.019)" fill="#668134" fill-rule="evenodd"/>
      <path id="Path_63264" data-name="Path 63264" d="M173.994,726.642a1.3,1.3,0,0,1-.59-1.238v-35.8a3.307,3.307,0,0,1,1.57-2.749l7.328-3.666a1.078,1.078,0,0,1,.98-.061l2.079,1.04-1.489,4.174v31.821a3.306,3.306,0,0,1-1.57,2.749l-5.512,2.758-.716,2.009Z" transform="translate(-150.883 -594.329)" fill="#962831" fill-rule="evenodd"/>
      <path id="Path_63265" data-name="Path 63265" d="M361.084,383.352c0-1.084-.7-1.611-1.57-1.178l-7.328,3.666a3.307,3.307,0,0,0-1.57,2.749v44.325c0,1.084.7,1.611,1.57,1.178l7.328-3.666a3.307,3.307,0,0,0,1.57-2.749Z" transform="translate(-305.079 -332.406)" fill="#9abf4c" fill-rule="evenodd"/>
      <path id="Path_63266" data-name="Path 63266" d="M522.288,453.525c0-1.083-.7-1.611-1.57-1.177l-7.328,3.666a3.307,3.307,0,0,0-1.57,2.749V482.1c0,1.083.7,1.611,1.57,1.178l7.328-3.666a3.307,3.307,0,0,0,1.57-2.749Z" transform="translate(-445.346 -393.466)" fill="#ea3f4c" fill-rule="evenodd"/>
      <path id="Path_63267" data-name="Path 63267" d="M686.684,263.343c0-1.084-.7-1.611-1.57-1.178l-7.328,3.666a3.307,3.307,0,0,0-1.57,2.749v13.308c0,1.084.7,1.611,1.57,1.178l7.328-3.666a3.307,3.307,0,0,0,1.57-2.749Z" transform="translate(-588.391 -227.984)" fill="#9abf4c" fill-rule="evenodd"/>
      <path id="Path_63268" data-name="Path 63268" d="M199.88,692.374c0-1.084-.7-1.611-1.57-1.178l-7.328,3.666a3.306,3.306,0,0,0-1.57,2.749v35.8c0,1.084.7,1.611,1.57,1.178l7.328-3.666a3.307,3.307,0,0,0,1.57-2.749Z" transform="translate(-164.812 -601.293)" fill="#ea3f4c" fill-rule="evenodd"/>
      <path id="Path_63269" data-name="Path 63269" d="M1053.772,899.176l-21.727-10.864m.128-6.357c.209.008.261.007.469.027a6.371,6.371,0,0,1,1.819.449c.193.079.239.1.428.194l21.727,10.864a6.358,6.358,0,1,1-5.687,11.373L1029.2,894a6.358,6.358,0,0,1,2.5-12.036c.157-.008.313-.008.47-.008" transform="translate(-892.477 -767.409)" fill="#ea3f4c"/>
      <path id="Path_63270" data-name="Path 63270" d="M1063.87,890.026l17.174,8.587a6.358,6.358,0,0,1-5.687,11.374l-17.227-8.614.053.026a6.358,6.358,0,0,0,5.687-11.373" transform="translate(-920.702 -774.431)" fill="#962831"/>
      <path id="Path_63271" data-name="Path 63271" d="M938.083,850.214c.1,0,.128,0,.229.014a2.856,2.856,0,0,1,.777.192c.095.038.117.051.209.094l11.851,5.926a2.85,2.85,0,0,1-2.549,5.1l-11.851-5.926a2.85,2.85,0,0,1,1.219-5.4Z" transform="translate(-813.716 -739.79)" fill="#962831"/>
      <path id="Path_63272" data-name="Path 63272" d="M593.934,579.109h0l-8.815-4.408h0c-6.149-3.074-10.108-10.7-10.108-21.479,0-18.542,11.708-39.45,26.13-46.661,6.036-3.018,11.6-3.161,16.022-.948h0l8.815,4.408h0c-4.426-2.213-9.986-2.07-16.022.948-14.422,7.211-26.13,28.119-26.13,46.661,0,10.782,3.959,18.4,10.108,21.479" transform="translate(-500.33 -438.632)" fill="#f39292" fill-rule="evenodd"/>
      <path id="Path_63273" data-name="Path 63273" d="M736.672,584.488c7.785.374,13.249,7.575,13.249,19.136,0,15.448-9.754,32.866-21.769,38.874-7.051,3.526-13.324,2.342-17.3-2.36a17.276,17.276,0,0,0,8.52-2.032c12.015-6.007,21.769-23.426,21.769-38.873,0-6.382-1.665-11.435-4.466-14.745" transform="translate(-618.525 -508.576)" fill="#962831" fill-rule="evenodd"/>
      <path id="Path_63274" data-name="Path 63274" d="M672.163,573.375c12.012-6.006,21.764,1.7,21.764,17.2s-9.752,32.961-21.764,38.967-21.764-1.7-21.764-17.2,9.752-32.961,21.764-38.967" transform="translate(-565.927 -497.131)" fill="#c1ddf4" fill-rule="evenodd"/>
      <path id="Path_63275" data-name="Path 63275" d="M722.551,573.446c6.711,1.431,11.259,8.382,11.259,18.968,0,15.5-9.752,32.961-21.764,38.967-6.225,3.112-11.843,2.542-15.811-.887a16.006,16.006,0,0,0,10.5-1.766c12.012-6.006,21.764-23.466,21.764-38.967,0-7.468-2.264-13.127-5.953-16.315" transform="translate(-605.809 -498.968)" fill="#80b7e4" fill-rule="evenodd"/>
      <path id="Path_63276" data-name="Path 63276" d="M669.015,540.5c14.422-7.211,26.13,1.989,26.13,20.531s-11.708,39.45-26.13,46.661-26.13-1.989-26.13-20.531,11.709-39.45,26.13-46.661m0,5.607c12.015-6.007,21.769,1.657,21.769,17.1s-9.755,32.866-21.769,38.873-21.769-1.657-21.769-17.1,9.754-32.866,21.769-38.874" transform="translate(-559.388 -468.162)" fill="#ea3f4c" fill-rule="evenodd"/>
      <path id="Path_63277" data-name="Path 63277" d="M705.832,667.647a23.605,23.605,0,0,1-1.169-7.677c0-12.869,8.1-27.365,18.069-32.351a18.147,18.147,0,0,1,1.966-.846c-10.53,9.527-18.288,25.783-18.866,40.875" transform="translate(-613.143 -545.368)" fill="#eff4fb" fill-rule="evenodd"/>
    </g>
  </g>
</svg>
