<svg id="Group_97117" data-name="Group 97117" xmlns="http://www.w3.org/2000/svg" xmlns:xlink="http://www.w3.org/1999/xlink" width="45.662" height="50" viewBox="0 0 45.662 50">
  <defs>
    <linearGradient id="linear-gradient" x1="0.5" y1="1" x2="0.5" y2="0.013" gradientUnits="objectBoundingBox">
      <stop offset="0" stop-color="#00acea"/>
      <stop offset="1" stop-color="#00efd1"/>
    </linearGradient>
    <clipPath id="clip-path">
      <rect id="Rectangle_1964" data-name="Rectangle 1964" width="45.662" height="50" fill="url(#linear-gradient)"/>
    </clipPath>
  </defs>
  <g id="Group_97116" data-name="Group 97116" clip-path="url(#clip-path)">
    <path id="Path_62996" data-name="Path 62996" d="M171.813,146.52a1.921,1.921,0,0,0-.79-1.247l-3.647-2.593a.7.7,0,0,1-.29-.708l.905-5.58-.169-.028.172.01a.858.858,0,0,0-1.47-.7l-6.793,7.91a1.911,1.911,0,0,0,.454,2.9l4.208,2.588a.723.723,0,0,1,.334.726l-.88,6.322-.026.182a.858.858,0,0,0,1.555.609l6.1-8.966a1.921,1.921,0,0,0,.333-1.437" transform="translate(-142.717 -121.354)" fill="url(#linear-gradient)"/>
    <path id="Path_62997" data-name="Path 62997" d="M43.153,29.165l-.326-.22a20.45,20.45,0,0,0,.4-3.947,19.99,19.99,0,0,0-.409-3.961l.323-.2A5.026,5.026,0,0,0,45.6,15.718a9.031,9.031,0,0,0-3.347-5.8,5.027,5.027,0,0,0-5.664-.444l-.351.167a19.982,19.982,0,0,0-6.847-3.927V5.33A5.026,5.026,0,0,0,26.4.72a9.227,9.227,0,0,0-7.154,0,5.025,5.025,0,0,0-2.982,4.606V5.72a20,20,0,0,0-6.86,3.955l-.324-.187A5.026,5.026,0,0,0,3.41,9.92,9.031,9.031,0,0,0,.06,15.715a5.026,5.026,0,0,0,2.449,5.119l.326.22a19.653,19.653,0,0,0,.01,7.917l-.322.187A5.026,5.026,0,0,0,.06,34.281a9.029,9.029,0,0,0,3.346,5.8,5.025,5.025,0,0,0,5.664.444l.351-.167a19.984,19.984,0,0,0,6.847,3.927v.389a5.025,5.025,0,0,0,2.982,4.607l.007,0a9.231,9.231,0,0,0,7.154,0,5.026,5.026,0,0,0,2.982-4.606v-.392a20,20,0,0,0,6.814-3.954l.323.187.015.009a5.024,5.024,0,0,0,5.657-.44,9.03,9.03,0,0,0,3.4-5.8,5.026,5.026,0,0,0-2.449-5.119M25.49,43.98v.7a1.122,1.122,0,0,1-.593,1,5.3,5.3,0,0,1-4.131,0,1.123,1.123,0,0,1-.593-1.008v-.694a3.488,3.488,0,0,0-2.453-3.312,16.541,16.541,0,0,1-5.908-3.4l0,0A3.489,3.489,0,0,0,7.7,36.8l-.554.329-.013.007a1.122,1.122,0,0,1-1.271-.092A5.182,5.182,0,0,1,3.91,33.676a1.121,1.121,0,0,1,.565-1.124l.569-.33.005,0a3.49,3.49,0,0,0,1.744-3.806,15.716,15.716,0,0,1,0-6.8,3.489,3.489,0,0,0-1.739-3.8l-.583-.338a1.121,1.121,0,0,1-.562-1.113A5.192,5.192,0,0,1,5.862,13.03a1.122,1.122,0,0,1,1.27-.088l.573.332.014.008a3.491,3.491,0,0,0,4.094-.466,16.534,16.534,0,0,1,5.9-3.4,3.489,3.489,0,0,0,2.46-3.394v-.7a1.122,1.122,0,0,1,.593-1,5.293,5.293,0,0,1,4.131,0,1.123,1.123,0,0,1,.593,1.008v.694a3.489,3.489,0,0,0,2.453,3.312,16.534,16.534,0,0,1,5.9,3.4,3.488,3.488,0,0,0,4.122.468l.554-.329a1.121,1.121,0,0,1,1.265.147l.018.015A5.181,5.181,0,0,1,41.753,16.4a1.123,1.123,0,0,1-.565,1.124l-.574.332-.009.005a3.489,3.489,0,0,0-1.658,3.8,15.715,15.715,0,0,1,0,6.794,3.488,3.488,0,0,0,1.657,3.8l.573.332.015.009a1.122,1.122,0,0,1,.562,1.117A5.188,5.188,0,0,1,39.8,37.093a1.122,1.122,0,0,1-1.27.088l-.587-.34a3.488,3.488,0,0,0-4.094.466,16.535,16.535,0,0,1-5.9,3.4,3.489,3.489,0,0,0-2.46,3.271" transform="translate(0 0)" fill="url(#linear-gradient)"/>
  </g>
</svg>
