<svg xmlns="http://www.w3.org/2000/svg" xmlns:xlink="http://www.w3.org/1999/xlink" width="113.851" height="152.058" viewBox="0 0 113.851 152.058">
  <defs>
    <clipPath id="clip-path">
      <rect id="Rectangle_3410" data-name="Rectangle 3410" width="113.85" height="152.058" fill="none"/>
    </clipPath>
  </defs>
  <g id="Group_97362" data-name="Group 97362" transform="translate(0)">
    <path id="Path_63178" data-name="Path 63178" d="M6.469,35.805l-.254.116-.31.179-.31.179-.309.179-.31.179-.31.179-.309.179-.31.179-.309.179-.31.179-.309.179-.31.178-.31.179-.31.179-.309.179-.31.179-.309.179-.254.177-.236.221-.215.259-.187.286-.154.3L.1,40.343l-.075.316L0,40.967V151.038l.019.43.057.4.093.362.126.324.157.287.188.247.215.209.241.166,13.526,7.81-.241-.168-.215-.209-.187-.247-.157-.287-.126-.324-.093-.36-.056-.4-.019-.43V145.9L21,150.214l91.587-52.878.253-.117.238-.051.213.012.188.07L99.954,89.44l-.188-.071-.214-.011-.236.051-.254.117L13.526,138.912V48.776l.025-.308.074-.315.116-.316.154-.3.188-.286.214-.259.236-.221.254-.176.31-.179.31-.179.309-.179.31-.179.309-.179.31-.179.31-.179.309-.179.31-.179.31-.179.309-.179.31-.179.309-.179.31-.179.31-.179.31-.179.254-.117.237-.051.213.011.187.071L7.106,35.835l-.187-.07L6.7,35.754Z" transform="translate(0 -9.458)" fill="#2c3e50"/>
    <g id="Group_97363" data-name="Group 97363" transform="translate(0)">
      <g id="Group_97362-2" data-name="Group 97362" clip-path="url(#clip-path)">
        <path id="Path_63179" data-name="Path 63179" d="M22.129,163.813a2.628,2.628,0,0,1-2.643.262,2.629,2.629,0,0,1-1.1-2.42V51.584A2.8,2.8,0,0,1,19.653,49.4l4.953-2.86c.694-.4,1.261-.073,1.261.729V153.022l91.586-52.878c.695-.4,1.262-.074,1.262.728v5.72a2.8,2.8,0,0,1-1.262,2.186Z" transform="translate(-4.865 -12.266)" fill="#415a73" fill-rule="evenodd"/>
        <path id="Path_63180" data-name="Path 63180" d="M28.556,59.308V56.824L89.311,21.748l1.575,1.575Z" transform="translate(-7.554 -5.753)" fill="#ccc" fill-rule="evenodd"/>
        <path id="Path_63181" data-name="Path 63181" d="M90.885,104.1l-62.33,35.986V59.875l62.33-35.986Z" transform="translate(-7.554 -6.319)" fill="#e6eaeb" fill-rule="evenodd"/>
        <path id="Path_63182" data-name="Path 63182" d="M37.215,119.139l-4.945-2.855-.24-.151-.21-.192-.18-.228-.151-.26-.121-.293-.089-.32-.058-.346-.026-.368.005-.389.037-.406.07-.421.1-.432.135-.443.169-.449.2-.454L50.507,72.6l.192-.379.2-.369.213-.36.223-.349.232-.338.24-.327.248-.313.254-.3.266-.291.271-.278.277-.262.282-.246.286-.23.29-.213.292-.195.294-.177,19.71-11.447L83.026,33.61l4.945,2.855L79.224,59.383,59.514,70.831l-.294.177-.292.2-.29.213-.286.23-.282.246-.277.263-.271.277-.266.292-.254.3-.248.313-.24.327L56.281,74l-.222.349-.213.36-.2.369-.192.379L36.86,113.986l-.2.453-.168.449-.136.442-.1.433-.069.421-.038.407-.005.388.026.368.059.346.089.321.12.292.151.261.18.228.211.191ZM97.942,46.684,93,43.83l-.443-.321-.342-.471-.226-.613-.1-.748-.214-6.85,4.945,2.854.214,6.85.1.749.226.613.342.47ZM78.311,44.368l-.224-.172-.2-.215-.172-.259-1.428-2.538-.14-.3-.1-.324-.069-.348-.035-.37,0-.388.031-.4.062-.416.093-.424.123-.428.152-.432.181-.43.208-.427.235-.419.26-.408.286-.395.31-.377.876-1,.876-1,.876-1,.876-1,.876-1,.875-1,.877-1,.876-1,.876-1,.876-1,.876-1,.875-1,.876-1,.876-1,.877-1,.875-1,.877-1,.876-1,.876-1,.876-1,.876-1,.876-1,.876-1,.875-1,.877-1,.876-1,.876-1,.876-1,.876-1,.876-1,.875-1,.877-1L100.965,0l-.876,1-.876,1-.876,1-.877,1-.876,1-.875,1-.877,1-.875,1-.876,1-.876,1-.876,1-.877,1-.875,1-.876,1-.877,1-.876,1-.875,1-.876,1-.876,1-.876,1-.876,1-.876,1-.877,1-.875,1-.876,1-.876,1-.876,1-.876,1-.876,1-.876,1-.876,1-.876,1-.31.378-.286.395-.26.408-.235.418-.208.427-.18.43-.151.432-.124.43-.093.423-.063.415L71,36.6v.388l.035.37.069.348.1.324.14.3,1.428,2.538.171.258.2.215.223.172Z" transform="translate(-8.252)" fill="#c43e3f" fill-rule="evenodd"/>
        <path id="Path_63183" data-name="Path 63183" d="M38.637,115.013,57.229,76.487a12.345,12.345,0,0,1,1.8-2.735,9,9,0,0,1,2.259-1.894L81,60.41l8.746-22.918L84.141,43.9c-1.718,1.963-3.805,2.344-4.647.847l-1.427-2.538c-.841-1.5-.127-4.319,1.59-6.284l28.03-32.045q.556,17.69,1.109,35.381a7.682,7.682,0,0,1-3.347,6.082l-3.241,2c-1.912,1.183-3.526.378-3.593-1.79L98.4,38.709,88.167,65.367a12.462,12.462,0,0,1-1.749,2.911,9.37,9.37,0,0,1-2.5,2.207l-20.145,11.7L46.7,117.551c-1.169,2.423-3.357,4.01-4.871,3.534l-2.568-.808c-1.514-.476-1.795-2.841-.625-5.264" transform="translate(-10.03 -1.027)" fill="#e74c3c" fill-rule="evenodd"/>
      </g>
    </g>
  </g>
</svg>
